<?xml version="1.0" encoding="UTF-8" standalone="no"?>
<!-- Created with Inkscape (http://www.inkscape.org/) -->

<svg
   xmlns:dc="http://purl.org/dc/elements/1.1/"
   xmlns:cc="http://creativecommons.org/ns#"
   xmlns:rdf="http://www.w3.org/1999/02/22-rdf-syntax-ns#"
   xmlns:svg="http://www.w3.org/2000/svg"
   xmlns="http://www.w3.org/2000/svg"
   xmlns:sodipodi="http://sodipodi.sourceforge.net/DTD/sodipodi-0.dtd"
   xmlns:inkscape="http://www.inkscape.org/namespaces/inkscape"
   width="210mm"
   height="297mm"
   viewBox="0 0 744.09448819 1052.3622047"
   id="svg2"
   version="1.1"
   inkscape:version="0.91 r13725"
   sodipodi:docname="planche_bas.svg">
  <defs
     id="defs4" />
  <sodipodi:namedview
     id="base"
     pagecolor="#ffffff"
     bordercolor="#666666"
     borderopacity="1.0"
     inkscape:pageopacity="0.0"
     inkscape:pageshadow="2"
     inkscape:zoom="0.70710678"
     inkscape:cx="227.19671"
     inkscape:cy="808.79639"
     inkscape:document-units="px"
     inkscape:current-layer="layer1"
     showgrid="false"
     inkscape:window-width="1440"
     inkscape:window-height="838"
     inkscape:window-x="-8"
     inkscape:window-y="-8"
     inkscape:window-maximized="1"
     showguides="false">
    <inkscape:grid
       type="xygrid"
       id="grid4287" />
  </sodipodi:namedview>
  <metadata
     id="metadata7">
    <rdf:RDF>
      <cc:Work
         rdf:about="">
        <dc:format>image/svg+xml</dc:format>
        <dc:type
           rdf:resource="http://purl.org/dc/dcmitype/StillImage" />
        <dc:title />
      </cc:Work>
    </rdf:RDF>
  </metadata>
  <g
     inkscape:label="Calque 1"
     inkscape:groupmode="layer"
     id="layer1">
    <path
       style="fill:none;fill-opacity:1;stroke:#ff0000;stroke-width:0.03543307;stroke-linejoin:miter;stroke-miterlimit:4;stroke-dasharray:none;stroke-dashoffset:0;stroke-opacity:1"
       d="m 223.4718,200.14548 -75.94096,34.53454 c -0.99527,0.47538 -1.19304,0.50155 -1.19304,1.61969 l 0,229.01953 c 0.0118,0.16439 0.0109,0.16212 0.15803,0.23886 25.89206,11.75631 51.77624,23.58557 77.66117,35.32588 0.11322,0.0511 0.13597,0.0555 0.24144,0.0555 l 341.99409,0 c 3.77839,0.0292 5.09575,1.29382 5.127,4.65241 l 0,29.78594 c 0.0234,0.73437 0.0736,0.86634 0.98047,0.97572 l 33.44632,0 c 0.79977,0.009 0.99899,-0.19222 0.99118,-0.98584 l 0,-34.43018 -0.004,0 0,-292.2207 0.002,0 0,-43.42103 c -0.002,-0.70959 -0.23574,-0.98913 -1.01362,-0.99304 l -33.35938,0 c -0.5625,0.0594 -0.99688,0.37985 -1.04107,0.98913 l 0,32.10157 C 571.48974,199.3622 571,199.78323 569,199.78323 l -343.85156,0 c -0.661,0.0177 -1.25277,0.162 -1.67664,0.36225 z"
       id="rect4136"
       inkscape:connector-curvature="0"
       sodipodi:nodetypes="ccccccccccccccccccccccccc" />
    <circle
       style="fill:none;fill-opacity:1;stroke:#ff0000;stroke-width:0.03543307;stroke-linejoin:miter;stroke-miterlimit:4;stroke-dasharray:none;stroke-dashoffset:0;stroke-opacity:1"
       id="path4159"
       cx="589.22864"
       cy="518.64514"
       r="10.62544" />
    <circle
       style="fill:none;fill-opacity:1;stroke:#ff0000;stroke-width:0.03543307;stroke-linejoin:miter;stroke-miterlimit:4;stroke-dasharray:none;stroke-dashoffset:0;stroke-opacity:1"
       id="path4159-4"
       cx="589.22864"
       cy="182.00922"
       r="10.62544" />
    <circle
       style="fill:none;fill-opacity:1;stroke:#ff0000;stroke-width:0.03543307;stroke-linejoin:miter;stroke-miterlimit:4;stroke-dasharray:none;stroke-dashoffset:0;stroke-opacity:1"
       id="path4159-4-8"
       cx="198.96399"
       cy="233.31107"
       r="10.62544" />
    <circle
       style="fill:none;fill-opacity:1;stroke:#ff0000;stroke-width:0.03543307;stroke-linejoin:miter;stroke-miterlimit:4;stroke-dasharray:none;stroke-dashoffset:0;stroke-opacity:1"
       id="path4159-4-7"
       cx="198.875"
       cy="467.23721"
       r="10.62544" />
    <circle
       style="fill:none;fill-opacity:1;stroke:#ff0000;stroke-width:0.03543307;stroke-miterlimit:4;stroke-dasharray:none;stroke-opacity:1"
       id="path3336"
       cx="-417.92847"
       cy="-266.7114"
       r="5.3968129"
       transform="scale(-1,-1)" />
    <circle
       style="fill:none;fill-opacity:1;stroke:#ff0000;stroke-width:0.03543307;stroke-miterlimit:4;stroke-dasharray:none;stroke-opacity:1"
       id="path3336-0"
       cx="-233.42847"
       cy="-284.7114"
       r="5.3968129"
       transform="scale(-1,-1)" />
    <circle
       style="fill:none;fill-opacity:1;stroke:#ff0000;stroke-width:0.03543307;stroke-miterlimit:4;stroke-dasharray:none;stroke-opacity:1"
       id="path3336-0-3"
       cx="-233.42847"
       cy="-383.7114"
       r="5.3968129"
       transform="scale(-1,-1)" />
    <circle
       style="fill:none;fill-opacity:1;stroke:#ff0000;stroke-width:0.03543307;stroke-miterlimit:4;stroke-dasharray:none;stroke-opacity:1"
       id="path3336-3"
       cx="-413.42847"
       cy="-437.7114"
       r="5.3968129"
       transform="scale(-1,-1)" />
    <path
       inkscape:connector-curvature="0"
       style="fill:none;fill-opacity:1;stroke:#000000;stroke-width:1.77165353;stroke-miterlimit:4;stroke-dasharray:none;stroke-opacity:1"
       d="m 467.39723,446.68099 0,-188.9375 -233.93751,0 0,8.97461 -0.0215,0 0.5625,0.52735 -9.56446,10.18554 0,115.80078 9.02344,8.47266 0.043,0.041 -0.043,0.0449 0,38.86132 6.42187,6.0293 227.51564,0 z"
       id="rect3383" />
    <rect
       style="fill:none;fill-opacity:1;stroke:#ff0000;stroke-width:0.03543307;stroke-linejoin:miter;stroke-miterlimit:4;stroke-dasharray:none;stroke-dashoffset:0;stroke-opacity:1"
       id="rect4289"
       width="35.433071"
       height="372.04724"
       x="631.55304"
       y="164.32188"
       rx="3.5433071"
       ry="3.5433071" />
    <circle
       style="fill:none;fill-opacity:1;stroke:#ff0000;stroke-width:0.03543307;stroke-linejoin:miter;stroke-miterlimit:4;stroke-dasharray:none;stroke-dashoffset:0;stroke-opacity:1"
       id="path4159-4-9"
       cx="649.22864"
       cy="518.64514"
       r="10.62544" />
    <circle
       style="fill:none;fill-opacity:1;stroke:#ff0000;stroke-width:0.03543307;stroke-linejoin:miter;stroke-miterlimit:4;stroke-dasharray:none;stroke-dashoffset:0;stroke-opacity:1"
       id="path4159-4-76"
       cx="649.22864"
       cy="182.00922"
       r="10.62544" />
    <ellipse
       style="fill:none;fill-opacity:1;stroke:#ff0000;stroke-width:0.03543307;stroke-linejoin:miter;stroke-miterlimit:4;stroke-dasharray:none;stroke-dashoffset:0;stroke-opacity:1"
       id="path4159-4-76-1"
       cx="649.22864"
       cy="182.00922"
       rx="7.0836258"
       ry="7.0836263" />
    <ellipse
       style="fill:none;fill-opacity:1;stroke:#ff0000;stroke-width:0.03543307;stroke-linejoin:miter;stroke-miterlimit:4;stroke-dasharray:none;stroke-dashoffset:0;stroke-opacity:1"
       id="path4159-4-76-1-2"
       cx="649.22864"
       cy="518.64514"
       rx="7.0836258"
       ry="7.0836263" />
  </g>
</svg>
