<?xml version="1.0" encoding="UTF-8" standalone="no"?>
<!-- Created with Inkscape (http://www.inkscape.org/) -->

<svg
   xmlns:dc="http://purl.org/dc/elements/1.1/"
   xmlns:cc="http://creativecommons.org/ns#"
   xmlns:rdf="http://www.w3.org/1999/02/22-rdf-syntax-ns#"
   xmlns:svg="http://www.w3.org/2000/svg"
   xmlns="http://www.w3.org/2000/svg"
   xmlns:sodipodi="http://sodipodi.sourceforge.net/DTD/sodipodi-0.dtd"
   xmlns:inkscape="http://www.inkscape.org/namespaces/inkscape"
   width="600mm"
   height="300mm"
   viewBox="0 0 2125.9843 1062.9921"
   id="svg2"
   version="1.1"
   inkscape:version="0.48.4 r9939"
   sodipodi:docname="couronne_FTCA.svg"
   inkscape:export-filename="d:\Profiles\jHoltzer\SparkleShare\sofab-open-models\Découpe laser\2016-couronne-frenchtech\couronne.png"
   inkscape:export-xdpi="90"
   inkscape:export-ydpi="90">
  <defs
     id="defs4">
    <linearGradient
       id="linearGradient5404"
       gradientUnits="userSpaceOnUse"
       x1="1205.9912"
       y1="188.16161"
       x2="1192.7725"
       y2="188.16161"
       gradientTransform="matrix(-1,0,0,1,1283.0488,0)">
      <stop
         offset="0"
         style="stop-color:#C61A5C"
         id="stop4253-7" />
      <stop
         offset="1"
         style="stop-color:#ED3556"
         id="stop4255-4" />
    </linearGradient>
    <linearGradient
       id="linearGradient5408"
       gradientUnits="userSpaceOnUse"
       x1="1198.6699"
       y1="101.6709"
       x2="1218.5371"
       y2="101.6709"
       gradientTransform="matrix(-1,0,0,1,1283.0488,0)">
      <stop
         offset="0"
         style="stop-color:#C61A5C"
         id="stop4260-4" />
      <stop
         offset="1"
         style="stop-color:#8D181B"
         id="stop4262-3" />
    </linearGradient>
    <linearGradient
       id="linearGradient5412"
       gradientUnits="userSpaceOnUse"
       x1="1191.5869"
       y1="60.325199"
       x2="1214.8887"
       y2="60.325199"
       gradientTransform="matrix(-1,0,0,1,1283.0488,0)">
      <stop
         offset="0.0205"
         style="stop-color:#8D181B"
         id="stop4267-8" />
      <stop
         offset="0.6727"
         style="stop-color:#C61A5C"
         id="stop4269-2" />
    </linearGradient>
    <linearGradient
       id="linearGradient5416"
       gradientUnits="userSpaceOnUse"
       x1="1224.4941"
       y1="135.9429"
       x2="1260.9277"
       y2="135.9429"
       gradientTransform="matrix(-1,0,0,1,1283.0488,0)">
      <stop
         offset="0.0205"
         style="stop-color:#8D181B"
         id="stop4274-5" />
      <stop
         offset="1"
         style="stop-color:#BB2025"
         id="stop4276-2" />
    </linearGradient>
    <linearGradient
       id="linearGradient5420"
       gradientUnits="userSpaceOnUse"
       x1="1218.4863"
       y1="149.8784"
       x2="1260.9277"
       y2="149.8784"
       gradientTransform="matrix(-1,0,0,1,1283.0488,0)">
      <stop
         offset="3.617100e-004"
         style="stop-color:#8D181B"
         id="stop4281-7" />
      <stop
         offset="0.3557"
         style="stop-color:#C61A5C"
         id="stop4283-1" />
      <stop
         offset="0.9909"
         style="stop-color:#EC382F"
         id="stop4285-1" />
    </linearGradient>
    <linearGradient
       id="linearGradient5425"
       gradientUnits="userSpaceOnUse"
       x1="1173.7168"
       y1="97.661102"
       x2="1216.6223"
       y2="122.4326"
       gradientTransform="matrix(-1,0,0,1,1283.0488,0)">
      <stop
         offset="0"
         style="stop-color:#E35F92"
         id="stop4290-8" />
      <stop
         offset="0.0585"
         style="stop-color:#E25C8B"
         id="stop4292-3" />
      <stop
         offset="0.1677"
         style="stop-color:#DF5378"
         id="stop4294-6" />
      <stop
         offset="0.3157"
         style="stop-color:#DB445B"
         id="stop4296-7" />
      <stop
         offset="0.495"
         style="stop-color:#D52D35"
         id="stop4298-0" />
      <stop
         offset="0.559"
         style="stop-color:#D32329"
         id="stop4300-3" />
      <stop
         offset="0.6706"
         style="stop-color:#CF2228"
         id="stop4302-5" />
      <stop
         offset="0.7712"
         style="stop-color:#C42127"
         id="stop4304-5" />
      <stop
         offset="0.8676"
         style="stop-color:#B21F23"
         id="stop4306-0" />
      <stop
         offset="0.9609"
         style="stop-color:#991B1E"
         id="stop4308-6" />
      <stop
         offset="1"
         style="stop-color:#8D181B"
         id="stop4310-5" />
    </linearGradient>
    <linearGradient
       id="linearGradient5438"
       gradientUnits="userSpaceOnUse"
       x1="1218.5371"
       y1="122.5747"
       x2="1248.7695"
       y2="122.5747"
       gradientTransform="matrix(-1,0,0,1,1283.0488,0)">
      <stop
         offset="0.2041"
         style="stop-color:#ED3556"
         id="stop4315-5" />
      <stop
         offset="1"
         style="stop-color:#8D181B"
         id="stop4317-0" />
    </linearGradient>
    <linearGradient
       id="linearGradient5442"
       gradientUnits="userSpaceOnUse"
       x1="1271.4443"
       y1="122.604"
       x2="1223.7783"
       y2="122.604"
       gradientTransform="matrix(-1,0,0,1,1283.0488,0)">
      <stop
         offset="0"
         style="stop-color:#EC382F"
         id="stop4322-3" />
      <stop
         offset="0.4838"
         style="stop-color:#ED3556"
         id="stop4324-2" />
      <stop
         offset="0.9728"
         style="stop-color:#E05FA1"
         id="stop4326-4" />
    </linearGradient>
    <linearGradient
       id="linearGradient5447"
       gradientUnits="userSpaceOnUse"
       x1="1261.2285"
       y1="112.9688"
       x2="1276.0957"
       y2="112.9688"
       gradientTransform="matrix(-1,0,0,1,1283.0488,0)">
      <stop
         offset="0.0205"
         style="stop-color:#8D181B"
         id="stop4331-4" />
      <stop
         offset="1"
         style="stop-color:#C61A5C"
         id="stop4333-9" />
    </linearGradient>
    <linearGradient
       id="linearGradient5451"
       gradientUnits="userSpaceOnUse"
       x1="1207.4717"
       y1="208.2251"
       x2="1190.8312"
       y2="191.58459"
       gradientTransform="matrix(-1,0,0,1,1283.0488,0)">
      <stop
         offset="0"
         style="stop-color:#8D181B"
         id="stop4338-8" />
      <stop
         offset="1"
         style="stop-color:#C61A5C"
         id="stop4340-0" />
    </linearGradient>
    <linearGradient
       id="linearGradient5455"
       gradientUnits="userSpaceOnUse"
       x1="1176.5469"
       y1="55.256802"
       x2="1196.9521"
       y2="55.256802"
       gradientTransform="matrix(-1,0,0,1,1283.0488,0)">
      <stop
         offset="0"
         style="stop-color:#D32329"
         id="stop4345-2" />
      <stop
         offset="0.9996"
         style="stop-color:#C61A5C"
         id="stop4347-6" />
    </linearGradient>
    <linearGradient
       id="linearGradient5459"
       gradientUnits="userSpaceOnUse"
       x1="1178.0361"
       y1="73.124496"
       x2="1191.5869"
       y2="73.124496"
       gradientTransform="matrix(-1,0,0,1,1283.0488,0)">
      <stop
         offset="0"
         style="stop-color:#BB2025"
         id="stop4352-5" />
      <stop
         offset="1"
         style="stop-color:#ED3556"
         id="stop4354-9" />
    </linearGradient>
    <linearGradient
       id="linearGradient5463"
       gradientUnits="userSpaceOnUse"
       x1="1168.2002"
       y1="69.143997"
       x2="1180.9502"
       y2="69.143997"
       gradientTransform="matrix(-1,0,0,1,1283.0488,0)">
      <stop
         offset="0.0351"
         style="stop-color:#E05FA1"
         id="stop4359-8" />
      <stop
         offset="0.6412"
         style="stop-color:#ED3556"
         id="stop4361-1" />
      <stop
         offset="1"
         style="stop-color:#BB2025"
         id="stop4363-8" />
    </linearGradient>
    <linearGradient
       id="linearGradient5468"
       gradientUnits="userSpaceOnUse"
       x1="1168.084"
       y1="76.352097"
       x2="1182.4551"
       y2="76.352097"
       gradientTransform="matrix(-1,0,0,1,1283.0488,0)">
      <stop
         offset="0"
         style="stop-color:#ED3556"
         id="stop4368-3" />
      <stop
         offset="0.5687"
         style="stop-color:#C61A5C"
         id="stop4370-4" />
      <stop
         offset="0.9996"
         style="stop-color:#8D181B"
         id="stop4372-1" />
    </linearGradient>
    <linearGradient
       id="linearGradient5473"
       gradientUnits="userSpaceOnUse"
       x1="1218.4805"
       y1="160.8726"
       x2="1260.2148"
       y2="160.8726"
       gradientTransform="matrix(-1,0,0,1,1283.0488,0)">
      <stop
         offset="3.617100e-004"
         style="stop-color:#8D181B"
         id="stop4377-1" />
      <stop
         offset="0.3557"
         style="stop-color:#C61A5C"
         id="stop4379-9" />
      <stop
         offset="0.9909"
         style="stop-color:#EC382F"
         id="stop4381-0" />
    </linearGradient>
    <linearGradient
       id="linearGradient5478"
       gradientUnits="userSpaceOnUse"
       x1="1159.9736"
       y1="117.981"
       x2="1191.5869"
       y2="117.981"
       gradientTransform="matrix(-1,0,0,1,1283.0488,0)">
      <stop
         offset="0"
         style="stop-color:#E35F93"
         id="stop4386-8" />
      <stop
         offset="0.1052"
         style="stop-color:#E25E90"
         id="stop4388-8" />
      <stop
         offset="0.2437"
         style="stop-color:#E15A87"
         id="stop4390-3" />
      <stop
         offset="0.4008"
         style="stop-color:#DF5378"
         id="stop4392-2" />
      <stop
         offset="0.5716"
         style="stop-color:#DC4965"
         id="stop4394-7" />
      <stop
         offset="0.7536"
         style="stop-color:#D83C4E"
         id="stop4396-7" />
      <stop
         offset="0.942"
         style="stop-color:#D42A31"
         id="stop4398-2" />
      <stop
         offset="1"
         style="stop-color:#D32329"
         id="stop4400-4" />
    </linearGradient>
    <linearGradient
       id="linearGradient5488"
       gradientUnits="userSpaceOnUse"
       x1="1224.2188"
       y1="143.2993"
       x2="1224.2188"
       y2="127.0454"
       gradientTransform="matrix(-1,0,0,1,1283.0488,0)">
      <stop
         offset="0.0205"
         style="stop-color:#8D181B"
         id="stop4405-7" />
      <stop
         offset="0.0389"
         style="stop-color:#90191D"
         id="stop4407-5" />
      <stop
         offset="0.2353"
         style="stop-color:#AD222F"
         id="stop4409-3" />
      <stop
         offset="0.4317"
         style="stop-color:#C62A3F"
         id="stop4411-3" />
      <stop
         offset="0.6258"
         style="stop-color:#D9304C"
         id="stop4413-4" />
      <stop
         offset="0.8165"
         style="stop-color:#E63453"
         id="stop4415-3" />
      <stop
         offset="1"
         style="stop-color:#ED3556"
         id="stop4417-0" />
    </linearGradient>
    <linearGradient
       id="linearGradient5497"
       gradientUnits="userSpaceOnUse"
       x1="1194.6211"
       y1="180.1978"
       x2="1223.6152"
       y2="129.97839"
       gradientTransform="matrix(-1,0,0,1,1283.0488,0)">
      <stop
         offset="0.0199"
         style="stop-color:#E24E8C"
         id="stop4422-0" />
      <stop
         offset="0.1124"
         style="stop-color:#E24D8A"
         id="stop4424-7" />
      <stop
         offset="0.2037"
         style="stop-color:#E34B85"
         id="stop4426-9" />
      <stop
         offset="0.2947"
         style="stop-color:#E5477B"
         id="stop4428-2" />
      <stop
         offset="0.3855"
         style="stop-color:#E8416E"
         id="stop4430-9" />
      <stop
         offset="0.4753"
         style="stop-color:#EB395E"
         id="stop4432-5" />
      <stop
         offset="0.5093"
         style="stop-color:#ED3556"
         id="stop4434-1" />
      <stop
         offset="0.5736"
         style="stop-color:#E43057"
         id="stop4436-9" />
      <stop
         offset="0.8334"
         style="stop-color:#CE205B"
         id="stop4438-1" />
      <stop
         offset="1"
         style="stop-color:#C61A5C"
         id="stop4440-3" />
    </linearGradient>
    <linearGradient
       id="linearGradient5509"
       gradientUnits="userSpaceOnUse"
       x1="1214.9971"
       y1="147.2505"
       x2="1162.6963"
       y2="147.2505"
       gradientTransform="matrix(-1,0,0,1,1283.0488,0)">
      <stop
         offset="3.617100e-004"
         style="stop-color:#8D181B"
         id="stop4445-8" />
      <stop
         offset="0.6417"
         style="stop-color:#C61A5C"
         id="stop4447-2" />
      <stop
         offset="0.9909"
         style="stop-color:#EC382F"
         id="stop4449-0" />
    </linearGradient>
    <linearGradient
       id="linearGradient5514"
       gradientUnits="userSpaceOnUse"
       x1="1218.5371"
       y1="144.2056"
       x2="1260.2148"
       y2="144.2056"
       gradientTransform="matrix(-1,0,0,1,1283.0488,0)">
      <stop
         offset="0.0205"
         style="stop-color:#8D181B"
         id="stop4454-5" />
      <stop
         offset="1"
         style="stop-color:#C61A5C"
         id="stop4456-1" />
    </linearGradient>
    <linearGradient
       id="linearGradient5518"
       gradientUnits="userSpaceOnUse"
       x1="1209.29"
       y1="194.83839"
       x2="1198.0647"
       y2="183.6131"
       gradientTransform="matrix(-1,0,0,1,1283.0488,0)">
      <stop
         offset="0.0258"
         style="stop-color:#C61A5C"
         id="stop4463-0" />
      <stop
         offset="0.5984"
         style="stop-color:#ED3556"
         id="stop4465-4" />
    </linearGradient>
    <linearGradient
       id="SVGID_22_-4"
       gradientUnits="userSpaceOnUse"
       x1="68.197304"
       y1="205.32961"
       x2="84.278801"
       y2="196.04491">
      <stop
         offset="0"
         style="stop-color:#ED3556"
         id="stop4470-0" />
      <stop
         offset="0.4492"
         style="stop-color:#EC3556"
         id="stop4472-6" />
      <stop
         offset="0.611"
         style="stop-color:#EA3453"
         id="stop4474-9" />
      <stop
         offset="0.7263"
         style="stop-color:#E6314D"
         id="stop4476-4" />
      <stop
         offset="0.8196"
         style="stop-color:#E22E45"
         id="stop4478-1" />
      <stop
         offset="0.8994"
         style="stop-color:#DC2A3A"
         id="stop4480-9" />
      <stop
         offset="0.9689"
         style="stop-color:#D6252E"
         id="stop4482-8" />
      <stop
         offset="1"
         style="stop-color:#D32329"
         id="stop4484-6" />
    </linearGradient>
    <linearGradient
       id="linearGradient5531"
       gradientUnits="userSpaceOnUse"
       x1="1198.4014"
       y1="181.229"
       x2="1202.2435"
       y2="177.3869"
       gradientTransform="matrix(-1,0,0,1,1283.0488,0)">
      <stop
         offset="0"
         style="stop-color:#BB2025"
         id="stop4489-2" />
      <stop
         offset="0.8931"
         style="stop-color:#8D181B"
         id="stop4491-5" />
    </linearGradient>
    <linearGradient
       gradientTransform="matrix(-1,0,0,1,1283.0488,0)"
       y2="188.16161"
       x2="1192.7725"
       y1="188.16161"
       x1="1205.9912"
       gradientUnits="userSpaceOnUse"
       id="linearGradient4915">
      <stop
         id="stop4917"
         style="stop-color:#C61A5C"
         offset="0" />
      <stop
         id="stop4919"
         style="stop-color:#ED3556"
         offset="1" />
    </linearGradient>
    <linearGradient
       gradientTransform="matrix(-1,0,0,1,1283.0488,0)"
       y2="101.6709"
       x2="1218.5371"
       y1="101.6709"
       x1="1198.6699"
       gradientUnits="userSpaceOnUse"
       id="linearGradient4922">
      <stop
         id="stop4924"
         style="stop-color:#C61A5C"
         offset="0" />
      <stop
         id="stop4926"
         style="stop-color:#8D181B"
         offset="1" />
    </linearGradient>
    <linearGradient
       gradientTransform="matrix(-1,0,0,1,1283.0488,0)"
       y2="60.325199"
       x2="1214.8887"
       y1="60.325199"
       x1="1191.5869"
       gradientUnits="userSpaceOnUse"
       id="linearGradient4929">
      <stop
         id="stop4931"
         style="stop-color:#8D181B"
         offset="0.0205" />
      <stop
         id="stop4933"
         style="stop-color:#C61A5C"
         offset="0.6727" />
    </linearGradient>
    <linearGradient
       gradientTransform="matrix(-1,0,0,1,1283.0488,0)"
       y2="135.9429"
       x2="1260.9277"
       y1="135.9429"
       x1="1224.4941"
       gradientUnits="userSpaceOnUse"
       id="linearGradient4936">
      <stop
         id="stop4938"
         style="stop-color:#8D181B"
         offset="0.0205" />
      <stop
         id="stop4940"
         style="stop-color:#BB2025"
         offset="1" />
    </linearGradient>
    <linearGradient
       gradientTransform="matrix(-1,0,0,1,1283.0488,0)"
       y2="149.8784"
       x2="1260.9277"
       y1="149.8784"
       x1="1218.4863"
       gradientUnits="userSpaceOnUse"
       id="linearGradient4943">
      <stop
         id="stop4945"
         style="stop-color:#8D181B"
         offset="3.617100e-004" />
      <stop
         id="stop4947"
         style="stop-color:#C61A5C"
         offset="0.3557" />
      <stop
         id="stop4949"
         style="stop-color:#EC382F"
         offset="0.9909" />
    </linearGradient>
    <linearGradient
       gradientTransform="matrix(-1,0,0,1,1283.0488,0)"
       y2="122.4326"
       x2="1216.6223"
       y1="97.661102"
       x1="1173.7168"
       gradientUnits="userSpaceOnUse"
       id="linearGradient4952">
      <stop
         id="stop4954"
         style="stop-color:#E35F92"
         offset="0" />
      <stop
         id="stop4956"
         style="stop-color:#E25C8B"
         offset="0.0585" />
      <stop
         id="stop4958"
         style="stop-color:#DF5378"
         offset="0.1677" />
      <stop
         id="stop4960"
         style="stop-color:#DB445B"
         offset="0.3157" />
      <stop
         id="stop4962"
         style="stop-color:#D52D35"
         offset="0.495" />
      <stop
         id="stop4964"
         style="stop-color:#D32329"
         offset="0.559" />
      <stop
         id="stop4966"
         style="stop-color:#CF2228"
         offset="0.6706" />
      <stop
         id="stop4968"
         style="stop-color:#C42127"
         offset="0.7712" />
      <stop
         id="stop4970"
         style="stop-color:#B21F23"
         offset="0.8676" />
      <stop
         id="stop4972"
         style="stop-color:#991B1E"
         offset="0.9609" />
      <stop
         id="stop4974"
         style="stop-color:#8D181B"
         offset="1" />
    </linearGradient>
    <linearGradient
       gradientTransform="matrix(-1,0,0,1,1283.0488,0)"
       y2="122.5747"
       x2="1248.7695"
       y1="122.5747"
       x1="1218.5371"
       gradientUnits="userSpaceOnUse"
       id="linearGradient4977">
      <stop
         id="stop4979"
         style="stop-color:#ED3556"
         offset="0.2041" />
      <stop
         id="stop4981"
         style="stop-color:#8D181B"
         offset="1" />
    </linearGradient>
    <linearGradient
       gradientTransform="matrix(-1,0,0,1,1283.0488,0)"
       y2="122.604"
       x2="1223.7783"
       y1="122.604"
       x1="1271.4443"
       gradientUnits="userSpaceOnUse"
       id="linearGradient4984">
      <stop
         id="stop4986"
         style="stop-color:#EC382F"
         offset="0" />
      <stop
         id="stop4988"
         style="stop-color:#ED3556"
         offset="0.4838" />
      <stop
         id="stop4990"
         style="stop-color:#E05FA1"
         offset="0.9728" />
    </linearGradient>
    <linearGradient
       gradientTransform="matrix(-1,0,0,1,1283.0488,0)"
       y2="112.9688"
       x2="1276.0957"
       y1="112.9688"
       x1="1261.2285"
       gradientUnits="userSpaceOnUse"
       id="linearGradient4993">
      <stop
         id="stop4995"
         style="stop-color:#8D181B"
         offset="0.0205" />
      <stop
         id="stop4997"
         style="stop-color:#C61A5C"
         offset="1" />
    </linearGradient>
    <linearGradient
       gradientTransform="matrix(-1,0,0,1,1283.0488,0)"
       y2="191.58459"
       x2="1190.8312"
       y1="208.2251"
       x1="1207.4717"
       gradientUnits="userSpaceOnUse"
       id="linearGradient5000">
      <stop
         id="stop5002"
         style="stop-color:#8D181B"
         offset="0" />
      <stop
         id="stop5004"
         style="stop-color:#C61A5C"
         offset="1" />
    </linearGradient>
    <linearGradient
       gradientTransform="matrix(-1,0,0,1,1283.0488,0)"
       y2="55.256802"
       x2="1196.9521"
       y1="55.256802"
       x1="1176.5469"
       gradientUnits="userSpaceOnUse"
       id="linearGradient5007">
      <stop
         id="stop5009"
         style="stop-color:#D32329"
         offset="0" />
      <stop
         id="stop5011"
         style="stop-color:#C61A5C"
         offset="0.9996" />
    </linearGradient>
    <linearGradient
       gradientTransform="matrix(-1,0,0,1,1283.0488,0)"
       y2="73.124496"
       x2="1191.5869"
       y1="73.124496"
       x1="1178.0361"
       gradientUnits="userSpaceOnUse"
       id="linearGradient5014">
      <stop
         id="stop5016"
         style="stop-color:#BB2025"
         offset="0" />
      <stop
         id="stop5018"
         style="stop-color:#ED3556"
         offset="1" />
    </linearGradient>
    <linearGradient
       gradientTransform="matrix(-1,0,0,1,1283.0488,0)"
       y2="69.143997"
       x2="1180.9502"
       y1="69.143997"
       x1="1168.2002"
       gradientUnits="userSpaceOnUse"
       id="linearGradient5021">
      <stop
         id="stop5023"
         style="stop-color:#E05FA1"
         offset="0.0351" />
      <stop
         id="stop5025"
         style="stop-color:#ED3556"
         offset="0.6412" />
      <stop
         id="stop5027"
         style="stop-color:#BB2025"
         offset="1" />
    </linearGradient>
    <linearGradient
       gradientTransform="matrix(-1,0,0,1,1283.0488,0)"
       y2="76.352097"
       x2="1182.4551"
       y1="76.352097"
       x1="1168.084"
       gradientUnits="userSpaceOnUse"
       id="linearGradient5030">
      <stop
         id="stop5032"
         style="stop-color:#ED3556"
         offset="0" />
      <stop
         id="stop5034"
         style="stop-color:#C61A5C"
         offset="0.5687" />
      <stop
         id="stop5036"
         style="stop-color:#8D181B"
         offset="0.9996" />
    </linearGradient>
    <linearGradient
       gradientTransform="matrix(-1,0,0,1,1283.0488,0)"
       y2="160.8726"
       x2="1260.2148"
       y1="160.8726"
       x1="1218.4805"
       gradientUnits="userSpaceOnUse"
       id="linearGradient5039">
      <stop
         id="stop5041"
         style="stop-color:#8D181B"
         offset="3.617100e-004" />
      <stop
         id="stop5043"
         style="stop-color:#C61A5C"
         offset="0.3557" />
      <stop
         id="stop5045"
         style="stop-color:#EC382F"
         offset="0.9909" />
    </linearGradient>
    <linearGradient
       gradientTransform="matrix(-1,0,0,1,1283.0488,0)"
       y2="117.981"
       x2="1191.5869"
       y1="117.981"
       x1="1159.9736"
       gradientUnits="userSpaceOnUse"
       id="linearGradient5048">
      <stop
         id="stop5050"
         style="stop-color:#E35F93"
         offset="0" />
      <stop
         id="stop5052"
         style="stop-color:#E25E90"
         offset="0.1052" />
      <stop
         id="stop5054"
         style="stop-color:#E15A87"
         offset="0.2437" />
      <stop
         id="stop5056"
         style="stop-color:#DF5378"
         offset="0.4008" />
      <stop
         id="stop5058"
         style="stop-color:#DC4965"
         offset="0.5716" />
      <stop
         id="stop5060"
         style="stop-color:#D83C4E"
         offset="0.7536" />
      <stop
         id="stop5062"
         style="stop-color:#D42A31"
         offset="0.942" />
      <stop
         id="stop5064"
         style="stop-color:#D32329"
         offset="1" />
    </linearGradient>
    <linearGradient
       gradientTransform="matrix(-1,0,0,1,1283.0488,0)"
       y2="127.0454"
       x2="1224.2188"
       y1="143.2993"
       x1="1224.2188"
       gradientUnits="userSpaceOnUse"
       id="linearGradient5067">
      <stop
         id="stop5069"
         style="stop-color:#8D181B"
         offset="0.0205" />
      <stop
         id="stop5071"
         style="stop-color:#90191D"
         offset="0.0389" />
      <stop
         id="stop5073"
         style="stop-color:#AD222F"
         offset="0.2353" />
      <stop
         id="stop5075"
         style="stop-color:#C62A3F"
         offset="0.4317" />
      <stop
         id="stop5077"
         style="stop-color:#D9304C"
         offset="0.6258" />
      <stop
         id="stop5079"
         style="stop-color:#E63453"
         offset="0.8165" />
      <stop
         id="stop5081"
         style="stop-color:#ED3556"
         offset="1" />
    </linearGradient>
    <linearGradient
       gradientTransform="matrix(-1,0,0,1,1283.0488,0)"
       y2="129.97839"
       x2="1223.6152"
       y1="180.1978"
       x1="1194.6211"
       gradientUnits="userSpaceOnUse"
       id="linearGradient5084">
      <stop
         id="stop5086"
         style="stop-color:#E24E8C"
         offset="0.0199" />
      <stop
         id="stop5088"
         style="stop-color:#E24D8A"
         offset="0.1124" />
      <stop
         id="stop5090"
         style="stop-color:#E34B85"
         offset="0.2037" />
      <stop
         id="stop5092"
         style="stop-color:#E5477B"
         offset="0.2947" />
      <stop
         id="stop5094"
         style="stop-color:#E8416E"
         offset="0.3855" />
      <stop
         id="stop5096"
         style="stop-color:#EB395E"
         offset="0.4753" />
      <stop
         id="stop5098"
         style="stop-color:#ED3556"
         offset="0.5093" />
      <stop
         id="stop5100"
         style="stop-color:#E43057"
         offset="0.5736" />
      <stop
         id="stop5102"
         style="stop-color:#CE205B"
         offset="0.8334" />
      <stop
         id="stop5104"
         style="stop-color:#C61A5C"
         offset="1" />
    </linearGradient>
    <linearGradient
       gradientTransform="matrix(-1,0,0,1,1283.0488,0)"
       y2="147.2505"
       x2="1162.6963"
       y1="147.2505"
       x1="1214.9971"
       gradientUnits="userSpaceOnUse"
       id="linearGradient5107">
      <stop
         id="stop5109"
         style="stop-color:#8D181B"
         offset="3.617100e-004" />
      <stop
         id="stop5111"
         style="stop-color:#C61A5C"
         offset="0.6417" />
      <stop
         id="stop5113"
         style="stop-color:#EC382F"
         offset="0.9909" />
    </linearGradient>
    <linearGradient
       gradientTransform="matrix(-1,0,0,1,1283.0488,0)"
       y2="144.2056"
       x2="1260.2148"
       y1="144.2056"
       x1="1218.5371"
       gradientUnits="userSpaceOnUse"
       id="linearGradient5116">
      <stop
         id="stop5118"
         style="stop-color:#8D181B"
         offset="0.0205" />
      <stop
         id="stop5120"
         style="stop-color:#C61A5C"
         offset="1" />
    </linearGradient>
    <linearGradient
       gradientTransform="matrix(-1,0,0,1,1283.0488,0)"
       y2="183.6131"
       x2="1198.0647"
       y1="194.83839"
       x1="1209.29"
       gradientUnits="userSpaceOnUse"
       id="linearGradient5124">
      <stop
         id="stop5126"
         style="stop-color:#C61A5C"
         offset="0.0258" />
      <stop
         id="stop5128"
         style="stop-color:#ED3556"
         offset="0.5984" />
    </linearGradient>
    <linearGradient
       y2="196.04491"
       x2="84.278801"
       y1="205.32961"
       x1="68.197304"
       gradientUnits="userSpaceOnUse"
       id="linearGradient5131">
      <stop
         id="stop5133"
         style="stop-color:#ED3556"
         offset="0" />
      <stop
         id="stop5135"
         style="stop-color:#EC3556"
         offset="0.4492" />
      <stop
         id="stop5137"
         style="stop-color:#EA3453"
         offset="0.611" />
      <stop
         id="stop5139"
         style="stop-color:#E6314D"
         offset="0.7263" />
      <stop
         id="stop5141"
         style="stop-color:#E22E45"
         offset="0.8196" />
      <stop
         id="stop5143"
         style="stop-color:#DC2A3A"
         offset="0.8994" />
      <stop
         id="stop5145"
         style="stop-color:#D6252E"
         offset="0.9689" />
      <stop
         id="stop5147"
         style="stop-color:#D32329"
         offset="1" />
    </linearGradient>
    <linearGradient
       gradientTransform="matrix(-1,0,0,1,1283.0488,0)"
       y2="177.3869"
       x2="1202.2435"
       y1="181.229"
       x1="1198.4014"
       gradientUnits="userSpaceOnUse"
       id="linearGradient5150">
      <stop
         id="stop5152"
         style="stop-color:#BB2025"
         offset="0" />
      <stop
         id="stop5154"
         style="stop-color:#8D181B"
         offset="0.8931" />
    </linearGradient>
  </defs>
  <sodipodi:namedview
     id="base"
     pagecolor="#ffffff"
     bordercolor="#666666"
     borderopacity="1.0"
     inkscape:pageopacity="0.0"
     inkscape:pageshadow="2"
     inkscape:zoom="0.35355339"
     inkscape:cx="1525.3071"
     inkscape:cy="486.17428"
     inkscape:document-units="mm"
     inkscape:current-layer="layer1"
     showgrid="false"
     inkscape:window-width="1440"
     inkscape:window-height="848"
     inkscape:window-x="0"
     inkscape:window-y="0"
     inkscape:window-maximized="1" />
  <metadata
     id="metadata7">
    <rdf:RDF>
      <cc:Work
         rdf:about="">
        <dc:format>image/svg+xml</dc:format>
        <dc:type
           rdf:resource="http://purl.org/dc/dcmitype/StillImage" />
        <dc:title></dc:title>
      </cc:Work>
    </rdf:RDF>
  </metadata>
  <g
     inkscape:label="Calque 1"
     inkscape:groupmode="layer"
     id="layer1"
     transform="translate(0,10.629922)">
    <path
       style="fill:none;stroke:none;stroke-width:0.03543307;stroke-miterlimit:4;stroke-dasharray:none"
       d="m 196.43576,-1.9327174 0.0117,0.052734 -7.96289,7.4062504 -9.98437,2.746094 13.69726,20.779297 -17.3457,49.267578 -30.23242,-23.789063 -22.67773,-0.451172 -4.64844,26.306641 14.86523,-9.525391 11.25977,18.492188 -7.54883,-0.05273 -3.4082,1.816398 9.81836,6.44727 -5.69727,0 -3.41016,1.8125 32.94141,26.314453 -112.289061,0 -3e-6,148.57031 2039.875084,0 0,-148.57031 -113.1621,0 3.205,-2.17383 18.0625,-20.21289 -11.8769,-41.39062 -11.3457,-23.533203 c 0.3115,-1.195749 0.5339,-2.406307 0.7402,-3.623047 l 14.3731,-8.28125 -0.1172,0 -11.2207,-6.634766 1.3847,-6.802734 1.4883,-11.335938 -11.4941,2.171875 -8.8281,-5.7519533 -0.012,-0.054687 -0.029,0.027344 -0.039,-0.025391 0.012,0.050781 -7.9629,7.4062503 -9.9844,2.744141 13.6973,20.78125 -17.3457,49.265625 -30.2324,-23.78711 -22.6778,-0.453125 -4.6484,26.306641 14.8652,-9.525391 11.2598,18.492188 -7.5488,-0.05078 -3.4082,1.816397 9.8183,6.44727 -5.6972,0 -3.4102,1.8125 32.9414,26.314453 -248.6992,0 3.2051,-2.17383 18.0625,-20.21289 -11.877,-41.390619 -11.3457,-23.533203 c 0.3115,-1.195749 0.534,-2.406307 0.7403,-3.623047 l 14.371,-8.28125 -0.1171,0 -11.2207,-6.634766 1.3867,-6.802734 1.4883,-11.335938 -11.4942,2.171875 -8.8301,-5.7519532 -0.012,-0.054687 -0.027,0.027344 -0.041,-0.027344 0.012,0.052734 -7.9629,7.4062502 -9.9844,2.744141 13.6973,20.78125 -17.3457,49.265625 -30.2324,-23.78711 -22.6778,-0.453125 -4.6484,26.306641 14.8652,-9.525391 11.2598,18.492188 -7.5488,-0.05078 -3.4082,1.816406 9.8183,6.44727 -5.6973,0 -3.4101,1.8125 32.9414,26.314453 -248.6992,0 3.2051,-2.17383 18.0625,-20.21289 -11.877,-41.390628 -11.3457,-23.533203 c 0.3116,-1.195749 0.534,-2.406307 0.7402,-3.623047 l 14.3731,-8.28125 -0.1172,0 -11.2207,-6.634766 1.3848,-6.802734 1.4882,-11.335938 -11.4941,2.171875 -8.8281,-5.7519531 -0.012,-0.054687 -0.029,0.027344 -0.041,-0.027344 0.012,0.052734 -7.9629,7.4062501 -9.9844,2.746094 13.6973,20.779297 -17.3457,49.267578 -30.2325,-23.789063 -22.6777,-0.451172 -4.6484,26.306641 14.8652,-9.525391 11.2598,18.490235 -7.5489,-0.05078 -3.4082,1.816405 9.8184,6.44727 -5.6973,0 -3.4101,1.8125 32.9414,26.314453 -248.6992,0 3.205,-2.17383 18.0625,-20.21289 -11.8769,-41.390627 -11.3457,-23.533203 c 0.3116,-1.195749 0.534,-2.406307 0.7402,-3.623047 l 14.3731,-8.28125 -0.1172,0 -11.2207,-6.634766 1.3847,-6.802734 1.4883,-11.335938 -11.4941,2.171875 -8.8282,-5.751953 -0.012,-0.054687 -0.029,0.027344 -0.041,-0.027344 0.012,0.050781 -7.9629,7.40625 -9.9843,2.746094 13.6972,20.779297 -17.3457,49.267578 -30.2324,-23.78711 -22.6777,-0.453125 -4.6485,26.306641 14.8653,-9.525391 11.2597,18.492188 -7.5488,-0.05078 -3.4082,1.816404 9.8184,6.44727 -5.6973,0 -3.4102,1.8125 32.9415,26.314453 -248.69933,0 3.20508,-2.17383 18.0625,-20.21289 L 811.0015,61.912994 799.6558,38.379791 c 0.31159,-1.195749 0.53396,-2.406307 0.74023,-3.623047 l 14.37305,-8.28125 -0.11719,0 -11.2207,-6.634766 1.38476,-6.802734 1.48828,-11.335938 -11.49414,2.171875 -8.82812,-5.7519528 -0.0117,-0.054687 -0.0293,0.027344 -0.041,-0.027344 0.0117,0.052734 -7.9629,7.4062498 -9.98437,2.746094 13.69727,20.779297 -17.34571,49.267578 -30.23242,-23.789063 -22.67773,-0.451172 -4.64844,26.306641 14.86523,-9.525391 11.25977,18.490235 -7.54883,-0.05078 -3.4082,1.816403 9.81836,6.44727 -5.69727,0 -3.41016,1.8125 32.94141,26.314453 -248.69922,0 3.20508,-2.17383 18.0625,-20.21289 -11.87695,-41.390625 -11.34571,-23.533203 c 0.31159,-1.195749 0.53397,-2.406307 0.74024,-3.623047 l 14.37305,-8.28125 -0.11719,0 -11.22071,-6.634766 1.38477,-6.802734 1.48828,-11.335938 -11.49414,2.171875 -8.82812,-5.7519527 -0.0117,-0.054687 -0.0293,0.027344 -0.041,-0.027344 0.0117,0.050781 -7.96289,7.4062497 -9.98437,2.746094 13.69726,20.779297 -17.3457,49.267578 -30.23242,-23.78711 -22.67774,-0.453125 -4.64843,26.306641 14.86523,-9.525391 11.25977,18.492188 -7.54883,-0.05078 -3.4082,1.816402 9.81835,6.44727 -5.69726,0 -3.41016,1.8125 32.94141,26.314453 -248.69727,0 3.20508,-2.17383 18.0625,-20.21289 -11.87695,-41.390624 -11.3457,-23.533203 c 0.31159,-1.195748 0.53396,-2.406307 0.74023,-3.623047 l 14.37305,-8.28125 -0.11719,0 -11.2207,-6.634766 1.38476,-6.802734 1.48828,-11.335938 -11.49414,2.171875 -8.82812,-5.7519525 -0.0117,-0.054687 -0.0293,0.027344 z"
       id="path4210"
       inkscape:connector-curvature="0"
       sodipodi:nodetypes="ccccccccccccccccccccccccccccccccccccccccccccccccccccccccccccccccccccccccccccccccccccccccccccccccccccccccccccccccccccccccccccccccccccccccccccccccccccccccccccccccccccccccccccccccccccccccccccccccccccccccccccccccccccccccccccccccccccc" />
    <path
       style="fill:none;stroke:#ff0000;stroke-width:0.03543307;stroke-opacity:1;stroke-miterlimit:4;stroke-dasharray:none"
       d="m 1098.7708,151.7138 c -0.7554,0.10779 -1.9276,1.32891 -3.7813,3.09375 l -3.3124,3.125 -7.4376,19.8125 -7.4374,19.8125 -5.7813,0.28125 -5.75,0.3125 -3.5,3.4375 c -1.916,1.8975 -3.6486,3.46875 -3.8437,3.46875 -0.3459,0 -12.5882,6.97503 -15.4063,8.78125 -0.9133,0.58537 -1.2194,1.12425 -0.8437,1.5 0.3757,0.37575 3.5017,-0.62379 8.8437,-2.8125 l 8.2813,-3.375 5.125,1.96875 c 4.5544,1.76081 16.6747,9.48355 17.8437,11.375 0.2005,0.32454 -0.7943,4.91173 -2.1875,10.1875 -1.3933,5.27578 -2.339,9.78593 -2.125,10 0.2141,0.21407 1.2436,-0.0215 2.3125,-0.53125 l 1.9687,-0.9375 3.875,3.5 c 2.1373,1.93558 4.3106,3.53825 4.8126,3.53125 0.502,-0.007 2.2966,-2.13269 4,-4.71875 2.8308,-4.29787 3.3193,-4.77844 5.8124,-5.40625 l 2.75,-0.6875 -0.375,-6.125 c -0.3494,-6.0853 -2.0761,-12.16897 -6.25,-21.90625 -0.8285,-1.93299 -0.9705,-2.92912 -0.5312,-3.75 2.0675,-3.86301 10.5646,-27.0266 10.1562,-27.6875 -0.3658,-0.59202 -1.0444,-0.34968 -2.7812,1.03125 -4.2747,3.39878 -3.9898,4.42553 -3.5,-12.25 0.3359,-11.43616 0.5047,-15.23703 -0.9375,-15.03125 z"
       id="path5986"
       inkscape:connector-curvature="0" />
    <g
       id="g4157"
       style="stroke-width:0.03543307;stroke-miterlimit:4;stroke-dasharray:none">
      <rect
         y="164.55139"
         x="2055.127"
         height="70.848938"
         width="7.069406"
         id="rect4138"
         style="fill:none;fill-opacity:1;stroke:#ff0000;stroke-width:0.03543307;stroke-linejoin:miter;stroke-miterlimit:4;stroke-dasharray:none;stroke-dashoffset:0;stroke-opacity:1" />
      <rect
         y="164.55139"
         x="1948.8278"
         height="70.848946"
         width="7.069407"
         id="rect4138-3"
         style="fill:none;fill-opacity:1;stroke:#ff0000;stroke-width:0.03543307;stroke-linejoin:miter;stroke-miterlimit:4;stroke-dasharray:none;stroke-dashoffset:0;stroke-opacity:1" />
      <rect
         y="164.55139"
         x="1842.5284"
         height="70.848946"
         width="7.069407"
         id="rect4138-9"
         style="fill:none;fill-opacity:1;stroke:#ff0000;stroke-width:0.03543307;stroke-linejoin:miter;stroke-miterlimit:4;stroke-dasharray:none;stroke-dashoffset:0;stroke-opacity:1" />
      <rect
         y="165.5811"
         x="297.92603"
         height="70.848946"
         width="7.0694065"
         id="rect4138-5"
         style="fill:none;stroke:#ff0000;stroke-width:0.03543307;stroke-linejoin:miter;stroke-miterlimit:4;stroke-opacity:1;stroke-dasharray:none;stroke-dashoffset:0" />
      <rect
         y="165.5811"
         x="191.62694"
         height="70.848953"
         width="7.0694075"
         id="rect4138-3-2"
         style="fill:none;stroke:#ff0000;stroke-width:0.03543307;stroke-linejoin:miter;stroke-miterlimit:4;stroke-opacity:1;stroke-dasharray:none;stroke-dashoffset:0" />
      <rect
         y="165.5811"
         x="85.327507"
         height="70.848953"
         width="7.0694075"
         id="rect4138-9-4"
         style="fill:none;stroke:#ff0000;stroke-width:0.03543307;stroke-linejoin:miter;stroke-miterlimit:4;stroke-opacity:1;stroke-dasharray:none;stroke-dashoffset:0" />
    </g>
    <g
       id="g8793"
       transform="translate(26.157475,-150)"
       style="stroke-width:0.03543307;stroke-miterlimit:4;stroke-dasharray:none">
      <path
         sodipodi:nodetypes="sssssscsssssssscccsssssscccsscccssccssscccssscccssscccccssscccssscccscccccccccccccsccscccccccccccccccccccccscccscccccccccscccssscccssssscccsscscccccccccsscssccccccssscccsssscccccccccssscccccccscccccccccccccsccssscccssscccsscssscssccccccccccccccsssscccssscccsssscsssscsssscccssscsscccccccccccccccccccccccsscccsscccccsscccsssccccccscssssscsssscccccssssssscsssssssssssscsscccsssscscsssccssscccscssscsssscssssscssssssssssssscsscccsssscsscccssssssscsssscsscccssscsscssscssssssscscssccssssssssscssssssccccssssssssscssssscsssscssssssssssssssscsscccssscscssssssssssssscssccscsscscsssccsscsscssscsccssscssssssssscsssssscssscccssssssscccssscssscccssssssscccs"
         inkscape:connector-curvature="0"
         id="path8755"
         d="m 1323.2446,402.3461 c -8.527,-2.30267 -13.7123,-10.62922 -13.0871,-21.01543 0.2134,-3.5465 0.7709,-5.73287 2.2455,-8.8056 2.7941,-5.82221 7.8862,-9.21988 14.4658,-9.65208 7.8021,-0.5125 14.4192,3.51855 16.4225,10.00437 0.8134,2.63361 0.8515,2.56701 -1.4159,2.47374 l -1.961,-0.0807 -0.3407,-1.15689 c -0.5138,-1.74456 -1.5743,-3.38262 -3.1355,-4.84294 -4.8174,-4.50613 -13.1975,-4.087 -17.9523,0.89786 -3.6256,3.80112 -5.269,10.25979 -4.1878,16.45914 0.8568,4.91368 3.0431,8.6795 6.2376,10.74419 2.5974,1.67882 4.0097,2.05792 7.6666,2.05792 3.1143,0 3.2098,-0.0187 5.2634,-1.03388 3.4613,-1.71105 5.708,-4.78539 6.6757,-9.13549 l 0.4556,-2.04754 1.9254,0 1.9253,0 -0.1951,1.30405 c -1.0514,7.02797 -5.4661,12.32458 -11.5966,13.91315 -2.2767,0.58996 -7.0745,0.54718 -9.4114,-0.0839 z m 37.8876,0.084 c -5.4185,-1.41803 -9.6284,-5.20751 -11.7942,-10.61649 -0.879,-2.1952 -1.6582,-6.05106 -1.6582,-8.20578 l 0,-1.33672 1.884,0 1.8838,0 0.1864,2.12766 c 0.7276,8.30779 4.9916,13.8494 11.5165,14.96706 l 1.8252,0.31265 0,1.59145 0,1.59147 -1.1668,-0.0181 c -0.6417,-0.01 -1.8462,-0.19589 -2.6767,-0.41323 z m 6.0398,-1.16556 0,-1.59686 1.8106,-0.35991 c 2.5266,-0.50219 4.6519,-1.64475 6.5196,-3.50488 2.7115,-2.70047 4.573,-7.47663 4.573,-11.73285 l 0,-1.79893 2.0913,0 2.0913,0 -0.1936,2.12766 c -0.873,9.59037 -5.3775,15.76931 -13.0452,17.89411 -1.1283,0.31269 -2.4555,0.56852 -2.9492,0.56852 l -0.8978,0 z m 225.4697,1.20239 c -3.4965,-0.84725 -6.8578,-3.32111 -8.425,-6.20085 -0.3968,-0.72894 -0.9658,-2.28087 -1.2645,-3.44875 -0.505,-1.97471 -0.5431,-3.07192 -0.5431,-15.66908 l 0,-13.54567 1.9218,0 1.9218,0 0,12.83461 c 0,7.36375 0.1214,13.59528 0.2821,14.61911 0.8396,5.35058 4.0551,8.12126 9.7983,8.44291 6.8505,0.38367 10.77,-2.31273 11.8815,-8.17386 0.1578,-0.83177 0.2735,-7.00368 0.2735,-14.58246 l 0,-13.14031 1.9218,0 1.9217,0 -0.01,13.65822 c -0.01,15.00347 -0.057,15.59456 -1.662,18.77437 -1.6027,3.175 -4.7142,5.50673 -8.5576,6.41289 -2.1007,0.49529 -7.4581,0.50596 -9.4683,0.0188 z m -193.7149,-0.33763 c -0.1007,-0.10066 -0.183,-8.0691 -0.183,-17.70765 l 0,-17.52462 -6.7399,0 -6.7399,0 0.082,-1.57859 0.082,-1.57859 15.3055,-0.0709 15.3054,-0.0709 0,1.64953 0,1.64953 -6.7262,0 -6.7262,0 0,17.70766 0,17.70764 -1.7387,0 c -0.9563,0 -1.8211,-0.0824 -1.9217,-0.18302 z m 20.5929,0.002 c -0.1021,-0.10196 -0.1857,-8.81282 -0.1857,-19.35733 l 0,-19.17185 13.4523,0 13.4524,0 0,1.64722 0,1.64722 -11.3933,0 -11.3933,0 0,6.86343 0,6.86343 10.7207,0 10.7206,0 -0.082,1.57859 -0.082,1.57859 -10.6383,0.0719 -10.6383,0.0719 0,7.40928 0,7.40928 11.5437,0 11.5437,0 -0.082,1.71586 -0.082,1.71585 -13.3353,0.0712 c -7.3344,0.0392 -13.4188,-0.0123 -13.5209,-0.11439 z m 46.9432,-0.002 c -0.1006,-0.10066 -0.183,-4.60993 -0.183,-10.02061 l 0,-9.83758 1.9217,0 1.9219,0 0,8.23612 0,8.23611 3.5689,0 3.569,0 0,1.78449 0,1.78449 -5.3077,0 c -2.9192,0 -5.3901,-0.0824 -5.4908,-0.18302 z m 12.4457,-1.59822 0,-1.78774 1.1097,0 c 1.7285,0 5.1883,-0.80073 6.8459,-1.58442 4.1029,-1.93969 6.553,-6.7895 6.5853,-13.03468 l 0.01,-1.85313 1.9218,0 1.9217,0 0,2.12766 c -0.01,3.00521 -0.8597,6.82764 -2.0776,9.29242 -1.1417,2.31062 -3.3544,4.7595 -5.3651,5.9379 -1.773,1.039 -4.9996,2.0665 -7.1041,2.26225 -0.9816,0.0913 -2.2478,0.22482 -2.8141,0.29672 l -1.0295,0.13075 0,-1.78773 z m 35.0478,1.57534 c -0.069,-0.11325 3.3521,-8.82244 7.6023,-19.35376 7.0133,-17.37816 7.7846,-19.14797 8.3452,-19.14897 0.603,-8e-4 0.6177,0.0703 0.6177,3.00186 l 0,3.00296 -3.3971,8.66486 -3.3972,8.66487 3.3972,0 3.3971,0 0,1.63989 0,1.63988 -4.0118,0.076 -4.0118,0.076 -0.7512,1.92177 c -0.4131,1.05696 -1.4587,3.74399 -2.3235,5.97118 l -1.5724,4.04942 -1.8846,0 c -1.0365,0 -1.9409,-0.0927 -2.0099,-0.2059 z m 28.2331,-5.83392 -2.3779,-6.03982 -3.8214,0 -3.8213,0 0,-1.64721 0,-1.64723 3.1865,0 c 2.923,0 3.1711,-0.0397 2.9995,-0.48044 -0.1029,-0.26424 -1.5368,-4.04548 -3.1865,-8.40275 l -2.9995,-7.9223 0,-3.28332 0,-3.28332 0.7237,0.0869 c 0.6892,0.0827 1.0714,0.97424 8.0302,18.72887 6.5704,16.76386 7.3153,18.52022 7.3941,17.43311 0.082,-1.13425 0.8577,-2.18349 12.5586,-16.99478 l 12.4709,-15.78589 -11.6663,-0.0716 -11.6663,-0.0716 0,-1.64428 0,-1.64427 13.8641,0 13.8641,0 0,1.78188 0,1.78189 -12.3542,15.64473 c -6.7948,8.60459 -12.3542,15.70941 -12.3542,15.78849 0,0.0791 5.683,0.14377 12.6287,0.14377 l 12.6288,0 0,1.78449 0,1.78449 -16.8619,0 -16.8619,0 z m 77.4764,5.86804 c -0.1068,-0.10685 -0.1943,-6.53608 -0.1943,-14.28718 l 0,-14.09291 2.0591,0 2.059,0 0,3.9808 0,3.98078 3.4317,0 3.4317,0 0,1.64723 0,1.64722 -3.4278,0 -3.4277,0 -0.073,8.57928 -0.072,8.57929 -1.7961,0.0799 c -0.9878,0.0439 -1.8836,-0.007 -1.9904,-0.1144 z m 25.8588,-0.58319 c -0.2741,-0.71608 -0.398,-1.68163 -1.0484,-8.17213 -0.4512,-4.50275 -1.4981,-6.58403 -3.8355,-7.6245 -1.0013,-0.44574 -2.0238,-0.58954 -4.9028,-0.68953 l -3.6377,-0.12634 0,-1.61141 0,-1.61141 3.2447,0 c 4.0957,0 5.5705,-0.41018 7.405,-2.05961 1.5174,-1.3643 2.2254,-2.80339 2.2959,-4.66656 l 0.047,-1.23541 2.0314,0 2.0312,0 -0.1861,1.30406 c -0.5857,4.10388 -2.8172,7.14284 -5.9296,8.07533 l -1.0518,0.31514 1.3918,0.4712 c 0.7934,0.26857 1.8559,0.92421 2.4706,1.52454 1.5591,1.52239 2.1413,3.33326 2.4535,7.63091 0.3632,5.00043 0.5298,6.14488 1.1239,7.72074 0.2846,0.75498 0.5175,1.40357 0.5176,1.44132 10e-5,0.0377 -0.9294,0.0687 -2.0657,0.0687 -2.0005,0 -2.0749,-0.0239 -2.3547,-0.75498 z m -179.2448,-29.58139 0,-8.37338 5.4907,0 5.4908,0 0,1.64722 0,1.64723 -3.569,0 -3.5689,0 0,6.72616 0,6.72616 -1.9219,0 -1.9217,0 z m 27.0401,7.06933 c -0.2601,-1.96442 -1.1965,-5.00676 -1.9323,-6.27781 -0.3599,-0.62163 -1.3386,-1.75566 -2.175,-2.52008 -2.0484,-1.87208 -4.4083,-2.74201 -8.7255,-3.21642 l -1.5786,-0.17346 0,-1.66797 0,-1.66797 2.2649,0.17996 c 4.9085,0.39 8.2279,1.6944 11.0645,4.34797 2.6314,2.4615 4.3728,6.2568 4.9349,10.75497 l 0.193,1.54487 -1.9366,0 -1.9366,0 z m -145.3657,0.24982 c 0,-1.19909 1.1794,-5.02015 2.1744,-7.04461 2.5229,-5.13325 7.5258,-8.64934 13.2684,-9.32525 l 1.5786,-0.18579 0,1.64848 c 0,1.8267 0.054,1.7759 -2.2603,2.09033 -0.7147,0.0971 -2.1459,0.59995 -3.1806,1.11756 -3.594,1.79804 -6.3173,5.5757 -7.343,10.18613 l -0.449,2.01831 -1.8942,0 c -1.6563,0 -1.8943,-0.0635 -1.8943,-0.50516 z m 31.9738,-0.24982 c -1.5221,-7.28999 -5.561,-11.77965 -11.3834,-12.65391 l -1.2355,-0.18551 -0.082,-1.73992 -0.082,-1.7399 1.1806,0.18275 c 4.3626,0.67531 7.466,2.15911 10.1217,4.83932 2.5814,2.60526 4.6511,6.8354 5.3259,10.88537 l 0.1944,1.16678 -1.9407,0 c -1.8958,0 -1.9442,-0.0175 -2.0982,-0.75498 z m 125.0615,-8.85382 0,-6.58889 1.7845,0 1.7846,0 0,6.58889 0,6.58889 -1.7846,0 -1.7845,0 z m 114.482,-2.33357 0,-4.25532 5.4908,0 5.4907,0 0,1.64722 0,1.64723 -3.4317,0 -3.4317,0 0,2.6081 0,2.6081 -2.059,0 -2.0591,0 z m 25.0137,3.27628 c -0.5286,-1.46198 -1.7738,-2.71901 -3.3918,-3.42407 -1.204,-0.52463 -2.0694,-0.65005 -5.2183,-0.75621 l -3.7749,-0.12726 0,-1.61203 0,-1.61203 3.3814,0 c 3.8687,0 5.9724,0.3218 8.0183,1.22656 2.6712,1.18136 4.7267,3.65114 5.218,6.26974 l 0.1903,1.01435 -2.0344,0 -2.0345,0 z m -286.6476,-10.42754 c 0,-0.0828 1.3899,-1.87409 3.0885,-3.98063 l 3.0886,-3.83008 1.9218,0.0161 1.9217,0.0161 2.8826,3.58941 c 1.5855,1.97417 2.9815,3.7582 3.1023,3.96451 0.1768,0.30215 -0.1436,0.37358 -1.6473,0.36727 l -1.8667,-0.008 -2.2839,-2.73294 -2.2839,-2.73294 -2.367,2.74078 -2.3669,2.74077 -1.5949,0 c -0.8772,1e-5 -1.5949,-0.0678 -1.5949,-0.15055 z m -40.4942,-0.57974 c -2.8773,-0.87519 -4.1389,-2.57566 -3.9149,-5.27696 0.1098,-1.32411 0.2521,-1.61323 1.2537,-2.54757 1.0311,-0.96174 1.2642,-1.05396 2.6641,-1.05396 0.8439,0 1.8772,0.17731 2.2963,0.39403 1.2039,0.62257 2.7478,2.51455 3.738,4.58078 l 0.9111,1.90099 0.572,-0.92563 c 0.925,-1.49673 1.8269,-3.73652 2.4513,-6.08744 0.5828,-2.19482 5.5397,-25.40202 5.5397,-25.93593 0,-0.17343 -0.9948,-0.28238 -2.5785,-0.28238 l -2.5786,0 0.3194,-1.44132 0.3196,-1.44131 2.6436,-0.0783 2.6437,-0.0782 0.4817,-1.96563 c 1.4503,-5.91812 6.1893,-11.1879 11.7957,-13.11677 3.1618,-1.08782 7.3174,-0.95932 9.7913,0.30278 2.6569,1.35545 3.2095,5.01375 1.0792,7.1441 -2.6739,2.67391 -6.3999,1.12192 -8.5895,-3.57777 -0.489,-1.04963 -0.9903,-1.84594 -1.1138,-1.76958 -0.6884,0.42542 -2.0558,4.04067 -3.0943,8.18018 l -1.1751,4.68465 3.4012,0.0768 c 1.8707,0.0422 3.4012,0.17815 3.4012,0.30198 0,0.12382 1.0023,-0.0652 2.2274,-0.42001 2.8158,-0.81556 6.1674,-0.87281 7.7956,-0.13314 1.2499,0.56783 2.7889,2.18571 3.0433,3.19928 0.094,0.37471 0.2261,0.68131 0.2934,0.68131 0.067,0 0.9812,-0.73907 2.0307,-1.64236 1.0495,-0.90329 2.4055,-1.89606 3.0133,-2.20615 2.6483,-1.35104 5.6428,-1.18762 7.2247,0.39428 1.994,1.99401 2.1114,6.11384 0.2456,8.62517 -1.0827,1.45746 -2.1522,1.96482 -4.1441,1.96599 -4.1764,0.002 -5.6325,-2.38099 -3.9083,-6.39788 l 0.5665,-1.31996 -1.1306,0.63362 c -0.6219,0.34849 -1.8412,1.3131 -2.7096,2.14358 l -1.5788,1.50996 -2.1405,9.67743 -2.1407,9.67744 -4.637,0 c -4.2868,0 -4.6263,-0.0363 -4.4962,-0.48044 0.7725,-2.63531 4.2888,-19.48424 4.2888,-20.55043 0,-2.23472 -1.4795,-2.95051 -4.482,-2.16846 -1.9318,0.50319 -1.8498,0.50314 -1.6571,8e-4 0.1336,-0.34814 -0.2429,-0.41181 -2.4352,-0.41181 l -2.5934,0 -1.4519,7.20661 c -3.3104,16.42959 -4.3659,19.37885 -8.3769,23.40656 -2.4078,2.41787 -4.9062,3.92758 -7.7069,4.65707 -2.0255,0.52756 -5.6024,0.51007 -7.3982,-0.0361 z m 69.3933,-11.20785 c -4.4041,-1.23394 -7.117,-3.85562 -8.2004,-7.92466 -0.808,-3.03494 -0.2114,-7.70236 1.3882,-10.85902 l 0.709,-1.39901 4.2827,0 4.2827,0 -0.1704,0.6177 c -0.473,1.71498 -1.0566,5.17428 -0.8994,5.33147 0.1638,0.16383 3.7017,-0.3553 4.5061,-0.66121 0.2461,-0.0936 0.3432,0.25722 0.3432,1.241 0,1.54208 0.163,1.45183 -3.3631,1.86154 l -1.5786,0.18342 0,1.01668 c 0,1.42572 0.7569,3.84051 1.5209,4.85259 1.0873,1.44023 2.2989,1.83574 5.175,1.68924 3.2249,-0.16426 4.6185,-0.78219 7.0428,-3.12263 l 1.874,-1.80915 0.9788,0.74661 c 0.5384,0.41064 0.9789,0.86618 0.9789,1.01233 0,0.51829 -3.3866,3.78272 -5.0438,4.86186 -3.0211,1.96726 -5.034,2.56777 -8.9576,2.67242 -2.426,0.0647 -3.853,-0.0265 -4.869,-0.31118 z m 69.8685,-0.0201 c -5.6948,-1.38026 -8.7194,-5.36299 -8.7194,-11.48146 0,-7.47568 4.2574,-13.36304 11.455,-15.8406 3.2073,-1.10401 8.6059,-1.18021 11.5579,-0.16314 3.5583,1.22591 5.268,4.14911 4.4416,7.59392 -0.6129,2.55492 -2.225,3.84674 -4.8004,3.84674 -4.243,0 -5.6361,-2.64541 -3.6557,-6.94203 0.8475,-1.83858 0.8605,-1.92037 0.3641,-2.28334 -0.8042,-0.5881 -2.2907,-0.76001 -3.4829,-0.40282 -3.1523,0.94447 -5.5312,5.58788 -5.9175,11.55088 -0.2739,4.22671 0.5866,7.31622 2.5073,9.00262 1.1468,1.00684 2.3198,1.27644 4.7169,1.08403 2.4214,-0.19437 4.375,-1.20696 6.2631,-3.24626 1.6623,-1.79562 1.8453,-1.82049 3.1476,-0.42811 l 0.6531,0.69836 -2.4376,2.4154 c -2.6151,2.59113 -4.6666,3.82207 -7.677,4.60617 -1.9793,0.51555 -6.2682,0.51027 -8.4161,-0.0103 z m 80.325,0.15612 c -2.5293,-0.53221 -4.3845,-2.00967 -5.048,-4.02027 -0.5038,-1.52629 -0.2048,-3.55748 1.7809,-12.09813 0.9901,-4.25812 1.8001,-7.80995 1.8001,-7.89294 0,-0.083 -1.1143,-0.1509 -2.4761,-0.1509 l -2.476,0 0.187,-0.75498 c 0.5765,-2.32725 0.2823,-2.11351 3.1187,-2.26493 l 2.5714,-0.13727 0.9589,-4.04942 0.9589,-4.04943 4.4811,0 c 2.5727,0 4.4812,0.10851 4.4812,0.25478 0,0.14012 -0.3706,1.85866 -0.8236,3.81896 -0.453,1.9603 -0.8236,3.69879 -0.8236,3.86328 0,0.20044 1.1773,0.2991 3.569,0.2991 2.3249,0 3.5689,0.10116 3.5689,0.29024 0,0.15962 -0.1382,0.83911 -0.3071,1.50995 l -0.3071,1.21972 -3.6685,0 c -3.5788,0 -3.6719,0.0151 -3.8117,0.61771 -3.9299,16.94667 -4.0365,17.57191 -3.1819,18.65284 0.815,1.03073 2.4395,1.23396 5.1117,0.63947 1.1499,-0.25585 2.1363,-0.41966 2.1919,-0.36404 0.056,0.0556 -0.034,0.63437 -0.1996,1.28608 -0.2637,1.03865 -0.4528,1.25007 -1.5318,1.71261 -3.1032,1.33019 -7.8706,2.09186 -10.1247,1.61758 z m 24.7095,-0.11823 c -3.5014,-0.84932 -6.3096,-3.08163 -7.7229,-6.13923 -0.5995,-1.29692 -0.7451,-2.0674 -0.8374,-4.43195 -0.1281,-3.28314 0.1952,-5.08234 1.3971,-7.77619 l 0.8268,-1.85313 4.3852,0 c 4.0639,0 4.3717,0.0352 4.2002,0.48045 -0.3787,0.98275 -0.9638,3.80456 -0.9677,4.66712 -0.01,1.04734 0.099,1.06446 2.8784,0.47568 1.057,-0.22387 1.9526,-0.40704 1.9904,-0.40704 0.038,0 0.069,0.60269 0.069,1.33931 l 0,1.33931 -2.0703,0.30792 c -1.1385,0.16935 -2.3263,0.30791 -2.6392,0.30791 -0.522,0 -0.5536,0.1079 -0.3829,1.30406 0.4245,2.97258 1.1689,4.52987 2.7112,5.6714 0.6678,0.49425 1.1653,0.57432 3.569,0.57432 2.4647,0 2.9801,-0.0876 4.3841,-0.74551 0.9469,-0.4437 2.2618,-1.41622 3.2477,-2.4022 0.9112,-0.91119 1.7396,-1.65307 1.8407,-1.64865 0.1012,0.005 0.5924,0.37947 1.0915,0.83342 l 0.9075,0.82536 -0.8591,1.08474 c -2.2089,2.78907 -6.7131,5.59254 -10.0978,6.28504 -1.9062,0.39001 -6.1364,0.3408 -7.9213,-0.0921 z m 30.9272,-0.10829 c -3.2313,-0.84462 -5.9394,-2.89162 -7.2282,-5.46372 -2.0966,-4.18417 -1.5353,-10.58929 1.3179,-15.04029 1.1995,-1.87091 4.0595,-4.47808 6.106,-5.56611 3.4305,-1.82384 9.0301,-2.57516 12.9821,-1.74186 2.0855,0.43977 4.2383,1.733 5.1315,3.08283 1.5048,2.27387 1.1045,5.73705 -0.886,7.66632 -0.8709,0.84417 -1.145,0.94443 -2.8451,1.04049 -4.5812,0.25887 -6.1696,-2.57707 -3.9411,-7.03674 l 0.8557,-1.71235 -0.724,-0.47439 c -0.4519,-0.29609 -1.2614,-0.47439 -2.1538,-0.47439 -1.1485,0 -1.6639,0.16411 -2.6202,0.8343 -4.4187,3.09687 -6.1344,14.63447 -2.8219,18.97738 1.159,1.51957 2.7993,2.11593 5.3407,1.94175 2.6935,-0.18462 4.2929,-0.98259 6.3995,-3.19277 0.879,-0.92214 1.682,-1.673 1.7845,-1.66858 0.1025,0.005 0.5985,0.38273 1.1021,0.84068 l 0.9157,0.83263 -0.9923,1.28699 c -2.112,2.73937 -5.6953,5.09122 -9.0642,5.94919 -2.1687,0.55234 -6.3861,0.51271 -8.6589,-0.0814 z m -158.211,-0.0587 c -2.3429,-0.59108 -4.0608,-2.14697 -4.6061,-4.17182 -0.453,-1.68206 -0.1474,-3.74567 1.4266,-9.63337 1.6715,-6.25284 1.7902,-7.92446 0.633,-8.9198 -0.6658,-0.57276 -0.9631,-0.64479 -2.1032,-0.50975 -1.5513,0.18372 -4.2139,1.52548 -5.3216,2.68174 -0.6979,0.72838 -0.9953,1.76969 -2.9934,10.47882 l -2.2186,9.67008 -4.5865,0.0752 c -2.7516,0.0452 -4.5864,-0.0286 -4.5864,-0.18433 0,-0.14277 0.9398,-4.31529 2.0884,-9.27226 2.3063,-9.95309 2.6198,-12.059 1.9479,-13.08449 -0.5854,-0.89339 -2.1449,-1.11218 -4.1692,-0.58492 -0.8758,0.22813 -1.6352,0.37205 -1.6874,0.31983 -0.052,-0.0522 0.062,-0.64206 0.2552,-1.31074 0.3478,-1.20767 0.3665,-1.22198 2.8107,-2.14333 2.8099,-1.0592 6.5073,-1.43741 8.5727,-0.87691 1.4984,0.40662 3.0344,1.7578 3.6944,3.24979 l 0.5179,1.1708 1.2894,-1.07725 c 4.2077,-3.51533 10.2665,-4.96575 13.6656,-3.27147 0.8349,0.41609 1.6653,1.12088 2.1743,1.84523 0.7816,1.11215 0.8228,1.30738 0.8063,3.82412 -0.015,2.32885 -0.1909,3.27044 -1.4401,7.72468 -2.217,7.90474 -2.1916,9.61804 0.1484,10.05705 0.93,0.17446 3.0779,-0.11613 4.2259,-0.57174 0.3969,-0.1575 0.4141,-0.0369 0.1553,1.09371 -0.3268,1.42834 -0.513,1.56413 -3.7239,2.71555 -2.2432,0.80442 -5.3414,1.11778 -6.9756,0.70552 z m 67.2899,-0.10074 c -1.6765,-0.45142 -3.108,-1.56639 -3.8312,-2.98396 -0.8933,-1.75107 -0.6027,-4.9339 0.9688,-10.61153 1.5278,-5.51957 1.7697,-7.29123 1.1569,-8.4762 -0.9054,-1.75075 -3.9142,-1.36888 -6.9764,0.88543 l -1.6323,1.20159 -0.692,2.97722 c -0.3805,1.63747 -1.4047,6.09665 -2.2759,9.90928 l -1.584,6.93207 -4.6517,0 -4.6517,0 0.1933,-0.75498 c 1.016,-3.96936 8.1023,-35.12856 8.1023,-35.6269 0,-1.67216 -1.0236,-2.55958 -3.2944,-2.85611 l -1.2354,-0.16131 0.066,-1.07037 c 0.036,-0.58871 0.1016,-1.10672 0.1461,-1.15112 0.2365,-0.23656 14.5199,-0.72174 14.7252,-0.50019 0.1334,0.14386 -0.6912,4.2432 -1.901,9.45106 -1.1751,5.05834 -2.1065,9.2291 -2.0698,9.26834 0.037,0.0393 0.6112,-0.34403 1.2766,-0.85173 3.1537,-2.40625 6.1536,-3.51798 9.5307,-3.53199 3.2031,-0.0133 4.9759,0.90536 6.1442,3.1839 0.941,1.8353 0.728,4.33176 -0.8802,10.31658 -1.6947,6.30668 -1.9712,7.88853 -1.6087,9.20133 0.4212,1.52573 2.2859,1.94685 5.0015,1.12957 0.7035,-0.21172 1.2791,-0.3282 1.2791,-0.25884 0,0.0693 -0.1365,0.66795 -0.3033,1.33023 -0.303,1.20334 -0.3047,1.20468 -2.6767,2.06322 -3.8804,1.40449 -5.8869,1.64199 -8.3254,0.98541 z m 136.4402,-8e-4 c -1.9375,-0.5216 -3.3576,-1.58825 -4.0678,-3.05541 -0.8953,-1.84949 -0.6471,-4.51928 0.9564,-10.28727 0.6926,-2.49142 1.3346,-5.41418 1.4265,-6.49502 0.158,-1.85667 0.1279,-2.00444 -0.5444,-2.67674 -1.2736,-1.27366 -4.0589,-0.69468 -6.8707,1.4282 l -1.4317,1.081 -1.4634,6.41982 c -0.8049,3.5309 -1.8318,7.99499 -2.282,9.92018 l -0.8186,3.50035 -4.6605,0 c -4.3126,0 -4.6494,-0.0359 -4.5107,-0.48044 0.691,-2.21768 8.1233,-35.20331 8.1233,-36.05331 0,-1.38441 -0.8808,-2.34471 -2.3715,-2.58554 -2.4088,-0.38915 -2.3517,-0.35418 -2.1491,-1.31657 0.1023,-0.48515 0.2655,-0.96794 0.3628,-1.07284 0.2936,-0.31638 14.2931,-0.9025 14.585,-0.61063 0.1633,0.16332 -0.5352,3.6985 -1.8814,9.52166 -1.1777,5.09404 -2.0531,9.26189 -1.9454,9.26189 0.1077,0 0.3507,-0.18666 0.5401,-0.4148 0.6526,-0.78637 4.257,-2.83937 6.0167,-3.42697 2.3822,-0.7955 5.7548,-0.83313 7.4503,-0.0831 1.533,0.67812 2.8872,2.20184 3.2916,3.70363 0.4596,1.70684 0.1171,4.00477 -1.4378,9.64562 -1.3578,4.92587 -1.826,7.74345 -1.5015,9.03623 0.318,1.2668 2.8078,1.71051 5.0868,0.90647 1.2651,-0.4464 1.3086,-0.3824 0.8534,1.25663 -0.2584,0.93008 -0.4222,1.04897 -2.538,1.84188 -3.9158,1.46748 -5.7526,1.69879 -8.2184,1.035 z m -244.0095,-13.59794 c 0,-1.30712 0.081,-1.46873 1.3593,-2.70052 1.0642,-1.02569 1.3997,-1.56241 1.5451,-2.47171 l 0.1857,-1.16151 4.4948,0 c 2.4721,0 4.4947,0.0667 4.4947,0.14821 0,0.0815 -0.2473,0.63318 -0.5497,1.22594 -1.2434,2.43714 -4.1527,4.34208 -8.3727,5.48218 -1.208,0.32636 -2.4125,0.6551 -2.6768,0.73054 -0.4123,0.11774 -0.4804,-0.0598 -0.4804,-1.25313 z m 174.6161,-0.088 c 0.01,-1.36902 0.066,-1.47971 1.1162,-2.2065 1.0714,-0.74146 2.1487,-2.51489 2.1618,-3.55878 0.01,-0.43729 0.4005,-0.36313 4.3986,-0.36313 3.0089,0 4.3926,-0.0223 4.3926,0.18437 0,1.34119 -2.3078,3.85621 -4.608,5.02182 -1.1906,0.60337 -6.5771,2.36354 -7.2328,2.36354 -0.1314,0 -0.2342,-0.6486 -0.2284,-1.44132 z m -12.1922,-7.77736 c 2.009,-2.63389 6.1299,-5.19467 9.6423,-5.99182 l 1.7159,-0.38942 0,1.15535 c 0,0.9802 -0.1615,1.31303 -1.0651,2.19543 -0.5859,0.57204 -1.4037,1.709 -1.8173,2.52655 l -0.7521,1.48647 -4.2365,0 -4.2366,0 z m 15.4762,-0.0977 c 0,-2.03179 -1.0324,-3.68274 -2.5053,-4.00624 -0.6998,-0.1537 -0.7373,-0.29107 -0.7373,-1.21351 0,-1.01191 -0.021,-1.04433 1.0853,-1.1927 1.5084,-0.20232 5.449,0.2185 7.0617,0.75416 2.6551,0.88189 4.1554,2.80939 4.1554,5.33873 l 0,1.39983 -4.5299,0 -4.5299,0 z m -189.5974,-0.60684 c 2.0232,-2.36372 5.6959,-4.53283 8.9667,-5.29587 l 1.6325,-0.38082 0,1.24019 c 0,0.99158 -0.1358,1.34702 -0.6776,1.77316 -0.3726,0.29312 -1.1314,1.26835 -1.6862,2.16717 l -1.0087,1.63421 -4.1005,0 -4.1004,0 z m 14.7289,-0.2997 c -0.4008,-1.86919 -0.8785,-2.56112 -2.0638,-2.98971 -0.8678,-0.31383 -0.9678,-0.45397 -0.9678,-1.35683 0,-0.97283 0.039,-1.01201 1.1371,-1.15937 1.4886,-0.19966 5.2763,0.2004 6.7655,0.71459 2.597,0.89669 4.0174,2.51668 4.3529,4.96467 l 0.1733,1.26439 -4.5444,0 -4.5444,0 z"
         style="fill:none;stroke:#ff0000;stroke-width:0.03543307;stroke-miterlimit:4;stroke-opacity:1;stroke-dasharray:none" />
      <path
         sodipodi:nodetypes="sssssscsssssssscccsssssscccsscccssccssscccssscccssscccccssscccssscccscccccccccccccsccscccccccccccccccccccccscccscccccccccscccssscccssssscccsscscccccccccsscssccccccssscccsssscccccccccssscccccccscccccccccccccsccssscccssscccsscssscssccccccccccccccsssscccssscccsssscsssscsssscccssscsscccccccccccccccccccccccsscccsscccccsscccsssccccccscssssscsssscccccssssssscsssssssssssscsscccsssscscsssccssscccscssscsssscssssscssssssssssssscsscccsssscsscccssssssscsssscsscccssscsscssscssssssscscssccssssssssscssssssccccssssssssscssssscsssscssssssssssssssscsscccssscscssssssssssssscssccscsscscsssccsscsscssscsccssscssssssssscsssssscssscccssssssscccssscssscccssssssscccs"
         inkscape:connector-curvature="0"
         id="path8755-3"
         d="m 458.40151,402.3461 c -8.527,-2.30267 -13.7123,-10.62922 -13.0871,-21.01543 0.2134,-3.5465 0.7709,-5.73287 2.2455,-8.8056 2.7941,-5.82221 7.8862,-9.21988 14.4658,-9.65208 7.8021,-0.5125 14.4192,3.51855 16.4225,10.00437 0.8134,2.63361 0.8515,2.56701 -1.4159,2.47374 l -1.961,-0.0807 -0.3407,-1.15689 c -0.5138,-1.74456 -1.5743,-3.38262 -3.1355,-4.84294 -4.8174,-4.50613 -13.1975,-4.087 -17.9523,0.89786 -3.6256,3.80112 -5.269,10.25979 -4.1878,16.45914 0.8568,4.91368 3.0431,8.6795 6.2376,10.74419 2.5974,1.67882 4.0097,2.05792 7.6666,2.05792 3.1143,0 3.2098,-0.0187 5.2634,-1.03388 3.4613,-1.71105 5.708,-4.78539 6.6757,-9.13549 l 0.4556,-2.04754 1.9254,0 1.9253,0 -0.1951,1.30405 c -1.0514,7.02797 -5.4661,12.32458 -11.5966,13.91315 -2.2767,0.58996 -7.0745,0.54718 -9.4114,-0.0839 z m 37.8876,0.084 c -5.4185,-1.41803 -9.6284,-5.20751 -11.7942,-10.61649 -0.879,-2.1952 -1.6582,-6.05106 -1.6582,-8.20578 l 0,-1.33672 1.884,0 1.8838,0 0.1864,2.12766 c 0.7276,8.30779 4.9916,13.8494 11.5165,14.96706 l 1.8252,0.31265 0,1.59145 0,1.59147 -1.1668,-0.0181 c -0.6417,-0.01 -1.8462,-0.19589 -2.6767,-0.41323 z m 6.0398,-1.16556 0,-1.59686 1.8106,-0.35991 c 2.5266,-0.50219 4.6519,-1.64475 6.5196,-3.50488 2.7115,-2.70047 4.573,-7.47663 4.573,-11.73285 l 0,-1.79893 2.0913,0 2.0913,0 -0.1936,2.12766 c -0.873,9.59037 -5.3775,15.76931 -13.0452,17.89411 -1.1283,0.31269 -2.4555,0.56852 -2.9492,0.56852 l -0.8978,0 z m 225.46971,1.20239 c -3.4965,-0.84725 -6.8578,-3.32111 -8.425,-6.20085 -0.3968,-0.72894 -0.9658,-2.28087 -1.2645,-3.44875 -0.505,-1.97471 -0.5431,-3.07192 -0.5431,-15.66908 l 0,-13.54567 1.9218,0 1.9218,0 0,12.83461 c 0,7.36375 0.1214,13.59528 0.2821,14.61911 0.8396,5.35058 4.0551,8.12126 9.7983,8.44291 6.8505,0.38367 10.77,-2.31273 11.8815,-8.17386 0.1578,-0.83177 0.2735,-7.00368 0.2735,-14.58246 l 0,-13.14031 1.9218,0 1.9217,0 -0.01,13.65822 c -0.01,15.00347 -0.057,15.59456 -1.662,18.77437 -1.6027,3.175 -4.7142,5.50673 -8.5576,6.41289 -2.1007,0.49529 -7.4581,0.50596 -9.4683,0.0188 z M 534.08371,402.1293 c -0.1007,-0.10066 -0.183,-8.0691 -0.183,-17.70765 l 0,-17.52462 -6.7399,0 -6.7399,0 0.082,-1.57859 0.082,-1.57859 15.3055,-0.0709 15.3054,-0.0709 0,1.64953 0,1.64953 -6.7262,0 -6.7262,0 0,17.70766 0,17.70764 -1.7387,0 c -0.9563,0 -1.8211,-0.0824 -1.9217,-0.18302 z m 20.5929,0.002 c -0.1021,-0.10196 -0.1857,-8.81282 -0.1857,-19.35733 l 0,-19.17185 13.4523,0 13.4524,0 0,1.64722 0,1.64722 -11.3933,0 -11.3933,0 0,6.86343 0,6.86343 10.7207,0 10.7206,0 -0.082,1.57859 -0.082,1.57859 -10.6383,0.0719 -10.6383,0.0719 0,7.40928 0,7.40928 11.5437,0 11.5437,0 -0.082,1.71586 -0.082,1.71585 -13.3353,0.0712 c -7.3344,0.0392 -13.4188,-0.0123 -13.5209,-0.11439 z m 46.9432,-0.002 c -0.1006,-0.10066 -0.183,-4.60993 -0.183,-10.02061 l 0,-9.83758 1.9217,0 1.9219,0 0,8.23612 0,8.23611 3.5689,0 3.569,0 0,1.78449 0,1.78449 -5.3077,0 c -2.9192,0 -5.3901,-0.0824 -5.4908,-0.18302 z m 12.4457,-1.59822 0,-1.78774 1.1097,0 c 1.7285,0 5.1883,-0.80073 6.8459,-1.58442 4.1029,-1.93969 6.553,-6.7895 6.5853,-13.03468 l 0.01,-1.85313 1.9218,0 1.9217,0 0,2.12766 c -0.01,3.00521 -0.8597,6.82764 -2.0776,9.29242 -1.1417,2.31062 -3.3544,4.7595 -5.3651,5.9379 -1.773,1.039 -4.9996,2.0665 -7.1041,2.26225 -0.9816,0.0913 -2.2478,0.22482 -2.8141,0.29672 l -1.0295,0.13075 0,-1.78773 z m 35.0478,1.57534 c -0.069,-0.11325 3.3521,-8.82244 7.6023,-19.35376 7.0133,-17.37816 7.7846,-19.14797 8.3452,-19.14897 0.603,-8e-4 0.6177,0.0703 0.6177,3.00186 l 0,3.00296 -3.3971,8.66486 -3.3972,8.66487 3.3972,0 3.3971,0 0,1.63989 0,1.63988 -4.0118,0.076 -4.0118,0.076 -0.7512,1.92177 c -0.4131,1.05696 -1.4587,3.74399 -2.3235,5.97118 l -1.5724,4.04942 -1.8846,0 c -1.0365,0 -1.9409,-0.0927 -2.0099,-0.2059 z m 28.2331,-5.83392 -2.3779,-6.03982 -3.8214,0 -3.8213,0 0,-1.64721 0,-1.64723 3.1865,0 c 2.923,0 3.1711,-0.0397 2.9995,-0.48044 -0.1029,-0.26424 -1.5368,-4.04548 -3.1865,-8.40275 l -2.9995,-7.9223 0,-3.28332 0,-3.28332 0.7237,0.0869 c 0.6892,0.0827 1.0714,0.97424 8.0302,18.72887 6.5704,16.76386 7.3153,18.52022 7.3941,17.43311 0.082,-1.13425 0.8577,-2.18349 12.55861,-16.99478 l 12.4709,-15.78589 -11.6663,-0.0716 -11.66631,-0.0716 0,-1.64428 0,-1.64427 13.86411,0 13.8641,0 0,1.78188 0,1.78189 -12.3542,15.64473 c -6.7948,8.60459 -12.35421,15.70941 -12.35421,15.78849 0,0.0791 5.68301,0.14377 12.62871,0.14377 l 12.6288,0 0,1.78449 0,1.78449 -16.8619,0 -16.86191,0 z m 77.47641,5.86804 c -0.1068,-0.10685 -0.1943,-6.53608 -0.1943,-14.28718 l 0,-14.09291 2.0591,0 2.059,0 0,3.9808 0,3.98078 3.4317,0 3.4317,0 0,1.64723 0,1.64722 -3.4278,0 -3.4277,0 -0.073,8.57928 -0.072,8.57929 -1.7961,0.0799 c -0.9878,0.0439 -1.8836,-0.007 -1.9904,-0.1144 z m 25.8588,-0.58319 c -0.2741,-0.71608 -0.398,-1.68163 -1.0484,-8.17213 -0.4512,-4.50275 -1.4981,-6.58403 -3.8355,-7.6245 -1.0013,-0.44574 -2.0238,-0.58954 -4.9028,-0.68953 l -3.6377,-0.12634 0,-1.61141 0,-1.61141 3.2447,0 c 4.0957,0 5.5705,-0.41018 7.405,-2.05961 1.5174,-1.3643 2.2254,-2.80339 2.2959,-4.66656 l 0.047,-1.23541 2.0314,0 2.0312,0 -0.1861,1.30406 c -0.5857,4.10388 -2.8172,7.14284 -5.9296,8.07533 l -1.0518,0.31514 1.3918,0.4712 c 0.7934,0.26857 1.8559,0.92421 2.4706,1.52454 1.5591,1.52239 2.1413,3.33326 2.4535,7.63091 0.3632,5.00043 0.5298,6.14488 1.1239,7.72074 0.2846,0.75498 0.5175,1.40357 0.5176,1.44132 1e-4,0.0377 -0.9294,0.0687 -2.0657,0.0687 -2.0005,0 -2.0749,-0.0239 -2.3547,-0.75498 z m -179.24481,-29.58139 0,-8.37338 5.4907,0 5.4908,0 0,1.64722 0,1.64723 -3.569,0 -3.5689,0 0,6.72616 0,6.72616 -1.9219,0 -1.9217,0 z m 27.0401,7.06933 c -0.2601,-1.96442 -1.1965,-5.00676 -1.9323,-6.27781 -0.3599,-0.62163 -1.3386,-1.75566 -2.175,-2.52008 -2.0484,-1.87208 -4.4083,-2.74201 -8.7255,-3.21642 l -1.5786,-0.17346 0,-1.66797 0,-1.66797 2.2649,0.17996 c 4.9085,0.39 8.2279,1.6944 11.0645,4.34797 2.6314,2.4615 4.3728,6.2568 4.9349,10.75497 l 0.193,1.54487 -1.9366,0 -1.9366,0 z m -145.3657,0.24982 c 0,-1.19909 1.1794,-5.02015 2.1744,-7.04461 2.5229,-5.13325 7.5258,-8.64934 13.2684,-9.32525 l 1.5786,-0.18579 0,1.64848 c 0,1.8267 0.054,1.7759 -2.2603,2.09033 -0.7147,0.0971 -2.1459,0.59995 -3.1806,1.11756 -3.594,1.79804 -6.3173,5.5757 -7.343,10.18613 l -0.449,2.01831 -1.8942,0 c -1.6563,0 -1.8943,-0.0635 -1.8943,-0.50516 z m 31.9738,-0.24982 c -1.5221,-7.28999 -5.561,-11.77965 -11.3834,-12.65391 l -1.2355,-0.18551 -0.082,-1.73992 -0.082,-1.7399 1.1806,0.18275 c 4.3626,0.67531 7.466,2.15911 10.1217,4.83932 2.5814,2.60526 4.6511,6.8354 5.3259,10.88537 l 0.1944,1.16678 -1.9407,0 c -1.8958,0 -1.9442,-0.0175 -2.0982,-0.75498 z m 125.0615,-8.85382 0,-6.58889 1.7845,0 1.7846,0 0,6.58889 0,6.58889 -1.7846,0 -1.7845,0 z m 114.48201,-2.33357 0,-4.25532 5.4908,0 5.4907,0 0,1.64722 0,1.64723 -3.4317,0 -3.4317,0 0,2.6081 0,2.6081 -2.059,0 -2.0591,0 z m 25.0137,3.27628 c -0.5286,-1.46198 -1.7738,-2.71901 -3.3918,-3.42407 -1.204,-0.52463 -2.0694,-0.65005 -5.2183,-0.75621 l -3.7749,-0.12726 0,-1.61203 0,-1.61203 3.3814,0 c 3.8687,0 5.9724,0.3218 8.0183,1.22656 2.6712,1.18136 4.7267,3.65114 5.218,6.26974 l 0.1903,1.01435 -2.0344,0 -2.0345,0 z M 492.99461,360.70664 c 0,-0.0828 1.3899,-1.87409 3.0885,-3.98063 l 3.0886,-3.83008 1.9218,0.0161 1.9217,0.0161 2.8826,3.58941 c 1.5855,1.97417 2.9815,3.7582 3.1023,3.96451 0.1768,0.30215 -0.1436,0.37358 -1.6473,0.36727 l -1.8667,-0.008 -2.2839,-2.73294 -2.2839,-2.73294 -2.367,2.74078 -2.3669,2.74077 -1.5949,0 c -0.8772,1e-5 -1.5949,-0.0678 -1.5949,-0.15055 z m -40.4942,-0.57974 c -2.8773,-0.87519 -4.1389,-2.57566 -3.9149,-5.27696 0.1098,-1.32411 0.2521,-1.61323 1.2537,-2.54757 1.0311,-0.96174 1.2642,-1.05396 2.6641,-1.05396 0.8439,0 1.8772,0.17731 2.2963,0.39403 1.2039,0.62257 2.7478,2.51455 3.738,4.58078 l 0.9111,1.90099 0.572,-0.92563 c 0.925,-1.49673 1.8269,-3.73652 2.4513,-6.08744 0.5828,-2.19482 5.5397,-25.40202 5.5397,-25.93593 0,-0.17343 -0.9948,-0.28238 -2.5785,-0.28238 l -2.5786,0 0.3194,-1.44132 0.3196,-1.44131 2.6436,-0.0783 2.6437,-0.0782 0.4817,-1.96563 c 1.4503,-5.91812 6.1893,-11.1879 11.7957,-13.11677 3.1618,-1.08782 7.3174,-0.95932 9.7913,0.30278 2.6569,1.35545 3.2095,5.01375 1.0792,7.1441 -2.6739,2.67391 -6.3999,1.12192 -8.5895,-3.57777 -0.489,-1.04963 -0.9903,-1.84594 -1.1138,-1.76958 -0.6884,0.42542 -2.0558,4.04067 -3.0943,8.18018 l -1.1751,4.68465 3.4012,0.0768 c 1.8707,0.0422 3.4012,0.17815 3.4012,0.30198 0,0.12382 1.0023,-0.0652 2.2274,-0.42001 2.8158,-0.81556 6.1674,-0.87281 7.7956,-0.13314 1.2499,0.56783 2.7889,2.18571 3.0433,3.19928 0.094,0.37471 0.2261,0.68131 0.2934,0.68131 0.067,0 0.9812,-0.73907 2.0307,-1.64236 1.0495,-0.90329 2.4055,-1.89606 3.0133,-2.20615 2.6483,-1.35104 5.6428,-1.18762 7.2247,0.39428 1.994,1.99401 2.1114,6.11384 0.2456,8.62517 -1.0827,1.45746 -2.1522,1.96482 -4.1441,1.96599 -4.1764,0.002 -5.6325,-2.38099 -3.9083,-6.39788 l 0.5665,-1.31996 -1.1306,0.63362 c -0.6219,0.34849 -1.8412,1.3131 -2.7096,2.14358 l -1.5788,1.50996 -2.1405,9.67743 -2.1407,9.67744 -4.637,0 c -4.2868,0 -4.6263,-0.0363 -4.4962,-0.48044 0.7725,-2.63531 4.2888,-19.48424 4.2888,-20.55043 0,-2.23472 -1.4795,-2.95051 -4.482,-2.16846 -1.9318,0.50319 -1.8498,0.50314 -1.6571,8e-4 0.1336,-0.34814 -0.2429,-0.41181 -2.4352,-0.41181 l -2.5934,0 -1.4519,7.20661 c -3.3104,16.42959 -4.3659,19.37885 -8.3769,23.40656 -2.4078,2.41787 -4.9062,3.92758 -7.7069,4.65707 -2.0255,0.52756 -5.6024,0.51007 -7.3982,-0.0361 z m 69.3933,-11.20785 c -4.4041,-1.23394 -7.117,-3.85562 -8.2004,-7.92466 -0.808,-3.03494 -0.2114,-7.70236 1.3882,-10.85902 l 0.709,-1.39901 4.2827,0 4.2827,0 -0.1704,0.6177 c -0.473,1.71498 -1.0566,5.17428 -0.8994,5.33147 0.1638,0.16383 3.7017,-0.3553 4.5061,-0.66121 0.2461,-0.0936 0.3432,0.25722 0.3432,1.241 0,1.54208 0.163,1.45183 -3.3631,1.86154 l -1.5786,0.18342 0,1.01668 c 0,1.42572 0.7569,3.84051 1.5209,4.85259 1.0873,1.44023 2.2989,1.83574 5.175,1.68924 3.2249,-0.16426 4.6185,-0.78219 7.0428,-3.12263 l 1.874,-1.80915 0.9788,0.74661 c 0.5384,0.41064 0.9789,0.86618 0.9789,1.01233 0,0.51829 -3.3866,3.78272 -5.0438,4.86186 -3.0211,1.96726 -5.034,2.56777 -8.9576,2.67242 -2.426,0.0647 -3.853,-0.0265 -4.869,-0.31118 z m 69.8685,-0.0201 c -5.6948,-1.38026 -8.7194,-5.36299 -8.7194,-11.48146 0,-7.47568 4.2574,-13.36304 11.455,-15.8406 3.2073,-1.10401 8.6059,-1.18021 11.5579,-0.16314 3.5583,1.22591 5.268,4.14911 4.4416,7.59392 -0.6129,2.55492 -2.225,3.84674 -4.8004,3.84674 -4.243,0 -5.6361,-2.64541 -3.6557,-6.94203 0.8475,-1.83858 0.8605,-1.92037 0.3641,-2.28334 -0.8042,-0.5881 -2.2907,-0.76001 -3.4829,-0.40282 -3.1523,0.94447 -5.5312,5.58788 -5.9175,11.55088 -0.2739,4.22671 0.5866,7.31622 2.5073,9.00262 1.1468,1.00684 2.3198,1.27644 4.7169,1.08403 2.4214,-0.19437 4.375,-1.20696 6.2631,-3.24626 1.6623,-1.79562 1.8453,-1.82049 3.1476,-0.42811 l 0.6531,0.69836 -2.4376,2.4154 c -2.6151,2.59113 -4.6666,3.82207 -7.677,4.60617 -1.9793,0.51555 -6.2682,0.51027 -8.4161,-0.0103 z m 80.325,0.15612 c -2.5293,-0.53221 -4.3845,-2.00967 -5.048,-4.02027 -0.5038,-1.52629 -0.2048,-3.55748 1.7809,-12.09813 0.9901,-4.25812 1.8001,-7.80995 1.8001,-7.89294 0,-0.083 -1.1143,-0.1509 -2.4761,-0.1509 l -2.476,0 0.187,-0.75498 c 0.5765,-2.32725 0.2823,-2.11351 3.1187,-2.26493 l 2.5714,-0.13727 0.9589,-4.04942 0.9589,-4.04943 4.4811,0 c 2.5727,0 4.4812,0.10851 4.4812,0.25478 0,0.14012 -0.3706,1.85866 -0.8236,3.81896 -0.453,1.9603 -0.8236,3.69879 -0.8236,3.86328 0,0.20044 1.1773,0.2991 3.569,0.2991 2.3249,0 3.5689,0.10116 3.5689,0.29024 0,0.15962 -0.1382,0.83911 -0.3071,1.50995 l -0.3071,1.21972 -3.6685,0 c -3.5788,0 -3.6719,0.0151 -3.8117,0.61771 -3.9299,16.94667 -4.0365,17.57191 -3.1819,18.65284 0.815,1.03073 2.4395,1.23396 5.1117,0.63947 1.1499,-0.25585 2.1363,-0.41966 2.1919,-0.36404 0.056,0.0556 -0.034,0.63437 -0.1996,1.28608 -0.2637,1.03865 -0.4528,1.25007 -1.5318,1.71261 -3.1032,1.33019 -7.8706,2.09186 -10.1247,1.61758 z m 24.70951,-0.11823 c -3.5014,-0.84932 -6.30961,-3.08163 -7.72291,-6.13923 -0.5995,-1.29692 -0.7451,-2.0674 -0.8374,-4.43195 -0.1281,-3.28314 0.1952,-5.08234 1.3971,-7.77619 l 0.8268,-1.85313 4.38521,0 c 4.0639,0 4.3717,0.0352 4.2002,0.48045 -0.3787,0.98275 -0.9638,3.80456 -0.9677,4.66712 -0.01,1.04734 0.099,1.06446 2.8784,0.47568 1.057,-0.22387 1.9526,-0.40704 1.9904,-0.40704 0.038,0 0.069,0.60269 0.069,1.33931 l 0,1.33931 -2.0703,0.30792 c -1.1385,0.16935 -2.3263,0.30791 -2.6392,0.30791 -0.522,0 -0.5536,0.1079 -0.3829,1.30406 0.4245,2.97258 1.1689,4.52987 2.7112,5.6714 0.6678,0.49425 1.1653,0.57432 3.569,0.57432 2.4647,0 2.9801,-0.0876 4.3841,-0.74551 0.9469,-0.4437 2.2618,-1.41622 3.2477,-2.4022 0.9112,-0.91119 1.7396,-1.65307 1.8407,-1.64865 0.1012,0.005 0.5924,0.37947 1.0915,0.83342 l 0.9075,0.82536 -0.8591,1.08474 c -2.2089,2.78907 -6.7131,5.59254 -10.0978,6.28504 -1.9062,0.39001 -6.1364,0.3408 -7.9213,-0.0921 z m 30.9272,-0.10829 c -3.2313,-0.84462 -5.9394,-2.89162 -7.2282,-5.46372 -2.0966,-4.18417 -1.5353,-10.58929 1.3179,-15.04029 1.1995,-1.87091 4.0595,-4.47808 6.106,-5.56611 3.4305,-1.82384 9.0301,-2.57516 12.9821,-1.74186 2.0855,0.43977 4.2383,1.733 5.1315,3.08283 1.5048,2.27387 1.1045,5.73705 -0.886,7.66632 -0.8709,0.84417 -1.145,0.94443 -2.8451,1.04049 -4.5812,0.25887 -6.1696,-2.57707 -3.9411,-7.03674 l 0.8557,-1.71235 -0.724,-0.47439 c -0.4519,-0.29609 -1.2614,-0.47439 -2.1538,-0.47439 -1.1485,0 -1.6639,0.16411 -2.6202,0.8343 -4.4187,3.09687 -6.1344,14.63447 -2.8219,18.97738 1.159,1.51957 2.7993,2.11593 5.3407,1.94175 2.6935,-0.18462 4.2929,-0.98259 6.3995,-3.19277 0.879,-0.92214 1.682,-1.673 1.7845,-1.66858 0.1025,0.005 0.5985,0.38273 1.1021,0.84068 l 0.9157,0.83263 -0.9923,1.28699 c -2.112,2.73937 -5.6953,5.09122 -9.0642,5.94919 -2.1687,0.55234 -6.3861,0.51271 -8.6589,-0.0814 z m -158.21101,-0.0587 c -2.3429,-0.59108 -4.0608,-2.14697 -4.6061,-4.17182 -0.453,-1.68206 -0.1474,-3.74567 1.4266,-9.63337 1.6715,-6.25284 1.7902,-7.92446 0.633,-8.9198 -0.6658,-0.57276 -0.9631,-0.64479 -2.1032,-0.50975 -1.5513,0.18372 -4.2139,1.52548 -5.3216,2.68174 -0.6979,0.72838 -0.9953,1.76969 -2.9934,10.47882 l -2.2186,9.67008 -4.5865,0.0752 c -2.7516,0.0452 -4.5864,-0.0286 -4.5864,-0.18433 0,-0.14277 0.9398,-4.31529 2.0884,-9.27226 2.3063,-9.95309 2.6198,-12.059 1.9479,-13.08449 -0.5854,-0.89339 -2.1449,-1.11218 -4.1692,-0.58492 -0.8758,0.22813 -1.6352,0.37205 -1.6874,0.31983 -0.052,-0.0522 0.062,-0.64206 0.2552,-1.31074 0.3478,-1.20767 0.3665,-1.22198 2.8107,-2.14333 2.8099,-1.0592 6.5073,-1.43741 8.5727,-0.87691 1.4984,0.40662 3.0344,1.7578 3.6944,3.24979 l 0.5179,1.1708 1.2894,-1.07725 c 4.2077,-3.51533 10.2665,-4.96575 13.6656,-3.27147 0.8349,0.41609 1.6653,1.12088 2.1743,1.84523 0.7816,1.11215 0.8228,1.30738 0.8063,3.82412 -0.015,2.32885 -0.1909,3.27044 -1.4401,7.72468 -2.217,7.90474 -2.1916,9.61804 0.1484,10.05705 0.93,0.17446 3.0779,-0.11613 4.2259,-0.57174 0.3969,-0.1575 0.4141,-0.0369 0.1553,1.09371 -0.3268,1.42834 -0.513,1.56413 -3.7239,2.71555 -2.2432,0.80442 -5.3414,1.11778 -6.9756,0.70552 z m 67.2899,-0.10074 c -1.6765,-0.45142 -3.108,-1.56639 -3.8312,-2.98396 -0.8933,-1.75107 -0.6027,-4.9339 0.9688,-10.61153 1.5278,-5.51957 1.7697,-7.29123 1.1569,-8.4762 -0.9054,-1.75075 -3.9142,-1.36888 -6.9764,0.88543 l -1.6323,1.20159 -0.692,2.97722 c -0.3805,1.63747 -1.4047,6.09665 -2.2759,9.90928 l -1.584,6.93207 -4.6517,0 -4.6517,0 0.1933,-0.75498 c 1.016,-3.96936 8.1023,-35.12856 8.1023,-35.6269 0,-1.67216 -1.0236,-2.55958 -3.2944,-2.85611 l -1.2354,-0.16131 0.066,-1.07037 c 0.036,-0.58871 0.1016,-1.10672 0.1461,-1.15112 0.2365,-0.23656 14.5199,-0.72174 14.7252,-0.50019 0.1334,0.14386 -0.6912,4.2432 -1.901,9.45106 -1.1751,5.05834 -2.1065,9.2291 -2.0698,9.26834 0.037,0.0393 0.6112,-0.34403 1.2766,-0.85173 3.1537,-2.40625 6.1536,-3.51798 9.5307,-3.53199 3.2031,-0.0133 4.9759,0.90536 6.1442,3.1839 0.941,1.8353 0.728,4.33176 -0.8802,10.31658 -1.6947,6.30668 -1.9712,7.88853 -1.6087,9.20133 0.4212,1.52573 2.2859,1.94685 5.0015,1.12957 0.7035,-0.21172 1.2791,-0.3282 1.2791,-0.25884 0,0.0693 -0.1365,0.66795 -0.3033,1.33023 -0.303,1.20334 -0.3047,1.20468 -2.6767,2.06322 -3.8804,1.40449 -5.8869,1.64199 -8.3254,0.98541 z m 136.44021,-8e-4 c -1.9375,-0.5216 -3.3576,-1.58825 -4.0678,-3.05541 -0.8953,-1.84949 -0.6471,-4.51928 0.9564,-10.28727 0.6926,-2.49142 1.3346,-5.41418 1.4265,-6.49502 0.158,-1.85667 0.1279,-2.00444 -0.5444,-2.67674 -1.2736,-1.27366 -4.0589,-0.69468 -6.8707,1.4282 l -1.4317,1.081 -1.4634,6.41982 c -0.8049,3.5309 -1.8318,7.99499 -2.282,9.92018 l -0.8186,3.50035 -4.6605,0 c -4.3126,0 -4.6494,-0.0359 -4.5107,-0.48044 0.691,-2.21768 8.1233,-35.20331 8.1233,-36.05331 0,-1.38441 -0.8808,-2.34471 -2.3715,-2.58554 -2.4088,-0.38915 -2.3517,-0.35418 -2.1491,-1.31657 0.1023,-0.48515 0.2655,-0.96794 0.3628,-1.07284 0.2936,-0.31638 14.2931,-0.9025 14.585,-0.61063 0.1633,0.16332 -0.5352,3.6985 -1.8814,9.52166 -1.1777,5.09404 -2.0531,9.26189 -1.9454,9.26189 0.1077,0 0.3507,-0.18666 0.5401,-0.4148 0.6526,-0.78637 4.257,-2.83937 6.0167,-3.42697 2.3822,-0.7955 5.7548,-0.83313 7.4503,-0.0831 1.533,0.67812 2.8872,2.20184 3.2916,3.70363 0.4596,1.70684 0.1171,4.00477 -1.4378,9.64562 -1.3578,4.92587 -1.826,7.74345 -1.5015,9.03623 0.318,1.2668 2.8078,1.71051 5.0868,0.90647 1.2651,-0.4464 1.3086,-0.3824 0.8534,1.25663 -0.2584,0.93008 -0.4222,1.04897 -2.538,1.84188 -3.9158,1.46748 -5.7526,1.69879 -8.2184,1.035 z M 529.23351,335.07037 c 0,-1.30712 0.081,-1.46873 1.3593,-2.70052 1.0642,-1.02569 1.3997,-1.56241 1.5451,-2.47171 l 0.1857,-1.16151 4.4948,0 c 2.4721,0 4.4947,0.0667 4.4947,0.14821 0,0.0815 -0.2473,0.63318 -0.5497,1.22594 -1.2434,2.43714 -4.1527,4.34208 -8.3727,5.48218 -1.208,0.32636 -2.4125,0.6551 -2.6768,0.73054 -0.4123,0.11774 -0.4804,-0.0598 -0.4804,-1.25313 z m 174.61611,-0.088 c 0.01,-1.36902 0.066,-1.47971 1.1162,-2.2065 1.0714,-0.74146 2.1487,-2.51489 2.1618,-3.55878 0.01,-0.43729 0.4005,-0.36313 4.3986,-0.36313 3.0089,0 4.3926,-0.0223 4.3926,0.18437 0,1.34119 -2.3078,3.85621 -4.608,5.02182 -1.1906,0.60337 -6.5771,2.36354 -7.2328,2.36354 -0.1314,0 -0.2342,-0.6486 -0.2284,-1.44132 z m -12.19221,-7.77736 c 2.00901,-2.63389 6.12991,-5.19467 9.64231,-5.99182 l 1.7159,-0.38942 0,1.15535 c 0,0.9802 -0.1615,1.31303 -1.0651,2.19543 -0.5859,0.57204 -1.4037,1.709 -1.8173,2.52655 l -0.7521,1.48647 -4.2365,0 -4.23661,0 z m 15.47621,-0.0977 c 0,-2.03179 -1.0324,-3.68274 -2.5053,-4.00624 -0.6998,-0.1537 -0.7373,-0.29107 -0.7373,-1.21351 0,-1.01191 -0.021,-1.04433 1.0853,-1.1927 1.5084,-0.20232 5.449,0.2185 7.0617,0.75416 2.6551,0.88189 4.1554,2.80939 4.1554,5.33873 l 0,1.39983 -4.5299,0 -4.5299,0 z m -189.59741,-0.60684 c 2.0232,-2.36372 5.6959,-4.53283 8.9667,-5.29587 l 1.6325,-0.38082 0,1.24019 c 0,0.99158 -0.1358,1.34702 -0.6776,1.77316 -0.3726,0.29312 -1.1314,1.26835 -1.6862,2.16717 l -1.0087,1.63421 -4.1005,0 -4.1004,0 z m 14.7289,-0.2997 c -0.4008,-1.86919 -0.8785,-2.56112 -2.0638,-2.98971 -0.8678,-0.31383 -0.9678,-0.45397 -0.9678,-1.35683 0,-0.97283 0.039,-1.01201 1.1371,-1.15937 1.4886,-0.19966 5.2763,0.2004 6.7655,0.71459 2.597,0.89669 4.0174,2.51668 4.3529,4.96467 l 0.1733,1.26439 -4.5444,0 -4.5444,0 z"
         style="fill:none;stroke:#ff0000;stroke-width:0.03543307;stroke-miterlimit:4;stroke-opacity:1;stroke-dasharray:none" />
    </g>
  </g>
</svg>
