999
dxfrw 0.5.11
0
SECTION
2
HEADER
9
$ACADVER
1
AC1021
9
$HANDSEED
5
20000
9
$DWGCODEPAGE
3
ANSI_1252
9
$INSBASE
10
0
20
0
30
0
9
$EXTMIN
10
-200
20
-40
30
0
9
$EXTMAX
10
200
20
200
30
0
9
$LIMMIN
10
0
20
0
9
$LIMMAX
10
420
20
297
9
$ORTHOMODE
70
0
9
$LTSCALE
40
1
9
$TEXTSTYLE
7
STANDARD
9
$CLAYER
8
formes
9
$DIMASZ
40
2.5
9
$DIMLFAC
40
1
9
$DIMSCALE
40
1
9
$DIMEXO
40
0.625
9
$DIMEXE
40
1.25
9
$DIMTXT
40
2.5
9
$DIMTSZ
40
0
9
$DIMAUNIT
70
0
9
$DIMADEC
70
2
9
$DIMLUNIT
70
2
9
$DIMSTYLE
2
Standard
9
$DIMGAP
40
0.625
9
$DIMTIH
70
0
9
$LUNITS
70
2
9
$LUPREC
70
4
9
$AUNITS
70
0
9
$AUPREC
70
2
9
$SPLINESEGS
70
64
9
$GRIDMODE
70
1
9
$SNAPSTYLE
70
0
9
$GRIDUNIT
10
1
20
1
9
$PINSBASE
10
0
20
0
30
0
9
$PLIMMIN
10
0
20
0
9
$PLIMMAX
10
297
20
210
9
$INSUNITS
70
4
9
$PSVPSCALE
40
1
0
ENDSEC
0
SECTION
2
CLASSES
0
ENDSEC
0
SECTION
2
TABLES
0
TABLE
2
VPORT
5
8
330
0
100
AcDbSymbolTable
70
1
0
VPORT
5
31
330
2
100
AcDbSymbolTableRecord
100
AcDbViewportTableRecord
2
*ACTIVE
70
0
10
0
20
0
11
1
21
1
12
63.3750000005
22
80.5000000007
13
0
23
0
14
10
24
10
15
1
25
1
16
0
26
0
36
1
17
0
27
0
37
0
40
122.000000001
41
2.06147540984
42
50
43
0
44
0
50
0
51
0
71
0
72
100
73
1
74
3
75
0
76
1
77
0
78
0
281
0
65
1
110
0
120
0
130
0
111
1
121
0
131
0
112
0
122
1
132
0
79
0
146
0
348
10020
60
3
61
5
292
1
282
1
141
0
142
0
63
250
421
3358443
0
ENDTAB
0
TABLE
2
LTYPE
5
5
330
0
100
AcDbSymbolTable
70
4
0
LTYPE
5
14
330
5
100
AcDbSymbolTableRecord
100
AcDbLinetypeTableRecord
2
ByBlock
70
0
3

72
65
73
0
40
0
0
LTYPE
5
15
330
5
100
AcDbSymbolTableRecord
100
AcDbLinetypeTableRecord
2
ByLayer
70
0
3

72
65
73
0
40
0
0
LTYPE
5
16
330
5
100
AcDbSymbolTableRecord
100
AcDbLinetypeTableRecord
2
Continuous
70
0
3
Solid line
72
65
73
0
40
0
0
LTYPE
5
32
330
5
100
AcDbSymbolTableRecord
100
AcDbLinetypeTableRecord
2
DOT
70
0
3
Dot . . . . . . . . . . . . . . . . . . . . . .
72
65
73
2
40
6.35
49
0
74
0
49
-6.35
74
0
0
LTYPE
5
33
330
5
100
AcDbSymbolTableRecord
100
AcDbLinetypeTableRecord
2
DOT2
70
0
3
Dot (.5x) .....................................
72
65
73
2
40
3.175
49
0
74
0
49
-3.175
74
0
0
LTYPE
5
34
330
5
100
AcDbSymbolTableRecord
100
AcDbLinetypeTableRecord
2
DOTX2
70
0
3
Dot (2x) .  .  .  .  .  .  .  .  .  .  .  .  .
72
65
73
2
40
12.7
49
0
74
0
49
-12.7
74
0
0
LTYPE
5
35
330
5
100
AcDbSymbolTableRecord
100
AcDbLinetypeTableRecord
2
DASHED
70
0
3
Dot . . . . . . . . . . . . . . . . . . . . . .
72
65
73
2
40
19.05
49
12.7
74
0
49
-6.35
74
0
0
LTYPE
5
36
330
5
100
AcDbSymbolTableRecord
100
AcDbLinetypeTableRecord
2
DASHED2
70
0
3
Dashed (.5x) _ _ _ _ _ _ _ _ _ _ _ _ _ _ _ _ _
72
65
73
2
40
9.525
49
6.35
74
0
49
-3.175
74
0
0
LTYPE
5
37
330
5
100
AcDbSymbolTableRecord
100
AcDbLinetypeTableRecord
2
DASHEDX2
70
0
3
Dashed (2x) ____  ____  ____  ____  ____  ___
72
65
73
2
40
38.1
49
25.4
74
0
49
-12.7
74
0
0
LTYPE
5
38
330
5
100
AcDbSymbolTableRecord
100
AcDbLinetypeTableRecord
2
DASHDOT
70
0
3
Dash dot __ . __ . __ . __ . __ . __ . __ . __
72
65
73
4
40
25.4
49
12.7
74
0
49
-6.35
74
0
49
0
74
0
49
-6.35
74
0
0
LTYPE
5
39
330
5
100
AcDbSymbolTableRecord
100
AcDbLinetypeTableRecord
2
DASHDOT2
70
0
3
Dash dot (.5x) _._._._._._._._._._._._._._._.
72
65
73
4
40
12.7
49
6.35
74
0
49
-3.175
74
0
49
0
74
0
49
-3.175
74
0
0
LTYPE
5
3A
330
5
100
AcDbSymbolTableRecord
100
AcDbLinetypeTableRecord
2
DASHDOTX2
70
0
3
Dash dot (2x) ____  .  ____  .  ____  .  ___
72
65
73
4
40
50.8
49
25.4
74
0
49
-12.7
74
0
49
0
74
0
49
-12.7
74
0
0
LTYPE
5
3B
330
5
100
AcDbSymbolTableRecord
100
AcDbLinetypeTableRecord
2
DIVIDE
70
0
3
Divide ____ . . ____ . . ____ . . ____ . . ____
72
65
73
6
40
31.75
49
12.7
74
0
49
-6.35
74
0
49
0
74
0
49
-6.35
74
0
49
0
74
0
49
-6.35
74
0
0
LTYPE
5
3C
330
5
100
AcDbSymbolTableRecord
100
AcDbLinetypeTableRecord
2
DIVIDE2
70
0
3
Divide (.5x) __..__..__..__..__..__..__..__.._
72
65
73
6
40
15.875
49
6.35
74
0
49
-3.175
74
0
49
0
74
0
49
-3.175
74
0
49
0
74
0
49
-3.175
74
0
0
LTYPE
5
3D
330
5
100
AcDbSymbolTableRecord
100
AcDbLinetypeTableRecord
2
DIVIDEX2
70
0
3
Divide (2x) ________  .  .  ________  .  .  _
72
65
73
6
40
63.5
49
25.4
74
0
49
-12.7
74
0
49
0
74
0
49
-12.7
74
0
49
0
74
0
49
-12.7
74
0
0
LTYPE
5
3E
330
5
100
AcDbSymbolTableRecord
100
AcDbLinetypeTableRecord
2
BORDER
70
0
3
Border __ __ . __ __ . __ __ . __ __ . __ __ .
72
65
73
6
40
44.45
49
12.7
74
0
49
-6.35
74
0
49
12.7
74
0
49
-6.35
74
0
49
0
74
0
49
-6.35
74
0
0
LTYPE
5
3F
330
5
100
AcDbSymbolTableRecord
100
AcDbLinetypeTableRecord
2
BORDER2
70
0
3
Border (.5x) __.__.__.__.__.__.__.__.__.__.__.
72
65
73
6
40
22.225
49
6.35
74
0
49
-3.175
74
0
49
6.35
74
0
49
-3.175
74
0
49
0
74
0
49
-3.175
74
0
0
LTYPE
5
40
330
5
100
AcDbSymbolTableRecord
100
AcDbLinetypeTableRecord
2
BORDERX2
70
0
3
Border (2x) ____  ____  .  ____  ____  .  ___
72
65
73
6
40
88.9
49
25.4
74
0
49
-12.7
74
0
49
25.4
74
0
49
-12.7
74
0
49
0
74
0
49
-12.7
74
0
0
LTYPE
5
41
330
5
100
AcDbSymbolTableRecord
100
AcDbLinetypeTableRecord
2
CENTER
70
0
3
Center ____ _ ____ _ ____ _ ____ _ ____ _ ____
72
65
73
4
40
50.8
49
31.75
74
0
49
-6.35
74
0
49
6.35
74
0
49
-6.35
74
0
0
LTYPE
5
42
330
5
100
AcDbSymbolTableRecord
100
AcDbLinetypeTableRecord
2
CENTER2
70
0
3
Center (.5x) ___ _ ___ _ ___ _ ___ _ ___ _ ___
72
65
73
4
40
28.575
49
19.05
74
0
49
-3.175
74
0
49
3.175
74
0
49
-3.175
74
0
0
LTYPE
5
43
330
5
100
AcDbSymbolTableRecord
100
AcDbLinetypeTableRecord
2
CENTERX2
70
0
3
Center (2x) ________  __  ________  __  _____
72
65
73
4
40
101.6
49
63.5
74
0
49
-12.7
74
0
49
12.7
74
0
49
-12.7
74
0
0
ENDTAB
0
TABLE
2
LAYER
5
2
330
0
100
AcDbSymbolTable
70
1
0
LAYER
5
10
330
2
100
AcDbSymbolTableRecord
100
AcDbLayerTableRecord
2
0
70
4
62
7
6
CONTINUOUS
370
0
390
F
0
LAYER
5
44
330
2
100
AcDbSymbolTableRecord
100
AcDbLayerTableRecord
2
construction
70
5
62
2
6
CONTINUOUS
370
0
390
F
0
LAYER
5
45
330
2
100
AcDbSymbolTableRecord
100
AcDbLayerTableRecord
2
formes
70
0
62
7
6
CONTINUOUS
370
30
390
F
0
ENDTAB
0
TABLE
2
STYLE
5
3
330
0
100
AcDbSymbolTable
70
3
0
STYLE
5
46
330
2
100
AcDbSymbolTableRecord
100
AcDbTextStyleTableRecord
2
Standard
70
0
40
0
41
1
50
0
71
0
42
1
3
txt
4

0
ENDTAB
0
TABLE
2
VIEW
5
6
330
0
100
AcDbSymbolTable
70
0
0
ENDTAB
0
TABLE
2
UCS
5
7
330
0
100
AcDbSymbolTable
70
0
0
ENDTAB
0
TABLE
2
APPID
5
9
330
0
100
AcDbSymbolTable
70
1
0
APPID
5
12
330
9
100
AcDbSymbolTableRecord
100
AcDbRegAppTableRecord
2
ACAD
70
0
0
ENDTAB
0
TABLE
2
DIMSTYLE
5
A
330
0
100
AcDbSymbolTable
70
1
100
AcDbDimStyleTable
71
1
0
DIMSTYLE
105
47
330
A
100
AcDbSymbolTableRecord
100
AcDbDimStyleTableRecord
2
Standard
70
0
40
1
41
2.5
42
0.625
43
0.38
44
1.25
45
0
46
0
47
0
48
0
140
2.5
141
0.09
142
0
143
25.4
144
1
145
0
146
1
147
0.625
148
0
71
0
72
0
73
0
74
1
75
0
76
0
77
0
78
0
79
0
170
0
171
2
172
0
173
0
174
0
175
0
176
0
177
0
178
0
179
0
271
4
272
4
273
2
274
2
275
0
276
0
277
2
278
46
279
0
280
0
281
0
282
0
283
1
284
0
285
0
286
0
288
0
289
3
340
Standard
341

371
-2
372
-2
0
ENDTAB
0
TABLE
2
BLOCK_RECORD
5
1
330
0
100
AcDbSymbolTable
70
2
0
BLOCK_RECORD
5
1F
330
1
100
AcDbSymbolTableRecord
100
AcDbBlockTableRecord
2
*Model_Space
70
0
280
1
281
0
0
BLOCK_RECORD
5
1E
330
1
100
AcDbSymbolTableRecord
100
AcDbBlockTableRecord
2
*Paper_Space
70
0
280
1
281
0
0
BLOCK_RECORD
5
48
330
1
100
AcDbSymbolTableRecord
100
AcDbBlockTableRecord
2
roue12dts-1
70
0
280
1
281
0
0
BLOCK_RECORD
5
4B
330
1
100
AcDbSymbolTableRecord
100
AcDbBlockTableRecord
2
roue12dts-1-0
70
0
280
1
281
0
0
ENDTAB
0
ENDSEC
0
SECTION
2
BLOCKS
0
BLOCK
5
20
330
1F
100
AcDbEntity
8
0
100
AcDbBlockBegin
2
*Model_Space
70
0
10
0
20
0
30
0
3
*Model_Space
1

0
ENDBLK
5
21
330
1F
100
AcDbEntity
8
0
100
AcDbBlockEnd
0
BLOCK
5
1C
330
1B
100
AcDbEntity
8
0
100
AcDbBlockBegin
2
*Paper_Space
70
0
10
0
20
0
30
0
3
*Paper_Space
1

0
ENDBLK
5
1D
330
1F
100
AcDbEntity
8
0
100
AcDbBlockEnd
0
BLOCK
5
49
330
48
100
AcDbEntity
8
0
100
AcDbBlockBegin
2
roue12dts-1
70
0
10
0
20
0
3
roue12dts-1
1

0
ENDBLK
5
4A
330
48
100
AcDbEntity
8
0
100
AcDbBlockEnd
0
BLOCK
5
4C
330
4B
100
AcDbEntity
8
0
100
AcDbBlockBegin
2
roue12dts-1-0
70
0
10
0
20
0
3
roue12dts-1-0
1

0
ENDBLK
5
4D
330
4B
100
AcDbEntity
8
0
100
AcDbBlockEnd
0
ENDSEC
0
SECTION
2
ENTITIES
0
LINE
5
4E
100
AcDbEntity
8
construction
6
ByLayer
62
256
370
-1
100
AcDbLine
10
-200
20
0
11
200
21
0
0
LINE
5
4F
100
AcDbEntity
8
construction
6
ByLayer
62
256
370
-1
100
AcDbLine
10
-200
20
150
11
200
21
150
0
LINE
5
50
100
AcDbEntity
8
construction
6
ByLayer
62
256
370
-1
100
AcDbLine
10
0
20
200
11
0
21
-40
0
LINE
5
51
100
AcDbEntity
8
construction
6
ByLayer
62
256
370
-1
100
AcDbLine
10
150
20
200
11
150
21
-40
0
LINE
5
52
100
AcDbEntity
8
construction
6
ByLayer
62
256
370
-1
100
AcDbLine
10
-150
20
200
11
-150
21
-40
0
LINE
5
53
100
AcDbEntity
8
construction
6
ByLayer
62
256
370
-1
100
AcDbLine
10
-200
20
140
11
200
21
140
0
LINE
5
54
100
AcDbEntity
8
construction
6
ByLayer
62
256
370
-1
100
AcDbLine
10
-140
20
200
11
-140
21
-40
0
LINE
5
55
100
AcDbEntity
8
construction
6
ByLayer
62
256
370
-1
100
AcDbLine
10
140
20
200
11
140
21
-40
0
LINE
5
56
100
AcDbEntity
8
construction
6
ByLayer
62
256
370
-1
100
AcDbLine
10
0
20
0
11
75
21
129.903810568
0
LINE
5
57
100
AcDbEntity
8
construction
6
ByLayer
62
256
370
-1
100
AcDbLine
10
0
20
0
11
-70.4207344179
21
132.442138929
0
LINE
5
58
100
AcDbEntity
8
construction
6
ByLayer
62
256
370
-1
100
AcDbLine
10
1.32442138929
20
0.704207344179
11
-69.0963130286
21
133.146346273
0
LINE
5
59
100
AcDbEntity
8
construction
6
ByLayer
62
256
370
-1
100
AcDbLine
10
-1.32442138929
20
-0.704207344179
11
-71.7451558072
21
131.737931585
0
LINE
5
5A
100
AcDbEntity
8
construction
6
ByLayer
62
256
370
-1
100
AcDbLine
10
0.838789355206
20
1.24355635883
11
-123.516846528
21
85.1224918794
0
LINE
5
5B
100
AcDbEntity
8
construction
6
ByLayer
62
256
370
-1
100
AcDbLine
10
-0.79487889635
20
1.27207214423
11
126.412335527
21
80.7599617792
0
LINE
5
5C
100
AcDbEntity
8
construction
6
ByLayer
62
256
370
-1
100
AcDbLine
10
1.29903810568
20
-0.75
11
76.2990381057
21
129.153810568
0
LINE
5
5D
100
AcDbEntity
8
construction
6
ByLayer
62
256
370
-1
100
AcDbLine
10
-1.29903810568
20
0.75
11
73.7009618943
21
130.653810568
0
ARC
5
5E
100
AcDbEntity
8
construction
6
ByLayer
62
256
370
-1
100
AcDbCircle
10
0
20
0
40
145
100
AcDbArc
50
0
51
180
0
ARC
5
5F
100
AcDbEntity
8
construction
6
ByLayer
62
256
370
-1
100
AcDbCircle
10
0
20
0
40
150
100
AcDbArc
50
0
51
180
0
LINE
5
60
100
AcDbEntity
8
construction
6
ByLayer
62
256
370
-1
100
AcDbLine
10
2.51636806562
20
3.7306690765
11
-121.839267818
21
87.6096045971
0
LINE
5
61
100
AcDbEntity
8
construction
6
ByLayer
62
256
370
-1
100
AcDbLine
10
-2.38463668905
20
3.8162164327
11
124.822577734
21
83.3041060677
0
ARC
5
62
100
AcDbEntity
8
construction
6
ByLayer
62
256
370
-1
100
AcDbCircle
10
0
20
0
40
140
100
AcDbArc
50
0
51
180
0
INSERT
5
63
100
AcDbEntity
8
formes
6
ByLayer
62
256
370
-1
100
AcDbBlockReference
2
roue12dts-1
10
-12.5
20
144.460202132
30
0
41
1
42
1
43
0
50
6
70
1
71
1
44
1
45
1
0
LINE
5
64
100
AcDbEntity
8
construction
6
ByLayer
62
256
370
-1
100
AcDbLine
10
7.5
20
200
11
7.5
21
-40
0
LINE
5
65
100
AcDbEntity
8
construction
6
ByLayer
62
256
370
-1
100
AcDbLine
10
-7.5
20
200
11
-7.5
21
-40
0
LINE
5
66
100
AcDbEntity
8
construction
6
ByLayer
62
256
370
-1
100
AcDbLine
10
1.5
20
200
11
1.5
21
-40
0
LINE
5
67
100
AcDbEntity
8
construction
6
ByLayer
62
256
370
-1
100
AcDbLine
10
-1.5
20
200
11
-1.5
21
-40
0
CIRCLE
5
68
100
AcDbEntity
8
formes
6
ByLayer
62
256
370
-1
100
AcDbCircle
10
-7.5
20
144.805904576
40
1.5
0
CIRCLE
5
69
100
AcDbEntity
8
formes
6
ByLayer
62
256
370
-1
100
AcDbCircle
10
7.5
20
144.805904576
40
1.5
0
CIRCLE
5
6A
100
AcDbEntity
8
construction
6
ByLayer
62
256
370
-1
100
AcDbCircle
10
-7.5
20
144.805904576
40
6.00289274658
0
CIRCLE
5
6B
100
AcDbEntity
8
construction
6
ByLayer
62
256
370
-1
100
AcDbCircle
10
-7.5
20
144.805904576
40
9.00192875594
0
CIRCLE
5
6C
100
AcDbEntity
8
construction
6
ByLayer
62
256
370
-1
100
AcDbCircle
10
7.5
20
144.805904576
40
9.00192875594
0
CIRCLE
5
6D
100
AcDbEntity
8
construction
6
ByLayer
62
256
370
-1
100
AcDbCircle
10
7.5
20
144.805904576
40
6.0028927462
0
ARC
5
6E
100
AcDbEntity
8
formes
6
ByLayer
62
256
370
-1
100
AcDbCircle
10
7.50000000004
20
144.805904576
40
9.00192875598
100
AcDbArc
50
29.3093158469
51
178.813913842
0
ARC
5
6F
100
AcDbEntity
8
formes
6
ByLayer
62
256
370
-1
100
AcDbCircle
10
7.50000000025
20
144.805904576
40
6.00289274645
100
AcDbArc
50
181.778811619
51
299.971936528
0
ARC
5
70
100
AcDbEntity
8
formes
6
ByLayer
62
256
370
-1
100
AcDbCircle
10
-7.50000000012
20
144.805904576
40
6.00289274622
100
AcDbArc
50
1.77881168646
51
127.214564984
0
ARC
5
71
100
AcDbEntity
8
formes
6
ByLayer
62
256
370
-1
100
AcDbCircle
10
-7.50000000001
20
144.805904576
40
9.00192875595
100
AcDbArc
50
218.197778721
51
1.18608615721
0
LINE
5
72
100
AcDbEntity
8
formes
6
ByLayer
62
256
370
-1
100
AcDbLine
10
-1.5
20
144.992241172
11
1.50000000039
21
144.992241172
0
ARC
5
73
100
AcDbEntity
8
formes
6
ByLayer
62
256
370
-1
100
AcDbCircle
10
-1.56785924309
20
-1.64106932782
40
142.206152289
100
AcDbArc
50
32.8303656862
51
84.890499324
0
ARC
5
74
100
AcDbEntity
8
formes
6
ByLayer
62
256
370
-1
100
AcDbCircle
10
9.94759830064e-14
20
1.56319401867e-13
40
150
100
AcDbArc
50
33.719131321
51
84.1266076931
0
ARC
5
75
100
AcDbEntity
8
formes
6
ByLayer
62
256
370
-1
100
AcDbCircle
10
-8.52651282912e-14
20
8.52651282912e-14
40
140
100
AcDbArc
50
95.9754987267
51
145.386104902
0
ARC
5
76
100
AcDbEntity
8
formes
6
ByLayer
62
256
370
-1
100
AcDbCircle
10
1.38705756743
20
-1.58775062999
40
152.053840086
100
AcDbArc
50
94.4872944907
51
144.100263919
0
LINE
5
77
100
AcDbEntity
8
formes
6
ByLayer
62
256
370
-1
100
AcDbLine
10
-121.783295185
20
87.5718505794
11
-117.636176317
21
84.7745835824
0
LINE
5
78
100
AcDbEntity
8
formes
6
ByLayer
62
256
370
-1
100
AcDbLine
10
-117.636176317
20
84.7745835824
11
-119.365226305
21
82.3221886804
0
LINE
5
79
100
AcDbEntity
8
formes
6
ByLayer
62
256
370
-1
100
AcDbLine
10
-119.365226305
20
82.3221886804
11
-115.219808702
21
79.5260692014
0
LINE
5
7A
100
AcDbEntity
8
formes
6
ByLayer
62
256
370
-1
100
AcDbLine
10
-71.7394623129
20
131.72722368
11
-69.3941554439
21
127.316342982
0
LINE
5
7B
100
AcDbEntity
8
formes
6
ByLayer
62
256
370
-1
100
AcDbLine
10
-69.3941554439
20
127.316342982
11
-66.7453126654
21
128.72475767
0
LINE
5
7C
100
AcDbEntity
8
formes
6
ByLayer
62
256
370
-1
100
AcDbLine
10
-66.7453126654
20
128.72475767
11
-69.0950592963
21
133.143988346
0
LINE
5
7D
100
AcDbEntity
8
formes
6
ByLayer
62
256
370
-1
100
AcDbLine
10
71.19708248
20
126.316964206
11
73.7951586914
21
124.816964206
0
LINE
5
7E
100
AcDbEntity
8
formes
6
ByLayer
62
256
370
-1
100
AcDbLine
10
73.7951586914
20
124.816964206
11
76.2952880118
21
129.147315215
0
LINE
5
7F
100
AcDbEntity
8
formes
6
ByLayer
62
256
370
-1
100
AcDbLine
10
76.2952880118
20
129.147315215
11
73.6972118004
21
130.647315215
0
LINE
5
80
100
AcDbEntity
8
formes
6
ByLayer
62
256
370
-1
100
AcDbLine
10
73.6972118004
20
130.647315215
11
71.19708248
21
126.316964206
0
LINE
5
81
100
AcDbEntity
8
formes
6
ByLayer
62
256
370
-1
100
AcDbLine
10
124.765321602
20
83.2683284658
11
120.523105837
21
80.6174978496
0
LINE
5
82
100
AcDbEntity
8
formes
6
ByLayer
62
256
370
-1
100
AcDbLine
10
120.523105837
20
80.6174978496
11
122.165515187
21
78.1062539055
0
LINE
5
83
100
AcDbEntity
8
formes
6
ByLayer
62
256
370
-1
100
AcDbLine
10
122.165515187
20
78.1062539055
11
117.925039698
21
75.4565107349
0
ENDSEC
0
SECTION
2
OBJECTS
0
DICTIONARY
5
C
330
0
100
AcDbDictionary
281
1
3
ACAD_GROUP
350
D
0
DICTIONARY
5
D
330
C
100
AcDbDictionary
281
1
0
ENDSEC
0
EOF
