solid default:solid1
  facet normal 1.000000e+000 -0.000000e+000 -0.000000e+000
    outer loop
      vertex 2.000000e+001 3.500000e+001 3.000000e+000
      vertex 2.000000e+001 -3.500000e+001 0.000000e+000
      vertex 2.000000e+001 3.500000e+001 0.000000e+000
    endloop
  endfacet
  facet normal 1.000000e+000 -0.000000e+000 -0.000000e+000
    outer loop
      vertex 2.000000e+001 -3.500000e+001 3.000000e+000
      vertex 2.000000e+001 -3.500000e+001 0.000000e+000
      vertex 2.000000e+001 3.500000e+001 3.000000e+000
    endloop
  endfacet
  facet normal -0.000000e+000 1.000000e+000 -0.000000e+000
    outer loop
      vertex -2.000000e+001 3.500000e+001 3.000000e+000
      vertex 2.000000e+001 3.500000e+001 0.000000e+000
      vertex -2.000000e+001 3.500000e+001 0.000000e+000
    endloop
  endfacet
  facet normal -0.000000e+000 1.000000e+000 -0.000000e+000
    outer loop
      vertex 2.000000e+001 3.500000e+001 3.000000e+000
      vertex 2.000000e+001 3.500000e+001 0.000000e+000
      vertex -2.000000e+001 3.500000e+001 3.000000e+000
    endloop
  endfacet
  facet normal -1.000000e+000 -0.000000e+000 -0.000000e+000
    outer loop
      vertex -2.000000e+001 -3.500000e+001 3.000000e+000
      vertex -2.000000e+001 3.500000e+001 0.000000e+000
      vertex -2.000000e+001 -3.500000e+001 0.000000e+000
    endloop
  endfacet
  facet normal -1.000000e+000 -0.000000e+000 -0.000000e+000
    outer loop
      vertex -2.000000e+001 3.500000e+001 3.000000e+000
      vertex -2.000000e+001 3.500000e+001 0.000000e+000
      vertex -2.000000e+001 -3.500000e+001 3.000000e+000
    endloop
  endfacet
  facet normal -0.000000e+000 -1.000000e+000 -0.000000e+000
    outer loop
      vertex 2.000000e+001 -3.500000e+001 3.000000e+000
      vertex -2.000000e+001 -3.500000e+001 0.000000e+000
      vertex 2.000000e+001 -3.500000e+001 0.000000e+000
    endloop
  endfacet
  facet normal -0.000000e+000 -1.000000e+000 -0.000000e+000
    outer loop
      vertex -2.000000e+001 -3.500000e+001 3.000000e+000
      vertex -2.000000e+001 -3.500000e+001 0.000000e+000
      vertex 2.000000e+001 -3.500000e+001 3.000000e+000
    endloop
  endfacet
  facet normal -0.000000e+000 -0.000000e+000 -1.000000e+000
    outer loop
      vertex 2.000000e+001 3.500000e+001 0.000000e+000
      vertex -2.000000e+001 -3.500000e+001 0.000000e+000
      vertex -2.000000e+001 3.500000e+001 0.000000e+000
    endloop
  endfacet
  facet normal -0.000000e+000 -0.000000e+000 -1.000000e+000
    outer loop
      vertex 2.000000e+001 -3.500000e+001 0.000000e+000
      vertex -2.000000e+001 -3.500000e+001 0.000000e+000
      vertex 2.000000e+001 3.500000e+001 0.000000e+000
    endloop
  endfacet
  facet normal 0.000000e+000 0.000000e+000 1.000000e+000
    outer loop
      vertex 2.000000e+001 -3.500000e+001 3.000000e+000
      vertex -2.000000e+001 3.500000e+001 3.000000e+000
      vertex -2.000000e+001 -3.500000e+001 3.000000e+000
    endloop
  endfacet
  facet normal 0.000000e+000 0.000000e+000 1.000000e+000
    outer loop
      vertex 2.000000e+001 3.500000e+001 3.000000e+000
      vertex -2.000000e+001 3.500000e+001 3.000000e+000
      vertex 2.000000e+001 -3.500000e+001 3.000000e+000
    endloop
  endfacet
endsolid default:solid1
