solid OpenSCAD_Model
  facet normal -0 0 1
    outer loop
      vertex 0 -51.2461 -0.488157
      vertex 33 -52.7539 -0.488157
      vertex 33 -51.2461 -0.488157
    endloop
  endfacet
  facet normal 0 0 1
    outer loop
      vertex 33 -52.7539 -0.488157
      vertex 0 -51.2461 -0.488157
      vertex 0 -52.7539 -0.488157
    endloop
  endfacet
  facet normal 0 -0.187381 0.982287
    outer loop
      vertex 0 -46.7646 0.0779982
      vertex 33 -48.2456 -0.204519
      vertex 33 -46.7646 0.0779982
    endloop
  endfacet
  facet normal 0 -0.187381 0.982287
    outer loop
      vertex 33 -48.2456 -0.204519
      vertex 0 -46.7646 0.0779982
      vertex 0 -48.2456 -0.204519
    endloop
  endfacet
  facet normal 0 -0.125333 0.992115
    outer loop
      vertex 0 -48.2456 -0.204519
      vertex 33 -49.7414 -0.393487
      vertex 33 -48.2456 -0.204519
    endloop
  endfacet
  facet normal 0 -0.125333 0.992115
    outer loop
      vertex 33 -49.7414 -0.393487
      vertex 0 -48.2456 -0.204519
      vertex 0 -49.7414 -0.393487
    endloop
  endfacet
  facet normal 0 -0.24869 0.968583
    outer loop
      vertex 0 -45.3042 0.452952
      vertex 33 -46.7646 0.0779982
      vertex 33 -45.3042 0.452952
    endloop
  endfacet
  facet normal 0 -0.24869 0.968583
    outer loop
      vertex 33 -46.7646 0.0779982
      vertex 0 -45.3042 0.452952
      vertex 0 -46.7646 0.0779982
    endloop
  endfacet
  facet normal -0 0.0627905 0.998027
    outer loop
      vertex 0 -52.7539 -0.488157
      vertex 33 -54.2586 -0.393487
      vertex 33 -52.7539 -0.488157
    endloop
  endfacet
  facet normal 0 0.0627905 0.998027
    outer loop
      vertex 33 -54.2586 -0.393487
      vertex 0 -52.7539 -0.488157
      vertex 0 -54.2586 -0.393487
    endloop
  endfacet
  facet normal 0 -0.309019 0.951056
    outer loop
      vertex 0 -45 0.551797
      vertex 33 -45.3042 0.452952
      vertex 33 -45 0.551797
    endloop
  endfacet
  facet normal 0 -0.309019 0.951056
    outer loop
      vertex 33 -45.3042 0.452952
      vertex 0 -45 0.551797
      vertex 0 -45.3042 0.452952
    endloop
  endfacet
  facet normal -0 0.125334 0.992115
    outer loop
      vertex 0 -54.2586 -0.393487
      vertex 33 -55 -0.299826
      vertex 33 -54.2586 -0.393487
    endloop
  endfacet
  facet normal 0 0.125334 0.992115
    outer loop
      vertex 33 -55 -0.299826
      vertex 0 -54.2586 -0.393487
      vertex 0 -55 -0.299826
    endloop
  endfacet
  facet normal 0 -0.0627907 0.998027
    outer loop
      vertex 0 -49.7414 -0.393487
      vertex 33 -51.2461 -0.488157
      vertex 33 -49.7414 -0.393487
    endloop
  endfacet
  facet normal 0 -0.0627907 0.998027
    outer loop
      vertex 33 -51.2461 -0.488157
      vertex 0 -49.7414 -0.393487
      vertex 0 -51.2461 -0.488157
    endloop
  endfacet
  facet normal 0 -1 0
    outer loop
      vertex 0 -45 0.551797
      vertex 33 -45 1.5
      vertex 0 -45 1.5
    endloop
  endfacet
  facet normal 0 -1 -0
    outer loop
      vertex 33 -45 1.5
      vertex 0 -45 0.551797
      vertex 33 -45 0.551797
    endloop
  endfacet
  facet normal 0 -1 0
    outer loop
      vertex 0 -55 -1.5
      vertex 33 -55 -0.299826
      vertex 0 -55 -0.299826
    endloop
  endfacet
  facet normal 0 -1 -0
    outer loop
      vertex 33 -55 -0.299826
      vertex 0 -55 -1.5
      vertex 33 -55 -1.5
    endloop
  endfacet
  facet normal -1 0 0
    outer loop
      vertex 0 -3.33067e-016 -1.5
      vertex 0 -45.3042 0.452952
      vertex 0 -45 0.551797
    endloop
  endfacet
  facet normal -1 0 0
    outer loop
      vertex 0 -3.33067e-016 -1.5
      vertex 0 -46.7646 0.0779982
      vertex 0 -45.3042 0.452952
    endloop
  endfacet
  facet normal -1 0 0
    outer loop
      vertex 0 -3.33067e-016 -1.5
      vertex 0 -48.2456 -0.204519
      vertex 0 -46.7646 0.0779982
    endloop
  endfacet
  facet normal -1 0 0
    outer loop
      vertex 0 -55 -1.5
      vertex 0 -48.2456 -0.204519
      vertex 0 -3.33067e-016 -1.5
    endloop
  endfacet
  facet normal -1 0 0
    outer loop
      vertex 0 -48.2456 -0.204519
      vertex 0 -55 -1.5
      vertex 0 -49.7414 -0.393487
    endloop
  endfacet
  facet normal -1 0 0
    outer loop
      vertex 0 -49.7414 -0.393487
      vertex 0 -55 -1.5
      vertex 0 -51.2461 -0.488157
    endloop
  endfacet
  facet normal -1 -0 0
    outer loop
      vertex 0 -51.2461 -0.488157
      vertex 0 -55 -1.5
      vertex 0 -52.7539 -0.488157
    endloop
  endfacet
  facet normal -1 0 0
    outer loop
      vertex 0 -55 -1.5
      vertex 0 -54.2586 -0.393487
      vertex 0 -52.7539 -0.488157
    endloop
  endfacet
  facet normal -1 -0 0
    outer loop
      vertex 0 -54.2586 -0.393487
      vertex 0 -55 -1.5
      vertex 0 -55 -0.299826
    endloop
  endfacet
  facet normal -1 0 0
    outer loop
      vertex 0 -45 0.551797
      vertex 0 3.33067e-016 1.5
      vertex 0 -3.33067e-016 -1.5
    endloop
  endfacet
  facet normal -1 -0 0
    outer loop
      vertex 0 3.33067e-016 1.5
      vertex 0 -45 0.551797
      vertex 0 -45 1.5
    endloop
  endfacet
  facet normal 1 0 0
    outer loop
      vertex 33 -45 0.551797
      vertex 33 3.33067e-016 1.5
      vertex 33 -45 1.5
    endloop
  endfacet
  facet normal 1 0 0
    outer loop
      vertex 33 3.33067e-016 1.5
      vertex 33 -45 0.551797
      vertex 33 -3.33067e-016 -1.5
    endloop
  endfacet
  facet normal 1 -0 0
    outer loop
      vertex 33 -45.3042 0.452952
      vertex 33 -3.33067e-016 -1.5
      vertex 33 -45 0.551797
    endloop
  endfacet
  facet normal 1 -0 0
    outer loop
      vertex 33 -46.7646 0.0779982
      vertex 33 -3.33067e-016 -1.5
      vertex 33 -45.3042 0.452952
    endloop
  endfacet
  facet normal 1 -0 0
    outer loop
      vertex 33 -48.2456 -0.204519
      vertex 33 -3.33067e-016 -1.5
      vertex 33 -46.7646 0.0779982
    endloop
  endfacet
  facet normal 1 0 0
    outer loop
      vertex 33 -55 -1.5
      vertex 33 -48.2456 -0.204519
      vertex 33 -49.7414 -0.393487
    endloop
  endfacet
  facet normal 1 0 0
    outer loop
      vertex 33 -55 -1.5
      vertex 33 -49.7414 -0.393487
      vertex 33 -51.2461 -0.488157
    endloop
  endfacet
  facet normal 1 0 0
    outer loop
      vertex 33 -55 -1.5
      vertex 33 -51.2461 -0.488157
      vertex 33 -52.7539 -0.488157
    endloop
  endfacet
  facet normal 1 0 0
    outer loop
      vertex 33 -48.2456 -0.204519
      vertex 33 -55 -1.5
      vertex 33 -3.33067e-016 -1.5
    endloop
  endfacet
  facet normal 1 0 0
    outer loop
      vertex 33 -54.2586 -0.393487
      vertex 33 -55 -1.5
      vertex 33 -52.7539 -0.488157
    endloop
  endfacet
  facet normal 1 0 0
    outer loop
      vertex 33 -55 -1.5
      vertex 33 -54.2586 -0.393487
      vertex 33 -55 -0.299826
    endloop
  endfacet
  facet normal 0 1 -2.22045e-016
    outer loop
      vertex 33 -3.33067e-016 -1.5
      vertex 0 3.33067e-016 1.5
      vertex 33 3.33067e-016 1.5
    endloop
  endfacet
  facet normal 0 1 -2.22045e-016
    outer loop
      vertex 0 3.33067e-016 1.5
      vertex 33 -3.33067e-016 -1.5
      vertex 0 -3.33067e-016 -1.5
    endloop
  endfacet
  facet normal 0 0 -1
    outer loop
      vertex 0 -55 -1.5
      vertex 33 -3.33067e-016 -1.5
      vertex 33 -55 -1.5
    endloop
  endfacet
  facet normal -0 0 -1
    outer loop
      vertex 33 -3.33067e-016 -1.5
      vertex 0 -55 -1.5
      vertex 0 -3.33067e-016 -1.5
    endloop
  endfacet
  facet normal -0 0 1
    outer loop
      vertex 0 3.33067e-016 1.5
      vertex 33 -45 1.5
      vertex 33 3.33067e-016 1.5
    endloop
  endfacet
  facet normal 0 0 1
    outer loop
      vertex 33 -45 1.5
      vertex 0 3.33067e-016 1.5
      vertex 0 -45 1.5
    endloop
  endfacet
endsolid OpenSCAD_Model
