solid DoorSensorSupport
facet normal 8.109919105471671e-32 2.1133025198999893e-31 -1.0
  outer loop
    vertex 103.70154217750397 79.65541318845605 35.440458
    vertex 103.66712679849239 76.31430316330126 35.440458
    vertex 103.66712679849239 79.130335972005 35.440458
  endloop
endfacet
facet normal 8.109919105471671e-32 2.1133025198999893e-31 -1.0
  outer loop
    vertex 103.66712679849239 76.31430316330126 35.440458
    vertex 103.70154217750397 79.65541318845605 35.440458
    vertex 103.70272639331453 75.77115830501857 35.440458
  endloop
endfacet
facet normal 8.109919105471671e-32 2.1133025198999893e-31 -1.0
  outer loop
    vertex 103.70272639331453 75.77115830501857 35.440458
    vertex 103.70154217750397 79.65541318845605 35.440458
    vertex 103.80419945786211 80.17150618815472 35.440458
  endloop
endfacet
facet normal 8.109919105471671e-32 2.1133025198999893e-31 -1.0
  outer loop
    vertex 103.70272639331453 75.77115830501857 35.440458
    vertex 103.80419945786211 80.17150618815472 35.440458
    vertex 103.80891605884348 75.2373068058493 35.440458
  endloop
endfacet
facet normal 8.109919105471671e-32 2.1133025198999893e-31 -1.0
  outer loop
    vertex 103.80891605884348 75.2373068058493 35.440458
    vertex 103.80419945786211 80.17150618815472 35.440458
    vertex 103.97334214503788 80.66978447678815 35.440458
  endloop
endfacet
facet normal 8.109919105471671e-32 2.1133025198999893e-31 -1.0
  outer loop
    vertex 103.80891605884348 75.2373068058493 35.440458
    vertex 103.97334214503788 80.66978447678815 35.440458
    vertex 103.98387886046065 74.72188301295584 35.440458
  endloop
endfacet
facet normal 8.109919105471671e-32 2.1133025198999893e-31 -1.0
  outer loop
    vertex 103.98387886046065 74.72188301295584 35.440458
    vertex 103.97334214503788 80.66978447678815 35.440458
    vertex 104.20607616075849 81.14172237468897 35.440458
  endloop
endfacet
facet normal 8.109919105471671e-32 2.1133025198999893e-31 -1.0
  outer loop
    vertex 103.98387886046065 74.72188301295584 35.440458
    vertex 104.20607616075849 81.14172237468897 35.440458
    vertex 104.22462113612161 74.23370597033708 35.440458
  endloop
endfacet
facet normal 8.109919105471671e-32 2.1133025198999893e-31 -1.0
  outer loop
    vertex 104.22462113612161 74.23370597033708 35.440458
    vertex 104.20607616075849 81.14172237468897 35.440458
    vertex 104.49841936148891 81.5792448935782 35.440458
  endloop
endfacet
facet normal 8.109919105471671e-32 2.1133025198999893e-31 -1.0
  outer loop
    vertex 104.22462113612161 74.23370597033708 35.440458
    vertex 104.49841936148891 81.5792448935782 35.440458
    vertex 104.52702371874335 73.78112852254044 35.440458
  endloop
endfacet
facet normal 8.109919105471671e-32 2.1133025198999893e-31 -1.0
  outer loop
    vertex 104.52702371874335 73.78112852254044 35.440458
    vertex 104.49841936148891 81.5792448935782 35.440458
    vertex 104.84536967401182 81.97486590185349 35.440458
  endloop
endfacet
facet normal 8.109919105471671e-32 2.1133025198999893e-31 -1.0
  outer loop
    vertex 104.52702371874335 73.78112852254044 35.440458
    vertex 104.84536967401182 81.97486590185349 35.440458
    vertex 104.88591241629541 73.37189439517593 35.440458
  endloop
endfacet
facet normal 8.109919105471671e-32 2.1133025198999893e-31 -1.0
  outer loop
    vertex 104.88591241629541 73.37189439517593 35.440458
    vertex 104.84536967401182 81.97486590185349 35.440458
    vertex 105.2409906822871 82.3218162143764 35.440458
  endloop
endfacet
facet normal 8.109919105471671e-32 2.1133025198999893e-31 -1.0
  outer loop
    vertex 104.88591241629541 73.37189439517593 35.440458
    vertex 105.2409906822871 82.3218162143764 35.440458
    vertex 105.29514654365994 73.01300569762387 35.440458
  endloop
endfacet
facet normal 8.109919105471671e-32 2.1133025198999893e-31 -1.0
  outer loop
    vertex 105.29514654365994 73.01300569762387 35.440458
    vertex 105.2409906822871 82.3218162143764 35.440458
    vertex 105.67851320117634 82.61415941510683 35.440458
  endloop
endfacet
facet normal 8.109919105471671e-32 2.1133025198999893e-31 -1.0
  outer loop
    vertex 105.29514654365994 73.01300569762387 35.440458
    vertex 105.67851320117634 82.61415941510683 35.440458
    vertex 105.74772399145655 72.71060311500212 35.440458
  endloop
endfacet
facet normal 8.109919105471671e-32 2.1133025198999893e-31 -1.0
  outer loop
    vertex 105.74772399145655 72.71060311500212 35.440458
    vertex 105.67851320117634 82.61415941510683 35.440458
    vertex 106.15045109907719 82.84689343082744 35.440458
  endloop
endfacet
facet normal 8.109919105471671e-32 2.1133025198999893e-31 -1.0
  outer loop
    vertex 105.74772399145655 72.71060311500212 35.440458
    vertex 106.15045109907719 82.84689343082744 35.440458
    vertex 106.23590103407534 72.46986083934118 35.440458
  endloop
endfacet
facet normal 8.109919105471671e-32 2.1133025198999893e-31 -1.0
  outer loop
    vertex 106.23590103407534 72.46986083934118 35.440458
    vertex 106.15045109907719 82.84689343082744 35.440458
    vertex 106.6487293877106 83.01603611800321 35.440458
  endloop
endfacet
facet normal 8.109919105471671e-32 2.1133025198999893e-31 -1.0
  outer loop
    vertex 106.23590103407534 72.46986083934118 35.440458
    vertex 106.6487293877106 83.01603611800321 35.440458
    vertex 106.75132482696881 72.29489803772398 35.440458
  endloop
endfacet
facet normal 8.109919105471671e-32 2.1133025198999893e-31 -1.0
  outer loop
    vertex 106.75132482696881 72.29489803772398 35.440458
    vertex 106.6487293877106 83.01603611800321 35.440458
    vertex 107.16482238740926 83.11869339836133 35.440458
  endloop
endfacet
facet normal 8.109919105471671e-32 2.1133025198999893e-31 -1.0
  outer loop
    vertex 106.75132482696881 72.29489803772398 35.440458
    vertex 107.16482238740926 83.11869339836133 35.440458
    vertex 107.28517632613807 72.18870837219505 35.440458
  endloop
endfacet
facet normal 8.109919105471671e-32 2.1133025198999893e-31 -1.0
  outer loop
    vertex 107.28517632613807 72.18870837219505 35.440458
    vertex 107.16482238740926 83.11869339836133 35.440458
    vertex 107.68989960386031 83.15310877737292 35.440458
  endloop
endfacet
facet normal 8.109919105471671e-32 2.1133025198999893e-31 -1.0
  outer loop
    vertex 107.28517632613807 72.18870837219505 35.440458
    vertex 107.68989960386031 83.15310877737292 35.440458
    vertex 107.82832118442074 72.15310877737292 35.440458
  endloop
endfacet
facet normal 8.109919105471671e-32 2.1133025198999893e-31 -1.0
  outer loop
    vertex 107.82832118442074 72.15310877737292 35.440458
    vertex 107.68989960386031 83.15310877737292 35.440458
    vertex 135.5548525317725 83.15310877737292 35.440458
  endloop
endfacet
facet normal 8.109919105471671e-32 2.1133025198999893e-31 -1.0
  outer loop
    vertex 107.82832118442074 72.15310877737292 35.440458
    vertex 135.5548525317725 83.15310877737292 35.440458
    vertex 135.7658090400262 72.15310877737292 35.440458
  endloop
endfacet
facet normal 8.109919105471671e-32 2.1133025198999893e-31 -1.0
  outer loop
    vertex 135.7658090400262 72.15310877737292 35.440458
    vertex 135.5548525317725 83.15310877737292 35.440458
    vertex 136.09161203317194 83.11792770095222 35.440458
  endloop
endfacet
facet normal 8.109919105471671e-32 2.1133025198999893e-31 -1.0
  outer loop
    vertex 135.7658090400262 72.15310877737292 35.440458
    vertex 136.09161203317194 83.11792770095222 35.440458
    vertex 136.27503319167926 72.1864850916214 35.440458
  endloop
endfacet
facet normal 8.109919105471671e-32 2.1133025198999893e-31 -1.0
  outer loop
    vertex 136.27503319167926 72.1864850916214 35.440458
    vertex 136.09161203317194 83.11792770095222 35.440458
    vertex 136.6191874306846 83.01298642966171 35.440458
  endloop
endfacet
facet normal 8.109919105471671e-32 2.1133025198999893e-31 -1.0
  outer loop
    vertex 136.27503319167926 72.1864850916214 35.440458
    vertex 136.6191874306846 83.01298642966171 35.440458
    vertex 136.77554437691393 72.28604295637643 35.440458
  endloop
endfacet
facet normal 8.109919105471671e-32 2.1133025198999893e-31 -1.0
  outer loop
    vertex 136.77554437691393 72.28604295637643 35.440458
    vertex 136.6191874306846 83.01298642966171 35.440458
    vertex 137.12855176298748 82.84008053774839 35.440458
  endloop
endfacet
facet normal 8.109919105471671e-32 2.1133025198999893e-31 -1.0
  outer loop
    vertex 136.77554437691393 72.28604295637643 35.440458
    vertex 137.12855176298748 82.84008053774839 35.440458
    vertex 137.2587787105829 72.45007890896937 35.440458
  endloop
endfacet
facet normal 8.109919105471671e-32 2.1133025198999893e-31 -1.0
  outer loop
    vertex 137.2587787105829 72.45007890896937 35.440458
    vertex 137.12855176298748 82.84008053774839 35.440458
    vertex 137.61098966513245 82.60216849296147 35.440458
  endloop
endfacet
facet normal 8.109919105471671e-32 2.1133025198999893e-31 -1.0
  outer loop
    vertex 137.2587787105829 72.45007890896937 35.440458
    vertex 137.61098966513245 82.60216849296147 35.440458
    vertex 137.7164679192593 72.67578624877201 35.440458
  endloop
endfacet
facet normal 8.109919105471671e-32 2.1133025198999893e-31 -1.0
  outer loop
    vertex 137.7164679192593 72.67578624877201 35.440458
    vertex 137.61098966513245 82.60216849296147 35.440458
    vertex 138.05824649085667 82.30332103634895 35.440458
  endloop
endfacet
facet normal 8.109919105471671e-32 2.1133025198999893e-31 -1.0
  outer loop
    vertex 137.7164679192593 72.67578624877201 35.440458
    vertex 138.05824649085667 82.30332103634895 35.440458
    vertex 138.14078081368717 72.95930306062245 35.440458
  endloop
endfacet
facet normal 8.109919105471671e-32 2.1133025198999893e-31 -1.0
  outer loop
    vertex 138.14078081368717 72.95930306062245 35.440458
    vertex 138.05824649085667 82.30332103634895 35.440458
    vertex 138.46266955186908 81.94865153074959 35.440458
  endloop
endfacet
facet normal 8.109919105471671e-32 2.1133025198999893e-31 -1.0
  outer loop
    vertex 138.14078081368717 72.95930306062245 35.440458
    vertex 138.46266955186908 81.94865153074959 35.440458
    vertex 138.52445728260113 73.29577829326415 35.440458
  endloop
endfacet
facet normal 8.109919105471671e-32 2.1133025198999893e-31 -1.0
  outer loop
    vertex 138.52445728260113 73.29577829326415 35.440458
    vertex 138.46266955186908 81.94865153074959 35.440458
    vertex 138.81733905746842 81.5442284697372 35.440458
  endloop
endfacet
facet normal 8.109919105471671e-32 2.1133025198999893e-31 -1.0
  outer loop
    vertex 138.52445728260113 73.29577829326415 35.440458
    vertex 138.81733905746842 81.5442284697372 35.440458
    vertex 138.86093251524287 73.67945476217812 35.440458
  endloop
endfacet
facet normal 8.109919105471671e-32 2.1133025198999893e-31 -1.0
  outer loop
    vertex 138.86093251524287 73.67945476217812 35.440458
    vertex 138.81733905746842 81.5442284697372 35.440458
    vertex 139.11618651408097 81.09697164401297 35.440458
  endloop
endfacet
facet normal 8.109919105471671e-32 2.1133025198999893e-31 -1.0
  outer loop
    vertex 138.86093251524287 73.67945476217812 35.440458
    vertex 139.11618651408097 81.09697164401297 35.440458
    vertex 139.14444932709327 74.10376765660601 35.440458
  endloop
endfacet
facet normal 8.109919105471671e-32 2.1133025198999893e-31 -1.0
  outer loop
    vertex 139.14444932709327 74.10376765660601 35.440458
    vertex 139.11618651408097 81.09697164401297 35.440458
    vertex 139.3540985588679 80.61453374186802 35.440458
  endloop
endfacet
facet normal 8.109919105471671e-32 2.1133025198999893e-31 -1.0
  outer loop
    vertex 139.14444932709327 74.10376765660601 35.440458
    vertex 139.3540985588679 80.61453374186802 35.440458
    vertex 139.37015666689592 74.56145686528238 35.440458
  endloop
endfacet
facet normal 8.109919105471671e-32 2.1133025198999893e-31 -1.0
  outer loop
    vertex 139.37015666689592 74.56145686528238 35.440458
    vertex 139.3540985588679 80.61453374186802 35.440458
    vertex 139.52700445078116 80.10516940956512 35.440458
  endloop
endfacet
facet normal 8.109919105471671e-32 2.1133025198999893e-31 -1.0
  outer loop
    vertex 139.37015666689592 74.56145686528238 35.440458
    vertex 139.52700445078116 80.10516940956512 35.440458
    vertex 139.53419261948886 75.04469119895138 35.440458
  endloop
endfacet
facet normal 8.109919105471671e-32 2.1133025198999893e-31 -1.0
  outer loop
    vertex 139.53419261948886 75.04469119895138 35.440458
    vertex 139.52700445078116 80.10516940956512 35.440458
    vertex 139.6319457220717 79.57759401205246 35.440458
  endloop
endfacet
facet normal 8.109919105471671e-32 2.1133025198999893e-31 -1.0
  outer loop
    vertex 139.53419261948886 75.04469119895138 35.440458
    vertex 139.6319457220717 79.57759401205246 35.440458
    vertex 139.63375048424388 75.54520238418606 35.440458
  endloop
endfacet
facet normal 8.109919105471671e-32 2.1133025198999893e-31 -1.0
  outer loop
    vertex 139.63375048424388 75.54520238418606 35.440458
    vertex 139.6319457220717 79.57759401205246 35.440458
    vertex 139.6671267984924 79.04083451065301 35.440458
  endloop
endfacet
facet normal 8.109919105471671e-32 2.1133025198999893e-31 -1.0
  outer loop
    vertex 139.63375048424388 75.54520238418606 35.440458
    vertex 139.6671267984924 79.04083451065301 35.440458
    vertex 139.6671267984924 76.0544265358391 35.440458
  endloop
endfacet
facet normal 5.819110007751707e-32 1.665892179673756e-30 1.0
  outer loop
    vertex 103.70272639331453 75.77115830501857 51.440458
    vertex 103.66712679849239 79.130335972005 51.440458
    vertex 103.66712679849239 76.31430316330126 51.440458
  endloop
endfacet
facet normal 5.819110007751707e-32 1.665892179673756e-30 1.0
  outer loop
    vertex 103.66712679849239 79.130335972005 51.440458
    vertex 103.70272639331453 75.77115830501857 51.440458
    vertex 103.70154217750397 79.65541318845605 51.440458
  endloop
endfacet
facet normal 5.819110007751707e-32 1.665892179673756e-30 1.0
  outer loop
    vertex 103.70154217750397 79.65541318845605 51.440458
    vertex 103.70272639331453 75.77115830501857 51.440458
    vertex 103.80419945786211 80.17150618815472 51.440458
  endloop
endfacet
facet normal 5.819110007751707e-32 1.665892179673756e-30 1.0
  outer loop
    vertex 103.80419945786211 80.17150618815472 51.440458
    vertex 103.70272639331453 75.77115830501857 51.440458
    vertex 103.80891605884348 75.2373068058493 51.440458
  endloop
endfacet
facet normal 5.819110007751707e-32 1.665892179673756e-30 1.0
  outer loop
    vertex 103.80419945786211 80.17150618815472 51.440458
    vertex 103.80891605884348 75.2373068058493 51.440458
    vertex 103.97334214503788 80.66978447678815 51.440458
  endloop
endfacet
facet normal 5.819110007751707e-32 1.665892179673756e-30 1.0
  outer loop
    vertex 103.97334214503788 80.66978447678815 51.440458
    vertex 103.80891605884348 75.2373068058493 51.440458
    vertex 103.98387886046065 74.72188301295584 51.440458
  endloop
endfacet
facet normal 5.819110007751707e-32 1.665892179673756e-30 1.0
  outer loop
    vertex 103.97334214503788 80.66978447678815 51.440458
    vertex 103.98387886046065 74.72188301295584 51.440458
    vertex 104.20607616075849 81.14172237468897 51.440458
  endloop
endfacet
facet normal 5.819110007751707e-32 1.665892179673756e-30 1.0
  outer loop
    vertex 104.20607616075849 81.14172237468897 51.440458
    vertex 103.98387886046065 74.72188301295584 51.440458
    vertex 104.22462113612161 74.23370597033708 51.440458
  endloop
endfacet
facet normal 5.819110007751707e-32 1.665892179673756e-30 1.0
  outer loop
    vertex 104.20607616075849 81.14172237468897 51.440458
    vertex 104.22462113612161 74.23370597033708 51.440458
    vertex 104.49841936148891 81.5792448935782 51.440458
  endloop
endfacet
facet normal 5.819110007751707e-32 1.665892179673756e-30 1.0
  outer loop
    vertex 104.49841936148891 81.5792448935782 51.440458
    vertex 104.22462113612161 74.23370597033708 51.440458
    vertex 104.52702371874335 73.78112852254044 51.440458
  endloop
endfacet
facet normal 5.819110007751707e-32 1.665892179673756e-30 1.0
  outer loop
    vertex 104.49841936148891 81.5792448935782 51.440458
    vertex 104.52702371874335 73.78112852254044 51.440458
    vertex 104.84536967401182 81.97486590185349 51.440458
  endloop
endfacet
facet normal 5.819110007751707e-32 1.665892179673756e-30 1.0
  outer loop
    vertex 104.84536967401182 81.97486590185349 51.440458
    vertex 104.52702371874335 73.78112852254044 51.440458
    vertex 104.88591241629541 73.37189439517593 51.440458
  endloop
endfacet
facet normal 5.819110007751707e-32 1.665892179673756e-30 1.0
  outer loop
    vertex 104.84536967401182 81.97486590185349 51.440458
    vertex 104.88591241629541 73.37189439517593 51.440458
    vertex 105.2409906822871 82.3218162143764 51.440458
  endloop
endfacet
facet normal 5.819110007751707e-32 1.665892179673756e-30 1.0
  outer loop
    vertex 105.2409906822871 82.3218162143764 51.440458
    vertex 104.88591241629541 73.37189439517593 51.440458
    vertex 105.29514654365994 73.01300569762387 51.440458
  endloop
endfacet
facet normal 5.819110007751707e-32 1.665892179673756e-30 1.0
  outer loop
    vertex 105.2409906822871 82.3218162143764 51.440458
    vertex 105.29514654365994 73.01300569762387 51.440458
    vertex 105.67851320117634 82.61415941510683 51.440458
  endloop
endfacet
facet normal 5.819110007751707e-32 1.665892179673756e-30 1.0
  outer loop
    vertex 105.67851320117634 82.61415941510683 51.440458
    vertex 105.29514654365994 73.01300569762387 51.440458
    vertex 105.74772399145655 72.71060311500212 51.440458
  endloop
endfacet
facet normal 5.819110007751707e-32 1.665892179673756e-30 1.0
  outer loop
    vertex 105.67851320117634 82.61415941510683 51.440458
    vertex 105.74772399145655 72.71060311500212 51.440458
    vertex 106.15045109907719 82.84689343082744 51.440458
  endloop
endfacet
facet normal 5.819110007751707e-32 1.665892179673756e-30 1.0
  outer loop
    vertex 106.15045109907719 82.84689343082744 51.440458
    vertex 105.74772399145655 72.71060311500212 51.440458
    vertex 106.23590103407534 72.46986083934118 51.440458
  endloop
endfacet
facet normal 5.819110007751707e-32 1.665892179673756e-30 1.0
  outer loop
    vertex 106.15045109907719 82.84689343082744 51.440458
    vertex 106.23590103407534 72.46986083934118 51.440458
    vertex 106.6487293877106 83.01603611800321 51.440458
  endloop
endfacet
facet normal 5.819110007751707e-32 1.665892179673756e-30 1.0
  outer loop
    vertex 106.6487293877106 83.01603611800321 51.440458
    vertex 106.23590103407534 72.46986083934118 51.440458
    vertex 106.75132482696881 72.29489803772398 51.440458
  endloop
endfacet
facet normal 5.819110007751707e-32 1.665892179673756e-30 1.0
  outer loop
    vertex 106.6487293877106 83.01603611800321 51.440458
    vertex 106.75132482696881 72.29489803772398 51.440458
    vertex 107.16482238740926 83.11869339836133 51.440458
  endloop
endfacet
facet normal 5.819110007751707e-32 1.665892179673756e-30 1.0
  outer loop
    vertex 107.16482238740926 83.11869339836133 51.440458
    vertex 106.75132482696881 72.29489803772398 51.440458
    vertex 107.28517632613807 72.18870837219505 51.440458
  endloop
endfacet
facet normal 5.819110007751707e-32 1.665892179673756e-30 1.0
  outer loop
    vertex 107.16482238740926 83.11869339836133 51.440458
    vertex 107.28517632613807 72.18870837219505 51.440458
    vertex 107.68989960386031 83.15310877737292 51.440458
  endloop
endfacet
facet normal 5.819110007751707e-32 1.665892179673756e-30 1.0
  outer loop
    vertex 107.68989960386031 83.15310877737292 51.440458
    vertex 107.28517632613807 72.18870837219505 51.440458
    vertex 107.82832118442074 72.15310877737292 51.440458
  endloop
endfacet
facet normal 5.819110007751707e-32 1.665892179673756e-30 1.0
  outer loop
    vertex 107.68989960386031 83.15310877737292 51.440458
    vertex 107.82832118442074 72.15310877737292 51.440458
    vertex 135.5548525317725 83.15310877737292 51.440458
  endloop
endfacet
facet normal 5.819110007751707e-32 1.665892179673756e-30 1.0
  outer loop
    vertex 135.5548525317725 83.15310877737292 51.440458
    vertex 107.82832118442074 72.15310877737292 51.440458
    vertex 135.7658090400262 72.15310877737292 51.440458
  endloop
endfacet
facet normal 5.819110007751707e-32 1.665892179673756e-30 1.0
  outer loop
    vertex 135.5548525317725 83.15310877737292 51.440458
    vertex 135.7658090400262 72.15310877737292 51.440458
    vertex 136.09161203317194 83.11792770095222 51.440458
  endloop
endfacet
facet normal 5.819110007751707e-32 1.665892179673756e-30 1.0
  outer loop
    vertex 136.09161203317194 83.11792770095222 51.440458
    vertex 135.7658090400262 72.15310877737292 51.440458
    vertex 136.27503319167926 72.1864850916214 51.440458
  endloop
endfacet
facet normal 5.819110007751707e-32 1.665892179673756e-30 1.0
  outer loop
    vertex 136.09161203317194 83.11792770095222 51.440458
    vertex 136.27503319167926 72.1864850916214 51.440458
    vertex 136.6191874306846 83.01298642966171 51.440458
  endloop
endfacet
facet normal 5.819110007751707e-32 1.665892179673756e-30 1.0
  outer loop
    vertex 136.6191874306846 83.01298642966171 51.440458
    vertex 136.27503319167926 72.1864850916214 51.440458
    vertex 136.77554437691393 72.28604295637643 51.440458
  endloop
endfacet
facet normal 5.819110007751707e-32 1.665892179673756e-30 1.0
  outer loop
    vertex 136.6191874306846 83.01298642966171 51.440458
    vertex 136.77554437691393 72.28604295637643 51.440458
    vertex 137.12855176298748 82.84008053774839 51.440458
  endloop
endfacet
facet normal 5.819110007751707e-32 1.665892179673756e-30 1.0
  outer loop
    vertex 137.12855176298748 82.84008053774839 51.440458
    vertex 136.77554437691393 72.28604295637643 51.440458
    vertex 137.2587787105829 72.45007890896937 51.440458
  endloop
endfacet
facet normal 5.819110007751707e-32 1.665892179673756e-30 1.0
  outer loop
    vertex 137.12855176298748 82.84008053774839 51.440458
    vertex 137.2587787105829 72.45007890896937 51.440458
    vertex 137.61098966513245 82.60216849296147 51.440458
  endloop
endfacet
facet normal 5.819110007751707e-32 1.665892179673756e-30 1.0
  outer loop
    vertex 137.61098966513245 82.60216849296147 51.440458
    vertex 137.2587787105829 72.45007890896937 51.440458
    vertex 137.7164679192593 72.67578624877201 51.440458
  endloop
endfacet
facet normal 5.819110007751707e-32 1.665892179673756e-30 1.0
  outer loop
    vertex 137.61098966513245 82.60216849296147 51.440458
    vertex 137.7164679192593 72.67578624877201 51.440458
    vertex 138.05824649085667 82.30332103634895 51.440458
  endloop
endfacet
facet normal 5.819110007751707e-32 1.665892179673756e-30 1.0
  outer loop
    vertex 138.05824649085667 82.30332103634895 51.440458
    vertex 137.7164679192593 72.67578624877201 51.440458
    vertex 138.14078081368717 72.95930306062245 51.440458
  endloop
endfacet
facet normal 5.819110007751707e-32 1.665892179673756e-30 1.0
  outer loop
    vertex 138.05824649085667 82.30332103634895 51.440458
    vertex 138.14078081368717 72.95930306062245 51.440458
    vertex 138.46266955186908 81.94865153074959 51.440458
  endloop
endfacet
facet normal 5.819110007751707e-32 1.665892179673756e-30 1.0
  outer loop
    vertex 138.46266955186908 81.94865153074959 51.440458
    vertex 138.14078081368717 72.95930306062245 51.440458
    vertex 138.52445728260113 73.29577829326415 51.440458
  endloop
endfacet
facet normal 5.819110007751707e-32 1.665892179673756e-30 1.0
  outer loop
    vertex 138.46266955186908 81.94865153074959 51.440458
    vertex 138.52445728260113 73.29577829326415 51.440458
    vertex 138.81733905746842 81.5442284697372 51.440458
  endloop
endfacet
facet normal 5.819110007751707e-32 1.665892179673756e-30 1.0
  outer loop
    vertex 138.81733905746842 81.5442284697372 51.440458
    vertex 138.52445728260113 73.29577829326415 51.440458
    vertex 138.86093251524287 73.67945476217812 51.440458
  endloop
endfacet
facet normal 5.819110007751707e-32 1.665892179673756e-30 1.0
  outer loop
    vertex 138.81733905746842 81.5442284697372 51.440458
    vertex 138.86093251524287 73.67945476217812 51.440458
    vertex 139.11618651408097 81.09697164401297 51.440458
  endloop
endfacet
facet normal 5.819110007751707e-32 1.665892179673756e-30 1.0
  outer loop
    vertex 139.11618651408097 81.09697164401297 51.440458
    vertex 138.86093251524287 73.67945476217812 51.440458
    vertex 139.14444932709327 74.10376765660601 51.440458
  endloop
endfacet
facet normal 5.819110007751707e-32 1.665892179673756e-30 1.0
  outer loop
    vertex 139.11618651408097 81.09697164401297 51.440458
    vertex 139.14444932709327 74.10376765660601 51.440458
    vertex 139.3540985588679 80.61453374186802 51.440458
  endloop
endfacet
facet normal 5.819110007751707e-32 1.665892179673756e-30 1.0
  outer loop
    vertex 139.3540985588679 80.61453374186802 51.440458
    vertex 139.14444932709327 74.10376765660601 51.440458
    vertex 139.37015666689592 74.56145686528238 51.440458
  endloop
endfacet
facet normal 5.819110007751707e-32 1.665892179673756e-30 1.0
  outer loop
    vertex 139.3540985588679 80.61453374186802 51.440458
    vertex 139.37015666689592 74.56145686528238 51.440458
    vertex 139.52700445078116 80.10516940956512 51.440458
  endloop
endfacet
facet normal 5.819110007751707e-32 1.665892179673756e-30 1.0
  outer loop
    vertex 139.52700445078116 80.10516940956512 51.440458
    vertex 139.37015666689592 74.56145686528238 51.440458
    vertex 139.53419261948886 75.04469119895138 51.440458
  endloop
endfacet
facet normal 5.819110007751707e-32 1.665892179673756e-30 1.0
  outer loop
    vertex 139.52700445078116 80.10516940956512 51.440458
    vertex 139.53419261948886 75.04469119895138 51.440458
    vertex 139.6319457220717 79.57759401205246 51.440458
  endloop
endfacet
facet normal 5.819110007751707e-32 1.665892179673756e-30 1.0
  outer loop
    vertex 139.6319457220717 79.57759401205246 51.440458
    vertex 139.53419261948886 75.04469119895138 51.440458
    vertex 139.63375048424388 75.54520238418606 51.440458
  endloop
endfacet
facet normal 5.819110007751707e-32 1.665892179673756e-30 1.0
  outer loop
    vertex 139.6319457220717 79.57759401205246 51.440458
    vertex 139.63375048424388 75.54520238418606 51.440458
    vertex 139.6671267984924 79.04083451065301 51.440458
  endloop
endfacet
facet normal 5.819110007751707e-32 1.665892179673756e-30 1.0
  outer loop
    vertex 139.6671267984924 79.04083451065301 51.440458
    vertex 139.63375048424388 75.54520238418606 51.440458
    vertex 139.6671267984924 76.0544265358391 51.440458
  endloop
endfacet
facet normal -0.9978589232386038 -0.06540312923013993 0.0
  outer loop
    vertex 103.66712679849239 76.31430316330126 51.440458
    vertex 103.70272639331453 75.77115830501857 35.440458
    vertex 103.70272639331453 75.77115830501857 51.440458
  endloop
endfacet
facet normal -0.9978589232386038 -0.06540312923013993 0.0
  outer loop
    vertex 103.70272639331453 75.77115830501857 35.440458
    vertex 103.66712679849239 76.31430316330126 51.440458
    vertex 103.66712679849239 76.31430316330126 35.440458
  endloop
endfacet
facet normal -1.0 0.0 0.0
  outer loop
    vertex 103.66712679849239 79.130335972005 51.440458
    vertex 103.66712679849239 76.31430316330126 35.440458
    vertex 103.66712679849239 76.31430316330126 51.440458
  endloop
endfacet
facet normal -1.0 0.0 0.0
  outer loop
    vertex 103.66712679849239 76.31430316330126 35.440458
    vertex 103.66712679849239 79.130335972005 51.440458
    vertex 103.66712679849239 79.130335972005 35.440458
  endloop
endfacet
facet normal -0.9978589232386049 0.0654031292301215 0.0
  outer loop
    vertex 103.70154217750397 79.65541318845605 51.440458
    vertex 103.66712679849239 79.130335972005 35.440458
    vertex 103.66712679849239 79.130335972005 51.440458
  endloop
endfacet
facet normal -0.9978589232386049 0.0654031292301215 0.0
  outer loop
    vertex 103.66712679849239 79.130335972005 35.440458
    vertex 103.70154217750397 79.65541318845605 51.440458
    vertex 103.70154217750397 79.65541318845605 35.440458
  endloop
endfacet
facet normal -0.980785280403226 0.19509032201615092 0.0
  outer loop
    vertex 103.80419945786211 80.17150618815472 51.440458
    vertex 103.70154217750397 79.65541318845605 35.440458
    vertex 103.70154217750397 79.65541318845605 51.440458
  endloop
endfacet
facet normal -0.980785280403226 0.19509032201615092 0.0
  outer loop
    vertex 103.70154217750397 79.65541318845605 35.440458
    vertex 103.80419945786211 80.17150618815472 51.440458
    vertex 103.80419945786211 80.17150618815472 35.440458
  endloop
endfacet
facet normal -0.946930129495109 0.32143946530315165 0.0
  outer loop
    vertex 103.97334214503788 80.66978447678815 51.440458
    vertex 103.80419945786211 80.17150618815472 35.440458
    vertex 103.80419945786211 80.17150618815472 51.440458
  endloop
endfacet
facet normal -0.946930129495109 0.32143946530315165 0.0
  outer loop
    vertex 103.80419945786211 80.17150618815472 35.440458
    vertex 103.97334214503788 80.66978447678815 51.440458
    vertex 103.97334214503788 80.66978447678815 35.440458
  endloop
endfacet
facet normal -0.8968727415326975 0.44228869021898287 0.0
  outer loop
    vertex 104.20607616075849 81.14172237468897 51.440458
    vertex 103.97334214503788 80.66978447678815 35.440458
    vertex 103.97334214503788 80.66978447678815 51.440458
  endloop
endfacet
facet normal -0.8968727415326975 0.44228869021898287 0.0
  outer loop
    vertex 103.97334214503788 80.66978447678815 35.440458
    vertex 104.20607616075849 81.14172237468897 51.440458
    vertex 104.20607616075849 81.14172237468897 35.440458
  endloop
endfacet
facet normal -0.8314696123025466 0.5555702330196006 0.0
  outer loop
    vertex 104.49841936148891 81.5792448935782 51.440458
    vertex 104.20607616075849 81.14172237468897 35.440458
    vertex 104.20607616075849 81.14172237468897 51.440458
  endloop
endfacet
facet normal -0.8314696123025466 0.5555702330196006 0.0
  outer loop
    vertex 104.20607616075849 81.14172237468897 35.440458
    vertex 104.49841936148891 81.5792448935782 51.440458
    vertex 104.49841936148891 81.5792448935782 35.440458
  endloop
endfacet
facet normal -0.7518398074789596 0.6593458151000892 0.0
  outer loop
    vertex 104.84536967401182 81.97486590185349 51.440458
    vertex 104.49841936148891 81.5792448935782 35.440458
    vertex 104.49841936148891 81.5792448935782 51.440458
  endloop
endfacet
facet normal -0.7518398074789596 0.6593458151000892 0.0
  outer loop
    vertex 104.49841936148891 81.5792448935782 35.440458
    vertex 104.84536967401182 81.97486590185349 51.440458
    vertex 104.84536967401182 81.97486590185349 35.440458
  endloop
endfacet
facet normal -0.6593458151000877 0.7518398074789611 -0.0
  outer loop
    vertex 104.84536967401182 81.97486590185349 51.440458
    vertex 105.2409906822871 82.3218162143764 35.440458
    vertex 104.84536967401182 81.97486590185349 35.440458
  endloop
endfacet
facet normal -0.6593458151000877 0.7518398074789611 -0.0
  outer loop
    vertex 105.2409906822871 82.3218162143764 35.440458
    vertex 104.84536967401182 81.97486590185349 51.440458
    vertex 105.2409906822871 82.3218162143764 51.440458
  endloop
endfacet
facet normal -0.5555702330196006 0.8314696123025466 -0.0
  outer loop
    vertex 105.2409906822871 82.3218162143764 51.440458
    vertex 105.67851320117634 82.61415941510683 35.440458
    vertex 105.2409906822871 82.3218162143764 35.440458
  endloop
endfacet
facet normal -0.5555702330196006 0.8314696123025466 -0.0
  outer loop
    vertex 105.67851320117634 82.61415941510683 35.440458
    vertex 105.2409906822871 82.3218162143764 51.440458
    vertex 105.67851320117634 82.61415941510683 51.440458
  endloop
endfacet
facet normal -0.4422886902189832 0.8968727415326975 -0.0
  outer loop
    vertex 105.67851320117634 82.61415941510683 51.440458
    vertex 106.15045109907719 82.84689343082744 35.440458
    vertex 105.67851320117634 82.61415941510683 35.440458
  endloop
endfacet
facet normal -0.4422886902189832 0.8968727415326975 -0.0
  outer loop
    vertex 106.15045109907719 82.84689343082744 35.440458
    vertex 105.67851320117634 82.61415941510683 51.440458
    vertex 106.15045109907719 82.84689343082744 51.440458
  endloop
endfacet
facet normal -0.32143946530315826 0.9469301294951068 -0.0
  outer loop
    vertex 106.15045109907719 82.84689343082744 51.440458
    vertex 106.6487293877106 83.01603611800321 35.440458
    vertex 106.15045109907719 82.84689343082744 35.440458
  endloop
endfacet
facet normal -0.32143946530315826 0.9469301294951068 -0.0
  outer loop
    vertex 106.6487293877106 83.01603611800321 35.440458
    vertex 106.15045109907719 82.84689343082744 51.440458
    vertex 106.6487293877106 83.01603611800321 51.440458
  endloop
endfacet
facet normal -0.19509032201611387 0.9807852804032334 -0.0
  outer loop
    vertex 106.6487293877106 83.01603611800321 51.440458
    vertex 107.16482238740926 83.11869339836133 35.440458
    vertex 106.6487293877106 83.01603611800321 35.440458
  endloop
endfacet
facet normal -0.19509032201611387 0.9807852804032334 -0.0
  outer loop
    vertex 107.16482238740926 83.11869339836133 35.440458
    vertex 106.6487293877106 83.01603611800321 51.440458
    vertex 107.16482238740926 83.11869339836133 51.440458
  endloop
endfacet
facet normal -0.06540312923014144 0.9978589232386038 -0.0
  outer loop
    vertex 107.16482238740926 83.11869339836133 51.440458
    vertex 107.68989960386031 83.15310877737292 35.440458
    vertex 107.16482238740926 83.11869339836133 35.440458
  endloop
endfacet
facet normal -0.06540312923014144 0.9978589232386038 -0.0
  outer loop
    vertex 107.68989960386031 83.15310877737292 35.440458
    vertex 107.16482238740926 83.11869339836133 51.440458
    vertex 107.68989960386031 83.15310877737292 51.440458
  endloop
endfacet
facet normal -0.0 1.0 -0.0
  outer loop
    vertex 107.68989960386031 83.15310877737292 51.440458
    vertex 135.5548525317725 83.15310877737292 35.440458
    vertex 107.68989960386031 83.15310877737292 35.440458
  endloop
endfacet
facet normal -0.0 1.0 -0.0
  outer loop
    vertex 135.5548525317725 83.15310877737292 35.440458
    vertex 107.68989960386031 83.15310877737292 51.440458
    vertex 135.5548525317725 83.15310877737292 51.440458
  endloop
endfacet
facet normal 0.06540312923013562 0.997858923238604 -0.0
  outer loop
    vertex 135.5548525317725 83.15310877737292 51.440458
    vertex 136.09161203317194 83.11792770095222 35.440458
    vertex 135.5548525317725 83.15310877737292 35.440458
  endloop
endfacet
facet normal 0.06540312923013562 0.997858923238604 -0.0
  outer loop
    vertex 136.09161203317194 83.11792770095222 35.440458
    vertex 135.5548525317725 83.15310877737292 51.440458
    vertex 136.09161203317194 83.11792770095222 51.440458
  endloop
endfacet
facet normal 0.19509032201612989 0.9807852804032302 -0.0
  outer loop
    vertex 136.09161203317194 83.11792770095222 51.440458
    vertex 136.6191874306846 83.01298642966171 35.440458
    vertex 136.09161203317194 83.11792770095222 35.440458
  endloop
endfacet
facet normal 0.19509032201612989 0.9807852804032302 -0.0
  outer loop
    vertex 136.6191874306846 83.01298642966171 35.440458
    vertex 136.09161203317194 83.11792770095222 51.440458
    vertex 136.6191874306846 83.01298642966171 51.440458
  endloop
endfacet
facet normal 0.3214394653031722 0.9469301294951022 -0.0
  outer loop
    vertex 136.6191874306846 83.01298642966171 51.440458
    vertex 137.12855176298748 82.84008053774839 35.440458
    vertex 136.6191874306846 83.01298642966171 35.440458
  endloop
endfacet
facet normal 0.3214394653031722 0.9469301294951022 -0.0
  outer loop
    vertex 137.12855176298748 82.84008053774839 35.440458
    vertex 136.6191874306846 83.01298642966171 51.440458
    vertex 137.12855176298748 82.84008053774839 51.440458
  endloop
endfacet
facet normal 0.44228869021900175 0.8968727415326881 -0.0
  outer loop
    vertex 137.12855176298748 82.84008053774839 51.440458
    vertex 137.61098966513245 82.60216849296147 35.440458
    vertex 137.12855176298748 82.84008053774839 35.440458
  endloop
endfacet
facet normal 0.44228869021900175 0.8968727415326881 -0.0
  outer loop
    vertex 137.61098966513245 82.60216849296147 35.440458
    vertex 137.12855176298748 82.84008053774839 51.440458
    vertex 137.61098966513245 82.60216849296147 51.440458
  endloop
endfacet
facet normal 0.5555702330196011 0.8314696123025462 -0.0
  outer loop
    vertex 137.61098966513245 82.60216849296147 51.440458
    vertex 138.05824649085667 82.30332103634895 35.440458
    vertex 137.61098966513245 82.60216849296147 35.440458
  endloop
endfacet
facet normal 0.5555702330196011 0.8314696123025462 -0.0
  outer loop
    vertex 138.05824649085667 82.30332103634895 35.440458
    vertex 137.61098966513245 82.60216849296147 51.440458
    vertex 138.05824649085667 82.30332103634895 51.440458
  endloop
endfacet
facet normal 0.6593458151000683 0.7518398074789782 -0.0
  outer loop
    vertex 138.05824649085667 82.30332103634895 51.440458
    vertex 138.46266955186908 81.94865153074959 35.440458
    vertex 138.05824649085667 82.30332103634895 35.440458
  endloop
endfacet
facet normal 0.6593458151000683 0.7518398074789782 -0.0
  outer loop
    vertex 138.46266955186908 81.94865153074959 35.440458
    vertex 138.05824649085667 82.30332103634895 51.440458
    vertex 138.46266955186908 81.94865153074959 51.440458
  endloop
endfacet
facet normal 0.7518398074789899 0.6593458151000549 -0.0
  outer loop
    vertex 138.46266955186908 81.94865153074959 35.440458
    vertex 138.81733905746842 81.5442284697372 51.440458
    vertex 138.81733905746842 81.5442284697372 35.440458
  endloop
endfacet
facet normal 0.7518398074789899 0.6593458151000549 -0.0
  outer loop
    vertex 138.81733905746842 81.5442284697372 51.440458
    vertex 138.46266955186908 81.94865153074959 35.440458
    vertex 138.46266955186908 81.94865153074959 51.440458
  endloop
endfacet
facet normal 0.8314696123025267 0.55557023301963 -0.0
  outer loop
    vertex 138.81733905746842 81.5442284697372 35.440458
    vertex 139.11618651408097 81.09697164401297 51.440458
    vertex 139.11618651408097 81.09697164401297 35.440458
  endloop
endfacet
facet normal 0.8314696123025267 0.55557023301963 -0.0
  outer loop
    vertex 139.11618651408097 81.09697164401297 51.440458
    vertex 138.81733905746842 81.5442284697372 35.440458
    vertex 138.81733905746842 81.5442284697372 51.440458
  endloop
endfacet
facet normal 0.8968727415326881 0.44228869021900175 -0.0
  outer loop
    vertex 139.11618651408097 81.09697164401297 35.440458
    vertex 139.3540985588679 80.61453374186802 51.440458
    vertex 139.3540985588679 80.61453374186802 35.440458
  endloop
endfacet
facet normal 0.8968727415326881 0.44228869021900175 -0.0
  outer loop
    vertex 139.3540985588679 80.61453374186802 51.440458
    vertex 139.11618651408097 81.09697164401297 35.440458
    vertex 139.11618651408097 81.09697164401297 51.440458
  endloop
endfacet
facet normal 0.946930129495117 0.3214394653031282 -0.0
  outer loop
    vertex 139.3540985588679 80.61453374186802 35.440458
    vertex 139.52700445078116 80.10516940956512 51.440458
    vertex 139.52700445078116 80.10516940956512 35.440458
  endloop
endfacet
facet normal 0.946930129495117 0.3214394653031282 -0.0
  outer loop
    vertex 139.52700445078116 80.10516940956512 51.440458
    vertex 139.3540985588679 80.61453374186802 35.440458
    vertex 139.3540985588679 80.61453374186802 51.440458
  endloop
endfacet
facet normal 0.9807852804032295 0.19509032201613388 -0.0
  outer loop
    vertex 139.52700445078116 80.10516940956512 35.440458
    vertex 139.6319457220717 79.57759401205246 51.440458
    vertex 139.6319457220717 79.57759401205246 35.440458
  endloop
endfacet
facet normal 0.9807852804032295 0.19509032201613388 -0.0
  outer loop
    vertex 139.6319457220717 79.57759401205246 51.440458
    vertex 139.52700445078116 80.10516940956512 35.440458
    vertex 139.52700445078116 80.10516940956512 51.440458
  endloop
endfacet
facet normal 0.9978589232386027 0.06540312923015651 -0.0
  outer loop
    vertex 139.6319457220717 79.57759401205246 35.440458
    vertex 139.6671267984924 79.04083451065301 51.440458
    vertex 139.6671267984924 79.04083451065301 35.440458
  endloop
endfacet
facet normal 0.9978589232386027 0.06540312923015651 -0.0
  outer loop
    vertex 139.6671267984924 79.04083451065301 51.440458
    vertex 139.6319457220717 79.57759401205246 35.440458
    vertex 139.6319457220717 79.57759401205246 51.440458
  endloop
endfacet
facet normal 1.0 -0.0 -0.0
  outer loop
    vertex 139.6671267984924 79.04083451065301 35.440458
    vertex 139.6671267984924 76.0544265358391 51.440458
    vertex 139.6671267984924 76.0544265358391 35.440458
  endloop
endfacet
facet normal 1.0 -0.0 -0.0
  outer loop
    vertex 139.6671267984924 76.0544265358391 51.440458
    vertex 139.6671267984924 79.04083451065301 35.440458
    vertex 139.6671267984924 79.04083451065301 51.440458
  endloop
endfacet
facet normal 0.997858923238602 -0.0654031292301673 -0.0
  outer loop
    vertex 139.6671267984924 76.0544265358391 35.440458
    vertex 139.63375048424388 75.54520238418606 51.440458
    vertex 139.63375048424388 75.54520238418606 35.440458
  endloop
endfacet
facet normal 0.997858923238602 -0.0654031292301673 -0.0
  outer loop
    vertex 139.63375048424388 75.54520238418606 51.440458
    vertex 139.6671267984924 76.0544265358391 35.440458
    vertex 139.6671267984924 76.0544265358391 51.440458
  endloop
endfacet
facet normal 0.9807852804032277 -0.19509032201614282 -0.0
  outer loop
    vertex 139.63375048424388 75.54520238418606 35.440458
    vertex 139.53419261948886 75.04469119895138 51.440458
    vertex 139.53419261948886 75.04469119895138 35.440458
  endloop
endfacet
facet normal 0.9807852804032277 -0.19509032201614282 -0.0
  outer loop
    vertex 139.53419261948886 75.04469119895138 51.440458
    vertex 139.63375048424388 75.54520238418606 35.440458
    vertex 139.63375048424388 75.54520238418606 51.440458
  endloop
endfacet
facet normal 0.9469301294951128 -0.32143946530314105 -0.0
  outer loop
    vertex 139.53419261948886 75.04469119895138 35.440458
    vertex 139.37015666689592 74.56145686528238 51.440458
    vertex 139.37015666689592 74.56145686528238 35.440458
  endloop
endfacet
facet normal 0.9469301294951128 -0.32143946530314105 -0.0
  outer loop
    vertex 139.37015666689592 74.56145686528238 51.440458
    vertex 139.53419261948886 75.04469119895138 35.440458
    vertex 139.53419261948886 75.04469119895138 51.440458
  endloop
endfacet
facet normal 0.8968727415326948 -0.44228869021898853 -0.0
  outer loop
    vertex 139.37015666689592 74.56145686528238 35.440458
    vertex 139.14444932709327 74.10376765660601 51.440458
    vertex 139.14444932709327 74.10376765660601 35.440458
  endloop
endfacet
facet normal 0.8968727415326948 -0.44228869021898853 -0.0
  outer loop
    vertex 139.14444932709327 74.10376765660601 51.440458
    vertex 139.37015666689592 74.56145686528238 35.440458
    vertex 139.37015666689592 74.56145686528238 51.440458
  endloop
endfacet
facet normal 0.831469612302544 -0.5555702330196044 -0.0
  outer loop
    vertex 139.14444932709327 74.10376765660601 35.440458
    vertex 138.86093251524287 73.67945476217812 51.440458
    vertex 138.86093251524287 73.67945476217812 35.440458
  endloop
endfacet
facet normal 0.831469612302544 -0.5555702330196044 -0.0
  outer loop
    vertex 138.86093251524287 73.67945476217812 51.440458
    vertex 139.14444932709327 74.10376765660601 35.440458
    vertex 139.14444932709327 74.10376765660601 51.440458
  endloop
endfacet
facet normal 0.7518398074789681 -0.6593458151000795 -0.0
  outer loop
    vertex 138.86093251524287 73.67945476217812 35.440458
    vertex 138.52445728260113 73.29577829326415 51.440458
    vertex 138.52445728260113 73.29577829326415 35.440458
  endloop
endfacet
facet normal 0.7518398074789681 -0.6593458151000795 -0.0
  outer loop
    vertex 138.52445728260113 73.29577829326415 51.440458
    vertex 138.86093251524287 73.67945476217812 35.440458
    vertex 138.86093251524287 73.67945476217812 51.440458
  endloop
endfacet
facet normal 0.6593458151000655 -0.7518398074789805 0.0
  outer loop
    vertex 138.52445728260113 73.29577829326415 51.440458
    vertex 138.14078081368717 72.95930306062245 35.440458
    vertex 138.52445728260113 73.29577829326415 35.440458
  endloop
endfacet
facet normal 0.6593458151000655 -0.7518398074789805 0.0
  outer loop
    vertex 138.14078081368717 72.95930306062245 35.440458
    vertex 138.52445728260113 73.29577829326415 51.440458
    vertex 138.14078081368717 72.95930306062245 51.440458
  endloop
endfacet
facet normal 0.5555702330196196 -0.8314696123025337 0.0
  outer loop
    vertex 138.14078081368717 72.95930306062245 51.440458
    vertex 137.7164679192593 72.67578624877201 35.440458
    vertex 138.14078081368717 72.95930306062245 35.440458
  endloop
endfacet
facet normal 0.5555702330196196 -0.8314696123025337 0.0
  outer loop
    vertex 137.7164679192593 72.67578624877201 35.440458
    vertex 138.14078081368717 72.95930306062245 51.440458
    vertex 137.7164679192593 72.67578624877201 51.440458
  endloop
endfacet
facet normal 0.44228869021898853 -0.8968727415326946 0.0
  outer loop
    vertex 137.7164679192593 72.67578624877201 51.440458
    vertex 137.2587787105829 72.45007890896937 35.440458
    vertex 137.7164679192593 72.67578624877201 35.440458
  endloop
endfacet
facet normal 0.44228869021898853 -0.8968727415326946 0.0
  outer loop
    vertex 137.2587787105829 72.45007890896937 35.440458
    vertex 137.7164679192593 72.67578624877201 51.440458
    vertex 137.2587787105829 72.45007890896937 51.440458
  endloop
endfacet
facet normal 0.32143946530316075 -0.946930129495106 0.0
  outer loop
    vertex 137.2587787105829 72.45007890896937 51.440458
    vertex 136.77554437691393 72.28604295637643 35.440458
    vertex 137.2587787105829 72.45007890896937 35.440458
  endloop
endfacet
facet normal 0.32143946530316075 -0.946930129495106 0.0
  outer loop
    vertex 136.77554437691393 72.28604295637643 35.440458
    vertex 137.2587787105829 72.45007890896937 51.440458
    vertex 136.77554437691393 72.28604295637643 51.440458
  endloop
endfacet
facet normal 0.19509032201612156 -0.980785280403232 0.0
  outer loop
    vertex 136.77554437691393 72.28604295637643 51.440458
    vertex 136.27503319167926 72.1864850916214 35.440458
    vertex 136.77554437691393 72.28604295637643 35.440458
  endloop
endfacet
facet normal 0.19509032201612156 -0.980785280403232 0.0
  outer loop
    vertex 136.27503319167926 72.1864850916214 35.440458
    vertex 136.77554437691393 72.28604295637643 51.440458
    vertex 136.27503319167926 72.1864850916214 51.440458
  endloop
endfacet
facet normal 0.0654031292301453 -0.9978589232386034 0.0
  outer loop
    vertex 136.27503319167926 72.1864850916214 51.440458
    vertex 135.7658090400262 72.15310877737292 35.440458
    vertex 136.27503319167926 72.1864850916214 35.440458
  endloop
endfacet
facet normal 0.0654031292301453 -0.9978589232386034 0.0
  outer loop
    vertex 135.7658090400262 72.15310877737292 35.440458
    vertex 136.27503319167926 72.1864850916214 51.440458
    vertex 135.7658090400262 72.15310877737292 51.440458
  endloop
endfacet
facet normal 0.0 -1.0 0.0
  outer loop
    vertex 135.7658090400262 72.15310877737292 51.440458
    vertex 107.82832118442074 72.15310877737292 35.440458
    vertex 135.7658090400262 72.15310877737292 35.440458
  endloop
endfacet
facet normal 0.0 -1.0 0.0
  outer loop
    vertex 107.82832118442074 72.15310877737292 35.440458
    vertex 135.7658090400262 72.15310877737292 51.440458
    vertex 107.82832118442074 72.15310877737292 51.440458
  endloop
endfacet
facet normal -0.06540312923014127 -0.9978589232386038 0.0
  outer loop
    vertex 107.82832118442074 72.15310877737292 51.440458
    vertex 107.28517632613807 72.18870837219505 35.440458
    vertex 107.82832118442074 72.15310877737292 35.440458
  endloop
endfacet
facet normal -0.06540312923014127 -0.9978589232386038 0.0
  outer loop
    vertex 107.28517632613807 72.18870837219505 35.440458
    vertex 107.82832118442074 72.15310877737292 51.440458
    vertex 107.28517632613807 72.18870837219505 51.440458
  endloop
endfacet
facet normal -0.19509032201611784 -0.9807852804032325 0.0
  outer loop
    vertex 107.28517632613807 72.18870837219505 51.440458
    vertex 106.75132482696881 72.29489803772398 35.440458
    vertex 107.28517632613807 72.18870837219505 35.440458
  endloop
endfacet
facet normal -0.19509032201611784 -0.9807852804032325 0.0
  outer loop
    vertex 106.75132482696881 72.29489803772398 35.440458
    vertex 107.28517632613807 72.18870837219505 51.440458
    vertex 106.75132482696881 72.29489803772398 51.440458
  endloop
endfacet
facet normal -0.32143946530313955 -0.9469301294951132 0.0
  outer loop
    vertex 106.75132482696881 72.29489803772398 51.440458
    vertex 106.23590103407534 72.46986083934118 35.440458
    vertex 106.75132482696881 72.29489803772398 35.440458
  endloop
endfacet
facet normal -0.32143946530313955 -0.9469301294951132 0.0
  outer loop
    vertex 106.23590103407534 72.46986083934118 35.440458
    vertex 106.75132482696881 72.29489803772398 51.440458
    vertex 106.23590103407534 72.46986083934118 51.440458
  endloop
endfacet
facet normal -0.44228869021900985 -0.8968727415326843 0.0
  outer loop
    vertex 106.23590103407534 72.46986083934118 51.440458
    vertex 105.74772399145655 72.71060311500212 35.440458
    vertex 106.23590103407534 72.46986083934118 35.440458
  endloop
endfacet
facet normal -0.44228869021900985 -0.8968727415326843 0.0
  outer loop
    vertex 105.74772399145655 72.71060311500212 35.440458
    vertex 106.23590103407534 72.46986083934118 51.440458
    vertex 105.74772399145655 72.71060311500212 51.440458
  endloop
endfacet
facet normal -0.5555702330196098 -0.8314696123025401 0.0
  outer loop
    vertex 105.74772399145655 72.71060311500212 51.440458
    vertex 105.29514654365994 73.01300569762387 35.440458
    vertex 105.74772399145655 72.71060311500212 35.440458
  endloop
endfacet
facet normal -0.5555702330196098 -0.8314696123025401 0.0
  outer loop
    vertex 105.29514654365994 73.01300569762387 35.440458
    vertex 105.74772399145655 72.71060311500212 51.440458
    vertex 105.29514654365994 73.01300569762387 51.440458
  endloop
endfacet
facet normal -0.659345815100062 -0.7518398074789835 0.0
  outer loop
    vertex 105.29514654365994 73.01300569762387 51.440458
    vertex 104.88591241629541 73.37189439517593 35.440458
    vertex 105.29514654365994 73.01300569762387 35.440458
  endloop
endfacet
facet normal -0.659345815100062 -0.7518398074789835 0.0
  outer loop
    vertex 104.88591241629541 73.37189439517593 35.440458
    vertex 105.29514654365994 73.01300569762387 51.440458
    vertex 104.88591241629541 73.37189439517593 51.440458
  endloop
endfacet
facet normal -0.7518398074789745 -0.6593458151000723 0.0
  outer loop
    vertex 104.52702371874335 73.78112852254044 51.440458
    vertex 104.88591241629541 73.37189439517593 35.440458
    vertex 104.88591241629541 73.37189439517593 51.440458
  endloop
endfacet
facet normal -0.7518398074789745 -0.6593458151000723 0.0
  outer loop
    vertex 104.88591241629541 73.37189439517593 35.440458
    vertex 104.52702371874335 73.78112852254044 51.440458
    vertex 104.52702371874335 73.78112852254044 35.440458
  endloop
endfacet
facet normal -0.8314696123025529 -0.5555702330195907 0.0
  outer loop
    vertex 104.22462113612161 74.23370597033708 51.440458
    vertex 104.52702371874335 73.78112852254044 35.440458
    vertex 104.52702371874335 73.78112852254044 51.440458
  endloop
endfacet
facet normal -0.8314696123025529 -0.5555702330195907 0.0
  outer loop
    vertex 104.52702371874335 73.78112852254044 35.440458
    vertex 104.22462113612161 74.23370597033708 51.440458
    vertex 104.22462113612161 74.23370597033708 35.440458
  endloop
endfacet
facet normal -0.8968727415326719 -0.44228869021903466 0.0
  outer loop
    vertex 103.98387886046065 74.72188301295584 51.440458
    vertex 104.22462113612161 74.23370597033708 35.440458
    vertex 104.22462113612161 74.23370597033708 51.440458
  endloop
endfacet
facet normal -0.8968727415326719 -0.44228869021903466 0.0
  outer loop
    vertex 104.22462113612161 74.23370597033708 35.440458
    vertex 103.98387886046065 74.72188301295584 51.440458
    vertex 103.98387886046065 74.72188301295584 35.440458
  endloop
endfacet
facet normal -0.9469301294951173 -0.32143946530312717 0.0
  outer loop
    vertex 103.80891605884348 75.2373068058493 51.440458
    vertex 103.98387886046065 74.72188301295584 35.440458
    vertex 103.98387886046065 74.72188301295584 51.440458
  endloop
endfacet
facet normal -0.9469301294951173 -0.32143946530312717 0.0
  outer loop
    vertex 103.98387886046065 74.72188301295584 35.440458
    vertex 103.80891605884348 75.2373068058493 51.440458
    vertex 103.80891605884348 75.2373068058493 35.440458
  endloop
endfacet
facet normal -0.9807852804032285 -0.1950903220161377 0.0
  outer loop
    vertex 103.70272639331453 75.77115830501857 51.440458
    vertex 103.80891605884348 75.2373068058493 35.440458
    vertex 103.80891605884348 75.2373068058493 51.440458
  endloop
endfacet
facet normal -0.9807852804032285 -0.1950903220161377 0.0
  outer loop
    vertex 103.80891605884348 75.2373068058493 35.440458
    vertex 103.70272639331453 75.77115830501857 51.440458
    vertex 103.70272639331453 75.77115830501857 35.440458
  endloop
endfacet
endsolid DoorSensorSupport
