solid OpenSCAD_Model
  facet normal 0.900969 0.433884 0
    outer loop
      vertex 3 1 4
      vertex 2.24698 2.56366 0
      vertex 2.24698 2.56366 4
    endloop
  endfacet
  facet normal 0.900969 0.433884 0
    outer loop
      vertex 2.24698 2.56366 0
      vertex 3 1 4
      vertex 3 1 0
    endloop
  endfacet
  facet normal 0.222522 0.974928 -0
    outer loop
      vertex 2.24698 2.56366 0
      vertex 2 2.62003 4
      vertex 2.24698 2.56366 4
    endloop
  endfacet
  facet normal 0.222522 0.974928 0
    outer loop
      vertex 2 2.62003 4
      vertex 2.24698 2.56366 0
      vertex 2 2.62003 0
    endloop
  endfacet
  facet normal -0.62349 -0.781831 0
    outer loop
      vertex 0 -0.507292 0
      vertex 0.554957 -0.949856 4
      vertex 0 -0.507292 4
    endloop
  endfacet
  facet normal -0.62349 -0.781831 -0
    outer loop
      vertex 0.554957 -0.949856 4
      vertex 0 -0.507292 0
      vertex 0.554957 -0.949856 0
    endloop
  endfacet
  facet normal 0 0 1
    outer loop
      vertex 2 2.62003 4
      vertex 3 1 4
      vertex 2.24698 2.56366 4
    endloop
  endfacet
  facet normal 0 0 1
    outer loop
      vertex 3 1 4
      vertex 2 2.62003 4
      vertex 2 0 4
    endloop
  endfacet
  facet normal 0 0 1
    outer loop
      vertex 3 1 4
      vertex 2 0 4
      vertex 2.24698 -0.563663 4
    endloop
  endfacet
  facet normal 0 0 1
    outer loop
      vertex 2 0 4
      vertex 0.554957 -0.949856 4
      vertex 2.24698 -0.563663 4
    endloop
  endfacet
  facet normal -0 0 1
    outer loop
      vertex 0 0 4
      vertex 0.554957 -0.949856 4
      vertex 2 0 4
    endloop
  endfacet
  facet normal 0 0 1
    outer loop
      vertex 0.554957 -0.949856 4
      vertex 0 0 4
      vertex 0 -0.507292 4
    endloop
  endfacet
  facet normal 0 0 -1
    outer loop
      vertex 0 0 0
      vertex 3 1 0
      vertex 2.24698 -0.563663 0
    endloop
  endfacet
  facet normal 0 0 -1
    outer loop
      vertex 3 1 0
      vertex 2 2.62003 0
      vertex 2.24698 2.56366 0
    endloop
  endfacet
  facet normal 0 0 -1
    outer loop
      vertex 0 0 0
      vertex 2 8.37996 0
      vertex 2 2.62003 0
    endloop
  endfacet
  facet normal -0 0 -1
    outer loop
      vertex 2 8.37996 0
      vertex 0 0 0
      vertex 2 11.62 0
    endloop
  endfacet
  facet normal -0 0 -1
    outer loop
      vertex 2 11.62 0
      vertex 0 0 0
      vertex 2 18.38 0
    endloop
  endfacet
  facet normal -0 0 -1
    outer loop
      vertex 2 18.38 0
      vertex 0 0 0
      vertex 2 21.62 0
    endloop
  endfacet
  facet normal -0 0 -1
    outer loop
      vertex 2 21.62 0
      vertex 0 0 0
      vertex 2 28.38 0
    endloop
  endfacet
  facet normal 0 0 -1
    outer loop
      vertex 0 50 0
      vertex 2 28.38 0
      vertex 0 0 0
    endloop
  endfacet
  facet normal 0 0 -1
    outer loop
      vertex 2 28.38 0
      vertex 0 50 0
      vertex 2 31.62 0
    endloop
  endfacet
  facet normal 0 0 -1
    outer loop
      vertex 2 31.62 0
      vertex 0 50 0
      vertex 2 38.38 0
    endloop
  endfacet
  facet normal -0 0 -1
    outer loop
      vertex 3 1 0
      vertex 0 0 0
      vertex 2 2.62003 0
    endloop
  endfacet
  facet normal 0 0 -1
    outer loop
      vertex 0 0 0
      vertex 2.24698 -0.563663 0
      vertex 0.554957 -0.949856 0
    endloop
  endfacet
  facet normal 0 0 -1
    outer loop
      vertex 2 8.37996 0
      vertex 3 10 0
      vertex 2.24698 8.43634 0
    endloop
  endfacet
  facet normal 0 0 -1
    outer loop
      vertex 2 11.62 0
      vertex 3 10 0
      vertex 2 8.37996 0
    endloop
  endfacet
  facet normal 0 0 -1
    outer loop
      vertex 3 10 0
      vertex 2 11.62 0
      vertex 2.24698 11.5637 0
    endloop
  endfacet
  facet normal 0 0 -1
    outer loop
      vertex 2 18.38 0
      vertex 3 20 0
      vertex 2.24698 18.4363 0
    endloop
  endfacet
  facet normal 0 0 -1
    outer loop
      vertex 2 21.62 0
      vertex 3 20 0
      vertex 2 18.38 0
    endloop
  endfacet
  facet normal 0 0 -1
    outer loop
      vertex 3 20 0
      vertex 2 21.62 0
      vertex 2.24698 21.5637 0
    endloop
  endfacet
  facet normal 0 0 -1
    outer loop
      vertex 2 28.38 0
      vertex 3 30 0
      vertex 2.24698 28.4363 0
    endloop
  endfacet
  facet normal 0 0 -1
    outer loop
      vertex 2 31.62 0
      vertex 3 30 0
      vertex 2 28.38 0
    endloop
  endfacet
  facet normal 0 0 -1
    outer loop
      vertex 3 30 0
      vertex 2 31.62 0
      vertex 2.24698 31.5637 0
    endloop
  endfacet
  facet normal 0 0 -1
    outer loop
      vertex 2 38.38 0
      vertex 3 40 0
      vertex 2.24698 38.4363 0
    endloop
  endfacet
  facet normal 0 0 -1
    outer loop
      vertex 2 41.62 0
      vertex 3 40 0
      vertex 2 38.38 0
    endloop
  endfacet
  facet normal 0 0 -1
    outer loop
      vertex 3 40 0
      vertex 2 41.62 0
      vertex 2.24698 41.5637 0
    endloop
  endfacet
  facet normal 0 0 -1
    outer loop
      vertex 10 2.50729 0
      vertex 12 0 0
      vertex 10 0 0
    endloop
  endfacet
  facet normal 0 0 -1
    outer loop
      vertex 10 8.49271 0
      vertex 12 0 0
      vertex 10 2.50729 0
    endloop
  endfacet
  facet normal 0 0 -1
    outer loop
      vertex 10 11.5073 0
      vertex 12 0 0
      vertex 10 8.49271 0
    endloop
  endfacet
  facet normal 0 0 -1
    outer loop
      vertex 10 18.4927 0
      vertex 12 0 0
      vertex 10 11.5073 0
    endloop
  endfacet
  facet normal 0 0 -1
    outer loop
      vertex 10 21.5073 0
      vertex 12 0 0
      vertex 10 18.4927 0
    endloop
  endfacet
  facet normal 0 0 -1
    outer loop
      vertex 12 0 0
      vertex 10 21.5073 0
      vertex 12 50 0
    endloop
  endfacet
  facet normal 0 0 -1
    outer loop
      vertex 10 28.4927 0
      vertex 12 50 0
      vertex 10 21.5073 0
    endloop
  endfacet
  facet normal 0 0 -1
    outer loop
      vertex 10 31.5073 0
      vertex 12 50 0
      vertex 10 28.4927 0
    endloop
  endfacet
  facet normal 0 0 -1
    outer loop
      vertex 10 38.4927 0
      vertex 12 50 0
      vertex 10 31.5073 0
    endloop
  endfacet
  facet normal 0 0 -1
    outer loop
      vertex 10 41.5073 0
      vertex 12 50 0
      vertex 10 38.4927 0
    endloop
  endfacet
  facet normal 0 0 -1
    outer loop
      vertex 10 44 0
      vertex 12 50 0
      vertex 10 41.5073 0
    endloop
  endfacet
  facet normal 0 0 -1
    outer loop
      vertex 2 44 0
      vertex 12 50 0
      vertex 10 44 0
    endloop
  endfacet
  facet normal 0 0 -1
    outer loop
      vertex 0 0 0
      vertex 0.554957 -0.949856 0
      vertex 0 -0.507292 0
    endloop
  endfacet
  facet normal 0 0 -1
    outer loop
      vertex 2 38.38 0
      vertex 0 50 0
      vertex 2 41.62 0
    endloop
  endfacet
  facet normal 0 0 -1
    outer loop
      vertex 2 44 0
      vertex 0 50 0
      vertex 12 50 0
    endloop
  endfacet
  facet normal 0 0 -1
    outer loop
      vertex 2 41.62 0
      vertex 0 50 0
      vertex 2 44 0
    endloop
  endfacet
  facet normal 0.222521 -0.974928 0
    outer loop
      vertex 0.554957 -0.949856 0
      vertex 2.24698 -0.563663 4
      vertex 0.554957 -0.949856 4
    endloop
  endfacet
  facet normal 0.222521 -0.974928 0
    outer loop
      vertex 2.24698 -0.563663 4
      vertex 0.554957 -0.949856 0
      vertex 2.24698 -0.563663 0
    endloop
  endfacet
  facet normal 0.900969 -0.433884 0
    outer loop
      vertex 2.24698 -0.563663 4
      vertex 3 1 0
      vertex 3 1 4
    endloop
  endfacet
  facet normal 0.900969 -0.433884 0
    outer loop
      vertex 3 1 0
      vertex 2.24698 -0.563663 4
      vertex 2.24698 -0.563663 0
    endloop
  endfacet
  facet normal 0.900969 0.433884 0
    outer loop
      vertex 3 10 4
      vertex 2.24698 11.5637 0
      vertex 2.24698 11.5637 4
    endloop
  endfacet
  facet normal 0.900969 0.433884 0
    outer loop
      vertex 2.24698 11.5637 0
      vertex 3 10 4
      vertex 3 10 0
    endloop
  endfacet
  facet normal 0.222522 0.974928 -0
    outer loop
      vertex 2.24698 11.5637 0
      vertex 2 11.62 4
      vertex 2.24698 11.5637 4
    endloop
  endfacet
  facet normal 0.222522 0.974928 0
    outer loop
      vertex 2 11.62 4
      vertex 2.24698 11.5637 0
      vertex 2 11.62 0
    endloop
  endfacet
  facet normal 0 0 1
    outer loop
      vertex 2 11.62 4
      vertex 3 10 4
      vertex 2.24698 11.5637 4
    endloop
  endfacet
  facet normal 0 0 1
    outer loop
      vertex 2 8.37996 4
      vertex 3 10 4
      vertex 2 11.62 4
    endloop
  endfacet
  facet normal 0 0 1
    outer loop
      vertex 3 10 4
      vertex 2 8.37996 4
      vertex 2.24698 8.43634 4
    endloop
  endfacet
  facet normal 0.900969 -0.433884 0
    outer loop
      vertex 2.24698 8.43634 4
      vertex 3 10 0
      vertex 3 10 4
    endloop
  endfacet
  facet normal 0.900969 -0.433884 0
    outer loop
      vertex 3 10 0
      vertex 2.24698 8.43634 4
      vertex 2.24698 8.43634 0
    endloop
  endfacet
  facet normal 0.222522 -0.974928 0
    outer loop
      vertex 2 8.37996 0
      vertex 2.24698 8.43634 4
      vertex 2 8.37996 4
    endloop
  endfacet
  facet normal 0.222522 -0.974928 0
    outer loop
      vertex 2.24698 8.43634 4
      vertex 2 8.37996 0
      vertex 2.24698 8.43634 0
    endloop
  endfacet
  facet normal 0.900969 0.433884 0
    outer loop
      vertex 3 20 4
      vertex 2.24698 21.5637 0
      vertex 2.24698 21.5637 4
    endloop
  endfacet
  facet normal 0.900969 0.433884 0
    outer loop
      vertex 2.24698 21.5637 0
      vertex 3 20 4
      vertex 3 20 0
    endloop
  endfacet
  facet normal 0.222515 0.974929 -0
    outer loop
      vertex 2.24698 21.5637 0
      vertex 2 21.62 4
      vertex 2.24698 21.5637 4
    endloop
  endfacet
  facet normal 0.222515 0.974929 0
    outer loop
      vertex 2 21.62 4
      vertex 2.24698 21.5637 0
      vertex 2 21.62 0
    endloop
  endfacet
  facet normal 0 0 1
    outer loop
      vertex 2 21.62 4
      vertex 3 20 4
      vertex 2.24698 21.5637 4
    endloop
  endfacet
  facet normal 0 0 1
    outer loop
      vertex 2 18.38 4
      vertex 3 20 4
      vertex 2 21.62 4
    endloop
  endfacet
  facet normal 0 0 1
    outer loop
      vertex 3 20 4
      vertex 2 18.38 4
      vertex 2.24698 18.4363 4
    endloop
  endfacet
  facet normal 0.222522 -0.974928 0
    outer loop
      vertex 2 18.38 0
      vertex 2.24698 18.4363 4
      vertex 2 18.38 4
    endloop
  endfacet
  facet normal 0.222522 -0.974928 0
    outer loop
      vertex 2.24698 18.4363 4
      vertex 2 18.38 0
      vertex 2.24698 18.4363 0
    endloop
  endfacet
  facet normal 0.900969 -0.433884 0
    outer loop
      vertex 2.24698 18.4363 4
      vertex 3 20 0
      vertex 3 20 4
    endloop
  endfacet
  facet normal 0.900969 -0.433884 0
    outer loop
      vertex 3 20 0
      vertex 2.24698 18.4363 4
      vertex 2.24698 18.4363 0
    endloop
  endfacet
  facet normal 0.900969 0.433884 0
    outer loop
      vertex 3 30 4
      vertex 2.24698 31.5637 0
      vertex 2.24698 31.5637 4
    endloop
  endfacet
  facet normal 0.900969 0.433884 0
    outer loop
      vertex 2.24698 31.5637 0
      vertex 3 30 4
      vertex 3 30 0
    endloop
  endfacet
  facet normal 0.222515 0.974929 -0
    outer loop
      vertex 2.24698 31.5637 0
      vertex 2 31.62 4
      vertex 2.24698 31.5637 4
    endloop
  endfacet
  facet normal 0.222515 0.974929 0
    outer loop
      vertex 2 31.62 4
      vertex 2.24698 31.5637 0
      vertex 2 31.62 0
    endloop
  endfacet
  facet normal 0 0 1
    outer loop
      vertex 2 31.62 4
      vertex 3 30 4
      vertex 2.24698 31.5637 4
    endloop
  endfacet
  facet normal 0 0 1
    outer loop
      vertex 2 28.38 4
      vertex 3 30 4
      vertex 2 31.62 4
    endloop
  endfacet
  facet normal 0 0 1
    outer loop
      vertex 3 30 4
      vertex 2 28.38 4
      vertex 2.24698 28.4363 4
    endloop
  endfacet
  facet normal 0.222522 -0.974928 0
    outer loop
      vertex 2 28.38 0
      vertex 2.24698 28.4363 4
      vertex 2 28.38 4
    endloop
  endfacet
  facet normal 0.222522 -0.974928 0
    outer loop
      vertex 2.24698 28.4363 4
      vertex 2 28.38 0
      vertex 2.24698 28.4363 0
    endloop
  endfacet
  facet normal 0.900969 -0.433884 0
    outer loop
      vertex 2.24698 28.4363 4
      vertex 3 30 0
      vertex 3 30 4
    endloop
  endfacet
  facet normal 0.900969 -0.433884 0
    outer loop
      vertex 3 30 0
      vertex 2.24698 28.4363 4
      vertex 2.24698 28.4363 0
    endloop
  endfacet
  facet normal 0.900969 0.433884 0
    outer loop
      vertex 3 40 4
      vertex 2.24698 41.5637 0
      vertex 2.24698 41.5637 4
    endloop
  endfacet
  facet normal 0.900969 0.433884 0
    outer loop
      vertex 2.24698 41.5637 0
      vertex 3 40 4
      vertex 3 40 0
    endloop
  endfacet
  facet normal 0.222515 0.974929 -0
    outer loop
      vertex 2.24698 41.5637 0
      vertex 2 41.62 4
      vertex 2.24698 41.5637 4
    endloop
  endfacet
  facet normal 0.222515 0.974929 0
    outer loop
      vertex 2 41.62 4
      vertex 2.24698 41.5637 0
      vertex 2 41.62 0
    endloop
  endfacet
  facet normal 0 0 1
    outer loop
      vertex 2 41.62 4
      vertex 3 40 4
      vertex 2.24698 41.5637 4
    endloop
  endfacet
  facet normal 0 0 1
    outer loop
      vertex 2 38.38 4
      vertex 3 40 4
      vertex 2 41.62 4
    endloop
  endfacet
  facet normal 0 0 1
    outer loop
      vertex 3 40 4
      vertex 2 38.38 4
      vertex 2.24698 38.4363 4
    endloop
  endfacet
  facet normal 0.222515 -0.974929 0
    outer loop
      vertex 2 38.38 0
      vertex 2.24698 38.4363 4
      vertex 2 38.38 4
    endloop
  endfacet
  facet normal 0.222515 -0.974929 0
    outer loop
      vertex 2.24698 38.4363 4
      vertex 2 38.38 0
      vertex 2.24698 38.4363 0
    endloop
  endfacet
  facet normal 0.900969 -0.433884 0
    outer loop
      vertex 2.24698 38.4363 4
      vertex 3 40 0
      vertex 3 40 4
    endloop
  endfacet
  facet normal 0.900969 -0.433884 0
    outer loop
      vertex 3 40 0
      vertex 2.24698 38.4363 4
      vertex 2.24698 38.4363 0
    endloop
  endfacet
  facet normal -1 0 0
    outer loop
      vertex 9.19806 0.132232 0
      vertex 9.19806 1.86777 4
      vertex 9.19806 1.86777 0
    endloop
  endfacet
  facet normal -1 -0 0
    outer loop
      vertex 9.19806 1.86777 4
      vertex 9.19806 0.132232 0
      vertex 9.19806 0.132232 4
    endloop
  endfacet
  facet normal -0.62349 -0.781832 0
    outer loop
      vertex 9.19806 0.132232 0
      vertex 10 -0.507292 4
      vertex 9.19806 0.132232 4
    endloop
  endfacet
  facet normal -0.62349 -0.781832 -0
    outer loop
      vertex 10 -0.507292 4
      vertex 9.19806 0.132232 0
      vertex 10 -0.507292 0
    endloop
  endfacet
  facet normal -0 0 1
    outer loop
      vertex 9.19806 1.86777 4
      vertex 10 0 4
      vertex 10 2.50729 4
    endloop
  endfacet
  facet normal -0 0 1
    outer loop
      vertex 9.19806 0.132232 4
      vertex 10 0 4
      vertex 9.19806 1.86777 4
    endloop
  endfacet
  facet normal 0 0 1
    outer loop
      vertex 10 0 4
      vertex 9.19806 0.132232 4
      vertex 10 -0.507292 4
    endloop
  endfacet
  facet normal -0.62349 0.781831 0
    outer loop
      vertex 10 2.50729 0
      vertex 9.19806 1.86777 4
      vertex 10 2.50729 4
    endloop
  endfacet
  facet normal -0.62349 0.781831 0
    outer loop
      vertex 9.19806 1.86777 4
      vertex 10 2.50729 0
      vertex 9.19806 1.86777 0
    endloop
  endfacet
  facet normal 0 0 -1
    outer loop
      vertex 9.19806 0.132232 0
      vertex 10 0 0
      vertex 10 -0.507292 0
    endloop
  endfacet
  facet normal 0 0 -1
    outer loop
      vertex 9.19806 1.86777 0
      vertex 10 0 0
      vertex 9.19806 0.132232 0
    endloop
  endfacet
  facet normal 0 0 -1
    outer loop
      vertex 10 0 0
      vertex 9.19806 1.86777 0
      vertex 10 2.50729 0
    endloop
  endfacet
  facet normal -1 0 0
    outer loop
      vertex 9.19806 9.13223 0
      vertex 9.19806 10.8678 4
      vertex 9.19806 10.8678 0
    endloop
  endfacet
  facet normal -1 -0 0
    outer loop
      vertex 9.19806 10.8678 4
      vertex 9.19806 9.13223 0
      vertex 9.19806 9.13223 4
    endloop
  endfacet
  facet normal -0.62349 -0.781831 0
    outer loop
      vertex 9.19806 9.13223 0
      vertex 10 8.49271 4
      vertex 9.19806 9.13223 4
    endloop
  endfacet
  facet normal -0.62349 -0.781831 -0
    outer loop
      vertex 10 8.49271 4
      vertex 9.19806 9.13223 0
      vertex 10 8.49271 0
    endloop
  endfacet
  facet normal -0 0 1
    outer loop
      vertex 9.19806 10.8678 4
      vertex 10 8.49271 4
      vertex 10 11.5073 4
    endloop
  endfacet
  facet normal 0 0 1
    outer loop
      vertex 10 8.49271 4
      vertex 9.19806 10.8678 4
      vertex 9.19806 9.13223 4
    endloop
  endfacet
  facet normal -0.62349 0.781831 0
    outer loop
      vertex 10 11.5073 0
      vertex 9.19806 10.8678 4
      vertex 10 11.5073 4
    endloop
  endfacet
  facet normal -0.62349 0.781831 0
    outer loop
      vertex 9.19806 10.8678 4
      vertex 10 11.5073 0
      vertex 9.19806 10.8678 0
    endloop
  endfacet
  facet normal 0 0 -1
    outer loop
      vertex 9.19806 9.13223 0
      vertex 10 11.5073 0
      vertex 10 8.49271 0
    endloop
  endfacet
  facet normal 0 0 -1
    outer loop
      vertex 10 11.5073 0
      vertex 9.19806 9.13223 0
      vertex 9.19806 10.8678 0
    endloop
  endfacet
  facet normal -1 0 0
    outer loop
      vertex 9.19806 19.1322 0
      vertex 9.19806 20.8678 4
      vertex 9.19806 20.8678 0
    endloop
  endfacet
  facet normal -1 -0 0
    outer loop
      vertex 9.19806 20.8678 4
      vertex 9.19806 19.1322 0
      vertex 9.19806 19.1322 4
    endloop
  endfacet
  facet normal -0.623491 -0.78183 0
    outer loop
      vertex 9.19806 19.1322 0
      vertex 10 18.4927 4
      vertex 9.19806 19.1322 4
    endloop
  endfacet
  facet normal -0.623491 -0.78183 -0
    outer loop
      vertex 10 18.4927 4
      vertex 9.19806 19.1322 0
      vertex 10 18.4927 0
    endloop
  endfacet
  facet normal -0 0 1
    outer loop
      vertex 9.19806 20.8678 4
      vertex 10 18.4927 4
      vertex 10 21.5073 4
    endloop
  endfacet
  facet normal 0 0 1
    outer loop
      vertex 10 18.4927 4
      vertex 9.19806 20.8678 4
      vertex 9.19806 19.1322 4
    endloop
  endfacet
  facet normal -0.62349 0.781831 0
    outer loop
      vertex 10 21.5073 0
      vertex 9.19806 20.8678 4
      vertex 10 21.5073 4
    endloop
  endfacet
  facet normal -0.62349 0.781831 0
    outer loop
      vertex 9.19806 20.8678 4
      vertex 10 21.5073 0
      vertex 9.19806 20.8678 0
    endloop
  endfacet
  facet normal 0 0 -1
    outer loop
      vertex 9.19806 19.1322 0
      vertex 10 21.5073 0
      vertex 10 18.4927 0
    endloop
  endfacet
  facet normal 0 0 -1
    outer loop
      vertex 10 21.5073 0
      vertex 9.19806 19.1322 0
      vertex 9.19806 20.8678 0
    endloop
  endfacet
  facet normal -1 0 0
    outer loop
      vertex 9.19806 29.1322 0
      vertex 9.19806 30.8678 4
      vertex 9.19806 30.8678 0
    endloop
  endfacet
  facet normal -1 -0 0
    outer loop
      vertex 9.19806 30.8678 4
      vertex 9.19806 29.1322 0
      vertex 9.19806 29.1322 4
    endloop
  endfacet
  facet normal -0.623491 -0.78183 0
    outer loop
      vertex 9.19806 29.1322 0
      vertex 10 28.4927 4
      vertex 9.19806 29.1322 4
    endloop
  endfacet
  facet normal -0.623491 -0.78183 -0
    outer loop
      vertex 10 28.4927 4
      vertex 9.19806 29.1322 0
      vertex 10 28.4927 0
    endloop
  endfacet
  facet normal -0 0 1
    outer loop
      vertex 9.19806 30.8678 4
      vertex 10 28.4927 4
      vertex 10 31.5073 4
    endloop
  endfacet
  facet normal 0 0 1
    outer loop
      vertex 10 28.4927 4
      vertex 9.19806 30.8678 4
      vertex 9.19806 29.1322 4
    endloop
  endfacet
  facet normal -0.62349 0.781831 0
    outer loop
      vertex 10 31.5073 0
      vertex 9.19806 30.8678 4
      vertex 10 31.5073 4
    endloop
  endfacet
  facet normal -0.62349 0.781831 0
    outer loop
      vertex 9.19806 30.8678 4
      vertex 10 31.5073 0
      vertex 9.19806 30.8678 0
    endloop
  endfacet
  facet normal 0 0 -1
    outer loop
      vertex 9.19806 29.1322 0
      vertex 10 31.5073 0
      vertex 10 28.4927 0
    endloop
  endfacet
  facet normal 0 0 -1
    outer loop
      vertex 10 31.5073 0
      vertex 9.19806 29.1322 0
      vertex 9.19806 30.8678 0
    endloop
  endfacet
  facet normal -1 0 0
    outer loop
      vertex 9.19806 39.1322 0
      vertex 9.19806 40.8678 4
      vertex 9.19806 40.8678 0
    endloop
  endfacet
  facet normal -1 -0 0
    outer loop
      vertex 9.19806 40.8678 4
      vertex 9.19806 39.1322 0
      vertex 9.19806 39.1322 4
    endloop
  endfacet
  facet normal -0.623491 -0.78183 0
    outer loop
      vertex 9.19806 39.1322 0
      vertex 10 38.4927 4
      vertex 9.19806 39.1322 4
    endloop
  endfacet
  facet normal -0.623491 -0.78183 -0
    outer loop
      vertex 10 38.4927 4
      vertex 9.19806 39.1322 0
      vertex 10 38.4927 0
    endloop
  endfacet
  facet normal -0 0 1
    outer loop
      vertex 9.19806 40.8678 4
      vertex 10 38.4927 4
      vertex 10 41.5073 4
    endloop
  endfacet
  facet normal 0 0 1
    outer loop
      vertex 10 38.4927 4
      vertex 9.19806 40.8678 4
      vertex 9.19806 39.1322 4
    endloop
  endfacet
  facet normal -0.623491 0.78183 0
    outer loop
      vertex 10 41.5073 0
      vertex 9.19806 40.8678 4
      vertex 10 41.5073 4
    endloop
  endfacet
  facet normal -0.623491 0.78183 0
    outer loop
      vertex 9.19806 40.8678 4
      vertex 10 41.5073 0
      vertex 9.19806 40.8678 0
    endloop
  endfacet
  facet normal 0 0 -1
    outer loop
      vertex 9.19806 39.1322 0
      vertex 10 41.5073 0
      vertex 10 38.4927 0
    endloop
  endfacet
  facet normal 0 0 -1
    outer loop
      vertex 10 41.5073 0
      vertex 9.19806 39.1322 0
      vertex 9.19806 40.8678 0
    endloop
  endfacet
  facet normal -1 0 0
    outer loop
      vertex 10 8.49271 0
      vertex 10 2.50729 0
      vertex 10 8.49271 4
    endloop
  endfacet
  facet normal -1 0 0
    outer loop
      vertex 10 18.4927 0
      vertex 10 11.5073 0
      vertex 10 18.4927 4
    endloop
  endfacet
  facet normal -1 0 0
    outer loop
      vertex 10 28.4927 0
      vertex 10 21.5073 0
      vertex 10 28.4927 4
    endloop
  endfacet
  facet normal -1 0 0
    outer loop
      vertex 10 38.4927 0
      vertex 10 31.5073 0
      vertex 10 38.4927 4
    endloop
  endfacet
  facet normal -1 0 0
    outer loop
      vertex 10 41.5073 4
      vertex 10 44 0
      vertex 10 41.5073 0
    endloop
  endfacet
  facet normal -1 0 0
    outer loop
      vertex 10 44 0
      vertex 10 41.5073 4
      vertex 10 44 8
    endloop
  endfacet
  facet normal -1 0 0
    outer loop
      vertex 10 38.4927 4
      vertex 10 44 8
      vertex 10 41.5073 4
    endloop
  endfacet
  facet normal -1 0 0
    outer loop
      vertex 10 31.5073 4
      vertex 10 38.4927 4
      vertex 10 31.5073 0
    endloop
  endfacet
  facet normal -1 0 0
    outer loop
      vertex 10 38.4927 4
      vertex 10 31.5073 4
      vertex 10 44 8
    endloop
  endfacet
  facet normal -1 0 0
    outer loop
      vertex 10 28.4927 4
      vertex 10 44 8
      vertex 10 31.5073 4
    endloop
  endfacet
  facet normal -1 0 0
    outer loop
      vertex 10 21.5073 4
      vertex 10 28.4927 4
      vertex 10 21.5073 0
    endloop
  endfacet
  facet normal -1 0 0
    outer loop
      vertex 10 21.5073 4
      vertex 10 44 8
      vertex 10 28.4927 4
    endloop
  endfacet
  facet normal -1 0 0
    outer loop
      vertex 10 0 8
      vertex 10 21.5073 4
      vertex 10 18.4927 4
    endloop
  endfacet
  facet normal -1 0 0
    outer loop
      vertex 10 11.5073 4
      vertex 10 18.4927 4
      vertex 10 11.5073 0
    endloop
  endfacet
  facet normal -1 0 0
    outer loop
      vertex 10 0 8
      vertex 10 18.4927 4
      vertex 10 11.5073 4
    endloop
  endfacet
  facet normal -1 0 0
    outer loop
      vertex 10 0 8
      vertex 10 11.5073 4
      vertex 10 8.49271 4
    endloop
  endfacet
  facet normal -1 0 0
    outer loop
      vertex 10 2.50729 4
      vertex 10 8.49271 4
      vertex 10 2.50729 0
    endloop
  endfacet
  facet normal -1 0 0
    outer loop
      vertex 10 0 8
      vertex 10 8.49271 4
      vertex 10 2.50729 4
    endloop
  endfacet
  facet normal -1 0 0
    outer loop
      vertex 10 0 8
      vertex 10 2.50729 4
      vertex 10 0 4
    endloop
  endfacet
  facet normal -1 0 0
    outer loop
      vertex 10 21.5073 4
      vertex 10 0 8
      vertex 10 44 8
    endloop
  endfacet
  facet normal 1 -0 0
    outer loop
      vertex 10 -0.507292 4
      vertex 10 0 0
      vertex 10 0 4
    endloop
  endfacet
  facet normal 1 0 0
    outer loop
      vertex 10 0 0
      vertex 10 -0.507292 4
      vertex 10 -0.507292 0
    endloop
  endfacet
  facet normal -1 0 0
    outer loop
      vertex 0 -0.507292 0
      vertex 0 0 4
      vertex 0 0 0
    endloop
  endfacet
  facet normal -1 -0 0
    outer loop
      vertex 0 0 4
      vertex 0 -0.507292 0
      vertex 0 -0.507292 4
    endloop
  endfacet
  facet normal -1 0 0
    outer loop
      vertex 0 0 4
      vertex 0 50 0
      vertex 0 0 0
    endloop
  endfacet
  facet normal -1 0 0
    outer loop
      vertex 0 50 0
      vertex 0 0 4
      vertex 0 50 8
    endloop
  endfacet
  facet normal -1 -0 0
    outer loop
      vertex 0 50 8
      vertex 0 0 4
      vertex 0 0 8
    endloop
  endfacet
  facet normal 0 0 1
    outer loop
      vertex 12 50 8
      vertex 10 44 8
      vertex 12 0 8
    endloop
  endfacet
  facet normal 0 0 1
    outer loop
      vertex 12 50 8
      vertex 2 44 8
      vertex 10 44 8
    endloop
  endfacet
  facet normal -0 0 1
    outer loop
      vertex 0 50 8
      vertex 2 44 8
      vertex 12 50 8
    endloop
  endfacet
  facet normal 0 0 1
    outer loop
      vertex 0 0 8
      vertex 2 44 8
      vertex 0 50 8
    endloop
  endfacet
  facet normal 0 0 1
    outer loop
      vertex 2 44 8
      vertex 0 0 8
      vertex 2 0 8
    endloop
  endfacet
  facet normal 0 0 1
    outer loop
      vertex 12 0 8
      vertex 10 44 8
      vertex 10 0 8
    endloop
  endfacet
  facet normal 1 -0 0
    outer loop
      vertex 12 0 8
      vertex 12 50 0
      vertex 12 50 8
    endloop
  endfacet
  facet normal 1 0 0
    outer loop
      vertex 12 50 0
      vertex 12 0 8
      vertex 12 0 0
    endloop
  endfacet
  facet normal 0 1 0
    outer loop
      vertex 12 50 8
      vertex 6.46352 50 5.42658
      vertex 0 50 8
    endloop
  endfacet
  facet normal 0 1 0
    outer loop
      vertex 12 50 8
      vertex 7.5 50 4
      vertex 6.46352 50 5.42658
    endloop
  endfacet
  facet normal 0 1 -0
    outer loop
      vertex 12 50 0
      vertex 7.5 50 4
      vertex 12 50 8
    endloop
  endfacet
  facet normal 0 1 0
    outer loop
      vertex 7.5 50 4
      vertex 12 50 0
      vertex 6.46352 50 2.57341
    endloop
  endfacet
  facet normal 0 1 -0
    outer loop
      vertex 4.78647 50 4.88168
      vertex 0 50 8
      vertex 6.46352 50 5.42658
    endloop
  endfacet
  facet normal 0 1 -0
    outer loop
      vertex 4.78647 50 3.11832
      vertex 0 50 8
      vertex 4.78647 50 4.88168
    endloop
  endfacet
  facet normal 0 1 0
    outer loop
      vertex 0 50 0
      vertex 6.46352 50 2.57341
      vertex 12 50 0
    endloop
  endfacet
  facet normal 0 1 0
    outer loop
      vertex 4.78647 50 3.11832
      vertex 0 50 0
      vertex 0 50 8
    endloop
  endfacet
  facet normal 0 1 0
    outer loop
      vertex 6.46352 50 2.57341
      vertex 0 50 0
      vertex 4.78647 50 3.11832
    endloop
  endfacet
  facet normal 0 -1 0
    outer loop
      vertex 0 0 4
      vertex 2 0 8
      vertex 0 0 8
    endloop
  endfacet
  facet normal 0 -1 -0
    outer loop
      vertex 2 0 8
      vertex 0 0 4
      vertex 2 0 4
    endloop
  endfacet
  facet normal 0 -1 0
    outer loop
      vertex 10 0 4
      vertex 12 0 8
      vertex 10 0 8
    endloop
  endfacet
  facet normal 0 -1 0
    outer loop
      vertex 12 0 0
      vertex 10 0 4
      vertex 10 0 0
    endloop
  endfacet
  facet normal 0 -1 0
    outer loop
      vertex 10 0 4
      vertex 12 0 0
      vertex 12 0 8
    endloop
  endfacet
  facet normal 1 0 0
    outer loop
      vertex 2 44 8
      vertex 2 41.62 4
      vertex 2 44 0
    endloop
  endfacet
  facet normal 1 0 0
    outer loop
      vertex 2 44 8
      vertex 2 38.38 4
      vertex 2 41.62 4
    endloop
  endfacet
  facet normal 1 0 0
    outer loop
      vertex 2 38.38 4
      vertex 2 31.62 4
      vertex 2 38.38 0
    endloop
  endfacet
  facet normal 1 0 0
    outer loop
      vertex 2 44 8
      vertex 2 31.62 4
      vertex 2 38.38 4
    endloop
  endfacet
  facet normal 1 0 0
    outer loop
      vertex 2 44 8
      vertex 2 28.38 4
      vertex 2 31.62 4
    endloop
  endfacet
  facet normal 1 0 0
    outer loop
      vertex 2 28.38 4
      vertex 2 21.62 4
      vertex 2 28.38 0
    endloop
  endfacet
  facet normal 1 0 0
    outer loop
      vertex 2 44 8
      vertex 2 21.62 4
      vertex 2 28.38 4
    endloop
  endfacet
  facet normal 1 -0 0
    outer loop
      vertex 2 0 8
      vertex 2 21.62 4
      vertex 2 44 8
    endloop
  endfacet
  facet normal 1 0 0
    outer loop
      vertex 2 18.38 4
      vertex 2 11.62 4
      vertex 2 18.38 0
    endloop
  endfacet
  facet normal 1 0 0
    outer loop
      vertex 2 21.62 4
      vertex 2 0 8
      vertex 2 18.38 4
    endloop
  endfacet
  facet normal 1 0 0
    outer loop
      vertex 2 18.38 4
      vertex 2 0 8
      vertex 2 11.62 4
    endloop
  endfacet
  facet normal 1 0 0
    outer loop
      vertex 2 8.37996 4
      vertex 2 2.62003 4
      vertex 2 8.37996 0
    endloop
  endfacet
  facet normal 1 0 0
    outer loop
      vertex 2 11.62 4
      vertex 2 0 8
      vertex 2 8.37996 4
    endloop
  endfacet
  facet normal 1 0 0
    outer loop
      vertex 2 8.37996 4
      vertex 2 0 8
      vertex 2 2.62003 4
    endloop
  endfacet
  facet normal 1 0 0
    outer loop
      vertex 2 2.62003 4
      vertex 2 0 8
      vertex 2 0 4
    endloop
  endfacet
  facet normal 1 0 0
    outer loop
      vertex 2 44 0
      vertex 2 41.62 4
      vertex 2 41.62 0
    endloop
  endfacet
  facet normal 1 0 0
    outer loop
      vertex 2 38.38 0
      vertex 2 31.62 4
      vertex 2 31.62 0
    endloop
  endfacet
  facet normal 1 0 0
    outer loop
      vertex 2 28.38 0
      vertex 2 21.62 4
      vertex 2 21.62 0
    endloop
  endfacet
  facet normal 1 0 0
    outer loop
      vertex 2 18.38 0
      vertex 2 11.62 4
      vertex 2 11.62 0
    endloop
  endfacet
  facet normal 1 0 0
    outer loop
      vertex 2 8.37996 0
      vertex 2 2.62003 4
      vertex 2 2.62003 0
    endloop
  endfacet
  facet normal 0 -1 0
    outer loop
      vertex 2 44 8
      vertex 6.46352 44 5.42658
      vertex 10 44 8
    endloop
  endfacet
  facet normal 0 -1 0
    outer loop
      vertex 2 44 8
      vertex 4.78647 44 4.88168
      vertex 6.46352 44 5.42658
    endloop
  endfacet
  facet normal 0 -1 0
    outer loop
      vertex 2 44 8
      vertex 4.78647 44 3.11832
      vertex 4.78647 44 4.88168
    endloop
  endfacet
  facet normal 0 -1 -0
    outer loop
      vertex 4.78647 44 3.11832
      vertex 2 44 0
      vertex 6.46352 44 2.57341
    endloop
  endfacet
  facet normal 0 -1 0
    outer loop
      vertex 2 44 0
      vertex 4.78647 44 3.11832
      vertex 2 44 8
    endloop
  endfacet
  facet normal 0 -1 0
    outer loop
      vertex 7.5 44 4
      vertex 10 44 8
      vertex 6.46352 44 5.42658
    endloop
  endfacet
  facet normal 0 -1 0
    outer loop
      vertex 7.5 44 4
      vertex 10 44 0
      vertex 10 44 8
    endloop
  endfacet
  facet normal 0 -1 0
    outer loop
      vertex 6.46352 44 2.57341
      vertex 10 44 0
      vertex 7.5 44 4
    endloop
  endfacet
  facet normal 0 -1 0
    outer loop
      vertex 10 44 0
      vertex 6.46352 44 2.57341
      vertex 2 44 0
    endloop
  endfacet
  facet normal -0.809017 0 -0.587785
    outer loop
      vertex 7.5 44 4
      vertex 6.46352 50 5.42658
      vertex 7.5 50 4
    endloop
  endfacet
  facet normal -0.809017 -0 -0.587785
    outer loop
      vertex 6.46352 50 5.42658
      vertex 7.5 44 4
      vertex 6.46352 44 5.42658
    endloop
  endfacet
  facet normal 0.309017 0 -0.951057
    outer loop
      vertex 4.78647 44 4.88168
      vertex 6.46352 50 5.42658
      vertex 6.46352 44 5.42658
    endloop
  endfacet
  facet normal 0.309017 0 -0.951057
    outer loop
      vertex 6.46352 50 5.42658
      vertex 4.78647 44 4.88168
      vertex 4.78647 50 4.88168
    endloop
  endfacet
  facet normal 1 -0 0
    outer loop
      vertex 4.78647 44 4.88168
      vertex 4.78647 50 3.11832
      vertex 4.78647 50 4.88168
    endloop
  endfacet
  facet normal 1 0 0
    outer loop
      vertex 4.78647 50 3.11832
      vertex 4.78647 44 4.88168
      vertex 4.78647 44 3.11832
    endloop
  endfacet
  facet normal 0.309017 0 0.951057
    outer loop
      vertex 4.78647 50 3.11832
      vertex 6.46352 44 2.57341
      vertex 6.46352 50 2.57341
    endloop
  endfacet
  facet normal 0.309017 0 0.951057
    outer loop
      vertex 6.46352 44 2.57341
      vertex 4.78647 50 3.11832
      vertex 4.78647 44 3.11832
    endloop
  endfacet
  facet normal -0.809017 0 0.587786
    outer loop
      vertex 6.46352 44 2.57341
      vertex 7.5 50 4
      vertex 6.46352 50 2.57341
    endloop
  endfacet
  facet normal -0.809017 0 0.587786
    outer loop
      vertex 7.5 50 4
      vertex 6.46352 44 2.57341
      vertex 7.5 44 4
    endloop
  endfacet
endsolid OpenSCAD_Model
