  0
SECTION
  2
HEADER
  9
$ACADVER
  1
AC1014
  9
$HANDSEED
  5
FFFF
  9
$MEASUREMENT
 70
     1
  0
ENDSEC
  0
SECTION
  2
TABLES
  0
TABLE
  2
VPORT
  5
8
330
0
100
AcDbSymbolTable
 70
     4
  0
VPORT
  5
2E
330
8
100
AcDbSymbolTableRecord
100
AcDbViewportTableRecord
  2
*ACTIVE
 70
     0
 10
0.0
 20
0.0
 11
1.0
 21
1.0
 12
210.0
 22
148.5
 13
0.0
 23
0.0
 14
10.0
 24
10.0
 15
10.0
 25
10.0
 16
0.0
 26
0.0
 36
1.0
 17
0.0
 27
0.0
 37
0.0
 40
341.0
 41
1.24
 42
50.0
 43
0.0
 44
0.0
 50
0.0
 51
0.0
 71
     0
 72
   100
 73
     1
 74
     3
 75
     0
 76
     0
 77
     0
 78
     0
  0
ENDTAB
  0
TABLE
  2
LTYPE
  5
5
330
0
100
AcDbSymbolTable
 70
     1
  0
LTYPE
  5
14
330
5
100
AcDbSymbolTableRecord
100
AcDbLinetypeTableRecord
  2
BYBLOCK
 70
     0
  3

 72
    65
 73
     0
 40
0.0
  0
LTYPE
  5
15
330
5
100
AcDbSymbolTableRecord
100
AcDbLinetypeTableRecord
  2
BYLAYER
 70
     0
  3

 72
    65
 73
     0
 40
0.0
  0
LTYPE
  5
16
330
5
100
AcDbSymbolTableRecord
100
AcDbLinetypeTableRecord
  2
CONTINUOUS
 70
     0
  3
Solid line
 72
    65
 73
     0
 40
0.0
  0
ENDTAB
  0
TABLE
  2
LAYER
  5
2
100
AcDbSymbolTable
 70
2
  0
LAYER
  5
50
100
AcDbSymbolTableRecord
100
AcDbLayerTableRecord
  2
0
 70
0
  6
CONTINUOUS
  0
LAYER
  5
51
100
AcDbSymbolTableRecord
100
AcDbLayerTableRecord
  2
Calque_1
 70
0
  6
CONTINUOUS
  0
ENDTAB
  0
TABLE
  2
STYLE
  5
3
330
0
100
AcDbSymbolTable
 70
     1
  0
STYLE
  5
11
330
3
100
AcDbSymbolTableRecord
100
AcDbTextStyleTableRecord
  2
STANDARD
 70
     0
 40
0.0
 41
1.0
 50
0.0
 71
     0
 42
2.5
  3
txt
  4

  0
ENDTAB
  0
TABLE
  2
VIEW
  5
6
330
0
100
AcDbSymbolTable
 70
     0
  0
ENDTAB
  0
TABLE
  2
UCS
  5
7
330
0
100
AcDbSymbolTable
 70
     0
  0
ENDTAB
  0
TABLE
  2
APPID
  5
9
330
0
100
AcDbSymbolTable
 70
     2
  0
APPID
  5
12
330
9
100
AcDbSymbolTableRecord
100
AcDbRegAppTableRecord
  2
ACAD
 70
     0
  0
ENDTAB
  0
TABLE
  2
DIMSTYLE
  5
A
330
0
100
AcDbSymbolTable
 70
     1
  0
DIMSTYLE
105
27
330
A
100
AcDbSymbolTableRecord
100
AcDbDimStyleTableRecord
  2
ISO-25
 70
     0
  3

  4

  5

  6

  7

 40
1.0
 41
2.5
 42
0.625
 43
3.75
 44
1.25
 45
0.0
 46
0.0
 47
0.0
 48
0.0
140
2.5
141
2.5
142
0.0
143
0.03937007874016
144
1.0
145
0.0
146
1.0
147
0.625
 71
     0
 72
     0
 73
     0
 74
     0
 75
     0
 76
     0
 77
     1
 78
     8
170
     0
171
     3
172
     1
173
     0
174
     0
175
     0
176
     0
177
     0
178
     0
270
     2
271
     2
272
     2
273
     2
274
     3
340
11
275
     0
280
     0
281
     0
282
     0
283
     0
284
     8
285
     0
286
     0
287
     3
288
     0
  0
ENDTAB
  0
TABLE
  2
BLOCK_RECORD
  5
1
330
0
100
AcDbSymbolTable
 70
     1
  0
BLOCK_RECORD
  5
1F
330
1
100
AcDbSymbolTableRecord
100
AcDbBlockTableRecord
  2
*MODEL_SPACE
  0
BLOCK_RECORD
  5
1B
330
1
100
AcDbSymbolTableRecord
100
AcDbBlockTableRecord
  2
*PAPER_SPACE
  0
ENDTAB
  0
ENDSEC
  0
SECTION
  2
BLOCKS
  0
BLOCK
  5
20
330
1F
100
AcDbEntity
  8
0
100
AcDbBlockBegin
  2
*MODEL_SPACE
 70
     0
 10
0.0
 20
0.0
 30
0.0
  3
*MODEL_SPACE
  1

  0
ENDBLK
  5
21
330
1F
100
AcDbEntity
  8
0
100
AcDbBlockEnd
  0
BLOCK
  5
1C
330
1B
100
AcDbEntity
 67
     1
  8
0
100
AcDbBlockBegin
  2
*PAPER_SPACE
  1

  0
ENDBLK
  5
1D
330
1B
100
AcDbEntity
 67
     1
  8
0
100
AcDbBlockEnd
  0
ENDSEC
  0
SECTION
  2
ENTITIES
  0
SPLINE
  5
100
100
AcDbEntity
  8
Calque_1
 62
1
100
AcDbSpline
 70
8
 71
3
 72
8
 73
4
 74
0
 40
0
 40
0
 40
0
 40
0
 40
1
 40
1
 40
1
 40
1
 10
210.892524
 20
87.515349
 30
0.0
 10
210.892524
 20
87.515349
 30
0.0
 10
209.693079
 20
84.701961
 30
0.0
 10
209.693079
 20
84.701961
 30
0.0
  0
SPLINE
  5
101
100
AcDbEntity
  8
Calque_1
 62
1
100
AcDbSpline
 70
8
 71
3
 72
8
 73
4
 74
0
 40
0
 40
0
 40
0
 40
0
 40
1
 40
1
 40
1
 40
1
 10
209.693079
 20
84.701961
 30
0.0
 10
207.214725
 20
84.535512
 30
0.0
 10
204.757262
 20
84.138573
 30
0.0
 10
202.352536
 20
83.516289
 30
0.0
  0
SPLINE
  5
102
100
AcDbEntity
  8
Calque_1
 62
1
100
AcDbSpline
 70
8
 71
3
 72
8
 73
4
 74
0
 40
0
 40
0
 40
0
 40
0
 40
1
 40
1
 40
1
 40
1
 10
197.756519
 20
85.007325
 30
0.0
 10
197.756519
 20
85.007325
 30
0.0
 10
197.484203
 20
81.955797
 30
0.0
 10
197.484203
 20
81.955797
 30
0.0
  0
SPLINE
  5
103
100
AcDbEntity
  8
Calque_1
 62
1
100
AcDbSpline
 70
8
 71
3
 72
8
 73
4
 74
0
 40
0
 40
0
 40
0
 40
0
 40
1
 40
1
 40
1
 40
1
 10
197.484203
 20
81.955797
 30
0.0
 10
195.172488
 20
81.038197
 30
0.0
 10
192.951394
 20
79.906987
 30
0.0
 10
190.849779
 20
78.576863
 30
0.0
  0
LWPOLYLINE
  5
104
100
AcDbEntity
  8
Calque_1
 62
1
100
AcDbPolyline
 90
3
 70
1
 10
202.352536
 20
83.516289
 30
0.0
 10
200.324064
 20
85.841856
 30
0.0
 10
197.756519
 20
85.007325
 30
0.0
  0
SPLINE
  5
105
100
AcDbEntity
  8
Calque_1
 62
1
100
AcDbSpline
 70
8
 71
3
 72
8
 73
4
 74
0
 40
0
 40
0
 40
0
 40
0
 40
1
 40
1
 40
1
 40
1
 10
186.038234
 20
78.562527
 30
0.0
 10
186.038234
 20
78.562527
 30
0.0
 10
186.727782
 20
75.553445
 30
0.0
 10
186.727782
 20
75.553445
 30
0.0
  0
SPLINE
  5
106
100
AcDbEntity
  8
Calque_1
 62
1
100
AcDbSpline
 70
8
 71
3
 72
8
 73
4
 74
0
 40
0
 40
0
 40
0
 40
0
 40
1
 40
1
 40
1
 40
1
 10
186.727782
 20
75.553445
 30
0.0
 10
184.812952
 20
73.973528
 30
0.0
 10
183.049359
 20
72.218786
 30
0.0
 10
181.459828
 20
70.311929
 30
0.0
  0
LWPOLYLINE
  5
107
100
AcDbEntity
  8
Calque_1
 62
1
100
AcDbPolyline
 90
3
 70
1
 10
190.849779
 20
78.576863
 30
0.0
 10
188.222685
 20
80.149462
 30
0.0
 10
186.038234
 20
78.562527
 30
0.0
  0
SPLINE
  5
108
100
AcDbEntity
  8
Calque_1
 62
1
100
AcDbSpline
 70
8
 71
3
 72
8
 73
4
 74
0
 40
0
 40
0
 40
0
 40
0
 40
1
 40
1
 40
1
 40
1
 10
176.885288
 20
68.812087
 30
0.0
 10
176.885288
 20
68.812087
 30
0.0
 10
178.477755
 20
66.151917
 30
0.0
 10
178.477755
 20
66.151917
 30
0.0
  0
SPLINE
  5
109
100
AcDbEntity
  8
Calque_1
 62
1
100
AcDbSpline
 70
8
 71
3
 72
8
 73
4
 74
0
 40
0
 40
0
 40
0
 40
0
 40
1
 40
1
 40
1
 40
1
 10
178.477755
 20
66.151917
 30
0.0
 10
177.150685
 20
64.061245
 30
0.0
 10
176.020623
 20
61.851856
 30
0.0
 10
175.102123
 20
59.552207
 30
0.0
  0
LWPOLYLINE
  5
10a
100
AcDbEntity
  8
Calque_1
 62
1
100
AcDbPolyline
 90
3
 70
1
 10
181.459828
 20
70.311929
 30
0.0
 10
178.472252
 20
70.996544
 30
0.0
 10
176.885288
 20
68.812087
 30
0.0
  0
SPLINE
  5
10b
100
AcDbEntity
  8
Calque_1
 62
1
100
AcDbSpline
 70
8
 71
3
 72
8
 73
4
 74
0
 40
0
 40
0
 40
0
 40
0
 40
1
 40
1
 40
1
 40
1
 10
171.193458
 20
56.710681
 30
0.0
 10
171.193458
 20
56.710681
 30
0.0
 10
173.532798
 20
54.670101
 30
0.0
 10
173.532798
 20
54.670101
 30
0.0
  0
SPLINE
  5
10c
100
AcDbEntity
  8
Calque_1
 62
1
100
AcDbSpline
 70
8
 71
3
 72
8
 73
4
 74
0
 40
0
 40
0
 40
0
 40
0
 40
1
 40
1
 40
1
 40
1
 10
173.532798
 20
54.670101
 30
0.0
 10
172.920265
 20
52.273974
 30
0.0
 10
172.531277
 20
49.826202
 30
0.0
 10
172.370833
 20
47.358231
 30
0.0
  0
LWPOLYLINE
  5
10d
100
AcDbEntity
  8
Calque_1
 62
1
100
AcDbPolyline
 90
3
 70
1
 10
175.102123
 20
59.552207
 30
0.0
 10
172.027425
 20
59.278254
 30
0.0
 10
171.193458
 20
56.710681
 30
0.0
  0
SPLINE
  5
10e
100
AcDbEntity
  8
Calque_1
 62
1
100
AcDbSpline
 70
8
 71
3
 72
8
 73
4
 74
0
 40
0
 40
0
 40
0
 40
0
 40
1
 40
1
 40
1
 40
1
 10
169.519401
 20
43.442398
 30
0.0
 10
169.519401
 20
43.442398
 30
0.0
 10
172.332818
 20
42.242954
 30
0.0
 10
172.332818
 20
42.242954
 30
0.0
  0
SPLINE
  5
10f
100
AcDbEntity
  8
Calque_1
 62
1
100
AcDbSpline
 70
8
 71
3
 72
8
 73
4
 74
0
 40
0
 40
0
 40
0
 40
0
 40
1
 40
1
 40
1
 40
1
 10
172.332818
 20
42.242954
 30
0.0
 10
172.499233
 20
39.764419
 30
0.0
 10
172.896172
 20
37.306775
 30
0.0
 10
173.518490
 20
34.901874
 30
0.0
  0
LWPOLYLINE
  5
110
100
AcDbEntity
  8
Calque_1
 62
1
100
AcDbPolyline
 90
3
 70
1
 10
172.370833
 20
47.358231
 30
0.0
 10
169.519401
 20
46.142249
 30
0.0
 10
169.519401
 20
43.442398
 30
0.0
  0
SPLINE
  5
111
100
AcDbEntity
  8
Calque_1
 62
1
100
AcDbSpline
 70
8
 71
3
 72
8
 73
4
 74
0
 40
0
 40
0
 40
0
 40
0
 40
1
 40
1
 40
1
 40
1
 10
172.027425
 20
30.306365
 30
0.0
 10
172.027425
 20
30.306365
 30
0.0
 10
175.078953
 20
30.034077
 30
0.0
 10
175.078953
 20
30.034077
 30
0.0
  0
SPLINE
  5
112
100
AcDbEntity
  8
Calque_1
 62
1
100
AcDbSpline
 70
8
 71
3
 72
8
 73
4
 74
0
 40
0
 40
0
 40
0
 40
0
 40
1
 40
1
 40
1
 40
1
 10
175.078953
 20
30.034077
 30
0.0
 10
175.996562
 20
27.722361
 30
0.0
 10
177.127782
 20
25.501267
 30
0.0
 10
178.457915
 20
23.399653
 30
0.0
  0
LWPOLYLINE
  5
113
100
AcDbEntity
  8
Calque_1
 62
1
100
AcDbPolyline
 90
3
 70
1
 10
173.518490
 20
34.901874
 30
0.0
 10
171.193458
 20
32.873938
 30
0.0
 10
172.027425
 20
30.306365
 30
0.0
  0
SPLINE
  5
114
100
AcDbEntity
  8
Calque_1
 62
1
100
AcDbSpline
 70
8
 71
3
 72
8
 73
4
 74
0
 40
0
 40
0
 40
0
 40
0
 40
1
 40
1
 40
1
 40
1
 10
178.472252
 20
18.588103
 30
0.0
 10
178.472252
 20
18.588103
 30
0.0
 10
181.480769
 20
19.277657
 30
0.0
 10
181.480769
 20
19.277657
 30
0.0
  0
SPLINE
  5
115
100
AcDbEntity
  8
Calque_1
 62
1
100
AcDbSpline
 70
8
 71
3
 72
8
 73
4
 74
0
 40
0
 40
0
 40
0
 40
0
 40
1
 40
1
 40
1
 40
1
 10
181.480769
 20
19.277657
 30
0.0
 10
183.060837
 20
17.362613
 30
0.0
 10
184.815768
 20
15.598836
 30
0.0
 10
186.722843
 20
14.009160
 30
0.0
  0
LWPOLYLINE
  5
116
100
AcDbEntity
  8
Calque_1
 62
1
100
AcDbPolyline
 90
3
 70
1
 10
178.457915
 20
23.399653
 30
0.0
 10
176.885288
 20
20.772559
 30
0.0
 10
178.472252
 20
18.588103
 30
0.0
  0
SPLINE
  5
117
100
AcDbEntity
  8
Calque_1
 62
1
100
AcDbSpline
 70
8
 71
3
 72
8
 73
4
 74
0
 40
0
 40
0
 40
0
 40
0
 40
1
 40
1
 40
1
 40
1
 10
188.222685
 20
9.435157
 30
0.0
 10
188.222685
 20
9.435157
 30
0.0
 10
190.882291
 20
11.027624
 30
0.0
 10
190.882291
 20
11.027624
 30
0.0
  0
SPLINE
  5
118
100
AcDbEntity
  8
Calque_1
 62
1
100
AcDbSpline
 70
8
 71
3
 72
8
 73
4
 74
0
 40
0
 40
0
 40
0
 40
0
 40
1
 40
1
 40
1
 40
1
 10
190.882291
 20
11.027624
 30
0.0
 10
192.973122
 20
9.700328
 30
0.0
 10
195.182702
 20
8.570076
 30
0.0
 10
197.482566
 20
7.651427
 30
0.0
  0
LWPOLYLINE
  5
119
100
AcDbEntity
  8
Calque_1
 62
1
100
AcDbPolyline
 90
3
 70
1
 10
186.722843
 20
14.009160
 30
0.0
 10
186.038234
 20
11.022120
 30
0.0
 10
188.222685
 20
9.435157
 30
0.0
  0
SPLINE
  5
11a
100
AcDbEntity
  8
Calque_1
 62
1
100
AcDbSpline
 70
8
 71
3
 72
8
 73
4
 74
0
 40
0
 40
0
 40
0
 40
0
 40
1
 40
1
 40
1
 40
1
 10
200.324064
 20
3.742763
 30
0.0
 10
200.324064
 20
3.742763
 30
0.0
 10
202.364671
 20
6.082667
 30
0.0
 10
202.364671
 20
6.082667
 30
0.0
  0
SPLINE
  5
11b
100
AcDbEntity
  8
Calque_1
 62
1
100
AcDbSpline
 70
8
 71
3
 72
8
 73
4
 74
0
 40
0
 40
0
 40
0
 40
0
 40
1
 40
1
 40
1
 40
1
 10
202.364671
 20
6.082667
 30
0.0
 10
204.760798
 20
5.470133
 30
0.0
 10
207.208570
 20
5.081146
 30
0.0
 10
209.676541
 20
4.920702
 30
0.0
  0
LWPOLYLINE
  5
11c
100
AcDbEntity
  8
Calque_1
 62
1
100
AcDbPolyline
 90
3
 70
1
 10
197.482566
 20
7.651427
 30
0.0
 10
197.756519
 20
4.577294
 30
0.0
 10
200.324064
 20
3.742763
 30
0.0
  0
SPLINE
  5
11d
100
AcDbEntity
  8
Calque_1
 62
1
100
AcDbSpline
 70
8
 71
3
 72
8
 73
4
 74
0
 40
0
 40
0
 40
0
 40
0
 40
1
 40
1
 40
1
 40
1
 10
214.791819
 20
4.882686
 30
0.0
 10
217.270336
 20
5.048917
 30
0.0
 10
219.727980
 20
5.445667
 30
0.0
 10
222.132899
 20
6.067794
 30
0.0
  0
LWPOLYLINE
  5
11e
100
AcDbEntity
  8
Calque_1
 62
1
100
AcDbPolyline
 90
4
 70
1
 10
209.676541
 20
4.920702
 30
0.0
 10
210.892524
 20
2.069269
 30
0.0
 10
213.592375
 20
2.069269
 30
0.0
 10
214.791819
 20
4.882686
 30
0.0
  0
SPLINE
  5
11f
100
AcDbEntity
  8
Calque_1
 62
1
100
AcDbSpline
 70
8
 71
3
 72
8
 73
4
 74
0
 40
0
 40
0
 40
0
 40
0
 40
1
 40
1
 40
1
 40
1
 10
226.728380
 20
4.577294
 30
0.0
 10
226.728380
 20
4.577294
 30
0.0
 10
227.000696
 20
7.628821
 30
0.0
 10
227.000696
 20
7.628821
 30
0.0
  0
SPLINE
  5
120
100
AcDbEntity
  8
Calque_1
 62
1
100
AcDbSpline
 70
8
 71
3
 72
8
 73
4
 74
0
 40
0
 40
0
 40
0
 40
0
 40
1
 40
1
 40
1
 40
1
 10
227.000696
 20
7.628821
 30
0.0
 10
229.312412
 20
8.546431
 30
0.0
 10
231.533505
 20
9.677650
 30
0.0
 10
233.635119
 20
11.007783
 30
0.0
  0
LWPOLYLINE
  5
121
100
AcDbEntity
  8
Calque_1
 62
1
100
AcDbPolyline
 90
3
 70
1
 10
222.132899
 20
6.067794
 30
0.0
 10
224.160835
 20
3.742763
 30
0.0
 10
226.728380
 20
4.577294
 30
0.0
  0
SPLINE
  5
122
100
AcDbEntity
  8
Calque_1
 62
1
100
AcDbSpline
 70
8
 71
3
 72
8
 73
4
 74
0
 40
0
 40
0
 40
0
 40
0
 40
1
 40
1
 40
1
 40
1
 10
238.446670
 20
11.022120
 30
0.0
 10
238.446670
 20
11.022120
 30
0.0
 10
237.757652
 20
14.030101
 30
0.0
 10
237.757652
 20
14.030101
 30
0.0
  0
SPLINE
  5
123
100
AcDbEntity
  8
Calque_1
 62
1
100
AcDbSpline
 70
8
 71
3
 72
8
 73
4
 74
0
 40
0
 40
0
 40
0
 40
0
 40
1
 40
1
 40
1
 40
1
 10
237.757652
 20
14.030101
 30
0.0
 10
239.672533
 20
15.610357
 30
0.0
 10
241.436130
 20
17.365460
 30
0.0
 10
243.025612
 20
19.272689
 30
0.0
  0
LWPOLYLINE
  5
124
100
AcDbEntity
  8
Calque_1
 62
1
100
AcDbPolyline
 90
3
 70
1
 10
233.635119
 20
11.007783
 30
0.0
 10
236.262749
 20
9.435157
 30
0.0
 10
238.446670
 20
11.022120
 30
0.0
  0
SPLINE
  5
125
100
AcDbEntity
  8
Calque_1
 62
1
100
AcDbSpline
 70
8
 71
3
 72
8
 73
4
 74
0
 40
0
 40
0
 40
0
 40
0
 40
1
 40
1
 40
1
 40
1
 10
247.599588
 20
20.772559
 30
0.0
 10
247.599588
 20
20.772559
 30
0.0
 10
246.007685
 20
23.432165
 30
0.0
 10
246.007685
 20
23.432165
 30
0.0
  0
SPLINE
  5
126
100
AcDbEntity
  8
Calque_1
 62
1
100
AcDbSpline
 70
8
 71
3
 72
8
 73
4
 74
0
 40
0
 40
0
 40
0
 40
0
 40
1
 40
1
 40
1
 40
1
 10
246.007685
 20
23.432165
 30
0.0
 10
247.334785
 20
25.523009
 30
0.0
 10
248.464847
 20
27.732578
 30
0.0
 10
249.383317
 20
30.032412
 30
0.0
  0
LWPOLYLINE
  5
127
100
AcDbEntity
  8
Calque_1
 62
1
100
AcDbPolyline
 90
3
 70
1
 10
243.025612
 20
19.272689
 30
0.0
 10
246.013189
 20
18.588103
 30
0.0
 10
247.599588
 20
20.772559
 30
0.0
  0
SPLINE
  5
128
100
AcDbEntity
  8
Calque_1
 62
1
100
AcDbSpline
 70
8
 71
3
 72
8
 73
4
 74
0
 40
0
 40
0
 40
0
 40
0
 40
1
 40
1
 40
1
 40
1
 10
253.292010
 20
32.873938
 30
0.0
 10
253.292010
 20
32.873938
 30
0.0
 10
250.952077
 20
34.914546
 30
0.0
 10
250.952077
 20
34.914546
 30
0.0
  0
SPLINE
  5
129
100
AcDbEntity
  8
Calque_1
 62
1
100
AcDbSpline
 70
8
 71
3
 72
8
 73
4
 74
0
 40
0
 40
0
 40
0
 40
0
 40
1
 40
1
 40
1
 40
1
 10
250.952077
 20
34.914546
 30
0.0
 10
251.564611
 20
37.310673
 30
0.0
 10
251.953599
 20
39.758445
 30
0.0
 10
252.114043
 20
42.226415
 30
0.0
  0
LWPOLYLINE
  5
12a
100
AcDbEntity
  8
Calque_1
 62
1
100
AcDbPolyline
 90
3
 70
1
 10
249.383317
 20
30.032412
 30
0.0
 10
252.457451
 20
30.306365
 30
0.0
 10
253.292010
 20
32.873938
 30
0.0
  0
SPLINE
  5
12b
100
AcDbEntity
  8
Calque_1
 62
1
100
AcDbSpline
 70
8
 71
3
 72
8
 73
4
 74
0
 40
0
 40
0
 40
0
 40
0
 40
1
 40
1
 40
1
 40
1
 10
254.966039
 20
46.142249
 30
0.0
 10
254.966039
 20
46.142249
 30
0.0
 10
252.152086
 20
47.341693
 30
0.0
 10
252.152086
 20
47.341693
 30
0.0
  0
SPLINE
  5
12c
100
AcDbEntity
  8
Calque_1
 62
1
100
AcDbSpline
 70
8
 71
3
 72
8
 73
4
 74
0
 40
0
 40
0
 40
0
 40
0
 40
1
 40
1
 40
1
 40
1
 10
252.152086
 20
47.341693
 30
0.0
 10
251.985671
 20
49.820228
 30
0.0
 10
251.588732
 20
52.277872
 30
0.0
 10
250.966414
 20
54.682773
 30
0.0
  0
LWPOLYLINE
  5
12d
100
AcDbEntity
  8
Calque_1
 62
1
100
AcDbPolyline
 90
3
 70
1
 10
252.114043
 20
42.226415
 30
0.0
 10
254.966039
 20
43.442398
 30
0.0
 10
254.966039
 20
46.142249
 30
0.0
  0
SPLINE
  5
12e
100
AcDbEntity
  8
Calque_1
 62
1
100
AcDbSpline
 70
8
 71
3
 72
8
 73
4
 74
0
 40
0
 40
0
 40
0
 40
0
 40
1
 40
1
 40
1
 40
1
 10
252.457451
 20
59.278254
 30
0.0
 10
252.457451
 20
59.278254
 30
0.0
 10
249.405923
 20
59.550542
 30
0.0
 10
249.405923
 20
59.550542
 30
0.0
  0
SPLINE
  5
12f
100
AcDbEntity
  8
Calque_1
 62
1
100
AcDbSpline
 70
8
 71
3
 72
8
 73
4
 74
0
 40
0
 40
0
 40
0
 40
0
 40
1
 40
1
 40
1
 40
1
 10
249.405923
 20
59.550542
 30
0.0
 10
248.488325
 20
61.862266
 30
0.0
 10
247.357114
 20
64.083369
 30
0.0
 10
246.026989
 20
66.184994
 30
0.0
  0
LWPOLYLINE
  5
130
100
AcDbEntity
  8
Calque_1
 62
1
100
AcDbPolyline
 90
3
 70
1
 10
250.966414
 20
54.682773
 30
0.0
 10
253.292010
 20
56.710681
 30
0.0
 10
252.457451
 20
59.278254
 30
0.0
  0
SPLINE
  5
131
100
AcDbEntity
  8
Calque_1
 62
1
100
AcDbSpline
 70
8
 71
3
 72
8
 73
4
 74
0
 40
0
 40
0
 40
0
 40
0
 40
1
 40
1
 40
1
 40
1
 10
246.013189
 20
70.996544
 30
0.0
 10
246.013189
 20
70.996544
 30
0.0
 10
243.004107
 20
70.306962
 30
0.0
 10
243.004107
 20
70.306962
 30
0.0
  0
SPLINE
  5
132
100
AcDbEntity
  8
Calque_1
 62
1
100
AcDbSpline
 70
8
 71
3
 72
8
 73
4
 74
0
 40
0
 40
0
 40
0
 40
0
 40
1
 40
1
 40
1
 40
1
 10
243.004107
 20
70.306962
 30
0.0
 10
241.424048
 20
72.222015
 30
0.0
 10
239.669124
 20
73.985801
 30
0.0
 10
237.762055
 20
75.575487
 30
0.0
  0
LWPOLYLINE
  5
133
100
AcDbEntity
  8
Calque_1
 62
1
100
AcDbPolyline
 90
3
 70
1
 10
246.026989
 20
66.184994
 30
0.0
 10
247.599588
 20
68.812087
 30
0.0
 10
246.013189
 20
70.996544
 30
0.0
  0
SPLINE
  5
134
100
AcDbEntity
  8
Calque_1
 62
1
100
AcDbSpline
 70
8
 71
3
 72
8
 73
4
 74
0
 40
0
 40
0
 40
0
 40
0
 40
1
 40
1
 40
1
 40
1
 10
233.602579
 20
78.556995
 30
0.0
 10
231.511737
 20
79.884104
 30
0.0
 10
229.302167
 20
81.014176
 30
0.0
 10
227.002333
 20
81.932655
 30
0.0
  0
LWPOLYLINE
  5
135
100
AcDbEntity
  8
Calque_1
 62
1
100
AcDbPolyline
 90
4
 70
1
 10
237.762055
 20
75.575487
 30
0.0
 10
238.446670
 20
78.562527
 30
0.0
 10
236.262749
 20
80.149462
 30
0.0
 10
233.602579
 20
78.556995
 30
0.0
  0
SPLINE
  5
136
100
AcDbEntity
  8
Calque_1
 62
1
100
AcDbSpline
 70
8
 71
3
 72
8
 73
4
 74
0
 40
0
 40
0
 40
0
 40
0
 40
1
 40
1
 40
1
 40
1
 10
224.160835
 20
85.841856
 30
0.0
 10
224.160835
 20
85.841856
 30
0.0
 10
222.120227
 20
83.501952
 30
0.0
 10
222.120227
 20
83.501952
 30
0.0
  0
SPLINE
  5
137
100
AcDbEntity
  8
Calque_1
 62
1
100
AcDbSpline
 70
8
 71
3
 72
8
 73
4
 74
0
 40
0
 40
0
 40
0
 40
0
 40
1
 40
1
 40
1
 40
1
 10
222.120227
 20
83.501952
 30
0.0
 10
219.724100
 20
84.114485
 30
0.0
 10
217.276328
 20
84.503473
 30
0.0
 10
214.808357
 20
84.663917
 30
0.0
  0
LWPOLYLINE
  5
138
100
AcDbEntity
  8
Calque_1
 62
1
100
AcDbPolyline
 90
3
 70
1
 10
227.002333
 20
81.932655
 30
0.0
 10
226.728380
 20
85.007325
 30
0.0
 10
224.160835
 20
85.841856
 30
0.0
  0
SPLINE
  5
139
100
AcDbEntity
  8
Calque_1
 62
1
100
AcDbSpline
 70
8
 71
3
 72
8
 73
4
 74
0
 40
0
 40
0
 40
0
 40
0
 40
1
 40
1
 40
1
 40
1
 10
199.242611
 20
78.792323
 30
0.0
 10
199.242611
 20
78.527106
 30
0.0
 10
199.137254
 20
78.272752
 30
0.0
 10
198.949717
 20
78.085216
 30
0.0
  0
SPLINE
  5
13a
100
AcDbEntity
  8
Calque_1
 62
1
100
AcDbSpline
 70
8
 71
3
 72
8
 73
4
 74
0
 40
0
 40
0
 40
0
 40
0
 40
1
 40
1
 40
1
 40
1
 10
198.949717
 20
78.085216
 30
0.0
 10
198.762181
 20
77.897679
 30
0.0
 10
198.507827
 20
77.792322
 30
0.0
 10
198.242610
 20
77.792322
 30
0.0
  0
SPLINE
  5
13b
100
AcDbEntity
  8
Calque_1
 62
1
100
AcDbSpline
 70
8
 71
3
 72
8
 73
4
 74
0
 40
0
 40
0
 40
0
 40
0
 40
1
 40
1
 40
1
 40
1
 10
198.242610
 20
77.792322
 30
0.0
 10
197.690326
 20
77.792323
 30
0.0
 10
197.242611
 20
78.240039
 30
0.0
 10
197.242612
 20
78.792323
 30
0.0
  0
SPLINE
  5
13c
100
AcDbEntity
  8
Calque_1
 62
1
100
AcDbSpline
 70
8
 71
3
 72
8
 73
4
 74
0
 40
0
 40
0
 40
0
 40
0
 40
1
 40
1
 40
1
 40
1
 10
197.242612
 20
78.792323
 30
0.0
 10
197.242613
 20
79.344606
 30
0.0
 10
197.690327
 20
79.792320
 30
0.0
 10
198.242610
 20
79.792321
 30
0.0
  0
SPLINE
  5
13d
100
AcDbEntity
  8
Calque_1
 62
1
100
AcDbSpline
 70
8
 71
3
 72
8
 73
4
 74
0
 40
0
 40
0
 40
0
 40
0
 40
1
 40
1
 40
1
 40
1
 10
198.242610
 20
79.792321
 30
0.0
 10
198.794894
 20
79.792322
 30
0.0
 10
199.242610
 20
79.344607
 30
0.0
 10
199.242611
 20
78.792323
 30
0.0
  0
LWPOLYLINE
  5
13e
100
AcDbEntity
  8
Calque_1
 62
1
100
AcDbPolyline
 90
4
 70
1
 10
214.808357
 20
84.663917
 30
0.0
 10
213.592375
 20
87.515349
 30
0.0
 10
210.892524
 20
87.515349
 30
0.0
 10
210.892524
 20
87.515349
 30
0.0
  0
SPLINE
  5
13f
100
AcDbEntity
  8
Calque_1
 62
1
100
AcDbSpline
 70
8
 71
3
 72
8
 73
4
 74
0
 40
0
 40
0
 40
0
 40
0
 40
1
 40
1
 40
1
 40
1
 10
247.242611
 20
58.792166
 30
0.0
 10
247.242611
 20
58.526949
 30
0.0
 10
247.137254
 20
58.272595
 30
0.0
 10
246.949717
 20
58.085058
 30
0.0
  0
SPLINE
  5
140
100
AcDbEntity
  8
Calque_1
 62
1
100
AcDbSpline
 70
8
 71
3
 72
8
 73
4
 74
0
 40
0
 40
0
 40
0
 40
0
 40
1
 40
1
 40
1
 40
1
 10
246.949717
 20
58.085058
 30
0.0
 10
246.762181
 20
57.897521
 30
0.0
 10
246.507827
 20
57.792165
 30
0.0
 10
246.242610
 20
57.792165
 30
0.0
  0
SPLINE
  5
141
100
AcDbEntity
  8
Calque_1
 62
1
100
AcDbSpline
 70
8
 71
3
 72
8
 73
4
 74
0
 40
0
 40
0
 40
0
 40
0
 40
1
 40
1
 40
1
 40
1
 10
246.242610
 20
57.792165
 30
0.0
 10
245.977393
 20
57.792165
 30
0.0
 10
245.723039
 20
57.897521
 30
0.0
 10
245.535502
 20
58.085058
 30
0.0
  0
SPLINE
  5
142
100
AcDbEntity
  8
Calque_1
 62
1
100
AcDbSpline
 70
8
 71
3
 72
8
 73
4
 74
0
 40
0
 40
0
 40
0
 40
0
 40
1
 40
1
 40
1
 40
1
 10
245.535502
 20
58.085058
 30
0.0
 10
245.347966
 20
58.272595
 30
0.0
 10
245.242609
 20
58.526949
 30
0.0
 10
245.242609
 20
58.792166
 30
0.0
  0
SPLINE
  5
143
100
AcDbEntity
  8
Calque_1
 62
1
100
AcDbSpline
 70
8
 71
3
 72
8
 73
4
 74
0
 40
0
 40
0
 40
0
 40
0
 40
1
 40
1
 40
1
 40
1
 10
245.242609
 20
58.792166
 30
0.0
 10
245.242610
 20
59.344450
 30
0.0
 10
245.690326
 20
59.792164
 30
0.0
 10
246.242610
 20
59.792164
 30
0.0
  0
SPLINE
  5
144
100
AcDbEntity
  8
Calque_1
 62
1
100
AcDbSpline
 70
8
 71
3
 72
8
 73
4
 74
0
 40
0
 40
0
 40
0
 40
0
 40
1
 40
1
 40
1
 40
1
 10
246.242610
 20
59.792164
 30
0.0
 10
246.794894
 20
59.792164
 30
0.0
 10
247.242610
 20
59.344450
 30
0.0
 10
247.242611
 20
58.792166
 30
0.0
  0
LWPOLYLINE
  5
145
100
AcDbEntity
  8
Calque_1
 62
1
100
AcDbPolyline
 90
2
 70
1
 10
199.242611
 20
78.792323
 30
0.0
 10
199.242611
 20
78.792323
 30
0.0
  0
SPLINE
  5
146
100
AcDbEntity
  8
Calque_1
 62
1
100
AcDbSpline
 70
8
 71
3
 72
8
 73
4
 74
0
 40
0
 40
0
 40
0
 40
0
 40
1
 40
1
 40
1
 40
1
 10
227.242591
 20
10.792157
 30
0.0
 10
227.242592
 20
10.526940
 30
0.0
 10
227.137235
 20
10.272586
 30
0.0
 10
226.949698
 20
10.085050
 30
0.0
  0
SPLINE
  5
147
100
AcDbEntity
  8
Calque_1
 62
1
100
AcDbSpline
 70
8
 71
3
 72
8
 73
4
 74
0
 40
0
 40
0
 40
0
 40
0
 40
1
 40
1
 40
1
 40
1
 10
226.949698
 20
10.085050
 30
0.0
 10
226.762162
 20
9.897513
 30
0.0
 10
226.507807
 20
9.792156
 30
0.0
 10
226.242591
 20
9.792156
 30
0.0
  0
SPLINE
  5
148
100
AcDbEntity
  8
Calque_1
 62
1
100
AcDbSpline
 70
8
 71
3
 72
8
 73
4
 74
0
 40
0
 40
0
 40
0
 40
0
 40
1
 40
1
 40
1
 40
1
 10
226.242591
 20
9.792156
 30
0.0
 10
225.977374
 20
9.792156
 30
0.0
 10
225.723020
 20
9.897513
 30
0.0
 10
225.535483
 20
10.085050
 30
0.0
  0
SPLINE
  5
149
100
AcDbEntity
  8
Calque_1
 62
1
100
AcDbSpline
 70
8
 71
3
 72
8
 73
4
 74
0
 40
0
 40
0
 40
0
 40
0
 40
1
 40
1
 40
1
 40
1
 10
225.535483
 20
10.085050
 30
0.0
 10
225.347946
 20
10.272586
 30
0.0
 10
225.242589
 20
10.526940
 30
0.0
 10
225.242590
 20
10.792157
 30
0.0
  0
SPLINE
  5
14a
100
AcDbEntity
  8
Calque_1
 62
1
100
AcDbSpline
 70
8
 71
3
 72
8
 73
4
 74
0
 40
0
 40
0
 40
0
 40
0
 40
1
 40
1
 40
1
 40
1
 10
225.242590
 20
10.792157
 30
0.0
 10
225.242589
 20
11.057374
 30
0.0
 10
225.347946
 20
11.311728
 30
0.0
 10
225.535483
 20
11.499265
 30
0.0
  0
SPLINE
  5
14b
100
AcDbEntity
  8
Calque_1
 62
1
100
AcDbSpline
 70
8
 71
3
 72
8
 73
4
 74
0
 40
0
 40
0
 40
0
 40
0
 40
1
 40
1
 40
1
 40
1
 10
225.535483
 20
11.499265
 30
0.0
 10
225.723020
 20
11.686801
 30
0.0
 10
225.977374
 20
11.792158
 30
0.0
 10
226.242591
 20
11.792158
 30
0.0
  0
SPLINE
  5
14c
100
AcDbEntity
  8
Calque_1
 62
1
100
AcDbSpline
 70
8
 71
3
 72
8
 73
4
 74
0
 40
0
 40
0
 40
0
 40
0
 40
1
 40
1
 40
1
 40
1
 10
226.242591
 20
11.792158
 30
0.0
 10
226.507807
 20
11.792158
 30
0.0
 10
226.762162
 20
11.686801
 30
0.0
 10
226.949698
 20
11.499265
 30
0.0
  0
SPLINE
  5
14d
100
AcDbEntity
  8
Calque_1
 62
1
100
AcDbSpline
 70
8
 71
3
 72
8
 73
4
 74
0
 40
0
 40
0
 40
0
 40
0
 40
1
 40
1
 40
1
 40
1
 10
226.949698
 20
11.499265
 30
0.0
 10
227.137235
 20
11.311728
 30
0.0
 10
227.242592
 20
11.057374
 30
0.0
 10
227.242591
 20
10.792157
 30
0.0
  0
LWPOLYLINE
  5
14e
100
AcDbEntity
  8
Calque_1
 62
1
100
AcDbPolyline
 90
2
 70
1
 10
247.242611
 20
58.792166
 30
0.0
 10
247.242611
 20
58.792166
 30
0.0
  0
SPLINE
  5
14f
100
AcDbEntity
  8
Calque_1
 62
1
100
AcDbSpline
 70
8
 71
3
 72
8
 73
4
 74
0
 40
0
 40
0
 40
0
 40
0
 40
1
 40
1
 40
1
 40
1
 10
179.192621
 20
30.742164
 30
0.0
 10
179.192621
 20
30.476947
 30
0.0
 10
179.087264
 20
30.222593
 30
0.0
 10
178.899728
 20
30.035056
 30
0.0
  0
SPLINE
  5
150
100
AcDbEntity
  8
Calque_1
 62
1
100
AcDbSpline
 70
8
 71
3
 72
8
 73
4
 74
0
 40
0
 40
0
 40
0
 40
0
 40
1
 40
1
 40
1
 40
1
 10
178.899728
 20
30.035056
 30
0.0
 10
178.712191
 20
29.847520
 30
0.0
 10
178.457837
 20
29.742163
 30
0.0
 10
178.192620
 20
29.742163
 30
0.0
  0
SPLINE
  5
151
100
AcDbEntity
  8
Calque_1
 62
1
100
AcDbSpline
 70
8
 71
3
 72
8
 73
4
 74
0
 40
0
 40
0
 40
0
 40
0
 40
1
 40
1
 40
1
 40
1
 10
178.192620
 20
29.742163
 30
0.0
 10
177.927404
 20
29.742163
 30
0.0
 10
177.673049
 20
29.847520
 30
0.0
 10
177.485513
 20
30.035056
 30
0.0
  0
SPLINE
  5
152
100
AcDbEntity
  8
Calque_1
 62
1
100
AcDbSpline
 70
8
 71
3
 72
8
 73
4
 74
0
 40
0
 40
0
 40
0
 40
0
 40
1
 40
1
 40
1
 40
1
 10
177.485513
 20
30.035056
 30
0.0
 10
177.297976
 20
30.222593
 30
0.0
 10
177.192619
 20
30.476947
 30
0.0
 10
177.192619
 20
30.742164
 30
0.0
  0
SPLINE
  5
153
100
AcDbEntity
  8
Calque_1
 62
1
100
AcDbSpline
 70
8
 71
3
 72
8
 73
4
 74
0
 40
0
 40
0
 40
0
 40
0
 40
1
 40
1
 40
1
 40
1
 10
177.192619
 20
30.742164
 30
0.0
 10
177.192621
 20
31.294448
 30
0.0
 10
177.640336
 20
31.742162
 30
0.0
 10
178.192620
 20
31.742162
 30
0.0
  0
SPLINE
  5
154
100
AcDbEntity
  8
Calque_1
 62
1
100
AcDbSpline
 70
8
 71
3
 72
8
 73
4
 74
0
 40
0
 40
0
 40
0
 40
0
 40
1
 40
1
 40
1
 40
1
 10
178.192620
 20
31.742162
 30
0.0
 10
178.744905
 20
31.742162
 30
0.0
 10
179.192620
 20
31.294448
 30
0.0
 10
179.192621
 20
30.742164
 30
0.0
  0
LWPOLYLINE
  5
155
100
AcDbEntity
  8
Calque_1
 62
1
100
AcDbPolyline
 90
2
 70
1
 10
227.242591
 20
10.792157
 30
0.0
 10
227.242591
 20
10.792157
 30
0.0
  0
SPLINE
  5
156
100
AcDbEntity
  8
Calque_1
 62
1
100
AcDbSpline
 70
8
 71
3
 72
8
 73
4
 74
0
 40
0
 40
0
 40
0
 40
0
 40
1
 40
1
 40
1
 40
1
 10
40.005035
 20
85.487701
 30
0.0
 10
29.396365
 20
85.487711
 30
0.0
 10
19.222195
 20
81.273438
 30
0.0
 10
11.720731
 20
73.771975
 30
0.0
  0
SPLINE
  5
157
100
AcDbEntity
  8
Calque_1
 62
1
100
AcDbSpline
 70
8
 71
3
 72
8
 73
4
 74
0
 40
0
 40
0
 40
0
 40
0
 40
1
 40
1
 40
1
 40
1
 10
11.720731
 20
73.771975
 30
0.0
 10
4.219268
 20
66.270513
 30
0.0
 10
0.004992
 20
56.096344
 30
0.0
 10
0.005000
 20
45.487674
 30
0.0
  0
SPLINE
  5
158
100
AcDbEntity
  8
Calque_1
 62
1
100
AcDbSpline
 70
8
 71
3
 72
8
 73
4
 74
0
 40
0
 40
0
 40
0
 40
0
 40
1
 40
1
 40
1
 40
1
 10
0.005000
 20
45.487674
 30
0.0
 10
0.004989
 20
34.879001
 30
0.0
 10
4.219263
 20
24.704830
 30
0.0
 10
11.720727
 20
17.203365
 30
0.0
  0
SPLINE
  5
159
100
AcDbEntity
  8
Calque_1
 62
1
100
AcDbSpline
 70
8
 71
3
 72
8
 73
4
 74
0
 40
0
 40
0
 40
0
 40
0
 40
1
 40
1
 40
1
 40
1
 10
11.720727
 20
17.203365
 30
0.0
 10
19.222191
 20
9.701900
 30
0.0
 10
29.396363
 20
5.487626
 30
0.0
 10
40.005035
 20
5.487635
 30
0.0
  0
SPLINE
  5
15a
100
AcDbEntity
  8
Calque_1
 62
1
100
AcDbSpline
 70
8
 71
3
 72
8
 73
4
 74
0
 40
0
 40
0
 40
0
 40
0
 40
1
 40
1
 40
1
 40
1
 10
40.005035
 20
5.487635
 30
0.0
 10
50.613712
 20
5.487620
 30
0.0
 10
60.787889
 20
9.701892
 30
0.0
 10
68.289358
 20
17.203357
 30
0.0
  0
SPLINE
  5
15b
100
AcDbEntity
  8
Calque_1
 62
1
100
AcDbSpline
 70
8
 71
3
 72
8
 73
4
 74
0
 40
0
 40
0
 40
0
 40
0
 40
1
 40
1
 40
1
 40
1
 10
68.289358
 20
17.203357
 30
0.0
 10
75.790827
 20
24.704822
 30
0.0
 10
80.005104
 20
34.878997
 30
0.0
 10
80.005093
 20
45.487674
 30
0.0
  0
SPLINE
  5
15c
100
AcDbEntity
  8
Calque_1
 62
1
100
AcDbSpline
 70
8
 71
3
 72
8
 73
4
 74
0
 40
0
 40
0
 40
0
 40
0
 40
1
 40
1
 40
1
 40
1
 10
80.005093
 20
45.487674
 30
0.0
 10
80.005101
 20
56.096348
 30
0.0
 10
75.790823
 20
66.270521
 30
0.0
 10
68.289354
 20
73.771984
 30
0.0
  0
SPLINE
  5
15d
100
AcDbEntity
  8
Calque_1
 62
1
100
AcDbSpline
 70
8
 71
3
 72
8
 73
4
 74
0
 40
0
 40
0
 40
0
 40
0
 40
1
 40
1
 40
1
 40
1
 10
68.289354
 20
73.771984
 30
0.0
 10
60.787885
 20
81.273446
 30
0.0
 10
50.613710
 20
85.487717
 30
0.0
 10
40.005035
 20
85.487701
 30
0.0
  0
LWPOLYLINE
  5
15e
100
AcDbEntity
  8
Calque_1
 62
1
100
AcDbPolyline
 90
2
 70
1
 10
179.192621
 20
30.742164
 30
0.0
 10
179.192621
 20
30.742164
 30
0.0
  0
SPLINE
  5
15f
100
AcDbEntity
  8
Calque_1
 62
1
100
AcDbSpline
 70
8
 71
3
 72
8
 73
4
 74
0
 40
0
 40
0
 40
0
 40
0
 40
1
 40
1
 40
1
 40
1
 10
40.055214
 20
78.954708
 30
0.0
 10
48.944541
 20
78.954756
 30
0.0
 10
57.469797
 20
75.423506
 30
0.0
 10
63.755500
 20
69.137802
 30
0.0
  0
SPLINE
  5
160
100
AcDbEntity
  8
Calque_1
 62
1
100
AcDbSpline
 70
8
 71
3
 72
8
 73
4
 74
0
 40
0
 40
0
 40
0
 40
0
 40
1
 40
1
 40
1
 40
1
 10
63.755500
 20
69.137802
 30
0.0
 10
70.041203
 20
62.852098
 30
0.0
 10
73.572452
 20
54.326841
 30
0.0
 10
73.572402
 20
45.437514
 30
0.0
  0
SPLINE
  5
161
100
AcDbEntity
  8
Calque_1
 62
1
100
AcDbSpline
 70
8
 71
3
 72
8
 73
4
 74
0
 40
0
 40
0
 40
0
 40
0
 40
1
 40
1
 40
1
 40
1
 10
73.572402
 20
45.437514
 30
0.0
 10
73.572452
 20
36.548187
 30
0.0
 10
70.041204
 20
28.022929
 30
0.0
 10
63.755501
 20
21.737225
 30
0.0
  0
SPLINE
  5
162
100
AcDbEntity
  8
Calque_1
 62
1
100
AcDbSpline
 70
8
 71
3
 72
8
 73
4
 74
0
 40
0
 40
0
 40
0
 40
0
 40
1
 40
1
 40
1
 40
1
 10
63.755501
 20
21.737225
 30
0.0
 10
57.469798
 20
15.451521
 30
0.0
 10
48.944541
 20
11.920270
 30
0.0
 10
40.055214
 20
11.920318
 30
0.0
  0
SPLINE
  5
163
100
AcDbEntity
  8
Calque_1
 62
1
100
AcDbSpline
 70
8
 71
3
 72
8
 73
4
 74
0
 40
0
 40
0
 40
0
 40
0
 40
1
 40
1
 40
1
 40
1
 10
40.055214
 20
11.920318
 30
0.0
 10
31.165887
 20
11.920269
 30
0.0
 10
22.640629
 20
15.451520
 30
0.0
 10
16.354926
 20
21.737224
 30
0.0
  0
SPLINE
  5
164
100
AcDbEntity
  8
Calque_1
 62
1
100
AcDbSpline
 70
8
 71
3
 72
8
 73
4
 74
0
 40
0
 40
0
 40
0
 40
0
 40
1
 40
1
 40
1
 40
1
 10
16.354926
 20
21.737224
 30
0.0
 10
10.069223
 20
28.022929
 30
0.0
 10
6.537974
 20
36.548187
 30
0.0
 10
6.538024
 20
45.437514
 30
0.0
  0
SPLINE
  5
165
100
AcDbEntity
  8
Calque_1
 62
1
100
AcDbSpline
 70
8
 71
3
 72
8
 73
4
 74
0
 40
0
 40
0
 40
0
 40
0
 40
1
 40
1
 40
1
 40
1
 10
6.538024
 20
45.437514
 30
0.0
 10
6.537974
 20
54.326842
 30
0.0
 10
10.069224
 20
62.852099
 30
0.0
 10
16.354927
 20
69.137803
 30
0.0
  0
SPLINE
  5
166
100
AcDbEntity
  8
Calque_1
 62
1
100
AcDbSpline
 70
8
 71
3
 72
8
 73
4
 74
0
 40
0
 40
0
 40
0
 40
0
 40
1
 40
1
 40
1
 40
1
 10
16.354927
 20
69.137803
 30
0.0
 10
22.640630
 20
75.423507
 30
0.0
 10
31.165887
 20
78.954757
 30
0.0
 10
40.055214
 20
78.954708
 30
0.0
  0
LWPOLYLINE
  5
167
100
AcDbEntity
  8
Calque_1
 62
1
100
AcDbPolyline
 90
2
 70
1
 10
40.005035
 20
85.487701
 30
0.0
 10
40.005035
 20
85.487701
 30
0.0
  0
SPLINE
  5
168
100
AcDbEntity
  8
Calque_1
 62
1
100
AcDbSpline
 70
8
 71
3
 72
8
 73
4
 74
0
 40
0
 40
0
 40
0
 40
0
 40
1
 40
1
 40
1
 40
1
 10
40.005035
 20
83.514375
 30
0.0
 10
38.036225
 20
83.503933
 30
0.0
 10
36.071845
 20
83.340046
 30
0.0
 10
34.129084
 20
83.025425
 30
0.0
  0
SPLINE
  5
169
100
AcDbEntity
  8
Calque_1
 62
1
100
AcDbSpline
 70
8
 71
3
 72
8
 73
4
 74
0
 40
0
 40
0
 40
0
 40
0
 40
1
 40
1
 40
1
 40
1
 10
34.129084
 20
83.025425
 30
0.0
 10
33.900303
 20
83.048402
 30
0.0
 10
33.669578
 20
83.008778
 30
0.0
 10
33.461572
 20
82.910786
 30
0.0
  0
SPLINE
  5
16a
100
AcDbEntity
  8
Calque_1
 62
1
100
AcDbSpline
 70
8
 71
3
 72
8
 73
4
 74
0
 40
0
 40
0
 40
0
 40
0
 40
1
 40
1
 40
1
 40
1
 10
33.461572
 20
82.910786
 30
0.0
 10
33.431487
 20
82.905424
 30
0.0
 10
33.401233
 20
82.900909
 30
0.0
 10
33.371176
 20
82.895264
 30
0.0
  0
SPLINE
  5
16b
100
AcDbEntity
  8
Calque_1
 62
1
100
AcDbSpline
 70
8
 71
3
 72
8
 73
4
 74
0
 40
0
 40
0
 40
0
 40
0
 40
1
 40
1
 40
1
 40
1
 10
33.371176
 20
82.895264
 30
0.0
 10
33.366943
 20
82.889055
 30
0.0
 10
33.367789
 20
82.889620
 30
0.0
 10
33.362427
 20
82.881435
 30
0.0
  0
SPLINE
  5
16c
100
AcDbEntity
  8
Calque_1
 62
1
100
AcDbSpline
 70
8
 71
3
 72
8
 73
4
 74
0
 40
0
 40
0
 40
0
 40
0
 40
1
 40
1
 40
1
 40
1
 10
33.362427
 20
82.881435
 30
0.0
 10
33.359040
 20
82.877202
 30
0.0
 10
33.356783
 20
82.871840
 30
0.0
 10
33.352549
 20
82.868735
 30
0.0
  0
SPLINE
  5
16d
100
AcDbEntity
  8
Calque_1
 62
1
100
AcDbSpline
 70
8
 71
3
 72
8
 73
4
 74
0
 40
0
 40
0
 40
0
 40
0
 40
1
 40
1
 40
1
 40
1
 10
33.352549
 20
82.868735
 30
0.0
 10
33.349727
 20
82.865913
 30
0.0
 10
33.355654
 20
82.877766
 30
0.0
 10
33.355372
 20
82.875509
 30
0.0
  0
SPLINE
  5
16e
100
AcDbEntity
  8
Calque_1
 62
1
100
AcDbSpline
 70
8
 71
3
 72
8
 73
4
 74
0
 40
0
 40
0
 40
0
 40
0
 40
1
 40
1
 40
1
 40
1
 10
33.355372
 20
82.875509
 30
0.0
 10
33.336745
 20
82.859140
 30
0.0
 10
33.322013
 20
82.838679
 30
0.0
 10
33.305221
 20
82.820391
 30
0.0
  0
SPLINE
  5
16f
100
AcDbEntity
  8
Calque_1
 62
1
100
AcDbSpline
 70
8
 71
3
 72
8
 73
4
 74
0
 40
0
 40
0
 40
0
 40
0
 40
1
 40
1
 40
1
 40
1
 10
33.305221
 20
82.820391
 30
0.0
 10
33.034584
 20
82.641318
 30
0.0
 10
32.842851
 20
82.365353
 30
0.0
 10
32.769450
 20
82.049247
 30
0.0
  0
SPLINE
  5
170
100
AcDbEntity
  8
Calque_1
 62
1
100
AcDbSpline
 70
8
 71
3
 72
8
 73
4
 74
0
 40
0
 40
0
 40
0
 40
0
 40
1
 40
1
 40
1
 40
1
 10
32.769450
 20
82.049247
 30
0.0
 10
32.612010
 20
81.366583
 30
0.0
 10
33.037668
 20
80.685513
 30
0.0
 10
33.720285
 20
80.527871
 30
0.0
  0
SPLINE
  5
171
100
AcDbEntity
  8
Calque_1
 62
1
100
AcDbSpline
 70
8
 71
3
 72
8
 73
4
 74
0
 40
0
 40
0
 40
0
 40
0
 40
1
 40
1
 40
1
 40
1
 10
33.720285
 20
80.527871
 30
0.0
 10
33.724701
 20
80.526907
 30
0.0
 10
33.729123
 20
80.525966
 30
0.0
 10
33.733549
 20
80.525049
 30
0.0
  0
SPLINE
  5
172
100
AcDbEntity
  8
Calque_1
 62
1
100
AcDbSpline
 70
8
 71
3
 72
8
 73
4
 74
0
 40
0
 40
0
 40
0
 40
0
 40
1
 40
1
 40
1
 40
1
 10
33.733549
 20
80.525049
 30
0.0
 10
33.777294
 20
80.496432
 30
0.0
 10
33.822562
 20
80.472245
 30
0.0
 10
33.869157
 20
80.453393
 30
0.0
  0
SPLINE
  5
173
100
AcDbEntity
  8
Calque_1
 62
1
100
AcDbSpline
 70
8
 71
3
 72
8
 73
4
 74
0
 40
0
 40
0
 40
0
 40
0
 40
1
 40
1
 40
1
 40
1
 10
33.869157
 20
80.453393
 30
0.0
 10
33.869016
 20
80.448595
 30
0.0
 10
33.871979
 20
80.442951
 30
0.0
 10
33.869157
 20
80.438435
 30
0.0
  0
SPLINE
  5
174
100
AcDbEntity
  8
Calque_1
 62
1
100
AcDbSpline
 70
8
 71
3
 72
8
 73
4
 74
0
 40
0
 40
0
 40
0
 40
0
 40
1
 40
1
 40
1
 40
1
 10
33.869157
 20
80.438435
 30
0.0
 10
33.869242
 20
80.438435
 30
0.0
 10
33.869072
 20
80.438548
 30
0.0
 10
33.869157
 20
80.433920
 30
0.0
  0
SPLINE
  5
175
100
AcDbEntity
  8
Calque_1
 62
1
100
AcDbSpline
 70
8
 71
3
 72
8
 73
4
 74
0
 40
0
 40
0
 40
0
 40
0
 40
1
 40
1
 40
1
 40
1
 10
33.869157
 20
80.433920
 30
0.0
 10
35.895569
 20
80.791580
 30
0.0
 10
37.949187
 20
80.972343
 30
0.0
 10
40.006926
 20
80.974121
 30
0.0
  0
SPLINE
  5
176
100
AcDbEntity
  8
Calque_1
 62
1
100
AcDbSpline
 70
8
 71
3
 72
8
 73
4
 74
0
 40
0
 40
0
 40
0
 40
0
 40
1
 40
1
 40
1
 40
1
 10
40.006926
 20
80.974121
 30
0.0
 10
54.878824
 20
80.974290
 30
0.0
 10
67.611812
 20
71.825888
 30
0.0
 10
72.891315
 20
58.850524
 30
0.0
  0
SPLINE
  5
177
100
AcDbEntity
  8
Calque_1
 62
1
100
AcDbSpline
 70
8
 71
3
 72
8
 73
4
 74
0
 40
0
 40
0
 40
0
 40
0
 40
1
 40
1
 40
1
 40
1
 10
72.891315
 20
58.850524
 30
0.0
 10
72.896960
 20
58.850524
 30
0.0
 10
72.902604
 20
58.850524
 30
0.0
 10
72.908531
 20
58.853346
 30
0.0
  0
SPLINE
  5
178
100
AcDbEntity
  8
Calque_1
 62
1
100
AcDbSpline
 70
8
 71
3
 72
8
 73
4
 74
0
 40
0
 40
0
 40
0
 40
0
 40
1
 40
1
 40
1
 40
1
 10
72.908531
 20
58.853346
 30
0.0
 10
73.134829
 20
58.461349
 30
0.0
 10
73.552816
 20
58.219592
 30
0.0
 10
74.005444
 20
58.218910
 30
0.0
  0
SPLINE
  5
179
100
AcDbEntity
  8
Calque_1
 62
1
100
AcDbSpline
 70
8
 71
3
 72
8
 73
4
 74
0
 40
0
 40
0
 40
0
 40
0
 40
1
 40
1
 40
1
 40
1
 10
74.005444
 20
58.218910
 30
0.0
 10
74.341987
 20
58.218879
 30
0.0
 10
74.664754
 20
58.352557
 30
0.0
 10
74.902725
 20
58.590528
 30
0.0
  0
SPLINE
  5
17a
100
AcDbEntity
  8
Calque_1
 62
1
100
AcDbSpline
 70
8
 71
3
 72
8
 73
4
 74
0
 40
0
 40
0
 40
0
 40
0
 40
1
 40
1
 40
1
 40
1
 10
74.902725
 20
58.590528
 30
0.0
 10
75.140697
 20
58.828500
 30
0.0
 10
75.274374
 20
59.151267
 30
0.0
 10
75.274343
 20
59.487810
 30
0.0
  0
SPLINE
  5
17b
100
AcDbEntity
  8
Calque_1
 62
1
100
AcDbSpline
 70
8
 71
3
 72
8
 73
4
 74
0
 40
0
 40
0
 40
0
 40
0
 40
1
 40
1
 40
1
 40
1
 10
75.274343
 20
59.487810
 30
0.0
 10
75.274400
 20
59.686557
 30
0.0
 10
75.227766
 20
59.882538
 30
0.0
 10
75.138199
 20
60.059959
 30
0.0
  0
SPLINE
  5
17c
100
AcDbEntity
  8
Calque_1
 62
1
100
AcDbSpline
 70
8
 71
3
 72
8
 73
4
 74
0
 40
0
 40
0
 40
0
 40
0
 40
1
 40
1
 40
1
 40
1
 10
75.138199
 20
60.059959
 30
0.0
 10
75.138199
 20
60.059733
 30
0.0
 10
75.138199
 20
60.059676
 30
0.0
 10
75.141022
 20
60.059959
 30
0.0
  0
SPLINE
  5
17d
100
AcDbEntity
  8
Calque_1
 62
1
100
AcDbSpline
 70
8
 71
3
 72
8
 73
4
 74
0
 40
0
 40
0
 40
0
 40
0
 40
1
 40
1
 40
1
 40
1
 10
75.141022
 20
60.059959
 30
0.0
 10
69.422945
 20
73.829976
 30
0.0
 10
55.847918
 20
83.514827
 30
0.0
 10
40.008789
 20
83.514714
 30
0.0
  0
LWPOLYLINE
  5
17e
100
AcDbEntity
  8
Calque_1
 62
1
100
AcDbPolyline
 90
2
 70
1
 10
40.055214
 20
78.954708
 30
0.0
 10
40.055214
 20
78.954708
 30
0.0
  0
SPLINE
  5
17f
100
AcDbEntity
  8
Calque_1
 62
1
100
AcDbSpline
 70
8
 71
3
 72
8
 73
4
 74
0
 40
0
 40
0
 40
0
 40
0
 40
1
 40
1
 40
1
 40
1
 10
26.005289
 20
80.756076
 30
0.0
 10
25.960360
 20
80.756108
 30
0.0
 10
25.915461
 20
80.753752
 30
0.0
 10
25.870782
 20
80.749021
 30
0.0
  0
SPLINE
  5
180
100
AcDbEntity
  8
Calque_1
 62
1
100
AcDbSpline
 70
8
 71
3
 72
8
 73
4
 74
0
 40
0
 40
0
 40
0
 40
0
 40
1
 40
1
 40
1
 40
1
 10
25.870782
 20
80.749021
 30
0.0
 10
25.867960
 20
80.751843
 30
0.0
 10
25.867113
 20
80.752690
 30
0.0
 10
25.865137
 20
80.754665
 30
0.0
  0
SPLINE
  5
181
100
AcDbEntity
  8
Calque_1
 62
1
100
AcDbSpline
 70
8
 71
3
 72
8
 73
4
 74
0
 40
0
 40
0
 40
0
 40
0
 40
1
 40
1
 40
1
 40
1
 10
25.865137
 20
80.754665
 30
0.0
 10
25.856953
 20
80.751278
 30
0.0
 10
25.849051
 20
80.747892
 30
0.0
 10
25.840866
 20
80.744787
 30
0.0
  0
SPLINE
  5
182
100
AcDbEntity
  8
Calque_1
 62
1
100
AcDbSpline
 70
8
 71
3
 72
8
 73
4
 74
0
 40
0
 40
0
 40
0
 40
0
 40
1
 40
1
 40
1
 40
1
 10
25.840866
 20
80.744787
 30
0.0
 10
25.613230
 20
80.714931
 30
0.0
 10
25.397961
 20
80.623868
 30
0.0
 10
25.218002
 20
80.481305
 30
0.0
  0
SPLINE
  5
183
100
AcDbEntity
  8
Calque_1
 62
1
100
AcDbSpline
 70
8
 71
3
 72
8
 73
4
 74
0
 40
0
 40
0
 40
0
 40
0
 40
1
 40
1
 40
1
 40
1
 10
25.218002
 20
80.481305
 30
0.0
 10
11.167513
 20
74.551054
 30
0.0
 10
1.990888
 20
60.782476
 30
0.0
 10
1.978216
 20
45.486305
 30
0.0
  0
SPLINE
  5
184
100
AcDbEntity
  8
Calque_1
 62
1
100
AcDbSpline
 70
8
 71
3
 72
8
 73
4
 74
0
 40
0
 40
0
 40
0
 40
0
 40
1
 40
1
 40
1
 40
1
 10
1.978216
 20
45.486305
 30
0.0
 10
1.978216
 20
43.425770
 30
0.0
 10
2.145969
 20
41.404999
 30
0.0
 10
2.461634
 20
39.433409
 30
0.0
  0
SPLINE
  5
185
100
AcDbEntity
  8
Calque_1
 62
1
100
AcDbSpline
 70
8
 71
3
 72
8
 73
4
 74
0
 40
0
 40
0
 40
0
 40
0
 40
1
 40
1
 40
1
 40
1
 10
2.461634
 20
39.433409
 30
0.0
 10
2.465714
 20
39.334925
 30
0.0
 10
2.481257
 20
39.237253
 30
0.0
 10
2.507947
 20
39.142367
 30
0.0
  0
SPLINE
  5
186
100
AcDbEntity
  8
Calque_1
 62
1
100
AcDbSpline
 70
8
 71
3
 72
8
 73
4
 74
0
 40
0
 40
0
 40
0
 40
0
 40
1
 40
1
 40
1
 40
1
 10
2.507947
 20
39.142367
 30
0.0
 10
2.507947
 20
39.141991
 30
0.0
 10
2.507947
 20
39.141615
 30
0.0
 10
2.507947
 20
39.141238
 30
0.0
  0
SPLINE
  5
187
100
AcDbEntity
  8
Calque_1
 62
1
100
AcDbSpline
 70
8
 71
3
 72
8
 73
4
 74
0
 40
0
 40
0
 40
0
 40
0
 40
1
 40
1
 40
1
 40
1
 10
2.507947
 20
39.141238
 30
0.0
 10
2.634308
 20
38.696374
 30
0.0
 10
2.992709
 20
38.355497
 30
0.0
 10
3.443344
 20
38.251578
 30
0.0
  0
SPLINE
  5
188
100
AcDbEntity
  8
Calque_1
 62
1
100
AcDbSpline
 70
8
 71
3
 72
8
 73
4
 74
0
 40
0
 40
0
 40
0
 40
0
 40
1
 40
1
 40
1
 40
1
 10
3.443344
 20
38.251578
 30
0.0
 10
4.126002
 20
38.094156
 30
0.0
 10
4.807055
 20
38.519816
 30
0.0
 10
4.964691
 20
39.202424
 30
0.0
  0
SPLINE
  5
189
100
AcDbEntity
  8
Calque_1
 62
1
100
AcDbSpline
 70
8
 71
3
 72
8
 73
4
 74
0
 40
0
 40
0
 40
0
 40
0
 40
1
 40
1
 40
1
 40
1
 10
4.964691
 20
39.202424
 30
0.0
 10
4.989738
 20
39.312653
 30
0.0
 10
4.999941
 20
39.425735
 30
0.0
 10
4.995030
 20
39.538666
 30
0.0
  0
SPLINE
  5
18a
100
AcDbEntity
  8
Calque_1
 62
1
100
AcDbSpline
 70
8
 71
3
 72
8
 73
4
 74
0
 40
0
 40
0
 40
0
 40
0
 40
1
 40
1
 40
1
 40
1
 10
4.995030
 20
39.538666
 30
0.0
 10
5.001239
 20
39.538720
 30
0.0
 10
5.007730
 20
39.539231
 30
0.0
 10
5.013657
 20
39.539231
 30
0.0
  0
SPLINE
  5
18b
100
AcDbEntity
  8
Calque_1
 62
1
100
AcDbSpline
 70
8
 71
3
 72
8
 73
4
 74
0
 40
0
 40
0
 40
0
 40
0
 40
1
 40
1
 40
1
 40
1
 10
5.013657
 20
39.539231
 30
0.0
 10
4.687295
 20
41.473243
 30
0.0
 10
4.514801
 20
43.459461
 30
0.0
 10
4.514801
 20
45.486294
 30
0.0
  0
SPLINE
  5
18c
100
AcDbEntity
  8
Calque_1
 62
1
100
AcDbSpline
 70
8
 71
3
 72
8
 73
4
 74
0
 40
0
 40
0
 40
0
 40
0
 40
1
 40
1
 40
1
 40
1
 10
4.514801
 20
45.486294
 30
0.0
 10
4.521857
 20
59.992846
 30
0.0
 10
13.357020
 20
73.034702
 30
0.0
 10
26.826330
 20
78.421421
 30
0.0
  0
SPLINE
  5
18d
100
AcDbEntity
  8
Calque_1
 62
1
100
AcDbSpline
 70
8
 71
3
 72
8
 73
4
 74
0
 40
0
 40
0
 40
0
 40
0
 40
1
 40
1
 40
1
 40
1
 10
26.826330
 20
78.421421
 30
0.0
 10
26.826443
 20
78.436661
 30
0.0
 10
26.823508
 20
78.452296
 30
0.0
 10
26.826330
 20
78.467169
 30
0.0
  0
SPLINE
  5
18e
100
AcDbEntity
  8
Calque_1
 62
1
100
AcDbSpline
 70
8
 71
3
 72
8
 73
4
 74
0
 40
0
 40
0
 40
0
 40
0
 40
1
 40
1
 40
1
 40
1
 10
26.826330
 20
78.467169
 30
0.0
 10
26.833950
 20
78.491723
 30
0.0
 10
26.837336
 20
78.513369
 30
0.0
 10
26.844392
 20
78.537725
 30
0.0
  0
SPLINE
  5
18f
100
AcDbEntity
  8
Calque_1
 62
1
100
AcDbSpline
 70
8
 71
3
 72
8
 73
4
 74
0
 40
0
 40
0
 40
0
 40
0
 40
1
 40
1
 40
1
 40
1
 10
26.844392
 20
78.537725
 30
0.0
 10
27.117102
 20
78.778314
 30
0.0
 10
27.273464
 20
79.124357
 30
0.0
 10
27.273793
 20
79.488024
 30
0.0
  0
SPLINE
  5
190
100
AcDbEntity
  8
Calque_1
 62
1
100
AcDbSpline
 70
8
 71
3
 72
8
 73
4
 74
0
 40
0
 40
0
 40
0
 40
0
 40
1
 40
1
 40
1
 40
1
 10
27.273793
 20
79.488024
 30
0.0
 10
27.273546
 20
80.188623
 30
0.0
 10
26.705494
 20
80.756423
 30
0.0
 10
26.004894
 20
80.756358
 30
0.0
  0
LWPOLYLINE
  5
191
100
AcDbEntity
  8
Calque_1
 62
1
100
AcDbPolyline
 90
3
 70
1
 10
40.008789
 20
83.514714
 30
0.0
 10
40.005966
 20
83.514714
 30
0.0
 10
40.005035
 20
83.514375
 30
0.0
  0
LWPOLYLINE
  5
192
100
AcDbEntity
  8
Calque_1
 62
1
100
AcDbPolyline
 90
2
 70
1
 10
26.004894
 20
80.756358
 30
0.0
 10
26.005289
 20
80.756076
 30
0.0
  0
SPLINE
  5
193
100
AcDbEntity
  8
Calque_1
 62
1
100
AcDbSpline
 70
8
 71
3
 72
8
 73
4
 74
0
 40
0
 40
0
 40
0
 40
0
 40
1
 40
1
 40
1
 40
1
 10
76.225940
 20
52.753705
 30
0.0
 10
75.656608
 20
52.728484
 30
0.0
 10
75.173943
 20
52.326756
 30
0.0
 10
75.045800
 20
51.771459
 30
0.0
  0
SPLINE
  5
194
100
AcDbEntity
  8
Calque_1
 62
1
100
AcDbSpline
 70
8
 71
3
 72
8
 73
4
 74
0
 40
0
 40
0
 40
0
 40
0
 40
1
 40
1
 40
1
 40
1
 10
75.045800
 20
51.771459
 30
0.0
 10
75.014635
 20
51.634485
 30
0.0
 10
75.006433
 20
51.493287
 30
0.0
 10
75.021529
 20
51.353626
 30
0.0
  0
SPLINE
  5
195
100
AcDbEntity
  8
Calque_1
 62
1
100
AcDbSpline
 70
8
 71
3
 72
8
 73
4
 74
0
 40
0
 40
0
 40
0
 40
0
 40
1
 40
1
 40
1
 40
1
 10
75.021529
 20
51.353626
 30
0.0
 10
75.017860
 20
51.353378
 30
0.0
 10
75.013626
 20
51.352779
 30
0.0
 10
75.009958
 20
51.352497
 30
0.0
  0
SPLINE
  5
196
100
AcDbEntity
  8
Calque_1
 62
1
100
AcDbSpline
 70
8
 71
3
 72
8
 73
4
 74
0
 40
0
 40
0
 40
0
 40
0
 40
1
 40
1
 40
1
 40
1
 10
75.009958
 20
51.352497
 30
0.0
 10
75.327683
 20
49.443320
 30
0.0
 10
75.495577
 20
47.483056
 30
0.0
 10
75.495606
 20
45.483709
 30
0.0
  0
SPLINE
  5
197
100
AcDbEntity
  8
Calque_1
 62
1
100
AcDbSpline
 70
8
 71
3
 72
8
 73
4
 74
0
 40
0
 40
0
 40
0
 40
0
 40
1
 40
1
 40
1
 40
1
 10
75.495606
 20
45.483709
 30
0.0
 10
75.495493
 20
30.668823
 30
0.0
 10
66.417166
 20
17.976457
 30
0.0
 10
53.520855
 20
12.660491
 30
0.0
  0
SPLINE
  5
198
100
AcDbEntity
  8
Calque_1
 62
1
100
AcDbSpline
 70
8
 71
3
 72
8
 73
4
 74
0
 40
0
 40
0
 40
0
 40
0
 40
1
 40
1
 40
1
 40
1
 10
53.520855
 20
12.660491
 30
0.0
 10
53.521081
 20
12.659926
 30
0.0
 10
53.520855
 20
12.659080
 30
0.0
 10
53.520855
 20
12.658233
 30
0.0
  0
SPLINE
  5
199
100
AcDbEntity
  8
Calque_1
 62
1
100
AcDbSpline
 70
8
 71
3
 72
8
 73
4
 74
0
 40
0
 40
0
 40
0
 40
0
 40
1
 40
1
 40
1
 40
1
 10
53.520855
 20
12.658233
 30
0.0
 10
53.045972
 20
12.462592
 30
0.0
 10
52.735878
 20
11.999954
 30
0.0
 10
52.735374
 20
11.486350
 30
0.0
  0
SPLINE
  5
19a
100
AcDbEntity
  8
Calque_1
 62
1
100
AcDbSpline
 70
8
 71
3
 72
8
 73
4
 74
0
 40
0
 40
0
 40
0
 40
0
 40
1
 40
1
 40
1
 40
1
 10
52.735374
 20
11.486350
 30
0.0
 10
52.735344
 20
11.149808
 30
0.0
 10
52.869022
 20
10.827042
 30
0.0
 10
53.106993
 20
10.589071
 30
0.0
  0
SPLINE
  5
19b
100
AcDbEntity
  8
Calque_1
 62
1
100
AcDbSpline
 70
8
 71
3
 72
8
 73
4
 74
0
 40
0
 40
0
 40
0
 40
0
 40
1
 40
1
 40
1
 40
1
 10
53.106993
 20
10.589071
 30
0.0
 10
53.344964
 20
10.351100
 30
0.0
 10
53.667731
 20
10.217423
 30
0.0
 10
54.004273
 20
10.217454
 30
0.0
  0
SPLINE
  5
19c
100
AcDbEntity
  8
Calque_1
 62
1
100
AcDbSpline
 70
8
 71
3
 72
8
 73
4
 74
0
 40
0
 40
0
 40
0
 40
0
 40
1
 40
1
 40
1
 40
1
 10
54.004273
 20
10.217454
 30
0.0
 10
54.205149
 20
10.217557
 30
0.0
 10
54.403129
 20
10.265354
 30
0.0
 10
54.581926
 20
10.356911
 30
0.0
  0
SPLINE
  5
19d
100
AcDbEntity
  8
Calque_1
 62
1
100
AcDbSpline
 70
8
 71
3
 72
8
 73
4
 74
0
 40
0
 40
0
 40
0
 40
0
 40
1
 40
1
 40
1
 40
1
 10
54.581926
 20
10.356911
 30
0.0
 10
54.582067
 20
10.355782
 30
0.0
 10
54.581926
 20
10.354653
 30
0.0
 10
54.581926
 20
10.353609
 30
0.0
  0
SPLINE
  5
19e
100
AcDbEntity
  8
Calque_1
 62
1
100
AcDbSpline
 70
8
 71
3
 72
8
 73
4
 74
0
 40
0
 40
0
 40
0
 40
0
 40
1
 40
1
 40
1
 40
1
 10
54.581926
 20
10.353609
 30
0.0
 10
68.349005
 20
16.073040
 30
0.0
 10
78.031316
 20
29.647173
 30
0.0
 10
78.031175
 20
45.484211
 30
0.0
  0
SPLINE
  5
19f
100
AcDbEntity
  8
Calque_1
 62
1
100
AcDbSpline
 70
8
 71
3
 72
8
 73
4
 74
0
 40
0
 40
0
 40
0
 40
0
 40
1
 40
1
 40
1
 40
1
 10
78.031175
 20
45.484211
 30
0.0
 10
78.031175
 20
47.545043
 30
0.0
 10
77.863422
 20
49.566330
 30
0.0
 10
77.547756
 20
51.538208
 30
0.0
  0
SPLINE
  5
1a0
100
AcDbEntity
  8
Calque_1
 62
1
100
AcDbSpline
 70
8
 71
3
 72
8
 73
4
 74
0
 40
0
 40
0
 40
0
 40
0
 40
1
 40
1
 40
1
 40
1
 10
77.547756
 20
51.538208
 30
0.0
 10
77.524474
 20
52.109221
 30
0.0
 10
77.122318
 20
52.594198
 30
0.0
 10
76.565482
 20
52.722774
 30
0.0
  0
SPLINE
  5
1a1
100
AcDbEntity
  8
Calque_1
 62
1
100
AcDbSpline
 70
8
 71
3
 72
8
 73
4
 74
0
 40
0
 40
0
 40
0
 40
0
 40
1
 40
1
 40
1
 40
1
 10
76.565482
 20
52.722774
 30
0.0
 10
76.453664
 20
52.748435
 30
0.0
 10
76.338882
 20
52.758812
 30
0.0
 10
76.224275
 20
52.753620
 30
0.0
  0
LWPOLYLINE
  5
1a2
100
AcDbEntity
  8
Calque_1
 62
1
100
AcDbPolyline
 90
5
 70
1
 10
25.865278
 20
80.753254
 30
0.0
 10
25.865278
 20
80.753254
 30
0.0
 10
25.865278
 20
80.753254
 30
0.0
 10
25.865278
 20
80.753254
 30
0.0
 10
25.865278
 20
80.753254
 30
0.0
  0
SPLINE
  5
1a3
100
AcDbEntity
  8
Calque_1
 62
1
100
AcDbSpline
 70
8
 71
3
 72
8
 73
4
 74
0
 40
0
 40
0
 40
0
 40
0
 40
1
 40
1
 40
1
 40
1
 10
6.004991
 20
32.755072
 30
0.0
 10
5.304380
 20
32.754840
 30
0.0
 10
4.736563
 20
32.186783
 30
0.0
 10
4.736628
 20
31.486172
 30
0.0
  0
SPLINE
  5
1a4
100
AcDbEntity
  8
Calque_1
 62
1
100
AcDbSpline
 70
8
 71
3
 72
8
 73
4
 74
0
 40
0
 40
0
 40
0
 40
0
 40
1
 40
1
 40
1
 40
1
 10
4.736628
 20
31.486172
 30
0.0
 10
4.736920
 20
31.277240
 30
0.0
 10
4.788805
 20
31.071613
 30
0.0
 10
4.887673
 20
30.887553
 30
0.0
  0
SPLINE
  5
1a5
100
AcDbEntity
  8
Calque_1
 62
1
100
AcDbSpline
 70
8
 71
3
 72
8
 73
4
 74
0
 40
0
 40
0
 40
0
 40
0
 40
1
 40
1
 40
1
 40
1
 10
4.887673
 20
30.887553
 30
0.0
 10
10.612297
 20
17.132339
 30
0.0
 10
24.176686
 20
7.458783
 30
0.0
 10
40.005035
 20
7.458698
 30
0.0
  0
SPLINE
  5
1a6
100
AcDbEntity
  8
Calque_1
 62
1
100
AcDbSpline
 70
8
 71
3
 72
8
 73
4
 74
0
 40
0
 40
0
 40
0
 40
0
 40
1
 40
1
 40
1
 40
1
 10
40.005035
 20
7.458698
 30
0.0
 10
42.066273
 20
7.458698
 30
0.0
 10
44.087916
 20
7.626372
 30
0.0
 10
46.060141
 20
7.942116
 30
0.0
  0
SPLINE
  5
1a7
100
AcDbEntity
  8
Calque_1
 62
1
100
AcDbSpline
 70
8
 71
3
 72
8
 73
4
 74
0
 40
0
 40
0
 40
0
 40
0
 40
1
 40
1
 40
1
 40
1
 10
46.060141
 20
7.942116
 30
0.0
 10
46.174708
 20
7.947560
 30
0.0
 10
46.288008
 20
7.968513
 30
0.0
 10
46.396945
 20
8.004403
 30
0.0
  0
SPLINE
  5
1a8
100
AcDbEntity
  8
Calque_1
 62
1
100
AcDbSpline
 70
8
 71
3
 72
8
 73
4
 74
0
 40
0
 40
0
 40
0
 40
0
 40
1
 40
1
 40
1
 40
1
 10
46.396945
 20
8.004403
 30
0.0
 10
46.396945
 20
8.001863
 30
0.0
 10
46.396945
 20
8.001185
 30
0.0
 10
46.399767
 20
7.997234
 30
0.0
  0
SPLINE
  5
1a9
100
AcDbEntity
  8
Calque_1
 62
1
100
AcDbSpline
 70
8
 71
3
 72
8
 73
4
 74
0
 40
0
 40
0
 40
0
 40
0
 40
1
 40
1
 40
1
 40
1
 10
46.399767
 20
7.997234
 30
0.0
 10
46.409645
 20
8.000057
 30
0.0
 10
46.419523
 20
8.000508
 30
0.0
 10
46.429542
 20
8.002201
 30
0.0
  0
SPLINE
  5
1aa
100
AcDbEntity
  8
Calque_1
 62
1
100
AcDbSpline
 70
8
 71
3
 72
8
 73
4
 74
0
 40
0
 40
0
 40
0
 40
0
 40
1
 40
1
 40
1
 40
1
 10
46.429542
 20
8.002201
 30
0.0
 10
46.429542
 20
8.005870
 30
0.0
 10
46.429542
 20
8.009567
 30
0.0
 10
46.426720
 20
8.013236
 30
0.0
  0
SPLINE
  5
1ab
100
AcDbEntity
  8
Calque_1
 62
1
100
AcDbSpline
 70
8
 71
3
 72
8
 73
4
 74
0
 40
0
 40
0
 40
0
 40
0
 40
1
 40
1
 40
1
 40
1
 10
46.426720
 20
8.013236
 30
0.0
 10
46.836320
 20
8.157518
 30
0.0
 10
47.143674
 20
8.501266
 30
0.0
 10
47.241410
 20
8.924394
 30
0.0
  0
SPLINE
  5
1ac
100
AcDbEntity
  8
Calque_1
 62
1
100
AcDbSpline
 70
8
 71
3
 72
8
 73
4
 74
0
 40
0
 40
0
 40
0
 40
0
 40
1
 40
1
 40
1
 40
1
 10
47.241410
 20
8.924394
 30
0.0
 10
47.398836
 20
9.607059
 30
0.0
 10
46.973166
 20
10.288120
 30
0.0
 10
46.290547
 20
10.445749
 30
0.0
  0
SPLINE
  5
1ad
100
AcDbEntity
  8
Calque_1
 62
1
100
AcDbSpline
 70
8
 71
3
 72
8
 73
4
 74
0
 40
0
 40
0
 40
0
 40
0
 40
1
 40
1
 40
1
 40
1
 10
46.290547
 20
10.445749
 30
0.0
 10
46.076389
 20
10.494590
 30
0.0
 10
45.853218
 20
10.486995
 30
0.0
 10
45.642876
 20
10.423708
 30
0.0
  0
SPLINE
  5
1ae
100
AcDbEntity
  8
Calque_1
 62
1
100
AcDbSpline
 70
8
 71
3
 72
8
 73
4
 74
0
 40
0
 40
0
 40
0
 40
0
 40
1
 40
1
 40
1
 40
1
 10
45.642876
 20
10.423708
 30
0.0
 10
45.640053
 20
10.430058
 30
0.0
 10
45.636949
 20
10.436069
 30
0.0
 10
45.634691
 20
10.442447
 30
0.0
  0
SPLINE
  5
1af
100
AcDbEntity
  8
Calque_1
 62
1
100
AcDbSpline
 70
8
 71
3
 72
8
 73
4
 74
0
 40
0
 40
0
 40
0
 40
0
 40
1
 40
1
 40
1
 40
1
 10
45.634691
 20
10.442447
 30
0.0
 10
43.800755
 20
10.150121
 30
0.0
 10
41.920844
 20
9.995935
 30
0.0
 10
40.004584
 20
9.995963
 30
0.0
  0
SPLINE
  5
1b0
100
AcDbEntity
  8
Calque_1
 62
1
100
AcDbSpline
 70
8
 71
3
 72
8
 73
4
 74
0
 40
0
 40
0
 40
0
 40
0
 40
1
 40
1
 40
1
 40
1
 10
40.004584
 20
9.995963
 30
0.0
 10
25.150946
 20
9.995991
 30
0.0
 10
12.431133
 20
19.122553
 30
0.0
 10
7.140032
 20
32.072686
 30
0.0
  0
SPLINE
  5
1b1
100
AcDbEntity
  8
Calque_1
 62
1
100
AcDbSpline
 70
8
 71
3
 72
8
 73
4
 74
0
 40
0
 40
0
 40
0
 40
0
 40
1
 40
1
 40
1
 40
1
 10
7.140032
 20
32.072686
 30
0.0
 10
7.136363
 20
32.072743
 30
0.0
 10
7.133259
 20
32.073251
 30
0.0
 10
7.129590
 20
32.073251
 30
0.0
  0
SPLINE
  5
1b2
100
AcDbEntity
  8
Calque_1
 62
1
100
AcDbSpline
 70
8
 71
3
 72
8
 73
4
 74
0
 40
0
 40
0
 40
0
 40
0
 40
1
 40
1
 40
1
 40
1
 10
7.129590
 20
32.073251
 30
0.0
 10
6.910988
 20
32.492209
 30
0.0
 10
6.477663
 20
32.754964
 30
0.0
 10
6.005104
 20
32.755105
 30
0.0
  0
LWPOLYLINE
  5
1b3
100
AcDbEntity
  8
Calque_1
 62
1
100
AcDbPolyline
 90
2
 70
1
 10
76.224275
 20
52.753620
 30
0.0
 10
76.225940
 20
52.753705
 30
0.0
  0
SPLINE
  5
1b4
100
AcDbEntity
  8
Calque_1
 62
1
100
AcDbSpline
 70
8
 71
3
 72
8
 73
4
 74
0
 40
0
 40
0
 40
0
 40
0
 40
1
 40
1
 40
1
 40
1
 10
30.998549
 20
80.755914
 30
0.0
 10
30.968070
 20
80.492454
 30
0.0
 10
30.834181
 20
80.251892
 30
0.0
 10
30.626335
 20
80.087150
 30
0.0
  0
SPLINE
  5
1b5
100
AcDbEntity
  8
Calque_1
 62
1
100
AcDbSpline
 70
8
 71
3
 72
8
 73
4
 74
0
 40
0
 40
0
 40
0
 40
0
 40
1
 40
1
 40
1
 40
1
 10
30.626335
 20
80.087150
 30
0.0
 10
30.418490
 20
79.922408
 30
0.0
 10
30.153713
 20
79.846979
 30
0.0
 10
29.890253
 20
79.877458
 30
0.0
  0
SPLINE
  5
1b6
100
AcDbEntity
  8
Calque_1
 62
1
100
AcDbSpline
 70
8
 71
3
 72
8
 73
4
 74
0
 40
0
 40
0
 40
0
 40
0
 40
1
 40
1
 40
1
 40
1
 10
29.890253
 20
79.877458
 30
0.0
 10
29.626794
 20
79.907936
 30
0.0
 10
29.386232
 20
80.041826
 30
0.0
 10
29.221490
 20
80.249671
 30
0.0
  0
SPLINE
  5
1b7
100
AcDbEntity
  8
Calque_1
 62
1
100
AcDbSpline
 70
8
 71
3
 72
8
 73
4
 74
0
 40
0
 40
0
 40
0
 40
0
 40
1
 40
1
 40
1
 40
1
 10
29.221490
 20
80.249671
 30
0.0
 10
29.056747
 20
80.457517
 30
0.0
 10
28.981319
 20
80.722294
 30
0.0
 10
29.011798
 20
80.985754
 30
0.0
  0
SPLINE
  5
1b8
100
AcDbEntity
  8
Calque_1
 62
1
100
AcDbSpline
 70
8
 71
3
 72
8
 73
4
 74
0
 40
0
 40
0
 40
0
 40
0
 40
1
 40
1
 40
1
 40
1
 10
29.011798
 20
80.985754
 30
0.0
 10
29.075267
 20
81.534379
 30
0.0
 10
29.571468
 20
81.927675
 30
0.0
 10
30.120093
 20
81.864206
 30
0.0
  0
SPLINE
  5
1b9
100
AcDbEntity
  8
Calque_1
 62
1
100
AcDbSpline
 70
8
 71
3
 72
8
 73
4
 74
0
 40
0
 40
0
 40
0
 40
0
 40
1
 40
1
 40
1
 40
1
 10
30.120093
 20
81.864206
 30
0.0
 10
30.668718
 20
81.800738
 30
0.0
 10
31.062016
 20
81.304539
 30
0.0
 10
30.998549
 20
80.755914
 30
0.0
  0
LWPOLYLINE
  5
1ba
100
AcDbEntity
  8
Calque_1
 62
1
100
AcDbPolyline
 90
2
 70
1
 10
6.005104
 20
32.755105
 30
0.0
 10
6.004991
 20
32.755072
 30
0.0
  0
SPLINE
  5
1bb
100
AcDbEntity
  8
Calque_1
 62
1
100
AcDbSpline
 70
8
 71
3
 72
8
 73
4
 74
0
 40
0
 40
0
 40
0
 40
0
 40
1
 40
1
 40
1
 40
1
 10
5.614942
 20
35.372968
 30
0.0
 10
5.584464
 20
35.109508
 30
0.0
 10
5.450575
 20
34.868947
 30
0.0
 10
5.242729
 20
34.704204
 30
0.0
  0
SPLINE
  5
1bc
100
AcDbEntity
  8
Calque_1
 62
1
100
AcDbSpline
 70
8
 71
3
 72
8
 73
4
 74
0
 40
0
 40
0
 40
0
 40
0
 40
1
 40
1
 40
1
 40
1
 10
5.242729
 20
34.704204
 30
0.0
 10
5.034884
 20
34.539462
 30
0.0
 10
4.770107
 20
34.464033
 30
0.0
 10
4.506648
 20
34.494512
 30
0.0
  0
SPLINE
  5
1bd
100
AcDbEntity
  8
Calque_1
 62
1
100
AcDbSpline
 70
8
 71
3
 72
8
 73
4
 74
0
 40
0
 40
0
 40
0
 40
0
 40
1
 40
1
 40
1
 40
1
 10
4.506648
 20
34.494512
 30
0.0
 10
4.243188
 20
34.524990
 30
0.0
 10
4.002627
 20
34.658880
 30
0.0
 10
3.837885
 20
34.866725
 30
0.0
  0
SPLINE
  5
1be
100
AcDbEntity
  8
Calque_1
 62
1
100
AcDbSpline
 70
8
 71
3
 72
8
 73
4
 74
0
 40
0
 40
0
 40
0
 40
0
 40
1
 40
1
 40
1
 40
1
 10
3.837885
 20
34.866725
 30
0.0
 10
3.673142
 20
35.074571
 30
0.0
 10
3.597714
 20
35.339348
 30
0.0
 10
3.628193
 20
35.602807
 30
0.0
  0
SPLINE
  5
1bf
100
AcDbEntity
  8
Calque_1
 62
1
100
AcDbSpline
 70
8
 71
3
 72
8
 73
4
 74
0
 40
0
 40
0
 40
0
 40
0
 40
1
 40
1
 40
1
 40
1
 10
3.628193
 20
35.602807
 30
0.0
 10
3.658671
 20
35.866267
 30
0.0
 10
3.792560
 20
36.106828
 30
0.0
 10
4.000406
 20
36.271571
 30
0.0
  0
SPLINE
  5
1c0
100
AcDbEntity
  8
Calque_1
 62
1
100
AcDbSpline
 70
8
 71
3
 72
8
 73
4
 74
0
 40
0
 40
0
 40
0
 40
0
 40
1
 40
1
 40
1
 40
1
 10
4.000406
 20
36.271571
 30
0.0
 10
4.208251
 20
36.436313
 30
0.0
 10
4.473028
 20
36.511742
 30
0.0
 10
4.736487
 20
36.481263
 30
0.0
  0
SPLINE
  5
1c1
100
AcDbEntity
  8
Calque_1
 62
1
100
AcDbSpline
 70
8
 71
3
 72
8
 73
4
 74
0
 40
0
 40
0
 40
0
 40
0
 40
1
 40
1
 40
1
 40
1
 10
4.736487
 20
36.481263
 30
0.0
 10
4.999947
 20
36.450784
 30
0.0
 10
5.240508
 20
36.316895
 30
0.0
 10
5.405250
 20
36.109049
 30
0.0
  0
SPLINE
  5
1c2
100
AcDbEntity
  8
Calque_1
 62
1
100
AcDbSpline
 70
8
 71
3
 72
8
 73
4
 74
0
 40
0
 40
0
 40
0
 40
0
 40
1
 40
1
 40
1
 40
1
 10
5.405250
 20
36.109049
 30
0.0
 10
5.569993
 20
35.901204
 30
0.0
 10
5.645421
 20
35.636427
 30
0.0
 10
5.614942
 20
35.372968
 30
0.0
  0
LWPOLYLINE
  5
1c3
100
AcDbEntity
  8
Calque_1
 62
1
100
AcDbPolyline
 90
2
 70
1
 10
30.998549
 20
80.755914
 30
0.0
 10
30.998549
 20
80.755914
 30
0.0
  0
SPLINE
  5
1c4
100
AcDbEntity
  8
Calque_1
 62
1
100
AcDbSpline
 70
8
 71
3
 72
8
 73
4
 74
0
 40
0
 40
0
 40
0
 40
0
 40
1
 40
1
 40
1
 40
1
 10
50.998870
 20
9.989304
 30
0.0
 10
50.968391
 20
9.725844
 30
0.0
 10
50.834502
 20
9.485283
 30
0.0
 10
50.626656
 20
9.320540
 30
0.0
  0
SPLINE
  5
1c5
100
AcDbEntity
  8
Calque_1
 62
1
100
AcDbSpline
 70
8
 71
3
 72
8
 73
4
 74
0
 40
0
 40
0
 40
0
 40
0
 40
1
 40
1
 40
1
 40
1
 10
50.626656
 20
9.320540
 30
0.0
 10
50.418811
 20
9.155798
 30
0.0
 10
50.154034
 20
9.080369
 30
0.0
 10
49.890574
 20
9.110848
 30
0.0
  0
SPLINE
  5
1c6
100
AcDbEntity
  8
Calque_1
 62
1
100
AcDbSpline
 70
8
 71
3
 72
8
 73
4
 74
0
 40
0
 40
0
 40
0
 40
0
 40
1
 40
1
 40
1
 40
1
 10
49.890574
 20
9.110848
 30
0.0
 10
49.627115
 20
9.141327
 30
0.0
 10
49.386553
 20
9.275216
 30
0.0
 10
49.221811
 20
9.483062
 30
0.0
  0
SPLINE
  5
1c7
100
AcDbEntity
  8
Calque_1
 62
1
100
AcDbSpline
 70
8
 71
3
 72
8
 73
4
 74
0
 40
0
 40
0
 40
0
 40
0
 40
1
 40
1
 40
1
 40
1
 10
49.221811
 20
9.483062
 30
0.0
 10
49.057068
 20
9.690907
 30
0.0
 10
48.981640
 20
9.955684
 30
0.0
 10
49.012119
 20
10.219144
 30
0.0
  0
SPLINE
  5
1c8
100
AcDbEntity
  8
Calque_1
 62
1
100
AcDbSpline
 70
8
 71
3
 72
8
 73
4
 74
0
 40
0
 40
0
 40
0
 40
0
 40
1
 40
1
 40
1
 40
1
 10
49.012119
 20
10.219144
 30
0.0
 10
49.042597
 20
10.482603
 30
0.0
 10
49.176486
 20
10.723165
 30
0.0
 10
49.384332
 20
10.887907
 30
0.0
  0
SPLINE
  5
1c9
100
AcDbEntity
  8
Calque_1
 62
1
100
AcDbSpline
 70
8
 71
3
 72
8
 73
4
 74
0
 40
0
 40
0
 40
0
 40
0
 40
1
 40
1
 40
1
 40
1
 10
49.384332
 20
10.887907
 30
0.0
 10
49.592178
 20
11.052650
 30
0.0
 10
49.856955
 20
11.128078
 30
0.0
 10
50.120414
 20
11.097599
 30
0.0
  0
SPLINE
  5
1ca
100
AcDbEntity
  8
Calque_1
 62
1
100
AcDbSpline
 70
8
 71
3
 72
8
 73
4
 74
0
 40
0
 40
0
 40
0
 40
0
 40
1
 40
1
 40
1
 40
1
 10
50.120414
 20
11.097599
 30
0.0
 10
50.383874
 20
11.067121
 30
0.0
 10
50.624435
 20
10.933232
 30
0.0
 10
50.789178
 20
10.725386
 30
0.0
  0
SPLINE
  5
1cb
100
AcDbEntity
  8
Calque_1
 62
1
100
AcDbSpline
 70
8
 71
3
 72
8
 73
4
 74
0
 40
0
 40
0
 40
0
 40
0
 40
1
 40
1
 40
1
 40
1
 10
50.789178
 20
10.725386
 30
0.0
 10
50.953920
 20
10.517540
 30
0.0
 10
51.029349
 20
10.252763
 30
0.0
 10
50.998870
 20
9.989304
 30
0.0
  0
LWPOLYLINE
  5
1cc
100
AcDbEntity
  8
Calque_1
 62
1
100
AcDbPolyline
 90
2
 70
1
 10
5.614942
 20
35.372968
 30
0.0
 10
5.614942
 20
35.372968
 30
0.0
  0
LWPOLYLINE
  5
1cd
100
AcDbEntity
  8
Calque_1
 62
1
100
AcDbPolyline
 90
2
 70
1
 10
50.998870
 20
9.989304
 30
0.0
 10
50.998870
 20
9.989304
 30
0.0
  0
SPLINE
  5
1ce
100
AcDbEntity
  8
Calque_1
 62
1
100
AcDbSpline
 70
8
 71
3
 72
8
 73
4
 74
0
 40
0
 40
0
 40
0
 40
0
 40
1
 40
1
 40
1
 40
1
 10
122.230999
 20
82.637694
 30
0.0
 10
119.752647
 20
82.471245
 30
0.0
 10
117.295187
 20
82.074306
 30
0.0
 10
114.890464
 20
81.452022
 30
0.0
  0
LWPOLYLINE
  5
1cf
100
AcDbEntity
  8
Calque_1
 62
1
100
AcDbPolyline
 90
2
 70
1
 10
123.430443
 20
85.451111
 30
0.0
 10
122.230999
 20
82.637694
 30
0.0
  0
SPLINE
  5
1d0
100
AcDbEntity
  8
Calque_1
 62
1
100
AcDbSpline
 70
8
 71
3
 72
8
 73
4
 74
0
 40
0
 40
0
 40
0
 40
0
 40
1
 40
1
 40
1
 40
1
 10
110.294433
 20
82.943059
 30
0.0
 10
110.294433
 20
82.943059
 30
0.0
 10
110.022130
 20
79.891531
 30
0.0
 10
110.022130
 20
79.891531
 30
0.0
  0
SPLINE
  5
1d1
100
AcDbEntity
  8
Calque_1
 62
1
100
AcDbSpline
 70
8
 71
3
 72
8
 73
4
 74
0
 40
0
 40
0
 40
0
 40
0
 40
1
 40
1
 40
1
 40
1
 10
110.022130
 20
79.891531
 30
0.0
 10
107.710415
 20
78.973931
 30
0.0
 10
105.489320
 20
77.842721
 30
0.0
 10
103.387704
 20
76.512597
 30
0.0
  0
LWPOLYLINE
  5
1d2
100
AcDbEntity
  8
Calque_1
 62
1
100
AcDbPolyline
 90
3
 70
1
 10
114.890464
 20
81.452022
 30
0.0
 10
112.861992
 20
83.777618
 30
0.0
 10
110.294433
 20
82.943059
 30
0.0
  0
SPLINE
  5
1d3
100
AcDbEntity
  8
Calque_1
 62
1
100
AcDbSpline
 70
8
 71
3
 72
8
 73
4
 74
0
 40
0
 40
0
 40
0
 40
0
 40
1
 40
1
 40
1
 40
1
 10
99.265719
 20
73.489179
 30
0.0
 10
97.350886
 20
71.909265
 30
0.0
 10
95.587290
 20
70.154525
 30
0.0
 10
93.997756
 20
68.247671
 30
0.0
  0
LWPOLYLINE
  5
1d4
100
AcDbEntity
  8
Calque_1
 62
1
100
AcDbPolyline
 90
4
 70
1
 10
103.387704
 20
76.512597
 30
0.0
 10
100.760616
 20
78.085224
 30
0.0
 10
98.576148
 20
76.498260
 30
0.0
 10
99.265719
 20
73.489179
 30
0.0
  0
SPLINE
  5
1d5
100
AcDbEntity
  8
Calque_1
 62
1
100
AcDbSpline
 70
8
 71
3
 72
8
 73
4
 74
0
 40
0
 40
0
 40
0
 40
0
 40
1
 40
1
 40
1
 40
1
 10
91.015680
 20
64.087651
 30
0.0
 10
89.688607
 20
61.996981
 30
0.0
 10
88.558541
 20
59.787596
 30
0.0
 10
87.640037
 20
57.487949
 30
0.0
  0
LWPOLYLINE
  5
1d6
100
AcDbEntity
  8
Calque_1
 62
1
100
AcDbPolyline
 90
4
 70
1
 10
93.997756
 20
68.247671
 30
0.0
 10
91.010168
 20
68.932277
 30
0.0
 10
89.423219
 20
66.747815
 30
0.0
 10
91.015680
 20
64.087651
 30
0.0
  0
SPLINE
  5
1d7
100
AcDbEntity
  8
Calque_1
 62
1
100
AcDbSpline
 70
8
 71
3
 72
8
 73
4
 74
0
 40
0
 40
0
 40
0
 40
0
 40
1
 40
1
 40
1
 40
1
 10
83.731369
 20
54.646434
 30
0.0
 10
83.731369
 20
54.646434
 30
0.0
 10
86.070729
 20
52.605835
 30
0.0
 10
86.070729
 20
52.605835
 30
0.0
  0
SPLINE
  5
1d8
100
AcDbEntity
  8
Calque_1
 62
1
100
AcDbSpline
 70
8
 71
3
 72
8
 73
4
 74
0
 40
0
 40
0
 40
0
 40
0
 40
1
 40
1
 40
1
 40
1
 10
86.070729
 20
52.605835
 30
0.0
 10
85.458196
 20
50.209708
 30
0.0
 10
85.069210
 20
47.761936
 30
0.0
 10
84.908767
 20
45.293965
 30
0.0
  0
LWPOLYLINE
  5
1d9
100
AcDbEntity
  8
Calque_1
 62
1
100
AcDbPolyline
 90
3
 70
1
 10
87.640037
 20
57.487949
 30
0.0
 10
84.565359
 20
57.213996
 30
0.0
 10
83.731369
 20
54.646434
 30
0.0
  0
SPLINE
  5
1da
100
AcDbEntity
  8
Calque_1
 62
1
100
AcDbSpline
 70
8
 71
3
 72
8
 73
4
 74
0
 40
0
 40
0
 40
0
 40
0
 40
1
 40
1
 40
1
 40
1
 10
82.057329
 20
41.378132
 30
0.0
 10
82.057329
 20
41.378132
 30
0.0
 10
84.870731
 20
40.178687
 30
0.0
 10
84.870731
 20
40.178687
 30
0.0
  0
SPLINE
  5
1db
100
AcDbEntity
  8
Calque_1
 62
1
100
AcDbSpline
 70
8
 71
3
 72
8
 73
4
 74
0
 40
0
 40
0
 40
0
 40
0
 40
1
 40
1
 40
1
 40
1
 10
84.870731
 20
40.178687
 30
0.0
 10
85.037144
 20
37.700151
 30
0.0
 10
85.434080
 20
35.242505
 30
0.0
 10
86.056395
 20
32.837602
 30
0.0
  0
LWPOLYLINE
  5
1dc
100
AcDbEntity
  8
Calque_1
 62
1
100
AcDbPolyline
 90
3
 70
1
 10
84.908767
 20
45.293965
 30
0.0
 10
82.057329
 20
44.077985
 30
0.0
 10
82.057329
 20
41.378132
 30
0.0
  0
SPLINE
  5
1dd
100
AcDbEntity
  8
Calque_1
 62
1
100
AcDbSpline
 70
8
 71
3
 72
8
 73
4
 74
0
 40
0
 40
0
 40
0
 40
0
 40
1
 40
1
 40
1
 40
1
 10
84.565359
 20
28.242121
 30
0.0
 10
84.565359
 20
28.242121
 30
0.0
 10
87.616886
 20
27.969819
 30
0.0
 10
87.616886
 20
27.969819
 30
0.0
  0
SPLINE
  5
1de
100
AcDbEntity
  8
Calque_1
 62
1
100
AcDbSpline
 70
8
 71
3
 72
8
 73
4
 74
0
 40
0
 40
0
 40
0
 40
0
 40
1
 40
1
 40
1
 40
1
 10
87.616886
 20
27.969819
 30
0.0
 10
88.534492
 20
25.658102
 30
0.0
 10
89.665708
 20
23.437008
 30
0.0
 10
90.995837
 20
21.335392
 30
0.0
  0
LWPOLYLINE
  5
1df
100
AcDbEntity
  8
Calque_1
 62
1
100
AcDbPolyline
 90
3
 70
1
 10
86.056395
 20
32.837602
 30
0.0
 10
83.731369
 20
30.809680
 30
0.0
 10
84.565359
 20
28.242121
 30
0.0
  0
SPLINE
  5
1e0
100
AcDbEntity
  8
Calque_1
 62
1
100
AcDbSpline
 70
8
 71
3
 72
8
 73
4
 74
0
 40
0
 40
0
 40
0
 40
0
 40
1
 40
1
 40
1
 40
1
 10
91.010168
 20
16.523834
 30
0.0
 10
91.010168
 20
16.523834
 30
0.0
 10
94.018700
 20
17.213404
 30
0.0
 10
94.018700
 20
17.213404
 30
0.0
  0
SPLINE
  5
1e1
100
AcDbEntity
  8
Calque_1
 62
1
100
AcDbSpline
 70
8
 71
3
 72
8
 73
4
 74
0
 40
0
 40
0
 40
0
 40
0
 40
1
 40
1
 40
1
 40
1
 10
94.018700
 20
17.213404
 30
0.0
 10
95.598761
 20
15.298354
 30
0.0
 10
97.353687
 20
13.534571
 30
0.0
 10
99.260757
 20
11.944888
 30
0.0
  0
LWPOLYLINE
  5
1e2
100
AcDbEntity
  8
Calque_1
 62
1
100
AcDbPolyline
 90
3
 70
1
 10
90.995837
 20
21.335392
 30
0.0
 10
89.423219
 20
18.708301
 30
0.0
 10
91.010168
 20
16.523834
 30
0.0
  0
SPLINE
  5
1e3
100
AcDbEntity
  8
Calque_1
 62
1
100
AcDbSpline
 70
8
 71
3
 72
8
 73
4
 74
0
 40
0
 40
0
 40
0
 40
0
 40
1
 40
1
 40
1
 40
1
 10
100.760616
 20
7.370904
 30
0.0
 10
100.760616
 20
7.370904
 30
0.0
 10
103.420224
 20
8.963366
 30
0.0
 10
103.420224
 20
8.963366
 30
0.0
  0
SPLINE
  5
1e4
100
AcDbEntity
  8
Calque_1
 62
1
100
AcDbSpline
 70
8
 71
3
 72
8
 73
4
 74
0
 40
0
 40
0
 40
0
 40
0
 40
1
 40
1
 40
1
 40
1
 10
103.420224
 20
8.963366
 30
0.0
 10
105.511049
 20
7.636072
 30
0.0
 10
107.720620
 20
6.505821
 30
0.0
 10
110.020477
 20
5.587172
 30
0.0
  0
LWPOLYLINE
  5
1e5
100
AcDbEntity
  8
Calque_1
 62
1
100
AcDbPolyline
 90
3
 70
1
 10
99.260757
 20
11.944888
 30
0.0
 10
98.576148
 20
8.957854
 30
0.0
 10
100.760616
 20
7.370904
 30
0.0
  0
SPLINE
  5
1e6
100
AcDbEntity
  8
Calque_1
 62
1
100
AcDbSpline
 70
8
 71
3
 72
8
 73
4
 74
0
 40
0
 40
0
 40
0
 40
0
 40
1
 40
1
 40
1
 40
1
 10
112.861992
 20
1.678505
 30
0.0
 10
112.861992
 20
1.678505
 30
0.0
 10
114.902591
 20
4.018415
 30
0.0
 10
114.902591
 20
4.018415
 30
0.0
  0
SPLINE
  5
1e7
100
AcDbEntity
  8
Calque_1
 62
1
100
AcDbSpline
 70
8
 71
3
 72
8
 73
4
 74
0
 40
0
 40
0
 40
0
 40
0
 40
1
 40
1
 40
1
 40
1
 10
114.902591
 20
4.018415
 30
0.0
 10
117.298718
 20
3.405882
 30
0.0
 10
119.746490
 20
3.016895
 30
0.0
 10
122.214461
 20
2.856452
 30
0.0
  0
LWPOLYLINE
  5
1e8
100
AcDbEntity
  8
Calque_1
 62
1
100
AcDbPolyline
 90
3
 70
1
 10
110.020477
 20
5.587172
 30
0.0
 10
110.294433
 20
2.513044
 30
0.0
 10
112.861992
 20
1.678505
 30
0.0
  0
SPLINE
  5
1e9
100
AcDbEntity
  8
Calque_1
 62
1
100
AcDbSpline
 70
8
 71
3
 72
8
 73
4
 74
0
 40
0
 40
0
 40
0
 40
0
 40
1
 40
1
 40
1
 40
1
 10
126.130294
 20
0.005014
 30
0.0
 10
126.130294
 20
0.005014
 30
0.0
 10
127.329738
 20
2.818417
 30
0.0
 10
127.329738
 20
2.818417
 30
0.0
  0
SPLINE
  5
1ea
100
AcDbEntity
  8
Calque_1
 62
1
100
AcDbSpline
 70
8
 71
3
 72
8
 73
4
 74
0
 40
0
 40
0
 40
0
 40
0
 40
1
 40
1
 40
1
 40
1
 10
127.329738
 20
2.818417
 30
0.0
 10
129.808262
 20
2.984648
 30
0.0
 10
132.265912
 20
3.381400
 30
0.0
 10
134.670838
 20
4.003530
 30
0.0
  0
LWPOLYLINE
  5
1eb
100
AcDbEntity
  8
Calque_1
 62
1
100
AcDbPolyline
 90
3
 70
1
 10
122.214461
 20
2.856452
 30
0.0
 10
123.430443
 20
0.005014
 30
0.0
 10
126.130294
 20
0.005014
 30
0.0
  0
SPLINE
  5
1ec
100
AcDbEntity
  8
Calque_1
 62
1
100
AcDbSpline
 70
8
 71
3
 72
8
 73
4
 74
0
 40
0
 40
0
 40
0
 40
0
 40
1
 40
1
 40
1
 40
1
 10
139.266319
 20
2.513044
 30
0.0
 10
139.266319
 20
2.513044
 30
0.0
 10
139.538607
 20
5.564572
 30
0.0
 10
139.538607
 20
5.564572
 30
0.0
  0
SPLINE
  5
1ed
100
AcDbEntity
  8
Calque_1
 62
1
100
AcDbSpline
 70
8
 71
3
 72
8
 73
4
 74
0
 40
0
 40
0
 40
0
 40
0
 40
1
 40
1
 40
1
 40
1
 10
139.538607
 20
5.564572
 30
0.0
 10
141.850322
 20
6.482177
 30
0.0
 10
144.071416
 20
7.613393
 30
0.0
 10
146.173030
 20
8.943523
 30
0.0
  0
LWPOLYLINE
  5
1ee
100
AcDbEntity
  8
Calque_1
 62
1
100
AcDbPolyline
 90
3
 70
1
 10
134.670838
 20
4.003530
 30
0.0
 10
136.698746
 20
1.678505
 30
0.0
 10
139.266319
 20
2.513044
 30
0.0
  0
SPLINE
  5
1ef
100
AcDbEntity
  8
Calque_1
 62
1
100
AcDbSpline
 70
8
 71
3
 72
8
 73
4
 74
0
 40
0
 40
0
 40
0
 40
0
 40
1
 40
1
 40
1
 40
1
 10
150.984581
 20
8.957854
 30
0.0
 10
150.984581
 20
8.957854
 30
0.0
 10
150.295563
 20
11.965835
 30
0.0
 10
150.295563
 20
11.965835
 30
0.0
  0
SPLINE
  5
1f0
100
AcDbEntity
  8
Calque_1
 62
1
100
AcDbSpline
 70
8
 71
3
 72
8
 73
4
 74
0
 40
0
 40
0
 40
0
 40
0
 40
1
 40
1
 40
1
 40
1
 10
150.295563
 20
11.965835
 30
0.0
 10
152.210455
 20
13.546096
 30
0.0
 10
153.974062
 20
15.301207
 30
0.0
 10
155.563551
 20
17.208446
 30
0.0
  0
LWPOLYLINE
  5
1f1
100
AcDbEntity
  8
Calque_1
 62
1
100
AcDbPolyline
 90
3
 70
1
 10
146.173030
 20
8.943523
 30
0.0
 10
148.800689
 20
7.370904
 30
0.0
 10
150.984581
 20
8.957854
 30
0.0
  0
SPLINE
  5
1f2
100
AcDbEntity
  8
Calque_1
 62
1
100
AcDbSpline
 70
8
 71
3
 72
8
 73
4
 74
0
 40
0
 40
0
 40
0
 40
0
 40
1
 40
1
 40
1
 40
1
 10
158.545624
 20
21.367916
 30
0.0
 10
159.872724
 20
23.458761
 30
0.0
 10
161.002787
 20
25.668332
 30
0.0
 10
161.921256
 20
27.968168
 30
0.0
  0
LWPOLYLINE
  5
1f3
100
AcDbEntity
  8
Calque_1
 62
1
100
AcDbPolyline
 90
4
 70
1
 10
155.563551
 20
17.208446
 30
0.0
 10
158.551128
 20
16.523834
 30
0.0
 10
160.137527
 20
18.708301
 30
0.0
 10
158.545624
 20
21.367916
 30
0.0
  0
SPLINE
  5
1f4
100
AcDbEntity
  8
Calque_1
 62
1
100
AcDbSpline
 70
8
 71
3
 72
8
 73
4
 74
0
 40
0
 40
0
 40
0
 40
0
 40
1
 40
1
 40
1
 40
1
 10
165.829921
 20
30.809680
 30
0.0
 10
165.829921
 20
30.809680
 30
0.0
 10
163.490017
 20
32.850279
 30
0.0
 10
163.490017
 20
32.850279
 30
0.0
  0
SPLINE
  5
1f5
100
AcDbEntity
  8
Calque_1
 62
1
100
AcDbSpline
 70
8
 71
3
 72
8
 73
4
 74
0
 40
0
 40
0
 40
0
 40
0
 40
1
 40
1
 40
1
 40
1
 10
163.490017
 20
32.850279
 30
0.0
 10
164.102550
 20
35.246407
 30
0.0
 10
164.491538
 20
37.694180
 30
0.0
 10
164.651982
 20
40.162152
 30
0.0
  0
LWPOLYLINE
  5
1f6
100
AcDbEntity
  8
Calque_1
 62
1
100
AcDbPolyline
 90
3
 70
1
 10
161.921256
 20
27.968168
 30
0.0
 10
164.995390
 20
28.242121
 30
0.0
 10
165.829921
 20
30.809680
 30
0.0
  0
SPLINE
  5
1f7
100
AcDbEntity
  8
Calque_1
 62
1
100
AcDbSpline
 70
8
 71
3
 72
8
 73
4
 74
0
 40
0
 40
0
 40
0
 40
0
 40
1
 40
1
 40
1
 40
1
 10
167.503950
 20
44.077985
 30
0.0
 10
167.503950
 20
44.077985
 30
0.0
 10
164.689997
 20
45.277430
 30
0.0
 10
164.689997
 20
45.277430
 30
0.0
  0
SPLINE
  5
1f8
100
AcDbEntity
  8
Calque_1
 62
1
100
AcDbSpline
 70
8
 71
3
 72
8
 73
4
 74
0
 40
0
 40
0
 40
0
 40
0
 40
1
 40
1
 40
1
 40
1
 10
164.689997
 20
45.277430
 30
0.0
 10
164.523591
 20
47.755964
 30
0.0
 10
164.126662
 20
50.213609
 30
0.0
 10
163.504353
 20
52.618512
 30
0.0
  0
LWPOLYLINE
  5
1f9
100
AcDbEntity
  8
Calque_1
 62
1
100
AcDbPolyline
 90
3
 70
1
 10
164.651982
 20
40.162152
 30
0.0
 10
167.503950
 20
41.378132
 30
0.0
 10
167.503950
 20
44.077985
 30
0.0
  0
SPLINE
  5
1fa
100
AcDbEntity
  8
Calque_1
 62
1
100
AcDbSpline
 70
8
 71
3
 72
8
 73
4
 74
0
 40
0
 40
0
 40
0
 40
0
 40
1
 40
1
 40
1
 40
1
 10
161.943862
 20
57.486295
 30
0.0
 10
161.026253
 20
59.798012
 30
0.0
 10
159.895034
 20
62.019106
 30
0.0
 10
158.564900
 20
64.120722
 30
0.0
  0
LWPOLYLINE
  5
1fb
100
AcDbEntity
  8
Calque_1
 62
1
100
AcDbPolyline
 90
4
 70
1
 10
163.504353
 20
52.618512
 30
0.0
 10
165.829921
 20
54.646434
 30
0.0
 10
164.995390
 20
57.213996
 30
0.0
 10
161.943862
 20
57.486295
 30
0.0
  0
SPLINE
  5
1fc
100
AcDbEntity
  8
Calque_1
 62
1
100
AcDbSpline
 70
8
 71
3
 72
8
 73
4
 74
0
 40
0
 40
0
 40
0
 40
0
 40
1
 40
1
 40
1
 40
1
 10
155.542046
 20
68.242710
 30
0.0
 10
153.961986
 20
70.157757
 30
0.0
 10
152.207062
 20
71.921539
 30
0.0
 10
150.299994
 20
73.511220
 30
0.0
  0
LWPOLYLINE
  5
1fd
100
AcDbEntity
  8
Calque_1
 62
1
100
AcDbPolyline
 90
4
 70
1
 10
158.564900
 20
64.120722
 30
0.0
 10
160.137527
 20
66.747815
 30
0.0
 10
158.551128
 20
68.932277
 30
0.0
 10
155.542046
 20
68.242710
 30
0.0
  0
SPLINE
  5
1fe
100
AcDbEntity
  8
Calque_1
 62
1
100
AcDbSpline
 70
8
 71
3
 72
8
 73
4
 74
0
 40
0
 40
0
 40
0
 40
0
 40
1
 40
1
 40
1
 40
1
 10
146.140518
 20
76.492757
 30
0.0
 10
144.049675
 20
77.819856
 30
0.0
 10
141.840105
 20
78.949919
 30
0.0
 10
139.540272
 20
79.868389
 30
0.0
  0
LWPOLYLINE
  5
1ff
100
AcDbEntity
  8
Calque_1
 62
1
100
AcDbPolyline
 90
4
 70
1
 10
150.299994
 20
73.511220
 30
0.0
 10
150.984581
 20
76.498260
 30
0.0
 10
148.800689
 20
78.085224
 30
0.0
 10
146.140518
 20
76.492757
 30
0.0
  0
SPLINE
  5
200
100
AcDbEntity
  8
Calque_1
 62
1
100
AcDbSpline
 70
8
 71
3
 72
8
 73
4
 74
0
 40
0
 40
0
 40
0
 40
0
 40
1
 40
1
 40
1
 40
1
 10
134.658138
 20
81.437713
 30
0.0
 10
132.262013
 20
82.050237
 30
0.0
 10
129.814244
 20
82.439215
 30
0.0
 10
127.346277
 20
82.599651
 30
0.0
  0
LWPOLYLINE
  5
201
100
AcDbEntity
  8
Calque_1
 62
1
100
AcDbPolyline
 90
4
 70
1
 10
139.540272
 20
79.868389
 30
0.0
 10
139.266319
 20
82.943059
 30
0.0
 10
136.698746
 20
83.777618
 30
0.0
 10
134.658138
 20
81.437713
 30
0.0
  0
SPLINE
  5
202
100
AcDbEntity
  8
Calque_1
 62
1
100
AcDbSpline
 70
8
 71
3
 72
8
 73
4
 74
0
 40
0
 40
0
 40
0
 40
0
 40
1
 40
1
 40
1
 40
1
 10
124.810135
 20
76.174692
 30
0.0
 10
143.321231
 20
76.174805
 30
0.0
 10
158.327410
 20
61.168581
 30
0.0
 10
158.327325
 20
42.657501
 30
0.0
  0
SPLINE
  5
203
100
AcDbEntity
  8
Calque_1
 62
1
100
AcDbSpline
 70
8
 71
3
 72
8
 73
4
 74
0
 40
0
 40
0
 40
0
 40
0
 40
1
 40
1
 40
1
 40
1
 10
158.327325
 20
42.657501
 30
0.0
 10
158.327438
 20
24.146416
 30
0.0
 10
143.321231
 20
9.140192
 30
0.0
 10
124.810135
 20
9.140305
 30
0.0
  0
SPLINE
  5
204
100
AcDbEntity
  8
Calque_1
 62
1
100
AcDbSpline
 70
8
 71
3
 72
8
 73
4
 74
0
 40
0
 40
0
 40
0
 40
0
 40
1
 40
1
 40
1
 40
1
 10
124.810135
 20
9.140305
 30
0.0
 10
106.299058
 20
9.140203
 30
0.0
 10
91.292836
 20
24.146425
 30
0.0
 10
91.292941
 20
42.657501
 30
0.0
  0
SPLINE
  5
205
100
AcDbEntity
  8
Calque_1
 62
1
100
AcDbSpline
 70
8
 71
3
 72
8
 73
4
 74
0
 40
0
 40
0
 40
0
 40
0
 40
1
 40
1
 40
1
 40
1
 10
91.292941
 20
42.657501
 30
0.0
 10
91.292845
 20
61.168573
 30
0.0
 10
106.299063
 20
76.174805
 30
0.0
 10
124.810135
 20
76.174692
 30
0.0
  0
LWPOLYLINE
  5
206
100
AcDbEntity
  8
Calque_1
 62
1
100
AcDbPolyline
 90
4
 70
1
 10
127.346277
 20
82.599651
 30
0.0
 10
126.130294
 20
85.451111
 30
0.0
 10
123.430443
 20
85.451111
 30
0.0
 10
123.430443
 20
85.451111
 30
0.0
  0
SPLINE
  5
207
100
AcDbEntity
  8
Calque_1
 62
1
100
AcDbSpline
 70
8
 71
3
 72
8
 73
4
 74
0
 40
0
 40
0
 40
0
 40
0
 40
1
 40
1
 40
1
 40
1
 10
124.760133
 20
80.734548
 30
0.0
 10
122.791323
 20
80.724106
 30
0.0
 10
120.826943
 20
80.560220
 30
0.0
 10
118.884182
 20
80.245598
 30
0.0
  0
SPLINE
  5
208
100
AcDbEntity
  8
Calque_1
 62
1
100
AcDbSpline
 70
8
 71
3
 72
8
 73
4
 74
0
 40
0
 40
0
 40
0
 40
0
 40
1
 40
1
 40
1
 40
1
 10
118.884182
 20
80.245598
 30
0.0
 10
118.655401
 20
80.268575
 30
0.0
 10
118.424676
 20
80.228951
 30
0.0
 10
118.216670
 20
80.130960
 30
0.0
  0
SPLINE
  5
209
100
AcDbEntity
  8
Calque_1
 62
1
100
AcDbSpline
 70
8
 71
3
 72
8
 73
4
 74
0
 40
0
 40
0
 40
0
 40
0
 40
1
 40
1
 40
1
 40
1
 10
118.216670
 20
80.130960
 30
0.0
 10
118.186585
 20
80.125597
 30
0.0
 10
118.156331
 20
80.121082
 30
0.0
 10
118.126274
 20
80.115437
 30
0.0
  0
SPLINE
  5
20a
100
AcDbEntity
  8
Calque_1
 62
1
100
AcDbSpline
 70
8
 71
3
 72
8
 73
4
 74
0
 40
0
 40
0
 40
0
 40
0
 40
1
 40
1
 40
1
 40
1
 10
118.126274
 20
80.115437
 30
0.0
 10
118.122041
 20
80.109229
 30
0.0
 10
118.122887
 20
80.109793
 30
0.0
 10
118.117525
 20
80.101609
 30
0.0
  0
SPLINE
  5
20b
100
AcDbEntity
  8
Calque_1
 62
1
100
AcDbSpline
 70
8
 71
3
 72
8
 73
4
 74
0
 40
0
 40
0
 40
0
 40
0
 40
1
 40
1
 40
1
 40
1
 10
118.117525
 20
80.101609
 30
0.0
 10
118.114139
 20
80.097375
 30
0.0
 10
118.111881
 20
80.092013
 30
0.0
 10
118.107647
 20
80.088909
 30
0.0
  0
SPLINE
  5
20c
100
AcDbEntity
  8
Calque_1
 62
1
100
AcDbSpline
 70
8
 71
3
 72
8
 73
4
 74
0
 40
0
 40
0
 40
0
 40
0
 40
1
 40
1
 40
1
 40
1
 10
118.107647
 20
80.088909
 30
0.0
 10
118.104825
 20
80.086086
 30
0.0
 10
118.110752
 20
80.097940
 30
0.0
 10
118.110470
 20
80.095682
 30
0.0
  0
SPLINE
  5
20d
100
AcDbEntity
  8
Calque_1
 62
1
100
AcDbSpline
 70
8
 71
3
 72
8
 73
4
 74
0
 40
0
 40
0
 40
0
 40
0
 40
1
 40
1
 40
1
 40
1
 10
118.110470
 20
80.095682
 30
0.0
 10
118.091843
 20
80.079313
 30
0.0
 10
118.077111
 20
80.058852
 30
0.0
 10
118.060319
 20
80.040564
 30
0.0
  0
SPLINE
  5
20e
100
AcDbEntity
  8
Calque_1
 62
1
100
AcDbSpline
 70
8
 71
3
 72
8
 73
4
 74
0
 40
0
 40
0
 40
0
 40
0
 40
1
 40
1
 40
1
 40
1
 10
118.060319
 20
80.040564
 30
0.0
 10
117.789683
 20
79.861492
 30
0.0
 10
117.597949
 20
79.585526
 30
0.0
 10
117.524548
 20
79.269420
 30
0.0
  0
SPLINE
  5
20f
100
AcDbEntity
  8
Calque_1
 62
1
100
AcDbSpline
 70
8
 71
3
 72
8
 73
4
 74
0
 40
0
 40
0
 40
0
 40
0
 40
1
 40
1
 40
1
 40
1
 10
117.524548
 20
79.269420
 30
0.0
 10
117.367108
 20
78.586756
 30
0.0
 10
117.792766
 20
77.905686
 30
0.0
 10
118.475383
 20
77.748045
 30
0.0
  0
SPLINE
  5
210
100
AcDbEntity
  8
Calque_1
 62
1
100
AcDbSpline
 70
8
 71
3
 72
8
 73
4
 74
0
 40
0
 40
0
 40
0
 40
0
 40
1
 40
1
 40
1
 40
1
 10
118.475383
 20
77.748045
 30
0.0
 10
118.479799
 20
77.747080
 30
0.0
 10
118.484221
 20
77.746139
 30
0.0
 10
118.488647
 20
77.745222
 30
0.0
  0
SPLINE
  5
211
100
AcDbEntity
  8
Calque_1
 62
1
100
AcDbSpline
 70
8
 71
3
 72
8
 73
4
 74
0
 40
0
 40
0
 40
0
 40
0
 40
1
 40
1
 40
1
 40
1
 10
118.488647
 20
77.745222
 30
0.0
 10
118.532392
 20
77.716605
 30
0.0
 10
118.577660
 20
77.692419
 30
0.0
 10
118.624255
 20
77.673566
 30
0.0
  0
SPLINE
  5
212
100
AcDbEntity
  8
Calque_1
 62
1
100
AcDbSpline
 70
8
 71
3
 72
8
 73
4
 74
0
 40
0
 40
0
 40
0
 40
0
 40
1
 40
1
 40
1
 40
1
 10
118.624255
 20
77.673566
 30
0.0
 10
118.624114
 20
77.668768
 30
0.0
 10
118.627077
 20
77.663124
 30
0.0
 10
118.624255
 20
77.658608
 30
0.0
  0
SPLINE
  5
213
100
AcDbEntity
  8
Calque_1
 62
1
100
AcDbSpline
 70
8
 71
3
 72
8
 73
4
 74
0
 40
0
 40
0
 40
0
 40
0
 40
1
 40
1
 40
1
 40
1
 10
118.624255
 20
77.658608
 30
0.0
 10
118.624340
 20
77.658608
 30
0.0
 10
118.624171
 20
77.658721
 30
0.0
 10
118.624255
 20
77.654093
 30
0.0
  0
SPLINE
  5
214
100
AcDbEntity
  8
Calque_1
 62
1
100
AcDbSpline
 70
8
 71
3
 72
8
 73
4
 74
0
 40
0
 40
0
 40
0
 40
0
 40
1
 40
1
 40
1
 40
1
 10
118.624255
 20
77.654093
 30
0.0
 10
120.650667
 20
78.011753
 30
0.0
 10
122.704285
 20
78.192516
 30
0.0
 10
124.762024
 20
78.194294
 30
0.0
  0
SPLINE
  5
215
100
AcDbEntity
  8
Calque_1
 62
1
100
AcDbSpline
 70
8
 71
3
 72
8
 73
4
 74
0
 40
0
 40
0
 40
0
 40
0
 40
1
 40
1
 40
1
 40
1
 10
124.762024
 20
78.194294
 30
0.0
 10
139.633913
 20
78.194464
 30
0.0
 10
152.366933
 20
69.046061
 30
0.0
 10
157.646436
 20
56.070705
 30
0.0
  0
SPLINE
  5
216
100
AcDbEntity
  8
Calque_1
 62
1
100
AcDbSpline
 70
8
 71
3
 72
8
 73
4
 74
0
 40
0
 40
0
 40
0
 40
0
 40
1
 40
1
 40
1
 40
1
 10
157.646436
 20
56.070705
 30
0.0
 10
157.652081
 20
56.070705
 30
0.0
 10
157.657725
 20
56.070705
 30
0.0
 10
157.663652
 20
56.073527
 30
0.0
  0
SPLINE
  5
217
100
AcDbEntity
  8
Calque_1
 62
1
100
AcDbSpline
 70
8
 71
3
 72
8
 73
4
 74
0
 40
0
 40
0
 40
0
 40
0
 40
1
 40
1
 40
1
 40
1
 10
157.663652
 20
56.073527
 30
0.0
 10
157.889950
 20
55.681530
 30
0.0
 10
158.307937
 20
55.439774
 30
0.0
 10
158.760565
 20
55.439092
 30
0.0
  0
SPLINE
  5
218
100
AcDbEntity
  8
Calque_1
 62
1
100
AcDbSpline
 70
8
 71
3
 72
8
 73
4
 74
0
 40
0
 40
0
 40
0
 40
0
 40
1
 40
1
 40
1
 40
1
 10
158.760565
 20
55.439092
 30
0.0
 10
159.097107
 20
55.439061
 30
0.0
 10
159.419875
 20
55.572738
 30
0.0
 10
159.657846
 20
55.810710
 30
0.0
  0
SPLINE
  5
219
100
AcDbEntity
  8
Calque_1
 62
1
100
AcDbSpline
 70
8
 71
3
 72
8
 73
4
 74
0
 40
0
 40
0
 40
0
 40
0
 40
1
 40
1
 40
1
 40
1
 10
159.657846
 20
55.810710
 30
0.0
 10
159.895818
 20
56.048681
 30
0.0
 10
160.029495
 20
56.371449
 30
0.0
 10
160.029464
 20
56.707991
 30
0.0
  0
SPLINE
  5
21a
100
AcDbEntity
  8
Calque_1
 62
1
100
AcDbSpline
 70
8
 71
3
 72
8
 73
4
 74
0
 40
0
 40
0
 40
0
 40
0
 40
1
 40
1
 40
1
 40
1
 10
160.029464
 20
56.707991
 30
0.0
 10
160.029521
 20
56.906738
 30
0.0
 10
159.982887
 20
57.102719
 30
0.0
 10
159.893320
 20
57.280140
 30
0.0
  0
SPLINE
  5
21b
100
AcDbEntity
  8
Calque_1
 62
1
100
AcDbSpline
 70
8
 71
3
 72
8
 73
4
 74
0
 40
0
 40
0
 40
0
 40
0
 40
1
 40
1
 40
1
 40
1
 10
159.893320
 20
57.280140
 30
0.0
 10
159.893320
 20
57.279915
 30
0.0
 10
159.893320
 20
57.279858
 30
0.0
 10
159.896142
 20
57.280140
 30
0.0
  0
SPLINE
  5
21c
100
AcDbEntity
  8
Calque_1
 62
1
100
AcDbSpline
 70
8
 71
3
 72
8
 73
4
 74
0
 40
0
 40
0
 40
0
 40
0
 40
1
 40
1
 40
1
 40
1
 10
159.896142
 20
57.280140
 30
0.0
 10
154.178066
 20
71.050149
 30
0.0
 10
140.603008
 20
80.735000
 30
0.0
 10
124.763887
 20
80.734887
 30
0.0
  0
LWPOLYLINE
  5
21d
100
AcDbEntity
  8
Calque_1
 62
1
100
AcDbPolyline
 90
2
 70
1
 10
124.810135
 20
76.174692
 30
0.0
 10
124.810135
 20
76.174692
 30
0.0
  0
SPLINE
  5
21e
100
AcDbEntity
  8
Calque_1
 62
1
100
AcDbSpline
 70
8
 71
3
 72
8
 73
4
 74
0
 40
0
 40
0
 40
0
 40
0
 40
1
 40
1
 40
1
 40
1
 10
110.760387
 20
77.976249
 30
0.0
 10
110.715458
 20
77.976281
 30
0.0
 10
110.670559
 20
77.973926
 30
0.0
 10
110.625880
 20
77.969194
 30
0.0
  0
SPLINE
  5
21f
100
AcDbEntity
  8
Calque_1
 62
1
100
AcDbSpline
 70
8
 71
3
 72
8
 73
4
 74
0
 40
0
 40
0
 40
0
 40
0
 40
1
 40
1
 40
1
 40
1
 10
110.625880
 20
77.969194
 30
0.0
 10
110.623058
 20
77.972016
 30
0.0
 10
110.622211
 20
77.972863
 30
0.0
 10
110.620235
 20
77.974838
 30
0.0
  0
SPLINE
  5
220
100
AcDbEntity
  8
Calque_1
 62
1
100
AcDbSpline
 70
8
 71
3
 72
8
 73
4
 74
0
 40
0
 40
0
 40
0
 40
0
 40
1
 40
1
 40
1
 40
1
 10
110.620235
 20
77.974838
 30
0.0
 10
110.612051
 20
77.971452
 30
0.0
 10
110.604149
 20
77.968065
 30
0.0
 10
110.595964
 20
77.964961
 30
0.0
  0
SPLINE
  5
221
100
AcDbEntity
  8
Calque_1
 62
1
100
AcDbSpline
 70
8
 71
3
 72
8
 73
4
 74
0
 40
0
 40
0
 40
0
 40
0
 40
1
 40
1
 40
1
 40
1
 10
110.595964
 20
77.964961
 30
0.0
 10
110.368328
 20
77.935104
 30
0.0
 10
110.153059
 20
77.844041
 30
0.0
 10
109.973100
 20
77.701478
 30
0.0
  0
SPLINE
  5
222
100
AcDbEntity
  8
Calque_1
 62
1
100
AcDbSpline
 70
8
 71
3
 72
8
 73
4
 74
0
 40
0
 40
0
 40
0
 40
0
 40
1
 40
1
 40
1
 40
1
 10
109.973100
 20
77.701478
 30
0.0
 10
95.922613
 20
71.771227
 30
0.0
 10
86.745988
 20
58.002657
 30
0.0
 10
86.733316
 20
42.706490
 30
0.0
  0
SPLINE
  5
223
100
AcDbEntity
  8
Calque_1
 62
1
100
AcDbSpline
 70
8
 71
3
 72
8
 73
4
 74
0
 40
0
 40
0
 40
0
 40
0
 40
1
 40
1
 40
1
 40
1
 10
86.733316
 20
42.706490
 30
0.0
 10
86.733316
 20
40.645954
 30
0.0
 10
86.901069
 20
38.625184
 30
0.0
 10
87.216735
 20
36.653593
 30
0.0
  0
SPLINE
  5
224
100
AcDbEntity
  8
Calque_1
 62
1
100
AcDbSpline
 70
8
 71
3
 72
8
 73
4
 74
0
 40
0
 40
0
 40
0
 40
0
 40
1
 40
1
 40
1
 40
1
 10
87.216735
 20
36.653593
 30
0.0
 10
87.220815
 20
36.555110
 30
0.0
 10
87.236357
 20
36.457437
 30
0.0
 10
87.263047
 20
36.362552
 30
0.0
  0
SPLINE
  5
225
100
AcDbEntity
  8
Calque_1
 62
1
100
AcDbSpline
 70
8
 71
3
 72
8
 73
4
 74
0
 40
0
 40
0
 40
0
 40
0
 40
1
 40
1
 40
1
 40
1
 10
87.263047
 20
36.362552
 30
0.0
 10
87.263047
 20
36.362175
 30
0.0
 10
87.263047
 20
36.361799
 30
0.0
 10
87.263047
 20
36.361423
 30
0.0
  0
SPLINE
  5
226
100
AcDbEntity
  8
Calque_1
 62
1
100
AcDbSpline
 70
8
 71
3
 72
8
 73
4
 74
0
 40
0
 40
0
 40
0
 40
0
 40
1
 40
1
 40
1
 40
1
 10
87.263047
 20
36.361423
 30
0.0
 10
87.389408
 20
35.916558
 30
0.0
 10
87.747809
 20
35.575681
 30
0.0
 10
88.198445
 20
35.471762
 30
0.0
  0
SPLINE
  5
227
100
AcDbEntity
  8
Calque_1
 62
1
100
AcDbSpline
 70
8
 71
3
 72
8
 73
4
 74
0
 40
0
 40
0
 40
0
 40
0
 40
1
 40
1
 40
1
 40
1
 10
88.198445
 20
35.471762
 30
0.0
 10
88.881102
 20
35.314341
 30
0.0
 10
89.562155
 20
35.740001
 30
0.0
 10
89.719792
 20
36.422609
 30
0.0
  0
SPLINE
  5
228
100
AcDbEntity
  8
Calque_1
 62
1
100
AcDbSpline
 70
8
 71
3
 72
8
 73
4
 74
0
 40
0
 40
0
 40
0
 40
0
 40
1
 40
1
 40
1
 40
1
 10
89.719792
 20
36.422609
 30
0.0
 10
89.744838
 20
36.532837
 30
0.0
 10
89.755041
 20
36.645919
 30
0.0
 10
89.750131
 20
36.758851
 30
0.0
  0
SPLINE
  5
229
100
AcDbEntity
  8
Calque_1
 62
1
100
AcDbSpline
 70
8
 71
3
 72
8
 73
4
 74
0
 40
0
 40
0
 40
0
 40
0
 40
1
 40
1
 40
1
 40
1
 10
89.750131
 20
36.758851
 30
0.0
 10
89.756340
 20
36.758905
 30
0.0
 10
89.762831
 20
36.759415
 30
0.0
 10
89.768757
 20
36.759415
 30
0.0
  0
SPLINE
  5
22a
100
AcDbEntity
  8
Calque_1
 62
1
100
AcDbSpline
 70
8
 71
3
 72
8
 73
4
 74
0
 40
0
 40
0
 40
0
 40
0
 40
1
 40
1
 40
1
 40
1
 10
89.768757
 20
36.759415
 30
0.0
 10
89.442396
 20
38.693428
 30
0.0
 10
89.269901
 20
40.679646
 30
0.0
 10
89.269901
 20
42.706478
 30
0.0
  0
SPLINE
  5
22b
100
AcDbEntity
  8
Calque_1
 62
1
100
AcDbSpline
 70
8
 71
3
 72
8
 73
4
 74
0
 40
0
 40
0
 40
0
 40
0
 40
1
 40
1
 40
1
 40
1
 10
89.269901
 20
42.706478
 30
0.0
 10
89.276957
 20
57.213028
 30
0.0
 10
98.112121
 20
70.254875
 30
0.0
 10
111.581428
 20
75.641594
 30
0.0
  0
SPLINE
  5
22c
100
AcDbEntity
  8
Calque_1
 62
1
100
AcDbSpline
 70
8
 71
3
 72
8
 73
4
 74
0
 40
0
 40
0
 40
0
 40
0
 40
1
 40
1
 40
1
 40
1
 10
111.581428
 20
75.641594
 30
0.0
 10
111.581541
 20
75.656834
 30
0.0
 10
111.578606
 20
75.672469
 30
0.0
 10
111.581428
 20
75.687343
 30
0.0
  0
SPLINE
  5
22d
100
AcDbEntity
  8
Calque_1
 62
1
100
AcDbSpline
 70
8
 71
3
 72
8
 73
4
 74
0
 40
0
 40
0
 40
0
 40
0
 40
1
 40
1
 40
1
 40
1
 10
111.581428
 20
75.687343
 30
0.0
 10
111.589048
 20
75.711896
 30
0.0
 10
111.592435
 20
75.733542
 30
0.0
 10
111.599490
 20
75.757898
 30
0.0
  0
SPLINE
  5
22e
100
AcDbEntity
  8
Calque_1
 62
1
100
AcDbSpline
 70
8
 71
3
 72
8
 73
4
 74
0
 40
0
 40
0
 40
0
 40
0
 40
1
 40
1
 40
1
 40
1
 10
111.599490
 20
75.757898
 30
0.0
 10
111.872200
 20
75.998487
 30
0.0
 10
112.028562
 20
76.344530
 30
0.0
 10
112.028891
 20
76.708197
 30
0.0
  0
SPLINE
  5
22f
100
AcDbEntity
  8
Calque_1
 62
1
100
AcDbSpline
 70
8
 71
3
 72
8
 73
4
 74
0
 40
0
 40
0
 40
0
 40
0
 40
1
 40
1
 40
1
 40
1
 10
112.028891
 20
76.708197
 30
0.0
 10
112.028644
 20
77.408797
 30
0.0
 10
111.460592
 20
77.976596
 30
0.0
 10
110.759992
 20
77.976532
 30
0.0
  0
LWPOLYLINE
  5
230
100
AcDbEntity
  8
Calque_1
 62
1
100
AcDbPolyline
 90
3
 70
1
 10
124.763887
 20
80.734887
 30
0.0
 10
124.761065
 20
80.734887
 30
0.0
 10
124.760133
 20
80.734548
 30
0.0
  0
LWPOLYLINE
  5
231
100
AcDbEntity
  8
Calque_1
 62
1
100
AcDbPolyline
 90
2
 70
1
 10
110.759992
 20
77.976532
 30
0.0
 10
110.760387
 20
77.976249
 30
0.0
  0
SPLINE
  5
232
100
AcDbEntity
  8
Calque_1
 62
1
100
AcDbSpline
 70
8
 71
3
 72
8
 73
4
 74
0
 40
0
 40
0
 40
0
 40
0
 40
1
 40
1
 40
1
 40
1
 10
160.981061
 20
49.973890
 30
0.0
 10
160.411728
 20
49.948668
 30
0.0
 10
159.929064
 20
49.546941
 30
0.0
 10
159.800921
 20
48.991643
 30
0.0
  0
SPLINE
  5
233
100
AcDbEntity
  8
Calque_1
 62
1
100
AcDbSpline
 70
8
 71
3
 72
8
 73
4
 74
0
 40
0
 40
0
 40
0
 40
0
 40
1
 40
1
 40
1
 40
1
 10
159.800921
 20
48.991643
 30
0.0
 10
159.769756
 20
48.854670
 30
0.0
 10
159.761554
 20
48.713471
 30
0.0
 10
159.776649
 20
48.573811
 30
0.0
  0
SPLINE
  5
234
100
AcDbEntity
  8
Calque_1
 62
1
100
AcDbSpline
 70
8
 71
3
 72
8
 73
4
 74
0
 40
0
 40
0
 40
0
 40
0
 40
1
 40
1
 40
1
 40
1
 10
159.776649
 20
48.573811
 30
0.0
 10
159.772981
 20
48.573562
 30
0.0
 10
159.768747
 20
48.572964
 30
0.0
 10
159.765078
 20
48.572682
 30
0.0
  0
SPLINE
  5
235
100
AcDbEntity
  8
Calque_1
 62
1
100
AcDbSpline
 70
8
 71
3
 72
8
 73
4
 74
0
 40
0
 40
0
 40
0
 40
0
 40
1
 40
1
 40
1
 40
1
 10
159.765078
 20
48.572682
 30
0.0
 10
160.082804
 20
46.663505
 30
0.0
 10
160.250698
 20
44.703240
 30
0.0
 10
160.250726
 20
42.703893
 30
0.0
  0
SPLINE
  5
236
100
AcDbEntity
  8
Calque_1
 62
1
100
AcDbSpline
 70
8
 71
3
 72
8
 73
4
 74
0
 40
0
 40
0
 40
0
 40
0
 40
1
 40
1
 40
1
 40
1
 10
160.250726
 20
42.703893
 30
0.0
 10
160.250613
 20
27.889007
 30
0.0
 10
151.172287
 20
15.196641
 30
0.0
 10
138.275945
 20
9.880675
 30
0.0
  0
SPLINE
  5
237
100
AcDbEntity
  8
Calque_1
 62
1
100
AcDbSpline
 70
8
 71
3
 72
8
 73
4
 74
0
 40
0
 40
0
 40
0
 40
0
 40
1
 40
1
 40
1
 40
1
 10
138.275945
 20
9.880675
 30
0.0
 10
138.276170
 20
9.880111
 30
0.0
 10
138.275945
 20
9.879264
 30
0.0
 10
138.275945
 20
9.878418
 30
0.0
  0
SPLINE
  5
238
100
AcDbEntity
  8
Calque_1
 62
1
100
AcDbSpline
 70
8
 71
3
 72
8
 73
4
 74
0
 40
0
 40
0
 40
0
 40
0
 40
1
 40
1
 40
1
 40
1
 10
138.275945
 20
9.878418
 30
0.0
 10
137.801062
 20
9.682777
 30
0.0
 10
137.490968
 20
9.220139
 30
0.0
 10
137.490464
 20
8.706535
 30
0.0
  0
SPLINE
  5
239
100
AcDbEntity
  8
Calque_1
 62
1
100
AcDbSpline
 70
8
 71
3
 72
8
 73
4
 74
0
 40
0
 40
0
 40
0
 40
0
 40
1
 40
1
 40
1
 40
1
 10
137.490464
 20
8.706535
 30
0.0
 10
137.490434
 20
8.369993
 30
0.0
 10
137.624111
 20
8.047226
 30
0.0
 10
137.862083
 20
7.809255
 30
0.0
  0
SPLINE
  5
23a
100
AcDbEntity
  8
Calque_1
 62
1
100
AcDbSpline
 70
8
 71
3
 72
8
 73
4
 74
0
 40
0
 40
0
 40
0
 40
0
 40
1
 40
1
 40
1
 40
1
 10
137.862083
 20
7.809255
 30
0.0
 10
138.100054
 20
7.571285
 30
0.0
 10
138.422821
 20
7.437608
 30
0.0
 10
138.759363
 20
7.437638
 30
0.0
  0
SPLINE
  5
23b
100
AcDbEntity
  8
Calque_1
 62
1
100
AcDbSpline
 70
8
 71
3
 72
8
 73
4
 74
0
 40
0
 40
0
 40
0
 40
0
 40
1
 40
1
 40
1
 40
1
 10
138.759363
 20
7.437638
 30
0.0
 10
138.960239
 20
7.437741
 30
0.0
 10
139.158219
 20
7.485538
 30
0.0
 10
139.337015
 20
7.577096
 30
0.0
  0
SPLINE
  5
23c
100
AcDbEntity
  8
Calque_1
 62
1
100
AcDbSpline
 70
8
 71
3
 72
8
 73
4
 74
0
 40
0
 40
0
 40
0
 40
0
 40
1
 40
1
 40
1
 40
1
 10
139.337015
 20
7.577096
 30
0.0
 10
139.337157
 20
7.575967
 30
0.0
 10
139.337015
 20
7.574838
 30
0.0
 10
139.337015
 20
7.573794
 30
0.0
  0
SPLINE
  5
23d
100
AcDbEntity
  8
Calque_1
 62
1
100
AcDbSpline
 70
8
 71
3
 72
8
 73
4
 74
0
 40
0
 40
0
 40
0
 40
0
 40
1
 40
1
 40
1
 40
1
 10
139.337015
 20
7.573794
 30
0.0
 10
153.104126
 20
13.293225
 30
0.0
 10
162.786437
 20
26.867357
 30
0.0
 10
162.786295
 20
42.704395
 30
0.0
  0
SPLINE
  5
23e
100
AcDbEntity
  8
Calque_1
 62
1
100
AcDbSpline
 70
8
 71
3
 72
8
 73
4
 74
0
 40
0
 40
0
 40
0
 40
0
 40
1
 40
1
 40
1
 40
1
 10
162.786295
 20
42.704395
 30
0.0
 10
162.786295
 20
44.765227
 30
0.0
 10
162.618543
 20
46.786514
 30
0.0
 10
162.302877
 20
48.758392
 30
0.0
  0
SPLINE
  5
23f
100
AcDbEntity
  8
Calque_1
 62
1
100
AcDbSpline
 70
8
 71
3
 72
8
 73
4
 74
0
 40
0
 40
0
 40
0
 40
0
 40
1
 40
1
 40
1
 40
1
 10
162.302877
 20
48.758392
 30
0.0
 10
162.279595
 20
49.329406
 30
0.0
 10
161.877439
 20
49.814383
 30
0.0
 10
161.320603
 20
49.942958
 30
0.0
  0
SPLINE
  5
240
100
AcDbEntity
  8
Calque_1
 62
1
100
AcDbSpline
 70
8
 71
3
 72
8
 73
4
 74
0
 40
0
 40
0
 40
0
 40
0
 40
1
 40
1
 40
1
 40
1
 10
161.320603
 20
49.942958
 30
0.0
 10
161.208785
 20
49.968619
 30
0.0
 10
161.094003
 20
49.978996
 30
0.0
 10
160.979396
 20
49.973805
 30
0.0
  0
LWPOLYLINE
  5
241
100
AcDbEntity
  8
Calque_1
 62
1
100
AcDbPolyline
 90
5
 70
1
 10
110.620377
 20
77.973427
 30
0.0
 10
110.620377
 20
77.973427
 30
0.0
 10
110.620377
 20
77.973427
 30
0.0
 10
110.620377
 20
77.973427
 30
0.0
 10
110.620377
 20
77.973427
 30
0.0
  0
SPLINE
  5
242
100
AcDbEntity
  8
Calque_1
 62
1
100
AcDbSpline
 70
8
 71
3
 72
8
 73
4
 74
0
 40
0
 40
0
 40
0
 40
0
 40
1
 40
1
 40
1
 40
1
 10
90.760091
 20
29.975256
 30
0.0
 10
90.059480
 20
29.975024
 30
0.0
 10
89.491664
 20
29.406968
 30
0.0
 10
89.491728
 20
28.706357
 30
0.0
  0
SPLINE
  5
243
100
AcDbEntity
  8
Calque_1
 62
1
100
AcDbSpline
 70
8
 71
3
 72
8
 73
4
 74
0
 40
0
 40
0
 40
0
 40
0
 40
1
 40
1
 40
1
 40
1
 10
89.491728
 20
28.706357
 30
0.0
 10
89.492021
 20
28.497424
 30
0.0
 10
89.543905
 20
28.291797
 30
0.0
 10
89.642773
 20
28.107738
 30
0.0
  0
SPLINE
  5
244
100
AcDbEntity
  8
Calque_1
 62
1
100
AcDbSpline
 70
8
 71
3
 72
8
 73
4
 74
0
 40
0
 40
0
 40
0
 40
0
 40
1
 40
1
 40
1
 40
1
 10
89.642773
 20
28.107738
 30
0.0
 10
95.367397
 20
14.352523
 30
0.0
 10
108.931785
 20
4.678967
 30
0.0
 10
124.760133
 20
4.678882
 30
0.0
  0
SPLINE
  5
245
100
AcDbEntity
  8
Calque_1
 62
1
100
AcDbSpline
 70
8
 71
3
 72
8
 73
4
 74
0
 40
0
 40
0
 40
0
 40
0
 40
1
 40
1
 40
1
 40
1
 10
124.760133
 20
4.678882
 30
0.0
 10
126.821371
 20
4.678882
 30
0.0
 10
128.843014
 20
4.846556
 30
0.0
 10
130.815239
 20
5.162301
 30
0.0
  0
SPLINE
  5
246
100
AcDbEntity
  8
Calque_1
 62
1
100
AcDbSpline
 70
8
 71
3
 72
8
 73
4
 74
0
 40
0
 40
0
 40
0
 40
0
 40
1
 40
1
 40
1
 40
1
 10
130.815239
 20
5.162301
 30
0.0
 10
130.929807
 20
5.167744
 30
0.0
 10
131.043107
 20
5.188697
 30
0.0
 10
131.152043
 20
5.224587
 30
0.0
  0
SPLINE
  5
247
100
AcDbEntity
  8
Calque_1
 62
1
100
AcDbSpline
 70
8
 71
3
 72
8
 73
4
 74
0
 40
0
 40
0
 40
0
 40
0
 40
1
 40
1
 40
1
 40
1
 10
131.152043
 20
5.224587
 30
0.0
 10
131.152043
 20
5.222047
 30
0.0
 10
131.152043
 20
5.221370
 30
0.0
 10
131.154865
 20
5.217419
 30
0.0
  0
SPLINE
  5
248
100
AcDbEntity
  8
Calque_1
 62
1
100
AcDbSpline
 70
8
 71
3
 72
8
 73
4
 74
0
 40
0
 40
0
 40
0
 40
0
 40
1
 40
1
 40
1
 40
1
 10
131.154865
 20
5.217419
 30
0.0
 10
131.164743
 20
5.220241
 30
0.0
 10
131.174621
 20
5.220693
 30
0.0
 10
131.184640
 20
5.222386
 30
0.0
  0
SPLINE
  5
249
100
AcDbEntity
  8
Calque_1
 62
1
100
AcDbSpline
 70
8
 71
3
 72
8
 73
4
 74
0
 40
0
 40
0
 40
0
 40
0
 40
1
 40
1
 40
1
 40
1
 10
131.184640
 20
5.222386
 30
0.0
 10
131.184640
 20
5.226055
 30
0.0
 10
131.184640
 20
5.229752
 30
0.0
 10
131.181818
 20
5.233421
 30
0.0
  0
SPLINE
  5
24a
100
AcDbEntity
  8
Calque_1
 62
1
100
AcDbSpline
 70
8
 71
3
 72
8
 73
4
 74
0
 40
0
 40
0
 40
0
 40
0
 40
1
 40
1
 40
1
 40
1
 10
131.181818
 20
5.233421
 30
0.0
 10
131.591418
 20
5.377703
 30
0.0
 10
131.898772
 20
5.721450
 30
0.0
 10
131.996509
 20
6.144578
 30
0.0
  0
SPLINE
  5
24b
100
AcDbEntity
  8
Calque_1
 62
1
100
AcDbSpline
 70
8
 71
3
 72
8
 73
4
 74
0
 40
0
 40
0
 40
0
 40
0
 40
1
 40
1
 40
1
 40
1
 10
131.996509
 20
6.144578
 30
0.0
 10
132.153935
 20
6.827244
 30
0.0
 10
131.728264
 20
7.508305
 30
0.0
 10
131.045645
 20
7.665934
 30
0.0
  0
SPLINE
  5
24c
100
AcDbEntity
  8
Calque_1
 62
1
100
AcDbSpline
 70
8
 71
3
 72
8
 73
4
 74
0
 40
0
 40
0
 40
0
 40
0
 40
1
 40
1
 40
1
 40
1
 10
131.045645
 20
7.665934
 30
0.0
 10
130.831487
 20
7.714774
 30
0.0
 10
130.608317
 20
7.707179
 30
0.0
 10
130.397974
 20
7.643892
 30
0.0
  0
SPLINE
  5
24d
100
AcDbEntity
  8
Calque_1
 62
1
100
AcDbSpline
 70
8
 71
3
 72
8
 73
4
 74
0
 40
0
 40
0
 40
0
 40
0
 40
1
 40
1
 40
1
 40
1
 10
130.397974
 20
7.643892
 30
0.0
 10
130.395151
 20
7.650242
 30
0.0
 10
130.392047
 20
7.656253
 30
0.0
 10
130.389789
 20
7.662632
 30
0.0
  0
SPLINE
  5
24e
100
AcDbEntity
  8
Calque_1
 62
1
100
AcDbSpline
 70
8
 71
3
 72
8
 73
4
 74
0
 40
0
 40
0
 40
0
 40
0
 40
1
 40
1
 40
1
 40
1
 10
130.389789
 20
7.662632
 30
0.0
 10
128.555853
 20
7.370306
 30
0.0
 10
126.675942
 20
7.216119
 30
0.0
 10
124.759682
 20
7.216148
 30
0.0
  0
SPLINE
  5
24f
100
AcDbEntity
  8
Calque_1
 62
1
100
AcDbSpline
 70
8
 71
3
 72
8
 73
4
 74
0
 40
0
 40
0
 40
0
 40
0
 40
1
 40
1
 40
1
 40
1
 10
124.759682
 20
7.216148
 30
0.0
 10
109.906044
 20
7.216176
 30
0.0
 10
97.186235
 20
16.342737
 30
0.0
 10
91.895133
 20
29.292871
 30
0.0
  0
SPLINE
  5
250
100
AcDbEntity
  8
Calque_1
 62
1
100
AcDbSpline
 70
8
 71
3
 72
8
 73
4
 74
0
 40
0
 40
0
 40
0
 40
0
 40
1
 40
1
 40
1
 40
1
 10
91.895133
 20
29.292871
 30
0.0
 10
91.891464
 20
29.292927
 30
0.0
 10
91.888359
 20
29.293435
 30
0.0
 10
91.884690
 20
29.293435
 30
0.0
  0
SPLINE
  5
251
100
AcDbEntity
  8
Calque_1
 62
1
100
AcDbSpline
 70
8
 71
3
 72
8
 73
4
 74
0
 40
0
 40
0
 40
0
 40
0
 40
1
 40
1
 40
1
 40
1
 10
91.884690
 20
29.293435
 30
0.0
 10
91.666088
 20
29.712393
 30
0.0
 10
91.232764
 20
29.975148
 30
0.0
 10
90.760204
 20
29.975290
 30
0.0
  0
LWPOLYLINE
  5
252
100
AcDbEntity
  8
Calque_1
 62
1
100
AcDbPolyline
 90
2
 70
1
 10
160.979396
 20
49.973805
 30
0.0
 10
160.981061
 20
49.973890
 30
0.0
  0
SPLINE
  5
253
100
AcDbEntity
  8
Calque_1
 62
1
100
AcDbSpline
 70
8
 71
3
 72
8
 73
4
 74
0
 40
0
 40
0
 40
0
 40
0
 40
1
 40
1
 40
1
 40
1
 10
115.753896
 20
77.975140
 30
0.0
 10
115.690428
 20
77.426515
 30
0.0
 10
115.194228
 20
77.033217
 30
0.0
 10
114.645603
 20
77.096684
 30
0.0
  0
SPLINE
  5
254
100
AcDbEntity
  8
Calque_1
 62
1
100
AcDbSpline
 70
8
 71
3
 72
8
 73
4
 74
0
 40
0
 40
0
 40
0
 40
0
 40
1
 40
1
 40
1
 40
1
 10
114.645603
 20
77.096684
 30
0.0
 10
114.382143
 20
77.127163
 30
0.0
 10
114.141582
 20
77.261052
 30
0.0
 10
113.976839
 20
77.468898
 30
0.0
  0
SPLINE
  5
255
100
AcDbEntity
  8
Calque_1
 62
1
100
AcDbSpline
 70
8
 71
3
 72
8
 73
4
 74
0
 40
0
 40
0
 40
0
 40
0
 40
1
 40
1
 40
1
 40
1
 10
113.976839
 20
77.468898
 30
0.0
 10
113.812097
 20
77.676743
 30
0.0
 10
113.736669
 20
77.941520
 30
0.0
 10
113.767147
 20
78.204980
 30
0.0
  0
SPLINE
  5
256
100
AcDbEntity
  8
Calque_1
 62
1
100
AcDbSpline
 70
8
 71
3
 72
8
 73
4
 74
0
 40
0
 40
0
 40
0
 40
0
 40
1
 40
1
 40
1
 40
1
 10
113.767147
 20
78.204980
 30
0.0
 10
113.797626
 20
78.468439
 30
0.0
 10
113.931515
 20
78.709001
 30
0.0
 10
114.139361
 20
78.873743
 30
0.0
  0
SPLINE
  5
257
100
AcDbEntity
  8
Calque_1
 62
1
100
AcDbSpline
 70
8
 71
3
 72
8
 73
4
 74
0
 40
0
 40
0
 40
0
 40
0
 40
1
 40
1
 40
1
 40
1
 10
114.139361
 20
78.873743
 30
0.0
 10
114.347207
 20
79.038486
 30
0.0
 10
114.611983
 20
79.113914
 30
0.0
 10
114.875443
 20
79.083435
 30
0.0
  0
SPLINE
  5
258
100
AcDbEntity
  8
Calque_1
 62
1
100
AcDbSpline
 70
8
 71
3
 72
8
 73
4
 74
0
 40
0
 40
0
 40
0
 40
0
 40
1
 40
1
 40
1
 40
1
 10
114.875443
 20
79.083435
 30
0.0
 10
115.424068
 20
79.019966
 30
0.0
 10
115.817365
 20
78.523765
 30
0.0
 10
115.753896
 20
77.975140
 30
0.0
  0
LWPOLYLINE
  5
259
100
AcDbEntity
  8
Calque_1
 62
1
100
AcDbPolyline
 90
2
 70
1
 10
90.760204
 20
29.975290
 30
0.0
 10
90.760091
 20
29.975256
 30
0.0
  0
SPLINE
  5
25a
100
AcDbEntity
  8
Calque_1
 62
1
100
AcDbSpline
 70
8
 71
3
 72
8
 73
4
 74
0
 40
0
 40
0
 40
0
 40
0
 40
1
 40
1
 40
1
 40
1
 10
90.370563
 20
32.594512
 30
0.0
 10
90.340084
 20
32.331052
 30
0.0
 10
90.206195
 20
32.090491
 30
0.0
 10
89.998349
 20
31.925748
 30
0.0
  0
SPLINE
  5
25b
100
AcDbEntity
  8
Calque_1
 62
1
100
AcDbSpline
 70
8
 71
3
 72
8
 73
4
 74
0
 40
0
 40
0
 40
0
 40
0
 40
1
 40
1
 40
1
 40
1
 10
89.998349
 20
31.925748
 30
0.0
 10
89.790503
 20
31.761006
 30
0.0
 10
89.525727
 20
31.685577
 30
0.0
 10
89.262267
 20
31.716056
 30
0.0
  0
SPLINE
  5
25c
100
AcDbEntity
  8
Calque_1
 62
1
100
AcDbSpline
 70
8
 71
3
 72
8
 73
4
 74
0
 40
0
 40
0
 40
0
 40
0
 40
1
 40
1
 40
1
 40
1
 10
89.262267
 20
31.716056
 30
0.0
 10
88.713642
 20
31.779526
 30
0.0
 10
88.320345
 20
32.275726
 30
0.0
 10
88.383814
 20
32.824352
 30
0.0
  0
SPLINE
  5
25d
100
AcDbEntity
  8
Calque_1
 62
1
100
AcDbSpline
 70
8
 71
3
 72
8
 73
4
 74
0
 40
0
 40
0
 40
0
 40
0
 40
1
 40
1
 40
1
 40
1
 10
88.383814
 20
32.824352
 30
0.0
 10
88.447282
 20
33.372977
 30
0.0
 10
88.943481
 20
33.766275
 30
0.0
 10
89.492107
 20
33.702807
 30
0.0
  0
SPLINE
  5
25e
100
AcDbEntity
  8
Calque_1
 62
1
100
AcDbSpline
 70
8
 71
3
 72
8
 73
4
 74
0
 40
0
 40
0
 40
0
 40
0
 40
1
 40
1
 40
1
 40
1
 10
89.492107
 20
33.702807
 30
0.0
 10
89.755567
 20
33.672329
 30
0.0
 10
89.996128
 20
33.538440
 30
0.0
 10
90.160871
 20
33.330594
 30
0.0
  0
SPLINE
  5
25f
100
AcDbEntity
  8
Calque_1
 62
1
100
AcDbSpline
 70
8
 71
3
 72
8
 73
4
 74
0
 40
0
 40
0
 40
0
 40
0
 40
1
 40
1
 40
1
 40
1
 10
90.160871
 20
33.330594
 30
0.0
 10
90.325613
 20
33.122748
 30
0.0
 10
90.401041
 20
32.857972
 30
0.0
 10
90.370563
 20
32.594512
 30
0.0
  0
LWPOLYLINE
  5
260
100
AcDbEntity
  8
Calque_1
 62
1
100
AcDbPolyline
 90
2
 70
1
 10
115.753896
 20
77.975140
 30
0.0
 10
115.753896
 20
77.975140
 30
0.0
  0
SPLINE
  5
261
100
AcDbEntity
  8
Calque_1
 62
1
100
AcDbSpline
 70
8
 71
3
 72
8
 73
4
 74
0
 40
0
 40
0
 40
0
 40
0
 40
1
 40
1
 40
1
 40
1
 10
135.754061
 20
7.210889
 30
0.0
 10
135.690591
 20
6.662264
 30
0.0
 10
135.194391
 20
6.268968
 30
0.0
 10
134.645766
 20
6.332436
 30
0.0
  0
SPLINE
  5
262
100
AcDbEntity
  8
Calque_1
 62
1
100
AcDbSpline
 70
8
 71
3
 72
8
 73
4
 74
0
 40
0
 40
0
 40
0
 40
0
 40
1
 40
1
 40
1
 40
1
 10
134.645766
 20
6.332436
 30
0.0
 10
134.097142
 20
6.395906
 30
0.0
 10
133.703845
 20
6.892105
 30
0.0
 10
133.767312
 20
7.440729
 30
0.0
  0
SPLINE
  5
263
100
AcDbEntity
  8
Calque_1
 62
1
100
AcDbSpline
 70
8
 71
3
 72
8
 73
4
 74
0
 40
0
 40
0
 40
0
 40
0
 40
1
 40
1
 40
1
 40
1
 10
133.767312
 20
7.440729
 30
0.0
 10
133.830780
 20
7.989354
 30
0.0
 10
134.326980
 20
8.382652
 30
0.0
 10
134.875605
 20
8.319185
 30
0.0
  0
SPLINE
  5
264
100
AcDbEntity
  8
Calque_1
 62
1
100
AcDbSpline
 70
8
 71
3
 72
8
 73
4
 74
0
 40
0
 40
0
 40
0
 40
0
 40
1
 40
1
 40
1
 40
1
 10
134.875605
 20
8.319185
 30
0.0
 10
135.139065
 20
8.288706
 30
0.0
 10
135.379626
 20
8.154817
 30
0.0
 10
135.544369
 20
7.946971
 30
0.0
  0
SPLINE
  5
265
100
AcDbEntity
  8
Calque_1
 62
1
100
AcDbSpline
 70
8
 71
3
 72
8
 73
4
 74
0
 40
0
 40
0
 40
0
 40
0
 40
1
 40
1
 40
1
 40
1
 10
135.544369
 20
7.946971
 30
0.0
 10
135.709111
 20
7.739126
 30
0.0
 10
135.784540
 20
7.474349
 30
0.0
 10
135.754061
 20
7.210889
 30
0.0
  0
LWPOLYLINE
  5
266
100
AcDbEntity
  8
Calque_1
 62
1
100
AcDbPolyline
 90
2
 70
1
 10
90.370563
 20
32.594512
 30
0.0
 10
90.370563
 20
32.594512
 30
0.0
  0
SPLINE
  5
267
100
AcDbEntity
  8
Calque_1
 62
1
100
AcDbSpline
 70
8
 71
3
 72
8
 73
4
 74
0
 40
0
 40
0
 40
0
 40
0
 40
1
 40
1
 40
1
 40
1
 10
161.131989
 20
52.574534
 30
0.0
 10
161.101510
 20
52.311074
 30
0.0
 10
160.967621
 20
52.070513
 30
0.0
 10
160.759775
 20
51.905770
 30
0.0
  0
SPLINE
  5
268
100
AcDbEntity
  8
Calque_1
 62
1
100
AcDbSpline
 70
8
 71
3
 72
8
 73
4
 74
0
 40
0
 40
0
 40
0
 40
0
 40
1
 40
1
 40
1
 40
1
 10
160.759775
 20
51.905770
 30
0.0
 10
160.551930
 20
51.741028
 30
0.0
 10
160.287153
 20
51.665599
 30
0.0
 10
160.023693
 20
51.696078
 30
0.0
  0
SPLINE
  5
269
100
AcDbEntity
  8
Calque_1
 62
1
100
AcDbSpline
 70
8
 71
3
 72
8
 73
4
 74
0
 40
0
 40
0
 40
0
 40
0
 40
1
 40
1
 40
1
 40
1
 10
160.023693
 20
51.696078
 30
0.0
 10
159.760234
 20
51.726557
 30
0.0
 10
159.519672
 20
51.860446
 30
0.0
 10
159.354930
 20
52.068292
 30
0.0
  0
SPLINE
  5
26a
100
AcDbEntity
  8
Calque_1
 62
1
100
AcDbSpline
 70
8
 71
3
 72
8
 73
4
 74
0
 40
0
 40
0
 40
0
 40
0
 40
1
 40
1
 40
1
 40
1
 10
159.354930
 20
52.068292
 30
0.0
 10
159.190187
 20
52.276138
 30
0.0
 10
159.114759
 20
52.540914
 30
0.0
 10
159.145238
 20
52.804374
 30
0.0
  0
SPLINE
  5
26b
100
AcDbEntity
  8
Calque_1
 62
1
100
AcDbSpline
 70
8
 71
3
 72
8
 73
4
 74
0
 40
0
 40
0
 40
0
 40
0
 40
1
 40
1
 40
1
 40
1
 10
159.145238
 20
52.804374
 30
0.0
 10
159.208707
 20
53.352999
 30
0.0
 10
159.704908
 20
53.746296
 30
0.0
 10
160.253533
 20
53.682827
 30
0.0
  0
SPLINE
  5
26c
100
AcDbEntity
  8
Calque_1
 62
1
100
AcDbSpline
 70
8
 71
3
 72
8
 73
4
 74
0
 40
0
 40
0
 40
0
 40
0
 40
1
 40
1
 40
1
 40
1
 10
160.253533
 20
53.682827
 30
0.0
 10
160.802158
 20
53.619359
 30
0.0
 10
161.195456
 20
53.123159
 30
0.0
 10
161.131989
 20
52.574534
 30
0.0
  0
LWPOLYLINE
  5
26d
100
AcDbEntity
  8
Calque_1
 62
1
100
AcDbPolyline
 90
2
 70
1
 10
135.754061
 20
7.210889
 30
0.0
 10
135.754061
 20
7.210889
 30
0.0
  0
LWPOLYLINE
  5
26e
100
AcDbEntity
  8
Calque_1
 62
1
100
AcDbPolyline
 90
2
 70
1
 10
161.131989
 20
52.574534
 30
0.0
 10
161.131989
 20
52.574534
 30
0.0
  0
ENDSEC
  0
SECTION
  2
OBJECTS
  0
DICTIONARY
  5
C
330
0
100
AcDbDictionary
  3
ACAD_GROUP
350
D
  3
ACAD_MLINESTYLE
350
17
  0
DICTIONARY
  5
D
330
C
100
AcDbDictionary
  0
DICTIONARY
  5
1A
330
C
100
AcDbDictionary
  0
DICTIONARY
  5
17
330
C
100
AcDbDictionary
  3
STANDARD
350
18
  0
DICTIONARY
  5
19
330
C
100
AcDbDictionary
  0
ENDSEC
  0
EOF
