<?xml version="1.0" encoding="UTF-8" standalone="no"?>
<!-- Created with Inkscape (http://www.inkscape.org/) -->

<svg
   xmlns:dc="http://purl.org/dc/elements/1.1/"
   xmlns:cc="http://creativecommons.org/ns#"
   xmlns:rdf="http://www.w3.org/1999/02/22-rdf-syntax-ns#"
   xmlns:svg="http://www.w3.org/2000/svg"
   xmlns="http://www.w3.org/2000/svg"
   xmlns:sodipodi="http://sodipodi.sourceforge.net/DTD/sodipodi-0.dtd"
   xmlns:inkscape="http://www.inkscape.org/namespaces/inkscape"
   width="210mm"
   height="297mm"
   viewBox="0 0 744.09448819 1052.3622047"
   id="svg13622"
   version="1.1"
   inkscape:version="0.91 r13725"
   sodipodi:docname="oeilleton serrure2.svg">
  <defs
     id="defs13624" />
  <sodipodi:namedview
     id="base"
     pagecolor="#ffffff"
     bordercolor="#666666"
     borderopacity="1.0"
     inkscape:pageopacity="0.0"
     inkscape:pageshadow="2"
     inkscape:zoom="1.979899"
     inkscape:cx="258.41991"
     inkscape:cy="597.30063"
     inkscape:document-units="px"
     inkscape:current-layer="layer1"
     showgrid="false"
     inkscape:window-width="1280"
     inkscape:window-height="962"
     inkscape:window-x="-8"
     inkscape:window-y="-8"
     inkscape:window-maximized="1" />
  <metadata
     id="metadata13627">
    <rdf:RDF>
      <cc:Work
         rdf:about="">
        <dc:format>image/svg+xml</dc:format>
        <dc:type
           rdf:resource="http://purl.org/dc/dcmitype/StillImage" />
        <dc:title></dc:title>
      </cc:Work>
    </rdf:RDF>
  </metadata>
  <g
     inkscape:label="Layer 1"
     inkscape:groupmode="layer"
     id="layer1">
    <path
       inkscape:connector-curvature="0"
       style="opacity:1;fill:#000000;fill-opacity:0.50196078;stroke:none;stroke-width:0.03543307;stroke-miterlimit:4;stroke-dasharray:none;stroke-opacity:1"
       d="m 348.5724,315.77069 a 26.541052,26.541052 0 0 0 -26.54101,26.54101 26.541052,26.541052 0 0 0 0.21093,3.07227 A 120.46082,120.46082 0 0 0 228.11147,462.7785 120.46082,120.46082 0 0 0 348.5724,583.23944 120.46082,120.46082 0 0 0 469.03139,462.7785 120.46082,120.46082 0 0 0 374.92396,345.33709 26.541052,26.541052 0 0 0 375.11342,342.3117 26.541052,26.541052 0 0 0 348.5724,315.77069 Z"
       id="path13546" />
    <circle
       style="opacity:1;fill:#ffffff;fill-opacity:1;stroke:none;stroke-width:0.02725585;stroke-miterlimit:4;stroke-dasharray:none;stroke-opacity:1"
       id="path13544"
       cx="348.57138"
       cy="463.50504"
       r="70.852516" />
    <circle
       style="opacity:1;fill:none;fill-opacity:1;stroke:#ff0000;stroke-width:0.03543307;stroke-miterlimit:4;stroke-dasharray:none;stroke-opacity:1"
       id="path13550"
       cx="348.5715"
       cy="342.31143"
       r="4.416306" />
    <rect
       style="opacity:1;fill:#000000;fill-opacity:0.50196078;stroke:none;stroke-width:0.03543307;stroke-miterlimit:4;stroke-dasharray:none;stroke-opacity:1"
       id="rect13608"
       width="75.691147"
       height="18.185535"
       x="310.72586"
       y="454.41226" />
    <path
       inkscape:connector-curvature="0"
       style="opacity:1;fill:none;fill-opacity:1;stroke:#ff0000;stroke-width:0.03543307;stroke-miterlimit:4;stroke-dasharray:none;stroke-opacity:1"
       d="m 348.58866,315.75273 a 26.541052,26.541052 0 0 0 -26.54101,26.54101 26.541052,26.541052 0 0 0 0.21093,3.07227 120.46082,120.46082 0 0 0 -94.13086,117.39454 120.46082,120.46082 0 0 0 120.46094,120.46094 120.46082,120.46082 0 0 0 119.89649,-109.7793 c -4.16247,-0.0169 -8.1422,-0.0448 -11.24219,-0.0957 -6.94742,-0.40282 -12.37772,-6.1503 -12.38672,-13.10938 0.002,-6.96377 5.43462,-12.71801 12.38672,-13.12109 2.95516,-0.0559 6.69509,-0.0862 10.62695,-0.10352 a 120.46082,120.46082 0 0 0 -92.92969,-101.69337 26.541052,26.541052 0 0 0 0.18946,-3.02539 26.541052,26.541052 0 0 0 -26.54102,-26.54101 z"
       id="path13546-4" />
  </g>
</svg>
