solid OpenSCAD_Model
  facet normal -0 0 1
    outer loop
      vertex 0 28 1.2
      vertex 105 0 1.2
      vertex 105 28 1.2
    endloop
  endfacet
  facet normal 0 0 1
    outer loop
      vertex 105 0 1.2
      vertex 0 28 1.2
      vertex 0 0 1.2
    endloop
  endfacet
  facet normal 0 0 -1
    outer loop
      vertex 0 0 0
      vertex 105 28 0
      vertex 105 0 0
    endloop
  endfacet
  facet normal -0 0 -1
    outer loop
      vertex 105 28 0
      vertex 0 0 0
      vertex 0 28 0
    endloop
  endfacet
  facet normal 0 -1 0
    outer loop
      vertex 0 0 0
      vertex 105 0 1.2
      vertex 0 0 1.2
    endloop
  endfacet
  facet normal 0 -1 -0
    outer loop
      vertex 105 0 1.2
      vertex 0 0 0
      vertex 105 0 0
    endloop
  endfacet
  facet normal 1 -0 0
    outer loop
      vertex 105 0 1.2
      vertex 105 28 0
      vertex 105 28 1.2
    endloop
  endfacet
  facet normal 1 0 0
    outer loop
      vertex 105 28 0
      vertex 105 0 1.2
      vertex 105 0 0
    endloop
  endfacet
  facet normal 0 1 -0
    outer loop
      vertex 105 28 0
      vertex 0 28 1.2
      vertex 105 28 1.2
    endloop
  endfacet
  facet normal 0 1 0
    outer loop
      vertex 0 28 1.2
      vertex 105 28 0
      vertex 0 28 0
    endloop
  endfacet
  facet normal -1 0 0
    outer loop
      vertex 0 0 0
      vertex 0 28 1.2
      vertex 0 28 0
    endloop
  endfacet
  facet normal -1 -0 0
    outer loop
      vertex 0 28 1.2
      vertex 0 0 0
      vertex 0 0 1.2
    endloop
  endfacet
endsolid OpenSCAD_Model
