<?xml version="1.0" encoding="UTF-8" standalone="no"?>
<!-- Created with Inkscape (http://www.inkscape.org/) -->

<svg
   xmlns:dc="http://purl.org/dc/elements/1.1/"
   xmlns:cc="http://creativecommons.org/ns#"
   xmlns:rdf="http://www.w3.org/1999/02/22-rdf-syntax-ns#"
   xmlns:svg="http://www.w3.org/2000/svg"
   xmlns="http://www.w3.org/2000/svg"
   xmlns:sodipodi="http://sodipodi.sourceforge.net/DTD/sodipodi-0.dtd"
   xmlns:inkscape="http://www.inkscape.org/namespaces/inkscape"
   width="290mm"
   height="210mm"
   viewBox="0 0 1027.5591 744.09449"
   id="svg4277"
   version="1.1"
   inkscape:version="0.91 r13725"
   sodipodi:docname="tom-elio.svg">
  <defs
     id="defs4279" />
  <sodipodi:namedview
     id="base"
     pagecolor="#ffffff"
     bordercolor="#666666"
     borderopacity="1.0"
     inkscape:pageopacity="0.0"
     inkscape:pageshadow="2"
     inkscape:zoom="0.7"
     inkscape:cx="407.09126"
     inkscape:cy="352.73617"
     inkscape:document-units="mm"
     inkscape:current-layer="text4285"
     showgrid="false"
     inkscape:window-width="1366"
     inkscape:window-height="705"
     inkscape:window-x="-8"
     inkscape:window-y="-8"
     inkscape:window-maximized="1"
     inkscape:snap-page="true" />
  <metadata
     id="metadata4282">
    <rdf:RDF>
      <cc:Work
         rdf:about="">
        <dc:format>image/svg+xml</dc:format>
        <dc:type
           rdf:resource="http://purl.org/dc/dcmitype/StillImage" />
        <dc:title />
      </cc:Work>
    </rdf:RDF>
  </metadata>
  <g
     inkscape:label="Calque 1"
     inkscape:groupmode="layer"
     id="layer1"
     transform="translate(0,-308.26771)">
    <g
       style="font-style:normal;font-weight:normal;font-size:100px;line-height:125%;font-family:sans-serif;letter-spacing:0px;word-spacing:0px;fill:#000000;fill-opacity:1;stroke:none;stroke-width:1px;stroke-linecap:butt;stroke-linejoin:miter;stroke-opacity:1"
       id="text4285"
       transform="translate(76.771593,-260.61936)">
      <g
         style="font-style:normal;font-weight:normal;font-size:40px;line-height:125%;font-family:sans-serif;letter-spacing:0px;word-spacing:0px;fill:none;fill-opacity:1;stroke:#ff0000;stroke-width:0.03543307;stroke-linecap:butt;stroke-linejoin:miter;stroke-opacity:1;stroke-miterlimit:4;stroke-dasharray:none"
         id="text4367"
         transform="translate(-42.426407,-8.0812203)">
        <path
           d="m 518.50882,1037.3094 q -2.30713,26.6968 -2.19727,45.3736 l -54.27246,0.3845 0.43946,12.1948 37.8479,-1.1535 1.0437,34.9914 q -14.50196,1.2634 -37.62818,1.9776 l 0.21973,10.7666 q 24.16992,0.1098 53.72314,-1.7029 0.71412,27.6855 2.19727,43.4509 -28.72925,0.7141 -104.04053,2.4719 0.98877,-59.8205 0,-102.6672 l -12.30468,0.2747 -1.15357,-44.7144 q 32.73926,0 116.12549,-1.648 z"
           style="font-style:normal;font-variant:normal;font-weight:normal;font-stretch:normal;font-size:112.5px;font-family:'Space Comics';-inkscape-font-specification:'Space Comics';fill:none;stroke:#ff0000;stroke-width:0.03543307;stroke-miterlimit:4;stroke-dasharray:none;stroke-opacity:1"
           id="path3352"
           inkscape:connector-curvature="0" />
        <path
           d="m 604.82376,1038.2433 -0.10986,103.1616 q 21.09375,-0.4944 44.54956,-1.0986 0.8789,25.5432 -2.74658,44.5495 -34.49707,3.3509 -90.74707,1.5381 2.25219,-113.8183 1.42822,-146.6675 26.69678,-2.0874 47.62573,-1.4831 z"
           style="font-style:normal;font-variant:normal;font-weight:normal;font-stretch:normal;font-size:112.5px;font-family:'Space Comics';-inkscape-font-specification:'Space Comics';fill:none;stroke:#ff0000;stroke-width:0.03543307;stroke-miterlimit:4;stroke-dasharray:none;stroke-opacity:1"
           id="path3354"
           inkscape:connector-curvature="0" />
        <path
           d="m 740.06277,1040.6603 q -2.41699,75.531 -2.74658,142.8772 -23.67553,1.1535 -53.06396,0.9887 -3.68042,-52.8442 -1.2085,-142.0532 18.78662,-5.1636 57.01904,-1.8127 z"
           style="font-style:normal;font-variant:normal;font-weight:normal;font-stretch:normal;font-size:112.5px;font-family:'Space Comics';-inkscape-font-specification:'Space Comics';fill:none;stroke:#ff0000;stroke-width:0.03543307;stroke-miterlimit:4;stroke-dasharray:none;stroke-opacity:1"
           id="path3356"
           inkscape:connector-curvature="0" />
        <path
           d="m 875.84866,1050.7128 q 15.76538,12.4695 22.41211,33.9477 3.4607,13.0188 3.13111,25.9278 -7.08619,75.9704 -79.70581,74.0478 -30.04761,-0.1099 -49.49341,-25.1038 -9.22852,-14.8315 -10.9314,-32.1899 -1.70288,-18.6768 4.44946,-38.2324 7.85523,-21.2586 21.20362,-32.9041 41.85791,-37.2986 88.93432,-5.4931 z m -65.47851,70.8069 q 4.01001,12.0849 17.85278,12.3596 12.19483,0.7141 19.55566,-7.4158 8.07496,-10.3821 3.73536,-20.8191 -5.98755,-13.2934 -17.85279,-13.0188 -14.9414,1.2085 -21.75293,15.3259 -3.1311,7.251 -1.53808,13.5682 z"
           style="font-style:normal;font-variant:normal;font-weight:normal;font-stretch:normal;font-size:112.5px;font-family:'Space Comics';-inkscape-font-specification:'Space Comics';fill:none;stroke:#ff0000;stroke-width:0.03543307;stroke-miterlimit:4;stroke-dasharray:none;stroke-opacity:1"
           id="path3358"
           inkscape:connector-curvature="0" />
        <g
           style="font-style:normal;font-weight:normal;font-size:40px;line-height:125%;font-family:sans-serif;letter-spacing:0px;word-spacing:0px;fill:none;fill-opacity:1;stroke:#ff0000;stroke-width:0.03543307;stroke-linecap:butt;stroke-linejoin:miter;stroke-miterlimit:4;stroke-dasharray:none;stroke-opacity:1"
           id="text3360" />
      </g>
      <path
         inkscape:connector-curvature="0"
         id="path3345"
         style="font-style:normal;font-variant:normal;font-weight:normal;font-stretch:normal;font-size:112.5px;line-height:125%;font-family:'Space Comics';-inkscape-font-specification:'Space Comics';letter-spacing:0px;word-spacing:0px;fill:none;fill-opacity:1;stroke:#ff0000;stroke-width:0.03543307;stroke-linecap:butt;stroke-linejoin:miter;stroke-opacity:1;stroke-miterlimit:4;stroke-dasharray:none"
         d="m 154.91003,669.18874 q 2.63672,27.85034 -0.98877,50.8667 -22.30224,-0.93384 -42.73681,0.60425 l 1.20849,96.02051 q -26.971426,1.26343 -51.41601,0.76904 l 2.746582,-97.11914 q -21.09375,-0.10986 -41.088868,0.93384 -1.812744,-25.59815 0,-52.45972 64.81934,1.26343 132.275386,0.38452 z" />
      <path
         inkscape:connector-curvature="0"
         id="path3347"
         style="font-style:normal;font-variant:normal;font-weight:normal;font-stretch:normal;font-size:112.5px;line-height:125%;font-family:'Space Comics';-inkscape-font-specification:'Space Comics';letter-spacing:0px;word-spacing:0px;fill:none;fill-opacity:1;stroke:#ff0000;stroke-width:0.03543307;stroke-linecap:butt;stroke-linejoin:miter;stroke-opacity:1;stroke-miterlimit:4;stroke-dasharray:none"
         d="m 290.63527,678.93597 q 15.76538,12.46949 22.41211,33.94776 3.46069,13.0188 3.1311,25.92773 -7.08618,75.97046 -79.70581,74.04785 -30.04761,-0.10986 -49.49341,-25.10376 -9.22851,-14.83154 -10.93139,-32.18994 -1.70288,-18.67676 4.44946,-38.23242 7.85522,-21.25854 21.20361,-32.90405 41.85791,-37.29859 88.93433,-5.49317 z m -65.47852,70.80689 q 4.01001,12.08496 17.85279,12.35962 12.19482,0.71411 19.55566,-7.41577 8.07495,-10.38208 3.73535,-20.8191 -5.98755,-13.29345 -17.85278,-13.01879 -14.94141,1.20849 -21.75293,15.32592 -3.1311,7.25098 -1.53809,13.56812 z" />
      <path
         inkscape:connector-curvature="0"
         id="path3349"
         style="font-style:normal;font-variant:normal;font-weight:normal;font-stretch:normal;font-size:112.5px;line-height:125%;font-family:'Space Comics';-inkscape-font-specification:'Space Comics';letter-spacing:0px;word-spacing:0px;fill:none;fill-opacity:1;stroke:#ff0000;stroke-width:0.03543307;stroke-linecap:butt;stroke-linejoin:miter;stroke-opacity:1;stroke-miterlimit:4;stroke-dasharray:none"
         d="m 347.88097,716.30165 3.84521,-50.15259 q 43.12134,-2.0874 64.43482,-3.51562 10.27221,15.27099 20.65429,28.125 10.38208,-12.1399 19.83033,-27.63062 20.81909,1.31836 47.406,1.97754 11.53565,113.7085 13.56812,142.65747 -20.6543,4.11988 -48.50464,5.5481 -2.63672,-29.3335 -5.27344,-66.02783 l -29.55322,27.57568 q -15.32593,-15.43579 -25.21362,-26.9165 -2.69165,37.90283 -3.95508,64.98413 l -50.8667,-2.03247 7.41577,-93.43873 -13.78784,-1.15356 z" />
      <rect
         style="fill:none;stroke:#0000ff;stroke-width:0.03543307;stroke-miterlimit:4;stroke-dasharray:none;stroke-opacity:1"
         id="rect4392"
         width="1027.5591"
         height="744.09448"
         x="-76.771591"
         y="568.88708"
         ry="90.806931" />
      <path
         style="fill:none;stroke:#ff0000;stroke-width:0.03543307;stroke-miterlimit:4;stroke-dasharray:none;stroke-opacity:1"
         d="m 743.69986,803.88508 c 1.58472,-2.66678 2.76784,-24.09779 1.64164,-29.74278 -1.48522,-7.44418 -3.41421,-10.87327 -7.52869,-13.38336 -4.16041,-2.5381 -8.32253,-2.67227 -15.33285,-0.49431 l -5.89079,1.83018 -2.6042,-6.84653 c -3.61239,-9.49711 -5.90981,-12.84897 -11.67542,-17.03411 -4.67341,-3.39231 -5.26588,-3.56687 -9.47759,-2.79258 -4.29668,0.78993 -4.64586,1.0812 -8.00848,6.68126 -2.78256,4.6341 -3.60145,7.07779 -3.92614,11.71605 -0.22562,3.22334 -0.53857,6.07102 -0.69543,6.32816 -0.48368,0.79281 -7.51061,-10.99651 -11.06808,-18.56926 -4.68735,-9.97779 -7.62114,-24.78161 -6.67862,-33.70008 0.70197,-6.64205 1.2156,-7.99744 5.98617,-15.79596 4.89882,-8.00893 5.6012,-8.76261 11.47816,-12.3257 8.05494,-4.8836 22.79845,-8.31785 35.13513,-8.18418 10.38653,0.11255 28.75621,2.90223 39.70974,6.03048 l 7.14633,2.04094 -4.90089,2.41495 c -11.3985,5.61676 -17.93862,16.98237 -15.1645,26.35319 2.74224,9.26293 13.18597,16.78311 22.5643,16.24777 8.41095,-0.48015 14.35988,-4.99168 24.07269,-18.25625 l 8.1279,-11.09998 -0.51304,7.00825 -0.51304,7.00825 5.03193,3.06978 5.03193,3.06979 6.10993,-3.42768 6.10993,-3.42769 -6.19231,12.11425 c -5.22882,10.22902 -6.2815,13.0715 -6.76493,18.26602 -1.17877,12.6702 6.83604,22.40474 19.63171,23.84403 7.60799,0.8558 13.313,-1.46651 17.41767,-7.08997 4.39926,-6.02706 5.61409,-9.73498 5.65757,-17.26829 l 0.0373,-6.47922 5.03092,5.39828 c 23.7483,25.48257 35.34469,51.69834 31.82193,71.9391 -1.21662,6.99008 -6.72668,16.37307 -12.39394,21.10511 -11.3388,9.46783 -30.28856,13.82547 -52.17512,11.99816 -3.89643,-0.32525 -6.73937,-0.81207 -6.31765,-1.08169 7.78827,-4.9789 10.54938,-7.33685 13.64369,-11.65168 3.55699,-4.95997 3.61469,-5.19876 2.43356,-10.0757 -1.16293,-4.80174 -1.41105,-5.09895 -6.40351,-7.67007 -6.21121,-3.19878 -15.01724,-4.15511 -22.69571,-2.46469 l -5.34656,1.17694 -1.20566,-6.45885 c -1.42586,-7.63958 -3.39035,-11.20862 -7.57434,-13.7611 -4.1878,-2.55483 -8.32755,-2.67057 -15.52847,-0.43421 -5.66421,1.75908 -24.04952,12.50606 -25.52099,14.91805 -0.36001,0.59015 -1.03879,0.83872 -1.50831,0.55228 -0.46953,-0.28643 -0.56628,-1.00437 -0.21499,-1.59539 z"
         id="path4405"
         inkscape:connector-curvature="0"
         sodipodi:nodetypes="cssscsssssssscssscssssccccccccsssccsssccssscccssssc" />
      <path
         style="fill:none;stroke:#ff0000;stroke-width:0.03543307;stroke-miterlimit:4;stroke-dasharray:none;stroke-opacity:1"
         d="m 198.57276,1134.4192 59.58418,-66.8777 -19.31945,-20.4542 -19.31943,-20.4539 -79.04335,-0.8305 -79.043424,-0.8304 -20.163903,19.7631 -20.164088,19.7633 1.93806,2.5388 c 5.805449,7.6047 114.667965,134.5913 115.252005,134.4397 0.38238,-0.099 27.5081,-30.2755 60.2794,-67.0582 z m -75.35332,31.4639 c -8.48825,-9.8321 -15.26206,-18.044 -15.05279,-18.2489 0.20915,-0.2049 4.07368,0.1643 8.58777,0.8201 11.493,1.6698 33.70715,1.7251 44.3615,0.1104 4.93543,-0.748 9.14445,-1.1854 9.35331,-0.9721 0.20902,0.2131 -6.7874,8.3338 -15.54743,18.0457 -8.76001,9.7117 -16.00419,17.7619 -16.09824,17.8894 -0.0943,0.1274 -7.11582,-7.8127 -15.60412,-17.6446 z m 9.74575,-33.1641 c -9.71058,-11.7292 -33.015101,-14.9184 -38.982,-5.3348 L 92.229929,1130.2 80.26729,1116.3744 c -6.579455,-7.6041 -11.83679,-13.9493 -11.683003,-14.1006 0.15379,-0.1513 1.505054,0.2056 3.002642,0.7931 6.617581,2.5959 22.305177,4.3952 53.475531,6.1336 47.24274,2.6347 60.93636,5.1779 62.47744,11.603 0.99096,4.1317 -1.05387,7.045 -6.8721,9.7903 -6.38019,3.0105 -18.33197,5.0404 -33.38215,5.6695 l -11.00545,0.46 z m 76.22553,-35.914 c -6.60082,-9.0829 -14.56279,-13.5739 -30.40091,-17.148 -5.80685,-1.3104 -15.80594,-2.06 -37.88001,-2.8397 -23.30053,-0.8231 -31.12173,-1.4332 -35.0616,-2.7349 -18.056886,-5.9663 -21.734213,-20.8608 -7.351281,-29.7761 13.026761,-8.0747 38.103431,-10.4361 55.810391,-5.2557 13.3323,3.9005 22.75846,13.2702 25.04707,24.8972 l 0.7427,3.7735 17.95426,0.1887 17.95424,0.1886 0.65406,-14.6607 0.65405,-14.6607 13.23224,14.1041 13.23225,14.1041 -1.97741,2.1818 c -1.08767,1.2 -7.36825,8.2005 -13.95711,15.5567 -6.58874,7.3562 -12.70763,14.1481 -13.59741,15.0931 -1.51722,1.6113 -1.83186,1.4239 -5.05538,-3.0122 z m -164.168109,-21.0253 -9.77483,-11.2708 15.541595,-15.2423 15.541711,-15.2422 12.410294,0.1304 12.410421,0.1304 -4.925883,2.5315 c -5.516981,2.8354 -13.443859,9.0456 -18.038129,14.1317 -8.118899,8.9883 -11.648001,16.8595 -12.682572,28.2869 l -0.70766,7.8153 z m 144.548129,-26.7099 c -0.649,-1.2443 -3.6203,-4.8756 -6.60303,-8.0696 l -5.42297,-5.8073 10.78329,0.1133 10.7832,0.1133 -0.5888,4.0654 c -0.59456,4.105 -5.06484,11.8759 -6.82116,11.8575 -0.52288,-0.01 -1.48157,-1.0282 -2.13054,-2.2726 z"
         id="path4418"
         inkscape:connector-curvature="0"
         sodipodi:nodetypes="scccccccccssssssscscccsscscssccsssssscccccccccscscccccccssccsscccsss" />
      <path
         style="fill:none;fill-rule:evenodd;stroke:#ff0000;stroke-width:0.03543307;stroke-linecap:butt;stroke-linejoin:miter;stroke-opacity:1;stroke-miterlimit:4;stroke-dasharray:none"
         d="m 368.22685,870.56539 223.04293,-14.42 -132.11414,47.48481 20.04344,34.44317 -222.44682,41.47093 128.11351,-62.51349 z"
         id="path3372"
         inkscape:connector-curvature="0"
         sodipodi:nodetypes="ccccccc" />
      <path
         sodipodi:type="star"
         style="fill:none;stroke:#ff0000;stroke-width:0.03853099;stroke-miterlimit:4;stroke-dasharray:none;stroke-opacity:1"
         id="path3397"
         sodipodi:sides="5"
         sodipodi:cx="657.06384"
         sodipodi:cy="941.34167"
         sodipodi:r1="67.025986"
         sodipodi:r2="30.831953"
         sodipodi:arg1="0.66669283"
         sodipodi:arg2="1.2950114"
         inkscape:flatsided="false"
         inkscape:rounded="-2.42861e-017"
         inkscape:randomized="0"
         d="m 709.73763,982.7899 -44.27818,-11.78136 -31.53812,33.23706 -2.47797,-45.75166 -41.35616,-19.72371 42.7467,-16.49474 5.97861,-45.42701 28.89689,35.55738 45.05114,-8.35173 -24.88744,38.47041 z"
         inkscape:transform-center-x="0.66433576"
         inkscape:transform-center-y="1.7645073"
         transform="matrix(0.89819345,0.19725991,-0.19725991,0.89819345,263.82348,-21.350709)" />
    </g>
  </g>
</svg>
