solid OpenSCAD_Model
  facet normal -0 0 1
    outer loop
      vertex -7 -1.73205 30
      vertex -4.76314 -2.75 30
      vertex -5.5 0 30
    endloop
  endfacet
  facet normal 0 0 1
    outer loop
      vertex -4.76314 -2.75 30
      vertex -7 -1.73205 30
      vertex -5 -5.19615 30
    endloop
  endfacet
  facet normal -0 0 1
    outer loop
      vertex 0 -5.5 30
      vertex 2.65 -6.9282 30
      vertex 2.75 -4.76314 30
    endloop
  endfacet
  facet normal 0 0 1
    outer loop
      vertex 0 -5.5 30
      vertex -2.65 -6.9282 30
      vertex 2.65 -6.9282 30
    endloop
  endfacet
  facet normal 0 0 1
    outer loop
      vertex -2.75 -4.76314 30
      vertex -2.65 -6.9282 30
      vertex 0 -5.5 30
    endloop
  endfacet
  facet normal -0 0 1
    outer loop
      vertex -5 -5.19615 30
      vertex -2.65 -6.9282 30
      vertex -2.75 -4.76314 30
    endloop
  endfacet
  facet normal 0 0 1
    outer loop
      vertex -5 -5.19615 30
      vertex -2.75 -4.76314 30
      vertex -4.76314 -2.75 30
    endloop
  endfacet
  facet normal 0 0 1
    outer loop
      vertex -5 -20 30
      vertex -2.65 -6.9282 30
      vertex -5 -5.19615 30
    endloop
  endfacet
  facet normal 0 0 1
    outer loop
      vertex -2.65 -6.9282 30
      vertex -5 -20 30
      vertex -2.65 -20 30
    endloop
  endfacet
  facet normal 0 0 1
    outer loop
      vertex 8 0 30
      vertex 4.76314 2.75 30
      vertex 5.5 0 30
    endloop
  endfacet
  facet normal 0 0 1
    outer loop
      vertex 4 6.9282 30
      vertex 4.76314 2.75 30
      vertex 8 0 30
    endloop
  endfacet
  facet normal 0 0 1
    outer loop
      vertex 4 6.9282 30
      vertex 2.75 4.76314 30
      vertex 4.76314 2.75 30
    endloop
  endfacet
  facet normal 0 0 1
    outer loop
      vertex 4 6.9282 30
      vertex 0 5.5 30
      vertex 2.75 4.76314 30
    endloop
  endfacet
  facet normal -0 0 1
    outer loop
      vertex -2 6.9282 30
      vertex 0 5.5 30
      vertex 4 6.9282 30
    endloop
  endfacet
  facet normal 0 0 1
    outer loop
      vertex -2 6.9282 30
      vertex -2.75 4.76314 30
      vertex 0 5.5 30
    endloop
  endfacet
  facet normal 0 0 1
    outer loop
      vertex -2 6.9282 30
      vertex -4.675 5.75907 30
      vertex -2.75 4.76314 30
    endloop
  endfacet
  facet normal 0 0 1
    outer loop
      vertex -14.8205 14.3301 30
      vertex -4.675 5.75907 30
      vertex -2 6.9282 30
    endloop
  endfacet
  facet normal 0 0 1
    outer loop
      vertex -4.675 5.75907 30
      vertex -14.8205 14.3301 30
      vertex -15.9955 12.295 30
    endloop
  endfacet
  facet normal 0 0 1
    outer loop
      vertex 4.76314 -2.75 30
      vertex 8 0 30
      vertex 5.5 0 30
    endloop
  endfacet
  facet normal 0 0 1
    outer loop
      vertex 8 0 30
      vertex 4.76314 -2.75 30
      vertex 5 -5.19615 30
    endloop
  endfacet
  facet normal -0 0 1
    outer loop
      vertex 2.75 -4.76314 30
      vertex 5 -5.19615 30
      vertex 4.76314 -2.75 30
    endloop
  endfacet
  facet normal 0 0 1
    outer loop
      vertex 5 -5.19615 30
      vertex 2.75 -4.76314 30
      vertex 2.65 -6.9282 30
    endloop
  endfacet
  facet normal 0 0 1
    outer loop
      vertex 5 -5.19615 30
      vertex 2.65 -6.9282 30
      vertex 5 -20 30
    endloop
  endfacet
  facet normal 0 0 1
    outer loop
      vertex 5 -20 30
      vertex 2.65 -6.9282 30
      vertex 2.65 -20 30
    endloop
  endfacet
  facet normal 0 0 1
    outer loop
      vertex -4.675 5.75907 30
      vertex -4.76314 2.75 30
      vertex -2.75 4.76314 30
    endloop
  endfacet
  facet normal 0 0 1
    outer loop
      vertex -7.325 1.16913 30
      vertex -4.76314 2.75 30
      vertex -4.675 5.75907 30
    endloop
  endfacet
  facet normal 0 0 1
    outer loop
      vertex -4.76314 2.75 30
      vertex -7.325 1.16913 30
      vertex -5.5 0 30
    endloop
  endfacet
  facet normal 0 0 1
    outer loop
      vertex -5.5 0 30
      vertex -7.325 1.16913 30
      vertex -7 -1.73205 30
    endloop
  endfacet
  facet normal -0 0 1
    outer loop
      vertex -19.8205 5.66987 30
      vertex -7.325 1.16913 30
      vertex -18.6455 7.70503 30
    endloop
  endfacet
  facet normal 0 0 1
    outer loop
      vertex -7.325 1.16913 30
      vertex -19.8205 5.66987 30
      vertex -7 -1.73205 30
    endloop
  endfacet
  facet normal -0.866025 0.5 0
    outer loop
      vertex -14.8205 14.3301 0
      vertex -15.9955 12.295 1
      vertex -14.8205 14.3301 30
    endloop
  endfacet
  facet normal -0.866025 0.5 4.14667e-08
    outer loop
      vertex -14.8205 14.3301 0
      vertex -18.6455 7.70503 1
      vertex -15.9955 12.295 1
    endloop
  endfacet
  facet normal -0.866025 0.5 6.09841e-07
    outer loop
      vertex -19.8205 5.66987 0
      vertex -18.6455 7.70503 1
      vertex -14.8205 14.3301 0
    endloop
  endfacet
  facet normal -0.866025 0.5 0
    outer loop
      vertex -19.8205 5.66987 30
      vertex -18.6455 7.70503 1
      vertex -19.8205 5.66987 0
    endloop
  endfacet
  facet normal -0.866025 0.5 0
    outer loop
      vertex -18.6455 7.70503 1
      vertex -19.8205 5.66987 30
      vertex -18.6455 7.70503 30
    endloop
  endfacet
  facet normal -0.866025 0.5 0
    outer loop
      vertex -14.8205 14.3301 30
      vertex -15.9955 12.295 1
      vertex -15.9955 12.295 30
    endloop
  endfacet
  facet normal -0.5 -0.866025 0
    outer loop
      vertex -19.8205 5.66987 0
      vertex -7 -1.73205 30
      vertex -19.8205 5.66987 30
    endloop
  endfacet
  facet normal -0.5 -0.866025 -0
    outer loop
      vertex -7 -1.73205 30
      vertex -19.8205 5.66987 0
      vertex -7 -1.73205 0
    endloop
  endfacet
  facet normal 0 0 -1
    outer loop
      vertex -5 -5.19615 0
      vertex 5 -5.19615 0
      vertex 5 -20 0
    endloop
  endfacet
  facet normal 0 0 -1
    outer loop
      vertex 5 -5.19615 0
      vertex 2 0 0
      vertex 4 6.9282 0
    endloop
  endfacet
  facet normal 0 0 -1
    outer loop
      vertex 5 -5.19615 0
      vertex 1.73205 -1 0
      vertex 2 0 0
    endloop
  endfacet
  facet normal 0 0 -1
    outer loop
      vertex 5 -5.19615 0
      vertex 1 -1.73205 0
      vertex 1.73205 -1 0
    endloop
  endfacet
  facet normal 0 0 -1
    outer loop
      vertex 5 -5.19615 0
      vertex 0 -2 0
      vertex 1 -1.73205 0
    endloop
  endfacet
  facet normal 0 0 -1
    outer loop
      vertex 5 -5.19615 0
      vertex -5 -5.19615 0
      vertex 0 -2 0
    endloop
  endfacet
  facet normal -0 0 -1
    outer loop
      vertex 0 -2 0
      vertex -5 -5.19615 0
      vertex -1 -1.73205 0
    endloop
  endfacet
  facet normal -0 0 -1
    outer loop
      vertex -1 -1.73205 0
      vertex -5 -5.19615 0
      vertex -1.73205 -0.999999 0
    endloop
  endfacet
  facet normal 0 0 -1
    outer loop
      vertex -5 -5.19615 0
      vertex 5 -20 0
      vertex -5 -20 0
    endloop
  endfacet
  facet normal -0 0 -1
    outer loop
      vertex 8 0 0
      vertex 5 -5.19615 0
      vertex 4 6.9282 0
    endloop
  endfacet
  facet normal 0 0 -1
    outer loop
      vertex 1.73205 0.999999 0
      vertex 4 6.9282 0
      vertex 2 0 0
    endloop
  endfacet
  facet normal 0 0 -1
    outer loop
      vertex 1 1.73205 0
      vertex 4 6.9282 0
      vertex 1.73205 0.999999 0
    endloop
  endfacet
  facet normal 0 0 -1
    outer loop
      vertex 0 2 0
      vertex 4 6.9282 0
      vertex 1 1.73205 0
    endloop
  endfacet
  facet normal 0 0 -1
    outer loop
      vertex -2 6.9282 0
      vertex 0 2 0
      vertex -0.999999 1.73205 0
    endloop
  endfacet
  facet normal 0 0 -1
    outer loop
      vertex -2 6.9282 0
      vertex -0.999999 1.73205 0
      vertex -1.73205 0.999999 0
    endloop
  endfacet
  facet normal 0 0 -1
    outer loop
      vertex 0 2 0
      vertex -2 6.9282 0
      vertex 4 6.9282 0
    endloop
  endfacet
  facet normal 0 0 -1
    outer loop
      vertex -7 -1.73205 0
      vertex -1.73205 0.999999 0
      vertex -2 0 0
    endloop
  endfacet
  facet normal 0 0 -1
    outer loop
      vertex -7 -1.73205 0
      vertex -1.73205 -0.999999 0
      vertex -5 -5.19615 0
    endloop
  endfacet
  facet normal -0 0 -1
    outer loop
      vertex -1.73205 -0.999999 0
      vertex -7 -1.73205 0
      vertex -2 0 0
    endloop
  endfacet
  facet normal -0 0 -1
    outer loop
      vertex -1.73205 0.999999 0
      vertex -7 -1.73205 0
      vertex -2 6.9282 0
    endloop
  endfacet
  facet normal 0 0 -1
    outer loop
      vertex -7 -1.73205 0
      vertex -14.8205 14.3301 0
      vertex -2 6.9282 0
    endloop
  endfacet
  facet normal 0 -0 -1
    outer loop
      vertex -14.8205 14.3301 0
      vertex -7 -1.73205 0
      vertex -19.8205 5.66987 0
    endloop
  endfacet
  facet normal 0.5 0.866025 -0
    outer loop
      vertex -2 6.9282 0
      vertex -14.8205 14.3301 30
      vertex -2 6.9282 30
    endloop
  endfacet
  facet normal 0.5 0.866025 0
    outer loop
      vertex -14.8205 14.3301 30
      vertex -2 6.9282 0
      vertex -14.8205 14.3301 0
    endloop
  endfacet
  facet normal -0 0 1
    outer loop
      vertex -2.65 -6.9282 1
      vertex 2.65 -20 1
      vertex 2.65 -6.9282 1
    endloop
  endfacet
  facet normal 0 0 1
    outer loop
      vertex 2.65 -20 1
      vertex -2.65 -6.9282 1
      vertex -2.65 -20 1
    endloop
  endfacet
  facet normal 0 0 1
    outer loop
      vertex -15.9955 12.295 1
      vertex -7.325 1.16913 1
      vertex -4.675 5.75907 1
    endloop
  endfacet
  facet normal 0 0 1
    outer loop
      vertex -7.325 1.16913 1
      vertex -15.9955 12.295 1
      vertex -18.6455 7.70503 1
    endloop
  endfacet
  facet normal -0.5 -0.866025 0
    outer loop
      vertex -15.9955 12.295 1
      vertex -4.675 5.75907 30
      vertex -15.9955 12.295 30
    endloop
  endfacet
  facet normal -0.5 -0.866025 -0
    outer loop
      vertex -4.675 5.75907 30
      vertex -15.9955 12.295 1
      vertex -4.675 5.75907 1
    endloop
  endfacet
  facet normal 0.5 0.866025 -0
    outer loop
      vertex -7.325 1.16913 1
      vertex -18.6455 7.70503 30
      vertex -7.325 1.16913 30
    endloop
  endfacet
  facet normal 0.5 0.866025 0
    outer loop
      vertex -18.6455 7.70503 30
      vertex -7.325 1.16913 1
      vertex -18.6455 7.70503 1
    endloop
  endfacet
  facet normal 0 -1 0
    outer loop
      vertex -5 -20 30
      vertex -2.65 -20 1
      vertex -2.65 -20 30
    endloop
  endfacet
  facet normal 0 -1 -0
    outer loop
      vertex -2.65 -20 1
      vertex -5 -20 0
      vertex 2.65 -20 1
    endloop
  endfacet
  facet normal 0 -1 0
    outer loop
      vertex -5 -20 0
      vertex -2.65 -20 1
      vertex -5 -20 30
    endloop
  endfacet
  facet normal 0 -1 0
    outer loop
      vertex 2.65 -20 1
      vertex 5 -20 30
      vertex 2.65 -20 30
    endloop
  endfacet
  facet normal 0 -1 0
    outer loop
      vertex 2.65 -20 1
      vertex 5 -20 0
      vertex 5 -20 30
    endloop
  endfacet
  facet normal 0 -1 0
    outer loop
      vertex 5 -20 0
      vertex 2.65 -20 1
      vertex -5 -20 0
    endloop
  endfacet
  facet normal 1 -0 0
    outer loop
      vertex 5 -20 30
      vertex 5 -5.19615 0
      vertex 5 -5.19615 30
    endloop
  endfacet
  facet normal 1 0 0
    outer loop
      vertex 5 -5.19615 0
      vertex 5 -20 30
      vertex 5 -20 0
    endloop
  endfacet
  facet normal -1 0 0
    outer loop
      vertex -5 -20 0
      vertex -5 -5.19615 30
      vertex -5 -5.19615 0
    endloop
  endfacet
  facet normal -1 -0 0
    outer loop
      vertex -5 -5.19615 30
      vertex -5 -20 0
      vertex -5 -20 30
    endloop
  endfacet
  facet normal 1 -0 0
    outer loop
      vertex -2.65 -20 30
      vertex -2.65 -6.9282 1
      vertex -2.65 -6.9282 30
    endloop
  endfacet
  facet normal 1 0 0
    outer loop
      vertex -2.65 -6.9282 1
      vertex -2.65 -20 30
      vertex -2.65 -20 1
    endloop
  endfacet
  facet normal -1 0 0
    outer loop
      vertex 2.65 -20 1
      vertex 2.65 -6.9282 30
      vertex 2.65 -6.9282 1
    endloop
  endfacet
  facet normal -1 -0 0
    outer loop
      vertex 2.65 -6.9282 30
      vertex 2.65 -20 1
      vertex 2.65 -20 30
    endloop
  endfacet
  facet normal 0.866025 0.5 0
    outer loop
      vertex 8 0 30
      vertex 4 6.9282 0
      vertex 4 6.9282 30
    endloop
  endfacet
  facet normal 0.866025 0.5 0
    outer loop
      vertex 4 6.9282 0
      vertex 8 0 30
      vertex 8 0 0
    endloop
  endfacet
  facet normal -0.866025 0.5 0
    outer loop
      vertex -7.325 1.16913 1
      vertex -4.675 5.75907 30
      vertex -4.675 5.75907 1
    endloop
  endfacet
  facet normal -0.866025 0.5 0
    outer loop
      vertex -4.675 5.75907 30
      vertex -7.325 1.16913 1
      vertex -7.325 1.16913 30
    endloop
  endfacet
  facet normal 0 1 -0
    outer loop
      vertex 4 6.9282 0
      vertex -2 6.9282 30
      vertex 4 6.9282 30
    endloop
  endfacet
  facet normal 0 1 0
    outer loop
      vertex -2 6.9282 30
      vertex 4 6.9282 0
      vertex -2 6.9282 0
    endloop
  endfacet
  facet normal -0.866025 -0.5 0
    outer loop
      vertex -5 -5.19615 0
      vertex -7 -1.73205 30
      vertex -7 -1.73205 0
    endloop
  endfacet
  facet normal -0.866025 -0.5 0
    outer loop
      vertex -7 -1.73205 30
      vertex -5 -5.19615 0
      vertex -5 -5.19615 30
    endloop
  endfacet
  facet normal 0.866025 -0.5 0
    outer loop
      vertex 5 -5.19615 30
      vertex 8 0 0
      vertex 8 0 30
    endloop
  endfacet
  facet normal 0.866025 -0.5 0
    outer loop
      vertex 8 0 0
      vertex 5 -5.19615 30
      vertex 5 -5.19615 0
    endloop
  endfacet
  facet normal 0 -1 0
    outer loop
      vertex -2.65 -6.9282 1
      vertex 2.65 -6.9282 30
      vertex -2.65 -6.9282 30
    endloop
  endfacet
  facet normal 0 -1 -0
    outer loop
      vertex 2.65 -6.9282 30
      vertex -2.65 -6.9282 1
      vertex 2.65 -6.9282 1
    endloop
  endfacet
  facet normal -0.236983 0.884433 0.402015
    outer loop
      vertex 1.02273 -2.74869 5.25
      vertex 0 -2 3
      vertex 0 -3.02273 5.25
    endloop
  endfacet
  facet normal -0.884433 -0.236984 0.402015
    outer loop
      vertex 3.02273 0 5.25
      vertex 2.74869 1.02273 5.25
      vertex 2 0 3
    endloop
  endfacet
  facet normal -0.884433 -0.236984 0.402015
    outer loop
      vertex 1.73205 0.999999 3
      vertex 2.74869 1.02273 5.25
      vertex 2.61776 1.51136 5.25
    endloop
  endfacet
  facet normal -0.884433 -0.236984 0.402015
    outer loop
      vertex 2.74869 1.02273 5.25
      vertex 1.73205 0.999999 3
      vertex 2 0 3
    endloop
  endfacet
  facet normal -0.884433 0.236984 0.402015
    outer loop
      vertex 1.73205 -1 3
      vertex 2.74869 -1.02273 5.25
      vertex 2 0 3
    endloop
  endfacet
  facet normal -0.884433 0.236984 0.402015
    outer loop
      vertex 2.74869 -1.02273 5.25
      vertex 1.73205 -1 3
      vertex 2.61776 -1.51136 5.25
    endloop
  endfacet
  facet normal 0.647451 0.64745 0.402015
    outer loop
      vertex -2.61776 -1.51136 5.25
      vertex -1 -1.73205 3
      vertex -1.73205 -0.999999 3
    endloop
  endfacet
  facet normal 0.647451 0.64745 0.402015
    outer loop
      vertex -1 -1.73205 3
      vertex -2.61776 -1.51136 5.25
      vertex -2.26005 -1.86907 5.25
    endloop
  endfacet
  facet normal 0.64745 -0.64745 0.402015
    outer loop
      vertex -2.61776 1.51136 5.25
      vertex -0.999999 1.73205 3
      vertex -1.51136 2.61776 5.25
    endloop
  endfacet
  facet normal 0.64745 -0.64745 0.402015
    outer loop
      vertex -0.999999 1.73205 3
      vertex -2.61776 1.51136 5.25
      vertex -1.73205 0.999999 3
    endloop
  endfacet
  facet normal -0.64745 0.64745 0.402015
    outer loop
      vertex 1 -1.73205 3
      vertex 2.61776 -1.51136 5.25
      vertex 1.73205 -1 3
    endloop
  endfacet
  facet normal -0.64745 0.64745 0.402015
    outer loop
      vertex 2.61776 -1.51136 5.25
      vertex 1 -1.73205 3
      vertex 1.51136 -2.61776 5.25
    endloop
  endfacet
  facet normal -0.884433 0.236983 0.402015
    outer loop
      vertex 2.74869 -1.02273 5.25
      vertex 3.02273 0 5.25
      vertex 2 0 3
    endloop
  endfacet
  facet normal -0.236984 0.884433 0.402015
    outer loop
      vertex 1 -1.73205 3
      vertex 1.02273 -2.74869 5.25
      vertex 1.51136 -2.61776 5.25
    endloop
  endfacet
  facet normal -0.236984 0.884433 0.402015
    outer loop
      vertex 1.02273 -2.74869 5.25
      vertex 1 -1.73205 3
      vertex 0 -2 3
    endloop
  endfacet
  facet normal 0.236983 0.884433 0.402015
    outer loop
      vertex 0 -3.02273 5.25
      vertex 0 -2 3
      vertex -1.02273 -2.74869 5.25
    endloop
  endfacet
  facet normal 0.236984 -0.884433 0.402015
    outer loop
      vertex -0.999999 1.73205 3
      vertex -1.02273 2.74869 5.25
      vertex -1.51136 2.61776 5.25
    endloop
  endfacet
  facet normal 0.236984 -0.884433 0.402015
    outer loop
      vertex -1.02273 2.74869 5.25
      vertex -0.999999 1.73205 3
      vertex 0 2 3
    endloop
  endfacet
  facet normal 0.884433 -0.236984 0.402015
    outer loop
      vertex -2 0 3
      vertex -2.74869 1.02273 5.25
      vertex -3.02273 0 5.25
    endloop
  endfacet
  facet normal 0.236984 0.884433 0.402015
    outer loop
      vertex -1 -1.73205 3
      vertex -1.02273 -2.74869 5.25
      vertex 0 -2 3
    endloop
  endfacet
  facet normal 0.236984 0.884433 0.402015
    outer loop
      vertex -1.02273 -2.74869 5.25
      vertex -1 -1.73205 3
      vertex -1.51136 -2.61776 5.25
    endloop
  endfacet
  facet normal 0.64745 0.64745 0.402015
    outer loop
      vertex -1.51136 -2.61776 5.25
      vertex -1 -1.73205 3
      vertex -2.26005 -1.86907 5.25
    endloop
  endfacet
  facet normal 0.236984 -0.884433 0.402015
    outer loop
      vertex 0 2 3
      vertex 0 3.02273 5.25
      vertex -1.02273 2.74869 5.25
    endloop
  endfacet
  facet normal 0.884433 0.236984 0.402015
    outer loop
      vertex -2.74869 -1.02273 5.25
      vertex -2 0 3
      vertex -3.02273 0 5.25
    endloop
  endfacet
  facet normal -0.236983 -0.884433 0.402015
    outer loop
      vertex 1.02273 2.74869 5.25
      vertex 0 3.02273 5.25
      vertex 0 2 3
    endloop
  endfacet
  facet normal 0.884433 0.236984 0.402015
    outer loop
      vertex -2.74869 -1.02273 5.25
      vertex -1.73205 -0.999999 3
      vertex -2 0 3
    endloop
  endfacet
  facet normal 0.884433 0.236984 0.402015
    outer loop
      vertex -1.73205 -0.999999 3
      vertex -2.74869 -1.02273 5.25
      vertex -2.61776 -1.51136 5.25
    endloop
  endfacet
  facet normal -0.236984 -0.884433 0.402015
    outer loop
      vertex 1 1.73205 3
      vertex 1.02273 2.74869 5.25
      vertex 0 2 3
    endloop
  endfacet
  facet normal -0.236984 -0.884433 0.402015
    outer loop
      vertex 1.02273 2.74869 5.25
      vertex 1 1.73205 3
      vertex 1.51136 2.61776 5.25
    endloop
  endfacet
  facet normal 0.884433 -0.236984 0.402015
    outer loop
      vertex -2.74869 1.02273 5.25
      vertex -1.73205 0.999999 3
      vertex -2.61776 1.51136 5.25
    endloop
  endfacet
  facet normal 0.884433 -0.236984 0.402015
    outer loop
      vertex -1.73205 0.999999 3
      vertex -2.74869 1.02273 5.25
      vertex -2 0 3
    endloop
  endfacet
  facet normal -0.64745 -0.64745 0.402015
    outer loop
      vertex 2.26005 1.86907 5.25
      vertex 1.51136 2.61776 5.25
      vertex 1 1.73205 3
    endloop
  endfacet
  facet normal -0.647451 -0.64745 0.402015
    outer loop
      vertex 1 1.73205 3
      vertex 2.61776 1.51136 5.25
      vertex 2.26005 1.86907 5.25
    endloop
  endfacet
  facet normal -0.647451 -0.64745 0.402015
    outer loop
      vertex 2.61776 1.51136 5.25
      vertex 1 1.73205 3
      vertex 1.73205 0.999999 3
    endloop
  endfacet
  facet normal -0.965926 -0.258819 0
    outer loop
      vertex 5.5 0 5.25
      vertex 4.76314 2.75 30
      vertex 4.76314 2.75 5.25
    endloop
  endfacet
  facet normal -0.965926 -0.258819 0
    outer loop
      vertex 4.76314 2.75 30
      vertex 5.5 0 5.25
      vertex 5.5 0 30
    endloop
  endfacet
  facet normal 0.965926 -0.258819 0
    outer loop
      vertex -5.5 0 30
      vertex -4.76314 2.75 5.25
      vertex -4.76314 2.75 30
    endloop
  endfacet
  facet normal 0.965926 -0.258819 0
    outer loop
      vertex -4.76314 2.75 5.25
      vertex -5.5 0 30
      vertex -5.5 0 5.25
    endloop
  endfacet
  facet normal -0.258819 -0.965926 0
    outer loop
      vertex 0 5.5 5.25
      vertex 2.75 4.76314 30
      vertex 0 5.5 30
    endloop
  endfacet
  facet normal -0.258819 -0.965926 -0
    outer loop
      vertex 2.75 4.76314 30
      vertex 0 5.5 5.25
      vertex 2.75 4.76314 5.25
    endloop
  endfacet
  facet normal -0.707107 -0.707107 0
    outer loop
      vertex 4.76314 2.75 5.25
      vertex 2.75 4.76314 30
      vertex 2.75 4.76314 5.25
    endloop
  endfacet
  facet normal -0.707107 -0.707107 0
    outer loop
      vertex 2.75 4.76314 30
      vertex 4.76314 2.75 5.25
      vertex 4.76314 2.75 30
    endloop
  endfacet
  facet normal 0.258819 -0.965926 0
    outer loop
      vertex -2.75 4.76314 5.25
      vertex 0 5.5 30
      vertex -2.75 4.76314 30
    endloop
  endfacet
  facet normal 0.258819 -0.965926 0
    outer loop
      vertex 0 5.5 30
      vertex -2.75 4.76314 5.25
      vertex 0 5.5 5.25
    endloop
  endfacet
  facet normal -0.258819 0.965926 0
    outer loop
      vertex 2.75 -4.76314 5.25
      vertex 0 -5.5 30
      vertex 2.75 -4.76314 30
    endloop
  endfacet
  facet normal -0.258819 0.965926 0
    outer loop
      vertex 0 -5.5 30
      vertex 2.75 -4.76314 5.25
      vertex 0 -5.5 5.25
    endloop
  endfacet
  facet normal -0 0 1
    outer loop
      vertex 2.74869 1.02273 5.25
      vertex 5.5 0 5.25
      vertex 4.76314 2.75 5.25
    endloop
  endfacet
  facet normal 0 0 1
    outer loop
      vertex 2.74869 -1.02273 5.25
      vertex 5.5 0 5.25
      vertex 3.02273 0 5.25
    endloop
  endfacet
  facet normal 0 0 1
    outer loop
      vertex 2.26005 1.86907 5.25
      vertex 4.76314 2.75 5.25
      vertex 2.75 4.76314 5.25
    endloop
  endfacet
  facet normal 0 0 1
    outer loop
      vertex 5.5 0 5.25
      vertex 2.74869 1.02273 5.25
      vertex 3.02273 0 5.25
    endloop
  endfacet
  facet normal 0 0 1
    outer loop
      vertex 4.76314 2.75 5.25
      vertex 2.61776 1.51136 5.25
      vertex 2.74869 1.02273 5.25
    endloop
  endfacet
  facet normal 0 0 1
    outer loop
      vertex 4.76314 2.75 5.25
      vertex 2.26005 1.86907 5.25
      vertex 2.61776 1.51136 5.25
    endloop
  endfacet
  facet normal 0 0 1
    outer loop
      vertex 2.75 4.76314 5.25
      vertex 1.51136 2.61776 5.25
      vertex 2.26005 1.86907 5.25
    endloop
  endfacet
  facet normal 0 0 1
    outer loop
      vertex 2.75 4.76314 5.25
      vertex 1.02273 2.74869 5.25
      vertex 1.51136 2.61776 5.25
    endloop
  endfacet
  facet normal 0 0 1
    outer loop
      vertex 0 5.5 5.25
      vertex 1.02273 2.74869 5.25
      vertex 2.75 4.76314 5.25
    endloop
  endfacet
  facet normal 0 0 1
    outer loop
      vertex 0 5.5 5.25
      vertex 0 3.02273 5.25
      vertex 1.02273 2.74869 5.25
    endloop
  endfacet
  facet normal 0 0 1
    outer loop
      vertex 0 5.5 5.25
      vertex -1.02273 2.74869 5.25
      vertex 0 3.02273 5.25
    endloop
  endfacet
  facet normal -0 0 1
    outer loop
      vertex -2.75 4.76314 5.25
      vertex -1.02273 2.74869 5.25
      vertex 0 5.5 5.25
    endloop
  endfacet
  facet normal 0 0 1
    outer loop
      vertex -1.02273 2.74869 5.25
      vertex -2.75 4.76314 5.25
      vertex -1.51136 2.61776 5.25
    endloop
  endfacet
  facet normal 0 0 1
    outer loop
      vertex -1.51136 2.61776 5.25
      vertex -2.75 4.76314 5.25
      vertex -2.61776 1.51136 5.25
    endloop
  endfacet
  facet normal -0 0 1
    outer loop
      vertex -4.76314 2.75 5.25
      vertex -2.61776 1.51136 5.25
      vertex -2.75 4.76314 5.25
    endloop
  endfacet
  facet normal 0 0 1
    outer loop
      vertex -2.61776 1.51136 5.25
      vertex -4.76314 2.75 5.25
      vertex -2.74869 1.02273 5.25
    endloop
  endfacet
  facet normal 0 0 1
    outer loop
      vertex -5.5 0 5.25
      vertex -2.74869 1.02273 5.25
      vertex -4.76314 2.75 5.25
    endloop
  endfacet
  facet normal 0 0 1
    outer loop
      vertex 5.5 0 5.25
      vertex 2.74869 -1.02273 5.25
      vertex 4.76314 -2.75 5.25
    endloop
  endfacet
  facet normal -0 0 1
    outer loop
      vertex 2.61776 -1.51136 5.25
      vertex 4.76314 -2.75 5.25
      vertex 2.74869 -1.02273 5.25
    endloop
  endfacet
  facet normal 0 0 1
    outer loop
      vertex 4.76314 -2.75 5.25
      vertex 2.61776 -1.51136 5.25
      vertex 2.75 -4.76314 5.25
    endloop
  endfacet
  facet normal -0 0 1
    outer loop
      vertex 1.51136 -2.61776 5.25
      vertex 2.75 -4.76314 5.25
      vertex 2.61776 -1.51136 5.25
    endloop
  endfacet
  facet normal -0 0 1
    outer loop
      vertex 1.02273 -2.74869 5.25
      vertex 2.75 -4.76314 5.25
      vertex 1.51136 -2.61776 5.25
    endloop
  endfacet
  facet normal 0 0 1
    outer loop
      vertex 0 -5.5 5.25
      vertex 1.02273 -2.74869 5.25
      vertex 0 -3.02273 5.25
    endloop
  endfacet
  facet normal 0 0 1
    outer loop
      vertex 1.02273 -2.74869 5.25
      vertex 0 -5.5 5.25
      vertex 2.75 -4.76314 5.25
    endloop
  endfacet
  facet normal 0 0 1
    outer loop
      vertex -1.02273 -2.74869 5.25
      vertex 0 -5.5 5.25
      vertex 0 -3.02273 5.25
    endloop
  endfacet
  facet normal 0 0 1
    outer loop
      vertex -2.75 -4.76314 5.25
      vertex -1.02273 -2.74869 5.25
      vertex -1.51136 -2.61776 5.25
    endloop
  endfacet
  facet normal 0 0 1
    outer loop
      vertex -2.75 -4.76314 5.25
      vertex -1.51136 -2.61776 5.25
      vertex -2.26005 -1.86907 5.25
    endloop
  endfacet
  facet normal 0 0 1
    outer loop
      vertex -4.76314 -2.75 5.25
      vertex -2.26005 -1.86907 5.25
      vertex -2.61776 -1.51136 5.25
    endloop
  endfacet
  facet normal 0 0 1
    outer loop
      vertex -1.02273 -2.74869 5.25
      vertex -2.75 -4.76314 5.25
      vertex 0 -5.5 5.25
    endloop
  endfacet
  facet normal 0 0 1
    outer loop
      vertex -4.76314 -2.75 5.25
      vertex -2.61776 -1.51136 5.25
      vertex -2.74869 -1.02273 5.25
    endloop
  endfacet
  facet normal -0 0 1
    outer loop
      vertex -5.5 0 5.25
      vertex -2.74869 -1.02273 5.25
      vertex -3.02273 0 5.25
    endloop
  endfacet
  facet normal 0 0 1
    outer loop
      vertex -2.74869 1.02273 5.25
      vertex -5.5 0 5.25
      vertex -3.02273 0 5.25
    endloop
  endfacet
  facet normal 0 0 1
    outer loop
      vertex -2.26005 -1.86907 5.25
      vertex -4.76314 -2.75 5.25
      vertex -2.75 -4.76314 5.25
    endloop
  endfacet
  facet normal 0 0 1
    outer loop
      vertex -2.74869 -1.02273 5.25
      vertex -5.5 0 5.25
      vertex -4.76314 -2.75 5.25
    endloop
  endfacet
  facet normal 0.707107 -0.707107 0
    outer loop
      vertex -4.76314 2.75 30
      vertex -2.75 4.76314 5.25
      vertex -2.75 4.76314 30
    endloop
  endfacet
  facet normal 0.707107 -0.707107 0
    outer loop
      vertex -2.75 4.76314 5.25
      vertex -4.76314 2.75 30
      vertex -4.76314 2.75 5.25
    endloop
  endfacet
  facet normal 0.258819 0.965926 -0
    outer loop
      vertex 0 -5.5 5.25
      vertex -2.75 -4.76314 30
      vertex 0 -5.5 30
    endloop
  endfacet
  facet normal 0.258819 0.965926 0
    outer loop
      vertex -2.75 -4.76314 30
      vertex 0 -5.5 5.25
      vertex -2.75 -4.76314 5.25
    endloop
  endfacet
  facet normal 0.965926 0.258819 0
    outer loop
      vertex -4.76314 -2.75 30
      vertex -5.5 0 5.25
      vertex -5.5 0 30
    endloop
  endfacet
  facet normal 0.965926 0.258819 0
    outer loop
      vertex -5.5 0 5.25
      vertex -4.76314 -2.75 30
      vertex -4.76314 -2.75 5.25
    endloop
  endfacet
  facet normal -0.707107 0.707107 0
    outer loop
      vertex 2.75 -4.76314 5.25
      vertex 4.76314 -2.75 30
      vertex 4.76314 -2.75 5.25
    endloop
  endfacet
  facet normal -0.707107 0.707107 0
    outer loop
      vertex 4.76314 -2.75 30
      vertex 2.75 -4.76314 5.25
      vertex 2.75 -4.76314 30
    endloop
  endfacet
  facet normal -0.965926 0.258819 0
    outer loop
      vertex 4.76314 -2.75 5.25
      vertex 5.5 0 30
      vertex 5.5 0 5.25
    endloop
  endfacet
  facet normal -0.965926 0.258819 0
    outer loop
      vertex 5.5 0 30
      vertex 4.76314 -2.75 5.25
      vertex 4.76314 -2.75 30
    endloop
  endfacet
  facet normal 0.707107 0.707107 0
    outer loop
      vertex -2.75 -4.76314 30
      vertex -4.76314 -2.75 5.25
      vertex -4.76314 -2.75 30
    endloop
  endfacet
  facet normal 0.707107 0.707107 0
    outer loop
      vertex -4.76314 -2.75 5.25
      vertex -2.75 -4.76314 30
      vertex -2.75 -4.76314 5.25
    endloop
  endfacet
  facet normal -0.965926 -0.25882 0
    outer loop
      vertex 2 0 0
      vertex 1.73205 0.999999 3
      vertex 1.73205 0.999999 0
    endloop
  endfacet
  facet normal -0.965926 -0.25882 0
    outer loop
      vertex 1.73205 0.999999 3
      vertex 2 0 0
      vertex 2 0 3
    endloop
  endfacet
  facet normal 0.965926 -0.25882 0
    outer loop
      vertex -2 0 3
      vertex -1.73205 0.999999 0
      vertex -1.73205 0.999999 3
    endloop
  endfacet
  facet normal 0.965926 -0.25882 0
    outer loop
      vertex -1.73205 0.999999 0
      vertex -2 0 3
      vertex -2 0 0
    endloop
  endfacet
  facet normal -0.25882 -0.965926 0
    outer loop
      vertex 0 2 0
      vertex 1 1.73205 3
      vertex 0 2 3
    endloop
  endfacet
  facet normal -0.25882 -0.965926 -0
    outer loop
      vertex 1 1.73205 3
      vertex 0 2 0
      vertex 1 1.73205 0
    endloop
  endfacet
  facet normal -0.707107 -0.707106 0
    outer loop
      vertex 1.73205 0.999999 0
      vertex 1 1.73205 3
      vertex 1 1.73205 0
    endloop
  endfacet
  facet normal -0.707107 -0.707106 0
    outer loop
      vertex 1 1.73205 3
      vertex 1.73205 0.999999 0
      vertex 1.73205 0.999999 3
    endloop
  endfacet
  facet normal 0.25882 -0.965926 0
    outer loop
      vertex -0.999999 1.73205 0
      vertex 0 2 3
      vertex -0.999999 1.73205 3
    endloop
  endfacet
  facet normal 0.25882 -0.965926 0
    outer loop
      vertex 0 2 3
      vertex -0.999999 1.73205 0
      vertex 0 2 0
    endloop
  endfacet
  facet normal 0.707107 -0.707107 0
    outer loop
      vertex -1.73205 0.999999 3
      vertex -0.999999 1.73205 0
      vertex -0.999999 1.73205 3
    endloop
  endfacet
  facet normal 0.707107 -0.707107 0
    outer loop
      vertex -0.999999 1.73205 0
      vertex -1.73205 0.999999 3
      vertex -1.73205 0.999999 0
    endloop
  endfacet
  facet normal -0.965926 0.25882 0
    outer loop
      vertex 1.73205 -1 0
      vertex 2 0 3
      vertex 2 0 0
    endloop
  endfacet
  facet normal -0.965926 0.25882 0
    outer loop
      vertex 2 0 3
      vertex 1.73205 -1 0
      vertex 1.73205 -1 3
    endloop
  endfacet
  facet normal 0.25882 0.965926 -0
    outer loop
      vertex 0 -2 0
      vertex -1 -1.73205 3
      vertex 0 -2 3
    endloop
  endfacet
  facet normal 0.25882 0.965926 0
    outer loop
      vertex -1 -1.73205 3
      vertex 0 -2 0
      vertex -1 -1.73205 0
    endloop
  endfacet
  facet normal 0.965926 0.25882 0
    outer loop
      vertex -1.73205 -0.999999 3
      vertex -2 0 0
      vertex -2 0 3
    endloop
  endfacet
  facet normal 0.965926 0.25882 0
    outer loop
      vertex -2 0 0
      vertex -1.73205 -0.999999 3
      vertex -1.73205 -0.999999 0
    endloop
  endfacet
  facet normal -0.707107 0.707107 0
    outer loop
      vertex 1 -1.73205 0
      vertex 1.73205 -1 3
      vertex 1.73205 -1 0
    endloop
  endfacet
  facet normal -0.707107 0.707107 0
    outer loop
      vertex 1.73205 -1 3
      vertex 1 -1.73205 0
      vertex 1 -1.73205 3
    endloop
  endfacet
  facet normal -0.25882 0.965926 0
    outer loop
      vertex 1 -1.73205 0
      vertex 0 -2 3
      vertex 1 -1.73205 3
    endloop
  endfacet
  facet normal -0.25882 0.965926 0
    outer loop
      vertex 0 -2 3
      vertex 1 -1.73205 0
      vertex 0 -2 0
    endloop
  endfacet
  facet normal 0.707107 0.707106 0
    outer loop
      vertex -1 -1.73205 3
      vertex -1.73205 -0.999999 0
      vertex -1.73205 -0.999999 3
    endloop
  endfacet
  facet normal 0.707107 0.707106 0
    outer loop
      vertex -1.73205 -0.999999 0
      vertex -1 -1.73205 3
      vertex -1 -1.73205 0
    endloop
  endfacet
endsolid OpenSCAD_Model
