<?xml version="1.0" encoding="UTF-8" standalone="no"?>
<!-- Created with Inkscape (http://www.inkscape.org/) -->

<svg
   xmlns:dc="http://purl.org/dc/elements/1.1/"
   xmlns:cc="http://creativecommons.org/ns#"
   xmlns:rdf="http://www.w3.org/1999/02/22-rdf-syntax-ns#"
   xmlns:svg="http://www.w3.org/2000/svg"
   xmlns="http://www.w3.org/2000/svg"
   xmlns:sodipodi="http://sodipodi.sourceforge.net/DTD/sodipodi-0.dtd"
   xmlns:inkscape="http://www.inkscape.org/namespaces/inkscape"
   width="424.81274"
   height="336.37524"
   id="svg2993"
   version="1.1"
   inkscape:version="0.48.4 r9939"
   sodipodi:docname="businesscardholder.svg">
  <defs
     id="defs2995" />
  <sodipodi:namedview
     id="base"
     pagecolor="#ffffff"
     bordercolor="#666666"
     borderopacity="1.0"
     inkscape:pageopacity="0.0"
     inkscape:pageshadow="2"
     inkscape:zoom="16"
     inkscape:cx="423.43612"
     inkscape:cy="340.46857"
     inkscape:document-units="mm"
     inkscape:current-layer="layer1"
     showgrid="false"
     units="mm"
     inkscape:snap-global="true"
     inkscape:window-width="1920"
     inkscape:window-height="1025"
     inkscape:window-x="0"
     inkscape:window-y="27"
     inkscape:window-maximized="1"
     inkscape:object-paths="true"
     fit-margin-top="0"
     fit-margin-left="0"
     fit-margin-right="0"
     fit-margin-bottom="0"
     showguides="true"
     inkscape:guide-bbox="true">
    <sodipodi:guide
       orientation="0,1"
       position="-11.40625,336.12499"
       id="guide2989" />
    <sodipodi:guide
       orientation="0,1"
       position="-6.4374998,337.68749"
       id="guide2991" />
    <sodipodi:guide
       orientation="0,1"
       position="10.03125,0.31249999"
       id="guide2993" />
    <sodipodi:guide
       orientation="0,1"
       position="6.7187498,-1.78125"
       id="guide2995" />
  </sodipodi:namedview>
  <metadata
     id="metadata2998">
    <rdf:RDF>
      <cc:Work
         rdf:about="">
        <dc:format>image/svg+xml</dc:format>
        <dc:type
           rdf:resource="http://purl.org/dc/dcmitype/StillImage" />
        <dc:title />
      </cc:Work>
    </rdf:RDF>
  </metadata>
  <g
     inkscape:label="Layer 1"
     inkscape:groupmode="layer"
     id="layer1"
     transform="translate(-87.828002,-675.43504)">
    <path
       inkscape:connector-curvature="0"
       id="path588-4"
       style="fill:none;stroke:#ff0000;stroke-width:0.03543307;stroke-linecap:round;stroke-linejoin:round;stroke-miterlimit:4;stroke-opacity:1;stroke-dasharray:none"
       d="m 219.48779,731.78176 0,-40.64447 m 0,94.8371 0,-47.41855 m 0,101.61037 0,-47.41854 m 0,101.61115 0,-47.41853 m 0,101.61013 0,-47.41828 m 0,54.19223 0,40.64434 m -5.31502,-20.32229 0,27.09658 m 0,-74.51455 0,40.64395 m 0,-94.8366 0,47.41857 m 0,-101.61039 0,47.41774 m 0,-101.60957 0,47.41776 m 0,-94.8371 0,40.64527 m 0,-74.51486 0,27.09631 m -100.98425,20.32223 0,-40.64447 m 0,94.8371 0,-47.41855 m 0,101.61037 0,-47.41854 m 0,101.61115 0,-47.41853 m 0,101.61013 0,-47.41828 m 0,54.19223 0,40.64434 m -5.31502,-20.32229 0,27.09658 m 0,-74.51455 0,40.64395 m 0,-94.8366 0,47.41857 m 0,-101.61039 0,47.41774 m 0,-101.60957 0,47.41776 m 0,-94.8371 0,40.64527 m 0,-74.51486 0,27.09631 m 95.66922,264.18689 0,27.09658 m 0,-74.51455 0,40.64395 m 0,-94.8366 0,47.41857 m 0,-101.61039 0,47.41774 m 0,-101.60957 0,47.41776 m 0,-94.8371 0,40.64527 m 0,-74.51486 0,27.09631 m -5.31503,20.32223 0,-40.64447 m 0,94.8371 0,-47.41855 m 0,101.61037 0,-47.41854 m 0,101.61115 0,-47.41853 m 0,101.61013 0,-47.41828 m 0,54.19223 0,40.64434 m -69.09409,-20.32229 0,27.09658 m 0,-74.51455 0,40.64395 m 0,-94.8366 0,47.41857 m 0,-101.61039 0,47.41774 m 0,-101.60957 0,47.41776 m 0,-94.8371 0,40.64527 m 0,-74.51486 0,27.09631 m -5.31503,20.32223 0,-40.64447 m 0,94.8371 0,-47.41855 m 0,101.61037 0,-47.41854 m 0,101.61115 0,-47.41853 m 0,101.61013 0,-47.41828 m 0,54.19223 0,40.64434 m -5.31502,-20.32229 0,27.09658 m 0,-74.51455 0,40.64395 m 0,-94.8366 0,47.41857 m 0,-101.61039 0,47.41774 m 0,-101.60957 0,47.41776 m 0,-94.8371 0,40.64527 m 0,-74.51486 0,27.09631 m 90.35419,20.32223 0,-40.64447 m 0,94.8371 0,-47.41855 m 0,101.61037 0,-47.41854 m 0,101.61115 0,-47.41853 m 0,101.61013 0,-47.41828 m 0,54.19223 0,40.64434 m -37.20518,-20.32229 0,27.09658 m 0,-74.51455 0,40.64395 m 0,-94.8366 0,47.41857 m 0,-101.61039 0,47.41774 m 0,-101.60957 0,47.41776 m 0,-94.8371 0,40.64527 m 0,-74.51486 0,27.09631 m -5.31503,20.32223 0,-40.64447 m 0,94.8371 0,-47.41855 m 0,101.61037 0,-47.41854 m 0,101.61115 0,-47.41853 m 0,101.61013 0,-47.41828 m 0,54.19223 0,40.64434 m 26.57513,-20.32229 0,27.09658 m 0,-74.51455 0,40.64395 m 0,-94.8366 0,47.41857 m 0,-101.61039 0,47.41774 m 0,-101.60957 0,47.41776 m 0,-94.8371 0,40.64527 m 0,-74.51486 0,27.09631 m -5.31502,20.32223 0,-40.64447 m 0,94.8371 0,-47.41855 m 0,101.61037 0,-47.41854 m 0,101.61115 0,-47.41853 m 0,101.61013 0,-47.41828 m 0,54.19223 0,40.64434 m -5.31503,-20.32229 0,27.09658 m 0,-74.51455 0,40.64395 m 0,-94.8366 0,47.41857 m 0,-101.61039 0,47.41774 m 0,-101.60957 0,47.41776 m 0,-94.8371 0,40.64527 m 0,-74.51486 0,27.09631 m -5.31502,20.32223 0,-40.64447 m 0,94.8371 0,-47.41855 m 0,101.61037 0,-47.41854 m 0,101.61115 0,-47.41853 m 0,101.61013 0,-47.41828 m 0,54.19223 0,40.64434 m -37.20519,-20.32229 0,27.09658 m 0,-74.51455 0,40.64395 m 0,-94.8366 0,47.41857 m 0,-101.61039 0,47.41774 m 0,-101.60957 0,47.41776 m 0,-94.8371 0,40.64527 m 0,-74.51486 0,27.09631 m -5.31377,20.32223 0,-40.64447 m 0,94.8371 0,-47.41855 m 0,101.61037 0,-47.41854 m 0,101.61115 0,-47.41853 m 0,101.61013 0,-47.41828 m 0,54.19223 0,40.64434 m 26.57388,-20.32229 0,27.09658 m 0,-74.51455 0,40.64395 m 0,-94.8366 0,47.41857 m 0,-101.61039 0,47.41774 m 0,-101.60957 0,47.41776 m 0,-94.8371 0,40.64527 m 0,-74.51486 0,27.09631 m -5.31503,20.32223 0,-40.64447 m 0,94.8371 0,-47.41855 m 0,101.61037 0,-47.41854 m 0,101.61115 0,-47.41853 m 0,101.61013 0,-47.41828 m 0,54.19223 0,40.64434 m -5.31503,-20.32229 0,27.09658 m 0,-74.51455 0,40.64395 m 0,-94.8366 0,47.41857 m 0,-101.61039 0,47.41774 m 0,-101.60957 0,47.41776 m 0,-94.8371 0,40.64527 m 0,-74.51486 0,27.09631 m -5.31502,20.32223 0,-40.64447 m 0,94.8371 0,-47.41855 m 0,101.61037 0,-47.41854 m 0,101.61115 0,-47.41853 m 0,101.61013 0,-47.41828 m 0,54.19223 0,40.64434"
       sodipodi:nodetypes="cccccccccccccccccccccccccccccccccccccccccccccccccccccccccccccccccccccccccccccccccccccccccccccccccccccccccccccccccccccccccccccccccccccccccccccccccccccccccccccccccccccccccccccccccccccccccccccccccccccccccccccccccccccccccccccccccccccccccccccccccccccccccccccccccccccccccccccccccccccccccccccc" />
    <path
       style="fill:none;stroke:#ff0000;stroke-width:0.03543307;stroke-linejoin:round;stroke-miterlimit:4;stroke-opacity:1;stroke-dasharray:none"
       d="m 88.09375,330.46875 0,10 0,318.90625 0.09375,0 0,10.51574 17,0 0,-10.51574 390.21875,0 0,10.51574 16.96875,0 0,-10.51574 0,-318.90625 -0.125,0 0,-10.04675 -16.96875,0 0,10.04675 -390.21875,0 0,-10 z"
       transform="translate(0,343.70079)"
       id="rect3030"
       inkscape:connector-curvature="0"
       sodipodi:nodetypes="ccccccccccccccccccc" />
    <path
       sodipodi:nodetypes="cccccccccccccccccccccccccccccccccccccccccccccccccccccccccccccccccccccccccccccccccccccccccccccccccccccccccccccccccccccccccccccccccccccccccccccccccccccccccccccccccccccccccccccccccccccccccccccccccccccccccccccccccccccccccccccccccccccccccccccccccccccccccccccccccccccccccccccccccccccccccccccc"
       d="m 337.51601,731.78176 0,-40.64447 m 0,94.8371 0,-47.41855 m 0,101.61037 0,-47.41854 m 0,101.61115 0,-47.41853 m 0,101.61013 0,-47.41828 m 0,54.19223 0,40.64434 m -5.31502,-20.32229 0,27.09658 m 0,-74.51455 0,40.64395 m 0,-94.8366 0,47.41857 m 0,-101.61039 0,47.41774 m 0,-101.60957 0,47.41776 m 0,-94.8371 0,40.64527 m 0,-74.51486 0,27.09631 m -100.98425,20.32223 0,-40.64447 m 0,94.8371 0,-47.41855 m 0,101.61037 0,-47.41854 m 0,101.61115 0,-47.41853 m 0,101.61013 0,-47.41828 m 0,54.19223 0,40.64434 m -5.31502,-20.32229 0,27.09658 m 0,-74.51455 0,40.64395 m 0,-94.8366 0,47.41857 m 0,-101.61039 0,47.41774 m 0,-101.60957 0,47.41776 m 0,-94.8371 0,40.64527 m 0,-74.51486 0,27.09631 m 95.66922,264.18689 0,27.09658 m 0,-74.51455 0,40.64395 m 0,-94.8366 0,47.41857 m 0,-101.61039 0,47.41774 m 0,-101.60957 0,47.41776 m 0,-94.8371 0,40.64527 m 0,-74.51486 0,27.09631 m -5.31503,20.32223 0,-40.64447 m 0,94.8371 0,-47.41855 m 0,101.61037 0,-47.41854 m 0,101.61115 0,-47.41853 m 0,101.61013 0,-47.41828 m 0,54.19223 0,40.64434 m -69.09409,-20.32229 0,27.09658 m 0,-74.51455 0,40.64395 m 0,-94.8366 0,47.41857 m 0,-101.61039 0,47.41774 m 0,-101.60957 0,47.41776 m 0,-94.8371 0,40.64527 m 0,-74.51486 0,27.09631 m -5.31503,20.32223 0,-40.64447 m 0,94.8371 0,-47.41855 m 0,101.61037 0,-47.41854 m 0,101.61115 0,-47.41853 m 0,101.61013 0,-47.41828 m 0,54.19223 0,40.64434 m -5.31502,-20.32229 0,27.09658 m 0,-74.51455 0,40.64395 m 0,-94.8366 0,47.41857 m 0,-101.61039 0,47.41774 m 0,-101.60957 0,47.41776 m 0,-94.8371 0,40.64527 m 0,-74.51486 0,27.09631 m 90.35419,20.32223 0,-40.64447 m 0,94.8371 0,-47.41855 m 0,101.61037 0,-47.41854 m 0,101.61115 0,-47.41853 m 0,101.61013 0,-47.41828 m 0,54.19223 0,40.64434 m -37.20518,-20.32229 0,27.09658 m 0,-74.51455 0,40.64395 m 0,-94.8366 0,47.41857 m 0,-101.61039 0,47.41774 m 0,-101.60957 0,47.41776 m 0,-94.8371 0,40.64527 m 0,-74.51486 0,27.09631 m -5.31503,20.32223 0,-40.64447 m 0,94.8371 0,-47.41855 m 0,101.61037 0,-47.41854 m 0,101.61115 0,-47.41853 m 0,101.61013 0,-47.41828 m 0,54.19223 0,40.64434 m 26.57513,-20.32229 0,27.09658 m 0,-74.51455 0,40.64395 m 0,-94.8366 0,47.41857 m 0,-101.61039 0,47.41774 m 0,-101.60957 0,47.41776 m 0,-94.8371 0,40.64527 m 0,-74.51486 0,27.09631 m -5.31502,20.32223 0,-40.64447 m 0,94.8371 0,-47.41855 m 0,101.61037 0,-47.41854 m 0,101.61115 0,-47.41853 m 0,101.61013 0,-47.41828 m 0,54.19223 0,40.64434 m -5.31503,-20.32229 0,27.09658 m 0,-74.51455 0,40.64395 m 0,-94.8366 0,47.41857 m 0,-101.61039 0,47.41774 m 0,-101.60957 0,47.41776 m 0,-94.8371 0,40.64527 m 0,-74.51486 0,27.09631 m -5.31502,20.32223 0,-40.64447 m 0,94.8371 0,-47.41855 m 0,101.61037 0,-47.41854 m 0,101.61115 0,-47.41853 m 0,101.61013 0,-47.41828 m 0,54.19223 0,40.64434 m -37.20519,-20.32229 0,27.09658 m 0,-74.51455 0,40.64395 m 0,-94.8366 0,47.41857 m 0,-101.61039 0,47.41774 m 0,-101.60957 0,47.41776 m 0,-94.8371 0,40.64527 m 0,-74.51486 0,27.09631 m -5.31377,20.32223 0,-40.64447 m 0,94.8371 0,-47.41855 m 0,101.61037 0,-47.41854 m 0,101.61115 0,-47.41853 m 0,101.61013 0,-47.41828 m 0,54.19223 0,40.64434 m 26.57388,-20.32229 0,27.09658 m 0,-74.51455 0,40.64395 m 0,-94.8366 0,47.41857 m 0,-101.61039 0,47.41774 m 0,-101.60957 0,47.41776 m 0,-94.8371 0,40.64527 m 0,-74.51486 0,27.09631 m -5.31503,20.32223 0,-40.64447 m 0,94.8371 0,-47.41855 m 0,101.61037 0,-47.41854 m 0,101.61115 0,-47.41853 m 0,101.61013 0,-47.41828 m 0,54.19223 0,40.64434 m -5.31503,-20.32229 0,27.09658 m 0,-74.51455 0,40.64395 m 0,-94.8366 0,47.41857 m 0,-101.61039 0,47.41774 m 0,-101.60957 0,47.41776 m 0,-94.8371 0,40.64527 m 0,-74.51486 0,27.09631 m -5.31502,20.32223 0,-40.64447 m 0,94.8371 0,-47.41855 m 0,101.61037 0,-47.41854 m 0,101.61115 0,-47.41853 m 0,101.61013 0,-47.41828 m 0,54.19223 0,40.64434"
       style="fill:none;stroke:#ff0000;stroke-width:0.03543307;stroke-linecap:round;stroke-linejoin:round;stroke-miterlimit:4;stroke-opacity:1;stroke-dasharray:none"
       id="path3051"
       inkscape:connector-curvature="0" />
    <path
       inkscape:connector-curvature="0"
       id="path3064"
       style="fill:none;stroke:#ff0000;stroke-width:0.03543307;stroke-linecap:round;stroke-linejoin:round;stroke-miterlimit:4;stroke-opacity:1;stroke-dasharray:none"
       d="m 455.04936,731.78176 0,-40.64447 m 0,94.8371 0,-47.41855 m 0,101.61037 0,-47.41854 m 0,101.61115 0,-47.41853 m 0,101.61013 0,-47.41828 m 0,54.19223 0,40.64434 m -5.31502,-20.32229 0,27.09658 m 0,-74.51455 0,40.64395 m 0,-94.8366 0,47.41857 m 0,-101.61039 0,47.41774 m 0,-101.60957 0,47.41776 m 0,-94.8371 0,40.64527 m 0,-74.51486 0,27.09631 m -100.98425,20.32223 0,-40.64447 m 0,94.8371 0,-47.41855 m 0,101.61037 0,-47.41854 m 0,101.61115 0,-47.41853 m 0,101.61013 0,-47.41828 m 0,54.19223 0,40.64434 m -5.31502,-20.32229 0,27.09658 m 0,-74.51455 0,40.64395 m 0,-94.8366 0,47.41857 m 0,-101.61039 0,47.41774 m 0,-101.60957 0,47.41776 m 0,-94.8371 0,40.64527 m 0,-74.51486 0,27.09631 m 95.66922,264.18689 0,27.09658 m 0,-74.51455 0,40.64395 m 0,-94.8366 0,47.41857 m 0,-101.61039 0,47.41774 m 0,-101.60957 0,47.41776 m 0,-94.8371 0,40.64527 m 0,-74.51486 0,27.09631 m -5.31503,20.32223 0,-40.64447 m 0,94.8371 0,-47.41855 m 0,101.61037 0,-47.41854 m 0,101.61115 0,-47.41853 m 0,101.61013 0,-47.41828 m 0,54.19223 0,40.64434 m -69.09409,-20.32229 0,27.09658 m 0,-74.51455 0,40.64395 m 0,-94.8366 0,47.41857 m 0,-101.61039 0,47.41774 m 0,-101.60957 0,47.41776 m 0,-94.8371 0,40.64527 m 0,-74.51486 0,27.09631 m -5.31503,20.32223 0,-40.64447 m 0,94.8371 0,-47.41855 m 0,101.61037 0,-47.41854 m 0,101.61115 0,-47.41853 m 0,101.61013 0,-47.41828 m 0,54.19223 0,40.64434 m -5.31502,-20.32229 0,27.09658 m 0,-74.51455 0,40.64395 m 0,-94.8366 0,47.41857 m 0,-101.61039 0,47.41774 m 0,-101.60957 0,47.41776 m 0,-94.8371 0,40.64527 m 0,-74.51486 0,27.09631 m 90.35419,20.32223 0,-40.64447 m 0,94.8371 0,-47.41855 m 0,101.61037 0,-47.41854 m 0,101.61115 0,-47.41853 m 0,101.61013 0,-47.41828 m 0,54.19223 0,40.64434 m -37.20518,-20.32229 0,27.09658 m 0,-74.51455 0,40.64395 m 0,-94.8366 0,47.41857 m 0,-101.61039 0,47.41774 m 0,-101.60957 0,47.41776 m 0,-94.8371 0,40.64527 m 0,-74.51486 0,27.09631 m -5.31503,20.32223 0,-40.64447 m 0,94.8371 0,-47.41855 m 0,101.61037 0,-47.41854 m 0,101.61115 0,-47.41853 m 0,101.61013 0,-47.41828 m 0,54.19223 0,40.64434 m 26.57513,-20.32229 0,27.09658 m 0,-74.51455 0,40.64395 m 0,-94.8366 0,47.41857 m 0,-101.61039 0,47.41774 m 0,-101.60957 0,47.41776 m 0,-94.8371 0,40.64527 m 0,-74.51486 0,27.09631 m -5.31502,20.32223 0,-40.64447 m 0,94.8371 0,-47.41855 m 0,101.61037 0,-47.41854 m 0,101.61115 0,-47.41853 m 0,101.61013 0,-47.41828 m 0,54.19223 0,40.64434 m -5.31503,-20.32229 0,27.09658 m 0,-74.51455 0,40.64395 m 0,-94.8366 0,47.41857 m 0,-101.61039 0,47.41774 m 0,-101.60957 0,47.41776 m 0,-94.8371 0,40.64527 m 0,-74.51486 0,27.09631 m -5.31502,20.32223 0,-40.64447 m 0,94.8371 0,-47.41855 m 0,101.61037 0,-47.41854 m 0,101.61115 0,-47.41853 m 0,101.61013 0,-47.41828 m 0,54.19223 0,40.64434 m -37.20519,-20.32229 0,27.09658 m 0,-74.51455 0,40.64395 m 0,-94.8366 0,47.41857 m 0,-101.61039 0,47.41774 m 0,-101.60957 0,47.41776 m 0,-94.8371 0,40.64527 m 0,-74.51486 0,27.09631 m -5.31377,20.32223 0,-40.64447 m 0,94.8371 0,-47.41855 m 0,101.61037 0,-47.41854 m 0,101.61115 0,-47.41853 m 0,101.61013 0,-47.41828 m 0,54.19223 0,40.64434 m 26.57388,-20.32229 0,27.09658 m 0,-74.51455 0,40.64395 m 0,-94.8366 0,47.41857 m 0,-101.61039 0,47.41774 m 0,-101.60957 0,47.41776 m 0,-94.8371 0,40.64527 m 0,-74.51486 0,27.09631 m -5.31503,20.32223 0,-40.64447 m 0,94.8371 0,-47.41855 m 0,101.61037 0,-47.41854 m 0,101.61115 0,-47.41853 m 0,101.61013 0,-47.41828 m 0,54.19223 0,40.64434 m -5.31503,-20.32229 0,27.09658 m 0,-74.51455 0,40.64395 m 0,-94.8366 0,47.41857 m 0,-101.61039 0,47.41774 m 0,-101.60957 0,47.41776 m 0,-94.8371 0,40.64527 m 0,-74.51486 0,27.09631 m -5.31502,20.32223 0,-40.64447 m 0,94.8371 0,-47.41855 m 0,101.61037 0,-47.41854 m 0,101.61115 0,-47.41853 m 0,101.61013 0,-47.41828 m 0,54.19223 0,40.64434"
       sodipodi:nodetypes="cccccccccccccccccccccccccccccccccccccccccccccccccccccccccccccccccccccccccccccccccccccccccccccccccccccccccccccccccccccccccccccccccccccccccccccccccccccccccccccccccccccccccccccccccccccccccccccccccccccccccccccccccccccccccccccccccccccccccccccccccccccccccccccccccccccccccccccccccccccccccccccc" />
    <path
       sodipodi:nodetypes="cccccccccccccccccccccccccccccccccccccccccccccccccccccccccccccccccccccccccccccccccccccccccccc"
       d="m 466.036,731.78176 0,-40.64447 m 0,94.8371 0,-47.41855 m 0,101.61037 0,-47.41854 m 0,101.61115 0,-47.41853 m 0,101.61013 0,-47.41828 m 0,54.19223 0,40.64434 m -5.31502,-20.32229 0,27.09658 m 0,-74.51455 0,40.64395 m 0,-94.8366 0,47.41857 m 0,-101.61039 0,47.41774 m 0,-101.60957 0,47.41776 m 0,-94.8371 0,40.64527 m 0,-74.51486 0,27.09631 m 21.2601,264.18689 0,27.09658 m 0,-74.51455 0,40.64395 m 0,-94.8366 0,47.41857 m 0,-101.61039 0,47.41774 m 0,-101.60957 0,47.41776 m 0,-94.8371 0,40.64527 m 0,-74.51486 0,27.09631 m -5.31503,20.32223 0,-40.64447 m 0,94.8371 0,-47.41855 m 0,101.61037 0,-47.41854 m 0,101.61115 0,-47.41853 m 0,101.61013 0,-47.41828 m 0,54.19223 0,40.64434 m -5.31502,-20.32229 0,27.09658 m 0,-74.51455 0,40.64395 m 0,-94.8366 0,47.41857 m 0,-101.61039 0,47.41774 m 0,-101.60957 0,47.41776 m 0,-94.8371 0,40.64527 m 0,-74.51486 0,27.09631 m 21.25885,264.18689 0,27.09658 m 0,-74.51455 0,40.64395 m 0,-94.8366 0,47.41857 m 0,-101.61039 0,47.41774 m 0,-101.60957 0,47.41776 m 0,-94.8371 0,40.64527 m 0,-74.51486 0,27.09631 m -5.31377,20.32223 0,-40.64447 m 0,94.8371 0,-47.41855 m 0,101.61037 0,-47.41854 m 0,101.61115 0,-47.41853 m 0,101.61013 0,-47.41828 m 0,54.19223 0,40.64434"
       style="fill:none;stroke:#ff0000;stroke-width:0.03543307;stroke-linecap:round;stroke-linejoin:round;stroke-miterlimit:4;stroke-opacity:1;stroke-dasharray:none"
       id="path3066"
       inkscape:connector-curvature="0" />
  </g>
</svg>
