<?xml version="1.0" encoding="UTF-8" standalone="no"?>
<svg
   xmlns:slic3r="http://slic3r.org/namespaces/slic3r"
   xmlns:dc="http://purl.org/dc/elements/1.1/"
   xmlns:cc="http://creativecommons.org/ns#"
   xmlns:rdf="http://www.w3.org/1999/02/22-rdf-syntax-ns#"
   xmlns:svg="http://www.w3.org/2000/svg"
   xmlns="http://www.w3.org/2000/svg"
   xmlns:sodipodi="http://sodipodi.sourceforge.net/DTD/sodipodi-0.dtd"
   xmlns:inkscape="http://www.inkscape.org/namespaces/inkscape"
   width="1771.6534"
   height="885.82672"
   id="svg3995"
   version="1.1"
   inkscape:version="0.48.4 r9939"
   sodipodi:docname="Coq_Frenchtech.svg">
  <sodipodi:namedview
     pagecolor="#ffffff"
     bordercolor="#666666"
     borderopacity="1"
     objecttolerance="10"
     gridtolerance="10"
     guidetolerance="10"
     inkscape:pageopacity="0"
     inkscape:pageshadow="2"
     inkscape:window-width="1366"
     inkscape:window-height="716"
     id="namedview4174"
     showgrid="false"
     inkscape:zoom="1.6539566"
     inkscape:cx="154.26278"
     inkscape:cy="724.74718"
     inkscape:window-x="0"
     inkscape:window-y="0"
     inkscape:window-maximized="1"
     inkscape:current-layer="svg3995"
     units="cm" />
  <metadata
     id="metadata4178">
    <rdf:RDF>
      <cc:Work
         rdf:about="">
        <dc:format>image/svg+xml</dc:format>
        <dc:type
           rdf:resource="http://purl.org/dc/dcmitype/StillImage" />
      </cc:Work>
    </rdf:RDF>
  </metadata>
  <defs
     id="defs4176" />
  <!-- 
  Generated using Slic3r 1.2.9
  http://slic3r.org/
   -->
  <polygon
     slic3r:type="contour"
     points="69.427357,14.796363 72.168644,16.161796 72.168644,27.876203 69.427357,29.241636 68.622042,29.91027 65.280795,28.447033 65.280795,15.590966 68.622042,14.127729 "
     style="fill:#ffffff;stroke:#ff0000;stroke-width:0.17716535;stroke-miterlimit:4;stroke-dasharray:none"
     id="polygon4172"
     transform="translate(6.6313131,161.75871)" />
  <polygon
     slic3r:type="contour"
     points="62.818656,19.326 62.818656,24.711999 62.179579,24.958327 62.063451,25.002625 53.140288,28.75 53.140288,15.288 62.063451,19.035375 62.179578,19.07967 "
     style="fill:#ffffff;stroke:#ff0000;stroke-width:0.17716535;stroke-miterlimit:4;stroke-dasharray:none"
     id="polygon4032"
     transform="translate(194.73253,215.67532)" />
  <polygon
     slic3r:type="contour"
     points="60.898526,18.189328 63.84752,19.326 63.84752,24.712 60.898526,25.84867 60.809668,25.882565 53.981799,28.749999 53.981799,15.288 60.809667,18.155434 "
     style="fill:#ffffff;stroke:#ff0000;stroke-width:0.17716535;stroke-miterlimit:4;stroke-dasharray:none"
     id="polygon4029"
     transform="translate(13.321111,131.67424)" />
  <polygon
     slic3r:type="contour"
     points="54.82331,15.288 59.555883,17.275492 59.617474,17.298986 64.876384,19.325999 64.876384,24.712 59.617474,26.739012 59.555884,26.762506 54.82331,28.75 "
     style="fill:#ffffff;stroke:#ff0000;stroke-width:0.17716535;stroke-miterlimit:4;stroke-dasharray:none"
     id="polygon4026"
     transform="translate(30.34846,50.302433)" />
  <polygon
     slic3r:type="contour"
     points="65.905248,24.712 58.336422,27.629354 58.3021,27.642446 55.664822,28.75 55.664822,15.288 58.3021,16.395552 58.336421,16.408643 65.905248,19.326 "
     style="fill:#ffffff;stroke:#ff0000;stroke-width:0.17716535;stroke-miterlimit:4;stroke-dasharray:none"
     id="polygon4023"
     transform="translate(132.4574,47.045994)" />
  <polygon
     slic3r:type="contour"
     points="57.055369,28.519697 57.048315,28.522388 56.506333,28.75 56.506333,15.288 57.048316,15.515611 57.055369,15.518301 66.934111,19.326 66.934111,24.712 "
     style="fill:#ffffff;stroke:#ff0000;stroke-width:0.17716535;stroke-miterlimit:4;stroke-dasharray:none"
     id="polygon4020"
     transform="translate(79.002268,36.247908)" />
  <polygon
     slic3r:type="contour"
     points="72.157684,15.170998 72.366032,15.168282 72.476671,15.235149 74.24895,16.314741 74.930331,16.730968 74.975417,16.758015 75.322492,16.970513 75.666833,17.180226 75.943827,17.348923 77.717148,18.240937 79.151934,18.518046 79.151934,13.942 79.451827,13.942 79.451827,19.102346 79.867989,19.215251 79.867989,24.822748 79.451827,24.935653 79.451827,30.096 79.151934,30.096 79.151934,25.519952 77.717147,25.797063 75.943826,26.689076 75.666834,26.857772 74.975416,27.279986 74.930331,27.307031 74.24895,27.723258 72.476672,28.802848 72.366032,28.869716 72.157684,28.867001 68.414547,28.812821 67.768843,28.803279 64.8579,28.761507 64.06869,28.75 64.063437,28.75 64.063437,15.288 64.06869,15.288 64.857901,15.276489 67.768842,15.23472 68.414547,15.225178 "
     style="fill:#ffffff;stroke:#ff0000;stroke-width:0.17716535;stroke-miterlimit:4;stroke-dasharray:none"
     id="polygon4138"
     transform="translate(69.165498,106.15928)" />
  <polygon
     slic3r:type="contour"
     points="60.429037,28.683236 60.240383,28.75 55.199483,27.625444 55.199483,16.412556 60.240383,15.288 60.429037,15.354763 67.642683,17.917675 72.584355,19.325999 72.584355,24.712 67.642683,26.120324 "
     style="fill:#ffffff;stroke:#ff0000;stroke-width:0.17716535;stroke-miterlimit:4;stroke-dasharray:none"
     id="polygon4017"
     transform="translate(44.544487,46.290231)" />
  <polygon
     slic3r:type="contour"
     points="68.949948,28.834388 64.33935,28.768227 63.089333,28.75 63.084493,28.75 63.084493,15.288 63.089332,15.288 64.33935,15.269771 68.949947,15.203611 69.97267,15.188496 73.059423,15.143818 73.316172,15.140471 73.452514,15.222873 74.918981,16.116178 75.751487,16.62472 75.806575,16.657767 76.092822,16.833024 76.376816,17.005984 76.714158,17.211433 78.873821,18.297786 80.613301,18.633742 80.613301,25.404257 78.873822,25.740214 76.714157,26.826566 76.376816,27.032016 75.806574,27.380234 75.751488,27.413277 74.918981,27.92182 73.452513,28.815126 73.316172,28.897526 73.059423,28.894182 69.972669,28.849502 "
     style="fill:#ffffff;stroke:#ff0000;stroke-width:0.17716535;stroke-miterlimit:4;stroke-dasharray:none"
     id="polygon4135"
     transform="translate(19.241454,117.00899)" />
  <polygon
     slic3r:type="contour"
     points="80.325478,17.35505 83.992905,18.350027 83.992905,25.687972 80.325478,26.682948 80.325478,28.125054 80.325477,30.096 77.68267,30.096 77.68267,25.637174 76.560472,25.853912 75.173497,26.551586 74.956849,26.683531 74.14426,27.179737 74.109174,27.200784 73.57892,27.524694 71.50083,28.790572 71.415892,28.841905 71.255945,28.839821 66.856425,28.776141 66.587737,28.772169 65.376449,28.754788 65.048048,28.75 65.042382,28.75 65.042382,15.288 65.048047,15.288 65.376449,15.28321 66.587737,15.265829 66.856425,15.261857 71.255944,15.198179 71.415893,15.196093 71.50083,15.247426 73.578919,16.513305 74.109174,16.837215 74.14426,16.858263 74.552161,17.108003 74.956849,17.354468 75.173496,17.486411 76.560473,18.184088 77.68267,18.400824 77.68267,13.942 80.325477,13.942 80.325478,15.912945 "
     style="fill:#ffffff;stroke:#ff0000;stroke-width:0.17716535;stroke-miterlimit:4;stroke-dasharray:none"
     id="polygon4141"
     transform="translate(82.892743,47.045994)" />
  <polygon
     slic3r:type="contour"
     points="82.081153,25.287308 80.030496,25.683365 77.484489,26.964054 77.086801,27.206258 76.637731,27.480482 76.572645,27.519524 75.58901,28.120385 74.428355,28.827402 74.266311,28.925338 73.961161,28.921361 71.530792,28.886184 70.131053,28.865495 63.820802,28.774948 62.109975,28.75 62.105548,28.75 62.105548,15.288 62.109976,15.288 63.820802,15.26305 70.131053,15.172503 71.530792,15.151816 73.961161,15.116639 74.266311,15.11266 74.428354,15.210595 75.589011,15.917615 76.572645,16.518474 76.637732,16.557519 76.863154,16.695536 77.0868,16.831741 77.484489,17.073944 80.030496,18.354634 82.081153,18.750691 "
     style="fill:#ffffff;stroke:#ff0000;stroke-width:0.17716535;stroke-miterlimit:4;stroke-dasharray:none"
     id="polygon4132"
     transform="translate(-0.75520588,117.0368)" />
  <polygon
     slic3r:type="contour"
     points="75.21645,28.953148 74.8629,28.948542 73.088913,28.922864 71.312158,28.896604 63.302252,28.781668 61.130617,28.75 61.126604,28.75 61.126604,15.288 61.130618,15.288 63.302251,15.256331 71.312158,15.141394 73.088913,15.115136 74.8629,15.089458 75.21645,15.084849 75.404196,15.198317 76.259042,15.719051 77.393801,16.412226 77.468889,16.457271 77.633484,16.558046 77.796783,16.657499 78.254818,16.936455 81.187172,18.411485 83.549004,18.867639 83.549004,25.17036 81.187172,25.626516 78.254818,27.101544 77.796784,27.3805 77.468889,27.580729 77.393801,27.625771 76.259042,28.318947 75.404196,28.839681 "
     style="fill:#ffffff;stroke:#ff0000;stroke-width:0.17716535;stroke-miterlimit:4;stroke-dasharray:none"
     id="polygon4129"
     transform="translate(-20.843741,45.470144)" />
  <polygon
     slic3r:type="contour"
     points="84.705239,29.738117 83.48068,28.994869 75.670342,25.957215 71.05709,28.255072 69.321851,29.695802 62.12235,26.542914 62.12235,17.495084 69.321851,14.342197 71.05709,15.782927 75.670342,18.080784 83.48068,15.043129 84.705239,14.299882 "
     style="fill:#ffffff;stroke:#ff0000;stroke-width:0.17716535;stroke-miterlimit:4;stroke-dasharray:none"
     id="polygon4169"
     transform="translate(42.821981,112.81169)" />
  <polygon
     slic3r:type="contour"
     points="88.117821,26.553196 81.199129,28.430243 81.199127,30.096 76.213405,30.096 76.213405,25.754395 75.403797,25.910761 74.403165,26.414097 74.246867,26.509287 73.313102,27.07949 73.288017,27.094538 72.908889,27.326131 70.524989,28.778293 70.465753,28.814094 70.354206,28.81264 66.026463,28.75 66.020586,28.75 66.020586,28.306069 65.175914,28.809546 65.17467,28.810078 65.174653,28.809679 65.174653,15.228319 65.17467,15.22792 65.175914,15.228453 66.020586,15.73193 66.020586,15.288 66.026463,15.288 70.354206,15.225359 70.465753,15.223904 70.524989,15.259705 72.90889,16.711869 73.288017,16.943462 73.313103,16.958511 73.78183,17.245492 74.246866,17.528711 74.403166,17.623902 75.403798,18.127239 76.213405,18.283603 76.213405,13.942 81.199127,13.942 81.199128,15.607755 88.117821,17.484805 "
     style="fill:#ffffff;stroke:#ff0000;stroke-width:0.17716535;stroke-miterlimit:4;stroke-dasharray:none"
     id="polygon4144"
     transform="translate(2.4806071,34.494333)" />
  <polygon
     slic3r:type="contour"
     points="59.209463,14.600846 59.209472,14.600642 59.21011,14.600915 65.503953,18.352438 67.186493,19.115239 67.920284,18.481958 68.670409,17.834818 71.313781,15.553612 72.121087,15.200068 74.662648,17.310268 74.662648,26.72773 72.121087,28.837931 71.31378,28.484386 68.67041,26.203183 67.920285,25.554334 67.186493,24.922759 65.503953,25.68556 59.21011,29.437084 59.209472,29.437357 59.209463,29.437152 "
     style="fill:#ffffff;stroke:#ff0000;stroke-width:0.17716535;stroke-miterlimit:4;stroke-dasharray:none"
     id="polygon4153"
     transform="translate(140.15319,35.48564)" />
  <polygon
     slic3r:type="contour"
     points="82.94385,13.942 82.94385,30.096 74.834943,30.096 74.834943,13.942 "
     style="fill:#ffffff;stroke:#ff0000;stroke-width:0.17716535;stroke-miterlimit:4;stroke-dasharray:none"
     id="polygon4155"
     transform="translate(49.285085,96.015473)" />
  <polygon
     slic3r:type="contour"
     points="60.15126,28.75 60.147659,28.75 60.147659,15.288 60.151261,15.288 62.783701,15.249611 72.493264,15.110284 74.647036,15.078455 75.764638,15.062279 76.16659,15.057038 76.380039,15.186041 76.929072,15.520487 78.214958,16.30598 78.300046,16.357023 78.403814,16.420556 78.506768,16.483258 79.025149,16.798964 82.343846,18.468334 85.016856,18.984588 85.016856,25.053411 82.343846,25.569666 79.025149,27.239034 78.506768,27.554743 78.300046,27.680977 78.214958,27.732018 76.929072,28.517511 76.380039,28.851957 76.16659,28.98096 75.764638,28.975722 74.647037,28.959546 72.493264,28.927714 62.783701,28.788387 "
     style="fill:#ffffff;stroke:#ff0000;stroke-width:0.17716535;stroke-miterlimit:4;stroke-dasharray:none"
     id="polygon4126"
     transform="translate(82.43729,16.472606)" />
  <polygon
     slic3r:type="contour"
     points="78.32571,24.712 68.344939,27.556416 65.426834,28.593179 64.983702,28.75 53.143025,26.108508 53.143025,17.929493 64.983701,15.288 65.426834,15.444821 68.344939,16.481584 78.32571,19.326 "
     style="fill:#ffffff;stroke:#ff0000;stroke-width:0.17716535;stroke-miterlimit:4;stroke-dasharray:none"
     id="polygon4014"
     transform="translate(67.87632,80.207373)" />
  <polygon
     slic3r:type="contour"
     points="57.221507,29.646263 57.221073,29.646449 57.221067,29.646309 57.221067,14.391689 57.221073,14.39155 57.221507,14.391736 61.517308,16.9523 65.619612,18.812131 66.157482,18.347934 66.707323,17.873581 68.644918,16.201456 71.421278,14.9856 75.946292,18.742617 76.705884,19.120969 77.99189,18.620806 80.605539,17.03445 80.605539,27.003548 77.99189,25.417192 76.705884,24.91703 75.946292,25.295381 71.421278,29.052399 68.644918,27.836543 66.707323,26.164418 66.157482,25.688812 65.619612,25.225868 61.517308,27.085698 "
     style="fill:#ffffff;stroke:#ff0000;stroke-width:0.17716535;stroke-miterlimit:4;stroke-dasharray:none"
     id="polygon4158"
     transform="translate(39.413806,81.103823)" />
  <polygon
     slic3r:type="contour"
     points="83.273462,13.942 83.273462,30.096 80.754335,30.096 80.754335,13.942 "
     style="fill:#ffffff;stroke:#ff0000;stroke-width:0.17716535;stroke-miterlimit:4;stroke-dasharray:none"
     id="polygon4160"
     transform="translate(15.470508,47.045994)" />
  <polygon
     slic3r:type="contour"
     points="72.826899,26.160803 71.650789,26.878993 71.645702,26.882046 71.56883,26.929003 68.573305,28.75374 68.565475,28.758473 68.550728,28.758279 67.978621,28.75 67.977844,28.75 67.977844,25.187119 61.19871,29.227904 61.197871,29.228264 61.19786,29.227994 61.19786,14.810004 61.197871,14.809735 61.19871,14.810095 67.977844,18.850879 67.977844,15.288 67.97862,15.288 68.550728,15.279719 68.565475,15.279526 68.573306,15.284259 71.56883,17.108997 71.645702,17.155954 71.650788,17.159006 72.24117,17.520472 72.826899,17.877195 72.862504,17.898879 73.090449,18.01354 73.274877,18.049159 73.274877,13.942 77.171788,13.942 77.171788,15.288 80.218219,15.288 80.218219,13.942 82.500865,13.942 87.414698,15.248014 87.414698,28.789985 82.500865,30.096 80.218219,30.096 80.218219,28.75 77.171788,28.75 77.171788,30.096 73.274877,30.096 73.274877,25.988839 73.090449,26.024458 72.862504,26.139119 "
     style="fill:#ffffff;stroke:#ff0000;stroke-width:0.17716535;stroke-miterlimit:4;stroke-dasharray:none"
     id="polygon4150"
     transform="translate(134.40572,141.27879)" />
  <polygon
     slic3r:type="contour"
     points="64.394677,25.823289 64.052731,25.528976 57.530665,28.485834 55.232905,29.855442 55.232673,29.855542 55.23267,29.855467 55.23267,14.182532 55.232673,14.182457 55.232905,14.182556 57.530665,15.552164 64.052731,18.509023 64.394677,18.213913 64.744238,17.912344 65.976055,16.849298 70.721469,14.771132 74.316558,17.756054 76.360704,18.774241 79.821486,17.428247 83.69852,15.075079 83.69852,28.96292 79.821486,26.609751 76.360704,25.263758 74.316558,26.281945 70.721469,29.266867 65.976054,27.1887 64.744238,26.125655 "
     style="fill:#ffffff;stroke:#ff0000;stroke-width:0.17716535;stroke-miterlimit:4;stroke-dasharray:none"
     id="polygon4163"
     transform="translate(139.24641,108.99615)" />
  <polygon
     slic3r:type="contour"
     points="74.247122,25.96761 73.632834,26.276608 73.536883,26.335045 72.481946,26.979242 72.46686,26.988291 72.238859,27.127568 69.549147,28.766016 69.515615,28.786283 69.452468,28.785461 67.002542,28.75 66.999215,28.75 66.999215,26.746594 63.187312,29.018725 63.186271,29.019171 63.186256,29.018835 63.186256,15.019163 63.186271,15.018828 63.187312,15.019273 66.999215,17.291405 66.999215,15.288 67.002542,15.288 69.452467,15.252539 69.515615,15.251715 69.549146,15.271981 72.23886,16.910433 72.466859,17.049707 72.481946,17.058759 73.0115,17.382981 73.536883,17.702954 73.632835,17.761391 74.247122,18.070389 74.744141,18.166381 74.744141,13.942 82.052911,13.942 92.09599,16.611283 92.09599,27.426718 82.052912,30.096 74.744141,30.096 74.744141,25.871617 "
     style="fill:#ffffff;stroke:#ff0000;stroke-width:0.17716535;stroke-miterlimit:4;stroke-dasharray:none"
     id="polygon4147"
     transform="translate(105.26789,28.629996)" />
  <polygon
     slic3r:type="contour"
     points="46.317848,14.028638 46.657401,14.021951 47.295629,14.022345 48.383214,14.023014 48.543194,14.023114 48.769662,13.885806 49.046598,13.886366 72.453934,7.991744 76.671823,7.316748 76.671823,36.721252 72.453933,36.046254 49.046598,30.151633 48.769662,30.152193 48.543194,30.014885 48.383214,30.014984 47.295629,30.015653 46.657401,30.016047 46.317848,30.009361 "
     style="fill:#ffffff;stroke:#ff0000;stroke-width:0.17716535;stroke-miterlimit:4;stroke-dasharray:none"
     id="polygon4035"
     transform="translate(153.0448,58.606349)" />
  <polygon
     slic3r:type="contour"
     points="53.244303,13.973377 53.544021,14.152027 62.485849,18.205916 62.631875,18.07989 62.781153,17.951107 63.307191,17.497141 70.021659,14.556665 72.686825,16.76949 76.015523,18.427512 81.651083,16.235688 84.201879,14.68748 84.201879,29.350519 81.651083,27.80231 76.015523,25.610487 72.686825,27.268509 70.021659,29.481334 63.307191,26.540857 62.781153,26.086891 62.631874,25.957767 62.485849,25.832083 53.544021,29.885971 53.244303,30.064621 53.244274,30.064634 53.244274,13.973365 "
     style="fill:#ffffff;stroke:#ff0000;stroke-width:0.17716535;stroke-miterlimit:4;stroke-dasharray:none"
     id="polygon4166"
     transform="translate(139.98892,92.113867)" />
  <polygon
     slic3r:type="contour"
     points="43.460292,14.150494 45.124612,14.15152 47.960727,14.153264 48.377905,14.153524 48.968472,13.795461 49.690641,13.796923 71.475472,8.310893 80.956949,6.793555 80.956949,37.244445 71.475472,35.727105 49.690641,30.241076 48.968472,30.242537 48.377905,29.884475 47.960727,29.884734 45.124612,29.886478 43.460292,29.887505 42.574833,29.870072 42.574833,14.167927 "
     style="fill:#ffffff;stroke:#ff0000;stroke-width:0.17716535;stroke-miterlimit:4;stroke-dasharray:none"
     id="polygon4038"
     transform="translate(104.6272,81.856739)" />
  <polygon
     slic3r:type="contour"
     points="49.167282,13.705118 50.334686,13.70748 70.497012,8.630041 85.242076,6.270362 85.242076,37.767639 70.497011,35.407957 50.334686,30.33052 49.167281,30.332881 48.212616,29.754066 47.538237,29.754485 42.953595,29.757302 40.263182,29.758964 38.831818,29.730783 38.831818,14.307216 40.263182,14.279035 42.953595,14.280696 47.538237,14.283513 48.212616,14.283933 "
     style="fill:#ffffff;stroke:#ff0000;stroke-width:0.17716535;stroke-miterlimit:4;stroke-dasharray:none"
     id="polygon4041"
     transform="translate(197.48609,14.259657)" />
  <polygon
     slic3r:type="contour"
     points="48.047327,14.414343 49.366091,13.614775 50.978729,13.618036 69.518551,8.94919 83.86028,6.654057 87.455167,7.241492 87.455197,7.978913 87.455197,15.608831 87.91014,15.895961 87.91014,28.142038 87.455197,28.429168 87.455197,36.059088 87.455167,36.796509 83.86028,37.383944 69.518551,35.088809 50.978729,30.419962 49.366091,30.423225 48.047328,29.623656 47.115749,29.624234 40.832507,29.628098 37.066072,29.630423 35.088803,29.591492 35.088803,14.446506 37.066072,14.407576 40.832507,14.4099 47.115749,14.413764 "
     style="fill:#ffffff;stroke:#ff0000;stroke-width:0.17716535;stroke-miterlimit:4;stroke-dasharray:none"
     id="polygon4044"
     transform="translate(77.752621,175.68891)" />
  <polygon
     slic3r:type="contour"
     points="49.76371,13.434086 52.266817,13.43915 67.561629,9.587489 79.393137,7.694071 91.258468,9.632964 91.258564,12.066906 91.258564,16.346941 92.760158,17.294644 92.760158,26.743355 91.258564,27.691059 91.258564,31.971095 91.258468,34.405037 79.393137,36.34393 67.561629,34.450511 52.266817,30.59885 49.76371,30.603912 47.71675,29.362837 46.27077,29.363736 36.440541,29.369779 30.671852,29.37334 27.602773,29.312914 27.602773,14.725084 30.671852,14.664659 36.440541,14.668219 46.27077,14.674262 47.71675,14.675162 "
     style="fill:#ffffff;stroke:#ff0000;stroke-width:0.17716535;stroke-miterlimit:4;stroke-dasharray:none"
     id="polygon4050"
     transform="translate(19.081266,184.975)" />
  <polygon
     slic3r:type="contour"
     points="49.564901,30.513568 47.882039,29.493247 46.693259,29.493986 38.561689,29.498984 33.868962,29.501881 31.345788,29.452204 31.345788,14.585795 33.868962,14.536118 38.561689,14.539014 46.693259,14.544012 47.882039,14.544751 49.564901,13.524431 51.622773,13.528593 68.54009,9.268339 81.62671,7.174065 89.356817,8.437228 89.35688,10.022909 89.35688,15.977886 90.335149,16.595303 90.335149,27.442696 89.35688,28.060113 89.35688,34.015092 89.356817,35.600774 81.62671,36.863938 68.540089,34.76966 51.622773,30.509406 "
     style="fill:#ffffff;stroke:#ff0000;stroke-width:0.17716535;stroke-miterlimit:4;stroke-dasharray:none"
     id="polygon4047"
     transform="translate(204.97212,153.01303)" />
  <polygon
     slic3r:type="contour"
     points="42.43,3.145494 42.339943,2.952523 42.326003,2.922897 42.259315,2.748808 42.256,2.740152 42.223181,2.637178 42.321107,2.637218 42.480416,2.636974 42.498274,2.63719 42.677717,2.637315 42.822769,2.636915 42.852657,2.636911 42.974455,2.636632 43.008119,2.636823 43.137448,2.636819 43.173214,2.636302 43.304385,2.636644 43.341877,2.636255 43.473316,2.636051 43.51024,2.636376 43.55241,2.636275 43.68359,2.636178 43.705134,2.636637 43.726937,2.636359 43.760511,2.636072 43.793593,2.636072 43.949658,2.636205 43.979274,2.636727 44.008082,2.636262 44.03148,2.636317 44.054403,2.636873 44.177156,2.637256 44.201497,2.637576 44.225331,2.637197 44.249204,2.637092 44.366232,2.637256 44.380974,2.63755 44.387615,2.637166 44.494185,2.636592 44.51693,2.636317 44.637755,2.636616 44.660582,2.63674 44.774053,2.636579 44.795233,2.636544 44.929186,2.636419 45.093921,2.635703 45.115974,2.635609 45.270155,2.636418 45.463254,2.637071 45.499158,2.636947 45.490771,2.668449 45.49,2.671389 45.430056,2.852529 45.424003,2.870821 45.363973,3.027241 45.352,3.058444 45.272384,3.222288 45.246004,3.276036 45.167973,3.40678 45.13,3.470401 45.052795,3.570467 45.002004,3.636306 44.909774,3.727886 44.829999,3.809538 44.740766,3.872585 44.642003,3.941249 44.5384,3.989649 44.398004,4.055248 44.238968,4.087215 44.090003,4.117158 43.930198,4.112774 43.660004,4.105362 43.530893,4.072112 43.328003,4.016975 43.207638,3.954501 43.053999,3.874769 42.942425,3.783897 42.836003,3.700335 42.736266,3.591721 42.668004,3.515552 42.584255,3.4002 42.544003,3.344754 42.456912,3.192533 "
     style="fill:#ffffff;stroke:#ff0000;stroke-width:0.17716535;stroke-miterlimit:4;stroke-dasharray:none"
     id="polygon4006"
     transform="translate(194.09473,188.24146)" />
  <polygon
     slic3r:type="contour"
     points="92.367721,4.984507 92.368283,4.984289 92.529087,4.983884 92.561421,4.984176 92.582209,4.984134 92.583511,4.984452 92.710008,4.984289 92.710008,2.636806 93.53536,2.636979 93.714512,2.636287 94.366008,2.636332 94.366008,4.984301 95.194751,4.984301 95.193122,3.823155 95.191462,2.636332 95.840516,2.636332 96.034956,2.637042 96.866008,2.636898 96.866008,4.983976 99.512748,4.983177 100.97,4.982967 100.97,37.528 33.656004,37.528 33.656004,4.982967 37.356412,4.983906 37.361903,4.984247 37.862004,4.984289 37.862004,2.636806 38.326213,2.636315 39.542,2.636397 39.542,4.984176 39.836798,4.983968 39.990438,4.984165 40.051071,4.984174 40.070346,4.983858 40.086371,4.984057 40.100738,4.984076 40.116489,4.984 40.142673,4.984117 40.171077,4.983853 40.212252,4.984071 40.303302,4.984055 40.46187,4.98371 40.658295,4.984088 40.756781,4.98399 40.830825,4.983842 40.893491,4.98388 40.985686,4.983479 41.065206,4.983503 41.149788,4.98377 41.240504,4.984302 41.338923,4.984606 41.480072,4.983874 41.631034,4.983913 41.788497,4.983949 41.99759,4.983695 42.252081,4.983724 42.551614,4.983754 42.879966,4.983122 43.237601,4.983449 44.91904,4.983376 44.919041,5.027249 45.012002,5.033631 45.018902,4.983629 45.266952,4.984161 45.26801,4.983923 45.542165,4.983877 45.543239,4.98405 45.772336,4.984321 45.772623,4.98441 46.005518,4.984959 46.183566,4.984337 46.185867,4.984219 46.357486,4.983619 46.519766,4.983852 46.638123,4.984073 46.749181,4.984031 46.855343,4.984697 46.9544,4.984398 47.047809,4.983679 47.162627,4.984464 47.289517,4.984352 47.598547,4.984044 47.803999,4.984333 48.303864,4.98396 48.308657,4.984289 48.762,4.984289 48.762,2.636806 49.593289,2.636979 49.773786,2.636287 50.430004,2.636902 50.430004,4.984171 51.834586,4.98418 52.112248,4.98418 52.186999,4.984029 52.794004,4.984289 52.794004,2.636806 53.618365,2.636979 53.797294,2.636287 54.448,2.636852 54.448,4.984469 54.527999,4.984538 54.538497,4.984405 54.546379,4.984273 54.550766,4.98441 54.556801,4.984138 54.564641,4.984346 54.609685,4.984304 54.612059,4.983337 54.61442,4.98399 54.621714,4.984318 54.785859,4.983043 54.907367,4.983117 55.017082,4.983623 55.125403,4.984076 55.267096,4.984388 55.279929,4.9848 55.356548,4.984259 55.368004,3.895112 55.356575,2.636953 55.488842,2.637031 56.970227,2.637335 56.972166,2.998374 56.974004,3.339852 56.973005,3.815614 56.972004,4.295058 56.968935,4.471508 56.959989,4.984113 57.114578,4.984614 57.253187,4.984709 57.45091,4.984133 57.450971,4.983913 57.544536,4.984502 57.545266,4.984216 57.568094,4.983844 57.57085,4.984121 57.59046,4.98467 57.60195,4.984428 57.614965,4.984407 57.627748,4.984273 57.64192,4.984656 57.657912,4.984284 57.671124,4.984594 57.756631,4.984458 57.764112,4.984312 57.775094,4.984408 57.882004,4.984288 57.882004,2.636806 58.713292,2.636979 58.893788,2.636287 59.556157,2.636902 59.557548,3.51641 59.559863,4.984171 61.36096,4.984171 61.367996,4.984152 61.806956,4.984258 61.956288,4.984087 61.957393,4.984408 62.064004,4.984289 62.064004,2.636806 63.056406,2.635983 63.5688,2.636011 64.62735,2.636221 64.54092,3.518365 64.397597,4.984185 65.420274,4.984185 65.419517,4.223395 65.417943,2.636221 66.172241,2.636221 66.754004,2.636898 66.754004,4.983976 66.898518,4.98401 67.153431,4.984323 67.5073,4.984055 67.505484,4.688293 67.492883,2.635637 68.18133,2.635878 68.981274,2.636374 69.144008,2.636476 69.144008,3.738385 69.142434,4.065866 69.14,4.573522 69.14131,4.67681 69.145211,4.984039 69.210573,4.983697 69.286431,4.984615 69.41288,4.984411 69.68683,4.984531 69.841816,4.984753 69.869142,4.98452 69.933503,4.984721 70.01208,4.982916 70.002,3.339851 70.002,2.637438 71.099304,2.636627 71.484963,2.636627 71.485462,2.957041 71.486008,3.306464 71.479421,4.129816 71.472536,4.9849 71.713118,4.984578 71.873713,4.984507 71.874275,4.984289 72.035078,4.983884 72.038276,4.984177 72.071029,4.984399 72.218,4.984289 72.218,2.636806 73.042361,2.636979 73.221292,2.636287 73.872,2.636332 73.872,4.984301 74.701493,4.984301 74.700097,3.823154 74.698674,2.636332 75.347728,2.636332 75.540949,2.637042 76.372,2.636898 76.372,4.983976 79.120767,4.982885 79.641208,4.984764 79.884717,4.984764 80.392008,4.983626 80.392008,2.63679 80.670298,2.63679 82.060008,2.636042 82.060008,4.982885 83.087738,4.982885 83.545266,4.984303 83.545965,4.98396 83.54877,4.984289 83.814,4.984289 83.814,2.636806 84.645288,2.636979 84.825789,2.636287 85.488157,2.636902 85.489547,3.51641 85.491859,4.984171 87.290963,4.984171 87.297999,4.984152 87.998589,4.984487 87.988905,3.536551 87.982888,2.636793 88.16873,2.636716 89.480741,2.636237 89.638,2.636272 89.638,3.671824 89.635521,4.01709 89.631999,4.504789 89.632914,4.626651 89.635582,4.985005 90.151987,4.984378 90.203084,4.983997 90.355901,4.983771 90.42361,4.983276 90.438113,4.983261 90.499305,4.984645 90.496,3.304503 90.496,2.636627 91.677509,2.636695 91.979186,2.636695 91.979674,2.92827 91.98,3.12233 91.978377,4.035066 91.976695,4.983943 92.224082,4.984797 "
     style="fill:#ffffff;stroke:#ff0000;stroke-width:0.17716535;stroke-miterlimit:4;stroke-dasharray:none"
     id="polygon4008"
     transform="translate(4.7378261,9.9082326)" />
  <polygon
     slic3r:type="contour"
     points="39.542,1.411089 39.542,3.78731 40.50781,3.786627 41.011164,3.787275 41.209809,3.787304 41.27296,3.786269 41.325455,3.786923 41.372523,3.786981 41.424129,3.786733 41.509908,3.787115 41.602969,3.786251 41.737864,3.786966 41.999191,3.78692 43.265538,3.78692 43.268241,3.7868 43.290668,3.785858 43.322031,3.786599 43.515454,3.786411 43.616108,3.78687 43.875894,3.787027 44.074638,3.787562 44.014004,3.650528 43.995859,3.617845 43.760003,3.194499 43.508129,2.823251 43.140003,2.281384 42.584962,1.41244 43.285734,1.411422 43.311468,1.411748 43.340922,1.411953 43.3742,1.412011 43.419722,1.411679 43.491893,1.412109 43.798655,1.411982 44.112077,1.411371 44.129014,1.411015 44.143635,1.411306 44.157382,1.412251 44.217076,1.412408 44.23671,1.412497 44.246925,1.412425 44.252099,1.412382 44.452412,1.412544 45.230283,1.412237 45.764004,1.412722 45.764004,3.787749 47.245001,3.786645 47.247796,3.786836 48.762,3.786836 48.762,1.412244 50.100251,1.412521 50.439558,1.412521 50.439966,1.821301 50.441926,3.787617 51.96514,3.787617 52.094669,3.78738 52.440058,3.786685 52.794004,3.786836 52.794004,1.412244 54.121103,1.412521 54.457561,1.412521 54.457969,1.821301 54.45993,3.787617 54.714732,3.788012 54.954819,3.787161 55.020197,3.752457 55.076002,3.702588 55.115999,3.65542 55.118039,3.652193 55.152003,3.598485 55.154936,3.593446 55.188004,3.536639 55.191506,3.527826 55.219999,3.457842 55.223151,3.448979 55.242003,3.394297 55.243685,3.388344 55.252004,3.360566 55.256927,3.338979 55.278003,3.246585 55.283307,3.216258 55.300004,3.120809 55.305374,3.079744 55.317999,2.983222 55.324662,2.909403 55.336004,2.783756 55.344877,2.617599 55.354004,2.447593 55.355164,1.411485 56.301331,1.411395 56.967371,1.412397 56.960306,1.803921 56.958004,1.931613 56.94213,2.218709 56.934,2.366939 56.920167,2.524955 56.908004,2.663929 56.895042,2.763363 56.878004,2.892841 56.868124,2.951434 56.850003,3.058911 56.835968,3.122902 56.800004,3.2853 56.78832,3.325055 56.74,3.491239 56.732555,3.511933 56.676003,3.671877 56.67276,3.679366 56.625646,3.784743 56.735414,3.787454 56.74121,3.787359 56.745868,3.787406 56.749342,3.787356 56.749853,3.78739 56.766574,3.787494 56.842567,3.786258 56.84272,3.786274 56.908221,3.788107 56.946597,3.787299 56.990074,3.787229 57.032766,3.786783 57.080105,3.78806 57.133517,3.786819 57.177645,3.787853 57.463248,3.787399 57.488232,3.78691 57.524917,3.787235 57.882004,3.786835 57.882004,1.412244 59.220255,1.412521 59.558943,1.41205 59.559556,1.903101 59.56191,3.787621 61.219613,3.787621 61.707329,3.787063 61.707914,3.787232 62.064004,3.786836 62.064004,1.412244 62.867336,1.411578 63.402372,1.411578 63.403107,2.255073 63.404449,3.78622 63.81223,3.78622 63.883603,3.067811 64.048434,1.411578 65.386482,1.410818 65.487104,1.410818 66.754004,1.412293 66.754004,3.786653 67.227459,3.786768 67.488008,3.787087 67.488008,1.411182 67.716507,1.411323 67.716507,1.411324 69.144008,1.412212 69.144008,3.787287 69.262053,3.787097 69.566347,3.787231 69.666187,3.787253 70.001999,3.786732 71.482,3.786732 71.616923,3.786391 71.617703,3.786463 71.727104,3.787202 72.218,3.786836 72.218,1.412244 73.545099,1.412521 73.881557,1.412521 73.881965,1.821301 73.883926,3.787617 74.706,3.787617 74.706,1.412521 75.044899,1.412521 76.372,1.412293 76.372,3.786653 77.97481,3.786016 78.27828,3.787113 80.096205,3.787113 80.392008,3.78645 80.392008,1.412236 81.326647,1.412236 82.060008,1.411841 82.060008,3.786017 82.65928,3.786017 82.926065,3.786845 82.926472,3.786645 82.928107,3.786836 83.814,3.786836 83.814,1.412244 85.152251,1.412521 85.490941,1.41205 85.491553,1.903101 85.493906,3.787621 87.149624,3.787621 87.157741,3.787613 87.982008,3.786373 87.982008,1.411755 88.177496,1.411683 89.638,1.412008 89.638,3.787123 89.86495,3.786848 89.887511,3.78668 90.06359,3.786419 90.16226,3.78709 90.495999,3.786732 91.976008,3.786732 92.110931,3.786391 92.218003,3.787359 92.286833,3.787218 92.287494,3.787379 92.710008,3.786836 92.710008,1.412244 94.038701,1.412521 94.375565,1.412521 94.375973,1.821301 94.377934,3.787617 95.200008,3.787617 95.200008,1.412521 95.538907,1.412521 96.866008,1.412293 96.866008,3.786653 98.409326,3.786187 100.97,3.785819 100.97,37.528 33.656004,37.528 33.656004,3.785819 36.187862,3.786461 36.191619,3.786695 37.862004,3.786836 37.862004,1.412244 38.989369,1.411052 "
     style="fill:#ffffff;stroke:#ff0000;stroke-width:0.17716535;stroke-miterlimit:4;stroke-dasharray:none"
     id="polygon4001"
     transform="translate(-11.01073,78.641715)" />
  <polygon
     slic3r:type="hole"
     points="65.259169,3.532938 65.234295,3.787338 65.411786,3.787338 65.41096,2.956709 65.316077,2.952119 "
     style="fill:#ffffff;stroke:#ff0000;stroke-width:0.17716535;stroke-miterlimit:4;stroke-dasharray:none"
     id="polygon4003"
     transform="translate(6.7277861,75.265095)" />
  <polygon
     slic3r:type="contour"
     points="72.087803,2.190187 72.147903,2.190285 72.218,2.190232 72.218,1.631751 73.871999,1.631751 73.872464,2.098419 73.872557,2.190269 74.706,2.190269 74.706,1.631751 76.372,1.631751 76.372,2.190224 76.446867,2.190193 76.461044,2.190245 80.392008,2.190245 80.392008,1.631751 82.060008,1.631751 82.060008,2.190232 83.814,2.190232 83.814,1.631751 87.36,1.631751 87.36,2.190399 87.462276,2.190267 87.487929,2.190242 87.505821,2.190485 87.557577,2.190294 87.639534,2.190268 87.77425,2.190741 88.001351,2.190863 88.426198,2.189723 88.689307,2.189912 88.794007,2.030785 88.807424,2.015019 88.978007,1.814558 89.04727,1.75568 89.274,1.562943 89.361108,1.517936 89.586008,1.403079 89.694387,1.380572 89.908008,1.33621 90.022093,1.343819 90.232008,1.357833 90.337284,1.393987 90.549999,1.467024 90.634667,1.521273 90.854,1.660244 90.909959,1.716404 91.137999,1.940875 91.154501,1.96311 91.320374,2.189619 91.861571,2.190125 92.164787,2.190598 92.340039,2.190247 92.445648,2.190641 92.513511,2.190498 92.537381,2.190219 92.556972,2.190563 92.58029,2.190399 92.710008,2.190231 92.710008,1.631751 94.366007,1.631751 94.366472,2.098419 94.366565,2.190269 95.200008,2.190269 95.200008,1.631751 96.866008,1.631751 96.866008,2.190224 96.938097,2.190201 100.97,2.189622 100.97,37.528 33.656004,37.528 33.656004,2.189622 34.629794,2.189868 34.63124,2.189959 37.862004,2.190232 37.862004,1.631751 41.272004,1.631751 41.272004,2.190767 41.44653,2.190728 41.481587,2.19027 41.51301,2.190399 41.575629,2.190749 41.666154,2.190614 41.800122,2.190944 42.004789,2.189692 42.128865,2.190466 42.164,2.09468 42.166918,2.088266 42.232004,1.945264 42.240195,1.931177 42.308003,1.814558 42.321795,1.795838 42.392004,1.700548 42.417739,1.674615 42.512,1.575991 42.546582,1.55016 42.642003,1.480297 42.697151,1.454126 42.822003,1.39817 42.928872,1.376543 43.137999,1.331059 43.213322,1.327551 43.348004,1.324407 43.417386,1.33038 43.542004,1.337949 43.607282,1.355323 43.730003,1.387985 43.76899,1.408727 43.850004,1.45522 43.87324,1.473674 43.928,1.517179 43.943261,1.534611 43.984,1.57748 43.9935,1.590488 44.022004,1.631751 44.031443,1.649418 44.064003,1.711958 44.069059,1.723444 44.090003,1.769358 44.096394,1.786546 44.128004,1.871572 44.132066,1.885427 44.160003,1.980667 44.163284,1.994132 44.2,2.144798 44.207698,2.190381 44.494004,2.190229 44.494004,1.631751 45.764004,1.631751 45.764004,2.190275 45.833181,2.190223 45.833313,2.190232 48.762,2.190232 48.762,1.631751 50.430003,1.631751 50.430468,2.098419 50.43056,2.190269 52.794004,2.190269 52.794004,1.631751 54.447999,1.631751 54.448464,2.098419 54.448556,2.190267 54.505445,2.190323 54.537521,2.19028 54.59705,2.190464 54.800211,2.190104 55.069505,2.191393 55.487437,2.191998 55.546,1.827095 55.554042,1.787814 55.593999,1.597853 57.174004,1.597853 57.16265,1.703352 57.118004,2.11629 57.117111,2.127421 57.112049,2.190304 57.191348,2.191002 57.882004,2.190232 57.882004,1.631751 61.428,1.631751 61.428,2.190399 61.913814,2.190399 62.064004,2.190232 62.064004,1.631751 63.394004,1.631751 63.394428,2.118681 63.394491,2.190204 64.944518,2.190204 64.999999,1.631751 66.754004,1.631751 66.754004,2.190224 66.824737,2.190241 66.877174,2.190533 66.905963,2.190161 66.9261,2.190225 66.982228,2.190188 67.070114,2.190532 67.208793,2.190908 67.441153,2.190628 67.861405,2.1904 68.188428,2.190783 68.273999,2.054655 68.285125,2.040737 68.451999,1.837876 68.499036,1.795651 68.738007,1.581131 68.820776,1.535867 69.042008,1.411568 69.146769,1.382892 69.354,1.326168 69.467553,1.326168 69.670007,1.329309 69.777567,1.360501 69.981999,1.416459 70.07267,1.468339 70.284007,1.591447 70.34786,1.649126 70.567999,1.843772 70.591288,1.872325 70.744,2.064189 70.751647,2.076163 70.825004,2.189999 71.146535,2.1904 71.549758,2.191088 71.7727,2.190228 71.907893,2.190532 71.992221,2.190507 72.015483,2.190198 72.035469,2.190492 72.06333,2.190563 "
     style="fill:#ffffff;stroke:#ff0000;stroke-width:0.17716535;stroke-miterlimit:4;stroke-dasharray:none"
     id="polygon3998"
     transform="translate(246.66191,192.03431)" />
  <polygon
     slic3r:type="contour"
     points="66.583167,9.906638 77.159567,8.214078 93.160118,10.8287 93.160248,14.110902 93.160248,16.715996 95.185166,17.993985 95.185166,26.044013 93.160248,27.322003 93.160248,29.927098 93.160118,33.209301 77.159566,35.823924 66.583168,34.131362 52.91086,30.688293 49.96252,30.694256 47.551461,29.232428 45.848282,29.233485 34.269523,29.240605 27.474743,29.244798 23.859758,29.173625 23.859758,14.864374 27.474743,14.793201 34.269523,14.797393 45.848282,14.804513 47.551462,14.805571 49.962519,13.343743 52.91086,13.349707 "
     style="fill:#ffffff;stroke:#ff0000;stroke-width:0.17716535;stroke-miterlimit:4;stroke-dasharray:none"
     id="polygon4053"
     transform="translate(212.45815,44.813318)" />
  <polygon
     slic3r:type="contour"
     points="25.65404,15.395277 25.654051,15.308778 25.978107,15.288 43.788032,15.288 46.203276,15.933886 47.092737,16.171297 47.246625,15.553239 47.246625,15.111173 50.757758,12.982369 55.487036,12.991934 62.669323,11.183234 68.22528,10.294104 97.836877,15.132884 97.836703,15.182691 97.836888,15.239168 97.83767,15.262738 97.841486,19.252725 97.84001,19.295761 97.997331,19.326 97.997331,24.712 97.84001,24.742237 97.841486,24.785273 97.83767,28.775262 97.836888,28.798829 97.836703,28.855306 97.836877,28.905116 68.22528,33.743898 62.669324,32.854767 55.487035,31.046066 50.757758,31.055631 47.246625,28.926826 47.246625,28.484759 47.092737,27.866705 46.203276,28.104115 43.788032,28.75 25.978108,28.75 25.654051,28.729221 25.65404,28.642722 "
     style="fill:#ffffff;stroke:#ff0000;stroke-width:0.17716535;stroke-miterlimit:4;stroke-dasharray:none"
     id="polygon4065"
     transform="translate(210.66387,125.44309)" />
  <polygon
     slic3r:type="contour"
     points="88.913119,29.244378 88.913939,29.478207 65.991709,33.223891 61.690863,32.535618 56.131079,31.135509 50.956567,31.145975 48.266432,29.514942 48.266432,27.602585 48.148527,27.12905 44.2942,28.157825 42.079804,28.75 25.750911,28.75 23.822626,28.62636 23.822557,28.111652 23.822557,15.926346 23.822626,15.41164 25.750911,15.288 42.079803,15.288 44.294201,15.880177 48.148527,16.908951 48.266432,16.435413 48.266432,14.523057 50.956567,12.892026 56.13108,12.902491 61.690863,11.502382 65.991708,10.81411 88.913938,14.559792 88.913119,14.793623 88.913989,15.058762 88.917662,15.169404 88.917955,15.476412 96.223258,19.150489 96.559654,19.215458 97.134756,19.326 97.134756,24.712 96.559654,24.82254 96.223258,24.88751 88.917955,28.561588 88.917662,28.868596 88.913989,28.979239 "
     style="fill:#ffffff;stroke:#ff0000;stroke-width:0.17716535;stroke-miterlimit:4;stroke-dasharray:none"
     id="polygon4068"
     transform="translate(35.628904,236.99483)" />
  <polygon
     slic3r:type="contour"
     points="79.990309,29.854017 79.991001,30.051299 63.758137,32.703884 60.712401,32.216469 56.775123,31.224952 51.155377,31.236319 49.286239,30.103058 49.286239,26.720412 49.204317,26.391395 42.385126,28.211534 40.371574,28.75 25.523716,28.75 21.991201,28.523498 21.991074,27.58058 21.991074,16.457418 21.991201,15.514501 25.523716,15.288 40.371575,15.288 42.385125,15.826465 49.204316,17.646606 49.286239,17.317585 49.286239,13.934942 51.155377,12.801682 56.775123,12.813048 60.712402,11.821531 63.758137,11.334117 79.991001,13.9867 79.990309,14.183985 79.989237,14.259335 79.989237,14.846954 85.485422,14.768087 85.683771,14.765156 85.718556,14.7647 86.618125,14.75112 86.639628,14.764117 87.111887,15.050998 87.250026,15.135378 87.259007,15.140767 87.444606,15.254295 87.500609,15.288402 87.893523,15.48604 95.066653,19.093643 95.760413,19.227632 96.272181,19.326 96.272181,24.712 95.760412,24.810367 95.066653,24.944356 87.893524,28.55196 87.500609,28.749599 87.444607,28.783705 87.259006,28.897234 87.250025,28.902622 87.111887,28.987002 86.639628,29.273884 86.618125,29.286881 85.718555,29.273297 85.683771,29.272843 85.485422,29.269911 79.989237,29.191044 79.989237,29.778662 "
     style="fill:#ffffff;stroke:#ff0000;stroke-width:0.17716535;stroke-miterlimit:4;stroke-dasharray:none"
     id="polygon4071"
     transform="translate(131.77967,224.06869)" />
  <polygon
     slic3r:type="contour"
     points="50.260107,18.384261 50.306046,18.199759 50.306046,13.346827 51.354186,12.711338 57.419168,12.723605 59.73394,12.14068 61.524566,11.854123 71.068062,13.413609 71.067655,13.529595 71.067026,13.573894 71.067026,14.989142 84.304316,14.799196 84.782033,14.792135 84.865806,14.791042 85.667985,14.778931 85.715355,14.80756 86.136307,15.063275 86.428616,15.241827 86.447621,15.253229 86.613253,15.354544 86.730083,15.425696 87.549768,15.838004 93.910048,19.036797 94.96117,19.239805 95.409607,19.326 95.409607,24.712 94.961169,24.798194 93.910048,25.001202 87.549768,28.199997 86.730084,28.612304 86.613252,28.683458 86.447621,28.784771 86.428617,28.796171 86.136307,28.974725 85.715355,29.23044 85.667985,29.25907 84.865806,29.246956 84.782032,29.245864 84.304317,29.238803 71.067026,29.048856 71.067026,30.464104 71.067655,30.508405 71.068062,30.624391 61.524566,32.183878 59.73394,31.89732 57.419168,31.314396 51.354186,31.326663 50.306046,30.691174 50.306046,25.83824 50.260106,25.653739 40.476049,28.265246 38.663345,28.75 25.29652,28.75 20.159776,28.420636 20.159591,27.04951 20.159591,16.988489 20.159776,15.617362 25.296519,15.288 38.663344,15.288 40.47605,15.772756 "
     style="fill:#ffffff;stroke:#ff0000;stroke-width:0.17716535;stroke-miterlimit:4;stroke-dasharray:none"
     id="polygon4074"
     transform="translate(133.61115,202.21883)" />
  <polygon
     slic3r:type="contour"
     points="38.566973,15.719044 51.325853,19.124572 51.325853,12.758711 51.552996,12.620995 58.06321,12.634162 58.75548,12.459828 59.290993,12.37413 62.145124,12.840518 62.145002,12.875206 62.144814,12.888453 62.144814,15.131331 83.123212,14.830304 83.880293,14.819115 84.013059,14.817381 84.717845,14.806742 84.791081,14.851004 85.160728,15.075552 85.607208,15.348277 85.636238,15.365693 85.781897,15.454791 85.959558,15.562991 87.206012,16.189967 92.753443,18.979952 94.161927,19.251977 94.547032,19.326 94.547032,24.712 94.161927,24.786021 92.753443,25.058048 87.206013,27.848033 85.959557,28.47501 85.781897,28.58321 85.636238,28.672307 85.607208,28.689723 85.160728,28.962447 84.79108,29.186998 84.717846,29.231259 84.013059,29.220617 83.880292,29.218883 83.123212,29.207694 62.144814,28.906667 62.144814,31.149546 62.145002,31.162794 62.145124,31.197482 59.290994,31.663871 58.75548,31.578172 58.06321,31.403839 51.552996,31.417006 51.325853,31.279289 51.325853,24.913426 38.566974,28.318955 36.955116,28.75 25.069323,28.75 18.328351,28.317774 18.328109,26.518439 18.328109,17.51956 18.328351,15.720225 25.069323,15.288 36.955116,15.288 "
     style="fill:#ffffff;stroke:#ff0000;stroke-width:0.17716535;stroke-miterlimit:4;stroke-dasharray:none"
     id="polygon4077"
     transform="translate(89.732526,149.67899)" />
  <polygon
     slic3r:type="contour"
     points="20.116743,15.003662 24.277633,14.921742 32.098506,14.926569 45.425793,14.934762 47.386172,14.935981 50.161329,13.2534 53.554905,13.260263 65.604706,10.225787 74.925995,8.734084 95.061768,12.024436 95.061931,16.154899 95.061931,17.08505 97.610175,18.693328 97.610175,25.344671 95.061931,26.95295 95.061931,27.883101 95.061768,32.013564 74.925995,35.303918 65.604706,33.812213 53.554905,30.777736 50.161328,30.784599 47.386173,29.102018 45.425793,29.103236 32.098506,29.111429 24.277633,29.116256 20.116743,29.034336 "
     style="fill:#ffffff;stroke:#ff0000;stroke-width:0.17716535;stroke-miterlimit:4;stroke-dasharray:none"
     id="polygon4056"
     transform="translate(212.28712,72.903258)" />
  <polygon
     slic3r:type="contour"
     points="23.289281,28.75 23.251758,28.75 3.676949,27.494879 3.676937,27.400778 3.345736,27.457394 3.345736,16.580606 3.676937,16.637222 3.676949,16.54312 23.251758,15.288 23.289281,15.288 23.294369,15.289359 23.338737,15.301203 23.338737,28.736796 23.29437,28.748638 "
     style="fill:#ffffff;stroke:#ff0000;stroke-width:0.17716535;stroke-miterlimit:4;stroke-dasharray:none"
     id="polygon4121"
     transform="translate(111.16986,31.165664)" />
  <polygon
     slic3r:type="contour"
     points="79.036116,27.838263 77.599101,28.716075 77.35588,28.864234 77.116728,29.008771 76.666377,29.002902 76.205158,28.996226 73.67437,28.958823 62.265153,28.795108 59.171902,28.75 59.168715,28.75 59.168715,15.288 59.171903,15.288 62.265153,15.24289 73.674369,15.079176 76.205159,15.041774 76.666377,15.035099 77.116729,15.029227 77.35588,15.173764 77.599101,15.321923 79.036115,16.199733 79.131203,16.256776 79.174146,16.283068 79.216751,16.309016 79.795481,16.661476 83.500521,18.525183 86.484707,19.101537 86.484707,24.936461 83.500521,25.512818 79.79548,27.376523 79.216751,27.728985 79.131202,27.781226 "
     style="fill:#ffffff;stroke:#ff0000;stroke-width:0.17716535;stroke-miterlimit:4;stroke-dasharray:none"
     id="polygon4123"
     transform="translate(-0.77588388,102.14059)" />
  <polygon
     slic3r:type="contour"
     points="96.963418,13.220171 96.963563,16.880513 96.963154,17.917547 96.963221,17.948354 99.693614,19.320596 99.721687,19.326 99.721687,24.712 99.693613,24.717403 96.963221,26.089646 96.963154,26.120453 96.963563,27.157487 96.963418,30.817828 72.692422,34.783911 64.626245,33.493063 54.198949,30.867179 50.360139,30.874944 47.220884,28.971609 45.003303,28.972987 29.927488,28.982255 21.080524,28.987716 16.373728,28.895046 16.373728,15.142953 21.080524,15.050283 29.927488,15.055743 45.003303,15.065011 47.220884,15.06639 50.360139,13.163057 54.198949,13.170821 64.626245,10.544936 72.692423,9.254091 "
     style="fill:#ffffff;stroke:#ff0000;stroke-width:0.17716535;stroke-miterlimit:4;stroke-dasharray:none"
     id="polygon4059"
     transform="translate(219.94418,99.953185)" />
  <polygon
     slic3r:type="contour"
     points="23.478953,15.288 24.997511,15.288 25.203445,15.343071 26.998978,15.822324 26.998978,28.215675 25.203445,28.694927 24.99751,28.75 23.478953,28.75 5.508374,27.597742 5.508274,26.853172 2.887709,27.301139 2.887709,16.736861 5.508274,17.184828 5.508374,16.440258 "
     style="fill:#ffffff;stroke:#ff0000;stroke-width:0.17716535;stroke-miterlimit:4;stroke-dasharray:none"
     id="polygon4116"
     transform="translate(147.14578,120.12666)" />
  <polygon
     slic3r:type="contour"
     points="83.295066,17.896854 84.657196,18.582032 87.952559,19.218485 87.952559,24.819514 84.657196,25.455969 83.295065,26.141146 80.565877,27.513946 79.962417,27.881474 79.956546,27.885066 79.85735,27.944572 78.331667,28.876512 78.321167,28.88289 78.066868,29.036582 78.043818,29.036232 77.568117,29.030024 74.855474,28.989931 61.746603,28.801828 58.192545,28.75 58.18977,28.75 58.18977,15.288 58.192546,15.288 61.746602,15.236171 74.855475,15.048066 77.568116,15.007978 78.043818,15.001765 78.066868,15.001417 78.321167,15.155108 78.331667,15.161486 79.857349,16.093424 79.956547,16.152936 79.962417,16.156527 80.565876,16.524051 "
     style="fill:#ffffff;stroke:#ff0000;stroke-width:0.17716535;stroke-miterlimit:4;stroke-dasharray:none"
     id="polygon4118"
     transform="translate(40.574866,65.458691)" />
  <polygon
     slic3r:type="contour"
     points="47.055595,15.1968 50.558948,13.072713 54.842993,13.081378 63.647785,10.864085 70.458852,9.774097 98.865068,14.415908 98.865129,15.95963 98.863806,19.314956 98.863806,24.723042 98.865129,28.078369 98.865068,29.622092 70.458852,34.263904 63.647785,33.173916 54.842992,30.956623 50.558948,30.965287 47.055595,28.841198 44.580816,28.842736 27.756471,28.85308 17.883414,28.859174 12.630713,28.755757 12.630713,15.282242 17.883414,15.178825 27.756471,15.184918 44.580816,15.195262 "
     style="fill:#ffffff;stroke:#ff0000;stroke-width:0.17716535;stroke-miterlimit:4;stroke-dasharray:none"
     id="polygon4062"
     transform="translate(40.244272,212.54494)" />
  <polygon
     slic3r:type="contour"
     points="2.429681,27.144882 2.429681,16.893117 7.339612,17.732433 7.3398,16.337396 23.706148,15.288 26.705739,15.288 27.11252,15.39678 30.65922,16.343446 30.65922,27.694553 27.11252,28.641218 26.70574,28.75 23.706148,28.75 7.3398,27.700604 7.339612,26.305567 "
     style="fill:#ffffff;stroke:#ff0000;stroke-width:0.17716535;stroke-miterlimit:4;stroke-dasharray:none"
     id="polygon4111"
     transform="translate(192.16754,171.54899)" />
  <polygon
     slic3r:type="contour"
     points="79.24544,15.111664 79.307248,15.149211 80.678758,15.986974 80.767931,16.040473 80.793771,16.056279 81.336402,16.386756 85.143483,18.301747 85.813813,18.638878 89.366473,19.325016 89.371583,19.326 89.371583,24.712 89.366473,24.712982 85.813812,25.399123 85.143483,25.736253 81.336403,27.651242 80.793771,27.981722 80.76793,27.997529 80.678759,28.051022 79.307247,28.888789 79.24544,28.926335 79.017008,29.064393 78.896567,29.062574 78.469855,29.057003 76.03658,29.021041 61.228053,28.808547 57.213189,28.75 57.210825,28.75 57.210825,15.288 57.213188,15.288 61.228053,15.22945 76.03658,15.016957 78.469855,14.980998 78.896567,14.975423 79.017007,14.973606 "
     style="fill:#ffffff;stroke:#ff0000;stroke-width:0.17716535;stroke-miterlimit:4;stroke-dasharray:none"
     id="polygon4113"
     transform="translate(33.748445,96.776766)" />
  <polygon
     slic3r:type="contour"
     points="28.413968,15.288 29.021597,15.450492 34.319461,16.864568 34.319461,27.173431 29.021597,28.587507 28.413968,28.75 23.933344,28.75 9.171225,27.803466 9.17095,25.757962 1.971654,26.988627 1.971654,17.049372 9.17095,18.280039 9.171225,16.234533 23.933344,15.288 "
     style="fill:#ffffff;stroke:#ff0000;stroke-width:0.17716535;stroke-miterlimit:4;stroke-dasharray:none"
     id="polygon4106"
     transform="translate(107.26549,12.821896)" />
  <polygon
     slic3r:type="contour"
     points="80.282828,15.136934 81.500166,15.880525 81.579316,15.92801 81.625125,15.956031 82.106929,16.249463 85.487237,17.949783 86.970418,18.695724 90.165715,19.312843 90.234158,19.325999 90.234158,24.712 90.165716,24.725154 86.970418,25.342277 85.487237,26.088217 82.106928,27.788537 81.625125,28.08197 81.579316,28.109991 81.500166,28.157473 80.282828,28.901064 80.169714,28.969778 79.967148,29.092204 79.749315,29.088914 79.371596,29.083983 77.217686,29.05215 60.709503,28.815266 56.233831,28.75 56.231881,28.75 56.231881,15.288 56.23383,15.288 60.709503,15.222731 77.217686,14.985848 79.371595,14.954018 79.749316,14.949083 79.967148,14.945795 80.169714,15.068221 "
     style="fill:#ffffff;stroke:#ff0000;stroke-width:0.17716535;stroke-miterlimit:4;stroke-dasharray:none"
     id="polygon4108"
     transform="translate(43.910191,131.96082)" />
  <polygon
     slic3r:type="contour"
     points="30.930672,28.533796 30.122198,28.75 24.160541,28.75 11.00265,27.906327 11.002286,25.210356 1.513627,26.832372 1.513627,17.205627 11.002287,18.827645 11.00265,16.131672 24.160541,15.288 30.122198,15.288 30.930672,15.504203 37.979702,17.38569 37.979702,26.652309 "
     style="fill:#ffffff;stroke:#ff0000;stroke-width:0.17716535;stroke-miterlimit:4;stroke-dasharray:none"
     id="polygon4101"
     transform="translate(188.96533,157.08689)" />
  <polygon
     slic3r:type="contour"
     points="82.321576,15.774076 82.3907,15.815546 82.456481,15.855784 82.877455,16.112169 85.830993,17.597821 88.127022,18.752568 90.964959,19.300671 91.096732,19.326 91.096732,24.712 90.964958,24.737328 88.127023,25.285431 85.830993,26.44018 82.877454,27.925831 82.45648,28.182218 82.3907,28.222454 82.321575,28.263923 81.258407,28.913342 81.093988,29.013221 80.917287,29.120015 80.602065,29.115255 80.273334,29.110963 78.398791,29.083259 60.190953,28.821986 55.254474,28.75 55.252936,28.75 55.252936,15.288 55.254473,15.288 60.190954,15.21601 78.398791,14.954739 80.273335,14.927036 80.602064,14.922743 80.917287,14.917985 81.093988,15.024778 81.258407,15.124657 "
     style="fill:#ffffff;stroke:#ff0000;stroke-width:0.17716535;stroke-miterlimit:4;stroke-dasharray:none"
     id="polygon4103"
     transform="translate(179.53717,186.3811)" />
  <polygon
     slic3r:type="contour"
     points="1.0556,17.361883 11.204949,19.09684 11.204949,24.941161 1.0556,26.676116 "
     style="fill:#ffffff;stroke:#ff0000;stroke-width:0.17716535;stroke-miterlimit:4;stroke-dasharray:none"
     id="polygon4094"
     transform="translate(175.91728,47.045994)" />
  <polygon
     slic3r:type="contour"
     points="12.83366,19.112772 12.834075,16.02881 24.387737,15.288 31.830428,15.288 32.839747,15.557912 41.639943,17.906811 41.639943,26.131188 32.839748,28.480086 31.830428,28.75 24.387736,28.75 12.834075,28.009189 12.83366,24.925228 "
     style="fill:#ffffff;stroke:#ff0000;stroke-width:0.17716535;stroke-miterlimit:4;stroke-dasharray:none"
     id="polygon4096"
     transform="translate(105.29518,50.710008)" />
  <polygon
     slic3r:type="contour"
     points="82.01826,14.981333 82.233988,15.112381 83.142983,15.667625 83.202084,15.703082 83.287835,15.755536 83.647979,15.974873 86.174748,17.245857 89.283628,18.809415 91.764201,19.288498 91.959307,19.325999 91.959307,24.712 91.764201,24.7495 89.283627,25.228585 86.174748,26.792143 83.647979,28.063126 83.287835,28.282465 83.202084,28.334918 83.142983,28.370373 82.233988,28.925618 82.01826,29.056666 81.867427,29.147826 81.454812,29.141594 81.175074,29.137944 79.579895,29.114367 59.672405,28.828707 54.275115,28.75 54.273992,28.75 54.273992,15.288 54.275115,15.288 59.672404,15.209291 79.579896,14.92363 81.175075,14.900057 81.454812,14.896403 81.867427,14.890174 "
     style="fill:#ffffff;stroke:#ff0000;stroke-width:0.17716535;stroke-miterlimit:4;stroke-dasharray:none"
     id="polygon4098"
     transform="translate(179.59535,230.53524)" />
  <polygon
     slic3r:type="contour"
     points="6.343096,18.500294 6.343096,25.537706 0.597572,26.519861 0.597572,17.518138 "
     style="fill:#ffffff;stroke:#ff0000;stroke-width:0.17716535;stroke-miterlimit:4;stroke-dasharray:none"
     id="polygon4087"
     transform="translate(167.28808,47.045994)" />
  <polygon
     slic3r:type="contour"
     points="24.614933,15.288 33.538656,15.288 34.748823,15.611624 45.300184,18.427932 45.300184,25.610066 34.748822,28.426377 33.538656,28.75 24.614933,28.75 14.6655,28.112051 14.665143,25.456298 14.665143,18.581701 14.6655,15.925949 "
     style="fill:#ffffff;stroke:#ff0000;stroke-width:0.17716535;stroke-miterlimit:4;stroke-dasharray:none"
     id="polygon4089"
     transform="translate(222.72933,201.21322)" />
  <polygon
     slic3r:type="contour"
     points="83.209567,15.100104 83.964392,15.561177 84.013469,15.59062 84.119189,15.655287 84.418506,15.83758 86.518502,16.893893 90.440233,18.866261 92.563442,19.276324 92.821882,19.326 92.821882,24.712 92.563442,24.761674 90.440233,25.171739 86.518503,27.144106 84.418505,28.20042 84.11919,28.382713 84.013468,28.447382 83.964391,28.476823 83.209567,28.937895 82.942535,29.100109 82.817566,29.175637 82.307562,29.167936 82.076814,29.164924 80.761001,29.145476 59.153855,28.835427 53.295759,28.75 53.295047,28.75 53.295047,15.288 53.295759,15.288 59.153854,15.202571 80.761002,14.892521 82.076813,14.873077 82.307562,14.870062 82.817566,14.862363 82.942534,14.93789 "
     style="fill:#ffffff;stroke:#ff0000;stroke-width:0.17716535;stroke-miterlimit:4;stroke-dasharray:none"
     id="polygon4091"
     transform="translate(96.73844,105.23892)" />
  <polygon
     slic3r:type="contour"
     points="0.139545,26.363605 0.139545,17.674394 1.481244,17.903747 1.481244,26.134252 "
     style="fill:#ffffff;stroke:#ff0000;stroke-width:0.17716535;stroke-miterlimit:4;stroke-dasharray:none"
     id="polygon4080"
     transform="translate(174.49163,47.045994)" />
  <polygon
     slic3r:type="contour"
     points="16.496626,25.98737 16.496626,18.05063 16.496925,15.823087 24.842128,15.288 35.246887,15.288 36.657898,15.665333 48.960425,18.949055 48.960425,25.088944 36.657898,28.372666 35.246887,28.75 24.842128,28.75 16.496925,28.214913 "
     style="fill:#ffffff;stroke:#ff0000;stroke-width:0.17716535;stroke-miterlimit:4;stroke-dasharray:none"
     id="polygon4082"
     transform="translate(36.378362,146.13633)" />
  <polygon
     slic3r:type="contour"
     points="84.950544,15.55504 85.189031,15.700285 86.862257,16.54193 91.596838,18.923106 93.362686,19.264151 93.684457,19.326 93.684457,24.712 93.362686,24.773847 91.596837,25.114894 86.862258,27.49607 85.189032,28.337714 84.950543,28.482962 84.824853,28.559845 84.7858,28.583273 84.185148,28.950171 83.866807,29.143554 83.767706,29.203448 83.160309,29.194275 82.978554,29.191904 81.942107,29.176585 58.635304,28.842146 52.316401,28.75 52.316103,28.75 52.316103,15.288 52.316401,15.288 58.635304,15.195851 81.942107,14.861413 82.978553,14.846096 83.160309,14.843722 83.767706,14.834552 83.866808,14.894447 84.185147,15.087827 84.7858,15.454726 84.824853,15.478156 "
     style="fill:#ffffff;stroke:#ff0000;stroke-width:0.17716535;stroke-miterlimit:4;stroke-dasharray:none"
     id="polygon4084"
     transform="translate(135.71172,125.01724)" />
  <polygon
     slic3r:type="contour"
     points="84.835495,6.180625 85.186658,6.180321 85.297857,6.18051 89.195377,6.180093 89.335121,6.180244 89.583047,6.180675 89.864608,6.180505 90.513171,6.18051 96.819199,6.180093 96.968506,6.180243 97.127175,6.180381 97.273143,6.180363 97.969728,6.1808 97.969756,6.18051 99.476793,6.18051 100.61617,6.180166 100.97,6.180114 100.97,37.528 33.656004,37.528 33.656004,6.180115 35.181295,6.180501 35.182431,6.180216 35.184162,6.180871 35.187345,6.180073 35.187781,6.18051 57.209371,6.18051 69.454852,6.181238 78.619907,6.181238 81.978887,6.18051 84.30602,6.18051 84.514142,6.180212 "
     style="fill:#ffffff;stroke:#ff0000;stroke-width:0.17716535;stroke-miterlimit:4;stroke-dasharray:none"
     id="polygon4011"
     transform="translate(246.66191,224.38234)" />
</svg>
