<?xml version="1.0" encoding="UTF-8" standalone="no"?>
<!-- Created with Inkscape (http://www.inkscape.org/) -->

<svg
   xmlns:dc="http://purl.org/dc/elements/1.1/"
   xmlns:cc="http://creativecommons.org/ns#"
   xmlns:rdf="http://www.w3.org/1999/02/22-rdf-syntax-ns#"
   xmlns:svg="http://www.w3.org/2000/svg"
   xmlns="http://www.w3.org/2000/svg"
   xmlns:sodipodi="http://sodipodi.sourceforge.net/DTD/sodipodi-0.dtd"
   xmlns:inkscape="http://www.inkscape.org/namespaces/inkscape"
   width="600mm"
   height="300mm"
   viewBox="0 0 2125.9843 1062.9921"
   id="svg2"
   version="1.1"
   inkscape:version="0.91 r13725"
   sodipodi:docname="8_Coffret_grands_parents_1.svg">
  <sodipodi:namedview
     id="base"
     pagecolor="#ffffff"
     bordercolor="#666666"
     borderopacity="1.0"
     inkscape:pageopacity="0.0"
     inkscape:pageshadow="2"
     inkscape:zoom="0.35"
     inkscape:cx="1383.3482"
     inkscape:cy="261.42857"
     inkscape:document-units="mm"
     inkscape:current-layer="svg2"
     showgrid="false"
     inkscape:window-width="1920"
     inkscape:window-height="1013"
     inkscape:window-x="-9"
     inkscape:window-y="-9"
     inkscape:window-maximized="1" />
  <defs
     id="defs4" />
  <metadata
     id="metadata7">
    <rdf:RDF>
      <cc:Work
         rdf:about="">
        <dc:format>image/svg+xml</dc:format>
        <dc:type
           rdf:resource="http://purl.org/dc/dcmitype/StillImage" />
        <dc:title></dc:title>
      </cc:Work>
    </rdf:RDF>
  </metadata>
  <g
     transform="translate(0,10.629923)"
     id="layer1"
     inkscape:groupmode="layer"
     inkscape:label="Calque 1" />
  <path
     id="box_bottom"
     style="fill:none;stroke:#ff0000;stroke-width:0.01062992;stroke-miterlimit:4;stroke-dasharray:none"
     d="m 14.448877,1028.2451 0,-28.61221 17.71654,0 0,-27.81496 -17.71654,0 0,-28.87795 17.71654,0 0,-27.81496 -17.71654,0 0,-28.87796 17.71654,0 0,-27.81496 -17.71654,0 0,-28.87795 17.71654,0 0,-27.81496 -17.71654,0 0,-28.87795 17.71654,0 0,-27.81496 -17.71654,0 0,-28.87796 17.71654,0 0,-27.81496 -17.71654,0 0,-28.87795 17.71654,0 0,-27.81496 -17.71654,0 0,-28.87795 17.71654,0 0,-27.81496 -17.71654,0 0,-28.87796 17.71654,0 0,-27.81496 -17.71654,0 0,-28.87795 17.71654,0 0,-27.81496 -17.71654,0 0,-28.87795 17.71654,0 0,-27.81496 -17.71654,0 0,-28.87796 17.71654,0 0,-27.81496 -17.71654,0 0,-28.87795 17.71654,0 0,-27.81496 -17.71654,0 0,-28.87795 17.71654,0 0,-27.81496 -17.71654,0 0,-28.87796 17.71654,0 0,-27.81496 -17.71654,0 0,-28.87795 17.71654,0 0,-27.81496 -17.71654,0 0,-28.877953 17.71654,0 0,-27.81496 -17.71654,0 0,-28.612168 28.6122,0 0,17.716498 27.81497,0 0,-17.716498 28.87795,0 0,17.716498 27.814963,0 0,-17.716498 28.87795,0 0,17.716498 27.81497,0 0,-17.716498 28.87795,0 0,17.716498 27.81496,0 0,-17.716498 28.87795,0 0,17.716498 27.81496,0 0,-17.716498 28.87796,0 0,17.716498 27.81496,0 0,-17.716498 28.87795,0 0,17.716498 27.81496,0 0,-17.716498 28.87795,0 0,17.716498 27.81496,0 0,-17.716498 28.87796,0 0,17.716498 27.81496,0 0,-17.716498 28.87795,0 0,17.716498 27.81496,0 0,-17.716498 28.87795,0 0,17.716498 27.81496,0 0,-17.716498 28.87796,0 0,17.716498 27.81496,0 0,-17.716498 28.6122,0 0,28.612168 -17.71653,0 0,27.81496 17.71653,0 0,28.877953 -17.71653,0 0,27.81496 17.71653,0 0,28.87795 -17.71653,0 0,27.81496 17.71653,0 0,28.87796 -17.71653,0 0,27.81496 17.71653,0 0,28.87795 -17.71653,0 0,27.81496 17.71653,0 0,28.87795 -17.71653,0 0,27.81496 17.71653,0 0,28.87796 -17.71653,0 0,27.81496 17.71653,0 0,28.87795 -17.71653,0 0,27.81496 17.71653,0 0,28.87795 -17.71653,0 0,27.81496 17.71653,0 0,28.87796 -17.71653,0 0,27.81496 17.71653,0 0,28.87795 -17.71653,0 0,27.81496 17.71653,0 0,28.87795 -17.71653,0 0,27.81496 17.71653,0 0,28.87796 -17.71653,0 0,27.81496 17.71653,0 0,28.87795 -17.71653,0 0,27.81496 17.71653,0 0,28.87795 -17.71653,0 0,27.81496 17.71653,0 0,28.87796 -17.71653,0 0,27.81496 17.71653,0 0,28.87795 -17.71653,0 0,27.81496 17.71653,0 0,28.61221 -28.6122,0 0,-17.7165 -27.81496,0 0,17.7165 -28.87796,0 0,-17.7165 -27.81496,0 0,17.7165 -28.87795,0 0,-17.7165 -27.81496,0 0,17.7165 -28.87795,0 0,-17.7165 -27.81496,0 0,17.7165 -28.87796,0 0,-17.7165 -27.81496,0 0,17.7165 -28.87795,0 0,-17.7165 -27.81496,0 0,17.7165 -28.87795,0 0,-17.7165 -27.81496,0 0,17.7165 -28.87796,0 0,-17.7165 -27.81496,0 0,17.7165 -28.87795,0 0,-17.7165 -27.81496,0 0,17.7165 -28.87795,0 0,-17.7165 -27.81497,0 0,17.7165 -28.87795,0 0,-17.7165 -27.814963,0 0,17.7165 -28.87795,0 0,-17.7165 -27.81497,0 0,17.7165 -28.6122,0 z"
     inkscape:connector-curvature="0" />
  <path
     id="box_font"
     style="fill:none;stroke:#ff0000;stroke-width:0.01062992;stroke-miterlimit:4;stroke-dasharray:none"
     d="m 739.74698,1027.7389 0,-992.126026 29.7933,0 0,17.7166 28.9961,0 0,-17.7166 30.059,0 0,17.7166 28.9961,0 0,-17.7166 30.059,0 0,17.7166 28.9961,0 0,-17.7166 30.059,0 0,17.7166 28.9961,0 0,-17.7166 29.79332,0 0,28.0808 17.7165,0 0,28.8779 -17.7165,0 0,27.814996 17.7165,0 0,28.8779 -17.7165,0 0,27.815 17.7165,0 0,28.8779 -17.7165,0 0,27.815 17.7165,0 0,28.8779 -17.7165,0 0,27.815 17.7165,0 0,28.878 -17.7165,0 0,27.8149 17.7165,0 0,28.878 -17.7165,0 0,27.8149 17.7165,0 0,28.878 -17.7165,0 0,27.8149 17.7165,0 0,28.878 -17.7165,0 0,27.815 17.7165,0 0,28.8779 -17.7165,0 0,27.815 17.7165,0 0,28.8779 -17.7165,0 0,27.815 17.7165,0 0,28.87794 -17.7165,0 0,27.815 17.7165,0 0,28.878 -17.7165,0 0,27.8149 17.7165,0 0,28.878 -17.7165,0 0,27.8149 17.7165,0 0,28.878 -17.7165,0 0,27.8149 17.7165,0 0,28.878 -17.7165,0 0,27.815 17.7165,0 0,28.8779 -17.7165,0 0,27.815 17.7165,0 0,28.8779 -17.7165,0 0,28.08069 -29.79332,0 0,-17.7165 -28.9961,0 0,17.7165 -30.059,0 0,-17.7165 -28.9961,0 0,17.7165 -30.059,0 0,-17.7165 -28.9961,0 0,17.7165 -30.059,0 0,-17.7165 -28.9961,0 0,17.7165 -29.7933,0 z"
     inkscape:connector-curvature="0" />
  <path
     id="box_back"
     style="fill:none;stroke:#ff0000;stroke-width:0.01062992;stroke-miterlimit:4;stroke-dasharray:none"
     d="m 1321.9406,32.755701 0,992.125899 -29.7933,0 0,-17.7165 -28.9961,0 0,17.7165 -30.059,0 0,-17.7165 -28.9961,0 0,17.7165 -30.0591,0 0,-17.7165 -28.996,0 0,17.7165 -30.0591,0 0,-17.7165 -28.996,0 0,17.7165 -29.7934,0 0,-28.0806 -17.7165,0 0,-28.878 17.7165,0 0,-27.8149 -17.7165,0 0,-28.878 17.7165,0 0,-27.815 -17.7165,0 0,-28.8779 17.7165,0 0,-27.815 -17.7165,0 0,-28.8779 17.7165,0 0,-27.815 -17.7165,0 0,-28.8779 17.7165,0 0,-27.815 -17.7165,0 0,-28.8779 17.7165,0 0,-27.815 -17.7165,0 0,-28.8779 17.7165,0 0,-27.815 -17.7165,0 0,-28.878 17.7165,0 0,-27.8149 -17.7165,0 0,-28.878 17.7165,0 0,-27.8149 -17.7165,0 0,-28.878 17.7165,0 0,-27.8149 -17.7165,0 0,-28.878 17.7165,0 0,-27.815 -17.7165,0 0,-28.8779 17.7165,0 0,-27.815 -17.7165,0 0,-28.8779 17.7165,0 0,-27.81503 -17.7165,0 0,-28.8779 17.7165,0 0,-27.815 -17.7165,0 0,-28.878 17.7165,0 0,-27.81487 -17.7165,0 0,-28.878 17.7165,0 0,-27.814899 -17.7165,0 0,-28.878 17.7165,0 0,-28.0807 29.7934,0 0,17.7165 28.996,0 0,-17.7165 30.0591,0 0,17.7165 28.996,0 0,-17.7165 30.0591,0 0,17.7165 28.9961,0 0,-17.7165 30.059,0 0,17.7165 28.9961,0 0,-17.7165 29.7933,0 z"
     inkscape:connector-curvature="0" />
  <path
     id="box_left_side"
     style="fill:none;stroke:#ff0000;stroke-width:0.01062992;stroke-miterlimit:4;stroke-dasharray:none"
     d="m 2006.9779,608.10787 -637.7953,0 0,-29.2618 -17.7166,0 0,-30.0591 17.7166,0 0,-28.9961 -17.7166,0 0,-30.059 17.7166,0 0,-28.9961 -17.7166,0 0,-30.059 17.7166,0 0,-28.9961 -17.7166,0 0,-30.0591 17.7166,0 0,-29.2618 10.3642,0 0,-17.7165 28.8779,0 0,17.7165 27.815,0 0,-17.7165 28.8779,0 0,17.7165 27.815,0 0,-17.7165 28.8779,0 0,17.7165 27.815,0 0,-17.7165 28.8779,0 0,17.7165 27.815,0 0,-17.7165 28.878,0 0,17.7165 27.8149,0 0,-17.7165 28.878,0 0,17.7165 27.8149,0 0,-17.7165 28.878,0 0,17.7165 27.815,0 0,-17.7165 28.8779,0 0,17.7165 27.815,0 0,-17.7165 28.8779,0 0,17.7165 27.815,0 0,-17.7165 28.8779,0 0,17.7165 27.815,0 0,-17.7165 28.8779,0 0,17.7165 27.815,0 0,-17.7165 28.878,0 0,17.7165 10.3641,0 0,29.2618 17.7166,0 0,30.0591 -17.7166,0 0,28.9961 17.7166,0 0,30.059 -17.7166,0 0,28.9961 17.7166,0 0,30.059 -17.7166,0 0,28.9961 17.7166,0 0,30.0591 -17.7166,0 0,29.2618 z"
     inkscape:connector-curvature="0" />
  <path
     id="box_right_side"
     style="fill:none;stroke:#ff0000;stroke-width:0.01062992;stroke-miterlimit:4;stroke-dasharray:none"
     d="m 2009.9385,314.58909 -637.7953,0 0,-29.2618 -17.7165,0 0,-30.0591 17.7165,0 0,-28.9961 -17.7165,0 0,-30.059 17.7165,0 0,-28.9961 -17.7165,0 0,-30.059 17.7165,0 0,-28.9961 -17.7165,0 0,-30.059103 17.7165,0 0,-29.2618 10.3642,0 0,-17.7165 28.8779,0 0,17.7165 27.815,0 0,-17.7165 28.878,0 0,17.7165 27.8149,0 0,-17.7165 28.878,0 0,17.7165 27.815,0 0,-17.7165 28.8779,0 0,17.7165 27.815,0 0,-17.7165 28.8779,0 0,17.7165 27.815,0 0,-17.7165 28.878,0 0,17.7165 27.8149,0 0,-17.7165 28.878,0 0,17.7165 27.8149,0 0,-17.7165 28.878,0 0,17.7165 27.815,0 0,-17.7165 28.8779,0 0,17.7165 27.815,0 0,-17.7165 28.8779,0 0,17.7165 27.815,0 0,-17.7165 28.8779,0 0,17.7165 27.815,0 0,-17.7165 28.8779,0 0,17.7165 10.3642,0 0,29.2618 17.7165,0 0,30.059103 -17.7165,0 0,28.9961 17.7165,0 0,30.059 -17.7165,0 0,28.9961 17.7165,0 0,30.059 -17.7165,0 0,28.9961 17.7165,0 0,30.0591 -17.7165,0 0,29.2618 z"
     inkscape:connector-curvature="0" />
  <path
     inkscape:connector-curvature="0"
     d="m 2006.9778,903.92771 -637.7953,0 0,-29.2618 -17.7165,0 0,-30.059 17.7165,0 0,-28.9961 -17.7165,0 0,-30.059 17.7165,0 0,-28.9961 -17.7165,0 0,-30.0591 17.7165,0 0,-28.9959 -17.7165,0 0,-30.0591 17.7165,0 0,-29.2618 10.3642,0 0,-17.7165 28.8779,0 0,17.7165 27.815,0 0,-17.7165 28.8779,0 0,17.7165 27.815,0 0,-17.7165 28.878,0 0,17.7165 27.8149,0 0,-17.7165 28.878,0 0,17.7165 27.8149,0 0,-17.7165 28.878,0 0,17.7165 27.8149,0 0,-17.7165 28.878,0 0,17.7165 27.815,0 0,-17.7165 28.8779,0 0,17.7165 27.815,0 0,-17.7165 28.8779,0 0,17.7165 27.815,0 0,-17.7165 28.8779,0 0,17.7165 27.815,0 0,-17.7165 28.878,0 0,17.7165 27.8149,0 0,-17.7165 28.878,0 0,17.7165 27.8149,0 0,-17.7165 28.878,0 0,17.7165 10.3642,0 0,29.2618 17.7165,0 0,30.0591 -17.7165,0 0,28.9959 17.7165,0 0,30.0591 -17.7165,0 0,28.9961 17.7165,0 0,30.059 -17.7165,0 0,28.9961 17.7165,0 0,30.059 -17.7165,0 0,29.2618 z"
     style="fill:none;stroke:#ff0000;stroke-width:0.01062992;stroke-miterlimit:4;stroke-dasharray:none"
     id="path4402" />
</svg>
