<?xml version="1.0" encoding="UTF-8" standalone="no"?>
<!-- Created with Inkscape (http://www.inkscape.org/) -->

<svg
   xmlns:dc="http://purl.org/dc/elements/1.1/"
   xmlns:cc="http://creativecommons.org/ns#"
   xmlns:rdf="http://www.w3.org/1999/02/22-rdf-syntax-ns#"
   xmlns:svg="http://www.w3.org/2000/svg"
   xmlns="http://www.w3.org/2000/svg"
   xmlns:sodipodi="http://sodipodi.sourceforge.net/DTD/sodipodi-0.dtd"
   xmlns:inkscape="http://www.inkscape.org/namespaces/inkscape"
   width="600mm"
   height="300mm"
   viewBox="0 0 2125.9843 1062.9921"
   id="svg4419"
   version="1.1"
   inkscape:version="0.91 r13725"
   sodipodi:docname="8_Coffret_grands_parents_2.svg">
  <defs
     id="defs4421" />
  <sodipodi:namedview
     id="base"
     pagecolor="#ffffff"
     bordercolor="#666666"
     borderopacity="1.0"
     inkscape:pageopacity="0.0"
     inkscape:pageshadow="2"
     inkscape:zoom="0.35"
     inkscape:cx="1153.5714"
     inkscape:cy="407.14286"
     inkscape:document-units="mm"
     inkscape:current-layer="layer1"
     showgrid="false"
     inkscape:window-width="1920"
     inkscape:window-height="1013"
     inkscape:window-x="-9"
     inkscape:window-y="-9"
     inkscape:window-maximized="1" />
  <metadata
     id="metadata4424">
    <rdf:RDF>
      <cc:Work
         rdf:about="">
        <dc:format>image/svg+xml</dc:format>
        <dc:type
           rdf:resource="http://purl.org/dc/dcmitype/StillImage" />
        <dc:title></dc:title>
      </cc:Work>
    </rdf:RDF>
  </metadata>
  <g
     inkscape:label="Calque 1"
     inkscape:groupmode="layer"
     id="layer1"
     transform="translate(0,10.629923)">
    <path
       id="path4396"
       style="fill:none;stroke:#ff0000;stroke-width:0.01062992;stroke-miterlimit:4;stroke-dasharray:none"
       d="m 16.383719,1004.1394 0,-28.61222 17.7166,0 0,-27.815 -17.7166,0 0,-28.87788 17.7166,0 0,-27.815 -17.7166,0 0,-28.87792 17.7166,0 0,-27.81496 -17.7166,0 0,-28.87795 17.7166,0 0,-27.81496 -17.7166,0 0,-28.87796 17.7166,0 0,-27.81496 -17.7166,0 0,-28.87795 17.7166,0 0,-27.81496 -17.7166,0 0,-28.87795 17.7166,0 0,-27.81496 -17.7166,0 0,-28.87796 17.7166,0 0,-27.81496 -17.7166,0 0,-28.87795 17.7166,0 0,-27.81496 -17.7166,0 0,-28.87795 17.7166,0 0,-27.81496 -17.7166,0 0,-28.87796 17.7166,0 0,-27.81496 -17.7166,0 0,-28.87795 17.7166,0 0,-27.81496 -17.7166,0 0,-28.87795 17.7166,0 0,-27.81496 -17.7166,0 0,-28.87796 17.7166,0 0,-27.81496 -17.7166,0 0,-28.87795 17.7166,0 0,-27.81496 -17.7166,0 0,-28.87795 17.7166,0 0,-27.814961 -17.7166,0 0,-28.87796 17.7166,0 0,-27.814956 -17.7166,0 0,-28.6122 28.6122,0 0,17.71653 27.815,0 0,-17.71653 28.877901,0 0,17.71653 27.815,0 0,-17.71653 28.878,0 0,17.71653 27.8149,0 0,-17.71653 28.878,0 0,17.71653 27.8149,0 0,-17.71653 28.878,0 0,17.71653 27.8149,0 0,-17.71653 28.878,0 0,17.71653 27.815,0 0,-17.71653 28.8779,0 0,17.71653 27.815,0 0,-17.71653 28.8779,0 0,17.71653 27.815,0 0,-17.71653 28.8779,0 0,17.71653 27.815,0 0,-17.71653 28.8779,0 0,17.71653 27.81499,0 0,-17.71653 28.87801,0 0,17.71653 27.8149,0 0,-17.71653 28.878,0 0,17.71653 27.8149,0 0,-17.71653 28.6122,0 0,28.6122 -17.7165,0 0,27.814956 17.7165,0 0,28.87796 -17.7165,0 0,27.814961 17.7165,0 0,28.87795 -17.7165,0 0,27.81496 17.7165,0 0,28.87795 -17.7165,0 0,27.81496 17.7165,0 0,28.87796 -17.7165,0 0,27.81496 17.7165,0 0,28.87795 -17.7165,0 0,27.81496 17.7165,0 0,28.87795 -17.7165,0 0,27.81496 17.7165,0 0,28.87796 -17.7165,0 0,27.81496 17.7165,0 0,28.87795 -17.7165,0 0,27.81496 17.7165,0 0,28.87795 -17.7165,0 0,27.81496 17.7165,0 0,28.87796 -17.7165,0 0,27.81496 17.7165,0 0,28.87795 -17.7165,0 0,27.81496 17.7165,0 0,28.87795 -17.7165,0 0,27.81496 17.7165,0 0,28.87796 -17.7165,0 0,27.81496 17.7165,0 0,28.87795 -17.7165,0 0,27.81496 17.7165,0 0,28.87792 -17.7165,0 0,27.815 17.7165,0 0,28.87788 -17.7165,0 0,27.815 17.7165,0 0,28.61222 -28.6122,0 0,-17.71652 -27.8149,0 0,17.71652 -28.878,0 0,-17.71652 -27.8149,0 0,17.71652 -28.87801,0 0,-17.71652 -27.81499,0 0,17.71652 -28.8779,0 0,-17.71652 -27.815,0 0,17.71652 -28.8779,0 0,-17.71652 -27.815,0 0,17.71652 -28.8779,0 0,-17.71652 -27.815,0 0,17.71652 -28.8779,0 0,-17.71652 -27.815,0 0,17.71652 -28.878,0 0,-17.71652 -27.8149,0 0,17.71652 -28.878,0 0,-17.71652 -27.8149,0 0,17.71652 -28.878,0 0,-17.71652 -27.8149,0 0,17.71652 -28.878,0 0,-17.71652 -27.815,0 0,17.71652 -28.877901,0 0,-17.71652 -27.815,0 0,17.71652 -28.6122,0 z"
       inkscape:connector-curvature="0" />
    <path
       id="path4398"
       style="fill:none;stroke:#ff0000;stroke-width:0.01062992;stroke-miterlimit:4;stroke-dasharray:none"
       d="m 1031.7606,1001.5578 0,-992.1259644 29.7933,0 0,17.7165004 28.996,0 0,-17.7165004 30.0591,0 0,17.7165004 28.9961,0 0,-17.7165004 30.059,0 0,17.7165004 28.9961,0 0,-17.7165004 30.059,0 0,17.7165004 28.9961,0 0,-17.7165004 29.7933,0 0,28.0807004 17.7165,0 0,28.8779 -17.7165,0 0,27.815 17.7165,0 0,28.878004 -17.7165,0 0,27.8149 17.7165,0 0,28.878 -17.7165,0 0,27.8149 17.7165,0 0,28.878 -17.7165,0 0,27.8149 17.7165,0 0,28.878 -17.7165,0 0,27.815 17.7165,0 0,28.8779 -17.7165,0 0,27.815 17.7165,0 0,28.8779 -17.7165,0 0,27.815 17.7165,0 0,28.8779 -17.7165,0 0,27.815 17.7165,0 0,28.878 -17.7165,0 0,27.8149 17.7165,0 0,28.878 -17.7165,0 0,27.8149 17.7165,0 0,28.878 -17.7165,0 0,27.8149 17.7165,0 0,28.878 -17.7165,0 0,27.815 17.7165,0 0,28.8779 -17.7165,0 0,27.815 17.7165,0 0,28.8779 -17.7165,0 0,27.815 17.7165,0 0,28.8779 -17.7165,0 0,27.815 17.7165,0 0,28.8779 -17.7165,0 0,27.815 17.7165,0 0,28.878 -17.7165,0 0,28.08066 -29.7933,0 0,-17.71656 -28.9961,0 0,17.71656 -30.059,0 0,-17.71656 -28.9961,0 0,17.71656 -30.059,0 0,-17.71656 -28.9961,0 0,17.71656 -30.0591,0 0,-17.71656 -28.996,0 0,17.71656 -29.7933,0 z"
       inkscape:connector-curvature="0" />
    <path
       id="path4400"
       style="fill:none;stroke:#ff0000;stroke-width:0.01062992;stroke-miterlimit:4;stroke-dasharray:none"
       d="m 736.20375,1004.415 0,-992.125962 29.7934,0 0,17.7165 28.996,0 0,-17.7165 30.0591,0 0,17.7165 28.996,0 0,-17.7165 30.0591,0 0,17.7165 28.9961,0 0,-17.7165 30.059,0 0,17.7165 28.9961,0 0,-17.7165 29.79325,0 0,28.0807 17.7165,0 0,28.8779 -17.7165,0 0,27.815 17.7165,0 0,28.878002 -17.7165,0 0,27.8149 17.7165,0 0,28.878 -17.7165,0 0,27.8149 17.7165,0 0,28.878 -17.7165,0 0,27.8149 17.7165,0 0,28.878 -17.7165,0 0,27.815 17.7165,0 0,28.8779 -17.7165,0 0,27.815 17.7165,0 0,28.8779 -17.7165,0 0,27.815 17.7165,0 0,28.8779 -17.7165,0 0,27.815 17.7165,0 0,28.878 -17.7165,0 0,27.8149 17.7165,0 0,28.878 -17.7165,0 0,27.8149 17.7165,0 0,28.878 -17.7165,0 0,27.8149 17.7165,0 0,28.878 -17.7165,0 0,27.815 17.7165,0 0,28.8779 -17.7165,0 0,27.815 17.7165,0 0,28.8779 -17.7165,0 0,27.815 17.7165,0 0,28.8779 -17.7165,0 0,27.815 17.7165,0 0,28.8779 -17.7165,0 0,27.815 17.7165,0 0,28.878 -17.7165,0 0,28.08066 -29.79325,0 0,-17.71656 -28.9961,0 0,17.71656 -30.059,0 0,-17.71656 -28.9961,0 0,17.71656 -30.0591,0 0,-17.71656 -28.996,0 0,17.71656 -30.0591,0 0,-17.71656 -28.996,0 0,17.71656 -29.7934,0 z"
       inkscape:connector-curvature="0" />
    <path
       id="path4404"
       style="fill:none;stroke:#ff0000;stroke-width:0.01062992;stroke-miterlimit:4;stroke-dasharray:none"
       d="m 1990.5235,291.26522 -637.7953,0 0,-29.2618 -17.7165,0 0,-30.0591 17.7165,0 0,-28.996 -17.7165,0 0,-30.0591 17.7165,0 0,-28.9961 -17.7165,0 0,-30.059 17.7165,0 0,-28.996096 -17.7165,0 0,-30.059 17.7165,0 0,-29.2618 10.3642,0 0,-17.7166 28.8779,0 0,17.7166 27.815,0 0,-17.7166 28.8779,0 0,17.7166 27.815,0 0,-17.7166 28.878,0 0,17.7166 27.8149,0 0,-17.7166 28.878,0 0,17.7166 27.8149,0 0,-17.7166 28.878,0 0,17.7166 27.8149,0 0,-17.7166 28.878,0 0,17.7166 27.815,0 0,-17.7166 28.8779,0 0,17.7166 27.815,0 0,-17.7166 28.8779,0 0,17.7166 27.815,0 0,-17.7166 28.8779,0 0,17.7166 27.815,0 0,-17.7166 28.878,0 0,17.7166 27.8149,0 0,-17.7166 28.878,0 0,17.7166 27.8149,0 0,-17.7166 28.878,0 0,17.7166 10.3642,0 0,29.2618 17.7165,0 0,30.059 -17.7165,0 0,28.996096 17.7165,0 0,30.059 -17.7165,0 0,28.9961 17.7165,0 0,30.0591 -17.7165,0 0,28.996 17.7165,0 0,30.0591 -17.7165,0 0,29.2618 z"
       inkscape:connector-curvature="0" />
    <path
       inkscape:connector-curvature="0"
       id="path5020"
       style="fill:none;stroke:#ff0000;stroke-width:0.01062992;stroke-miterlimit:4;stroke-dasharray:none"
       d="m 1997.9924,586.95159 -637.7952,0 0,-29.2618 -17.7165,0 0,-30.059 17.7165,0 0,-28.9961 -17.7165,0 0,-30.0591 17.7165,0 0,-28.9961 -17.7165,0 0,-30.0591 17.7165,0 0,-28.99604 -17.7165,0 0,-30.0591 17.7165,0 0,-29.2618 10.3642,0 0,-17.7165 28.8781,0 0,17.7165 27.8149,0 0,-17.7165 28.878,0 0,17.7165 27.8149,0 0,-17.7165 28.8779,0 0,17.7165 27.8149,0 0,-17.7165 28.878,0 0,17.7165 27.815,0 0,-17.7165 28.8779,0 0,17.7165 27.815,0 0,-17.7165 28.8779,0 0,17.7165 27.815,0 0,-17.7165 28.8779,0 0,17.7165 27.815,0 0,-17.7165 28.878,0 0,17.7165 27.8148,0 0,-17.7165 28.878,0 0,17.7165 27.815,0 0,-17.7165 28.8779,0 0,17.7165 27.815,0 0,-17.7165 28.8779,0 0,17.7165 27.815,0 0,-17.7165 28.8779,0 0,17.7165 10.3642,0 0,29.2618 17.7165,0 0,30.0591 -17.7165,0 0,28.99604 17.7165,0 0,30.0591 -17.7165,0 0,28.9961 17.7165,0 0,30.0591 -17.7165,0 0,28.9961 17.7165,0 0,30.059 -17.7165,0 0,29.2618 z" />
    <path
       inkscape:connector-curvature="0"
       id="path5022"
       style="fill:none;stroke:#ff0000;stroke-width:0.01062992;stroke-miterlimit:4;stroke-dasharray:none"
       d="m 1990.0847,884.09451 -637.7954,0 0,-29.2618 -17.7165,0 0,-30.059 17.7165,0 0,-28.9962 -17.7165,0 0,-30.059 17.7165,0 0,-28.9961 -17.7165,0 0,-30.0591 17.7165,0 0,-28.996 -17.7165,0 0,-30.059 17.7165,0 0,-29.2618 10.3642,0 0,-17.7165 28.8779,0 0,17.7165 27.8149,0 0,-17.7165 28.8781,0 0,17.7165 27.8149,0 0,-17.7165 28.878,0 0,17.7165 27.815,0 0,-17.7165 28.878,0 0,17.7165 27.8149,0 0,-17.7165 28.878,0 0,17.7165 27.8149,0 0,-17.7165 28.878,0 0,17.7165 27.8149,0 0,-17.7165 28.878,0 0,17.7165 27.815,0 0,-17.7165 28.8779,0 0,17.7165 27.815,0 0,-17.7165 28.8779,0 0,17.7165 27.815,0 0,-17.7165 28.8779,0 0,17.7165 27.815,0 0,-17.7165 28.8779,0 0,17.7165 27.815,0 0,-17.7165 28.878,0 0,17.7165 10.3641,0 0,29.2618 17.7166,0 0,30.059 -17.7166,0 0,28.996 17.7166,0 0,30.0591 -17.7166,0 0,28.9961 17.7166,0 0,30.059 -17.7166,0 0,28.9962 17.7166,0 0,30.059 -17.7166,0 0,29.2618 z" />
  </g>
</svg>
