<?xml version="1.0" encoding="UTF-8" standalone="no"?>
<!-- Created with Inkscape (http://www.inkscape.org/) -->

<svg
   xmlns:dc="http://purl.org/dc/elements/1.1/"
   xmlns:cc="http://creativecommons.org/ns#"
   xmlns:rdf="http://www.w3.org/1999/02/22-rdf-syntax-ns#"
   xmlns:svg="http://www.w3.org/2000/svg"
   xmlns="http://www.w3.org/2000/svg"
   xmlns:sodipodi="http://sodipodi.sourceforge.net/DTD/sodipodi-0.dtd"
   xmlns:inkscape="http://www.inkscape.org/namespaces/inkscape"
   width="600mm"
   height="300mm"
   viewBox="0 0 2125.9843 1062.9921"
   id="svg6846"
   version="1.1"
   inkscape:version="0.91 r13725"
   sodipodi:docname="8_Coffret_grands_parents_6.svg">
  <defs
     id="defs6848" />
  <sodipodi:namedview
     id="base"
     pagecolor="#ffffff"
     bordercolor="#666666"
     borderopacity="1.0"
     inkscape:pageopacity="0.0"
     inkscape:pageshadow="2"
     inkscape:zoom="0.35"
     inkscape:cx="952.14286"
     inkscape:cy="502.85714"
     inkscape:document-units="mm"
     inkscape:current-layer="layer1"
     showgrid="false"
     inkscape:window-width="1920"
     inkscape:window-height="1013"
     inkscape:window-x="-9"
     inkscape:window-y="-9"
     inkscape:window-maximized="1" />
  <metadata
     id="metadata6851">
    <rdf:RDF>
      <cc:Work
         rdf:about="">
        <dc:format>image/svg+xml</dc:format>
        <dc:type
           rdf:resource="http://purl.org/dc/dcmitype/StillImage" />
        <dc:title></dc:title>
      </cc:Work>
    </rdf:RDF>
  </metadata>
  <g
     inkscape:label="Calque 1"
     inkscape:groupmode="layer"
     id="layer1"
     transform="translate(0,10.629923)">
    <rect
       style="fill:none;fill-opacity:1;stroke:#ff0000;stroke-width:0.01062992;stroke-miterlimit:4;stroke-dasharray:none;stroke-opacity:1"
       id="rect6814-3-2"
       width="708.64691"
       height="992.11169"
       x="-713.82849"
       y="22.515755"
       transform="matrix(0,-1,1,0,0,0)" />
    <path
       id="box_right_side"
       style="fill:none;stroke:#ff0000;stroke-width:0.01062992;stroke-miterlimit:4;stroke-dasharray:none"
       d="m 1397.742,1016.9517 -637.79551,0 0,-29.26183 -17.7165,0 0,-30.0591 17.7165,0 0,-28.9961 -17.7165,0 0,-30.059 17.7165,0 0,-28.996 -17.7165,0 0,-30.0591 17.7165,0 0,-28.9961 -17.7165,0 0,-30.0591 17.7165,0 0,-29.2618 10.3642,0 0,-17.7166 28.87791,0 0,17.7166 27.81501,0 0,-17.7166 28.87795,0 0,17.7166 27.815,0 0,-17.7166 28.8779,0 0,17.7166 27.815,0 0,-17.7166 28.878,0 0,17.7166 27.8149,0 0,-17.7166 28.87804,0 0,17.7166 27.8149,0 0,-17.7166 28.878,0 0,17.7166 27.8149,0 0,-17.7166 28.878,0 0,17.7166 27.815,0 0,-17.7166 28.8779,0 0,17.7166 27.8151,0 0,-17.7166 28.8779,0 0,17.7166 27.815,0 0,-17.7166 28.8779,0 0,17.7166 27.815,0 0,-17.7166 28.8779,0 0,17.7166 27.815,0 0,-17.7166 28.878,0 0,17.7166 10.3641,0 0,29.2618 17.7166,0 0,30.0591 -17.7166,0 0,28.9961 17.7166,0 0,30.0591 -17.7166,0 0,28.996 17.7166,0 0,30.059 -17.7166,0 0,28.9961 17.7166,0 0,30.0591 -17.7166,0 0,29.26183 z"
       inkscape:connector-curvature="0" />
    <path
       inkscape:connector-curvature="0"
       id="box_left_side-0"
       style="fill:none;stroke:#ff0000;stroke-width:0.01062992;stroke-miterlimit:4;stroke-dasharray:none"
       d="m 72.516906,737.60967 637.795504,0 0,29.2618 17.7166,0 0,30.0592 -17.7166,0 0,28.9961 17.7166,0 0,30.059 -17.7166,0 0,28.9961 17.7166,0 0,30.059 -17.7166,0 0,28.9961 17.7166,0 0,30.0591 -17.7166,0 0,29.26183 -10.3641,0 0,17.7166 -28.878,0 0,-17.7166 -27.815,0 0,17.7166 -28.878,0 0,-17.7166 -27.815,0 0,17.7166 -28.8779,0 0,-17.7166 -27.8151,0 0,17.7166 -28.8779,0 0,-17.7166 -27.815,0 0,17.7166 -28.878,0 0,-17.7166 -27.815,0 0,17.7166 -28.878,0 0,-17.7166 -27.8149,0 0,17.7166 -28.878,0 0,-17.7166 -27.8149,0 0,17.7166 -28.8779,0 0,-17.7166 -27.815,0 0,17.7166 -28.8779,0 0,-17.7166 -27.815,0 0,17.7166 -28.8779,0 0,-17.7166 -27.8149,0 0,17.7166 -28.8781,0 0,-17.7166 -27.814904,0 0,17.7166 -28.878,0 0,-17.7166 -10.3642,0 0,-29.26183 -17.7165,0 0,-30.0591 17.7165,0 0,-28.9961 -17.7165,0 0,-30.059 17.7165,0 0,-28.9961 -17.7165,0 0,-30.059 17.7165,0 0,-28.9961 -17.7165,0 0,-30.0592 17.7165,0 0,-29.2618 z" />
    <rect
       style="fill:none;fill-opacity:1;stroke:#ff0000;stroke-width:0.01062992;stroke-miterlimit:4;stroke-dasharray:none;stroke-opacity:1"
       id="rect6814-3-2-7"
       width="708.64697"
       height="992.11182"
       x="-716.68555"
       y="1053.9445"
       transform="matrix(0,-1,1,0,0,0)" />
    <text
       xml:space="preserve"
       style="font-style:normal;font-weight:normal;font-size:40px;line-height:125%;font-family:sans-serif;letter-spacing:0px;word-spacing:0px;fill:#000000;fill-opacity:1;stroke:none;stroke-width:1px;stroke-linecap:butt;stroke-linejoin:miter;stroke-opacity:1"
       x="438.72705"
       y="500.08786"
       id="text8008"
       sodipodi:linespacing="125%"><tspan
         sodipodi:role="line"
         id="tspan8010"
         x="438.72705"
         y="500.08786"
         style="font-style:normal;font-variant:normal;font-weight:normal;font-stretch:normal;font-size:75.00000763px;font-family:'French Script MT';-inkscape-font-specification:'French Script MT'">Julie</tspan></text>
    <text
       xml:space="preserve"
       style="font-style:normal;font-weight:normal;font-size:40px;line-height:125%;font-family:sans-serif;letter-spacing:0px;word-spacing:0px;fill:#000000;fill-opacity:1;stroke:none;stroke-width:1px;stroke-linecap:butt;stroke-linejoin:miter;stroke-opacity:1"
       x="1458.7271"
       y="500.08786"
       id="text8008-8"
       sodipodi:linespacing="125%"><tspan
         sodipodi:role="line"
         id="tspan8010-3"
         x="1458.7271"
         y="500.08786"
         style="font-style:normal;font-variant:normal;font-weight:normal;font-stretch:normal;font-size:75.00000763px;font-family:'French Script MT';-inkscape-font-specification:'French Script MT'">Marion</tspan></text>
  </g>
</svg>
