<?xml version="1.0" encoding="UTF-8" standalone="no"?>
<!-- Created with Inkscape (http://www.inkscape.org/) -->

<svg
   xmlns:dc="http://purl.org/dc/elements/1.1/"
   xmlns:cc="http://creativecommons.org/ns#"
   xmlns:rdf="http://www.w3.org/1999/02/22-rdf-syntax-ns#"
   xmlns:svg="http://www.w3.org/2000/svg"
   xmlns="http://www.w3.org/2000/svg"
   xmlns:sodipodi="http://sodipodi.sourceforge.net/DTD/sodipodi-0.dtd"
   xmlns:inkscape="http://www.inkscape.org/namespaces/inkscape"
   width="600mm"
   height="300mm"
   viewBox="0 0 2125.9843 1062.9921"
   id="svg5038"
   version="1.1"
   inkscape:version="0.91 r13725"
   sodipodi:docname="8_Coffret_grands_parents_3.svg">
  <sodipodi:namedview
     id="base"
     pagecolor="#ffffff"
     bordercolor="#666666"
     borderopacity="1.0"
     inkscape:pageopacity="0.0"
     inkscape:pageshadow="2"
     inkscape:zoom="0.35"
     inkscape:cx="1157.8571"
     inkscape:cy="342.85714"
     inkscape:document-units="mm"
     inkscape:current-layer="layer1"
     showgrid="false"
     inkscape:window-width="1920"
     inkscape:window-height="1013"
     inkscape:window-x="-9"
     inkscape:window-y="-9"
     inkscape:window-maximized="1" />
  <defs
     id="defs5040" />
  <metadata
     id="metadata5043">
    <rdf:RDF>
      <cc:Work
         rdf:about="">
        <dc:format>image/svg+xml</dc:format>
        <dc:type
           rdf:resource="http://purl.org/dc/dcmitype/StillImage" />
        <dc:title></dc:title>
      </cc:Work>
    </rdf:RDF>
  </metadata>
  <g
     transform="translate(0,10.629923)"
     id="layer1"
     inkscape:groupmode="layer"
     inkscape:label="Calque 1">
    <path
       d="m 13.059736,1021.344 0,-28.61223 17.7165,0 0,-27.815 -17.7165,0 0,-28.8779 17.7165,0 0,-27.815 -17.7165,0 0,-28.8779 17.7165,0 0,-27.815 -17.7165,0 0,-28.8779 17.7165,0 0,-27.815 -17.7165,0 0,-28.878 17.7165,0 0,-27.8149 -17.7165,0 0,-28.878 17.7165,0 0,-27.8149 -17.7165,0 0,-28.878 17.7165,0 0,-27.8149 -17.7165,0 0,-28.878 17.7165,0 0,-27.815 -17.7165,0 0,-28.878 17.7165,0 0,-27.8149 -17.7165,0 0,-28.878 17.7165,0 0,-27.8149 -17.7165,0 0,-28.878 17.7165,0 0,-27.8149 -17.7165,0 0,-28.878 17.7165,0 0,-27.815 -17.7165,0 0,-28.8779 17.7165,0 0,-27.815 -17.7165,0 0,-28.8779 17.7165,0 0,-27.815 -17.7165,0 0,-28.8779 17.7165,0 0,-27.815 -17.7165,0 0,-28.878 17.7165,0 0,-27.8149 -17.7165,0 0,-28.877998 17.7165,0 0,-27.8149 -17.7165,0 0,-28.61228 28.6122,0 0,17.71658 27.815,0 0,-17.71658 28.87793,0 0,17.71658 27.814964,0 0,-17.71658 28.87795,0 0,17.71658 27.81496,0 0,-17.71658 28.87795,0 0,17.71658 27.81497,0 0,-17.71658 28.87795,0 0,17.71658 27.81496,0 0,-17.71658 28.87795,0 0,17.71658 27.81496,0 0,-17.71658 28.87796,0 0,17.71658 27.81495,0 0,-17.71658 28.87795,0 0,17.71658 27.81496,0 0,-17.71658 28.87795,0 0,17.71658 27.81496,0 0,-17.71658 28.87796,0 0,17.71658 27.81496,0 0,-17.71658 28.87796,0 0,17.71658 27.81496,0 0,-17.71658 28.87795,0 0,17.71658 27.815,0 0,-17.71658 28.6122,0 0,28.61228 -17.7166,0 0,27.8149 17.7166,0 0,28.877998 -17.7166,0 0,27.8149 17.7166,0 0,28.878 -17.7166,0 0,27.815 17.7166,0 0,28.8779 -17.7166,0 0,27.815 17.7166,0 0,28.8779 -17.7166,0 0,27.815 17.7166,0 0,28.8779 -17.7166,0 0,27.815 17.7166,0 0,28.878 -17.7166,0 0,27.8149 17.7166,0 0,28.878 -17.7166,0 0,27.8149 17.7166,0 0,28.878 -17.7166,0 0,27.8149 17.7166,0 0,28.878 -17.7166,0 0,27.815 17.7166,0 0,28.878 -17.7166,0 0,27.8149 17.7166,0 0,28.878 -17.7166,0 0,27.8149 17.7166,0 0,28.878 -17.7166,0 0,27.8149 17.7166,0 0,28.878 -17.7166,0 0,27.815 17.7166,0 0,28.8779 -17.7166,0 0,27.815 17.7166,0 0,28.8779 -17.7166,0 0,27.815 17.7166,0 0,28.8779 -17.7166,0 0,27.815 17.7166,0 0,28.61223 -28.6122,0 0,-17.7165 -27.815,0 0,17.7165 -28.87795,0 0,-17.7165 -27.81496,0 0,17.7165 -28.87796,0 0,-17.7165 -27.81496,0 0,17.7165 -28.87796,0 0,-17.7165 -27.81496,0 0,17.7165 -28.87795,0 0,-17.7165 -27.81496,0 0,17.7165 -28.87795,0 0,-17.7165 -27.81495,0 0,17.7165 -28.87796,0 0,-17.7165 -27.81496,0 0,17.7165 -28.87795,0 0,-17.7165 -27.81496,0 0,17.7165 -28.87795,0 0,-17.7165 -27.81497,0 0,17.7165 -28.87795,0 0,-17.7165 -27.81496,0 0,17.7165 -28.87795,0 0,-17.7165 -27.814964,0 0,17.7165 -28.87793,0 0,-17.7165 -27.815,0 0,17.7165 -28.6122,0 z"
       style="fill:none;stroke:#ff0000;stroke-width:0.01062992;stroke-miterlimit:4;stroke-dasharray:none"
       id="path5014"
       inkscape:connector-curvature="0" />
    <path
       d="m 1036.5805,1020.073 0,-992.125811 29.7933,0 0,17.7165 28.9961,0 0,-17.7165 30.059,0 0,17.7165 28.9961,0 0,-17.7165 30.059,0 0,17.7165 28.9961,0 0,-17.7165 30.0591,0 0,17.7165 28.996,0 0,-17.7165 29.7933,0 0,28.0807 17.7166,0 0,28.8779 -17.7166,0 0,27.815001 17.7166,0 0,28.8779 -17.7166,0 0,27.81499 17.7166,0 0,28.8779 -17.7166,0 0,27.81496 17.7166,0 0,28.878 -17.7166,0 0,27.8149 17.7166,0 0,28.878 -17.7166,0 0,27.8149 17.7166,0 0,28.878 -17.7166,0 0,27.8149 17.7166,0 0,28.878 -17.7166,0 0,27.815 17.7166,0 0,28.8779 -17.7166,0 0,27.815 17.7166,0 0,28.8779 -17.7166,0 0,27.815 17.7166,0 0,28.8779 -17.7166,0 0,27.815 17.7166,0 0,28.878 -17.7166,0 0,27.8149 17.7166,0 0,28.878 -17.7166,0 0,27.8149 17.7166,0 0,28.878 -17.7166,0 0,27.8149 17.7166,0 0,28.878 -17.7166,0 0,27.815 17.7166,0 0,28.8779 -17.7166,0 0,27.815 17.7166,0 0,28.8779 -17.7166,0 0,27.815 17.7166,0 0,28.8779 -17.7166,0 0,28.08066 -29.7933,0 0,-17.7165 -28.996,0 0,17.7165 -30.0591,0 0,-17.7165 -28.9961,0 0,17.7165 -30.059,0 0,-17.7165 -28.9961,0 0,17.7165 -30.059,0 0,-17.7165 -28.9961,0 0,17.7165 -29.7933,0 z"
       style="fill:none;stroke:#ff0000;stroke-width:0.01062992;stroke-miterlimit:4;stroke-dasharray:none"
       id="path5016"
       inkscape:connector-curvature="0" />
    <path
       d="m 739.4376,1021.344 0,-992.126108 29.7933,0 0,17.71658 28.9961,0 0,-17.71658 30.059,0 0,17.71658 28.9961,0 0,-17.71658 30.059,0 0,17.71658 28.9961,0 0,-17.71658 30.0591,0 0,17.71658 28.996,0 0,-17.71658 29.7933,0 0,28.08078 17.7166,0 0,28.8779 -17.7166,0 0,27.814998 17.7166,0 0,28.8779 -17.7166,0 0,27.815 17.7166,0 0,28.878 -17.7166,0 0,27.8149 17.7166,0 0,28.878 -17.7166,0 0,27.8149 17.7166,0 0,28.878 -17.7166,0 0,27.8149 17.7166,0 0,28.878 -17.7166,0 0,27.815 17.7166,0 0,28.8779 -17.7166,0 0,27.815 17.7166,0 0,28.8779 -17.7166,0 0,27.815 17.7166,0 0,28.8779 -17.7166,0 0,27.815 17.7166,0 0,28.878 -17.7166,0 0,27.815 17.7166,0 0,28.8779 -17.7166,0 0,27.815 17.7166,0 0,28.8779 -17.7166,0 0,27.815 17.7166,0 0,28.8779 -17.7166,0 0,27.815 17.7166,0 0,28.878 -17.7166,0 0,27.8149 17.7166,0 0,28.878 -17.7166,0 0,27.8149 17.7166,0 0,28.878 -17.7166,0 0,27.8149 17.7166,0 0,28.878 -17.7166,0 0,28.08073 -29.7933,0 0,-17.7165 -28.996,0 0,17.7165 -30.0591,0 0,-17.7165 -28.9961,0 0,17.7165 -30.059,0 0,-17.7165 -28.9961,0 0,17.7165 -30.059,0 0,-17.7165 -28.9961,0 0,17.7165 -29.7933,0 z"
       style="fill:none;stroke:#ff0000;stroke-width:0.01062992;stroke-miterlimit:4;stroke-dasharray:none"
       id="path5018"
       inkscape:connector-curvature="0" />
    <path
       id="box_font"
       style="fill:none;stroke:#ff0000;stroke-width:0.01062992;stroke-miterlimit:4;stroke-dasharray:none"
       d="m 1337.6829,1014.2462 0,-992.126004 29.7933,0 0,17.71653 28.996,0 0,-17.71653 30.0591,0 0,17.71653 28.9961,0 0,-17.71653 30.059,0 0,17.71653 28.9961,0 0,-17.71653 30.059,0 0,17.71653 28.9961,0 0,-17.71653 29.7933,0 0,28.0807 17.7165,0 0,28.87796 -17.7165,0 0,27.814954 17.7165,0 0,28.878 -17.7165,0 0,27.8149 17.7165,0 0,28.878 -17.7165,0 0,27.8149 17.7165,0 0,28.878 -17.7165,0 0,27.8149 17.7165,0 0,28.878 -17.7165,0 0,27.815 17.7165,0 0,28.8779 -17.7165,0 0,27.815 17.7165,0 0,28.8779 -17.7165,0 0,27.815 17.7165,0 0,28.8779 -17.7165,0 0,27.815 17.7165,0 0,28.878 -17.7165,0 0,27.8149 17.7165,0 0,28.878 -17.7165,0 0,27.8149 17.7165,0 0,28.878 -17.7165,0 0,27.8149 17.7165,0 0,28.878 -17.7165,0 0,27.815 17.7165,0 0,28.8779 -17.7165,0 0,27.815 17.7165,0 0,28.8779 -17.7165,0 0,27.815 17.7165,0 0,28.8779 -17.7165,0 0,27.815 17.7165,0 0,28.8779 -17.7165,0 0,27.815 17.7165,0 0,28.878 -17.7165,0 0,28.08069 -29.7933,0 0,-17.71659 -28.9961,0 0,17.71659 -30.059,0 0,-17.71659 -28.9961,0 0,17.71659 -30.059,0 0,-17.71659 -28.9961,0 0,17.71659 -30.0591,0 0,-17.71659 -28.996,0 0,17.71659 -29.7933,0 z"
       inkscape:connector-curvature="0" />
    <path
       id="box_back"
       style="fill:none;stroke:#ff0000;stroke-width:0.01062992;stroke-miterlimit:4;stroke-dasharray:none"
       d="m 1631.9686,1012.66 0,-992.125986 29.7933,0 0,17.7165 28.996,0 0,-17.7165 30.0591,0 0,17.7165 28.9961,0 0,-17.7165 30.059,0 0,17.7165 28.9961,0 0,-17.7165 30.059,0 0,17.7165 28.9961,0 0,-17.7165 29.7933,0 0,28.0807 17.7165,0 0,28.878 -17.7165,0 0,27.814896 17.7165,0 0,28.878 -17.7165,0 0,27.8149 17.7165,0 0,28.878 -17.7165,0 0,27.815 17.7165,0 0,28.8779 -17.7165,0 0,27.815 17.7165,0 0,28.8779 -17.7165,0 0,27.815 17.7165,0 0,28.8779 -17.7165,0 0,27.815 17.7165,0 0,28.8779 -17.7165,0 0,27.815 17.7165,0 0,28.878 -17.7165,0 0,27.8149 17.7165,0 0,28.878 -17.7165,0 0,27.8149 17.7165,0 0,28.878 -17.7165,0 0,27.8149 17.7165,0 0,28.878 -17.7165,0 0,27.815 17.7165,0 0,28.8779 -17.7165,0 0,27.815 17.7165,0 0,28.8779 -17.7165,0 0,27.815 17.7165,0 0,28.8779 -17.7165,0 0,27.815 17.7165,0 0,28.878 -17.7165,0 0,27.8149 17.7165,0 0,28.878 -17.7165,0 0,27.8149 17.7165,0 0,28.878 -17.7165,0 0,28.08069 -29.7933,0 0,-17.71649 -28.9961,0 0,17.71649 -30.059,0 0,-17.71649 -28.9961,0 0,17.71649 -30.059,0 0,-17.71649 -28.9961,0 0,17.71649 -30.0591,0 0,-17.71649 -28.996,0 0,17.71649 -29.7933,0 z"
       inkscape:connector-curvature="0" />
  </g>
</svg>
