<?xml version="1.0" encoding="UTF-8" standalone="no"?>
<!-- Created with Inkscape (http://www.inkscape.org/) -->

<svg
   xmlns:dc="http://purl.org/dc/elements/1.1/"
   xmlns:cc="http://creativecommons.org/ns#"
   xmlns:rdf="http://www.w3.org/1999/02/22-rdf-syntax-ns#"
   xmlns:svg="http://www.w3.org/2000/svg"
   xmlns="http://www.w3.org/2000/svg"
   xmlns:sodipodi="http://sodipodi.sourceforge.net/DTD/sodipodi-0.dtd"
   xmlns:inkscape="http://www.inkscape.org/namespaces/inkscape"
   width="600mm"
   height="300mm"
   viewBox="0 0 2125.9843 1062.9921"
   id="svg6242"
   version="1.1"
   inkscape:version="0.91 r13725"
   sodipodi:docname="8_Coffret_grands_parents_5.svg">
  <defs
     id="defs6244" />
  <sodipodi:namedview
     id="base"
     pagecolor="#ffffff"
     bordercolor="#666666"
     borderopacity="1.0"
     inkscape:pageopacity="0.0"
     inkscape:pageshadow="2"
     inkscape:zoom="0.49497475"
     inkscape:cx="983.73927"
     inkscape:cy="550.68437"
     inkscape:document-units="mm"
     inkscape:current-layer="layer1"
     showgrid="false"
     inkscape:window-width="1920"
     inkscape:window-height="1013"
     inkscape:window-x="-9"
     inkscape:window-y="-9"
     inkscape:window-maximized="1" />
  <metadata
     id="metadata6247">
    <rdf:RDF>
      <cc:Work
         rdf:about="">
        <dc:format>image/svg+xml</dc:format>
        <dc:type
           rdf:resource="http://purl.org/dc/dcmitype/StillImage" />
        <dc:title></dc:title>
      </cc:Work>
    </rdf:RDF>
  </metadata>
  <g
     inkscape:label="Calque 1"
     inkscape:groupmode="layer"
     id="layer1"
     transform="translate(0,10.629923)">
    <rect
       style="fill:none;fill-opacity:1;stroke:#ff0000;stroke-width:0.01062992;stroke-miterlimit:4;stroke-dasharray:none;stroke-opacity:1"
       id="rect6814"
       width="708.64673"
       height="992.11133"
       x="-720.94092"
       y="57.718998"
       transform="matrix(0,-1,1,0,0,0)" />
    <rect
       style="fill:none;fill-opacity:1;stroke:#ff0000;stroke-width:0.01062992;stroke-miterlimit:4;stroke-dasharray:none;stroke-opacity:1"
       id="rect6814-3"
       width="708.64679"
       height="992.11145"
       x="-718.11414"
       y="1109.6588"
       transform="matrix(0,-1,1,0,0,0)" />
    <text
       xml:space="preserve"
       style="font-style:normal;font-weight:normal;font-size:40px;line-height:125%;font-family:sans-serif;letter-spacing:0px;word-spacing:0px;fill:#000000;fill-opacity:1;stroke:none;stroke-width:0.01062992;stroke-linecap:butt;stroke-linejoin:miter;stroke-opacity:1;stroke-miterlimit:4;stroke-dasharray:none"
       x="374.28571"
       y="552.36206"
       id="text8008"
       sodipodi:linespacing="125%"><tspan
         sodipodi:role="line"
         id="tspan8010"
         x="374.28571"
         y="552.36206"
         style="font-style:normal;font-variant:normal;font-weight:normal;font-stretch:normal;font-size:75.00000763px;font-family:'French Script MT';-inkscape-font-specification:'French Script MT';stroke-width:0.01062992;stroke-miterlimit:4;stroke-dasharray:none">Manou &amp; Papé</tspan></text>
    <text
       xml:space="preserve"
       style="font-style:normal;font-weight:normal;font-size:40px;line-height:125%;font-family:sans-serif;letter-spacing:0px;word-spacing:0px;fill:#000000;fill-opacity:1;stroke:none;stroke-width:0.01062992;stroke-linecap:butt;stroke-linejoin:miter;stroke-opacity:1;stroke-miterlimit:4;stroke-dasharray:none"
       x="1397.2986"
       y="545.80219"
       id="text8008-2"
       sodipodi:linespacing="125%"><tspan
         sodipodi:role="line"
         id="tspan8010-4"
         x="1397.2986"
         y="545.80219"
         style="font-style:normal;font-variant:normal;font-weight:normal;font-stretch:normal;font-size:75.00000763px;font-family:'French Script MT';-inkscape-font-specification:'French Script MT';stroke-width:0.01062992;stroke-miterlimit:4;stroke-dasharray:none">Mamina &amp; Bbasidi</tspan></text>
    <path
       id="box_font"
       style="fill:none;stroke:#ff0000;stroke-width:0.01062992;stroke-miterlimit:4;stroke-dasharray:none"
       d="m 2067.4703,1026.0697 -992.1261,0 0,-29.79333 17.7165,0 0,-28.996 -17.7165,0 0,-30.0591 17.7165,0 0,-28.996 -17.7165,0 0,-30.0591 17.7165,0 0,-28.9961 -17.7165,0 0,-30.059 17.7165,0 0,-28.9961 -17.7165,0 0,-29.7933 28.0807,0 0,-17.7165 28.8779,0 0,17.7165 27.815,0 0,-17.7165 28.878,0 0,17.7165 27.8149,0 0,-17.7165 28.878,0 0,17.7165 27.815,0 0,-17.7165 28.8779,0 0,17.7165 27.815,0 0,-17.7165 28.8779,0 0,17.7165 27.815,0 0,-17.7165 28.878,0 0,17.7165 27.8149,0 0,-17.7165 28.878,0 0,17.7165 27.8149,0 0,-17.7165 28.878,0 0,17.7165 27.815,0 0,-17.7165 28.8779,0 0,17.7165 27.815,0 0,-17.7165 28.8779,0 0,17.7165 27.815,0 0,-17.7165 28.878,0 0,17.7165 27.8149,0 0,-17.7165 28.878,0 0,17.7165 27.8149,0 0,-17.7165 28.878,0 0,17.7165 27.8149,0 0,-17.7165 28.878,0 0,17.7165 27.815,0 0,-17.7165 28.8779,0 0,17.7165 27.815,0 0,-17.7165 28.8779,0 0,17.7165 27.815,0 0,-17.7165 28.878,0 0,17.7165 28.0807,0 0,29.7933 -17.7165,0 0,28.9961 17.7165,0 0,30.059 -17.7165,0 0,28.9961 17.7165,0 0,30.0591 -17.7165,0 0,28.996 17.7165,0 0,30.0591 -17.7165,0 0,28.996 17.7165,0 0,29.79333 z"
       inkscape:connector-curvature="0" />
    <path
       id="box_back"
       style="fill:none;stroke:#ff0000;stroke-width:0.01062992;stroke-miterlimit:4;stroke-dasharray:none"
       d="m 1007.5908,1024.7282 -992.12614,0 0,-29.79326 17.7165,0 0,-28.996 -17.7165,0 0,-30.0591 17.7165,0 0,-28.996 -17.7165,0 0,-30.0591 17.7165,0 0,-28.9961 -17.7165,0 0,-30.059 17.7165,0 0,-28.9961 -17.7165,0 0,-29.7933 28.0807,0 0,-17.7165 28.877899,0 0,17.7165 27.815001,0 0,-17.7165 28.878,0 0,17.7165 27.8149,0 0,-17.7165 28.8781,0 0,17.7165 27.8149,0 0,-17.7165 28.878,0 0,17.7165 27.8149,0 0,-17.7165 28.878,0 0,17.7165 27.815,0 0,-17.7165 28.8779,0 0,17.7165 27.815,0 0,-17.7165 28.8779,0 0,17.7165 27.815,0 0,-17.7165 28.8779,0 0,17.7165 27.815,0 0,-17.7165 28.878,0 0,17.7165 27.8149,0 0,-17.7165 28.878,0 0,17.7165 27.8149,0 0,-17.7165 28.878,0 0,17.7165 27.8149,0 0,-17.7165 28.878,0 0,17.7165 27.815,0 0,-17.7165 28.8779,0 0,17.7165 27.815,0 0,-17.7165 28.8779,0 0,17.7165 27.815,0 0,-17.7165 28.8779,0 0,17.7165 27.815,0 0,-17.7165 28.8779,0 0,17.7165 27.8151,0 0,-17.7165 28.87805,0 0,17.7165 28.08059,0 0,29.7933 -17.71649,0 0,28.9961 17.71649,0 0,30.059 -17.71649,0 0,28.9961 17.71649,0 0,30.0591 -17.71649,0 0,28.996 17.71649,0 0,30.0591 -17.71649,0 0,28.996 17.71649,0 0,29.79326 z"
       inkscape:connector-curvature="0" />
  </g>
</svg>
