<?xml version="1.0" encoding="UTF-8" standalone="no"?>
<!-- Created with Inkscape (http://www.inkscape.org/) -->

<svg
   xmlns:dc="http://purl.org/dc/elements/1.1/"
   xmlns:cc="http://creativecommons.org/ns#"
   xmlns:rdf="http://www.w3.org/1999/02/22-rdf-syntax-ns#"
   xmlns:svg="http://www.w3.org/2000/svg"
   xmlns="http://www.w3.org/2000/svg"
   xmlns:sodipodi="http://sodipodi.sourceforge.net/DTD/sodipodi-0.dtd"
   xmlns:inkscape="http://www.inkscape.org/namespaces/inkscape"
   width="600mm"
   height="300mm"
   viewBox="0 0 2125.9843 1062.9921"
   id="svg5655"
   version="1.1"
   inkscape:version="0.91 r13725"
   sodipodi:docname="8_Coffret_grands_parents_4.svg">
  <sodipodi:namedview
     id="base"
     pagecolor="#ffffff"
     bordercolor="#666666"
     borderopacity="1.0"
     inkscape:pageopacity="0.0"
     inkscape:pageshadow="2"
     inkscape:zoom="0.35"
     inkscape:cx="1100.7143"
     inkscape:cy="402.85714"
     inkscape:document-units="mm"
     inkscape:current-layer="layer1"
     showgrid="false"
     inkscape:window-width="1920"
     inkscape:window-height="1013"
     inkscape:window-x="-9"
     inkscape:window-y="-9"
     inkscape:window-maximized="1" />
  <defs
     id="defs5657" />
  <metadata
     id="metadata5660">
    <rdf:RDF>
      <cc:Work
         rdf:about="">
        <dc:format>image/svg+xml</dc:format>
        <dc:type
           rdf:resource="http://purl.org/dc/dcmitype/StillImage" />
        <dc:title></dc:title>
      </cc:Work>
    </rdf:RDF>
  </metadata>
  <g
     transform="translate(0,10.629923)"
     id="layer1"
     inkscape:groupmode="layer"
     inkscape:label="Calque 1">
    <path
       id="box_bottom"
       style="fill:none;stroke:#ff0000;stroke-width:0.01062992;stroke-miterlimit:4;stroke-dasharray:none"
       d="m 14.758109,1013.7737 0,-28.6122 17.71654,0 0,-27.815 -17.71654,0 0,-28.8779 17.71654,0 0,-27.815 -17.71654,0 0,-28.8779 17.71654,0 0,-27.815 -17.71654,0 0,-28.8779 17.71654,0 0,-27.815 -17.71654,0 0,-28.878 17.71654,0 0,-27.8149 -17.71654,0 0,-28.878 17.71654,0 0,-27.8149 -17.71654,0 0,-28.878 17.71654,0 0,-27.8149 -17.71654,0 0,-28.878 17.71654,0 0,-27.815 -17.71654,0 0,-28.8779 17.71654,0 0,-27.815 -17.71654,0 0,-28.8779 17.71654,0 0,-27.815 -17.71654,0 0,-28.8779 17.71654,0 0,-27.815 -17.71654,0 0,-28.878 17.71654,0 0,-27.8149 -17.71654,0 0,-28.878 17.71654,0 0,-27.8149 -17.71654,0 0,-28.878 17.71654,0 0,-27.8149 -17.71654,0 0,-28.878 17.71654,0 0,-27.815 -17.71654,0 0,-28.8779 17.71654,0 0,-27.815 -17.71654,0 0,-28.877895 17.71654,0 0,-27.815 -17.71654,0 0,-28.6122 28.61221,0 0,17.7165 27.81496,0 0,-17.7165 28.877951,0 0,17.7165 27.81495,0 0,-17.7165 28.878,0 0,17.7165 27.8149,0 0,-17.7165 28.878,0 0,17.7165 27.8149,0 0,-17.7165 28.878,0 0,17.7165 27.815,0 0,-17.7165 28.8779,0 0,17.7165 27.815,0 0,-17.7165 28.8779,0 0,17.7165 27.815,0 0,-17.7165 28.8779,0 0,17.7165 27.815,0 0,-17.7165 28.8779,0 0,17.7165 27.815,0 0,-17.7165 28.878,0 0,17.7165 27.8149,0 0,-17.7165 28.878,0 0,17.7165 27.8149,0 0,-17.7165 28.878,0 0,17.7165 27.8149,0 0,-17.7165 28.6122,0 0,28.6122 -17.7165,0 0,27.815 17.7165,0 0,28.877895 -17.7165,0 0,27.815 17.7165,0 0,28.8779 -17.7165,0 0,27.815 17.7165,0 0,28.878 -17.7165,0 0,27.8149 17.7165,0 0,28.878 -17.7165,0 0,27.8149 17.7165,0 0,28.878 -17.7165,0 0,27.8149 17.7165,0 0,28.878 -17.7165,0 0,27.815 17.7165,0 0,28.8779 -17.7165,0 0,27.815 17.7165,0 0,28.8779 -17.7165,0 0,27.815 17.7165,0 0,28.8779 -17.7165,0 0,27.815 17.7165,0 0,28.878 -17.7165,0 0,27.8149 17.7165,0 0,28.878 -17.7165,0 0,27.8149 17.7165,0 0,28.878 -17.7165,0 0,27.8149 17.7165,0 0,28.878 -17.7165,0 0,27.815 17.7165,0 0,28.8779 -17.7165,0 0,27.815 17.7165,0 0,28.8779 -17.7165,0 0,27.815 17.7165,0 0,28.8779 -17.7165,0 0,27.815 17.7165,0 0,28.6122 -28.6122,0 0,-17.7165 -27.8149,0 0,17.7165 -28.878,0 0,-17.7165 -27.8149,0 0,17.7165 -28.878,0 0,-17.7165 -27.8149,0 0,17.7165 -28.878,0 0,-17.7165 -27.815,0 0,17.7165 -28.8779,0 0,-17.7165 -27.815,0 0,17.7165 -28.8779,0 0,-17.7165 -27.815,0 0,17.7165 -28.8779,0 0,-17.7165 -27.815,0 0,17.7165 -28.8779,0 0,-17.7165 -27.815,0 0,17.7165 -28.878,0 0,-17.7165 -27.8149,0 0,17.7165 -28.878,0 0,-17.7165 -27.8149,0 0,17.7165 -28.878,0 0,-17.7165 -27.81495,0 0,17.7165 -28.877951,0 0,-17.7165 -27.81496,0 0,17.7165 -28.61221,0 z"
       inkscape:connector-curvature="0" />
    <path
       id="box_font"
       style="fill:none;stroke:#ff0000;stroke-width:0.01062992;stroke-miterlimit:4;stroke-dasharray:none"
       d="m 749.70751,1006.7885 0,-992.126043 29.7933,0 0,17.71654 28.9961,0 0,-17.71654 30.059,0 0,17.71654 28.9961,0 0,-17.71654 30.059,0 0,17.71654 28.9961,0 0,-17.71654 30.059,0 0,17.71654 28.9961,0 0,-17.71654 29.79329,0 0,28.08071 17.7166,0 0,28.87796 -17.7166,0 0,27.81496 17.7166,0 0,28.877953 -17.7166,0 0,27.81496 17.7166,0 0,28.87795 -17.7166,0 0,27.81496 17.7166,0 0,28.87796 -17.7166,0 0,27.81496 17.7166,0 0,28.87795 -17.7166,0 0,27.81496 17.7166,0 0,28.87795 -17.7166,0 0,27.81496 17.7166,0 0,28.87796 -17.7166,0 0,27.81496 17.7166,0 0,28.87795 -17.7166,0 0,27.81496 17.7166,0 0,28.87795 -17.7166,0 0,27.81496 17.7166,0 0,28.87796 -17.7166,0 0,27.81496 17.7166,0 0,28.87795 -17.7166,0 0,27.81496 17.7166,0 0,28.87795 -17.7166,0 0,27.81496 17.7166,0 0,28.87796 -17.7166,0 0,27.81496 17.7166,0 0,28.87795 -17.7166,0 0,27.81496 17.7166,0 0,28.87791 -17.7166,0 0,27.815 17.7166,0 0,28.878 -17.7166,0 0,27.8149 17.7166,0 0,28.878 -17.7166,0 0,28.08073 -29.79329,0 0,-17.71663 -28.9961,0 0,17.71663 -30.059,0 0,-17.71663 -28.9961,0 0,17.71663 -30.059,0 0,-17.71663 -28.9961,0 0,17.71663 -30.059,0 0,-17.71663 -28.9961,0 0,17.71663 -29.7933,0 z"
       inkscape:connector-curvature="0" />
    <path
       id="box_back"
       style="fill:none;stroke:#ff0000;stroke-width:0.01062992;stroke-miterlimit:4;stroke-dasharray:none"
       d="m 1055.4218,1008.0594 0,-992.125981 29.7933,0 0,17.7165 28.9961,0 0,-17.7165 30.059,0 0,17.7165 28.9961,0 0,-17.7165 30.059,0 0,17.7165 28.9961,0 0,-17.7165 30.059,0 0,17.7165 28.9961,0 0,-17.7165 29.7933,0 0,28.0807 17.7166,0 0,28.878 -17.7166,0 0,27.814901 17.7166,0 0,28.878 -17.7166,0 0,27.8149 17.7166,0 0,28.878 -17.7166,0 0,27.815 17.7166,0 0,28.8779 -17.7166,0 0,27.815 17.7166,0 0,28.8779 -17.7166,0 0,27.815 17.7166,0 0,28.8779 -17.7166,0 0,27.815 17.7166,0 0,28.878 -17.7166,0 0,27.8149 17.7166,0 0,28.878 -17.7166,0 0,27.8149 17.7166,0 0,28.878 -17.7166,0 0,27.8149 17.7166,0 0,28.878 -17.7166,0 0,27.815 17.7166,0 0,28.8779 -17.7166,0 0,27.815 17.7166,0 0,28.8779 -17.7166,0 0,27.815 17.7166,0 0,28.8779 -17.7166,0 0,27.815 17.7166,0 0,28.8779 -17.7166,0 0,27.815 17.7166,0 0,28.878 -17.7166,0 0,27.8149 17.7166,0 0,28.878 -17.7166,0 0,27.8149 17.7166,0 0,28.878 -17.7166,0 0,28.08068 -29.7933,0 0,-17.71648 -28.9961,0 0,17.71648 -30.059,0 0,-17.71648 -28.9961,0 0,17.71648 -30.059,0 0,-17.71648 -28.9961,0 0,17.71648 -30.059,0 0,-17.71648 -28.9961,0 0,17.71648 -29.7933,0 z"
       inkscape:connector-curvature="0" />
    <path
       id="box_bottom-4"
       style="fill:none;stroke:#ff0000;stroke-width:0.01062992;stroke-miterlimit:4;stroke-dasharray:none"
       d="m 1360.5008,1008.6728 0,-28.61218 17.7165,0 0,-27.815 -17.7165,0 0,-28.878 17.7165,0 0,-27.8149 -17.7165,0 0,-28.878 17.7165,0 0,-27.8149 -17.7165,0 0,-28.878 17.7165,0 0,-27.815 -17.7165,0 0,-28.8779 17.7165,0 0,-27.815 -17.7165,0 0,-28.8779 17.7165,0 0,-27.815 -17.7165,0 0,-28.8779 17.7165,0 0,-27.815 -17.7165,0 0,-28.878 17.7165,0 0,-27.8149 -17.7165,0 0,-28.878 17.7165,0 0,-27.815 -17.7165,0 0,-28.8779 17.7165,0 0,-27.815 -17.7165,0 0,-28.8779 17.7165,0 0,-27.815 -17.7165,0 0,-28.878 17.7165,0 0,-27.8149 -17.7165,0 0,-28.878 17.7165,0 0,-27.8149 -17.7165,0 0,-28.878 17.7165,0 0,-27.8149 -17.7165,0 0,-28.878 17.7165,0 0,-27.8149 -17.7165,0 0,-28.878 17.7165,0 0,-27.81504 -17.7165,0 0,-28.877898 17.7165,0 0,-27.81496 -17.7165,0 0,-28.6123 28.6122,0 0,17.7166 27.8149,0 0,-17.7166 28.878,0 0,17.7166 27.8149,0 0,-17.7166 28.878,0 0,17.7166 27.8149,0 0,-17.7166 28.878,0 0,17.7166 27.815,0 0,-17.7166 28.8779,0 0,17.7166 27.815,0 0,-17.7166 28.8779,0 0,17.7166 27.815,0 0,-17.7166 28.8779,0 0,17.7166 27.815,0 0,-17.7166 28.878,0 0,17.7166 27.8149,0 0,-17.7166 28.878,0 0,17.7166 27.815,0 0,-17.7166 28.878,0 0,17.7166 27.8149,0 0,-17.7166 28.878,0 0,17.7166 27.815,0 0,-17.7166 28.8779,0 0,17.7166 27.815,0 0,-17.7166 28.6122,0 0,28.6123 -17.7166,0 0,27.81496 17.7166,0 0,28.877898 -17.7166,0 0,27.81504 17.7166,0 0,28.878 -17.7166,0 0,27.8149 17.7166,0 0,28.878 -17.7166,0 0,27.8149 17.7166,0 0,28.878 -17.7166,0 0,27.8149 17.7166,0 0,28.878 -17.7166,0 0,27.8149 17.7166,0 0,28.878 -17.7166,0 0,27.815 17.7166,0 0,28.8779 -17.7166,0 0,27.815 17.7166,0 0,28.8779 -17.7166,0 0,27.815 17.7166,0 0,28.878 -17.7166,0 0,27.8149 17.7166,0 0,28.878 -17.7166,0 0,27.815 17.7166,0 0,28.8779 -17.7166,0 0,27.815 17.7166,0 0,28.8779 -17.7166,0 0,27.815 17.7166,0 0,28.8779 -17.7166,0 0,27.815 17.7166,0 0,28.878 -17.7166,0 0,27.8149 17.7166,0 0,28.878 -17.7166,0 0,27.8149 17.7166,0 0,28.878 -17.7166,0 0,27.815 17.7166,0 0,28.61218 -28.6122,0 0,-17.71658 -27.815,0 0,17.71658 -28.8779,0 0,-17.71658 -27.815,0 0,17.71658 -28.878,0 0,-17.71658 -27.8149,0 0,17.71658 -28.878,0 0,-17.71658 -27.815,0 0,17.71658 -28.878,0 0,-17.71658 -27.8149,0 0,17.71658 -28.878,0 0,-17.71658 -27.815,0 0,17.71658 -28.8779,0 0,-17.71658 -27.815,0 0,17.71658 -28.8779,0 0,-17.71658 -27.815,0 0,17.71658 -28.8779,0 0,-17.71658 -27.815,0 0,17.71658 -28.878,0 0,-17.71658 -27.8149,0 0,17.71658 -28.878,0 0,-17.71658 -27.8149,0 0,17.71658 -28.878,0 0,-17.71658 -27.8149,0 0,17.71658 -28.6122,0 z"
       inkscape:connector-curvature="0" />
  </g>
</svg>
