<?xml version="1.0" encoding="UTF-8" standalone="no"?>
<!-- Created with Inkscape (http://www.inkscape.org/) -->

<svg
   xmlns:dc="http://purl.org/dc/elements/1.1/"
   xmlns:cc="http://creativecommons.org/ns#"
   xmlns:rdf="http://www.w3.org/1999/02/22-rdf-syntax-ns#"
   xmlns:svg="http://www.w3.org/2000/svg"
   xmlns="http://www.w3.org/2000/svg"
   xmlns:xlink="http://www.w3.org/1999/xlink"
   xmlns:sodipodi="http://sodipodi.sourceforge.net/DTD/sodipodi-0.dtd"
   xmlns:inkscape="http://www.inkscape.org/namespaces/inkscape"
   width="600mm"
   height="300mm"
   viewBox="0 0 2125.9843 1062.9921"
   id="svg7442"
   version="1.1"
   inkscape:version="0.91 r13725"
   sodipodi:docname="8_Coffret_grands_parents_7.svg">
  <sodipodi:namedview
     id="base"
     pagecolor="#ffffff"
     bordercolor="#666666"
     borderopacity="1.0"
     inkscape:pageopacity="0.0"
     inkscape:pageshadow="2"
     inkscape:zoom="0.35"
     inkscape:cx="1393.1865"
     inkscape:cy="461.34148"
     inkscape:document-units="mm"
     inkscape:current-layer="layer1"
     showgrid="false"
     inkscape:window-width="1920"
     inkscape:window-height="1013"
     inkscape:window-x="-9"
     inkscape:window-y="-9"
     inkscape:window-maximized="1" />
  <defs
     id="defs7444">
    <linearGradient
       inkscape:collect="always"
       id="linearGradient8090">
      <stop
         style="stop-color:#000000;stop-opacity:1;"
         offset="0"
         id="stop8092" />
      <stop
         style="stop-color:#000000;stop-opacity:0;"
         offset="1"
         id="stop8094" />
    </linearGradient>
    <linearGradient
       inkscape:collect="always"
       xlink:href="#linearGradient8090"
       id="linearGradient8108"
       x1="2344.8186"
       y1="-173.27843"
       x2="2384.1643"
       y2="-173.27843"
       gradientUnits="userSpaceOnUse" />
    <linearGradient
       inkscape:collect="always"
       xlink:href="#linearGradient8090"
       id="linearGradient8110"
       x1="2510.7227"
       y1="-170.75359"
       x2="2522.3132"
       y2="-170.75359"
       gradientUnits="userSpaceOnUse" />
  </defs>
  <metadata
     id="metadata7447">
    <rdf:RDF>
      <cc:Work
         rdf:about="">
        <dc:format>image/svg+xml</dc:format>
        <dc:type
           rdf:resource="http://purl.org/dc/dcmitype/StillImage" />
        <dc:title></dc:title>
      </cc:Work>
    </rdf:RDF>
  </metadata>
  <g
     transform="translate(0,10.629923)"
     id="layer1"
     inkscape:groupmode="layer"
     inkscape:label="Calque 1">
    <path
       id="box_bottom"
       style="fill:none;stroke:#ff0000;stroke-width:0.01062992;stroke-miterlimit:4;stroke-dasharray:none"
       d="m 9.0437491,1005.2023 0,-28.61221 17.7164999,0 0,-27.815 -17.7164999,0 0,-28.8779 17.7164999,0 0,-27.815 -17.7164999,0 0,-28.878 17.7164999,0 0,-27.8149 -17.7164999,0 0,-28.878 17.7164999,0 0,-27.8149 -17.7164999,0 0,-28.878 17.7164999,0 0,-27.815 -17.7164999,0 0,-28.8779 17.7164999,0 0,-27.815 -17.7164999,0 0,-28.8779 17.7164999,0 0,-27.815 -17.7164999,0 0,-28.8779 17.7164999,0 0,-27.815 -17.7164999,0 0,-28.8779 17.7164999,0 0,-27.815 -17.7164999,0 0,-28.878 17.7164999,0 0,-27.8149 -17.7164999,0 0,-28.878 17.7164999,0 0,-27.8149 -17.7164999,0 0,-28.878 17.7164999,0 0,-27.8149 -17.7164999,0 0,-28.878 17.7164999,0 0,-27.815 -17.7164999,0 0,-28.8779 17.7164999,0 0,-27.815 -17.7164999,0 0,-28.8779 17.7164999,0 0,-27.815 -17.7164999,0 0,-28.8779 17.7164999,0 0,-27.815004 -17.7164999,0 0,-28.878 17.7164999,0 0,-27.8149 -17.7164999,0 0,-28.6122 28.6121999,0 0,17.7165 27.815,0 0,-17.7165 28.8779,0 0,17.7165 27.815001,0 0,-17.7165 28.8779,0 0,17.7165 27.815,0 0,-17.7165 28.8779,0 0,17.7165 27.815,0 0,-17.7165 28.878,0 0,17.7165 27.8149,0 0,-17.7165 28.878,0 0,17.7165 27.8149,0 0,-17.7165 28.878,0 0,17.7165 27.8149,0 0,-17.7165 28.878,0 0,17.7165 27.815,0 0,-17.7165 28.8779,0 0,17.7165 27.815,0 0,-17.7165 28.8779,0 0,17.7165 27.815,0 0,-17.7165 28.8779,0 0,17.7165 27.815,0 0,-17.7165 28.878,0 0,17.7165 27.8149,0 0,-17.7165 28.6122,0 0,28.6122 -17.7165,0 0,27.8149 17.7165,0 0,28.878 -17.7165,0 0,27.815004 17.7165,0 0,28.8779 -17.7165,0 0,27.815 17.7165,0 0,28.8779 -17.7165,0 0,27.815 17.7165,0 0,28.8779 -17.7165,0 0,27.815 17.7165,0 0,28.878 -17.7165,0 0,27.8149 17.7165,0 0,28.878 -17.7165,0 0,27.8149 17.7165,0 0,28.878 -17.7165,0 0,27.8149 17.7165,0 0,28.878 -17.7165,0 0,27.815 17.7165,0 0,28.8779 -17.7165,0 0,27.815 17.7165,0 0,28.8779 -17.7165,0 0,27.815 17.7165,0 0,28.8779 -17.7165,0 0,27.815 17.7165,0 0,28.8779 -17.7165,0 0,27.815 17.7165,0 0,28.878 -17.7165,0 0,27.8149 17.7165,0 0,28.878 -17.7165,0 0,27.8149 17.7165,0 0,28.878 -17.7165,0 0,27.815 17.7165,0 0,28.8779 -17.7165,0 0,27.815 17.7165,0 0,28.61221 -28.6122,0 0,-17.71661 -27.8149,0 0,17.71661 -28.878,0 0,-17.71661 -27.815,0 0,17.71661 -28.8779,0 0,-17.71661 -27.815,0 0,17.71661 -28.8779,0 0,-17.71661 -27.815,0 0,17.71661 -28.8779,0 0,-17.71661 -27.815,0 0,17.71661 -28.878,0 0,-17.71661 -27.8149,0 0,17.71661 -28.878,0 0,-17.71661 -27.8149,0 0,17.71661 -28.878,0 0,-17.71661 -27.8149,0 0,17.71661 -28.878,0 0,-17.71661 -27.815,0 0,17.71661 -28.8779,0 0,-17.71661 -27.815,0 0,17.71661 -28.8779,0 0,-17.71661 -27.815001,0 0,17.71661 -28.8779,0 0,-17.71661 -27.815,0 0,17.71661 -28.6121999,0 z"
       inkscape:connector-curvature="0" />
    <path
       id="box_left_side"
       style="fill:none;stroke:#ff0000;stroke-width:0.01062992;stroke-miterlimit:4;stroke-dasharray:none"
       d="m 1310.7114,54.049152 0,637.795298 -29.2618,0 0,17.7165 -30.059,0 0,-17.7165 -28.9961,0 0,17.7165 -30.059,0 0,-17.7165 -28.9961,0 0,17.7165 -30.0591,0 0,-17.7165 -28.996,0 0,17.7165 -30.0591,0 0,-17.7165 -29.2618,0 0,-10.36419 -17.7165,0 0,-28.878 17.7165,0 0,-27.8149 -17.7165,0 0,-28.8779 17.7165,0 0,-27.815 -17.7165,0 0,-28.878 17.7165,0 0,-27.8149 -17.7165,0 0,-28.87801 17.7165,0 0,-27.8149 -17.7165,0 0,-28.878 17.7165,0 0,-27.8149 -17.7165,0 0,-28.878 17.7165,0 0,-27.815 -17.7165,0 0,-28.8779 17.7165,0 0,-27.815 -17.7165,0 0,-28.8779 17.7165,0 0,-27.815 -17.7165,0 0,-28.8779 17.7165,0 0,-27.815 -17.7165,0 0,-28.878 17.7165,0 0,-27.8149 -17.7165,0 0,-28.877998 17.7165,0 0,-27.8149 -17.7165,0 0,-28.878 17.7165,0 0,-10.3642 29.2618,0 0,-17.71649966 30.0591,0 0,17.71649966 28.996,0 0,-17.71649966 30.0591,0 0,17.71649966 28.9961,0 0,-17.71649966 30.059,0 0,17.71649966 28.9961,0 0,-17.71649966 30.059,0 0,17.71649966 29.2618,0 z"
       inkscape:connector-curvature="0" />
    <path
       id="box_right_side"
       style="fill:none;stroke:#ff0000;stroke-width:0.01062992;stroke-miterlimit:4;stroke-dasharray:none"
       d="m 793.51251,738.54879 637.79509,0 0,29.26177 17.7166,0 0,30.059 -17.7166,0 0,28.9961 17.7166,0 0,30.059 -17.7166,0 0,28.9961 17.7166,0 0,30.0591 -17.7166,0 0,28.996 17.7166,0 0,30.0591 -17.7166,0 0,29.26184 -10.3641,0 0,17.7165 -28.878,0 0,-17.7165 -27.8149,0 0,17.7165 -28.8779,0 0,-17.7165 -27.815,0 0,17.7165 -28.8779,0 0,-17.7165 -27.815,0 0,17.7165 -28.8779,0 0,-17.7165 -27.815,0 0,17.7165 -28.8779,0 0,-17.7165 -27.815,0 0,17.7165 -28.878,0 0,-17.7165 -27.8149,0 0,17.7165 -28.878,0 0,-17.7165 -27.8149,0 0,17.7165 -28.87799,0 0,-17.7165 -27.8149,0 0,17.7165 -28.878,0 0,-17.7165 -27.815,0 0,17.7165 -28.8779,0 0,-17.7165 -27.815,0 0,17.7165 -28.8779,0 0,-17.7165 -27.815,0 0,17.7165 -28.8779,0 0,-17.7165 -10.3642,0 0,-29.26184 -17.7165,0 0,-30.0591 17.7165,0 0,-28.996 -17.7165,0 0,-30.0591 17.7165,0 0,-28.9961 -17.7165,0 0,-30.059 17.7165,0 0,-28.9961 -17.7165,0 0,-30.059 17.7165,0 0,-29.26177 z"
       inkscape:connector-curvature="0" />
    <path
       inkscape:connector-curvature="0"
       d="m 1639.6289,302.26649 0,-20.4246 10.63,0 0,-19.8931 -10.63,0 0,-20.6019 10.63,0 0,-19.8931 -10.63,0 0,-20.6018 10.63,0 0,-19.8931 -10.63,0 0,-20.4247 20.4247,0 0,10.6299 19.8931,0 0,-10.6299 20.6018,0 0,10.6299 19.8932,0 0,-10.6299 20.6018,0 0,10.6299 19.8931,0 0,-10.6299 20.4247,0 0,20.4247 -10.63,0 0,19.8931 10.63,0 0,20.6018 -10.63,0 0,19.8931 10.63,0 0,20.6019 -10.63,0 0,19.8931 10.63,0 0,20.4246 -20.4247,0 0,-10.6299 -19.8931,0 0,10.6299 -20.6018,0 0,-10.6299 -19.8932,0 0,10.6299 -20.6018,0 0,-10.6299 -19.8931,0 0,10.6299 -20.4247,0 z"
       style="fill:none;stroke:#ff0000;stroke-width:0.01062992;stroke-miterlimit:4;stroke-dasharray:none;stroke-opacity:1"
       id="path3875" />
    <path
       inkscape:connector-curvature="0"
       d="m 1639.6289,149.90429 0,-20.4246 10.63,0 0,-19.8932 -10.63,0 0,-20.6018 10.63,0 0,-19.8931 -10.63,0 0,-20.6018 10.63,0 0,-19.8932 -10.63,0 0,-20.4246003 20.4247,0 0,10.6299003 19.8931,0 0,-10.6299003 20.6018,0 0,10.6299003 19.8932,0 0,-10.6299003 20.6018,0 0,10.6299003 19.8931,0 0,-10.6299003 20.4247,0 0,20.4246003 -10.63,0 0,19.8932 10.63,0 0,20.6018 -10.63,0 0,19.8931 10.63,0 0,20.6018 -10.63,0 0,19.8932 10.63,0 0,20.4246 -20.4247,0 0,-10.6299 -19.8931,0 0,10.6299 -20.6018,0 0,-10.6299 -19.8932,0 0,10.6299 -20.6018,0 0,-10.6299 -19.8931,0 0,10.6299 -20.4247,0 z"
       style="fill:none;stroke:#ff0000;stroke-width:0.01062992;stroke-miterlimit:4;stroke-dasharray:none;stroke-opacity:1"
       id="path3877" />
    <path
       inkscape:connector-curvature="0"
       d="m 1802.6211,149.90429 0,-20.0703 -10.6299,0 0,-20.6018 10.6299,0 0,-19.8931 -10.6299,0 0,-20.6018 10.6299,0 0,-19.8932 -10.6299,0 0,-20.6018 10.6299,0 0,-20.0703003 24.2717,0 0,10.6299003 23.7401,0 0,-10.6299003 24.4488,0 0,10.6299003 23.7402,0 0,-10.6299003 24.2717,0 0,20.0703003 10.6299,0 0,20.6018 -10.6299,0 0,19.8932 10.6299,0 0,20.6018 -10.6299,0 0,19.8931 10.6299,0 0,20.6018 -10.6299,0 0,20.0703 -24.2717,0 0,-10.6299 -23.7402,0 0,10.6299 -24.4488,0 0,-10.6299 -23.7401,0 0,10.6299 -24.2717,0 z"
       style="fill:none;stroke:#ff0000;stroke-width:0.01062992;stroke-miterlimit:4;stroke-dasharray:none;stroke-opacity:1"
       id="path3879" />
    <path
       inkscape:connector-curvature="0"
       d="m 1802.6211,302.26649 0,-20.0703 -10.6299,0 0,-20.6018 10.6299,0 0,-19.8931 -10.6299,0 0,-20.6018 10.6299,0 0,-19.8932 -10.6299,0 0,-20.6018 10.6299,0 0,-20.0703 24.2717,0 0,10.6299 23.7401,0 0,-10.6299 24.4488,0 0,10.6299 23.7402,0 0,-10.6299 24.2717,0 0,20.0703 10.6299,0 0,20.6018 -10.6299,0 0,19.8932 10.6299,0 0,20.6018 -10.6299,0 0,19.8931 10.6299,0 0,20.6018 -10.6299,0 0,20.0703 -24.2717,0 0,-10.6299 -23.7402,0 0,10.6299 -24.4488,0 0,-10.6299 -23.7401,0 0,10.6299 -24.2717,0 z"
       style="fill:none;stroke:#ff0000;stroke-width:0.01062992;stroke-miterlimit:4;stroke-dasharray:none;stroke-opacity:1"
       id="path3881" />
    <path
       inkscape:connector-curvature="0"
       d="m 1954.9833,139.27439 0,-9.4404 -10.6299,0 0,-20.6018 10.6299,0 0,-19.8931 -10.6299,0 0,-20.6018 10.6299,0 0,-19.8932 -10.6299,0 0,-20.6018 10.6299,0 0,-9.4404 23.9174,0 0,-10.6299003 24.4488,0 0,10.6299003 23.7401,0 0,-10.6299003 24.4488,0 0,10.6299003 23.9174,0 0,9.4404 10.6299,0 0,20.6018 -10.6299,0 0,19.8932 10.6299,0 0,20.6018 -10.6299,0 0,19.8931 10.6299,0 0,20.6018 -10.6299,0 0,9.4404 -23.9174,0 0,10.6299 -24.4488,0 0,-10.6299 -23.7401,0 0,10.6299 -24.4488,0 0,-10.6299 -23.9174,0 z"
       style="fill:none;stroke:#ff0000;stroke-width:0.01062992;stroke-miterlimit:4;stroke-dasharray:none;stroke-opacity:1"
       id="path3883" />
    <path
       inkscape:connector-curvature="0"
       d="m 1954.9833,291.63659 0,-9.4404 -10.6299,0 0,-20.6018 10.6299,0 0,-19.8931 -10.6299,0 0,-20.6018 10.6299,0 0,-19.8932 -10.6299,0 0,-20.6018 10.6299,0 0,-9.4404 23.9174,0 0,-10.6299 24.4488,0 0,10.6299 23.7401,0 0,-10.6299 24.4488,0 0,10.6299 23.9174,0 0,9.4404 10.6299,0 0,20.6018 -10.6299,0 0,19.8932 10.6299,0 0,20.6018 -10.6299,0 0,19.8931 10.6299,0 0,20.6018 -10.6299,0 0,9.4404 -23.9174,0 0,10.6299 -24.4488,0 0,-10.6299 -23.7401,0 0,10.6299 -24.4488,0 0,-10.6299 -23.9174,0 z"
       style="fill:none;stroke:#ff0000;stroke-width:0.01062992;stroke-miterlimit:4;stroke-dasharray:none;stroke-opacity:1"
       id="path3885" />
    <text
       sodipodi:linespacing="125%"
       id="text3887"
       y="1740.1884"
       x="-259.48355"
       style="font-style:normal;font-variant:normal;font-weight:normal;font-stretch:normal;font-size:85px;line-height:125%;font-family:sans-serif;-inkscape-font-specification:'sans-serif, Normal';text-align:start;letter-spacing:0px;word-spacing:0px;writing-mode:lr-tb;text-anchor:start;fill:none;fill-opacity:1;stroke:#ff0000;stroke-width:0.01062992;stroke-linecap:butt;stroke-linejoin:miter;stroke-miterlimit:4;stroke-dasharray:none;stroke-opacity:1"
       xml:space="preserve"
       transform="matrix(0,-1,1,0,0,0)"><tspan
         y="1740.1884"
         x="-259.48355"
         id="tspan3889"
         sodipodi:role="line"
         style="stroke:#ff0000;stroke-width:0.01062992;stroke-miterlimit:4;stroke-dasharray:none;stroke-opacity:1">2</tspan></text>
    <text
       sodipodi:linespacing="125%"
       id="text3443"
       y="1718.1464"
       x="-99.383965"
       style="font-style:normal;font-weight:normal;font-size:40px;line-height:125%;font-family:sans-serif;letter-spacing:0px;word-spacing:0px;fill:none;fill-opacity:1;stroke:#ff0000;stroke-width:0.01062992;stroke-linecap:butt;stroke-linejoin:miter;stroke-miterlimit:4;stroke-dasharray:none;stroke-opacity:1"
       xml:space="preserve"
       transform="matrix(0,-1,1,0,0,0)"><tspan
         style="font-style:normal;font-variant:normal;font-weight:normal;font-stretch:normal;font-size:112.5px;line-height:125%;font-family:sans-serif;-inkscape-font-specification:'sans-serif, Normal';text-align:start;writing-mode:lr-tb;text-anchor:start;fill:none;stroke:#ff0000;stroke-width:0.01062992;stroke-miterlimit:4;stroke-dasharray:none;stroke-opacity:1"
         y="1718.1464"
         x="-99.383965"
         id="tspan3445"
         sodipodi:role="line">.</tspan></text>
    <path
       id="box_left_side-4"
       style="fill:none;stroke:#ff0000;stroke-width:0.01062992;stroke-miterlimit:4;stroke-dasharray:none"
       d="m 1011.8505,61.717533 0,637.795397 -29.26167,0 0,17.7165 -30.0592,0 0,-17.7165 -28.996,0 0,17.7165 -30.0591,0 0,-17.7165 -28.996,0 0,17.7165 -30.0591,0 0,-17.7165 -28.9961,0 0,17.7165 -30.059,0 0,-17.7165 -29.26181,0 0,-10.3642 -17.7166,0 0,-28.8778 17.7166,0 0,-27.815 -17.7166,0 0,-28.8779 17.7166,0 0,-27.815 -17.7166,0 0,-28.878 17.7166,0 0,-27.81489 -17.7166,0 0,-28.878 17.7166,0 0,-27.815 -17.7166,0 0,-28.8779 17.7166,0 0,-27.8151 -17.7166,0 0,-28.8779 17.7166,0 0,-27.815 -17.7166,0 0,-28.87791 17.7166,0 0,-27.815 -17.7166,0 0,-28.878 17.7166,0 0,-27.8149 -17.7166,0 0,-28.878 17.7166,0 0,-27.815 -17.7166,0 0,-28.878 17.7166,0 0,-27.8149 -17.7166,0 0,-28.877997 17.7166,0 0,-27.815 -17.7166,0 0,-28.8779 17.7166,0 0,-10.3642 29.26181,0 0,-17.7164997 30.059,0 0,17.7164997 28.9961,0 0,-17.7164997 30.0591,0 0,17.7164997 28.996,0 0,-17.7164997 30.0591,0 0,17.7164997 28.996,0 0,-17.7164997 30.0592,0 0,17.7164997 29.26167,0 z"
       inkscape:connector-curvature="0" />
    <path
       inkscape:connector-curvature="0"
       id="box_right_side-2"
       style="fill:none;stroke:#ff0000;stroke-width:0.01062992;stroke-miterlimit:4;stroke-dasharray:none"
       d="m 1321.7439,653.32083 0,-637.79545 29.2618,0 0,-17.7164999 30.0591,0 0,17.7164999 28.9961,0 0,-17.7164999 30.059,0 0,17.7164999 28.9961,0 0,-17.7164999 30.059,0 0,17.7164999 28.9961,0 0,-17.7164999 30.0591,0 0,17.7164999 29.2618,0 0,10.3642 17.7166,0 0,28.878 -17.7166,0 0,27.8149 17.7166,0 0,28.878 -17.7166,0 0,27.815 17.7166,0 0,28.8779 -17.7166,0 0,27.815 17.7166,0 0,28.878 -17.7166,0 0,27.8149 17.7166,0 0,28.878 -17.7166,0 0,27.8149 17.7166,0 0,28.878 -17.7166,0 0,27.815 17.7166,0 0,28.87793 -17.7166,0 0,27.81491 17.7166,0 0,28.878 -17.7166,0 0,27.8149 17.7166,0 0,28.87801 -17.7166,0 0,27.815 17.7166,0 0,28.8779 -17.7166,0 0,27.81501 17.7166,0 0,28.87789 -17.7166,0 0,27.815 17.7166,0 0,28.87801 -17.7166,0 0,10.3641 -29.2618,0 0,17.71663 -30.0591,0 0,-17.71663 -28.9961,0 0,17.71663 -30.059,0 0,-17.71663 -28.9961,0 0,17.71663 -30.059,0 0,-17.71663 -28.9961,0 0,17.71663 -30.0591,0 0,-17.71663 -29.2618,0 z" />
  </g>
</svg>
