<?xml version="1.0" encoding="UTF-8" standalone="no"?>
<!-- Created with Inkscape (http://www.inkscape.org/) -->

<svg
   xmlns:dc="http://purl.org/dc/elements/1.1/"
   xmlns:cc="http://creativecommons.org/ns#"
   xmlns:rdf="http://www.w3.org/1999/02/22-rdf-syntax-ns#"
   xmlns:svg="http://www.w3.org/2000/svg"
   xmlns="http://www.w3.org/2000/svg"
   xmlns:xlink="http://www.w3.org/1999/xlink"
   xmlns:sodipodi="http://sodipodi.sourceforge.net/DTD/sodipodi-0.dtd"
   xmlns:inkscape="http://www.inkscape.org/namespaces/inkscape"
   width="744.09448819"
   height="1052.3622047"
   id="svg2"
   version="1.1"
   inkscape:version="0.47 r22583"
   sodipodi:docname="pobot-logo.svg"
   inkscape:export-filename="/home/eric/Pictures/pobot-logo.png"
   inkscape:export-xdpi="142.42"
   inkscape:export-ydpi="142.42"
   enable-background="new">
  <defs
     id="defs4">
    <linearGradient
       inkscape:collect="always"
       id="linearGradient6148">
      <stop
         style="stop-color:#9b7463;stop-opacity:1"
         offset="0"
         id="stop6150" />
      <stop
         style="stop-color:#f1d8bd;stop-opacity:1"
         offset="1"
         id="stop6152" />
    </linearGradient>
    <linearGradient
       id="linearGradient6016">
      <stop
         style="stop-color:#b89c90;stop-opacity:1;"
         offset="0"
         id="stop6018" />
      <stop
         style="stop-color:#f2d8bf;stop-opacity:1"
         offset="1"
         id="stop6020" />
    </linearGradient>
    <linearGradient
       id="linearGradient6008"
       inkscape:collect="always">
      <stop
         id="stop6010"
         offset="0"
         style="stop-color:#9b7463;stop-opacity:1" />
      <stop
         id="stop6012"
         offset="1"
         style="stop-color:#f2d8bf;stop-opacity:1" />
    </linearGradient>
    <linearGradient
       inkscape:collect="always"
       id="linearGradient5984">
      <stop
         style="stop-color:#9a7463;stop-opacity:1"
         offset="0"
         id="stop5986" />
      <stop
         style="stop-color:#f2d8bf;stop-opacity:1"
         offset="1"
         id="stop5988" />
    </linearGradient>
    <linearGradient
       inkscape:collect="always"
       id="linearGradient5596">
      <stop
         style="stop-color:#000000;stop-opacity:1;"
         offset="0"
         id="stop5598" />
      <stop
         style="stop-color:#000000;stop-opacity:0;"
         offset="1"
         id="stop5600" />
    </linearGradient>
    <linearGradient
       inkscape:collect="always"
       id="linearGradient4559">
      <stop
         style="stop-color:#430d04;stop-opacity:1"
         offset="0"
         id="stop4561" />
      <stop
         style="stop-color:#c8260d;stop-opacity:1"
         offset="1"
         id="stop4563" />
    </linearGradient>
    <linearGradient
       inkscape:collect="always"
       id="linearGradient4551">
      <stop
         style="stop-color:#480000;stop-opacity:1"
         offset="0"
         id="stop4553" />
      <stop
         style="stop-color:#ae3320;stop-opacity:1"
         offset="1"
         id="stop4555" />
    </linearGradient>
    <linearGradient
       inkscape:collect="always"
       xlink:href="#linearGradient4551"
       id="linearGradient4557"
       x1="85.131271"
       y1="329.53809"
       x2="255.92462"
       y2="420.05807"
       gradientUnits="userSpaceOnUse" />
    <linearGradient
       inkscape:collect="always"
       xlink:href="#linearGradient4559"
       id="linearGradient4565"
       x1="133.11452"
       y1="544.80435"
       x2="371.19162"
       y2="634.87335"
       gradientUnits="userSpaceOnUse" />
    <linearGradient
       inkscape:collect="always"
       xlink:href="#linearGradient5596"
       id="linearGradient5602"
       x1="101.69275"
       y1="856.34576"
       x2="717.00751"
       y2="857.08264"
       gradientUnits="userSpaceOnUse" />
    <linearGradient
       inkscape:collect="always"
       xlink:href="#linearGradient5596"
       id="linearGradient5604"
       x1="-144.30725"
       y1="856.34576"
       x2="471.00751"
       y2="857.08264"
       gradientUnits="userSpaceOnUse" />
    <linearGradient
       inkscape:collect="always"
       xlink:href="#linearGradient5596"
       id="linearGradient5606"
       x1="101.69275"
       y1="856.34576"
       x2="717.00751"
       y2="857.08264"
       gradientUnits="userSpaceOnUse" />
    <linearGradient
       inkscape:collect="always"
       xlink:href="#linearGradient5596"
       id="linearGradient5614"
       x1="101.69275"
       y1="856.34576"
       x2="717.00751"
       y2="857.08264"
       gradientUnits="userSpaceOnUse" />
    <linearGradient
       inkscape:collect="always"
       xlink:href="#linearGradient5596"
       id="linearGradient5964"
       gradientUnits="userSpaceOnUse"
       x1="101.69275"
       y1="856.34576"
       x2="717.00751"
       y2="857.08264" />
    <linearGradient
       inkscape:collect="always"
       xlink:href="#linearGradient6008"
       id="linearGradient5990"
       x1="81.059433"
       y1="936.66827"
       x2="717.74445"
       y2="936.66827"
       gradientUnits="userSpaceOnUse" />
    <linearGradient
       inkscape:collect="always"
       xlink:href="#linearGradient5984"
       id="linearGradient6006"
       gradientUnits="userSpaceOnUse"
       x1="81.059433"
       y1="936.66827"
       x2="717.74445"
       y2="936.66827" />
    <linearGradient
       inkscape:collect="always"
       xlink:href="#linearGradient6016"
       id="linearGradient6014"
       gradientUnits="userSpaceOnUse"
       x1="76.638008"
       y1="926.35162"
       x2="716.27106"
       y2="926.35162" />
    <linearGradient
       inkscape:collect="always"
       xlink:href="#linearGradient6016"
       id="linearGradient6028"
       gradientUnits="userSpaceOnUse"
       x1="76.638008"
       y1="926.35162"
       x2="716.27106"
       y2="926.35162" />
    <linearGradient
       inkscape:collect="always"
       xlink:href="#linearGradient6016"
       id="linearGradient6036"
       gradientUnits="userSpaceOnUse"
       x1="76.638008"
       y1="926.35162"
       x2="716.27106"
       y2="926.35162" />
    <linearGradient
       inkscape:collect="always"
       xlink:href="#linearGradient6016"
       id="linearGradient6044"
       gradientUnits="userSpaceOnUse"
       x1="76.638008"
       y1="926.35162"
       x2="716.27106"
       y2="926.35162" />
    <linearGradient
       inkscape:collect="always"
       xlink:href="#linearGradient6016"
       id="linearGradient6052"
       gradientUnits="userSpaceOnUse"
       x1="76.638008"
       y1="926.35162"
       x2="716.27106"
       y2="926.35162" />
    <linearGradient
       inkscape:collect="always"
       xlink:href="#linearGradient6016"
       id="linearGradient6058"
       gradientUnits="userSpaceOnUse"
       x1="76.638008"
       y1="926.35162"
       x2="716.27106"
       y2="926.35162" />
    <linearGradient
       inkscape:collect="always"
       xlink:href="#linearGradient6016"
       id="linearGradient6093"
       gradientUnits="userSpaceOnUse"
       x1="76.638008"
       y1="926.35162"
       x2="716.27106"
       y2="926.35162" />
    <linearGradient
       inkscape:collect="always"
       xlink:href="#linearGradient6148"
       id="linearGradient6146"
       x1="117.4375"
       y1="675.16833"
       x2="682.51489"
       y2="675.16833"
       gradientUnits="userSpaceOnUse" />
  </defs>
  <sodipodi:namedview
     id="base"
     pagecolor="#ffffff"
     bordercolor="#666666"
     borderopacity="1.0"
     inkscape:pageopacity="0.0"
     inkscape:pageshadow="2"
     inkscape:zoom="0.84571644"
     inkscape:cx="372.04724"
     inkscape:cy="526.18109"
     inkscape:document-units="px"
     inkscape:current-layer="layer2"
     showgrid="false"
     inkscape:window-width="1600"
     inkscape:window-height="1114"
     inkscape:window-x="0"
     inkscape:window-y="1"
     inkscape:window-maximized="1"
     showguides="true"
     inkscape:guide-bbox="true"
     inkscape:snap-to-guides="false" />
  <metadata
     id="metadata7">
    <rdf:RDF>
      <cc:Work
         rdf:about="">
        <dc:format>image/svg+xml</dc:format>
        <dc:type
           rdf:resource="http://purl.org/dc/dcmitype/StillImage" />
        <dc:title></dc:title>
      </cc:Work>
    </rdf:RDF>
  </metadata>
  <g
     inkscape:label="model"
     inkscape:groupmode="layer"
     id="layer1"
     style="display:none"
     sodipodi:insensitive="true">
    <image
       sodipodi:absref="/home/eric/Pictures/pobot-right_looking-850x800.jpg"
       xlink:href="pobot-right_looking-850x800.jpg"
       width="655.71429"
       height="611.42859"
       id="image2826"
       x="44.190094"
       y="209.50504" />
  </g>
  <g
     inkscape:groupmode="layer"
     id="layer3"
     inkscape:label="robot"
     style="display:inline"
     sodipodi:insensitive="true">
    <g
       id="arm-right"
       inkscape:label="#g4080">
      <path
         inkscape:label="#path4059"
         sodipodi:nodetypes="cscscsscc"
         id="arm-right-contour"
         d="m 545.97582,480.04909 c 0,0 28.21851,-5.01662 38.6698,-17.97623 10.4513,-12.95961 10.37568,-19.72326 8.57007,-36.37052 16.93916,2.76896 24.74762,3.9134 44.25227,0.96905 23.67416,-3.57378 35.57029,-15.79939 35.57029,-15.79939 0,0 11.73081,37.8232 11.73081,52.03696 0,14.21377 -2.64028,35.29946 -26.33727,57.69117 -20.94589,19.79213 -68.56052,27.59142 -68.56052,27.59142 l -43.89545,-68.14246 z"
         style="fill:#000000;stroke:#000000;stroke-width:1px;stroke-linecap:butt;stroke-linejoin:miter;stroke-opacity:1" />
      <path
         inkscape:label="#path4067"
         sodipodi:nodetypes="cscc"
         id="arm-right-guide"
         d="m 638.57432,524.57162 c 0,0 30.30877,-9.61519 37.8337,-44.73156 5.98113,-27.91199 -8.36103,-59.99045 -8.36103,-59.99045 l 0,0"
         style="fill:none;stroke:#ff0000;stroke-width:1px;stroke-linecap:butt;stroke-linejoin:miter;stroke-opacity:0.40414507;display:none" />
      <g
         style="fill:#7e3421;fill-opacity:1;stroke:#7e3421;stroke-opacity:1"
         inkscape:label="#g4073"
         id="arm-right-shade">
        <path
           style="fill:#7e3421;fill-opacity:1;stroke:#7e3421;stroke-width:1px;stroke-linecap:butt;stroke-linejoin:miter;stroke-opacity:1"
           d="m 667.83796,420.26767 5.6437,15.25889 c -2.45701,2.47411 -5.9036,4.63248 -15.88597,4.8076 -15.04901,0.264 -33.02611,-6.27078 -33.02611,-6.27078 21.23464,-3.34822 29.70433,-6.71836 43.26838,-13.79571 z"
           id="path4061"
           sodipodi:nodetypes="ccscc" />
        <path
           style="fill:#7e3421;fill-opacity:1;stroke:#7e3421;stroke-width:1px;stroke-linecap:butt;stroke-linejoin:miter;stroke-opacity:1"
           d="m 675.3629,442.63345 c 1.32126,6.40954 2.10428,10.28344 2.23805,17.48427 -17.74744,4.70967 -34.33711,-5.15182 -49.89598,-12.67668 15.6946,1.68198 32.76396,0.97276 47.65793,-4.80759 z"
           id="path4063"
           sodipodi:nodetypes="cccc" />
        <path
           style="fill:#7e3421;fill-opacity:1;stroke:#7e3421;stroke-width:1px;stroke-linecap:butt;stroke-linejoin:miter;stroke-opacity:1"
           d="m 677.66218,469.17974 c -10.15569,6.24759 -20.62084,8.37042 -48.07597,0.41805 13.7798,11.19418 26.49368,18.20404 44.83082,16.99233 3.60733,-10.2519 3.45417,-17.20136 3.24515,-17.41038 z"
           id="path4065"
           sodipodi:nodetypes="cccc" />
        <path
           style="fill:#7e3421;fill-opacity:1;stroke:#7e3421;stroke-width:1px;stroke-linecap:butt;stroke-linejoin:miter;stroke-opacity:1"
           d="m 671.76771,493.44258 c 0,0 -11.30698,3.17777 -21.20983,3.02997 -9.90284,-0.14781 -15.6942,-2.12552 -23.05736,-6.65117 6.67366,10.26642 16.97133,18.28905 29.56073,19.36229 4.43411,0 5.32093,-1.10853 5.32093,-1.10853 3.61285,-3.90883 6.75798,-8.75313 9.38553,-14.63256 z"
           id="path4069"
           sodipodi:nodetypes="cscccc" />
        <path
           style="fill:#7e3421;fill-opacity:1;stroke:#7e3421;stroke-width:1px;stroke-linecap:butt;stroke-linejoin:miter;stroke-opacity:1"
           d="m 625.87467,509.25756 c 6.35556,7.02068 11.46683,7.36195 15.815,7.6858 4.05797,0.30224 10.88071,-0.091 10.93747,-0.1478 -4.38077,3.20436 -8.8978,5.9318 -13.67184,7.75969 -9.07011,-3.0719 -9.77271,-9.88489 -13.08063,-15.29769 z"
           id="path4071"
           sodipodi:nodetypes="csccc" />
      </g>
    </g>
    <g
       id="gripper_right"
       inkscape:label="#g4124">
      <path
         inkscape:label="#path4114"
         id="gripper_right-inner-light"
         d="m 577.32972,327.66916 -9.40617,7.52494 -7.31591,0 -17.34916,-11.49643 21.52968,78.38473 26.5463,9.40617 22.78383,3.76247 22.36577,-0.41805 14.84085,-5.22565 7.10688,-7.10688 -2.71734,-5.6437 -12.33253,-8.7791 -35.95246,-9.19714 -26.75533,-56.85506 -3.34441,5.6437 z"
         style="fill:#bfa587;fill-opacity:1;stroke:#000000;stroke-width:1px;stroke-linecap:butt;stroke-linejoin:miter;stroke-opacity:1" />
      <path
         inkscape:label="#path4106"
         sodipodi:nodetypes="cccsccc"
         id="gripper_right-inner_dark"
         d="m 580.25608,321.81643 27.80045,57.27312 25.7102,8.15201 c 0,0 25.32305,6.85044 23.20188,14.84084 -3.7655,14.18454 -51.31898,-1.10716 -65.84318,-4.80759 l -14.84084,-68.35149 3.97149,-7.10689 z"
         style="fill:#a58d74;fill-opacity:1;stroke:#a58d74;stroke-width:1px;stroke-linecap:butt;stroke-linejoin:miter;stroke-opacity:1" />
      <path
         inkscape:label="#path4116"
         id="gripper_right-right-face"
         d="m 564.37011,286.28202 44.10448,91.7624 16.72207,-12.75059 -47.23987,-92.38947 -13.58668,13.37766 z"
         style="fill:#8b7660;fill-opacity:1;stroke:#000000;stroke-width:1px;stroke-linecap:butt;stroke-linejoin:miter;stroke-opacity:1" />
      <path
         inkscape:label="#path4118"
         id="gripper_right-left_face"
         d="m 524.8642,320.35325 19.64844,81.93818 20.69357,-0.62708 -24.24701,-82.35623 -16.095,1.04513 z"
         style="fill:#8b7660;fill-opacity:1;stroke:#000000;stroke-width:1px;stroke-linecap:butt;stroke-linejoin:miter;stroke-opacity:1" />
      <path
         inkscape:label="#path4120"
         id="gripper_right-bottom_face"
         d="m 547.64803,405.21779 35.32539,17.34916 33.8622,2.71734 26.12825,-1.67221 23.20188,-7.10688 11.07838,-17.55819 -3.76247,-11.2874 -16.30403,-12.33253 -32.39902,-10.24227 -15.46792,13.79571 26.75532,7.94299 14.63182,5.22565 6.27078,6.68883 -0.41805,6.89786 -10.24228,7.10688 -17.55818,3.55344 -22.99285,-1.46318 -22.99286,-5.43468 -19.23039,-7.52493 -15.25889,1.25415 -0.62708,2.09026 z"
         style="fill:#766958;fill-opacity:1;stroke:#000000;stroke-width:1px;stroke-linecap:butt;stroke-linejoin:miter;stroke-opacity:1" />
      <path
         inkscape:label="#path4122"
         id="gripper_right-outer-dark"
         d="m 577.32972,271.85923 47.65792,93.85266 26.54629,7.52493 16.93111,9.6152 10.66032,9.61519 -6.89786,-24.66506 -30.72681,-64.79805 -23.20188,-25.50117 -29.26364,-7.52494 -11.70545,1.88124 z"
         style="fill:#bfa587;fill-opacity:1;stroke:#000000;stroke-width:1px;stroke-linecap:butt;stroke-linejoin:miter;stroke-opacity:1" />
      <path
         inkscape:label="#path4102"
         sodipodi:nodetypes="cccc"
         id="gripper_right-outer-speckle"
         d="m 610.14679,283.98273 c 11.35197,30.13594 18.67601,55.00458 22.78383,75.6674 13.97853,3.26476 27.61517,6.81881 34.48929,16.095 -8.84877,-23.48058 -40.08653,-94.39461 -57.27312,-91.7624 z"
         style="fill:#d8cdc3;fill-opacity:1;stroke:#d8cdc3;stroke-width:1px;stroke-linecap:butt;stroke-linejoin:miter;stroke-opacity:1" />
      <path
         inkscape:label="#path4090"
         id="gripper_right-contour"
         d="m 582.09375,266.34375 c -2.30848,0.0392 -4.34314,0.15546 -6.0625,0.21875 -5.91835,4.56495 -13.94043,13.83573 -16,16.09375 -0.35124,2.57959 -0.35512,4.06759 -0.6875,6.5625 0.97852,2.10177 13.27709,25.84309 14.53125,29.1875 -0.2748,4.42995 -2.35391,6.48994 -3.8125,7.75 -4.27368,3.692 -5.28474,4.02152 -7.375,3.8125 -2.09026,-0.20903 -14.841,-11.71044 -18.8125,-14.21875 -3.97149,-2.50831 -17.34375,-1.65625 -17.34375,-1.65625 l -6.46875,6.875 c 0,0 21.1846,84.2119 21.71875,86.96875 20.03993,9.86697 33.95617,16.3137 48.5,18.8125 14.54383,2.4988 55.40151,2.50341 69.40625,-4.8125 14.00474,-7.31591 19.28266,-17.99123 21.34375,-27.1875 1.31327,-5.85958 2.27365,-12.46212 -6.875,-33.125 -9.14866,-20.66289 -26.4077,-58.02049 -37.5,-72.25 -15.73041,-20.17941 -37.85997,-22.95145 -52.15625,-23.03125 -0.82479,-0.005 -1.63676,-0.0131 -2.40625,0 z m -1.625,7.40625 c 36.05442,1.52821 47.0705,11.59699 60.59375,36.25 14.30009,26.06922 33.95357,66.78039 34.09375,78.28125 -7.26688,-11.02918 -23.34844,-17.39809 -48.71875,-24.875 L 580.46875,273.75 z m -3.96875,2.09375 46.59375,89.25 -14.1875,11.0625 -41.8125,-89.46875 9.40625,-10.84375 z m -48.51388,45.75 11.73263,0.65625 22.15625,77.9375 -13.8125,0.65625 -20.07638,-79.25 z m 52.48263,2.71875 26.96875,56.25 c 0,0 22.55494,5.83544 31.125,8.34375 8.57007,2.50831 14.8667,5.63963 17.375,10.65625 1.46318,2.92637 -0.0285,4.61461 -4,7.75 -3.9715,3.13539 -20.06074,6.23217 -29.87916,6.27917 -19.52106,0.0934 -43.3137,-6.44574 -55.80834,-12.56042 -0.44205,-2.18045 -21.53125,-74.8125 -21.53125,-74.8125 0,0 12.95629,11.27917 16.71875,11.90625 3.76247,0.62708 7.91679,-1.33839 11.09375,-3.5625 3.53931,-2.47779 7.9375,-10.25 7.9375,-10.25 z m 45.34375,42.65625 c 6.06176,1.46319 48.7111,13.58137 47.875,26.75 -0.7031,11.07382 -5.83869,16.56571 -17.96875,23.84375 -14.63182,8.7791 -55.44467,7.15464 -69.80344,3.74443 -16.72208,-3.97149 -36.57987,-16.49235 -36.57987,-16.49235 L 565,403.96875 c 0,0 15.87309,7.51879 32.80419,10.65417 13.46506,2.49353 34.50282,1.67221 42.23678,0 7.73396,-1.67221 19.03126,-6.282 19.24028,-11.71667 0.20903,-5.43468 -2.51396,-8.77643 -10.875,-13.375 C 640.04522,384.93268 612.25,377.625 612.25,377.625 l 13.5625,-10.65625 z"
         style="fill:#000000;fill-opacity:1;stroke:#000000;stroke-width:1px;stroke-linecap:butt;stroke-linejoin:miter;stroke-opacity:1"
         sodipodi:nodetypes="cccccssscccssssssccscccccccccccccccssssccssccsssccsssscc" />
    </g>
    <g
       id="head"
       inkscape:label="#g4470">
      <path
         inkscape:label="#path4468"
         id="head-face-dark"
         d="m 179.72927,262.79494 80.4052,204.85589 17.44084,-11.23308 101.39332,-7.98139 79.81398,-3.8429 30.15196,-34.29045 4.1385,-14.48476 -5.91215,-15.9628 -105.82743,-137.16181 -152.23779,-5.61654 -24.2398,1.47803 -25.12663,24.23981 z"
         style="fill:#ae3320;fill-opacity:1;stroke:none" />
      <path
         style="fill:#ff3e31;fill-opacity:1;stroke:none"
         d="m 212.8373,246.53653 c 7.36156,3.28789 14.98201,4.36366 19.95349,9.45944 5.91214,6.05995 7.56438,10.79425 12.41551,11.38089 5.86578,0.70934 9.01603,-9.16384 12.71112,-11.8243 3.69509,-2.66047 58.97366,3.10387 58.97366,3.10387 4.66174,11.45553 39.20176,45.13309 40.2026,53.94834 -0.2956,6.05995 -49.36642,9.16383 -49.36642,9.16383 l 122.52925,1.03463 -59.12148,-67.98969 c 0,0 -87.0713,-7.43098 -101.83673,-8.42481 -15.37158,-1.03463 -48.74659,-6.09617 -56.461,0.1478 z"
         id="head-face-light-0"
         sodipodi:nodetypes="cssscccccsc"
         inkscape:label="#path4527" />
      <path
         style="fill:#ff3e31;fill-opacity:1;stroke:#ff3e31;stroke-width:1px;stroke-linecap:butt;stroke-linejoin:miter;stroke-opacity:1"
         d="m 337.78596,371.77364 c 0,0 77.96669,0.41805 78.17571,3.76247 0.20903,3.34441 -110.36571,19.85746 -110.36571,28.00948 0,8.15201 158.02363,-3.9715 160.53194,0 2.50831,3.97149 -2.71733,15.25889 -0.62708,17.14013 2.09026,1.88123 17.55819,-11.49643 17.76721,-22.78383 0.20903,-11.28741 -10.66032,-30.5178 -15.04987,-30.5178 -4.38954,0 -25.50117,2.50832 -33.8622,2.71734 -8.36104,0.20903 -96.77903,1.46318 -96.57,1.67221 z"
         id="head-face-light-1"
         inkscape:label="#path4532" />
      <path
         inkscape:label="#path4464"
         sodipodi:nodetypes="cssssccccssssss"
         id="head-side"
         d="m 204.56029,251.56186 c -5.15073,-0.53576 -10.45026,2.37002 -14.48476,5.61654 -5.60741,4.51222 -72.63176,75.4405 -79.22277,86.02174 0,0 -2.17367,7.62577 -2.06925,11.52868 0.13807,5.16071 1.81654,10.21218 3.54728,15.07598 12.08521,33.96249 47.29718,97.25482 47.29718,97.25482 l 19.21448,11.52869 30.44756,8.86822 33.10802,-16.84962 c 0,0 16.94359,-11.75016 23.9442,-19.21448 3.87107,-4.12748 7.81148,-8.57906 9.75504,-13.89355 3.80553,-10.40588 3.94563,-22.07239 2.95607,-33.10802 -0.93084,-10.38081 -4.67681,-20.37104 -8.277,-30.15195 -14.54174,-39.50666 -25.88761,-82.62707 -53.50493,-114.40005 -3.31696,-3.81607 -7.68211,-7.7539 -12.71112,-8.277 z"
         style="fill:url(#linearGradient4557);fill-opacity:1;stroke:none" />
      <path
         sodipodi:nodetypes="cssssscccssscsccssscccssssss"
         inkscape:label="#path4157"
         id="head-contour"
         d="m 226.59375,232.15625 c -7.16934,-0.39534 -14.68691,0.23309 -21.34375,2.90625 -6.38894,2.56558 -12.04964,7.06615 -16.71875,12.125 0,0 -50.16639,54.35442 -75.25,81.53125 -4.69342,5.08508 -7.54971,12.00298 -8.78125,18.8125 -0.94533,5.227 -1.37135,10.80706 1.28125,15.875 26.33388,50.31221 79,150.9375 79,150.9375 l 92.375,-59.375 181.4375,-9.625 c 0,0 21.45833,-21.45833 32.1875,-32.1875 3.20961,-3.20961 5.60913,-8.79304 5.875,-13.78125 0.43406,-8.14373 -2.50162,-17.79535 -7.125,-23.40625 C 452.32267,330.8127 377.90625,240.5 377.90625,240.5 l -151.3125,-8.34375 z m -4.53125,6.625 152.5,8.84375 c 0,0 73.3125,88.625 109.96875,132.9375 3.23438,3.90993 5.21717,9.1511 5.4375,14.21875 0.22033,5.06765 -0.45026,11.19761 -4.1875,14.625 -10.17709,9.33333 -30.53125,28 -30.53125,28 l -179.75,14.625 -89.46875,56.4375 c 0,0 -48.50023,-96.41655 -72.75,-144.625 -1.12716,-2.24079 -2.5,-6.04106 -2.5,-9.21875 0,-6.35536 2.42927,-15.5316 5.03125,-18.375 27.03402,-29.54234 53.68779,-55.88596 79.84375,-84.46875 3.61424,-3.94958 7.6615,-7.80698 12.53125,-10.03125 4.2855,-1.95741 9.1406,-3.24331 13.875,-2.96875 z"
         style="fill:#000000;fill-opacity:1;stroke:#000000;stroke-width:1px;stroke-linecap:butt;stroke-linejoin:miter;stroke-opacity:1" />
      <g
         inkscape:label="#g4254"
         id="mouth">
        <path
           style="fill:#7c3320;fill-opacity:1;stroke:none"
           d="m 277.79551,329.96845 6.06175,8.36104 142.97376,1.25415 2.71734,-7.73396 -151.75285,-1.88123 z"
           id="mouth-upper-face"
           inkscape:label="#path4228" />
        <path
           style="fill:#4b3c2d;fill-opacity:1;stroke:none"
           d="m 443.70664,363.59704 10.42016,0 -25.42223,-30.44755 -1.92145,5.98605 16.92352,24.4615 z"
           id="mouth-side-face"
           inkscape:label="#path4230"
           sodipodi:nodetypes="ccccc" />
        <path
           style="fill:#bfa587;fill-opacity:1;stroke:none"
           d="m 283.04404,339.06163 15.815,28.23051 145.14321,-3.69509 -18.17985,-24.092 -142.77836,-0.44342 z"
           id="teeth"
           inkscape:label="#path4232" />
        <g
           id="teeth-speckles"
           inkscape:label="#g4246">
          <path
             sodipodi:nodetypes="csccccc"
             id="path4234"
             d="m 295.75516,338.76603 c 0,0 11.88213,5.53462 17.29303,8.86822 6.52937,4.02267 10.64186,18.03205 10.64186,18.03205 l 5.61654,0 -9.01602,-26.75247 -23.50079,-0.29561 -1.03462,0.14781 z"
             style="fill:#f0d8bf;fill-opacity:1;stroke:#f0d8bf;stroke-width:1px;stroke-linecap:butt;stroke-linejoin:miter;stroke-opacity:1" />
          <path
             id="path4236"
             d="m 331.52365,339.65285 c 0,0 7.09458,3.54729 9.31163,5.76434 2.21706,2.21706 9.60724,20.39691 9.60724,20.39691 l 3.9907,-0.44341 -7.68579,-26.45686 -15.22378,0.73902 z"
             style="fill:#f0d8bf;fill-opacity:1;stroke:#f0d8bf;stroke-width:1px;stroke-linecap:butt;stroke-linejoin:miter;stroke-opacity:1" />
          <path
             id="path4238"
             d="m 355.91126,339.50505 c 0,0 4.1385,3.10387 6.94677,6.35555 2.80827,3.25168 10.05065,18.91887 10.05065,18.91887 l 5.61654,0.14781 -7.68579,-25.86565 -14.92817,0.44342 z"
             style="fill:#f0d8bf;fill-opacity:1;stroke:#f0d8bf;stroke-width:1px;stroke-linecap:butt;stroke-linejoin:miter;stroke-opacity:1" />
          <path
             id="path4240"
             d="m 378.37741,340.24406 c 0,0 5.32094,2.21706 8.27701,4.28631 2.95607,2.06925 12.71112,19.06668 12.71112,19.06668 l 1.92144,0.2956 -8.86822,-24.53541 -14.04135,0.88682 z"
             style="fill:#f0d8bf;fill-opacity:1;stroke:#f0d8bf;stroke-width:1px;stroke-linecap:butt;stroke-linejoin:miter;stroke-opacity:1" />
          <path
             sodipodi:nodetypes="cccc"
             id="path4242"
             d="m 393.60119,340.09626 c 11.88789,7.71479 19.00698,16.02569 28.0827,24.092 l -11.38088,-24.68321 -16.70182,0.59121 z"
             style="fill:#f0d8bf;fill-opacity:1;stroke:#f0d8bf;stroke-width:1px;stroke-linecap:butt;stroke-linejoin:miter;stroke-opacity:1" />
          <path
             id="path4244"
             d="m 412.07665,340.53967 c 0,0 6.79897,2.51266 10.49406,5.02533 3.6951,2.51266 15.815,17.73644 15.815,17.73644 l 5.76434,0.44341 -18.62326,-23.79639 -13.45014,0.59121 z"
             style="fill:#f0d8bf;fill-opacity:1;stroke:#f0d8bf;stroke-width:1px;stroke-linecap:butt;stroke-linejoin:miter;stroke-opacity:1" />
        </g>
        <path
           style="fill:#000000;stroke:#000000;stroke-width:1px;stroke-linecap:butt;stroke-linejoin:miter;stroke-opacity:1"
           d="m 273.40625,327.03125 24.46875,41.40625 160.53125,-3.5625 -27.8125,-34.6875 -157.1875,-3.15625 z m 6.0625,3.5625 149.25,2.9375 22.34375,28.21875 -151.125,3.125 -20.46875,-34.28125 z"
           id="mouth-outer-contour"
           inkscape:label="#path4162" />
        <g
           id="teeth-contour"
           inkscape:label="#g4220">
          <path
             id="path4167"
             d="m 281.97603,336.0302 145.27304,1.88123 18.39429,25.08312 -3.9715,-0.41805 -17.14012,-21.7387 -141.30156,-1.46319 -1.25415,-3.34441 z"
             style="fill:#000000;stroke:#000000;stroke-width:1px;stroke-linecap:butt;stroke-linejoin:miter;stroke-opacity:1" />
          <path
             sodipodi:nodetypes="ccccc"
             id="path4169"
             d="m 318.34655,338.74754 9.19714,26.75532 2.92636,-0.41805 -9.19714,-26.5463 -2.92636,0.20903 z"
             style="fill:#000000;stroke:#000000;stroke-width:1px;stroke-linecap:butt;stroke-linejoin:miter;stroke-opacity:1" />
          <path
             sodipodi:nodetypes="ccccc"
             id="path4169-5"
             d="m 345.3109,339.42687 8.46555,26.1805 2.92636,-0.41805 -8.46555,-25.97148 -2.92636,0.20903 z"
             style="fill:#000000;stroke:#000000;stroke-width:1px;stroke-linecap:butt;stroke-linejoin:miter;stroke-opacity:1;display:inline" />
          <path
             sodipodi:nodetypes="ccccc"
             id="path4169-9"
             d="m 370.02822,339.79266 7.10688,24.76958 2.92636,-0.41805 -7.10688,-24.56056 -2.92636,0.20903 z"
             style="fill:#000000;stroke:#000000;stroke-width:1px;stroke-linecap:butt;stroke-linejoin:miter;stroke-opacity:1;display:inline" />
          <path
             sodipodi:nodetypes="ccccc"
             id="path4169-8"
             d="m 391.61015,339.42687 9.19714,26.75532 2.92636,-0.41805 -9.19714,-26.5463 -2.92636,0.20903 z"
             style="fill:#000000;stroke:#000000;stroke-width:1px;stroke-linecap:butt;stroke-linejoin:miter;stroke-opacity:1;display:inline" />
          <path
             sodipodi:nodetypes="ccccc"
             id="path4169-4"
             d="m 409.06381,339.53139 12.019,24.29927 2.92636,-0.41805 -12.019,-24.09025 -2.92636,0.20903 z"
             style="fill:#000000;stroke:#000000;stroke-width:1px;stroke-linecap:butt;stroke-linejoin:miter;stroke-opacity:1;display:inline" />
        </g>
      </g>
      <g
         inkscape:label="#g4372"
         id="eye-right">
        <path
           style="fill:#bfa587;fill-opacity:1;stroke:none"
           d="m 362.49936,232.17674 -27.23511,25.05631 4.08526,9.66846 24.23925,-19.4731 -1.0894,-15.25167 z"
           id="path4360" />
        <path
           style="fill:#8b7660;fill-opacity:1;stroke:#8b765f;stroke-width:1px;stroke-linecap:butt;stroke-linejoin:miter;stroke-opacity:1"
           d="m 363.18024,246.20283 -24.51161,20.97104 4.08527,7.48965 23.4222,-22.33279 -2.99586,-6.1279 z"
           id="path4362"
           sodipodi:nodetypes="ccccc" />
        <path
           style="fill:#5a5147;fill-opacity:1;stroke:#5a5147;stroke-width:1px;stroke-linecap:butt;stroke-linejoin:miter;stroke-opacity:1"
           d="m 377.8872,270.16973 -24.37543,23.83072 -11.03022,-19.20075 23.55837,-22.06044 11.84728,17.43047 z"
           id="path4364" />
        <path
           style="fill:#8b7660;fill-opacity:1;stroke:#8b7660;stroke-width:1px;stroke-linecap:butt;stroke-linejoin:miter;stroke-opacity:1"
           d="m 391.2324,281.88083 -24.64777,22.87749 -13.07286,-10.62169 24.23925,-23.69455 13.48138,11.43875 z"
           id="path4366" />
        <path
           style="fill:#bfa587;fill-opacity:1;stroke:#bfa587;stroke-width:1px;stroke-linecap:butt;stroke-linejoin:miter;stroke-opacity:1"
           d="m 413.02049,290.18754 -22.60514,22.74132 -12.93668,-2.31499 -10.89404,-5.71937 24.5116,-23.14985 21.92426,8.44289 z"
           id="path4368" />
        <path
           style="fill:#f2dbc1;fill-opacity:1;stroke:#f2dbc1;stroke-width:1px;stroke-linecap:butt;stroke-linejoin:miter;stroke-opacity:1"
           d="m 420.7825,291.27694 -21.51574,23.01367 -9.25994,-0.40853 22.8775,-23.28602 7.89818,0.68088 z"
           id="path4370" />
        <path
           style="fill:#000000;stroke:#000000;stroke-width:1px;stroke-linecap:butt;stroke-linejoin:miter;stroke-opacity:1"
           d="m 379.65625,219.625 c -0.6542,-0.0132 -1.27103,0.008 -1.875,0.0312 -4.39252,0.1698 -7.39648,1.23813 -8.40625,2.1875 -4.95968,4.66302 -36.375,34 -36.375,34 l 15.21875,34.875 c 0,0 19.24663,24.29677 42.4375,25.125 8.27701,0.2956 11.2272,-2.21875 11.375,-2.21875 L 430.25,284.09375 c 0,0 13.15703,-14.20447 -10.34375,-41.84375 -15.14699,-17.81438 -30.43704,-22.42757 -40.25,-22.625 z m -18.25,14.71875 c -1.25417,4.52348 0.14093,19.47557 17.84375,38.8125 17.70283,19.33693 39.5,18.25 39.5,18.25 0,0 -20.41146,19.59261 -20.96875,19.8125 -13.37863,2.82991 -28.19078,-4.92309 -38.6875,-13.6875 -11.72056,-9.78628 -22.75,-39.75 -22.75,-39.75 l 25.0625,-23.4375 z"
           id="eye-right_outer-contour" />
        <path
           style="fill:#ab3620;fill-opacity:1;stroke:#000000;stroke-width:1px;stroke-linecap:butt;stroke-linejoin:miter;stroke-opacity:1"
           d="m 368.47457,226.13963 c 9.53334,-8.79432 32.96022,2.80826 44.04549,14.04134 11.08528,11.23308 23.20518,32.81242 14.33696,43.30648 -8.86822,10.49406 -30.82629,0.96141 -44.1933,-11.67649 -16.2584,-15.37159 -23.72249,-36.87701 -14.18915,-45.67133 z"
           id="eye-right_outer-edge"
           sodipodi:nodetypes="csssz"
           inkscape:label="#path4309" />
        <path
           style="fill:#ff3e2f;fill-opacity:1;stroke:none"
           d="m 367.33455,228.09911 3.94829,3.50925 5.46873,0.44341 9.45944,-1.03462 16.99742,8.1292 13.51611,12.77947 3.18471,-2.03695 c -8.95596,-12.81473 -16.11287,-17.18697 -26.48043,-22.21096 -5.80239,-2.81177 -12.58623,-5.02562 -18.94008,-3.92908 -2.75035,0.47465 -4.47198,1.16029 -7.15419,4.35028 z"
           id="path4349"
           sodipodi:nodetypes="cccccccaac" />
        <path
           style="fill:#493c2d;fill-opacity:1;stroke:none"
           d="m 403.20843,250.37943 4.58192,-5.91215 -13.74575,-10.34626 -9.45943,-2.95607 -7.8336,1.47804 -4.2863,4.1385 -1.03463,5.61654 3.10388,9.60724 28.67391,-1.62584 z"
           id="path4345" />
        <path
           style="fill:#bfa587;fill-opacity:1;stroke:none"
           d="m 407.93815,244.02387 -5.02532,6.05995 7.09457,9.31163 2.80827,9.75505 -1.62584,6.35555 -5.61654,4.43411 8.1292,0.73902 6.50337,-3.54729 1.62584,-8.72041 -2.80827,-8.27701 -4.87753,-9.31163 -6.20775,-6.79897 z"
           id="path4347" />
        <path
           style="fill:none;stroke:#000000;stroke-width:3.35800004;stroke-linecap:butt;stroke-linejoin:miter;stroke-miterlimit:4;stroke-opacity:1;stroke-dasharray:none;display:inline"
           d="m 375.48893,233.4665 c 7.14184,-6.74542 24.69192,2.15397 32.99636,10.76991 8.30446,8.61597 17.384,25.16767 10.74045,33.2168 -6.64357,8.0491 -23.09331,0.73741 -33.10711,-8.95608 -12.17985,-11.79024 -17.77153,-28.28527 -10.6297,-35.03063 z"
           id="eye-right_inner-edge"
           sodipodi:nodetypes="csssz"
           inkscape:label="#path4309-9" />
        <path
           style="fill:#000000;fill-opacity:1;stroke:none"
           d="m 373.05648,243.28485 4.13851,-5.17313 c 0,0 9.31163,-6.20775 26.45685,10.05065 16.07819,15.24656 14.33696,24.97882 11.8243,28.37831 -2.51266,3.39948 -9.45944,3.25168 -9.45944,3.25168 l -14.63256,-5.91215 -7.9814,-7.53798 -7.39018,-9.16383 -2.95608,-13.89355 z"
           id="path4343"
           sodipodi:nodetypes="ccssccccc" />
        <path
           style="fill:#bfa587;fill-opacity:1;stroke:#bfa587;stroke-width:1px;stroke-linecap:butt;stroke-linejoin:miter;stroke-opacity:1"
           d="m 377.19499,242.54583 13.59793,14.04135 -4.72971,5.46874 5.61654,5.02532 5.02533,-4.87752 13.74573,13.30233 3.69509,-3.54728 -12.71111,-13.74575 3.54729,-3.69509 -5.32094,-5.76434 -3.9907,3.84289 -14.04134,-13.59794 -4.43411,3.54729 z"
           id="path4333"
           sodipodi:nodetypes="ccccccccccccc" />
        <path
           style="fill:#ff3e33;fill-opacity:1;stroke:none"
           d="m 418.8644,255.70135 3.56275,-1.82952 c 1.0112,1.5835 1.87699,3.11852 2.50356,4.57381 l -4.18864,1.54065 c -0.21929,-0.85908 -1.0281,-2.54347 -1.87767,-4.28494 z"
           id="path4351"
           sodipodi:nodetypes="ccccc" />
      </g>
      <g
         transform="translate(-80.188812,2.7406254)"
         inkscape:label="#g4372"
         id="eye-left">
        <g
           inkscape:label="#g4456"
           id="eye-left_side-speckles">
          <path
             id="path4360-7"
             d="m 362.49936,232.17674 -16.45056,17.93079 1.5817,10.63137 15.95826,-13.31049 -1.0894,-15.25167 z"
             style="fill:#bfa587;fill-opacity:1;stroke:none"
             sodipodi:nodetypes="ccccc" />
          <path
             sodipodi:nodetypes="ccccc"
             id="path4362-1"
             d="m 363.18024,246.20283 -16.42319,16.54166 2.35203,5.75642 17.06702,-16.17018 -2.99586,-6.1279 z"
             style="fill:#8b7660;fill-opacity:1;stroke:#8b765f;stroke-width:1px;stroke-linecap:butt;stroke-linejoin:miter;stroke-opacity:1" />
          <path
             id="path4364-6"
             d="m 377.8872,270.16973 -18.02024,17.09038 -10.83764,-17.85268 17.0106,-16.66817 11.84728,17.43047 z"
             style="fill:#5a5147;fill-opacity:1;stroke:#5a5147;stroke-width:1px;stroke-linecap:butt;stroke-linejoin:miter;stroke-opacity:1"
             sodipodi:nodetypes="ccccc" />
          <path
             id="path4366-5"
             d="m 391.2324,281.88083 -19.06291,16.71489 -11.72479,-10.81427 17.30632,-17.33937 13.48138,11.43875 z"
             style="fill:#8b7660;fill-opacity:1;stroke:#8b7660;stroke-width:1px;stroke-linecap:butt;stroke-linejoin:miter;stroke-opacity:1"
             sodipodi:nodetypes="ccccc" />
          <path
             id="path4368-8"
             d="m 413.02049,290.18754 -19.909,19.66002 -20.36426,-10.53792 18.349,-17.56499 21.92426,8.44289 z"
             style="fill:#bfa587;fill-opacity:1;stroke:#bfa587;stroke-width:1px;stroke-linecap:butt;stroke-linejoin:miter;stroke-opacity:1"
             sodipodi:nodetypes="ccccc" />
          <path
             id="path4370-1"
             d="m 420.7825,291.27694 -17.35721,17.89224 -9.25994,-0.48243 18.71897,-18.09069 7.89818,0.68088 z"
             style="fill:#f2dbc1;fill-opacity:1;stroke:#f2dbc1;stroke-width:1px;stroke-linecap:butt;stroke-linejoin:miter;stroke-opacity:1"
             sodipodi:nodetypes="ccccc" />
        </g>
        <path
           inkscape:label="#eye-right_outer-contour-7"
           sodipodi:nodetypes="csscssccsccsccscc"
           style="fill:#000000;stroke:#000000;stroke-width:1px;stroke-linecap:butt;stroke-linejoin:miter;stroke-opacity:1"
           d="m 379.65625,219.625 c -0.6542,-0.0132 -1.27103,0.008 -1.875,0.0312 -4.39252,0.1698 -7.39648,1.23813 -8.40625,2.1875 -4.95968,4.66302 -17.1012,18.86599 -24.24237,28.22256 -0.96194,19.21618 6.91324,30.42297 14.83358,39.30437 10.73111,12.03325 25.21665,21.9858 37.43039,21.46596 8.27479,-0.35219 8.91622,-0.6781 9.06402,-0.6781 L 430.25,284.09375 c 0,0 13.15703,-14.20447 -10.34375,-41.84375 -15.14699,-17.81438 -30.43704,-22.42757 -40.25,-22.625 z m -18.25,14.71875 c -1.25417,4.52348 0.14093,19.47557 17.84375,38.8125 17.70283,19.33693 39.5,18.25 39.5,18.25 0,0 -14.24886,14.77808 -14.80615,14.99797 -13.37863,2.82991 -27.83006,-7.35885 -38.10976,-16.38364 -11.14281,-9.78253 -18.54418,-25.94949 -17.93547,-39.36484 l 13.50763,-16.31199 z"
           id="eye-left_outer-contour" />
        <path
           style="fill:#ab3620;fill-opacity:1;stroke:#000000;stroke-width:1px;stroke-linecap:butt;stroke-linejoin:miter;stroke-opacity:1"
           d="m 368.47457,226.13963 c 9.53334,-8.79432 32.96022,2.80826 44.04549,14.04134 11.08528,11.23308 23.20518,32.81242 14.33696,43.30648 -8.86822,10.49406 -30.82629,0.96141 -44.1933,-11.67649 -16.2584,-15.37159 -23.72249,-36.87701 -14.18915,-45.67133 z"
           id="eye-left_outer-edge"
           sodipodi:nodetypes="csssz"
           inkscape:label="#path4309" />
        <path
           style="fill:#ff3e2f;fill-opacity:1;stroke:none"
           d="m 367.33455,228.09911 3.94829,3.50925 5.46873,0.44341 9.45944,-1.03462 16.99742,8.1292 13.51611,12.77947 3.18471,-2.03695 c -8.95596,-12.81473 -16.11287,-17.18697 -26.48043,-22.21096 -5.80239,-2.81177 -12.58623,-5.02562 -18.94008,-3.92908 -2.75035,0.47465 -4.47198,1.16029 -7.15419,4.35028 z"
           id="path4349-2"
           sodipodi:nodetypes="cccccccaac" />
        <path
           style="fill:#493c2d;fill-opacity:1;stroke:none"
           d="m 403.20843,250.37943 4.58192,-5.91215 -13.74575,-10.34626 -9.45943,-2.95607 -7.8336,1.47804 -4.2863,4.1385 -1.03463,5.61654 3.10388,9.60724 28.67391,-1.62584 z"
           id="path4345-7" />
        <path
           style="fill:#bfa587;fill-opacity:1;stroke:none"
           d="m 407.93815,244.02387 -5.02532,6.05995 7.09457,9.31163 2.80827,9.75505 -1.62584,6.35555 -5.61654,4.43411 8.1292,0.73902 6.50337,-3.54729 1.62584,-8.72041 -2.80827,-8.27701 -4.87753,-9.31163 -6.20775,-6.79897 z"
           id="path4347-1" />
        <path
           style="fill:none;stroke:#000000;stroke-width:3.35800004;stroke-linecap:butt;stroke-linejoin:miter;stroke-miterlimit:4;stroke-opacity:1;stroke-dasharray:none;display:inline"
           d="m 375.48893,233.4665 c 7.14184,-6.74542 24.69192,2.15397 32.99636,10.76991 8.30446,8.61597 17.384,25.16767 10.74045,33.2168 -6.64357,8.0491 -23.09331,0.73741 -33.10711,-8.95608 -12.17985,-11.79024 -17.77153,-28.28527 -10.6297,-35.03063 z"
           id="eye-left_inner-edge"
           sodipodi:nodetypes="csssz"
           inkscape:label="#path4309-9" />
        <path
           style="fill:#000000;fill-opacity:1;stroke:none"
           d="m 373.05648,243.28485 4.13851,-5.17313 c 0,0 9.31163,-6.20775 26.45685,10.05065 16.07819,15.24656 14.33696,24.97882 11.8243,28.37831 -2.51266,3.39948 -9.45944,3.25168 -9.45944,3.25168 l -14.63256,-5.91215 -7.9814,-7.53798 -7.39018,-9.16383 -2.95608,-13.89355 z"
           id="path4343-4"
           sodipodi:nodetypes="ccssccccc" />
        <path
           style="fill:#bfa587;fill-opacity:1;stroke:#bfa587;stroke-width:1px;stroke-linecap:butt;stroke-linejoin:miter;stroke-opacity:1"
           d="m 377.19499,242.54583 13.59793,14.04135 -4.72971,5.46874 5.61654,5.02532 5.02533,-4.87752 13.74573,13.30233 3.69509,-3.54728 -12.71111,-13.74575 3.54729,-3.69509 -5.32094,-5.76434 -3.9907,3.84289 -14.04134,-13.59794 -4.43411,3.54729 z"
           id="path4333-4"
           sodipodi:nodetypes="ccccccccccccc" />
        <path
           style="fill:#ff3e33;fill-opacity:1;stroke:none"
           d="m 418.8644,255.70135 3.56275,-1.82952 c 1.0112,1.5835 1.87699,3.11852 2.50356,4.57381 l -4.18864,1.54065 c -0.21929,-0.85908 -1.0281,-2.54347 -1.87767,-4.28494 z"
           id="path4351-7"
           sodipodi:nodetypes="ccccc" />
      </g>
    </g>
    <g
       id="body"
       inkscape:label="#g4025">
      <path
         id="side"
         d="m 172.04348,617.81937 66.80726,15.66719 131.84089,0.88682 -79.81399,-179.13805 -24.23981,0 -10.64186,4.72971 -122.38145,92.82071 38.42896,65.03362 z"
         style="fill:url(#linearGradient4565);fill-opacity:1;stroke:#832a1c;stroke-width:1px;stroke-linecap:butt;stroke-linejoin:miter;stroke-opacity:1"
         inkscape:label="#path3926"
         sodipodi:nodetypes="cccccccc" />
      <path
         sodipodi:nodetypes="cssscsccc"
         id="front-side"
         d="m 646.04988,634.07777 c 0,0 -105.13176,-157.17834 -117.65173,-177.80782 -13.00673,-21.43153 -26.30906,-20.98812 -50.25325,-19.51008 -20.66163,1.2754 -158.98973,9.25672 -180.6161,11.38088 -12.39851,1.21779 -24.32002,3.85892 -37.39433,9.16383 10.51758,-2.96062 16.91951,-2.1026 28.96952,6.20775 17.14523,11.82429 53.80054,145.43882 53.80054,145.43882 l 23.05737,26.01345 280.08798,-0.88683 z"
         style="fill:#ad3420;fill-opacity:1;stroke:#ad3420;stroke-width:1px;stroke-linecap:butt;stroke-linejoin:miter;stroke-opacity:1"
         inkscape:label="#path3924" />
      <path
         id="small-speckle"
         d="m 369.76693,572.22954 c -19.02136,-8.77909 -37.20662,-49.33013 -42.85032,-65.00707 -5.6437,-15.67695 7.94299,-12.12351 16.30403,-9.40617 8.36103,2.71733 18.81233,11.2874 19.43941,17.34915 0.62708,6.06175 -0.62708,8.15201 -0.20903,14.00474 0.41806,5.85273 16.51306,15.67695 18.81234,17.97623 2.29929,2.29929 -10.66032,24.66507 -11.49643,25.08312 z"
         style="fill:#ff3e32;fill-opacity:1;stroke:#ff3e32;stroke-width:1px;stroke-linecap:butt;stroke-linejoin:miter;stroke-opacity:1"
         inkscape:label="#path3920" />
      <path
         sodipodi:nodetypes="cssssssscccssc"
         id="large-speckle"
         d="m 315.21116,453.71182 c 0,0 165.54856,-6.68883 178.50817,0 12.95961,6.68883 40.13299,31.77194 45.56766,40.55104 5.43468,8.77909 7.10688,12.95961 4.59857,16.72207 -2.50831,3.76247 -27.59143,-1.67221 -33.8622,-2.92636 -6.27078,-1.25416 -73.57714,-17.55818 -93.22558,-17.14013 -19.64844,0.41805 -26.33728,6.68883 -15.46793,15.46792 10.86935,8.77909 75.24935,50.58429 86.53675,55.18286 11.2874,4.59857 74.8313,38.87883 74.8313,38.87883 l 38.87883,17.14012 22.5748,-2.50831 c 0,0 -96.71016,-151.57993 -108.5457,-163.9988 -10.96643,-11.50693 -18.04,-11.43521 -25.64897,-11.16496 -15.88146,0.56406 -174.32765,13.79572 -174.7457,13.79572 z"
         style="fill:#ff3e32;fill-opacity:1;stroke:#ff3e32;stroke-width:1px;stroke-linecap:butt;stroke-linejoin:miter;stroke-opacity:1"
         inkscape:label="#path3922" />
      <path
         style="fill:#000000;fill-opacity:1;stroke:#000000;stroke-width:1px;stroke-linecap:butt;stroke-linejoin:miter;stroke-opacity:1"
         d="m 495.21875,429.90625 c -7.28666,0.15463 -15.86101,1.29928 -26.375,2.875 -26.1479,3.91876 -153.73909,10.04393 -180.34375,13 -19.0313,2.11459 -23.63939,4.723 -34.28125,13 -10.64187,8.27701 -124.15625,92.8125 -124.15625,92.8125 l 41.375,66.8125 65.62754,17.14104 381.92735,-4.1191 L 636.75,607.1875 c 0,0 -46.70866,-62.66815 -66.21875,-94.59375 -19.51008,-31.92559 -31.36534,-51.59957 -39.625,-63.875 -9.94362,-14.77811 -19.65685,-19.15268 -35.6875,-18.8125 z m 0.0937,6.25 c 11.16971,-0.1556 22.9012,2.86722 32.65625,17.90625 14.18915,21.87494 98.35953,157.27113 101.6875,154.875 l -13.59877,20.7069 -378.38768,2.97046 -66.23225,-16.58361 -37.8125,-64.4375 c 0,0 107.57942,-81.59292 118.8125,-88.6875 11.23308,-7.09457 18.34971,-11.22635 34.3125,-13 15.9628,-1.77364 161.38944,-10.04139 193.90625,-12.40625 4.61886,-0.55426 9.57911,-1.27302 14.65625,-1.34375 l -5e-5,0 z"
         id="body-contour"
         inkscape:label="#path4049"
         sodipodi:nodetypes="cssscccccssccscccccssccc" />
    </g>
    <g
       id="arm_left"
       inkscape:label="#g4010">
      <path
         style="fill:#000000;fill-opacity:1;stroke:#000000;stroke-width:1px;stroke-linecap:butt;stroke-linejoin:miter;stroke-opacity:1"
         d="m 75.458374,549.65474 c -4.980003,7.49666 -21.111623,29.47266 -21.111623,52.46551 0,34.07124 37.600476,39.89308 65.216099,38.87883 3.58829,-10.6513 7.34,-19.66065 19.85747,-30.72681 14.42279,-12.75059 37.68713,-10.6141 60.82655,-20.27552 -69.55226,3.13988 -109.571118,-15.31716 -124.788496,-40.34201 z"
         id="arm-left-contour"
         sodipodi:nodetypes="cscscc"
         inkscape:label="#path4015" />
      <path
         sodipodi:nodetypes="ccsc"
         id="fill-1"
         d="m 91.344347,580.06801 c 20.182003,10.04053 42.821843,12.84353 65.007083,15.78146 -4.68039,2.43195 -23.01595,12.40021 -40.44653,7.62946 -14.16141,-3.87598 -21.011888,-14.25821 -24.560553,-23.41092 z"
         style="fill:#7e3421;fill-opacity:1;stroke:#7e3421;stroke-width:1px;stroke-linecap:butt;stroke-linejoin:miter;stroke-opacity:1"
         inkscape:label="#path4004" />
      <path
         sodipodi:nodetypes="ccac"
         id="fill-2"
         d="m 94.688762,597.41717 c 16.293248,10.49334 29.253358,13.14657 43.790938,10.24227 -8.63466,5.85315 -17.26457,13.3256 -26.5463,10.97386 -8.83433,-2.23838 -15.750755,-11.37041 -17.244638,-21.21613 z"
         style="fill:#7e3421;fill-opacity:1;stroke:#7e3421;stroke-width:1px;stroke-linecap:butt;stroke-linejoin:miter;stroke-opacity:1"
         inkscape:label="#path4006" />
      <path
         sodipodi:nodetypes="ccac"
         id="fill-3"
         d="m 126.46071,620.09649 c -5.68788,5.23165 -7.98274,3.54136 -13.79571,3.97149 3.90404,3.35047 8.71093,5.58627 12.33252,3.34442 2.11457,-1.30897 3.95295,-2.79945 1.46319,-7.31591 z"
         style="fill:#7e3421;fill-opacity:1;stroke:#7e3421;stroke-width:1px;stroke-linecap:butt;stroke-linejoin:miter;stroke-opacity:1"
         inkscape:label="#path4008" />
    </g>
    <g
       id="gripper_left"
       inkscape:label="#g3974">
      <path
         sodipodi:nodetypes="ccssccsssc"
         id="inner_dark"
         d="m 168.1251,462.62551 m -21.48715,101.00097 c 7.73153,2.62571 15.59227,2.73419 24.2231,3.64404 6.71419,0.7078 16.84962,1.47803 23.64859,-3.8429 6.79897,-5.32093 10.64186,-17.44083 10.64186,-17.44083 l 5.91215,-109.07912 c 0,0 -2.65137,10.03475 -7.39018,18.32766 -4.72972,8.27701 -10.6615,10.64336 -19.51009,11.23308 -6.65328,0.44341 -11.30909,-1.33023 -16.03828,-3.8429 l -21.48715,101.00097 z"
         style="fill:#a68e74;fill-opacity:1;stroke:#a68e74;stroke-width:1px;stroke-linecap:butt;stroke-linejoin:miter;stroke-opacity:1"
         inkscape:label="#path3936" />
      <path
         sodipodi:nodetypes="cccccss"
         id="inner_light"
         d="m 168.13714,462.52216 -21.48715,101.00097 m 21.48715,-101.00097 c -4.72919,-2.51266 -9.53176,-5.76434 -9.38396,-5.91215 l -23.35297,57.79124 c 0,0 -19.17167,6.93493 -16.99742,24.1659 1.45999,11.57052 6.51473,17.57539 28.2472,24.95598"
         style="fill:#bfa687;fill-opacity:1;stroke:#bfa687;stroke-width:1px;stroke-linecap:butt;stroke-linejoin:miter;stroke-opacity:1;display:inline"
         inkscape:label="#path3936-2" />
      <path
         sodipodi:nodetypes="ccscsssc"
         id="outer_dark"
         d="m 178.25124,365.07508 -54.68737,118.83416 c 0,0 -20.1013,4.1385 -36.655308,21.87494 -16.554012,17.73644 -14.48476,32.51681 -14.48476,32.51681 0,0 -2.754928,-10.64518 -2.364859,-20.39691 0.886822,-22.17055 21.466284,-102.90153 29.856343,-115.28686 12.415504,-18.32766 27.787094,-27.78709 41.089424,-31.9256 13.30233,-4.1385 37.24653,-5.91215 37.24653,-5.61654 z"
         style="fill:#c0a688;fill-opacity:1;stroke:#c0a788;stroke-width:1px;stroke-linecap:butt;stroke-linejoin:miter;stroke-opacity:1"
         inkscape:label="#path3946" />
      <path
         id="outer_light"
         d="m 167.31376,372.46527 c -12.71111,-3.25168 -32.2212,7.68579 -40.4982,14.18915 -8.27701,6.50336 -12.41551,15.07597 -12.41551,26.30905 0,11.23308 7.39018,35.47289 5.91214,45.22793 -1.47803,9.75504 -16.2584,25.71784 -16.2584,25.71784 0,0 13.30233,-7.09458 16.84962,-10.05065 3.54729,-2.95607 46.11475,-101.09772 46.41035,-101.39332 z"
         style="fill:#d7cec2;fill-opacity:1;stroke:#d7cec2;stroke-width:1px;stroke-linecap:butt;stroke-linejoin:miter;stroke-opacity:1"
         inkscape:label="#path3948" />
      <path
         sodipodi:nodetypes="ccccc"
         id="end_right"
         d="m 215.20215,420.94487 25.42224,1.47803 -4.72972,122.38146 -27.19588,-2.36486 6.50336,-121.49463 z"
         style="fill:#d7cec2;fill-opacity:1;stroke:#d7cec2;stroke-opacity:1"
         inkscape:label="#path3940" />
      <path
         id="end_left"
         d="m 180.02488,369.8048 2.36486,21.57934 -48.184,117.94733 -7.68579,-23.94419 53.50493,-115.58248 z"
         style="fill:#d7cec2;fill-opacity:1;stroke:#d7cec2;stroke-width:1px;stroke-linecap:butt;stroke-linejoin:miter;stroke-opacity:1"
         inkscape:label="#path3942" />
      <path
         sodipodi:nodetypes="ccssccssssc"
         id="bottom_face"
         d="m 123.85948,487.16092 7.39019,25.71784 c 0,0 -19.78419,9.07508 -15.9628,28.67391 4.89934,25.12733 47.04297,31.27901 72.1282,28.08269 9.071,-1.15581 16.73648,-9.67088 20.3969,-23.35297 9.45943,0.88682 16.42281,1.77855 27.49148,2.95607 -4.00731,15.36667 -14.18915,25.12663 -23.35298,31.03878 -9.16382,5.91214 -29.59058,10.28315 -53.50493,7.09457 -35.47288,-4.72971 -67.843425,-13.84683 -77.449125,-29.85634 -6.207755,-10.34626 -6.207754,-19.80569 -0.295607,-36.95092 5.912147,-17.14523 42.863062,-33.69924 43.158672,-33.40363 z"
         style="fill:#8a7560;fill-opacity:1;stroke:#8a7560;stroke-width:1px;stroke-linecap:butt;stroke-linejoin:miter;stroke-opacity:1"
         inkscape:label="#path3944" />
      <path
         style="fill:#000000;fill-opacity:1;stroke:#000000;stroke-width:1px;stroke-linecap:butt;stroke-linejoin:miter;stroke-opacity:1"
         d="m 181.5,362.125 c -19.79793,0.0147 -40.30816,1.71199 -67.09375,18.03125 l -2.375,-3.25 c 0,0 -18.321814,14.75851 -27.78125,42.25 -9.459435,27.49148 -27.210289,94.90124 -21.59375,115.59375 10.622116,49.5499 51.29496,57.22433 81.875,59.375 40.25347,2.83099 82.6796,-0.93249 95.21875,-45.1875 l 3.53125,-129.78125 -31.03125,-2.0625 c 0,0 -0.60474,14.77452 -6.8125,27.78125 -6.20775,13.00672 -12.09885,20.41301 -24.21875,18.34375 -12.1199,-2.06925 -21,-10.65625 -21,-10.65625 l 25.125,-61.78125 L 181.5,362.125 z m -2.65625,2.9375 -54.6875,117.96875 c -14.62904,5.31079 -32.96943,15.7253 -41.375,27.46875 -10.12051,14.13941 -10.0625,26.90625 -10.0625,26.90625 0,0 -3.845431,-8.26358 -0.59375,-36.9375 1.62584,-14.33696 10.141657,-51.04629 17.90625,-74.3125 7.764594,-23.26622 6.199539,-22.43846 20.8125,-36.53125 17.35434,-16.73659 43.17118,-24.4713 68,-24.5625 z m 0.875,6.21875 2.375,18.625 -48.1875,119.125 -7.09375,-24.25 52.90625,-113.5 z m 35.1875,49.96875 25.4375,1.46875 -4.15625,122.96875 -28.375,-3.25 7.09375,-121.1875 z m -4.4375,18.625 -5.625,103.75 c -5.40646,21.61569 -16.76403,27.77074 -49.9375,21.28125 -16.85637,-3.2975 -35.7669,-8.58113 -36.0625,-27.5 -0.29561,-18.91887 16.25,-21.875 16.25,-21.875 L 159.03125,457 c 1.18243,0.59121 9.46553,9.51161 25.4375,9.75 19.80569,0.2956 26,-26.875 26,-26.875 z m -87.25,47.84375 c 0.0423,-8.3e-4 0.081,0.0128 0.0625,0.0312 l 8.5625,25.4375 c 0,0 -16.04073,4.43908 -17.15625,23.03125 -0.88681,14.78036 5.99075,25.89932 39.33951,31.94679 13.39708,2.42942 21.4372,3.81999 34.28549,0.86571 11.84536,-2.72368 16.97871,-14.55182 19.21875,-22.75 l 28.0625,3.25 C 230.59979,562.13377 217.2785,587.08008 181.5,588.25 143.34581,589.4976 109.18377,579.52329 98.71875,572 85.322965,562.36979 68.286348,550.72713 80.40625,523.53125 c 11.741154,-26.34601 41.50062,-35.78677 42.8125,-35.8125 z"
         id="gripper-left-contour"
         inkscape:label="#path4031"
         sodipodi:nodetypes="cccscscccsscccccscssscccccccccccccssccsccccsssccsssc" />
    </g>
    <g
       id="neck"
       inkscape:label="#g4539">
      <path
         inkscape:label="#path4535"
         id="neck-dark"
         d="m 322.31804,444.09662 c 0,0 45.35863,-19.64844 77.75766,-20.06649 32.39902,-0.41805 21.94772,14.21377 21.94772,14.21377 l -99.70538,5.85272 z"
         style="fill:#8b7660;fill-opacity:1;stroke:#000000;stroke-width:3;stroke-linecap:butt;stroke-linejoin:miter;stroke-miterlimit:4;stroke-opacity:1;stroke-dasharray:none" />
      <path
         inkscape:label="#path4537"
         sodipodi:nodetypes="cccc"
         id="neck-light"
         d="m 378.43626,427.96576 c 9.47307,1.94214 11.64492,5.33477 13.40085,10.58426 l 29.32485,-1.85806 c 6.81393,-13.20071 -24.77875,-12.55671 -42.7257,-8.7262 z"
         style="fill:#bfa587;fill-opacity:1;stroke:none" />
    </g>
  </g>
  <g
     inkscape:groupmode="layer"
     id="layer2"
     inkscape:label="pobot"
     style="display:inline"
     sodipodi:insensitive="true">
    <g
       id="POBOT"
       inkscape:label="#g6095"
       style="fill:url(#linearGradient6146);fill-opacity:1">
      <g
         style="fill:url(#linearGradient6146);fill-opacity:1"
         inkscape:label="#g5520"
         id="P">
        <path
           style="fill:url(#linearGradient6146);fill-opacity:1;stroke:none"
           d="m 176.34375,601.875 c -1.04108,0.0152 -2.08429,0.0481 -3.125,0.0937 -18.30731,0.16494 -36.53592,10.758 -43.46875,28.03125 -9.24717,20.72257 -4.8333,44.29753 -5.875,66.34375 0.27415,25.86178 -0.52027,51.80939 0.34375,77.625 1.17639,12.26693 10.11946,24.80278 23.34375,25 11.01012,1.16901 23.22214,-4.22088 26.40625,-15.5 3.23267,-8.5872 2.79462,-18.52762 3.53125,-27.15625 18.29389,-1.13545 39.53707,-3.20181 51.9375,-18.34375 10.673,-14.62027 8.1629,-33.95042 9.3125,-51.03125 -0.25912,-16.81573 0.95678,-33.90879 -1.40625,-50.5625 -3.93599,-18.38531 -21.96062,-29.41013 -39.28125,-32.5625 -7.14669,-1.4013 -14.43119,-2.04394 -21.71875,-1.9375 z m -11.46875,26.75 c 10.70153,-0.3177 19.26972,7.65835 20.625,18.21875 1.24211,18.63894 0.11342,37.43145 0.5,56.125 1.31786,9.71633 -2.81053,22.03086 -13.34375,24.3125 -10.71357,3.38031 -24.80351,-1.97852 -26.84375,-14.21875 -1.05797,-19.80885 -0.1192,-39.76269 -0.4375,-59.625 -1.6151,-11.34678 6.00786,-24.7635 18.46875,-24.75 0.3495,-0.0277 0.68604,-0.0522 1.03125,-0.0625 z"
           id="P-filling" />
        <path
           style="fill:#000000;fill-opacity:1;stroke:#000000;stroke-width:1px;stroke-linecap:butt;stroke-linejoin:miter;stroke-opacity:1"
           d="m 177.28125,596.8125 c -44.85834,0.28986 -59.34375,37.47069 -59.34375,60.90625 l 0,122.09375 c 0,5.05999 3.55655,32.21875 34.3125,32.21875 27.32173,0 36.53125,-15.68768 36.53125,-43.40625 C 243.0592,766.85136 246.25,734.76411 246.25,723.0625 l 0,-87.5 c 0,-16.55665 -20.258,-37.81041 -66.8125,-38.71875 -0.72741,-0.0142 -1.44421,-0.0358 -2.15625,-0.0312 z m -2,7.0625 c 0.66638,-0.017 1.34735,0 2.03125,0 36.66696,0 57.75507,16.24297 58.9375,39.3125 0.51373,10.02302 1.47297,54.42953 -1.1875,74.34375 -2.66047,19.91422 -13.36049,35.29036 -59.8125,36.875 0,24.76513 -2.27383,42.625 -25.65625,42.625 -21.6241,0 -23.71875,-23.10415 -23.71875,-27.625 l 0,-109.0625 c 0,-20.93845 7.42434,-55.39759 49.40625,-56.46875 z"
           id="P-outline"
           inkscape:label="#path2833" />
        <path
           style="fill:#000000;fill-opacity:1;stroke:#000000;stroke-width:1px;stroke-linecap:butt;stroke-linejoin:miter;stroke-opacity:1"
           d="m 164.375,626.65625 c -14.89289,0.25683 -21,13.61743 -21,22.78125 l 0,59.4375 c 0,9.45944 6.50595,21.28125 22.46875,21.28125 17.79792,0 22.15625,-13.61489 22.15625,-22.1875 l 0,-55.28125 c 0,-13.59794 -7.08028,-25.40878 -22.15625,-26 -0.4988,-0.0196 -0.98833,-0.0395 -1.46875,-0.0312 z m 3.46875,15.5 c 11.16317,0 10.75,9.64212 10.75,20.1875 l 0,42.84375 c 0,9.9369 0.58575,17.1875 -10.75,17.1875 -9.82334,0 -10.90625,-7.07913 -10.90625,-16.5 l 0,-46.0625 c 0,-11.17983 0.17275,-17.65625 10.90625,-17.65625 z"
           id="P-hole"
           inkscape:label="#path3669" />
      </g>
      <g
         style="fill:url(#linearGradient6146);fill-opacity:1"
         inkscape:label="#g5546"
         id="O">
        <path
           style="fill:url(#linearGradient6146);fill-opacity:1;stroke:#000000;stroke-width:0.87311649px;stroke-linecap:butt;stroke-linejoin:miter;stroke-opacity:1"
           d="m 305.28125,602.15625 c -0.78493,0.01 -1.55879,0.0302 -2.34375,0.0625 -19.68967,0.58535 -42.03432,7.97797 -51.40625,26.6875 -5.31158,11.88063 -1.68861,25.41541 -2.46875,38 0.68852,19.1328 0.006,38.41498 1.21875,57.46875 4.32964,16.70943 21.52789,25.9624 37.1875,29.84375 22.73575,5.38446 50.54547,1.71495 65.9375,-17.21875 7.52664,-8.76405 9.31713,-20.58628 8.40625,-31.8125 -0.18832,-21.90493 1.03489,-43.88594 0.0625,-65.75 -2.78292,-19.73798 -21.55671,-32.85575 -40.1875,-35.875 -5.39829,-0.99672 -10.91175,-1.47422 -16.40625,-1.40625 z M 321.75,628.3125 c 10.17181,0.11375 18.44055,8.08785 19.6875,18.21875 1.24558,18.23963 0.11147,36.8044 0.5,55.15625 1.26097,9.79376 -2.03314,22.22822 -12.6875,25.15625 -10.8743,3.65319 -25.42059,-1.57771 -27.5,-14.0625 -1.05797,-19.80885 -0.1192,-39.76269 -0.4375,-59.625 -1.60794,-11.30467 5.9501,-24.6841 18.375,-24.75 0.69348,-0.0639 1.38438,-0.10133 2.0625,-0.0937 z"
           id="O-filling" />
        <path
           style="fill:#000000;fill-opacity:1;stroke:#000000;stroke-width:1px;stroke-linecap:butt;stroke-linejoin:miter;stroke-opacity:1"
           d="m 308.03125,597.125 c -39.03049,0 -63.875,23.05663 -63.875,39.90625 0,16.84962 1.1875,72.12798 1.1875,93.46875 0,21.34078 29.28133,38.65625 62.09375,38.65625 42.98623,0 62.375,-23.02527 62.375,-39.90625 0,-10.11997 0.59375,-74.18585 0.59375,-88.375 0,-21.32202 -23.61614,-43.75 -62.375,-43.75 z m -1.875,7.03125 c 33.62426,0 54.09375,18.52078 54.09375,40.8125 0,12.46865 -0.5,61.38839 -0.5,70.28125 0,14.83406 -14.74613,39.21875 -53.8125,39.21875 -28.46558,0 -54.15625,-16.12191 -54.15625,-34.875 0,-18.75308 -1.03125,-63.78724 -1.03125,-78.59375 0,-18.94731 21.54633,-36.84375 55.40625,-36.84375 z"
           id="O-outline"
           inkscape:label="#path3695" />
        <path
           style="fill:#000000;fill-opacity:1;stroke:#000000;stroke-width:1px;stroke-linecap:butt;stroke-linejoin:miter;stroke-opacity:1"
           d="m 320.3125,626.375 c -14.89289,0.25683 -21,13.61743 -21,22.78125 l 0,59.4375 c 0,9.45944 6.50595,21.28125 22.46875,21.28125 17.79792,0 22.15625,-13.61489 22.15625,-22.1875 l 0,-55.28125 c 0,-13.59794 -7.08028,-25.40878 -22.15625,-26 -0.4988,-0.0196 -0.98833,-0.0395 -1.46875,-0.0312 z m 3.4375,15.5 c 11.16317,0 10.78125,9.64212 10.78125,20.1875 l 0,42.84375 c 0,9.9369 0.5545,17.1875 -10.78125,17.1875 -9.82334,0 -10.90625,-7.07913 -10.90625,-16.5 l 0,-46.0625 c 0,-11.17983 0.17275,-17.65625 10.90625,-17.65625 z"
           id="O-hole"
           inkscape:label="#path3669-9" />
      </g>
      <g
         style="fill:url(#linearGradient6146);fill-opacity:1"
         inkscape:label="#g5574"
         id="B">
        <path
           style="fill:url(#linearGradient6146);fill-opacity:1;stroke:#000000;stroke-width:0.87575847px;stroke-linecap:butt;stroke-linejoin:miter;stroke-opacity:1"
           d="m 398.5,542.8125 c -0.68622,0.0204 -1.3834,0.0618 -2.0625,0.125 -9.80893,-0.28516 -19.09088,6.3796 -21.125,16.125 -3.57928,16.25506 -0.87686,33.19156 -1.71875,49.71875 0.30728,34.64779 -0.59186,69.34655 0.4375,103.96875 1.14773,16.4937 11.09566,32.53941 26.9375,38.375 19.57583,7.28901 42.45312,6.50717 61.71875,-1.59375 13.38803,-5.64386 25.49591,-18.58173 23.625,-34.0625 -0.34013,-25.43254 0.65098,-50.96629 -0.4375,-76.34375 -1.9823,-17.70122 -18.00541,-29.83715 -34.3125,-33.9375 -8.51818,-2.39981 -17.3641,-3.48857 -26.25,-3.46875 -1.04524,-14.65357 1.69001,-29.92217 -2.5625,-44.15625 -3.1486,-10.50236 -13.95663,-15.0553 -24.25,-14.75 z m 15.3125,87.09375 c 10.68859,-0.34453 19.33441,7.7371 20.65625,18.28125 1.15498,18.96188 0.11315,38.05382 0.46875,57.0625 1.44933,10.16347 -4.08304,22.41011 -15.125,23.75 -10.47061,2.46552 -23.12059,-3.187 -25.0625,-14.65625 -1.05786,-19.79013 -0.11944,-39.72075 -0.4375,-59.5625 -1.62856,-11.36112 5.99512,-24.8395 18.46875,-24.8125 0.34889,-0.0288 0.68646,-0.0514 1.03125,-0.0625 z"
           id="B-filling" />
        <path
           style="fill:#000000;fill-opacity:1;stroke:#000000;stroke-width:1px;stroke-linecap:butt;stroke-linejoin:miter;stroke-opacity:1"
           d="m 398.1875,538.3125 c -15.30148,0.31098 -32.21875,9.98185 -32.21875,35.46875 l 0,137.75 c 0,34.29045 24.83794,57.625 63.5625,57.625 40.50253,0 64.84375,-18.76203 64.84375,-38.125 l 0,-99.375 c 0,-13.99708 -27.68551,-34.52871 -57.03125,-33.9375 l 0,-20.53125 c 0,-18.21162 -5.31751,-38.875 -37.6875,-38.875 -0.4896,-0.009 -0.97515,-0.01 -1.46875,0 z m 0.625,6.59375 c 20.02693,0 24.21875,12.78534 24.21875,29.28125 0,13.35106 0.3125,20.15564 0.3125,29.5625 24.84769,-0.53551 60.96875,8.27353 60.96875,41.65625 l 0,74.0625 c 0,17.53879 -20.61186,34.53125 -54.90625,34.53125 -36.92863,0 -53.8125,-18.40378 -53.8125,-49.53125 l 0,-130.6875 c 0,-24.72439 10.81576,-28.875 23.21875,-28.875 z"
           id="B-outline"
           inkscape:label="#path3827" />
        <path
           style="fill:#000000;fill-opacity:1;stroke:#000000;stroke-width:1px;stroke-linecap:butt;stroke-linejoin:miter;stroke-opacity:1"
           d="m 413.3125,627.9375 c -14.89289,0.25683 -21,13.61743 -21,22.78125 l 0,59.4375 c 0,9.45944 6.50595,21.28125 22.46875,21.28125 17.79792,0 22.15625,-13.61489 22.15625,-22.1875 l 0,-55.28125 c 0,-13.59794 -7.08028,-25.40878 -22.15625,-26 -0.4988,-0.0196 -0.98833,-0.0395 -1.46875,-0.0312 z m 3.46875,15.5 c 11.16317,0 10.75,9.64212 10.75,20.1875 l 0,42.84375 c 0,9.9369 0.58575,17.1875 -10.75,17.1875 -9.82334,0 -10.90625,-7.07913 -10.90625,-16.5 l 0,-46.0625 c 0,-11.17983 0.17275,-17.65625 10.90625,-17.65625 z"
           id="B-hole"
           inkscape:label="#path3669-9-6" />
      </g>
      <g
         transform="translate(250,0)"
         id="O-copy"
         inkscape:label="#g5546"
         style="fill:#e1c7b0;fill-opacity:1">
        <path
           id="path6081"
           d="m 305.28125,602.15625 c -0.78493,0.01 -1.55879,0.0302 -2.34375,0.0625 -19.68967,0.58535 -42.03432,7.97797 -51.40625,26.6875 -5.31158,11.88063 -1.68861,25.41541 -2.46875,38 0.68852,19.1328 0.006,38.41498 1.21875,57.46875 4.32964,16.70943 21.52789,25.9624 37.1875,29.84375 22.73575,5.38446 50.54547,1.71495 65.9375,-17.21875 7.52664,-8.76405 9.31713,-20.58628 8.40625,-31.8125 -0.18832,-21.90493 1.03489,-43.88594 0.0625,-65.75 -2.78292,-19.73798 -21.55671,-32.85575 -40.1875,-35.875 -5.39829,-0.99672 -10.91175,-1.47422 -16.40625,-1.40625 z M 321.75,628.3125 c 10.17181,0.11375 18.44055,8.08785 19.6875,18.21875 1.24558,18.23963 0.11147,36.8044 0.5,55.15625 1.26097,9.79376 -2.03314,22.22822 -12.6875,25.15625 -10.8743,3.65319 -25.42059,-1.57771 -27.5,-14.0625 -1.05797,-19.80885 -0.1192,-39.76269 -0.4375,-59.625 -1.60794,-11.30467 5.9501,-24.6841 18.375,-24.75 0.69348,-0.0639 1.38438,-0.10133 2.0625,-0.0937 z"
           style="fill:#e1c7b0;fill-opacity:1;stroke:#000000;stroke-width:0.87311649px;stroke-linecap:butt;stroke-linejoin:miter;stroke-opacity:1" />
        <path
           inkscape:label="#path3695"
           id="path6083"
           d="m 308.03125,597.125 c -39.03049,0 -63.875,23.05663 -63.875,39.90625 0,16.84962 1.1875,72.12798 1.1875,93.46875 0,21.34078 29.28133,38.65625 62.09375,38.65625 42.98623,0 62.375,-23.02527 62.375,-39.90625 0,-10.11997 0.59375,-74.18585 0.59375,-88.375 0,-21.32202 -23.61614,-43.75 -62.375,-43.75 z m -1.875,7.03125 c 33.62426,0 54.09375,18.52078 54.09375,40.8125 0,12.46865 -0.5,61.38839 -0.5,70.28125 0,14.83406 -14.74613,39.21875 -53.8125,39.21875 -28.46558,0 -54.15625,-16.12191 -54.15625,-34.875 0,-18.75308 -1.03125,-63.78724 -1.03125,-78.59375 0,-18.94731 21.54633,-36.84375 55.40625,-36.84375 z"
           style="fill:#000000;fill-opacity:1;stroke:#000000;stroke-width:1px;stroke-linecap:butt;stroke-linejoin:miter;stroke-opacity:1" />
        <path
           inkscape:label="#path3669-9"
           id="path6085"
           d="m 320.3125,626.375 c -14.89289,0.25683 -21,13.61743 -21,22.78125 l 0,59.4375 c 0,9.45944 6.50595,21.28125 22.46875,21.28125 17.79792,0 22.15625,-13.61489 22.15625,-22.1875 l 0,-55.28125 c 0,-13.59794 -7.08028,-25.40878 -22.15625,-26 -0.4988,-0.0196 -0.98833,-0.0395 -1.46875,-0.0312 z m 3.4375,15.5 c 11.16317,0 10.78125,9.64212 10.78125,20.1875 l 0,42.84375 c 0,9.9369 0.5545,17.1875 -10.78125,17.1875 -9.82334,0 -10.90625,-7.07913 -10.90625,-16.5 l 0,-46.0625 c 0,-11.17983 0.17275,-17.65625 10.90625,-17.65625 z"
           style="fill:#000000;fill-opacity:1;stroke:#000000;stroke-width:1px;stroke-linecap:butt;stroke-linejoin:miter;stroke-opacity:1" />
      </g>
      <g
         style="fill:url(#linearGradient6146);fill-opacity:1"
         inkscape:label="#g5592"
         id="T">
        <path
           style="fill:url(#linearGradient6146);fill-opacity:1;stroke:#000000;stroke-width:0.83223999px;stroke-linecap:butt;stroke-linejoin:miter;stroke-opacity:1"
           d="m 662.8125,570.40625 c -7.39943,-0.26497 -10.78298,7.56993 -10.3125,13.875 0.22021,6.86869 1.24509,15.37639 -5.71875,19.5 -10.30717,8.43951 -25.23485,-0.35794 -35.9375,6.6875 -5.95711,5.59434 -3.18016,18.74553 6,18.8125 4.6064,-0.46044 6.66045,1.24733 5.40625,6.3125 0.28002,32.62374 -0.54132,65.32701 0.375,97.90625 0.60994,10.94377 8.37239,22.04513 20,22.65625 11.05519,1.19111 24.74662,-2.07056 28.75,-13.75 5.08027,-15.81745 1.83632,-32.93371 2.78125,-49.28125 0,-21.19792 0,-42.39583 0,-63.59375 6.62759,1.52287 14.37903,-3.07634 13.9375,-10.375 1.01332,-7.35428 -6.699,-11.47165 -13.0625,-11.09375 -2.03477,-4.32845 -0.29686,-12.29725 -0.875,-18.03125 -0.2652,-6.33585 1.71171,-16.99303 -6.4375,-19.28125 -1.58954,-0.44421 -3.26464,-0.41371 -4.90625,-0.34375 z"
           id="T-filling"
           inkscape:label="#path5583" />
        <path
           style="fill:#000000;fill-opacity:1;stroke:#000000;stroke-width:1px;stroke-linecap:butt;stroke-linejoin:miter;stroke-opacity:1"
           d="m 665.125,564.3125 c -9.54495,0 -19.375,6.20442 -19.375,17.4375 l 0,12.875 c 0,5.76434 -8.41049,9.59375 -16.6875,9.59375 l -11.84375,0 c -8.27701,0 -14.78125,2.36222 -14.78125,14.78125 0,15.9628 13.03125,15.375 13.03125,15.375 0,0 0.5625,88.66642 0.5625,101.96875 0,13.30233 10.05073,32.8125 32.8125,32.8125 30.80987,0 37.84375,-19.98768 37.84375,-38.40625 l 0,-89.5625 c 0,0 13.75,-4.75679 13.75,-19.09375 0,-14.33696 -16.40625,-18.46875 -16.40625,-18.46875 l 0,-24.53125 c 0,-9.16383 -9.3613,-14.78125 -18.90625,-14.78125 z m -0.90625,8.0625 c 7.4306,0 7.9375,4.69062 7.9375,12.84375 l 0,24.78125 c 7.82301,0 13.96875,1.32958 13.96875,8.46875 0,12.46009 -13.96875,8.6875 -13.96875,8.6875 l 0,92.96875 c 0,19.93443 -2.20251,34.1875 -26.1875,34.1875 -17.71968,0 -21.71875,-14.97732 -21.71875,-26.8125 l 0,-99.90625 c -10.19897,0 -14.4375,-0.64373 -14.4375,-9.84375 0,-7.8093 7.44935,-8.125 12.71875,-8.125 l 13.34375,0 c 9.40424,0 18.59375,-7.80918 18.59375,-15.03125 l 0,-8.5 c 0,-9.99416 2.31941,-13.71875 9.75,-13.71875 z"
           id="T-outline"
           inkscape:label="#path3891" />
      </g>
    </g>
  </g>
</svg>
