 0
SECTION
 2
ENTITIES
  0
POLYLINE
 8
Layer0
 66
     1
10
0.0
 20
 0.0
 30
0.0
70
    64
71
69
72
   1
  0
VERTEX
  8
Layer0
10
88.29148732110814
20
355.32392426965254
30
0.0
 70
     192
  0
VERTEX
  8
Layer0
10
88.56160743574931
20
349.47424227004376
30
0.0
 70
     192
  0
VERTEX
  8
Layer0
10
88.23770017529041
20
352.39465258758196
30
0.0
 70
     192
  0
VERTEX
  8
Layer0
10
88.72251412442195
20
358.23729149699847
30
0.0
 70
     192
  0
VERTEX
  8
Layer0
10
89.26047059628456
20
346.58738421701355
30
0.0
 70
     192
  0
VERTEX
  8
Layer0
10
89.52713642618076
20
361.110122916149
30
0.0
 70
     192
  0
VERTEX
  8
Layer0
10
90.32838104867942
20
343.75848565750437
30
0.0
 70
     192
  0
VERTEX
  8
Layer0
10
90.69855146697456
20
363.91812988766446
30
0.0
 70
     192
  0
VERTEX
  8
Layer0
10
91.75631003762899
20
341.01146379620786
30
0.0
 70
     192
  0
VERTEX
  8
Layer0
10
92.22685540164282
20
366.6375718368641
30
0.0
 70
     192
  0
VERTEX
  8
Layer0
10
93.5321849952339
20
338.3695436031286
30
0.0
 70
     192
  0
VERTEX
  8
Layer0
10
93.93673593973543
20
369.01926259323136
30
0.0
 70
     192
  0
VERTEX
  8
Layer0
10
98.42747497684998
20
334.66337356948264
30
0.0
 70
     192
  0
VERTEX
  8
Layer0
10
96.29953705197705
20
371.71973666497735
30
0.0
 70
     192
  0
VERTEX
  8
Layer0
10
102.83720304894901
20
377.6712507815435
30
0.0
 70
     192
  0
VERTEX
  8
Layer0
10
103.84379632597968
20
331.3458552178687
30
0.0
 70
     192
  0
VERTEX
  8
Layer0
10
110.22649266690551
20
383.0929091545315
30
0.0
 70
     192
  0
VERTEX
  8
Layer0
10
109.72074242968912
20
328.4539878387688
30
0.0
 70
     192
  0
VERTEX
  8
Layer0
10
115.99276946484348
20
326.020023564618
30
0.0
 70
     192
  0
VERTEX
  8
Layer0
10
118.38344159400074
20
387.9231056164085
30
0.0
 70
     192
  0
VERTEX
  8
Layer0
10
122.58992738878266
20
324.0711076713905
30
0.0
 70
     192
  0
VERTEX
  8
Layer0
10
127.2153626250092
20
392.10695476643116
30
0.0
 70
     192
  0
VERTEX
  8
Layer0
10
129.43864007123423
20
322.62897583546794
30
0.0
 70
     192
  0
VERTEX
  8
Layer0
10
136.6218988636985
20
395.59691563208446
30
0.0
 70
     192
  0
VERTEX
  8
Layer0
10
136.46252586690068
20
321.70971172212626
30
0.0
 70
     192
  0
VERTEX
  8
Layer0
10
143.583249477113
20
321.32356760924586
30
0.0
 70
     192
  0
VERTEX
  8
Layer0
10
146.49616407570858
20
398.3533318759425
30
0.0
 70
     192
  0
VERTEX
  8
Layer0
10
150.7213956000038
20
321.47485004665486
30
0.0
 70
     192
  0
VERTEX
  8
Layer0
10
156.72595723412041
20
400.34488240965646
30
0.0
 70
     192
  0
VERTEX
  8
Layer0
10
154.0912651315188
20
321.7212415405797
30
0.0
 70
     192
  0
VERTEX
  8
Layer0
10
157.44493560479873
20
322.061897859891
30
0.0
 70
     192
  0
VERTEX
  8
Layer0
10
167.19503745692438
20
401.5489372946685
30
0.0
 70
     192
  0
VERTEX
  8
Layer0
10
160.77721925405604
20
322.49629204607345
30
0.0
 70
     192
  0
VERTEX
  8
Layer0
10
164.08296139661311
20
323.02375213826326
30
0.0
 70
     192
  0
VERTEX
  8
Layer0
10
167.35704840663257
20
323.6434622126999
30
0.0
 70
     192
  0
VERTEX
  8
Layer0
10
177.78444484922366
20
401.9518148856473
30
0.0
 70
     192
  0
VERTEX
  8
Layer0
10
170.5944156253448
20
324.35446364487535
30
0.0
 70
     192
  0
VERTEX
  8
Layer0
10
178.24844187763992
20
325.4854323163448
30
0.0
 70
     192
  0
VERTEX
  8
Layer0
10
195.53475734636547
20
401.9518148856488
30
0.0
 70
     192
  0
VERTEX
  8
Layer0
10
185.47831297743576
20
327.787053643011
30
0.0
 70
     192
  0
VERTEX
  8
Layer0
10
192.80847158503428
20
329.7459491579555
30
0.0
 70
     192
  0
VERTEX
  8
Layer0
10
200.18199412653357
20
331.3541340996706
30
0.0
 70
     192
  0
VERTEX
  8
Layer0
10
199.35333390770845
20
401.5336872820674
30
0.0
 70
     192
  0
VERTEX
  8
Layer0
10
201.8153408037595
20
401.2147780966827
30
0.0
 70
     192
  0
VERTEX
  8
Layer0
10
207.57909360211178
20
332.6071164600193
30
0.0
 70
     192
  0
VERTEX
  8
Layer0
10
205.18373861017068
20
400.9137836231528
30
0.0
 70
     192
  0
VERTEX
  8
Layer0
10
208.11082184869852
20
400.6019736120425
30
0.0
 70
     192
  0
VERTEX
  8
Layer0
10
212.48017155871872
20
333.19889441243214
30
0.0
 70
     192
  0
VERTEX
  8
Layer0
10
214.4337677181196
20
400.12487353607526
30
0.0
 70
     192
  0
VERTEX
  8
Layer0
10
215.0381961105281
20
333.50776167487817
30
0.0
 70
     192
  0
VERTEX
  8
Layer0
10
218.4587865444965
20
399.92577571213604
30
0.0
 70
     192
  0
VERTEX
  8
Layer0
10
222.55655453866686
20
334.05554975850197
30
0.0
 70
     192
  0
VERTEX
  8
Layer0
10
220.3383069614739
20
399.5211320934696
30
0.0
 70
     192
  0
VERTEX
  8
Layer0
10
300.1688681631635
20
399.4823519440167
30
0.0
 70
     192
  0
VERTEX
  8
Layer0
10
230.12743685429106
20
334.2508527189083
30
0.0
 70
     192
  0
VERTEX
  8
Layer0
10
233.1231307565823
20
334.18710053797196
30
0.0
 70
     192
  0
VERTEX
  8
Layer0
10
243.07743505882044
20
334.089717586632
30
0.0
 70
     192
  0
VERTEX
  8
Layer0
10
284.3185932967878
20
334.0897175866318
30
0.0
 70
     192
  0
VERTEX
  8
Layer0
10
292.90221474862176
20
335.57214804909194
30
0.0
 70
     192
  0
VERTEX
  8
Layer0
10
301.23813420814554
20
338.0093282110097
30
0.0
 70
     192
  0
VERTEX
  8
Layer0
10
307.79080788108405
20
395.6400815446153
30
0.0
 70
     192
  0
VERTEX
  8
Layer0
10
308.7228690327972
20
342.0550850239163
30
0.0
 70
     192
  0
VERTEX
  8
Layer0
10
314.2162693762793
20
390.3695313033918
30
0.0
 70
     192
  0
VERTEX
  8
Layer0
10
314.9620106085239
20
347.4962270555477
30
0.0
 70
     192
  0
VERTEX
  8
Layer0
10
319.1066625153304
20
383.94843322618027
30
0.0
 70
     192
  0
VERTEX
  8
Layer0
10
319.62678694280936
20
354.0460329540032
30
0.0
 70
     192
  0
VERTEX
  8
Layer0
10
322.2042876969276
20
376.71514751579826
30
0.0
 70
     192
  0
VERTEX
  8
Layer0
10
322.47138732732117
20
361.35936024900275
30
0.0
 70
     192
  0
VERTEX
  8
Layer0
10
323.34591535004193
20
369.0508326580066
30
0.0
 70
     192
  0
VERTEX
  8
Layer0
10
0.0
 20
 0.0
 30
0.0
 70
     128
 71
-1
 72
2
 73
3
  0
VERTEX
  8
Layer0
10
0.0
 20
 0.0
 30
0.0
 70
     128
 71
-2
 72
1
 73
-4
  0
VERTEX
  8
Layer0
10
0.0
 20
 0.0
 30
0.0
 70
     128
 71
-2
 72
-4
 73
5
  0
VERTEX
  8
Layer0
10
0.0
 20
 0.0
 30
0.0
 70
     128
 71
-5
 72
4
 73
-6
  0
VERTEX
  8
Layer0
10
0.0
 20
 0.0
 30
0.0
 70
     128
 71
-5
 72
-6
 73
7
  0
VERTEX
  8
Layer0
10
0.0
 20
 0.0
 30
0.0
 70
     128
 71
-7
 72
6
 73
-8
  0
VERTEX
  8
Layer0
10
0.0
 20
 0.0
 30
0.0
 70
     128
 71
-7
 72
-8
 73
9
  0
VERTEX
  8
Layer0
10
0.0
 20
 0.0
 30
0.0
 70
     128
 71
-9
 72
8
 73
-10
  0
VERTEX
  8
Layer0
10
0.0
 20
 0.0
 30
0.0
 70
     128
 71
-9
 72
-10
 73
11
  0
VERTEX
  8
Layer0
10
0.0
 20
 0.0
 30
0.0
 70
     128
 71
-11
 72
10
 73
-12
  0
VERTEX
  8
Layer0
10
0.0
 20
 0.0
 30
0.0
 70
     128
 71
-11
 72
-12
 73
13
  0
VERTEX
  8
Layer0
10
0.0
 20
 0.0
 30
0.0
 70
     128
 71
-13
 72
12
 73
-14
  0
VERTEX
  8
Layer0
10
0.0
 20
 0.0
 30
0.0
 70
     128
 71
-13
 72
14
 73
-15
  0
VERTEX
  8
Layer0
10
0.0
 20
 0.0
 30
0.0
 70
     128
 71
-13
 72
-15
 73
16
  0
VERTEX
  8
Layer0
10
0.0
 20
 0.0
 30
0.0
 70
     128
 71
-16
 72
15
 73
-17
  0
VERTEX
  8
Layer0
10
0.0
 20
 0.0
 30
0.0
 70
     128
 71
-16
 72
-17
 73
18
  0
VERTEX
  8
Layer0
10
0.0
 20
 0.0
 30
0.0
 70
     128
 71
-18
 72
-17
 73
19
  0
VERTEX
  8
Layer0
10
0.0
 20
 0.0
 30
0.0
 70
     128
 71
-19
 72
17
 73
-20
  0
VERTEX
  8
Layer0
10
0.0
 20
 0.0
 30
0.0
 70
     128
 71
-19
 72
-20
 73
21
  0
VERTEX
  8
Layer0
10
0.0
 20
 0.0
 30
0.0
 70
     128
 71
-21
 72
20
 73
-22
  0
VERTEX
  8
Layer0
10
0.0
 20
 0.0
 30
0.0
 70
     128
 71
-21
 72
-22
 73
23
  0
VERTEX
  8
Layer0
10
0.0
 20
 0.0
 30
0.0
 70
     128
 71
-23
 72
22
 73
-24
  0
VERTEX
  8
Layer0
10
0.0
 20
 0.0
 30
0.0
 70
     128
 71
-23
 72
-24
 73
25
  0
VERTEX
  8
Layer0
10
0.0
 20
 0.0
 30
0.0
 70
     128
 71
-25
 72
-24
 73
26
  0
VERTEX
  8
Layer0
10
0.0
 20
 0.0
 30
0.0
 70
     128
 71
-26
 72
24
 73
-27
  0
VERTEX
  8
Layer0
10
0.0
 20
 0.0
 30
0.0
 70
     128
 71
-26
 72
-27
 73
28
  0
VERTEX
  8
Layer0
10
0.0
 20
 0.0
 30
0.0
 70
     128
 71
-28
 72
27
 73
-29
  0
VERTEX
  8
Layer0
10
0.0
 20
 0.0
 30
0.0
 70
     128
 71
-28
 72
-29
 73
30
  0
VERTEX
  8
Layer0
10
0.0
 20
 0.0
 30
0.0
 70
     128
 71
-30
 72
-29
 73
31
  0
VERTEX
  8
Layer0
10
0.0
 20
 0.0
 30
0.0
 70
     128
 71
-31
 72
29
 73
-32
  0
VERTEX
  8
Layer0
10
0.0
 20
 0.0
 30
0.0
 70
     128
 71
-31
 72
-32
 73
33
  0
VERTEX
  8
Layer0
10
0.0
 20
 0.0
 30
0.0
 70
     128
 71
-33
 72
-32
 73
34
  0
VERTEX
  8
Layer0
10
0.0
 20
 0.0
 30
0.0
 70
     128
 71
-34
 72
-32
 73
35
  0
VERTEX
  8
Layer0
10
0.0
 20
 0.0
 30
0.0
 70
     128
 71
-35
 72
32
 73
-36
  0
VERTEX
  8
Layer0
10
0.0
 20
 0.0
 30
0.0
 70
     128
 71
-35
 72
-36
 73
37
  0
VERTEX
  8
Layer0
10
0.0
 20
 0.0
 30
0.0
 70
     128
 71
-37
 72
-36
 73
38
  0
VERTEX
  8
Layer0
10
0.0
 20
 0.0
 30
0.0
 70
     128
 71
-38
 72
36
 73
-39
  0
VERTEX
  8
Layer0
10
0.0
 20
 0.0
 30
0.0
 70
     128
 71
-38
 72
-39
 73
40
  0
VERTEX
  8
Layer0
10
0.0
 20
 0.0
 30
0.0
 70
     128
 71
-40
 72
-39
 73
41
  0
VERTEX
  8
Layer0
10
0.0
 20
 0.0
 30
0.0
 70
     128
 71
-41
 72
-39
 73
42
  0
VERTEX
  8
Layer0
10
0.0
 20
 0.0
 30
0.0
 70
     128
 71
-42
 72
39
 73
-43
  0
VERTEX
  8
Layer0
10
0.0
 20
 0.0
 30
0.0
 70
     128
 71
-42
 72
43
 73
-44
  0
VERTEX
  8
Layer0
10
0.0
 20
 0.0
 30
0.0
 70
     128
 71
-42
 72
-44
 73
45
  0
VERTEX
  8
Layer0
10
0.0
 20
 0.0
 30
0.0
 70
     128
 71
-45
 72
44
 73
-46
  0
VERTEX
  8
Layer0
10
0.0
 20
 0.0
 30
0.0
 70
     128
 71
-45
 72
46
 73
-47
  0
VERTEX
  8
Layer0
10
0.0
 20
 0.0
 30
0.0
 70
     128
 71
-45
 72
-47
 73
48
  0
VERTEX
  8
Layer0
10
0.0
 20
 0.0
 30
0.0
 70
     128
 71
-48
 72
47
 73
-49
  0
VERTEX
  8
Layer0
10
0.0
 20
 0.0
 30
0.0
 70
     128
 71
-48
 72
-49
 73
50
  0
VERTEX
  8
Layer0
10
0.0
 20
 0.0
 30
0.0
 70
     128
 71
-50
 72
49
 73
-51
  0
VERTEX
  8
Layer0
10
0.0
 20
 0.0
 30
0.0
 70
     128
 71
-50
 72
-51
 73
52
  0
VERTEX
  8
Layer0
10
0.0
 20
 0.0
 30
0.0
 70
     128
 71
-52
 72
51
 73
-53
  0
VERTEX
  8
Layer0
10
0.0
 20
 0.0
 30
0.0
 70
     128
 71
-52
 72
53
 73
-54
  0
VERTEX
  8
Layer0
10
0.0
 20
 0.0
 30
0.0
 70
     128
 71
-52
 72
-54
 73
55
  0
VERTEX
  8
Layer0
10
0.0
 20
 0.0
 30
0.0
 70
     128
 71
-55
 72
-54
 73
56
  0
VERTEX
  8
Layer0
10
0.0
 20
 0.0
 30
0.0
 70
     128
 71
-56
 72
-54
 73
57
  0
VERTEX
  8
Layer0
10
0.0
 20
 0.0
 30
0.0
 70
     128
 71
-57
 72
-54
 73
58
  0
VERTEX
  8
Layer0
10
0.0
 20
 0.0
 30
0.0
 70
     128
 71
-58
 72
-54
 73
59
  0
VERTEX
  8
Layer0
10
0.0
 20
 0.0
 30
0.0
 70
     128
 71
-59
 72
-54
 73
60
  0
VERTEX
  8
Layer0
10
0.0
 20
 0.0
 30
0.0
 70
     128
 71
-60
 72
54
 73
-61
  0
VERTEX
  8
Layer0
10
0.0
 20
 0.0
 30
0.0
 70
     128
 71
-60
 72
-61
 73
62
  0
VERTEX
  8
Layer0
10
0.0
 20
 0.0
 30
0.0
 70
     128
 71
-62
 72
61
 73
-63
  0
VERTEX
  8
Layer0
10
0.0
 20
 0.0
 30
0.0
 70
     128
 71
-62
 72
-63
 73
64
  0
VERTEX
  8
Layer0
10
0.0
 20
 0.0
 30
0.0
 70
     128
 71
-64
 72
63
 73
-65
  0
VERTEX
  8
Layer0
10
0.0
 20
 0.0
 30
0.0
 70
     128
 71
-64
 72
-65
 73
66
  0
VERTEX
  8
Layer0
10
0.0
 20
 0.0
 30
0.0
 70
     128
 71
-66
 72
65
 73
-67
  0
VERTEX
  8
Layer0
10
0.0
 20
 0.0
 30
0.0
 70
     128
 71
-66
 72
-67
 73
68
  0
VERTEX
  8
Layer0
10
0.0
 20
 0.0
 30
0.0
 70
     128
 71
-68
 72
67
 73
69
  0
SEQEND
  0
POLYLINE
 8
Layer0
 66
     1
10
0.0
 20
 0.0
 30
0.0
70
    64
71
69
72
   1
  0
VERTEX
  8
Layer0
10
88.56160743574931
20
349.47424227004376
30
1.9999999999999998
 70
     192
  0
VERTEX
  8
Layer0
10
88.29148732110814
20
355.32392426965254
30
1.9999999999999998
 70
     192
  0
VERTEX
  8
Layer0
10
88.23770017529041
20
352.39465258758196
30
1.9999999999999998
 70
     192
  0
VERTEX
  8
Layer0
10
88.72251412442195
20
358.23729149699847
30
1.9999999999999998
 70
     192
  0
VERTEX
  8
Layer0
10
89.26047059628456
20
346.58738421701355
30
1.9999999999999998
 70
     192
  0
VERTEX
  8
Layer0
10
89.52713642618076
20
361.110122916149
30
1.9999999999999998
 70
     192
  0
VERTEX
  8
Layer0
10
90.32838104867942
20
343.75848565750437
30
1.9999999999999998
 70
     192
  0
VERTEX
  8
Layer0
10
90.69855146697456
20
363.91812988766446
30
1.9999999999999998
 70
     192
  0
VERTEX
  8
Layer0
10
91.75631003762899
20
341.01146379620786
30
1.9999999999999998
 70
     192
  0
VERTEX
  8
Layer0
10
92.22685540164282
20
366.6375718368641
30
1.9999999999999998
 70
     192
  0
VERTEX
  8
Layer0
10
93.5321849952339
20
338.3695436031286
30
1.9999999999999998
 70
     192
  0
VERTEX
  8
Layer0
10
93.93673593973543
20
369.01926259323136
30
1.9999999999999998
 70
     192
  0
VERTEX
  8
Layer0
10
98.42747497684998
20
334.66337356948264
30
1.9999999999999998
 70
     192
  0
VERTEX
  8
Layer0
10
96.29953705197705
20
371.71973666497735
30
1.9999999999999998
 70
     192
  0
VERTEX
  8
Layer0
10
102.83720304894901
20
377.6712507815435
30
1.9999999999999998
 70
     192
  0
VERTEX
  8
Layer0
10
103.84379632597968
20
331.3458552178687
30
1.9999999999999998
 70
     192
  0
VERTEX
  8
Layer0
10
110.22649266690551
20
383.0929091545315
30
1.9999999999999998
 70
     192
  0
VERTEX
  8
Layer0
10
109.72074242968912
20
328.4539878387688
30
1.9999999999999998
 70
     192
  0
VERTEX
  8
Layer0
10
115.99276946484348
20
326.020023564618
30
1.9999999999999998
 70
     192
  0
VERTEX
  8
Layer0
10
118.38344159400074
20
387.9231056164085
30
1.9999999999999998
 70
     192
  0
VERTEX
  8
Layer0
10
122.58992738878266
20
324.0711076713905
30
1.9999999999999998
 70
     192
  0
VERTEX
  8
Layer0
10
127.2153626250092
20
392.10695476643116
30
1.9999999999999998
 70
     192
  0
VERTEX
  8
Layer0
10
129.43864007123423
20
322.62897583546794
30
1.9999999999999998
 70
     192
  0
VERTEX
  8
Layer0
10
136.6218988636985
20
395.59691563208446
30
1.9999999999999998
 70
     192
  0
VERTEX
  8
Layer0
10
136.46252586690068
20
321.70971172212626
30
1.9999999999999998
 70
     192
  0
VERTEX
  8
Layer0
10
143.583249477113
20
321.32356760924586
30
1.9999999999999998
 70
     192
  0
VERTEX
  8
Layer0
10
146.49616407570858
20
398.3533318759425
30
1.9999999999999998
 70
     192
  0
VERTEX
  8
Layer0
10
150.7213956000038
20
321.47485004665486
30
1.9999999999999998
 70
     192
  0
VERTEX
  8
Layer0
10
156.72595723412041
20
400.34488240965646
30
1.9999999999999998
 70
     192
  0
VERTEX
  8
Layer0
10
154.0912651315188
20
321.7212415405797
30
1.9999999999999998
 70
     192
  0
VERTEX
  8
Layer0
10
157.44493560479873
20
322.061897859891
30
1.9999999999999998
 70
     192
  0
VERTEX
  8
Layer0
10
167.19503745692438
20
401.5489372946685
30
1.9999999999999998
 70
     192
  0
VERTEX
  8
Layer0
10
160.77721925405604
20
322.49629204607345
30
1.9999999999999998
 70
     192
  0
VERTEX
  8
Layer0
10
164.08296139661311
20
323.02375213826326
30
1.9999999999999998
 70
     192
  0
VERTEX
  8
Layer0
10
167.35704840663257
20
323.6434622126999
30
1.9999999999999998
 70
     192
  0
VERTEX
  8
Layer0
10
177.78444484922366
20
401.9518148856473
30
1.9999999999999998
 70
     192
  0
VERTEX
  8
Layer0
10
170.5944156253448
20
324.35446364487535
30
1.9999999999999998
 70
     192
  0
VERTEX
  8
Layer0
10
178.24844187763992
20
325.4854323163448
30
1.9999999999999998
 70
     192
  0
VERTEX
  8
Layer0
10
195.53475734636547
20
401.9518148856488
30
1.9999999999999998
 70
     192
  0
VERTEX
  8
Layer0
10
185.47831297743576
20
327.787053643011
30
1.9999999999999998
 70
     192
  0
VERTEX
  8
Layer0
10
192.80847158503428
20
329.7459491579555
30
1.9999999999999998
 70
     192
  0
VERTEX
  8
Layer0
10
200.18199412653357
20
331.3541340996706
30
1.9999999999999998
 70
     192
  0
VERTEX
  8
Layer0
10
199.35333390770845
20
401.5336872820674
30
1.9999999999999998
 70
     192
  0
VERTEX
  8
Layer0
10
201.8153408037595
20
401.2147780966827
30
1.9999999999999998
 70
     192
  0
VERTEX
  8
Layer0
10
207.57909360211178
20
332.6071164600193
30
1.9999999999999998
 70
     192
  0
VERTEX
  8
Layer0
10
205.18373861017068
20
400.9137836231528
30
1.9999999999999998
 70
     192
  0
VERTEX
  8
Layer0
10
208.11082184869852
20
400.6019736120425
30
1.9999999999999998
 70
     192
  0
VERTEX
  8
Layer0
10
212.48017155871872
20
333.19889441243214
30
1.9999999999999998
 70
     192
  0
VERTEX
  8
Layer0
10
214.4337677181196
20
400.12487353607526
30
1.9999999999999998
 70
     192
  0
VERTEX
  8
Layer0
10
215.0381961105281
20
333.50776167487817
30
1.9999999999999998
 70
     192
  0
VERTEX
  8
Layer0
10
218.4587865444965
20
399.92577571213604
30
1.9999999999999998
 70
     192
  0
VERTEX
  8
Layer0
10
222.55655453866686
20
334.05554975850197
30
1.9999999999999998
 70
     192
  0
VERTEX
  8
Layer0
10
220.3383069614739
20
399.5211320934696
30
1.9999999999999998
 70
     192
  0
VERTEX
  8
Layer0
10
300.1688681631635
20
399.4823519440167
30
1.9999999999999998
 70
     192
  0
VERTEX
  8
Layer0
10
230.12743685429106
20
334.2508527189083
30
1.9999999999999998
 70
     192
  0
VERTEX
  8
Layer0
10
233.1231307565823
20
334.18710053797196
30
1.9999999999999998
 70
     192
  0
VERTEX
  8
Layer0
10
243.07743505882044
20
334.089717586632
30
1.9999999999999998
 70
     192
  0
VERTEX
  8
Layer0
10
284.3185932967878
20
334.0897175866318
30
1.9999999999999998
 70
     192
  0
VERTEX
  8
Layer0
10
292.90221474862176
20
335.57214804909194
30
1.9999999999999998
 70
     192
  0
VERTEX
  8
Layer0
10
301.23813420814554
20
338.0093282110097
30
1.9999999999999998
 70
     192
  0
VERTEX
  8
Layer0
10
307.79080788108405
20
395.6400815446153
30
1.9999999999999998
 70
     192
  0
VERTEX
  8
Layer0
10
308.7228690327972
20
342.0550850239163
30
1.9999999999999998
 70
     192
  0
VERTEX
  8
Layer0
10
314.2162693762793
20
390.3695313033918
30
1.9999999999999998
 70
     192
  0
VERTEX
  8
Layer0
10
314.9620106085239
20
347.4962270555477
30
1.9999999999999998
 70
     192
  0
VERTEX
  8
Layer0
10
319.1066625153304
20
383.94843322618027
30
1.9999999999999998
 70
     192
  0
VERTEX
  8
Layer0
10
319.62678694280936
20
354.0460329540032
30
1.9999999999999998
 70
     192
  0
VERTEX
  8
Layer0
10
322.2042876969276
20
376.71514751579826
30
1.9999999999999998
 70
     192
  0
VERTEX
  8
Layer0
10
322.47138732732117
20
361.35936024900275
30
1.9999999999999998
 70
     192
  0
VERTEX
  8
Layer0
10
323.34591535004193
20
369.0508326580066
30
1.9999999999999998
 70
     192
  0
VERTEX
  8
Layer0
10
0.0
 20
 0.0
 30
0.0
 70
     128
 71
-1
 72
2
 73
3
  0
VERTEX
  8
Layer0
10
0.0
 20
 0.0
 30
0.0
 70
     128
 71
-2
 72
-1
 73
4
  0
VERTEX
  8
Layer0
10
0.0
 20
 0.0
 30
0.0
 70
     128
 71
-4
 72
1
 73
-5
  0
VERTEX
  8
Layer0
10
0.0
 20
 0.0
 30
0.0
 70
     128
 71
-4
 72
-5
 73
6
  0
VERTEX
  8
Layer0
10
0.0
 20
 0.0
 30
0.0
 70
     128
 71
-6
 72
5
 73
-7
  0
VERTEX
  8
Layer0
10
0.0
 20
 0.0
 30
0.0
 70
     128
 71
-6
 72
-7
 73
8
  0
VERTEX
  8
Layer0
10
0.0
 20
 0.0
 30
0.0
 70
     128
 71
-8
 72
7
 73
-9
  0
VERTEX
  8
Layer0
10
0.0
 20
 0.0
 30
0.0
 70
     128
 71
-8
 72
-9
 73
10
  0
VERTEX
  8
Layer0
10
0.0
 20
 0.0
 30
0.0
 70
     128
 71
-10
 72
9
 73
-11
  0
VERTEX
  8
Layer0
10
0.0
 20
 0.0
 30
0.0
 70
     128
 71
-10
 72
-11
 73
12
  0
VERTEX
  8
Layer0
10
0.0
 20
 0.0
 30
0.0
 70
     128
 71
-12
 72
11
 73
-13
  0
VERTEX
  8
Layer0
10
0.0
 20
 0.0
 30
0.0
 70
     128
 71
-12
 72
-13
 73
14
  0
VERTEX
  8
Layer0
10
0.0
 20
 0.0
 30
0.0
 70
     128
 71
-14
 72
-13
 73
15
  0
VERTEX
  8
Layer0
10
0.0
 20
 0.0
 30
0.0
 70
     128
 71
-15
 72
13
 73
-16
  0
VERTEX
  8
Layer0
10
0.0
 20
 0.0
 30
0.0
 70
     128
 71
-15
 72
-16
 73
17
  0
VERTEX
  8
Layer0
10
0.0
 20
 0.0
 30
0.0
 70
     128
 71
-17
 72
16
 73
-18
  0
VERTEX
  8
Layer0
10
0.0
 20
 0.0
 30
0.0
 70
     128
 71
-17
 72
18
 73
-19
  0
VERTEX
  8
Layer0
10
0.0
 20
 0.0
 30
0.0
 70
     128
 71
-17
 72
-19
 73
20
  0
VERTEX
  8
Layer0
10
0.0
 20
 0.0
 30
0.0
 70
     128
 71
-20
 72
19
 73
-21
  0
VERTEX
  8
Layer0
10
0.0
 20
 0.0
 30
0.0
 70
     128
 71
-20
 72
-21
 73
22
  0
VERTEX
  8
Layer0
10
0.0
 20
 0.0
 30
0.0
 70
     128
 71
-22
 72
21
 73
-23
  0
VERTEX
  8
Layer0
10
0.0
 20
 0.0
 30
0.0
 70
     128
 71
-22
 72
-23
 73
24
  0
VERTEX
  8
Layer0
10
0.0
 20
 0.0
 30
0.0
 70
     128
 71
-24
 72
23
 73
-25
  0
VERTEX
  8
Layer0
10
0.0
 20
 0.0
 30
0.0
 70
     128
 71
-24
 72
25
 73
-26
  0
VERTEX
  8
Layer0
10
0.0
 20
 0.0
 30
0.0
 70
     128
 71
-24
 72
-26
 73
27
  0
VERTEX
  8
Layer0
10
0.0
 20
 0.0
 30
0.0
 70
     128
 71
-27
 72
26
 73
-28
  0
VERTEX
  8
Layer0
10
0.0
 20
 0.0
 30
0.0
 70
     128
 71
-27
 72
-28
 73
29
  0
VERTEX
  8
Layer0
10
0.0
 20
 0.0
 30
0.0
 70
     128
 71
-29
 72
28
 73
-30
  0
VERTEX
  8
Layer0
10
0.0
 20
 0.0
 30
0.0
 70
     128
 71
-29
 72
30
 73
-31
  0
VERTEX
  8
Layer0
10
0.0
 20
 0.0
 30
0.0
 70
     128
 71
-29
 72
-31
 73
32
  0
VERTEX
  8
Layer0
10
0.0
 20
 0.0
 30
0.0
 70
     128
 71
-32
 72
31
 73
-33
  0
VERTEX
  8
Layer0
10
0.0
 20
 0.0
 30
0.0
 70
     128
 71
-32
 72
33
 73
-34
  0
VERTEX
  8
Layer0
10
0.0
 20
 0.0
 30
0.0
 70
     128
 71
-32
 72
34
 73
-35
  0
VERTEX
  8
Layer0
10
0.0
 20
 0.0
 30
0.0
 70
     128
 71
-32
 72
-35
 73
36
  0
VERTEX
  8
Layer0
10
0.0
 20
 0.0
 30
0.0
 70
     128
 71
-36
 72
35
 73
-37
  0
VERTEX
  8
Layer0
10
0.0
 20
 0.0
 30
0.0
 70
     128
 71
-36
 72
37
 73
-38
  0
VERTEX
  8
Layer0
10
0.0
 20
 0.0
 30
0.0
 70
     128
 71
-36
 72
-38
 73
39
  0
VERTEX
  8
Layer0
10
0.0
 20
 0.0
 30
0.0
 70
     128
 71
-39
 72
38
 73
-40
  0
VERTEX
  8
Layer0
10
0.0
 20
 0.0
 30
0.0
 70
     128
 71
-39
 72
40
 73
-41
  0
VERTEX
  8
Layer0
10
0.0
 20
 0.0
 30
0.0
 70
     128
 71
-39
 72
41
 73
-42
  0
VERTEX
  8
Layer0
10
0.0
 20
 0.0
 30
0.0
 70
     128
 71
-39
 72
-42
 73
43
  0
VERTEX
  8
Layer0
10
0.0
 20
 0.0
 30
0.0
 70
     128
 71
-43
 72
-42
 73
44
  0
VERTEX
  8
Layer0
10
0.0
 20
 0.0
 30
0.0
 70
     128
 71
-44
 72
42
 73
-45
  0
VERTEX
  8
Layer0
10
0.0
 20
 0.0
 30
0.0
 70
     128
 71
-44
 72
-45
 73
46
  0
VERTEX
  8
Layer0
10
0.0
 20
 0.0
 30
0.0
 70
     128
 71
-46
 72
-45
 73
47
  0
VERTEX
  8
Layer0
10
0.0
 20
 0.0
 30
0.0
 70
     128
 71
-47
 72
45
 73
-48
  0
VERTEX
  8
Layer0
10
0.0
 20
 0.0
 30
0.0
 70
     128
 71
-47
 72
-48
 73
49
  0
VERTEX
  8
Layer0
10
0.0
 20
 0.0
 30
0.0
 70
     128
 71
-49
 72
48
 73
-50
  0
VERTEX
  8
Layer0
10
0.0
 20
 0.0
 30
0.0
 70
     128
 71
-49
 72
-50
 73
51
  0
VERTEX
  8
Layer0
10
0.0
 20
 0.0
 30
0.0
 70
     128
 71
-51
 72
50
 73
-52
  0
VERTEX
  8
Layer0
10
0.0
 20
 0.0
 30
0.0
 70
     128
 71
-51
 72
-52
 73
53
  0
VERTEX
  8
Layer0
10
0.0
 20
 0.0
 30
0.0
 70
     128
 71
-53
 72
-52
 73
54
  0
VERTEX
  8
Layer0
10
0.0
 20
 0.0
 30
0.0
 70
     128
 71
-54
 72
52
 73
-55
  0
VERTEX
  8
Layer0
10
0.0
 20
 0.0
 30
0.0
 70
     128
 71
-54
 72
55
 73
-56
  0
VERTEX
  8
Layer0
10
0.0
 20
 0.0
 30
0.0
 70
     128
 71
-54
 72
56
 73
-57
  0
VERTEX
  8
Layer0
10
0.0
 20
 0.0
 30
0.0
 70
     128
 71
-54
 72
57
 73
-58
  0
VERTEX
  8
Layer0
10
0.0
 20
 0.0
 30
0.0
 70
     128
 71
-54
 72
58
 73
-59
  0
VERTEX
  8
Layer0
10
0.0
 20
 0.0
 30
0.0
 70
     128
 71
-54
 72
59
 73
-60
  0
VERTEX
  8
Layer0
10
0.0
 20
 0.0
 30
0.0
 70
     128
 71
-54
 72
-60
 73
61
  0
VERTEX
  8
Layer0
10
0.0
 20
 0.0
 30
0.0
 70
     128
 71
-61
 72
60
 73
-62
  0
VERTEX
  8
Layer0
10
0.0
 20
 0.0
 30
0.0
 70
     128
 71
-61
 72
-62
 73
63
  0
VERTEX
  8
Layer0
10
0.0
 20
 0.0
 30
0.0
 70
     128
 71
-63
 72
62
 73
-64
  0
VERTEX
  8
Layer0
10
0.0
 20
 0.0
 30
0.0
 70
     128
 71
-63
 72
-64
 73
65
  0
VERTEX
  8
Layer0
10
0.0
 20
 0.0
 30
0.0
 70
     128
 71
-65
 72
64
 73
-66
  0
VERTEX
  8
Layer0
10
0.0
 20
 0.0
 30
0.0
 70
     128
 71
-65
 72
-66
 73
67
  0
VERTEX
  8
Layer0
10
0.0
 20
 0.0
 30
0.0
 70
     128
 71
-67
 72
66
 73
-68
  0
VERTEX
  8
Layer0
10
0.0
 20
 0.0
 30
0.0
 70
     128
 71
-67
 72
68
 73
69
  0
SEQEND
  0
POLYLINE
 8
Layer0
 66
     1
10
0.0
 20
 0.0
 30
0.0
70
    64
71
4
72
   1
  0
VERTEX
  8
Layer0
10
233.1231307565823
20
334.18710053797196
30
1.9999999999999998
 70
     192
  0
VERTEX
  8
Layer0
10
230.12743685429106
20
334.2508527189083
30
0.0
 70
     192
  0
VERTEX
  8
Layer0
10
233.1231307565823
20
334.18710053797196
30
0.0
 70
     192
  0
VERTEX
  8
Layer0
10
230.12743685429106
20
334.2508527189083
30
1.9999999999999998
 70
     192
  0
VERTEX
  8
Layer0
10
0.0
 20
 0.0
 30
0.0
 70
     128
 71
-1
 72
2
 73
3
  0
VERTEX
  8
Layer0
10
0.0
 20
 0.0
 30
0.0
 70
     128
 71
-2
 72
1
 73
4
  0
SEQEND
  0
POLYLINE
 8
Layer0
 66
     1
10
0.0
 20
 0.0
 30
0.0
70
    64
71
4
72
   1
  0
VERTEX
  8
Layer0
10
243.07743505882044
20
334.089717586632
30
1.9999999999999998
 70
     192
  0
VERTEX
  8
Layer0
10
233.1231307565823
20
334.18710053797196
30
0.0
 70
     192
  0
VERTEX
  8
Layer0
10
243.07743505882044
20
334.089717586632
30
0.0
 70
     192
  0
VERTEX
  8
Layer0
10
233.1231307565823
20
334.18710053797196
30
1.9999999999999998
 70
     192
  0
VERTEX
  8
Layer0
10
0.0
 20
 0.0
 30
0.0
 70
     128
 71
-1
 72
2
 73
3
  0
VERTEX
  8
Layer0
10
0.0
 20
 0.0
 30
0.0
 70
     128
 71
-2
 72
1
 73
4
  0
SEQEND
  0
POLYLINE
 8
Layer0
 66
     1
10
0.0
 20
 0.0
 30
0.0
70
    64
71
4
72
   1
  0
VERTEX
  8
Layer0
10
284.3185932967878
20
334.0897175866318
30
1.9999999999999998
 70
     192
  0
VERTEX
  8
Layer0
10
243.07743505882044
20
334.089717586632
30
0.0
 70
     192
  0
VERTEX
  8
Layer0
10
284.3185932967878
20
334.0897175866318
30
0.0
 70
     192
  0
VERTEX
  8
Layer0
10
243.07743505882044
20
334.089717586632
30
1.9999999999999998
 70
     192
  0
VERTEX
  8
Layer0
10
0.0
 20
 0.0
 30
0.0
 70
     128
 71
-1
 72
2
 73
3
  0
VERTEX
  8
Layer0
10
0.0
 20
 0.0
 30
0.0
 70
     128
 71
-2
 72
1
 73
4
  0
SEQEND
  0
POLYLINE
 8
Layer0
 66
     1
10
0.0
 20
 0.0
 30
0.0
70
    64
71
4
72
   1
  0
VERTEX
  8
Layer0
10
292.90221474862176
20
335.57214804909194
30
1.9999999999999998
 70
     192
  0
VERTEX
  8
Layer0
10
284.3185932967878
20
334.0897175866318
30
0.0
 70
     192
  0
VERTEX
  8
Layer0
10
292.90221474862176
20
335.57214804909194
30
0.0
 70
     192
  0
VERTEX
  8
Layer0
10
284.3185932967878
20
334.0897175866318
30
1.9999999999999998
 70
     192
  0
VERTEX
  8
Layer0
10
0.0
 20
 0.0
 30
0.0
 70
     128
 71
-1
 72
2
 73
3
  0
VERTEX
  8
Layer0
10
0.0
 20
 0.0
 30
0.0
 70
     128
 71
-2
 72
1
 73
4
  0
SEQEND
  0
POLYLINE
 8
Layer0
 66
     1
10
0.0
 20
 0.0
 30
0.0
70
    64
71
4
72
   1
  0
VERTEX
  8
Layer0
10
301.23813420814554
20
338.0093282110097
30
1.9999999999999998
 70
     192
  0
VERTEX
  8
Layer0
10
292.90221474862176
20
335.57214804909194
30
0.0
 70
     192
  0
VERTEX
  8
Layer0
10
301.23813420814554
20
338.0093282110097
30
0.0
 70
     192
  0
VERTEX
  8
Layer0
10
292.90221474862176
20
335.57214804909194
30
1.9999999999999998
 70
     192
  0
VERTEX
  8
Layer0
10
0.0
 20
 0.0
 30
0.0
 70
     128
 71
-1
 72
2
 73
3
  0
VERTEX
  8
Layer0
10
0.0
 20
 0.0
 30
0.0
 70
     128
 71
-2
 72
1
 73
4
  0
SEQEND
  0
POLYLINE
 8
Layer0
 66
     1
10
0.0
 20
 0.0
 30
0.0
70
    64
71
4
72
   1
  0
VERTEX
  8
Layer0
10
308.7228690327972
20
342.0550850239163
30
1.9999999999999998
 70
     192
  0
VERTEX
  8
Layer0
10
301.23813420814554
20
338.0093282110097
30
0.0
 70
     192
  0
VERTEX
  8
Layer0
10
308.7228690327972
20
342.0550850239163
30
0.0
 70
     192
  0
VERTEX
  8
Layer0
10
301.23813420814554
20
338.0093282110097
30
1.9999999999999998
 70
     192
  0
VERTEX
  8
Layer0
10
0.0
 20
 0.0
 30
0.0
 70
     128
 71
-1
 72
2
 73
3
  0
VERTEX
  8
Layer0
10
0.0
 20
 0.0
 30
0.0
 70
     128
 71
-2
 72
1
 73
4
  0
SEQEND
  0
POLYLINE
 8
Layer0
 66
     1
10
0.0
 20
 0.0
 30
0.0
70
    64
71
4
72
   1
  0
VERTEX
  8
Layer0
10
314.9620106085239
20
347.4962270555477
30
1.9999999999999998
 70
     192
  0
VERTEX
  8
Layer0
10
308.7228690327972
20
342.0550850239163
30
0.0
 70
     192
  0
VERTEX
  8
Layer0
10
314.9620106085239
20
347.4962270555477
30
0.0
 70
     192
  0
VERTEX
  8
Layer0
10
308.7228690327972
20
342.0550850239163
30
1.9999999999999998
 70
     192
  0
VERTEX
  8
Layer0
10
0.0
 20
 0.0
 30
0.0
 70
     128
 71
-1
 72
2
 73
3
  0
VERTEX
  8
Layer0
10
0.0
 20
 0.0
 30
0.0
 70
     128
 71
-2
 72
1
 73
4
  0
SEQEND
  0
POLYLINE
 8
Layer0
 66
     1
10
0.0
 20
 0.0
 30
0.0
70
    64
71
4
72
   1
  0
VERTEX
  8
Layer0
10
319.62678694280936
20
354.0460329540032
30
0.0
 70
     192
  0
VERTEX
  8
Layer0
10
314.9620106085239
20
347.4962270555477
30
1.9999999999999998
 70
     192
  0
VERTEX
  8
Layer0
10
314.9620106085239
20
347.4962270555477
30
0.0
 70
     192
  0
VERTEX
  8
Layer0
10
319.62678694280936
20
354.0460329540032
30
1.9999999999999998
 70
     192
  0
VERTEX
  8
Layer0
10
0.0
 20
 0.0
 30
0.0
 70
     128
 71
-1
 72
2
 73
3
  0
VERTEX
  8
Layer0
10
0.0
 20
 0.0
 30
0.0
 70
     128
 71
-2
 72
1
 73
4
  0
SEQEND
  0
POLYLINE
 8
Layer0
 66
     1
10
0.0
 20
 0.0
 30
0.0
70
    64
71
4
72
   1
  0
VERTEX
  8
Layer0
10
322.47138732732117
20
361.35936024900275
30
0.0
 70
     192
  0
VERTEX
  8
Layer0
10
319.62678694280936
20
354.0460329540032
30
1.9999999999999998
 70
     192
  0
VERTEX
  8
Layer0
10
319.62678694280936
20
354.0460329540032
30
0.0
 70
     192
  0
VERTEX
  8
Layer0
10
322.47138732732117
20
361.35936024900275
30
1.9999999999999998
 70
     192
  0
VERTEX
  8
Layer0
10
0.0
 20
 0.0
 30
0.0
 70
     128
 71
-1
 72
2
 73
3
  0
VERTEX
  8
Layer0
10
0.0
 20
 0.0
 30
0.0
 70
     128
 71
-2
 72
1
 73
4
  0
SEQEND
  0
POLYLINE
 8
Layer0
 66
     1
10
0.0
 20
 0.0
 30
0.0
70
    64
71
4
72
   1
  0
VERTEX
  8
Layer0
10
323.34591535004193
20
369.0508326580066
30
0.0
 70
     192
  0
VERTEX
  8
Layer0
10
322.47138732732117
20
361.35936024900275
30
1.9999999999999998
 70
     192
  0
VERTEX
  8
Layer0
10
322.47138732732117
20
361.35936024900275
30
0.0
 70
     192
  0
VERTEX
  8
Layer0
10
323.34591535004193
20
369.0508326580066
30
1.9999999999999998
 70
     192
  0
VERTEX
  8
Layer0
10
0.0
 20
 0.0
 30
0.0
 70
     128
 71
-1
 72
2
 73
3
  0
VERTEX
  8
Layer0
10
0.0
 20
 0.0
 30
0.0
 70
     128
 71
-2
 72
1
 73
4
  0
SEQEND
  0
POLYLINE
 8
Layer0
 66
     1
10
0.0
 20
 0.0
 30
0.0
70
    64
71
4
72
   1
  0
VERTEX
  8
Layer0
10
322.2042876969276
20
376.71514751579826
30
0.0
 70
     192
  0
VERTEX
  8
Layer0
10
323.34591535004193
20
369.0508326580066
30
1.9999999999999998
 70
     192
  0
VERTEX
  8
Layer0
10
323.34591535004193
20
369.0508326580066
30
0.0
 70
     192
  0
VERTEX
  8
Layer0
10
322.2042876969276
20
376.71514751579826
30
1.9999999999999998
 70
     192
  0
VERTEX
  8
Layer0
10
0.0
 20
 0.0
 30
0.0
 70
     128
 71
-1
 72
2
 73
3
  0
VERTEX
  8
Layer0
10
0.0
 20
 0.0
 30
0.0
 70
     128
 71
-2
 72
1
 73
4
  0
SEQEND
  0
POLYLINE
 8
Layer0
 66
     1
10
0.0
 20
 0.0
 30
0.0
70
    64
71
4
72
   1
  0
VERTEX
  8
Layer0
10
319.1066625153304
20
383.94843322618027
30
0.0
 70
     192
  0
VERTEX
  8
Layer0
10
322.2042876969276
20
376.71514751579826
30
1.9999999999999998
 70
     192
  0
VERTEX
  8
Layer0
10
322.2042876969276
20
376.71514751579826
30
0.0
 70
     192
  0
VERTEX
  8
Layer0
10
319.1066625153304
20
383.94843322618027
30
1.9999999999999998
 70
     192
  0
VERTEX
  8
Layer0
10
0.0
 20
 0.0
 30
0.0
 70
     128
 71
-1
 72
2
 73
3
  0
VERTEX
  8
Layer0
10
0.0
 20
 0.0
 30
0.0
 70
     128
 71
-2
 72
1
 73
4
  0
SEQEND
  0
POLYLINE
 8
Layer0
 66
     1
10
0.0
 20
 0.0
 30
0.0
70
    64
71
4
72
   1
  0
VERTEX
  8
Layer0
10
314.2162693762793
20
390.3695313033918
30
0.0
 70
     192
  0
VERTEX
  8
Layer0
10
319.1066625153304
20
383.94843322618027
30
1.9999999999999998
 70
     192
  0
VERTEX
  8
Layer0
10
319.1066625153304
20
383.94843322618027
30
0.0
 70
     192
  0
VERTEX
  8
Layer0
10
314.2162693762793
20
390.3695313033918
30
1.9999999999999998
 70
     192
  0
VERTEX
  8
Layer0
10
0.0
 20
 0.0
 30
0.0
 70
     128
 71
-1
 72
2
 73
3
  0
VERTEX
  8
Layer0
10
0.0
 20
 0.0
 30
0.0
 70
     128
 71
-2
 72
1
 73
4
  0
SEQEND
  0
POLYLINE
 8
Layer0
 66
     1
10
0.0
 20
 0.0
 30
0.0
70
    64
71
4
72
   1
  0
VERTEX
  8
Layer0
10
307.79080788108405
20
395.6400815446153
30
1.9999999999999998
 70
     192
  0
VERTEX
  8
Layer0
10
314.2162693762793
20
390.3695313033918
30
0.0
 70
     192
  0
VERTEX
  8
Layer0
10
307.79080788108405
20
395.6400815446153
30
0.0
 70
     192
  0
VERTEX
  8
Layer0
10
314.2162693762793
20
390.3695313033918
30
1.9999999999999998
 70
     192
  0
VERTEX
  8
Layer0
10
0.0
 20
 0.0
 30
0.0
 70
     128
 71
-1
 72
2
 73
3
  0
VERTEX
  8
Layer0
10
0.0
 20
 0.0
 30
0.0
 70
     128
 71
-2
 72
1
 73
4
  0
SEQEND
  0
POLYLINE
 8
Layer0
 66
     1
10
0.0
 20
 0.0
 30
0.0
70
    64
71
4
72
   1
  0
VERTEX
  8
Layer0
10
300.1688681631635
20
399.4823519440167
30
1.9999999999999998
 70
     192
  0
VERTEX
  8
Layer0
10
307.79080788108405
20
395.6400815446153
30
0.0
 70
     192
  0
VERTEX
  8
Layer0
10
300.1688681631635
20
399.4823519440167
30
0.0
 70
     192
  0
VERTEX
  8
Layer0
10
307.79080788108405
20
395.6400815446153
30
1.9999999999999998
 70
     192
  0
VERTEX
  8
Layer0
10
0.0
 20
 0.0
 30
0.0
 70
     128
 71
-1
 72
2
 73
3
  0
VERTEX
  8
Layer0
10
0.0
 20
 0.0
 30
0.0
 70
     128
 71
-2
 72
1
 73
4
  0
SEQEND
  0
POLYLINE
 8
Layer0
 66
     1
10
0.0
 20
 0.0
 30
0.0
70
    64
71
4
72
   1
  0
VERTEX
  8
Layer0
10
220.3383069614739
20
399.5211320934696
30
1.9999999999999998
 70
     192
  0
VERTEX
  8
Layer0
10
300.1688681631635
20
399.4823519440167
30
0.0
 70
     192
  0
VERTEX
  8
Layer0
10
220.3383069614739
20
399.5211320934696
30
0.0
 70
     192
  0
VERTEX
  8
Layer0
10
300.1688681631635
20
399.4823519440167
30
1.9999999999999998
 70
     192
  0
VERTEX
  8
Layer0
10
0.0
 20
 0.0
 30
0.0
 70
     128
 71
-1
 72
2
 73
3
  0
VERTEX
  8
Layer0
10
0.0
 20
 0.0
 30
0.0
 70
     128
 71
-2
 72
1
 73
4
  0
SEQEND
  0
POLYLINE
 8
Layer0
 66
     1
10
0.0
 20
 0.0
 30
0.0
70
    64
71
4
72
   1
  0
VERTEX
  8
Layer0
10
218.4587865444965
20
399.92577571213604
30
1.9999999999999998
 70
     192
  0
VERTEX
  8
Layer0
10
220.3383069614739
20
399.5211320934696
30
0.0
 70
     192
  0
VERTEX
  8
Layer0
10
218.4587865444965
20
399.92577571213604
30
0.0
 70
     192
  0
VERTEX
  8
Layer0
10
220.3383069614739
20
399.5211320934696
30
1.9999999999999998
 70
     192
  0
VERTEX
  8
Layer0
10
0.0
 20
 0.0
 30
0.0
 70
     128
 71
-1
 72
2
 73
3
  0
VERTEX
  8
Layer0
10
0.0
 20
 0.0
 30
0.0
 70
     128
 71
-2
 72
1
 73
4
  0
SEQEND
  0
POLYLINE
 8
Layer0
 66
     1
10
0.0
 20
 0.0
 30
0.0
70
    64
71
4
72
   1
  0
VERTEX
  8
Layer0
10
214.4337677181196
20
400.12487353607526
30
1.9999999999999998
 70
     192
  0
VERTEX
  8
Layer0
10
218.4587865444965
20
399.92577571213604
30
0.0
 70
     192
  0
VERTEX
  8
Layer0
10
214.4337677181196
20
400.12487353607526
30
0.0
 70
     192
  0
VERTEX
  8
Layer0
10
218.4587865444965
20
399.92577571213604
30
1.9999999999999998
 70
     192
  0
VERTEX
  8
Layer0
10
0.0
 20
 0.0
 30
0.0
 70
     128
 71
-1
 72
2
 73
3
  0
VERTEX
  8
Layer0
10
0.0
 20
 0.0
 30
0.0
 70
     128
 71
-2
 72
1
 73
4
  0
SEQEND
  0
POLYLINE
 8
Layer0
 66
     1
10
0.0
 20
 0.0
 30
0.0
70
    64
71
4
72
   1
  0
VERTEX
  8
Layer0
10
208.11082184869852
20
400.6019736120425
30
1.9999999999999998
 70
     192
  0
VERTEX
  8
Layer0
10
214.4337677181196
20
400.12487353607526
30
0.0
 70
     192
  0
VERTEX
  8
Layer0
10
208.11082184869852
20
400.6019736120425
30
0.0
 70
     192
  0
VERTEX
  8
Layer0
10
214.4337677181196
20
400.12487353607526
30
1.9999999999999998
 70
     192
  0
VERTEX
  8
Layer0
10
0.0
 20
 0.0
 30
0.0
 70
     128
 71
-1
 72
2
 73
3
  0
VERTEX
  8
Layer0
10
0.0
 20
 0.0
 30
0.0
 70
     128
 71
-2
 72
1
 73
4
  0
SEQEND
  0
POLYLINE
 8
Layer0
 66
     1
10
0.0
 20
 0.0
 30
0.0
70
    64
71
4
72
   1
  0
VERTEX
  8
Layer0
10
205.18373861017068
20
400.9137836231528
30
1.9999999999999998
 70
     192
  0
VERTEX
  8
Layer0
10
208.11082184869852
20
400.6019736120425
30
0.0
 70
     192
  0
VERTEX
  8
Layer0
10
205.18373861017068
20
400.9137836231528
30
0.0
 70
     192
  0
VERTEX
  8
Layer0
10
208.11082184869852
20
400.6019736120425
30
1.9999999999999998
 70
     192
  0
VERTEX
  8
Layer0
10
0.0
 20
 0.0
 30
0.0
 70
     128
 71
-1
 72
2
 73
3
  0
VERTEX
  8
Layer0
10
0.0
 20
 0.0
 30
0.0
 70
     128
 71
-2
 72
1
 73
4
  0
SEQEND
  0
POLYLINE
 8
Layer0
 66
     1
10
0.0
 20
 0.0
 30
0.0
70
    64
71
4
72
   1
  0
VERTEX
  8
Layer0
10
201.8153408037595
20
401.2147780966827
30
1.9999999999999998
 70
     192
  0
VERTEX
  8
Layer0
10
205.18373861017068
20
400.9137836231528
30
0.0
 70
     192
  0
VERTEX
  8
Layer0
10
201.8153408037595
20
401.2147780966827
30
0.0
 70
     192
  0
VERTEX
  8
Layer0
10
205.18373861017068
20
400.9137836231528
30
1.9999999999999998
 70
     192
  0
VERTEX
  8
Layer0
10
0.0
 20
 0.0
 30
0.0
 70
     128
 71
-1
 72
2
 73
3
  0
VERTEX
  8
Layer0
10
0.0
 20
 0.0
 30
0.0
 70
     128
 71
-2
 72
1
 73
4
  0
SEQEND
  0
POLYLINE
 8
Layer0
 66
     1
10
0.0
 20
 0.0
 30
0.0
70
    64
71
4
72
   1
  0
VERTEX
  8
Layer0
10
199.35333390770845
20
401.5336872820674
30
1.9999999999999998
 70
     192
  0
VERTEX
  8
Layer0
10
201.8153408037595
20
401.2147780966827
30
0.0
 70
     192
  0
VERTEX
  8
Layer0
10
199.35333390770845
20
401.5336872820674
30
0.0
 70
     192
  0
VERTEX
  8
Layer0
10
201.8153408037595
20
401.2147780966827
30
1.9999999999999998
 70
     192
  0
VERTEX
  8
Layer0
10
0.0
 20
 0.0
 30
0.0
 70
     128
 71
-1
 72
2
 73
3
  0
VERTEX
  8
Layer0
10
0.0
 20
 0.0
 30
0.0
 70
     128
 71
-2
 72
1
 73
4
  0
SEQEND
  0
POLYLINE
 8
Layer0
 66
     1
10
0.0
 20
 0.0
 30
0.0
70
    64
71
4
72
   1
  0
VERTEX
  8
Layer0
10
195.53475734636547
20
401.9518148856488
30
1.9999999999999998
 70
     192
  0
VERTEX
  8
Layer0
10
199.35333390770845
20
401.5336872820674
30
0.0
 70
     192
  0
VERTEX
  8
Layer0
10
195.53475734636547
20
401.9518148856488
30
0.0
 70
     192
  0
VERTEX
  8
Layer0
10
199.35333390770845
20
401.5336872820674
30
1.9999999999999998
 70
     192
  0
VERTEX
  8
Layer0
10
0.0
 20
 0.0
 30
0.0
 70
     128
 71
-1
 72
2
 73
3
  0
VERTEX
  8
Layer0
10
0.0
 20
 0.0
 30
0.0
 70
     128
 71
-2
 72
1
 73
4
  0
SEQEND
  0
POLYLINE
 8
Layer0
 66
     1
10
0.0
 20
 0.0
 30
0.0
70
    64
71
4
72
   1
  0
VERTEX
  8
Layer0
10
177.78444484922366
20
401.9518148856473
30
1.9999999999999998
 70
     192
  0
VERTEX
  8
Layer0
10
195.53475734636547
20
401.9518148856488
30
0.0
 70
     192
  0
VERTEX
  8
Layer0
10
177.78444484922366
20
401.9518148856473
30
0.0
 70
     192
  0
VERTEX
  8
Layer0
10
195.53475734636547
20
401.9518148856488
30
1.9999999999999998
 70
     192
  0
VERTEX
  8
Layer0
10
0.0
 20
 0.0
 30
0.0
 70
     128
 71
-1
 72
2
 73
3
  0
VERTEX
  8
Layer0
10
0.0
 20
 0.0
 30
0.0
 70
     128
 71
-2
 72
1
 73
4
  0
SEQEND
  0
POLYLINE
 8
Layer0
 66
     1
10
0.0
 20
 0.0
 30
0.0
70
    64
71
4
72
   1
  0
VERTEX
  8
Layer0
10
167.19503745692438
20
401.5489372946685
30
1.9999999999999998
 70
     192
  0
VERTEX
  8
Layer0
10
177.78444484922366
20
401.9518148856473
30
0.0
 70
     192
  0
VERTEX
  8
Layer0
10
167.19503745692438
20
401.5489372946685
30
0.0
 70
     192
  0
VERTEX
  8
Layer0
10
177.78444484922366
20
401.9518148856473
30
1.9999999999999998
 70
     192
  0
VERTEX
  8
Layer0
10
0.0
 20
 0.0
 30
0.0
 70
     128
 71
-1
 72
2
 73
3
  0
VERTEX
  8
Layer0
10
0.0
 20
 0.0
 30
0.0
 70
     128
 71
-2
 72
1
 73
4
  0
SEQEND
  0
POLYLINE
 8
Layer0
 66
     1
10
0.0
 20
 0.0
 30
0.0
70
    64
71
4
72
   1
  0
VERTEX
  8
Layer0
10
156.72595723412041
20
400.34488240965646
30
1.9999999999999998
 70
     192
  0
VERTEX
  8
Layer0
10
167.19503745692438
20
401.5489372946685
30
0.0
 70
     192
  0
VERTEX
  8
Layer0
10
156.72595723412041
20
400.34488240965646
30
0.0
 70
     192
  0
VERTEX
  8
Layer0
10
167.19503745692438
20
401.5489372946685
30
1.9999999999999998
 70
     192
  0
VERTEX
  8
Layer0
10
0.0
 20
 0.0
 30
0.0
 70
     128
 71
-1
 72
2
 73
3
  0
VERTEX
  8
Layer0
10
0.0
 20
 0.0
 30
0.0
 70
     128
 71
-2
 72
1
 73
4
  0
SEQEND
  0
POLYLINE
 8
Layer0
 66
     1
10
0.0
 20
 0.0
 30
0.0
70
    64
71
4
72
   1
  0
VERTEX
  8
Layer0
10
146.49616407570858
20
398.3533318759425
30
1.9999999999999998
 70
     192
  0
VERTEX
  8
Layer0
10
156.72595723412041
20
400.34488240965646
30
0.0
 70
     192
  0
VERTEX
  8
Layer0
10
146.49616407570858
20
398.3533318759425
30
0.0
 70
     192
  0
VERTEX
  8
Layer0
10
156.72595723412041
20
400.34488240965646
30
1.9999999999999998
 70
     192
  0
VERTEX
  8
Layer0
10
0.0
 20
 0.0
 30
0.0
 70
     128
 71
-1
 72
2
 73
3
  0
VERTEX
  8
Layer0
10
0.0
 20
 0.0
 30
0.0
 70
     128
 71
-2
 72
1
 73
4
  0
SEQEND
  0
POLYLINE
 8
Layer0
 66
     1
10
0.0
 20
 0.0
 30
0.0
70
    64
71
4
72
   1
  0
VERTEX
  8
Layer0
10
136.6218988636985
20
395.59691563208446
30
1.9999999999999998
 70
     192
  0
VERTEX
  8
Layer0
10
146.49616407570858
20
398.3533318759425
30
0.0
 70
     192
  0
VERTEX
  8
Layer0
10
136.6218988636985
20
395.59691563208446
30
0.0
 70
     192
  0
VERTEX
  8
Layer0
10
146.49616407570858
20
398.3533318759425
30
1.9999999999999998
 70
     192
  0
VERTEX
  8
Layer0
10
0.0
 20
 0.0
 30
0.0
 70
     128
 71
-1
 72
2
 73
3
  0
VERTEX
  8
Layer0
10
0.0
 20
 0.0
 30
0.0
 70
     128
 71
-2
 72
1
 73
4
  0
SEQEND
  0
POLYLINE
 8
Layer0
 66
     1
10
0.0
 20
 0.0
 30
0.0
70
    64
71
4
72
   1
  0
VERTEX
  8
Layer0
10
127.2153626250092
20
392.10695476643116
30
1.9999999999999998
 70
     192
  0
VERTEX
  8
Layer0
10
136.6218988636985
20
395.59691563208446
30
0.0
 70
     192
  0
VERTEX
  8
Layer0
10
127.2153626250092
20
392.10695476643116
30
0.0
 70
     192
  0
VERTEX
  8
Layer0
10
136.6218988636985
20
395.59691563208446
30
1.9999999999999998
 70
     192
  0
VERTEX
  8
Layer0
10
0.0
 20
 0.0
 30
0.0
 70
     128
 71
-1
 72
2
 73
3
  0
VERTEX
  8
Layer0
10
0.0
 20
 0.0
 30
0.0
 70
     128
 71
-2
 72
1
 73
4
  0
SEQEND
  0
POLYLINE
 8
Layer0
 66
     1
10
0.0
 20
 0.0
 30
0.0
70
    64
71
4
72
   1
  0
VERTEX
  8
Layer0
10
118.38344159400074
20
387.9231056164085
30
1.9999999999999998
 70
     192
  0
VERTEX
  8
Layer0
10
127.2153626250092
20
392.10695476643116
30
0.0
 70
     192
  0
VERTEX
  8
Layer0
10
118.38344159400074
20
387.9231056164085
30
0.0
 70
     192
  0
VERTEX
  8
Layer0
10
127.2153626250092
20
392.10695476643116
30
1.9999999999999998
 70
     192
  0
VERTEX
  8
Layer0
10
0.0
 20
 0.0
 30
0.0
 70
     128
 71
-1
 72
2
 73
3
  0
VERTEX
  8
Layer0
10
0.0
 20
 0.0
 30
0.0
 70
     128
 71
-2
 72
1
 73
4
  0
SEQEND
  0
POLYLINE
 8
Layer0
 66
     1
10
0.0
 20
 0.0
 30
0.0
70
    64
71
4
72
   1
  0
VERTEX
  8
Layer0
10
110.22649266690551
20
383.0929091545315
30
1.9999999999999998
 70
     192
  0
VERTEX
  8
Layer0
10
118.38344159400074
20
387.9231056164085
30
0.0
 70
     192
  0
VERTEX
  8
Layer0
10
110.22649266690551
20
383.0929091545315
30
0.0
 70
     192
  0
VERTEX
  8
Layer0
10
118.38344159400074
20
387.9231056164085
30
1.9999999999999998
 70
     192
  0
VERTEX
  8
Layer0
10
0.0
 20
 0.0
 30
0.0
 70
     128
 71
-1
 72
2
 73
3
  0
VERTEX
  8
Layer0
10
0.0
 20
 0.0
 30
0.0
 70
     128
 71
-2
 72
1
 73
4
  0
SEQEND
  0
POLYLINE
 8
Layer0
 66
     1
10
0.0
 20
 0.0
 30
0.0
70
    64
71
4
72
   1
  0
VERTEX
  8
Layer0
10
102.83720304894901
20
377.6712507815435
30
1.9999999999999998
 70
     192
  0
VERTEX
  8
Layer0
10
110.22649266690551
20
383.0929091545315
30
0.0
 70
     192
  0
VERTEX
  8
Layer0
10
102.83720304894901
20
377.6712507815435
30
0.0
 70
     192
  0
VERTEX
  8
Layer0
10
110.22649266690551
20
383.0929091545315
30
1.9999999999999998
 70
     192
  0
VERTEX
  8
Layer0
10
0.0
 20
 0.0
 30
0.0
 70
     128
 71
-1
 72
2
 73
3
  0
VERTEX
  8
Layer0
10
0.0
 20
 0.0
 30
0.0
 70
     128
 71
-2
 72
1
 73
4
  0
SEQEND
  0
POLYLINE
 8
Layer0
 66
     1
10
0.0
 20
 0.0
 30
0.0
70
    64
71
4
72
   1
  0
VERTEX
  8
Layer0
10
96.29953705197705
20
371.71973666497735
30
1.9999999999999998
 70
     192
  0
VERTEX
  8
Layer0
10
102.83720304894901
20
377.6712507815435
30
0.0
 70
     192
  0
VERTEX
  8
Layer0
10
96.29953705197705
20
371.71973666497735
30
0.0
 70
     192
  0
VERTEX
  8
Layer0
10
102.83720304894901
20
377.6712507815435
30
1.9999999999999998
 70
     192
  0
VERTEX
  8
Layer0
10
0.0
 20
 0.0
 30
0.0
 70
     128
 71
-1
 72
2
 73
3
  0
VERTEX
  8
Layer0
10
0.0
 20
 0.0
 30
0.0
 70
     128
 71
-2
 72
1
 73
4
  0
SEQEND
  0
POLYLINE
 8
Layer0
 66
     1
10
0.0
 20
 0.0
 30
0.0
70
    64
71
4
72
   1
  0
VERTEX
  8
Layer0
10
96.29953705197705
20
371.71973666497735
30
1.9999999999999998
 70
     192
  0
VERTEX
  8
Layer0
10
93.93673593973543
20
369.01926259323136
30
0.0
 70
     192
  0
VERTEX
  8
Layer0
10
93.93673593973543
20
369.01926259323136
30
1.9999999999999998
 70
     192
  0
VERTEX
  8
Layer0
10
96.29953705197705
20
371.71973666497735
30
0.0
 70
     192
  0
VERTEX
  8
Layer0
10
0.0
 20
 0.0
 30
0.0
 70
     128
 71
-1
 72
2
 73
3
  0
VERTEX
  8
Layer0
10
0.0
 20
 0.0
 30
0.0
 70
     128
 71
-2
 72
1
 73
4
  0
SEQEND
  0
POLYLINE
 8
Layer0
 66
     1
10
0.0
 20
 0.0
 30
0.0
70
    64
71
4
72
   1
  0
VERTEX
  8
Layer0
10
93.93673593973543
20
369.01926259323136
30
1.9999999999999998
 70
     192
  0
VERTEX
  8
Layer0
10
92.22685540164282
20
366.6375718368641
30
0.0
 70
     192
  0
VERTEX
  8
Layer0
10
92.22685540164282
20
366.6375718368641
30
1.9999999999999998
 70
     192
  0
VERTEX
  8
Layer0
10
93.93673593973543
20
369.01926259323136
30
0.0
 70
     192
  0
VERTEX
  8
Layer0
10
0.0
 20
 0.0
 30
0.0
 70
     128
 71
-1
 72
2
 73
3
  0
VERTEX
  8
Layer0
10
0.0
 20
 0.0
 30
0.0
 70
     128
 71
-2
 72
1
 73
4
  0
SEQEND
  0
POLYLINE
 8
Layer0
 66
     1
10
0.0
 20
 0.0
 30
0.0
70
    64
71
4
72
   1
  0
VERTEX
  8
Layer0
10
92.22685540164282
20
366.6375718368641
30
1.9999999999999998
 70
     192
  0
VERTEX
  8
Layer0
10
90.69855146697456
20
363.91812988766446
30
0.0
 70
     192
  0
VERTEX
  8
Layer0
10
90.69855146697456
20
363.91812988766446
30
1.9999999999999998
 70
     192
  0
VERTEX
  8
Layer0
10
92.22685540164282
20
366.6375718368641
30
0.0
 70
     192
  0
VERTEX
  8
Layer0
10
0.0
 20
 0.0
 30
0.0
 70
     128
 71
-1
 72
2
 73
3
  0
VERTEX
  8
Layer0
10
0.0
 20
 0.0
 30
0.0
 70
     128
 71
-2
 72
1
 73
4
  0
SEQEND
  0
POLYLINE
 8
Layer0
 66
     1
10
0.0
 20
 0.0
 30
0.0
70
    64
71
4
72
   1
  0
VERTEX
  8
Layer0
10
90.69855146697456
20
363.91812988766446
30
1.9999999999999998
 70
     192
  0
VERTEX
  8
Layer0
10
89.52713642618076
20
361.110122916149
30
0.0
 70
     192
  0
VERTEX
  8
Layer0
10
89.52713642618076
20
361.110122916149
30
1.9999999999999998
 70
     192
  0
VERTEX
  8
Layer0
10
90.69855146697456
20
363.91812988766446
30
0.0
 70
     192
  0
VERTEX
  8
Layer0
10
0.0
 20
 0.0
 30
0.0
 70
     128
 71
-1
 72
2
 73
3
  0
VERTEX
  8
Layer0
10
0.0
 20
 0.0
 30
0.0
 70
     128
 71
-2
 72
1
 73
4
  0
SEQEND
  0
POLYLINE
 8
Layer0
 66
     1
10
0.0
 20
 0.0
 30
0.0
70
    64
71
4
72
   1
  0
VERTEX
  8
Layer0
10
89.52713642618076
20
361.110122916149
30
1.9999999999999998
 70
     192
  0
VERTEX
  8
Layer0
10
88.72251412442195
20
358.23729149699847
30
0.0
 70
     192
  0
VERTEX
  8
Layer0
10
88.72251412442195
20
358.23729149699847
30
1.9999999999999998
 70
     192
  0
VERTEX
  8
Layer0
10
89.52713642618076
20
361.110122916149
30
0.0
 70
     192
  0
VERTEX
  8
Layer0
10
0.0
 20
 0.0
 30
0.0
 70
     128
 71
-1
 72
2
 73
3
  0
VERTEX
  8
Layer0
10
0.0
 20
 0.0
 30
0.0
 70
     128
 71
-2
 72
1
 73
4
  0
SEQEND
  0
POLYLINE
 8
Layer0
 66
     1
10
0.0
 20
 0.0
 30
0.0
70
    64
71
4
72
   1
  0
VERTEX
  8
Layer0
10
88.72251412442195
20
358.23729149699847
30
1.9999999999999998
 70
     192
  0
VERTEX
  8
Layer0
10
88.29148732110814
20
355.32392426965254
30
0.0
 70
     192
  0
VERTEX
  8
Layer0
10
88.29148732110814
20
355.32392426965254
30
1.9999999999999998
 70
     192
  0
VERTEX
  8
Layer0
10
88.72251412442195
20
358.23729149699847
30
0.0
 70
     192
  0
VERTEX
  8
Layer0
10
0.0
 20
 0.0
 30
0.0
 70
     128
 71
-1
 72
2
 73
3
  0
VERTEX
  8
Layer0
10
0.0
 20
 0.0
 30
0.0
 70
     128
 71
-2
 72
1
 73
4
  0
SEQEND
  0
POLYLINE
 8
Layer0
 66
     1
10
0.0
 20
 0.0
 30
0.0
70
    64
71
4
72
   1
  0
VERTEX
  8
Layer0
10
88.29148732110814
20
355.32392426965254
30
1.9999999999999998
 70
     192
  0
VERTEX
  8
Layer0
10
88.23770017529041
20
352.39465258758196
30
0.0
 70
     192
  0
VERTEX
  8
Layer0
10
88.23770017529041
20
352.39465258758196
30
1.9999999999999998
 70
     192
  0
VERTEX
  8
Layer0
10
88.29148732110814
20
355.32392426965254
30
0.0
 70
     192
  0
VERTEX
  8
Layer0
10
0.0
 20
 0.0
 30
0.0
 70
     128
 71
-1
 72
2
 73
3
  0
VERTEX
  8
Layer0
10
0.0
 20
 0.0
 30
0.0
 70
     128
 71
-2
 72
1
 73
4
  0
SEQEND
  0
POLYLINE
 8
Layer0
 66
     1
10
0.0
 20
 0.0
 30
0.0
70
    64
71
4
72
   1
  0
VERTEX
  8
Layer0
10
88.23770017529041
20
352.39465258758196
30
1.9999999999999998
 70
     192
  0
VERTEX
  8
Layer0
10
88.56160743574931
20
349.47424227004376
30
0.0
 70
     192
  0
VERTEX
  8
Layer0
10
88.56160743574931
20
349.47424227004376
30
1.9999999999999998
 70
     192
  0
VERTEX
  8
Layer0
10
88.23770017529041
20
352.39465258758196
30
0.0
 70
     192
  0
VERTEX
  8
Layer0
10
0.0
 20
 0.0
 30
0.0
 70
     128
 71
-1
 72
2
 73
3
  0
VERTEX
  8
Layer0
10
0.0
 20
 0.0
 30
0.0
 70
     128
 71
-2
 72
1
 73
4
  0
SEQEND
  0
POLYLINE
 8
Layer0
 66
     1
10
0.0
 20
 0.0
 30
0.0
70
    64
71
4
72
   1
  0
VERTEX
  8
Layer0
10
88.56160743574931
20
349.47424227004376
30
1.9999999999999998
 70
     192
  0
VERTEX
  8
Layer0
10
89.26047059628456
20
346.58738421701355
30
0.0
 70
     192
  0
VERTEX
  8
Layer0
10
89.26047059628456
20
346.58738421701355
30
1.9999999999999998
 70
     192
  0
VERTEX
  8
Layer0
10
88.56160743574931
20
349.47424227004376
30
0.0
 70
     192
  0
VERTEX
  8
Layer0
10
0.0
 20
 0.0
 30
0.0
 70
     128
 71
-1
 72
2
 73
3
  0
VERTEX
  8
Layer0
10
0.0
 20
 0.0
 30
0.0
 70
     128
 71
-2
 72
1
 73
4
  0
SEQEND
  0
POLYLINE
 8
Layer0
 66
     1
10
0.0
 20
 0.0
 30
0.0
70
    64
71
4
72
   1
  0
VERTEX
  8
Layer0
10
89.26047059628456
20
346.58738421701355
30
1.9999999999999998
 70
     192
  0
VERTEX
  8
Layer0
10
90.32838104867942
20
343.75848565750437
30
0.0
 70
     192
  0
VERTEX
  8
Layer0
10
90.32838104867942
20
343.75848565750437
30
1.9999999999999998
 70
     192
  0
VERTEX
  8
Layer0
10
89.26047059628456
20
346.58738421701355
30
0.0
 70
     192
  0
VERTEX
  8
Layer0
10
0.0
 20
 0.0
 30
0.0
 70
     128
 71
-1
 72
2
 73
3
  0
VERTEX
  8
Layer0
10
0.0
 20
 0.0
 30
0.0
 70
     128
 71
-2
 72
1
 73
4
  0
SEQEND
  0
POLYLINE
 8
Layer0
 66
     1
10
0.0
 20
 0.0
 30
0.0
70
    64
71
4
72
   1
  0
VERTEX
  8
Layer0
10
90.32838104867942
20
343.75848565750437
30
1.9999999999999998
 70
     192
  0
VERTEX
  8
Layer0
10
91.75631003762899
20
341.01146379620786
30
0.0
 70
     192
  0
VERTEX
  8
Layer0
10
91.75631003762899
20
341.01146379620786
30
1.9999999999999998
 70
     192
  0
VERTEX
  8
Layer0
10
90.32838104867942
20
343.75848565750437
30
0.0
 70
     192
  0
VERTEX
  8
Layer0
10
0.0
 20
 0.0
 30
0.0
 70
     128
 71
-1
 72
2
 73
3
  0
VERTEX
  8
Layer0
10
0.0
 20
 0.0
 30
0.0
 70
     128
 71
-2
 72
1
 73
4
  0
SEQEND
  0
POLYLINE
 8
Layer0
 66
     1
10
0.0
 20
 0.0
 30
0.0
70
    64
71
4
72
   1
  0
VERTEX
  8
Layer0
10
91.75631003762899
20
341.01146379620786
30
1.9999999999999998
 70
     192
  0
VERTEX
  8
Layer0
10
93.5321849952339
20
338.3695436031286
30
0.0
 70
     192
  0
VERTEX
  8
Layer0
10
93.5321849952339
20
338.3695436031286
30
1.9999999999999998
 70
     192
  0
VERTEX
  8
Layer0
10
91.75631003762899
20
341.01146379620786
30
0.0
 70
     192
  0
VERTEX
  8
Layer0
10
0.0
 20
 0.0
 30
0.0
 70
     128
 71
-1
 72
2
 73
3
  0
VERTEX
  8
Layer0
10
0.0
 20
 0.0
 30
0.0
 70
     128
 71
-2
 72
1
 73
4
  0
SEQEND
  0
POLYLINE
 8
Layer0
 66
     1
10
0.0
 20
 0.0
 30
0.0
70
    64
71
4
72
   1
  0
VERTEX
  8
Layer0
10
98.42747497684998
20
334.66337356948264
30
1.9999999999999998
 70
     192
  0
VERTEX
  8
Layer0
10
93.5321849952339
20
338.3695436031286
30
0.0
 70
     192
  0
VERTEX
  8
Layer0
10
98.42747497684998
20
334.66337356948264
30
0.0
 70
     192
  0
VERTEX
  8
Layer0
10
93.5321849952339
20
338.3695436031286
30
1.9999999999999998
 70
     192
  0
VERTEX
  8
Layer0
10
0.0
 20
 0.0
 30
0.0
 70
     128
 71
-1
 72
2
 73
3
  0
VERTEX
  8
Layer0
10
0.0
 20
 0.0
 30
0.0
 70
     128
 71
-2
 72
1
 73
4
  0
SEQEND
  0
POLYLINE
 8
Layer0
 66
     1
10
0.0
 20
 0.0
 30
0.0
70
    64
71
4
72
   1
  0
VERTEX
  8
Layer0
10
103.84379632597968
20
331.3458552178687
30
1.9999999999999998
 70
     192
  0
VERTEX
  8
Layer0
10
98.42747497684998
20
334.66337356948264
30
0.0
 70
     192
  0
VERTEX
  8
Layer0
10
103.84379632597968
20
331.3458552178687
30
0.0
 70
     192
  0
VERTEX
  8
Layer0
10
98.42747497684998
20
334.66337356948264
30
1.9999999999999998
 70
     192
  0
VERTEX
  8
Layer0
10
0.0
 20
 0.0
 30
0.0
 70
     128
 71
-1
 72
2
 73
3
  0
VERTEX
  8
Layer0
10
0.0
 20
 0.0
 30
0.0
 70
     128
 71
-2
 72
1
 73
4
  0
SEQEND
  0
POLYLINE
 8
Layer0
 66
     1
10
0.0
 20
 0.0
 30
0.0
70
    64
71
4
72
   1
  0
VERTEX
  8
Layer0
10
109.72074242968912
20
328.4539878387688
30
1.9999999999999998
 70
     192
  0
VERTEX
  8
Layer0
10
103.84379632597968
20
331.3458552178687
30
0.0
 70
     192
  0
VERTEX
  8
Layer0
10
109.72074242968912
20
328.4539878387688
30
0.0
 70
     192
  0
VERTEX
  8
Layer0
10
103.84379632597968
20
331.3458552178687
30
1.9999999999999998
 70
     192
  0
VERTEX
  8
Layer0
10
0.0
 20
 0.0
 30
0.0
 70
     128
 71
-1
 72
2
 73
3
  0
VERTEX
  8
Layer0
10
0.0
 20
 0.0
 30
0.0
 70
     128
 71
-2
 72
1
 73
4
  0
SEQEND
  0
POLYLINE
 8
Layer0
 66
     1
10
0.0
 20
 0.0
 30
0.0
70
    64
71
4
72
   1
  0
VERTEX
  8
Layer0
10
115.99276946484348
20
326.020023564618
30
1.9999999999999998
 70
     192
  0
VERTEX
  8
Layer0
10
109.72074242968912
20
328.4539878387688
30
0.0
 70
     192
  0
VERTEX
  8
Layer0
10
115.99276946484348
20
326.020023564618
30
0.0
 70
     192
  0
VERTEX
  8
Layer0
10
109.72074242968912
20
328.4539878387688
30
1.9999999999999998
 70
     192
  0
VERTEX
  8
Layer0
10
0.0
 20
 0.0
 30
0.0
 70
     128
 71
-1
 72
2
 73
3
  0
VERTEX
  8
Layer0
10
0.0
 20
 0.0
 30
0.0
 70
     128
 71
-2
 72
1
 73
4
  0
SEQEND
  0
POLYLINE
 8
Layer0
 66
     1
10
0.0
 20
 0.0
 30
0.0
70
    64
71
4
72
   1
  0
VERTEX
  8
Layer0
10
122.58992738878266
20
324.0711076713905
30
1.9999999999999998
 70
     192
  0
VERTEX
  8
Layer0
10
115.99276946484348
20
326.020023564618
30
0.0
 70
     192
  0
VERTEX
  8
Layer0
10
122.58992738878266
20
324.0711076713905
30
0.0
 70
     192
  0
VERTEX
  8
Layer0
10
115.99276946484348
20
326.020023564618
30
1.9999999999999998
 70
     192
  0
VERTEX
  8
Layer0
10
0.0
 20
 0.0
 30
0.0
 70
     128
 71
-1
 72
2
 73
3
  0
VERTEX
  8
Layer0
10
0.0
 20
 0.0
 30
0.0
 70
     128
 71
-2
 72
1
 73
4
  0
SEQEND
  0
POLYLINE
 8
Layer0
 66
     1
10
0.0
 20
 0.0
 30
0.0
70
    64
71
4
72
   1
  0
VERTEX
  8
Layer0
10
129.43864007123423
20
322.62897583546794
30
1.9999999999999998
 70
     192
  0
VERTEX
  8
Layer0
10
122.58992738878266
20
324.0711076713905
30
0.0
 70
     192
  0
VERTEX
  8
Layer0
10
129.43864007123423
20
322.62897583546794
30
0.0
 70
     192
  0
VERTEX
  8
Layer0
10
122.58992738878266
20
324.0711076713905
30
1.9999999999999998
 70
     192
  0
VERTEX
  8
Layer0
10
0.0
 20
 0.0
 30
0.0
 70
     128
 71
-1
 72
2
 73
3
  0
VERTEX
  8
Layer0
10
0.0
 20
 0.0
 30
0.0
 70
     128
 71
-2
 72
1
 73
4
  0
SEQEND
  0
POLYLINE
 8
Layer0
 66
     1
10
0.0
 20
 0.0
 30
0.0
70
    64
71
4
72
   1
  0
VERTEX
  8
Layer0
10
136.46252586690068
20
321.70971172212626
30
1.9999999999999998
 70
     192
  0
VERTEX
  8
Layer0
10
129.43864007123423
20
322.62897583546794
30
0.0
 70
     192
  0
VERTEX
  8
Layer0
10
136.46252586690068
20
321.70971172212626
30
0.0
 70
     192
  0
VERTEX
  8
Layer0
10
129.43864007123423
20
322.62897583546794
30
1.9999999999999998
 70
     192
  0
VERTEX
  8
Layer0
10
0.0
 20
 0.0
 30
0.0
 70
     128
 71
-1
 72
2
 73
3
  0
VERTEX
  8
Layer0
10
0.0
 20
 0.0
 30
0.0
 70
     128
 71
-2
 72
1
 73
4
  0
SEQEND
  0
POLYLINE
 8
Layer0
 66
     1
10
0.0
 20
 0.0
 30
0.0
70
    64
71
4
72
   1
  0
VERTEX
  8
Layer0
10
143.583249477113
20
321.32356760924586
30
1.9999999999999998
 70
     192
  0
VERTEX
  8
Layer0
10
136.46252586690068
20
321.70971172212626
30
0.0
 70
     192
  0
VERTEX
  8
Layer0
10
143.583249477113
20
321.32356760924586
30
0.0
 70
     192
  0
VERTEX
  8
Layer0
10
136.46252586690068
20
321.70971172212626
30
1.9999999999999998
 70
     192
  0
VERTEX
  8
Layer0
10
0.0
 20
 0.0
 30
0.0
 70
     128
 71
-1
 72
2
 73
3
  0
VERTEX
  8
Layer0
10
0.0
 20
 0.0
 30
0.0
 70
     128
 71
-2
 72
1
 73
4
  0
SEQEND
  0
POLYLINE
 8
Layer0
 66
     1
10
0.0
 20
 0.0
 30
0.0
70
    64
71
4
72
   1
  0
VERTEX
  8
Layer0
10
150.7213956000038
20
321.47485004665486
30
1.9999999999999998
 70
     192
  0
VERTEX
  8
Layer0
10
143.583249477113
20
321.32356760924586
30
0.0
 70
     192
  0
VERTEX
  8
Layer0
10
150.7213956000038
20
321.47485004665486
30
0.0
 70
     192
  0
VERTEX
  8
Layer0
10
143.583249477113
20
321.32356760924586
30
1.9999999999999998
 70
     192
  0
VERTEX
  8
Layer0
10
0.0
 20
 0.0
 30
0.0
 70
     128
 71
-1
 72
2
 73
3
  0
VERTEX
  8
Layer0
10
0.0
 20
 0.0
 30
0.0
 70
     128
 71
-2
 72
1
 73
4
  0
SEQEND
  0
POLYLINE
 8
Layer0
 66
     1
10
0.0
 20
 0.0
 30
0.0
70
    64
71
4
72
   1
  0
VERTEX
  8
Layer0
10
154.0912651315188
20
321.7212415405797
30
1.9999999999999998
 70
     192
  0
VERTEX
  8
Layer0
10
150.7213956000038
20
321.47485004665486
30
0.0
 70
     192
  0
VERTEX
  8
Layer0
10
154.0912651315188
20
321.7212415405797
30
0.0
 70
     192
  0
VERTEX
  8
Layer0
10
150.7213956000038
20
321.47485004665486
30
1.9999999999999998
 70
     192
  0
VERTEX
  8
Layer0
10
0.0
 20
 0.0
 30
0.0
 70
     128
 71
-1
 72
2
 73
3
  0
VERTEX
  8
Layer0
10
0.0
 20
 0.0
 30
0.0
 70
     128
 71
-2
 72
1
 73
4
  0
SEQEND
  0
POLYLINE
 8
Layer0
 66
     1
10
0.0
 20
 0.0
 30
0.0
70
    64
71
4
72
   1
  0
VERTEX
  8
Layer0
10
157.44493560479873
20
322.061897859891
30
1.9999999999999998
 70
     192
  0
VERTEX
  8
Layer0
10
154.0912651315188
20
321.7212415405797
30
0.0
 70
     192
  0
VERTEX
  8
Layer0
10
157.44493560479873
20
322.061897859891
30
0.0
 70
     192
  0
VERTEX
  8
Layer0
10
154.0912651315188
20
321.7212415405797
30
1.9999999999999998
 70
     192
  0
VERTEX
  8
Layer0
10
0.0
 20
 0.0
 30
0.0
 70
     128
 71
-1
 72
2
 73
3
  0
VERTEX
  8
Layer0
10
0.0
 20
 0.0
 30
0.0
 70
     128
 71
-2
 72
1
 73
4
  0
SEQEND
  0
POLYLINE
 8
Layer0
 66
     1
10
0.0
 20
 0.0
 30
0.0
70
    64
71
4
72
   1
  0
VERTEX
  8
Layer0
10
160.77721925405604
20
322.49629204607345
30
1.9999999999999998
 70
     192
  0
VERTEX
  8
Layer0
10
157.44493560479873
20
322.061897859891
30
0.0
 70
     192
  0
VERTEX
  8
Layer0
10
160.77721925405604
20
322.49629204607345
30
0.0
 70
     192
  0
VERTEX
  8
Layer0
10
157.44493560479873
20
322.061897859891
30
1.9999999999999998
 70
     192
  0
VERTEX
  8
Layer0
10
0.0
 20
 0.0
 30
0.0
 70
     128
 71
-1
 72
2
 73
3
  0
VERTEX
  8
Layer0
10
0.0
 20
 0.0
 30
0.0
 70
     128
 71
-2
 72
1
 73
4
  0
SEQEND
  0
POLYLINE
 8
Layer0
 66
     1
10
0.0
 20
 0.0
 30
0.0
70
    64
71
4
72
   1
  0
VERTEX
  8
Layer0
10
164.08296139661311
20
323.02375213826326
30
1.9999999999999998
 70
     192
  0
VERTEX
  8
Layer0
10
160.77721925405604
20
322.49629204607345
30
0.0
 70
     192
  0
VERTEX
  8
Layer0
10
164.08296139661311
20
323.02375213826326
30
0.0
 70
     192
  0
VERTEX
  8
Layer0
10
160.77721925405604
20
322.49629204607345
30
1.9999999999999998
 70
     192
  0
VERTEX
  8
Layer0
10
0.0
 20
 0.0
 30
0.0
 70
     128
 71
-1
 72
2
 73
3
  0
VERTEX
  8
Layer0
10
0.0
 20
 0.0
 30
0.0
 70
     128
 71
-2
 72
1
 73
4
  0
SEQEND
  0
POLYLINE
 8
Layer0
 66
     1
10
0.0
 20
 0.0
 30
0.0
70
    64
71
4
72
   1
  0
VERTEX
  8
Layer0
10
167.35704840663257
20
323.6434622126999
30
1.9999999999999998
 70
     192
  0
VERTEX
  8
Layer0
10
164.08296139661311
20
323.02375213826326
30
0.0
 70
     192
  0
VERTEX
  8
Layer0
10
167.35704840663257
20
323.6434622126999
30
0.0
 70
     192
  0
VERTEX
  8
Layer0
10
164.08296139661311
20
323.02375213826326
30
1.9999999999999998
 70
     192
  0
VERTEX
  8
Layer0
10
0.0
 20
 0.0
 30
0.0
 70
     128
 71
-1
 72
2
 73
3
  0
VERTEX
  8
Layer0
10
0.0
 20
 0.0
 30
0.0
 70
     128
 71
-2
 72
1
 73
4
  0
SEQEND
  0
POLYLINE
 8
Layer0
 66
     1
10
0.0
 20
 0.0
 30
0.0
70
    64
71
4
72
   1
  0
VERTEX
  8
Layer0
10
170.5944156253448
20
324.35446364487535
30
1.9999999999999998
 70
     192
  0
VERTEX
  8
Layer0
10
167.35704840663257
20
323.6434622126999
30
0.0
 70
     192
  0
VERTEX
  8
Layer0
10
170.5944156253448
20
324.35446364487535
30
0.0
 70
     192
  0
VERTEX
  8
Layer0
10
167.35704840663257
20
323.6434622126999
30
1.9999999999999998
 70
     192
  0
VERTEX
  8
Layer0
10
0.0
 20
 0.0
 30
0.0
 70
     128
 71
-1
 72
2
 73
3
  0
VERTEX
  8
Layer0
10
0.0
 20
 0.0
 30
0.0
 70
     128
 71
-2
 72
1
 73
4
  0
SEQEND
  0
POLYLINE
 8
Layer0
 66
     1
10
0.0
 20
 0.0
 30
0.0
70
    64
71
4
72
   1
  0
VERTEX
  8
Layer0
10
178.24844187763992
20
325.4854323163448
30
1.9999999999999998
 70
     192
  0
VERTEX
  8
Layer0
10
170.5944156253448
20
324.35446364487535
30
0.0
 70
     192
  0
VERTEX
  8
Layer0
10
178.24844187763992
20
325.4854323163448
30
0.0
 70
     192
  0
VERTEX
  8
Layer0
10
170.5944156253448
20
324.35446364487535
30
1.9999999999999998
 70
     192
  0
VERTEX
  8
Layer0
10
0.0
 20
 0.0
 30
0.0
 70
     128
 71
-1
 72
2
 73
3
  0
VERTEX
  8
Layer0
10
0.0
 20
 0.0
 30
0.0
 70
     128
 71
-2
 72
1
 73
4
  0
SEQEND
  0
POLYLINE
 8
Layer0
 66
     1
10
0.0
 20
 0.0
 30
0.0
70
    64
71
4
72
   1
  0
VERTEX
  8
Layer0
10
185.47831297743576
20
327.787053643011
30
1.9999999999999998
 70
     192
  0
VERTEX
  8
Layer0
10
178.24844187763992
20
325.4854323163448
30
0.0
 70
     192
  0
VERTEX
  8
Layer0
10
185.47831297743576
20
327.787053643011
30
0.0
 70
     192
  0
VERTEX
  8
Layer0
10
178.24844187763992
20
325.4854323163448
30
1.9999999999999998
 70
     192
  0
VERTEX
  8
Layer0
10
0.0
 20
 0.0
 30
0.0
 70
     128
 71
-1
 72
2
 73
3
  0
VERTEX
  8
Layer0
10
0.0
 20
 0.0
 30
0.0
 70
     128
 71
-2
 72
1
 73
4
  0
SEQEND
  0
POLYLINE
 8
Layer0
 66
     1
10
0.0
 20
 0.0
 30
0.0
70
    64
71
4
72
   1
  0
VERTEX
  8
Layer0
10
192.80847158503428
20
329.7459491579555
30
1.9999999999999998
 70
     192
  0
VERTEX
  8
Layer0
10
185.47831297743576
20
327.787053643011
30
0.0
 70
     192
  0
VERTEX
  8
Layer0
10
192.80847158503428
20
329.7459491579555
30
0.0
 70
     192
  0
VERTEX
  8
Layer0
10
185.47831297743576
20
327.787053643011
30
1.9999999999999998
 70
     192
  0
VERTEX
  8
Layer0
10
0.0
 20
 0.0
 30
0.0
 70
     128
 71
-1
 72
2
 73
3
  0
VERTEX
  8
Layer0
10
0.0
 20
 0.0
 30
0.0
 70
     128
 71
-2
 72
1
 73
4
  0
SEQEND
  0
POLYLINE
 8
Layer0
 66
     1
10
0.0
 20
 0.0
 30
0.0
70
    64
71
4
72
   1
  0
VERTEX
  8
Layer0
10
200.18199412653357
20
331.3541340996706
30
1.9999999999999998
 70
     192
  0
VERTEX
  8
Layer0
10
192.80847158503428
20
329.7459491579555
30
0.0
 70
     192
  0
VERTEX
  8
Layer0
10
200.18199412653357
20
331.3541340996706
30
0.0
 70
     192
  0
VERTEX
  8
Layer0
10
192.80847158503428
20
329.7459491579555
30
1.9999999999999998
 70
     192
  0
VERTEX
  8
Layer0
10
0.0
 20
 0.0
 30
0.0
 70
     128
 71
-1
 72
2
 73
3
  0
VERTEX
  8
Layer0
10
0.0
 20
 0.0
 30
0.0
 70
     128
 71
-2
 72
1
 73
4
  0
SEQEND
  0
POLYLINE
 8
Layer0
 66
     1
10
0.0
 20
 0.0
 30
0.0
70
    64
71
4
72
   1
  0
VERTEX
  8
Layer0
10
207.57909360211178
20
332.6071164600193
30
1.9999999999999998
 70
     192
  0
VERTEX
  8
Layer0
10
200.18199412653357
20
331.3541340996706
30
0.0
 70
     192
  0
VERTEX
  8
Layer0
10
207.57909360211178
20
332.6071164600193
30
0.0
 70
     192
  0
VERTEX
  8
Layer0
10
200.18199412653357
20
331.3541340996706
30
1.9999999999999998
 70
     192
  0
VERTEX
  8
Layer0
10
0.0
 20
 0.0
 30
0.0
 70
     128
 71
-1
 72
2
 73
3
  0
VERTEX
  8
Layer0
10
0.0
 20
 0.0
 30
0.0
 70
     128
 71
-2
 72
1
 73
4
  0
SEQEND
  0
POLYLINE
 8
Layer0
 66
     1
10
0.0
 20
 0.0
 30
0.0
70
    64
71
4
72
   1
  0
VERTEX
  8
Layer0
10
212.48017155871872
20
333.19889441243214
30
1.9999999999999998
 70
     192
  0
VERTEX
  8
Layer0
10
207.57909360211178
20
332.6071164600193
30
0.0
 70
     192
  0
VERTEX
  8
Layer0
10
212.48017155871872
20
333.19889441243214
30
0.0
 70
     192
  0
VERTEX
  8
Layer0
10
207.57909360211178
20
332.6071164600193
30
1.9999999999999998
 70
     192
  0
VERTEX
  8
Layer0
10
0.0
 20
 0.0
 30
0.0
 70
     128
 71
-1
 72
2
 73
3
  0
VERTEX
  8
Layer0
10
0.0
 20
 0.0
 30
0.0
 70
     128
 71
-2
 72
1
 73
4
  0
SEQEND
  0
POLYLINE
 8
Layer0
 66
     1
10
0.0
 20
 0.0
 30
0.0
70
    64
71
4
72
   1
  0
VERTEX
  8
Layer0
10
215.0381961105281
20
333.50776167487817
30
1.9999999999999998
 70
     192
  0
VERTEX
  8
Layer0
10
212.48017155871872
20
333.19889441243214
30
0.0
 70
     192
  0
VERTEX
  8
Layer0
10
215.0381961105281
20
333.50776167487817
30
0.0
 70
     192
  0
VERTEX
  8
Layer0
10
212.48017155871872
20
333.19889441243214
30
1.9999999999999998
 70
     192
  0
VERTEX
  8
Layer0
10
0.0
 20
 0.0
 30
0.0
 70
     128
 71
-1
 72
2
 73
3
  0
VERTEX
  8
Layer0
10
0.0
 20
 0.0
 30
0.0
 70
     128
 71
-2
 72
1
 73
4
  0
SEQEND
  0
POLYLINE
 8
Layer0
 66
     1
10
0.0
 20
 0.0
 30
0.0
70
    64
71
4
72
   1
  0
VERTEX
  8
Layer0
10
222.55655453866686
20
334.05554975850197
30
1.9999999999999998
 70
     192
  0
VERTEX
  8
Layer0
10
215.0381961105281
20
333.50776167487817
30
0.0
 70
     192
  0
VERTEX
  8
Layer0
10
222.55655453866686
20
334.05554975850197
30
0.0
 70
     192
  0
VERTEX
  8
Layer0
10
215.0381961105281
20
333.50776167487817
30
1.9999999999999998
 70
     192
  0
VERTEX
  8
Layer0
10
0.0
 20
 0.0
 30
0.0
 70
     128
 71
-1
 72
2
 73
3
  0
VERTEX
  8
Layer0
10
0.0
 20
 0.0
 30
0.0
 70
     128
 71
-2
 72
1
 73
4
  0
SEQEND
  0
POLYLINE
 8
Layer0
 66
     1
10
0.0
 20
 0.0
 30
0.0
70
    64
71
4
72
   1
  0
VERTEX
  8
Layer0
10
230.12743685429106
20
334.2508527189083
30
1.9999999999999998
 70
     192
  0
VERTEX
  8
Layer0
10
222.55655453866686
20
334.05554975850197
30
0.0
 70
     192
  0
VERTEX
  8
Layer0
10
230.12743685429106
20
334.2508527189083
30
0.0
 70
     192
  0
VERTEX
  8
Layer0
10
222.55655453866686
20
334.05554975850197
30
1.9999999999999998
 70
     192
  0
VERTEX
  8
Layer0
10
0.0
 20
 0.0
 30
0.0
 70
     128
 71
-1
 72
2
 73
3
  0
VERTEX
  8
Layer0
10
0.0
 20
 0.0
 30
0.0
 70
     128
 71
-2
 72
1
 73
4
  0
SEQEND
  0
POLYLINE
 8
Layer0
 66
     1
10
0.0
 20
 0.0
 30
0.0
70
    64
71
4
72
   1
  0
VERTEX
  8
Layer0
10
161.2920559831594
20
143.74461838001758
30
1.9999999999999998
 70
     192
  0
VERTEX
  8
Layer0
10
160.95131424605077
20
141.1564279289926
30
0.0
 70
     192
  0
VERTEX
  8
Layer0
10
160.95131424605077
20
141.1564279289926
30
1.9999999999999998
 70
     192
  0
VERTEX
  8
Layer0
10
161.2920559831594
20
143.74461838001758
30
0.0
 70
     192
  0
VERTEX
  8
Layer0
10
0.0
 20
 0.0
 30
0.0
 70
     128
 71
-1
 72
2
 73
3
  0
VERTEX
  8
Layer0
10
0.0
 20
 0.0
 30
0.0
 70
     128
 71
-2
 72
1
 73
4
  0
SEQEND
  0
POLYLINE
 8
Layer0
 66
     1
10
0.0
 20
 0.0
 30
0.0
70
    64
71
4
72
   1
  0
VERTEX
  8
Layer0
10
160.95131424605077
20
141.1564279289926
30
1.9999999999999998
 70
     192
  0
VERTEX
  8
Layer0
10
161.29205598315974
20
138.56823747796727
30
0.0
 70
     192
  0
VERTEX
  8
Layer0
10
161.29205598315974
20
138.56823747796727
30
1.9999999999999998
 70
     192
  0
VERTEX
  8
Layer0
10
160.95131424605077
20
141.1564279289926
30
0.0
 70
     192
  0
VERTEX
  8
Layer0
10
0.0
 20
 0.0
 30
0.0
 70
     128
 71
-1
 72
2
 73
3
  0
VERTEX
  8
Layer0
10
0.0
 20
 0.0
 30
0.0
 70
     128
 71
-2
 72
1
 73
4
  0
SEQEND
  0
POLYLINE
 8
Layer0
 66
     1
10
0.0
 20
 0.0
 30
0.0
70
    64
71
4
72
   1
  0
VERTEX
  8
Layer0
10
162.29106020820606
20
136.15642792899266
30
1.9999999999999998
 70
     192
  0
VERTEX
  8
Layer0
10
163.8802464341851
20
134.085360117127
30
0.0
 70
     192
  0
VERTEX
  8
Layer0
10
163.8802464341851
20
134.085360117127
30
1.9999999999999998
 70
     192
  0
VERTEX
  8
Layer0
10
162.29106020820606
20
136.15642792899266
30
0.0
 70
     192
  0
VERTEX
  8
Layer0
10
0.0
 20
 0.0
 30
0.0
 70
     128
 71
-1
 72
2
 73
3
  0
VERTEX
  8
Layer0
10
0.0
 20
 0.0
 30
0.0
 70
     128
 71
-2
 72
1
 73
4
  0
SEQEND
  0
POLYLINE
 8
Layer0
 66
     1
10
0.0
 20
 0.0
 30
0.0
70
    64
71
4
72
   1
  0
VERTEX
  8
Layer0
10
161.29205598315974
20
138.56823747796727
30
1.9999999999999998
 70
     192
  0
VERTEX
  8
Layer0
10
162.29106020820606
20
136.15642792899266
30
0.0
 70
     192
  0
VERTEX
  8
Layer0
10
162.29106020820606
20
136.15642792899266
30
1.9999999999999998
 70
     192
  0
VERTEX
  8
Layer0
10
161.29205598315974
20
138.56823747796727
30
0.0
 70
     192
  0
VERTEX
  8
Layer0
10
0.0
 20
 0.0
 30
0.0
 70
     128
 71
-1
 72
2
 73
3
  0
VERTEX
  8
Layer0
10
0.0
 20
 0.0
 30
0.0
 70
     128
 71
-2
 72
1
 73
4
  0
SEQEND
  0
POLYLINE
 8
Layer0
 66
     1
10
0.0
 20
 0.0
 30
0.0
70
    64
71
4
72
   1
  0
VERTEX
  8
Layer0
10
173.539504697076
20
131.49716966610214
30
1.9999999999999998
 70
     192
  0
VERTEX
  8
Layer0
10
168.36312379502533
20
131.49716966610177
30
0.0
 70
     192
  0
VERTEX
  8
Layer0
10
173.539504697076
20
131.49716966610214
30
0.0
 70
     192
  0
VERTEX
  8
Layer0
10
168.36312379502533
20
131.49716966610177
30
1.9999999999999998
 70
     192
  0
VERTEX
  8
Layer0
10
0.0
 20
 0.0
 30
0.0
 70
     128
 71
-1
 72
2
 73
3
  0
VERTEX
  8
Layer0
10
0.0
 20
 0.0
 30
0.0
 70
     128
 71
-2
 72
1
 73
4
  0
SEQEND
  0
POLYLINE
 8
Layer0
 66
     1
10
0.0
 20
 0.0
 30
0.0
70
    64
71
4
72
   1
  0
VERTEX
  8
Layer0
10
163.88024643418473
20
148.2274957408582
30
1.9999999999999998
 70
     192
  0
VERTEX
  8
Layer0
10
164.32114118856057
20
148.56580618474905
30
0.0
 70
     192
  0
VERTEX
  8
Layer0
10
163.88024643418473
20
148.2274957408582
30
0.0
 70
     192
  0
VERTEX
  8
Layer0
10
164.32114118856057
20
148.56580618474905
30
1.9999999999999998
 70
     192
  0
VERTEX
  8
Layer0
10
0.0
 20
 0.0
 30
0.0
 70
     128
 71
-1
 72
2
 73
3
  0
VERTEX
  8
Layer0
10
0.0
 20
 0.0
 30
0.0
 70
     128
 71
-2
 72
1
 73
4
  0
SEQEND
  0
POLYLINE
 8
Layer0
 66
     1
10
0.0
 20
 0.0
 30
0.0
70
    64
71
4
72
   1
  0
VERTEX
  8
Layer0
10
163.88024643418473
20
148.2274957408582
30
1.9999999999999998
 70
     192
  0
VERTEX
  8
Layer0
10
162.2910602082057
20
146.15642792899254
30
0.0
 70
     192
  0
VERTEX
  8
Layer0
10
162.2910602082057
20
146.15642792899254
30
1.9999999999999998
 70
     192
  0
VERTEX
  8
Layer0
10
163.88024643418473
20
148.2274957408582
30
0.0
 70
     192
  0
VERTEX
  8
Layer0
10
0.0
 20
 0.0
 30
0.0
 70
     128
 71
-1
 72
2
 73
3
  0
VERTEX
  8
Layer0
10
0.0
 20
 0.0
 30
0.0
 70
     128
 71
-2
 72
1
 73
4
  0
SEQEND
  0
POLYLINE
 8
Layer0
 66
     1
10
0.0
 20
 0.0
 30
0.0
70
    64
71
4
72
   1
  0
VERTEX
  8
Layer0
10
168.36312379502533
20
131.49716966610177
30
1.9999999999999998
 70
     192
  0
VERTEX
  8
Layer0
10
165.9513142460507
20
132.496173891148
30
0.0
 70
     192
  0
VERTEX
  8
Layer0
10
168.36312379502533
20
131.49716966610177
30
0.0
 70
     192
  0
VERTEX
  8
Layer0
10
165.9513142460507
20
132.496173891148
30
1.9999999999999998
 70
     192
  0
VERTEX
  8
Layer0
10
0.0
 20
 0.0
 30
0.0
 70
     128
 71
-1
 72
2
 73
3
  0
VERTEX
  8
Layer0
10
0.0
 20
 0.0
 30
0.0
 70
     128
 71
-2
 72
1
 73
4
  0
SEQEND
  0
POLYLINE
 8
Layer0
 66
     1
10
0.0
 20
 0.0
 30
0.0
70
    64
71
4
72
   1
  0
VERTEX
  8
Layer0
10
165.9513142460507
20
132.496173891148
30
1.9999999999999998
 70
     192
  0
VERTEX
  8
Layer0
10
163.8802464341851
20
134.085360117127
30
0.0
 70
     192
  0
VERTEX
  8
Layer0
10
165.9513142460507
20
132.496173891148
30
0.0
 70
     192
  0
VERTEX
  8
Layer0
10
163.8802464341851
20
134.085360117127
30
1.9999999999999998
 70
     192
  0
VERTEX
  8
Layer0
10
0.0
 20
 0.0
 30
0.0
 70
     128
 71
-1
 72
2
 73
3
  0
VERTEX
  8
Layer0
10
0.0
 20
 0.0
 30
0.0
 70
     128
 71
-2
 72
1
 73
4
  0
SEQEND
  0
POLYLINE
 8
Layer0
 66
     1
10
0.0
 20
 0.0
 30
0.0
70
    64
71
4
72
   1
  0
VERTEX
  8
Layer0
10
175.95131424605063
20
132.49617389114835
30
1.9999999999999998
 70
     192
  0
VERTEX
  8
Layer0
10
173.539504697076
20
131.49716966610214
30
0.0
 70
     192
  0
VERTEX
  8
Layer0
10
175.95131424605063
20
132.49617389114835
30
0.0
 70
     192
  0
VERTEX
  8
Layer0
10
173.539504697076
20
131.49716966610214
30
1.9999999999999998
 70
     192
  0
VERTEX
  8
Layer0
10
0.0
 20
 0.0
 30
0.0
 70
     128
 71
-1
 72
2
 73
3
  0
VERTEX
  8
Layer0
10
0.0
 20
 0.0
 30
0.0
 70
     128
 71
-2
 72
1
 73
4
  0
SEQEND
  0
POLYLINE
 8
Layer0
 66
     1
10
0.0
 20
 0.0
 30
0.0
70
    64
71
25
72
   1
  0
VERTEX
  8
Layer0
10
161.2920559831594
20
143.74461838001758
30
0.0
 70
     192
  0
VERTEX
  8
Layer0
10
161.29205598315974
20
138.56823747796727
30
0.0
 70
     192
  0
VERTEX
  8
Layer0
10
160.95131424605077
20
141.1564279289926
30
0.0
 70
     192
  0
VERTEX
  8
Layer0
10
162.2910602082057
20
146.15642792899254
30
0.0
 70
     192
  0
VERTEX
  8
Layer0
10
162.29106020820606
20
136.15642792899266
30
0.0
 70
     192
  0
VERTEX
  8
Layer0
10
163.88024643418473
20
148.2274957408582
30
0.0
 70
     192
  0
VERTEX
  8
Layer0
10
163.8802464341851
20
134.085360117127
30
0.0
 70
     192
  0
VERTEX
  8
Layer0
10
164.32114118856057
20
148.56580618474905
30
0.0
 70
     192
  0
VERTEX
  8
Layer0
10
165.9513142460507
20
132.496173891148
30
0.0
 70
     192
  0
VERTEX
  8
Layer0
10
165.95131424605037
20
149.81668196683685
30
0.0
 70
     192
  0
VERTEX
  8
Layer0
10
168.36312379502496
20
150.81568619188317
30
0.0
 70
     192
  0
VERTEX
  8
Layer0
10
168.36312379502533
20
131.49716966610177
30
0.0
 70
     192
  0
VERTEX
  8
Layer0
10
170.95131424605032
20
151.15642792899249
30
0.0
 70
     192
  0
VERTEX
  8
Layer0
10
173.539504697076
20
131.49716966610214
30
0.0
 70
     192
  0
VERTEX
  8
Layer0
10
173.53950469707564
20
150.81568619188351
30
0.0
 70
     192
  0
VERTEX
  8
Layer0
10
175.95131424605026
20
149.8166819668372
30
0.0
 70
     192
  0
VERTEX
  8
Layer0
10
175.95131424605063
20
132.49617389114835
30
0.0
 70
     192
  0
VERTEX
  8
Layer0
10
177.58148730354014
20
148.56580618474905
30
0.0
 70
     192
  0
VERTEX
  8
Layer0
10
178.02238205791625
20
134.085360117127
30
0.0
 70
     192
  0
VERTEX
  8
Layer0
10
178.0223820579159
20
148.2274957408582
30
0.0
 70
     192
  0
VERTEX
  8
Layer0
10
179.6115682838949
20
146.15642792899254
30
0.0
 70
     192
  0
VERTEX
  8
Layer0
10
179.61156828389528
20
136.15642792899266
30
0.0
 70
     192
  0
VERTEX
  8
Layer0
10
180.61057250894123
20
143.74461838001795
30
0.0
 70
     192
  0
VERTEX
  8
Layer0
10
180.6105725089416
20
138.5682374779676
30
0.0
 70
     192
  0
VERTEX
  8
Layer0
10
180.95131424605057
20
141.1564279289926
30
0.0
 70
     192
  0
VERTEX
  8
Layer0
10
0.0
 20
 0.0
 30
0.0
 70
     128
 71
-1
 72
2
 73
3
  0
VERTEX
  8
Layer0
10
0.0
 20
 0.0
 30
0.0
 70
     128
 71
-2
 72
1
 73
-4
  0
VERTEX
  8
Layer0
10
0.0
 20
 0.0
 30
0.0
 70
     128
 71
-2
 72
-4
 73
5
  0
VERTEX
  8
Layer0
10
0.0
 20
 0.0
 30
0.0
 70
     128
 71
-5
 72
4
 73
-6
  0
VERTEX
  8
Layer0
10
0.0
 20
 0.0
 30
0.0
 70
     128
 71
-5
 72
-6
 73
7
  0
VERTEX
  8
Layer0
10
0.0
 20
 0.0
 30
0.0
 70
     128
 71
-7
 72
6
 73
-8
  0
VERTEX
  8
Layer0
10
0.0
 20
 0.0
 30
0.0
 70
     128
 71
-7
 72
-8
 73
9
  0
VERTEX
  8
Layer0
10
0.0
 20
 0.0
 30
0.0
 70
     128
 71
-9
 72
8
 73
-10
  0
VERTEX
  8
Layer0
10
0.0
 20
 0.0
 30
0.0
 70
     128
 71
-9
 72
10
 73
-11
  0
VERTEX
  8
Layer0
10
0.0
 20
 0.0
 30
0.0
 70
     128
 71
-9
 72
-11
 73
12
  0
VERTEX
  8
Layer0
10
0.0
 20
 0.0
 30
0.0
 70
     128
 71
-12
 72
11
 73
-13
  0
VERTEX
  8
Layer0
10
0.0
 20
 0.0
 30
0.0
 70
     128
 71
-12
 72
-13
 73
14
  0
VERTEX
  8
Layer0
10
0.0
 20
 0.0
 30
0.0
 70
     128
 71
-14
 72
13
 73
-15
  0
VERTEX
  8
Layer0
10
0.0
 20
 0.0
 30
0.0
 70
     128
 71
-14
 72
15
 73
-16
  0
VERTEX
  8
Layer0
10
0.0
 20
 0.0
 30
0.0
 70
     128
 71
-14
 72
-16
 73
17
  0
VERTEX
  8
Layer0
10
0.0
 20
 0.0
 30
0.0
 70
     128
 71
-17
 72
16
 73
-18
  0
VERTEX
  8
Layer0
10
0.0
 20
 0.0
 30
0.0
 70
     128
 71
-17
 72
-18
 73
19
  0
VERTEX
  8
Layer0
10
0.0
 20
 0.0
 30
0.0
 70
     128
 71
-19
 72
18
 73
-20
  0
VERTEX
  8
Layer0
10
0.0
 20
 0.0
 30
0.0
 70
     128
 71
-19
 72
20
 73
-21
  0
VERTEX
  8
Layer0
10
0.0
 20
 0.0
 30
0.0
 70
     128
 71
-19
 72
-21
 73
22
  0
VERTEX
  8
Layer0
10
0.0
 20
 0.0
 30
0.0
 70
     128
 71
-22
 72
21
 73
-23
  0
VERTEX
  8
Layer0
10
0.0
 20
 0.0
 30
0.0
 70
     128
 71
-22
 72
-23
 73
24
  0
VERTEX
  8
Layer0
10
0.0
 20
 0.0
 30
0.0
 70
     128
 71
-24
 72
23
 73
25
  0
SEQEND
  0
POLYLINE
 8
Layer0
 66
     1
10
0.0
 20
 0.0
 30
0.0
70
    64
71
4
72
   1
  0
VERTEX
  8
Layer0
10
162.2910602082057
20
146.15642792899254
30
1.9999999999999998
 70
     192
  0
VERTEX
  8
Layer0
10
161.2920559831594
20
143.74461838001758
30
0.0
 70
     192
  0
VERTEX
  8
Layer0
10
161.2920559831594
20
143.74461838001758
30
1.9999999999999998
 70
     192
  0
VERTEX
  8
Layer0
10
162.2910602082057
20
146.15642792899254
30
0.0
 70
     192
  0
VERTEX
  8
Layer0
10
0.0
 20
 0.0
 30
0.0
 70
     128
 71
-1
 72
2
 73
3
  0
VERTEX
  8
Layer0
10
0.0
 20
 0.0
 30
0.0
 70
     128
 71
-2
 72
1
 73
4
  0
SEQEND
  0
POLYLINE
 8
Layer0
 66
     1
10
0.0
 20
 0.0
 30
0.0
70
    64
71
25
72
   1
  0
VERTEX
  8
Layer0
10
161.29205598315974
20
138.56823747796727
30
1.9999999999999998
 70
     192
  0
VERTEX
  8
Layer0
10
161.2920559831594
20
143.74461838001758
30
1.9999999999999998
 70
     192
  0
VERTEX
  8
Layer0
10
160.95131424605077
20
141.1564279289926
30
1.9999999999999998
 70
     192
  0
VERTEX
  8
Layer0
10
162.2910602082057
20
146.15642792899254
30
1.9999999999999998
 70
     192
  0
VERTEX
  8
Layer0
10
162.29106020820606
20
136.15642792899266
30
1.9999999999999998
 70
     192
  0
VERTEX
  8
Layer0
10
163.88024643418473
20
148.2274957408582
30
1.9999999999999998
 70
     192
  0
VERTEX
  8
Layer0
10
163.8802464341851
20
134.085360117127
30
1.9999999999999998
 70
     192
  0
VERTEX
  8
Layer0
10
164.32114118856057
20
148.56580618474905
30
1.9999999999999998
 70
     192
  0
VERTEX
  8
Layer0
10
165.9513142460507
20
132.496173891148
30
1.9999999999999998
 70
     192
  0
VERTEX
  8
Layer0
10
165.95131424605037
20
149.81668196683685
30
1.9999999999999998
 70
     192
  0
VERTEX
  8
Layer0
10
168.36312379502496
20
150.81568619188317
30
1.9999999999999998
 70
     192
  0
VERTEX
  8
Layer0
10
168.36312379502533
20
131.49716966610177
30
1.9999999999999998
 70
     192
  0
VERTEX
  8
Layer0
10
170.95131424605032
20
151.15642792899249
30
1.9999999999999998
 70
     192
  0
VERTEX
  8
Layer0
10
173.539504697076
20
131.49716966610214
30
1.9999999999999998
 70
     192
  0
VERTEX
  8
Layer0
10
173.53950469707564
20
150.81568619188351
30
1.9999999999999998
 70
     192
  0
VERTEX
  8
Layer0
10
175.95131424605026
20
149.8166819668372
30
1.9999999999999998
 70
     192
  0
VERTEX
  8
Layer0
10
175.95131424605063
20
132.49617389114835
30
1.9999999999999998
 70
     192
  0
VERTEX
  8
Layer0
10
177.58148730354014
20
148.56580618474905
30
1.9999999999999998
 70
     192
  0
VERTEX
  8
Layer0
10
178.02238205791625
20
134.085360117127
30
1.9999999999999998
 70
     192
  0
VERTEX
  8
Layer0
10
178.0223820579159
20
148.2274957408582
30
1.9999999999999998
 70
     192
  0
VERTEX
  8
Layer0
10
179.6115682838949
20
146.15642792899254
30
1.9999999999999998
 70
     192
  0
VERTEX
  8
Layer0
10
179.61156828389528
20
136.15642792899266
30
1.9999999999999998
 70
     192
  0
VERTEX
  8
Layer0
10
180.61057250894123
20
143.74461838001795
30
1.9999999999999998
 70
     192
  0
VERTEX
  8
Layer0
10
180.6105725089416
20
138.5682374779676
30
1.9999999999999998
 70
     192
  0
VERTEX
  8
Layer0
10
180.95131424605057
20
141.1564279289926
30
1.9999999999999998
 70
     192
  0
VERTEX
  8
Layer0
10
0.0
 20
 0.0
 30
0.0
 70
     128
 71
-1
 72
2
 73
3
  0
VERTEX
  8
Layer0
10
0.0
 20
 0.0
 30
0.0
 70
     128
 71
-2
 72
-1
 73
4
  0
VERTEX
  8
Layer0
10
0.0
 20
 0.0
 30
0.0
 70
     128
 71
-4
 72
1
 73
-5
  0
VERTEX
  8
Layer0
10
0.0
 20
 0.0
 30
0.0
 70
     128
 71
-4
 72
-5
 73
6
  0
VERTEX
  8
Layer0
10
0.0
 20
 0.0
 30
0.0
 70
     128
 71
-6
 72
5
 73
-7
  0
VERTEX
  8
Layer0
10
0.0
 20
 0.0
 30
0.0
 70
     128
 71
-6
 72
-7
 73
8
  0
VERTEX
  8
Layer0
10
0.0
 20
 0.0
 30
0.0
 70
     128
 71
-8
 72
7
 73
-9
  0
VERTEX
  8
Layer0
10
0.0
 20
 0.0
 30
0.0
 70
     128
 71
-8
 72
-9
 73
10
  0
VERTEX
  8
Layer0
10
0.0
 20
 0.0
 30
0.0
 70
     128
 71
-10
 72
-9
 73
11
  0
VERTEX
  8
Layer0
10
0.0
 20
 0.0
 30
0.0
 70
     128
 71
-11
 72
9
 73
-12
  0
VERTEX
  8
Layer0
10
0.0
 20
 0.0
 30
0.0
 70
     128
 71
-11
 72
-12
 73
13
  0
VERTEX
  8
Layer0
10
0.0
 20
 0.0
 30
0.0
 70
     128
 71
-13
 72
12
 73
-14
  0
VERTEX
  8
Layer0
10
0.0
 20
 0.0
 30
0.0
 70
     128
 71
-13
 72
-14
 73
15
  0
VERTEX
  8
Layer0
10
0.0
 20
 0.0
 30
0.0
 70
     128
 71
-15
 72
-14
 73
16
  0
VERTEX
  8
Layer0
10
0.0
 20
 0.0
 30
0.0
 70
     128
 71
-16
 72
14
 73
-17
  0
VERTEX
  8
Layer0
10
0.0
 20
 0.0
 30
0.0
 70
     128
 71
-16
 72
-17
 73
18
  0
VERTEX
  8
Layer0
10
0.0
 20
 0.0
 30
0.0
 70
     128
 71
-18
 72
17
 73
-19
  0
VERTEX
  8
Layer0
10
0.0
 20
 0.0
 30
0.0
 70
     128
 71
-18
 72
-19
 73
20
  0
VERTEX
  8
Layer0
10
0.0
 20
 0.0
 30
0.0
 70
     128
 71
-20
 72
-19
 73
21
  0
VERTEX
  8
Layer0
10
0.0
 20
 0.0
 30
0.0
 70
     128
 71
-21
 72
19
 73
-22
  0
VERTEX
  8
Layer0
10
0.0
 20
 0.0
 30
0.0
 70
     128
 71
-21
 72
-22
 73
23
  0
VERTEX
  8
Layer0
10
0.0
 20
 0.0
 30
0.0
 70
     128
 71
-23
 72
22
 73
-24
  0
VERTEX
  8
Layer0
10
0.0
 20
 0.0
 30
0.0
 70
     128
 71
-23
 72
24
 73
25
  0
SEQEND
  0
POLYLINE
 8
Layer0
 66
     1
10
0.0
 20
 0.0
 30
0.0
70
    64
71
13
72
   1
  0
VERTEX
  8
Layer0
10
234.88636414549583
20
156.87958825328548
30
3.0060719305028156
 70
     192
  0
VERTEX
  8
Layer0
10
234.85569887075513
20
177.36067778708465
30
3.0060719305028156
 70
     192
  0
VERTEX
  8
Layer0
10
234.85569887075513
20
156.87958825328548
30
3.0060719305028156
 70
     192
  0
VERTEX
  8
Layer0
10
234.8783081937017
20
185.37958485070448
30
2.999999999572276
 70
     192
  0
VERTEX
  8
Layer0
10
293.8556988707547
20
160.87958825328568
30
3.0060719305028156
 70
     192
  0
VERTEX
  8
Layer0
10
279.855698870755
20
186.87958825328553
30
3.0060719305028156
 70
     192
  0
VERTEX
  8
Layer0
10
277.85569887075474
20
160.87958825328568
30
3.0060719305028156
 70
     192
  0
VERTEX
  8
Layer0
10
293.8556988707547
20
186.87958825328553
30
3.0060719305028156
 70
     192
  0
VERTEX
  8
Layer0
10
234.86043044898042
20
206.49348932849168
30
3.0060719305028156
 70
     192
  0
VERTEX
  8
Layer0
10
279.855698870755
20
210.87958825328548
30
3.0060719305028156
 70
     192
  0
VERTEX
  8
Layer0
10
234.85569887075513
20
210.87958825328548
30
3.0060719305028156
 70
     192
  0
VERTEX
  8
Layer0
10
234.86870263212296
20
192.15602490939017
30
3.0060719305028156
 70
     192
  0
VERTEX
  8
Layer0
10
277.85569887075474
20
156.87958825328548
30
3.0060719305028156
 70
     192
  0
VERTEX
  8
Layer0
10
0.0
 20
 0.0
 30
0.0
 70
     128
 71
-1
 72
2
 73
3
  0
VERTEX
  8
Layer0
10
0.0
 20
 0.0
 30
0.0
 70
     128
 71
-2
 72
-1
 73
4
  0
VERTEX
  8
Layer0
10
0.0
 20
 0.0
 30
0.0
 70
     128
 71
-5
 72
-6
 73
7
  0
VERTEX
  8
Layer0
10
0.0
 20
 0.0
 30
0.0
 70
     128
 71
-6
 72
5
 73
8
  0
VERTEX
  8
Layer0
10
0.0
 20
 0.0
 30
0.0
 70
     128
 71
-9
 72
10
 73
11
  0
VERTEX
  8
Layer0
10
0.0
 20
 0.0
 30
0.0
 70
     128
 71
-10
 72
9
 73
-12
  0
VERTEX
  8
Layer0
10
0.0
 20
 0.0
 30
0.0
 70
     128
 71
-10
 72
12
 73
-4
  0
VERTEX
  8
Layer0
10
0.0
 20
 0.0
 30
0.0
 70
     128
 71
-10
 72
-4
 73
-1
  0
VERTEX
  8
Layer0
10
0.0
 20
 0.0
 30
0.0
 70
     128
 71
-10
 72
-1
 73
-7
  0
VERTEX
  8
Layer0
10
0.0
 20
 0.0
 30
0.0
 70
     128
 71
-7
 72
1
 73
13
  0
VERTEX
  8
Layer0
10
0.0
 20
 0.0
 30
0.0
 70
     128
 71
-10
 72
-7
 73
6
  0
SEQEND
  0
POLYLINE
 8
Layer0
 66
     1
10
0.0
 20
 0.0
 30
0.0
70
    64
71
4
72
   1
  0
VERTEX
  8
Layer0
10
164.32114118856057
20
148.56580618474905
30
1.9999999999999998
 70
     192
  0
VERTEX
  8
Layer0
10
165.95131424605037
20
149.81668196683685
30
0.0
 70
     192
  0
VERTEX
  8
Layer0
10
164.32114118856057
20
148.56580618474905
30
0.0
 70
     192
  0
VERTEX
  8
Layer0
10
165.95131424605037
20
149.81668196683685
30
1.9999999999999998
 70
     192
  0
VERTEX
  8
Layer0
10
0.0
 20
 0.0
 30
0.0
 70
     128
 71
-1
 72
2
 73
3
  0
VERTEX
  8
Layer0
10
0.0
 20
 0.0
 30
0.0
 70
     128
 71
-2
 72
1
 73
4
  0
SEQEND
  0
POLYLINE
 8
Layer0
 66
     1
10
0.0
 20
 0.0
 30
0.0
70
    64
71
4
72
   1
  0
VERTEX
  8
Layer0
10
165.95131424605037
20
149.81668196683685
30
1.9999999999999998
 70
     192
  0
VERTEX
  8
Layer0
10
168.36312379502496
20
150.81568619188317
30
0.0
 70
     192
  0
VERTEX
  8
Layer0
10
165.95131424605037
20
149.81668196683685
30
0.0
 70
     192
  0
VERTEX
  8
Layer0
10
168.36312379502496
20
150.81568619188317
30
1.9999999999999998
 70
     192
  0
VERTEX
  8
Layer0
10
0.0
 20
 0.0
 30
0.0
 70
     128
 71
-1
 72
2
 73
3
  0
VERTEX
  8
Layer0
10
0.0
 20
 0.0
 30
0.0
 70
     128
 71
-2
 72
1
 73
4
  0
SEQEND
  0
POLYLINE
 8
Layer0
 66
     1
10
0.0
 20
 0.0
 30
0.0
70
    64
71
4
72
   1
  0
VERTEX
  8
Layer0
10
168.36312379502496
20
150.81568619188317
30
1.9999999999999998
 70
     192
  0
VERTEX
  8
Layer0
10
170.95131424605032
20
151.15642792899249
30
0.0
 70
     192
  0
VERTEX
  8
Layer0
10
168.36312379502496
20
150.81568619188317
30
0.0
 70
     192
  0
VERTEX
  8
Layer0
10
170.95131424605032
20
151.15642792899249
30
1.9999999999999998
 70
     192
  0
VERTEX
  8
Layer0
10
0.0
 20
 0.0
 30
0.0
 70
     128
 71
-1
 72
2
 73
3
  0
VERTEX
  8
Layer0
10
0.0
 20
 0.0
 30
0.0
 70
     128
 71
-2
 72
1
 73
4
  0
SEQEND
  0
POLYLINE
 8
Layer0
 66
     1
10
0.0
 20
 0.0
 30
0.0
70
    64
71
4
72
   1
  0
VERTEX
  8
Layer0
10
170.95131424605032
20
151.15642792899249
30
1.9999999999999998
 70
     192
  0
VERTEX
  8
Layer0
10
173.53950469707564
20
150.81568619188351
30
0.0
 70
     192
  0
VERTEX
  8
Layer0
10
170.95131424605032
20
151.15642792899249
30
0.0
 70
     192
  0
VERTEX
  8
Layer0
10
173.53950469707564
20
150.81568619188351
30
1.9999999999999998
 70
     192
  0
VERTEX
  8
Layer0
10
0.0
 20
 0.0
 30
0.0
 70
     128
 71
-1
 72
2
 73
3
  0
VERTEX
  8
Layer0
10
0.0
 20
 0.0
 30
0.0
 70
     128
 71
-2
 72
1
 73
4
  0
SEQEND
  0
POLYLINE
 8
Layer0
 66
     1
10
0.0
 20
 0.0
 30
0.0
70
    64
71
4
72
   1
  0
VERTEX
  8
Layer0
10
173.53950469707564
20
150.81568619188351
30
1.9999999999999998
 70
     192
  0
VERTEX
  8
Layer0
10
175.95131424605026
20
149.8166819668372
30
0.0
 70
     192
  0
VERTEX
  8
Layer0
10
173.53950469707564
20
150.81568619188351
30
0.0
 70
     192
  0
VERTEX
  8
Layer0
10
175.95131424605026
20
149.8166819668372
30
1.9999999999999998
 70
     192
  0
VERTEX
  8
Layer0
10
0.0
 20
 0.0
 30
0.0
 70
     128
 71
-1
 72
2
 73
3
  0
VERTEX
  8
Layer0
10
0.0
 20
 0.0
 30
0.0
 70
     128
 71
-2
 72
1
 73
4
  0
SEQEND
  0
POLYLINE
 8
Layer0
 66
     1
10
0.0
 20
 0.0
 30
0.0
70
    64
71
4
72
   1
  0
VERTEX
  8
Layer0
10
175.95131424605026
20
149.8166819668372
30
1.9999999999999998
 70
     192
  0
VERTEX
  8
Layer0
10
177.58148730354014
20
148.56580618474905
30
0.0
 70
     192
  0
VERTEX
  8
Layer0
10
175.95131424605026
20
149.8166819668372
30
0.0
 70
     192
  0
VERTEX
  8
Layer0
10
177.58148730354014
20
148.56580618474905
30
1.9999999999999998
 70
     192
  0
VERTEX
  8
Layer0
10
0.0
 20
 0.0
 30
0.0
 70
     128
 71
-1
 72
2
 73
3
  0
VERTEX
  8
Layer0
10
0.0
 20
 0.0
 30
0.0
 70
     128
 71
-2
 72
1
 73
4
  0
SEQEND
  0
POLYLINE
 8
Layer0
 66
     1
10
0.0
 20
 0.0
 30
0.0
70
    64
71
4
72
   1
  0
VERTEX
  8
Layer0
10
177.58148730354014
20
148.56580618474905
30
1.9999999999999998
 70
     192
  0
VERTEX
  8
Layer0
10
178.0223820579159
20
148.2274957408582
30
0.0
 70
     192
  0
VERTEX
  8
Layer0
10
177.58148730354014
20
148.56580618474905
30
0.0
 70
     192
  0
VERTEX
  8
Layer0
10
178.0223820579159
20
148.2274957408582
30
1.9999999999999998
 70
     192
  0
VERTEX
  8
Layer0
10
0.0
 20
 0.0
 30
0.0
 70
     128
 71
-1
 72
2
 73
3
  0
VERTEX
  8
Layer0
10
0.0
 20
 0.0
 30
0.0
 70
     128
 71
-2
 72
1
 73
4
  0
SEQEND
  0
POLYLINE
 8
Layer0
 66
     1
10
0.0
 20
 0.0
 30
0.0
70
    64
71
4
72
   1
  0
VERTEX
  8
Layer0
10
178.0223820579159
20
148.2274957408582
30
0.0
 70
     192
  0
VERTEX
  8
Layer0
10
179.6115682838949
20
146.15642792899254
30
1.9999999999999998
 70
     192
  0
VERTEX
  8
Layer0
10
179.6115682838949
20
146.15642792899254
30
0.0
 70
     192
  0
VERTEX
  8
Layer0
10
178.0223820579159
20
148.2274957408582
30
1.9999999999999998
 70
     192
  0
VERTEX
  8
Layer0
10
0.0
 20
 0.0
 30
0.0
 70
     128
 71
-1
 72
2
 73
3
  0
VERTEX
  8
Layer0
10
0.0
 20
 0.0
 30
0.0
 70
     128
 71
-2
 72
1
 73
4
  0
SEQEND
  0
POLYLINE
 8
Layer0
 66
     1
10
0.0
 20
 0.0
 30
0.0
70
    64
71
4
72
   1
  0
VERTEX
  8
Layer0
10
179.6115682838949
20
146.15642792899254
30
0.0
 70
     192
  0
VERTEX
  8
Layer0
10
180.61057250894123
20
143.74461838001795
30
1.9999999999999998
 70
     192
  0
VERTEX
  8
Layer0
10
180.61057250894123
20
143.74461838001795
30
0.0
 70
     192
  0
VERTEX
  8
Layer0
10
179.6115682838949
20
146.15642792899254
30
1.9999999999999998
 70
     192
  0
VERTEX
  8
Layer0
10
0.0
 20
 0.0
 30
0.0
 70
     128
 71
-1
 72
2
 73
3
  0
VERTEX
  8
Layer0
10
0.0
 20
 0.0
 30
0.0
 70
     128
 71
-2
 72
1
 73
4
  0
SEQEND
  0
POLYLINE
 8
Layer0
 66
     1
10
0.0
 20
 0.0
 30
0.0
70
    64
71
4
72
   1
  0
VERTEX
  8
Layer0
10
180.61057250894123
20
143.74461838001795
30
0.0
 70
     192
  0
VERTEX
  8
Layer0
10
180.95131424605057
20
141.1564279289926
30
1.9999999999999998
 70
     192
  0
VERTEX
  8
Layer0
10
180.95131424605057
20
141.1564279289926
30
0.0
 70
     192
  0
VERTEX
  8
Layer0
10
180.61057250894123
20
143.74461838001795
30
1.9999999999999998
 70
     192
  0
VERTEX
  8
Layer0
10
0.0
 20
 0.0
 30
0.0
 70
     128
 71
-1
 72
2
 73
3
  0
VERTEX
  8
Layer0
10
0.0
 20
 0.0
 30
0.0
 70
     128
 71
-2
 72
1
 73
4
  0
SEQEND
  0
POLYLINE
 8
Layer0
 66
     1
10
0.0
 20
 0.0
 30
0.0
70
    64
71
4
72
   1
  0
VERTEX
  8
Layer0
10
180.95131424605057
20
141.1564279289926
30
0.0
 70
     192
  0
VERTEX
  8
Layer0
10
180.6105725089416
20
138.5682374779676
30
1.9999999999999998
 70
     192
  0
VERTEX
  8
Layer0
10
180.6105725089416
20
138.5682374779676
30
0.0
 70
     192
  0
VERTEX
  8
Layer0
10
180.95131424605057
20
141.1564279289926
30
1.9999999999999998
 70
     192
  0
VERTEX
  8
Layer0
10
0.0
 20
 0.0
 30
0.0
 70
     128
 71
-1
 72
2
 73
3
  0
VERTEX
  8
Layer0
10
0.0
 20
 0.0
 30
0.0
 70
     128
 71
-2
 72
1
 73
4
  0
SEQEND
  0
POLYLINE
 8
Layer0
 66
     1
10
0.0
 20
 0.0
 30
0.0
70
    64
71
4
72
   1
  0
VERTEX
  8
Layer0
10
180.6105725089416
20
138.5682374779676
30
0.0
 70
     192
  0
VERTEX
  8
Layer0
10
179.61156828389528
20
136.15642792899266
30
1.9999999999999998
 70
     192
  0
VERTEX
  8
Layer0
10
179.61156828389528
20
136.15642792899266
30
0.0
 70
     192
  0
VERTEX
  8
Layer0
10
180.6105725089416
20
138.5682374779676
30
1.9999999999999998
 70
     192
  0
VERTEX
  8
Layer0
10
0.0
 20
 0.0
 30
0.0
 70
     128
 71
-1
 72
2
 73
3
  0
VERTEX
  8
Layer0
10
0.0
 20
 0.0
 30
0.0
 70
     128
 71
-2
 72
1
 73
4
  0
SEQEND
  0
POLYLINE
 8
Layer0
 66
     1
10
0.0
 20
 0.0
 30
0.0
70
    64
71
4
72
   1
  0
VERTEX
  8
Layer0
10
179.61156828389528
20
136.15642792899266
30
0.0
 70
     192
  0
VERTEX
  8
Layer0
10
178.02238205791625
20
134.085360117127
30
1.9999999999999998
 70
     192
  0
VERTEX
  8
Layer0
10
178.02238205791625
20
134.085360117127
30
0.0
 70
     192
  0
VERTEX
  8
Layer0
10
179.61156828389528
20
136.15642792899266
30
1.9999999999999998
 70
     192
  0
VERTEX
  8
Layer0
10
0.0
 20
 0.0
 30
0.0
 70
     128
 71
-1
 72
2
 73
3
  0
VERTEX
  8
Layer0
10
0.0
 20
 0.0
 30
0.0
 70
     128
 71
-2
 72
1
 73
4
  0
SEQEND
  0
POLYLINE
 8
Layer0
 66
     1
10
0.0
 20
 0.0
 30
0.0
70
    64
71
4
72
   1
  0
VERTEX
  8
Layer0
10
178.02238205791625
20
134.085360117127
30
1.9999999999999998
 70
     192
  0
VERTEX
  8
Layer0
10
175.95131424605063
20
132.49617389114835
30
0.0
 70
     192
  0
VERTEX
  8
Layer0
10
178.02238205791625
20
134.085360117127
30
0.0
 70
     192
  0
VERTEX
  8
Layer0
10
175.95131424605063
20
132.49617389114835
30
1.9999999999999998
 70
     192
  0
VERTEX
  8
Layer0
10
0.0
 20
 0.0
 30
0.0
 70
     128
 71
-1
 72
2
 73
3
  0
VERTEX
  8
Layer0
10
0.0
 20
 0.0
 30
0.0
 70
     128
 71
-2
 72
1
 73
4
  0
SEQEND
  0
POLYLINE
 8
Layer0
 66
     1
10
0.0
 20
 0.0
 30
0.0
70
    64
71
4
72
   1
  0
VERTEX
  8
Layer0
10
234.85569887075513
20
177.36067778708465
30
3.0060719305028156
 70
     192
  0
VERTEX
  8
Layer0
10
234.87835847646744
20
185.37957868720417
30
0.0
 70
     192
  0
VERTEX
  8
Layer0
10
234.85574915352086
20
177.36067162358432
30
0.0060719309305396815
 70
     192
  0
VERTEX
  8
Layer0
10
234.8783081937017
20
185.37958485070448
30
2.999999999572276
 70
     192
  0
VERTEX
  8
Layer0
10
0.0
 20
 0.0
 30
0.0
 70
     128
 71
-1
 72
2
 73
3
  0
VERTEX
  8
Layer0
10
0.0
 20
 0.0
 30
0.0
 70
     128
 71
-2
 72
1
 73
4
  0
SEQEND
  0
POLYLINE
 8
Layer0
 66
     1
10
0.0
 20
 0.0
 30
0.0
70
    64
71
4
72
   1
  0
VERTEX
  8
Layer0
10
234.8783081937017
20
185.37958485070448
30
2.999999999572276
 70
     192
  0
VERTEX
  8
Layer0
10
234.8687529148887
20
192.15601874588987
30
0.0060719309305396815
 70
     192
  0
VERTEX
  8
Layer0
10
234.87835847646744
20
185.37957868720417
30
0.0
 70
     192
  0
VERTEX
  8
Layer0
10
234.86870263212296
20
192.15602490939017
30
3.0060719305028156
 70
     192
  0
VERTEX
  8
Layer0
10
0.0
 20
 0.0
 30
0.0
 70
     128
 71
-1
 72
2
 73
3
  0
VERTEX
  8
Layer0
10
0.0
 20
 0.0
 30
0.0
 70
     128
 71
-2
 72
1
 73
4
  0
SEQEND
  0
POLYLINE
 8
Layer0
 66
     1
10
0.0
 20
 0.0
 30
0.0
70
    64
71
4
72
   1
  0
VERTEX
  8
Layer0
10
234.86870263212296
20
192.15602490939017
30
3.0060719305028156
 70
     192
  0
VERTEX
  8
Layer0
10
234.86048073174615
20
206.49348316499137
30
0.0060719309305396815
 70
     192
  0
VERTEX
  8
Layer0
10
234.8687529148887
20
192.15601874588987
30
0.0060719309305396815
 70
     192
  0
VERTEX
  8
Layer0
10
234.86043044898042
20
206.49348932849168
30
3.0060719305028156
 70
     192
  0
VERTEX
  8
Layer0
10
0.0
 20
 0.0
 30
0.0
 70
     128
 71
-1
 72
2
 73
3
  0
VERTEX
  8
Layer0
10
0.0
 20
 0.0
 30
0.0
 70
     128
 71
-2
 72
1
 73
4
  0
SEQEND
  0
POLYLINE
 8
Layer0
 66
     1
10
0.0
 20
 0.0
 30
0.0
70
    64
71
4
72
   1
  0
VERTEX
  8
Layer0
10
234.86043044898042
20
206.49348932849168
30
3.0060719305028156
 70
     192
  0
VERTEX
  8
Layer0
10
234.85574915352086
20
210.87958208978517
30
0.0060719309305396815
 70
     192
  0
VERTEX
  8
Layer0
10
234.86048073174615
20
206.49348316499137
30
0.0060719309305396815
 70
     192
  0
VERTEX
  8
Layer0
10
234.85569887075513
20
210.87958825328548
30
3.0060719305028156
 70
     192
  0
VERTEX
  8
Layer0
10
0.0
 20
 0.0
 30
0.0
 70
     128
 71
-1
 72
2
 73
3
  0
VERTEX
  8
Layer0
10
0.0
 20
 0.0
 30
0.0
 70
     128
 71
-2
 72
1
 73
4
  0
SEQEND
  0
POLYLINE
 8
Layer0
 66
     1
10
0.0
 20
 0.0
 30
0.0
70
    64
71
4
72
   1
  0
VERTEX
  8
Layer0
10
234.85569887075513
20
210.87958825328548
30
3.0060719305028156
 70
     192
  0
VERTEX
  8
Layer0
10
279.8557491535207
20
210.87958208978517
30
0.0060719309305396815
 70
     192
  0
VERTEX
  8
Layer0
10
234.85574915352086
20
210.87958208978517
30
0.0060719309305396815
 70
     192
  0
VERTEX
  8
Layer0
10
279.855698870755
20
210.87958825328548
30
3.0060719305028156
 70
     192
  0
VERTEX
  8
Layer0
10
0.0
 20
 0.0
 30
0.0
 70
     128
 71
-1
 72
2
 73
3
  0
VERTEX
  8
Layer0
10
0.0
 20
 0.0
 30
0.0
 70
     128
 71
-2
 72
1
 73
4
  0
SEQEND
  0
POLYLINE
 8
Layer0
 66
     1
10
0.0
 20
 0.0
 30
0.0
70
    64
71
4
72
   1
  0
VERTEX
  8
Layer0
10
279.8557491535207
20
210.87958208978517
30
0.0060719309305396815
 70
     192
  0
VERTEX
  8
Layer0
10
279.855698870755
20
186.87958825328553
30
3.0060719305028156
 70
     192
  0
VERTEX
  8
Layer0
10
279.8557491535207
20
186.87958208978523
30
0.0060719309305396815
 70
     192
  0
VERTEX
  8
Layer0
10
279.855698870755
20
210.87958825328548
30
3.0060719305028156
 70
     192
  0
VERTEX
  8
Layer0
10
0.0
 20
 0.0
 30
0.0
 70
     128
 71
-1
 72
2
 73
3
  0
VERTEX
  8
Layer0
10
0.0
 20
 0.0
 30
0.0
 70
     128
 71
-2
 72
1
 73
4
  0
SEQEND
  0
POLYLINE
 8
Layer0
 66
     1
10
0.0
 20
 0.0
 30
0.0
70
    64
71
4
72
   1
  0
VERTEX
  8
Layer0
10
279.855698870755
20
186.87958825328553
30
3.0060719305028156
 70
     192
  0
VERTEX
  8
Layer0
10
293.85574915352043
20
186.87958208978523
30
0.0060719309305396815
 70
     192
  0
VERTEX
  8
Layer0
10
279.8557491535207
20
186.87958208978523
30
0.0060719309305396815
 70
     192
  0
VERTEX
  8
Layer0
10
293.8556988707547
20
186.87958825328553
30
3.0060719305028156
 70
     192
  0
VERTEX
  8
Layer0
10
0.0
 20
 0.0
 30
0.0
 70
     128
 71
-1
 72
2
 73
3
  0
VERTEX
  8
Layer0
10
0.0
 20
 0.0
 30
0.0
 70
     128
 71
-2
 72
1
 73
4
  0
SEQEND
  0
POLYLINE
 8
Layer0
 66
     1
10
0.0
 20
 0.0
 30
0.0
70
    64
71
4
72
   1
  0
VERTEX
  8
Layer0
10
293.85574915352043
20
186.87958208978523
30
0.0060719309305396815
 70
     192
  0
VERTEX
  8
Layer0
10
293.8556988707547
20
160.87958825328568
30
3.0060719305028156
 70
     192
  0
VERTEX
  8
Layer0
10
293.85574915352043
20
160.87958208978534
30
0.0060719309305396815
 70
     192
  0
VERTEX
  8
Layer0
10
293.8556988707547
20
186.87958825328553
30
3.0060719305028156
 70
     192
  0
VERTEX
  8
Layer0
10
0.0
 20
 0.0
 30
0.0
 70
     128
 71
-1
 72
2
 73
3
  0
VERTEX
  8
Layer0
10
0.0
 20
 0.0
 30
0.0
 70
     128
 71
-2
 72
1
 73
4
  0
SEQEND
  0
POLYLINE
 8
Layer0
 66
     1
10
0.0
 20
 0.0
 30
0.0
70
    64
71
4
72
   1
  0
VERTEX
  8
Layer0
10
293.8556988707547
20
160.87958825328568
30
3.0060719305028156
 70
     192
  0
VERTEX
  8
Layer0
10
277.85574915352043
20
160.87958208978534
30
0.0060719309305396815
 70
     192
  0
VERTEX
  8
Layer0
10
293.85574915352043
20
160.87958208978534
30
0.0060719309305396815
 70
     192
  0
VERTEX
  8
Layer0
10
277.85569887075474
20
160.87958825328568
30
3.0060719305028156
 70
     192
  0
VERTEX
  8
Layer0
10
0.0
 20
 0.0
 30
0.0
 70
     128
 71
-1
 72
2
 73
3
  0
VERTEX
  8
Layer0
10
0.0
 20
 0.0
 30
0.0
 70
     128
 71
-2
 72
1
 73
4
  0
SEQEND
  0
POLYLINE
 8
Layer0
 66
     1
10
0.0
 20
 0.0
 30
0.0
70
    64
71
4
72
   1
  0
VERTEX
  8
Layer0
10
277.85574915352043
20
160.87958208978534
30
0.0060719309305396815
 70
     192
  0
VERTEX
  8
Layer0
10
277.85569887075474
20
156.87958825328548
30
3.0060719305028156
 70
     192
  0
VERTEX
  8
Layer0
10
277.85574915352043
20
156.87958208978517
30
0.0060719309305396815
 70
     192
  0
VERTEX
  8
Layer0
10
277.85569887075474
20
160.87958825328568
30
3.0060719305028156
 70
     192
  0
VERTEX
  8
Layer0
10
0.0
 20
 0.0
 30
0.0
 70
     128
 71
-1
 72
2
 73
3
  0
VERTEX
  8
Layer0
10
0.0
 20
 0.0
 30
0.0
 70
     128
 71
-2
 72
1
 73
4
  0
SEQEND
  0
POLYLINE
 8
Layer0
 66
     1
10
0.0
 20
 0.0
 30
0.0
70
    64
71
4
72
   1
  0
VERTEX
  8
Layer0
10
277.85569887075474
20
156.87958825328548
30
3.0060719305028156
 70
     192
  0
VERTEX
  8
Layer0
10
234.88641442826156
20
156.87958208978517
30
0.0060719309305396815
 70
     192
  0
VERTEX
  8
Layer0
10
277.85574915352043
20
156.87958208978517
30
0.0060719309305396815
 70
     192
  0
VERTEX
  8
Layer0
10
234.88636414549583
20
156.87958825328548
30
3.0060719305028156
 70
     192
  0
VERTEX
  8
Layer0
10
0.0
 20
 0.0
 30
0.0
 70
     128
 71
-1
 72
2
 73
3
  0
VERTEX
  8
Layer0
10
0.0
 20
 0.0
 30
0.0
 70
     128
 71
-2
 72
1
 73
4
  0
SEQEND
  0
POLYLINE
 8
Layer0
 66
     1
10
0.0
 20
 0.0
 30
0.0
70
    64
71
4
72
   1
  0
VERTEX
  8
Layer0
10
234.88636414549583
20
156.87958825328548
30
3.0060719305028156
 70
     192
  0
VERTEX
  8
Layer0
10
234.85574915352086
20
156.87958208978517
30
0.0060719309305396815
 70
     192
  0
VERTEX
  8
Layer0
10
234.88641442826156
20
156.87958208978517
30
0.0060719309305396815
 70
     192
  0
VERTEX
  8
Layer0
10
234.85569887075513
20
156.87958825328548
30
3.0060719305028156
 70
     192
  0
VERTEX
  8
Layer0
10
0.0
 20
 0.0
 30
0.0
 70
     128
 71
-1
 72
2
 73
3
  0
VERTEX
  8
Layer0
10
0.0
 20
 0.0
 30
0.0
 70
     128
 71
-2
 72
1
 73
4
  0
SEQEND
  0
POLYLINE
 8
Layer0
 66
     1
10
0.0
 20
 0.0
 30
0.0
70
    64
71
4
72
   1
  0
VERTEX
  8
Layer0
10
234.85569887075513
20
156.87958825328548
30
3.0060719305028156
 70
     192
  0
VERTEX
  8
Layer0
10
234.85574915352086
20
177.36067162358432
30
0.0060719309305396815
 70
     192
  0
VERTEX
  8
Layer0
10
234.85574915352086
20
156.87958208978517
30
0.0060719309305396815
 70
     192
  0
VERTEX
  8
Layer0
10
234.85569887075513
20
177.36067778708465
30
3.0060719305028156
 70
     192
  0
VERTEX
  8
Layer0
10
0.0
 20
 0.0
 30
0.0
 70
     128
 71
-1
 72
2
 73
3
  0
VERTEX
  8
Layer0
10
0.0
 20
 0.0
 30
0.0
 70
     128
 71
-2
 72
1
 73
4
  0
SEQEND
  0
POLYLINE
 8
Layer0
 66
     1
10
0.0
 20
 0.0
 30
0.0
70
    64
71
13
72
   1
  0
VERTEX
  8
Layer0
10
234.87835847646744
20
185.37957868720417
30
0.0
 70
     192
  0
VERTEX
  8
Layer0
10
234.85574915352086
20
156.87958208978517
30
0.0060719309305396815
 70
     192
  0
VERTEX
  8
Layer0
10
234.85574915352086
20
177.36067162358432
30
0.0060719309305396815
 70
     192
  0
VERTEX
  8
Layer0
10
234.88641442826156
20
156.87958208978517
30
0.0060719309305396815
 70
     192
  0
VERTEX
  8
Layer0
10
279.8557491535207
20
210.87958208978517
30
0.0060719309305396815
 70
     192
  0
VERTEX
  8
Layer0
10
234.86048073174615
20
206.49348316499137
30
0.0060719309305396815
 70
     192
  0
VERTEX
  8
Layer0
10
234.85574915352086
20
210.87958208978517
30
0.0060719309305396815
 70
     192
  0
VERTEX
  8
Layer0
10
234.8687529148887
20
192.15601874588987
30
0.0060719309305396815
 70
     192
  0
VERTEX
  8
Layer0
10
277.85574915352043
20
160.87958208978534
30
0.0060719309305396815
 70
     192
  0
VERTEX
  8
Layer0
10
279.8557491535207
20
186.87958208978523
30
0.0060719309305396815
 70
     192
  0
VERTEX
  8
Layer0
10
293.85574915352043
20
160.87958208978534
30
0.0060719309305396815
 70
     192
  0
VERTEX
  8
Layer0
10
293.85574915352043
20
186.87958208978523
30
0.0060719309305396815
 70
     192
  0
VERTEX
  8
Layer0
10
277.85574915352043
20
156.87958208978517
30
0.0060719309305396815
 70
     192
  0
VERTEX
  8
Layer0
10
0.0
 20
 0.0
 30
0.0
 70
     128
 71
-1
 72
2
 73
3
  0
VERTEX
  8
Layer0
10
0.0
 20
 0.0
 30
0.0
 70
     128
 71
-2
 72
-1
 73
4
  0
VERTEX
  8
Layer0
10
0.0
 20
 0.0
 30
0.0
 70
     128
 71
-5
 72
6
 73
7
  0
VERTEX
  8
Layer0
10
0.0
 20
 0.0
 30
0.0
 70
     128
 71
-6
 72
-5
 73
8
  0
VERTEX
  8
Layer0
10
0.0
 20
 0.0
 30
0.0
 70
     128
 71
-8
 72
-5
 73
1
  0
VERTEX
  8
Layer0
10
0.0
 20
 0.0
 30
0.0
 70
     128
 71
-1
 72
-5
 73
-4
  0
VERTEX
  8
Layer0
10
0.0
 20
 0.0
 30
0.0
 70
     128
 71
-4
 72
-5
 73
-9
  0
VERTEX
  8
Layer0
10
0.0
 20
 0.0
 30
0.0
 70
     128
 71
-9
 72
5
 73
-10
  0
VERTEX
  8
Layer0
10
0.0
 20
 0.0
 30
0.0
 70
     128
 71
-9
 72
-10
 73
11
  0
VERTEX
  8
Layer0
10
0.0
 20
 0.0
 30
0.0
 70
     128
 71
-11
 72
10
 73
12
  0
VERTEX
  8
Layer0
10
0.0
 20
 0.0
 30
0.0
 70
     128
 71
13
 72
-4
 73
9
  0
SEQEND
  0
POLYLINE
 8
Layer0
 66
     1
10
0.0
 20
 0.0
 30
0.0
70
    64
71
4
72
   1
  0
VERTEX
  8
Layer0
10
36.546536375552954
20
295.13977664979467
30
4.010180999999992
 70
     192
  0
VERTEX
  8
Layer0
10
39.32554553274439
20
295.13977664979467
30
1.9999999999999907
 70
     192
  0
VERTEX
  8
Layer0
10
36.546536375552954
20
295.13977664979467
30
1.9999999999999907
 70
     192
  0
VERTEX
  8
Layer0
10
39.32554553274439
20
295.13977664979467
30
4.010180999999992
 70
     192
  0
VERTEX
  8
Layer0
10
0.0
 20
 0.0
 30
0.0
 70
     128
 71
-1
 72
2
 73
3
  0
VERTEX
  8
Layer0
10
0.0
 20
 0.0
 30
0.0
 70
     128
 71
-2
 72
1
 73
4
  0
SEQEND
  0
POLYLINE
 8
Layer0
 66
     1
10
0.0
 20
 0.0
 30
0.0
70
    64
71
6
72
   1
  0
VERTEX
  8
Layer0
10
205.59395556814303
20
200.3464290235826
30
5.1
 70
     192
  0
VERTEX
  8
Layer0
10
176.03337437244224
20
214.84642902358263
30
5.1
 70
     192
  0
VERTEX
  8
Layer0
10
176.03337437244224
20
200.3464290235826
30
5.1
 70
     192
  0
VERTEX
  8
Layer0
10
217.5334009344662
20
214.84642902358263
30
5.1
 70
     192
  0
VERTEX
  8
Layer0
10
208.37296472533447
20
200.3464290235826
30
5.1
 70
     192
  0
VERTEX
  8
Layer0
10
217.5334009344662
20
200.3464290235826
30
5.1
 70
     192
  0
VERTEX
  8
Layer0
10
0.0
 20
 0.0
 30
0.0
 70
     128
 71
-1
 72
2
 73
3
  0
VERTEX
  8
Layer0
10
0.0
 20
 0.0
 30
0.0
 70
     128
 71
-2
 72
-1
 73
4
  0
VERTEX
  8
Layer0
10
0.0
 20
 0.0
 30
0.0
 70
     128
 71
-4
 72
1
 73
-5
  0
VERTEX
  8
Layer0
10
0.0
 20
 0.0
 30
0.0
 70
     128
 71
-4
 72
5
 73
6
  0
SEQEND
  0
POLYLINE
 8
Layer0
 66
     1
10
0.0
 20
 0.0
 30
0.0
70
    64
71
4
72
   1
  0
VERTEX
  8
Layer0
10
39.32554553274439
20
295.13977664979467
30
1.9999999999999907
 70
     192
  0
VERTEX
  8
Layer0
10
39.32554553274439
20
288.3329425982673
30
4.010180999999992
 70
     192
  0
VERTEX
  8
Layer0
10
39.32554553274439
20
288.3329425982673
30
1.9999999999999907
 70
     192
  0
VERTEX
  8
Layer0
10
39.32554553274439
20
295.13977664979467
30
4.010180999999992
 70
     192
  0
VERTEX
  8
Layer0
10
0.0
 20
 0.0
 30
0.0
 70
     128
 71
-1
 72
2
 73
3
  0
VERTEX
  8
Layer0
10
0.0
 20
 0.0
 30
0.0
 70
     128
 71
-2
 72
1
 73
4
  0
SEQEND
  0
POLYLINE
 8
Layer0
 66
     1
10
0.0
 20
 0.0
 30
0.0
70
    64
71
9
72
   1
  0
VERTEX
  8
Layer0
10
39.32554553274439
20
295.13977664979467
30
1.9999999999999907
 70
     192
  0
VERTEX
  8
Layer0
10
36.546562936948824
20
284.3257372996591
30
1.9999999999999907
 70
     192
  0
VERTEX
  8
Layer0
10
36.546536375552954
20
295.13977664979467
30
1.9999999999999907
 70
     192
  0
VERTEX
  8
Layer0
10
31.380439830222546
20
269.8728428592144
30
1.999999999999968
 70
     192
  0
VERTEX
  8
Layer0
10
31.380439830222546
20
284.3257396572037
30
1.999999999999968
 70
     192
  0
VERTEX
  8
Layer0
10
33.61753061588424
20
269.8728428592144
30
1.9999999999999907
 70
     192
  0
VERTEX
  8
Layer0
10
87.5306123919901
20
267.98209333039273
30
1.9999999999999907
 70
     192
  0
VERTEX
  8
Layer0
10
39.32554553274439
20
288.3329425982673
30
1.9999999999999907
 70
     192
  0
VERTEX
  8
Layer0
10
56.499460301075885
20
287.69046803848124
30
1.9999999999999907
 70
     192
  0
VERTEX
  8
Layer0
10
0.0
 20
 0.0
 30
0.0
 70
     128
 71
-1
 72
2
 73
3
  0
VERTEX
  8
Layer0
10
0.0
 20
 0.0
 30
0.0
 70
     128
 71
-2
 72
4
 73
5
  0
VERTEX
  8
Layer0
10
0.0
 20
 0.0
 30
0.0
 70
     128
 71
-4
 72
-2
 73
6
  0
VERTEX
  8
Layer0
10
0.0
 20
 0.0
 30
0.0
 70
     128
 71
-6
 72
-2
 73
7
  0
VERTEX
  8
Layer0
10
0.0
 20
 0.0
 30
0.0
 70
     128
 71
-7
 72
-2
 73
-8
  0
VERTEX
  8
Layer0
10
0.0
 20
 0.0
 30
0.0
 70
     128
 71
-8
 72
-2
 73
1
  0
VERTEX
  8
Layer0
10
0.0
 20
 0.0
 30
0.0
 70
     128
 71
-7
 72
8
 73
9
  0
SEQEND
  0
POLYLINE
 8
Layer0
 66
     1
10
0.0
 20
 0.0
 30
0.0
70
    64
71
4
72
   1
  0
VERTEX
  8
Layer0
10
39.32554553274439
20
288.3329425982673
30
4.010180999999992
 70
     192
  0
VERTEX
  8
Layer0
10
56.499460301075885
20
287.69046803848124
30
1.9999999999999907
 70
     192
  0
VERTEX
  8
Layer0
10
39.32554553274439
20
288.3329425982673
30
1.9999999999999907
 70
     192
  0
VERTEX
  8
Layer0
10
56.499460301075885
20
287.69046803848124
30
4.010180999999992
 70
     192
  0
VERTEX
  8
Layer0
10
0.0
 20
 0.0
 30
0.0
 70
     128
 71
-1
 72
2
 73
3
  0
VERTEX
  8
Layer0
10
0.0
 20
 0.0
 30
0.0
 70
     128
 71
-2
 72
1
 73
4
  0
SEQEND
  0
POLYLINE
 8
Layer0
 66
     1
10
0.0
 20
 0.0
 30
0.0
70
    64
71
4
72
   1
  0
VERTEX
  8
Layer0
10
56.499460301075885
20
287.69046803848124
30
4.010180999999992
 70
     192
  0
VERTEX
  8
Layer0
10
87.5306123919901
20
267.98209333039273
30
1.9999999999999907
 70
     192
  0
VERTEX
  8
Layer0
10
56.499460301075885
20
287.69046803848124
30
1.9999999999999907
 70
     192
  0
VERTEX
  8
Layer0
10
87.5306123919901
20
267.98209333039273
30
4.010180999999992
 70
     192
  0
VERTEX
  8
Layer0
10
0.0
 20
 0.0
 30
0.0
 70
     128
 71
-1
 72
2
 73
3
  0
VERTEX
  8
Layer0
10
0.0
 20
 0.0
 30
0.0
 70
     128
 71
-2
 72
1
 73
4
  0
SEQEND
  0
POLYLINE
 8
Layer0
 66
     1
10
0.0
 20
 0.0
 30
0.0
70
    64
71
4
72
   1
  0
VERTEX
  8
Layer0
10
176.03337437244224
20
214.84642902358263
30
5.1
 70
     192
  0
VERTEX
  8
Layer0
10
176.03337437244224
20
200.3464290235826
30
3.1
 70
     192
  0
VERTEX
  8
Layer0
10
176.03337437244224
20
200.3464290235826
30
5.1
 70
     192
  0
VERTEX
  8
Layer0
10
176.03337437244224
20
214.84642902358263
30
3.1
 70
     192
  0
VERTEX
  8
Layer0
10
0.0
 20
 0.0
 30
0.0
 70
     128
 71
-1
 72
2
 73
3
  0
VERTEX
  8
Layer0
10
0.0
 20
 0.0
 30
0.0
 70
     128
 71
-2
 72
1
 73
4
  0
SEQEND
  0
POLYLINE
 8
Layer0
 66
     1
10
0.0
 20
 0.0
 30
0.0
70
    64
71
4
72
   1
  0
VERTEX
  8
Layer0
10
176.03337437244224
20
214.84642902358263
30
5.1
 70
     192
  0
VERTEX
  8
Layer0
10
217.5334009344662
20
214.84642902358263
30
3.1
 70
     192
  0
VERTEX
  8
Layer0
10
176.03337437244224
20
214.84642902358263
30
3.1
 70
     192
  0
VERTEX
  8
Layer0
10
217.5334009344662
20
214.84642902358263
30
5.1
 70
     192
  0
VERTEX
  8
Layer0
10
0.0
 20
 0.0
 30
0.0
 70
     128
 71
-1
 72
2
 73
3
  0
VERTEX
  8
Layer0
10
0.0
 20
 0.0
 30
0.0
 70
     128
 71
-2
 72
1
 73
4
  0
SEQEND
  0
POLYLINE
 8
Layer0
 66
     1
10
0.0
 20
 0.0
 30
0.0
70
    64
71
4
72
   1
  0
VERTEX
  8
Layer0
10
217.5334009344662
20
214.84642902358263
30
3.1
 70
     192
  0
VERTEX
  8
Layer0
10
217.5334009344662
20
200.3464290235826
30
5.1
 70
     192
  0
VERTEX
  8
Layer0
10
217.5334009344662
20
200.3464290235826
30
3.1
 70
     192
  0
VERTEX
  8
Layer0
10
217.5334009344662
20
214.84642902358263
30
5.1
 70
     192
  0
VERTEX
  8
Layer0
10
0.0
 20
 0.0
 30
0.0
 70
     128
 71
-1
 72
2
 73
3
  0
VERTEX
  8
Layer0
10
0.0
 20
 0.0
 30
0.0
 70
     128
 71
-2
 72
1
 73
4
  0
SEQEND
  0
POLYLINE
 8
Layer0
 66
     1
10
0.0
 20
 0.0
 30
0.0
70
    64
71
4
72
   1
  0
VERTEX
  8
Layer0
10
217.5334009344662
20
200.3464290235826
30
5.1
 70
     192
  0
VERTEX
  8
Layer0
10
208.37296472533447
20
200.3464290235826
30
3.1
 70
     192
  0
VERTEX
  8
Layer0
10
217.5334009344662
20
200.3464290235826
30
3.1
 70
     192
  0
VERTEX
  8
Layer0
10
208.37296472533447
20
200.3464290235826
30
5.1
 70
     192
  0
VERTEX
  8
Layer0
10
0.0
 20
 0.0
 30
0.0
 70
     128
 71
-1
 72
2
 73
3
  0
VERTEX
  8
Layer0
10
0.0
 20
 0.0
 30
0.0
 70
     128
 71
-2
 72
1
 73
4
  0
SEQEND
  0
POLYLINE
 8
Layer0
 66
     1
10
0.0
 20
 0.0
 30
0.0
70
    64
71
4
72
   1
  0
VERTEX
  8
Layer0
10
208.37296472533447
20
200.3464290235826
30
5.1
 70
     192
  0
VERTEX
  8
Layer0
10
205.59395556814303
20
200.3464290235826
30
3.1
 70
     192
  0
VERTEX
  8
Layer0
10
208.37296472533447
20
200.3464290235826
30
3.1
 70
     192
  0
VERTEX
  8
Layer0
10
205.59395556814303
20
200.3464290235826
30
5.1
 70
     192
  0
VERTEX
  8
Layer0
10
0.0
 20
 0.0
 30
0.0
 70
     128
 71
-1
 72
2
 73
3
  0
VERTEX
  8
Layer0
10
0.0
 20
 0.0
 30
0.0
 70
     128
 71
-2
 72
1
 73
4
  0
SEQEND
  0
POLYLINE
 8
Layer0
 66
     1
10
0.0
 20
 0.0
 30
0.0
70
    64
71
4
72
   1
  0
VERTEX
  8
Layer0
10
205.59395556814303
20
200.3464290235826
30
5.1
 70
     192
  0
VERTEX
  8
Layer0
10
176.03337437244224
20
200.3464290235826
30
3.1
 70
     192
  0
VERTEX
  8
Layer0
10
205.59395556814303
20
200.3464290235826
30
3.1
 70
     192
  0
VERTEX
  8
Layer0
10
176.03337437244224
20
200.3464290235826
30
5.1
 70
     192
  0
VERTEX
  8
Layer0
10
0.0
 20
 0.0
 30
0.0
 70
     128
 71
-1
 72
2
 73
3
  0
VERTEX
  8
Layer0
10
0.0
 20
 0.0
 30
0.0
 70
     128
 71
-2
 72
1
 73
4
  0
SEQEND
  0
POLYLINE
 8
Layer0
 66
     1
10
0.0
 20
 0.0
 30
0.0
70
    64
71
6
72
   1
  0
VERTEX
  8
Layer0
10
217.5334009344662
20
214.84642902358263
30
3.1
 70
     192
  0
VERTEX
  8
Layer0
10
176.03337437244224
20
200.3464290235826
30
3.1
 70
     192
  0
VERTEX
  8
Layer0
10
176.03337437244224
20
214.84642902358263
30
3.1
 70
     192
  0
VERTEX
  8
Layer0
10
205.59395556814303
20
200.3464290235826
30
3.1
 70
     192
  0
VERTEX
  8
Layer0
10
208.37296472533447
20
200.3464290235826
30
3.1
 70
     192
  0
VERTEX
  8
Layer0
10
217.5334009344662
20
200.3464290235826
30
3.1
 70
     192
  0
VERTEX
  8
Layer0
10
0.0
 20
 0.0
 30
0.0
 70
     128
 71
-1
 72
2
 73
3
  0
VERTEX
  8
Layer0
10
0.0
 20
 0.0
 30
0.0
 70
     128
 71
-2
 72
-1
 73
4
  0
VERTEX
  8
Layer0
10
0.0
 20
 0.0
 30
0.0
 70
     128
 71
-4
 72
-1
 73
5
  0
VERTEX
  8
Layer0
10
0.0
 20
 0.0
 30
0.0
 70
     128
 71
-5
 72
1
 73
6
  0
SEQEND
  0
POLYLINE
 8
Layer0
 66
     1
10
0.0
 20
 0.0
 30
0.0
70
    64
71
9
72
   1
  0
VERTEX
  8
Layer0
10
33.61753061588424
20
269.8728428592144
30
4.010180999999992
 70
     192
  0
VERTEX
  8
Layer0
10
31.380439830222546
20
284.3257396572037
30
4.010180999999969
 70
     192
  0
VERTEX
  8
Layer0
10
31.380439830222546
20
269.8728428592144
30
4.010180999999969
 70
     192
  0
VERTEX
  8
Layer0
10
36.546562936948824
20
284.3257372996591
30
4.010180999999992
 70
     192
  0
VERTEX
  8
Layer0
10
87.5306123919901
20
267.98209333039273
30
4.010180999999992
 70
     192
  0
VERTEX
  8
Layer0
10
39.32554553274439
20
288.3329425982673
30
4.010180999999992
 70
     192
  0
VERTEX
  8
Layer0
10
56.499460301075885
20
287.69046803848124
30
4.010180999999992
 70
     192
  0
VERTEX
  8
Layer0
10
39.32554553274439
20
295.13977664979467
30
4.010180999999992
 70
     192
  0
VERTEX
  8
Layer0
10
36.546536375552954
20
295.13977664979467
30
4.010180999999992
 70
     192
  0
VERTEX
  8
Layer0
10
0.0
 20
 0.0
 30
0.0
 70
     128
 71
-1
 72
2
 73
3
  0
VERTEX
  8
Layer0
10
0.0
 20
 0.0
 30
0.0
 70
     128
 71
-2
 72
-1
 73
4
  0
VERTEX
  8
Layer0
10
0.0
 20
 0.0
 30
0.0
 70
     128
 71
-4
 72
1
 73
-5
  0
VERTEX
  8
Layer0
10
0.0
 20
 0.0
 30
0.0
 70
     128
 71
-4
 72
-5
 73
-6
  0
VERTEX
  8
Layer0
10
0.0
 20
 0.0
 30
0.0
 70
     128
 71
-6
 72
5
 73
7
  0
VERTEX
  8
Layer0
10
0.0
 20
 0.0
 30
0.0
 70
     128
 71
-4
 72
8
 73
9
  0
VERTEX
  8
Layer0
10
0.0
 20
 0.0
 30
0.0
 70
     128
 71
-8
 72
-4
 73
6
  0
SEQEND
  0
POLYLINE
 8
Layer0
 66
     1
10
0.0
 20
 0.0
 30
0.0
70
    64
71
4
72
   1
  0
VERTEX
  8
Layer0
10
31.380439830222546
20
284.3257396572037
30
4.010180999999969
 70
     192
  0
VERTEX
  8
Layer0
10
36.546562936948824
20
284.3257372996591
30
1.9999999999999907
 70
     192
  0
VERTEX
  8
Layer0
10
31.380439830222546
20
284.3257396572037
30
1.999999999999968
 70
     192
  0
VERTEX
  8
Layer0
10
36.546562936948824
20
284.3257372996591
30
4.010180999999992
 70
     192
  0
VERTEX
  8
Layer0
10
0.0
 20
 0.0
 30
0.0
 70
     128
 71
-1
 72
2
 73
3
  0
VERTEX
  8
Layer0
10
0.0
 20
 0.0
 30
0.0
 70
     128
 71
-2
 72
1
 73
4
  0
SEQEND
  0
POLYLINE
 8
Layer0
 66
     1
10
0.0
 20
 0.0
 30
0.0
70
    64
71
4
72
   1
  0
VERTEX
  8
Layer0
10
31.380439830222546
20
284.3257396572037
30
4.010180999999969
 70
     192
  0
VERTEX
  8
Layer0
10
31.380439830222546
20
269.8728428592144
30
1.999999999999968
 70
     192
  0
VERTEX
  8
Layer0
10
31.380439830222546
20
269.8728428592144
30
4.010180999999969
 70
     192
  0
VERTEX
  8
Layer0
10
31.380439830222546
20
284.3257396572037
30
1.999999999999968
 70
     192
  0
VERTEX
  8
Layer0
10
0.0
 20
 0.0
 30
0.0
 70
     128
 71
-1
 72
2
 73
3
  0
VERTEX
  8
Layer0
10
0.0
 20
 0.0
 30
0.0
 70
     128
 71
-2
 72
1
 73
4
  0
SEQEND
  0
POLYLINE
 8
Layer0
 66
     1
10
0.0
 20
 0.0
 30
0.0
70
    64
71
4
72
   1
  0
VERTEX
  8
Layer0
10
33.61753061588424
20
269.8728428592144
30
1.9999999999999907
 70
     192
  0
VERTEX
  8
Layer0
10
31.380439830222546
20
269.8728428592144
30
4.010180999999969
 70
     192
  0
VERTEX
  8
Layer0
10
31.380439830222546
20
269.8728428592144
30
1.999999999999968
 70
     192
  0
VERTEX
  8
Layer0
10
33.61753061588424
20
269.8728428592144
30
4.010180999999992
 70
     192
  0
VERTEX
  8
Layer0
10
0.0
 20
 0.0
 30
0.0
 70
     128
 71
-1
 72
2
 73
3
  0
VERTEX
  8
Layer0
10
0.0
 20
 0.0
 30
0.0
 70
     128
 71
-2
 72
1
 73
4
  0
SEQEND
  0
POLYLINE
 8
Layer0
 66
     1
10
0.0
 20
 0.0
 30
0.0
70
    64
71
4
72
   1
  0
VERTEX
  8
Layer0
10
166.79701213185257
20
276.1803264621098
30
2.500000000001015
 70
     192
  0
VERTEX
  8
Layer0
10
157.1665860911985
20
260.76394852558553
30
4.552878000001016
 70
     192
  0
VERTEX
  8
Layer0
10
157.1665860911985
20
260.76394852558553
30
2.500000000001015
 70
     192
  0
VERTEX
  8
Layer0
10
166.79701213185257
20
276.1803264621098
30
4.552878000001016
 70
     192
  0
VERTEX
  8
Layer0
10
0.0
 20
 0.0
 30
0.0
 70
     128
 71
-1
 72
2
 73
3
  0
VERTEX
  8
Layer0
10
0.0
 20
 0.0
 30
0.0
 70
     128
 71
-2
 72
1
 73
4
  0
SEQEND
  0
POLYLINE
 8
Layer0
 66
     1
10
0.0
 20
 0.0
 30
0.0
70
    64
71
4
72
   1
  0
VERTEX
  8
Layer0
10
152.43654267802836
20
299.42127580893026
30
2.5000000000010605
 70
     192
  0
VERTEX
  8
Layer0
10
158.5235547378212
20
297.06734264875166
30
4.552878000000994
 70
     192
  0
VERTEX
  8
Layer0
10
158.5235547378212
20
297.06734264875166
30
2.5000000000009925
 70
     192
  0
VERTEX
  8
Layer0
10
152.43654267802836
20
299.42127580893026
30
4.552878000001061
 70
     192
  0
VERTEX
  8
Layer0
10
0.0
 20
 0.0
 30
0.0
 70
     128
 71
-1
 72
2
 73
3
  0
VERTEX
  8
Layer0
10
0.0
 20
 0.0
 30
0.0
 70
     128
 71
-2
 72
1
 73
4
  0
SEQEND
  0
POLYLINE
 8
Layer0
 66
     1
10
0.0
 20
 0.0
 30
0.0
70
    64
71
4
72
   1
  0
VERTEX
  8
Layer0
10
157.1665860911985
20
260.76394852558553
30
4.552878000001016
 70
     192
  0
VERTEX
  8
Layer0
10
126.13543400028419
20
280.47232323367405
30
2.500000000001015
 70
     192
  0
VERTEX
  8
Layer0
10
157.1665860911985
20
260.76394852558553
30
2.500000000001015
 70
     192
  0
VERTEX
  8
Layer0
10
126.13543400028419
20
280.47232323367405
30
4.552878000001016
 70
     192
  0
VERTEX
  8
Layer0
10
0.0
 20
 0.0
 30
0.0
 70
     128
 71
-1
 72
2
 73
3
  0
VERTEX
  8
Layer0
10
0.0
 20
 0.0
 30
0.0
 70
     128
 71
-2
 72
1
 73
4
  0
SEQEND
  0
POLYLINE
 8
Layer0
 66
     1
10
0.0
 20
 0.0
 30
0.0
70
    64
71
4
72
   1
  0
VERTEX
  8
Layer0
10
87.5306123919901
20
267.98209333039273
30
4.010180999999992
 70
     192
  0
VERTEX
  8
Layer0
10
33.61753061588424
20
269.8728428592144
30
1.9999999999999907
 70
     192
  0
VERTEX
  8
Layer0
10
87.5306123919901
20
267.98209333039273
30
1.9999999999999907
 70
     192
  0
VERTEX
  8
Layer0
10
33.61753061588424
20
269.8728428592144
30
4.010180999999992
 70
     192
  0
VERTEX
  8
Layer0
10
0.0
 20
 0.0
 30
0.0
 70
     128
 71
-1
 72
2
 73
3
  0
VERTEX
  8
Layer0
10
0.0
 20
 0.0
 30
0.0
 70
     128
 71
-2
 72
1
 73
4
  0
SEQEND
  0
POLYLINE
 8
Layer0
 66
     1
10
0.0
 20
 0.0
 30
0.0
70
    64
71
4
72
   1
  0
VERTEX
  8
Layer0
10
36.546536375552954
20
295.13977664979467
30
4.010180999999992
 70
     192
  0
VERTEX
  8
Layer0
10
36.546562936948824
20
284.3257372996591
30
1.9999999999999907
 70
     192
  0
VERTEX
  8
Layer0
10
36.546562936948824
20
284.3257372996591
30
4.010180999999992
 70
     192
  0
VERTEX
  8
Layer0
10
36.546536375552954
20
295.13977664979467
30
1.9999999999999907
 70
     192
  0
VERTEX
  8
Layer0
10
0.0
 20
 0.0
 30
0.0
 70
     128
 71
-1
 72
2
 73
3
  0
VERTEX
  8
Layer0
10
0.0
 20
 0.0
 30
0.0
 70
     128
 71
-2
 72
1
 73
4
  0
SEQEND
  0
POLYLINE
 8
Layer0
 66
     1
10
0.0
 20
 0.0
 30
0.0
70
    64
71
15
72
   1
  0
VERTEX
  8
Layer0
10
157.1665860911985
20
260.76394852558553
30
4.552878000001016
 70
     192
  0
VERTEX
  8
Layer0
10
135.62045956344738
20
295.65594420765945
30
4.552878000001016
 70
     192
  0
VERTEX
  8
Layer0
10
126.13543400028419
20
280.47232323367405
30
4.552878000001016
 70
     192
  0
VERTEX
  8
Layer0
10
139.49922413477384
20
299.11462587849326
30
4.552878000000994
 70
     192
  0
VERTEX
  8
Layer0
10
145.94769779178745
20
300.1195659928636
30
4.552878000000046
 70
     192
  0
VERTEX
  8
Layer0
10
152.43654267802836
20
299.42127580893026
30
4.552878000001061
 70
     192
  0
VERTEX
  8
Layer0
10
158.5235547378212
20
297.06734264875166
30
4.552878000000994
 70
     192
  0
VERTEX
  8
Layer0
10
166.79701213185257
20
276.1803264621098
30
4.552878000001016
 70
     192
  0
VERTEX
  8
Layer0
10
163.7939141585562
20
293.2181831671328
30
4.552878000001016
 70
     192
  0
VERTEX
  8
Layer0
10
167.03809232644235
20
289.19156604960386
30
4.552878000000925
 70
     192
  0
VERTEX
  8
Layer0
10
171.2812716678676
20
273.37906341663336
30
4.552878000000881
 70
     192
  0
VERTEX
  8
Layer0
10
167.88845465538844
20
288.1361112217086
30
4.552878000000768
 70
     192
  0
VERTEX
  8
Layer0
10
170.5281400600105
20
282.16746161704253
30
4.552878000000903
 70
     192
  0
VERTEX
  8
Layer0
10
171.533080174381
20
275.71898796002813
30
4.552878000000723
 70
     192
  0
VERTEX
  8
Layer0
10
133.98657663993203
20
296.6766112358553
30
4.552878000000723
 70
     192
  0
VERTEX
  8
Layer0
10
0.0
 20
 0.0
 30
0.0
 70
     128
 71
-1
 72
2
 73
3
  0
VERTEX
  8
Layer0
10
0.0
 20
 0.0
 30
0.0
 70
     128
 71
-2
 72
-1
 73
-4
  0
VERTEX
  8
Layer0
10
0.0
 20
 0.0
 30
0.0
 70
     128
 71
-4
 72
-1
 73
5
  0
VERTEX
  8
Layer0
10
0.0
 20
 0.0
 30
0.0
 70
     128
 71
-5
 72
-1
 73
6
  0
VERTEX
  8
Layer0
10
0.0
 20
 0.0
 30
0.0
 70
     128
 71
-6
 72
-1
 73
7
  0
VERTEX
  8
Layer0
10
0.0
 20
 0.0
 30
0.0
 70
     128
 71
-7
 72
1
 73
-8
  0
VERTEX
  8
Layer0
10
0.0
 20
 0.0
 30
0.0
 70
     128
 71
-7
 72
-8
 73
9
  0
VERTEX
  8
Layer0
10
0.0
 20
 0.0
 30
0.0
 70
     128
 71
-9
 72
-8
 73
10
  0
VERTEX
  8
Layer0
10
0.0
 20
 0.0
 30
0.0
 70
     128
 71
-10
 72
8
 73
-11
  0
VERTEX
  8
Layer0
10
0.0
 20
 0.0
 30
0.0
 70
     128
 71
-10
 72
-11
 73
12
  0
VERTEX
  8
Layer0
10
0.0
 20
 0.0
 30
0.0
 70
     128
 71
-12
 72
-11
 73
13
  0
VERTEX
  8
Layer0
10
0.0
 20
 0.0
 30
0.0
 70
     128
 71
-13
 72
11
 73
14
  0
VERTEX
  8
Layer0
10
0.0
 20
 0.0
 30
0.0
 70
     128
 71
4
 72
15
 73
-2
  0
SEQEND
  0
POLYLINE
 8
Layer0
 66
     1
10
0.0
 20
 0.0
 30
0.0
70
    64
71
15
72
   1
  0
VERTEX
  8
Layer0
10
139.49922413477384
20
299.11462587849326
30
2.5000000000009925
 70
     192
  0
VERTEX
  8
Layer0
10
135.62045956344738
20
295.65594420765945
30
2.500000000001015
 70
     192
  0
VERTEX
  8
Layer0
10
133.98657663993203
20
296.6766112358553
30
2.500000000000722
 70
     192
  0
VERTEX
  8
Layer0
10
157.1665860911985
20
260.76394852558553
30
2.500000000001015
 70
     192
  0
VERTEX
  8
Layer0
10
126.13543400028419
20
280.47232323367405
30
2.500000000001015
 70
     192
  0
VERTEX
  8
Layer0
10
145.94769779178745
20
300.1195659928636
30
2.5000000000000453
 70
     192
  0
VERTEX
  8
Layer0
10
152.43654267802836
20
299.42127580893026
30
2.5000000000010605
 70
     192
  0
VERTEX
  8
Layer0
10
158.5235547378212
20
297.06734264875166
30
2.5000000000009925
 70
     192
  0
VERTEX
  8
Layer0
10
166.79701213185257
20
276.1803264621098
30
2.500000000001015
 70
     192
  0
VERTEX
  8
Layer0
10
163.7939141585562
20
293.2181831671328
30
2.500000000001015
 70
     192
  0
VERTEX
  8
Layer0
10
167.03809232644235
20
289.19156604960386
30
2.500000000000925
 70
     192
  0
VERTEX
  8
Layer0
10
171.2812716678676
20
273.37906341663336
30
2.5000000000008797
 70
     192
  0
VERTEX
  8
Layer0
10
167.88845465538844
20
288.1361112217086
30
2.500000000000767
 70
     192
  0
VERTEX
  8
Layer0
10
170.5281400600105
20
282.16746161704253
30
2.5000000000009024
 70
     192
  0
VERTEX
  8
Layer0
10
171.533080174381
20
275.71898796002813
30
2.500000000000722
 70
     192
  0
VERTEX
  8
Layer0
10
0.0
 20
 0.0
 30
0.0
 70
     128
 71
-1
 72
2
 73
3
  0
VERTEX
  8
Layer0
10
0.0
 20
 0.0
 30
0.0
 70
     128
 71
-2
 72
4
 73
5
  0
VERTEX
  8
Layer0
10
0.0
 20
 0.0
 30
0.0
 70
     128
 71
-4
 72
-2
 73
-1
  0
VERTEX
  8
Layer0
10
0.0
 20
 0.0
 30
0.0
 70
     128
 71
-4
 72
1
 73
-6
  0
VERTEX
  8
Layer0
10
0.0
 20
 0.0
 30
0.0
 70
     128
 71
-4
 72
6
 73
-7
  0
VERTEX
  8
Layer0
10
0.0
 20
 0.0
 30
0.0
 70
     128
 71
-4
 72
7
 73
-8
  0
VERTEX
  8
Layer0
10
0.0
 20
 0.0
 30
0.0
 70
     128
 71
-4
 72
-8
 73
9
  0
VERTEX
  8
Layer0
10
0.0
 20
 0.0
 30
0.0
 70
     128
 71
-9
 72
8
 73
-10
  0
VERTEX
  8
Layer0
10
0.0
 20
 0.0
 30
0.0
 70
     128
 71
-9
 72
10
 73
-11
  0
VERTEX
  8
Layer0
10
0.0
 20
 0.0
 30
0.0
 70
     128
 71
-9
 72
-11
 73
12
  0
VERTEX
  8
Layer0
10
0.0
 20
 0.0
 30
0.0
 70
     128
 71
-12
 72
11
 73
-13
  0
VERTEX
  8
Layer0
10
0.0
 20
 0.0
 30
0.0
 70
     128
 71
-12
 72
13
 73
-14
  0
VERTEX
  8
Layer0
10
0.0
 20
 0.0
 30
0.0
 70
     128
 71
-12
 72
14
 73
15
  0
SEQEND
  0
POLYLINE
 8
Layer0
 66
     1
10
0.0
 20
 0.0
 30
0.0
70
    64
71
4
72
   1
  0
VERTEX
  8
Layer0
10
171.2812716678676
20
273.37906341663336
30
4.552878000000881
 70
     192
  0
VERTEX
  8
Layer0
10
166.79701213185257
20
276.1803264621098
30
2.500000000001015
 70
     192
  0
VERTEX
  8
Layer0
10
171.2812716678676
20
273.37906341663336
30
2.5000000000008797
 70
     192
  0
VERTEX
  8
Layer0
10
166.79701213185257
20
276.1803264621098
30
4.552878000001016
 70
     192
  0
VERTEX
  8
Layer0
10
0.0
 20
 0.0
 30
0.0
 70
     128
 71
-1
 72
2
 73
3
  0
VERTEX
  8
Layer0
10
0.0
 20
 0.0
 30
0.0
 70
     128
 71
-2
 72
1
 73
4
  0
SEQEND
  0
POLYLINE
 8
Layer0
 66
     1
10
0.0
 20
 0.0
 30
0.0
70
    64
71
4
72
   1
  0
VERTEX
  8
Layer0
10
158.5235547378212
20
297.06734264875166
30
4.552878000000994
 70
     192
  0
VERTEX
  8
Layer0
10
163.7939141585562
20
293.2181831671328
30
2.500000000001015
 70
     192
  0
VERTEX
  8
Layer0
10
158.5235547378212
20
297.06734264875166
30
2.5000000000009925
 70
     192
  0
VERTEX
  8
Layer0
10
163.7939141585562
20
293.2181831671328
30
4.552878000001016
 70
     192
  0
VERTEX
  8
Layer0
10
0.0
 20
 0.0
 30
0.0
 70
     128
 71
-1
 72
2
 73
3
  0
VERTEX
  8
Layer0
10
0.0
 20
 0.0
 30
0.0
 70
     128
 71
-2
 72
1
 73
4
  0
SEQEND
  0
POLYLINE
 8
Layer0
 66
     1
10
0.0
 20
 0.0
 30
0.0
70
    64
71
4
72
   1
  0
VERTEX
  8
Layer0
10
145.94769779178745
20
300.1195659928636
30
4.552878000000046
 70
     192
  0
VERTEX
  8
Layer0
10
152.43654267802836
20
299.42127580893026
30
2.5000000000010605
 70
     192
  0
VERTEX
  8
Layer0
10
145.94769779178745
20
300.1195659928636
30
2.5000000000000453
 70
     192
  0
VERTEX
  8
Layer0
10
152.43654267802836
20
299.42127580893026
30
4.552878000001061
 70
     192
  0
VERTEX
  8
Layer0
10
0.0
 20
 0.0
 30
0.0
 70
     128
 71
-1
 72
2
 73
3
  0
VERTEX
  8
Layer0
10
0.0
 20
 0.0
 30
0.0
 70
     128
 71
-2
 72
1
 73
4
  0
SEQEND
  0
POLYLINE
 8
Layer0
 66
     1
10
0.0
 20
 0.0
 30
0.0
70
    64
71
4
72
   1
  0
VERTEX
  8
Layer0
10
135.62045956344738
20
295.65594420765945
30
4.552878000001016
 70
     192
  0
VERTEX
  8
Layer0
10
126.13543400028419
20
280.47232323367405
30
2.500000000001015
 70
     192
  0
VERTEX
  8
Layer0
10
126.13543400028419
20
280.47232323367405
30
4.552878000001016
 70
     192
  0
VERTEX
  8
Layer0
10
135.62045956344738
20
295.65594420765945
30
2.500000000001015
 70
     192
  0
VERTEX
  8
Layer0
10
0.0
 20
 0.0
 30
0.0
 70
     128
 71
-1
 72
2
 73
3
  0
VERTEX
  8
Layer0
10
0.0
 20
 0.0
 30
0.0
 70
     128
 71
-2
 72
1
 73
4
  0
SEQEND
  0
POLYLINE
 8
Layer0
 66
     1
10
0.0
 20
 0.0
 30
0.0
70
    64
71
4
72
   1
  0
VERTEX
  8
Layer0
10
171.533080174381
20
275.71898796002813
30
2.500000000000722
 70
     192
  0
VERTEX
  8
Layer0
10
171.2812716678676
20
273.37906341663336
30
4.552878000000881
 70
     192
  0
VERTEX
  8
Layer0
10
171.2812716678676
20
273.37906341663336
30
2.5000000000008797
 70
     192
  0
VERTEX
  8
Layer0
10
171.533080174381
20
275.71898796002813
30
4.552878000000723
 70
     192
  0
VERTEX
  8
Layer0
10
0.0
 20
 0.0
 30
0.0
 70
     128
 71
-1
 72
2
 73
3
  0
VERTEX
  8
Layer0
10
0.0
 20
 0.0
 30
0.0
 70
     128
 71
-2
 72
1
 73
4
  0
SEQEND
  0
POLYLINE
 8
Layer0
 66
     1
10
0.0
 20
 0.0
 30
0.0
70
    64
71
4
72
   1
  0
VERTEX
  8
Layer0
10
139.49922413477384
20
299.11462587849326
30
2.5000000000009925
 70
     192
  0
VERTEX
  8
Layer0
10
145.94769779178745
20
300.1195659928636
30
4.552878000000046
 70
     192
  0
VERTEX
  8
Layer0
10
145.94769779178745
20
300.1195659928636
30
2.5000000000000453
 70
     192
  0
VERTEX
  8
Layer0
10
139.49922413477384
20
299.11462587849326
30
4.552878000000994
 70
     192
  0
VERTEX
  8
Layer0
10
0.0
 20
 0.0
 30
0.0
 70
     128
 71
-1
 72
2
 73
3
  0
VERTEX
  8
Layer0
10
0.0
 20
 0.0
 30
0.0
 70
     128
 71
-2
 72
1
 73
4
  0
SEQEND
  0
POLYLINE
 8
Layer0
 66
     1
10
0.0
 20
 0.0
 30
0.0
70
    64
71
4
72
   1
  0
VERTEX
  8
Layer0
10
133.98657663993203
20
296.6766112358553
30
4.552878000000723
 70
     192
  0
VERTEX
  8
Layer0
10
139.49922413477384
20
299.11462587849326
30
2.5000000000009925
 70
     192
  0
VERTEX
  8
Layer0
10
133.98657663993203
20
296.6766112358553
30
2.500000000000722
 70
     192
  0
VERTEX
  8
Layer0
10
139.49922413477384
20
299.11462587849326
30
4.552878000000994
 70
     192
  0
VERTEX
  8
Layer0
10
0.0
 20
 0.0
 30
0.0
 70
     128
 71
-1
 72
2
 73
3
  0
VERTEX
  8
Layer0
10
0.0
 20
 0.0
 30
0.0
 70
     128
 71
-2
 72
1
 73
4
  0
SEQEND
  0
POLYLINE
 8
Layer0
 66
     1
10
0.0
 20
 0.0
 30
0.0
70
    64
71
4
72
   1
  0
VERTEX
  8
Layer0
10
167.03809232644235
20
289.19156604960386
30
2.500000000000925
 70
     192
  0
VERTEX
  8
Layer0
10
167.88845465538844
20
288.1361112217086
30
4.552878000000768
 70
     192
  0
VERTEX
  8
Layer0
10
167.88845465538844
20
288.1361112217086
30
2.500000000000767
 70
     192
  0
VERTEX
  8
Layer0
10
167.03809232644235
20
289.19156604960386
30
4.552878000000925
 70
     192
  0
VERTEX
  8
Layer0
10
0.0
 20
 0.0
 30
0.0
 70
     128
 71
-1
 72
2
 73
3
  0
VERTEX
  8
Layer0
10
0.0
 20
 0.0
 30
0.0
 70
     128
 71
-2
 72
1
 73
4
  0
SEQEND
  0
POLYLINE
 8
Layer0
 66
     1
10
0.0
 20
 0.0
 30
0.0
70
    64
71
4
72
   1
  0
VERTEX
  8
Layer0
10
167.88845465538844
20
288.1361112217086
30
2.500000000000767
 70
     192
  0
VERTEX
  8
Layer0
10
170.5281400600105
20
282.16746161704253
30
4.552878000000903
 70
     192
  0
VERTEX
  8
Layer0
10
170.5281400600105
20
282.16746161704253
30
2.5000000000009024
 70
     192
  0
VERTEX
  8
Layer0
10
167.88845465538844
20
288.1361112217086
30
4.552878000000768
 70
     192
  0
VERTEX
  8
Layer0
10
0.0
 20
 0.0
 30
0.0
 70
     128
 71
-1
 72
2
 73
3
  0
VERTEX
  8
Layer0
10
0.0
 20
 0.0
 30
0.0
 70
     128
 71
-2
 72
1
 73
4
  0
SEQEND
  0
POLYLINE
 8
Layer0
 66
     1
10
0.0
 20
 0.0
 30
0.0
70
    64
71
4
72
   1
  0
VERTEX
  8
Layer0
10
163.7939141585562
20
293.2181831671328
30
2.500000000001015
 70
     192
  0
VERTEX
  8
Layer0
10
167.03809232644235
20
289.19156604960386
30
4.552878000000925
 70
     192
  0
VERTEX
  8
Layer0
10
167.03809232644235
20
289.19156604960386
30
2.500000000000925
 70
     192
  0
VERTEX
  8
Layer0
10
163.7939141585562
20
293.2181831671328
30
4.552878000001016
 70
     192
  0
VERTEX
  8
Layer0
10
0.0
 20
 0.0
 30
0.0
 70
     128
 71
-1
 72
2
 73
3
  0
VERTEX
  8
Layer0
10
0.0
 20
 0.0
 30
0.0
 70
     128
 71
-2
 72
1
 73
4
  0
SEQEND
  0
POLYLINE
 8
Layer0
 66
     1
10
0.0
 20
 0.0
 30
0.0
70
    64
71
4
72
   1
  0
VERTEX
  8
Layer0
10
170.5281400600105
20
282.16746161704253
30
2.5000000000009024
 70
     192
  0
VERTEX
  8
Layer0
10
171.533080174381
20
275.71898796002813
30
4.552878000000723
 70
     192
  0
VERTEX
  8
Layer0
10
171.533080174381
20
275.71898796002813
30
2.500000000000722
 70
     192
  0
VERTEX
  8
Layer0
10
170.5281400600105
20
282.16746161704253
30
4.552878000000903
 70
     192
  0
VERTEX
  8
Layer0
10
0.0
 20
 0.0
 30
0.0
 70
     128
 71
-1
 72
2
 73
3
  0
VERTEX
  8
Layer0
10
0.0
 20
 0.0
 30
0.0
 70
     128
 71
-2
 72
1
 73
4
  0
SEQEND
  0
POLYLINE
 8
Layer0
 66
     1
10
0.0
 20
 0.0
 30
0.0
70
    64
71
5
72
   1
  0
VERTEX
  8
Layer0
10
108.99170673431662
20
195.54695635313345
30
1.9999999999999998
 70
     192
  0
VERTEX
  8
Layer0
10
36.99049627094078
20
235.5469563531336
30
2.000000000000022
 70
     192
  0
VERTEX
  8
Layer0
10
36.99049627094078
20
195.54695635313345
30
2.000000000000022
 70
     192
  0
VERTEX
  8
Layer0
10
108.99170673431662
20
220.43406273728712
30
1.9999999999999998
 70
     192
  0
VERTEX
  8
Layer0
10
108.99179627094084
20
236.41093896196625
30
2.000000000000022
 70
     192
  0
VERTEX
  8
Layer0
10
0.0
 20
 0.0
 30
0.0
 70
     128
 71
-1
 72
2
 73
3
  0
VERTEX
  8
Layer0
10
0.0
 20
 0.0
 30
0.0
 70
     128
 71
-2
 72
1
 73
-4
  0
VERTEX
  8
Layer0
10
0.0
 20
 0.0
 30
0.0
 70
     128
 71
-2
 72
4
 73
5
  0
SEQEND
  0
POLYLINE
 8
Layer0
 66
     1
10
0.0
 20
 0.0
 30
0.0
70
    64
71
5
72
   1
  0
VERTEX
  8
Layer0
10
108.99179627094084
20
236.41093896196625
30
2.255973186038318e-14
 70
     192
  0
VERTEX
  8
Layer0
10
36.99049627094078
20
195.54695635313345
30
2.255973186038318e-14
 70
     192
  0
VERTEX
  8
Layer0
10
36.99049627094078
20
235.5469563531336
30
2.255973186038318e-14
 70
     192
  0
VERTEX
  8
Layer0
10
108.99170673431662
20
220.43406273728712
30
0.0
 70
     192
  0
VERTEX
  8
Layer0
10
108.99170673431662
20
195.54695635313345
30
0.0
 70
     192
  0
VERTEX
  8
Layer0
10
0.0
 20
 0.0
 30
0.0
 70
     128
 71
-1
 72
2
 73
3
  0
VERTEX
  8
Layer0
10
0.0
 20
 0.0
 30
0.0
 70
     128
 71
-2
 72
1
 73
-4
  0
VERTEX
  8
Layer0
10
0.0
 20
 0.0
 30
0.0
 70
     128
 71
5
 72
-2
 73
4
  0
SEQEND
  0
POLYLINE
 8
Layer0
 66
     1
10
0.0
 20
 0.0
 30
0.0
70
    64
71
4
72
   1
  0
VERTEX
  8
Layer0
10
108.99179627094084
20
236.41093896196625
30
2.255973186038318e-14
 70
     192
  0
VERTEX
  8
Layer0
10
108.99170673431662
20
220.43406273728712
30
1.9999999999999998
 70
     192
  0
VERTEX
  8
Layer0
10
108.99170673431662
20
220.43406273728712
30
0.0
 70
     192
  0
VERTEX
  8
Layer0
10
108.99179627094084
20
236.41093896196625
30
2.000000000000022
 70
     192
  0
VERTEX
  8
Layer0
10
0.0
 20
 0.0
 30
0.0
 70
     128
 71
-1
 72
2
 73
3
  0
VERTEX
  8
Layer0
10
0.0
 20
 0.0
 30
0.0
 70
     128
 71
-2
 72
1
 73
4
  0
SEQEND
  0
POLYLINE
 8
Layer0
 66
     1
10
0.0
 20
 0.0
 30
0.0
70
    64
71
4
72
   1
  0
VERTEX
  8
Layer0
10
108.99170673431662
20
220.43406273728712
30
0.0
 70
     192
  0
VERTEX
  8
Layer0
10
108.99170673431662
20
195.54695635313345
30
1.9999999999999998
 70
     192
  0
VERTEX
  8
Layer0
10
108.99170673431662
20
195.54695635313345
30
0.0
 70
     192
  0
VERTEX
  8
Layer0
10
108.99170673431662
20
220.43406273728712
30
1.9999999999999998
 70
     192
  0
VERTEX
  8
Layer0
10
0.0
 20
 0.0
 30
0.0
 70
     128
 71
-1
 72
2
 73
3
  0
VERTEX
  8
Layer0
10
0.0
 20
 0.0
 30
0.0
 70
     128
 71
-2
 72
1
 73
4
  0
SEQEND
  0
POLYLINE
 8
Layer0
 66
     1
10
0.0
 20
 0.0
 30
0.0
70
    64
71
4
72
   1
  0
VERTEX
  8
Layer0
10
36.99049627094078
20
235.5469563531336
30
2.000000000000022
 70
     192
  0
VERTEX
  8
Layer0
10
36.99049627094078
20
195.54695635313345
30
2.255973186038318e-14
 70
     192
  0
VERTEX
  8
Layer0
10
36.99049627094078
20
195.54695635313345
30
2.000000000000022
 70
     192
  0
VERTEX
  8
Layer0
10
36.99049627094078
20
235.5469563531336
30
2.255973186038318e-14
 70
     192
  0
VERTEX
  8
Layer0
10
0.0
 20
 0.0
 30
0.0
 70
     128
 71
-1
 72
2
 73
3
  0
VERTEX
  8
Layer0
10
0.0
 20
 0.0
 30
0.0
 70
     128
 71
-2
 72
1
 73
4
  0
SEQEND
  0
POLYLINE
 8
Layer0
 66
     1
10
0.0
 20
 0.0
 30
0.0
70
    64
71
4
72
   1
  0
VERTEX
  8
Layer0
10
108.99170673431662
20
195.54695635313345
30
1.9999999999999998
 70
     192
  0
VERTEX
  8
Layer0
10
36.99049627094078
20
195.54695635313345
30
2.255973186038318e-14
 70
     192
  0
VERTEX
  8
Layer0
10
108.99170673431662
20
195.54695635313345
30
0.0
 70
     192
  0
VERTEX
  8
Layer0
10
36.99049627094078
20
195.54695635313345
30
2.000000000000022
 70
     192
  0
VERTEX
  8
Layer0
10
0.0
 20
 0.0
 30
0.0
 70
     128
 71
-1
 72
2
 73
3
  0
VERTEX
  8
Layer0
10
0.0
 20
 0.0
 30
0.0
 70
     128
 71
-2
 72
1
 73
4
  0
SEQEND
  0
POLYLINE
 8
Layer0
 66
     1
10
0.0
 20
 0.0
 30
0.0
70
    64
71
4
72
   1
  0
VERTEX
  8
Layer0
10
36.99049627094078
20
235.5469563531336
30
2.000000000000022
 70
     192
  0
VERTEX
  8
Layer0
10
108.99179627094084
20
236.41093896196625
30
2.255973186038318e-14
 70
     192
  0
VERTEX
  8
Layer0
10
36.99049627094078
20
235.5469563531336
30
2.255973186038318e-14
 70
     192
  0
VERTEX
  8
Layer0
10
108.99179627094084
20
236.41093896196625
30
2.000000000000022
 70
     192
  0
VERTEX
  8
Layer0
10
0.0
 20
 0.0
 30
0.0
 70
     128
 71
-1
 72
2
 73
3
  0
VERTEX
  8
Layer0
10
0.0
 20
 0.0
 30
0.0
 70
     128
 71
-2
 72
1
 73
4
  0
SEQEND
 0
ENDSEC
 0
EOF
