 0
SECTION
 2
ENTITIES
  0
POLYLINE
 8
Layer0
 66
     1
10
0.0
 20
 0.0
 30
0.0
70
    64
71
103
72
   1
  0
VERTEX
  8
Layer0
10
77.94031170678706
20
105.4551369577364
30
9.700684699964768e-13
 70
     192
  0
VERTEX
  8
Layer0
10
77.67019159214553
20
111.30481895734513
30
9.700684699964768e-13
 70
     192
  0
VERTEX
  8
Layer0
10
77.61640444632798
20
108.37554727527441
30
9.700684699964768e-13
 70
     192
  0
VERTEX
  8
Layer0
10
78.10121839545968
20
114.21818618469099
30
9.700684699964768e-13
 70
     192
  0
VERTEX
  8
Layer0
10
78.63917486732231
20
102.5682789047061
30
9.700684699964768e-13
 70
     192
  0
VERTEX
  8
Layer0
10
78.90584069721851
20
117.09101760384152
30
9.700684699964768e-13
 70
     192
  0
VERTEX
  8
Layer0
10
79.7070853197168
20
99.7393803451969
30
9.700684699964768e-13
 70
     192
  0
VERTEX
  8
Layer0
10
80.07725573801196
20
119.89902457535699
30
9.700684699964768e-13
 70
     192
  0
VERTEX
  8
Layer0
10
81.13501430866656
20
96.99235848390039
30
9.700684699964768e-13
 70
     192
  0
VERTEX
  8
Layer0
10
81.60555967268039
20
122.61846652455658
30
9.700684699964768e-13
 70
     192
  0
VERTEX
  8
Layer0
10
82.91088926627128
20
94.35043829082113
30
9.700684699964768e-13
 70
     192
  0
VERTEX
  8
Layer0
10
83.31544021077318
20
125.0001572809238
30
9.700684699964768e-13
 70
     192
  0
VERTEX
  8
Layer0
10
87.80617924788773
20
90.64426825717516
30
9.700684699964768e-13
 70
     192
  0
VERTEX
  8
Layer0
10
85.67824132301462
20
127.70063135266996
30
9.700684699964768e-13
 70
     192
  0
VERTEX
  8
Layer0
10
92.21590731998657
20
133.65214546923613
30
9.700684699964768e-13
 70
     192
  0
VERTEX
  8
Layer0
10
93.22250059701724
20
87.32674990556123
30
9.700684699964768e-13
 70
     192
  0
VERTEX
  8
Layer0
10
99.60519693794308
20
139.07380384222398
30
9.700684699964768e-13
 70
     192
  0
VERTEX
  8
Layer0
10
99.09944670072686
20
84.43488252646135
30
9.700684699964768e-13
 70
     192
  0
VERTEX
  8
Layer0
10
105.37147373588104
20
82.00091825231057
30
9.700684699964768e-13
 70
     192
  0
VERTEX
  8
Layer0
10
107.76214586503849
20
143.90400030410095
30
9.700684699964768e-13
 70
     192
  0
VERTEX
  8
Layer0
10
111.96863165982039
20
80.05200235908305
30
9.700684699964768e-13
 70
     192
  0
VERTEX
  8
Layer0
10
116.59406689604677
20
148.08784945412356
30
9.700684699964768e-13
 70
     192
  0
VERTEX
  8
Layer0
10
118.81734434227198
20
78.60987052316047
30
9.700684699964768e-13
 70
     192
  0
VERTEX
  8
Layer0
10
126.00060313473607
20
151.57781031977692
30
9.700684699964768e-13
 70
     192
  0
VERTEX
  8
Layer0
10
125.84123013793823
20
77.69060640981897
30
9.700684699964768e-13
 70
     192
  0
VERTEX
  8
Layer0
10
127.7318778326356
20
102.99185942799875
30
9.700684699964768e-13
 70
     192
  0
VERTEX
  8
Layer0
10
132.96195374815056
20
77.30446229693835
30
9.700684699964768e-13
 70
     192
  0
VERTEX
  8
Layer0
10
199.7330882960115
20
102.99185942799875
30
9.475087381360936e-13
 70
     192
  0
VERTEX
  8
Layer0
10
140.1000998710412
20
77.45574473434729
30
9.700684699964768e-13
 70
     192
  0
VERTEX
  8
Layer0
10
143.46996940255656
20
77.7021362282722
30
9.700684699964768e-13
 70
     192
  0
VERTEX
  8
Layer0
10
146.8236398758363
20
78.04279254758366
30
9.700684699964768e-13
 70
     192
  0
VERTEX
  8
Layer0
10
150.15592352509358
20
78.47718673376606
30
9.700684699964768e-13
 70
     192
  0
VERTEX
  8
Layer0
10
153.4616656676507
20
79.00464682595597
30
9.700684699964768e-13
 70
     192
  0
VERTEX
  8
Layer0
10
156.73575267767032
20
79.62435690039243
30
9.700684699964768e-13
 70
     192
  0
VERTEX
  8
Layer0
10
159.97311989638237
20
80.33535833256785
30
9.700684699964768e-13
 70
     192
  0
VERTEX
  8
Layer0
10
167.6271461486775
20
81.46632700403735
30
9.700684699964768e-13
 70
     192
  0
VERTEX
  8
Layer0
10
174.8570172484735
20
83.7679483307036
30
9.700684699964768e-13
 70
     192
  0
VERTEX
  8
Layer0
10
182.18717585607186
20
85.72684384564802
30
9.700684699964768e-13
 70
     192
  0
VERTEX
  8
Layer0
10
189.56069839757131
20
87.33502878736313
30
9.700684699964768e-13
 70
     192
  0
VERTEX
  8
Layer0
10
196.95779787314916
20
88.58801114771192
30
9.700684699964768e-13
 70
     192
  0
VERTEX
  8
Layer0
10
199.7330882960115
20
95.87896581215259
30
9.475087381360936e-13
 70
     192
  0
VERTEX
  8
Layer0
10
239.7330882960114
20
127.87896581215261
30
9.475087381360936e-13
 70
     192
  0
VERTEX
  8
Layer0
10
199.7331778326357
20
143.85584203683143
30
9.700684699964768e-13
 70
     192
  0
VERTEX
  8
Layer0
10
199.7330882960115
20
127.87896581215244
30
9.475087381360936e-13
 70
     192
  0
VERTEX
  8
Layer0
10
215.33860364564114
20
138.69300280474357
30
9.700684699964768e-13
 70
     192
  0
VERTEX
  8
Layer0
10
203.812471989157
20
156.10576822376777
30
9.700684699964768e-13
 70
     192
  0
VERTEX
  8
Layer0
10
207.83749081553387
20
155.90667039982847
30
9.700684699964768e-13
 70
     192
  0
VERTEX
  8
Layer0
10
209.71701123251128
20
155.50202678116202
30
9.700684699964768e-13
 70
     192
  0
VERTEX
  8
Layer0
10
244.89918484134182
20
138.69300280474357
30
9.700684699964768e-13
 70
     192
  0
VERTEX
  8
Layer0
10
244.89921140273768
20
127.87896345460803
30
9.700684699964768e-13
 70
     192
  0
VERTEX
  8
Layer0
10
264.8521087668648
20
131.24369419343017
30
9.700684699964768e-13
 70
     192
  0
VERTEX
  8
Layer0
10
247.67819399853326
20
138.69300280474357
30
9.700684699964768e-13
 70
     192
  0
VERTEX
  8
Layer0
10
247.67819399853326
20
131.88616875321625
30
9.700684699964768e-13
 70
     192
  0
VERTEX
  8
Layer0
10
256.838630207665
20
138.69300280474357
30
9.700684699964768e-13
 70
     192
  0
VERTEX
  8
Layer0
10
256.838630207665
20
153.1930028047436
30
9.700684699964768e-13
 70
     192
  0
VERTEX
  8
Layer0
10
274.33713433002777
20
146.42731516741546
30
9.700684699964768e-13
 70
     192
  0
VERTEX
  8
Layer0
10
272.70325140651255
20
147.44798219561136
30
6.767919558114954e-13
 70
     192
  0
VERTEX
  8
Layer0
10
201.85887582975627
20
89.17978910012465
30
9.700684699964768e-13
 70
     192
  0
VERTEX
  8
Layer0
10
239.7330882960114
20
95.87896581215267
30
9.475087381360936e-13
 70
     192
  0
VERTEX
  8
Layer0
10
204.41690038156568
20
89.48865636257062
30
9.700684699964768e-13
 70
     192
  0
VERTEX
  8
Layer0
10
211.93525880970424
20
90.03644444619448
30
9.700684699964768e-13
 70
     192
  0
VERTEX
  8
Layer0
10
219.50614112532864
20
90.2317474066008
30
9.700684699964768e-13
 70
     192
  0
VERTEX
  8
Layer0
10
222.50183502761968
20
90.16799522566451
30
9.700684699964768e-13
 70
     192
  0
VERTEX
  8
Layer0
10
232.45613932985782
20
90.07061227432455
30
9.700684699964768e-13
 70
     192
  0
VERTEX
  8
Layer0
10
273.69729756782516
20
90.07061227432436
30
9.700684699964768e-13
 70
     192
  0
VERTEX
  8
Layer0
10
239.7330882960114
20
113.4260690141633
30
9.475087381360936e-13
 70
     192
  0
VERTEX
  8
Layer0
10
241.9701790816731
20
113.4260690141633
30
9.700684699964768e-13
 70
     192
  0
VERTEX
  8
Layer0
10
295.88326085777896
20
111.53531948534166
30
9.700684699964768e-13
 70
     192
  0
VERTEX
  8
Layer0
10
282.2809190196591
20
91.55304273678446
30
9.700684699964768e-13
 70
     192
  0
VERTEX
  8
Layer0
10
290.61683847918295
20
93.99022289870221
30
9.700684699964768e-13
 70
     192
  0
VERTEX
  8
Layer0
10
298.1015733038349
20
98.03597971160885
30
9.700684699964768e-13
 70
     192
  0
VERTEX
  8
Layer0
10
305.5136868984329
20
126.95169742186594
30
9.700684699964768e-13
 70
     192
  0
VERTEX
  8
Layer0
10
304.34071487956163
20
103.47712174324022
30
9.700684699964768e-13
 70
     192
  0
VERTEX
  8
Layer0
10
309.0054912138471
20
110.02692764169569
30
9.700684699964768e-13
 70
     192
  0
VERTEX
  8
Layer0
10
309.99794643444795
20
124.15043437638947
30
8.347100788341777e-13
 70
     192
  0
VERTEX
  8
Layer0
10
311.8500915983586
20
117.34025493669517
30
9.700684699964768e-13
 70
     192
  0
VERTEX
  8
Layer0
10
310.2497549409614
20
126.49035891978426
30
6.767919558114954e-13
 70
     192
  0
VERTEX
  8
Layer0
10
311.582991967965
20
132.69604220349078
30
9.700684699964768e-13
 70
     192
  0
VERTEX
  8
Layer0
10
312.7246196210797
20
125.03172734569911
30
9.700684699964768e-13
 70
     192
  0
VERTEX
  8
Layer0
10
215.33860364564114
20
153.1930028047436
30
9.700684699964768e-13
 70
     192
  0
VERTEX
  8
Layer0
10
289.5475724342009
20
155.46324663170915
30
9.700684699964768e-13
 70
     192
  0
VERTEX
  8
Layer0
10
278.2158989013542
20
149.8859968382493
30
9.475087381360936e-13
 70
     192
  0
VERTEX
  8
Layer0
10
284.6643725583678
20
150.89093695261963
30
0.0
 70
     192
  0
VERTEX
  8
Layer0
10
291.1532174446087
20
150.19264676868633
30
1.0151879337172431e-12
 70
     192
  0
VERTEX
  8
Layer0
10
297.1695121521214
20
151.62097623230778
30
9.700684699964768e-13
 70
     192
  0
VERTEX
  8
Layer0
10
297.2402295044016
20
147.83871360850773
30
9.475087381360936e-13
 70
     192
  0
VERTEX
  8
Layer0
10
303.5949736473167
20
146.35042599108442
30
9.700684699964768e-13
 70
     192
  0
VERTEX
  8
Layer0
10
302.5105889251365
20
143.98955412688892
30
9.700684699964768e-13
 70
     192
  0
VERTEX
  8
Layer0
10
305.75476709302274
20
139.96293700935996
30
8.79829542554944e-13
 70
     192
  0
VERTEX
  8
Layer0
10
308.48536678636816
20
139.92932791387273
30
9.700684699964768e-13
 70
     192
  0
VERTEX
  8
Layer0
10
306.6051294219688
20
138.90748218146467
30
7.219114195322617e-13
 70
     192
  0
VERTEX
  8
Layer0
10
309.24481482659087
20
132.93883257679866
30
8.572698106945608e-13
 70
     192
  0
VERTEX
  8
Layer0
10
127.7318778326356
20
143.85584203683143
30
9.700684699964768e-13
 70
     192
  0
VERTEX
  8
Layer0
10
135.87486834674615
20
154.33422656363496
30
9.700684699964768e-13
 70
     192
  0
VERTEX
  8
Layer0
10
127.7318778326356
20
142.99185942799878
30
9.700684699964768e-13
 70
     192
  0
VERTEX
  8
Layer0
10
146.10466150515816
20
156.32577709734898
30
9.700684699964768e-13
 70
     192
  0
VERTEX
  8
Layer0
10
156.57374172796193
20
157.52983198236103
30
9.700684699964768e-13
 70
     192
  0
VERTEX
  8
Layer0
10
167.1631491202614
20
157.93270957333976
30
9.700684699964768e-13
 70
     192
  0
VERTEX
  8
Layer0
10
184.91346161740304
20
157.9327095733412
30
9.700684699964768e-13
 70
     192
  0
VERTEX
  8
Layer0
10
188.732038178746
20
157.51458196975975
30
9.700684699964768e-13
 70
     192
  0
VERTEX
  8
Layer0
10
191.19404507479726
20
157.19567278437518
30
9.700684699964768e-13
 70
     192
  0
VERTEX
  8
Layer0
10
194.56244288120843
20
156.89467831084534
30
9.700684699964768e-13
 70
     192
  0
VERTEX
  8
Layer0
10
197.48952611973627
20
156.58286829973497
30
9.700684699964768e-13
 70
     192
  0
VERTEX
  8
Layer0
10
0.0
 20
 0.0
 30
0.0
 70
     128
 71
-1
 72
2
 73
3
  0
VERTEX
  8
Layer0
10
0.0
 20
 0.0
 30
0.0
 70
     128
 71
-2
 72
-1
 73
4
  0
VERTEX
  8
Layer0
10
0.0
 20
 0.0
 30
0.0
 70
     128
 71
-4
 72
1
 73
-5
  0
VERTEX
  8
Layer0
10
0.0
 20
 0.0
 30
0.0
 70
     128
 71
-4
 72
-5
 73
6
  0
VERTEX
  8
Layer0
10
0.0
 20
 0.0
 30
0.0
 70
     128
 71
-6
 72
5
 73
-7
  0
VERTEX
  8
Layer0
10
0.0
 20
 0.0
 30
0.0
 70
     128
 71
-6
 72
-7
 73
8
  0
VERTEX
  8
Layer0
10
0.0
 20
 0.0
 30
0.0
 70
     128
 71
-8
 72
7
 73
-9
  0
VERTEX
  8
Layer0
10
0.0
 20
 0.0
 30
0.0
 70
     128
 71
-8
 72
-9
 73
10
  0
VERTEX
  8
Layer0
10
0.0
 20
 0.0
 30
0.0
 70
     128
 71
-10
 72
9
 73
-11
  0
VERTEX
  8
Layer0
10
0.0
 20
 0.0
 30
0.0
 70
     128
 71
-10
 72
-11
 73
12
  0
VERTEX
  8
Layer0
10
0.0
 20
 0.0
 30
0.0
 70
     128
 71
-12
 72
11
 73
-13
  0
VERTEX
  8
Layer0
10
0.0
 20
 0.0
 30
0.0
 70
     128
 71
-12
 72
-13
 73
14
  0
VERTEX
  8
Layer0
10
0.0
 20
 0.0
 30
0.0
 70
     128
 71
-14
 72
-13
 73
15
  0
VERTEX
  8
Layer0
10
0.0
 20
 0.0
 30
0.0
 70
     128
 71
-15
 72
13
 73
-16
  0
VERTEX
  8
Layer0
10
0.0
 20
 0.0
 30
0.0
 70
     128
 71
-15
 72
-16
 73
17
  0
VERTEX
  8
Layer0
10
0.0
 20
 0.0
 30
0.0
 70
     128
 71
-17
 72
16
 73
-18
  0
VERTEX
  8
Layer0
10
0.0
 20
 0.0
 30
0.0
 70
     128
 71
-17
 72
18
 73
-19
  0
VERTEX
  8
Layer0
10
0.0
 20
 0.0
 30
0.0
 70
     128
 71
-17
 72
-19
 73
20
  0
VERTEX
  8
Layer0
10
0.0
 20
 0.0
 30
0.0
 70
     128
 71
-20
 72
19
 73
-21
  0
VERTEX
  8
Layer0
10
0.0
 20
 0.0
 30
0.0
 70
     128
 71
-20
 72
-21
 73
22
  0
VERTEX
  8
Layer0
10
0.0
 20
 0.0
 30
0.0
 70
     128
 71
-22
 72
21
 73
-23
  0
VERTEX
  8
Layer0
10
0.0
 20
 0.0
 30
0.0
 70
     128
 71
-22
 72
-23
 73
24
  0
VERTEX
  8
Layer0
10
0.0
 20
 0.0
 30
0.0
 70
     128
 71
-24
 72
23
 73
-25
  0
VERTEX
  8
Layer0
10
0.0
 20
 0.0
 30
0.0
 70
     128
 71
-24
 72
-25
 73
-26
  0
VERTEX
  8
Layer0
10
0.0
 20
 0.0
 30
0.0
 70
     128
 71
-26
 72
25
 73
-27
  0
VERTEX
  8
Layer0
10
0.0
 20
 0.0
 30
0.0
 70
     128
 71
-26
 72
-27
 73
28
  0
VERTEX
  8
Layer0
10
0.0
 20
 0.0
 30
0.0
 70
     128
 71
-28
 72
27
 73
-29
  0
VERTEX
  8
Layer0
10
0.0
 20
 0.0
 30
0.0
 70
     128
 71
-28
 72
29
 73
-30
  0
VERTEX
  8
Layer0
10
0.0
 20
 0.0
 30
0.0
 70
     128
 71
-28
 72
30
 73
-31
  0
VERTEX
  8
Layer0
10
0.0
 20
 0.0
 30
0.0
 70
     128
 71
-28
 72
31
 73
-32
  0
VERTEX
  8
Layer0
10
0.0
 20
 0.0
 30
0.0
 70
     128
 71
-28
 72
32
 73
-33
  0
VERTEX
  8
Layer0
10
0.0
 20
 0.0
 30
0.0
 70
     128
 71
-28
 72
33
 73
-34
  0
VERTEX
  8
Layer0
10
0.0
 20
 0.0
 30
0.0
 70
     128
 71
-28
 72
34
 73
-35
  0
VERTEX
  8
Layer0
10
0.0
 20
 0.0
 30
0.0
 70
     128
 71
-28
 72
35
 73
-36
  0
VERTEX
  8
Layer0
10
0.0
 20
 0.0
 30
0.0
 70
     128
 71
-28
 72
36
 73
-37
  0
VERTEX
  8
Layer0
10
0.0
 20
 0.0
 30
0.0
 70
     128
 71
-28
 72
37
 73
-38
  0
VERTEX
  8
Layer0
10
0.0
 20
 0.0
 30
0.0
 70
     128
 71
-28
 72
38
 73
-39
  0
VERTEX
  8
Layer0
10
0.0
 20
 0.0
 30
0.0
 70
     128
 71
-28
 72
39
 73
-40
  0
VERTEX
  8
Layer0
10
0.0
 20
 0.0
 30
0.0
 70
     128
 71
-28
 72
-40
 73
41
  0
VERTEX
  8
Layer0
10
0.0
 20
 0.0
 30
0.0
 70
     128
 71
-42
 72
43
 73
44
  0
VERTEX
  8
Layer0
10
0.0
 20
 0.0
 30
0.0
 70
     128
 71
-43
 72
-42
 73
-45
  0
VERTEX
  8
Layer0
10
0.0
 20
 0.0
 30
0.0
 70
     128
 71
-43
 72
-45
 73
-46
  0
VERTEX
  8
Layer0
10
0.0
 20
 0.0
 30
0.0
 70
     128
 71
-46
 72
-45
 73
47
  0
VERTEX
  8
Layer0
10
0.0
 20
 0.0
 30
0.0
 70
     128
 71
-47
 72
-45
 73
48
  0
VERTEX
  8
Layer0
10
0.0
 20
 0.0
 30
0.0
 70
     128
 71
-45
 72
-42
 73
49
  0
VERTEX
  8
Layer0
10
0.0
 20
 0.0
 30
0.0
 70
     128
 71
-49
 72
42
 73
50
  0
VERTEX
  8
Layer0
10
0.0
 20
 0.0
 30
0.0
 70
     128
 71
-51
 72
52
 73
53
  0
VERTEX
  8
Layer0
10
0.0
 20
 0.0
 30
0.0
 70
     128
 71
-52
 72
-51
 73
54
  0
VERTEX
  8
Layer0
10
0.0
 20
 0.0
 30
0.0
 70
     128
 71
-54
 72
-51
 73
55
  0
VERTEX
  8
Layer0
10
0.0
 20
 0.0
 30
0.0
 70
     128
 71
56
 72
-57
 73
51
  0
VERTEX
  8
Layer0
10
0.0
 20
 0.0
 30
0.0
 70
     128
 71
-58
 72
-41
 73
40
  0
VERTEX
  8
Layer0
10
0.0
 20
 0.0
 30
0.0
 70
     128
 71
-41
 72
-58
 73
59
  0
VERTEX
  8
Layer0
10
0.0
 20
 0.0
 30
0.0
 70
     128
 71
-59
 72
58
 73
-60
  0
VERTEX
  8
Layer0
10
0.0
 20
 0.0
 30
0.0
 70
     128
 71
-59
 72
60
 73
-61
  0
VERTEX
  8
Layer0
10
0.0
 20
 0.0
 30
0.0
 70
     128
 71
-59
 72
61
 73
-62
  0
VERTEX
  8
Layer0
10
0.0
 20
 0.0
 30
0.0
 70
     128
 71
-59
 72
62
 73
-63
  0
VERTEX
  8
Layer0
10
0.0
 20
 0.0
 30
0.0
 70
     128
 71
-59
 72
63
 73
-64
  0
VERTEX
  8
Layer0
10
0.0
 20
 0.0
 30
0.0
 70
     128
 71
-59
 72
64
 73
-65
  0
VERTEX
  8
Layer0
10
0.0
 20
 0.0
 30
0.0
 70
     128
 71
-59
 72
-65
 73
66
  0
VERTEX
  8
Layer0
10
0.0
 20
 0.0
 30
0.0
 70
     128
 71
-66
 72
-65
 73
67
  0
VERTEX
  8
Layer0
10
0.0
 20
 0.0
 30
0.0
 70
     128
 71
-67
 72
-65
 73
68
  0
VERTEX
  8
Layer0
10
0.0
 20
 0.0
 30
0.0
 70
     128
 71
-68
 72
65
 73
-69
  0
VERTEX
  8
Layer0
10
0.0
 20
 0.0
 30
0.0
 70
     128
 71
-68
 72
69
 73
-70
  0
VERTEX
  8
Layer0
10
0.0
 20
 0.0
 30
0.0
 70
     128
 71
-68
 72
70
 73
-71
  0
VERTEX
  8
Layer0
10
0.0
 20
 0.0
 30
0.0
 70
     128
 71
-68
 72
-71
 73
72
  0
VERTEX
  8
Layer0
10
0.0
 20
 0.0
 30
0.0
 70
     128
 71
-72
 72
71
 73
-73
  0
VERTEX
  8
Layer0
10
0.0
 20
 0.0
 30
0.0
 70
     128
 71
-72
 72
73
 73
-74
  0
VERTEX
  8
Layer0
10
0.0
 20
 0.0
 30
0.0
 70
     128
 71
-72
 72
-74
 73
75
  0
VERTEX
  8
Layer0
10
0.0
 20
 0.0
 30
0.0
 70
     128
 71
-75
 72
74
 73
-76
  0
VERTEX
  8
Layer0
10
0.0
 20
 0.0
 30
0.0
 70
     128
 71
-75
 72
-76
 73
77
  0
VERTEX
  8
Layer0
10
0.0
 20
 0.0
 30
0.0
 70
     128
 71
-77
 72
-76
 73
-78
  0
VERTEX
  8
Layer0
10
0.0
 20
 0.0
 30
0.0
 70
     128
 71
-78
 72
76
 73
79
  0
VERTEX
  8
Layer0
10
0.0
 20
 0.0
 30
0.0
 70
     128
 71
-48
 72
-80
 73
81
  0
VERTEX
  8
Layer0
10
0.0
 20
 0.0
 30
0.0
 70
     128
 71
-80
 72
-48
 73
45
  0
VERTEX
  8
Layer0
10
0.0
 20
 0.0
 30
0.0
 70
     128
 71
-81
 72
80
 73
-55
  0
VERTEX
  8
Layer0
10
0.0
 20
 0.0
 30
0.0
 70
     128
 71
-81
 72
-55
 73
-57
  0
VERTEX
  8
Layer0
10
0.0
 20
 0.0
 30
0.0
 70
     128
 71
-57
 72
-55
 73
-51
  0
VERTEX
  8
Layer0
10
0.0
 20
 0.0
 30
0.0
 70
     128
 71
-81
 72
57
 73
-82
  0
VERTEX
  8
Layer0
10
0.0
 20
 0.0
 30
0.0
 70
     128
 71
-81
 72
82
 73
-83
  0
VERTEX
  8
Layer0
10
0.0
 20
 0.0
 30
0.0
 70
     128
 71
-81
 72
83
 73
-84
  0
VERTEX
  8
Layer0
10
0.0
 20
 0.0
 30
0.0
 70
     128
 71
-81
 72
-84
 73
85
  0
VERTEX
  8
Layer0
10
0.0
 20
 0.0
 30
0.0
 70
     128
 71
-85
 72
84
 73
-86
  0
VERTEX
  8
Layer0
10
0.0
 20
 0.0
 30
0.0
 70
     128
 71
-85
 72
-86
 73
87
  0
VERTEX
  8
Layer0
10
0.0
 20
 0.0
 30
0.0
 70
     128
 71
-87
 72
86
 73
-88
  0
VERTEX
  8
Layer0
10
0.0
 20
 0.0
 30
0.0
 70
     128
 71
-87
 72
88
 73
-89
  0
VERTEX
  8
Layer0
10
0.0
 20
 0.0
 30
0.0
 70
     128
 71
-87
 72
-89
 73
90
  0
VERTEX
  8
Layer0
10
0.0
 20
 0.0
 30
0.0
 70
     128
 71
-90
 72
89
 73
-91
  0
VERTEX
  8
Layer0
10
0.0
 20
 0.0
 30
0.0
 70
     128
 71
-90
 72
91
 73
-92
  0
VERTEX
  8
Layer0
10
0.0
 20
 0.0
 30
0.0
 70
     128
 71
-90
 72
-92
 73
78
  0
VERTEX
  8
Layer0
10
0.0
 20
 0.0
 30
0.0
 70
     128
 71
-78
 72
92
 73
-77
  0
VERTEX
  8
Layer0
10
0.0
 20
 0.0
 30
0.0
 70
     128
 71
-24
 72
-93
 73
94
  0
VERTEX
  8
Layer0
10
0.0
 20
 0.0
 30
0.0
 70
     128
 71
-93
 72
-24
 73
-26
  0
VERTEX
  8
Layer0
10
0.0
 20
 0.0
 30
0.0
 70
     128
 71
-93
 72
26
 73
95
  0
VERTEX
  8
Layer0
10
0.0
 20
 0.0
 30
0.0
 70
     128
 71
-94
 72
93
 73
-43
  0
VERTEX
  8
Layer0
10
0.0
 20
 0.0
 30
0.0
 70
     128
 71
-94
 72
-43
 73
96
  0
VERTEX
  8
Layer0
10
0.0
 20
 0.0
 30
0.0
 70
     128
 71
-96
 72
-43
 73
97
  0
VERTEX
  8
Layer0
10
0.0
 20
 0.0
 30
0.0
 70
     128
 71
-97
 72
-43
 73
98
  0
VERTEX
  8
Layer0
10
0.0
 20
 0.0
 30
0.0
 70
     128
 71
-98
 72
-43
 73
99
  0
VERTEX
  8
Layer0
10
0.0
 20
 0.0
 30
0.0
 70
     128
 71
-99
 72
-43
 73
100
  0
VERTEX
  8
Layer0
10
0.0
 20
 0.0
 30
0.0
 70
     128
 71
-100
 72
-43
 73
101
  0
VERTEX
  8
Layer0
10
0.0
 20
 0.0
 30
0.0
 70
     128
 71
-101
 72
-43
 73
102
  0
VERTEX
  8
Layer0
10
0.0
 20
 0.0
 30
0.0
 70
     128
 71
-102
 72
-43
 73
103
  0
VERTEX
  8
Layer0
10
0.0
 20
 0.0
 30
0.0
 70
     128
 71
-103
 72
-43
 73
46
  0
SEQEND
 0
ENDSEC
 0
EOF
