 0
SECTION
 2
ENTITIES
  0
LINE
 8
Layer0
10
82.91088926627128
20
94.35043829082113
30
9.700684699964768e-13
11
87.80617924788773
21
90.64426825717516
31
9.700684699964768e-13
  0
LINE
 8
Layer0
10
87.80617924788773
20
90.64426825717516
30
9.700684699964768e-13
11
93.22250059701724
21
87.32674990556123
31
9.700684699964768e-13
  0
LINE
 8
Layer0
10
93.22250059701724
20
87.32674990556123
30
9.700684699964768e-13
11
99.09944670072686
21
84.43488252646135
31
9.700684699964768e-13
  0
LINE
 8
Layer0
10
99.09944670072686
20
84.43488252646135
30
9.700684699964768e-13
11
105.37147373588104
21
82.00091825231057
31
9.700684699964768e-13
  0
LINE
 8
Layer0
10
105.37147373588104
20
82.00091825231057
30
9.700684699964768e-13
11
111.96863165982039
21
80.05200235908305
31
9.700684699964768e-13
  0
LINE
 8
Layer0
10
111.96863165982039
20
80.05200235908305
30
9.700684699964768e-13
11
118.81734434227198
21
78.60987052316047
31
9.700684699964768e-13
  0
LINE
 8
Layer0
10
118.81734434227198
20
78.60987052316047
30
9.700684699964768e-13
11
125.84123013793823
21
77.69060640981897
31
9.700684699964768e-13
  0
LINE
 8
Layer0
10
125.84123013793823
20
77.69060640981897
30
9.700684699964768e-13
11
132.96195374815056
21
77.30446229693835
31
9.700684699964768e-13
  0
LINE
 8
Layer0
10
132.96195374815056
20
77.30446229693835
30
9.700684699964768e-13
11
140.1000998710412
21
77.45574473434729
31
9.700684699964768e-13
  0
LINE
 8
Layer0
10
140.1000998710412
20
77.45574473434729
30
9.700684699964768e-13
11
143.46996940255656
21
77.7021362282722
31
9.700684699964768e-13
  0
LINE
 8
Layer0
10
143.46996940255656
20
77.7021362282722
30
9.700684699964768e-13
11
146.8236398758363
21
78.04279254758366
31
9.700684699964768e-13
  0
LINE
 8
Layer0
10
146.8236398758363
20
78.04279254758366
30
9.700684699964768e-13
11
150.15592352509358
21
78.47718673376606
31
9.700684699964768e-13
  0
LINE
 8
Layer0
10
150.15592352509358
20
78.47718673376606
30
9.700684699964768e-13
11
153.4616656676507
21
79.00464682595597
31
9.700684699964768e-13
  0
LINE
 8
Layer0
10
153.4616656676507
20
79.00464682595597
30
9.700684699964768e-13
11
156.73575267767032
21
79.62435690039243
31
9.700684699964768e-13
  0
LINE
 8
Layer0
10
156.73575267767032
20
79.62435690039243
30
9.700684699964768e-13
11
159.97311989638237
21
80.33535833256785
31
9.700684699964768e-13
  0
LINE
 8
Layer0
10
159.97311989638237
20
80.33535833256785
30
9.700684699964768e-13
11
167.6271461486775
21
81.46632700403735
31
9.700684699964768e-13
  0
LINE
 8
Layer0
10
167.6271461486775
20
81.46632700403735
30
9.700684699964768e-13
11
174.8570172484735
21
83.7679483307036
31
9.700684699964768e-13
  0
LINE
 8
Layer0
10
174.8570172484735
20
83.7679483307036
30
9.700684699964768e-13
11
182.18717585607186
21
85.72684384564802
31
9.700684699964768e-13
  0
LINE
 8
Layer0
10
182.18717585607186
20
85.72684384564802
30
9.700684699964768e-13
11
189.56069839757131
21
87.33502878736313
31
9.700684699964768e-13
  0
LINE
 8
Layer0
10
189.56069839757131
20
87.33502878736313
30
9.700684699964768e-13
11
196.95779787314916
21
88.58801114771192
31
9.700684699964768e-13
  0
LINE
 8
Layer0
10
196.95779787314916
20
88.58801114771192
30
9.700684699964768e-13
11
201.85887582975627
21
89.17978910012465
31
9.700684699964768e-13
  0
LINE
 8
Layer0
10
201.85887582975627
20
89.17978910012465
30
9.700684699964768e-13
11
204.41690038156568
21
89.48865636257062
31
9.700684699964768e-13
  0
LINE
 8
Layer0
10
204.41690038156568
20
89.48865636257062
30
9.700684699964768e-13
11
211.93525880970424
21
90.03644444619448
31
9.700684699964768e-13
  0
LINE
 8
Layer0
10
211.93525880970424
20
90.03644444619448
30
9.700684699964768e-13
11
219.50614112532864
21
90.2317474066008
31
9.700684699964768e-13
  0
LINE
 8
Layer0
10
127.7318778326356
20
142.99185942799878
30
9.700684699964768e-13
11
127.7318778326356
21
102.99185942799875
31
9.700684699964768e-13
  0
LINE
 8
Layer0
10
127.7318778326356
20
143.85584203683143
30
9.700684699964768e-13
11
127.7318778326356
21
142.99185942799878
31
9.700684699964768e-13
  0
LINE
 8
Layer0
10
199.7331778326357
20
143.85584203683143
30
9.700684699964768e-13
11
127.7318778326356
21
143.85584203683143
31
9.700684699964768e-13
  0
LINE
 8
Layer0
10
199.7330882960115
20
127.87896581215244
30
9.475087381360936e-13
11
199.7331778326357
21
143.85584203683143
31
9.700684699964768e-13
  0
LINE
 8
Layer0
10
239.7330882960114
20
127.87896581215261
30
9.475087381360936e-13
11
199.7330882960115
21
127.87896581215244
31
9.475087381360936e-13
  0
LINE
 8
Layer0
10
244.89921140273768
20
127.87896345460803
30
9.700684699964768e-13
11
239.7330882960114
21
127.87896581215261
31
9.475087381360936e-13
  0
LINE
 8
Layer0
10
244.89921140273768
20
127.87896345460803
30
9.700684699964768e-13
11
244.89918484134182
21
138.69300280474357
31
9.700684699964768e-13
  0
LINE
 8
Layer0
10
244.89918484134182
20
138.69300280474357
30
9.700684699964768e-13
11
215.33860364564114
21
138.69300280474357
31
9.700684699964768e-13
  0
LINE
 8
Layer0
10
215.33860364564114
20
138.69300280474357
30
9.700684699964768e-13
11
215.33860364564114
21
153.1930028047436
31
9.700684699964768e-13
  0
LINE
 8
Layer0
10
256.838630207665
20
153.1930028047436
30
9.700684699964768e-13
11
215.33860364564114
21
153.1930028047436
31
9.700684699964768e-13
  0
LINE
 8
Layer0
10
256.838630207665
20
138.69300280474357
30
9.700684699964768e-13
11
256.838630207665
21
153.1930028047436
31
9.700684699964768e-13
  0
LINE
 8
Layer0
10
256.838630207665
20
138.69300280474357
30
9.700684699964768e-13
11
247.67819399853326
21
138.69300280474357
31
9.700684699964768e-13
  0
LINE
 8
Layer0
10
247.67819399853326
20
131.88616875321625
30
9.700684699964768e-13
11
247.67819399853326
21
138.69300280474357
31
9.700684699964768e-13
  0
LINE
 8
Layer0
10
264.8521087668648
20
131.24369419343017
30
9.700684699964768e-13
11
247.67819399853326
21
131.88616875321625
31
9.700684699964768e-13
  0
LINE
 8
Layer0
10
274.33713433002777
20
146.42731516741546
30
9.700684699964768e-13
11
264.8521087668648
21
131.24369419343017
31
9.700684699964768e-13
  0
LINE
 8
Layer0
10
272.70325140651255
20
147.44798219561136
30
6.767919558114954e-13
11
274.33713433002777
21
146.42731516741546
31
9.700684699964768e-13
  0
LINE
 8
Layer0
10
272.70325140651255
20
147.44798219561136
30
6.767919558114954e-13
11
278.2158989013542
21
149.8859968382493
31
9.475087381360936e-13
  0
LINE
 8
Layer0
10
278.2158989013542
20
149.8859968382493
30
9.475087381360936e-13
11
284.6643725583678
21
150.89093695261963
31
0.0
  0
LINE
 8
Layer0
10
284.6643725583678
20
150.89093695261963
30
0.0
11
291.1532174446087
21
150.19264676868633
31
1.0151879337172431e-12
  0
LINE
 8
Layer0
10
291.1532174446087
20
150.19264676868633
30
1.0151879337172431e-12
11
297.2402295044016
21
147.83871360850773
31
9.475087381360936e-13
  0
LINE
 8
Layer0
10
297.2402295044016
20
147.83871360850773
30
9.475087381360936e-13
11
302.5105889251365
21
143.98955412688892
31
9.700684699964768e-13
  0
LINE
 8
Layer0
10
302.5105889251365
20
143.98955412688892
30
9.700684699964768e-13
11
305.75476709302274
21
139.96293700935996
31
8.79829542554944e-13
  0
LINE
 8
Layer0
10
305.75476709302274
20
139.96293700935996
30
8.79829542554944e-13
11
306.6051294219688
21
138.90748218146467
31
7.219114195322617e-13
  0
LINE
 8
Layer0
10
306.6051294219688
20
138.90748218146467
30
7.219114195322617e-13
11
309.24481482659087
21
132.93883257679866
31
8.572698106945608e-13
  0
LINE
 8
Layer0
10
309.24481482659087
20
132.93883257679866
30
8.572698106945608e-13
11
310.2497549409614
21
126.49035891978426
31
6.767919558114954e-13
  0
LINE
 8
Layer0
10
310.2497549409614
20
126.49035891978426
30
6.767919558114954e-13
11
309.99794643444795
21
124.15043437638947
31
8.347100788341777e-13
  0
LINE
 8
Layer0
10
309.99794643444795
20
124.15043437638947
30
8.347100788341777e-13
11
305.5136868984329
21
126.95169742186594
31
9.700684699964768e-13
  0
LINE
 8
Layer0
10
305.5136868984329
20
126.95169742186594
30
9.700684699964768e-13
11
295.88326085777896
21
111.53531948534166
31
9.700684699964768e-13
  0
LINE
 8
Layer0
10
241.9701790816731
20
113.4260690141633
30
9.700684699964768e-13
11
295.88326085777896
21
111.53531948534166
31
9.700684699964768e-13
  0
LINE
 8
Layer0
10
241.9701790816731
20
113.4260690141633
30
9.700684699964768e-13
11
239.7330882960114
21
113.4260690141633
31
9.475087381360936e-13
  0
LINE
 8
Layer0
10
239.7330882960114
20
95.87896581215267
30
9.475087381360936e-13
11
239.7330882960114
21
113.4260690141633
31
9.475087381360936e-13
  0
LINE
 8
Layer0
10
199.7330882960115
20
95.87896581215259
30
9.475087381360936e-13
11
239.7330882960114
21
95.87896581215267
31
9.475087381360936e-13
  0
LINE
 8
Layer0
10
199.7330882960115
20
102.99185942799875
30
9.475087381360936e-13
11
199.7330882960115
21
95.87896581215259
31
9.475087381360936e-13
  0
LINE
 8
Layer0
10
127.7318778326356
20
102.99185942799875
30
9.700684699964768e-13
11
199.7330882960115
21
102.99185942799875
31
9.475087381360936e-13
  0
LINE
 8
Layer0
10
219.50614112532864
20
90.2317474066008
30
9.700684699964768e-13
11
222.50183502761968
21
90.16799522566451
31
9.700684699964768e-13
  0
LINE
 8
Layer0
10
222.50183502761968
20
90.16799522566451
30
9.700684699964768e-13
11
232.45613932985782
21
90.07061227432455
31
9.700684699964768e-13
  0
LINE
 8
Layer0
10
232.45613932985782
20
90.07061227432455
30
9.700684699964768e-13
11
273.69729756782516
21
90.07061227432436
31
9.700684699964768e-13
  0
LINE
 8
Layer0
10
273.69729756782516
20
90.07061227432436
30
9.700684699964768e-13
11
282.2809190196591
21
91.55304273678446
31
9.700684699964768e-13
  0
LINE
 8
Layer0
10
282.2809190196591
20
91.55304273678446
30
9.700684699964768e-13
11
290.61683847918295
21
93.99022289870221
31
9.700684699964768e-13
  0
LINE
 8
Layer0
10
290.61683847918295
20
93.99022289870221
30
9.700684699964768e-13
11
298.1015733038349
21
98.03597971160885
31
9.700684699964768e-13
  0
LINE
 8
Layer0
10
298.1015733038349
20
98.03597971160885
30
9.700684699964768e-13
11
304.34071487956163
21
103.47712174324022
31
9.700684699964768e-13
  0
LINE
 8
Layer0
10
304.34071487956163
20
103.47712174324022
30
9.700684699964768e-13
11
309.0054912138471
21
110.02692764169569
31
9.700684699964768e-13
  0
LINE
 8
Layer0
10
309.0054912138471
20
110.02692764169569
30
9.700684699964768e-13
11
311.8500915983586
21
117.34025493669517
31
9.700684699964768e-13
  0
LINE
 8
Layer0
10
311.8500915983586
20
117.34025493669517
30
9.700684699964768e-13
11
312.7246196210797
21
125.03172734569911
31
9.700684699964768e-13
  0
LINE
 8
Layer0
10
312.7246196210797
20
125.03172734569911
30
9.700684699964768e-13
11
311.582991967965
21
132.69604220349078
31
9.700684699964768e-13
  0
LINE
 8
Layer0
10
311.582991967965
20
132.69604220349078
30
9.700684699964768e-13
11
308.48536678636816
21
139.92932791387273
31
9.700684699964768e-13
  0
LINE
 8
Layer0
10
308.48536678636816
20
139.92932791387273
30
9.700684699964768e-13
11
303.5949736473167
21
146.35042599108442
31
9.700684699964768e-13
  0
LINE
 8
Layer0
10
303.5949736473167
20
146.35042599108442
30
9.700684699964768e-13
11
297.1695121521214
21
151.62097623230778
31
9.700684699964768e-13
  0
LINE
 8
Layer0
10
297.1695121521214
20
151.62097623230778
30
9.700684699964768e-13
11
289.5475724342009
21
155.46324663170915
31
9.700684699964768e-13
  0
LINE
 8
Layer0
10
289.5475724342009
20
155.46324663170915
30
9.700684699964768e-13
11
209.71701123251128
21
155.50202678116202
31
9.700684699964768e-13
  0
LINE
 8
Layer0
10
209.71701123251128
20
155.50202678116202
30
9.700684699964768e-13
11
207.83749081553387
21
155.90667039982847
31
9.700684699964768e-13
  0
LINE
 8
Layer0
10
207.83749081553387
20
155.90667039982847
30
9.700684699964768e-13
11
203.812471989157
21
156.10576822376777
31
9.700684699964768e-13
  0
LINE
 8
Layer0
10
203.812471989157
20
156.10576822376777
30
9.700684699964768e-13
11
197.48952611973627
21
156.58286829973497
31
9.700684699964768e-13
  0
LINE
 8
Layer0
10
197.48952611973627
20
156.58286829973497
30
9.700684699964768e-13
11
194.56244288120843
21
156.89467831084534
31
9.700684699964768e-13
  0
LINE
 8
Layer0
10
194.56244288120843
20
156.89467831084534
30
9.700684699964768e-13
11
191.19404507479726
21
157.19567278437518
31
9.700684699964768e-13
  0
LINE
 8
Layer0
10
191.19404507479726
20
157.19567278437518
30
9.700684699964768e-13
11
188.732038178746
21
157.51458196975975
31
9.700684699964768e-13
  0
LINE
 8
Layer0
10
188.732038178746
20
157.51458196975975
30
9.700684699964768e-13
11
184.91346161740304
21
157.9327095733412
31
9.700684699964768e-13
  0
LINE
 8
Layer0
10
184.91346161740304
20
157.9327095733412
30
9.700684699964768e-13
11
167.1631491202614
21
157.93270957333976
31
9.700684699964768e-13
  0
LINE
 8
Layer0
10
167.1631491202614
20
157.93270957333976
30
9.700684699964768e-13
11
156.57374172796193
21
157.52983198236103
31
9.700684699964768e-13
  0
LINE
 8
Layer0
10
156.57374172796193
20
157.52983198236103
30
9.700684699964768e-13
11
146.10466150515816
21
156.32577709734898
31
9.700684699964768e-13
  0
LINE
 8
Layer0
10
146.10466150515816
20
156.32577709734898
30
9.700684699964768e-13
11
135.87486834674615
21
154.33422656363496
31
9.700684699964768e-13
  0
LINE
 8
Layer0
10
135.87486834674615
20
154.33422656363496
30
9.700684699964768e-13
11
126.00060313473607
21
151.57781031977692
31
9.700684699964768e-13
  0
LINE
 8
Layer0
10
126.00060313473607
20
151.57781031977692
30
9.700684699964768e-13
11
116.59406689604677
21
148.08784945412356
31
9.700684699964768e-13
  0
LINE
 8
Layer0
10
116.59406689604677
20
148.08784945412356
30
9.700684699964768e-13
11
107.76214586503849
21
143.90400030410095
31
9.700684699964768e-13
  0
LINE
 8
Layer0
10
107.76214586503849
20
143.90400030410095
30
9.700684699964768e-13
11
99.60519693794308
21
139.07380384222398
31
9.700684699964768e-13
  0
LINE
 8
Layer0
10
99.60519693794308
20
139.07380384222398
30
9.700684699964768e-13
11
92.21590731998657
21
133.65214546923613
31
9.700684699964768e-13
  0
LINE
 8
Layer0
10
92.21590731998657
20
133.65214546923613
30
9.700684699964768e-13
11
85.67824132301462
21
127.70063135266996
31
9.700684699964768e-13
  0
LINE
 8
Layer0
10
85.67824132301462
20
127.70063135266996
30
9.700684699964768e-13
11
83.31544021077318
21
125.0001572809238
31
9.700684699964768e-13
  0
LINE
 8
Layer0
10
83.31544021077318
20
125.0001572809238
30
9.700684699964768e-13
11
81.60555967268039
21
122.61846652455658
31
9.700684699964768e-13
  0
LINE
 8
Layer0
10
81.60555967268039
20
122.61846652455658
30
9.700684699964768e-13
11
80.07725573801196
21
119.89902457535699
31
9.700684699964768e-13
  0
LINE
 8
Layer0
10
80.07725573801196
20
119.89902457535699
30
9.700684699964768e-13
11
78.90584069721851
21
117.09101760384152
31
9.700684699964768e-13
  0
LINE
 8
Layer0
10
78.90584069721851
20
117.09101760384152
30
9.700684699964768e-13
11
78.10121839545968
21
114.21818618469099
31
9.700684699964768e-13
  0
LINE
 8
Layer0
10
78.10121839545968
20
114.21818618469099
30
9.700684699964768e-13
11
77.67019159214553
21
111.30481895734513
31
9.700684699964768e-13
  0
LINE
 8
Layer0
10
77.67019159214553
20
111.30481895734513
30
9.700684699964768e-13
11
77.61640444632798
21
108.37554727527441
31
9.700684699964768e-13
  0
LINE
 8
Layer0
10
77.61640444632798
20
108.37554727527441
30
9.700684699964768e-13
11
77.94031170678706
21
105.4551369577364
31
9.700684699964768e-13
  0
LINE
 8
Layer0
10
77.94031170678706
20
105.4551369577364
30
9.700684699964768e-13
11
78.63917486732231
21
102.5682789047061
31
9.700684699964768e-13
  0
LINE
 8
Layer0
10
78.63917486732231
20
102.5682789047061
30
9.700684699964768e-13
11
79.7070853197168
21
99.7393803451969
31
9.700684699964768e-13
  0
LINE
 8
Layer0
10
79.7070853197168
20
99.7393803451969
30
9.700684699964768e-13
11
81.13501430866656
21
96.99235848390039
31
9.700684699964768e-13
  0
LINE
 8
Layer0
10
81.13501430866656
20
96.99235848390039
30
9.700684699964768e-13
11
82.91088926627128
21
94.35043829082113
31
9.700684699964768e-13
 0
ENDSEC
 0
EOF
