 0
SECTION
 2
ENTITIES
  0
LINE
 8
Layer0
10
179.2639458804673
20
51.7957408517868
30
5.00000000000097
11
182.25963978275834
21
51.73198867085051
31
5.00000000000097
  0
LINE
 8
Layer0
10
182.25963978275834
20
51.73198867085051
30
5.00000000000097
11
192.21394408499648
21
51.63460571951054
31
5.00000000000097
  0
LINE
 8
Layer0
10
192.21394408499648
20
51.63460571951054
30
5.00000000000097
11
233.45510232296382
21
51.63460571951036
31
5.00000000000097
  0
LINE
 8
Layer0
10
233.45510232296382
20
51.63460571951036
30
5.00000000000097
11
242.03872377479777
21
53.11703618197046
31
5.00000000000097
  0
LINE
 8
Layer0
10
242.03872377479777
20
53.11703618197046
30
5.00000000000097
11
250.37464323432158
21
55.55421634388822
31
5.00000000000097
  0
LINE
 8
Layer0
10
250.37464323432158
20
55.55421634388822
30
5.00000000000097
11
257.85937805897356
21
59.599973156794846
31
5.00000000000097
  0
LINE
 8
Layer0
10
257.85937805897356
20
59.599973156794846
30
5.00000000000097
11
264.09851963470027
21
65.04111518842622
31
5.00000000000097
  0
LINE
 8
Layer0
10
264.09851963470027
20
65.04111518842622
30
5.00000000000097
11
268.76329596898574
21
71.59092108688169
31
5.00000000000097
  0
LINE
 8
Layer0
10
268.76329596898574
20
71.59092108688169
30
5.00000000000097
11
271.6078963534972
21
78.90424838188117
31
5.00000000000097
  0
LINE
 8
Layer0
10
271.6078963534972
20
78.90424838188117
30
5.00000000000097
11
272.4824243762183
21
86.59572079088511
31
5.00000000000097
  0
LINE
 8
Layer0
10
272.4824243762183
20
86.59572079088511
30
5.00000000000097
11
271.3407967231036
21
94.26003564867678
31
5.00000000000097
  0
LINE
 8
Layer0
10
271.3407967231036
20
94.26003564867678
30
5.00000000000097
11
268.24317154150685
21
101.49332135905873
31
5.00000000000097
  0
LINE
 8
Layer0
10
268.24317154150685
20
101.49332135905873
30
5.00000000000097
11
263.35277840245533
21
107.9144194362704
31
5.00000000000097
  0
LINE
 8
Layer0
10
263.35277840245533
20
107.9144194362704
30
5.00000000000097
11
256.9273169072601
21
113.18496967749377
31
5.00000000000097
  0
LINE
 8
Layer0
10
256.9273169072601
20
113.18496967749377
30
5.00000000000097
11
249.30537718933957
21
117.02724007689515
31
5.00000000000097
  0
LINE
 8
Layer0
10
249.30537718933957
20
117.02724007689515
30
5.00000000000097
11
169.47481598764995
21
117.066020226348
31
5.00000000000097
  0
LINE
 8
Layer0
10
169.47481598764995
20
117.066020226348
30
5.00000000000097
11
167.59529557067253
21
117.47066384501447
31
5.00000000000097
  0
LINE
 8
Layer0
10
167.59529557067253
20
117.47066384501447
30
5.00000000000097
11
163.57027674429568
21
117.66976166895375
31
5.00000000000097
  0
LINE
 8
Layer0
10
163.57027674429568
20
117.66976166895375
30
5.00000000000097
11
157.24733087487493
21
118.14686174492097
31
5.00000000000097
  0
LINE
 8
Layer0
10
157.24733087487493
20
118.14686174492097
30
5.00000000000097
11
154.3202476363471
21
118.45867175603134
31
5.00000000000097
  0
LINE
 8
Layer0
10
154.3202476363471
20
118.45867175603134
30
5.00000000000097
11
150.95184982993592
21
118.75966622956118
31
5.00000000000097
  0
LINE
 8
Layer0
10
150.95184982993592
20
118.75966622956118
30
5.00000000000097
11
148.48984293388466
21
119.07857541494575
31
5.00000000000097
  0
LINE
 8
Layer0
10
148.48984293388466
20
119.07857541494575
30
5.00000000000097
11
144.6712663725417
21
119.4967030185272
31
5.00000000000097
  0
LINE
 8
Layer0
10
144.6712663725417
20
119.4967030185272
30
5.00000000000097
11
126.92095387540009
21
119.49670301852575
31
5.00000000000097
  0
LINE
 8
Layer0
10
126.92095387540009
20
119.49670301852575
30
5.00000000000097
11
116.33154648310061
21
119.09382542754705
31
5.00000000000097
  0
LINE
 8
Layer0
10
116.33154648310061
20
119.09382542754705
30
5.00000000000097
11
105.86246626029683
21
117.88977054253496
31
5.00000000000097
  0
LINE
 8
Layer0
10
105.86246626029683
20
117.88977054253496
30
5.00000000000097
11
95.63267310188482
21
115.89822000882096
31
5.00000000000097
  0
LINE
 8
Layer0
10
95.63267310188482
20
115.89822000882096
30
5.00000000000097
11
85.75840788987473
21
113.14180376496292
31
5.00000000000097
  0
LINE
 8
Layer0
10
85.75840788987473
20
113.14180376496292
30
5.00000000000097
11
76.35187165118543
21
109.65184289930957
31
5.00000000000097
  0
LINE
 8
Layer0
10
76.35187165118543
20
109.65184289930957
30
5.00000000000097
11
67.51995062017717
21
105.46799374928693
31
5.00000000000097
  0
LINE
 8
Layer0
10
67.51995062017717
20
105.46799374928693
30
5.00000000000097
11
59.36300169308174
21
100.63779728740998
31
5.00000000000097
  0
LINE
 8
Layer0
10
59.36300169308174
20
100.63779728740998
30
5.00000000000097
11
51.973712075125235
21
95.21613891442212
31
5.00000000000097
  0
LINE
 8
Layer0
10
51.973712075125235
20
95.21613891442212
30
5.00000000000097
11
45.43604607815328
21
89.26462479785596
31
5.00000000000097
  0
LINE
 8
Layer0
10
45.43604607815328
20
89.26462479785596
30
5.00000000000097
11
43.07324496591184
21
86.5641507261098
31
5.00000000000097
  0
LINE
 8
Layer0
10
43.07324496591184
20
86.5641507261098
30
5.00000000000097
11
41.36336442781906
21
84.18245996974258
31
5.00000000000097
  0
LINE
 8
Layer0
10
41.36336442781906
20
84.18245996974258
30
5.00000000000097
11
39.83506049315062
21
81.46301802054299
31
5.00000000000097
  0
LINE
 8
Layer0
10
39.83506049315062
20
81.46301802054299
30
5.00000000000097
11
38.66364545235717
21
78.65501104902752
31
5.00000000000097
  0
LINE
 8
Layer0
10
38.66364545235717
20
78.65501104902752
30
5.00000000000097
11
37.859023150598354
21
75.78217962987699
31
5.00000000000097
  0
LINE
 8
Layer0
10
37.859023150598354
20
75.78217962987699
30
5.00000000000097
11
37.42799634728419
21
72.86881240253113
31
5.00000000000097
  0
LINE
 8
Layer0
10
37.42799634728419
20
72.86881240253113
30
5.00000000000097
11
37.37420920146664
21
69.93954072046041
31
5.00000000000097
  0
LINE
 8
Layer0
10
37.37420920146664
20
69.93954072046041
30
5.00000000000097
11
37.69811646192572
21
67.0191304029224
31
5.00000000000097
  0
LINE
 8
Layer0
10
37.69811646192572
20
67.0191304029224
30
5.00000000000097
11
38.396979622460975
21
64.1322723498921
31
5.00000000000097
  0
LINE
 8
Layer0
10
38.396979622460975
20
64.1322723498921
30
5.00000000000097
11
39.46489007485546
21
61.3033737903829
31
5.00000000000097
  0
LINE
 8
Layer0
10
39.46489007485546
20
61.3033737903829
30
5.00000000000097
11
40.89281906380523
21
58.5563519290864
31
5.00000000000097
  0
LINE
 8
Layer0
10
40.89281906380523
20
58.5563519290864
30
5.00000000000097
11
42.668694021409955
21
55.91443173600714
31
5.00000000000097
  0
LINE
 8
Layer0
10
42.668694021409955
20
55.91443173600714
30
5.00000000000097
11
47.5639840030264
21
52.208261702361156
31
5.00000000000097
  0
LINE
 8
Layer0
10
47.5639840030264
20
52.208261702361156
30
5.00000000000097
11
52.980305352155916
21
48.89074335074722
31
5.00000000000097
  0
LINE
 8
Layer0
10
52.980305352155916
20
48.89074335074722
30
5.00000000000097
11
58.85725145586554
21
45.998875971647344
31
5.00000000000097
  0
LINE
 8
Layer0
10
58.85725145586554
20
45.998875971647344
30
5.00000000000097
11
65.1292784910197
21
43.564911697496576
31
5.00000000000097
  0
LINE
 8
Layer0
10
65.1292784910197
20
43.564911697496576
30
5.00000000000097
11
71.72643641495907
21
41.615995804269055
31
5.00000000000097
  0
LINE
 8
Layer0
10
71.72643641495907
20
41.615995804269055
30
5.00000000000097
11
78.57514909741064
21
40.17386396834646
31
5.00000000000097
  0
LINE
 8
Layer0
10
78.57514909741064
20
40.17386396834646
30
5.00000000000097
11
85.5990348930769
21
39.25459985500497
31
5.00000000000097
  0
LINE
 8
Layer0
10
85.5990348930769
20
39.25459985500497
30
5.00000000000097
11
92.71975850328921
21
38.868455742124354
31
5.00000000000097
  0
LINE
 8
Layer0
10
92.71975850328921
20
38.868455742124354
30
5.00000000000097
11
99.85790462617986
21
39.01973817953329
31
5.00000000000097
  0
LINE
 8
Layer0
10
99.85790462617986
20
39.01973817953329
30
5.00000000000097
11
103.22777415769522
21
39.266129673458195
31
5.00000000000097
  0
LINE
 8
Layer0
10
103.22777415769522
20
39.266129673458195
30
5.00000000000097
11
106.58144463097497
21
39.60678599276966
31
5.00000000000097
  0
LINE
 8
Layer0
10
106.58144463097497
20
39.60678599276966
30
5.00000000000097
11
109.91372828023226
21
40.041180178952054
31
5.00000000000097
  0
LINE
 8
Layer0
10
109.91372828023226
20
40.041180178952054
30
5.00000000000097
11
113.21947042278936
21
40.56864027114197
31
5.00000000000097
  0
LINE
 8
Layer0
10
113.21947042278936
20
40.56864027114197
30
5.00000000000097
11
116.493557432809
21
41.18835034557843
31
5.00000000000097
  0
LINE
 8
Layer0
10
116.493557432809
20
41.18835034557843
30
5.00000000000097
11
119.73092465152102
21
41.89935177775385
31
5.00000000000097
  0
LINE
 8
Layer0
10
119.73092465152102
20
41.89935177775385
30
5.00000000000097
11
127.38495090381615
21
43.030320449223346
31
5.00000000000097
  0
LINE
 8
Layer0
10
127.38495090381615
20
43.030320449223346
30
5.00000000000097
11
134.61482200361218
21
45.33194177588961
31
5.00000000000097
  0
LINE
 8
Layer0
10
134.61482200361218
20
45.33194177588961
30
5.00000000000097
11
141.94498061121053
21
47.29083729083402
31
5.00000000000097
  0
LINE
 8
Layer0
10
141.94498061121053
20
47.29083729083402
30
5.00000000000097
11
149.31850315270998
21
48.89902223254913
31
5.00000000000097
  0
LINE
 8
Layer0
10
149.31850315270998
20
48.89902223254913
30
5.00000000000097
11
156.71560262828783
21
50.152004592897924
31
5.00000000000097
  0
LINE
 8
Layer0
10
156.71560262828783
20
50.152004592897924
30
5.00000000000097
11
161.61668058489494
21
50.74378254531066
31
5.00000000000097
  0
LINE
 8
Layer0
10
161.61668058489494
20
50.74378254531066
30
5.00000000000097
11
164.17470513670435
21
51.05264980775663
31
5.00000000000097
  0
LINE
 8
Layer0
10
164.17470513670435
20
51.05264980775663
30
5.00000000000097
11
171.6930635648429
21
51.60043789138049
31
5.00000000000097
  0
LINE
 8
Layer0
10
171.6930635648429
20
51.60043789138049
30
5.00000000000097
11
179.2639458804673
21
51.7957408517868
31
5.00000000000097
  0
LINE
 8
Layer0
10
87.48968258777427
20
104.55585287318476
30
5.00000000000097
11
87.48968258777427
21
64.55585287318475
31
5.00000000000097
  0
LINE
 8
Layer0
10
87.48968258777427
20
105.41983548201742
30
5.00000000000097
11
87.48968258777427
21
104.55585287318476
31
5.00000000000097
  0
LINE
 8
Layer0
10
159.49098258777437
20
105.41983548201742
30
5.00000000000097
11
87.48968258777427
21
105.41983548201742
31
5.00000000000097
  0
LINE
 8
Layer0
10
159.49089305115015
20
89.44295925733843
30
5.000000000000948
11
159.49098258777437
21
105.41983548201742
31
5.00000000000097
  0
LINE
 8
Layer0
10
199.49089305115007
20
89.44295925733861
30
5.000000000000948
11
159.49089305115015
21
89.44295925733843
31
5.000000000000948
  0
LINE
 8
Layer0
10
204.65701615787634
20
89.44295689979403
30
5.00000000000097
11
199.49089305115007
21
89.44295925733861
31
5.000000000000948
  0
LINE
 8
Layer0
10
204.65701615787634
20
89.44295689979403
30
5.00000000000097
11
204.65698959648046
21
100.25699624992956
31
5.00000000000097
  0
LINE
 8
Layer0
10
204.65698959648046
20
100.25699624992956
30
5.00000000000097
11
175.0964084007798
21
100.25699624992956
31
5.00000000000097
  0
LINE
 8
Layer0
10
175.0964084007798
20
100.25699624992956
30
5.00000000000097
11
175.0964084007798
21
114.7569962499296
31
5.00000000000097
  0
LINE
 8
Layer0
10
216.59643496280364
20
114.7569962499296
30
5.00000000000097
11
175.0964084007798
21
114.7569962499296
31
5.00000000000097
  0
LINE
 8
Layer0
10
216.59643496280364
20
100.25699624992956
30
5.00000000000097
11
216.59643496280364
21
114.7569962499296
31
5.00000000000097
  0
LINE
 8
Layer0
10
216.59643496280364
20
100.25699624992956
30
5.00000000000097
11
207.4359987536719
21
100.25699624992956
31
5.00000000000097
  0
LINE
 8
Layer0
10
207.4359987536719
20
93.45016219840224
30
5.00000000000097
11
207.4359987536719
21
100.25699624992956
31
5.00000000000097
  0
LINE
 8
Layer0
10
224.60991352200338
20
92.80768763861617
30
5.00000000000097
11
207.4359987536719
21
93.45016219840224
31
5.00000000000097
  0
LINE
 8
Layer0
10
234.09493908516643
20
107.99130861260146
30
5.00000000000097
11
224.60991352200338
21
92.80768763861617
31
5.00000000000097
  0
LINE
 8
Layer0
10
232.46105616165121
20
109.01197564079736
30
5.000000000000677
11
234.09493908516643
21
107.99130861260146
31
5.00000000000097
  0
LINE
 8
Layer0
10
232.46105616165121
20
109.01197564079736
30
5.000000000000677
11
237.97370365649286
21
111.44999028343528
31
5.000000000000948
  0
LINE
 8
Layer0
10
237.97370365649286
20
111.44999028343528
30
5.000000000000948
11
244.42217731350647
21
112.45493039780563
31
5.0
  0
LINE
 8
Layer0
10
244.42217731350647
20
112.45493039780563
30
5.0
11
250.91102219974732
21
111.75664021387232
31
5.000000000001015
  0
LINE
 8
Layer0
10
250.91102219974732
20
111.75664021387232
30
5.000000000001015
11
256.99803425954025
21
109.40270705369372
31
5.000000000000948
  0
LINE
 8
Layer0
10
256.99803425954025
20
109.40270705369372
30
5.000000000000948
11
262.26839368027515
21
105.5535475720749
31
5.00000000000097
  0
LINE
 8
Layer0
10
262.26839368027515
20
105.5535475720749
30
5.00000000000097
11
265.5125718481614
21
101.52693045454596
31
5.00000000000088
  0
LINE
 8
Layer0
10
265.5125718481614
20
101.52693045454596
30
5.00000000000088
11
266.36293417710743
21
100.47147562665069
31
5.000000000000722
  0
LINE
 8
Layer0
10
266.36293417710743
20
100.47147562665069
30
5.000000000000722
11
269.0026195817295
21
94.50282602198466
31
5.000000000000857
  0
LINE
 8
Layer0
10
269.0026195817295
20
94.50282602198466
30
5.000000000000857
11
270.00755969610003
21
88.05435236497026
31
5.000000000000677
  0
LINE
 8
Layer0
10
270.00755969610003
20
88.05435236497026
30
5.000000000000677
11
269.7557511895866
21
85.71442782157547
31
5.000000000000835
  0
LINE
 8
Layer0
10
269.7557511895866
20
85.71442782157547
30
5.000000000000835
11
265.2714916535716
21
88.51569086705194
31
5.00000000000097
  0
LINE
 8
Layer0
10
265.2714916535716
20
88.51569086705194
30
5.00000000000097
11
255.64106561291763
21
73.09931293052766
31
5.00000000000097
  0
LINE
 8
Layer0
10
201.72798383681177
20
74.9900624593493
30
5.00000000000097
11
255.64106561291763
21
73.09931293052766
31
5.00000000000097
  0
LINE
 8
Layer0
10
201.72798383681177
20
74.9900624593493
30
5.00000000000097
11
199.49089305115007
21
74.9900624593493
31
5.000000000000948
  0
LINE
 8
Layer0
10
199.49089305115007
20
57.44295925733868
30
5.000000000000948
11
199.49089305115007
21
74.9900624593493
31
5.000000000000948
  0
LINE
 8
Layer0
10
159.49089305115015
20
57.442959257338586
30
5.000000000000948
11
199.49089305115007
21
57.44295925733868
31
5.000000000000948
  0
LINE
 8
Layer0
10
159.49089305115015
20
64.55585287318475
30
5.000000000000948
11
159.49089305115015
21
57.442959257338586
31
5.000000000000948
  0
LINE
 8
Layer0
10
87.48968258777427
20
64.55585287318475
30
5.00000000000097
11
159.49089305115015
21
64.55585287318475
31
5.000000000000948
  0
LINE
 8
Layer0
10
159.49098258777437
20
105.41983548201742
30
5.00000000000097
11
87.48968258777427
21
104.55585287318476
31
5.00000000000097
  0
LINE
 8
Layer0
10
119.73092465152102
20
41.89935177775385
30
5.00000000000097
11
119.73092465152102
21
41.89935177775385
31
9.700684699964768e-13
  0
LINE
 8
Layer0
10
119.73092465152102
20
41.89935177775385
30
9.700684699964768e-13
11
127.38495090381615
21
43.030320449223346
31
9.700684699964768e-13
  0
LINE
 8
Layer0
10
127.38495090381615
20
43.030320449223346
30
5.00000000000097
11
127.38495090381615
21
43.030320449223346
31
9.700684699964768e-13
  0
LINE
 8
Layer0
10
127.38495090381615
20
43.030320449223346
30
9.700684699964768e-13
11
134.61482200361218
21
45.33194177588961
31
9.700684699964768e-13
  0
LINE
 8
Layer0
10
134.61482200361218
20
45.33194177588961
30
5.00000000000097
11
134.61482200361218
21
45.33194177588961
31
9.700684699964768e-13
  0
LINE
 8
Layer0
10
149.31850315270998
20
48.89902223254913
30
5.00000000000097
11
149.31850315270998
21
48.89902223254913
31
9.700684699964768e-13
  0
LINE
 8
Layer0
10
149.31850315270998
20
48.89902223254913
30
9.700684699964768e-13
11
156.71560262828783
21
50.152004592897924
31
9.700684699964768e-13
  0
LINE
 8
Layer0
10
156.71560262828783
20
50.152004592897924
30
5.00000000000097
11
156.71560262828783
21
50.152004592897924
31
9.700684699964768e-13
  0
LINE
 8
Layer0
10
99.85790462617986
20
39.01973817953329
30
5.00000000000097
11
99.85790462617986
21
39.01973817953329
31
9.700684699964768e-13
  0
LINE
 8
Layer0
10
99.85790462617986
20
39.01973817953329
30
9.700684699964768e-13
11
103.22777415769522
21
39.266129673458195
31
9.700684699964768e-13
  0
LINE
 8
Layer0
10
103.22777415769522
20
39.266129673458195
30
5.00000000000097
11
103.22777415769522
21
39.266129673458195
31
9.700684699964768e-13
  0
LINE
 8
Layer0
10
113.21947042278936
20
40.56864027114197
30
5.00000000000097
11
113.21947042278936
21
40.56864027114197
31
9.700684699964768e-13
  0
LINE
 8
Layer0
10
113.21947042278936
20
40.56864027114197
30
9.700684699964768e-13
11
116.493557432809
21
41.18835034557843
31
9.700684699964768e-13
  0
LINE
 8
Layer0
10
116.493557432809
20
41.18835034557843
30
5.00000000000097
11
116.493557432809
21
41.18835034557843
31
9.700684699964768e-13
  0
LINE
 8
Layer0
10
134.61482200361218
20
45.33194177588961
30
9.700684699964768e-13
11
141.94498061121053
21
47.29083729083402
31
9.700684699964768e-13
  0
LINE
 8
Layer0
10
141.94498061121053
20
47.29083729083402
30
5.00000000000097
11
141.94498061121053
21
47.29083729083402
31
9.700684699964768e-13
  0
LINE
 8
Layer0
10
71.72643641495907
20
41.615995804269055
30
5.00000000000097
11
71.72643641495907
21
41.615995804269055
31
9.700684699964768e-13
  0
LINE
 8
Layer0
10
71.72643641495907
20
41.615995804269055
30
9.700684699964768e-13
11
78.57514909741064
21
40.17386396834646
31
9.700684699964768e-13
  0
LINE
 8
Layer0
10
78.57514909741064
20
40.17386396834646
30
5.00000000000097
11
78.57514909741064
21
40.17386396834646
31
9.700684699964768e-13
  0
LINE
 8
Layer0
10
161.61668058489494
20
50.74378254531066
30
5.00000000000097
11
161.61668058489494
21
50.74378254531066
31
9.700684699964768e-13
  0
LINE
 8
Layer0
10
161.61668058489494
20
50.74378254531066
30
9.700684699964768e-13
11
164.17470513670435
21
51.05264980775663
31
9.700684699964768e-13
  0
LINE
 8
Layer0
10
164.17470513670435
20
51.05264980775663
30
5.00000000000097
11
164.17470513670435
21
51.05264980775663
31
9.700684699964768e-13
  0
LINE
 8
Layer0
10
171.6930635648429
20
51.60043789138049
30
5.00000000000097
11
171.6930635648429
21
51.60043789138049
31
9.700684699964768e-13
  0
LINE
 8
Layer0
10
171.6930635648429
20
51.60043789138049
30
9.700684699964768e-13
11
179.2639458804673
21
51.7957408517868
31
9.700684699964768e-13
  0
LINE
 8
Layer0
10
179.2639458804673
20
51.7957408517868
30
5.00000000000097
11
179.2639458804673
21
51.7957408517868
31
9.700684699964768e-13
  0
LINE
 8
Layer0
10
270.00755969610003
20
88.05435236497026
30
5.000000000000677
11
270.00755969610003
21
88.05435236497026
31
6.767919558114954e-13
  0
LINE
 8
Layer0
10
270.00755969610003
20
88.05435236497026
30
6.767919558114954e-13
11
269.7557511895866
21
85.71442782157547
31
8.347100788341777e-13
  0
LINE
 8
Layer0
10
269.7557511895866
20
85.71442782157547
30
5.000000000000835
11
269.7557511895866
21
85.71442782157547
31
8.347100788341777e-13
  0
LINE
 8
Layer0
10
116.493557432809
20
41.18835034557843
30
9.700684699964768e-13
11
119.73092465152102
21
41.89935177775385
31
9.700684699964768e-13
  0
LINE
 8
Layer0
10
103.22777415769522
20
39.266129673458195
30
9.700684699964768e-13
11
106.58144463097497
21
39.60678599276966
31
9.700684699964768e-13
  0
LINE
 8
Layer0
10
106.58144463097497
20
39.60678599276966
30
5.00000000000097
11
106.58144463097497
21
39.60678599276966
31
9.700684699964768e-13
  0
LINE
 8
Layer0
10
156.71560262828783
20
50.152004592897924
30
9.700684699964768e-13
11
161.61668058489494
21
50.74378254531066
31
9.700684699964768e-13
  0
LINE
 8
Layer0
10
78.57514909741064
20
40.17386396834646
30
9.700684699964768e-13
11
85.5990348930769
21
39.25459985500497
31
9.700684699964768e-13
  0
LINE
 8
Layer0
10
85.5990348930769
20
39.25459985500497
30
5.00000000000097
11
85.5990348930769
21
39.25459985500497
31
9.700684699964768e-13
  0
LINE
 8
Layer0
10
265.2714916535716
20
88.51569086705194
30
5.00000000000097
11
265.2714916535716
21
88.51569086705194
31
9.700684699964768e-13
  0
LINE
 8
Layer0
10
265.2714916535716
20
88.51569086705194
30
9.700684699964768e-13
11
255.64106561291763
21
73.09931293052766
31
9.700684699964768e-13
  0
LINE
 8
Layer0
10
255.64106561291763
20
73.09931293052766
30
5.00000000000097
11
255.64106561291763
21
73.09931293052766
31
9.700684699964768e-13
  0
LINE
 8
Layer0
10
109.91372828023226
20
40.041180178952054
30
5.00000000000097
11
109.91372828023226
21
40.041180178952054
31
9.700684699964768e-13
  0
LINE
 8
Layer0
10
109.91372828023226
20
40.041180178952054
30
9.700684699964768e-13
11
113.21947042278936
21
40.56864027114197
31
9.700684699964768e-13
  0
LINE
 8
Layer0
10
269.7557511895866
20
85.71442782157547
30
8.347100788341777e-13
11
265.2714916535716
21
88.51569086705194
31
9.700684699964768e-13
  0
LINE
 8
Layer0
10
106.58144463097497
20
39.60678599276966
30
9.700684699964768e-13
11
109.91372828023226
21
40.041180178952054
31
9.700684699964768e-13
  0
LINE
 8
Layer0
10
164.17470513670435
20
51.05264980775663
30
9.700684699964768e-13
11
171.6930635648429
21
51.60043789138049
31
9.700684699964768e-13
  0
LINE
 8
Layer0
10
92.71975850328921
20
38.868455742124354
30
5.00000000000097
11
92.71975850328921
21
38.868455742124354
31
9.700684699964768e-13
  0
LINE
 8
Layer0
10
92.71975850328921
20
38.868455742124354
30
9.700684699964768e-13
11
99.85790462617986
21
39.01973817953329
31
9.700684699964768e-13
  0
LINE
 8
Layer0
10
85.5990348930769
20
39.25459985500497
30
9.700684699964768e-13
11
92.71975850328921
21
38.868455742124354
31
9.700684699964768e-13
  0
LINE
 8
Layer0
10
37.69811646192572
20
67.0191304029224
30
5.00000000000097
11
37.69811646192572
21
67.0191304029224
31
9.700684699964768e-13
  0
LINE
 8
Layer0
10
37.69811646192572
20
67.0191304029224
30
9.700684699964768e-13
11
38.396979622460975
21
64.1322723498921
31
9.700684699964768e-13
  0
LINE
 8
Layer0
10
38.396979622460975
20
64.1322723498921
30
5.00000000000097
11
38.396979622460975
21
64.1322723498921
31
9.700684699964768e-13
  0
LINE
 8
Layer0
10
175.0964084007798
20
114.7569962499296
30
5.00000000000097
11
175.0964084007798
21
114.7569962499296
31
9.700684699964768e-13
  0
LINE
 8
Layer0
10
216.59643496280364
20
114.7569962499296
30
9.700684699964768e-13
11
175.0964084007798
21
114.7569962499296
31
9.700684699964768e-13
  0
LINE
 8
Layer0
10
216.59643496280364
20
114.7569962499296
30
5.00000000000097
11
216.59643496280364
21
114.7569962499296
31
9.700684699964768e-13
  0
LINE
 8
Layer0
10
175.0964084007798
20
100.25699624992956
30
5.00000000000097
11
175.0964084007798
21
100.25699624992956
31
9.700684699964768e-13
  0
LINE
 8
Layer0
10
175.0964084007798
20
100.25699624992956
30
9.700684699964768e-13
11
175.0964084007798
21
114.7569962499296
31
9.700684699964768e-13
  0
LINE
 8
Layer0
10
216.59643496280364
20
100.25699624992956
30
5.00000000000097
11
216.59643496280364
21
100.25699624992956
31
9.700684699964768e-13
  0
LINE
 8
Layer0
10
216.59643496280364
20
100.25699624992956
30
9.700684699964768e-13
11
207.4359987536719
21
100.25699624992956
31
9.700684699964768e-13
  0
LINE
 8
Layer0
10
207.4359987536719
20
100.25699624992956
30
5.00000000000097
11
207.4359987536719
21
100.25699624992956
31
9.700684699964768e-13
  0
LINE
 8
Layer0
10
216.59643496280364
20
100.25699624992956
30
9.700684699964768e-13
11
216.59643496280364
21
114.7569962499296
31
9.700684699964768e-13
  0
LINE
 8
Layer0
10
204.65698959648046
20
100.25699624992956
30
5.00000000000097
11
204.65698959648046
21
100.25699624992956
31
9.700684699964768e-13
  0
LINE
 8
Layer0
10
204.65698959648046
20
100.25699624992956
30
9.700684699964768e-13
11
175.0964084007798
21
100.25699624992956
31
9.700684699964768e-13
  0
LINE
 8
Layer0
10
150.95184982993592
20
118.75966622956118
30
5.00000000000097
11
150.95184982993592
21
118.75966622956118
31
9.700684699964768e-13
  0
LINE
 8
Layer0
10
150.95184982993592
20
118.75966622956118
30
9.700684699964768e-13
11
148.48984293388466
21
119.07857541494575
31
9.700684699964768e-13
  0
LINE
 8
Layer0
10
148.48984293388466
20
119.07857541494575
30
5.00000000000097
11
148.48984293388466
21
119.07857541494575
31
9.700684699964768e-13
  0
LINE
 8
Layer0
10
271.3407967231036
20
94.26003564867678
30
5.00000000000097
11
271.3407967231036
21
94.26003564867678
31
9.700684699964768e-13
  0
LINE
 8
Layer0
10
38.66364545235717
20
78.65501104902752
30
5.00000000000097
11
38.66364545235717
21
78.65501104902752
31
9.700684699964768e-13
  0
LINE
 8
Layer0
10
271.3407967231036
20
94.26003564867678
30
9.700684699964768e-13
11
268.24317154150685
21
101.49332135905873
31
9.700684699964768e-13
  0
LINE
 8
Layer0
10
268.24317154150685
20
101.49332135905873
30
5.00000000000097
11
268.24317154150685
21
101.49332135905873
31
9.700684699964768e-13
  0
LINE
 8
Layer0
10
256.9273169072601
20
113.18496967749377
30
5.00000000000097
11
256.9273169072601
21
113.18496967749377
31
9.700684699964768e-13
  0
LINE
 8
Layer0
10
256.9273169072601
20
113.18496967749377
30
9.700684699964768e-13
11
249.30537718933957
21
117.02724007689515
31
9.700684699964768e-13
  0
LINE
 8
Layer0
10
249.30537718933957
20
117.02724007689515
30
5.00000000000097
11
249.30537718933957
21
117.02724007689515
31
9.700684699964768e-13
  0
LINE
 8
Layer0
10
169.47481598764995
20
117.066020226348
30
5.00000000000097
11
169.47481598764995
21
117.066020226348
31
9.700684699964768e-13
  0
LINE
 8
Layer0
10
169.47481598764995
20
117.066020226348
30
9.700684699964768e-13
11
167.59529557067253
21
117.47066384501447
31
9.700684699964768e-13
  0
LINE
 8
Layer0
10
167.59529557067253
20
117.47066384501447
30
5.00000000000097
11
167.59529557067253
21
117.47066384501447
31
9.700684699964768e-13
  0
LINE
 8
Layer0
10
167.59529557067253
20
117.47066384501447
30
9.700684699964768e-13
11
163.57027674429568
21
117.66976166895375
31
9.700684699964768e-13
  0
LINE
 8
Layer0
10
163.57027674429568
20
117.66976166895375
30
5.00000000000097
11
163.57027674429568
21
117.66976166895375
31
9.700684699964768e-13
  0
LINE
 8
Layer0
10
154.3202476363471
20
118.45867175603134
30
5.00000000000097
11
154.3202476363471
21
118.45867175603134
31
9.700684699964768e-13
  0
LINE
 8
Layer0
10
154.3202476363471
20
118.45867175603134
30
9.700684699964768e-13
11
150.95184982993592
21
118.75966622956118
31
9.700684699964768e-13
  0
LINE
 8
Layer0
10
263.35277840245533
20
107.9144194362704
30
5.00000000000097
11
263.35277840245533
21
107.9144194362704
31
9.700684699964768e-13
  0
LINE
 8
Layer0
10
263.35277840245533
20
107.9144194362704
30
9.700684699964768e-13
11
256.9273169072601
21
113.18496967749377
31
9.700684699964768e-13
  0
LINE
 8
Layer0
10
163.57027674429568
20
117.66976166895375
30
9.700684699964768e-13
11
157.24733087487493
21
118.14686174492097
31
9.700684699964768e-13
  0
LINE
 8
Layer0
10
157.24733087487493
20
118.14686174492097
30
5.00000000000097
11
157.24733087487493
21
118.14686174492097
31
9.700684699964768e-13
  0
LINE
 8
Layer0
10
268.24317154150685
20
101.49332135905873
30
9.700684699964768e-13
11
263.35277840245533
21
107.9144194362704
31
9.700684699964768e-13
  0
LINE
 8
Layer0
10
148.48984293388466
20
119.07857541494575
30
9.700684699964768e-13
11
144.6712663725417
21
119.4967030185272
31
9.700684699964768e-13
  0
LINE
 8
Layer0
10
144.6712663725417
20
119.4967030185272
30
5.00000000000097
11
144.6712663725417
21
119.4967030185272
31
9.700684699964768e-13
  0
LINE
 8
Layer0
10
249.30537718933957
20
117.02724007689515
30
9.700684699964768e-13
11
169.47481598764995
21
117.066020226348
31
9.700684699964768e-13
  0
LINE
 8
Layer0
10
157.24733087487493
20
118.14686174492097
30
9.700684699964768e-13
11
154.3202476363471
21
118.45867175603134
31
9.700684699964768e-13
  0
LINE
 8
Layer0
10
204.65701615787634
20
89.44295689979403
30
5.00000000000097
11
204.65701615787634
21
89.44295689979403
31
9.700684699964768e-13
  0
LINE
 8
Layer0
10
204.65701615787634
20
89.44295689979403
30
9.700684699964768e-13
11
204.65698959648046
21
100.25699624992956
31
9.700684699964768e-13
  0
LINE
 8
Layer0
10
199.49089305115007
20
89.44295925733861
30
5.000000000000948
11
199.49089305115007
21
89.44295925733861
31
9.475087381360936e-13
  0
LINE
 8
Layer0
10
204.65701615787634
20
89.44295689979403
30
9.700684699964768e-13
11
199.49089305115007
21
89.44295925733861
31
9.475087381360936e-13
  0
LINE
 8
Layer0
10
159.49089305115015
20
89.44295925733843
30
5.000000000000948
11
159.49089305115015
21
89.44295925733843
31
9.475087381360936e-13
  0
LINE
 8
Layer0
10
199.49089305115007
20
89.44295925733861
30
9.475087381360936e-13
11
159.49089305115015
21
89.44295925733843
31
9.475087381360936e-13
  0
LINE
 8
Layer0
10
87.48968258777427
20
104.55585287318476
30
5.00000000000097
11
87.48968258777427
21
104.55585287318476
31
9.700684699964768e-13
  0
LINE
 8
Layer0
10
159.49098258777437
20
105.41983548201742
30
9.700684699964768e-13
11
87.48968258777427
21
104.55585287318476
31
9.700684699964768e-13
  0
LINE
 8
Layer0
10
159.49098258777437
20
105.41983548201742
30
5.00000000000097
11
159.49098258777437
21
105.41983548201742
31
9.700684699964768e-13
  0
LINE
 8
Layer0
10
201.72798383681177
20
74.9900624593493
30
5.00000000000097
11
201.72798383681177
21
74.9900624593493
31
9.700684699964768e-13
  0
LINE
 8
Layer0
10
201.72798383681177
20
74.9900624593493
30
9.700684699964768e-13
11
199.49089305115007
21
74.9900624593493
31
9.475087381360936e-13
  0
LINE
 8
Layer0
10
199.49089305115007
20
74.9900624593493
30
5.000000000000948
11
199.49089305115007
21
74.9900624593493
31
9.475087381360936e-13
  0
LINE
 8
Layer0
10
199.49089305115007
20
57.44295925733868
30
9.475087381360936e-13
11
199.49089305115007
21
74.9900624593493
31
9.475087381360936e-13
  0
LINE
 8
Layer0
10
199.49089305115007
20
57.44295925733868
30
5.000000000000948
11
199.49089305115007
21
57.44295925733868
31
9.475087381360936e-13
  0
LINE
 8
Layer0
10
159.49089305115015
20
57.442959257338586
30
9.475087381360936e-13
11
199.49089305115007
21
57.44295925733868
31
9.475087381360936e-13
  0
LINE
 8
Layer0
10
159.49089305115015
20
57.442959257338586
30
5.000000000000948
11
159.49089305115015
21
57.442959257338586
31
9.475087381360936e-13
  0
LINE
 8
Layer0
10
58.85725145586554
20
45.998875971647344
30
5.00000000000097
11
58.85725145586554
21
45.998875971647344
31
9.700684699964768e-13
  0
LINE
 8
Layer0
10
58.85725145586554
20
45.998875971647344
30
9.700684699964768e-13
11
65.1292784910197
21
43.564911697496576
31
9.700684699964768e-13
  0
LINE
 8
Layer0
10
65.1292784910197
20
43.564911697496576
30
5.00000000000097
11
65.1292784910197
21
43.564911697496576
31
9.700684699964768e-13
  0
LINE
 8
Layer0
10
37.859023150598354
20
75.78217962987699
30
5.00000000000097
11
37.859023150598354
21
75.78217962987699
31
9.700684699964768e-13
  0
LINE
 8
Layer0
10
37.859023150598354
20
75.78217962987699
30
9.700684699964768e-13
11
37.42799634728419
21
72.86881240253113
31
9.700684699964768e-13
  0
LINE
 8
Layer0
10
37.42799634728419
20
72.86881240253113
30
5.00000000000097
11
37.42799634728419
21
72.86881240253113
31
9.700684699964768e-13
  0
LINE
 8
Layer0
10
37.37420920146664
20
69.93954072046041
30
5.00000000000097
11
37.37420920146664
21
69.93954072046041
31
9.700684699964768e-13
  0
LINE
 8
Layer0
10
37.37420920146664
20
69.93954072046041
30
9.700684699964768e-13
11
37.69811646192572
21
67.0191304029224
31
9.700684699964768e-13
  0
LINE
 8
Layer0
10
42.668694021409955
20
55.91443173600714
30
5.00000000000097
11
42.668694021409955
21
55.91443173600714
31
9.700684699964768e-13
  0
LINE
 8
Layer0
10
42.668694021409955
20
55.91443173600714
30
9.700684699964768e-13
11
47.5639840030264
21
52.208261702361156
31
9.700684699964768e-13
  0
LINE
 8
Layer0
10
47.5639840030264
20
52.208261702361156
30
5.00000000000097
11
47.5639840030264
21
52.208261702361156
31
9.700684699964768e-13
  0
LINE
 8
Layer0
10
37.42799634728419
20
72.86881240253113
30
9.700684699964768e-13
11
37.37420920146664
21
69.93954072046041
31
9.700684699964768e-13
  0
LINE
 8
Layer0
10
47.5639840030264
20
52.208261702361156
30
9.700684699964768e-13
11
52.980305352155916
21
48.89074335074722
31
9.700684699964768e-13
  0
LINE
 8
Layer0
10
52.980305352155916
20
48.89074335074722
30
5.00000000000097
11
52.980305352155916
21
48.89074335074722
31
9.700684699964768e-13
  0
LINE
 8
Layer0
10
52.980305352155916
20
48.89074335074722
30
9.700684699964768e-13
11
58.85725145586554
21
45.998875971647344
31
9.700684699964768e-13
  0
LINE
 8
Layer0
10
39.46489007485546
20
61.3033737903829
30
5.00000000000097
11
39.46489007485546
21
61.3033737903829
31
9.700684699964768e-13
  0
LINE
 8
Layer0
10
39.46489007485546
20
61.3033737903829
30
9.700684699964768e-13
11
40.89281906380523
21
58.5563519290864
31
9.700684699964768e-13
  0
LINE
 8
Layer0
10
40.89281906380523
20
58.5563519290864
30
5.00000000000097
11
40.89281906380523
21
58.5563519290864
31
9.700684699964768e-13
  0
LINE
 8
Layer0
10
144.6712663725417
20
119.4967030185272
30
9.700684699964768e-13
11
126.92095387540009
21
119.49670301852575
31
9.700684699964768e-13
  0
LINE
 8
Layer0
10
126.92095387540009
20
119.49670301852575
30
5.00000000000097
11
126.92095387540009
21
119.49670301852575
31
9.700684699964768e-13
  0
LINE
 8
Layer0
10
95.63267310188482
20
115.89822000882096
30
5.00000000000097
11
95.63267310188482
21
115.89822000882096
31
9.700684699964768e-13
  0
LINE
 8
Layer0
10
95.63267310188482
20
115.89822000882096
30
9.700684699964768e-13
11
85.75840788987473
21
113.14180376496292
31
9.700684699964768e-13
  0
LINE
 8
Layer0
10
85.75840788987473
20
113.14180376496292
30
5.00000000000097
11
85.75840788987473
21
113.14180376496292
31
9.700684699964768e-13
  0
LINE
 8
Layer0
10
126.92095387540009
20
119.49670301852575
30
9.700684699964768e-13
11
116.33154648310061
21
119.09382542754705
31
9.700684699964768e-13
  0
LINE
 8
Layer0
10
116.33154648310061
20
119.09382542754705
30
5.00000000000097
11
116.33154648310061
21
119.09382542754705
31
9.700684699964768e-13
  0
LINE
 8
Layer0
10
116.33154648310061
20
119.09382542754705
30
9.700684699964768e-13
11
105.86246626029683
21
117.88977054253496
31
9.700684699964768e-13
  0
LINE
 8
Layer0
10
105.86246626029683
20
117.88977054253496
30
5.00000000000097
11
105.86246626029683
21
117.88977054253496
31
9.700684699964768e-13
  0
LINE
 8
Layer0
10
45.43604607815328
20
89.26462479785596
30
5.00000000000097
11
45.43604607815328
21
89.26462479785596
31
9.700684699964768e-13
  0
LINE
 8
Layer0
10
45.43604607815328
20
89.26462479785596
30
9.700684699964768e-13
11
43.07324496591184
21
86.5641507261098
31
9.700684699964768e-13
  0
LINE
 8
Layer0
10
43.07324496591184
20
86.5641507261098
30
5.00000000000097
11
43.07324496591184
21
86.5641507261098
31
9.700684699964768e-13
  0
LINE
 8
Layer0
10
38.66364545235717
20
78.65501104902752
30
9.700684699964768e-13
11
37.859023150598354
21
75.78217962987699
31
9.700684699964768e-13
  0
LINE
 8
Layer0
10
39.83506049315062
20
81.46301802054299
30
5.00000000000097
11
39.83506049315062
21
81.46301802054299
31
9.700684699964768e-13
  0
LINE
 8
Layer0
10
39.83506049315062
20
81.46301802054299
30
9.700684699964768e-13
11
38.66364545235717
21
78.65501104902752
31
9.700684699964768e-13
  0
LINE
 8
Layer0
10
41.36336442781906
20
84.18245996974258
30
5.00000000000097
11
41.36336442781906
21
84.18245996974258
31
9.700684699964768e-13
  0
LINE
 8
Layer0
10
41.36336442781906
20
84.18245996974258
30
9.700684699964768e-13
11
39.83506049315062
21
81.46301802054299
31
9.700684699964768e-13
  0
LINE
 8
Layer0
10
67.51995062017717
20
105.46799374928693
30
5.00000000000097
11
67.51995062017717
21
105.46799374928693
31
9.700684699964768e-13
  0
LINE
 8
Layer0
10
67.51995062017717
20
105.46799374928693
30
9.700684699964768e-13
11
59.36300169308174
21
100.63779728740998
31
9.700684699964768e-13
  0
LINE
 8
Layer0
10
59.36300169308174
20
100.63779728740998
30
5.00000000000097
11
59.36300169308174
21
100.63779728740998
31
9.700684699964768e-13
  0
LINE
 8
Layer0
10
59.36300169308174
20
100.63779728740998
30
9.700684699964768e-13
11
51.973712075125235
21
95.21613891442212
31
9.700684699964768e-13
  0
LINE
 8
Layer0
10
51.973712075125235
20
95.21613891442212
30
5.00000000000097
11
51.973712075125235
21
95.21613891442212
31
9.700684699964768e-13
  0
LINE
 8
Layer0
10
51.973712075125235
20
95.21613891442212
30
9.700684699964768e-13
11
45.43604607815328
21
89.26462479785596
31
9.700684699964768e-13
  0
LINE
 8
Layer0
10
43.07324496591184
20
86.5641507261098
30
9.700684699964768e-13
11
41.36336442781906
21
84.18245996974258
31
9.700684699964768e-13
  0
LINE
 8
Layer0
10
76.35187165118543
20
109.65184289930957
30
5.00000000000097
11
76.35187165118543
21
109.65184289930957
31
9.700684699964768e-13
  0
LINE
 8
Layer0
10
76.35187165118543
20
109.65184289930957
30
9.700684699964768e-13
11
67.51995062017717
21
105.46799374928693
31
9.700684699964768e-13
  0
LINE
 8
Layer0
10
85.75840788987473
20
113.14180376496292
30
9.700684699964768e-13
11
76.35187165118543
21
109.65184289930957
31
9.700684699964768e-13
  0
LINE
 8
Layer0
10
105.86246626029683
20
117.88977054253496
30
9.700684699964768e-13
11
95.63267310188482
21
115.89822000882096
31
9.700684699964768e-13
  0
LINE
 8
Layer0
10
141.94498061121053
20
47.29083729083402
30
9.700684699964768e-13
11
149.31850315270998
21
48.89902223254913
31
9.700684699964768e-13
  0
LINE
 8
Layer0
10
179.2639458804673
20
51.7957408517868
30
9.700684699964768e-13
11
182.25963978275834
21
51.73198867085051
31
9.700684699964768e-13
  0
LINE
 8
Layer0
10
65.1292784910197
20
43.564911697496576
30
9.700684699964768e-13
11
71.72643641495907
21
41.615995804269055
31
9.700684699964768e-13
  0
LINE
 8
Layer0
10
40.89281906380523
20
58.5563519290864
30
9.700684699964768e-13
11
42.668694021409955
21
55.91443173600714
31
9.700684699964768e-13
  0
LINE
 8
Layer0
10
38.396979622460975
20
64.1322723498921
30
9.700684699964768e-13
11
39.46489007485546
21
61.3033737903829
31
9.700684699964768e-13
  0
LINE
 8
Layer0
10
272.4824243762183
20
86.59572079088511
30
9.700684699964768e-13
11
271.3407967231036
21
94.26003564867678
31
9.700684699964768e-13
  0
LINE
 8
Layer0
10
271.6078963534972
20
78.90424838188117
30
9.700684699964768e-13
11
272.4824243762183
21
86.59572079088511
31
9.700684699964768e-13
  0
LINE
 8
Layer0
10
268.76329596898574
20
71.59092108688169
30
9.700684699964768e-13
11
271.6078963534972
21
78.90424838188117
31
9.700684699964768e-13
  0
LINE
 8
Layer0
10
264.09851963470027
20
65.04111518842622
30
9.700684699964768e-13
11
268.76329596898574
21
71.59092108688169
31
9.700684699964768e-13
  0
LINE
 8
Layer0
10
257.85937805897356
20
59.599973156794846
30
9.700684699964768e-13
11
264.09851963470027
21
65.04111518842622
31
9.700684699964768e-13
  0
LINE
 8
Layer0
10
250.37464323432158
20
55.55421634388822
30
9.700684699964768e-13
11
257.85937805897356
21
59.599973156794846
31
9.700684699964768e-13
  0
LINE
 8
Layer0
10
242.03872377479777
20
53.11703618197046
30
9.700684699964768e-13
11
250.37464323432158
21
55.55421634388822
31
9.700684699964768e-13
  0
LINE
 8
Layer0
10
233.45510232296382
20
51.63460571951036
30
9.700684699964768e-13
11
242.03872377479777
21
53.11703618197046
31
9.700684699964768e-13
  0
LINE
 8
Layer0
10
192.21394408499648
20
51.63460571951054
30
9.700684699964768e-13
11
233.45510232296382
21
51.63460571951036
31
9.700684699964768e-13
  0
LINE
 8
Layer0
10
182.25963978275834
20
51.73198867085051
30
9.700684699964768e-13
11
192.21394408499648
21
51.63460571951054
31
9.700684699964768e-13
  0
LINE
 8
Layer0
10
269.0026195817295
20
94.50282602198466
30
8.572698106945608e-13
11
270.00755969610003
21
88.05435236497026
31
6.767919558114954e-13
  0
LINE
 8
Layer0
10
266.36293417710743
20
100.47147562665069
30
7.219114195322617e-13
11
269.0026195817295
21
94.50282602198466
31
8.572698106945608e-13
  0
LINE
 8
Layer0
10
265.5125718481614
20
101.52693045454596
30
8.79829542554944e-13
11
266.36293417710743
21
100.47147562665069
31
7.219114195322617e-13
  0
LINE
 8
Layer0
10
262.26839368027515
20
105.5535475720749
30
9.700684699964768e-13
11
265.5125718481614
21
101.52693045454596
31
8.79829542554944e-13
  0
LINE
 8
Layer0
10
256.99803425954025
20
109.40270705369372
30
9.475087381360936e-13
11
262.26839368027515
21
105.5535475720749
31
9.700684699964768e-13
  0
LINE
 8
Layer0
10
250.91102219974732
20
111.75664021387232
30
1.0151879337172431e-12
11
256.99803425954025
21
109.40270705369372
31
9.475087381360936e-13
  0
LINE
 8
Layer0
10
244.42217731350647
20
112.45493039780563
30
0.0
11
250.91102219974732
21
111.75664021387232
31
1.0151879337172431e-12
  0
LINE
 8
Layer0
10
237.97370365649286
20
111.44999028343528
30
9.475087381360936e-13
11
244.42217731350647
21
112.45493039780563
31
0.0
  0
LINE
 8
Layer0
10
232.46105616165121
20
109.01197564079736
30
6.767919558114954e-13
11
237.97370365649286
21
111.44999028343528
31
9.475087381360936e-13
  0
LINE
 8
Layer0
10
232.46105616165121
20
109.01197564079736
30
6.767919558114954e-13
11
234.09493908516643
21
107.99130861260146
31
9.700684699964768e-13
  0
LINE
 8
Layer0
10
234.09493908516643
20
107.99130861260146
30
9.700684699964768e-13
11
224.60991352200338
21
92.80768763861617
31
9.700684699964768e-13
  0
LINE
 8
Layer0
10
224.60991352200338
20
92.80768763861617
30
9.700684699964768e-13
11
207.4359987536719
21
93.45016219840224
31
9.700684699964768e-13
  0
LINE
 8
Layer0
10
207.4359987536719
20
93.45016219840224
30
9.700684699964768e-13
11
207.4359987536719
21
100.25699624992956
31
9.700684699964768e-13
  0
LINE
 8
Layer0
10
159.49098258777437
20
105.41983548201742
30
9.700684699964768e-13
11
159.49089305115015
21
89.44295925733843
31
9.475087381360936e-13
  0
LINE
 8
Layer0
10
87.48968258777427
20
64.55585287318475
30
9.700684699964768e-13
11
87.48968258777427
21
104.55585287318476
31
9.700684699964768e-13
  0
LINE
 8
Layer0
10
87.48968258777427
20
64.55585287318475
30
9.700684699964768e-13
11
159.49089305115015
21
64.55585287318475
31
9.475087381360936e-13
  0
LINE
 8
Layer0
10
159.49089305115015
20
64.55585287318475
30
9.475087381360936e-13
11
159.49089305115015
21
57.442959257338586
31
9.475087381360936e-13
  0
LINE
 8
Layer0
10
201.72798383681177
20
74.9900624593493
30
9.700684699964768e-13
11
255.64106561291763
21
73.09931293052766
31
9.700684699964768e-13
  0
LINE
 8
Layer0
10
159.49089305115015
20
64.55585287318475
30
5.000000000000948
11
159.49089305115015
21
64.55585287318475
31
9.475087381360936e-13
  0
LINE
 8
Layer0
10
87.48968258777427
20
64.55585287318475
30
5.00000000000097
11
87.48968258777427
21
64.55585287318475
31
9.700684699964768e-13
  0
LINE
 8
Layer0
10
182.25963978275834
20
51.73198867085051
30
5.00000000000097
11
182.25963978275834
21
51.73198867085051
31
9.700684699964768e-13
  0
LINE
 8
Layer0
10
192.21394408499648
20
51.63460571951054
30
5.00000000000097
11
192.21394408499648
21
51.63460571951054
31
9.700684699964768e-13
  0
LINE
 8
Layer0
10
250.37464323432158
20
55.55421634388822
30
5.00000000000097
11
250.37464323432158
21
55.55421634388822
31
9.700684699964768e-13
  0
LINE
 8
Layer0
10
257.85937805897356
20
59.599973156794846
30
5.00000000000097
11
257.85937805897356
21
59.599973156794846
31
9.700684699964768e-13
  0
LINE
 8
Layer0
10
271.6078963534972
20
78.90424838188117
30
5.00000000000097
11
271.6078963534972
21
78.90424838188117
31
9.700684699964768e-13
  0
LINE
 8
Layer0
10
272.4824243762183
20
86.59572079088511
30
5.00000000000097
11
272.4824243762183
21
86.59572079088511
31
9.700684699964768e-13
  0
LINE
 8
Layer0
10
233.45510232296382
20
51.63460571951036
30
5.00000000000097
11
233.45510232296382
21
51.63460571951036
31
9.700684699964768e-13
  0
LINE
 8
Layer0
10
242.03872377479777
20
53.11703618197046
30
5.00000000000097
11
242.03872377479777
21
53.11703618197046
31
9.700684699964768e-13
  0
LINE
 8
Layer0
10
264.09851963470027
20
65.04111518842622
30
5.00000000000097
11
264.09851963470027
21
65.04111518842622
31
9.700684699964768e-13
  0
LINE
 8
Layer0
10
268.76329596898574
20
71.59092108688169
30
5.00000000000097
11
268.76329596898574
21
71.59092108688169
31
9.700684699964768e-13
  0
LINE
 8
Layer0
10
256.99803425954025
20
109.40270705369372
30
5.000000000000948
11
256.99803425954025
21
109.40270705369372
31
9.475087381360936e-13
  0
LINE
 8
Layer0
10
262.26839368027515
20
105.5535475720749
30
5.00000000000097
11
262.26839368027515
21
105.5535475720749
31
9.700684699964768e-13
  0
LINE
 8
Layer0
10
266.36293417710743
20
100.47147562665069
30
5.000000000000722
11
266.36293417710743
21
100.47147562665069
31
7.219114195322617e-13
  0
LINE
 8
Layer0
10
269.0026195817295
20
94.50282602198466
30
5.000000000000857
11
269.0026195817295
21
94.50282602198466
31
8.572698106945608e-13
  0
LINE
 8
Layer0
10
234.09493908516643
20
107.99130861260146
30
5.00000000000097
11
234.09493908516643
21
107.99130861260146
31
9.700684699964768e-13
  0
LINE
 8
Layer0
10
232.46105616165121
20
109.01197564079736
30
5.000000000000677
11
232.46105616165121
21
109.01197564079736
31
6.767919558114954e-13
  0
LINE
 8
Layer0
10
265.5125718481614
20
101.52693045454596
30
5.00000000000088
11
265.5125718481614
21
101.52693045454596
31
8.79829542554944e-13
  0
LINE
 8
Layer0
10
224.60991352200338
20
92.80768763861617
30
5.00000000000097
11
224.60991352200338
21
92.80768763861617
31
9.700684699964768e-13
  0
LINE
 8
Layer0
10
207.4359987536719
20
93.45016219840224
30
5.00000000000097
11
207.4359987536719
21
93.45016219840224
31
9.700684699964768e-13
  0
LINE
 8
Layer0
10
237.97370365649286
20
111.44999028343528
30
5.000000000000948
11
237.97370365649286
21
111.44999028343528
31
9.475087381360936e-13
  0
LINE
 8
Layer0
10
250.91102219974732
20
111.75664021387232
30
5.000000000001015
11
250.91102219974732
21
111.75664021387232
31
1.0151879337172431e-12
  0
LINE
 8
Layer0
10
244.42217731350647
20
112.45493039780563
30
5.0
11
244.42217731350647
21
112.45493039780563
31
0.0
 0
ENDSEC
 0
EOF
