<?xml version="1.0" encoding="UTF-8" standalone="no"?>
<!-- Created with Inkscape (http://www.inkscape.org/) -->

<svg
   xmlns:osb="http://www.openswatchbook.org/uri/2009/osb"
   xmlns:dc="http://purl.org/dc/elements/1.1/"
   xmlns:cc="http://creativecommons.org/ns#"
   xmlns:rdf="http://www.w3.org/1999/02/22-rdf-syntax-ns#"
   xmlns:svg="http://www.w3.org/2000/svg"
   xmlns="http://www.w3.org/2000/svg"
   xmlns:xlink="http://www.w3.org/1999/xlink"
   xmlns:sodipodi="http://sodipodi.sourceforge.net/DTD/sodipodi-0.dtd"
   xmlns:inkscape="http://www.inkscape.org/namespaces/inkscape"
   width="160.00999mm"
   height="160.00999mm"
   viewBox="0 0 566.96455 566.96455"
   id="svg2"
   version="1.1"
   inkscape:version="0.91 r13725"
   sodipodi:docname="token_ecrous.svg">
  <defs
     id="defs4">
    <pattern
       inkscape:collect="always"
       xlink:href="#Wavy"
       id="pattern5634"
       patternTransform="translate(2.5095742,0.78424193)" />
    <pattern
       inkscape:isstock="true"
       inkscape:stockid="Wavy"
       id="Wavy"
       height="5.1805778"
       width="30.066020"
       patternUnits="userSpaceOnUse"
       inkscape:collect="always">
      <path
         id="path5499"
         d="M 7.597,0.061 C 5.079,-0.187 2.656,0.302 -0.01,1.788 L -0.01,3.061 C 2.773,1.431 5.173,1.052 7.472,1.280 C 9.770,1.508 11.969,2.361 14.253,3.218 C 18.820,4.931 23.804,6.676 30.066,3.061 L 30.062,1.788 C 23.622,5.497 19.246,3.770 14.691,2.061 C 12.413,1.207 10.115,0.311 7.597,0.061 z "
         style="fill:black;stroke:none;" />
    </pattern>
    <linearGradient
       id="linearGradient5043"
       osb:paint="solid">
      <stop
         style="stop-color:#000000;stop-opacity:1;"
         offset="0"
         id="stop5045" />
    </linearGradient>
    <pattern
       inkscape:collect="always"
       xlink:href="#pattern5029"
       id="pattern5037"
       patternTransform="translate(-2.03125e-6,-1.4248047e-5)" />
    <pattern
       patternUnits="userSpaceOnUse"
       width="22.662178"
       height="35.966197"
       patternTransform="translate(537.66291,357.10379)"
       id="pattern4304">
      <path
         inkscape:connector-curvature="0"
         id="path4302"
         d="M 0.42582917,35.704149 22.236349,0.26204869"
         style="fill:none;fill-rule:evenodd;stroke:#000000;stroke-width:1px;stroke-linecap:butt;stroke-linejoin:miter;stroke-opacity:1" />
    </pattern>
    <pattern
       patternUnits="userSpaceOnUse"
       width="40.864809"
       height="51.328198"
       patternTransform="translate(519.68408,352.27559)"
       id="pattern5029">
      <rect
         transform="matrix(0.7829295,0.62211044,-0.62211044,0.7829295,0,0)"
         y="-25.270079"
         x="31.842548"
         height="65.304092"
         width="0.2409745"
         id="rect5027"
         style="fill:none;fill-opacity:1;fill-rule:nonzero;stroke:#ff0000;stroke-width:0.03543307;stroke-miterlimit:4;stroke-dasharray:none;stroke-opacity:1" />
    </pattern>
    <pattern
       patternUnits="userSpaceOnUse"
       width="40.864807"
       height="51.328197"
       patternTransform="translate(519.68408,352.2756)"
       id="pattern5034">
      <rect
         id="rect5032"
         y="-5.6843419e-014"
         x="0"
         height="51.328197"
         width="40.864807"
         style="fill:url(#pattern5037);stroke:none" />
    </pattern>
    <linearGradient
       id="linearGradient5197"
       inkscape:collect="always">
      <stop
         id="stop5199"
         offset="0"
         style="stop-color:#f5b01b;stop-opacity:1;" />
      <stop
         id="stop5201"
         offset="1"
         style="stop-color:#ffde12;stop-opacity:1" />
    </linearGradient>
    <linearGradient
       gradientTransform="matrix(0.93916445,0,0,1.0280764,179.33785,-381.33034)"
       gradientUnits="userSpaceOnUse"
       y2="733.6189"
       x2="-23.42857"
       y1="580.76178"
       x1="-19.935953"
       id="linearGradient5203"
       xlink:href="#linearGradient5197"
       inkscape:collect="always" />
  </defs>
  <sodipodi:namedview
     id="base"
     pagecolor="#ffffff"
     bordercolor="#666666"
     borderopacity="1.0"
     inkscape:pageopacity="0.0"
     inkscape:pageshadow="2"
     inkscape:zoom="3.1877918"
     inkscape:cx="135.35062"
     inkscape:cy="460.16598"
     inkscape:document-units="mm"
     inkscape:current-layer="layer1"
     showgrid="false"
     inkscape:window-width="1440"
     inkscape:window-height="838"
     inkscape:window-x="-8"
     inkscape:window-y="-8"
     inkscape:window-maximized="1"
     fit-margin-top="0"
     fit-margin-left="0"
     fit-margin-right="0"
     fit-margin-bottom="0" />
  <metadata
     id="metadata7">
    <rdf:RDF>
      <cc:Work
         rdf:about="">
        <dc:format>image/svg+xml</dc:format>
        <dc:type
           rdf:resource="http://purl.org/dc/dcmitype/StillImage" />
        <dc:title />
        <cc:license
           rdf:resource="http://creativecommons.org/licenses/by-nc-sa/3.0/" />
      </cc:Work>
      <cc:License
         rdf:about="http://creativecommons.org/licenses/by-nc-sa/3.0/">
        <cc:permits
           rdf:resource="http://creativecommons.org/ns#Reproduction" />
        <cc:permits
           rdf:resource="http://creativecommons.org/ns#Distribution" />
        <cc:requires
           rdf:resource="http://creativecommons.org/ns#Notice" />
        <cc:requires
           rdf:resource="http://creativecommons.org/ns#Attribution" />
        <cc:prohibits
           rdf:resource="http://creativecommons.org/ns#CommercialUse" />
        <cc:permits
           rdf:resource="http://creativecommons.org/ns#DerivativeWorks" />
        <cc:requires
           rdf:resource="http://creativecommons.org/ns#ShareAlike" />
      </cc:License>
    </rdf:RDF>
  </metadata>
  <g
     inkscape:label="Calque 1"
     inkscape:groupmode="layer"
     id="layer1"
     transform="translate(-468.90849,-166.29201)">
    <path
       style="fill:url(#pattern5634);fill-opacity:1;fill-rule:nonzero;stroke:#ff0000;stroke-width:0.03543307;stroke-miterlimit:4;stroke-dasharray:none;stroke-opacity:1"
       id="path4150"
       sodipodi:type="arc"
       sodipodi:cx="607.80499"
       sodipodi:cy="248.69582"
       sodipodi:rx="53.131893"
       sodipodi:ry="53.131893"
       sodipodi:start="6.2610022"
       sodipodi:end="6.2592219"
       sodipodi:open="true"
       d="m 660.92381,247.51728 a 53.131893,53.131893 0 0 1 -51.91664,54.29683 53.131893,53.131893 0 0 1 -54.31993,-51.89248 53.131893,53.131893 0 0 1 51.86829,-54.34301 53.131893,53.131893 0 0 1 54.3661,51.8441" />
    <path
       sodipodi:type="star"
       style="fill:#ffffff;fill-opacity:1;fill-rule:nonzero;stroke:#4d4d4d;stroke-width:1.77165353;stroke-miterlimit:4;stroke-dasharray:none;stroke-opacity:1"
       id="path4206"
       sodipodi:sides="6"
       sodipodi:cx="607.80498"
       sodipodi:cy="247.91156"
       sodipodi:r1="48.465237"
       sodipodi:r2="22.111956"
       sodipodi:arg1="0.53783553"
       sodipodi:arg2="1.0614343"
       inkscape:flatsided="true"
       inkscape:rounded="0"
       inkscape:randomized="0"
       d="m 649.42787,272.73925 -42.31285,23.63264 -41.62289,-24.82769 0.68996,-48.46033 42.31286,-23.63264 41.62289,24.82769 z"
       inkscape:transform-center-x="1.5683825"
       inkscape:transform-center-y="2.7034839" />
    <rect
       style="fill:#ffffff;fill-opacity:1;stroke:#ff0000;stroke-width:0.03543307;stroke-linejoin:miter;stroke-miterlimit:4;stroke-dasharray:none;stroke-dashoffset:0;stroke-opacity:1"
       id="rect4138"
       width="17.657675"
       height="17.657677"
       x="598.97614"
       y="239.08272" />
    <text
       xml:space="preserve"
       style="font-style:normal;font-weight:normal;font-size:22.99089241px;line-height:125%;font-family:sans-serif;letter-spacing:0px;word-spacing:0px;fill:#999999;fill-opacity:1;stroke:none;stroke-width:1px;stroke-linecap:butt;stroke-linejoin:miter;stroke-opacity:1;"
       x="586.62708"
       y="232.69592"
       id="text5798"
       sodipodi:linespacing="125%"><tspan
         sodipodi:role="line"
         id="tspan5800"
         x="586.62708"
         y="232.69592"
         style="font-style:normal;font-variant:normal;font-weight:bold;font-stretch:condensed;font-family:'Agency FB';-inkscape-font-specification:'Agency FB Bold Condensed';fill:#999999;">token</tspan></text>
    <g
       transform="matrix(0.048153,0,0,0.048153,586.5869,256.68375)"
       id="layer1-7"
       inkscape:label="Calque 1">
      <g
         id="g5272">
        <path
           inkscape:connector-curvature="0"
           id="path5020"
           d="m -25.232156,401.43671 c -25.396622,-2.70405 -46.349,-16.87351 -57.007996,-38.55279 -4.920494,-10.00775 -8.553975,-23.14413 -8.596019,-31.07776 l -0.02097,-3.95694 13.517378,0.34083 13.51738,0.34082 1.556187,8.4269 c 4.490461,24.31628 21.982107,40.11901 45.787036,41.36606 20.7489132,1.08696 38.046507,-9.6722 47.243939,-29.38589 2.85836,-6.12657 3.337615,-8.70182 3.353895,-18.02168 0.01727,-9.88017 -0.344201,-11.61003 -3.956068,-18.93276 -4.727847,-9.58524 -13.815683,-18.24257 -24.8317169,-23.65538 -4.084508,-2.00696 -14.7358424,-5.62565 -23.6696341,-8.04154 -29.214824,-7.90035 -38.987394,-12.64952 -49.076717,-23.84983 -10.507108,-11.6641 -14.995411,-24.17282 -14.97359,-41.73083 0.02519,-20.2737 5.220546,-33.25636 18.612162,-46.50996 4.70046,-4.65201 11.358932,-9.9524 14.796606,-11.7787 9.071639,-4.81933 23.197386,-8.08931 34.944521,-8.08931 20.755737,0 35.681549,5.923 49.286696,19.55836 10.392431,10.41555 15.638143,20.19115 18.433124,34.35094 2.755719,13.96092 2.963633,13.74037 -12.567353,13.33113 l -12.99196,-0.34236 -0.818179,-5.42414 C 24.797435,193.16733 15.302274,180.5891 0.32265394,174.05631 -3.0814886,172.57172 -7.7178577,171.94322 -15.377177,171.92804 c -9.60716,-0.0191 -11.681039,0.38454 -17.862156,3.47581 -28.135308,14.07094 -32.015069,54.75096 -6.610615,69.31356 8.333599,4.77706 18.331643,8.49468 38.9649226,14.48849 22.6287584,6.57348 30.6376414,10.61673 40.3987824,20.39518 13.922839,13.94753 20.589024,30.24181 20.589024,50.32617 0,44.09387 -38.648033,76.48038 -85.334932,71.50946 z"
           style="fill:#7489c2" />
        <path
           inkscape:connector-curvature="0"
           id="path4898"
           d="m 453.11614,148.39069 c 44.08029,0.2173 91.26605,-0.21729 135.34635,0 l 0,14.31836 0,11.3466 c -35.82783,0.42024 -66.91119,0.8405 -102.73901,1.26074 -0.61611,29.38456 -0.48301,56.34897 0,84.51425 28.9843,0.42025 55.16506,0.84049 84.14937,1.26073 0.2315,7.77453 -0.18398,19.82655 0.0475,27.60108 -23.83747,0.0647 -62.0086,-0.10374 -84.19688,-0.28815 -0.33924,10.44995 0,65.87878 0,113.53633 l -32.60734,0 c 1.22454,-84.0263 2.05131,-169.56551 0,-253.54994 z"
           style="fill:#4a6eb4"
           sodipodi:nodetypes="ccccccccccccc" />
        <path
           style="fill:#4a6eb4"
           d="m 690.32486,148.32797 c -0.81628,0 0,3.78922 -114.23826,253.61266 l 27.713,0 31.95587,-72.46076 107.01652,0 30.83758,72.46076 28.52691,0 C 690.32486,148.32797 691.31299,148.32797 690.32486,148.32797 Z m -0.4572,60.23676 41.52933,94.34619 -83.97804,0 z"
           id="path4896"
           inkscape:connector-curvature="0"
           sodipodi:nodetypes="sccccccscccc" />
        <path
           style="fill:#4a6eb4"
           d="m 820.33793,148.32821 -0.0873,253.61242 41.44322,-0.01 c 23.08502,-0.005 45.50639,-0.59539 49.82385,-1.31115 36.97769,-6.13016 61.16026,-34.44934 60.60804,-70.97502 -0.36152,-23.91136 -10.68774,-43.59627 -29.5103,-56.24711 -3.81929,-2.56697 -6.94416,-5.12527 -6.94416,-5.68655 0,-0.56129 2.47089,-3.56831 5.49352,-6.67983 18.89989,-19.45584 22.83393,-47.30024 10.34548,-73.23722 -7.05653,-14.65556 -18.6964,-25.10883 -34.67361,-31.13942 -13.58629,-5.12815 -24.70761,-8.3262 -62.38654,-8.3262 l -34.1995,0 z m 56.81281,26.19784 c 18.3061,0.001 26.29376,1.35094 34.30801,5.31406 7.31083,3.61529 15.23881,12.15844 18.84168,20.30519 4.08284,9.23206 4.11817,23.01375 0.0826,32.13765 -5.8959,13.32978 -15.13912,20.93204 -29.29566,24.0896 -10.99542,2.4525 -54.57359,2.68053 -55.44475,0.29055 -0.32089,-0.88054 -0.43993,-19.61784 -0.26418,-41.63843 l 0.3208,-40.03675 22.94591,-0.38241 c 3.06645,-0.0512 5.89048,-0.0796 8.50563,-0.0795 z m 3.85185,108.1387 c 21.78684,0.12986 32.85173,1.98775 41.99987,6.69969 8.71159,4.48706 15.92514,12.38136 20.37487,22.2992 3.16149,7.04652 3.71114,9.76268 3.73627,18.43532 0.0254,8.76281 -0.48498,11.31489 -3.69145,18.43782 -6.47797,14.39026 -17.40967,23.53724 -33.01304,27.6232 -7.86841,2.06045 -61.43665,3.67985 -63.82067,1.92945 -1.19102,-0.87445 -1.45532,-11.39511 -1.20768,-48.07489 l 0.31844,-46.95746 25.28579,-0.34515 c 3.57568,-0.0487 6.90519,-0.0657 10.0176,-0.0472 z"
           id="path4892"
           inkscape:connector-curvature="0"
           sodipodi:nodetypes="cccsssssssscccsssscccccccssssssccccc" />
        <flowRoot
           transform="matrix(1.3841814,0,0,1.3930584,-166.71556,66.990738)"
           style="font-style:normal;font-weight:normal;font-size:40px;line-height:125%;font-family:Sans;letter-spacing:0px;word-spacing:0px;fill:#546687;fill-opacity:1;stroke:none;stroke-width:1px;stroke-linecap:butt;stroke-linejoin:miter;stroke-opacity:1"
           id="flowRoot4220"
           xml:space="preserve"><flowRegion
             id="flowRegion4222"><rect
               style="fill:#546687;fill-opacity:1"
               y="246.42857"
               x="257.85715"
               height="50"
               width="412.14285"
               id="rect4224" /></flowRegion><flowPara
             style="font-style:normal;font-variant:normal;font-weight:bold;font-stretch:normal;font-family:'Century Gothic';-inkscape-font-specification:'Century Gothic Bold';fill:#546687;fill-opacity:1"
             id="flowPara4226">By Telecom Valley</flowPara></flowRoot>        <g
           id="g5266"
           transform="matrix(1.2076793,0,0,1.2060459,18.86915,-82.16649)">
          <path
             style="fill:#9faed5"
             d="m 117.21401,191.45177 -26.6875,50.25 c -14.67862,27.6375 -27.13517,51.1949 -27.68164,52.34961 -0.77311,1.63362 -0.62115,2.85402 0.6875,5.5 7.35113,14.86331 53.02102,99.67019 54.20508,100.65625 1.18723,0.9887 17.1025,1.49591 74.7871,1 l 71.31446,-0.61328 27.39258,-51.5 c 15.06572,-28.325 29.36314,-51.71477 29.36914,-52.41406 0.007,-0.69929 -0.98247,-2.94929 -2.19727,-5 -1.21478,-2.05071 -13.29372,-24.65352 -26.8418,-50.22852 -13.54809,-25.575 -25.26118,-47.2875 -26.02929,-48.25 -1.30828,-1.63936 -6.04061,-1.75 -74.85742,-1.75 l -73.46094,0 z m 51.33984,28.86328 c 10.79595,-0.0707 20.45388,2.73491 33.26172,9.46094 10.61531,5.57462 22.16889,18.34125 28.16602,31.125 5.71545,12.18332 7.98347,22.02639 8.01367,34.77344 0.0131,5.5 -0.39613,12.025 -0.91016,14.5 -5.71562,27.5198 -22.55579,48.25765 -46.80664,57.64258 -5.51919,2.13589 -8.70995,2.66214 -17.69531,2.92187 -6.0292,0.17428 -11.78419,0.11522 -12.78906,-0.13281 -1.00487,-0.24803 -4.08819,-0.94704 -6.85157,-1.55274 -9.83103,-2.15481 -22.78645,-9.64985 -31.19921,-18.04882 -5.11159,-5.1032 -10.92933,-13.58489 -14.66016,-21.375 -10.34744,-21.60588 -10.19269,-46.41939 0.42773,-68.89844 5.39291,-11.41459 18.3075,-25.57393 28.53125,-31.2793 9.75182,-5.44201 18.32782,-8.19737 27.80274,-8.93359 1.60124,-0.12442 3.1667,-0.19303 4.70898,-0.20313 z"
             id="path5087"
             inkscape:connector-curvature="0" />
          <path
             style="fill:#7489c2"
             d="m 114.97963,191.11583 -2.2539,3.77735 c -2.6138,4.38042 -49.83802,92.83356 -52.1543,97.6875 l -1.55273,3.25586 26.72461,50.13086 c 14.69838,27.5721 27.34588,50.92144 28.10546,51.88672 1.28073,1.62757 5.51657,1.7735 58.3125,2.02148 31.31237,0.14706 64.36812,0.37756 73.45704,0.51172 l 16.52539,0.24414 2.24609,-3.77734 c 6.50806,-10.94138 52.75391,-98.87336 52.75391,-100.30665 0,-1.51104 -1.77978,-1.68164 -17.54102,-1.68164 l -17.54102,0 -26.94921,-50.5332 c -14.82296,-27.7935 -27.50641,-51.13715 -28.1836,-51.875 -0.99781,-1.08721 -11.72572,-1.3418 -56.58984,-1.3418 l -55.35938,0 z m 53.15625,30.07422 c 10.79595,-0.0707 20.45388,2.73491 33.26172,9.46094 10.61531,5.57462 22.16889,18.34125 28.16602,31.125 5.71545,12.18332 7.98347,22.02639 8.01367,34.77344 0.0131,5.5 -0.39613,12.025 -0.91016,14.5 -5.71562,27.5198 -22.55579,48.25765 -46.80664,57.64258 -5.51919,2.13589 -8.70995,2.66409 -17.69531,2.92382 -6.0292,0.17428 -11.78419,0.11327 -12.78906,-0.13476 -1.00487,-0.24803 -4.08818,-0.94704 -6.85157,-1.55274 -9.83103,-2.15481 -22.78645,-9.6479 -31.19921,-18.04687 -5.11159,-5.1032 -10.92933,-13.58684 -14.66016,-21.37695 -10.34744,-21.60588 -10.19269,-46.41938 0.42773,-68.89844 5.39291,-11.41459 18.3075,-25.57197 28.53125,-31.27734 9.75182,-5.44201 18.32782,-8.19738 27.80274,-8.9336 1.60124,-0.12442 3.16671,-0.19498 4.70898,-0.20508 z"
             id="path5024"
             inkscape:connector-curvature="0" />
          <path
             style="fill:#4a6eb4"
             d="m 227.69499,400.23227 c -0.52798,-0.90441 48.99464,-94.01084 54.428,-102.25824 l 1.87301,-2.84306 17.51097,0 c 9.63104,0 17.51098,0.27777 17.51098,0.61729 0,1.18381 -55.97084,103.2892 -57.03286,104.04276 -1.70005,1.2063 -33.57466,1.66677 -34.2901,0.44125 z"
             id="path4900"
             inkscape:connector-curvature="0"
             sodipodi:nodetypes="sscssss" />
          <path
             sodipodi:nodetypes="ssssssssssscs"
             style="fill:url(#linearGradient5203);fill-opacity:1"
             d="m 153.77917,370.58432 c -20.84379,-5.03146 -38.12524,-20.00019 -47.4589,-41.10765 -13.458015,-30.43444 -8.45619,-61.97811 13.72005,-86.52438 6.49299,-7.18692 8.99319,-9.14259 17.37454,-13.5905 19.67619,-10.44198 38.88304,-11.09529 58.39192,-1.98615 2.45356,1.14562 4.46103,2.39442 4.46103,2.77509 0,0.38069 -3.37466,1.23058 -7.49922,1.88865 -16.39095,2.61518 -27.46872,8.74245 -39.5363,21.86808 -14.08763,15.3228 -20.32968,32.78781 -19.41134,54.31223 0.79809,18.70598 6.48806,33.46367 18.29525,47.4511 3.21768,3.81185 8.39113,8.72264 11.49654,10.91286 3.10542,2.19024 5.6499,4.32922 5.65442,4.75331 0,0 -9.25193,0.75268 -15.48799,-0.75264 z"
             id="path5147"
             inkscape:connector-curvature="0" />
        </g>
      </g>
    </g>
  </g>
</svg>
