solid OpenSCAD_Model
  facet normal 0.000000 -1.000000 0.000000
    outer loop
      vertex -10.050000 -5.400000 2.000000
      vertex -10.050000 -5.400000 0.000000
      vertex -7.600000 -5.400000 0.000000
    endloop
  endfacet
  facet normal 0.000000 -1.000000 0.000000
    outer loop
      vertex -7.600000 -5.400000 2.000000
      vertex -10.050000 -5.400000 2.000000
      vertex -7.600000 -5.400000 0.000000
    endloop
  endfacet
  facet normal -0.000000 0.000000 -1.000000
    outer loop
      vertex -10.050000 -5.400000 0.000000
      vertex -9.000000 -0.950000 0.000000
      vertex -7.600000 -5.400000 0.000000
    endloop
  endfacet
  facet normal 0.000000 0.000000 -1.000000
    outer loop
      vertex -7.600000 -5.400000 0.000000
      vertex -9.000000 -0.950000 0.000000
      vertex -9.000000 8.450000 0.000000
    endloop
  endfacet
  facet normal 0.000000 -0.000000 -1.000000
    outer loop
      vertex -6.200000 4.900000 0.000000
      vertex -9.000000 8.450000 0.000000
      vertex 9.000000 8.450000 0.000000
    endloop
  endfacet
  facet normal -0.000000 0.000000 -1.000000
    outer loop
      vertex 7.600000 4.900000 0.000000
      vertex 9.000000 8.450000 0.000000
      vertex 9.000000 -0.950000 0.000000
    endloop
  endfacet
  facet normal -0.000000 0.000000 -1.000000
    outer loop
      vertex 7.600000 -5.400000 0.000000
      vertex 9.000000 -0.950000 0.000000
      vertex 10.050000 -5.400000 0.000000
    endloop
  endfacet
  facet normal -0.000000 0.000000 -1.000000
    outer loop
      vertex 6.200000 4.900000 0.000000
      vertex 9.000000 8.450000 0.000000
      vertex 7.600000 4.900000 0.000000
    endloop
  endfacet
  facet normal 0.000000 0.000000 -1.000000
    outer loop
      vertex -6.200000 4.900000 0.000000
      vertex 6.200000 -6.000000 0.000000
      vertex 0.000000 -6.000000 0.000000
    endloop
  endfacet
  facet normal -0.000000 0.000000 -1.000000
    outer loop
      vertex -6.200000 4.900000 0.000000
      vertex 9.000000 8.450000 0.000000
      vertex 6.200000 4.900000 0.000000
    endloop
  endfacet
  facet normal -0.000000 -0.000000 -1.000000
    outer loop
      vertex -7.600000 4.900000 0.000000
      vertex -9.000000 8.450000 0.000000
      vertex -6.200000 4.900000 0.000000
    endloop
  endfacet
  facet normal 0.000000 0.000000 -1.000000
    outer loop
      vertex -7.600000 -5.400000 0.000000
      vertex -9.000000 8.450000 0.000000
      vertex -7.600000 4.900000 0.000000
    endloop
  endfacet
  facet normal 0.000000 0.000000 -1.000000
    outer loop
      vertex 7.600000 4.900000 0.000000
      vertex 9.000000 -0.950000 0.000000
      vertex 7.600000 -5.400000 0.000000
    endloop
  endfacet
  facet normal 0.000000 0.000000 -1.000000
    outer loop
      vertex -6.200000 4.900000 0.000000
      vertex 6.200000 4.900000 0.000000
      vertex 6.200000 -6.000000 0.000000
    endloop
  endfacet
  facet normal 0.000000 0.000000 -1.000000
    outer loop
      vertex -6.200000 4.900000 0.000000
      vertex 0.000000 -6.000000 0.000000
      vertex 0.000000 -8.450000 0.000000
    endloop
  endfacet
  facet normal 0.000000 0.000000 -1.000000
    outer loop
      vertex -6.200000 4.900000 0.000000
      vertex 0.000000 -8.450000 0.000000
      vertex -6.200000 -8.450000 0.000000
    endloop
  endfacet
  facet normal -0.973274 0.229649 0.000000
    outer loop
      vertex -10.050000 -5.400000 0.000000
      vertex -10.050000 -5.400000 2.000000
      vertex -9.000000 -0.950000 0.000000
    endloop
  endfacet
  facet normal -0.973274 0.229649 0.000000
    outer loop
      vertex -9.000000 -0.950000 0.000000
      vertex -10.050000 -5.400000 2.000000
      vertex -9.000000 -0.950000 2.000000
    endloop
  endfacet
  facet normal 0.000000 -0.000000 1.000000
    outer loop
      vertex -9.000000 -0.950000 2.000000
      vertex -10.050000 -5.400000 2.000000
      vertex -7.600000 -5.400000 2.000000
    endloop
  endfacet
  facet normal 0.000000 -0.000000 1.000000
    outer loop
      vertex -9.000000 8.450000 2.000000
      vertex -9.000000 -0.950000 2.000000
      vertex -7.600000 4.900000 2.000000
    endloop
  endfacet
  facet normal 0.000000 0.000000 1.000000
    outer loop
      vertex -7.600000 4.900000 2.000000
      vertex -9.000000 -0.950000 2.000000
      vertex -7.600000 -5.400000 2.000000
    endloop
  endfacet
  facet normal 0.000000 0.000000 1.000000
    outer loop
      vertex -6.200000 8.450000 2.000000
      vertex -7.600000 4.900000 2.000000
      vertex -6.200000 4.900000 2.000000
    endloop
  endfacet
  facet normal 0.000000 0.000000 1.000000
    outer loop
      vertex -9.000000 8.450000 2.000000
      vertex -7.600000 4.900000 2.000000
      vertex -6.200000 8.450000 2.000000
    endloop
  endfacet
  facet normal 1.000000 0.000000 -0.000000
    outer loop
      vertex -7.600000 -5.400000 2.000000
      vertex -7.600000 -5.400000 0.000000
      vertex -7.600000 4.900000 0.000000
    endloop
  endfacet
  facet normal 1.000000 0.000000 0.000000
    outer loop
      vertex -7.600000 4.900000 2.000000
      vertex -7.600000 -5.400000 2.000000
      vertex -7.600000 4.900000 0.000000
    endloop
  endfacet
  facet normal 0.000000 -1.000000 0.000000
    outer loop
      vertex -7.600000 4.900000 2.000000
      vertex -7.600000 4.900000 0.000000
      vertex -6.200000 4.900000 0.000000
    endloop
  endfacet
  facet normal 0.000000 -1.000000 0.000000
    outer loop
      vertex -6.200000 4.900000 2.000000
      vertex -7.600000 4.900000 2.000000
      vertex -6.200000 4.900000 0.000000
    endloop
  endfacet
  facet normal -0.000000 0.000000 0.000000
    outer loop
      vertex -6.200000 4.900000 0.000000
      vertex -6.200000 -8.450000 0.000000
      vertex -6.200000 -6.000000 0.000000
    endloop
  endfacet
  facet normal -1.000000 0.000000 0.000000
    outer loop
      vertex -6.200000 4.900000 0.000000
      vertex -6.200000 -6.000000 0.000000
      vertex -6.200000 -6.000000 2.000000
    endloop
  endfacet
  facet normal -1.000000 0.000000 0.000000
    outer loop
      vertex -6.200000 -6.000000 2.000000
      vertex -6.200000 -8.450000 2.000000
      vertex -6.200000 -8.450000 3.100000
    endloop
  endfacet
  facet normal -1.000000 -0.000000 -0.000000
    outer loop
      vertex -6.200000 -6.000000 2.000000
      vertex -6.200000 -8.450000 3.100000
      vertex -6.200000 4.900000 0.000000
    endloop
  endfacet
  facet normal -1.000000 0.000000 -0.000000
    outer loop
      vertex -6.200000 4.900000 2.000000
      vertex -6.200000 -8.450000 3.100000
      vertex -6.200000 8.450000 3.100000
    endloop
  endfacet
  facet normal -1.000000 0.000000 0.000000
    outer loop
      vertex -6.200000 4.900000 0.000000
      vertex -6.200000 -8.450000 3.100000
      vertex -6.200000 4.900000 2.000000
    endloop
  endfacet
  facet normal -1.000000 -0.000000 0.000000
    outer loop
      vertex -6.200000 4.900000 2.000000
      vertex -6.200000 8.450000 3.100000
      vertex -6.200000 8.450000 2.000000
    endloop
  endfacet
  facet normal -0.000000 -0.000000 -1.000000
    outer loop
      vertex -9.000000 -9.000000 0.000000
      vertex -9.000000 -6.000000 0.000000
      vertex -6.200000 -8.450000 0.000000
    endloop
  endfacet
  facet normal -0.000000 -0.000000 -1.000000
    outer loop
      vertex -9.000000 -9.000000 0.000000
      vertex -6.200000 -8.450000 0.000000
      vertex 9.000000 -9.000000 -0.000000
    endloop
  endfacet
  facet normal -0.000000 0.000000 -1.000000
    outer loop
      vertex 0.000000 -6.000000 0.000000
      vertex 9.000000 -9.000000 -0.000000
      vertex 0.000000 -8.450000 0.000000
    endloop
  endfacet
  facet normal -0.000000 0.000000 -1.000000
    outer loop
      vertex -6.200000 -8.450000 0.000000
      vertex 0.000000 -8.450000 0.000000
      vertex 9.000000 -9.000000 -0.000000
    endloop
  endfacet
  facet normal -0.000000 -0.000000 -1.000000
    outer loop
      vertex 9.000000 -9.000000 -0.000000
      vertex 0.000000 -6.000000 0.000000
      vertex 9.000000 -6.000000 -0.000000
    endloop
  endfacet
  facet normal -0.000000 -0.000000 -1.000000
    outer loop
      vertex -6.200000 -8.450000 0.000000
      vertex -9.000000 -6.000000 0.000000
      vertex -6.200000 -6.000000 0.000000
    endloop
  endfacet
  facet normal 0.000000 0.000000 0.000000
    outer loop
      vertex 0.000000 -6.000000 0.000000
      vertex 6.200000 -6.000000 0.000000
      vertex 9.000000 -6.000000 -0.000000
    endloop
  endfacet
  facet normal 0.000000 1.000000 0.000000
    outer loop
      vertex 9.000000 -6.000000 -0.000000
      vertex 6.200000 -6.000000 0.000000
      vertex 6.200000 -6.000000 2.000000
    endloop
  endfacet
  facet normal 0.000000 1.000000 0.000000
    outer loop
      vertex 9.000000 -6.000000 -0.000000
      vertex 6.200000 -6.000000 2.000000
      vertex 9.000000 -6.000000 2.000000
    endloop
  endfacet
  facet normal 1.000000 0.000000 0.000000
    outer loop
      vertex 6.200000 4.900000 2.000000
      vertex 6.200000 8.450000 2.000000
      vertex 6.200000 -8.450000 3.100000
    endloop
  endfacet
  facet normal 1.000000 0.000000 -0.000000
    outer loop
      vertex 6.200000 -8.450000 3.100000
      vertex 6.200000 -8.450000 2.000000
      vertex 6.200000 -6.000000 2.000000
    endloop
  endfacet
  facet normal 1.000000 0.000000 0.000000
    outer loop
      vertex 6.200000 4.900000 0.000000
      vertex 6.200000 -8.450000 3.100000
      vertex 6.200000 -6.000000 2.000000
    endloop
  endfacet
  facet normal 1.000000 0.000000 0.000000
    outer loop
      vertex 6.200000 -6.000000 0.000000
      vertex 6.200000 4.900000 0.000000
      vertex 6.200000 -6.000000 2.000000
    endloop
  endfacet
  facet normal 1.000000 0.000000 0.000000
    outer loop
      vertex 6.200000 4.900000 0.000000
      vertex 6.200000 4.900000 2.000000
      vertex 6.200000 -8.450000 3.100000
    endloop
  endfacet
  facet normal 1.000000 0.000000 0.000000
    outer loop
      vertex 6.200000 8.450000 2.000000
      vertex 6.200000 8.450000 3.100000
      vertex 6.200000 -8.450000 3.100000
    endloop
  endfacet
  facet normal 0.000000 -1.000000 0.000000
    outer loop
      vertex 6.200000 4.900000 2.000000
      vertex 6.200000 4.900000 0.000000
      vertex 7.600000 4.900000 0.000000
    endloop
  endfacet
  facet normal 0.000000 -1.000000 0.000000
    outer loop
      vertex 7.600000 4.900000 2.000000
      vertex 6.200000 4.900000 2.000000
      vertex 7.600000 4.900000 0.000000
    endloop
  endfacet
  facet normal -1.000000 -0.000000 -0.000000
    outer loop
      vertex 7.600000 -5.400000 0.000000
      vertex 7.600000 -5.400000 2.000000
      vertex 7.600000 4.900000 0.000000
    endloop
  endfacet
  facet normal -1.000000 0.000000 0.000000
    outer loop
      vertex 7.600000 4.900000 0.000000
      vertex 7.600000 -5.400000 2.000000
      vertex 7.600000 4.900000 2.000000
    endloop
  endfacet
  facet normal 0.000000 -1.000000 0.000000
    outer loop
      vertex 7.600000 -5.400000 2.000000
      vertex 7.600000 -5.400000 0.000000
      vertex 10.050000 -5.400000 0.000000
    endloop
  endfacet
  facet normal 0.000000 -1.000000 0.000000
    outer loop
      vertex 10.050000 -5.400000 2.000000
      vertex 7.600000 -5.400000 2.000000
      vertex 10.050000 -5.400000 0.000000
    endloop
  endfacet
  facet normal 0.973274 0.229649 0.000000
    outer loop
      vertex 10.050000 -5.400000 0.000000
      vertex 9.000000 -0.950000 0.000000
      vertex 9.000000 -0.950000 2.000000
    endloop
  endfacet
  facet normal 0.973274 0.229649 -0.000000
    outer loop
      vertex 10.050000 -5.400000 2.000000
      vertex 10.050000 -5.400000 0.000000
      vertex 9.000000 -0.950000 2.000000
    endloop
  endfacet
  facet normal 1.000000 0.000000 -0.000000
    outer loop
      vertex 9.000000 -0.950000 2.000000
      vertex 9.000000 -0.950000 0.000000
      vertex 9.000000 8.450000 0.000000
    endloop
  endfacet
  facet normal 1.000000 0.000000 0.000000
    outer loop
      vertex 9.000000 8.450000 2.000000
      vertex 9.000000 -0.950000 2.000000
      vertex 9.000000 8.450000 0.000000
    endloop
  endfacet
  facet normal 0.000000 1.000000 0.000000
    outer loop
      vertex -9.000000 8.450000 0.000000
      vertex -9.000000 8.450000 2.000000
      vertex 9.000000 8.450000 0.000000
    endloop
  endfacet
  facet normal 0.000000 1.000000 0.000000
    outer loop
      vertex 9.000000 8.450000 0.000000
      vertex -9.000000 8.450000 2.000000
      vertex -6.200000 8.450000 2.000000
    endloop
  endfacet
  facet normal 0.000000 1.000000 0.000000
    outer loop
      vertex 9.000000 8.450000 0.000000
      vertex -6.200000 8.450000 2.000000
      vertex -6.200000 8.450000 3.100000
    endloop
  endfacet
  facet normal 0.000000 1.000000 0.000000
    outer loop
      vertex 6.200000 8.450000 2.000000
      vertex -6.200000 8.450000 3.100000
      vertex 6.200000 8.450000 3.100000
    endloop
  endfacet
  facet normal 0.000000 1.000000 0.000000
    outer loop
      vertex 9.000000 8.450000 0.000000
      vertex -6.200000 8.450000 3.100000
      vertex 6.200000 8.450000 2.000000
    endloop
  endfacet
  facet normal 0.000000 1.000000 0.000000
    outer loop
      vertex 9.000000 8.450000 2.000000
      vertex 9.000000 8.450000 0.000000
      vertex 6.200000 8.450000 2.000000
    endloop
  endfacet
  facet normal -1.000000 -0.000000 -0.000000
    outer loop
      vertex -9.000000 -0.950000 0.000000
      vertex -9.000000 -0.950000 2.000000
      vertex -9.000000 8.450000 0.000000
    endloop
  endfacet
  facet normal -1.000000 0.000000 0.000000
    outer loop
      vertex -9.000000 8.450000 0.000000
      vertex -9.000000 -0.950000 2.000000
      vertex -9.000000 8.450000 2.000000
    endloop
  endfacet
  facet normal 0.000000 -0.000000 1.000000
    outer loop
      vertex -6.200000 8.450000 3.100000
      vertex -6.200000 -8.450000 3.100000
      vertex 6.200000 -8.450000 3.100000
    endloop
  endfacet
  facet normal 0.000000 0.000000 1.000000
    outer loop
      vertex 6.200000 8.450000 3.100000
      vertex -6.200000 8.450000 3.100000
      vertex 6.200000 -8.450000 3.100000
    endloop
  endfacet
  facet normal 0.000000 -1.000000 0.000000
    outer loop
      vertex -6.200000 -8.450000 3.100000
      vertex -6.200000 -8.450000 2.000000
      vertex 6.200000 -8.450000 2.000000
    endloop
  endfacet
  facet normal 0.000000 -1.000000 0.000000
    outer loop
      vertex 6.200000 -8.450000 3.100000
      vertex -6.200000 -8.450000 3.100000
      vertex 6.200000 -8.450000 2.000000
    endloop
  endfacet
  facet normal 0.000000 -0.964205 0.265156
    outer loop
      vertex -9.000000 -8.450000 2.000000
      vertex -9.000000 -9.000000 0.000000
      vertex 9.000000 -9.000000 -0.000000
    endloop
  endfacet
  facet normal 0.000000 -0.964205 0.265156
    outer loop
      vertex -6.200000 -8.450000 2.000000
      vertex -9.000000 -8.450000 2.000000
      vertex 9.000000 -9.000000 -0.000000
    endloop
  endfacet
  facet normal 0.000000 -0.964205 0.265156
    outer loop
      vertex 9.000000 -8.450000 2.000000
      vertex 6.200000 -8.450000 2.000000
      vertex 9.000000 -9.000000 -0.000000
    endloop
  endfacet
  facet normal 0.000000 -0.964205 0.265156
    outer loop
      vertex 6.200000 -8.450000 2.000000
      vertex -6.200000 -8.450000 2.000000
      vertex 9.000000 -9.000000 -0.000000
    endloop
  endfacet
  facet normal 0.000000 -0.000000 1.000000
    outer loop
      vertex -9.000000 -6.000000 2.000000
      vertex -9.000000 -8.450000 2.000000
      vertex -6.200000 -8.450000 2.000000
    endloop
  endfacet
  facet normal 0.000000 -0.000000 1.000000
    outer loop
      vertex -6.200000 -6.000000 2.000000
      vertex -9.000000 -6.000000 2.000000
      vertex -6.200000 -8.450000 2.000000
    endloop
  endfacet
  facet normal 0.000000 1.000000 0.000000
    outer loop
      vertex -9.000000 -6.000000 0.000000
      vertex -9.000000 -6.000000 2.000000
      vertex -6.200000 -6.000000 0.000000
    endloop
  endfacet
  facet normal 0.000000 1.000000 0.000000
    outer loop
      vertex -6.200000 -6.000000 0.000000
      vertex -9.000000 -6.000000 2.000000
      vertex -6.200000 -6.000000 2.000000
    endloop
  endfacet
  facet normal 1.000000 0.000000 -0.000000
    outer loop
      vertex 9.000000 -8.450000 2.000000
      vertex 9.000000 -9.000000 -0.000000
      vertex 9.000000 -6.000000 -0.000000
    endloop
  endfacet
  facet normal 1.000000 0.000000 0.000000
    outer loop
      vertex 9.000000 -6.000000 2.000000
      vertex 9.000000 -8.450000 2.000000
      vertex 9.000000 -6.000000 -0.000000
    endloop
  endfacet
  facet normal -1.000000 0.000000 0.000000
    outer loop
      vertex -9.000000 -9.000000 0.000000
      vertex -9.000000 -8.450000 2.000000
      vertex -9.000000 -6.000000 0.000000
    endloop
  endfacet
  facet normal -1.000000 0.000000 0.000000
    outer loop
      vertex -9.000000 -6.000000 0.000000
      vertex -9.000000 -8.450000 2.000000
      vertex -9.000000 -6.000000 2.000000
    endloop
  endfacet
  facet normal 0.000000 -0.000000 1.000000
    outer loop
      vertex 6.200000 -6.000000 2.000000
      vertex 6.200000 -8.450000 2.000000
      vertex 9.000000 -8.450000 2.000000
    endloop
  endfacet
  facet normal 0.000000 -0.000000 1.000000
    outer loop
      vertex 9.000000 -6.000000 2.000000
      vertex 6.200000 -6.000000 2.000000
      vertex 9.000000 -8.450000 2.000000
    endloop
  endfacet
  facet normal 0.000000 0.000000 1.000000
    outer loop
      vertex 9.000000 -0.950000 2.000000
      vertex 9.000000 8.450000 2.000000
      vertex 7.600000 4.900000 2.000000
    endloop
  endfacet
  facet normal 0.000000 -0.000000 1.000000
    outer loop
      vertex 6.200000 8.450000 2.000000
      vertex 6.200000 4.900000 2.000000
      vertex 7.600000 4.900000 2.000000
    endloop
  endfacet
  facet normal 0.000000 0.000000 1.000000
    outer loop
      vertex 9.000000 8.450000 2.000000
      vertex 6.200000 8.450000 2.000000
      vertex 7.600000 4.900000 2.000000
    endloop
  endfacet
  facet normal 0.000000 0.000000 1.000000
    outer loop
      vertex 7.600000 -5.400000 2.000000
      vertex 10.050000 -5.400000 2.000000
      vertex 7.600000 4.900000 2.000000
    endloop
  endfacet
  facet normal 0.000000 0.000000 1.000000
    outer loop
      vertex 10.050000 -5.400000 2.000000
      vertex 9.000000 -0.950000 2.000000
      vertex 7.600000 4.900000 2.000000
    endloop
  endfacet
endsolid OpenSCAD_Model
