<?xml version="1.0" encoding="UTF-8" standalone="no"?>
<!-- Created with Inkscape (http://www.inkscape.org/) -->

<svg
   xmlns:dc="http://purl.org/dc/elements/1.1/"
   xmlns:cc="http://creativecommons.org/ns#"
   xmlns:rdf="http://www.w3.org/1999/02/22-rdf-syntax-ns#"
   xmlns:svg="http://www.w3.org/2000/svg"
   xmlns="http://www.w3.org/2000/svg"
   xmlns:sodipodi="http://sodipodi.sourceforge.net/DTD/sodipodi-0.dtd"
   xmlns:inkscape="http://www.inkscape.org/namespaces/inkscape"
   id="svg4136"
   version="1.1"
   inkscape:version="0.91 r13725"
   xml:space="preserve"
   width="400mm"
   height="300mm"
   viewBox="0 0 1417.3228 1062.9921"
   sodipodi:docname="fusee.svg"><metadata
     id="metadata4142"><rdf:RDF><cc:Work
         rdf:about=""><dc:format>image/svg+xml</dc:format><dc:type
           rdf:resource="http://purl.org/dc/dcmitype/StillImage" /><dc:title></dc:title></cc:Work></rdf:RDF></metadata><defs
     id="defs4140"><clipPath
       clipPathUnits="userSpaceOnUse"
       id="clipPath4150"><path
         d="m 0,0 0,935.46002 1403.1,0 L 1403.1,0 0,0"
         id="path4152"
         inkscape:connector-curvature="0" /></clipPath></defs><sodipodi:namedview
     pagecolor="#ffffff"
     bordercolor="#666666"
     borderopacity="1"
     objecttolerance="10"
     gridtolerance="10"
     guidetolerance="10"
     inkscape:pageopacity="0"
     inkscape:pageshadow="2"
     inkscape:window-width="1280"
     inkscape:window-height="962"
     id="namedview4138"
     showgrid="false"
     inkscape:zoom="0.54423075"
     inkscape:cx="566.00222"
     inkscape:cy="589.26962"
     inkscape:window-x="-8"
     inkscape:window-y="-8"
     inkscape:window-maximized="1"
     inkscape:current-layer="g4144"
     units="mm" /><g
     id="g4144"
     inkscape:groupmode="layer"
     inkscape:label="Dessin1"
     transform="matrix(1.25,0,0,-1.25,0,1062.9921)"><path
       d="m 161.73075,487.91393 -8.46001,1.08 -7.92,3.23999 -6.84,5.22001 -5.04,6.84001 -3.42,7.91999 -1.08,8.46 1.08,8.45999 3.42,7.92001 5.04,6.84 6.84,5.04001 7.92,3.41998 8.46001,1.08002 8.45999,-1.08002 7.92,-3.41998 6.84001,-5.04001 5.21998,-6.84 3.24001,-7.92001 1.08,-8.45999 -1.08,-8.46"
       style="fill:none;stroke:#0000ff;stroke-width:0.0032;stroke-linecap:round;stroke-linejoin:round;stroke-miterlimit:10;stroke-dasharray:none;stroke-opacity:1"
       id="path4154"
       inkscape:connector-curvature="0" /><path
       d="m 166.05074,479.81393 0,-7.92 8.46,1.08 11.87999,5.03999 10.26001,7.74001 7.73999,10.25999 5.04001,11.88001 1.08,8.45999 -7.91999,0 0,8.46002 7.91999,0 -1.08,8.63999 -5.04001,11.88 -7.73999,10.26001 -10.26001,7.73999 -11.87999,5.04001 -8.46,1.07999 0,-7.91999 -8.45999,0 0,7.91999 -8.64,-1.07999 -11.88001,-5.04001 -10.26001,-7.73999 -7.73999,-10.26001 -5.04001,-11.88 -1.07998,-8.63999 7.92,0 0,-8.46002 -7.92,0 1.07998,-8.45999 5.04001,-11.88001 7.73999,-10.25999 10.26001,-7.74001 11.88001,-5.03999 8.64,-1.08 0,7.92 8.45999,0"
       style="fill:none;stroke:#0000ff;stroke-width:0.0032;stroke-linecap:round;stroke-linejoin:round;stroke-miterlimit:10;stroke-dasharray:none;stroke-opacity:1"
       id="path4156"
       inkscape:connector-curvature="0" /><path
       d="m 806.31073,461.99393 8.64002,-0.18 8.27997,-2.34 7.55999,-4.31999 5.94001,-6.12001 4.32,-7.56 2.16004,-8.28 -0.18,-8.64 -2.16003,-8.46001 -4.5,-7.37999 -6.11999,-6.12001 -7.56,-4.13999 -8.27997,-2.15999 -8.64002,0 -8.46002,2.33999 -7.38,4.32 -6.12,6.12001 -3.77997,7.01998 -0.36004,0.54001 -2.15998,8.45999 0,8.46001 0,0.17999 2.33997,8.28 4.32001,7.38001 6.30005,6.11999 7.37994,4.32001 8.46002,2.16"
       style="fill:none;stroke:#0000ff;stroke-width:0.0032;stroke-linecap:round;stroke-linejoin:round;stroke-miterlimit:10;stroke-dasharray:none;stroke-opacity:1"
       id="path4158"
       inkscape:connector-curvature="0" /><path
       d="m 787.41077,385.85393 2.87994,6.84 7.74005,-3.24 -2.88,-7.01999 8.27997,-2.16001 12.96002,-0.18 12.41998,3.24 7.56,4.14 -4.67999,6.11999 6.84002,5.04001 4.5,-5.94 6.12,5.94 6.65997,11.16001 3.41999,12.41999 0,8.64 -7.38001,-0.9 -1.07996,8.27999 7.56,0.90001 -2.16003,8.45999 -6.47998,11.16001 -9,9.18001 -7.38001,4.31999 -3.05999,-6.84 -7.74,3.24001 3.06,7.01999 -8.28003,2.33999 -12.95996,0 -12.41998,-3.23999 -7.56006,-4.14 4.5,-6.12001 -6.65997,-5.03999 -4.68,5.94 -5.94,-5.75999 -0.17999,-0.18001 -6.47998,-11.16 -3.42004,-12.42 -0.18,-8.64 7.56,1.08 1.08002,-8.46001 -7.56,-0.89999 2.15997,-8.46001 6.29999,-11.15999 9.18005,-9.18 5.94001,-3.59999 1.44,-0.72001"
       style="fill:none;stroke:#0000ff;stroke-width:0.0032;stroke-linecap:round;stroke-linejoin:round;stroke-miterlimit:10;stroke-dasharray:none;stroke-opacity:1"
       id="path4160"
       inkscape:connector-curvature="0" /><path
       d="m 428.49073,332.39393 38.70001,2.52 9.54001,-3.24 8.81997,-2.52 0.54004,-8.46 8.45996,0.54 -0.35998,5.4 16.56,-3.78 17.28002,-3.24 17.45997,-2.34 8.64001,-0.9 0.53998,-8.46 8.46002,0.72 -0.35999,7.02 0.18,0 17.64001,-0.54 17.45996,0.18 17.64002,1.08 6.29999,0.54 0.54003,-7.92 8.45997,0.54 -0.53998,8.46 1.08001,0 8.63996,2.34 7.02002,3.96 5.94,5.58 4.32001,6.84 2.33996,7.74 0.36005,3.78 16.91998,1.08 -0.35998,-8.1 -3.78003,-11.7 -6.65998,-10.44 -8.82,-8.46 -10.79999,-6.12 -12.06,-3.06 -3.06,-0.36 -14.40002,-1.62 -18.35999,-1.08 -18.54003,-0.18 -18.35999,0.54 -18.35999,1.62 -18.17999,2.52 -18.17999,3.42 -17.82001,4.14 -17.64001,5.22 -17.45999,5.94 -15.48001,6.12 -1.62,0.72 -8.64001,3.96"
       style="fill:none;stroke:#0000ff;stroke-width:0.0032;stroke-linecap:round;stroke-linejoin:round;stroke-miterlimit:10;stroke-dasharray:none;stroke-opacity:1"
       id="path4162"
       inkscape:connector-curvature="0" /><path
       d="m 24.030741,574.67393 11.7,-37.07999 -1.08,-10.08002 -0.36,-9 -8.1,-2.51999 2.52,-8.1 5.22,1.61999 0,-17.09999 0.9,-17.64 1.8,-17.46 1.26,-8.64 -8.1,-2.51999 2.52,-8.10001 6.84,2.16 0,-0.18 3.42,-17.28 4.32,-17.09999 5.22,-16.74001 2.16,-5.94 -7.74,-2.52 2.52,-8.1 7.92,2.52 0.54,-1.08 4.14,-7.92 5.58,-5.94 6.66,-4.32 7.74,-2.7 8.1,-0.54 3.6,0.72 5.22,-16.38 -8.1,-1.26 -12.24,0.9 -11.7,3.78 -10.44,6.84 -8.28,9 -5.76,10.98 -1.08,2.88 -5.04,13.67999 -5.22,17.64002 -4.5,17.81999 -3.6,18 -2.88,18.36 -1.8,18.17999 -0.9,18.36 0,18.54 0.9,18.36001 1.62,18.35999 2.52,16.38 0.18,1.80002 1.8,9.35999"
       style="fill:none;stroke:#0000ff;stroke-width:0.0032;stroke-linecap:round;stroke-linejoin:round;stroke-miterlimit:10;stroke-dasharray:none;stroke-opacity:1"
       id="path4164"
       inkscape:connector-curvature="0" /><path
       d="m 191.97074,431.39393 9,-3.42 -3.23999,-7.92 5.03999,-1.97999 -10.62,-13.14 -10.26001,-14.22001 -9.72,-14.76 -4.5,-7.56 -7.73999,3.06 -3.24,-7.92 6.66,-2.52 0,-0.18 -8.28,-15.66 -7.38,-16.02 -6.48,-16.2 -2.16,-6.12 -7.56,3.06 -3.06,-7.92 -7.92,3.24 4.86001,13.68 6.83999,17.1 7.74001,16.74 8.45999,16.2 9.36,15.84 10.08,15.48 10.8,14.94 11.51999,14.22 1.80001,1.98"
       style="fill:none;stroke:#0000ff;stroke-width:0.0032;stroke-linecap:round;stroke-linejoin:round;stroke-miterlimit:10;stroke-dasharray:none;stroke-opacity:1"
       id="path4166"
       inkscape:connector-curvature="0" /><path
       d="m 101.43074,532.37394 0.54,-1.98001 0.36,-0.72 4.5,-12.41999 5.40001,-17.46 4.5,-17.82001 3.77999,-18.17999 2.7,-18.18001 1.98,-18.17999 0.90001,-18.54001 0.17999,-0.54 0,-13.86 0,-2.52 0,-0.53999 0,-0.90001 -0.17999,-4.14 5.75999,9.54001 5.58,8.09999 5.58,7.92 0.18,0.54 7.19999,8.82 3.42,4.14 2.16001,2.70001 13.86,14.39999 14.94,13.5 15.84,12.24001 16.74,11.15999 17.63999,9.72 18.36001,8.28 17.10001,6.3 2.69998,0.90001 3.78,1.43998 0.18002,0.18001 -0.36001,40.5 1.61999,67.85999 2.88001,80.64001 -8.10001,-4.5 -1.25998,-0.54001 -17.46002,-10.44 -16.91999,-11.16 -16.55999,-11.69998 -16.20001,-12.24002 -15.65999,-13.13999 -15.12001,-13.5 -14.4,-14.22 -14.04001,-14.76001 -13.5,-15.29999 -12.77999,-15.66 -6.48,-8.82001 -0.72,-1.07999 -10.62,-15.83999"
       style="fill:none;stroke:#0000ff;stroke-width:0.0032;stroke-linecap:round;stroke-linejoin:round;stroke-miterlimit:10;stroke-dasharray:none;stroke-opacity:1"
       id="path4168"
       inkscape:connector-curvature="0" /><path
       d="m 71.370741,516.71393 2.16,3.96 8.64,14.22 0.9,1.44 5.4,7.92001 9.90001,13.85999 7.559989,10.26001 13.32,16.38 13.68,15.84 14.58,15.11999 14.94001,14.76001 15.65999,14.03998 16.02,13.32001 16.74001,12.78 17.09999,12.06 17.64001,11.51999 18,10.62002 18.53998,10.07999 16.74002,-1.79999 -1.08002,-28.08002 -8.1,0.72 -0.9,-8.27999 8.82001,-0.9 -2.34,-59.22 -8.1,0.72 -0.9,-8.45999 8.82001,-0.90002 -1.44,-59.21998 -7.92001,0.71998 -0.9,-8.46 8.63999,-0.72 -0.18,-12.78 0.9,-34.01999 0,-8.63999 -8.45999,0.89999 -0.72001,-8.46001 -7.55999,0.72 -0.18,9.54001 -17.64001,-6.47999 -17.09998,-7.74001 -16.38,-9.18001 -15.66001,-10.25999 -14.94,-11.52001 -13.86,-12.59999 -12.96,-13.68 -1.79999,-1.98 -10.08,-12.60001 -10.80001,-15.29998 -0.72,-1.08001 -2.52,-4.5 -3.59999,-5.94 -2.70002,-4.68 -8.27999,-16.92 -5.76,-14.4 -1.25999,-3.06 -3.42002,-11.88 -6.47999,-10.62 -8.64,-8.64 -10.799999,-6.12 -11.88,-3.42 -12.24,-0.36 -12.06,2.7 -10.98,5.76 -9.18,8.28 -6.84,10.08 -4.14,11.7 -1.26,12.24 0.18,3.24 8.46,-0.9 8.46,-0.72 0,-1.26 0.72,-9 2.7,-7.56 4.5,-6.66 6.12,-5.4 7.2,-3.78 7.74,-1.8 8.1,0.36 7.74,2.16 7.02,3.96 5.76,5.76 4.139999,6.84 2.51999,8.64 0.18001,1.26 8.45999,-0.9 0.90001,8.46 -8.1,0.72 0.9,6.3 1.62,17.46 0.72,17.64 0,0.36 0,0.72 0,16.56 -0.18001,0.18 7.20002,-0.72 0.89999,8.46 -8.46001,0.72 -0.53999,8.82 -1.8,17.46 -2.7,17.46 -3.42,16.74001 5.4,-0.54001 0.9,8.28 -8.459999,0.90001 -2.16,8.81999 -5.22,16.92001 -1.08,2.69998 -1.62,-2.51999 -8.46,-15.48001 -3.96,-8.27999 -8.46,0.9 -9.36,0.9 6.84,14.22 6.66,12.24"
       style="fill:none;stroke:#0000ff;stroke-width:0.0032;stroke-linecap:round;stroke-linejoin:round;stroke-miterlimit:10;stroke-dasharray:none;stroke-opacity:1"
       id="path4170"
       inkscape:connector-curvature="0" /><path
       d="m 764.91077,513.11393 -35.82001,-14.94 -7.20001,-7.2 -6.66003,-6.12 3.24005,-7.74 -7.74005,-3.24001 -2.15998,4.86 -12.96002,-10.79998 -14.03998,-10.62001 -14.58001,-9.9 -7.56,-4.68001 3.23999,-7.73999 -7.73999,-3.24 -2.70001,6.47999 -0.18,0 -15.47998,-8.45999 -15.84002,-7.74 -16.19996,-6.84 -5.94,-2.16 3.23999,-7.56 -7.91998,-3.24001 -3.24005,7.74001 -1.07996,-0.36 -8.82001,-1.8 -8.10003,0.36 -7.73999,2.33999 -6.83997,4.14002 -5.58002,5.93998 -1.97998,3.24001 -15.66003,-6.66 3.96002,-6.84 8.64002,-9 10.61999,-6.3 11.69995,-3.59999 12.42005,-0.72001 12.05999,2.51999 2.88001,1.26001 13.67999,5.04 16.91999,7.19999 16.55999,7.92002 16.20001,8.81999 15.65998,9.72 15.30005,10.26 14.57995,11.16 14.22003,11.88 13.5,12.42 12.77997,13.14 11.16004,12.42 1.07995,1.25999 6.12006,7.38001"
       style="fill:none;stroke:#0000ff;stroke-width:0.0032;stroke-linecap:round;stroke-linejoin:round;stroke-miterlimit:10;stroke-dasharray:none;stroke-opacity:1"
       id="path4172"
       inkscape:connector-curvature="0" /><path
       d="m 557.37073,420.23392 35.64001,15.48001 7.02002,7.37999 6.65998,6.30001 -3.41999,7.74 7.73999,3.23999 2.15998,-4.86 12.96002,11.16001 13.85999,10.8 14.40002,10.08 7.38,4.67999 -3.42004,7.74001 7.92004,3.42 2.70002,-6.66001 0.17999,0.18001 15.29999,8.64 15.83996,7.92001 16.02002,7.01999 5.94001,2.34 -3.24,7.38 7.74,3.41999 3.41998,-7.73999 1.08002,0.36001 8.82,1.97998 7.91999,-0.17999 7.92004,-2.34 6.83997,-3.95999 5.76,-5.76001 1.97999,-3.23999 15.66003,6.65998 -4.14002,7.02002 -8.82,8.63998 -10.62,6.30002 -11.88,3.41998 -12.23999,0.54001 -12.06,-2.70001 -3.06,-1.25998 -13.5,-5.22 -16.73999,-7.38001 -16.56,-8.28 -16.02002,-9 -15.47998,-9.90001 -15.11999,-10.61999 -14.58002,-11.34 -13.85998,-11.88 -13.32001,-12.78 -12.78003,-13.31999 -10.79999,-12.60001 -1.26001,-1.25999 -5.94,-7.56002"
       style="fill:none;stroke:#0000ff;stroke-width:0.0032;stroke-linecap:round;stroke-linejoin:round;stroke-miterlimit:10;stroke-dasharray:none;stroke-opacity:1"
       id="path4174"
       inkscape:connector-curvature="0" /><path
       d="m 112.23075,794.27393 1.61999,-9.35998 8.45999,1.44 0.90001,-5.40002 15.12,7.73999 16.02,7.20001 16.38001,6.29999 8.27999,2.88 -1.26,8.28003 8.27999,1.44 1.26001,-7.02002 0.18,0 16.91999,4.85999 17.10001,3.78003 17.28001,3.05999 6.29999,0.89997 -1.26001,7.92004 8.28,1.44 -1.44,8.27997 -14.39999,-1.79999 -18.18,-3.23999 -17.82,-3.96002 -17.82,-5.03998 -17.46,-5.76001 -17.09999,-6.66003 -16.74001,-7.56 -16.56,-8.27997 -2.33999,-1.44"
       style="fill:none;stroke:#0000ff;stroke-width:0.0032;stroke-linecap:round;stroke-linejoin:round;stroke-miterlimit:10;stroke-dasharray:none;stroke-opacity:1"
       id="path4176"
       inkscape:connector-curvature="0" /><path
       d="m 643.95075,369.29393 -1.79999,0.72 -0.90002,0.18 -12.24,4.5 -17.64001,5.22 -17.82001,4.5 -18.17999,3.59999 -18.17999,2.88001 -18.18,1.8 -18.53997,0.89999 -0.54004,0 -13.85999,0 -2.52002,0 -0.53998,0 -0.90002,0 -4.13995,-0.17999 9.53997,5.76 8.09998,5.58 7.92004,5.58 0.53998,0.36 8.64002,7.2 4.32,3.42 2.51996,2.16 14.40003,13.86 13.5,14.94 12.23999,16.02001 10.79999,16.73999 9.72003,17.64 8.27997,18.36001 6.29998,17.28 0.90003,2.51999 1.44,3.78 0,0.36001 40.67999,-0.18002 67.85999,1.80002 80.46002,3.23999 -4.32001,-8.10001 -0.71997,-1.25998 -10.26001,-17.46002 -10.98004,-17.09999 -11.69995,-16.74 -12.23999,-16.01999 -12.96002,-15.66001 -13.5,-15.3 -14.22003,-14.58 -14.57996,-14.03999 -15.30005,-13.5 -15.65997,-12.78 -8.82001,-6.66001 -1.08002,-0.72 -15.83996,-10.62"
       style="fill:none;stroke:#0000ff;stroke-width:0.0032;stroke-linecap:round;stroke-linejoin:round;stroke-miterlimit:10;stroke-dasharray:none;stroke-opacity:1"
       id="path4178"
       inkscape:connector-curvature="0" /><path
       d="m 628.47077,339.05393 3.95996,2.34 14.22003,8.64 1.44,0.9 7.91998,5.4 13.85999,9.9 10.26001,7.74 16.20001,13.32001 15.65998,13.86 15.29998,14.57998 14.58002,14.94001 13.85999,15.66 13.32,16.2 12.78003,16.74 12.06,17.28 11.33997,17.63999 10.61999,18 9.90003,18.54 -1.79999,16.74002 -28.08002,-1.26001 0.90002,-8.1 -8.46002,-0.72 -0.89996,8.64001 -59.22003,-2.52002 0.72003,-8.1 -8.28003,-0.9 -0.90002,8.64002 -59.39997,-1.44001 0.89997,-8.1 -8.45997,-0.9 -0.90002,8.82001 -12.77997,-0.36001 -34.02002,0.72 -8.64001,0 0.90002,-8.45999 -8.28003,-0.9 0.72003,-7.38 9.53998,0 -6.47998,-17.82001 -7.73999,-17.10001 -9,-16.37999 -10.26001,-15.84001 -11.52002,-14.93998 -12.41998,-14.04001 -13.67999,-12.95999 -1.98004,-1.62001 -12.41999,-10.26 -15.47998,-10.8 -1.08001,-0.72 -4.32001,-2.51999 -6.12,-3.60001 -4.67999,-2.88 -16.73999,-8.28 -14.40002,-5.76 -3.06,-1.26001 -11.87998,-3.59999 -10.44,-6.3 -8.64001,-8.82 -6.29999,-10.8 -3.24002,-11.88 -0.35999,-12.24 2.88001,-12.06 5.75998,-10.98 8.1,-9.18 10.44001,-6.84 11.52001,-4.14 12.41999,-1.08 3.06,0.36 -0.9,8.28 -0.89999,8.46 -1.08002,0 -9,0.72 -7.56,2.7 -6.83999,4.5 -5.4,5.94 -3.6,7.2 -1.79999,7.74 0.17999,8.1 2.16,7.92 3.96,6.84 5.58001,5.76 7.01999,4.32 8.45999,2.52 1.26001,0.18 -0.89999,8.46 8.45999,0.9 0.9,-8.1 6.30001,0.9 17.45999,1.62 17.46003,0.9 0.35998,0 0.71997,0 16.56,0 0.17999,0 -0.71997,7.02 8.46002,0.89999 0.89997,-8.45999 8.82001,-0.36 17.46002,-1.8 17.27997,-2.52 16.73999,-3.42 -0.53998,5.4 8.46002,0.9 0.89996,-8.46 8.82001,-2.16 16.73999,-5.04 2.88001,-1.08 -2.51996,-1.62 -15.48004,-8.46 -8.09998,-4.14 0.71997,-8.28 1.08002,-9.54 14.03998,6.84 12.24005,6.66"
       style="fill:none;stroke:#0000ff;stroke-width:0.0032;stroke-linecap:round;stroke-linejoin:round;stroke-miterlimit:10;stroke-dasharray:none;stroke-opacity:1"
       id="path4180"
       inkscape:connector-curvature="0" /><path
       d="m 107.01074,747.11393 -49.139999,-3.78 52.019989,19.79999 66.24001,21.96002 66.60001,17.64001 66.77999,12.41999 67.13999,9.35998 67.5,6.12 67.50003,3.96002 67.67999,1.79999 135.53998,1.79999 67.85999,-0.18 68.04003,-2.33996 0.53998,-7.56 -8.46002,-0.72003 0.72003,-8.46002 -8.46002,0.36004 -34.01996,1.62 -12.78003,0.17999 -0.71997,8.64001 -8.46002,-0.54003 0.71997,-8.09998 -59.39996,0.17999 -0.72003,8.82001 -8.45997,-0.72003 0.71998,-8.09998 -59.39997,-0.90002 -0.54004,8.82001 -8.45996,-0.71998 0.53998,-8.10003 -59.21997,-0.71997 -0.72003,8.64001 -8.46002,-0.54004 0.72003,-8.27997 -59.22003,-1.61999 -0.71998,8.63995 -8.46002,-0.71997 0.72003,-8.28003 -46.44,-2.69995 -12.78,-0.90002 -0.54001,8.64001 -8.45999,-0.72003 0.53998,-8.45996 -12.6,-1.08002 -46.25998,-4.32 -0.72001,8.46002 -8.27999,-0.72003 0.54,-8.64002 -58.68002,-8.09997 -0.72,8.09997 -8.28,-0.53998 0.54001,-9 -58.5,-10.79999 -0.54001,7.91999 -8.45999,-0.53998 0.72,-9.35999 -58.32001,-15.48004 -0.53999,7.73999 -8.46001,-0.71997 0.72001,-9.35998 -57.96,-19.26001 -0.54,7.38 -8.46,-0.54001 0.72,-7.38"
       style="fill:none;stroke:#0000ff;stroke-width:0.0032;stroke-linecap:round;stroke-linejoin:round;stroke-miterlimit:10;stroke-dasharray:none;stroke-opacity:1"
       id="path4182"
       inkscape:connector-curvature="0" /><path
       d="m 108.63074,722.09394 -48.959999,-3.78 52.019999,19.79999 66.24,21.95999 66.59999,17.64001 66.78,12.59998 67.14002,9.17999 67.5,6.12006 67.5,3.95996 67.67999,1.97998 135.53998,1.62006 67.86004,-0.18006 68.03998,-2.33996 0.53998,-7.56 -8.45996,-0.72003 0.71997,-8.27997 -8.45996,0.17999 -34.20001,1.79999 -12.60004,0 -0.71997,8.82001 -8.46002,-0.71997 0.72003,-8.10004 -59.40002,0.17999 -0.71998,8.82001 -8.46002,-0.71997 0.71997,-8.10004 -59.39996,-0.89996 -0.54004,8.82001 -8.45996,-0.54004 0.53998,-8.09998 -59.21997,-0.90002 -0.72003,8.82001 -8.45997,-0.71998 0.71998,-8.28002 -59.40003,-1.62 -0.53998,8.64001 -8.46002,-0.54003 0.54004,-8.45997 -46.44,-2.70001 -12.60001,-0.72003 -0.54001,8.46002 -8.45999,-0.71997 0.54001,-8.46002 -12.60001,-1.08002 -46.26001,-4.32 -0.72,8.46002 -8.45999,-0.71997 0.72,-8.64002 -58.67999,-8.10003 -0.72,8.10003 -8.46002,-0.54004 0.72,-9 -58.5,-10.79998 -0.72,7.92004 -8.28,-0.54004 0.54001,-9.17999 -58.14,-15.48001 -0.54,7.56002 -8.46,-0.54 0.72,-9.54001 -57.95999,-19.26001 -0.54001,7.38 -8.45999,-0.53998 0.53999,-7.38"
       style="fill:none;stroke:#0000ff;stroke-width:0.0032;stroke-linecap:round;stroke-linejoin:round;stroke-miterlimit:10;stroke-dasharray:none;stroke-opacity:1"
       id="path4184"
       inkscape:connector-curvature="0" /><path
       d="m 110.79074,696.53394 -49.139999,-3.6 52.019989,19.79998 66.24001,21.78 66.6,17.82001 66.78,12.42001 67.13999,9.17997 67.5,6.11999 67.5,3.96002 67.67999,1.97998 135.54004,1.62006 67.85998,-0.18005 68.03998,-2.33997 0.54004,-7.56 -8.46002,-0.54004 0.71997,-8.45996 -8.45996,0.35999 -34.02002,1.61999 -12.77997,0 -0.72003,8.82001 -8.45996,-0.71997 0.71997,-8.10004 -59.40002,0.18 -0.71998,8.82 -8.46002,-0.53998 0.72003,-8.10003 -59.40002,-0.89997 -0.53998,8.82001 -8.46002,-0.72003 0.54004,-8.09998 -59.22003,-0.90002 -0.71997,8.82001 -8.46003,-0.71997 0.71998,-8.10004 -59.21998,-1.79999 -0.72003,8.64002 -8.45996,-0.54004 0.71997,-8.45996 -46.43997,-2.70002 -12.78,-0.72 -0.54001,8.46 -8.45999,-0.53998 0.53998,-8.64002 -12.59998,-1.08001 -46.26001,-4.13999 -0.72,8.28 -8.28,-0.53998 0.54001,-8.82001 -58.68002,-8.1 -0.72,8.28 -8.28,-0.72 0.54001,-8.82001 -58.5,-10.98001 -0.54001,8.1 -8.45999,-0.72 0.72,-9.17999 -58.32001,-15.48001 -0.53999,7.56 -8.46001,-0.53998 0.72,-9.54001 -57.95999,-19.07999 -0.54001,7.37998 -8.45999,-0.72 0.72,-7.37998"
       style="fill:none;stroke:#0000ff;stroke-width:0.0032;stroke-linecap:round;stroke-linejoin:round;stroke-miterlimit:10;stroke-dasharray:none;stroke-opacity:1"
       id="path4186"
       inkscape:connector-curvature="0" /><path
       d="m 702.81073,718.31394 0.72003,1.25998 3.95997,3.78 4.67999,2.70001 5.22003,1.44 5.58002,-0.17999 5.21997,-1.44 4.67999,-2.70001 3.78003,-3.96 2.69995,-4.67999 1.44,-5.22 0,-5.58002 -1.44,-5.22 -2.87994,-4.67999 -3.78003,-3.78 -4.85999,-2.70001 -5.22003,-1.44 -5.39996,0.18002 -5.40003,1.44 -4.67999,2.69998 -3.78003,3.96 -1.07996,1.80001 -1.61999,2.88001 -1.26001,5.22 0,5.57999 1.44,5.22 1.97998,3.42001"
       style="fill:none;stroke:#0000ff;stroke-width:0.0032;stroke-linecap:round;stroke-linejoin:round;stroke-miterlimit:10;stroke-dasharray:none;stroke-opacity:1"
       id="path4188"
       inkscape:connector-curvature="0" /><path
       d="m 737.91077,675.83393 -4.14002,5.57999 6.65998,5.04001 4.14001,-5.4 3.77997,3.60001 4.68005,8.1 2.51996,9 0,9.35999 -2.33996,9 -4.5,8.28 -6.66004,6.66 -4.32,2.51999 -2.69996,-6.29999 -7.74005,3.41999 2.52002,6.30001 -4.85998,1.26001 -9.35999,0.18 -9.17999,-2.34 -1.08002,-0.72 -7.02002,-3.96002 -6.65997,-6.47998 -4.86005,-8.10001 -0.53997,-2.16 -1.79999,-7.01999 0,-5.04001 6.65997,0.89999 1.08002,-8.45999 -6.84003,-0.89999 1.26001,-4.86002 4.67999,-8.28 6.66004,-6.66 1.26001,-0.72 6.65997,-3.95999 9.17999,-2.51999 9.36005,-0.18 9,2.34 4.5,2.51999"
       style="fill:none;stroke:#0000ff;stroke-width:0.0032;stroke-linecap:round;stroke-linejoin:round;stroke-miterlimit:10;stroke-dasharray:none;stroke-opacity:1"
       id="path4190"
       inkscape:connector-curvature="0" /><path
       d="m 591.21076,732.53394 7.38,0 7.01996,-1.98001 6.12,-3.6 5.22003,-5.22001 3.41998,-6.29998 1.97998,-7.02002 0,-7.37998 -1.97998,-6.84002 -3.77997,-6.29999 -5.04004,-5.04001 -6.47998,-3.59998 -7.02002,-1.80001 -7.20001,0 -7.01996,1.98001 -6.29999,3.6 -5.04003,5.22 -3.06,5.57999 -0.53998,0.72 -1.79999,7.01999 0,7.20001 0.35999,1.44 1.61999,5.57999 3.59998,6.30002 5.22003,5.03998 6.29999,3.6 7.02002,1.80002"
       style="fill:none;stroke:#0000ff;stroke-width:0.0032;stroke-linecap:round;stroke-linejoin:round;stroke-miterlimit:10;stroke-dasharray:none;stroke-opacity:1"
       id="path4192"
       inkscape:connector-curvature="0" /><path
       d="m 573.75074,666.65394 3.05999,6.83999 7.73999,-3.23999 -2.88,-6.84002 6.84002,-1.97998 11.52002,0 11.15998,2.88 6.11999,3.41998 -4.32,5.94001 6.66003,5.22 4.5,-5.94 5.21997,5.04 5.76001,9.9 3.06,10.98001 0,7.19998 -7.38001,-0.89999 -1.08001,8.45999 7.38,0.90002 -1.79999,6.84 -5.58001,10.07999 -8.09998,8.1 -6.12,3.78 -3.05999,-6.84 -7.73999,3.23999 2.88,6.84 -6.84002,1.98001 -11.52002,0 -11.15998,-2.88 -6.11999,-3.41999 4.32,-5.94 -6.66003,-5.22 -4.5,5.94 -3.77997,-3.78 -1.26001,-1.26001 -5.94,-9.89999 -3.06,-10.98001 0,-7.20001 7.38001,0.90002 1.08001,-8.46002 -7.38,-0.89999 1.79999,-6.84 5.58001,-10.07999 8.09998,-8.1 6.12,-3.78"
       style="fill:none;stroke:#0000ff;stroke-width:0.0032;stroke-linecap:round;stroke-linejoin:round;stroke-miterlimit:10;stroke-dasharray:none;stroke-opacity:1"
       id="path4194"
       inkscape:connector-curvature="0" /><path
       d="m 314.37073,584.39393 0,8.64001 2.16,8.09998 0.18,0.36001 4.32,7.38001 6.30002,6.11999 7.56,4.32001 8.28,2.16 8.81998,0 8.28002,-2.34002 7.37998,-4.5 6.12002,-6.12 4.31998,-7.55999 2.16001,-8.46 0,-8.64001 -2.34,-8.28 -4.5,-7.56 -6.12,-6.11999 -7.55999,-4.13999 -8.46,-2.16 -8.64001,0 -8.28,2.34 -7.56,4.32 -6.11999,6.29999 -4.14002,7.56 -0.17999,0 -1.98001,8.28"
       style="fill:none;stroke:#0000ff;stroke-width:0.0032;stroke-linecap:round;stroke-linejoin:round;stroke-miterlimit:10;stroke-dasharray:none;stroke-opacity:1"
       id="path4196"
       inkscape:connector-curvature="0" /><path
       d="m 305.91074,587.63392 0.89999,-8.28 -7.01999,-0.89999 2.16001,-8.28 6.29999,-11.16001 7.38,-7.55999 1.62,-1.44001 10.98001,-6.47998 12.23999,-3.42001 12.78,-0.17999 12.42001,3.23999 7.38,4.14001 -4.32,5.75998 3.41998,2.52002 3.24002,2.51999 4.31998,-5.76001 6.12002,6.12002 6.47998,10.97999 3.42002,12.23999 0,12.78002 -3.06,12.41999 -6.30002,10.98001 -9,9.17999 -7.38,4.32001 -2.69999,-6.66001 -3.95999,1.79999 -3.78,1.62 2.69999,6.48001 -8.10001,2.34 -12.78,0 -12.41998,-3.06 -10.62,-6.12 -0.54001,-0.17999 -9,-9 -6.48001,-10.98001 -2.51999,-9 -0.89999,-3.23999 -0.18002,-8.64002 7.20001,0.9"
       style="fill:none;stroke:#0000ff;stroke-width:0.0032;stroke-linecap:round;stroke-linejoin:round;stroke-miterlimit:10;stroke-dasharray:none;stroke-opacity:1"
       id="path4198"
       inkscape:connector-curvature="0" /><path
       d="m 212.67073,343.73393 36.18001,14.04 7.20001,7.2 6.84,5.94 -3.06,7.92 7.91999,3.06 1.98001,-5.04 13.13998,10.80001 14.22,10.25999 14.76001,9.54 7.56,4.5 -3.06,7.74 7.92001,3.24001 2.69999,-6.66001 0.17999,0 15.48001,8.09999 16.01999,7.38001 16.38,6.66 5.94001,1.98 -2.88001,7.56 7.74002,3.05999 3.06,-7.73999 1.25998,0.36 8.82001,1.62 7.92001,-0.54 7.73999,-2.52 6.84,-4.32001 5.58001,-5.93998 1.79999,-3.42002 15.84,6.30001 -3.95999,7.02 -8.46,9.17999 -10.26001,6.66001 -11.70001,3.78 -12.41998,0.72 -12.06,-2.16001 -3.06,-1.07998 -13.68002,-4.68001 -17.1,-6.84 -16.73999,-7.74 -16.38001,-8.46 -15.84,-9.36 -15.47998,-10.08 -14.94,-10.8 -14.22,-11.52 -13.86002,-12.06 -13.13998,-12.96 -11.34001,-12.24 -1.26,-1.26 -6.12001,-7.2"
       style="fill:none;stroke:#0000ff;stroke-width:0.0032;stroke-linecap:round;stroke-linejoin:round;stroke-miterlimit:10;stroke-dasharray:none;stroke-opacity:1"
       id="path4200"
       inkscape:connector-curvature="0" /><path
       d="m 422.01074,432.29394 -36,-14.76001 -7.02001,-7.2 -6.84,-6.12 3.24002,-7.74 -7.74002,-3.24001 -2.16,5.04001 -13.13999,-10.97999 -14.04001,-10.44001 -14.57998,-9.72 -7.56,-4.68 3.23999,-7.74 -7.92001,-3.24 -2.69999,6.66 -0.17999,-0.18 -15.48001,-8.28 -15.84,-7.56 -16.20001,-6.84 -5.94,-2.16 3.06,-7.56 -7.91999,-3.06 -3.05999,7.74 -1.26001,-0.36 -8.82001,-1.8 -7.91998,0.36 -7.74001,2.52 -6.84,4.14 -5.58,5.94 -1.97999,3.24 -15.66001,-6.48 3.95999,-7.02 8.46001,-8.82 10.44,-6.66 11.88001,-3.6 12.23999,-0.72 12.23999,2.52 2.88,1.08 13.68,4.86 16.92001,7.2 16.73999,7.92 16.20001,8.64 15.66001,9.54 15.29998,10.26 14.76001,11.16 14.22,11.7 13.68,12.23999 12.95999,13.14 11.16,12.42002 1.08002,1.25999 6.11999,7.38001"
       style="fill:none;stroke:#0000ff;stroke-width:0.0032;stroke-linecap:round;stroke-linejoin:round;stroke-miterlimit:10;stroke-dasharray:none;stroke-opacity:1"
       id="path4202"
       inkscape:connector-curvature="0" /><path
       d="m 389.79074,504.83393 -0.89999,-9.53999 8.45999,-0.72 -0.54001,-5.40001 16.74002,3.6 17.28,2.7 17.63999,1.98 8.64001,0.54 0.89999,8.46 8.28,-0.9 -0.54,-7.02 0.17999,0 17.64001,0.18 17.46002,-0.54 17.63996,-1.62 6.30005,-0.72 0.71997,7.92 8.46002,-0.72 0.71997,8.46 -14.39996,1.98001 -18.36005,1.43998 -18.35998,0.72 -18.35999,-0.17999 -18.54001,-1.07999 -18.17999,-2.16001 -18.18002,-2.88 -18,-3.78 -2.69999,-0.72"
       style="fill:none;stroke:#0000ff;stroke-width:0.0032;stroke-linecap:round;stroke-linejoin:round;stroke-miterlimit:10;stroke-dasharray:none;stroke-opacity:1"
       id="path4204"
       inkscape:connector-curvature="0" /><path
       d="m 336.51074,485.03393 1.97999,-0.72 0.72,-0.36 12.24002,-4.5 17.45999,-5.76 17.82001,-4.86 18,-3.96001 18,-3.05999 18.35998,-2.34 18.36002,-1.26 0.53998,0 13.86001,-0.36 2.51999,0 0.72,0 0.72,0 4.32001,0 -9.89999,-5.4 -8.10001,-5.58001 -8.10001,-5.39999 -0.35998,-0.36 -9,-7.02001 -4.14002,-3.23999 -2.69998,-2.16 -14.76001,-13.5 -13.67999,-14.75999 -12.60001,-15.66001 -11.33999,-16.56 -9.9,-17.46 -8.64001,-18.18 -6.66,-17.1 -1.07999,-2.52 -1.44,-3.78 0,-0.36 -40.68,1.08 -67.86001,-0.36 -80.45999,-1.62 4.5,8.1 0.72,1.08 10.61999,17.28 11.34,16.92 12.06,16.38 12.6,15.83999 13.13999,15.48001 13.86001,14.94001 14.4,14.22 15.11999,13.67999 15.48001,13.14 16.01999,12.60001 8.82001,6.47999 1.07999,0.72 16.02001,10.26"
       style="fill:none;stroke:#0000ff;stroke-width:0.0032;stroke-linecap:round;stroke-linejoin:round;stroke-miterlimit:10;stroke-dasharray:none;stroke-opacity:1"
       id="path4206"
       inkscape:connector-curvature="0" /><path
       d="m 352.71073,514.91392 -4.13999,-2.15998 -14.22,-8.46 -1.61999,-0.90001 -7.92002,-5.22 -14.03998,-9.72 -10.44,-7.37999 -16.56,-12.96001 -16.02001,-13.5 -15.47999,-14.22 -14.76001,-14.76 -14.4,-15.3 -13.68,-16.02 -12.96,-16.38 -12.42,-16.92 -11.7,-17.46 -10.97999,-17.82 -10.44001,-18.36 1.44001,-16.74 28.25999,0.54 -0.72,8.1 8.46001,0.72 0.72,-8.64 59.21998,1.26 -0.53998,8.1 8.28,0.72 0.72,-8.82 59.4,0.36 -0.54001,8.1 8.28,0.72 0.72,-8.82 12.78,0.18 34.01999,-1.44 8.64001,-0.18 -0.72,8.46 8.45999,0.72 -0.72,7.38 -9.53998,0.36 6.84,17.46 8.09998,16.92 9.36001,16.38 10.62,15.48 11.70001,14.76 12.78,13.68 13.85998,12.78 2.16001,1.62 12.6,9.90001 15.65998,10.61999 1.08001,0.53999 4.5,2.52001 5.94001,3.42 4.85998,2.69999 16.92004,7.92002 14.57996,5.57998 3.06,1.08001 11.88,3.41999 10.62,6.12001 8.82001,8.64 6.48004,10.62 3.59997,11.88 0.53998,12.23999 -2.69995,12.06 -5.40003,11.16001 -8.09997,9.36001 -10.08002,7.01999 -11.52002,4.32001 -12.41998,1.25998 -3.06,-0.18 0.71997,-8.45999 0.72003,-8.28 1.07996,0 9,-0.89999 7.56006,-2.88001 6.65997,-4.67999 5.21997,-6.12002 3.60004,-7.19999 1.61999,-7.92001 -0.35998,-8.09999 -2.34003,-7.74 -4.14001,-6.84 -5.75995,-5.58 -7.02002,-4.14 -8.64001,-2.34 -1.08002,-0.18001 0.72003,-8.45999 -8.46002,-0.72 -0.71997,8.10001 -6.29999,-0.72 -17.46002,-1.44001 -17.64002,-0.36 -0.35998,0 -0.72,0 -16.56,0.36 -0.18002,0 0.54,-7.19999 -8.27999,-0.54001 -0.72001,8.28 -8.82,0.72 -17.45999,2.16 -17.28,2.88001 -16.73999,3.59999 0.54,-5.22 -8.46002,-0.72001 -0.72,8.28 -8.81998,2.52001 -16.74002,5.40001 -2.69998,1.07998 2.51999,1.62001 15.66,8.09999 8.28,3.96001 -0.72,8.28 -0.89999,9.54001 -14.22,-6.66001 -12.24002,-6.30001"
       style="fill:none;stroke:#0000ff;stroke-width:0.0032;stroke-linecap:round;stroke-linejoin:round;stroke-miterlimit:10;stroke-dasharray:none;stroke-opacity:1"
       id="path4208"
       inkscape:connector-curvature="0" /><path
       d="m 675.09076,706.79392 0,6.84 3.06,11.16 5.94,10.08002 8.27997,8.1 10.08002,5.75998 11.15997,2.88001 11.70001,-0.17999 11.16004,-3.06 9.89996,-5.94 8.28003,-8.28 5.57996,-10.08002 2.88,-11.16 0,-11.69999 -3.06,-11.16 -5.94,-9.89999 -8.27997,-8.28 -10.08001,-5.58002 -11.33997,-2.88 -11.52002,0 -11.16003,3.06002 -10.07996,5.93998 -8.10004,8.28 -5.76001,10.08001 -0.71997,3.06 -1.97998,8.28 0,4.67999"
       style="fill:none;stroke:#0000ff;stroke-width:0.0032;stroke-linecap:round;stroke-linejoin:round;stroke-miterlimit:10;stroke-dasharray:none;stroke-opacity:1"
       id="path4210"
       inkscape:connector-curvature="0" /><path
       d="m 752.13074,656.57392 -4.5,6.12 6.65997,5.04 4.68006,-5.94 8.27997,8.10001 8.09997,13.67999 4.32001,15.48001 0.17999,15.84 -4.13995,15.48001 -7.73999,13.85998 -11.16004,11.34 -10.08001,5.94 -3.06,-7.01999 -7.73999,3.23999 3.06,7.02002 -11.33997,3.23996 -15.84003,0 -13.85998,-3.41998 -1.62,-0.53998 -13.85998,-7.74002 -9.72003,-9.72 -1.62,-1.44 -8.09998,-13.85999 -4.32,-15.29999 -0.18,-11.70001 7.73999,0.9 0.89997,-8.28 -7.56,-0.9 2.88001,-11.33999 7.92004,-13.86002 9.17999,-9.35998 1.97998,-1.98001 13.68,-8.10001 15.47998,-4.31998 15.84002,-0.18002 15.47998,3.96002 10.08002,5.75998"
       style="fill:none;stroke:#0000ff;stroke-width:0.0032;stroke-linecap:round;stroke-linejoin:round;stroke-miterlimit:10;stroke-dasharray:none;stroke-opacity:1"
       id="path4212"
       inkscape:connector-curvature="0" /><path
       d="m 733.23072,386.21393 10.44,-0.18 10.26001,-2.7 9,-5.4 7.38,-7.56 5.22003,-9.18 2.69996,-10.26 -0.18,-10.44 -2.70001,-10.26 -5.39996,-9.18 -7.56,-7.38 -9.17999,-5.04 -10.26001,-2.7 -10.44001,0 -10.26,2.88 -9,5.4 -7.38001,7.56 -5.21997,9.18 -0.54004,1.98 -2.15997,8.1 0.17999,10.62 0.35999,1.62 2.34002,8.64 5.39997,9 7.55999,7.38 9.18006,5.21999 10.25995,2.70001"
       style="fill:none;stroke:#0000ff;stroke-width:0.0032;stroke-linecap:round;stroke-linejoin:round;stroke-miterlimit:10;stroke-dasharray:none;stroke-opacity:1"
       id="path4214"
       inkscape:connector-curvature="0" /><path
       d="m 731.25074,402.23392 -14.40003,-3.77999 -12.77997,-7.2 -5.94,-5.76 -4.67999,-4.68 -7.56,-12.6 -3.78003,-14.22 -0.17999,-10.62 7.38,0.9 1.08002,-8.28 -7.38001,-0.9 2.52002,-10.26 7.38001,-12.96 7.73999,-7.92 2.51996,-2.52 12.78003,-7.56 14.21997,-3.96 14.76001,0 14.40002,3.6 9.17999,5.22 -4.5,5.94 6.65998,5.04 4.5,-5.94 7.56,7.38 7.55999,12.78 3.96003,14.22 0,14.76 -3.59998,14.4 -7.38001,12.78 -10.26001,10.62 -9.17999,5.22001 -2.88,-6.84002 -7.73999,3.42 2.88,6.84001 -10.08002,2.7 -14.76,0.17999"
       style="fill:none;stroke:#0000ff;stroke-width:0.0032;stroke-linecap:round;stroke-linejoin:round;stroke-miterlimit:10;stroke-dasharray:none;stroke-opacity:1"
       id="path4216"
       inkscape:connector-curvature="0" /><path
       d="m 688.95075,606.71393 -3.06,-7.38 -4.67999,-6.12 -6.29999,-4.86001 -7.20001,-2.87998 -7.73999,-1.08001 -7.74005,1.08001 -7.38001,2.87998 -6.11999,4.86001 -4.85999,6.12 -2.88,7.38 -1.07996,7.74 1.07996,7.73999 2.88,7.20001 4.85999,6.29999 6.11999,4.68002 7.38001,3.06 7.74005,1.07998 7.73999,-1.07998 7.20001,-3.06 6.29999,-4.68002 4.67999,-6.29999 3.06,-7.20001 1.08001,-7.73999 -1.08001,-7.74"
       style="fill:none;stroke:#0000ff;stroke-width:0.0032;stroke-linecap:round;stroke-linejoin:round;stroke-miterlimit:10;stroke-dasharray:none;stroke-opacity:1"
       id="path4218"
       inkscape:connector-curvature="0" /><path
       d="m 697.05072,618.59394 8.10004,0 -0.90002,7.73999 -4.68,10.98001 -7.20001,9.53998 -9.53998,7.20001 -10.98004,4.67999 -7.73999,0.9 0,-8.09998 -8.45996,0 0,8.09998 -7.56,-0.9 -10.98004,-4.67999 -9.53998,-7.20001 -7.38,-9.53998 -4.5,-10.98001 -1.08002,-7.73999 8.10004,0 0,-8.46002 -8.10004,0 1.08002,-7.56 4.5,-10.97998 7.38,-9.54001 9.53998,-7.38 10.98004,-4.5 7.56,-1.07999 0,8.09998 8.45996,0 0,-8.09998 7.73999,1.07999 10.98004,4.5 9.53998,7.38 7.20001,9.54001 4.68,10.97998 0.90002,7.56 -8.10004,0 0,8.46002"
       style="fill:none;stroke:#0000ff;stroke-width:0.0032;stroke-linecap:round;stroke-linejoin:round;stroke-miterlimit:10;stroke-dasharray:none;stroke-opacity:1"
       id="path4220"
       inkscape:connector-curvature="0" /><path
       d="m 67.230741,596.27393 -7.74,3.41999 -6.84,5.04 -5.22,6.84 -3.24,7.92001 -1.08,8.46 1.08,8.45999 3.24,7.92001 5.22,6.84 6.84,5.22 7.74,3.23999 8.46,1.08001 8.64,-1.08001 7.74,-3.23999 6.84,-5.22 5.219999,-6.84 3.24001,-7.92001 1.08,-8.45999 -1.08,-8.46 -3.24001,-7.92001 -5.219999,-6.84 -6.84,-5.04 -7.74,-3.41999 -8.64,-1.08001 -8.46,1.08001"
       style="fill:none;stroke:#0000ff;stroke-width:0.0032;stroke-linecap:round;stroke-linejoin:round;stroke-miterlimit:10;stroke-dasharray:none;stroke-opacity:1"
       id="path4222"
       inkscape:connector-curvature="0" /><path
       d="m 80.010741,587.09394 0,-7.92001 8.46,1.08001 11.879999,5.03998 10.26,7.74002 7.91999,10.25998 4.86,11.88001 1.08001,8.64001 -7.92,0 0,8.45999 7.92,0 -1.08001,8.45999 -4.86,11.88001 -7.91999,10.26001 -10.26,7.73999 -11.879999,5.04001 -8.46,1.07998 0,-7.91998 -8.46,0 0,7.91998 -8.46,-1.07998 -12.06,-5.04001 -10.08,-7.73999 -7.92,-10.26001 -4.86,-11.88001 -1.08,-8.45999 7.92,0 0,-8.45999 -7.92,0 1.08,-8.64001 4.86,-11.88001 7.92,-10.25998 10.08,-7.74002 12.06,-5.03998 8.46,-1.08001 0,7.92001 8.46,0"
       style="fill:none;stroke:#0000ff;stroke-width:0.0032;stroke-linecap:round;stroke-linejoin:round;stroke-miterlimit:10;stroke-dasharray:none;stroke-opacity:1"
       id="path4224"
       inkscape:connector-curvature="0" /><path
       d="m 466.65073,745.67393 10.80002,0 10.44,-2.88001 9.35999,-5.57999 7.55999,-7.73999 5.40003,-9.36001 2.70001,-10.44 -0.18005,-10.79999 -2.88001,-10.44 -5.39996,-9.36002 -7.73999,-7.56 -9.36005,-5.39999 -10.61996,-2.70001 -10.80002,0.18002 -10.44,2.88 -9.18,5.4 -7.55999,7.73999 -5.4,9.54001 -0.89999,3.23999 -1.80002,7.20001 0,8.45999 0,2.34 2.88,10.44 5.58002,9.17999 7.73999,7.74002 9.35999,5.22 10.44,2.69999"
       style="fill:none;stroke:#0000ff;stroke-width:0.0032;stroke-linecap:round;stroke-linejoin:round;stroke-miterlimit:10;stroke-dasharray:none;stroke-opacity:1"
       id="path4226"
       inkscape:connector-curvature="0" /><path
       d="m 440.73075,752.87394 -3.78,-1.98001 -3.06,-3.06 -7.74002,-7.56 -1.62,-2.70001 -5.94,-10.44 -4.13998,-14.4 0,-10.97998 7.55999,0.9 1.07999,-8.28 -7.73999,-0.9 2.88001,-10.62002 7.38,-13.13999 10.62,-10.80001 2.69998,-1.62 6.66,-3.78 3.60001,-2.16 4.14001,-1.25998 10.44,-2.88001 15.12,0 14.58002,3.78 9.53997,5.22 -4.67999,6.12 6.65998,5.04001 4.67999,-5.94 7.74005,7.55999 7.73999,12.96 3.95996,14.58001 0.17999,10.79999 0,4.32001 -1.07995,4.13998 -2.70002,10.44 -7.55999,13.14002 -10.62,10.79999 -9.35998,5.58001 -2.88001,-7.02002 -7.74005,3.24002 2.88001,7.01999 -10.43998,2.88001 -15.11999,0.17999 -14.58002,-3.78 -9.35998,-5.39999"
       style="fill:none;stroke:#0000ff;stroke-width:0.0032;stroke-linecap:round;stroke-linejoin:round;stroke-miterlimit:10;stroke-dasharray:none;stroke-opacity:1"
       id="path4228"
       inkscape:connector-curvature="0" /><path
       d="m 354.51074,731.99393 9.72001,-0.17999 9.35998,-2.52002 8.46002,-5.03998 6.84,-6.84002 4.67999,-8.45999 2.51999,-9.54001 -0.17999,-9.72 -2.51999,-9.35999 -5.04001,-8.45999 -6.84,-6.84 -8.45999,-4.68002 -9.54001,-2.51999 -9.72,0.17999 -9.36001,2.52002 -8.45999,4.85999 -6.84,7.01999 -4.67999,8.46002 -2.52002,9.53998 0.18002,9.72 2.51999,9.36001 4.85999,8.46 7.02001,6.83999 8.46,4.68002 9.54,2.51999"
       style="fill:none;stroke:#0000ff;stroke-width:0.0032;stroke-linecap:round;stroke-linejoin:round;stroke-miterlimit:10;stroke-dasharray:none;stroke-opacity:1"
       id="path4230"
       inkscape:connector-curvature="0" /><path
       d="m 352.53073,748.19392 -13.67999,-3.59998 -8.45999,-4.68002 4.67999,-6.12 -6.83999,-5.22 -4.5,6.12 -7.02002,-6.84 -0.9,-1.44 -6.11999,-10.62 -3.78,-13.5 -0.17999,-9.72 7.55999,0.90002 1.07999,-8.28002 -7.56,-0.9 2.52002,-9.53998 6.84,-12.06002 9.72,-10.07999 4.13998,-2.34 4.32001,-2.51999 3.06,7.01999 7.73999,-3.42001 -3.06,-7.01999 9.36002,-2.51999 14.03998,-0.18002 13.68002,3.6 8.45999,4.68 -4.67999,6.12002 6.83999,5.03998 4.5,-6.11999 7.01999,6.83999 7.02002,12.06 3.78,13.5 0.17999,9.90002 -7.73999,-1.08001 -0.90002,8.45999 7.56,0.90002 -2.51999,9.53998 -6.84,12.06 -9.89999,10.08001 -8.28,4.85999 -3.06,-7.01999 -7.74002,3.42001 3.06,7.01999 -9.53998,2.51999 -13.86002,0.18"
       style="fill:none;stroke:#0000ff;stroke-width:0.0032;stroke-linecap:round;stroke-linejoin:round;stroke-miterlimit:10;stroke-dasharray:none;stroke-opacity:1"
       id="path4232"
       inkscape:connector-curvature="0" /><path
       d="m 740.61072,362.45393 3.60004,-1.44 2.88,-2.34 2.33997,-2.88 1.44,-3.42 0.35999,-3.78"
       style="fill:none;stroke:#0000ff;stroke-width:0.0032;stroke-linecap:round;stroke-linejoin:round;stroke-miterlimit:10;stroke-dasharray:none;stroke-opacity:1"
       id="path4234"
       inkscape:connector-curvature="0" /><path
       d="m 170.19074,488.99393 -8.45999,-1.08"
       style="fill:none;stroke:#0000ff;stroke-width:0.0032;stroke-linecap:round;stroke-linejoin:round;stroke-miterlimit:10;stroke-dasharray:none;stroke-opacity:1"
       id="path4236"
       inkscape:connector-curvature="0" /><path
       d="m 751.23072,348.59393 -0.35999,-3.78 -1.44,-3.42 -2.33997,-2.88 -2.88,-2.34 -3.60004,-1.44 -3.59998,-0.54 -3.78002,0.54 -3.41999,1.44 -3.05999,2.34 -2.15998,2.88 -1.44,3.42 -0.54004,3.78 0.54004,3.78 1.44,3.42 2.15998,2.88 3.05999,2.34 3.41999,1.44 3.78002,0.54"
       style="fill:none;stroke:#0000ff;stroke-width:0.0032;stroke-linecap:round;stroke-linejoin:round;stroke-miterlimit:10;stroke-dasharray:none;stroke-opacity:1"
       id="path4238"
       inkscape:connector-curvature="0" /><path
       d="m 765.63074,352.73393 -0.35999,3.42 -2.88,7.02 -4.67999,6.12 -6.12,4.68 -7.02002,2.88 -3.41998,0.54 0,-9 -8.46002,0 0,9 -3.23999,-0.54 -7.20001,-2.88 -5.94001,-4.68 -4.67999,-6.12 -2.88,-7.02 -0.53998,-3.42 9,0 0,-8.46 -9,0 0.53998,-3.24 2.88,-7.02 4.67999,-6.12 5.94001,-4.68 7.20001,-2.88 3.23999,-0.54 0,9 8.46002,0 0,-9 3.41998,0.54 7.02002,2.88 6.12,4.68 4.67999,6.12 2.88,7.02 0.35999,3.24 -9,0 0,8.46 9,0"
       style="fill:none;stroke:#0000ff;stroke-width:0.0032;stroke-linecap:round;stroke-linejoin:round;stroke-miterlimit:10;stroke-dasharray:none;stroke-opacity:1"
       id="path4240"
       inkscape:connector-curvature="0" /><path
       d="m 89.370741,788.51392 -2.88,-7.38 -4.86,-6.12 -6.12,-4.85998 -7.38,-2.88001 -7.74,-1.08001 -7.74,1.08001 -7.2,2.88001 -6.3,4.85998 -4.68,6.12 -3.06,7.38 -1.08,7.73999 1.08,7.73999 3.06,7.20002 4.68,6.29998 6.3,4.68006 7.2,3.05999 7.74,1.07996 7.74,-1.07996 7.38,-3.05999 6.12,-4.68006 4.86,-6.29998 2.88,-7.20002 1.08,-7.73999 -1.08,-7.73999"
       style="fill:none;stroke:#0000ff;stroke-width:0.0032;stroke-linecap:round;stroke-linejoin:round;stroke-miterlimit:10;stroke-dasharray:none;stroke-opacity:1"
       id="path4242"
       inkscape:connector-curvature="0" /><path
       d="m 97.470741,800.39393 8.099999,0 -0.90001,7.73999 -4.679989,10.98004 -7.2,9.53998 -9.54,7.20001 -10.98,4.67999 -7.56,0.89997 0,-8.09998 -8.46,0 0,8.09998 -7.74,-0.89997 -10.98,-4.67999 -9.54,-7.20001 -7.2,-9.53998 -4.68,-10.98004 -0.9,-7.73999 8.1,0 0,-8.46002 -8.1,0 0.9,-7.56 4.68,-10.97998 7.2,-9.54001 9.54,-7.37998 10.98,-4.5 7.74,-1.08001 0,8.1 8.46,0 0,-8.1 7.56,1.08001 10.98,4.5 9.54,7.37998 7.2,9.54001 4.679989,10.97998 0.90001,7.56 -8.099999,0 0,8.46002"
       style="fill:none;stroke:#0000ff;stroke-width:0.0032;stroke-linecap:round;stroke-linejoin:round;stroke-miterlimit:10;stroke-dasharray:none;stroke-opacity:1"
       id="path4244"
       inkscape:connector-curvature="0" /><path
       d="m 595.89075,591.41392 -2.88001,-7.37998 -4.85998,-6.12002 -6.30005,-4.85999 -7.19995,-2.88 -7.73999,-1.07999 -7.74005,1.07999 -7.19995,2.88 -6.30005,4.85999 -4.85999,6.12002 -2.88,7.37998 -1.08002,7.74002 1.08002,7.73999 2.88,7.20001 4.85999,6.29999 6.30005,4.67999 7.19995,3.06 7.74005,1.08001 7.73999,-1.08001 7.19995,-3.06 6.30005,-4.67999 4.85998,-6.29999 2.88001,-7.20001 1.08002,-7.73999 -1.08002,-7.74002"
       style="fill:none;stroke:#0000ff;stroke-width:0.0032;stroke-linecap:round;stroke-linejoin:round;stroke-miterlimit:10;stroke-dasharray:none;stroke-opacity:1"
       id="path4246"
       inkscape:connector-curvature="0" /><path
       d="m 603.99073,603.29392 8.10003,0 -0.90002,7.74002 -4.68,10.97998 -7.20001,9.54001 -9.53998,7.20001 -10.98004,4.68 -7.73999,0.89999 0,-8.10001 -8.27997,0 0,8.10001 -7.73999,-0.89999 -10.98004,-4.68 -9.53998,-7.20001 -7.20001,-9.54001 -4.67999,-10.97998 -0.90002,-7.74002 8.10003,0 0,-8.45999 -8.10003,0 0.90002,-7.56 4.67999,-10.98001 7.20001,-9.53998 9.53998,-7.38 10.98004,-4.5 7.73999,-1.08002 0,8.10001 8.27997,0 0,-8.10001 7.73999,1.08002 10.98004,4.5 9.53998,7.38 7.20001,9.53998 4.68,10.98001 0.90002,7.56 -8.10003,0 0,8.45999"
       style="fill:none;stroke:#0000ff;stroke-width:0.0032;stroke-linecap:round;stroke-linejoin:round;stroke-miterlimit:10;stroke-dasharray:none;stroke-opacity:1"
       id="path4248"
       inkscape:connector-curvature="0" /><path
       d="m 483.75074,700.31394 -1.44001,-3.42001 -2.16,-2.88001 -3.06,-2.33999 -3.41998,-1.44001 -3.78,-0.54 -3.60001,0.54 -3.6,1.44001 -2.88001,2.33999 -2.33999,2.88001 -1.44001,3.42001 -0.54,3.78 0.54,3.78 1.44001,3.41998 2.33999,2.88001 2.88001,2.33999 3.6,1.44001 3.60001,0.54 3.78,-0.54 3.41998,-1.44001 3.06,-2.33999 2.16,-2.88001 1.44001,-3.41998 0.53997,-3.78 -0.53997,-3.78"
       style="fill:none;stroke:#0000ff;stroke-width:0.0032;stroke-linecap:round;stroke-linejoin:round;stroke-miterlimit:10;stroke-dasharray:none;stroke-opacity:1"
       id="path4250"
       inkscape:connector-curvature="0" /><path
       d="m 498.69074,708.23392 -0.53998,3.42002 -2.88001,7.01999 -4.67999,6.11999 -5.94,4.68002 -7.20001,2.87998 -3.24002,0.54001 0,-9 -8.45999,0 0,9 -3.41999,-0.54001 -7.02002,-2.87998 -6.11999,-4.68002 -4.68,-6.11999 -2.88,-7.01999 -0.35999,-3.42002 8.81998,0 0,-8.45999 -8.81998,0 0.35999,-3.23999 2.88,-7.02002 4.68,-6.11999 6.11999,-4.68 7.02002,-2.88 3.41999,-0.54001 0,9 8.45999,0 0,-9 3.24002,0.54001 7.20001,2.88 5.94,4.68 4.67999,6.11999 2.88001,7.02002 0.53998,3.23999 -9,0 0,8.45999 9,0"
       style="fill:none;stroke:#0000ff;stroke-width:0.0032;stroke-linecap:round;stroke-linejoin:round;stroke-miterlimit:10;stroke-dasharray:none;stroke-opacity:1"
       id="path4252"
       inkscape:connector-curvature="0" /><path
       d="m 790.83075,594.47394 -7.91998,3.23999 -6.84003,5.22001 -5.22003,6.83999 -3.23999,7.73999 -1.07996,8.46002 1.07996,8.63999 3.23999,7.73999 5.22003,6.84 6.84003,5.22 7.91998,3.24002 8.45996,1.07998 8.46003,-1.07998 7.91998,-3.24002 6.84002,-5.22 5.03998,-6.84 3.42005,-7.73999 1.07995,-8.63999 -1.07995,-8.46002 -3.42005,-7.73999 -5.03998,-6.83999 -6.84002,-5.22001 -7.91998,-3.23999 -8.46003,-1.08001 -8.45996,1.08001"
       style="fill:none;stroke:#0000ff;stroke-width:0.0032;stroke-linecap:round;stroke-linejoin:round;stroke-miterlimit:10;stroke-dasharray:none;stroke-opacity:1"
       id="path4254"
       inkscape:connector-curvature="0" /><path
       d="m 803.43073,577.37394 8.64001,1.07999 11.88001,4.86001 10.26001,7.91998 7.73999,10.08002 5.03998,12.06 1.08001,8.45999 -7.91998,0 0,8.45999 7.91998,0 -1.08001,8.46002 -5.03998,11.87998 -7.73999,10.26001 -10.26001,7.92001 -11.88001,4.85999 -8.64001,1.08001 0,-7.92001 -8.45996,0 0,7.92001 -8.46003,-1.08001 -11.88,-4.85999 -10.26001,-7.92001 -7.73999,-10.26001 -5.03998,-11.87998 -1.08002,-8.46002 7.91999,0 0,-8.45999 -7.91999,0 1.08002,-8.45999 5.03998,-12.06 7.73999,-10.08002 10.26001,-7.91998 11.88,-4.86001 8.46003,-1.07999 0,7.91998"
       style="fill:none;stroke:#0000ff;stroke-width:0.0032;stroke-linecap:round;stroke-linejoin:round;stroke-miterlimit:10;stroke-dasharray:none;stroke-opacity:1"
       id="path4256"
       inkscape:connector-curvature="0" /><path
       d="m 737.01074,362.99393 3.59998,-0.54"
       style="fill:none;stroke:#0000ff;stroke-width:0.0032;stroke-linecap:round;stroke-linejoin:round;stroke-miterlimit:10;stroke-dasharray:none;stroke-opacity:1"
       id="path4258"
       inkscape:connector-curvature="0" /><path
       d="m 794.97077,585.29392 8.45996,0"
       style="fill:none;stroke:#0000ff;stroke-width:0.0032;stroke-linecap:round;stroke-linejoin:round;stroke-miterlimit:10;stroke-dasharray:none;stroke-opacity:1"
       id="path4260"
       inkscape:connector-curvature="0" /><path
       d="m 588.87073,750.17393 11.88001,-0.18 11.34002,-3.23999 10.25995,-5.94 8.28003,-8.46002 5.76001,-10.25998 3.06,-11.52002 -0.18,-11.88 -3.05999,-11.34 -6.12,-10.25998 -8.46002,-8.28 -10.26001,-5.94 -11.52002,-2.88001 -11.87994,0.18 -11.34003,3.05999 -10.26001,6.12 -8.27997,8.28 -5.76001,10.44 -3.06,11.52002 0.18,8.45999 0,3.23999 3.05999,11.52002 6.12,10.07999 8.46002,8.45999 10.25995,5.76001 11.52002,3.06"
       style="fill:none;stroke:#0000ff;stroke-width:0.0032;stroke-linecap:round;stroke-linejoin:round;stroke-miterlimit:10;stroke-dasharray:none;stroke-opacity:1"
       id="path4262"
       inkscape:connector-curvature="0" /><path
       d="m 628.11072,653.15394 -4.67999,6.29999 6.84002,5.04 4.68,-6.30001 8.46002,8.46002 8.27997,14.03998 4.32,15.66 0.18,16.20001 -4.14002,15.84 -7.91998,14.22 -11.34003,11.51999 -10.44,6.12002 -3.06,-7.20001 -7.73999,3.23999 3.06,7.20001 -11.51996,3.24002 -16.38,0.18 -15.66004,-4.14002 -14.21997,-7.92001 -11.52002,-11.51999 -0.71997,-1.07999 -7.56,-12.96002 -4.32,-15.66 -0.18,-11.87998 7.73999,0.9 1.07996,-8.46002 -7.73999,-0.9 3.06,-11.51999 7.92004,-14.22 11.33997,-11.70001 14.04004,-8.09998 15.65997,-4.5 16.38,0 15.65998,3.95999 10.44,5.94001"
       style="fill:none;stroke:#0000ff;stroke-width:0.0032;stroke-linecap:round;stroke-linejoin:round;stroke-miterlimit:10;stroke-dasharray:none;stroke-opacity:1"
       id="path4264"
       inkscape:connector-curvature="0" /><path
       d="m 454.41074,627.59394 11.51999,0 11.16,-3.06 10.07999,-5.94 8.10003,-8.28 5.76001,-10.08002 2.88001,-11.33999 -0.18005,-11.51999 -3.06,-11.16001 -5.75995,-10.08001 -8.28003,-8.09998 -10.26001,-5.76001 -11.16,-2.88 -11.69999,0.17999 -11.16,3.06 -9.89999,5.94 -8.10001,8.28 -5.76001,10.08002 -2.16,8.1 -0.72,3.06 0,8.63998 0,3.06 3.06002,11.16001 5.93998,9.89999 8.28,8.28 10.08001,5.58001 11.34,2.88001"
       style="fill:none;stroke:#0000ff;stroke-width:0.0032;stroke-linecap:round;stroke-linejoin:round;stroke-miterlimit:10;stroke-dasharray:none;stroke-opacity:1"
       id="path4266"
       inkscape:connector-curvature="0" /><path
       d="m 492.93073,532.55393 -4.67999,6.29999 6.66003,5.04001 4.67999,-6.12 8.27997,8.10001 8.10004,13.85998 4.31994,15.30002 0.18006,16.01999 -3.96003,15.29999 -7.91998,14.04001 -11.16003,11.33999 -10.08002,5.94001 -3.06,-7.19999 -7.73996,3.41999 3.06,7.01999 -11.34,3.24002 -16.02001,0 -15.29999,-3.96002 -13.86002,-7.91999 -11.51999,-11.16 -1.44,-2.51999 -6.66,-11.16 -4.13999,-15.30002 -0.18002,-11.69998 7.74002,0.89999 0.89999,-8.45999 -7.55999,-0.9 2.88,-11.34002 7.91998,-13.85999 11.16001,-11.33999 1.08001,-0.72001 12.59998,-7.38 15.48001,-4.32001 1.26001,0 14.57999,-0.17999 15.47998,3.95999 10.26001,5.76001"
       style="fill:none;stroke:#0000ff;stroke-width:0.0032;stroke-linecap:round;stroke-linejoin:round;stroke-miterlimit:10;stroke-dasharray:none;stroke-opacity:1"
       id="path4268"
       inkscape:connector-curvature="0" /><path
       d="m 372.51074,692.39393 -1.44,-3.41999 -2.16,-2.88 -3.06,-2.34 -3.42001,-1.44 -3.78,-0.54001 -3.59998,0.54001 -3.6,1.44 -2.88001,2.34 -2.33999,2.88 -1.44001,3.41999 -0.54,3.78 0.54,3.78 1.44001,3.42001 2.33999,2.88 2.88001,2.34 3.6,1.44 3.59998,0.53998 3.78,-0.53998 3.42001,-1.44 3.06,-2.34 2.16,-2.88 1.44,-3.42001 0.54001,-3.78 -0.54001,-3.78"
       style="fill:none;stroke:#0000ff;stroke-width:0.0032;stroke-linecap:round;stroke-linejoin:round;stroke-miterlimit:10;stroke-dasharray:none;stroke-opacity:1"
       id="path4270"
       inkscape:connector-curvature="0" /><path
       d="m 387.45075,700.31394 -0.54001,3.41998 -2.88001,7.02002 -4.67999,6.12 -5.94,4.67999 -7.20001,2.88001 -3.23999,0.54 0,-9 -8.46,0 0,9 -3.42001,-0.54 -7.01999,-2.88001 -6.11999,-4.67999 -4.68,-6.12 -2.88,-7.02002 -0.36002,-3.41998 8.82001,0 0,-8.46002 -8.82001,0 0.36002,-3.23999 2.88,-7.01999 4.68,-6.12 6.11999,-4.68002 7.01999,-2.88 3.42001,-0.53998 0,9 8.46,0 0,-9 3.23999,0.53998 7.20001,2.88 5.94,4.68002 4.67999,6.12 2.88001,7.01999 0.54001,3.23999 -9,0 0,8.46002 9,0"
       style="fill:none;stroke:#0000ff;stroke-width:0.0032;stroke-linecap:round;stroke-linejoin:round;stroke-miterlimit:10;stroke-dasharray:none;stroke-opacity:1"
       id="path4272"
       inkscape:connector-curvature="0" /><path
       d="m 456.21073,603.11393 5.58001,0 5.22,-1.44 4.68,-2.69999 3.95999,-3.96002 2.70001,-4.85998 1.26001,-5.22 0,-5.58002 -1.44,-5.22 -2.70001,-4.67999 -3.96,-3.96 -4.86001,-2.70001 -5.22,-1.25998 -5.57999,0 -5.22,1.44 -4.67999,2.87998 -3.96002,3.78 -2.69999,4.86001 -1.26001,5.22 0,5.57999 0.9,3.06 0.54001,2.16 2.70001,4.86002 3.95999,3.78 4.85999,2.69998 5.22,1.26001"
       style="fill:none;stroke:#0000ff;stroke-width:0.0032;stroke-linecap:round;stroke-linejoin:round;stroke-miterlimit:10;stroke-dasharray:none;stroke-opacity:1"
       id="path4274"
       inkscape:connector-curvature="0" /><path
       d="m 495.45075,582.59394 -7.02002,-0.90002 -0.89997,8.46002 6.83997,0.89999 -1.26001,5.22 -4.85998,8.28 -6.65998,7.01999 -4.68002,2.70001 -2.70001,-6.48001 -7.91999,3.42001 2.88001,6.29999 -5.22,1.44001 -9.72,0.17999 -9.36002,-2.51999 -4.67999,-2.70001 4.14001,-5.4 -6.66,-5.22 -4.32001,5.58002 -1.26001,-1.26001 -2.51999,-2.51999 -4.86001,-8.28 -2.51999,-9.36001 0,-5.4 6.83999,0.9 1.08002,-8.46 -7.02002,-0.72 1.44,-5.22 4.68,-8.45999 6.84002,-6.84 4.68,-2.88 2.69998,6.47998 7.74002,-3.23999 -2.70001,-6.48001 5.22,-1.44 9.54001,0 9.35998,2.34002 4.68002,2.69998 -4.14001,5.58002 6.84,5.03998 4.13998,-5.57999 3.78003,3.78 5.03998,8.28 2.52002,9.35999 0,5.40002"
       style="fill:none;stroke:#0000ff;stroke-width:0.0032;stroke-linecap:round;stroke-linejoin:round;stroke-miterlimit:10;stroke-dasharray:none;stroke-opacity:1"
       id="path4276"
       inkscape:connector-curvature="0" /><path
       d="m 61.830741,776.27393 4.68,1.26001 0.72,0.35999 -4.14,5.40002 3.42,2.51996 3.42,2.52002 3.96,-5.40002 0.54,0.54003 2.52,4.14002 1.26,4.85998 0,4.85999 -1.26,4.67999 -2.34,4.32001 -3.6,3.59998 -0.54,0.36004 -2.52,-6.11999 -3.96,1.61999 -3.78,1.62 2.52,6.11999 -0.54,0.17999 -5.04,0 -4.14,-1.08001 -0.54,-0.17999 -4.32,-2.33997 -3.42,-3.42004 -2.16,-3.59998 -0.36,-0.72003 -1.44,-4.67999 0,-0.71998 6.66,0.89997 1.08,-8.45996 -6.66,-0.72003 0.18,-0.71998 2.52,-4.32 3.42,-3.41999 4.14,-2.52002 3.06,-0.90002 1.8,-0.35998 4.86,-0.18"
       style="fill:none;stroke:#0000ff;stroke-width:0.0032;stroke-linecap:round;stroke-linejoin:round;stroke-miterlimit:10;stroke-dasharray:none;stroke-opacity:1"
       id="path4278"
       inkscape:connector-curvature="0" /><path
       d="m 193.41074,512.21393 -3.24001,-7.91999 -5.21998,-6.84001 -6.84001,-5.22001 -7.92,-3.23999"
       style="fill:none;stroke:#0000ff;stroke-width:0.0032;stroke-linecap:round;stroke-linejoin:round;stroke-miterlimit:10;stroke-dasharray:none;stroke-opacity:1"
       id="path4280"
       inkscape:connector-curvature="0" /><path
       d="m 803.43073,585.29392 0,-7.91998"
       style="fill:none;stroke:#0000ff;stroke-width:0.0032;stroke-linecap:round;stroke-linejoin:round;stroke-miterlimit:10;stroke-dasharray:none;stroke-opacity:1"
       id="path4282"
       inkscape:connector-curvature="0" /></g></svg>