<?xml version="1.0" encoding="UTF-8" standalone="no"?>
<!-- Created with Inkscape (http://www.inkscape.org/) -->

<svg
   xmlns:dc="http://purl.org/dc/elements/1.1/"
   xmlns:cc="http://creativecommons.org/ns#"
   xmlns:rdf="http://www.w3.org/1999/02/22-rdf-syntax-ns#"
   xmlns:svg="http://www.w3.org/2000/svg"
   xmlns="http://www.w3.org/2000/svg"
   xmlns:sodipodi="http://sodipodi.sourceforge.net/DTD/sodipodi-0.dtd"
   xmlns:inkscape="http://www.inkscape.org/namespaces/inkscape"
   width="210mm"
   height="297mm"
   id="svg3012"
   version="1.1"
   inkscape:version="0.48.5 r10040"
   sodipodi:docname="Nouveau document 2">
  <defs
     id="defs3014" />
  <sodipodi:namedview
     id="base"
     pagecolor="#ffffff"
     bordercolor="#666666"
     borderopacity="1.0"
     inkscape:pageopacity="0.0"
     inkscape:pageshadow="2"
     inkscape:zoom="0.9821315"
     inkscape:cx="361.49321"
     inkscape:cy="675.49071"
     inkscape:document-units="px"
     inkscape:current-layer="g3069"
     showgrid="false"
     inkscape:window-width="1280"
     inkscape:window-height="962"
     inkscape:window-x="-8"
     inkscape:window-y="-8"
     inkscape:window-maximized="1" />
  <metadata
     id="metadata3017">
    <rdf:RDF>
      <cc:Work
         rdf:about="">
        <dc:format>image/svg+xml</dc:format>
        <dc:type
           rdf:resource="http://purl.org/dc/dcmitype/StillImage" />
        <dc:title></dc:title>
      </cc:Work>
    </rdf:RDF>
  </metadata>
  <g
     inkscape:label="Calque 1"
     inkscape:groupmode="layer"
     id="layer1">
    <rect
       style="fill:none;stroke:#ff0000;stroke-width:0.07086614;stroke-linecap:butt;stroke-miterlimit:4;stroke-opacity:1;stroke-dasharray:none"
       id="rect3020"
       width="442.78922"
       height="300.79272"
       x="150.65263"
       y="375.78473"
       rx="16.403887"
       ry="16.717262" />
    <g
       id="g3069"
       transform="matrix(-1,0,0,-1,630.05984,1354.7901)"
       style="stroke:#000000;stroke-width:1.77165354;stroke-miterlimit:4;stroke-dasharray:none">
      <path
         transform="matrix(0.96063417,0,0,0.96061566,81.670117,15.993372)"
         d="m 304.05591,790.2276 c 0,2.51051 -2.03517,4.54569 -4.54569,4.54569 -2.51051,0 -4.54568,-2.03518 -4.54568,-4.54569 0,-2.51051 2.03517,-4.54569 4.54568,-4.54569 2.51052,0 4.54569,2.03518 4.54569,4.54569 z"
         sodipodi:ry="4.5456862"
         sodipodi:rx="4.5456862"
         sodipodi:cy="790.2276"
         sodipodi:cx="299.51022"
         id="path3022"
         style="fill:none;stroke:#ff0000;stroke-width:0.07377087;stroke-linecap:butt;stroke-miterlimit:4;stroke-opacity:1;stroke-dasharray:none"
         sodipodi:type="arc" />
      <path
         transform="matrix(0.96063417,0,0,0.96061566,-107.89681,136.46581)"
         d="m 304.05591,790.2276 c 0,2.51051 -2.03517,4.54569 -4.54569,4.54569 -2.51051,0 -4.54568,-2.03518 -4.54568,-4.54569 0,-2.51051 2.03517,-4.54569 4.54568,-4.54569 2.51052,0 4.54569,2.03518 4.54569,4.54569 z"
         sodipodi:ry="4.5456862"
         sodipodi:rx="4.5456862"
         sodipodi:cy="790.2276"
         sodipodi:cx="299.51022"
         id="path3022-4"
         style="fill:none;stroke:#ff0000;stroke-width:0.07377087;stroke-linecap:butt;stroke-miterlimit:4;stroke-opacity:1;stroke-dasharray:none"
         sodipodi:type="arc" />
      <path
         transform="matrix(0.96063417,0,0,0.96061566,-106.00039,38.670537)"
         d="m 304.05591,790.2276 c 0,2.51051 -2.03517,4.54569 -4.54569,4.54569 -2.51051,0 -4.54568,-2.03518 -4.54568,-4.54569 0,-2.51051 2.03517,-4.54569 4.54568,-4.54569 2.51052,0 4.54569,2.03518 4.54569,4.54569 z"
         sodipodi:ry="4.5456862"
         sodipodi:rx="4.5456862"
         sodipodi:cy="790.2276"
         sodipodi:cx="299.51022"
         id="path3022-4-3"
         style="fill:none;stroke:#ff0000;stroke-width:0.07377087;stroke-linecap:butt;stroke-miterlimit:4;stroke-opacity:1;stroke-dasharray:none"
         sodipodi:type="arc" />
      <path
         transform="matrix(0.96063417,0,0,0.96061566,81.670117,191.38707)"
         d="m 304.05591,790.2276 c 0,2.51051 -2.03517,4.54569 -4.54569,4.54569 -2.51051,0 -4.54568,-2.03518 -4.54568,-4.54569 0,-2.51051 2.03517,-4.54569 4.54568,-4.54569 2.51052,0 4.54569,2.03518 4.54569,4.54569 z"
         sodipodi:ry="4.5456862"
         sodipodi:rx="4.5456862"
         sodipodi:cy="790.2276"
         sodipodi:cx="299.51022"
         id="path3022-4-8"
         style="fill:none;stroke:#ff0000;stroke-width:0.07377087;stroke-linecap:butt;stroke-miterlimit:4;stroke-opacity:1;stroke-dasharray:none"
         sodipodi:type="arc" />
      <rect
         ry="10.629921"
         rx="10.629921"
         y="740.66583"
         x="46.125492"
         height="231.20079"
         width="425.19684"
         id="rect3067"
         style="fill:none;stroke:#0000ff;stroke-width:0.07086614;stroke-linecap:butt;stroke-miterlimit:4;stroke-opacity:1;stroke-dasharray:none" />
    </g>
    <text
       xml:space="preserve"
       style="font-size:40px;font-style:normal;font-weight:normal;line-height:125%;letter-spacing:0px;word-spacing:0px;fill:#000000;fill-opacity:1;stroke:none;font-family:GOTHIC;-inkscape-font-specification:GOTHIC"
       x="279.61203"
       y="654.61975"
       id="text3076"
       sodipodi:linespacing="125%"><tspan
         sodipodi:role="line"
         id="tspan3078"
         x="279.61203"
         y="654.61975">pcDuino3</tspan></text>
  </g>
</svg>
