<?xml version="1.0" encoding="UTF-8" standalone="no"?>
<!-- Created with Inkscape (http://www.inkscape.org/) -->

<svg
   xmlns:dc="http://purl.org/dc/elements/1.1/"
   xmlns:cc="http://creativecommons.org/ns#"
   xmlns:rdf="http://www.w3.org/1999/02/22-rdf-syntax-ns#"
   xmlns:svg="http://www.w3.org/2000/svg"
   xmlns="http://www.w3.org/2000/svg"
   xmlns:sodipodi="http://sodipodi.sourceforge.net/DTD/sodipodi-0.dtd"
   xmlns:inkscape="http://www.inkscape.org/namespaces/inkscape"
   width="110.01231mm"
   height="215.01231mm"
   viewBox="0 0 389.80741 761.85464"
   id="svg2"
   version="1.1"
   inkscape:version="0.91 r13725"
   sodipodi:docname="support_raspi_capteurs.svg">
  <defs
     id="defs4" />
  <sodipodi:namedview
     id="base"
     pagecolor="#ffffff"
     bordercolor="#666666"
     borderopacity="1.0"
     inkscape:pageopacity="0.0"
     inkscape:pageshadow="2"
     inkscape:zoom="0.70710678"
     inkscape:cx="2.7864394"
     inkscape:cy="382.90993"
     inkscape:document-units="mm"
     inkscape:current-layer="layer1"
     showgrid="false"
     fit-margin-top="0"
     fit-margin-left="0"
     fit-margin-right="0"
     fit-margin-bottom="0"
     inkscape:window-width="1280"
     inkscape:window-height="962"
     inkscape:window-x="-8"
     inkscape:window-y="-8"
     inkscape:window-maximized="1" />
  <metadata
     id="metadata7">
    <rdf:RDF>
      <cc:Work
         rdf:about="">
        <dc:format>image/svg+xml</dc:format>
        <dc:type
           rdf:resource="http://purl.org/dc/dcmitype/StillImage" />
        <dc:title></dc:title>
      </cc:Work>
    </rdf:RDF>
  </metadata>
  <g
     inkscape:label="Layer 1"
     inkscape:groupmode="layer"
     id="layer1"
     transform="translate(-119.29333,188.74213)">
    <rect
       style="opacity:1;fill:none;fill-opacity:1;fill-rule:evenodd;stroke:#0000ff;stroke-width:0.03543307;stroke-miterlimit:4;stroke-dasharray:none;stroke-opacity:1"
       id="rect4136"
       width="389.76379"
       height="761.81104"
       x="119.31514"
       y="-188.72032"
       rx="35.433071"
       ry="35.433071" />
    <path
       style="opacity:1;fill:none;fill-opacity:1;fill-rule:evenodd;stroke:#ff0000;stroke-width:0.03543307;stroke-miterlimit:4;stroke-dasharray:none;stroke-opacity:1"
       id="path4195"
       sodipodi:type="arc"
       sodipodi:cx="143.22838"
       sodipodi:cy="-163.0273"
       sodipodi:rx="6.2007875"
       sodipodi:ry="6.2007875"
       sodipodi:start="0"
       sodipodi:end="6.2780017"
       sodipodi:open="true"
       d="m 149.42917,-163.0273 a 6.2007875,6.2007875 0 0 1 -6.19276,6.20078 6.2007875,6.2007875 0 0 1 -6.2088,-6.18471 6.2007875,6.2007875 0 0 1 6.17666,-6.21681 6.2007875,6.2007875 0 0 1 6.22481,6.1686" />
    <path
       style="opacity:1;fill:none;fill-opacity:1;fill-rule:evenodd;stroke:#ff0000;stroke-width:0.03543307;stroke-miterlimit:4;stroke-dasharray:none;stroke-opacity:1"
       id="path4195-3"
       sodipodi:type="arc"
       sodipodi:cx="143.22838"
       sodipodi:cy="549.17749"
       sodipodi:rx="6.2007875"
       sodipodi:ry="6.2007875"
       sodipodi:start="0"
       sodipodi:end="6.2780017"
       sodipodi:open="true"
       d="m 149.42917,549.17749 a 6.2007875,6.2007875 0 0 1 -6.19276,6.20078 6.2007875,6.2007875 0 0 1 -6.2088,-6.18471 6.2007875,6.2007875 0 0 1 6.17666,-6.21681 6.2007875,6.2007875 0 0 1 6.22481,6.1686" />
    <path
       style="opacity:1;fill:none;fill-opacity:1;fill-rule:evenodd;stroke:#ff0000;stroke-width:0.03543307;stroke-miterlimit:4;stroke-dasharray:none;stroke-opacity:1"
       id="path4195-1"
       sodipodi:type="arc"
       sodipodi:cx="485.15753"
       sodipodi:cy="549.17749"
       sodipodi:rx="6.2007875"
       sodipodi:ry="6.2007875"
       sodipodi:start="0"
       sodipodi:end="6.2780017"
       sodipodi:open="true"
       d="m 491.35832,549.17749 a 6.2007875,6.2007875 0 0 1 -6.19275,6.20078 6.2007875,6.2007875 0 0 1 -6.2088,-6.18471 6.2007875,6.2007875 0 0 1 6.17665,-6.21681 6.2007875,6.2007875 0 0 1 6.22482,6.1686" />
    <path
       style="opacity:1;fill:none;fill-opacity:1;fill-rule:evenodd;stroke:#ff0000;stroke-width:0.03543307;stroke-miterlimit:4;stroke-dasharray:none;stroke-opacity:1"
       id="path4195-15"
       sodipodi:type="arc"
       sodipodi:cx="485.15753"
       sodipodi:cy="-164.79895"
       sodipodi:rx="6.2007875"
       sodipodi:ry="6.2007875"
       sodipodi:start="0"
       sodipodi:end="6.2780017"
       sodipodi:open="true"
       d="m 491.35832,-164.79895 a 6.2007875,6.2007875 0 0 1 -6.19275,6.20078 6.2007875,6.2007875 0 0 1 -6.2088,-6.18471 6.2007875,6.2007875 0 0 1 6.17665,-6.21681 6.2007875,6.2007875 0 0 1 6.22482,6.1686" />
  </g>
</svg>
