<?xml version="1.0" encoding="UTF-8" standalone="no"?>
<!-- Created with Inkscape (http://www.inkscape.org/) -->

<svg
   xmlns:dc="http://purl.org/dc/elements/1.1/"
   xmlns:cc="http://creativecommons.org/ns#"
   xmlns:rdf="http://www.w3.org/1999/02/22-rdf-syntax-ns#"
   xmlns:svg="http://www.w3.org/2000/svg"
   xmlns="http://www.w3.org/2000/svg"
   xmlns:sodipodi="http://sodipodi.sourceforge.net/DTD/sodipodi-0.dtd"
   xmlns:inkscape="http://www.inkscape.org/namespaces/inkscape"
   width="141mm"
   height="131mm"
   viewBox="0 0 499.6063 464.17322"
   id="svg2"
   version="1.1"
   inkscape:version="0.91 r13725"
   sodipodi:docname="support_camera.svg">
  <defs
     id="defs4" />
  <sodipodi:namedview
     id="base"
     pagecolor="#ffffff"
     bordercolor="#666666"
     borderopacity="1.0"
     inkscape:pageopacity="0.0"
     inkscape:pageshadow="2"
     inkscape:zoom="0.70710678"
     inkscape:cx="87.328588"
     inkscape:cy="384.93914"
     inkscape:document-units="mm"
     inkscape:current-layer="layer1"
     showgrid="false"
     fit-margin-top="0"
     fit-margin-left="0"
     fit-margin-right="0"
     fit-margin-bottom="0"
     inkscape:window-width="1280"
     inkscape:window-height="962"
     inkscape:window-x="-8"
     inkscape:window-y="-8"
     inkscape:window-maximized="1" />
  <metadata
     id="metadata7">
    <rdf:RDF>
      <cc:Work
         rdf:about="">
        <dc:format>image/svg+xml</dc:format>
        <dc:type
           rdf:resource="http://purl.org/dc/dcmitype/StillImage" />
        <dc:title></dc:title>
      </cc:Work>
    </rdf:RDF>
  </metadata>
  <g
     inkscape:label="Layer 1"
     inkscape:groupmode="layer"
     id="layer1"
     transform="translate(-99.82285,-128.36614)">
    <rect
       style="opacity:1;fill:#666666;fill-opacity:1;fill-rule:evenodd;stroke:none;stroke-width:0.35433072;stroke-miterlimit:4;stroke-dasharray:none;stroke-opacity:1"
       id="rect4187"
       width="88.58268"
       height="85.039368"
       x="321.27951"
       y="314.39297" />
    <rect
       style="opacity:1;fill:none;fill-opacity:1;fill-rule:evenodd;stroke:#ff0000;stroke-width:0.03543307;stroke-miterlimit:4;stroke-dasharray:none;stroke-opacity:1"
       id="rect4136"
       width="460.62991"
       height="425.19684"
       x="119.31104"
       y="147.85434"
       rx="35.433071"
       ry="35.433071" />
    <circle
       style="opacity:1;fill:none;fill-opacity:1;fill-rule:evenodd;stroke:#ff0000;stroke-width:0.03543307;stroke-miterlimit:4;stroke-dasharray:none;stroke-opacity:1"
       id="path4138"
       cx="365.57086"
       cy="365.7677"
       r="21.17647" />
    <path
       style="opacity:1;fill:none;fill-opacity:1;fill-rule:evenodd;stroke:#ff0000;stroke-width:0.03543307;stroke-miterlimit:4;stroke-dasharray:none;stroke-opacity:1"
       id="path4148"
       sodipodi:type="arc"
       sodipodi:cx="328.35123"
       sodipodi:cy="365.7677"
       sodipodi:rx="3.4923532"
       sodipodi:ry="3.4923525"
       sodipodi:start="0"
       sodipodi:end="6.2780017"
       sodipodi:open="true"
       d="m 331.84358,365.7677 a 3.4923532,3.4923525 0 0 1 -3.48783,3.49235 3.4923532,3.4923525 0 0 1 -3.49686,-3.4833 3.4923532,3.4923525 0 0 1 3.47876,-3.50138 3.4923532,3.4923525 0 0 1 3.50588,3.47423" />
    <path
       style="opacity:1;fill:none;fill-opacity:1;fill-rule:evenodd;stroke:#ff0000;stroke-width:0.03543307;stroke-miterlimit:4;stroke-dasharray:none;stroke-opacity:1"
       id="path4148-5"
       sodipodi:type="arc"
       sodipodi:cx="402.72208"
       sodipodi:cy="365.7677"
       sodipodi:rx="3.4923532"
       sodipodi:ry="3.4923525"
       sodipodi:start="0"
       sodipodi:end="6.2780017"
       sodipodi:open="true"
       d="m 406.21443,365.7677 a 3.4923532,3.4923525 0 0 1 -3.48783,3.49235 3.4923532,3.4923525 0 0 1 -3.49687,-3.4833 3.4923532,3.4923525 0 0 1 3.47877,-3.50138 3.4923532,3.4923525 0 0 1 3.50588,3.47423" />
    <path
       style="opacity:1;fill:none;fill-opacity:1;fill-rule:evenodd;stroke:#ff0000;stroke-width:0.03543307;stroke-miterlimit:4;stroke-dasharray:none;stroke-opacity:1"
       id="path4148-8"
       sodipodi:type="arc"
       sodipodi:cx="328.34006"
       sodipodi:cy="321.50632"
       sodipodi:rx="3.4923532"
       sodipodi:ry="3.4923525"
       sodipodi:start="0"
       sodipodi:end="6.2780017"
       sodipodi:open="true"
       d="m 331.83241,321.50632 a 3.4923532,3.4923525 0 0 1 -3.48783,3.49235 3.4923532,3.4923525 0 0 1 -3.49686,-3.4833 3.4923532,3.4923525 0 0 1 3.47876,-3.50138 3.4923532,3.4923525 0 0 1 3.50588,3.47422" />
    <path
       style="opacity:1;fill:none;fill-opacity:1;fill-rule:evenodd;stroke:#ff0000;stroke-width:0.03543307;stroke-miterlimit:4;stroke-dasharray:none;stroke-opacity:1"
       id="path4148-5-2"
       sodipodi:type="arc"
       sodipodi:cx="402.71091"
       sodipodi:cy="321.50632"
       sodipodi:rx="3.4923532"
       sodipodi:ry="3.4923525"
       sodipodi:start="0"
       sodipodi:end="6.2780017"
       sodipodi:open="true"
       d="m 406.20326,321.50632 a 3.4923532,3.4923525 0 0 1 -3.48783,3.49235 3.4923532,3.4923525 0 0 1 -3.49686,-3.4833 3.4923532,3.4923525 0 0 1 3.47876,-3.50138 3.4923532,3.4923525 0 0 1 3.50588,3.47422" />
    <text
       xml:space="preserve"
       style="font-style:normal;font-weight:normal;font-size:18.18496513px;line-height:125%;font-family:sans-serif;letter-spacing:0px;word-spacing:0px;fill:#000000;fill-opacity:1;stroke:none;stroke-width:1px;stroke-linecap:butt;stroke-linejoin:miter;stroke-opacity:1"
       x="316.38354"
       y="303.96591"
       id="text4191"
       sodipodi:linespacing="125%"><tspan
         sodipodi:role="line"
         id="tspan4193"
         x="316.38354"
         y="303.96591">Caméra IR</tspan></text>
    <path
       style="opacity:1;fill:none;fill-opacity:1;fill-rule:evenodd;stroke:#ff0000;stroke-width:0.03543307;stroke-miterlimit:4;stroke-dasharray:none;stroke-opacity:1"
       id="path4195"
       sodipodi:type="arc"
       sodipodi:cx="160.92365"
       sodipodi:cy="189.10551"
       sodipodi:rx="6.2007875"
       sodipodi:ry="6.2007875"
       sodipodi:start="0"
       sodipodi:end="6.2780017"
       sodipodi:open="true"
       d="m 167.12443,189.10551 a 6.2007875,6.2007875 0 0 1 -6.19275,6.20079 6.2007875,6.2007875 0 0 1 -6.2088,-6.18471 6.2007875,6.2007875 0 0 1 6.17666,-6.21682 6.2007875,6.2007875 0 0 1 6.22481,6.1686" />
    <path
       style="opacity:1;fill:none;fill-opacity:1;fill-rule:evenodd;stroke:#ff0000;stroke-width:0.03543307;stroke-miterlimit:4;stroke-dasharray:none;stroke-opacity:1"
       id="path4195-3"
       sodipodi:type="arc"
       sodipodi:cx="160.92365"
       sodipodi:cy="528.53937"
       sodipodi:rx="6.2007875"
       sodipodi:ry="6.2007875"
       sodipodi:start="0"
       sodipodi:end="6.2780017"
       sodipodi:open="true"
       d="m 167.12443,528.53937 a 6.2007875,6.2007875 0 0 1 -6.19275,6.20078 6.2007875,6.2007875 0 0 1 -6.2088,-6.18471 6.2007875,6.2007875 0 0 1 6.17666,-6.21681 6.2007875,6.2007875 0 0 1 6.22481,6.1686" />
    <path
       style="opacity:1;fill:none;fill-opacity:1;fill-rule:evenodd;stroke:#ff0000;stroke-width:0.03543307;stroke-miterlimit:4;stroke-dasharray:none;stroke-opacity:1"
       id="path4195-1"
       sodipodi:type="arc"
       sodipodi:cx="537.3894"
       sodipodi:cy="528.53937"
       sodipodi:rx="6.2007875"
       sodipodi:ry="6.2007875"
       sodipodi:start="0"
       sodipodi:end="6.2780017"
       sodipodi:open="true"
       d="m 543.59019,528.53937 a 6.2007875,6.2007875 0 0 1 -6.19275,6.20078 6.2007875,6.2007875 0 0 1 -6.2088,-6.18471 6.2007875,6.2007875 0 0 1 6.17666,-6.21681 6.2007875,6.2007875 0 0 1 6.22481,6.1686" />
    <path
       style="opacity:1;fill:none;fill-opacity:1;fill-rule:evenodd;stroke:#ff0000;stroke-width:0.03543307;stroke-miterlimit:4;stroke-dasharray:none;stroke-opacity:1"
       id="path4195-15"
       sodipodi:type="arc"
       sodipodi:cx="537.3894"
       sodipodi:cy="189.10551"
       sodipodi:rx="6.2007875"
       sodipodi:ry="6.2007875"
       sodipodi:start="0"
       sodipodi:end="6.2780017"
       sodipodi:open="true"
       d="m 543.59019,189.10551 a 6.2007875,6.2007875 0 0 1 -6.19275,6.20079 6.2007875,6.2007875 0 0 1 -6.2088,-6.18471 6.2007875,6.2007875 0 0 1 6.17666,-6.21682 6.2007875,6.2007875 0 0 1 6.22481,6.1686" />
  </g>
</svg>
