<?xml version="1.0" encoding="UTF-8" standalone="no"?>
<!-- Created with Inkscape (http://www.inkscape.org/) -->

<svg
   xmlns:dc="http://purl.org/dc/elements/1.1/"
   xmlns:cc="http://creativecommons.org/ns#"
   xmlns:rdf="http://www.w3.org/1999/02/22-rdf-syntax-ns#"
   xmlns:svg="http://www.w3.org/2000/svg"
   xmlns="http://www.w3.org/2000/svg"
   xmlns:sodipodi="http://sodipodi.sourceforge.net/DTD/sodipodi-0.dtd"
   xmlns:inkscape="http://www.inkscape.org/namespaces/inkscape"
   width="210mm"
   height="297mm"
   id="svg3012"
   version="1.1"
   inkscape:version="0.48.5 r10040"
   sodipodi:docname="plaque_arduino_sofab.svg">
  <defs
     id="defs3014" />
  <sodipodi:namedview
     id="base"
     pagecolor="#ffffff"
     bordercolor="#666666"
     borderopacity="1.0"
     inkscape:pageopacity="0.0"
     inkscape:pageshadow="2"
     inkscape:zoom="1.3889437"
     inkscape:cx="296.55696"
     inkscape:cy="471.10633"
     inkscape:document-units="px"
     inkscape:current-layer="layer1"
     showgrid="false"
     inkscape:window-width="1280"
     inkscape:window-height="962"
     inkscape:window-x="-8"
     inkscape:window-y="-8"
     inkscape:window-maximized="1" />
  <metadata
     id="metadata3017">
    <rdf:RDF>
      <cc:Work
         rdf:about="">
        <dc:format>image/svg+xml</dc:format>
        <dc:type
           rdf:resource="http://purl.org/dc/dcmitype/StillImage" />
        <dc:title></dc:title>
      </cc:Work>
    </rdf:RDF>
  </metadata>
  <g
     inkscape:label="Calque 1"
     inkscape:groupmode="layer"
     id="layer1">
    <rect
       style="fill:none;stroke:#ff0000;stroke-width:0.05507646;stroke-linecap:butt;stroke-miterlimit:4;stroke-opacity:1;stroke-dasharray:none"
       id="rect3020"
       width="285.87604"
       height="281.41101"
       x="150.65263"
       y="381.51538"
       rx="10.590768"
       ry="15.640078" />
    <g
       id="g3873"
       transform="translate(167.03341,-459.34188)">
      <path
         transform="matrix(-0.96063417,0,0,-0.96061566,341.7553,1798.1798)"
         d="m 304.05591,790.2276 c 0,2.51051 -2.03517,4.54569 -4.54569,4.54569 -2.51051,0 -4.54568,-2.03518 -4.54568,-4.54569 0,-2.51051 2.03517,-4.54569 4.54568,-4.54569 2.51052,0 4.54569,2.03518 4.54569,4.54569 z"
         sodipodi:ry="4.5456862"
         sodipodi:rx="4.5456862"
         sodipodi:cy="790.2276"
         sodipodi:cx="299.51022"
         id="path3022"
         style="fill:none;stroke:#ff0000;stroke-width:0.07377087;stroke-linecap:butt;stroke-miterlimit:4;stroke-opacity:1;stroke-dasharray:none"
         sodipodi:type="arc" />
      <path
         transform="matrix(-0.96063417,0,0,-0.96061566,476.7553,1681.2506)"
         d="m 304.05591,790.2276 c 0,2.51051 -2.03517,4.54569 -4.54569,4.54569 -2.51051,0 -4.54568,-2.03518 -4.54568,-4.54569 0,-2.51051 2.03517,-4.54569 4.54568,-4.54569 2.51052,0 4.54569,2.03518 4.54569,4.54569 z"
         sodipodi:ry="4.5456862"
         sodipodi:rx="4.5456862"
         sodipodi:cy="790.2276"
         sodipodi:cx="299.51022"
         id="path3022-4"
         style="fill:none;stroke:#ff0000;stroke-width:0.07377087;stroke-linecap:butt;stroke-miterlimit:4;stroke-opacity:1;stroke-dasharray:none"
         sodipodi:type="arc" />
      <path
         transform="matrix(-0.96063417,0,0,-0.96061566,476.7553,1780.1089)"
         d="m 304.05591,790.2276 c 0,2.51051 -2.03517,4.54569 -4.54569,4.54569 -2.51051,0 -4.54568,-2.03518 -4.54568,-4.54569 0,-2.51051 2.03517,-4.54569 4.54568,-4.54569 2.51052,0 4.54569,2.03518 4.54569,4.54569 z"
         sodipodi:ry="4.5456862"
         sodipodi:rx="4.5456862"
         sodipodi:cy="790.2276"
         sodipodi:cx="299.51022"
         id="path3022-4-3"
         style="fill:none;stroke:#ff0000;stroke-width:0.07377087;stroke-linecap:butt;stroke-miterlimit:4;stroke-opacity:1;stroke-dasharray:none"
         sodipodi:type="arc" />
      <path
         transform="matrix(-0.96063417,0,0,-0.96061566,346.36159,1627.3924)"
         d="m 304.05591,790.2276 c 0,2.51051 -2.03517,4.54569 -4.54569,4.54569 -2.51051,0 -4.54568,-2.03518 -4.54568,-4.54569 0,-2.51051 2.03517,-4.54569 4.54568,-4.54569 2.51052,0 4.54569,2.03518 4.54569,4.54569 z"
         sodipodi:ry="4.5456862"
         sodipodi:rx="4.5456862"
         sodipodi:cy="790.2276"
         sodipodi:cx="299.51022"
         id="path3022-4-8"
         style="fill:none;stroke:#ff0000;stroke-width:0.07377087;stroke-linecap:butt;stroke-miterlimit:4;stroke-opacity:1;stroke-dasharray:none"
         sodipodi:type="arc" />
      <rect
         transform="scale(1,-1)"
         ry="9.0846472"
         rx="6.2951031"
         y="-1052.2969"
         x="0.064878643"
         height="197.59109"
         width="251.80414"
         id="rect3067"
         style="fill:none;stroke:#0000ff;stroke-width:0.05041551;stroke-linecap:butt;stroke-miterlimit:4;stroke-opacity:1;stroke-dasharray:none" />
    </g>
    <text
       xml:space="preserve"
       style="font-size:40px;font-style:normal;font-weight:normal;line-height:125%;letter-spacing:0px;word-spacing:0px;fill:#000000;fill-opacity:1;stroke:none;font-family:GOTHIC;-inkscape-font-specification:GOTHIC"
       x="287.93185"
       y="642.34235"
       id="text3076"
       sodipodi:linespacing="125%"><tspan
         sodipodi:role="line"
         id="tspan3078"
         x="287.93185"
         y="642.34235">UNO <tspan
   style="font-size:20px"
   id="tspan3880">R3</tspan></tspan></text>
    <g
       id="g3916"
       transform="translate(3.6400142,4.799574)">
      <path
         sodipodi:nodetypes="ccscsssssscsscsccccccccccsscsscccsssssscccccscssccssccscscssssssssssssscccscscssssscssccccsscsccccscccccccccccccscscccssccsscscccscscccccsccsccsscccsscsscccsssscsccccsssccccccscccccc"
         style="fill:#a9a9a9"
         d="m 187.91216,646.83332 -3.43829,-1.25171 -7.50285,-8.698 c -4.12657,-4.7839 -7.57691,-8.80916 -7.66743,-8.94502 -0.153,-0.22961 -0.11081,-0.44245 0.59902,-3.02225 0.41999,-1.52638 1.88631,-6.85528 3.25849,-11.842 1.37218,-4.98672 2.55324,-9.1238 2.62457,-9.19353 0.0713,-0.0697 0.97971,-0.34387 2.01861,-0.60922 1.0389,-0.26535 5.75378,-1.48332 10.47751,-2.7066 4.72374,-1.22327 8.71439,-2.22414 8.86812,-2.22414 0.37823,0 5.37421,1.71548 5.62751,1.93232 0.11081,0.0949 1.54197,1.75106 3.18036,3.68044 1.6384,1.92939 4.18728,4.93049 5.66419,6.66911 1.71506,2.01899 2.66338,3.21821 2.62467,3.31908 -0.0513,0.1337 -0.54996,0.15795 -3.24875,0.15795 l -3.18814,0 0.0276,9.41756 0.0276,9.41755 1.61906,0 1.61907,0 0.0282,-4.23481 0.0282,-4.23481 0.24161,-0.0594 c 0.13288,-0.0327 1.16447,-0.0456 2.29242,-0.0287 1.98784,0.0297 2.05181,0.0376 2.0831,0.25665 0.0178,0.12429 -0.64714,3.0629 -1.47753,6.53022 -0.8304,3.46733 -1.71068,7.15424 -1.95619,8.19314 -0.2455,1.0389 -0.50348,1.94381 -0.57328,2.0109 -0.0698,0.0671 -1.24407,0.48892 -2.60948,0.93739 -2.25359,0.74019 -14.38078,4.71056 -16.7306,5.47751 -0.53444,0.17443 -0.99587,0.31376 -1.02541,0.30961 -0.0295,-0.004 -1.60093,-0.5708 -3.49199,-1.25924 z m -7.46341,-13.63192 c 0.98062,-0.13882 1.94434,-0.61511 2.74553,-1.35687 1.19573,-1.10703 1.73388,-2.30253 1.73388,-3.8518 0,-1.76401 -0.53146,-2.87605 -2.15659,-4.51245 -0.62453,-0.62886 -1.62136,-1.50798 -2.21518,-1.95359 -2.40512,-1.80487 -3.04896,-3.05901 -2.10993,-4.10997 0.28506,-0.31904 0.365,-0.3463 1.1288,-0.38487 0.75706,-0.0382 0.85184,-0.0188 1.19944,0.24637 0.20758,0.15833 0.65631,0.64911 0.99717,1.09063 0.34087,0.44151 0.68574,0.80303 0.76638,0.80336 0.23073,9.7e-4 2.27109,-1.65263 2.27683,-1.84522 0.008,-0.25758 -0.94612,-1.46657 -1.72797,-2.19029 -0.82569,-0.7643 -2.16275,-1.42343 -3.09589,-1.52618 -0.79489,-0.0875 -2.00498,0.16115 -2.74912,0.56495 -0.86534,0.46957 -1.54973,1.20705 -2.00504,2.16059 -0.39221,0.82138 -0.40096,0.8673 -0.3965,2.08119 0.004,1.04127 0.0443,1.33658 0.25103,1.83269 0.51745,1.24161 1.61377,2.44692 3.29406,3.62154 0.99549,0.69589 2.79574,2.48225 3.09675,3.07284 0.31924,0.62637 0.32834,1.40963 0.0232,1.99685 -0.27957,0.53804 -0.49922,0.73881 -1.11276,1.0171 -1.34517,0.61017 -2.61021,-0.05 -3.64019,-1.89976 -0.29942,-0.53772 -0.56786,-0.89692 -0.66874,-0.89484 -0.0927,0.002 -0.65426,0.30766 -1.24791,0.67945 -0.76436,0.47869 -1.08944,0.74537 -1.11384,0.91377 -0.0548,0.37832 0.92956,1.93342 1.76146,2.78269 0.56189,0.57362 0.96307,0.87043 1.5651,1.15795 1.20885,0.57733 2.02587,0.69841 3.40003,0.50387 z m -1.65618,-0.55287 c -0.91727,-0.10795 -1.93425,-0.60166 -2.67889,-1.30051 -0.65448,-0.61423 -1.65547,-2.04056 -1.65547,-2.35891 0,-0.18409 1.11794,-0.96541 1.38134,-0.96541 0.0615,0 0.3783,0.3803 0.704,0.8451 0.94984,1.35552 1.72813,1.86876 2.83384,1.86876 2.30084,0 3.63704,-2.15516 2.56355,-4.13476 -0.40031,-0.73822 -1.49002,-1.83419 -3.21919,-3.2377 -1.78032,-1.44502 -2.4604,-2.17042 -2.88452,-3.07674 -0.85696,-1.83127 -0.2948,-4.14369 1.2689,-5.21954 0.84952,-0.58449 1.57752,-0.78169 2.70598,-0.73302 0.8465,0.0365 1.08367,0.0922 1.71431,0.40268 1.00066,0.49262 2.70159,2.24778 2.49782,2.57747 -0.12494,0.20217 -1.22695,0.99337 -1.38359,0.99337 -0.0895,0 -0.37648,-0.26854 -0.63766,-0.59674 -0.79882,-1.00383 -1.43358,-1.34614 -2.49623,-1.34614 -0.80238,0 -1.44885,0.33367 -1.82801,0.9435 -0.20024,0.32207 -0.25058,0.55037 -0.24417,1.10731 0.0142,1.23281 0.41379,1.75308 2.72306,3.54544 2.48187,1.92632 3.56673,3.17806 4.01655,4.63442 0.44237,1.43222 0.18164,2.86866 -0.7513,4.13917 -1.08569,1.47851 -2.68911,2.1407 -4.63032,1.91225 z m 17.41508,-1.22597 c 1.20905,-0.25497 2.04036,-0.72512 3.03463,-1.71623 0.73045,-0.72814 0.95722,-1.04334 1.36579,-1.8985 0.65893,-1.37916 0.78093,-1.94563 0.77874,-3.61591 -0.002,-1.16091 -0.0452,-1.54297 -0.25277,-2.21273 -0.71585,-2.30937 -2.26554,-4.02565 -4.26775,-4.72652 -0.61091,-0.21384 -0.97482,-0.26806 -1.79199,-0.26697 -1.70481,0.002 -2.88907,0.5239 -4.21241,1.85543 -0.89562,0.90116 -1.55114,2.05774 -1.90093,3.35394 -0.26101,0.96723 -0.26289,3.13827 -0.004,4.10163 0.36308,1.34869 0.98054,2.42817 1.94476,3.39994 1.55601,1.5682 3.32482,2.14361 5.30547,1.72592 z m 12.2725,0.89706 c -0.20331,-0.20331 -0.18589,-17.39109 0.0178,-17.56014 0.10607,-0.088 1.51893,-0.1144 5.04608,-0.0942 l 4.89877,0.0281 0,0.91747 0,0.91747 -3.91274,0.0283 -3.91274,0.0283 0,2.64177 0,2.64178 3.91274,0.0283 3.91274,0.0283 0,0.91747 0,0.91746 -3.91274,0.0283 -3.91274,0.0283 0,4.18663 c 0,3.11235 -0.0332,4.21987 -0.12953,4.31616 -0.0794,0.0794 -0.46773,0.12952 -1.00382,0.12952 -0.53609,0 -0.9244,-0.0501 -1.00382,-0.12952 z m 11.70764,0.0576 c -0.0396,-0.0396 -0.072,-0.13475 -0.072,-0.21151 0,-0.11662 2.70954,-5.25274 8.22093,-15.58336 0.87316,-1.63666 1.045,-1.89324 1.28682,-1.92135 0.15349,-0.0178 0.336,0.0362 0.40558,0.11998 0.0696,0.0838 2.16383,4.03056 4.65392,8.77052 3.40877,6.48872 4.49876,8.65265 4.41141,8.7579 -0.12663,0.15258 -1.88033,0.20032 -2.10041,0.0572 -0.067,-0.0436 -0.79075,-1.31789 -1.60822,-2.83171 -0.81747,-1.51383 -1.53975,-2.7881 -1.60508,-2.83171 -0.0653,-0.0436 -1.94642,-0.0801 -4.18021,-0.081 -3.12206,-10e-4 -4.08603,0.0296 -4.16782,0.13327 -0.0585,0.0742 -0.72633,1.30065 -1.48403,2.72543 -0.7577,1.42478 -1.45188,2.6755 -1.54262,2.77939 -0.13467,0.1542 -0.34696,0.18889 -1.15567,0.18889 -0.54487,0 -1.02307,-0.0324 -1.06264,-0.072 z m 12.55568,-7.7805 c -0.003,-0.19732 -2.97858,-5.66159 -3.07516,-5.64633 -0.10105,0.016 -3.07125,5.47047 -3.07465,5.64633 -8.7e-4,0.0445 1.38273,0.081 3.07465,0.081 1.69192,0 3.07575,-0.0364 3.07516,-0.081 z m 9.52116,7.72294 c -0.0986,-0.0986 -0.12953,-2.19659 -0.12953,-8.7837 0,-7.50308 0.0212,-8.67178 0.15951,-8.78656 0.25497,-0.2116 5.95443,-0.0894 6.78402,0.14541 1.03321,0.2925 1.76209,0.71142 2.3983,1.37842 0.88988,0.93295 1.07415,1.41186 1.07415,2.79169 0,1.08418 -0.0159,1.16269 -0.36689,1.80993 -0.34867,0.64299 -0.76448,1.10015 -1.45335,1.59789 l -0.30913,0.22335 0.93221,0.4473 c 1.18319,0.56773 1.99389,1.31637 2.4672,2.2783 0.32975,0.67018 0.34896,0.77504 0.34772,1.89856 -10e-4,1.11785 -0.0221,1.23188 -0.34792,1.90022 -0.77655,1.5929 -2.33189,2.67139 -4.43651,3.07632 -1.04636,0.20133 -6.92245,0.2202 -7.11978,0.0229 z m 5.98708,-1.92136 c 1.72644,-0.18192 2.70791,-0.71511 3.36089,-1.82584 0.24103,-0.41 0.29086,-0.62418 0.29086,-1.25031 0,-0.89158 -0.21576,-1.4081 -0.84207,-2.01591 -0.97045,-0.9418 -2.41351,-1.29952 -5.05104,-1.25211 l -1.66252,0.0299 -0.0287,3.07484 c -0.0158,1.69116 -0.005,3.13617 0.0236,3.21114 0.0645,0.16818 2.41961,0.18523 3.909,0.0283 z m -0.9704,-8.53246 c 1.06629,-0.1432 1.84938,-0.51725 2.40549,-1.14903 0.97194,-1.10418 0.84518,-2.71034 -0.27444,-3.47752 -0.67447,-0.46215 -1.27484,-0.5714 -3.2296,-0.58768 l -1.83493,-0.0153 -0.029,2.5343 c -0.016,1.39387 -0.005,2.59602 0.0236,2.67146 0.0663,0.17286 1.72866,0.1863 2.93892,0.0238 z m -35.98938,-0.60572 c -0.10104,-0.0408 -0.13492,-0.55069 -0.13492,-2.03074 0,-1.70256 0.0237,-1.98538 0.17073,-2.04182 0.24472,-0.0939 5.68829,-0.0779 5.83063,0.0171 0.37656,0.25143 0.37008,0.51374 -0.0553,2.24061 -0.23,0.93361 -0.48408,1.73922 -0.56462,1.79025 -0.15289,0.0969 -5.01092,0.11967 -5.24649,0.0246 z"
         id="path3907"
         inkscape:connector-curvature="0" />
      <path
         sodipodi:nodetypes="ccscsssssscsscsccccccccccsscssccccssccsscccccsssssscccccscssccssccscscssssssssssssscccscscssssscssccccsscsccccscccccccccccccscscccssccsscscccscscccccsccsccsscccsscsscccsssscsccccsssccccccscccccc"
         style="fill:#a4a4a4"
         d="m 187.91216,646.83297 -3.43829,-1.25171 -7.50285,-8.698 c -4.12657,-4.7839 -7.57691,-8.80916 -7.66743,-8.94502 -0.153,-0.22961 -0.11081,-0.44245 0.59902,-3.02225 0.41999,-1.52638 1.88631,-6.85528 3.25849,-11.842 1.37218,-4.98672 2.55324,-9.1238 2.62457,-9.19353 0.0713,-0.0697 0.97971,-0.34387 2.01861,-0.60922 1.0389,-0.26535 5.75378,-1.48332 10.47751,-2.7066 4.72374,-1.22327 8.71439,-2.22414 8.86812,-2.22414 0.37823,0 5.37421,1.71548 5.62751,1.93232 0.11081,0.0949 1.54197,1.75106 3.18036,3.68044 1.6384,1.92939 4.18728,4.93049 5.66419,6.66911 1.71506,2.01899 2.66338,3.21821 2.62467,3.31908 -0.0513,0.1337 -0.54996,0.15795 -3.24875,0.15795 l -3.18814,0 0.0276,9.41756 0.0276,9.41755 1.61906,0 1.61907,0 0.0282,-4.23481 0.0282,-4.23481 0.24161,-0.0594 c 0.13288,-0.0327 1.16447,-0.0456 2.29242,-0.0287 1.98784,0.0297 2.05181,0.0376 2.0831,0.25665 0.0178,0.12429 -0.64714,3.0629 -1.47753,6.53022 -0.8304,3.46733 -1.71068,7.15424 -1.95619,8.19314 -0.2455,1.0389 -0.50348,1.94381 -0.57328,2.0109 -0.0698,0.0671 -1.24407,0.48892 -2.60948,0.93739 -2.25359,0.74019 -14.38078,4.71056 -16.7306,5.47751 -0.53444,0.17443 -0.99587,0.31376 -1.02541,0.30961 -0.0295,-0.004 -1.60093,-0.5708 -3.49199,-1.25924 z m 11.06782,-13.47001 c 4.33614,-0.90728 7.40814,-4.65808 7.42319,-9.06346 0.0109,-3.19467 -1.53865,-6.07058 -4.23807,-7.86563 -1.23001,-0.81793 -3.44022,-1.53558 -4.46813,-1.45081 -0.39941,0.0329 -0.37963,0.0487 0.7691,0.61154 1.04959,0.51429 1.2938,0.69207 2.22404,1.61906 1.40482,1.39991 2.17819,2.77427 2.65994,4.72704 0.25355,1.02778 0.25676,3.59653 0.006,4.59714 -0.78381,3.12441 -2.75774,5.54707 -5.39376,6.61992 -0.28176,0.11468 -0.51248,0.24493 -0.5127,0.28946 -6.5e-4,0.13089 0.68196,0.0933 1.53065,-0.0843 z m -18.53123,-0.16191 c 0.98062,-0.13882 1.94434,-0.61511 2.74553,-1.35687 1.19573,-1.10703 1.73388,-2.30253 1.73388,-3.8518 0,-1.76401 -0.53146,-2.87605 -2.15659,-4.51245 -0.62453,-0.62886 -1.62136,-1.50798 -2.21518,-1.95359 -2.40512,-1.80487 -3.04896,-3.05901 -2.10993,-4.10997 0.28506,-0.31904 0.365,-0.3463 1.1288,-0.38487 0.75706,-0.0382 0.85184,-0.0188 1.19944,0.24637 0.20758,0.15833 0.65631,0.64911 0.99717,1.09063 0.34087,0.44151 0.68574,0.80303 0.76638,0.80336 0.23073,9.7e-4 2.27109,-1.65263 2.27683,-1.84522 0.008,-0.25758 -0.94612,-1.46657 -1.72797,-2.19029 -0.82569,-0.7643 -2.16275,-1.42343 -3.09589,-1.52618 -0.79489,-0.0875 -2.00498,0.16115 -2.74912,0.56495 -0.86534,0.46957 -1.54973,1.20705 -2.00504,2.16059 -0.39221,0.82138 -0.40096,0.8673 -0.3965,2.08119 0.004,1.04127 0.0443,1.33658 0.25103,1.83269 0.51745,1.24161 1.61377,2.44692 3.29406,3.62154 0.99549,0.69589 2.79574,2.48225 3.09675,3.07284 0.31924,0.62637 0.32834,1.40963 0.0232,1.99685 -0.27957,0.53804 -0.49922,0.73881 -1.11276,1.0171 -1.34517,0.61017 -2.61021,-0.05 -3.64019,-1.89976 -0.29942,-0.53772 -0.56786,-0.89692 -0.66874,-0.89484 -0.0927,0.002 -0.65426,0.30766 -1.24791,0.67945 -0.76436,0.47869 -1.08944,0.74537 -1.11384,0.91377 -0.0548,0.37832 0.92956,1.93342 1.76146,2.78269 0.56189,0.57362 0.96307,0.87043 1.5651,1.15795 1.20885,0.57733 2.02587,0.69841 3.40003,0.50387 z m -1.65618,-0.55287 c -0.91727,-0.10795 -1.93425,-0.60166 -2.67889,-1.30051 -0.65448,-0.61423 -1.65547,-2.04056 -1.65547,-2.35891 0,-0.18409 1.11794,-0.96541 1.38134,-0.96541 0.0615,0 0.3783,0.3803 0.704,0.8451 0.94984,1.35552 1.72813,1.86876 2.83384,1.86876 2.30084,0 3.63704,-2.15516 2.56355,-4.13476 -0.40031,-0.73822 -1.49002,-1.83419 -3.21919,-3.2377 -1.78032,-1.44502 -2.4604,-2.17042 -2.88452,-3.07674 -0.85696,-1.83127 -0.2948,-4.14369 1.2689,-5.21954 0.84952,-0.58449 1.57752,-0.78169 2.70598,-0.73302 0.8465,0.0365 1.08367,0.0922 1.71431,0.40268 1.00066,0.49262 2.70159,2.24778 2.49782,2.57747 -0.12494,0.20217 -1.22695,0.99337 -1.38359,0.99337 -0.0895,0 -0.37648,-0.26854 -0.63766,-0.59674 -0.79882,-1.00383 -1.43358,-1.34614 -2.49623,-1.34614 -0.80238,0 -1.44885,0.33367 -1.82801,0.9435 -0.20024,0.32207 -0.25058,0.55037 -0.24417,1.10731 0.0142,1.23281 0.41379,1.75308 2.72306,3.54544 2.48187,1.92632 3.56673,3.17806 4.01655,4.63442 0.44237,1.43222 0.18164,2.86866 -0.7513,4.13917 -1.08569,1.47851 -2.68911,2.1407 -4.63032,1.91225 z m 17.41508,-1.22597 c 1.20905,-0.25497 2.04036,-0.72512 3.03463,-1.71623 0.73045,-0.72814 0.95722,-1.04334 1.36579,-1.8985 0.65893,-1.37916 0.78093,-1.94563 0.77874,-3.61591 -0.002,-1.16091 -0.0452,-1.54297 -0.25277,-2.21273 -0.71585,-2.30937 -2.26554,-4.02565 -4.26775,-4.72652 -0.61091,-0.21384 -0.97482,-0.26806 -1.79199,-0.26697 -1.70481,0.002 -2.88907,0.5239 -4.21241,1.85543 -0.89562,0.90116 -1.55114,2.05774 -1.90093,3.35394 -0.26101,0.96723 -0.26289,3.13827 -0.004,4.10163 0.36308,1.34869 0.98054,2.42817 1.94476,3.39994 1.55601,1.5682 3.32482,2.14361 5.30547,1.72592 z m 12.2725,0.89706 c -0.20331,-0.20331 -0.18589,-17.39109 0.0178,-17.56014 0.10607,-0.088 1.51893,-0.1144 5.04608,-0.0942 l 4.89877,0.0281 0,0.91747 0,0.91747 -3.91274,0.0283 -3.91274,0.0283 0,2.64177 0,2.64178 3.91274,0.0283 3.91274,0.0283 0,0.91747 0,0.91746 -3.91274,0.0283 -3.91274,0.0283 0,4.18663 c 0,3.11235 -0.0332,4.21987 -0.12953,4.31616 -0.0794,0.0794 -0.46773,0.12952 -1.00382,0.12952 -0.53609,0 -0.9244,-0.0501 -1.00382,-0.12952 z m 11.70764,0.0576 c -0.0396,-0.0396 -0.072,-0.13475 -0.072,-0.21151 0,-0.11662 2.70954,-5.25274 8.22093,-15.58336 0.87316,-1.63666 1.045,-1.89324 1.28682,-1.92135 0.15349,-0.0178 0.336,0.0362 0.40558,0.11998 0.0696,0.0838 2.16383,4.03056 4.65392,8.77052 3.40877,6.48872 4.49876,8.65265 4.41141,8.7579 -0.12663,0.15258 -1.88033,0.20032 -2.10041,0.0572 -0.067,-0.0436 -0.79075,-1.31789 -1.60822,-2.83171 -0.81747,-1.51383 -1.53975,-2.7881 -1.60508,-2.83171 -0.0653,-0.0436 -1.94642,-0.0801 -4.18021,-0.081 -3.12206,-0.001 -4.08603,0.0296 -4.16782,0.13327 -0.0585,0.0742 -0.72633,1.30065 -1.48403,2.72543 -0.7577,1.42478 -1.45188,2.6755 -1.54262,2.77939 -0.13467,0.1542 -0.34696,0.18889 -1.15567,0.18889 -0.54487,0 -1.02307,-0.0324 -1.06264,-0.072 z m 12.55568,-7.7805 c -0.003,-0.19732 -2.97858,-5.66159 -3.07516,-5.64633 -0.10105,0.016 -3.07125,5.47047 -3.07465,5.64633 -8.7e-4,0.0445 1.38273,0.081 3.07465,0.081 1.69192,0 3.07575,-0.0364 3.07516,-0.081 z m 9.52116,7.72294 c -0.0986,-0.0986 -0.12953,-2.19659 -0.12953,-8.7837 0,-7.50308 0.0212,-8.67178 0.15951,-8.78656 0.25497,-0.2116 5.95443,-0.0894 6.78402,0.14541 1.03321,0.2925 1.76209,0.71142 2.3983,1.37842 0.88988,0.93295 1.07415,1.41186 1.07415,2.79169 0,1.08418 -0.0159,1.16269 -0.36689,1.80993 -0.34867,0.64299 -0.76448,1.10015 -1.45335,1.59789 l -0.30913,0.22335 0.93221,0.4473 c 1.18319,0.56773 1.99389,1.31637 2.4672,2.2783 0.32975,0.67018 0.34896,0.77504 0.34772,1.89856 -10e-4,1.11785 -0.0221,1.23188 -0.34792,1.90022 -0.77655,1.5929 -2.33189,2.67139 -4.43651,3.07632 -1.04636,0.20133 -6.92245,0.2202 -7.11978,0.0229 z m 5.98708,-1.92136 c 1.72644,-0.18192 2.70791,-0.71511 3.36089,-1.82584 0.24103,-0.41 0.29086,-0.62418 0.29086,-1.25031 0,-0.89158 -0.21576,-1.4081 -0.84207,-2.01591 -0.97045,-0.9418 -2.41351,-1.29952 -5.05104,-1.25211 l -1.66252,0.0299 -0.0287,3.07484 c -0.0158,1.69116 -0.005,3.13617 0.0236,3.21114 0.0645,0.16818 2.41961,0.18523 3.909,0.0283 z m -0.9704,-8.53246 c 1.06629,-0.1432 1.84938,-0.51725 2.40549,-1.14903 0.97194,-1.10418 0.84518,-2.71034 -0.27444,-3.47752 -0.67447,-0.46215 -1.27484,-0.5714 -3.2296,-0.58768 l -1.83493,-0.0153 -0.029,2.5343 c -0.016,1.39387 -0.005,2.59602 0.0236,2.67146 0.0663,0.17286 1.72866,0.1863 2.93892,0.0238 z m -35.98938,-0.60572 c -0.10104,-0.0408 -0.13492,-0.55069 -0.13492,-2.03074 0,-1.70256 0.0237,-1.98538 0.17073,-2.04182 0.24472,-0.0939 5.68829,-0.0779 5.83063,0.0171 0.37656,0.25143 0.37008,0.51374 -0.0553,2.24061 -0.23,0.93361 -0.48408,1.73922 -0.56462,1.79025 -0.15289,0.0969 -5.01092,0.11967 -5.24649,0.0246 z"
         id="path3905"
         inkscape:connector-curvature="0" />
      <path
         sodipodi:nodetypes="ccscsssssscsscscccsccsscccscsscssccccccsscccsscscsssssscccccsssccscssscssccsccsssssssssscccscscsssssccccssscccscccccscccssccssccccccssccccsscsccccsccsssssssccsssccccccssssscccsccccsccccscccccccccccccscscccssccsscscccscscccccsccsccsscccsscsscccsssscsccccssscccccssssccccccsccccccccsccssccssss"
         style="fill:#a1a1a1"
         d="m 187.91216,646.83297 -3.43829,-1.25171 -7.50285,-8.698 c -4.12657,-4.7839 -7.57691,-8.80916 -7.66743,-8.94502 -0.153,-0.22961 -0.11081,-0.44245 0.59902,-3.02225 0.41999,-1.52638 1.88631,-6.85528 3.25849,-11.842 1.37218,-4.98672 2.55324,-9.1238 2.62457,-9.19353 0.0713,-0.0697 0.97971,-0.34387 2.01861,-0.60922 1.0389,-0.26535 5.75378,-1.48332 10.47751,-2.7066 4.72374,-1.22327 8.71439,-2.22414 8.86812,-2.22414 0.37823,0 5.37421,1.71548 5.62751,1.93232 0.11081,0.0949 1.54197,1.75106 3.18036,3.68044 1.6384,1.92939 4.18728,4.93049 5.66419,6.66911 1.71506,2.01899 2.66338,3.21821 2.62467,3.31908 -0.0516,0.13444 -0.5311,0.15435 -3.22117,0.13376 l -3.16056,-0.0242 2.75241,-0.0596 2.75241,-0.0596 -2.75781,-0.0242 c -2.02893,-0.0178 -2.79204,0.01 -2.88733,0.10534 -0.17158,0.17158 -0.18891,18.66279 -0.0178,18.98253 0.10279,0.19206 0.24042,0.20878 1.71929,0.20878 1.3175,0 1.63816,-0.0306 1.77718,-0.16962 0.14862,-0.14862 0.16867,-0.68638 0.16202,-4.34449 -0.004,-2.43088 -0.0463,-4.08469 -0.10035,-3.959 -0.0888,0.20667 -0.0931,0.2056 -0.10035,-0.0249 -0.0107,-0.33987 0.17949,-0.36466 2.52895,-0.32954 1.98784,0.0297 2.05181,0.0376 2.0831,0.25665 0.0178,0.12429 -0.64714,3.0629 -1.47753,6.53022 -0.8304,3.46733 -1.71068,7.15424 -1.95619,8.19314 -0.2455,1.0389 -0.50348,1.94381 -0.57328,2.0109 -0.0698,0.0671 -1.24407,0.48892 -2.60948,0.93739 -2.25359,0.74019 -14.38078,4.71056 -16.7306,5.47751 -0.53444,0.17443 -0.99587,0.31376 -1.02541,0.30961 -0.0295,-0.004 -1.60093,-0.5708 -3.49199,-1.25924 z m -7.97611,-13.43972 c -0.0363,-0.18152 0.57374,-0.24416 0.6814,-0.07 0.0677,0.10948 0.17587,0.10879 0.5514,-0.004 0.82855,-0.24778 1.47533,-0.6426 2.25033,-1.37369 2.03458,-1.91933 2.34828,-4.80634 0.78096,-7.18724 -0.69551,-1.05653 -2.834,-3.07017 -4.13918,-3.89752 -0.30728,-0.19479 -0.31376,-0.19479 -0.24606,0 0.0472,0.1358 -0.0451,0.0894 -0.28746,-0.14435 -0.26826,-0.25879 -0.32846,-0.37954 -0.24216,-0.48572 0.10841,-0.13338 0.19186,-0.41856 0.6316,-2.15831 0.10034,-0.39696 0.15329,-0.79767 0.11768,-0.89048 -0.0965,-0.25156 0.3552,-0.21266 0.68404,0.0589 0.14841,0.12256 0.20913,0.19147 0.13492,0.15314 -0.0742,-0.0383 -0.13492,-0.0417 -0.13492,-0.007 0,0.14479 1.66187,2.10921 1.78435,2.10921 0.18489,0 2.64109,-1.95045 2.64109,-2.09727 0,-0.22933 -0.78946,-1.28664 -1.5732,-2.10698 -0.84377,-0.88316 -1.84182,-1.53829 -1.98661,-1.30402 -0.061,0.0987 -0.18525,0.0765 -0.50039,-0.0897 -0.23977,-0.12645 -0.33924,-0.22313 -0.23238,-0.22586 0.11401,-0.003 0.21245,-0.12047 0.25256,-0.3016 0.0361,-0.16326 0.10939,-0.44255 0.16278,-0.62064 0.0534,-0.1781 0.14034,-0.54239 0.19323,-0.80953 0.0846,-0.42717 0.58396,-2.44162 1.04531,-4.21665 0.0859,-0.33041 0.15613,-0.72638 0.15613,-0.87993 0,-0.31347 -0.16746,-0.3976 -1.45715,-0.73202 -0.41556,-0.10776 -1.31414,-0.37469 -1.99685,-0.59318 -1.75317,-0.56109 -2.72995,-0.82105 -2.87535,-0.76526 -0.0688,0.0264 -0.18066,0.23358 -0.24847,0.46036 -0.43609,1.45832 -0.45708,1.5315 -1.63535,5.70127 -0.35228,1.24668 -0.7077,2.48526 -0.78982,2.75241 -0.0821,0.26714 -0.32967,1.14144 -0.5501,1.94287 -0.22044,0.80144 -0.51264,1.84574 -0.64934,2.32066 -0.78734,2.7353 -2.42627,9.00625 -2.42627,9.28347 0,0.20045 0.18513,0.26979 1.727,0.64679 0.94986,0.23226 1.72701,0.46084 1.72701,0.50797 0,0.0471 0.0683,0.0857 0.1518,0.0857 0.15974,0 0.11285,0.4297 -0.0595,0.54487 -0.0487,0.0325 0.0138,0.25111 0.13893,0.48572 1.13419,2.12727 2.72269,3.48291 4.54502,3.87878 0.89173,0.19371 1.70878,0.20777 1.67298,0.0288 z m -1.14348,-0.74507 c -0.91727,-0.10795 -1.93425,-0.60166 -2.67889,-1.30051 -0.65448,-0.61423 -1.65547,-2.04056 -1.65547,-2.35891 0,-0.18409 1.11794,-0.96541 1.38134,-0.96541 0.0615,0 0.3783,0.3803 0.704,0.8451 0.94984,1.35552 1.72813,1.86876 2.83384,1.86876 2.30084,0 3.63704,-2.15516 2.56355,-4.13476 -0.40031,-0.73822 -1.49002,-1.83419 -3.21919,-3.2377 -1.78032,-1.44502 -2.4604,-2.17042 -2.88452,-3.07674 -0.85696,-1.83127 -0.2948,-4.14369 1.2689,-5.21954 0.84952,-0.58449 1.57752,-0.78169 2.70598,-0.73302 0.8465,0.0365 1.08367,0.0922 1.71431,0.40268 1.00066,0.49262 2.70159,2.24778 2.49782,2.57747 -0.12494,0.20217 -1.22695,0.99337 -1.38359,0.99337 -0.0895,0 -0.37648,-0.26854 -0.63766,-0.59674 -0.79882,-1.00383 -1.43358,-1.34614 -2.49623,-1.34614 -0.80238,0 -1.44885,0.33367 -1.82801,0.9435 -0.20024,0.32207 -0.25058,0.55037 -0.24417,1.10731 0.0142,1.23281 0.41379,1.75308 2.72306,3.54544 2.48187,1.92632 3.56673,3.17806 4.01655,4.63442 0.44237,1.43222 0.18164,2.86866 -0.7513,4.13917 -1.08569,1.47851 -2.68911,2.1407 -4.63032,1.91225 z m -0.0121,-2.84637 c -0.20515,-0.0922 -0.53076,-0.28797 -0.72357,-0.43504 -0.19281,-0.14706 -0.40573,-0.25449 -0.47315,-0.23873 -0.1828,0.0427 -0.62444,-0.58269 -0.45411,-0.64309 0.0742,-0.0263 0.13492,-0.15657 0.13492,-0.28946 0,-0.13289 0.0684,-0.4567 0.1521,-0.71958 0.0837,-0.26288 0.33295,-1.14524 0.55399,-1.96081 0.34786,-1.28349 0.38182,-1.50761 0.25267,-1.66711 -0.0821,-0.10135 0.0911,-0.0201 0.38482,0.18048 0.29544,0.20177 0.47275,0.38517 0.39685,0.41047 -0.0788,0.0263 0.32486,0.49349 0.94825,1.09757 1.17372,1.13736 1.51456,1.69046 1.51852,2.46416 0.001,0.25467 -0.0947,0.65329 -0.21332,0.88583 -0.40886,0.80143 -1.68366,1.27231 -2.47797,0.91531 z m 6.16871,-1.83243 c -0.002,-0.17809 0.0202,-0.26402 0.0497,-0.19094 0.0296,0.0731 0.0314,0.21879 0.004,0.32381 -0.0274,0.10502 -0.0516,0.0452 -0.0538,-0.13287 z m 14.03077,5.39358 c 4.33614,-0.90728 7.40814,-4.65808 7.42319,-9.06346 0.0109,-3.19467 -1.53865,-6.07058 -4.23807,-7.86563 -1.23001,-0.81793 -3.44022,-1.53558 -4.46813,-1.45081 -0.39941,0.0329 -0.37963,0.0487 0.7691,0.61154 1.04959,0.51429 1.2938,0.69207 2.22404,1.61906 1.40482,1.39991 2.17819,2.77427 2.65994,4.72704 0.25355,1.02778 0.25676,3.59653 0.006,4.59714 -0.78381,3.12441 -2.75774,5.54707 -5.39376,6.61992 -0.28176,0.11468 -0.51248,0.24493 -0.5127,0.28946 -6.5e-4,0.13089 0.68196,0.0933 1.53065,-0.0843 z m -2.77233,-1.94075 c 1.20905,-0.25497 2.04036,-0.72512 3.03463,-1.71623 0.73045,-0.72814 0.95722,-1.04334 1.36579,-1.8985 0.65893,-1.37916 0.78093,-1.94563 0.77874,-3.61591 -0.002,-1.16091 -0.0452,-1.54297 -0.25277,-2.21273 -0.71585,-2.30937 -2.26554,-4.02565 -4.26775,-4.72652 -0.61091,-0.21384 -0.97482,-0.26806 -1.79199,-0.26697 -1.70481,0.002 -2.88907,0.5239 -4.21241,1.85543 -0.89562,0.90116 -1.55114,2.05774 -1.90093,3.35394 -0.26101,0.96723 -0.26289,3.13827 -0.004,4.10163 0.36308,1.34869 0.98054,2.42817 1.94476,3.39994 1.55601,1.5682 3.32482,2.14361 5.30547,1.72592 z m 17.93933,-6.93331 c -0.52237,-0.0198 -1.34809,-0.0197 -1.83494,2.2e-4 -0.48686,0.0199 -0.0595,0.0362 0.94975,0.0361 1.00922,-1.1e-4 1.40755,-0.0165 0.88519,-0.0363 z m -29.55843,-18.87055 c 0.5133,-0.15278 1.2247,-0.36889 1.5809,-0.48023 0.35619,-0.11134 1.49763,-0.45123 2.53653,-0.75531 2.20206,-0.64452 7.09585,-2.1557 9.49851,-2.9331 0.92017,-0.29773 1.89161,-0.60891 2.15875,-0.69151 0.76279,-0.23586 0.85998,-0.33222 0.48207,-0.47793 -1.47014,-0.56683 -3.5693,-1.29214 -3.73965,-1.29214 -0.27548,0 -8.53362,2.09537 -8.72549,2.21395 -0.0451,0.0279 -0.41522,0.12381 -0.82253,0.2132 -0.40731,0.0894 -1.05628,0.25167 -1.44216,0.36063 -0.38588,0.10896 -1.3816,0.38006 -2.21272,0.60244 -0.83112,0.22238 -1.85113,0.49788 -2.26669,0.61222 -1.52362,0.41923 -3.14051,0.8315 -3.53117,0.90037 -0.51726,0.0912 -0.60947,0.2496 -0.22616,0.38856 0.16683,0.0605 0.40047,0.15772 0.5192,0.21608 0.11873,0.0584 0.45873,0.15482 0.75556,0.21434 0.29683,0.0595 1.2197,0.34542 2.05082,0.63534 0.83112,0.28993 1.72259,0.53248 1.98104,0.53901 0.25846,0.007 0.88989,-0.11314 1.40319,-0.26592 z m 24.11288,27.39803 c 0.40071,-0.0208 1.05643,-0.0208 1.45715,0 0.40072,0.0208 0.0729,0.0378 -0.72858,0.0378 -0.80143,0 -1.12929,-0.017 -0.72857,-0.0378 z m -0.94957,-0.16421 c -0.0288,-0.075 -0.0393,-1.51998 -0.0235,-3.21114 l 0.0289,-3.07484 0.0538,3.21121 c 0.0296,1.76616 0.0402,3.21118 0.0235,3.21114 -0.0167,-3e-5 -0.0539,-0.0614 -0.0827,-0.13637 z m 3.40505,-3.29599 0.0539,-3.42174 0.0287,3.33908 c 0.0158,1.8365 -0.008,3.37628 -0.0539,3.42174 -0.0454,0.0455 -0.0583,-1.45713 -0.0287,-3.33908 z m -2.67676,2.76309 c -0.20331,-0.20331 -0.18589,-17.39109 0.0178,-17.56014 0.10607,-0.088 1.51893,-0.1144 5.04608,-0.0942 l 4.89877,0.0281 0,0.91747 0,0.91747 -3.91274,0.0283 -3.91274,0.0283 0,2.64177 0,2.64178 3.91274,0.0283 3.91274,0.0283 0,0.91747 0,0.91746 -3.91274,0.0283 -3.91274,0.0283 0,4.18663 c 0,3.11235 -0.0332,4.21987 -0.12953,4.31616 -0.0794,0.0794 -0.46773,0.12952 -1.00382,0.12952 -0.53609,0 -0.9244,-0.0501 -1.00382,-0.12952 z m 11.70764,0.0576 c -0.0396,-0.0396 -0.072,-0.13475 -0.072,-0.21151 0,-0.11662 2.70954,-5.25274 8.22093,-15.58336 0.87316,-1.63666 1.045,-1.89324 1.28682,-1.92135 0.15349,-0.0178 0.336,0.0362 0.40558,0.11998 0.0696,0.0838 2.16383,4.03056 4.65392,8.77052 3.40877,6.48872 4.49876,8.65265 4.41141,8.7579 -0.12663,0.15258 -1.88033,0.20032 -2.10041,0.0572 -0.067,-0.0436 -0.79075,-1.31789 -1.60822,-2.83171 -0.81747,-1.51383 -1.53975,-2.7881 -1.60508,-2.83171 -0.0653,-0.0436 -1.94642,-0.0801 -4.18021,-0.081 -3.12206,-0.001 -4.08603,0.0296 -4.16782,0.13327 -0.0585,0.0742 -0.72633,1.30065 -1.48403,2.72543 -0.7577,1.42478 -1.45188,2.6755 -1.54262,2.77939 -0.13467,0.1542 -0.34696,0.18889 -1.15567,0.18889 -0.54487,0 -1.02307,-0.0324 -1.06264,-0.072 z m 12.55568,-7.7805 c -0.003,-0.19732 -2.97858,-5.66159 -3.07516,-5.64633 -0.10105,0.016 -3.07125,5.47047 -3.07465,5.64633 -8.7e-4,0.0445 1.38273,0.081 3.07465,0.081 1.69192,0 3.07575,-0.0364 3.07516,-0.081 z m 9.52116,7.72294 c -0.0986,-0.0986 -0.12953,-2.19659 -0.12953,-8.7837 0,-7.50308 0.0212,-8.67178 0.15951,-8.78656 0.25497,-0.2116 5.95443,-0.0894 6.78402,0.14541 1.03321,0.2925 1.76209,0.71142 2.3983,1.37842 0.88988,0.93295 1.07415,1.41186 1.07415,2.79169 0,1.08418 -0.0159,1.16269 -0.36689,1.80993 -0.34867,0.64299 -0.76448,1.10015 -1.45335,1.59789 l -0.30913,0.22335 0.93221,0.4473 c 1.18319,0.56773 1.99389,1.31637 2.4672,2.2783 0.32975,0.67018 0.34896,0.77504 0.34772,1.89856 -0.001,1.11785 -0.0221,1.23188 -0.34792,1.90022 -0.77655,1.5929 -2.33189,2.67139 -4.43651,3.07632 -1.04636,0.20133 -6.92245,0.2202 -7.11978,0.0229 z m 5.98708,-1.92136 c 1.72644,-0.18192 2.70791,-0.71511 3.36089,-1.82584 0.24103,-0.41 0.29086,-0.62418 0.29086,-1.25031 0,-0.89158 -0.21576,-1.4081 -0.84207,-2.01591 -0.97045,-0.9418 -2.41351,-1.29952 -5.05104,-1.25211 l -1.66252,0.0299 -0.0287,3.07484 c -0.0158,1.69116 -0.005,3.13617 0.0236,3.21114 0.0645,0.16818 2.41961,0.18523 3.909,0.0283 z m -0.9704,-8.53246 c 1.06629,-0.1432 1.84938,-0.51725 2.40549,-1.14903 0.97194,-1.10418 0.84518,-2.71034 -0.27444,-3.47752 -0.67447,-0.46215 -1.27484,-0.5714 -3.2296,-0.58768 l -1.83493,-0.0153 -0.029,2.5343 c -0.016,1.39387 -0.005,2.59602 0.0236,2.67146 0.0663,0.17286 1.72866,0.1863 2.93892,0.0238 z m -39.52796,-1.61361 c 0,-3.23543 0.0137,-4.55901 0.0305,-2.9413 0.0168,1.61772 0.0168,4.26489 0,5.8826 -0.0168,1.61772 -0.0305,0.29413 -0.0305,-2.9413 z m 3.43088,5.34291 c -0.001,-0.23746 0.0199,-0.34731 0.0469,-0.24411 0.027,0.10319 0.028,0.29748 0.002,0.43175 -0.0258,0.13426 -0.0479,0.0498 -0.0491,-0.18764 z m 0.1077,-4.33502 c -0.10104,-0.0408 -0.13492,-0.55069 -0.13492,-2.03074 0,-1.70256 0.0237,-1.98538 0.17073,-2.04182 0.24472,-0.0939 5.68829,-0.0779 5.83063,0.0171 0.37656,0.25143 0.37008,0.51374 -0.0553,2.24061 -0.23,0.93361 -0.48408,1.73922 -0.56462,1.79025 -0.15289,0.0969 -5.01092,0.11967 -5.24649,0.0246 z m 3.56781,-0.11689 c -0.60528,-0.0192 -1.62529,-0.0193 -2.26669,-1.1e-4 -0.64141,0.0191 -0.14619,0.0348 1.10049,0.0349 1.24668,9e-5 1.77147,-0.0156 1.1662,-0.0348 z m -3.51451,-2.92029 c -0.0197,-0.51644 -0.0358,-0.0647 -0.0357,1.00388 1.1e-4,1.06859 0.0163,1.49114 0.0359,0.939 0.0196,-0.55214 0.0195,-1.42643 -2.2e-4,-1.94288 z m 3.88642,-0.96563 c -0.69755,-0.0188 -1.83899,-0.0188 -2.53653,0 -0.69755,0.0188 -0.12683,0.0342 1.26826,0.0342 1.3951,0 1.96582,-0.0154 1.26827,-0.0342 z"
         id="path3903"
         inkscape:connector-curvature="0" />
      <path
         sodipodi:nodetypes="ccsssscscsscccsscccscssscsccscsscccsssccscssssscssscsccsssscssscsccccssscsssscsccsscssssscccsscscsssssccssssssscscssssssccsscsssccccccscccccccccccccscscccccccscccsccccscsccccccsccscscsscccsccsccscccccsccccccccscccscc"
         style="fill:#7a7a7a"
         d="m 187.90716,646.63911 c -1.83444,-0.67234 -3.41769,-1.31091 -3.51831,-1.41904 -0.10063,-0.10813 -1.54024,-1.77519 -3.19914,-3.70458 -1.65889,-1.92938 -4.99356,-5.80256 -7.41037,-8.60706 -2.41681,-2.8045 -4.39419,-5.17114 -4.39419,-5.25921 0,-0.0881 0.65873,-2.55352 1.46386,-5.4788 0.80512,-2.92527 1.60349,-5.82868 1.77415,-6.45202 0.90378,-3.30094 2.94688,-10.70714 3.08865,-11.19625 0.14846,-0.5122 0.20037,-0.57392 0.56136,-0.6674 0.21877,-0.0566 4.06495,-1.05111 8.54706,-2.20991 4.48211,-1.15879 9.09644,-2.35313 10.25407,-2.65409 l 2.10478,-0.5472 2.74341,0.94687 2.74341,0.94687 2.38363,2.81131 c 3.93541,4.64151 6.51622,7.68353 7.82527,9.22374 l 1.23848,1.45715 -3.11516,0.0287 c -2.07828,0.0191 -3.16307,0.0684 -3.2591,0.14814 -0.11795,0.0979 -0.14396,1.8051 -0.14396,9.44995 0,6.22533 0.0372,9.39997 0.11174,9.53927 0.10279,0.19206 0.24042,0.20878 1.71929,0.20878 1.3175,0 1.63816,-0.0306 1.77718,-0.16962 0.14831,-0.14831 0.16961,-0.69061 0.16961,-4.3175 l 0,-4.14789 2.0868,0 c 1.14773,0 2.11261,0.0258 2.14417,0.0574 0.0316,0.0316 -0.10833,0.748 -0.31086,1.59208 -0.20254,0.84408 -1.07309,4.49758 -1.93456,8.11889 -0.86147,3.62131 -1.59001,6.66591 -1.61898,6.76579 -0.0359,0.12381 -0.52337,0.33643 -1.53186,0.66818 -1.37601,0.45266 -11.0066,3.60807 -16.32866,5.35001 -1.28079,0.4192 -2.39794,0.75718 -2.48256,0.75106 -0.0846,-0.006 -1.65476,-0.56123 -3.48921,-1.23357 z m -7.43791,-13.21047 c 1.09028,-0.12642 1.98867,-0.57582 2.93419,-1.46778 2.04961,-1.9335 2.37064,-4.82725 0.79812,-7.1943 -0.74751,-1.12521 -2.55769,-2.83928 -4.03717,-3.82283 -0.53976,-0.35884 -0.74068,-0.55637 -0.7397,-0.72722 7.5e-4,-0.12902 0.12291,-0.67172 0.2715,-1.20601 0.14859,-0.53429 0.31986,-1.15358 0.3806,-1.37621 0.0607,-0.22262 0.17732,-0.40476 0.25906,-0.40476 0.14326,0 0.93142,0.85523 1.66617,1.80795 0.19458,0.25231 0.41711,0.45874 0.4945,0.45874 0.1893,0 2.64752,-1.94731 2.64752,-2.09727 0,-0.22473 -0.77628,-1.26996 -1.54143,-2.07546 -0.79624,-0.83823 -1.41315,-1.2712 -2.06946,-1.45242 -0.21054,-0.0581 -0.3828,-0.15598 -0.3828,-0.21743 0,-0.0615 0.38857,-1.60949 0.8635,-3.44006 0.47492,-1.83057 0.8635,-3.42651 0.8635,-3.54653 0,-0.18043 -0.16354,-0.26809 -0.94445,-0.50623 -0.51945,-0.1584 -2.01184,-0.62154 -3.31642,-1.02921 -1.45061,-0.45329 -2.41068,-0.70247 -2.47166,-0.6415 -0.0548,0.0548 -0.28185,0.77004 -0.5045,1.58935 -1.71615,6.31539 -2.95923,10.91213 -3.32175,12.28341 -0.23542,0.89049 -0.84603,3.19529 -1.35691,5.12177 -0.51089,1.92649 -0.92889,3.60436 -0.92889,3.72859 0,0.20221 0.18099,0.27013 1.727,0.64815 l 1.72701,0.42228 0,0.38412 c 0,1.08507 1.93121,3.48155 3.38063,4.1951 1.19144,0.58654 2.13901,0.73538 3.60184,0.56576 z m -2.15182,-0.98229 c -0.70209,-0.17711 -1.65775,-0.72559 -2.22216,-1.27534 -0.71882,-0.70016 -1.59497,-2.04846 -1.46413,-2.25316 0.0533,-0.0834 0.34808,-0.2963 0.65506,-0.47311 l 0.55814,-0.32148 0.2584,0.35478 c 0.91464,1.25583 1.16153,1.5353 1.64619,1.86351 0.6717,0.45487 1.34308,0.63759 1.99055,0.54174 1.18511,-0.17544 2.15522,-0.90893 2.54216,-1.92212 0.2477,-0.6486 0.18093,-1.67308 -0.15152,-2.32472 -0.33848,-0.66348 -1.68019,-2.02482 -3.18705,-3.23367 -2.31284,-1.85543 -2.91055,-2.57357 -3.25232,-3.90761 -0.48716,-1.90159 0.37193,-3.8175 2.09131,-4.66395 0.66856,-0.32913 0.79593,-0.3541 1.80652,-0.3541 1.03983,0 1.12315,0.0177 1.91056,0.4069 0.62104,0.30694 0.98748,0.58539 1.49149,1.13335 0.3675,0.39954 0.72168,0.84221 0.78706,0.98371 0.10551,0.22834 0.0767,0.29317 -0.25581,0.57648 -0.85792,0.73088 -0.75228,0.74462 -1.69259,-0.22019 -0.73118,-0.75022 -0.92315,-0.8866 -1.47192,-1.04567 -1.30058,-0.377 -2.44615,0.11847 -2.92514,1.26516 -0.3509,0.84002 -0.1141,1.90573 0.60497,2.72264 0.23792,0.27029 1.20015,1.09761 2.13828,1.83848 0.93813,0.74088 2.02756,1.69469 2.42094,2.11958 0.82792,0.89423 1.41386,1.99036 1.59896,2.99122 0.35298,1.90859 -0.80031,4.01834 -2.67657,4.89635 -0.62425,0.29212 -0.86258,0.34231 -1.75956,0.37056 -0.57062,0.018 -1.21944,-0.0132 -1.44182,-0.0693 z m 0.29254,-2.74081 c -0.29894,-0.15142 -0.72394,-0.44056 -0.94445,-0.64254 -0.45485,-0.41662 -0.50988,-0.76897 -0.24787,-1.58715 0.0842,-0.26288 0.31135,-1.07187 0.50482,-1.79775 0.19347,-0.72588 0.38717,-1.37708 0.43045,-1.44711 0.0853,-0.13794 1.88197,1.45317 2.47684,2.1934 0.9432,1.17368 0.83462,2.52055 -0.25464,3.1589 -0.7144,0.41867 -1.30714,0.45554 -1.96515,0.12225 z m 21.48121,3.38019 c 2.98843,-0.99833 5.12196,-3.2245 6.06328,-6.32657 0.25233,-0.83154 0.28809,-1.13506 0.28975,-2.45972 0.002,-1.21821 -0.0436,-1.67851 -0.23253,-2.37462 -0.86833,-3.19857 -3.3868,-5.76463 -6.51449,-6.6376 -0.76729,-0.21416 -2.3562,-0.41526 -2.3562,-0.29821 0,0.0318 0.51843,0.31107 1.15207,0.62056 1.02107,0.49872 1.27084,0.6811 2.19678,1.60403 1.35663,1.35224 2.0967,2.6347 2.60483,4.51384 0.30486,1.12746 0.33814,3.7138 0.0619,4.81034 -0.78646,3.12178 -2.70736,5.48688 -5.36795,6.60927 -0.81622,0.34433 -0.77202,0.41387 0.21365,0.33613 0.5582,-0.044 1.2951,-0.19908 1.88891,-0.39745 z m -3.07237,-1.73854 c 2.09487,-0.76395 3.71472,-2.69083 4.32917,-5.14974 0.3202,-1.28137 0.25176,-3.24118 -0.15673,-4.48851 -1.05997,-3.23659 -3.9409,-5.25221 -6.89952,-4.82719 -2.23762,0.32144 -4.25878,2.02331 -5.13908,4.32725 -0.44739,1.17093 -0.59592,2.16231 -0.53055,3.54143 0.15933,3.36153 2.3663,6.19961 5.31886,6.83985 0.75133,0.16292 2.29988,0.0406 3.07785,-0.24309 z m -11.44574,-25.945 c 1.27786,-0.39038 3.07624,-0.94639 3.99641,-1.2356 0.92017,-0.28921 2.93591,-0.92074 4.47941,-1.4034 4.07997,-1.27582 6.73073,-2.13673 6.9404,-2.25406 0.21254,-0.11895 0.35865,-0.0528 -2.0692,-0.93671 -0.88278,-0.32139 -1.6923,-0.58435 -1.79894,-0.58435 -0.47262,0 -19.7308,4.90414 -19.89227,5.06561 -0.0615,0.0615 -0.0841,0.13954 -0.0501,0.17346 0.0608,0.0608 5.76154,1.85087 5.96573,1.87327 0.0579,0.006 1.15074,-0.30785 2.4286,-0.69822 z m 23.01502,26.80908 c -0.20331,-0.20331 -0.18587,-17.17523 0.0178,-17.34429 0.10603,-0.088 1.49083,-0.1144 4.93815,-0.0942 l 4.7908,0.0281 0,0.80953 0,0.80954 -3.91274,0.0283 -3.91274,0.0283 0,2.74971 0,2.74972 3.91274,0.0283 3.91274,0.0283 0,0.80954 0,0.80953 -3.91274,0.0283 -3.91274,0.0283 0,4.10738 c 0,2.6249 -0.0403,4.18273 -0.11173,4.31616 -0.0947,0.177 -0.23109,0.20878 -0.89589,0.20878 -0.46597,0 -0.8367,-0.0526 -0.91367,-0.12953 z m 11.68793,0.0188 c -0.0864,-0.13982 9.02272,-17.26882 9.26465,-17.42142 0.13656,-0.0861 0.22662,-0.0622 0.38255,0.10171 0.31896,0.33527 9.09562,17.13051 9.03475,17.28912 -0.073,0.19031 -1.67949,0.19566 -1.91364,0.006 -0.0918,-0.0742 -0.80695,-1.33244 -1.58922,-2.79606 -0.78228,-1.46363 -1.48714,-2.71494 -1.56635,-2.78068 -0.1012,-0.084 -1.39013,-0.11113 -4.33472,-0.0913 l -4.19069,0.0283 -1.49772,2.80452 c -0.82375,1.54249 -1.55515,2.84105 -1.62534,2.88568 -0.1936,0.12312 -1.88593,0.1005 -1.96427,-0.0263 z m 12.56344,-7.43459 c 0.11711,-0.0742 -0.17931,-0.71321 -1.38863,-2.99362 -0.84565,-1.59462 -1.6,-2.96563 -1.67635,-3.0467 -0.17553,-0.18637 -0.0863,-0.33168 -1.93874,3.15592 -1.15546,2.17534 -1.45089,2.81321 -1.33652,2.88567 0.19294,0.12225 6.14712,0.12105 6.34024,-10e-4 z m 9.5385,7.42491 c -0.19243,-0.19776 -0.19771,-17.15159 -0.005,-17.34391 0.093,-0.093 0.80144,-0.12931 2.50955,-0.12876 3.49188,0.001 4.87256,0.26597 6.04088,1.15879 1.08864,0.83194 1.63953,2.04667 1.55067,3.41922 -0.0807,1.2468 -0.66061,2.22216 -1.77834,2.99117 -0.2557,0.17593 -0.4649,0.35844 -0.4649,0.40557 0,0.0471 0.34175,0.21978 0.75944,0.38366 1.32461,0.51969 2.22928,1.33688 2.77913,2.51039 0.25781,0.55024 0.29318,0.7561 0.29294,1.70517 -2.2e-4,0.99134 -0.0286,1.13925 -0.34773,1.81352 -0.64273,1.35801 -2.14363,2.51602 -3.81873,2.94629 -0.93269,0.23958 -7.30498,0.35731 -7.51752,0.13889 z m 6.10875,-1.71884 c 1.26145,-0.15817 2.00641,-0.46399 2.61658,-1.07416 0.67195,-0.67196 0.87641,-1.09669 0.93725,-1.947 0.0407,-0.56894 0.004,-0.81557 -0.19041,-1.26665 -0.3878,-0.90146 -1.33134,-1.64599 -2.57835,-2.03453 -0.69638,-0.21697 -4.47756,-0.43141 -4.82397,-0.27357 l -0.26189,0.11932 0,3.22245 c 0,1.77235 0.0324,3.25484 0.072,3.29442 0.11357,0.11357 3.23927,0.0838 4.22883,-0.0403 z m -1.06266,-8.52926 c 1.89268,-0.30426 3.0186,-1.39959 3.0212,-2.93912 0.002,-1.11592 -0.62907,-1.91565 -1.81769,-2.3039 -0.49782,-0.16261 -0.95687,-0.19941 -2.49876,-0.20028 l -1.88891,-10e-4 -0.029,2.64244 c -0.0159,1.45333 -0.005,2.70406 0.0236,2.77939 0.0662,0.17262 2.16376,0.18744 3.18953,0.0225 z m -36.05117,-2.74593 0,-1.8889 2.84713,0 c 2.46602,0 2.86612,0.0229 2.989,0.17094 0.11884,0.14319 0.0848,0.41049 -0.20973,1.64605 -0.19338,0.81131 -0.39595,1.58439 -0.45015,1.71796 -0.0983,0.24218 -0.10568,0.24286 -2.6374,0.24286 l -2.53885,0 z"
         id="path3901"
         inkscape:connector-curvature="0" />
      <path
         sodipodi:nodetypes="ccsssscscsscccssccscscccsccscsscccccscccscssccccsccscscccscssscssccsccsssscccsccccccssccsccsccccsscccccccsccccccsccscscccscccscsssscscssscsssccccccccccssscccsscscscssscccssccccscccccccsscccsccccssscsssscsccsscsssssccccscccscccscccccccsccscssscscscccccccccssccssssssscscsssssscssssssccssssssssscsssscsscssssscssccsccsssccccccccscccccscccssccccccscccccccccccccscscccccccscccsccccscsccccccsccscscsscccsccsccscccccsccccccccscccscc"
         style="fill:#676767"
         d="m 187.90716,646.63911 c -1.83444,-0.67234 -3.41769,-1.31091 -3.51831,-1.41904 -0.10063,-0.10813 -1.54024,-1.77519 -3.19914,-3.70458 -1.65889,-1.92938 -4.99356,-5.80256 -7.41037,-8.60706 -2.41681,-2.8045 -4.39419,-5.17114 -4.39419,-5.25921 0,-0.0881 0.65873,-2.55352 1.46386,-5.4788 0.80512,-2.92527 1.60349,-5.82868 1.77415,-6.45202 0.90378,-3.30094 2.94688,-10.70714 3.08865,-11.19625 0.14846,-0.5122 0.20037,-0.57392 0.56136,-0.6674 0.21877,-0.0566 4.06495,-1.05111 8.54706,-2.20991 4.48211,-1.15879 9.09644,-2.35313 10.25407,-2.65409 l 2.10478,-0.5472 2.74341,0.94687 2.74341,0.94687 2.38363,2.81131 c 3.93456,4.6405 6.51607,7.68336 7.82527,9.22374 l 1.23847,1.45715 -3.17442,0.0287 c -1.74593,0.0157 -3.21397,0.0682 -3.26231,0.11654 -0.10386,0.10386 -0.12462,18.77571 -0.0212,19.04528 0.0627,0.16336 0.27053,0.18433 1.82757,0.18433 1.73066,0 1.75781,-0.004 1.82192,-0.24286 0.0358,-0.13358 0.0658,-2.07645 0.0666,-4.31751 l 0.001,-4.07464 2.0868,0 c 1.14773,0 2.11261,0.0258 2.14417,0.0574 0.0316,0.0316 -0.10833,0.748 -0.31086,1.59208 -0.20254,0.84408 -1.07309,4.49758 -1.93456,8.11889 -0.86147,3.62131 -1.59001,6.66591 -1.61898,6.76579 -0.0359,0.12381 -0.52337,0.33643 -1.53186,0.66818 -1.37601,0.45266 -11.0066,3.60807 -16.32866,5.35001 -1.28079,0.4192 -2.39794,0.75718 -2.48256,0.75106 -0.0846,-0.006 -1.65476,-0.56123 -3.48921,-1.23357 z m 6.27943,-0.20425 c 1.28968,-0.44073 2.49058,-0.85351 2.66868,-0.91728 0.1781,-0.0638 0.85811,-0.29281 1.51113,-0.50896 2.39515,-0.79279 3.32855,-1.12226 3.4439,-1.21562 0.0649,-0.0525 0.41836,-0.17177 0.78542,-0.26496 0.36705,-0.0932 0.85205,-0.26842 1.07777,-0.3894 0.22572,-0.12097 0.49705,-0.21996 0.60295,-0.21996 0.15148,0 0.1781,-0.0575 0.12482,-0.26984 -0.0614,-0.24449 -0.0362,-0.26985 0.26779,-0.26985 0.18453,0 0.33551,0.0486 0.33551,0.10794 0,0.15342 0.546,0.12671 0.84951,-0.0416 0.25277,-0.14014 0.25098,-0.14264 -0.14831,-0.20744 -0.22229,-0.0361 -0.48314,-0.1355 -0.57966,-0.22096 -0.0965,-0.0855 -0.27265,-0.1732 -0.39138,-0.19498 -0.11873,-0.0218 -0.21588,-0.11114 -0.21588,-0.19856 0,-0.1947 0.37682,-0.28415 0.48175,-0.11436 0.10592,0.17138 0.67174,0.19728 0.72976,0.0334 0.0317,-0.0894 -0.0666,-0.13492 -0.29141,-0.13492 -0.19864,0 -0.31154,-0.0447 -0.27247,-0.10794 0.0367,-0.0594 0.2655,-0.10794 0.50848,-0.10794 l 0.44177,0 -0.0595,-4.21712 c -0.0501,-3.55367 -0.0357,-4.22625 0.0915,-4.27509 0.10359,-0.0398 0.15103,-0.24082 0.15103,-0.64007 l 0,-0.58211 -0.47689,0 c -0.84957,0 -1.13824,-0.30878 -0.4683,-0.50091 0.402,-0.11529 0.48412,-0.32792 0.24504,-0.63452 -0.16501,-0.21161 -0.16861,-0.21125 -0.35392,0.0356 -0.10296,0.13717 -0.53936,0.6018 -0.96976,1.03252 -0.4304,0.43072 -0.78254,0.8657 -0.78254,0.96662 0,0.13362 -0.0807,0.17743 -0.29683,0.16118 -0.28188,-0.0212 -0.43609,0.0511 -1.32224,0.61967 -0.20778,0.13332 -0.54778,0.27602 -0.75556,0.31712 -0.20778,0.0411 -0.48958,0.14558 -0.62623,0.23218 -0.13664,0.0866 -0.69522,0.23134 -1.24128,0.32163 -2.50647,0.41447 -6.2948,-0.17691 -8.11672,-1.26706 -2.61031,-1.56189 -4.24913,-4.19489 -4.59178,-7.37734 -0.28297,-2.62824 0.40384,-5.20387 1.93787,-7.26725 0.70893,-0.95355 1.48464,-1.64937 2.61835,-2.34867 2.20831,-1.36216 7.06433,-1.85984 9.37216,-0.96054 0.20778,0.081 0.5765,0.1974 0.81938,0.25874 0.24287,0.0613 0.52969,0.20888 0.63737,0.32786 0.10767,0.11899 0.25455,0.21633 0.3264,0.21633 0.0718,0 0.25724,0.0996 0.412,0.22134 0.22056,0.17349 0.36621,0.20542 0.67387,0.1477 0.39246,-0.0736 0.3925,-0.0736 0.31982,0.2573 -0.0617,0.28109 -0.029,0.35954 0.21726,0.52091 0.27762,0.1819 0.29606,0.18163 0.43359,-0.006 0.0826,-0.11292 0.21467,-0.16918 0.31072,-0.13232 0.21079,0.0809 0.21998,0.39471 0.0116,0.39471 -0.31664,0 -0.24909,0.18731 0.27197,0.75407 0.53164,0.57828 0.68945,0.61271 0.76503,0.1669 0.0276,-0.16255 -0.0397,-0.22606 -0.28649,-0.27068 -0.35041,-0.0633 -0.50367,-0.39703 -0.2548,-0.55475 0.08,-0.0507 0.37626,-0.093 0.65825,-0.0939 l 0.5127,-0.002 0,-0.52814 c 0,-0.38311 -0.0471,-0.54622 -0.17157,-0.59398 -0.15269,-0.0586 -0.16304,-0.31265 -0.094,-2.30795 0.0426,-1.23316 0.0415,-3.54018 -0.003,-5.12671 l -0.0801,-2.8846 -0.35918,0 c -0.45881,0 -0.54641,-0.14546 -0.2525,-0.41928 0.13532,-0.12607 0.20526,-0.28631 0.16769,-0.38421 -0.091,-0.23709 -0.25134,-0.20844 -0.32083,0.0573 -0.038,0.14535 -0.12819,0.21192 -0.25421,0.18765 -0.28666,-0.0552 -0.32011,-0.41525 -0.0453,-0.48712 0.30651,-0.0802 0.28909,-0.14174 -0.19185,-0.67846 -0.28039,-0.3129 -0.46331,-0.43693 -0.55803,-0.37839 -0.0997,0.0616 -0.12197,0.0377 -0.0762,-0.0816 0.0675,-0.17588 -0.50544,-1.05406 -0.68767,-1.05406 -0.0557,0 -0.14923,-0.12613 -0.20784,-0.28029 -0.0586,-0.15416 -0.19901,-0.30447 -0.312,-0.33401 -0.11299,-0.0295 -0.23341,-0.16521 -0.26761,-0.30147 -0.0835,-0.33277 -0.32006,-0.40473 -0.74056,-0.2253 -0.19189,0.0819 -0.54318,0.20228 -0.78064,0.26754 -0.23746,0.0653 -0.94176,0.26808 -1.5651,0.4507 -0.62334,0.18261 -1.30334,0.37426 -1.51112,0.42586 -0.20778,0.0516 -0.64493,0.17524 -0.97144,0.27473 -0.32651,0.0995 -0.90938,0.26852 -1.29525,0.37563 -0.38588,0.1071 -1.62446,0.46697 -2.75241,0.7997 -1.12795,0.33273 -2.39082,0.70443 -2.80638,0.826 -0.41556,0.12158 -1.11985,0.33399 -1.5651,0.47203 -0.44524,0.13804 -0.90667,0.27434 -1.0254,0.30288 -0.7522,0.18085 -3.88987,1.17733 -4.00316,1.27135 -0.0757,0.0628 -0.18898,0.34173 -0.25179,0.61984 -0.0628,0.27811 -0.38204,1.52567 -0.70938,2.77235 -0.32734,1.24668 -0.67535,2.61883 -0.77337,3.04923 -0.17518,0.76926 -0.26324,0.87514 -0.56763,0.68247 -0.12703,-0.0804 -0.004,-0.67215 0.72858,-3.49895 0.4848,-1.87121 0.88146,-3.49971 0.88146,-3.6189 0,-0.17852 -0.16639,-0.26744 -0.94445,-0.50471 -0.51945,-0.1584 -2.01184,-0.62154 -3.31642,-1.02921 -1.4077,-0.43988 -2.4115,-0.70166 -2.46922,-0.64394 -0.10096,0.10096 -0.67387,2.15552 -2.62002,9.39579 -0.63031,2.34495 -1.59854,5.93927 -2.15161,7.98739 -1.52436,5.64486 -1.472,5.42343 -1.31645,5.56733 0.0745,0.0689 0.87622,0.30736 1.78155,0.52981 l 1.64605,0.40447 0,0.31113 c 0,0.17113 -0.051,0.31114 -0.11336,0.31114 -0.0623,0 -0.67174,-0.14902 -1.3542,-0.33115 -0.68247,-0.18213 -1.29503,-0.31308 -1.36126,-0.29101 -0.11439,0.0381 1.29566,1.70972 4.17231,4.94622 0.71554,0.80504 1.71384,1.94305 2.21845,2.52892 1.05565,1.22563 2.78293,3.14732 3.71474,4.13283 0.35246,0.37278 0.71081,0.77768 0.79633,0.89978 0.0999,0.14267 0.23117,0.20221 0.36727,0.16662 0.15579,-0.0407 0.19536,-0.0126 0.14967,0.10647 -0.0342,0.089 -0.01,0.25974 0.0543,0.37938 0.0892,0.16661 0.18383,0.20191 0.40438,0.15081 0.16939,-0.0392 0.23241,-0.0294 0.15305,0.0239 -0.21702,0.14573 0.0781,0.45341 0.53349,0.5561 0.34262,0.0773 0.40003,0.0609 0.44946,-0.12812 0.0434,-0.16595 0.11506,-0.20108 0.30591,-0.14997 0.13708,0.0367 0.52853,0.0674 0.86988,0.0682 0.47907,10e-4 0.62064,0.0384 0.62064,0.16338 0,0.0891 0.0514,0.1619 0.11431,0.1619 0.0629,0 0.0849,-0.0476 0.049,-0.1057 -0.0932,-0.15083 0.14926,-0.56162 0.28279,-0.47909 0.19199,0.11865 -0.19571,-0.53808 -0.45142,-0.76468 -0.13383,-0.11859 -0.46215,-0.55562 -0.72959,-0.97118 -0.26745,-0.41556 -0.68925,-0.99843 -0.93735,-1.29526 -0.24809,-0.29682 -0.54397,-0.6854 -0.65751,-0.8635 -0.20108,-0.31542 -2.30045,-3.0488 -2.96386,-3.85896 -0.37249,-0.45487 -0.34291,-0.62045 0.11081,-0.62045 0.20885,0 0.38494,0.0964 0.54244,0.29683 0.12827,0.16326 1.13983,1.44195 2.24792,2.84155 1.10808,1.3996 2.30613,2.92144 2.66233,3.38188 0.35619,0.46044 1.30334,1.65275 2.10478,2.64958 0.80144,0.99684 1.95931,2.45003 2.57305,3.22931 0.61373,0.77927 1.1857,1.41687 1.27104,1.41687 0.0853,0 1.21035,-0.3606 2.50002,-0.80133 z m -10.96069,-4.83167 c 0.0667,-0.20014 0.29908,-0.23333 0.29908,-0.0427 0,0.094 -0.0769,0.1709 -0.17091,0.1709 -0.094,0 -0.15167,-0.0577 -0.12817,-0.12818 z m 1.06589,0.0294 c -0.20408,-0.12909 -0.0618,-0.46645 0.17731,-0.4204 0.10407,0.02 0.18922,0.12887 0.18922,0.24184 0,0.23948 -0.15264,0.31385 -0.36653,0.17856 z m 19.55469,-8.8173 c 0.0359,-0.0359 0.12896,-0.0397 0.20688,-0.009 0.0861,0.0344 0.0605,0.06 -0.0652,0.0652 -0.11378,0.005 -0.17754,-0.0208 -0.14167,-0.0567 z m 0.59141,-0.23153 c -0.29426,-0.0668 -0.22873,-0.35088 0.081,-0.35088 0.16299,0 0.26985,0.0616 0.26985,0.15553 0,0.19247 -0.10529,0.2511 -0.3508,0.19535 z m -26.12046,-0.13736 c -0.70209,-0.17711 -1.65775,-0.72559 -2.22216,-1.27534 -0.71882,-0.70016 -1.59497,-2.04846 -1.46413,-2.25316 0.0533,-0.0834 0.34808,-0.2963 0.65506,-0.47311 l 0.55814,-0.32148 0.2584,0.35478 c 0.91464,1.25583 1.16153,1.5353 1.64619,1.86351 0.6717,0.45487 1.34308,0.63759 1.99055,0.54174 1.18511,-0.17544 2.15522,-0.90893 2.54216,-1.92212 0.2477,-0.6486 0.18093,-1.67308 -0.15152,-2.32472 -0.33848,-0.66348 -1.68019,-2.02482 -3.18705,-3.23367 -2.31284,-1.85543 -2.91055,-2.57357 -3.25232,-3.90761 -0.48716,-1.90159 0.37193,-3.8175 2.09131,-4.66395 0.66856,-0.32913 0.79593,-0.3541 1.80652,-0.3541 1.03983,0 1.12315,0.0177 1.91056,0.4069 0.62104,0.30694 0.98748,0.58539 1.49149,1.13335 0.3675,0.39954 0.72168,0.84221 0.78706,0.98371 0.10551,0.22834 0.0767,0.29317 -0.25581,0.57648 -0.85792,0.73088 -0.75228,0.74462 -1.69259,-0.22019 -0.73118,-0.75022 -0.92315,-0.8866 -1.47192,-1.04567 -1.30058,-0.377 -2.44615,0.11847 -2.92514,1.26516 -0.3509,0.84002 -0.1141,1.90573 0.60497,2.72264 0.23792,0.27029 1.20015,1.09761 2.13828,1.83848 0.93813,0.74088 2.02756,1.69469 2.42094,2.11958 0.82792,0.89423 1.41386,1.99036 1.59896,2.99122 0.35298,1.90859 -0.80031,4.01834 -2.67657,4.89635 -0.62425,0.29212 -0.86258,0.34231 -1.75956,0.37056 -0.57062,0.018 -1.21944,-0.0132 -1.44182,-0.0693 z m -0.90224,-3.61563 c -0.19021,-0.29031 -0.18475,-0.32867 0.34075,-2.39516 0.29373,-1.15507 0.56889,-2.15679 0.61146,-2.22606 0.0541,-0.088 0.14842,-0.0551 0.31311,0.10923 0.20093,0.20045 0.21875,0.2801 0.12075,0.53968 -0.0632,0.1675 -0.32273,1.15454 -0.57668,2.19344 -0.25394,1.0389 -0.49645,1.93053 -0.5389,1.9814 -0.0424,0.0509 -0.16417,-0.0403 -0.27049,-0.20253 z m 2.13903,-8.27536 c -0.18707,-0.18707 -0.16309,-0.44793 0.14197,-1.54486 0.14859,-0.53429 0.31986,-1.15358 0.3806,-1.37621 0.11216,-0.41107 0.30847,-0.51445 0.51177,-0.26948 0.12714,0.15319 -0.6218,3.22753 -0.80079,3.2872 -0.0565,0.0188 -0.16157,-0.0247 -0.23355,-0.0967 z m 24.77274,-4.62232 c -0.24037,-0.28073 -0.23502,-0.30203 0.0616,-0.24533 0.14779,0.0282 0.2538,0.13093 0.26314,0.25488 0.0201,0.26678 -0.0909,0.26352 -0.32474,-0.01 z m -1.0494,-12.51316 c 0,-0.0559 0.0486,-0.13158 0.10794,-0.16827 0.0594,-0.0367 0.10794,0.009 0.10794,0.10156 0,0.0926 -0.0486,0.16828 -0.10794,0.16828 -0.0594,0 -0.10794,-0.0457 -0.10794,-0.10157 z m -17.16208,39.28293 c 0,-0.22345 0.053,-0.32382 0.1709,-0.32382 0.094,0 0.15167,-0.0577 0.12817,-0.12817 -0.0645,-0.19367 -0.29907,-0.23623 -0.29907,-0.0543 0,0.0876 -0.0729,0.18731 -0.16191,0.22148 -0.16424,0.063 -0.22156,0.40502 -0.0899,0.53663 0.15474,0.15474 0.25186,0.0576 0.25186,-0.25185 z m 20.31251,-8.70875 c -0.0779,-0.0312 -0.17101,-0.0273 -0.20688,0.009 -0.0359,0.0359 0.0279,0.0614 0.14167,0.0567 0.12574,-0.005 0.15131,-0.0308 0.0652,-0.0652 z m -6.33681,-0.90833 c 2.98843,-0.99833 5.12196,-3.2245 6.06328,-6.32657 0.25233,-0.83154 0.28809,-1.13506 0.28975,-2.45972 0.002,-1.21821 -0.0436,-1.67851 -0.23253,-2.37462 -0.86833,-3.19857 -3.3868,-5.76463 -6.51449,-6.6376 -0.76729,-0.21416 -2.3562,-0.41526 -2.3562,-0.29821 0,0.0318 0.51843,0.31107 1.15207,0.62056 1.02107,0.49872 1.27084,0.6811 2.19678,1.60403 1.35663,1.35224 2.0967,2.6347 2.60483,4.51384 0.30486,1.12746 0.33814,3.7138 0.0619,4.81034 -0.78646,3.12178 -2.70736,5.48688 -5.36795,6.60927 -0.81622,0.34433 -0.77202,0.41387 0.21365,0.33613 0.5582,-0.044 1.2951,-0.19908 1.88891,-0.39745 z m -3.07237,-1.73854 c 2.09487,-0.76395 3.71472,-2.69083 4.32917,-5.14974 0.3202,-1.28137 0.25176,-3.24118 -0.15673,-4.48851 -1.05997,-3.23659 -3.9409,-5.25221 -6.89952,-4.82719 -2.23762,0.32144 -4.25878,2.02331 -5.13908,4.32725 -0.44739,1.17093 -0.59592,2.16231 -0.53055,3.54143 0.15933,3.36153 2.3663,6.19961 5.31886,6.83985 0.75133,0.16292 2.29988,0.0406 3.07785,-0.24309 z m 9.06513,-0.24768 c 0,-0.0891 -0.0729,-0.1619 -0.16191,-0.1619 -0.089,0 -0.1619,0.0729 -0.1619,0.1619 0,0.089 0.0728,0.16191 0.1619,0.16191 0.0891,0 0.16191,-0.0729 0.16191,-0.16191 z m 0.43175,-0.59365 c 0,-0.26592 -0.19916,-0.38503 -0.28216,-0.16875 -0.085,0.22161 0.0347,0.5248 0.17346,0.43906 0.0598,-0.037 0.1087,-0.15859 0.1087,-0.27031 z m -0.43175,-0.53969 c 0,-0.0594 -0.0486,-0.10794 -0.10794,-0.10794 -0.0594,0 -0.10794,0.0486 -0.10794,0.10794 0,0.0594 0.0486,0.10794 0.10794,0.10794 0.0594,0 0.10794,-0.0486 0.10794,-0.10794 z m 0.43175,-0.654 c 0,-0.0559 -0.0405,-0.10157 -0.09,-0.10157 -0.0495,0 -0.0899,0.0707 -0.0899,0.15716 0,0.0864 0.0405,0.13215 0.0899,0.10157 0.0495,-0.0306 0.09,-0.1013 0.09,-0.15716 z m 0.8635,-2.48256 c 0,-0.0559 -0.0486,-0.10157 -0.10794,-0.10157 -0.0594,0 -0.10794,0.0757 -0.10794,0.16828 0,0.0926 0.0486,0.13825 0.10794,0.10156 0.0594,-0.0367 0.10794,-0.11241 0.10794,-0.16827 z m 0,-5.16827 c 0,-0.0559 -0.0486,-0.13158 -0.10794,-0.16828 -0.0594,-0.0367 -0.10794,0.009 -0.10794,0.10157 0,0.0926 0.0486,0.16828 0.10794,0.16828 0.0594,0 0.10794,-0.0457 0.10794,-0.10157 z m -1.29525,-3.13656 c 0,-0.0594 -0.0514,-0.10794 -0.11431,-0.10794 -0.0629,0 -0.0843,0.0486 -0.0476,0.10794 0.0367,0.0594 0.0881,0.10794 0.11431,0.10794 0.0262,0 0.0476,-0.0486 0.0476,-0.10794 z m 0.32216,-0.62064 c -0.001,-0.2313 -0.0247,-0.26109 -0.10629,-0.13492 -0.13647,0.21118 -0.13647,0.43175 0,0.43175 0.0594,0 0.1072,-0.13358 0.10629,-0.29683 z m -0.39107,-0.5127 c 0.0378,-0.0986 2.2e-4,-0.16191 -0.0964,-0.16191 -0.0872,0 -0.15851,0.0729 -0.15851,0.16191 0,0.089 0.0434,0.1619 0.0964,0.1619 0.053,0 0.12435,-0.0729 0.15852,-0.1619 z m 0.34829,-10.92814 c -0.11608,-0.11609 -0.17771,0.0465 -0.0962,0.25385 0.0764,0.19451 0.0822,0.19484 0.12002,0.007 0.0218,-0.10854 0.0111,-0.22592 -0.0238,-0.26085 z m 0.15237,-0.29738 c -0.0739,-0.0891 -0.18628,-0.1619 -0.24972,-0.1619 -0.0634,0 -0.0211,0.0713 0.0942,0.15847 0.27075,0.20479 0.32363,0.20596 0.15555,0.003 z m -20.94262,-0.76238 c 1.27786,-0.38962 2.83338,-0.87068 3.45672,-1.06902 1.18677,-0.3776 4.85911,-1.51747 9.4731,-2.94038 1.49985,-0.46253 2.7248,-0.88955 2.72211,-0.94891 -0.003,-0.0594 -0.23411,-0.1886 -0.51428,-0.28718 -0.28016,-0.0986 -1.13367,-0.40215 -1.89669,-0.67461 -0.76302,-0.27245 -1.50346,-0.49537 -1.64542,-0.49537 -0.5121,0 -19.76533,4.89121 -19.93973,5.06561 -0.0615,0.0615 -0.0841,0.13954 -0.0501,0.17346 0.0608,0.0608 5.76154,1.85087 5.96573,1.87327 0.0579,0.006 1.15074,-0.30724 2.4286,-0.69687 z m 23.01502,26.80773 c -0.20331,-0.20331 -0.18587,-17.17523 0.0178,-17.34429 0.10603,-0.088 1.49083,-0.1144 4.93815,-0.0942 l 4.7908,0.0281 0,0.80953 0,0.80954 -3.91274,0.0283 -3.91274,0.0283 0,2.74971 0,2.74972 3.91274,0.0283 3.91274,0.0283 0,0.80954 0,0.80953 -3.91274,0.0283 -3.91274,0.0283 0,4.10738 c 0,2.6249 -0.0403,4.18273 -0.11173,4.31616 -0.0947,0.177 -0.23109,0.20878 -0.89589,0.20878 -0.46597,0 -0.8367,-0.0526 -0.91367,-0.12953 z m 11.68793,0.0188 c -0.0864,-0.13982 9.02272,-17.26882 9.26465,-17.42142 0.13656,-0.0861 0.22662,-0.0622 0.38255,0.10171 0.31896,0.33527 9.09562,17.13051 9.03475,17.28912 -0.073,0.19031 -1.67949,0.19566 -1.91364,0.006 -0.0918,-0.0742 -0.80695,-1.33244 -1.58922,-2.79606 -0.78228,-1.46363 -1.48714,-2.71494 -1.56635,-2.78068 -0.1012,-0.084 -1.39013,-0.11113 -4.33472,-0.0913 l -4.19069,0.0283 -1.49772,2.80452 c -0.82375,1.54249 -1.55515,2.84105 -1.62534,2.88568 -0.1936,0.12312 -1.88593,0.1005 -1.96427,-0.0263 z m 12.56344,-7.43459 c 0.11711,-0.0742 -0.17931,-0.71321 -1.38863,-2.99362 -0.84565,-1.59462 -1.6,-2.96563 -1.67635,-3.0467 -0.17553,-0.18637 -0.0863,-0.33168 -1.93874,3.15592 -1.15546,2.17534 -1.45089,2.81321 -1.33652,2.88567 0.19294,0.12225 6.14712,0.12105 6.34024,-10e-4 z m 9.5385,7.42491 c -0.19243,-0.19776 -0.19771,-17.15159 -0.005,-17.34391 0.093,-0.093 0.80144,-0.12931 2.50955,-0.12876 3.49188,0.001 4.87256,0.26597 6.04088,1.15879 1.08864,0.83194 1.63953,2.04667 1.55067,3.41922 -0.0807,1.2468 -0.66061,2.22216 -1.77834,2.99117 -0.2557,0.17593 -0.4649,0.35844 -0.4649,0.40557 0,0.0471 0.34175,0.21978 0.75944,0.38366 1.32461,0.51969 2.22928,1.33688 2.77913,2.51039 0.25781,0.55024 0.29318,0.7561 0.29294,1.70517 -2.2e-4,0.99134 -0.0286,1.13925 -0.34773,1.81352 -0.64273,1.35801 -2.14363,2.51602 -3.81873,2.94629 -0.93269,0.23958 -7.30498,0.35731 -7.51752,0.13889 z m 6.10875,-1.71884 c 1.26145,-0.15817 2.00641,-0.46399 2.61658,-1.07416 0.67195,-0.67196 0.87641,-1.09669 0.93725,-1.947 0.0407,-0.56894 0.004,-0.81557 -0.19041,-1.26665 -0.3878,-0.90146 -1.33134,-1.64599 -2.57835,-2.03453 -0.69638,-0.21697 -4.47756,-0.43141 -4.82397,-0.27357 l -0.26189,0.11932 0,3.22245 c 0,1.77235 0.0324,3.25484 0.072,3.29442 0.11357,0.11357 3.23927,0.0838 4.22883,-0.0403 z m -1.06266,-8.52926 c 1.89268,-0.30426 3.0186,-1.39959 3.0212,-2.93912 0.002,-1.11592 -0.62907,-1.91565 -1.81769,-2.3039 -0.49782,-0.16261 -0.95687,-0.19941 -2.49876,-0.20028 l -1.88891,-10e-4 -0.029,2.64244 c -0.0159,1.45333 -0.005,2.70406 0.0236,2.77939 0.0662,0.17262 2.16376,0.18744 3.18953,0.0225 z m -36.05117,-2.74593 0,-1.8889 2.84713,0 c 2.46602,0 2.86612,0.0229 2.989,0.17094 0.11884,0.14319 0.0848,0.41049 -0.20973,1.64605 -0.19338,0.81131 -0.39595,1.58439 -0.45015,1.71796 -0.0983,0.24218 -0.10568,0.24286 -2.6374,0.24286 l -2.53885,0 z"
         id="path3899"
         inkscape:connector-curvature="0" />
      <path
         sodipodi:nodetypes="ccsssscscsscccssscssssccsssscscccscsccssscsssssscscssccsscssssccsscsscscssssscscccccscssccccsscsscssccccccssccssssscssccssccssssssscscssssssccsccccssscsssscsccsscssssscccccscccccccccccccscscccccccscccsccccscsccccccsccscscsscccsccsccscccccscccccccssscccccscccccccccc"
         style="fill:#606060"
         d="m 187.90716,646.63911 c -1.83444,-0.67234 -3.41769,-1.31091 -3.51831,-1.41904 -0.10063,-0.10813 -1.54024,-1.77519 -3.19914,-3.70458 -1.65889,-1.92938 -4.99356,-5.80256 -7.41037,-8.60706 -2.41681,-2.8045 -4.39419,-5.17114 -4.39419,-5.25921 0,-0.0881 0.65873,-2.55352 1.46386,-5.4788 0.80512,-2.92527 1.60349,-5.82868 1.77415,-6.45202 0.90378,-3.30094 2.94688,-10.70714 3.08865,-11.19625 0.14846,-0.5122 0.20037,-0.57392 0.56136,-0.6674 0.21877,-0.0566 4.06495,-1.05111 8.54706,-2.20991 4.48211,-1.15879 9.09644,-2.35313 10.25407,-2.65409 l 2.10478,-0.5472 2.74341,0.94687 2.74341,0.94687 2.38363,2.81131 c 3.88494,4.58198 6.50867,7.67465 7.8043,9.19915 0.66962,0.78791 1.21749,1.45577 1.21749,1.48414 0,0.12274 -0.64792,0.0398 -0.65106,-0.0833 -0.002,-0.0742 -0.24717,-0.40207 -0.54507,-0.72858 -0.2979,-0.32651 -0.81851,-0.93604 -1.1569,-1.3545 -0.33839,-0.41847 -1.10832,-1.34134 -1.71096,-2.05082 -3.78542,-4.45652 -4.97416,-5.86045 -6.06721,-7.16551 -0.67449,-0.80532 -1.34592,-1.50588 -1.49207,-1.5568 -0.17902,-0.0624 -0.41281,-0.0378 -0.71653,0.0755 -0.24794,0.0924 -1.05796,0.34213 -1.80003,0.55486 -0.74207,0.21273 -1.88351,0.55272 -2.53653,0.75553 -0.65302,0.20281 -2.2559,0.6882 -3.56194,1.07866 -3.06249,0.91556 -5.96982,1.79062 -9.36,2.8172 -0.51748,0.1567 -0.98622,0.3404 -1.04165,0.40822 -0.0925,0.11323 -0.7646,2.64517 -1.55123,5.84401 -0.17518,0.71239 -0.35074,1.32966 -0.39013,1.37171 -0.0394,0.0421 -0.14001,0.0342 -0.2236,-0.0175 -0.12561,-0.0776 9.7e-4,-0.68441 0.72948,-3.49611 0.4848,-1.87121 0.88146,-3.49971 0.88146,-3.6189 0,-0.17852 -0.16639,-0.26744 -0.94445,-0.50471 -0.51945,-0.1584 -2.01184,-0.62154 -3.31642,-1.02921 -1.45061,-0.45329 -2.41068,-0.70247 -2.47166,-0.6415 -0.0548,0.0548 -0.28191,0.77004 -0.50463,1.58935 -0.22271,0.81931 -1.04707,3.84539 -1.8319,6.72463 -0.78483,2.87923 -1.58582,5.81783 -1.77997,6.53022 -0.19415,0.71239 -0.43273,1.5624 -0.53018,1.88891 -0.18769,0.62886 -0.45128,1.58398 -0.80427,2.91432 -0.11815,0.44524 -0.33951,1.23527 -0.49192,1.75561 -0.15241,0.52035 -0.27712,1.11349 -0.27712,1.31808 0,0.42189 -0.21481,0.33068 2.18574,0.92806 1.15229,0.28675 1.37621,0.37543 1.37621,0.54499 0,0.26604 0.105,0.27945 -1.72701,-0.2205 -0.95869,-0.26162 -1.29525,-0.28053 -1.29525,-0.0728 0,0.0835 0.3767,0.58137 0.8371,1.10636 0.46041,0.52498 1.46523,1.6831 2.23293,2.57358 0.76771,0.89049 1.61746,1.86421 1.88833,2.16383 0.27087,0.29963 1.48822,1.70565 2.70521,3.12449 1.217,1.41885 2.72273,3.16633 3.34607,3.88329 0.62334,0.71697 1.37621,1.59338 1.67303,1.9476 0.9714,1.15918 1.9293,2.06568 2.26669,2.14506 0.3783,0.089 3.03437,1.02501 4.03661,1.42253 1.19034,0.47213 1.11662,0.22935 -0.57907,-1.90706 -0.35814,-0.45122 -0.79687,-1.00798 -0.97497,-1.23725 -0.1781,-0.22926 -0.73668,-0.93596 -1.24128,-1.57043 -0.796,-1.00085 -2.15908,-2.74404 -3.31312,-4.23701 -0.18966,-0.24536 -0.50538,-0.65066 -0.7016,-0.90067 -0.19622,-0.25001 -0.80673,-1.03686 -1.35669,-1.74855 -0.54997,-0.71169 -1.04783,-1.32359 -1.10637,-1.35976 -0.17761,-0.10977 -0.11901,-0.37691 0.0825,-0.37593 0.1127,5.4e-4 0.58076,0.50645 1.16033,1.25415 0.53429,0.68928 1.14144,1.45933 1.34922,1.71123 0.52451,0.63588 3.24453,4.1067 3.50797,4.47626 0.11874,0.16656 0.79588,1.02515 1.50476,1.90797 0.70889,0.88283 1.53687,1.92086 1.83997,2.30674 1.91892,2.443 2.02491,2.53994 2.50084,2.28742 0.10942,-0.0581 1.09752,-0.40201 2.19579,-0.76434 1.09826,-0.36233 2.14256,-0.70863 2.32066,-0.76956 0.17809,-0.0609 1.29525,-0.43066 2.48256,-0.82163 1.18732,-0.39097 3.22734,-1.06441 4.53338,-1.49653 1.30605,-0.43213 3.27321,-1.08178 4.37148,-1.44367 3.23955,-1.06747 3.454,-1.16044 3.454,-1.49731 0,-0.15041 0.14146,-0.76664 0.81166,-3.53574 0.14368,-0.59365 0.3333,-1.39509 0.42137,-1.78097 0.0881,-0.38588 0.32934,-1.40589 0.53615,-2.26669 0.50845,-2.11633 1.11972,-4.68451 1.27169,-5.34291 0.0685,-0.29683 0.25771,-1.04568 0.42044,-1.66412 0.16272,-0.61843 0.27103,-1.18915 0.24067,-1.26827 -0.0537,-0.13994 0.2958,-0.21171 0.42105,-0.0865 0.0316,0.0316 -0.10833,0.748 -0.31086,1.59208 -0.20254,0.84408 -1.07309,4.49758 -1.93456,8.11889 -0.86147,3.62131 -1.59001,6.66591 -1.61898,6.76579 -0.0359,0.12381 -0.52337,0.33643 -1.53186,0.66818 -1.37601,0.45266 -11.0066,3.60807 -16.32866,5.35001 -1.28079,0.4192 -2.39794,0.75718 -2.48256,0.75106 -0.0846,-0.006 -1.65476,-0.56123 -3.48921,-1.23357 z m 0.41888,-42.07918 c 2.79137,-0.85361 5.60952,-1.70861 6.26254,-1.90001 0.65302,-0.1914 1.81875,-0.54086 2.5905,-0.77657 0.77176,-0.23571 1.79177,-0.54278 2.26669,-0.68238 1.48266,-0.4358 2.05082,-0.64409 2.05082,-0.75181 0,-0.10881 -0.72836,-0.39574 -2.94248,-1.15918 l -1.32341,-0.45632 -1.96869,0.50923 c -5.01287,1.29664 -7.3153,1.88868 -12.42823,3.19573 -3.02193,0.77252 -5.54444,1.45459 -5.60556,1.51572 -0.0611,0.0611 -0.0834,0.13888 -0.0495,0.1728 0.061,0.061 5.7621,1.85099 5.96629,1.87327 0.0582,0.006 2.38963,-0.68686 5.18101,-1.54048 z m 6.1546,29.13206 c -1.76002,-0.36036 -2.08045,-0.46229 -2.96828,-0.94418 -1.81542,-0.98535 -3.00309,-2.24657 -3.88995,-4.13086 -0.82631,-1.75564 -0.914,-2.18275 -0.90859,-4.42544 0.004,-1.83308 0.0218,-1.99473 0.30789,-2.86035 0.85633,-2.59114 2.29354,-4.39113 4.43668,-5.55658 0.85376,-0.46428 1.34409,-0.6149 3.23813,-0.99472 1.21421,-0.24349 3.83467,-0.2689 4.64132,-0.045 1.79368,0.49785 2.46015,0.82206 3.82087,1.8587 1.68984,1.28738 2.86006,3.04081 3.43402,5.14546 0.38648,1.41717 0.40605,3.48596 0.0462,4.88109 -0.40586,1.57338 -1.26194,3.12836 -2.39333,4.3472 -0.53914,0.58081 -1.99072,1.66144 -2.76063,2.05514 -1.81633,0.92879 -4.48991,1.18436 -7.0043,0.66955 z m 5.61054,-0.60626 c 2.98843,-0.99833 5.12196,-3.2245 6.06328,-6.32657 0.25233,-0.83154 0.28809,-1.13506 0.28975,-2.45972 0.002,-1.21821 -0.0436,-1.67851 -0.23253,-2.37462 -0.86833,-3.19857 -3.3868,-5.76463 -6.51449,-6.6376 -0.76729,-0.21416 -2.3562,-0.41526 -2.3562,-0.29821 0,0.0318 0.51843,0.31107 1.15207,0.62056 1.02107,0.49872 1.27084,0.6811 2.19678,1.60403 1.35663,1.35224 2.0967,2.6347 2.60483,4.51384 0.30486,1.12746 0.33814,3.7138 0.0619,4.81034 -0.78646,3.12178 -2.70736,5.48688 -5.36795,6.60927 -0.81622,0.34433 -0.77202,0.41387 0.21365,0.33613 0.5582,-0.044 1.2951,-0.19908 1.88891,-0.39745 z m -3.07237,-1.73854 c 2.09487,-0.76395 3.71472,-2.69083 4.32917,-5.14974 0.3202,-1.28137 0.25176,-3.24118 -0.15673,-4.48851 -1.05997,-3.23659 -3.9409,-5.25221 -6.89952,-4.82719 -2.23762,0.32144 -4.25878,2.02331 -5.13908,4.32725 -0.44739,1.17093 -0.59592,2.16231 -0.53055,3.54143 0.15933,3.36153 2.3663,6.19961 5.31886,6.83985 0.75133,0.16292 2.29988,0.0406 3.07785,-0.24309 z m -18.70138,1.09916 c -0.70209,-0.17711 -1.65775,-0.72559 -2.22216,-1.27534 -0.71882,-0.70016 -1.59497,-2.04846 -1.46413,-2.25316 0.0533,-0.0834 0.34808,-0.2963 0.65506,-0.47311 l 0.55814,-0.32148 0.2584,0.35478 c 0.91464,1.25583 1.16153,1.5353 1.64619,1.86351 0.6717,0.45487 1.34308,0.63759 1.99055,0.54174 1.18511,-0.17544 2.15522,-0.90893 2.54216,-1.92212 0.2477,-0.6486 0.18093,-1.67308 -0.15152,-2.32472 -0.33848,-0.66348 -1.68019,-2.02482 -3.18705,-3.23367 -2.31284,-1.85543 -2.91055,-2.57357 -3.25232,-3.90761 -0.48716,-1.90159 0.37193,-3.8175 2.09131,-4.66395 0.66856,-0.32913 0.79593,-0.3541 1.80652,-0.3541 1.03983,0 1.12315,0.0177 1.91056,0.4069 0.62104,0.30694 0.98748,0.58539 1.49149,1.13335 0.3675,0.39954 0.72168,0.84221 0.78706,0.98371 0.10551,0.22834 0.0767,0.29317 -0.25581,0.57648 -0.85792,0.73088 -0.75228,0.74462 -1.69259,-0.22019 -0.73118,-0.75022 -0.92315,-0.8866 -1.47192,-1.04567 -1.30058,-0.377 -2.44615,0.11847 -2.92514,1.26516 -0.3509,0.84002 -0.1141,1.90573 0.60497,2.72264 0.23792,0.27029 1.20015,1.09761 2.13828,1.83848 0.93813,0.74088 2.02756,1.69469 2.42094,2.11958 0.82792,0.89423 1.41386,1.99036 1.59896,2.99122 0.35298,1.90859 -0.80031,4.01834 -2.67657,4.89635 -0.62425,0.29212 -0.86258,0.34231 -1.75956,0.37056 -0.57062,0.018 -1.21944,-0.0132 -1.44182,-0.0693 z m 30.27066,-0.23508 c -0.20331,-0.20331 -0.18587,-17.17523 0.0178,-17.34429 0.10603,-0.088 1.49083,-0.1144 4.93815,-0.0942 l 4.7908,0.0281 0,0.80953 0,0.80954 -3.91274,0.0283 -3.91274,0.0283 0,2.74971 0,2.74972 3.91274,0.0283 3.91274,0.0283 0,0.80954 0,0.80953 -3.91274,0.0283 -3.91274,0.0283 0,4.10738 c 0,2.6249 -0.0403,4.18273 -0.11173,4.31616 -0.0947,0.177 -0.23109,0.20878 -0.89589,0.20878 -0.46597,0 -0.8367,-0.0526 -0.91367,-0.12953 z m 11.68793,0.0188 c -0.0864,-0.13982 9.02272,-17.26882 9.26465,-17.42142 0.13656,-0.0861 0.22662,-0.0622 0.38255,0.10171 0.31896,0.33527 9.09562,17.13051 9.03475,17.28912 -0.073,0.19031 -1.67949,0.19566 -1.91364,0.006 -0.0918,-0.0742 -0.80695,-1.33244 -1.58922,-2.79606 -0.78228,-1.46363 -1.48714,-2.71494 -1.56635,-2.78068 -0.1012,-0.084 -1.39013,-0.11113 -4.33472,-0.0913 l -4.19069,0.0283 -1.49772,2.80452 c -0.82375,1.54249 -1.55515,2.84105 -1.62534,2.88568 -0.1936,0.12312 -1.88593,0.1005 -1.96427,-0.0263 z m 12.56344,-7.43459 c 0.11711,-0.0742 -0.17931,-0.71321 -1.38863,-2.99362 -0.84565,-1.59462 -1.6,-2.96563 -1.67635,-3.0467 -0.17553,-0.18637 -0.0863,-0.33168 -1.93874,3.15592 -1.15546,2.17534 -1.45089,2.81321 -1.33652,2.88567 0.19294,0.12225 6.14712,0.12105 6.34024,-10e-4 z m 9.5385,7.42491 c -0.19243,-0.19776 -0.19771,-17.15159 -0.005,-17.34391 0.093,-0.093 0.80144,-0.12931 2.50955,-0.12876 3.49188,0.001 4.87256,0.26597 6.04088,1.15879 1.08864,0.83194 1.63953,2.04667 1.55067,3.41922 -0.0807,1.2468 -0.66061,2.22216 -1.77834,2.99117 -0.2557,0.17593 -0.4649,0.35844 -0.4649,0.40557 0,0.0471 0.34175,0.21978 0.75944,0.38366 1.32461,0.51969 2.22928,1.33688 2.77913,2.51039 0.25781,0.55024 0.29318,0.7561 0.29294,1.70517 -2.2e-4,0.99134 -0.0286,1.13925 -0.34773,1.81352 -0.64273,1.35801 -2.14363,2.51602 -3.81873,2.94629 -0.93269,0.23958 -7.30498,0.35731 -7.51752,0.13889 z m 6.10875,-1.71884 c 1.26145,-0.15817 2.00641,-0.46399 2.61658,-1.07416 0.67195,-0.67196 0.87641,-1.09669 0.93725,-1.947 0.0407,-0.56894 0.004,-0.81557 -0.19041,-1.26665 -0.3878,-0.90146 -1.33134,-1.64599 -2.57835,-2.03453 -0.69638,-0.21697 -4.47756,-0.43141 -4.82397,-0.27357 l -0.26189,0.11932 0,3.22245 c 0,1.77235 0.0324,3.25484 0.072,3.29442 0.11357,0.11357 3.23927,0.0838 4.22883,-0.0403 z m -1.06266,-8.52926 c 1.89268,-0.30426 3.0186,-1.39959 3.0212,-2.93912 0.002,-1.11592 -0.62907,-1.91565 -1.81769,-2.3039 -0.49782,-0.16261 -0.95687,-0.19941 -2.49876,-0.20028 l -1.88891,-10e-4 -0.029,2.64244 c -0.0159,1.45333 -0.005,2.70406 0.0236,2.77939 0.0662,0.17262 2.16376,0.18744 3.18953,0.0225 z m -70.03328,6.84064 c -0.0829,-0.15492 0.0215,-0.71781 0.42757,-2.30526 0.67788,-2.65004 0.605,-2.44497 0.79978,-2.25019 0.13909,0.13909 0.091,0.42614 -0.39666,2.36681 -0.30522,1.21469 -0.59231,2.25017 -0.63797,2.30106 -0.0457,0.0509 -0.13239,3.3e-4 -0.19272,-0.11242 z m 38.73137,-7.78963 c 0,-0.096 0.47041,-2.07101 0.64268,-2.69824 0.061,-0.22215 0.0603,-0.46422 -0.002,-0.62766 -0.13444,-0.3536 -0.13265,-0.35994 0.10151,-0.35994 0.11146,0 0.2665,0.0769 0.34453,0.17094 0.11883,0.14319 0.0848,0.41049 -0.20974,1.64605 -0.19338,0.81131 -0.39595,1.58439 -0.45015,1.71796 -0.0933,0.22979 -0.42699,0.34773 -0.42699,0.15089 z m -36.5854,-0.49511 c -0.13432,-0.16185 0.0497,-1.17729 0.49514,-2.732 0.14643,-0.51112 0.36401,-0.71914 0.50806,-0.48572 0.0523,0.0847 -0.71754,3.22586 -0.81432,3.32263 -0.0306,0.0306 -0.1156,-0.0166 -0.18888,-0.10491 z"
         id="path3897"
         inkscape:connector-curvature="0" />
      <path
         sodipodi:nodetypes="ssscsssscssscsccsssccscscccsccsssssccsccssscsscccsccccccscccccsccccssssccscscscsscsssssccccsccssscsscscsccccsscscscccscsccsccc"
         style="fill:#090909"
         d="m 194.22767,633.52698 c -0.94037,-0.13113 -1.96937,-0.48209 -2.93119,-0.99975 -1.15661,-0.6225 -2.69581,-2.19236 -3.32172,-3.3879 -0.89401,-1.70764 -1.22279,-3.03952 -1.22125,-4.94736 0.003,-3.63453 1.93849,-6.95715 4.89381,-8.40075 1.57996,-0.77178 3.51185,-1.09251 4.71852,-0.78338 3.36372,0.86175 5.62655,3.03535 6.6624,6.3997 0.27051,0.87862 0.29234,1.09048 0.29234,2.83839 0,1.74792 -0.0218,1.95978 -0.29234,2.8384 -0.5447,1.76912 -1.36223,3.10023 -2.63371,4.28821 -0.94417,0.88217 -1.72911,1.34871 -3.04139,1.8077 -1.14384,0.40007 -2.03445,0.49888 -3.12547,0.34674 z m 2.19585,-1.85148 c 2.23962,-0.46521 4.28535,-2.58654 5.03682,-5.22295 0.34508,-1.21067 0.34687,-3.1965 0.004,-4.39876 -0.91334,-3.20225 -3.44022,-5.35759 -6.28638,-5.36205 -1.75787,-0.003 -3.21294,0.6132 -4.4751,1.89437 -0.90271,0.91631 -1.37503,1.67707 -1.79166,2.88579 -0.92014,2.6695 -0.5099,5.50853 1.11107,7.68918 1.5817,2.12781 3.89258,3.03553 6.40128,2.51442 z m -18.29543,0.57661 c -0.81997,-0.27303 -1.15901,-0.4643 -1.75692,-0.99114 -0.47553,-0.41902 -1.28228,-1.45192 -1.57554,-2.01722 -0.11105,-0.21406 -0.0764,-0.26926 0.3559,-0.56667 0.26341,-0.18124 0.54303,-0.32909 0.62138,-0.32857 0.0784,5.4e-4 0.32794,0.28883 0.55462,0.64069 0.48385,0.75102 1.16011,1.40259 1.81682,1.75048 0.63713,0.33752 1.85996,0.34323 2.59544,0.0121 1.12624,-0.50703 1.81384,-1.57927 1.81366,-2.82822 -2.1e-4,-1.33363 -0.97138,-2.57922 -3.72376,-4.77585 -1.53576,-1.22567 -2.309,-2.01846 -2.67485,-2.74249 -1.47473,-2.91854 0.57986,-6.08369 3.79143,-5.8408 1.17812,0.0891 1.9436,0.49999 2.97601,1.59745 0.45022,0.47858 0.81857,0.92861 0.81857,1.00006 0,0.0715 -0.23988,0.30899 -0.53306,0.52788 l -0.53307,0.39797 -0.59668,-0.67963 c -0.83479,-0.95084 -1.51757,-1.30986 -2.49279,-1.31074 -0.6065,-5.4e-4 -0.85044,0.0525 -1.23649,0.26911 -1.10922,0.62228 -1.50219,1.94771 -0.94094,3.17364 0.33972,0.74204 0.9262,1.33038 2.66973,2.67817 2.53326,1.95827 3.59789,3.25853 3.94548,4.81868 0.23051,1.03468 0.0965,2.00036 -0.40945,2.94954 -0.45692,0.85727 -1.51163,1.83184 -2.32108,2.14471 -0.87098,0.33665 -2.34701,0.39302 -3.16441,0.12085 z m 30.57228,-0.14398 c -0.10427,-0.10427 -0.1335,-1.99633 -0.13221,-8.55839 8.6e-4,-4.6335 0.0405,-8.48577 0.088,-8.56061 0.0678,-0.1068 1.10642,-0.13002 4.82856,-0.10793 l 4.74217,0.0281 0,0.70159 0,0.7016 -3.83178,0.0275 c -3.44905,0.0248 -3.84527,0.0457 -3.96671,0.20952 -0.20108,0.27124 -0.19247,5.24756 0.009,5.41507 0.0982,0.0815 1.36503,0.12882 3.9667,0.14814 l 3.82242,0.0284 0,0.7016 0,0.70159 -3.82779,0.0284 c -2.45849,0.0182 -3.86784,0.0684 -3.93973,0.14021 -0.0715,0.0714 -0.13142,1.62095 -0.16589,4.28911 l -0.054,4.1773 -0.70265,0.0313 c -0.45363,0.0202 -0.7501,-0.0161 -0.83652,-0.10254 z m 11.73927,-0.0244 c 0,-0.0823 1.71598,-3.373 3.81329,-7.31278 2.09731,-3.93977 4.12519,-7.75691 4.5064,-8.48254 0.65886,-1.25414 0.89266,-1.5467 1.08342,-1.35567 0.18607,0.18633 9.0335,17.13881 8.98534,17.21673 -0.0856,0.13858 -1.49315,0.0959 -1.68508,-0.0511 -0.0969,-0.0742 -0.81597,-1.32494 -1.59796,-2.7794 -0.78198,-1.45446 -1.47081,-2.70518 -1.53071,-2.77939 -0.0838,-0.10379 -1.0857,-0.13492 -4.34252,-0.13492 -3.89718,0 -4.2467,0.015 -4.39857,0.18889 -0.0907,0.10389 -0.7839,1.35461 -1.54037,2.77939 -0.75646,1.42478 -1.4519,2.65122 -1.54541,2.72543 -0.24759,0.19647 -1.74783,0.18391 -1.74783,-0.0146 z m 12.45797,-7.14779 c 0.0939,-0.036 0.17073,-0.1243 0.17073,-0.19616 0,-0.0719 -0.7208,-1.48738 -1.60178,-3.14562 -1.15674,-2.17731 -1.65391,-3.01499 -1.7894,-3.01499 -0.1353,0 -0.63676,0.84115 -1.79825,3.01641 -0.88585,1.65902 -1.61064,3.0757 -1.61064,3.14818 0,0.0725 0.0607,0.15627 0.13493,0.18621 0.19457,0.0785 6.29076,0.0841 6.49441,0.006 z m 9.64226,7.23646 c -0.0445,-0.0457 -0.0809,-3.96639 -0.0809,-8.71271 l 0,-8.62967 2.83336,0.0559 c 1.9696,0.0389 3.05126,0.10595 3.54812,0.22 1.48036,0.3398 2.57952,1.14581 3.19086,2.33987 0.26682,0.52114 0.30395,0.71234 0.30395,1.5651 0,0.82046 -0.0435,1.0637 -0.27958,1.5651 -0.36443,0.77384 -0.7241,1.18819 -1.44915,1.66945 -0.32556,0.21609 -0.59193,0.4414 -0.59193,0.50068 0,0.0593 0.15786,0.16277 0.3508,0.22998 2.21161,0.77036 3.45534,2.15533 3.61344,4.02379 0.0657,0.77644 -0.16908,1.79699 -0.5713,2.48331 -0.36153,0.61692 -1.43238,1.60338 -2.11729,1.95045 -1.21742,0.61691 -1.91299,0.71564 -5.43125,0.7709 -1.78097,0.028 -3.27456,0.0135 -3.31908,-0.0322 z m 6.14463,-1.56537 c 2.56105,-0.3492 4.02412,-2.26904 3.31506,-4.35002 -0.3586,-1.05244 -1.60044,-1.95906 -3.12024,-2.27798 -1.04841,-0.22 -4.2508,-0.34399 -4.5634,-0.17669 -0.23714,0.12691 -0.23794,0.13812 -0.23794,3.35284 0,1.77403 0.0295,3.30233 0.0655,3.39624 0.0562,0.14632 0.3251,0.17073 1.8811,0.17073 0.99857,0 2.19552,-0.0518 2.6599,-0.11512 z m -1.15252,-8.52637 c 0.93541,-0.15037 1.68258,-0.51006 2.23842,-1.07758 0.61971,-0.63273 0.81983,-1.19273 0.76609,-2.14375 -0.0552,-0.97652 -0.42252,-1.54388 -1.28168,-1.97958 -0.82922,-0.42051 -1.55808,-0.52348 -3.46283,-0.4892 l -1.66003,0.0299 -0.0289,2.75055 c -0.0159,1.5128 -0.005,2.8121 0.0236,2.88733 0.0663,0.17267 2.37598,0.18784 3.40532,0.0224 z"
         id="path3895"
         inkscape:connector-curvature="0" />
    </g>
  </g>
</svg>
