<?xml version="1.0" encoding="UTF-8" standalone="no"?>
<!-- Created with Inkscape (http://www.inkscape.org/) -->
<svg xmlns:dc="http://purl.org/dc/elements/1.1/" xmlns:cc="http://web.resource.org/cc/" xmlns:rdf="http://www.w3.org/1999/02/22-rdf-syntax-ns#" xmlns:svg="http://www.w3.org/2000/svg" xmlns="http://www.w3.org/2000/svg" xmlns:sodipodi="http://sodipodi.sourceforge.net/DTD/sodipodi-0.dtd" xmlns:inkscape="http://www.inkscape.org/namespaces/inkscape" width="666.08105" height="210.02821" id="svg3228" sodipodi:version="0.32" inkscape:version="0.45" sodipodi:docbase="/home/drunken-duck/SVG/inprogress" sodipodi:docname="m15a4_full_knots_outline.svg" inkscape:output_extension="org.inkscape.output.svg.inkscape" version="1.0" sodipodi:modified="true">
  <defs id="defs3230"/>
  <sodipodi:namedview id="base" pagecolor="#ffffff" bordercolor="#666666" borderopacity="1.0" inkscape:pageopacity="0.0" inkscape:pageshadow="2" inkscape:zoom="0.62526002" inkscape:cx="126.41156" inkscape:cy="381.83322" inkscape:document-units="px" inkscape:current-layer="layer1" inkscape:window-width="1168" inkscape:window-height="877" inkscape:window-x="1024" inkscape:window-y="27"/>
  <metadata id="metadata3233">
    <rdf:RDF>
      <cc:Work rdf:about="">
        <dc:format>image/svg+xml</dc:format>
        <dc:type rdf:resource="http://purl.org/dc/dcmitype/StillImage"/>
      </cc:Work>
    </rdf:RDF>
  </metadata>
  <g inkscape:label="Ebene 1" inkscape:groupmode="layer" id="layer1" transform="translate(-49.925087,-19.936645)">
    <path style="fill:#000000" d="M 398.27158,229.791 C 398.06808,229.5902 396.34308,229.25561 394.43818,229.04753 C 392.53328,228.83945 389.32548,227.97839 387.30958,227.13415 C 385.29378,226.2899 379.67928,224.56524 374.83288,223.30146 C 369.98648,222.03776 365.15268,220.67358 364.09118,220.26995 C 363.02968,219.8664 361.25448,219.52865 360.14638,219.5195 C 359.03838,219.51027 357.29608,218.86067 356.27468,218.07578 L 354.41758,216.64879 L 355.68068,213.02749 C 357.99028,206.40604 364.36998,181.7616 365.95278,173.34683 C 367.60338,164.57188 368.85888,150.16191 368.39588,145.30684 C 368.15638,142.79519 367.82728,142.34834 365.93948,141.97075 C 364.10038,141.60299 363.75958,141.17408 363.75958,139.22769 C 363.75958,137.95873 364.30818,135.85956 364.97878,134.56283 C 366.01308,132.56264 366.11828,130.66246 365.67268,122.03136 C 365.10148,110.96645 364.89498,110.36657 359.95748,105.42914 C 357.21298,102.68465 357.00618,102.17805 357.00618,98.200675 C 357.00618,92.867205 355.67638,93.684035 354.99518,99.435955 L 354.52478,103.40774 L 350.70038,102.94226 C 348.59708,102.68624 345.62388,102.26627 344.09348,102.00899 C 341.38748,101.55412 341.27628,101.62728 340.06368,104.6577 C 337.97258,109.88401 341.46788,109.601 297.72658,108.08571 C 291.74238,107.8784 275.87198,107.37761 262.45898,106.97284 C 226.18628,105.87822 216.40278,105.38915 215.45528,104.62313 C 214.98468,104.24263 213.89458,102.29255 213.03288,100.28963 C 211.09168,95.776885 209.57688,95.014055 208.52858,98.021175 C 207.83498,100.01097 207.43678,100.22669 204.45798,100.22669 C 201.35358,100.22669 201.08548,100.05852 199.97118,97.412785 C 199.31928,95.865135 198.58368,93.659865 198.33628,92.512175 C 197.89678,90.472345 197.80018,90.436935 194.03907,90.935855 C 191.06721,91.330085 190.00446,91.192935 189.36934,90.333205 C 188.91717,89.721025 187.2809,89.016505 185.73325,88.767605 L 182.91935,88.315055 L 182.91935,92.244855 C 182.91935,94.406255 182.51415,96.579865 182.0189,97.075115 C 180.71798,98.376015 176.21108,98.215785 175.68694,96.850005 C 175.39325,96.084535 174.19452,95.724445 171.9401,95.724445 C 169.07209,95.724445 168.52642,95.464895 167.89325,93.799655 C 166.80596,90.939785 167.00661,87.631555 168.31174,86.901195 C 169.00186,86.514965 165.02495,86.188155 158.36928,86.084155 C 152.26828,85.988825 146.16031,85.553965 144.79591,85.117805 C 143.34131,84.652775 139.30669,84.494875 135.04104,84.736055 C 131.04027,84.962255 119.40954,85.148875 109.19507,85.150765 C 103.58625,85.400015 98.264454,85.351255 94.049674,85.295075 C 89.834894,85.238895 86.727074,85.175305 85.546134,85.394905 C 60.219954,85.376825 52.922334,85.292915 51.731114,83.592275 C 50.740404,82.177795 50.154054,79.404505 49.933374,75.089145 C 49.818644,72.846055 50.912464,69.250545 52.140294,67.834675 C 62.564644,67.815745 77.168954,67.594545 85.370694,67.578945 C 87.375544,67.834555 91.344274,68.079115 96.626164,68.287035 C 101.90804,68.494945 108.50315,68.666225 115.76085,68.775225 C 121.53873,68.862015 127.08722,69.235695 128.09077,69.605635 C 129.13297,69.989805 138.85054,70.053655 150.74953,69.754535 L 171.5836,69.230795 L 171.61339,49.143805 C 171.64265,29.406645 172.05333,25.577315 174.16593,25.341965 C 174.64692,25.288375 176.55993,25.034155 178.4171,24.777045 C 182.6264,24.194275 181.89584,23.514125 195.63328,40.805685 C 202.02708,48.853535 206.68518,54.101735 206.99278,53.604045 C 207.57448,52.662845 334.15858,51.578955 337.76568,52.484285 C 339.35768,52.883855 339.94788,53.680675 340.68038,56.419315 L 341.59878,59.853315 L 345.36308,59.368725 C 347.43338,59.102195 350.32608,58.699115 351.79118,58.472995 C 354.36548,58.075715 354.47948,58.159095 355.17368,60.947705 C 355.73768,63.212715 355.92768,61.275835 356.05688,51.944235 C 356.20658,41.140225 356.37728,39.778495 357.92708,37.026715 C 358.86498,35.361195 360.98318,33.033205 362.63398,31.853385 C 365.59568,29.736735 365.93418,29.683275 388.14668,27.824975 C 426.07248,24.652085 453.66488,22.215515 464.87618,21.049315 C 470.75938,20.437345 477.94788,19.936645 480.85068,19.936645 C 485.91968,19.936645 486.24888,20.048825 489.16658,22.770445 C 491.53408,24.978845 492.35678,26.418535 492.89388,29.293865 C 493.27298,31.323155 493.38958,33.593465 493.15298,34.338985 C 492.86588,35.243495 493.10528,35.694505 493.87248,35.694505 C 495.32778,35.694505 496.25378,37.436535 499.24588,45.802795 C 501.44648,51.955805 501.85688,52.587145 504.02098,53.147905 C 506.74128,53.852795 510.11398,56.819535 508.72238,57.283395 C 506.90668,57.888615 507.90738,58.685025 510.08248,58.365795 C 512.12208,58.066435 512.34178,58.237255 512.41998,60.184085 C 512.46748,61.365875 512.44628,62.923705 512.37278,63.645945 C 512.27418,64.615225 512.79198,64.961425 514.34998,64.968005 C 515.51078,64.972905 518.31788,65.475395 520.58778,66.084655 C 522.85768,66.693915 526.14988,67.196415 527.90388,67.201315 C 530.23438,67.207815 531.09298,67.513235 531.09298,68.335785 C 531.09298,69.313725 534.36618,69.461345 556.04998,69.461345 C 580.35278,69.461345 581.03218,69.421235 581.96248,67.931475 C 582.48798,67.090055 583.26868,66.618425 583.69748,66.883405 C 584.12628,67.148395 603.15648,67.543805 625.98688,67.762095 L 667.49668,68.158985 L 673.04488,63.320165 C 676.09648,60.658805 680.63968,57.091605 683.14098,55.393035 C 685.64218,53.694475 689.56108,50.593435 691.84958,48.501855 C 694.13818,46.410285 696.52958,44.698995 697.16408,44.698995 C 697.79848,44.698995 699.04398,45.627575 699.93188,46.762525 C 700.81968,47.897465 702.27938,49.013565 703.17548,49.242755 C 704.25708,49.519415 704.73618,50.151665 704.60078,51.123955 C 704.48858,51.929435 705.02588,54.443265 705.79488,56.710245 C 707.06878,60.466235 707.41988,60.865335 709.75058,61.207225 C 711.92728,61.526505 712.58198,62.134575 714.14458,65.288425 C 715.89558,68.822315 715.98198,69.658685 716.00538,83.297405 C 716.04178,104.47572 714.78448,121.39819 711.82068,139.62133 C 711.01528,144.5738 709.89308,149.09406 709.32698,149.66644 C 707.87018,151.1392 706.14908,150.22712 704.94448,147.34396 C 704.12228,145.37648 703.00588,144.49944 699.48048,143.05204 C 697.04358,142.05149 689.86638,138.75983 683.53128,135.73724 C 677.19608,132.71466 671.76008,130.24165 671.45138,130.24165 C 671.14258,130.24165 670.81938,132.66409 670.73288,135.62476 C 670.47438,144.47745 670.32588,144.52458 661.83778,138.44437 C 657.81828,135.56511 651.99688,131.39595 648.90148,129.1795 C 643.92558,125.61665 642.77418,125.11862 638.96608,124.88173 C 634.40928,124.59831 633.89428,124.94971 633.89428,128.34193 C 633.89428,130.36824 631.17848,131.07795 627.28518,130.06907 C 625.26828,129.54643 624.88978,129.09606 624.88978,127.2187 C 624.88978,125.61807 624.51928,124.9723 623.57668,124.92968 C 622.85438,124.89696 619.91468,124.77278 617.04388,124.65354 C 613.95678,124.52538 611.70678,124.08431 611.53668,123.57398 C 611.37848,123.09944 610.68828,122.14414 610.00288,121.45124 C 609.00778,120.44514 608.75678,118.67156 608.75678,112.64772 L 608.75678,105.10412 L 595.66088,104.89497 C 584.04838,104.70951 582.41848,104.5286 581.27188,103.29782 C 580.23238,102.18205 578.81898,101.90216 574.06518,101.87075 C 568.82398,101.83612 567.54468,101.52712 562.81458,99.153235 C 557.57678,96.524565 557.30928,96.474815 548.41238,96.474815 C 542.86908,96.474815 539.34708,96.183275 539.34708,95.724445 C 539.34708,94.448425 531.31968,94.801695 530.82158,96.099625 C 530.52568,96.870985 529.31968,97.225185 526.98948,97.225185 C 525.11938,97.225185 523.57708,97.478445 523.56208,97.787965 C 523.39658,101.22213 522.64668,111.88801 522.56378,111.98673 C 522.50418,112.0578 520.09358,112.19133 517.20688,112.28345 C 513.98198,112.38636 510.94588,112.96215 509.33208,113.77681 C 506.16828,115.37404 502.46128,119.18984 500.72058,122.64111 C 498.22968,127.57985 498.33178,127.76714 527.85278,172.42274 C 532.13988,178.90778 536.11118,184.67733 536.67778,185.24394 C 537.24438,185.81062 538.02638,187.42722 538.41558,188.8365 C 540.05258,194.76551 536.64918,196.58757 516.08548,200.79094 C 503.02588,203.4604 499.40158,203.60259 497.32608,201.52721 C 495.74588,199.94699 495.34258,196.32779 496.50458,194.15643 C 497.24738,192.76854 496.70368,191.54971 489.91618,179.38381 C 484.73718,170.10146 482.88238,167.93415 479.58788,167.31607 C 476.05018,166.65244 474.85568,164.1765 476.44388,160.79952 C 477.39428,158.77854 477.42438,158.00197 476.62678,156.07824 C 475.09358,152.38047 473.93678,151.89363 465.64998,151.45931 C 461.40478,151.23675 457.54908,150.75298 457.08158,150.38432 C 455.83048,149.39728 428.97848,149.55689 424.93388,150.57529 C 423.05228,151.04908 421.36078,151.68277 421.17498,151.98352 C 420.98908,152.28427 420.47688,156.37914 420.03668,161.08331 C 418.90918,173.13417 416.53348,186.82302 413.66908,197.77534 C 412.31968,202.93416 410.61778,209.51866 409.88688,212.4076 C 409.15588,215.29654 408.10188,218.72425 407.54438,220.02473 C 406.98698,221.32528 406.53088,223.4279 406.53088,224.69731 C 406.53088,226.27827 405.98668,227.36189 404.80328,228.13725 C 402.94158,229.35713 398.87518,230.38665 398.27158,229.791 z M 459.43628,141.159 C 463.48208,137.84369 464.83038,134.81113 463.58998,131.81654 C 462.42218,128.99708 459.96258,126.73268 457.36868,126.08886 C 455.34048,125.58551 455.30518,125.63623 455.30518,129.05884 C 455.30518,130.97402 454.78148,133.7964 454.14158,135.33077 C 452.99588,138.07751 448.83258,142.99802 447.65428,142.99802 C 446.59048,142.99802 447.01018,140.2142 448.22608,139.2051 C 450.55348,137.27356 451.71548,133.93867 451.21768,130.61932 C 450.37228,124.98168 449.89118,124.724 440.45098,124.85141 C 430.91358,124.9801 427.01168,126.14408 425.06388,129.44138 C 423.32378,132.38712 423.38738,132.90083 426.20318,138.63984 L 428.66688,143.66135 L 442.47148,143.70487 L 456.27618,143.74839 L 459.43628,141.159 z M 200.49068,60.557985 C 200.90588,59.886085 197.77028,54.829825 194.76588,51.326915 C 193.82184,50.226155 191.70541,47.609225 190.06269,45.511515 C 185.86082,40.145675 182.91935,40.385595 182.91935,46.094145 C 182.91935,48.490435 181.02923,51.452355 179.50012,51.452355 C 178.68011,51.452355 178.4171,52.515395 178.4171,55.829545 C 178.4171,58.236995 178.64222,60.431845 178.91738,60.706975 C 179.66325,61.452865 200.02448,61.312245 200.49068,60.557985 z M 453.71018,48.187985 C 460.29718,46.571325 461.52768,41.055995 456.11898,37.392195 C 454.31738,36.171855 451.11748,36.094585 411.09328,36.304895 C 376.80858,36.485045 367.50648,36.740315 365.55778,37.554525 C 362.58278,38.797565 360.37148,42.574585 361.44468,44.579895 C 362.88458,47.270355 364.50598,47.827225 372.53908,48.390245 C 381.70688,49.032785 450.97138,48.860195 453.71018,48.187985 z " id="path2189" sodipodi:nodetypes="cssssscccsssssssscccsssssssssssscccsssssssscscssccssscccssssscccssssssssssssssssssssssssscccssssssssssssssssssssssssssscccssssssssssssssssssssssssssssssssccsssssssssccccccssssssccsssssc"/>
  </g>
</svg>