<?xml version="1.0" encoding="UTF-8"?>
<svg width="2089" height="555" xmlns="http://www.w3.org/2000/svg">
 <title>m16</title>
 <g>
  <title>Layer 1</title>
  <path id="svg_1" fill="#666" d="m968,115l8,0l0,-13l32,10l0,3l9,0l0,94l-9,0l0,3l-32,10l0,-12l-9,1l1,-96z"/>
  <path id="svg_2" stroke="#000" d="m968,115l8,0l0,-13l32,10l0,3l9,0l0,94l-9,0l0,3l-32,10l0,-12l-9,1l1,-96"/>
  <path id="svg_3" fill="#0d0d0d" d="m1008,115l0,94l9,0l0,-37l-9,0l0,-57z"/>
  <path id="svg_4" stroke="#000" d="m1008,115l0,94l9,0l0,-37l-9,0"/>
  <path id="svg_5" fill="#0d0d0d" d="m976,115l0,95l-9,1l0,-38l8,0l1,-58z"/>
  <path id="svg_6" stroke="#000" d="m976,115l0,95l-9,1l0,-38l8,0"/>
  <path id="svg_7" fill="#0d0d0d" d="m976,170l32,0l0,42l-32,10l0,-52z"/>
  <path id="svg_8" fill="#0d0d0d" d="m528,115l-500,0l-1,-1l-4,-1l-4,0l-5,1l-2,2l-3,2l-2,2l-2,4l-2,5l-1,6l-1,7l-1,8l1,21l0,26l1,29l1,30l1,28l1,25l1,18l1,10l1,6l1,7l3,6l5,5l3,2l3,2l5,2l5,1l5,0l7,-1l8,-1l8,-2l28,-8l45,-15l56,-18l59,-21l57,-19l49,-17l33,-12l13,-4l2,-1l7,-1l11,-3l12,-3l14,-3l14,-2l13,-2l10,-2l9,-1l9,-1l8,-1l7,-2l5,-1l4,-1l3,-1l1,0l-2,-110z"/>
  <path id="svg_9" fill="#141414" d="m28,116l494,0l1,5l0,12l0,17l1,20l0,19l0,17l0,13l0,4l-1,0l-3,1l-4,1l-5,1l-7,2l-8,1l-8,1l-9,1l-10,2l-13,2l-13,2l-14,3l-12,3l-10,2l-7,2l-3,0l-13,5l-35,11l-48,17l-56,19l-59,19l-54,18l-44,14l-28,9l-8,2l-8,1l-6,0l-6,0l-5,-1l-4,-2l-3,-2l-3,-2l-5,-5l-2,-6l-2,-6l-1,-6l-1,-10l-1,-17l-1,-24l-1,-27l-1,-29l0,-28l-1,-26l0,-20l0,-8l1,-7l2,-6l1,-4l2,-4l3,-3l2,-2l2,-1l5,-1l5,0l3,1l1,0z"/>
  <path id="svg_10" fill="#1c1c1c" d="m28,118l488,0l1,5l0,11l1,17l0,19l0,19l0,16l0,12l0,4l-1,1l-2,0l-5,1l-5,2l-6,1l-8,1l-8,1l-9,1l-10,1l-12,2l-13,3l-14,3l-12,2l-9,3l-7,1l-3,1l-15,4l-35,12l-48,15l-56,19l-58,19l-53,17l-43,14l-27,8l-8,1l-7,2l-6,0l-6,0l-5,-1l-4,-2l-3,-2l-3,-2l-4,-5l-3,-6l-2,-5l-1,-6l0,-9l-1,-17l-1,-23l-1,-26l-1,-28l-1,-27l0,-25l0,-20l0,-8l1,-7l1,-5l2,-5l2,-3l2,-3l2,-2l3,-1l5,-1l4,0l3,1l1,0z"/>
  <path id="svg_11" fill="#242424" d="m28,120l482,0l1,5l1,11l0,16l1,18l0,18l0,16l-1,12l0,4l-1,0l-2,1l-4,1l-6,1l-6,1l-7,1l-8,1l-9,1l-10,1l-12,2l-13,3l-12,3l-12,2l-10,2l-7,2l-3,1l-16,4l-35,11l-48,15l-55,18l-57,18l-53,17l-42,13l-26,8l-8,2l-7,1l-6,0l-5,0l-5,-1l-4,-2l-3,-1l-3,-3l-4,-5l-3,-5l-1,-6l-1,-5l-1,-9l-1,-17l-1,-21l-1,-26l0,-26l-1,-27l-1,-24l0,-19l1,-8l0,-6l2,-6l1,-4l2,-4l2,-2l3,-2l2,-1l5,-1l4,0l3,1l1,0z"/>
  <path id="svg_12" fill="#2b2b2b" d="m28,122l476,0l1,4l1,11l1,15l0,18l0,18l0,15l-1,11l0,4l-1,0l-2,1l-4,1l-5,1l-7,1l-7,1l-8,1l-8,1l-10,1l-11,2l-13,3l-12,2l-12,3l-9,2l-7,1l-4,1l-17,5l-35,10l-48,15l-55,17l-56,18l-52,16l-41,13l-25,7l-8,2l-6,1l-6,0l-5,0l-5,-1l-4,-2l-3,-1l-3,-2l-4,-5l-2,-6l-2,-5l-1,-5l0,-9l-1,-16l-1,-21l-1,-24l-1,-26l-1,-25l0,-23l0,-19l0,-8l1,-6l1,-5l2,-5l2,-3l2,-2l2,-2l3,-2l4,-1l4,1l3,0l1,1z"/>
  <path id="svg_13" fill="#333" d="m28,124l470,0l2,4l1,10l0,15l1,17l-1,17l0,15l0,10l-1,4l-1,0l-2,1l-4,1l-5,1l-6,1l-7,1l-8,2l-8,0l-10,2l-11,1l-12,3l-12,2l-11,2l-10,2l-7,2l-3,1l-18,4l-36,10l-48,15l-54,17l-56,17l-50,15l-41,12l-24,7l-8,2l-6,1l-6,0l-5,-1l-4,0l-4,-2l-3,-1l-3,-2l-4,-5l-2,-5l-2,-6l0,-4l-1,-9l-1,-15l-1,-20l-1,-23l0,-25l-1,-24l0,-23l-1,-18l1,-7l1,-7l1,-5l1,-4l2,-3l2,-3l3,-1l2,-2l4,-1l4,0l3,1l1,1z"/>
  <path id="svg_14" fill="#3b3b3b" d="m29,126l463,0l2,3l1,11l1,14l0,16l0,16l-1,15l0,10l-1,3l-1,1l-2,0l-4,1l-5,1l-6,1l-7,1l-7,2l-8,0l-10,1l-11,2l-11,2l-12,3l-11,2l-9,2l-7,2l-4,0l-19,5l-36,10l-48,14l-54,16l-54,16l-50,15l-40,12l-24,7l-6,1l-7,1l-5,0l-5,-1l-4,0l-4,-2l-3,-1l-2,-2l-4,-5l-3,-5l-1,-5l-1,-4l-1,-8l-1,-15l0,-19l-1,-22l-1,-24l0,-24l-1,-21l0,-18l0,-7l1,-6l1,-5l2,-4l2,-3l2,-3l2,-2l2,-1l5,-1l4,1l3,0l1,1z"/>
  <path id="svg_15" fill="#424242" d="m29,127l457,1l2,1l1,2l0,5l1,5l0,14l1,15l-1,16l0,13l-1,10l-1,4l-1,0l-2,0l-4,1l-5,1l-6,1l-6,1l-7,1l-8,1l-9,1l-11,2l-11,2l-12,2l-11,3l-9,2l-7,1l-3,1l-21,4l-36,10l-48,13l-53,16l-54,16l-49,14l-38,11l-23,7l-7,1l-6,1l-5,0l-5,-1l-4,-1l-4,-1l-3,-1l-2,-2l-4,-5l-3,-5l-1,-5l-1,-4l0,-7l-1,-14l-1,-18l-1,-22l0,-22l-1,-23l0,-21l0,-17l0,-7l1,-6l1,-5l1,-4l2,-3l2,-2l3,-2l2,-1l4,-1l4,0l3,1l1,0z"/>
  <path id="svg_16" fill="#4a4a4a" d="m29,129l452,1l1,0l1,3l1,4l0,5l1,13l0,15l0,15l-1,13l-1,9l-1,4l-1,0l-2,1l-4,0l-4,1l-6,1l-7,2l-7,1l-7,0l-9,1l-11,2l-11,2l-11,2l-10,2l-9,2l-7,2l-4,0l-21,5l-37,9l-48,13l-53,15l-52,15l-48,14l-38,11l-23,6l-6,1l-6,1l-5,0l-4,-1l-8,-2l-5,-3l-4,-5l-2,-4l-2,-5l-1,-4l0,-7l-1,-13l-1,-18l0,-20l-1,-22l0,-21l-1,-20l0,-17l1,-7l0,-5l1,-5l2,-4l2,-3l2,-2l2,-2l2,-1l4,-1l4,0l3,1l1,0z"/>
  <path id="svg_17" fill="#525252" d="m29,131l446,0l1,1l1,3l1,4l1,5l0,12l1,14l-1,15l-1,12l-1,9l-1,3l-1,1l-2,0l-4,1l-4,1l-6,1l-6,1l-7,1l-8,0l-8,1l-10,2l-11,2l-11,2l-10,2l-9,2l-6,1l-5,1l-22,4l-37,10l-48,12l-52,14l-52,15l-47,13l-37,10l-22,6l-11,2l-10,-1l-7,-2l-5,-3l-4,-4l-2,-5l-1,-4l-1,-4l-1,-7l0,-12l-1,-17l-1,-19l0,-21l-1,-21l0,-19l0,-16l0,-7l1,-5l1,-5l2,-4l1,-2l2,-3l2,-1l3,-1l4,-1l4,0l2,1l1,0z"/>
  <path id="svg_18" fill="#595959" d="m29,133l440,0l1,1l2,2l1,4l0,5l1,12l0,13l-1,14l-1,12l-1,8l-1,4l-1,0l-2,0l-3,1l-5,1l-5,1l-6,1l-7,0l-8,1l-8,1l-10,2l-10,2l-11,2l-9,2l-9,1l-7,2l-4,0l-24,5l-37,9l-48,12l-51,14l-52,13l-46,13l-36,10l-21,5l-11,2l-9,-1l-7,-2l-5,-3l-3,-4l-3,-4l-1,-5l-1,-3l0,-7l-1,-11l-1,-16l0,-18l-1,-20l0,-20l0,-18l-1,-16l1,-7l0,-5l2,-4l1,-4l2,-3l2,-2l2,-1l2,-2l4,0l4,0l2,0l1,1z"/>
  <path id="svg_19" fill="#616161" d="m30,135l433,0l1,1l2,2l1,4l1,4l1,12l0,12l-1,13l-1,12l-2,8l-1,3l-1,0l-2,0l-3,1l-5,1l-5,1l-6,1l-7,1l-7,0l-8,1l-9,2l-10,1l-10,2l-10,2l-8,2l-7,1l-4,1l-25,4l-38,9l-48,12l-51,13l-50,13l-46,12l-35,9l-20,5l-11,2l-8,-1l-7,-2l-5,-3l-3,-4l-3,-4l-1,-4l-1,-3l0,-6l-1,-11l0,-15l-1,-18l0,-19l-1,-18l0,-18l0,-15l0,-6l1,-5l1,-5l2,-3l1,-3l2,-2l2,-2l2,-1l4,-1l4,1l3,0l1,1z"/>
  <path id="svg_20" fill="#696969" d="m30,136l427,1l2,1l1,2l1,3l1,4l1,11l0,12l-1,13l-1,10l-1,8l-2,3l-1,0l-2,1l-3,0l-4,1l-5,1l-6,1l-7,1l-7,0l-8,1l-9,2l-9,1l-10,2l-9,2l-9,2l-6,1l-5,0l-26,5l-38,8l-47,11l-51,13l-50,13l-44,11l-35,9l-19,5l-10,1l-8,-1l-7,-2l-4,-3l-4,-3l-2,-4l-1,-4l-1,-4l-1,-5l0,-11l-1,-14l0,-16l-1,-18l0,-18l0,-17l0,-14l0,-6l1,-5l1,-4l1,-4l4,-4l4,-3l4,-1l3,1l3,0l1,0z"/>
  <path id="svg_21" fill="#707070" d="m30,138l421,1l2,1l2,2l1,3l1,4l1,10l0,11l-1,12l-2,10l-1,7l-2,3l-1,0l-2,1l-3,0l-4,1l-5,1l-6,1l-6,1l-7,0l-8,1l-8,1l-10,2l-9,2l-9,2l-8,1l-7,1l-5,1l-26,4l-40,9l-46,10l-51,12l-49,12l-43,11l-33,8l-19,5l-10,1l-8,-1l-6,-2l-4,-3l-4,-3l-2,-4l-1,-4l-1,-3l0,-5l-1,-10l0,-13l-1,-15l0,-17l0,-17l-1,-16l0,-14l0,-6l1,-5l1,-4l2,-3l3,-5l4,-2l4,-1l3,0l3,1l1,0z"/>
  <path id="svg_22" fill="#787878" d="m30,140l415,1l2,0l2,2l1,3l1,4l1,10l0,10l-1,11l-1,10l-2,7l-2,2l-1,0l-2,1l-3,0l-4,1l-5,1l-5,1l-6,1l-7,0l-7,1l-9,1l-9,2l-9,2l-9,1l-8,2l-6,1l-5,1l-28,4l-40,8l-46,10l-50,11l-48,12l-43,10l-32,8l-18,4l-9,1l-8,-1l-6,-2l-4,-3l-3,-3l-3,-4l-1,-3l0,-3l-1,-5l0,-9l-1,-12l0,-15l-1,-15l0,-16l0,-16l0,-13l0,-6l1,-4l1,-4l1,-4l4,-4l3,-2l4,-1l4,0l2,1l1,0z"/>
  <path id="svg_23" fill="#7f7f7f" d="m30,142l409,1l3,0l1,2l2,3l1,3l1,9l0,11l-1,10l-2,9l-2,6l-2,3l-1,0l-2,0l-3,1l-4,1l-4,0l-6,1l-6,1l-6,0l-7,1l-8,1l-9,2l-9,1l-8,2l-8,1l-7,1l-5,1l-29,4l-40,8l-46,10l-49,11l-48,10l-41,10l-32,7l-17,4l-9,1l-7,-1l-6,-2l-4,-3l-3,-3l-2,-3l-2,-3l0,-3l-1,-4l0,-9l0,-11l-1,-14l0,-15l0,-15l0,-14l-1,-13l1,-6l0,-4l1,-4l2,-3l3,-4l4,-2l4,-1l3,0l2,1l1,0z"/>
  <path id="svg_24" fill="#878787" d="m30,144l403,1l3,0l2,2l1,2l1,4l1,8l0,10l-1,9l-2,9l-2,6l-2,2l-1,0l-2,0l-3,1l-3,1l-5,0l-5,1l-6,1l-6,0l-7,1l-8,1l-8,2l-9,1l-8,2l-8,1l-6,1l-5,1l-31,4l-40,7l-46,10l-49,10l-47,10l-40,9l-31,6l-16,4l-9,1l-6,-1l-6,-2l-4,-2l-3,-4l-2,-3l-1,-3l-1,-2l0,-4l-1,-8l0,-11l0,-12l-1,-14l0,-14l0,-14l0,-12l0,-5l1,-5l1,-4l1,-3l3,-4l4,-2l4,0l3,0l3,1l0,0z"/>
  <path id="svg_25" fill="#8f8f8f" d="m30,146l397,0l3,1l2,1l2,3l1,3l1,8l0,9l-2,9l-2,8l-2,5l-2,2l-1,0l-2,1l-2,0l-4,1l-4,0l-5,1l-6,1l-6,0l-7,1l-7,1l-8,1l-9,2l-8,1l-7,1l-7,1l-5,1l-31,5l-41,7l-46,8l-48,10l-46,9l-40,9l-30,6l-16,3l-7,1l-7,-1l-5,-2l-4,-2l-3,-3l-2,-3l-1,-3l-1,-2l0,-4l0,-7l0,-10l-1,-11l0,-13l0,-13l-1,-13l0,-12l1,-9l2,-7l4,-4l3,-2l4,0l3,0l3,0l0,1z"/>
  <path id="svg_26" fill="#969696" d="m31,148l390,0l3,1l2,1l2,2l1,3l1,7l0,9l-1,8l-2,7l-3,5l-2,2l-1,1l-2,0l-2,0l-4,1l-4,0l-5,1l-5,1l-6,0l-7,1l-7,1l-7,1l-8,2l-8,1l-7,1l-7,1l-6,1l-32,4l-41,7l-46,8l-48,9l-45,9l-39,8l-28,5l-15,3l-8,1l-6,-1l-5,-2l-3,-2l-3,-3l-2,-3l-2,-3l0,-2l0,-3l-1,-6l0,-9l0,-11l-1,-11l0,-13l0,-12l0,-11l1,-9l2,-6l3,-4l4,-2l3,-1l4,1l2,0l1,1z"/>
  <path id="svg_27" fill="#9e9e9e" d="m31,149l385,1l3,1l2,1l2,2l1,3l1,6l0,8l-2,8l-2,6l-3,5l-2,2l-1,0l-2,0l-2,0l-4,1l-4,0l-4,1l-6,1l-5,1l-6,0l-7,1l-8,1l-7,1l-8,1l-7,2l-7,1l-5,0l-34,5l-41,6l-46,8l-47,8l-44,9l-38,7l-28,5l-15,3l-6,0l-6,-1l-5,-2l-3,-2l-3,-3l-2,-2l-1,-3l-1,-2l0,-3l0,-5l-1,-8l0,-10l0,-11l0,-11l0,-11l0,-11l0,-9l3,-6l3,-3l3,-2l4,-1l3,1l2,0l1,0z"/>
  <path id="svg_28" fill="#a6a6a6" d="m31,151l379,1l3,0l2,2l2,2l1,2l2,6l-1,7l-1,7l-3,6l-2,4l-3,2l-1,0l-2,0l-2,1l-3,0l-4,1l-5,0l-5,1l-5,0l-6,1l-7,1l-7,1l-7,1l-7,1l-7,1l-7,1l-6,1l-34,4l-42,6l-46,8l-47,8l-43,7l-37,7l-27,4l-14,3l-6,0l-5,-1l-5,-2l-3,-2l-3,-3l-2,-2l-1,-2l-1,-2l0,-2l0,-5l0,-8l0,-8l-1,-10l0,-10l0,-11l0,-10l1,-8l2,-6l3,-4l4,-1l3,-1l3,0l2,1l1,0z"/>
  <path id="svg_29" fill="#adadad" d="m31,153l373,1l3,0l2,1l2,2l2,2l1,6l0,6l-2,6l-2,6l-3,4l-3,1l-1,0l-1,1l-3,0l-3,0l-4,1l-4,0l-5,1l-6,0l-5,1l-6,1l-7,1l-7,1l-7,1l-7,1l-6,1l-6,0l-36,5l-42,6l-46,7l-46,7l-43,7l-36,6l-26,4l-13,2l-5,0l-5,-1l-5,-2l-3,-2l-3,-2l-1,-3l-2,-2l0,-1l0,-2l0,-5l-1,-6l0,-7l0,-9l0,-10l0,-9l0,-10l1,-8l2,-6l3,-3l3,-2l3,0l3,0l2,1l1,0z"/>
  <path id="svg_30" fill="#b5b5b5" d="m31,155l367,1l3,0l3,1l2,1l1,2l2,5l-1,6l-2,6l-2,5l-3,3l-3,2l-1,0l-1,0l-3,0l-3,0l-3,1l-5,0l-4,1l-6,1l-5,0l-6,1l-6,1l-7,0l-7,1l-6,1l-7,1l-6,1l-37,4l-42,6l-46,6l-45,7l-42,6l-35,6l-26,4l-12,1l-5,0l-5,-1l-4,-2l-3,-2l-2,-2l-2,-2l-1,-2l-1,-1l0,-2l0,-4l0,-5l0,-7l0,-8l-1,-8l0,-9l0,-9l1,-8l2,-5l3,-3l3,-2l4,0l3,0l2,0l0,1z"/>
  <path id="svg_31" fill="#bdbdbd" d="m31,157l361,1l3,0l3,1l2,1l2,2l1,4l0,5l-2,5l-3,5l-3,3l-3,1l-1,0l-1,0l-3,0l-2,1l-4,0l-4,0l-5,1l-5,0l-5,1l-5,1l-6,0l-7,1l-6,1l-7,1l-6,1l-7,0l-37,5l-44,5l-45,6l-45,6l-41,6l-34,5l-24,3l-12,1l-5,0l-4,-1l-4,-2l-3,-2l-2,-2l-2,-2l-1,-1l0,-1l-1,-2l0,-3l0,-4l0,-6l0,-7l0,-7l0,-9l0,-8l1,-7l2,-5l2,-3l4,-2l3,0l3,0l2,0l0,1z"/>
  <path id="svg_32" fill="#c4c4c4" d="m32,159l354,1l4,0l3,1l2,1l1,1l2,4l-1,4l-2,5l-3,3l-3,3l-3,1l-1,0l-1,0l-3,0l-2,1l-4,0l-3,0l-5,1l-5,0l-5,1l-5,1l-6,0l-6,1l-6,1l-6,0l-7,1l-6,1l-39,4l-44,5l-45,6l-44,5l-41,5l-33,5l-23,2l-11,2l-4,-1l-4,-1l-4,-2l-3,-2l-2,-2l-2,-1l-1,-2l0,0l0,-1l0,-3l0,-3l0,-5l0,-6l0,-7l0,-7l0,-8l0,-7l2,-5l3,-3l3,-1l3,0l3,0l2,0l1,1z"/>
  <path id="svg_33" fill="#ccc" d="m380,161l-348,-1l-1,0l-2,0l-2,0l-3,0l-4,1l-2,3l-2,4l-1,7l0,7l0,7l0,6l0,4l0,4l0,3l0,2l0,0l1,1l1,1l1,1l3,2l2,2l4,2l3,1l4,1l10,-1l23,-3l32,-3l39,-4l44,-5l45,-5l44,-5l40,-5l7,0l6,-1l7,-1l6,0l5,-1l6,0l4,-1l5,0l5,-1l4,0l4,-1l3,0l3,-1l2,0l1,0l1,0l3,-1l4,-2l3,-3l2,-4l0,-2l0,-1l0,-2l-1,-2l-2,-1l-2,-1l-3,0l-4,-1z"/>
  <path id="svg_34" stroke="#000" d="m528,115l-500,0l-1,-1l-4,-1l-4,0l-5,1l-2,2l-3,2l-2,2l-2,4l-2,5l-1,6l-1,7l-1,8l1,21l0,26l1,29l1,30l1,28l1,25l1,18l1,10l1,6l1,7l3,6l5,5l3,2l3,2l5,2l5,1l5,0l7,-1l8,-1l8,-2l28,-8l45,-15l56,-18l59,-21l57,-19l49,-17l33,-12l13,-4l2,-1l7,-1l11,-3l12,-3l14,-3l14,-2l13,-2l10,-2l9,-1l9,-1l8,-1l7,-2l5,-1l4,-1l3,-1l1,0l-2,-110"/>
  <path id="svg_35" fill="#0d0d0d" d="m669,329l-2,-67l-1,0l0,-1l-1,-2l-1,-1l-1,-2l-3,-1l-2,-1l-4,-1l-6,0l-8,0l-9,0l-10,0l-10,0l-8,0l-6,0l-2,0l0,21l0,0l-1,2l-1,3l-1,3l-1,4l-1,4l-2,3l-2,3l-5,7l-13,14l-17,20l-19,22l-19,22l-16,18l-12,14l-4,4l0,1l-1,1l0,1l0,2l0,2l1,2l3,3l4,2l8,3l12,4l14,5l15,5l14,5l12,4l9,2l3,1l5,2l5,0l5,-1l5,-2l2,-1l1,-2l1,-3l0,-3l0,-3l-1,-4l-2,-5l-2,-5l6,-10l6,-11l49,-82l14,-1z"/>
  <path id="svg_36" fill="#141414" d="m595,253l2,0l6,0l8,0l9,0l10,0l9,0l8,0l6,0l3,1l3,1l2,1l1,2l2,2l0,2l1,1l0,0l0,3l0,7l0,11l1,11l0,12l0,10l0,8l1,2l-17,6l-47,80l-6,10l-7,10l3,5l2,4l1,4l0,4l-1,2l-1,3l-1,2l-2,1l-4,2l-5,1l-6,-1l-4,-1l-3,-1l-8,-3l-12,-3l-14,-5l-14,-5l-14,-4l-11,-4l-7,-3l-4,-3l-2,-2l-1,-3l0,-3l1,-3l1,-2l1,-2l1,0l4,-5l11,-13l16,-18l18,-21l18,-21l17,-19l12,-14l5,-7l2,-3l1,-3l1,-4l2,-3l1,-3l0,-3l1,-2l0,0l0,-21z"/>
  <path id="svg_37" fill="#1c1c1c" d="m595,253l2,0l6,0l8,0l9,0l9,0l9,0l8,0l5,0l4,1l2,1l2,2l2,1l1,2l0,2l1,1l0,1l0,2l0,7l0,10l1,12l0,11l0,10l0,7l0,3l-20,10l-45,77l-5,10l-7,10l2,5l2,4l1,4l0,3l0,2l-1,3l-2,1l-1,2l-5,2l-5,0l-5,0l-4,-1l-3,-1l-8,-3l-11,-3l-14,-5l-13,-4l-13,-5l-11,-4l-7,-2l-2,-2l-2,-1l-1,-2l0,-1l0,-4l1,-4l2,-4l1,-3l2,-2l0,0l4,-5l11,-12l15,-18l18,-20l17,-20l16,-19l12,-13l5,-7l1,-2l2,-4l1,-3l1,-4l1,-3l1,-2l0,-2l0,-1l0,-20z"/>
  <path id="svg_38" fill="#242424" d="m596,254l2,0l5,0l8,0l8,0l10,0l8,0l8,0l5,0l3,0l2,1l2,2l2,2l1,2l0,1l1,2l0,0l0,3l0,7l0,10l0,11l1,11l0,9l0,7l0,2l-23,15l-44,74l-4,10l-7,10l2,5l2,4l1,3l0,3l-1,3l-1,2l-1,1l-2,2l-4,1l-5,1l-5,0l-5,-2l-2,0l-8,-3l-11,-3l-12,-5l-14,-4l-12,-4l-10,-4l-7,-3l-2,-1l-1,-1l-1,-2l0,-2l1,-5l2,-5l2,-4l3,-4l1,-3l1,-1l4,-4l10,-12l15,-17l16,-19l17,-20l15,-17l11,-13l6,-7l1,-2l1,-3l1,-4l2,-3l1,-3l0,-3l1,-1l0,-1l0,-19z"/>
  <path id="svg_39" fill="#2b2b2b" d="m596,254l2,0l5,0l7,0l9,0l9,0l8,0l8,0l4,0l3,0l3,2l1,1l2,2l1,2l1,2l0,1l0,1l0,3l0,6l0,10l0,10l1,11l0,9l0,7l0,2l-27,19l-41,71l-4,10l-7,10l2,4l1,4l1,3l0,3l0,3l-1,2l-2,1l-2,1l-4,2l-5,1l-4,-1l-5,-1l-2,-1l-7,-2l-11,-3l-12,-4l-13,-5l-12,-4l-9,-3l-7,-3l-2,-1l-1,-2l0,-2l0,-2l1,-6l3,-5l3,-5l3,-5l3,-3l1,-1l3,-5l10,-11l14,-16l16,-19l16,-19l15,-17l11,-13l4,-6l2,-2l1,-3l1,-3l1,-3l1,-3l1,-3l0,-2l0,0l0,-19z"/>
  <path id="svg_40" fill="#333" d="m597,254l1,0l5,0l7,0l9,0l8,0l8,0l7,0l5,0l3,1l2,1l2,2l1,2l1,2l1,1l0,2l0,0l0,3l0,7l0,9l0,10l1,10l0,9l0,6l0,3l-30,24l-40,68l-2,9l-9,10l2,4l2,4l0,3l0,2l0,3l-1,2l-2,1l-1,1l-4,2l-5,0l-5,0l-4,-1l-2,-1l-7,-2l-10,-4l-12,-3l-12,-5l-11,-3l-9,-4l-7,-2l-1,-1l-1,-2l0,-3l0,-2l2,-6l4,-7l4,-6l4,-5l2,-4l1,-1l4,-5l9,-10l14,-16l15,-18l15,-18l14,-17l10,-12l5,-5l1,-3l1,-3l2,-3l1,-3l0,-3l1,-2l0,-2l1,-1l0,-18z"/>
  <path id="svg_41" fill="#3b3b3b" d="m597,254l2,0l5,0l6,0l8,0l9,1l7,0l7,0l4,0l3,0l2,1l2,2l1,2l1,2l1,2l0,1l0,1l0,3l0,6l0,9l0,9l0,10l1,9l0,6l0,2l-34,29l-37,65l-2,9l-9,10l2,4l1,3l1,3l0,3l-1,2l-1,2l-1,1l-2,1l-4,1l-5,1l-4,0l-4,-1l-2,-1l-7,-2l-9,-3l-11,-4l-12,-4l-11,-4l-8,-3l-6,-3l-2,-1l0,-2l0,-2l0,-3l3,-7l4,-7l5,-7l4,-7l4,-4l1,-2l3,-3l9,-11l13,-15l15,-17l15,-18l13,-15l9,-12l5,-5l1,-2l1,-3l1,-3l1,-3l1,-3l1,-3l0,-1l0,-1l0,-18z"/>
  <path id="svg_42" fill="#424242" d="m598,255l1,0l5,0l6,0l8,0l8,0l7,0l7,0l4,0l2,0l2,2l2,1l1,2l1,3l1,2l0,1l0,1l0,2l0,6l0,9l0,9l0,9l1,9l0,5l0,3l-37,33l-36,62l-1,10l-9,8l2,4l1,4l0,2l0,3l0,2l-1,2l-2,1l-2,1l-4,1l-4,1l-4,-1l-4,-1l-2,0l-6,-2l-9,-3l-11,-4l-11,-4l-10,-3l-9,-4l-5,-2l-2,-1l0,-2l0,-3l1,-3l4,-8l5,-8l6,-8l5,-7l3,-4l2,-2l3,-4l8,-10l13,-14l14,-17l14,-17l12,-15l9,-11l5,-5l1,-2l1,-3l1,-3l1,-3l0,-3l1,-2l0,-2l1,0l0,-17z"/>
  <path id="svg_43" fill="#4a4a4a" d="m598,255l2,0l4,0l6,0l8,0l7,0l8,0l6,0l4,0l2,0l2,2l1,2l2,2l0,2l1,2l0,2l0,1l0,2l0,6l0,8l0,9l0,9l0,7l0,6l0,2l-40,38l-34,59l0,10l-9,8l1,4l1,3l1,3l0,2l-2,3l-3,3l-4,1l-5,0l-4,0l-3,-1l-2,-1l-6,-2l-9,-3l-10,-3l-10,-4l-10,-3l-8,-3l-5,-2l-1,-1l0,-3l0,-2l2,-4l4,-8l6,-9l6,-9l6,-8l4,-5l2,-2l3,-4l8,-10l11,-13l13,-16l14,-16l12,-14l8,-11l4,-5l1,-2l1,-2l1,-3l1,-3l1,-3l1,-2l0,-2l0,-1l0,-16z"/>
  <path id="svg_44" fill="#525252" d="m598,255l2,0l4,0l6,0l7,0l8,0l7,0l5,0l4,0l2,1l2,1l2,2l1,2l1,2l0,2l0,2l0,1l0,3l0,5l0,8l0,8l0,9l0,7l0,6l0,2l-43,42l-32,56l0,10l-9,8l2,7l0,4l-2,3l-3,3l-4,1l-4,0l-4,0l-3,-1l-2,-1l-6,-2l-8,-3l-9,-3l-10,-3l-9,-4l-8,-2l-5,-2l-1,-2l0,-2l1,-3l2,-4l5,-9l6,-10l7,-10l7,-8l4,-6l2,-3l3,-3l8,-9l10,-13l13,-15l13,-15l11,-14l8,-10l4,-5l1,-2l1,-2l1,-3l1,-3l0,-3l1,-2l0,-1l0,-1l0,-16z"/>
  <path id="svg_45" fill="#595959" d="m599,255l1,0l4,0l6,0l7,0l7,0l7,0l5,1l4,0l2,0l2,1l1,2l1,2l1,3l0,2l0,2l0,1l0,2l0,5l0,8l0,8l0,8l0,7l0,5l0,2l-47,47l-30,54l1,9l-10,8l3,6l0,5l-2,3l-3,1l-4,1l-4,1l-4,-1l-4,-1l-1,0l-6,-2l-7,-3l-9,-3l-9,-3l-9,-3l-7,-3l-5,-2l-1,-1l1,-2l1,-4l2,-4l6,-10l7,-10l8,-11l7,-9l5,-7l2,-2l3,-4l7,-8l10,-13l12,-14l12,-15l10,-12l8,-10l4,-5l1,-1l1,-3l0,-2l1,-3l1,-3l0,-2l1,-2l0,0l0,-16z"/>
  <path id="svg_46" fill="#616161" d="m599,255l2,0l4,0l5,0l7,1l6,0l7,0l5,0l3,0l2,0l2,2l1,2l1,2l1,2l0,2l1,2l0,1l-1,3l0,5l0,7l0,8l0,7l0,7l0,5l0,2l-50,51l-28,51l1,9l-10,8l2,6l0,4l-2,2l-3,2l-4,1l-4,0l-4,0l-3,-1l-1,-1l-5,-1l-7,-3l-9,-3l-8,-3l-8,-3l-7,-2l-4,-2l-1,-1l0,-3l2,-3l2,-5l7,-10l8,-12l8,-12l8,-10l5,-7l2,-2l3,-4l7,-8l9,-12l12,-13l11,-14l10,-12l7,-9l4,-4l0,-2l1,-2l1,-3l1,-3l0,-3l1,-2l0,-1l0,-1l0,-15z"/>
  <path id="svg_47" fill="#696969" d="m600,256l1,0l4,0l5,0l6,0l6,0l6,0l5,0l4,0l1,1l2,1l1,2l1,2l1,3l0,2l1,2l-1,1l0,2l0,5l0,7l0,7l0,8l0,6l0,4l0,2l-54,57l-26,47l2,10l-10,7l2,5l-1,4l-1,2l-4,2l-3,1l-4,0l-4,-1l-3,0l-1,-1l-5,-1l-6,-3l-8,-3l-8,-2l-8,-3l-6,-3l-4,-1l-1,-2l1,-2l2,-4l2,-5l7,-11l9,-13l10,-12l8,-11l6,-8l2,-3l3,-2l6,-8l9,-11l11,-13l10,-13l9,-12l7,-8l3,-4l1,-2l1,-2l1,-3l0,-2l1,-3l0,-2l1,-2l0,0l0,-14z"/>
  <path id="svg_48" fill="#707070" d="m600,256l2,0l3,0l5,0l6,0l6,0l6,0l4,0l3,0l2,1l1,1l2,2l0,3l1,2l1,2l0,2l0,2l-1,2l0,4l0,7l0,7l0,7l0,6l-1,4l0,2l-56,61l-25,45l3,9l-11,7l2,5l0,3l-2,2l-3,2l-4,0l-4,1l-3,-1l-3,0l-1,-1l-5,-2l-6,-2l-7,-2l-7,-3l-8,-3l-5,-2l-4,-2l-1,-1l1,-3l2,-4l3,-5l8,-12l10,-13l10,-13l9,-12l6,-8l3,-3l2,-3l6,-7l8,-11l10,-12l10,-12l9,-11l6,-8l3,-4l1,-2l1,-2l0,-2l1,-3l0,-2l1,-2l0,-2l0,0l0,-14z"/>
  <path id="svg_49" fill="#787878" d="m601,256l1,0l3,0l5,0l5,0l6,0l5,0l5,0l3,0l1,1l2,1l1,2l1,3l0,2l1,3l0,2l0,1l0,2l-1,5l0,6l0,6l0,7l-1,6l0,4l0,1l-60,66l-22,42l3,9l-11,7l2,4l-1,3l-2,2l-3,2l-3,0l-4,0l-3,0l-3,-1l-1,0l-4,-2l-6,-2l-7,-2l-6,-3l-7,-2l-5,-2l-4,-2l0,-1l1,-3l2,-4l3,-5l9,-13l11,-15l10,-14l10,-12l7,-9l2,-3l3,-3l5,-7l8,-10l9,-11l9,-12l8,-10l6,-7l3,-4l1,-1l0,-2l1,-3l0,-2l1,-3l0,-2l0,-1l1,-1l0,-13z"/>
  <path id="svg_50" fill="#7f7f7f" d="m601,256l1,0l3,0l5,0l5,0l6,1l5,0l4,0l2,0l2,0l1,2l1,2l1,2l0,3l1,2l0,2l0,2l0,2l-1,4l0,6l0,6l0,6l-1,5l0,4l0,2l-63,70l-21,39l4,9l-11,7l1,4l0,2l-2,2l-3,1l-4,1l-3,0l-4,-1l-2,0l-1,-1l-4,-1l-5,-2l-6,-2l-7,-3l-5,-2l-5,-2l-3,-1l-1,-2l2,-3l2,-4l4,-5l9,-14l11,-15l12,-15l10,-14l7,-9l3,-4l2,-2l5,-6l7,-10l9,-10l8,-11l8,-9l5,-8l3,-3l0,-1l1,-2l0,-2l1,-3l0,-2l1,-2l0,-1l0,-1l0,-13z"/>
  <path id="svg_51" fill="#878787" d="m601,256l2,0l2,1l5,0l5,0l5,0l5,0l3,0l3,0l1,1l1,1l1,2l1,3l1,2l0,3l0,2l0,1l0,2l-1,5l0,5l0,6l0,5l-1,5l0,4l0,1l-67,75l-18,36l4,9l-11,7l1,3l-1,3l-2,1l-3,1l-3,1l-4,0l-3,-1l-2,0l-1,-1l-4,-1l-4,-2l-6,-2l-6,-2l-5,-3l-5,-1l-2,-2l1,-4l7,-10l10,-15l12,-16l12,-16l11,-14l8,-10l3,-3l2,-3l4,-6l7,-8l8,-10l7,-10l7,-9l5,-7l2,-2l1,-2l1,-2l0,-2l0,-2l1,-3l0,-1l0,-2l0,0l0,-13z"/>
  <path id="svg_52" fill="#8f8f8f" d="m602,257l1,0l3,0l4,0l4,0l5,0l5,0l3,0l2,0l2,1l1,1l0,3l1,2l1,3l0,2l0,2l0,2l0,2l-1,4l0,5l0,5l-1,6l0,4l0,3l0,2l-71,79l-16,34l5,9l-12,6l1,3l0,2l-3,1l-2,1l-4,0l-3,0l-3,0l-2,-1l-1,0l-3,-1l-4,-2l-5,-2l-6,-2l-5,-2l-4,-2l-2,-1l2,-4l7,-11l11,-15l13,-17l13,-17l11,-15l8,-10l3,-4l2,-3l4,-5l6,-8l7,-9l7,-9l6,-9l5,-6l2,-2l1,-2l0,-1l1,-2l0,-3l0,-2l1,-2l0,-1l0,-1l0,-11z"/>
  <path id="svg_53" fill="#969696" d="m602,257l1,0l3,0l4,0l4,0l4,0l5,0l3,1l2,0l1,0l1,2l1,2l0,2l1,3l0,3l0,2l0,2l0,2l-1,3l0,5l0,5l-1,5l0,4l0,3l0,1l-74,84l-14,31l5,9l-12,6l1,2l-1,2l-2,1l-3,1l-3,0l-4,0l-3,-1l-1,0l-1,0l-3,-1l-4,-2l-4,-2l-5,-2l-4,-2l-4,-1l-2,-1l2,-5l8,-11l12,-16l13,-18l14,-18l12,-15l9,-11l3,-5l2,-1l3,-6l6,-7l6,-8l6,-9l6,-7l4,-6l2,-2l0,-1l1,-2l0,-2l1,-2l0,-2l0,-2l0,-1l0,-1l0,-11z"/>
  <path id="svg_54" fill="#9e9e9e" d="m603,257l1,0l2,0l3,0l5,0l4,1l4,0l3,0l1,0l1,0l1,2l1,2l0,3l1,3l0,2l0,3l0,1l0,2l-1,4l0,4l0,5l-1,4l0,4l0,3l0,1l-77,89l-13,27l6,9l-12,6l0,2l-1,1l-2,1l-3,1l-3,0l-3,0l-3,-1l-1,0l-1,-1l-3,-1l-3,-1l-4,-2l-4,-2l-4,-1l-3,-2l-2,0l3,-5l8,-12l13,-17l14,-18l15,-19l12,-16l9,-12l4,-4l1,-2l4,-5l4,-6l6,-8l5,-8l5,-7l4,-5l2,-2l0,-1l0,-2l1,-2l0,-2l0,-2l0,-2l1,-1l0,0l0,-11z"/>
  <path id="svg_55" fill="#a6a6a6" d="m603,257l1,0l2,0l3,1l4,0l4,0l4,0l2,0l2,0l1,1l0,1l1,2l1,3l0,3l0,3l0,2l0,2l0,2l-1,3l0,4l0,4l-1,4l0,4l0,2l-1,1l-80,94l-11,24l8,9l-14,6l1,1l-1,2l-2,0l-3,0l-4,0l-3,0l-2,0l-2,0l0,-1l-2,-1l-3,-1l-4,-2l-3,-1l-3,-2l-3,-1l-2,-1l3,-5l9,-12l13,-17l15,-20l16,-20l13,-17l10,-12l3,-4l2,-2l3,-4l4,-6l5,-7l4,-7l5,-6l3,-5l1,-2l1,-1l0,-1l0,-2l1,-2l0,-2l0,-2l0,-1l0,0l0,-11z"/>
  <path id="svg_56" fill="#adadad" d="m604,257l0,0l2,0l3,1l4,0l3,0l4,0l2,0l1,0l1,1l1,1l0,3l1,3l0,3l1,2l0,3l-1,2l0,1l-1,3l0,4l-1,4l0,3l-1,4l0,2l0,1l-83,98l-9,21l8,9l-14,6l1,1l-2,1l-2,0l-3,0l-3,0l-3,0l-2,-1l-2,0l0,0l-2,-1l-2,-1l-3,-2l-3,-1l-3,-1l-2,-1l-1,-1l3,-5l9,-13l14,-18l16,-21l16,-20l14,-18l10,-13l4,-4l1,-2l3,-4l3,-5l4,-6l5,-6l3,-6l3,-4l1,-2l0,-1l1,-1l0,-2l0,-2l0,-2l0,-1l0,-1l1,-1l0,-10z"/>
  <path id="svg_57" fill="#b5b5b5" d="m604,258l1,0l1,0l3,0l3,0l4,0l3,0l2,0l1,1l1,0l0,2l1,2l0,3l0,3l1,3l0,2l0,2l-1,2l0,3l-1,3l-1,3l0,4l-1,2l0,2l0,1l-87,103l-7,19l9,8l-14,5l0,1l-1,1l-3,0l-3,0l-3,0l-3,0l-2,-1l-1,0l-1,0l-1,-1l-2,-1l-2,-1l-2,-2l-2,-1l-2,-1l-1,0l3,-6l10,-13l15,-19l17,-21l17,-21l14,-19l11,-13l4,-5l1,-2l2,-3l3,-5l3,-5l4,-6l3,-4l2,-4l1,-2l0,0l0,-1l0,-2l0,-2l1,-2l0,-2l0,-1l0,0l0,-9z"/>
  <path id="svg_58" fill="#bdbdbd" d="m604,258l1,0l2,0l2,0l3,0l3,1l3,0l2,0l1,0l0,0l0,2l1,2l0,3l0,3l1,3l0,3l-1,2l0,2l-1,2l0,3l-1,3l0,3l-1,2l0,2l0,1l-91,107l-4,16l9,8l-14,5l0,1l-2,0l-2,0l-3,0l-3,0l-3,-1l-2,0l-1,0l0,-1l-1,0l-2,-1l-2,-1l-1,-1l-2,-1l-1,-1l-1,-1l4,-5l11,-14l15,-19l17,-23l18,-22l15,-19l11,-14l5,-5l0,-1l2,-3l2,-4l3,-5l3,-5l2,-4l2,-3l1,-1l0,-1l0,-1l0,-2l0,-2l0,-1l0,-2l0,-1l0,0l0,-9z"/>
  <path id="svg_59" fill="#c4c4c4" d="m605,258l0,0l2,0l2,0l3,1l2,0l3,0l1,0l1,0l0,1l1,1l0,3l0,3l1,3l0,3l0,3l0,1l-1,2l0,2l-1,3l-1,3l0,2l-1,2l0,1l0,1l-94,112l-3,13l10,9l-14,4l-1,1l-2,0l-2,-1l-3,0l-3,-1l-2,0l-2,-1l-1,0l0,0l-1,-1l-1,0l-1,-1l-1,-1l-1,-1l-1,-1l-1,0l4,-5l12,-15l16,-20l18,-23l18,-24l16,-20l12,-14l4,-5l0,-1l2,-3l2,-3l2,-4l2,-4l2,-4l1,-2l0,-1l0,-1l0,-1l1,-1l0,-2l0,-2l0,-1l0,-1l0,-1l0,-8z"/>
  <path id="svg_60" fill="#ccc" d="m605,258l0,17l-7,18l-104,131l3,4l15,3l15,-4l-11,-8l2,-11l97,-116l0,-1l0,-1l1,-2l0,-2l1,-2l1,-2l0,-2l1,-2l0,-2l0,-3l0,-3l0,-3l-1,-3l0,-2l0,-2l0,-1l-13,-1z"/>
  <path id="svg_61" stroke="#000" d="m669,329l-2,-67l-1,0l0,-1l-1,-2l-1,-1l-1,-2l-3,-1l-2,-1l-4,-1l-6,0l-8,0l-9,0l-10,0l-10,0l-8,0l-6,0l-2,0l0,21l-1,2l-1,3l-1,3l-1,4l-1,4l-2,3l-2,3l-5,7l-13,14l-17,20l-19,22l-19,22l-16,18l-12,14l-4,4l0,1l-1,1l0,1l0,2l0,2l1,2l3,3l4,2l8,3l12,4l14,5l15,5l14,5l12,4l9,2l3,1l5,2l5,0l5,-1l5,-2l2,-1l1,-2l1,-3l0,-3l0,-3l-1,-4l-2,-5l-2,-5l6,-10l6,-11l49,-82l14,-1"/>
  <path id="svg_62" stroke="#000" d="m633,337l2,-4l1,-4l-1,-3l-2,-3l-3,-3l-3,-3l-4,-2l-5,-1l-9,-2l-10,-1l-4,1l-4,1l-3,2l-3,2l-6,7l-9,11l-10,13l-12,14l-11,13l-9,12l-7,8l-2,3l-1,0l-2,3l-2,3l-1,4l0,5l2,5l2,2l2,2l4,3l4,2l9,4l8,3l6,2l6,2l4,1l2,1l2,0l1,1l0,-1l2,-1l2,-1l3,-3l4,-3l4,-3l4,-5l3,-5l5,-8l7,-12l7,-13l8,-14l7,-13l6,-11l5,-8l1,-3"/>
  <path id="svg_63" fill="#666" d="m528,115l31,0l6,-25l1,0l2,0l3,0l4,0l3,0l4,0l3,0l1,0l2,-1l1,-1l2,-2l3,-3l2,-4l4,-7l4,-8l4,-10l14,-34l0,-1l0,-2l2,-3l2,-4l4,-3l6,-3l8,-2l10,-1l3,0l4,0l3,0l4,0l3,-1l2,0l2,1l2,0l12,2l30,4l42,5l47,6l48,6l41,5l30,4l11,1l1,1l3,1l5,3l5,3l5,5l5,7l2,3l1,4l1,5l1,5l0,14l0,19l0,23l0,24l0,23l0,19l0,13l0,5l0,1l0,1l0,1l-1,2l0,2l-2,1l-2,1l-2,1l-4,0l-3,0l-4,0l-3,1l-3,1l-2,2l-2,2l0,3l0,9l0,10l0,10l0,9l0,9l0,6l0,5l0,1l-1,1l0,0l0,2l0,1l1,2l1,1l1,2l2,1l2,1l1,2l1,1l0,1l-1,0l-1,1l-1,1l-1,0l-7,2l-16,2l-22,4l-26,5l-26,4l-24,4l-17,2l-9,1l-6,0l-8,-4l-85,0l0,0l0,1l-1,2l-1,1l-1,2l-2,1l-3,1l-4,0l-3,0l-4,1l-2,0l-3,0l-2,0l-1,0l-1,0l0,0l0,-67l0,-1l0,-2l0,-2l-1,-2l-3,-3l-3,-2l-6,-1l-8,-1l-9,0l-9,0l-9,0l-9,0l-7,-1l-5,0l-4,0l-1,0l-1,-1l-2,-3l-3,-5l-5,-5l-7,-5l-10,-5l-5,-1l-7,-2l-7,0l-8,0l-13,0l-7,1l-2,-1l1,0l3,0l3,-1l4,0l1,0l-2,-110z"/>
  <path id="svg_64" stroke="#000" d="m528,115l31,0l6,-25l1,0l2,0l3,0l4,0l3,0l4,0l3,0l1,0l2,-1l1,-1l2,-2l3,-3l2,-4l4,-7l4,-8l4,-10l14,-34l0,-1l0,-2l2,-3l2,-4l4,-3l6,-3l8,-2l10,-1l3,0l4,0l3,0l4,0l3,-1l2,0l2,1l2,0l12,2l30,4l42,5l47,6l48,6l41,5l30,4l11,1l1,1l3,1l5,3l5,3l5,5l5,7l2,3l1,4l1,5l1,5l0,14l0,19l0,23l0,24l0,23l0,19l0,13l0,5l0,1l0,1l0,1l-1,2l0,2l-2,1l-2,1l-2,1l-4,0l-3,0l-4,0l-3,1l-3,1l-2,2l-2,2l0,3l0,9l0,10l0,10l0,9l0,9l0,6l0,5l0,1l-1,1l0,2l0,1l1,2l1,1l1,2l2,1l2,1l1,2l1,1l0,1l-1,0l-1,1l-1,1l-1,0l-7,2l-16,2l-22,4l-26,5l-26,4l-24,4l-17,2l-9,1l-6,0l-8,-4l-85,0l0,1l-1,2l-1,1l-1,2l-2,1l-3,1l-4,0l-3,0l-4,1l-2,0l-3,0l-2,0l-1,0l-1,0l0,-67l0,-1l0,-2l0,-2l-1,-2l-3,-3l-3,-2l-6,-1l-8,-1l-9,0l-9,0l-9,0l-9,0l-7,-1l-5,0l-4,0l-1,0l-1,-1l-2,-3l-3,-5l-5,-5l-7,-5l-10,-5l-5,-1l-7,-2l-7,0l-8,0l-13,0l-7,1l-2,-1l1,0l3,0l3,-1l4,0l1,0l-2,-110"/>
  <path id="svg_65" fill="#fff" d="m763,265l7,0l6,2l5,2l4,4l2,4l2,5l1,4l0,6l0,5l-2,4l-2,5l-2,4l-4,4l-3,2l-5,2l-4,1l-10,0l-8,0l-8,0l-8,0l-8,0l-7,0l-8,0l-8,0l-4,-1l-3,-2l-4,-3l-3,-3l-2,-5l-2,-4l-2,-5l0,-6l-1,-5l1,-5l1,-5l2,-4l3,-3l4,-3l5,-2l6,-1l1,0l1,0l1,0l1,0l1,0l0,0l0,0l0,0l0,1l-1,2l-2,2l-2,3l-1,4l-2,4l-1,4l0,3l0,4l1,3l1,2l1,3l1,3l2,3l3,3l3,3l3,-2l-1,-2l-1,-5l-2,-7l0,-8l0,-4l1,-4l1,-4l2,-3l2,-3l4,-2l5,-1l5,-1l10,0l8,0l5,1l4,0l3,0l1,0l1,0l0,1z"/>
  <path id="svg_66" stroke="#000" d="m763,265l7,0l6,2l5,2l4,4l2,4l2,5l1,4l0,6l0,5l-2,4l-2,5l-2,4l-4,4l-3,2l-5,2l-4,1l-10,0l-8,0l-8,0l-8,0l-8,0l-7,0l-8,0l-8,0l-4,-1l-3,-2l-4,-3l-3,-3l-2,-5l-2,-4l-2,-5l0,-6l-1,-5l1,-5l1,-5l2,-4l3,-3l4,-3l5,-2l6,-1l1,0l1,0l1,0l1,0l1,0l0,1l-1,2l-2,2l-2,3l-1,4l-2,4l-1,4l0,3l0,4l1,3l1,2l1,3l1,3l2,3l3,3l3,3l3,-2l-1,-2l-1,-5l-2,-7l0,-8l0,-4l1,-4l1,-4l2,-3l2,-3l4,-2l5,-1l5,-1l10,0l8,0l5,1l4,0l3,0l1,0l1,0l0,1"/>
  <path id="svg_67" fill="#e5e5e5" d="m798,330l0,6l0,15l1,24l3,30l2,17l2,18l3,19l4,19l5,19l6,19l6,19l8,19l130,-31l0,0l1,-1l1,-1l0,-1l1,-2l0,-1l0,-2l-1,-3l-3,-7l-5,-15l-6,-23l-6,-27l-7,-32l-5,-33l-2,-17l-2,-17l-1,-17l0,-16l-135,22z"/>
  <path id="svg_68" stroke="#000" d="m798,330l0,6l0,15l1,24l3,30l2,17l2,18l3,19l4,19l5,19l6,19l6,19l8,19l130,-31l1,-1l1,-1l0,-1l1,-2l0,-1l0,-2l-1,-3l-3,-7l-5,-15l-6,-23l-6,-27l-7,-32l-5,-33l-2,-17l-2,-17l-1,-17l0,-16l-135,22"/>
  <path id="svg_69" fill="#fff" d="m928,42l7,1l5,2l5,3l3,3l3,5l2,4l2,5l0,5l0,6l-2,5l-2,4l-2,4l-4,4l-4,2l-6,2l-6,1l-17,0l-28,-1l-35,0l-38,0l-37,-1l-31,0l-21,0l-9,0l0,0l-3,-1l-3,-1l-3,-1l-4,-3l-3,-3l-2,-4l0,-6l0,-4l1,-2l0,-3l1,-2l1,-1l1,-1l1,-1l1,-2l2,-1l1,-2l2,-3l2,-2l2,-3l2,-2l1,-1l0,0l1,-1l1,-1l2,-1l4,-2l4,-2l6,-1l7,-1l8,-1l15,1l23,0l30,1l32,1l31,1l26,0l18,1l7,0z"/>
  <path id="svg_70" stroke="#000" d="m928,42l7,1l5,2l5,3l3,3l3,5l2,4l2,5l0,5l0,6l-2,5l-2,4l-2,4l-4,4l-4,2l-6,2l-6,1l-17,0l-28,-1l-35,0l-38,0l-37,-1l-31,0l-21,0l-9,0l-3,-1l-3,-1l-3,-1l-4,-3l-3,-3l-2,-4l0,-6l0,-4l1,-2l0,-3l1,-2l1,-1l1,-1l1,-1l1,-2l2,-1l1,-2l2,-3l2,-2l2,-3l2,-2l1,-1l1,-1l1,-1l2,-1l4,-2l4,-2l6,-1l7,-1l8,-1l15,1l23,0l30,1l32,1l31,1l26,0l18,1l7,0"/>
  <path id="svg_71" fill="#666" d="m655,58l5,0l5,-2l4,-2l4,-4l4,-3l2,-5l2,-5l0,-5l0,-6l-2,-5l-2,-4l-4,-4l-4,-3l-4,-3l-5,-1l-5,-1l-6,1l-5,1l-4,3l-4,3l-3,4l-3,4l-1,5l-1,6l1,5l1,5l3,5l3,3l4,4l4,2l5,2l6,0z"/>
  <path id="svg_72" stroke="#000" d="m655,58l5,0l5,-2l4,-2l4,-4l4,-3l2,-5l2,-5l0,-5l0,-6l-2,-5l-2,-4l-4,-4l-4,-3l-4,-3l-5,-1l-5,-1l-6,1l-5,1l-4,3l-4,3l-3,4l-3,4l-1,5l-1,6l1,5l1,5l3,5l3,3l4,4l4,2l5,2l6,0"/>
  <path id="svg_73" fill="#b2b2b2" d="m655,41l2,0l1,0l2,-1l2,-1l1,-2l1,-1l0,-2l0,-2l0,-2l0,-2l-1,-2l-1,-1l-2,-1l-2,-1l-1,-1l-2,0l-2,0l-2,1l-2,1l-1,1l-1,1l-1,2l-1,2l0,2l0,2l1,2l1,1l1,2l1,1l2,1l2,0l2,0z"/>
  <path id="svg_74" stroke="#000" d="m655,41l2,0l1,0l2,-1l2,-1l1,-2l1,-1l0,-2l0,-2l0,-2l0,-2l-1,-2l-1,-1l-2,-1l-2,-1l-1,-1l-2,0l-2,0l-2,1l-2,1l-1,1l-1,1l-1,2l-1,2l0,2l0,2l1,2l1,1l1,2l1,1l2,1l2,0l2,0"/>
  <path id="svg_75" fill="#666" d="m646,22l1,0l1,0l0,-1l1,0l0,-1l0,0l1,-1l0,-1l0,-1l-1,0l0,-1l0,0l-1,-1l0,0l-1,-1l-1,0l-1,0l0,1l-1,0l-1,1l0,0l0,1l-1,0l0,1l0,1l1,1l0,0l0,1l1,0l1,1l0,0l1,0z"/>
  <path id="svg_76" stroke="#000" d="m646,22l1,0l1,0l0,-1l1,0l0,-1l1,-1l0,-1l0,-1l-1,0l0,-1l-1,-1l-1,-1l-1,0l-1,0l0,1l-1,0l-1,1l0,1l-1,0l0,1l0,1l1,1l0,1l1,0l1,1l1,0"/>
  <path id="svg_77" fill="#666" d="m665,49l1,0l1,0l0,0l1,-1l0,0l1,-1l0,-1l0,0l0,-1l0,-1l-1,-1l0,0l-1,-1l0,0l-1,0l-1,0l-1,0l0,0l-1,0l-1,1l0,0l-1,1l0,1l0,1l0,0l0,1l1,1l0,0l1,1l1,0l0,0l1,0z"/>
  <path id="svg_78" stroke="#000" d="m665,49l1,0l1,0l1,-1l1,-1l0,-1l0,-1l0,-1l-1,-1l-1,-1l-1,0l-1,0l-1,0l-1,0l-1,1l-1,1l0,1l0,1l0,1l1,1l1,1l1,0l1,0"/>
  <path id="svg_79" fill="#666" d="m661,21l1,0l1,-1l1,0l0,0l1,-1l0,-1l0,0l0,-1l0,-1l0,0l0,-1l-1,-1l0,0l-1,-1l-1,0l-1,0l0,0l-1,0l-1,1l0,0l-1,1l0,1l0,0l0,1l0,1l0,0l0,1l1,1l0,0l1,0l1,1l0,0z"/>
  <path id="svg_80" stroke="#000" d="m661,21l1,0l1,-1l1,0l1,-1l0,-1l0,-1l0,-1l0,-1l-1,-1l-1,-1l-1,0l-1,0l-1,0l-1,1l-1,1l0,1l0,1l0,1l0,1l1,1l1,0l1,1"/>
  <path id="svg_81" fill="#666" d="m670,34l1,0l1,0l0,0l1,-1l0,0l1,-1l0,-1l0,0l0,-1l0,-1l-1,-1l0,0l-1,0l0,-1l-1,0l-1,0l-1,0l0,0l-1,1l0,0l-1,0l0,1l0,1l0,1l0,0l0,1l0,1l1,0l0,1l1,0l0,0l1,0z"/>
  <path id="svg_82" stroke="#000" d="m670,34l1,0l1,0l1,-1l1,-1l0,-1l0,-1l0,-1l-1,-1l-1,0l0,-1l-1,0l-1,0l-1,0l-1,1l-1,0l0,1l0,1l0,1l0,1l0,1l1,0l0,1l1,0l1,0"/>
  <path id="svg_83" fill="#666" d="m639,36l0,0l1,0l1,0l0,-1l1,0l0,-1l0,-1l1,-1l-1,0l0,-1l0,-1l-1,0l0,-1l-1,0l-1,0l0,-1l-1,1l-1,0l0,0l-1,1l0,0l-1,1l0,1l0,0l0,1l0,1l1,1l0,0l1,1l0,0l1,0l1,0z"/>
  <path id="svg_84" stroke="#000" d="m639,36l1,0l1,0l0,-1l1,0l0,-1l0,-1l1,-1l-1,0l0,-1l0,-1l-1,0l0,-1l-1,0l-1,0l0,-1l-1,1l-1,0l-1,1l-1,1l0,1l0,1l0,1l1,1l1,1l1,0l1,0"/>
  <path id="svg_85" fill="#666" d="m647,50l1,0l0,-1l1,0l0,0l1,-1l0,0l0,-1l0,-1l0,-1l0,0l0,-1l-1,-1l0,0l-1,0l0,-1l-1,0l-1,0l-1,1l0,0l-1,0l0,1l-1,1l0,0l0,1l0,1l0,1l1,0l0,1l1,0l0,0l1,1l1,0z"/>
  <path id="svg_86" stroke="#000" d="m647,50l1,0l0,-1l1,0l1,-1l0,-1l0,-1l0,-1l0,-1l-1,-1l-1,0l0,-1l-1,0l-1,0l-1,1l-1,0l0,1l-1,1l0,1l0,1l0,1l1,0l0,1l1,0l1,1l1,0"/>
  <path id="svg_87" stroke="#000" d="m653,144l-75,0l1,0l1,0l2,1l1,1l1,3l1,4l0,6l0,4l0,3l-1,2l0,1l-1,2l-1,0l-2,1l-1,0l74,0"/>
  <path id="svg_88" fill="#b2b2b2" d="m577,148l-21,0l-2,-1l-2,-1l-2,0l-2,1l-2,1l-1,1l0,2l-1,2l0,3l0,4l0,5l0,5l0,4l0,5l0,3l0,3l1,5l2,3l3,2l4,1l3,-1l3,-2l3,-3l1,-5l0,-5l0,-4l0,-2l1,-3l0,-1l0,-1l0,-1l0,0l13,0l1,-3l1,-3l0,-3l0,-2l-1,-3l0,-2l-1,-2l-1,-2z"/>
  <path id="svg_89" stroke="#000" d="m577,148l-21,0l-2,-1l-2,-1l-2,0l-2,1l-2,1l-1,1l0,2l-1,2l0,3l0,4l0,5l0,5l0,4l0,5l0,3l0,3l1,5l2,3l3,2l4,1l3,-1l3,-2l3,-3l1,-5l0,-5l0,-4l0,-2l1,-3l0,-1l0,-1l0,-1l13,0l1,-3l1,-3l0,-3l0,-2l-1,-3l0,-2l-1,-2l-1,-2"/>
  <path id="svg_90" fill="#e5e5e5" d="m544,153l1,-3l1,-2l3,-2l2,0l2,0l3,2l1,2l1,3l0,6l0,4l0,5l-1,3l0,4l0,4l0,3l0,4l0,4l-2,3l-2,2l-2,0l-2,0l-2,-2l-2,-3l-1,-5l0,-6l0,-6l0,-5l0,-5l0,-4l0,-3l0,-2l0,-1z"/>
  <path id="svg_91" stroke="#000" d="m544,153l1,-3l1,-2l3,-2l2,0l2,0l3,2l1,2l1,3l0,6l0,4l0,5l-1,3l0,4l0,4l0,3l0,4l0,4l-2,3l-2,2l-2,0l-2,0l-2,-2l-2,-3l-1,-5l0,-6l0,-6l0,-5l0,-5l0,-4l0,-3l0,-2l0,-1"/>
  <path id="svg_92" stroke="#000" d="m564,173l0,-3l1,-3l0,-3l0,-3l0,-3l0,-2l0,-2l-1,-1"/>
  <path id="svg_93" stroke="#000" d="m578,144l-1,0l-1,0l-1,1l-2,1l0,1l-1,1"/>
  <path id="svg_94" stroke="#000" d="m577,173l-4,-1l-1,-3l0,1l1,1l1,1l1,0l1,0l1,0l1,0"/>
  <path id="svg_95" stroke="#000" d="m567,117l32,0l0,-21l-27,0l0,21l2,0l0,2l-4,0l0,2l18,0l0,-2l-4,0l0,-2l-10,0"/>
  <path id="svg_96" stroke="#000" d="m586,96l0,21"/>
  <path id="svg_97" stroke="#000" d="m573,96l0,-4l12,0l0,4l-12,0"/>
  <path id="svg_98" stroke="#000" d="m764,135l0,47l202,0l0,-5l-197,0l0,-42l-5,0"/>
  <path id="svg_99" fill="#b2b2b2" d="m769,183l0,29l0,1l0,1l1,1l1,2l1,2l2,1l3,2l3,0l9,0l18,0l24,0l26,0l26,0l22,0l15,0l6,0l1,0l1,-1l1,-1l2,-1l2,-2l2,-2l1,-3l0,-4l0,-4l0,-4l0,-4l0,-4l0,-3l0,-3l0,-2l0,-1l-10,0l0,23l0,0l0,1l0,1l0,2l-1,1l-1,2l-1,1l-2,0l-3,1l-5,0l-7,0l-6,0l-7,0l-5,0l-4,-1l-2,0l0,0l-1,0l-1,-1l-1,-1l-1,-1l-1,-1l-1,-2l0,-3l0,-2l0,-4l0,-3l0,-4l0,-4l0,-3l0,-2l0,-1l-47,0l0,22l0,1l0,1l-1,1l0,2l-1,2l-1,1l-2,1l-1,1l-3,0l-4,0l-6,0l-6,0l-6,0l-6,0l-3,0l-1,0l-1,-1l-1,0l-1,-1l-2,-1l-2,-1l-1,-1l-1,-2l-1,-2l0,-2l0,-3l0,-4l0,-4l0,-3l0,-3l0,-2l0,-1l-9,0z"/>
  <path id="svg_100" stroke="#000" d="m769,183l0,29l0,1l0,1l1,1l1,2l1,2l2,1l3,2l3,0l9,0l18,0l24,0l26,0l26,0l22,0l15,0l6,0l1,0l1,-1l1,-1l2,-1l2,-2l2,-2l1,-3l0,-4l0,-4l0,-4l0,-4l0,-4l0,-3l0,-3l0,-2l0,-1l-10,0l0,23l0,1l0,1l0,2l-1,1l-1,2l-1,1l-2,0l-3,1l-5,0l-7,0l-6,0l-7,0l-5,0l-4,-1l-2,0l-1,0l-1,-1l-1,-1l-1,-1l-1,-1l-1,-2l0,-3l0,-2l0,-4l0,-3l0,-4l0,-4l0,-3l0,-2l0,-1l-47,0l0,22l0,1l0,1l-1,1l0,2l-1,2l-1,1l-2,1l-1,1l-3,0l-4,0l-6,0l-6,0l-6,0l-6,0l-3,0l-1,0l-1,-1l-1,0l-1,-1l-2,-1l-2,-1l-1,-1l-1,-2l-1,-2l0,-2l0,-3l0,-4l0,-4l0,-3l0,-3l0,-2l0,-1l-9,0"/>
  <path id="svg_101" fill="#b2b2b2" d="m847,197l1,-3l1,-2l3,-1l2,-1l3,1l2,1l2,2l0,3l0,3l0,2l0,2l0,2l0,2l0,1l0,2l0,3l0,3l-2,2l-2,2l-3,0l-2,0l-3,-2l-1,-3l-1,-4l0,-2l0,-2l0,-3l0,-2l0,-3l0,-2l0,-1l0,0z"/>
  <path id="svg_102" stroke="#000" d="m847,197l1,-3l1,-2l3,-1l2,-1l3,1l2,1l2,2l0,3l0,3l0,2l0,2l0,2l0,2l0,1l0,2l0,3l0,3l-2,2l-2,2l-3,0l-2,0l-3,-2l-1,-3l-1,-4l0,-2l0,-2l0,-3l0,-2l0,-3l0,-2l0,-1"/>
  <path id="svg_103" fill="#0d0d0d" d="m743,38l-2,0l-5,0l-6,0l-8,0l-8,0l-7,0l-5,0l-2,0l-3,0l-3,0l-3,1l-2,0l-3,1l-2,2l-2,1l-1,2l-1,0l-1,2l-1,2l-3,3l-3,3l-4,2l-6,2l-6,0l-4,0l-3,0l-4,0l-3,0l-3,0l-3,0l-3,0l-3,0l-3,0l-4,1l-2,0l-3,1l-2,1l-2,1l-1,1l-2,0l-1,1l-1,2l-1,2l-1,2l-1,3l-1,2l-1,3l-1,2l0,1l1,0l1,-1l3,-2l3,-2l3,-3l4,-2l4,-2l4,-1l5,-1l6,-1l6,0l6,0l4,1l4,0l1,0l1,0l3,-1l4,0l4,-1l6,-1l4,-2l5,-3l3,-3l1,-2l1,-1l2,-2l1,-1l2,-1l1,-1l3,-1l2,0l3,-1l3,0l2,0l2,0l1,0l1,0l0,0l0,0l4,-3l5,-3l4,-1l5,-1l5,-1l3,0l3,0l1,0z"/>
  <path id="svg_104" stroke="#000" d="m741,97l-131,0l-1,-1l-2,-1l-2,-1l-1,-2l-2,-3l0,-4l1,-4l1,-2l1,-3l1,-2l1,-3l1,-2l1,-2l1,-2l1,-1l2,0l1,-1l2,-1l2,-1l3,-1l2,0l4,-1l3,0l3,0l3,0l3,0l3,0l3,0l4,0l3,0l4,0l6,0l6,-2l4,-2l3,-3l3,-3l1,-2l1,-2l1,0l1,-2l2,-1l2,-2l3,-1l2,0l3,-1l3,0l3,0l2,0l4,0l7,0l8,0l8,0l7,0l5,0l2,0"/>
  <path id="svg_105" fill="#0d0d0d" d="m773,136l154,0l0,0l1,0l1,0l2,0l1,1l1,1l1,1l1,2l0,2l0,2l0,3l0,2l0,3l0,2l0,1l0,0l-1,0l0,-1l-1,-1l-1,-1l-1,-1l-1,-2l-1,-1l0,-1l-1,-1l-1,-1l-2,0l-1,-1l-1,0l-1,0l-1,0l0,0l-140,0l-2,0l-2,0l-1,0l-1,1l0,0l-1,1l-1,1l0,0l-1,1l-1,2l0,1l-1,1l0,1l-1,1l0,0l0,1l0,-1l0,-1l0,-2l0,-3l0,-3l0,-2l0,-3l0,-2l0,-1l0,-1l0,-1l0,0l1,0l1,0l1,0l1,0z"/>
  <path id="svg_106" stroke="#000" d="m874,148l0,23l1,1l1,1l1,0l1,1l1,0l3,0l7,0l9,0l10,0l10,0l8,0l6,0l2,0"/>
  <path id="svg_107" stroke="#000" d="m836,149l0,20l-1,1l0,1l-1,1l-1,1l-1,0l-1,0l-4,0l-7,0l-10,0l-11,0l-11,0l-10,0l-6,0l-3,0"/>
  <path id="svg_108" stroke="#000" d="m935,156l0,21"/>
  <path id="svg_109" stroke="#000" d="m817,222l0,37l0,1l0,1l-1,1l-1,1l-1,0l-2,0l-4,0l-8,0l-11,0l-12,0l-12,0l-10,0l-7,0l-3,0"/>
  <path id="svg_110" stroke="#000" d="m810,222l0,31l0,1l0,2l0,1l-1,1l-1,1l-1,1l-2,0l-3,0l-4,0l-5,0l-5,0l-5,0l-5,0l-3,0l-1,0l-1,0l-1,0l-1,-1l-1,0l-1,-2l0,-1l0,-3l0,-2l0,-5l0,-6l0,-7l0,-7l0,-6l0,-4l0,-2"/>
  <path id="svg_111" stroke="#000" d="m773,232l0,-4l2,-3l2,-1l2,-1l3,1l2,2l1,2l1,4l0,4l0,2l0,2l0,2l0,1l0,1l-1,2l0,2l0,3l-2,2l-2,1l-2,0l-2,0l-2,-2l-2,-1l0,-3l-1,-2l0,-3l0,-3l0,-2l0,-3l0,-1l1,-1l0,-1"/>
  <path id="svg_112" stroke="#000" d="m798,318l141,-22l-141,22"/>
  <path id="svg_113" stroke="#000" d="m798,318l-16,8"/>
  <path id="svg_114" stroke="#000" d="m955,219l2,-1l1,0l1,-1l2,-1l0,-1l1,-1l0,-1l1,-2l-1,-1l0,-2l-1,-1l0,-1l-2,-1l-1,0l-1,-1l-2,0l-1,0l-2,1l-1,0l-1,1l-1,1l-1,1l0,2l0,1l0,2l0,1l1,1l1,1l1,1l1,1l2,0l1,1"/>
  <path id="svg_115" stroke="#000" d="m950,206l-12,0"/>
  <path id="svg_116" stroke="#000" d="m951,217l-16,0"/>
  <path id="svg_117" stroke="#000" d="m768,194l-208,0"/>
  <path id="svg_118" stroke="#000" d="m547,194l-17,0"/>
  <path id="svg_119" stroke="#000" d="m609,215l2,0l1,-1l1,-1l2,0l0,-2l1,-1l1,-1l0,-2l0,-1l-1,-2l-1,-1l0,-1l-2,-1l-1,-1l-1,0l-2,0l-1,0l-2,0l-1,1l-1,1l-1,1l0,1l-1,2l0,1l0,2l1,1l0,1l1,2l1,0l1,1l2,1l1,0"/>
  <path id="svg_120" stroke="#000" d="m609,200l-50,0l0,14l50,1"/>
  <path id="svg_121" stroke="#000" d="m669,268l19,0l11,-5l52,0"/>
  <path id="svg_122" stroke="#000" d="m697,326l0,-7"/>
  <path id="svg_123" stroke="#000" d="m791,292l0,30"/>
  <path id="svg_124" stroke="#000" d="m764,135l-235,0"/>
  <path id="svg_125" stroke="#000" d="m764,167l-106,0l-3,6l-80,0l-3,-1l0,-3l-7,-1l0,14l199,0"/>
  <path id="svg_126" fill="#191919" d="m592,171l-7,0l0,0l0,-1l1,-1l0,-1l0,-2l1,-2l0,-2l0,-3l72,-1l1,2l0,3l0,2l0,2l-1,2l0,1l-1,1l-1,0l-65,0z"/>
  <path id="svg_127" fill="#191919" d="m544,182l-14,0l0,-12l14,0l0,12z"/>
  <path id="svg_128" fill="#b2b2b2" d="m942,529l-7,-16l-5,-16l-5,-16l-5,-17l-6,-32l-5,-31l-3,-29l-2,-25l-1,-20l0,-14l26,-5l0,16l1,17l1,17l2,17l6,33l6,32l7,27l6,23l5,15l3,7l1,3l0,2l0,1l-1,2l0,1l-1,1l-1,1l0,0l-22,6z"/>
  <path id="svg_129" fill="#b2b2b2" d="m929,532l-29,8l-7,-19l-7,-19l-5,-19l-5,-19l-4,-19l-3,-18l-3,-17l-2,-17l-2,-29l-1,-23l-1,-15l0,-6l30,-4l0,15l1,20l2,25l3,29l5,31l7,32l4,16l5,16l6,16l6,16z"/>
  <path id="svg_130" fill="#b2b2b2" d="m888,542l-28,6l-8,-19l-6,-19l-6,-19l-5,-19l-3,-19l-4,-18l-2,-18l-2,-16l-3,-30l-1,-24l0,-15l0,-5l28,-5l0,12l1,20l1,25l4,29l4,32l7,34l5,17l5,17l6,17l7,17z"/>
  <path id="svg_131" fill-rule="nonzero" fill="#b2b2b2" d="m805,328l0,6l0,15l1,24l3,31l2,17l3,18l3,18l4,20l4,19l6,19l7,20l7,19l8,-4l-8,-18l-6,-19l-5,-19l-5,-19l-4,-19l-3,-19l-3,-17l-2,-17l-2,-30l-1,-24l0,-15l0,-6l-9,0z"/>
  <path id="svg_132" stroke="#000" d="m798,330l0,6l0,15l1,24l3,30l2,17l2,18l3,19l4,19l5,19l6,20l6,19l8,19l130,-32l1,0l1,-1l0,-2l1,-1l0,-2l0,-2l-1,-3l-3,-7l-5,-15l-6,-23l-6,-27l-7,-32l-5,-33l-2,-17l-2,-17l-1,-17l0,-16l-135,22"/>
  <path id="svg_133" stroke="#000" d="m860,548l-8,-19l-6,-19l-6,-19l-5,-19l-4,-19l-3,-18l-2,-18l-2,-17l-3,-29l-1,-24l0,-15l0,-5"/>
  <path id="svg_134" stroke="#000" d="m900,538l-7,-18l-7,-19l-5,-19l-5,-19l-4,-19l-3,-18l-3,-17l-2,-16l-2,-29l-1,-23l-1,-15l0,-6"/>
  <path id="svg_135" stroke="#000" d="m942,529l-8,-19l-6,-18l-6,-19l-4,-19l-4,-18l-3,-18l-3,-18l-2,-16l-2,-28l-1,-23l0,-15l0,-5"/>
  <path id="svg_136" stroke="#000" d="m845,552l-8,-19l-6,-19l-6,-19l-4,-19l-4,-19l-3,-19l-3,-18l-2,-17l-2,-30l-2,-24l0,-15l0,-6"/>
  <path id="svg_137" stroke="#000" d="m968,115l8,0l0,-13l32,10l0,3l9,0l0,94l-9,0l0,3l-32,10l0,-12l-9,1l1,-96"/>
  <path id="svg_138" fill="#0d0d0d" d="m1651,135l0,-4l-2,-3l-2,-3l-3,-2l-4,-2l-3,-1l-4,0l-4,-1l-29,-2l-69,-3l-95,-5l-108,-5l-108,-4l-94,-4l-66,-3l-25,-1l-1,0l-2,0l-3,0l-4,2l-3,3l-3,4l-2,6l0,8l0,11l0,13l1,13l0,14l0,13l-1,12l0,10l0,8l0,6l1,6l2,4l2,3l4,3l4,2l4,1l5,0l28,0l69,0l96,0l110,0l109,0l96,0l67,0l25,0l1,0l1,-1l2,-1l2,-1l2,-3l2,-5l2,-5l0,-8l1,-8l0,-11l0,-13l0,-12l0,-12l0,-10l0,-6l-1,-3z"/>
  <path id="svg_139" fill="#141414" d="m1035,93l25,1l66,3l94,4l108,5l108,4l95,5l69,3l29,2l4,1l4,1l3,1l4,1l3,2l2,3l2,3l0,4l0,2l0,7l0,9l0,11l0,12l0,12l0,11l0,8l-1,8l-1,5l-2,4l-2,3l-3,2l-2,1l-1,0l0,0l-26,0l-67,0l-95,0l-109,0l-110,0l-96,0l-69,0l-29,0l-4,0l-4,-1l-4,-2l-3,-3l-3,-3l-2,-4l-1,-5l0,-6l1,-8l0,-10l0,-12l0,-13l0,-13l0,-12l0,-12l-1,-11l1,-8l2,-6l2,-4l4,-3l3,-1l3,-1l2,0l1,0z"/>
  <path id="svg_140" fill="#1c1c1c" d="m1035,94l25,1l66,3l94,4l108,5l108,5l96,4l68,3l29,2l4,1l4,1l3,1l4,1l2,2l3,3l1,3l1,4l0,2l0,6l0,9l0,11l0,11l0,12l0,10l0,8l-1,7l-2,6l-2,4l-2,2l-2,2l-2,1l-1,0l-1,1l-25,-1l-67,0l-95,0l-110,0l-109,0l-96,0l-70,-1l-28,0l-4,0l-4,-1l-4,-2l-3,-2l-2,-3l-2,-4l-1,-5l0,-6l0,-8l0,-10l0,-11l0,-12l0,-12l0,-13l0,-11l0,-10l0,-8l2,-6l3,-4l3,-3l3,-1l3,-1l2,0l1,0z"/>
  <path id="svg_141" fill="#242424" d="m1035,96l25,1l66,3l94,4l108,4l108,5l96,4l68,4l29,1l4,1l3,1l4,1l3,1l3,2l2,3l1,3l1,4l0,2l0,6l0,8l0,10l0,12l0,11l0,9l0,9l-1,6l-1,5l-2,4l-2,3l-2,1l-2,1l-2,1l0,0l-25,0l-68,-1l-95,0l-109,0l-109,-1l-97,0l-69,0l-28,0l-4,-1l-4,-1l-4,-1l-3,-2l-2,-4l-2,-4l-1,-4l0,-6l0,-8l1,-9l0,-11l0,-11l0,-12l0,-12l0,-11l-1,-9l1,-8l2,-6l2,-4l3,-2l3,-1l3,-1l2,0l1,0z"/>
  <path id="svg_142" fill="#2b2b2b" d="m1035,97l25,1l66,3l94,4l108,5l108,4l96,5l68,3l29,2l4,0l3,1l4,1l3,1l3,2l2,3l1,3l0,4l0,2l0,5l0,8l0,10l1,11l0,10l-1,10l0,7l0,7l-2,5l-1,4l-3,2l-2,2l-2,1l-1,0l0,0l-26,0l-67,0l-95,-1l-109,0l-110,-1l-96,0l-69,-1l-28,0l-4,0l-4,-1l-3,-2l-3,-2l-3,-3l-1,-4l-1,-4l0,-6l0,-7l0,-9l0,-10l0,-11l0,-12l0,-11l0,-10l0,-10l0,-7l2,-6l2,-3l3,-3l3,-1l3,-1l2,0l1,0z"/>
  <path id="svg_143" fill="#333" d="m1035,99l25,1l66,3l94,4l108,4l108,5l96,4l68,3l29,2l4,0l3,1l4,1l3,2l2,1l2,3l1,3l1,3l0,2l0,6l0,7l0,10l0,10l0,10l0,9l0,8l-1,6l-1,5l-2,3l-2,2l-2,2l-2,1l-1,0l-1,0l-25,0l-67,0l-95,-1l-110,0l-109,-1l-96,-1l-69,0l-28,0l-4,0l-4,-1l-3,-2l-3,-2l-2,-3l-2,-4l-1,-4l0,-6l0,-7l1,-8l0,-10l0,-11l0,-10l0,-11l-1,-10l0,-9l1,-7l1,-5l3,-4l3,-2l3,-2l2,0l2,0l1,0z"/>
  <path id="svg_144" fill="#3b3b3b" d="m1035,100l25,1l66,3l94,4l108,4l108,5l96,4l68,3l29,2l4,1l3,1l4,0l3,2l2,1l2,3l1,3l0,3l0,2l1,5l0,7l0,9l0,10l0,9l0,9l-1,8l0,5l-2,5l-1,3l-3,3l-2,1l-1,1l-2,1l0,0l-26,0l-67,-1l-95,-1l-109,-1l-109,0l-96,-1l-69,-1l-28,0l-4,0l-4,-1l-3,-1l-3,-2l-2,-3l-2,-4l0,-4l0,-5l0,-7l0,-9l0,-9l0,-10l0,-10l0,-10l0,-10l0,-8l0,-7l2,-5l2,-4l3,-2l3,-1l2,-1l2,0l1,0z"/>
  <path id="svg_145" fill="#424242" d="m1035,102l25,1l66,3l94,3l108,5l108,4l96,4l68,3l29,2l4,1l3,1l4,1l2,1l3,2l1,2l1,3l1,3l0,2l0,5l0,6l0,9l0,9l0,9l0,9l0,7l-1,5l-1,5l-2,3l-2,2l-2,2l-2,1l-1,0l-1,0l-25,0l-67,-1l-95,-1l-109,-1l-109,-1l-97,-1l-69,0l-28,0l-3,-1l-3,0l-4,-2l-2,-2l-2,-3l-2,-3l-1,-4l0,-5l0,-7l1,-8l0,-9l0,-9l0,-10l0,-9l-1,-9l0,-8l1,-7l1,-5l3,-3l2,-3l3,-1l2,0l2,0l1,0z"/>
  <path id="svg_146" fill="#4a4a4a" d="m1035,103l25,1l66,3l94,4l108,4l108,4l96,5l68,3l29,1l4,1l3,1l3,1l3,1l2,2l2,2l1,3l0,3l0,2l0,4l0,7l0,7l0,9l0,9l0,8l0,7l0,5l-2,4l-1,3l-2,3l-2,1l-2,1l-1,0l-1,0l-25,0l-67,-1l-95,-1l-109,-1l-110,-1l-96,-1l-69,-1l-28,0l-3,0l-3,-1l-3,-1l-3,-2l-2,-3l-2,-3l0,-4l-1,-5l1,-6l0,-8l0,-8l0,-9l0,-9l0,-9l0,-9l0,-8l0,-6l2,-5l2,-3l3,-2l2,-1l2,-1l2,0l1,0z"/>
  <path id="svg_147" fill="#525252" d="m1035,105l25,1l66,2l94,4l108,4l108,5l96,4l68,3l29,2l4,0l3,1l3,1l3,1l2,2l1,2l1,2l1,4l0,1l0,4l0,6l0,8l0,8l0,8l0,8l0,7l-1,5l-1,4l-2,3l-2,2l-2,1l-2,1l-1,1l0,0l-26,-1l-67,0l-95,-2l-109,-1l-109,-1l-96,-1l-69,-1l-28,0l-3,-1l-3,0l-3,-1l-3,-2l-2,-3l-1,-3l-1,-4l0,-5l0,-6l1,-7l0,-8l0,-8l0,-9l0,-8l-1,-9l0,-7l1,-6l1,-5l2,-3l3,-2l2,-1l2,0l2,0l1,0z"/>
  <path id="svg_148" fill="#595959" d="m1035,106l25,1l66,3l94,3l108,5l108,4l96,4l68,3l29,2l4,0l3,1l3,1l2,1l2,2l2,2l1,2l0,4l0,1l0,4l0,5l0,7l0,8l0,8l0,7l0,7l0,5l-2,3l-1,3l-2,2l-2,2l-2,0l-1,1l-1,0l-25,0l-67,-1l-95,-2l-109,-1l-109,-1l-96,-2l-69,-1l-28,0l-3,0l-3,-1l-3,-1l-2,-2l-2,-2l-2,-3l-1,-4l0,-5l1,-6l0,-7l0,-7l0,-8l0,-8l0,-8l0,-7l0,-7l0,-6l2,-5l2,-3l2,-2l3,-1l2,0l1,0l1,0z"/>
  <path id="svg_149" fill="#616161" d="m1035,108l25,1l66,2l94,4l108,4l108,4l96,4l69,3l28,2l4,1l3,0l3,1l2,1l2,2l2,2l0,2l1,4l0,1l0,3l0,6l0,6l0,7l0,8l0,7l0,6l-1,5l-1,3l-2,3l-2,2l-2,1l-1,1l-2,0l0,0l-25,0l-67,-1l-95,-2l-109,-1l-110,-2l-96,-1l-68,-1l-29,0l-2,-1l-3,0l-3,-1l-2,-2l-2,-2l-1,-3l-1,-4l0,-5l0,-5l0,-7l1,-7l0,-7l0,-7l-1,-8l0,-7l0,-7l1,-6l1,-4l2,-2l2,-2l3,-1l2,0l1,0l1,0z"/>
  <path id="svg_150" fill="#696969" d="m1035,109l25,1l66,3l94,3l108,4l108,5l96,3l69,3l28,2l4,1l3,1l3,0l2,2l2,1l1,2l1,2l0,3l0,2l0,3l0,5l0,6l0,6l0,7l0,7l0,6l0,4l-2,4l-1,2l-2,2l-2,1l-2,1l-1,0l0,1l-26,-1l-67,-1l-95,-2l-108,-1l-110,-2l-96,-2l-69,-1l-28,0l-2,0l-3,-1l-2,-1l-3,-1l-1,-2l-2,-3l-1,-4l0,-4l1,-6l0,-6l0,-6l0,-7l0,-7l0,-7l0,-7l0,-6l0,-5l2,-4l2,-3l2,-2l2,-1l2,0l1,0l1,0z"/>
  <path id="svg_151" fill="#707070" d="m1035,111l25,1l66,2l94,4l108,4l108,4l96,4l69,3l28,1l4,1l3,1l3,1l2,1l1,1l2,2l0,2l1,3l0,1l0,3l0,5l0,5l0,6l0,7l0,6l0,6l-1,4l-1,3l-2,3l-2,2l-2,1l-1,0l-1,1l-1,0l-25,-1l-67,-1l-95,-1l-109,-2l-109,-2l-96,-2l-69,-1l-28,0l-2,-1l-3,0l-2,-1l-2,-2l-2,-2l-1,-2l-1,-4l0,-4l0,-6l0,-5l1,-6l-1,-6l0,-7l0,-6l0,-6l0,-6l1,-6l1,-3l2,-3l2,-1l2,-1l2,0l1,0l1,0z"/>
  <path id="svg_152" fill="#787878" d="m1035,112l25,1l66,2l94,4l108,4l108,4l96,4l69,3l28,2l4,0l3,1l3,1l2,1l1,1l1,2l1,2l0,3l0,1l0,3l0,4l0,5l0,5l0,6l0,6l0,6l-1,4l-1,3l-1,2l-2,2l-2,1l-2,1l-1,0l0,0l-26,0l-66,-2l-95,-1l-109,-2l-109,-2l-96,-2l-69,-2l-28,0l-2,0l-3,-1l-2,-1l-2,-1l-2,-2l-1,-3l-1,-3l0,-4l1,-5l0,-5l0,-6l0,-6l0,-5l0,-6l0,-6l0,-6l0,-5l2,-3l1,-3l2,-1l2,-1l2,0l1,0l1,0z"/>
  <path id="svg_153" fill="#7f7f7f" d="m1035,113l25,1l66,3l94,3l108,4l108,4l96,4l69,3l28,2l4,0l3,1l2,1l2,1l2,1l1,2l0,2l0,3l0,1l0,2l0,4l0,4l1,6l-1,5l0,6l0,5l0,4l-1,3l-2,2l-2,1l-1,2l-2,0l-1,1l-1,0l-25,-1l-67,-1l-95,-2l-108,-2l-110,-3l-96,-2l-68,-1l-29,-1l-2,0l-2,0l-2,-1l-2,-1l-1,-2l-2,-3l0,-3l0,-4l0,-5l0,-5l0,-5l0,-5l0,-5l0,-5l0,-6l0,-5l1,-5l1,-3l2,-2l2,-2l1,0l2,-1l1,0l1,0z"/>
  <path id="svg_154" fill="#878787" d="m1035,115l25,1l66,2l94,4l108,4l109,4l95,3l69,3l28,2l4,1l3,0l2,1l2,1l1,1l1,2l1,2l0,3l0,0l0,3l0,3l0,4l0,5l0,5l0,5l0,5l0,3l-2,3l-1,2l-2,2l-2,1l-1,1l-1,0l-1,0l-25,-1l-67,-1l-95,-2l-109,-3l-109,-2l-96,-2l-68,-2l-29,0l-1,0l-2,-1l-2,0l-2,-2l-2,-1l-1,-3l-1,-3l0,-4l0,-4l1,-5l0,-4l0,-5l0,-5l0,-4l0,-5l0,-5l0,-5l1,-3l2,-2l2,-1l2,-1l1,0l1,0l1,0z"/>
  <path id="svg_155" fill="#8f8f8f" d="m1035,116l25,1l66,3l94,3l108,4l109,4l95,4l69,3l28,1l4,1l3,1l2,0l2,1l1,1l1,2l0,2l0,3l0,0l0,2l0,3l0,4l0,4l0,4l0,5l0,5l0,3l-1,3l-2,2l-2,1l-1,1l-2,1l-1,0l0,0l-26,0l-67,-2l-94,-2l-109,-3l-109,-2l-96,-2l-69,-2l-28,0l-2,-1l-1,0l-2,-1l-2,-1l-2,-2l-1,-2l0,-3l0,-3l0,-5l0,-4l0,-4l0,-4l0,-4l0,-5l0,-4l0,-4l1,-5l1,-3l1,-2l2,-1l2,-1l1,0l1,0l1,0z"/>
  <path id="svg_156" fill="#969696" d="m1035,118l25,1l66,2l94,3l108,4l109,4l95,4l69,3l29,1l3,1l3,1l2,0l2,1l1,1l0,2l1,2l0,2l0,1l0,1l0,3l0,3l0,4l0,4l0,4l0,5l-1,3l-1,2l-1,2l-2,2l-2,1l-1,0l-1,1l-1,0l-25,-1l-67,-2l-95,-2l-108,-3l-109,-2l-96,-3l-69,-1l-28,-1l-2,0l-1,-1l-2,0l-2,-1l-1,-2l-1,-2l-1,-3l0,-3l0,-5l1,-3l0,-4l0,-4l0,-3l0,-4l0,-4l0,-4l0,-4l2,-3l1,-2l1,-1l2,0l1,0l1,0l1,0z"/>
  <path id="svg_157" fill="#9e9e9e" d="m1035,119l25,1l66,3l94,3l108,4l109,4l95,3l69,3l29,2l3,0l3,1l2,1l1,1l1,1l1,1l0,2l0,2l0,1l0,1l0,2l0,3l0,3l0,4l0,4l0,4l0,3l-1,2l-2,2l-1,1l-2,1l-2,0l-1,1l0,0l-25,-1l-67,-2l-95,-2l-109,-3l-109,-3l-95,-2l-69,-2l-28,-1l-2,0l-1,0l-2,-1l-1,-1l-2,-1l-1,-2l0,-3l0,-3l0,-4l0,-4l0,-3l0,-3l0,-3l0,-3l0,-3l0,-4l1,-4l1,-3l1,-1l2,-1l1,-1l1,0l1,0l1,0z"/>
  <path id="svg_158" fill="#a6a6a6" d="m1035,121l25,1l66,2l94,3l108,4l109,4l95,3l69,3l29,2l3,0l3,1l2,1l1,1l1,1l0,1l1,2l0,2l0,0l0,1l0,2l0,2l0,3l0,3l0,4l0,4l-1,3l-1,2l-1,1l-2,1l-1,1l-2,1l-1,0l0,0l-26,0l-66,-2l-95,-3l-109,-3l-109,-3l-96,-3l-68,-2l-28,0l-2,0l-1,-1l-2,0l-1,-1l-1,-1l-2,-2l0,-3l0,-3l0,-4l0,-3l1,-2l0,-3l0,-2l0,-3l0,-3l0,-3l0,-4l1,-2l2,-2l1,-1l1,0l1,0l1,0l1,0z"/>
  <path id="svg_159" fill="#adadad" d="m1035,122l25,1l66,2l94,4l108,3l109,4l95,4l69,2l29,2l3,1l3,0l2,1l1,1l1,1l0,1l0,2l0,2l0,0l0,1l0,1l0,2l0,2l0,3l0,3l0,4l0,2l-1,2l-2,2l-1,1l-2,1l-2,0l-1,0l0,1l-25,-1l-67,-2l-95,-3l-108,-3l-109,-3l-96,-3l-69,-2l-28,-1l-1,0l-1,0l-1,0l-2,-1l-1,-1l-1,-2l-1,-3l0,-3l1,-3l0,-3l0,-2l0,-2l0,-2l0,-2l0,-3l0,-3l1,-3l1,-2l1,-2l1,0l2,-1l1,0l0,0l1,0z"/>
  <path id="svg_160" fill="#b5b5b5" d="m1035,124l25,0l66,3l94,3l108,4l109,3l95,4l69,3l29,1l3,1l3,0l1,1l2,1l0,1l1,1l0,2l0,2l0,0l0,0l0,1l0,1l0,2l0,2l0,4l0,3l-1,2l-1,2l-1,1l-2,1l-1,1l-2,0l-1,1l0,0l-26,-1l-66,-2l-95,-3l-108,-3l-109,-3l-96,-3l-69,-2l-28,-1l-1,0l-1,0l-1,-1l-2,0l-1,-2l-1,-1l0,-2l0,-3l0,-4l0,-2l1,-2l0,-2l0,-1l0,-1l0,-2l0,-3l0,-3l1,-2l1,-1l2,-1l1,-1l1,0l0,0l1,1z"/>
  <path id="svg_161" fill="#bdbdbd" d="m1035,125l25,1l66,2l94,3l108,4l109,4l95,3l69,3l29,1l3,1l2,1l2,0l1,1l1,1l0,1l0,2l0,1l0,0l0,1l0,0l0,1l0,1l0,2l0,3l0,4l0,1l-1,1l-2,2l-1,1l-2,0l-1,1l-1,0l-1,0l-25,-1l-67,-2l-94,-3l-109,-3l-109,-4l-95,-3l-69,-2l-28,-1l-1,0l-1,0l-1,0l-1,-1l-1,-1l-1,-1l-1,-2l0,-3l1,-3l0,-2l0,-2l0,-1l0,0l0,-1l0,-2l0,-2l1,-3l1,-2l1,-1l1,-1l1,0l1,0l0,0l1,0z"/>
  <path id="svg_162" fill="#c4c4c4" d="m1035,127l25,0l66,3l94,3l108,3l109,4l95,3l69,3l29,2l3,0l2,1l2,0l1,1l0,1l1,1l0,2l0,1l0,0l0,0l0,0l0,0l0,1l0,2l0,2l0,3l-1,2l-1,1l-1,1l-2,1l-1,1l-2,0l0,0l-1,0l-25,0l-67,-3l-94,-3l-109,-3l-109,-4l-96,-3l-68,-2l-28,-1l-1,0l-1,0l-1,0l-1,-1l-1,-1l-1,-1l0,-2l0,-3l0,-3l0,-2l0,-1l1,0l0,0l0,-1l0,-1l0,-1l0,-3l1,-2l1,-1l1,-1l1,0l1,0l0,0l1,1z"/>
  <path id="svg_163" fill="#ccc" d="m1638,156l0,-2l0,-1l0,-1l0,-1l-1,0l-2,-1l-2,0l-3,-1l-29,-1l-69,-3l-95,-4l-109,-3l-108,-4l-94,-3l-66,-2l-25,-1l-1,0l0,0l-1,0l-1,0l0,0l-1,1l-1,2l-1,2l0,2l0,0l0,0l0,0l0,0l0,0l0,1l-1,3l0,3l1,2l1,1l1,1l1,0l0,0l1,0l0,0l28,1l69,3l96,3l109,4l108,3l95,4l66,2l26,1l0,0l1,-1l1,0l2,-1l1,0l2,-1l1,-1l0,-1l0,-4l0,-2l0,-1l0,0l0,0l0,1l0,0l0,0z"/>
  <path id="svg_164" stroke="#000" d="m1651,135l0,-4l-2,-3l-2,-3l-3,-2l-4,-2l-3,-1l-4,0l-4,-1l-29,-2l-69,-3l-95,-5l-108,-5l-108,-4l-94,-4l-66,-3l-25,-1l-1,0l-2,0l-3,0l-4,2l-3,3l-3,4l-2,6l0,8l0,11l0,13l1,13l0,14l0,13l-1,12l0,10l0,8l0,6l1,6l2,4l2,3l4,3l4,2l4,1l5,0l28,0l69,0l96,0l110,0l109,0l96,0l67,0l25,0l1,0l1,-1l2,-1l2,-1l2,-3l2,-5l2,-5l0,-8l1,-8l0,-11l0,-13l0,-12l0,-12l0,-10l0,-6l-1,-3"/>
  <path id="svg_165" stroke="#000" d="m1019,175l632,15l0,-20l-632,-12"/>
  <path id="svg_166" stroke="#000" d="m1051,94l0,140"/>
  <path id="svg_167" stroke="#000" d="m1055,94l0,140"/>
  <path id="svg_168" stroke="#000" d="m1091,95l0,138"/>
  <path id="svg_169" stroke="#000" d="m1095,95l0,138"/>
  <path id="svg_170" stroke="#000" d="m1130,96l0,137"/>
  <path id="svg_171" stroke="#000" d="m1135,96l0,137"/>
  <path id="svg_172" stroke="#000" d="m1170,100l0,134"/>
  <path id="svg_173" stroke="#000" d="m1174,100l0,134"/>
  <path id="svg_174" stroke="#000" d="m1210,100l0,134"/>
  <path id="svg_175" stroke="#000" d="m1214,100l0,134"/>
  <path id="svg_176" stroke="#000" d="m1249,102l0,131"/>
  <path id="svg_177" stroke="#000" d="m1253,102l0,131"/>
  <path id="svg_178" stroke="#000" d="m1289,103l0,131"/>
  <path id="svg_179" stroke="#000" d="m1293,103l0,131"/>
  <path id="svg_180" stroke="#000" d="m1328,106l0,128"/>
  <path id="svg_181" stroke="#000" d="m1333,106l0,128"/>
  <path id="svg_182" stroke="#000" d="m1368,107l0,127"/>
  <path id="svg_183" stroke="#000" d="m1372,107l0,127"/>
  <path id="svg_184" stroke="#000" d="m1408,110l0,123"/>
  <path id="svg_185" stroke="#000" d="m1412,110l0,123"/>
  <path id="svg_186" stroke="#000" d="m1447,112l0,121"/>
  <path id="svg_187" stroke="#000" d="m1452,112l0,121"/>
  <path id="svg_188" stroke="#000" d="m1487,113l0,121"/>
  <path id="svg_189" stroke="#000" d="m1491,113l0,121"/>
  <path id="svg_190" stroke="#000" d="m1527,115l0,118"/>
  <path id="svg_191" stroke="#000" d="m1531,115l0,118"/>
  <path id="svg_192" stroke="#000" d="m1566,116l0,117"/>
  <path id="svg_193" stroke="#000" d="m1570,116l0,117"/>
  <path id="svg_194" stroke="#000" d="m1606,119l0,114"/>
  <path id="svg_195" stroke="#000" d="m1610,119l0,114"/>
  <path id="svg_196" fill="#666" d="m1653,220l-2,-85l1,0l0,-2l0,-2l1,-3l1,-3l2,-4l2,-4l3,-4l5,-5l7,-8l8,-10l9,-11l9,-10l7,-8l5,-6l2,-2l1,-1l4,-2l5,-2l5,-2l3,0l3,0l3,1l2,1l2,2l1,4l1,4l0,5l0,18l-1,25l0,28l0,29l-1,27l0,23l0,15l0,6l-18,0l-2,-7l0,-27l10,-1l0,-116l-3,-5l-15,0l-1,0l-1,0l-1,0l-1,0l-2,1l-2,0l-1,1l-2,2l-2,2l-4,5l-5,6l-6,6l-5,6l-5,5l-3,3l-2,2l0,0l-1,1l-1,1l-1,2l-1,3l-1,3l-1,4l0,4l0,7l0,11l0,12l0,13l0,13l0,11l0,8l0,2l-5,8l-6,0z"/>
  <path id="svg_197" stroke="#000" d="m1653,220l-2,-85l1,0l0,-2l0,-2l1,-3l1,-3l2,-4l2,-4l3,-4l5,-5l7,-8l8,-10l9,-11l9,-10l7,-8l5,-6l2,-2l1,-1l4,-2l5,-2l5,-2l3,0l3,0l3,1l2,1l2,2l1,4l1,4l0,5l0,18l-1,25l0,28l0,29l-1,27l0,23l0,15l0,6l-18,0l-2,-7l0,-27l10,-1l0,-116l-3,-5l-15,0l-1,0l-1,0l-1,0l-1,0l-2,1l-2,0l-1,1l-2,2l-2,2l-4,5l-5,6l-6,6l-5,6l-5,5l-3,3l-2,2l-1,1l-1,1l-1,2l-1,3l-1,3l-1,4l0,4l0,7l0,11l0,12l0,13l0,13l0,11l0,8l0,2l-5,8l-6,0"/>
  <path id="svg_198" fill="#666" d="m1731,106l-12,0l0,-18l0,0l-1,-2l0,-2l-2,-2l-2,-1l-3,-1l-4,0l-5,2l0,0l1,-1l1,0l1,-1l1,-1l3,-1l2,0l3,0l12,0l0,0l1,0l1,0l1,1l1,1l1,2l0,2l0,3l0,3l0,4l0,3l0,3l0,2l0,2l0,1l0,1z"/>
  <path id="svg_199" stroke="#000" d="m1731,106l-12,0l0,-18l-1,-2l0,-2l-2,-2l-2,-1l-3,-1l-4,0l-5,2l1,-1l1,0l1,-1l1,-1l3,-1l2,0l3,0l12,0l1,0l1,0l1,1l1,1l1,2l0,2l0,3l0,3l0,4l0,3l0,3l0,2l0,2l0,1l0,1"/>
  <path id="svg_200" fill="#666" d="m1665,133l0,2l1,2l0,1l2,0l1,1l1,0l1,0l1,0l3,0l6,0l8,1l9,0l9,0l8,0l6,0l3,0l1,0l2,-1l1,-1l1,-2l1,-1l1,-2l0,-1l0,-1l0,37l-13,0l0,-4l0,-3l-1,-2l-1,-1l-2,-1l-1,-1l-1,0l-2,0l-2,0l-4,0l-5,0l-5,0l-6,0l-4,0l-3,0l-2,0l-2,0l-2,1l-2,1l-1,1l0,2l-1,1l0,2l0,1l0,0l0,1l0,0l0,1l0,0l0,0l0,0l0,1l0,0l-1,0l-1,0l-1,0l-2,0l-1,0l-1,0l0,0l1,-35z"/>
  <path id="svg_201" stroke="#000" d="m1665,133l0,2l1,2l0,1l2,0l1,1l1,0l1,0l1,0l3,0l6,0l8,1l9,0l9,0l8,0l6,0l3,0l1,0l2,-1l1,-1l1,-2l1,-1l1,-2l0,-1l0,-1l0,37l-13,0l0,-4l0,-3l-1,-2l-1,-1l-2,-1l-1,-1l-1,0l-2,0l-2,0l-4,0l-5,0l-5,0l-6,0l-4,0l-3,0l-2,0l-2,0l-2,1l-2,1l-1,1l0,2l-1,1l0,2l0,1l0,1l0,1l0,1l-1,0l-1,0l-1,0l-2,0l-1,0l-1,0l1,-35"/>
  <path id="svg_202" fill="#666" d="m1742,207l12,0l0,0l1,0l0,0l1,1l1,0l1,1l1,1l1,1l0,12l-6,5l-12,-1l0,-20z"/>
  <path id="svg_203" stroke="#000" d="m1742,207l12,0l1,0l1,1l1,0l1,1l1,1l1,1l0,12l-6,5l-12,-1l0,-20"/>
  <path id="svg_204" fill="#666" d="m1664,166l66,-1l0,37l-56,-1l0,0l-1,0l-2,0l-1,0l-2,1l-1,1l-1,1l-1,2l-1,-40z"/>
  <path id="svg_205" stroke="#000" d="m1664,166l66,-1l0,37l-56,-1l-1,0l-2,0l-1,0l-2,1l-1,1l-1,1l-1,2l-1,-40"/>
  <path id="svg_206" fill="#666" d="m1742,156l0,4l1,3l1,2l2,2l1,1l2,1l2,1l3,0l12,0l26,0l38,0l42,1l42,0l37,1l26,0l11,0l2,0l1,-1l1,-1l1,-1l1,-1l1,-2l1,-1l0,-1l5,0l0,49l-5,0l0,0l0,-1l-1,-2l-1,-1l-1,-2l-1,-1l-2,-1l-2,-1l-12,0l-28,0l-37,0l-43,-1l-42,0l-37,-1l-26,0l-10,0l-1,0l-1,0l-2,1l-2,0l-2,1l-1,2l-2,1l0,3l0,-54z"/>
  <path id="svg_207" stroke="#000" d="m1742,156l0,4l1,3l1,2l2,2l1,1l2,1l2,1l3,0l12,0l26,0l38,0l42,1l42,0l37,1l26,0l11,0l2,0l1,-1l1,-1l1,-1l1,-1l1,-2l1,-1l0,-1l5,0l0,49l-5,0l0,-1l-1,-2l-1,-1l-1,-2l-1,-1l-2,-1l-2,-1l-12,0l-28,0l-37,0l-43,-1l-42,0l-37,-1l-26,0l-10,0l-1,0l-1,0l-2,1l-2,0l-2,1l-1,2l-2,1l0,3l0,-54"/>
  <path id="svg_208" fill="#666" d="m2010,164l7,0l0,49l-8,0l1,-49z"/>
  <path id="svg_209" stroke="#000" d="m2010,164l7,0l0,49l-8,0l1,-49"/>
  <path id="svg_210" fill="#666" d="m2026,164l0,49l6,0l0,-49l-6,0z"/>
  <path id="svg_211" stroke="#000" d="m2026,164l0,49l6,0l0,-49l-6,0"/>
  <path id="svg_212" fill="#666" d="m2032,164l1,2l0,1l1,1l1,0l1,0l1,0l1,1l0,0l48,0l3,2l-1,37l-2,2l-2,0l-5,0l-7,-1l-9,0l-9,0l-8,0l-6,0l-3,0l-1,0l-1,0l-1,1l-1,0l0,1l-1,1l0,0l0,1l0,-49z"/>
  <path id="svg_213" stroke="#000" d="m2032,164l1,2l0,1l1,1l1,0l1,0l1,0l1,1l48,0l3,2l-1,37l-2,2l-2,0l-5,0l-7,-1l-9,0l-9,0l-8,0l-6,0l-3,0l-1,0l-1,0l-1,1l-1,0l0,1l-1,1l0,1l0,-49"/>
  <path id="svg_214" fill="#666" d="m2001,164l1,2l1,1l1,1l2,1l1,-1l2,0l1,-2l0,-2l-1,49l0,-3l-1,-1l-1,-1l-2,-1l-1,1l-1,1l-1,2l-1,2l0,-49z"/>
  <path id="svg_215" stroke="#000" d="m2001,164l1,2l1,1l1,1l2,1l1,-1l2,0l1,-2l0,-2l-1,49l0,-3l-1,-1l-1,-1l-2,-1l-1,1l-1,1l-1,2l-1,2l0,-49"/>
  <path id="svg_216" fill="#666" d="m2017,164l1,2l1,2l1,1l2,0l1,0l2,-1l1,-2l0,-2l0,49l0,-3l-1,-1l-2,-2l-2,0l-1,0l-2,2l-1,1l0,3l0,-49z"/>
  <path id="svg_217" stroke="#000" d="m2017,164l1,2l1,2l1,1l2,0l1,0l2,-1l1,-2l0,-2l0,49l0,-3l-1,-1l-2,-2l-2,0l-1,0l-2,2l-1,1l0,3l0,-49"/>
  <path id="svg_218" fill="#666" d="m2083,169l-1,40l1,-40z"/>
  <path id="svg_219" stroke="#000" d="m2083,169l-1,40"/>
  <path id="svg_220" fill="#ccc" d="m2037,192l-1,1l0,0l0,1l-1,1l0,0l1,1l0,0l1,0l0,1l2,0l1,1l1,0l1,0l1,1l0,0l1,0l2,0l3,0l4,0l4,1l5,0l3,0l3,-1l2,0l1,0l1,0l1,0l1,-1l1,0l1,0l1,0l1,-1l0,0l0,-1l1,0l0,-1l0,-1l-1,0l0,-1l-1,0l0,0l-1,-1l-1,0l-1,0l-1,-1l-1,0l-1,0l-1,0l-2,0l-3,-1l-3,0l-4,0l-4,0l-4,0l-4,0l-2,0l-1,1l-1,0l-1,0l-1,0l-1,0l-1,0l-1,1l0,0z"/>
  <path id="svg_221" stroke="#000" d="m2037,192l-1,1l0,1l-1,1l1,1l1,0l0,1l2,0l1,1l1,0l1,0l1,1l1,0l2,0l3,0l4,0l4,1l5,0l3,0l3,-1l2,0l1,0l1,0l1,0l1,-1l1,0l1,0l1,0l1,-1l0,-1l1,0l0,-1l0,-1l-1,0l0,-1l-1,0l-1,-1l-1,0l-1,0l-1,-1l-1,0l-1,0l-1,0l-2,0l-3,-1l-3,0l-4,0l-4,0l-4,0l-4,0l-2,0l-1,1l-1,0l-1,0l-1,0l-1,0l-1,0l-1,1"/>
  <path id="svg_222" fill="#000" d="m2039,191l0,1l0,0l-1,0l0,1l0,0l0,0l1,1l0,0l1,0l1,1l1,0l1,0l1,0l1,0l0,0l1,1l1,0l3,0l4,0l4,0l4,0l3,0l3,0l1,0l1,0l1,0l1,-1l1,0l1,0l1,0l1,0l0,0l0,-1l1,0l0,0l0,-1l0,0l0,-1l-1,0l0,0l-1,0l-1,0l-1,-1l-1,0l-1,0l-1,0l0,0l-1,0l-2,0l-2,0l-3,-1l-4,0l-4,0l-3,0l-3,0l-2,0l-1,1l-1,0l-1,0l-1,0l-1,0l0,0l-1,0l-1,0z"/>
  <path id="svg_223" stroke="#000" d="m2039,191l0,1l-1,0l0,1l1,1l1,0l1,1l1,0l1,0l1,0l1,0l1,1l1,0l3,0l4,0l4,0l4,0l3,0l3,0l1,0l1,0l1,0l1,-1l1,0l1,0l1,0l1,0l0,-1l1,0l0,-1l0,-1l-1,0l-1,0l-1,0l-1,-1l-1,0l-1,0l-1,0l-1,0l-2,0l-2,0l-3,-1l-4,0l-4,0l-3,0l-3,0l-2,0l-1,1l-1,0l-1,0l-1,0l-1,0l-1,0l-1,0"/>
  <path id="svg_224" fill="#000" d="m2037,172l0,0l-1,0l0,1l0,0l0,0l0,1l1,0l0,0l1,0l1,0l1,1l1,0l1,0l1,0l1,0l0,0l2,1l3,0l4,0l5,0l4,0l4,0l3,0l2,0l0,0l1,-1l1,0l1,0l2,0l1,0l1,0l0,0l1,-1l0,0l0,0l0,-1l0,0l0,0l-1,0l0,-1l-1,0l-1,0l-1,0l-1,0l-1,0l-1,0l-1,0l-1,0l-2,-1l-2,0l-4,0l-4,0l-4,0l-4,0l-3,0l-3,0l-1,0l0,0l-1,0l-1,0l-1,0l-1,0l-1,1l-1,0z"/>
  <path id="svg_225" stroke="#000" d="m2037,172l-1,0l0,1l0,1l1,0l1,0l1,0l1,1l1,0l1,0l1,0l1,0l2,1l3,0l4,0l5,0l4,0l4,0l3,0l2,0l1,-1l1,0l1,0l2,0l1,0l1,0l1,-1l0,-1l-1,0l0,-1l-1,0l-1,0l-1,0l-1,0l-1,0l-1,0l-1,0l-1,0l-2,-1l-2,0l-4,0l-4,0l-4,0l-4,0l-3,0l-3,0l-1,0l-1,0l-1,0l-1,0l-1,0l-1,1l-1,0"/>
  <path id="svg_226" fill="#000" d="m1996,164l0,49l0,-49z"/>
  <path id="svg_227" stroke="#000" d="m1996,164l0,49"/>
 </g>
</svg>