999
dxfrw 0.5.10
0
SECTION
2
HEADER
9
$ACADVER
1
AC1021
9
$HANDSEED
5
20000
9
$DWGCODEPAGE
3
ANSI_1252
9
$INSBASE
10
0
20
0
30
0
9
$EXTMIN
10
-544.433593751
20
-239.36892928
30
0
9
$EXTMAX
10
258.759515966
20
80.0066507899
30
0
9
$LIMMIN
10
0
20
0
9
$LIMMAX
10
420
20
297
9
$ORTHOMODE
70
0
9
$LTSCALE
40
1
9
$TEXTSTYLE
7
STANDARD
9
$CLAYER
8
Construction2
9
$DIMASZ
40
2.5
9
$DIMLFAC
40
1
9
$DIMSCALE
40
2.5
9
$DIMEXO
40
0.625
9
$DIMEXE
40
1.25
9
$DIMTXT
40
2.5
9
$DIMTSZ
40
0
9
$DIMAUNIT
70
0
9
$DIMADEC
70
0
9
$DIMLUNIT
70
2
9
$DIMSTYLE
2
STANDARD
9
$DIMGAP
40
0.625
9
$DIMTIH
70
0
9
$LUNITS
70
2
9
$LUPREC
70
4
9
$AUNITS
70
0
9
$AUPREC
70
2
9
$SPLINESEGS
70
8
9
$GRIDMODE
70
1
9
$SNAPSTYLE
70
0
9
$PINSBASE
10
0
20
0
30
0
9
$PLIMMIN
10
0
20
0
9
$PLIMMAX
10
210
20
297
9
$INSUNITS
70
0
9
$PSVPSCALE
40
1
0
ENDSEC
0
SECTION
2
CLASSES
0
ENDSEC
0
SECTION
2
TABLES
0
TABLE
2
VPORT
5
8
330
0
100
AcDbSymbolTable
70
1
0
VPORT
5
31
330
2
100
AcDbSymbolTableRecord
100
AcDbViewportTableRecord
2
*ACTIVE
70
0
10
0
20
0
11
1
21
1
12
-31.8217697585
22
-36.1840918379
13
0
23
0
14
10
24
10
15
10
25
10
16
0
26
0
36
1
17
0
27
0
37
0
40
24.8251952155
41
1.85398981324
42
50
43
0
44
0
50
0
51
0
71
0
72
100
73
1
74
3
75
0
76
1
77
0
78
0
281
0
65
1
110
0
120
0
130
0
111
1
121
0
131
0
112
0
122
1
132
0
79
0
146
0
348
10020
60
7
61
5
292
1
282
1
141
0
142
0
63
250
421
3358443
0
ENDTAB
0
TABLE
2
LTYPE
5
5
330
0
100
AcDbSymbolTable
70
4
0
LTYPE
5
14
330
5
100
AcDbSymbolTableRecord
100
AcDbLinetypeTableRecord
2
ByBlock
70
0
3

72
65
73
0
40
0
0
LTYPE
5
15
330
5
100
AcDbSymbolTableRecord
100
AcDbLinetypeTableRecord
2
ByLayer
70
0
3

72
65
73
0
40
0
0
LTYPE
5
16
330
5
100
AcDbSymbolTableRecord
100
AcDbLinetypeTableRecord
2
Continuous
70
0
3
Solid line
72
65
73
0
40
0
0
LTYPE
5
32
330
5
100
AcDbSymbolTableRecord
100
AcDbLinetypeTableRecord
2
DOT
70
0
3
Dot . . . . . . . . . . . . . . . . . . . . . .
72
65
73
2
40
6.35
49
0
74
0
49
-6.35
74
0
0
LTYPE
5
33
330
5
100
AcDbSymbolTableRecord
100
AcDbLinetypeTableRecord
2
DOT2
70
0
3
Dot (.5x) .....................................
72
65
73
2
40
3.175
49
0
74
0
49
-3.175
74
0
0
LTYPE
5
34
330
5
100
AcDbSymbolTableRecord
100
AcDbLinetypeTableRecord
2
DOTX2
70
0
3
Dot (2x) .  .  .  .  .  .  .  .  .  .  .  .  .
72
65
73
2
40
12.7
49
0
74
0
49
-12.7
74
0
0
LTYPE
5
35
330
5
100
AcDbSymbolTableRecord
100
AcDbLinetypeTableRecord
2
DASHED
70
0
3
Dot . . . . . . . . . . . . . . . . . . . . . .
72
65
73
2
40
19.05
49
12.7
74
0
49
-6.35
74
0
0
LTYPE
5
36
330
5
100
AcDbSymbolTableRecord
100
AcDbLinetypeTableRecord
2
DASHED2
70
0
3
Dashed (.5x) _ _ _ _ _ _ _ _ _ _ _ _ _ _ _ _ _
72
65
73
2
40
9.525
49
6.35
74
0
49
-3.175
74
0
0
LTYPE
5
37
330
5
100
AcDbSymbolTableRecord
100
AcDbLinetypeTableRecord
2
DASHEDX2
70
0
3
Dashed (2x) ____  ____  ____  ____  ____  ___
72
65
73
2
40
38.1
49
25.4
74
0
49
-12.7
74
0
0
LTYPE
5
38
330
5
100
AcDbSymbolTableRecord
100
AcDbLinetypeTableRecord
2
DASHDOT
70
0
3
Dash dot __ . __ . __ . __ . __ . __ . __ . __
72
65
73
4
40
25.4
49
12.7
74
0
49
-6.35
74
0
49
0
74
0
49
-6.35
74
0
0
LTYPE
5
39
330
5
100
AcDbSymbolTableRecord
100
AcDbLinetypeTableRecord
2
DASHDOT2
70
0
3
Dash dot (.5x) _._._._._._._._._._._._._._._.
72
65
73
4
40
12.7
49
6.35
74
0
49
-3.175
74
0
49
0
74
0
49
-3.175
74
0
0
LTYPE
5
3A
330
5
100
AcDbSymbolTableRecord
100
AcDbLinetypeTableRecord
2
DASHDOTX2
70
0
3
Dash dot (2x) ____  .  ____  .  ____  .  ___
72
65
73
4
40
50.8
49
25.4
74
0
49
-12.7
74
0
49
0
74
0
49
-12.7
74
0
0
LTYPE
5
3B
330
5
100
AcDbSymbolTableRecord
100
AcDbLinetypeTableRecord
2
DIVIDE
70
0
3
Divide ____ . . ____ . . ____ . . ____ . . ____
72
65
73
6
40
31.75
49
12.7
74
0
49
-6.35
74
0
49
0
74
0
49
-6.35
74
0
49
0
74
0
49
-6.35
74
0
0
LTYPE
5
3C
330
5
100
AcDbSymbolTableRecord
100
AcDbLinetypeTableRecord
2
DIVIDE2
70
0
3
Divide (.5x) __..__..__..__..__..__..__..__.._
72
65
73
6
40
15.875
49
6.35
74
0
49
-3.175
74
0
49
0
74
0
49
-3.175
74
0
49
0
74
0
49
-3.175
74
0
0
LTYPE
5
3D
330
5
100
AcDbSymbolTableRecord
100
AcDbLinetypeTableRecord
2
DIVIDEX2
70
0
3
Divide (2x) ________  .  .  ________  .  .  _
72
65
73
6
40
63.5
49
25.4
74
0
49
-12.7
74
0
49
0
74
0
49
-12.7
74
0
49
0
74
0
49
-12.7
74
0
0
LTYPE
5
3E
330
5
100
AcDbSymbolTableRecord
100
AcDbLinetypeTableRecord
2
BORDER
70
0
3
Border __ __ . __ __ . __ __ . __ __ . __ __ .
72
65
73
6
40
44.45
49
12.7
74
0
49
-6.35
74
0
49
12.7
74
0
49
-6.35
74
0
49
0
74
0
49
-6.35
74
0
0
LTYPE
5
3F
330
5
100
AcDbSymbolTableRecord
100
AcDbLinetypeTableRecord
2
BORDER2
70
0
3
Border (.5x) __.__.__.__.__.__.__.__.__.__.__.
72
65
73
6
40
22.225
49
6.35
74
0
49
-3.175
74
0
49
6.35
74
0
49
-3.175
74
0
49
0
74
0
49
-3.175
74
0
0
LTYPE
5
40
330
5
100
AcDbSymbolTableRecord
100
AcDbLinetypeTableRecord
2
BORDERX2
70
0
3
Border (2x) ____  ____  .  ____  ____  .  ___
72
65
73
6
40
88.9
49
25.4
74
0
49
-12.7
74
0
49
25.4
74
0
49
-12.7
74
0
49
0
74
0
49
-12.7
74
0
0
LTYPE
5
41
330
5
100
AcDbSymbolTableRecord
100
AcDbLinetypeTableRecord
2
CENTER
70
0
3
Center ____ _ ____ _ ____ _ ____ _ ____ _ ____
72
65
73
4
40
50.8
49
31.75
74
0
49
-6.35
74
0
49
6.35
74
0
49
-6.35
74
0
0
LTYPE
5
42
330
5
100
AcDbSymbolTableRecord
100
AcDbLinetypeTableRecord
2
CENTER2
70
0
3
Center (.5x) ___ _ ___ _ ___ _ ___ _ ___ _ ___
72
65
73
4
40
28.575
49
19.05
74
0
49
-3.175
74
0
49
3.175
74
0
49
-3.175
74
0
0
LTYPE
5
43
330
5
100
AcDbSymbolTableRecord
100
AcDbLinetypeTableRecord
2
CENTERX2
70
0
3
Center (2x) ________  __  ________  __  _____
72
65
73
4
40
101.6
49
63.5
74
0
49
-12.7
74
0
49
12.7
74
0
49
-12.7
74
0
0
ENDTAB
0
TABLE
2
LAYER
5
2
330
0
100
AcDbSymbolTable
70
1
0
LAYER
5
10
330
2
100
AcDbSymbolTableRecord
100
AcDbLayerTableRecord
2
0
70
4
62
7
6
CONTINUOUS
370
0
390
F
0
LAYER
5
44
330
2
100
AcDbSymbolTableRecord
100
AcDbLayerTableRecord
2
Construction
70
5
62
2
6
CONTINUOUS
370
13
390
F
0
LAYER
5
45
330
2
100
AcDbSymbolTableRecord
100
AcDbLayerTableRecord
2
Construction2
70
5
62
56
420
8421376
6
CONTINUOUS
370
13
390
F
0
LAYER
5
46
330
2
100
AcDbSymbolTableRecord
100
AcDbLayerTableRecord
2
Frame
70
4
62
8
6
CONTINUOUS
370
13
390
F
0
LAYER
5
47
330
2
100
AcDbSymbolTableRecord
100
AcDbLayerTableRecord
2
JoinCaoutchouc
70
4
62
3
6
CONTINUOUS
370
13
390
F
0
LAYER
5
48
330
2
100
AcDbSymbolTableRecord
100
AcDbLayerTableRecord
2
PiedAlready
70
4
62
6
6
CONTINUOUS
370
13
390
F
0
LAYER
5
49
330
2
100
AcDbSymbolTableRecord
100
AcDbLayerTableRecord
2
TopArc
70
0
62
4
6
CONTINUOUS
370
13
390
F
0
LAYER
5
4A
330
2
100
AcDbSymbolTableRecord
100
AcDbLayerTableRecord
2
Vis
70
4
62
4
6
CONTINUOUS
370
13
390
F
0
ENDTAB
0
TABLE
2
STYLE
5
3
330
0
100
AcDbSymbolTable
70
3
0
STYLE
5
4B
330
2
100
AcDbSymbolTableRecord
100
AcDbTextStyleTableRecord
2
Standard
70
0
40
0
41
1
50
0
71
0
42
1
3
txt
4

0
ENDTAB
0
TABLE
2
VIEW
5
6
330
0
100
AcDbSymbolTable
70
0
0
ENDTAB
0
TABLE
2
UCS
5
7
330
0
100
AcDbSymbolTable
70
0
0
ENDTAB
0
TABLE
2
APPID
5
9
330
0
100
AcDbSymbolTable
70
1
0
APPID
5
12
330
9
100
AcDbSymbolTableRecord
100
AcDbRegAppTableRecord
2
ACAD
70
0
0
ENDTAB
0
TABLE
2
DIMSTYLE
5
A
330
0
100
AcDbSymbolTable
70
1
100
AcDbDimStyleTable
71
1
0
DIMSTYLE
105
4C
330
A
100
AcDbSymbolTableRecord
100
AcDbDimStyleTableRecord
2
Standard
70
0
40
1
41
2.5
42
0.625
43
0.38
44
1.25
45
0
46
0
47
0
48
0
140
2.5
141
0.09
142
0
143
25.4
144
1
145
0
146
1
147
0.625
148
0
71
0
72
0
73
0
74
1
75
0
76
0
77
0
78
0
79
0
170
0
171
2
172
0
173
0
174
0
175
0
176
0
177
0
178
0
179
0
271
4
272
4
273
2
274
2
275
0
276
0
277
2
278
46
279
0
280
0
281
0
282
0
283
1
284
0
285
0
286
0
288
0
289
3
340
Standard
341

371
-2
372
-2
0
ENDTAB
0
TABLE
2
BLOCK_RECORD
5
1
330
0
100
AcDbSymbolTable
70
2
0
BLOCK_RECORD
5
1F
330
1
100
AcDbSymbolTableRecord
100
AcDbBlockTableRecord
2
*Model_Space
70
0
280
1
281
0
0
BLOCK_RECORD
5
1E
330
1
100
AcDbSymbolTableRecord
100
AcDbBlockTableRecord
2
*Paper_Space
70
0
280
1
281
0
0
ENDTAB
0
ENDSEC
0
SECTION
2
BLOCKS
0
BLOCK
5
20
330
1F
100
AcDbEntity
8
0
100
AcDbBlockBegin
2
*Model_Space
70
0
10
0
20
0
30
0
3
*Model_Space
1

0
ENDBLK
5
21
330
1F
100
AcDbEntity
8
0
100
AcDbBlockEnd
0
BLOCK
5
1C
330
1B
100
AcDbEntity
8
0
100
AcDbBlockBegin
2
*Paper_Space
70
0
10
0
20
0
30
0
3
*Paper_Space
1

0
ENDBLK
5
1D
330
1F
100
AcDbEntity
8
0
100
AcDbBlockEnd
0
ENDSEC
0
SECTION
2
ENTITIES
0
LINE
5
4D
100
AcDbEntity
8
Construction
6
ByLayer
62
256
370
-1
100
AcDbLine
10
100
20
0
11
100
21
10
0
LINE
5
4E
100
AcDbEntity
8
Construction
6
ByLayer
62
256
370
-1
100
AcDbLine
10
100
20
100
11
100
21
110
0
LINE
5
4F
100
AcDbEntity
8
Construction
6
ByLayer
62
256
370
-1
100
AcDbLine
10
110
20
100
11
110
21
110
0
LINE
5
50
100
AcDbEntity
8
Construction
6
ByLayer
62
256
370
-1
100
AcDbLine
10
120
20
100
11
120
21
110
0
LINE
5
51
100
AcDbEntity
8
Construction
6
ByLayer
62
256
370
-1
100
AcDbLine
10
130
20
100
11
130
21
110
0
LINE
5
52
100
AcDbEntity
8
Construction
6
ByLayer
62
256
370
-1
100
AcDbLine
10
140
20
100
11
140
21
110
0
LINE
5
53
100
AcDbEntity
8
Construction
6
ByLayer
62
256
370
-1
100
AcDbLine
10
150
20
100
11
150
21
110
0
LINE
5
54
100
AcDbEntity
8
Construction
6
ByLayer
62
256
370
-1
100
AcDbLine
10
160
20
100
11
160
21
110
0
LINE
5
55
100
AcDbEntity
8
Construction
6
ByLayer
62
256
370
-1
100
AcDbLine
10
170
20
100
11
170
21
110
0
LINE
5
56
100
AcDbEntity
8
Construction
6
ByLayer
62
256
370
-1
100
AcDbLine
10
180
20
100
11
180
21
110
0
LINE
5
57
100
AcDbEntity
8
Construction
6
ByLayer
62
256
370
-1
100
AcDbLine
10
190
20
100
11
190
21
110
0
LINE
5
58
100
AcDbEntity
8
Construction
6
ByLayer
62
256
370
-1
100
AcDbLine
10
90
20
100
11
90
21
110
0
LINE
5
59
100
AcDbEntity
8
Construction
6
ByLayer
62
256
370
-1
100
AcDbLine
10
90
20
0
11
90
21
10
0
LINE
5
5A
100
AcDbEntity
8
Construction
6
ByLayer
62
256
370
-1
100
AcDbLine
10
70
20
0
11
70
21
10
0
LINE
5
5B
100
AcDbEntity
8
Construction
6
ByLayer
62
256
370
-1
100
AcDbLine
10
80
20
0
11
80
21
10
0
LINE
5
5C
100
AcDbEntity
8
Construction
6
ByLayer
62
256
370
-1
100
AcDbLine
10
60
20
0
11
60
21
10
0
LINE
5
5D
100
AcDbEntity
8
Construction
6
ByLayer
62
256
370
-1
100
AcDbLine
10
50
20
0
11
50
21
10
0
LINE
5
5E
100
AcDbEntity
8
Construction
6
ByLayer
62
256
370
-1
100
AcDbLine
10
40
20
0
11
40
21
10
0
LINE
5
5F
100
AcDbEntity
8
Construction
6
ByLayer
62
256
370
-1
100
AcDbLine
10
30
20
0
11
30
21
10
0
LINE
5
60
100
AcDbEntity
8
Construction
6
ByLayer
62
256
370
-1
100
AcDbLine
10
20
20
0
11
20
21
10
0
LINE
5
61
100
AcDbEntity
8
Construction
6
ByLayer
62
256
370
-1
100
AcDbLine
10
-30
20
0
11
-30
21
10
0
LINE
5
62
100
AcDbEntity
8
Construction
6
ByLayer
62
256
370
-1
100
AcDbLine
10
-50
20
0
11
-50
21
10
0
LINE
5
63
100
AcDbEntity
8
Construction
6
ByLayer
62
256
370
-1
100
AcDbLine
10
-60
20
0
11
-60
21
10
0
LINE
5
64
100
AcDbEntity
8
Construction
6
ByLayer
62
256
370
-1
100
AcDbLine
10
-40
20
0
11
-40
21
10
0
LINE
5
65
100
AcDbEntity
8
Construction
6
ByLayer
62
256
370
-1
100
AcDbLine
10
-70
20
0
11
-70
21
10
0
LINE
5
66
100
AcDbEntity
8
Construction
6
ByLayer
62
256
370
-1
100
AcDbLine
10
-80
20
0
11
-80
21
10
0
LINE
5
67
100
AcDbEntity
8
Construction
6
ByLayer
62
256
370
-1
100
AcDbLine
10
-90
20
0
11
-90
21
10
0
LINE
5
68
100
AcDbEntity
8
Construction
6
ByLayer
62
256
370
-1
100
AcDbLine
10
-100
20
0
11
-100
21
10
0
LINE
5
69
100
AcDbEntity
8
Construction
6
ByLayer
62
256
370
-1
100
AcDbLine
10
-110
20
0
11
-110
21
10
0
LINE
5
6A
100
AcDbEntity
8
Construction
6
ByLayer
62
256
370
-1
100
AcDbLine
10
-130
20
0
11
-130
21
10
0
LINE
5
6B
100
AcDbEntity
8
Construction
6
ByLayer
62
256
370
-1
100
AcDbLine
10
-120
20
0
11
-120
21
10
0
LINE
5
6C
100
AcDbEntity
8
Construction
6
ByLayer
62
256
370
-1
100
AcDbLine
10
-150
20
0
11
-150
21
10
0
LINE
5
6D
100
AcDbEntity
8
Construction
6
ByLayer
62
256
370
-1
100
AcDbLine
10
-140
20
0
11
-140
21
10
0
LINE
5
6E
100
AcDbEntity
8
Construction
6
ByLayer
62
256
370
-1
100
AcDbLine
10
-150
20
0
11
-150
21
10
0
LINE
5
6F
100
AcDbEntity
8
Construction
6
ByLayer
62
256
370
-1
100
AcDbLine
10
-160
20
0
11
-160
21
10
0
LINE
5
70
100
AcDbEntity
8
Construction
6
ByLayer
62
256
370
-1
100
AcDbLine
10
-180
20
0
11
-180
21
10
0
LINE
5
71
100
AcDbEntity
8
Construction
6
ByLayer
62
256
370
-1
100
AcDbLine
10
-170
20
0
11
-170
21
10
0
LINE
5
72
100
AcDbEntity
8
Construction
6
ByLayer
62
256
370
-1
100
AcDbLine
10
-180
20
0
11
-180
21
10
0
LINE
5
73
100
AcDbEntity
8
Construction
6
ByLayer
62
256
370
-1
100
AcDbLine
10
-200
20
0
11
-200
21
10
0
LINE
5
74
100
AcDbEntity
8
Construction
6
ByLayer
62
256
370
-1
100
AcDbLine
10
-190
20
0
11
-190
21
10
0
LINE
5
75
100
AcDbEntity
8
Construction
6
ByLayer
62
256
370
-1
100
AcDbLine
10
-210
20
0
11
-210
21
10
0
LINE
5
76
100
AcDbEntity
8
Construction
6
ByLayer
62
256
370
-1
100
AcDbLine
10
-220
20
0
11
-220
21
10
0
LINE
5
77
100
AcDbEntity
8
Construction
6
ByLayer
62
256
370
-1
100
AcDbLine
10
-230
20
0
11
-230
21
10
0
LINE
5
78
100
AcDbEntity
8
Construction
6
ByLayer
62
256
370
-1
100
AcDbLine
10
-240
20
0
11
-240
21
10
0
LINE
5
79
100
AcDbEntity
8
Construction
6
ByLayer
62
256
370
-1
100
AcDbLine
10
-250
20
0
11
-250
21
10
0
LINE
5
7A
100
AcDbEntity
8
Construction
6
ByLayer
62
256
370
-1
100
AcDbLine
10
-260
20
0
11
-260
21
10
0
LINE
5
7B
100
AcDbEntity
8
Construction
6
ByLayer
62
256
370
-1
100
AcDbLine
10
-270
20
0
11
-270
21
10
0
LINE
5
7C
100
AcDbEntity
8
Construction
6
ByLayer
62
256
370
-1
100
AcDbLine
10
-280
20
0
11
-280
21
10
0
LINE
5
7D
100
AcDbEntity
8
Construction
6
ByLayer
62
256
370
-1
100
AcDbLine
10
-290
20
0
11
-290
21
10
0
LINE
5
7E
100
AcDbEntity
8
Construction
6
ByLayer
62
256
370
-1
100
AcDbLine
10
-300
20
0
11
-300
21
10
0
LINE
5
7F
100
AcDbEntity
8
Construction
6
ByLayer
62
256
370
-1
100
AcDbLine
10
-310
20
0
11
-310
21
10
0
LINE
5
80
100
AcDbEntity
8
Construction
6
ByLayer
62
256
370
-1
100
AcDbLine
10
-320
20
0
11
-320
21
10
0
LINE
5
81
100
AcDbEntity
8
Construction
6
ByLayer
62
256
370
-1
100
AcDbLine
10
200
20
0
11
200
21
10
0
LINE
5
82
100
AcDbEntity
8
Construction
6
ByLayer
62
256
370
-1
100
AcDbLine
10
210
20
0
11
210
21
10
0
LINE
5
83
100
AcDbEntity
8
Construction
6
ByLayer
62
256
370
-1
100
AcDbLine
10
220
20
0
11
220
21
10
0
LINE
5
84
100
AcDbEntity
8
Construction
6
ByLayer
62
256
370
-1
100
AcDbLine
10
230
20
0
11
230
21
10
0
LINE
5
85
100
AcDbEntity
8
Construction
6
ByLayer
62
256
370
-1
100
AcDbLine
10
240
20
0
11
240
21
10
0
LINE
5
86
100
AcDbEntity
8
Construction
6
ByLayer
62
256
370
-1
100
AcDbLine
10
250
20
0
11
250
21
10
0
LINE
5
87
100
AcDbEntity
8
Construction
6
ByLayer
62
256
370
-1
100
AcDbLine
10
260
20
0
11
260
21
10
0
LINE
5
88
100
AcDbEntity
8
Construction
6
ByLayer
62
256
370
-1
100
AcDbLine
10
270
20
0
11
270
21
10
0
LINE
5
89
100
AcDbEntity
8
Construction
6
ByLayer
62
256
370
-1
100
AcDbLine
10
280
20
0
11
280
21
10
0
LINE
5
8A
100
AcDbEntity
8
Construction
6
ByLayer
62
256
370
-1
100
AcDbLine
10
290
20
0
11
290
21
10
0
LINE
5
8B
100
AcDbEntity
8
Construction
6
ByLayer
62
256
370
-1
100
AcDbLine
10
300
20
0
11
300
21
10
0
LINE
5
8C
100
AcDbEntity
8
Construction
6
ByLayer
62
256
370
-1
100
AcDbLine
10
310
20
0
11
310
21
10
0
LINE
5
8D
100
AcDbEntity
8
Construction
6
ByLayer
62
256
370
-1
100
AcDbLine
10
320
20
0
11
320
21
10
0
LINE
5
8E
100
AcDbEntity
8
Construction
6
ByLayer
62
256
370
-1
100
AcDbLine
10
330
20
0
11
330
21
10
0
LINE
5
8F
100
AcDbEntity
8
Construction
6
ByLayer
62
256
370
-1
100
AcDbLine
10
350
20
0
11
350
21
10
0
LINE
5
90
100
AcDbEntity
8
Construction
6
ByLayer
62
256
370
-1
100
AcDbLine
10
340
20
0
11
340
21
10
0
LINE
5
91
100
AcDbEntity
8
Construction
6
ByLayer
62
256
370
-1
100
AcDbLine
10
360
20
0
11
360
21
10
0
LINE
5
92
100
AcDbEntity
8
Construction
6
ByLayer
62
256
370
-1
100
AcDbLine
10
380
20
0
11
380
21
10
0
LINE
5
93
100
AcDbEntity
8
Construction
6
ByLayer
62
256
370
-1
100
AcDbLine
10
370
20
0
11
370
21
10
0
LINE
5
94
100
AcDbEntity
8
Construction
6
ByLayer
62
256
370
-1
100
AcDbLine
10
390
20
0
11
390
21
10
0
LINE
5
95
100
AcDbEntity
8
Construction
6
ByLayer
62
256
370
-1
100
AcDbLine
10
410
20
0
11
410
21
10
0
LINE
5
96
100
AcDbEntity
8
Construction
6
ByLayer
62
256
370
-1
100
AcDbLine
10
400
20
0
11
400
21
10
0
LINE
5
97
100
AcDbEntity
8
Construction
6
ByLayer
62
256
370
-1
100
AcDbLine
10
-330
20
0
11
-330
21
10
0
LINE
5
98
100
AcDbEntity
8
Construction
6
ByLayer
62
256
370
-1
100
AcDbLine
10
-340
20
0
11
-340
21
10
0
LINE
5
99
100
AcDbEntity
8
Construction
6
ByLayer
62
256
370
-1
100
AcDbLine
10
-360
20
0
11
-360
21
10
0
LINE
5
9A
100
AcDbEntity
8
Construction
6
ByLayer
62
256
370
-1
100
AcDbLine
10
-350
20
0
11
-350
21
10
0
LINE
5
9B
100
AcDbEntity
8
Construction
6
ByLayer
62
256
370
-1
100
AcDbLine
10
-370
20
0
11
-370
21
10
0
LINE
5
9C
100
AcDbEntity
8
Construction
6
ByLayer
62
256
370
-1
100
AcDbLine
10
-380
20
0
11
-380
21
10
0
LINE
5
9D
100
AcDbEntity
8
Construction
6
ByLayer
62
256
370
-1
100
AcDbLine
10
-390
20
0
11
-390
21
10
0
LINE
5
9E
100
AcDbEntity
8
Construction
6
ByLayer
62
256
370
-1
100
AcDbLine
10
-400
20
0
11
-400
21
10
0
LINE
5
9F
100
AcDbEntity
8
Construction
6
ByLayer
62
256
370
-1
100
AcDbLine
10
-410
20
0
11
-410
21
10
0
LINE
5
A0
100
AcDbEntity
8
Construction
6
ByLayer
62
256
370
-1
100
AcDbLine
10
-430
20
0
11
-430
21
10
0
LINE
5
A1
100
AcDbEntity
8
Construction
6
ByLayer
62
256
370
-1
100
AcDbLine
10
-420
20
0
11
-420
21
10
0
LINE
5
A2
100
AcDbEntity
8
Construction
6
ByLayer
62
256
370
-1
100
AcDbLine
10
-440
20
0
11
-440
21
10
0
LINE
5
A3
100
AcDbEntity
8
Construction
6
ByLayer
62
256
370
-1
100
AcDbLine
10
-450
20
0
11
-450
21
10
0
LINE
5
A4
100
AcDbEntity
8
Construction
6
ByLayer
62
256
370
-1
100
AcDbLine
10
-460
20
0
11
-460
21
10
0
LINE
5
A5
100
AcDbEntity
8
Construction
6
ByLayer
62
256
370
-1
100
AcDbLine
10
-470
20
0
11
-470
21
10
0
LINE
5
A6
100
AcDbEntity
8
Construction
6
ByLayer
62
256
370
-1
100
AcDbLine
10
420
20
0
11
420
21
10
0
LINE
5
A7
100
AcDbEntity
8
Construction
6
ByLayer
62
256
370
-1
100
AcDbLine
10
440
20
0
11
440
21
10
0
LINE
5
A8
100
AcDbEntity
8
Construction
6
ByLayer
62
256
370
-1
100
AcDbLine
10
430
20
0
11
430
21
10
0
LINE
5
A9
100
AcDbEntity
8
Construction
6
ByLayer
62
256
370
-1
100
AcDbLine
10
450
20
0
11
450
21
10
0
LINE
5
AA
100
AcDbEntity
8
Construction
6
ByLayer
62
256
370
-1
100
AcDbLine
10
460
20
0
11
460
21
10
0
LINE
5
AB
100
AcDbEntity
8
Construction
6
ByLayer
62
256
370
-1
100
AcDbLine
10
480
20
0
11
480
21
10
0
LINE
5
AC
100
AcDbEntity
8
Construction
6
ByLayer
62
256
370
-1
100
AcDbLine
10
470
20
0
11
470
21
10
0
LINE
5
AD
100
AcDbEntity
8
Construction
6
ByLayer
62
256
370
-1
100
AcDbLine
10
490
20
0
11
490
21
10
0
LINE
5
AE
100
AcDbEntity
8
Construction
6
ByLayer
62
256
370
-1
100
AcDbLine
10
500
20
0
11
500
21
10
0
LINE
5
AF
100
AcDbEntity
8
Construction
6
ByLayer
62
256
370
-1
100
AcDbLine
10
510
20
0
11
510
21
10
0
LINE
5
B0
100
AcDbEntity
8
Construction
6
ByLayer
62
256
370
-1
100
AcDbLine
10
520
20
0
11
520
21
10
0
LINE
5
B1
100
AcDbEntity
8
Construction
6
ByLayer
62
256
370
-1
100
AcDbLine
10
530
20
0
11
530
21
10
0
LINE
5
B2
100
AcDbEntity
8
Construction
6
ByLayer
62
256
370
-1
100
AcDbLine
10
550
20
0
11
550
21
10
0
LINE
5
B3
100
AcDbEntity
8
Construction
6
ByLayer
62
256
370
-1
100
AcDbLine
10
540
20
0
11
540
21
10
0
LINE
5
B4
100
AcDbEntity
8
Construction
6
ByLayer
62
256
370
-1
100
AcDbLine
10
560
20
0
11
560
21
10
0
LINE
5
B5
100
AcDbEntity
8
Construction
6
ByLayer
62
256
370
-1
100
AcDbLine
10
580
20
0
11
580
21
10
0
LINE
5
B6
100
AcDbEntity
8
Construction
6
ByLayer
62
256
370
-1
100
AcDbLine
10
570
20
0
11
570
21
10
0
LINE
5
B7
100
AcDbEntity
8
Construction
6
ByLayer
62
256
370
-1
100
AcDbLine
10
590
20
0
11
590
21
10
0
LINE
5
B8
100
AcDbEntity
8
Construction
6
ByLayer
62
256
370
-1
100
AcDbLine
10
600
20
0
11
600
21
10
0
LINE
5
B9
100
AcDbEntity
8
Construction
6
ByLayer
62
256
370
-1
100
AcDbLine
10
610
20
0
11
610
21
10
0
LINE
5
BA
100
AcDbEntity
8
Construction
6
ByLayer
62
256
370
-1
100
AcDbLine
10
0
20
20
11
1
21
20
0
LINE
5
BB
100
AcDbEntity
8
Construction
6
ByLayer
62
256
370
-1
100
AcDbLine
10
0
20
20
11
1
21
20
0
LINE
5
BC
100
AcDbEntity
8
Construction
6
ByLayer
62
256
370
-1
100
AcDbLine
10
0
20
30
11
1
21
30
0
LINE
5
BD
100
AcDbEntity
8
Construction
6
ByLayer
62
256
370
-1
100
AcDbLine
10
0
20
40
11
1
21
40
0
LINE
5
BE
100
AcDbEntity
8
Construction
6
ByLayer
62
256
370
-1
100
AcDbLine
10
0
20
40
11
1
21
40
0
LINE
5
BF
100
AcDbEntity
8
Construction
6
ByLayer
62
256
370
-1
100
AcDbLine
10
0
20
50
11
1
21
50
0
LINE
5
C0
100
AcDbEntity
8
Construction
6
ByLayer
62
256
370
-1
100
AcDbLine
10
0
20
60
11
1
21
60
0
LINE
5
C1
100
AcDbEntity
8
Construction
6
ByLayer
62
256
370
-1
100
AcDbLine
10
0
20
80
11
1
21
80
0
LINE
5
C2
100
AcDbEntity
8
Construction
6
ByLayer
62
256
370
-1
100
AcDbLine
10
0
20
70
11
1
21
70
0
LINE
5
C3
100
AcDbEntity
8
Construction
6
ByLayer
62
256
370
-1
100
AcDbLine
10
0
20
90
11
1
21
90
0
LINE
5
C4
100
AcDbEntity
8
Construction
6
ByLayer
62
256
370
-1
100
AcDbLine
10
0
20
100
11
1
21
100
0
LINE
5
C5
100
AcDbEntity
8
Construction
6
ByLayer
62
256
370
-1
100
AcDbLine
10
0
20
110
11
1
21
110
0
LINE
5
C6
100
AcDbEntity
8
Construction
6
ByLayer
62
256
370
-1
100
AcDbLine
10
0
20
120
11
1
21
120
0
LINE
5
C7
100
AcDbEntity
8
Construction
6
ByLayer
62
256
370
-1
100
AcDbLine
10
0
20
130
11
1
21
130
0
LINE
5
C8
100
AcDbEntity
8
Construction
6
ByLayer
62
256
370
-1
100
AcDbLine
10
0
20
140
11
1
21
140
0
LINE
5
C9
100
AcDbEntity
8
Construction
6
ByLayer
62
256
370
-1
100
AcDbLine
10
0
20
150
11
1
21
150
0
LINE
5
CA
100
AcDbEntity
8
Construction
6
ByLayer
62
256
370
-1
100
AcDbLine
10
0
20
160
11
1
21
160
0
LINE
5
CB
100
AcDbEntity
8
Construction
6
ByLayer
62
256
370
-1
100
AcDbLine
10
0
20
170
11
1
21
170
0
LINE
5
CC
100
AcDbEntity
8
Construction
6
ByLayer
62
256
370
-1
100
AcDbLine
10
0
20
180
11
1
21
180
0
LINE
5
CD
100
AcDbEntity
8
Construction
6
ByLayer
62
256
370
-1
100
AcDbLine
10
0
20
190
11
1
21
190
0
LINE
5
CE
100
AcDbEntity
8
Construction
6
ByLayer
62
256
370
-1
100
AcDbLine
10
0
20
200
11
1
21
200
0
LINE
5
CF
100
AcDbEntity
8
Construction
6
ByLayer
62
256
370
-1
100
AcDbLine
10
0
20
210
11
1
21
210
0
LINE
5
D0
100
AcDbEntity
8
Construction
6
ByLayer
62
256
370
-1
100
AcDbLine
10
0
20
220
11
1
21
220
0
LINE
5
D1
100
AcDbEntity
8
Construction
6
ByLayer
62
256
370
-1
100
AcDbLine
10
0
20
230
11
1
21
230
0
LINE
5
D2
100
AcDbEntity
8
Construction
6
ByLayer
62
256
370
-1
100
AcDbLine
10
30
20
-10
11
31
21
-10
0
LINE
5
D3
100
AcDbEntity
8
Construction
6
ByLayer
62
256
370
-1
100
AcDbLine
10
0
20
-20
11
1
21
-20
0
LINE
5
D4
100
AcDbEntity
8
Construction
6
ByLayer
62
256
370
-1
100
AcDbLine
10
0
20
-30
11
1
21
-30
0
LINE
5
D5
100
AcDbEntity
8
Construction
6
ByLayer
62
256
370
-1
100
AcDbLine
10
0
20
-40
11
1
21
-40
0
LINE
5
D6
100
AcDbEntity
8
Construction
6
ByLayer
62
256
370
-1
100
AcDbLine
10
0
20
-50
11
1
21
-50
0
LINE
5
D7
100
AcDbEntity
8
Construction
6
ByLayer
62
256
370
-1
100
AcDbLine
10
0
20
-60
11
1
21
-60
0
LINE
5
D8
100
AcDbEntity
8
Construction
6
ByLayer
62
256
370
-1
100
AcDbLine
10
0
20
-70
11
1
21
-70
0
LINE
5
D9
100
AcDbEntity
8
Construction
6
ByLayer
62
256
370
-1
100
AcDbLine
10
0
20
-80
11
1
21
-80
0
LINE
5
DA
100
AcDbEntity
8
Construction
6
ByLayer
62
256
370
-1
100
AcDbLine
10
0
20
-80
11
1
21
-80
0
LINE
5
DB
100
AcDbEntity
8
Construction
6
ByLayer
62
256
370
-1
100
AcDbLine
10
0
20
-90
11
1
21
-90
0
LINE
5
DC
100
AcDbEntity
8
Construction
6
ByLayer
62
256
370
-1
100
AcDbLine
10
0
20
-100
11
1
21
-100
0
LINE
5
DD
100
AcDbEntity
8
Construction
6
ByLayer
62
256
370
-1
100
AcDbLine
10
0
20
-110
11
1
21
-110
0
LINE
5
DE
100
AcDbEntity
8
Construction
6
ByLayer
62
256
370
-1
100
AcDbLine
10
0
20
-120
11
1
21
-120
0
LINE
5
DF
100
AcDbEntity
8
Construction
6
ByLayer
62
256
370
-1
100
AcDbLine
10
0
20
-130
11
1
21
-130
0
LINE
5
E0
100
AcDbEntity
8
Construction
6
ByLayer
62
256
370
-1
100
AcDbLine
10
0
20
-150
11
1
21
-150
0
LINE
5
E1
100
AcDbEntity
8
Construction
6
ByLayer
62
256
370
-1
100
AcDbLine
10
0
20
-140
11
1
21
-140
0
LINE
5
E2
100
AcDbEntity
8
Construction
6
ByLayer
62
256
370
-1
100
AcDbLine
10
0
20
-160
11
1
21
-160
0
LINE
5
E3
100
AcDbEntity
8
Construction
6
ByLayer
62
256
370
-1
100
AcDbLine
10
0
20
-170
11
1
21
-170
0
LINE
5
E4
100
AcDbEntity
8
Construction
6
ByLayer
62
256
370
-1
100
AcDbLine
10
0
20
-180
11
1
21
-180
0
LINE
5
E5
100
AcDbEntity
8
Construction
6
ByLayer
62
256
370
-1
100
AcDbLine
10
0
20
-200
11
1
21
-200
0
LINE
5
E6
100
AcDbEntity
8
Construction
6
ByLayer
62
256
370
-1
100
AcDbLine
10
0
20
-210
11
1
21
-210
0
LINE
5
E7
100
AcDbEntity
8
Construction
6
ByLayer
62
256
370
-1
100
AcDbLine
10
0
20
-190
11
1
21
-190
0
LINE
5
E8
100
AcDbEntity
8
Construction
6
ByLayer
62
256
370
-1
100
AcDbLine
10
0
20
-220
11
1
21
-220
0
LINE
5
E9
100
AcDbEntity
8
Construction
6
ByLayer
62
256
370
-1
100
AcDbLine
10
0
20
-240
11
1
21
-240
0
LINE
5
EA
100
AcDbEntity
8
Construction
6
ByLayer
62
256
370
-1
100
AcDbLine
10
0
20
-260
11
1
21
-260
0
LINE
5
EB
100
AcDbEntity
8
Construction
6
ByLayer
62
256
370
-1
100
AcDbLine
10
0
20
-230
11
1
21
-230
0
LINE
5
EC
100
AcDbEntity
8
Construction
6
ByLayer
62
256
370
-1
100
AcDbLine
10
0
20
-250
11
1
21
-250
0
LINE
5
ED
100
AcDbEntity
8
Construction
6
ByLayer
62
256
370
-1
100
AcDbLine
10
0
20
-270
11
1
21
-270
0
LINE
5
EE
100
AcDbEntity
8
Construction
6
ByLayer
62
256
370
-1
100
AcDbLine
10
-10
20
-270
11
-9
21
-270
0
LINE
5
EF
100
AcDbEntity
8
Construction
6
ByLayer
62
256
370
-1
100
AcDbLine
10
-10
20
-280
11
-9
21
-280
0
LINE
5
F0
100
AcDbEntity
8
Construction
6
ByLayer
62
256
370
-1
100
AcDbLine
10
-10
20
-290
11
-9
21
-290
0
LINE
5
F1
100
AcDbEntity
8
Construction
6
ByLayer
62
256
370
-1
100
AcDbLine
10
-10
20
-310
11
-9
21
-310
0
LINE
5
F2
100
AcDbEntity
8
Construction
6
ByLayer
62
256
370
-1
100
AcDbLine
10
-10
20
-320
11
-9
21
-320
0
LINE
5
F3
100
AcDbEntity
8
Construction
6
ByLayer
62
256
370
-1
100
AcDbLine
10
-10
20
-330
11
-9
21
-330
0
LINE
5
F4
100
AcDbEntity
8
Construction
6
ByLayer
62
256
370
-1
100
AcDbLine
10
-10
20
-300
11
-9
21
-300
0
LINE
5
F5
100
AcDbEntity
8
Construction
6
ByLayer
62
256
370
-1
100
AcDbLine
10
-10
20
-340
11
-9
21
-340
0
LINE
5
F6
100
AcDbEntity
8
Construction
6
ByLayer
62
256
370
-1
100
AcDbLine
10
-10
20
-350
11
-9
21
-350
0
LINE
5
F7
100
AcDbEntity
8
Construction
6
ByLayer
62
256
370
-1
100
AcDbLine
10
30
20
0
11
30
21
10
0
LINE
5
F8
100
AcDbEntity
8
Construction
6
ByLayer
62
256
370
-1
100
AcDbLine
10
0
20
20
11
6.12303176911e-17
21
21
0
LINE
5
F9
100
AcDbEntity
8
Construction
6
ByLayer
62
256
370
-1
100
AcDbLine
10
20
20
20
11
20
21
21
0
LINE
5
FA
100
AcDbEntity
8
Construction
6
ByLayer
62
256
370
-1
100
AcDbLine
10
60
20
20
11
60
21
21
0
LINE
5
FB
100
AcDbEntity
8
Construction
6
ByLayer
62
256
370
-1
100
AcDbLine
10
100
20
20
11
100
21
21
0
LINE
5
FC
100
AcDbEntity
8
Construction
6
ByLayer
62
256
370
-1
100
AcDbLine
10
100
20
30
11
100
21
31
0
LINE
5
FD
100
AcDbEntity
8
Construction
6
ByLayer
62
256
370
13
100
AcDbLine
10
-100
20
30
11
-100
21
31
0
LINE
5
FE
100
AcDbEntity
8
Construction
6
ByLayer
62
256
370
13
100
AcDbLine
10
-100
20
0
11
-100
21
1
0
LINE
5
FF
100
AcDbEntity
8
Construction
6
ByLayer
62
256
370
13
100
AcDbLine
10
-100
20
10
11
-100
21
11
0
LINE
5
100
100
AcDbEntity
8
Construction
6
ByLayer
62
256
370
13
100
AcDbLine
10
-100
20
-20
11
-100
21
-19
0
LINE
5
101
100
AcDbEntity
8
Construction
6
ByLayer
62
256
370
13
100
AcDbLine
10
-100
20
-10
11
-100
21
-9
0
LINE
5
102
100
AcDbEntity
8
Construction
6
ByLayer
62
256
370
13
100
AcDbLine
10
-100
20
-20
11
-99
21
-20
0
LINE
5
103
100
AcDbEntity
8
Construction
6
ByLayer
62
256
370
13
100
AcDbLine
10
-70
20
-20
11
-69
21
-20
0
LINE
5
104
100
AcDbEntity
8
Construction
6
ByLayer
62
256
370
13
100
AcDbLine
10
-70
20
10
11
-69
21
10
0
SPLINE
5
105
100
AcDbEntity
8
PiedAlready
6
ByLayer
62
256
370
13
100
AcDbSpline
210
0
220
0
230
1
70
8
71
2
72
6
73
3
74
0
42
1e-07
43
1e-07
40
0
40
0
40
0
40
1
40
1
40
1
10
-9.984
20
8.32
30
0
10
-9.55106879758
20
9.80870254576
30
0
10
-8.192
20
10.496
30
0
0
SPLINE
5
106
100
AcDbEntity
8
PiedAlready
6
ByLayer
62
256
370
13
100
AcDbSpline
210
0
220
0
230
1
70
8
71
2
72
6
73
3
74
0
42
1e-07
43
1e-07
40
0
40
0
40
0
40
1
40
1
40
1
10
11.6372310684
20
18.9467843698
30
0
10
20.859592709
20
21.6338444525
30
0
10
17.9819725922
20
12.3650831369
30
0
0
LINE
5
107
100
AcDbEntity
8
PiedAlready
6
ByLayer
62
256
370
13
100
AcDbLine
10
-7.03125
20
69.53125
11
53.90625
21
69.921875
0
ARC
5
108
100
AcDbEntity
8
PiedAlready
6
ByLayer
62
256
370
13
100
AcDbCircle
10
-8.54497993841
20
24.0687820325
40
3.49393089824
100
AcDbArc
50
245.493682885
51
291.034907937
0
LINE
5
109
100
AcDbEntity
8
PiedAlready
6
ByLayer
62
256
370
13
100
AcDbLine
10
-7.30624
20
20.79744
11
26.2144
21
35.47136
0
ARC
5
10A
100
AcDbEntity
8
PiedAlready
6
ByLayer
62
256
370
13
100
AcDbCircle
10
18.2617884444
20
44.0374613333
40
11.6885466422
100
AcDbArc
50
312.873065079
51
341.714611334
0
LINE
5
10B
100
AcDbEntity
8
PiedAlready
6
ByLayer
62
256
370
13
100
AcDbLine
10
29.3775763046
20
40.3898724516
11
40.697856
21
69.861376
0
LINE
5
10C
100
AcDbEntity
8
PiedAlready
6
ByLayer
62
256
370
13
100
AcDbLine
10
-9.99456069648
20
20.8797258115
11
-10.24
21
61.6448
0
SPLINE
5
10D
100
AcDbEntity
8
PiedAlready
6
ByLayer
62
256
370
13
100
AcDbSpline
210
0
220
0
230
1
70
8
71
2
72
6
73
3
74
0
42
1e-07
43
1e-07
40
0
40
0
40
0
40
1
40
1
40
1
10
-6.9206016
20
69.54156032
30
0
10
-8.33112875087
20
59.3945512403
30
0
10
-16.60944384
20
59.9785472
30
0
0
LINE
5
10E
100
AcDbEntity
8
PiedAlready
6
ByLayer
62
256
370
13
100
AcDbLine
10
-10.2411855526
20
61.6497752991
11
-10.236681953
21
61.9064804778
0
LINE
5
10F
100
AcDbEntity
8
PiedAlready
6
ByLayer
62
256
370
13
100
AcDbLine
10
-8.2678120448
20
10.4421392384
11
11.6328330219
21
18.9445853466
0
LINE
5
110
100
AcDbEntity
8
PiedAlready
6
ByLayer
62
256
370
13
100
AcDbLine
10
-16.6026255794
20
59.9563690626
11
-19.8241946488
21
59.9453739464
0
LINE
5
111
100
AcDbEntity
8
PiedAlready
6
ByLayer
62
256
370
13
100
AcDbLine
10
-19.8241946488
20
59.9453739464
11
-19.8022044162
21
59.7144765045
0
LINE
5
112
100
AcDbEntity
8
PiedAlready
6
ByLayer
62
256
370
13
100
AcDbLine
10
53.8898136564
20
69.9289395266
11
55.2642031911
21
69.9289395266
0
LINE
5
113
100
AcDbEntity
8
PiedAlready
6
ByLayer
62
256
370
13
100
AcDbLine
10
55.3019989033
20
79.9722910515
11
45.416448
21
79.95392
0
SPLINE
5
114
100
AcDbEntity
8
PiedAlready
6
ByLayer
62
256
370
13
100
AcDbSpline
210
0
220
0
230
1
70
8
71
2
72
6
73
3
74
0
42
1e-07
43
1e-07
40
0
40
0
40
0
40
1
40
1
40
1
10
55.2645717474
20
69.9318950138
30
0
10
61.2989341776
20
74.7237440737
30
0
10
55.3098329237
20
79.9670408835
30
0
0
LINE
5
115
100
AcDbEntity
8
PiedAlready
6
ByLayer
62
256
370
13
100
AcDbLine
10
-311.552
20
-3.968
11
-328.448
21
-3.968
0
LINE
5
116
100
AcDbEntity
8
PiedAlready
6
ByLayer
62
256
370
13
100
AcDbLine
10
45.46625536
20
79.960211456
11
-324.3008
21
79.9744
0
SPLINE
5
117
100
AcDbEntity
8
PiedAlready
6
ByLayer
62
256
370
13
100
AcDbSpline
210
0
220
0
230
1
70
8
71
2
72
6
73
3
74
0
42
1e-07
43
1e-07
40
0
40
0
40
0
40
1
40
1
40
1
10
-324.1984
20
79.9744
30
0
10
-330.087408797
20
77.3455441524
30
0
10
-329.985429728
20
71.0196550613
30
0
0
SPLINE
5
118
100
AcDbEntity
8
PiedAlready
6
ByLayer
62
256
370
13
100
AcDbSpline
210
0
220
0
230
1
70
8
71
2
72
6
73
3
74
0
42
1e-07
43
1e-07
40
0
40
0
40
0
40
1
40
1
40
1
10
-255.953207296
20
59.961769984
30
0
10
-300.049857873
20
59.5819744154
30
0
10
-310
20
19
30
0
0
LINE
5
119
100
AcDbEntity
8
PiedAlready
6
ByLayer
62
256
370
13
100
AcDbLine
10
-256
20
60
11
-232.189367996
21
59.9921031905
0
LINE
5
11A
100
AcDbEntity
8
PiedAlready
6
ByLayer
62
256
370
13
100
AcDbLine
10
-232.188708289
20
59.9823175371
11
-19.808801486
21
59.9541700394
0
ARC
5
11B
100
AcDbEntity
8
JoinCaoutchouc
6
ByLayer
62
256
370
13
100
AcDbCircle
10
-329.829265393
20
-7.02924773032
40
3.12242943903
100
AcDbArc
50
102.817998677
51
251.586389694
0
LINE
5
11C
100
AcDbEntity
8
JoinCaoutchouc
6
ByLayer
62
256
370
13
100
AcDbLine
10
-330.5111552
20
-3.9845888
11
-308.647087309
21
-3.9996882944
0
SPLINE
5
11D
100
AcDbEntity
8
JoinCaoutchouc
6
ByLayer
62
256
370
13
100
AcDbSpline
210
0
220
0
230
1
70
8
71
2
72
6
73
3
74
0
42
1e-07
43
1e-07
40
0
40
0
40
0
40
1
40
1
40
1
10
-308.630275089
20
-4.01101841813
30
0
10
-304.87157878
20
-7.09283558265
30
0
10
-308.862491945
20
-9.94310355231
30
0
0
LINE
5
11E
100
AcDbEntity
8
PiedAlready
6
ByLayer
62
256
370
13
100
AcDbLine
10
-309.962421043
20
1.1005853696
11
-309.9590656
21
19.12602624
0
SPLINE
5
11F
100
AcDbEntity
8
PiedAlready
6
ByLayer
62
256
370
13
100
AcDbSpline
210
0
220
0
230
1
70
8
71
2
72
6
73
3
74
0
42
1e-07
43
1e-07
40
0
40
0
40
0
40
1
40
1
40
1
10
-328.996959979
20
0.0135107988821
30
0
10
-329.906376141
20
0.0325585523331
30
0
10
-329.990003697
20
1.01330991616
30
0
0
LINE
5
120
100
AcDbEntity
8
PiedAlready
6
ByLayer
62
256
370
13
100
AcDbLine
10
-329.96589568
20
70.92568064
11
-329.995633196
21
0.996421417556
0
SPLINE
5
121
100
AcDbEntity
8
PiedAlready
6
ByLayer
62
256
370
13
100
AcDbSpline
210
0
220
0
230
1
70
8
71
2
72
6
73
3
74
0
42
1e-07
43
1e-07
40
0
40
0
40
0
40
1
40
1
40
1
10
-311.029849265
20
0.00879609302221
30
0
10
-310.124737719
20
0.0762573005882
30
0
10
-309.962421043
20
1.0468982784
30
0
0
LINE
5
122
100
AcDbEntity
8
PiedAlready
6
ByLayer
62
256
370
13
100
AcDbLine
10
-328.994989654
20
0.0211106232533
11
-311.012960767
21
0.0112589990684
0
LINE
5
123
100
AcDbEntity
8
Frame
6
ByLayer
62
256
370
13
100
AcDbLine
10
-305.9712
20
0.1024
11
-363.125
21
0
0
LINE
5
124
100
AcDbEntity
8
Frame
6
ByLayer
62
256
370
13
100
AcDbLine
10
-305.88928
20
-4.096
11
-363.1742976
21
-3.8797312
0
LINE
5
125
100
AcDbEntity
8
Frame
6
ByLayer
62
256
370
13
100
AcDbLine
10
-306.25
20
80.0000000001
11
-363.5
21
80.0000000001
0
SPLINE
5
126
100
AcDbEntity
8
Frame
6
ByLayer
62
256
370
13
100
AcDbSpline
210
0
220
0
230
1
70
8
71
2
72
6
73
3
74
0
42
1e-07
43
1e-07
40
0
40
0
40
0
40
1
40
1
40
1
10
-305.962732749
20
0.0805306368001
30
0
10
-304.387869556
20
-1.99471991396
30
0
10
-305.887570821
20
-4.14464344064
30
0
0
LINE
5
127
100
AcDbEntity
8
Frame
6
ByLayer
62
256
370
13
100
AcDbLine
10
-305.506392474
20
76.0477646849
11
-362.506392474
21
76.0477646849
0
SPLINE
5
128
100
AcDbEntity
8
Frame
6
ByLayer
62
256
370
13
100
AcDbSpline
210
0
220
0
230
1
70
8
71
2
72
6
73
3
74
0
42
1e-07
43
1e-07
40
0
40
0
40
0
40
1
40
1
40
1
10
-306.213988336
20
80.0066507899
30
0
10
-304.299746506
20
78.236263761
30
0
10
-305.560079565
20
76.0209211393
30
0
0
LINE
5
129
100
AcDbEntity
8
Frame
6
ByLayer
62
256
370
13
100
AcDbLine
10
-361
20
80.0000000001
11
-351
21
80.0000000001
0
ELLIPSE
5
12A
100
AcDbEntity
8
Vis
6
ByLayer
62
256
370
13
100
AcDbEllipse
10
-319.94150912
20
1.97132288
30
0
11
3.48127232
21
0.04194304
31
0
40
0.53671988389
41
0
42
6.28318530718
0
SPLINE
5
12B
100
AcDbEntity
8
Frame
6
ByLayer
62
256
370
13
100
AcDbSpline
210
0
220
0
230
1
70
8
71
2
72
6
73
3
74
0
42
1e-07
43
1e-07
40
0
40
0
40
0
40
1
40
1
40
1
10
-306.213988336
20
80.0066507899
30
0
10
-304.299746506
20
78.236263761
30
0
10
-305.560079565
20
76.0209211393
30
0
0
ELLIPSE
5
12C
100
AcDbEntity
8
Vis
6
ByLayer
62
256
370
13
100
AcDbEllipse
10
-319.975063552
20
73.9539681281
30
0
11
3.52321536
21
0.033554432
31
0
40
0.589334300744
41
0
42
6.28318530718
0
LINE
5
12D
100
AcDbEntity
8
Vis
6
ByLayer
62
256
370
13
100
AcDbLine
10
-320.941431194
20
78.9737111553
11
-320.941431194
21
75.9403905025
0
LINE
5
12E
100
AcDbEntity
8
Vis
6
ByLayer
62
256
370
13
100
AcDbLine
10
-318.981852365
20
75.9403905025
11
-318.981852365
21
78.9737111553
0
LINE
5
12F
100
AcDbEntity
8
Vis
6
ByLayer
62
256
370
13
100
AcDbLine
10
-318.981852365
20
78.9737111553
11
-320.914587648
21
78.9737111553
0
LINE
5
130
100
AcDbEntity
8
Vis
6
ByLayer
62
256
370
13
100
AcDbLine
10
-320.984380867
20
-2.01863462912
11
-319.030170747
21
-2.01863462912
0
LINE
5
131
100
AcDbEntity
8
Vis
6
ByLayer
62
256
370
13
100
AcDbLine
10
-319.030170747
20
-2.01863462912
11
-319.030170747
21
0.15032385536
0
LINE
5
132
100
AcDbEntity
8
Vis
6
ByLayer
62
256
370
13
100
AcDbLine
10
-320.982804442
20
0.163255486492
11
-320.984380867
21
-2.01863462912
0
LINE
5
133
100
AcDbEntity
8
Construction
6
ByLayer
62
256
370
13
100
AcDbLine
10
0
20
-240
11
10
21
-240
0
LINE
5
134
100
AcDbEntity
8
Construction
6
ByLayer
62
256
370
13
100
AcDbLine
10
139.0625
20
-239.84375
11
-401.306152344
21
-240.325927735
0
LINE
5
135
100
AcDbEntity
8
Construction
6
ByLayer
62
256
370
13
100
AcDbLine
10
0
20
-2.28881835938
11
0.762939453126
21
-239.562988282
0
CIRCLE
5
136
100
AcDbEntity
8
Construction
6
ByLayer
62
256
370
13
100
AcDbCircle
10
-150.299072266
20
-89.6453857423
40
149.917602539
0
LINE
5
137
100
AcDbEntity
8
Construction
6
ByLayer
62
256
370
13
100
AcDbLine
10
-150.299072266
20
60.2722167969
11
-149.536132813
21
-239.562988282
0
LINE
5
138
100
AcDbEntity
8
Construction
6
ByLayer
62
256
370
13
100
AcDbLine
10
-557.708740235
20
-9.91821289064
11
-547.708740235
21
-9.91821289064
0
LINE
5
139
100
AcDbEntity
8
Construction
6
ByLayer
62
256
370
13
100
AcDbLine
10
-281.524658203
20
-9.91821289064
11
-271.524658203
21
-9.91821289064
0
LINE
5
13A
100
AcDbEntity
8
Construction
6
ByLayer
62
256
370
13
100
AcDbLine
10
-405.883789063
20
-10.6811523438
11
-395.883789063
21
-10.6811523438
0
LINE
5
13B
100
AcDbEntity
8
Construction
6
ByLayer
62
256
370
13
100
AcDbLine
10
-222.01538086
20
-9.15527343751
11
-212.01538086
21
-9.15527343751
0
LINE
5
13C
100
AcDbEntity
8
Construction
6
ByLayer
62
256
370
13
100
AcDbLine
10
-348.663330079
20
-10.6811523438
11
-338.663330079
21
-10.6811523438
0
LINE
5
13D
100
AcDbEntity
8
Construction
6
ByLayer
62
256
370
13
100
AcDbLine
10
-315.093994141
20
-9.91821289064
11
-305.093994141
21
-9.91821289064
0
LINE
5
13E
100
AcDbEntity
8
Construction
6
ByLayer
62
256
370
13
100
AcDbLine
10
-292.96875
20
-9.91821289064
11
-282.96875
21
-9.91821289064
0
LINE
5
13F
100
AcDbEntity
8
Construction
6
ByLayer
62
256
370
13
100
AcDbLine
10
-182.342529297
20
-9.91821289064
11
-172.342529297
21
-9.91821289064
0
LINE
5
140
100
AcDbEntity
8
Construction
6
ByLayer
62
256
370
13
100
AcDbLine
10
-358.581542969
20
-119.781494141
11
129.699707031
21
-119.781494141
0
LINE
5
141
100
AcDbEntity
8
Construction
6
ByLayer
62
256
370
13
100
AcDbLine
10
-423.431396485
20
-99.1821289064
11
386.810302735
21
-99.1821289064
0
CIRCLE
5
142
100
AcDbEntity
8
Construction
6
ByLayer
62
256
370
13
100
AcDbCircle
10
0.762939453126
20
-120.544433594
40
120.145752419
0
LINE
5
143
100
AcDbEntity
8
JoinCaoutchouc
6
ByLayer
62
256
370
13
100
AcDbLine
10
-331.000498863
20
-9.99939854765
11
-308.848418196
21
-9.95717730114
0
ARC
5
144
100
AcDbEntity
8
TopArc
6
ByLayer
62
256
370
13
100
AcDbCircle
10
90.7978258636
20
-163.271719949
40
186.820501329
100
AcDbArc
50
49.1422405421
51
119.079085077
0
CIRCLE
5
145
100
AcDbEntity
8
Construction
6
ByLayer
62
256
370
13
100
AcDbCircle
10
127.471290112
20
-109.977096081
40
121.416330297
0
LINE
5
146
100
AcDbEntity
8
PiedAlready
6
ByLayer
62
256
370
13
100
AcDbLine
10
-7.296
20
-14.8544020913
11
4.7104
21
-14.8544020913
0
LINE
5
147
100
AcDbEntity
8
PiedAlready
6
ByLayer
62
256
370
13
100
AcDbLine
10
-10.0072737997
20
-11.6393613722
11
-9.984
21
8.32
0
SPLINE
5
148
100
AcDbEntity
8
PiedAlready
6
ByLayer
62
256
370
13
100
AcDbSpline
210
0
220
0
230
1
70
8
71
2
72
6
73
3
74
0
42
1e-07
43
1e-07
40
0
40
0
40
0
40
1
40
1
40
1
10
-10.0064354221
20
-11.6249165382
30
0
10
-10.2191951252
20
-14.799400075
30
0
10
-7.296
20
-14.848
30
0
0
SPLINE
5
149
100
AcDbEntity
8
PiedAlready
6
ByLayer
62
256
370
13
100
AcDbSpline
210
0
220
0
230
1
70
8
71
2
72
6
73
3
74
0
42
1e-07
43
1e-07
40
0
40
0
40
0
40
1
40
1
40
1
10
4.71415610409
20
-14.884638661
30
0
10
7.3261363122
20
-14.7146875929
30
0
10
8.24633720832
20
-12.4657130799
30
0
0
LINE
5
14A
100
AcDbEntity
8
PiedAlready
6
ByLayer
62
256
370
13
100
AcDbLine
10
17.9632712188
20
12.3282741264
11
8.09601335296
21
-12.6916283597
0
LINE
5
14B
100
AcDbEntity
8
PiedAlready
6
ByLayer
62
256
370
13
100
AcDbLine
10
-19.8
20
59.8
11
-20
21
-21.4
0
SPLINE
5
14C
100
AcDbEntity
8
PiedAlready
6
ByLayer
62
256
370
13
100
AcDbSpline
210
0
220
0
230
1
70
8
71
2
72
7
73
4
74
0
42
1e-07
43
1e-07
40
0
40
0
40
0
40
0.5
40
1
40
1
40
1
10
-19.96488704
20
-21.43289344
30
0
10
-19.8140120511
20
-22.5967434355
30
0
10
-18.2475944105
20
-23.1506506033
30
0
10
-17.6160768
20
-23.02672896
30
0
0
LINE
5
14D
100
AcDbEntity
8
PiedAlready
6
ByLayer
62
256
370
13
100
AcDbLine
10
-17.6160768
20
-23.051894784
11
7.8125
21
-23.125
0
SPLINE
5
14E
100
AcDbEntity
8
PiedAlready
6
ByLayer
62
256
370
13
100
AcDbSpline
210
0
220
0
230
1
70
8
71
2
72
6
73
3
74
0
42
1e-07
43
1e-07
40
0
40
0
40
0
40
1
40
1
40
1
10
7.72930286048
20
-23.120354587
30
0
10
11.0003725922
20
-23.2822976593
30
0
10
13.880234789
20
-21.8055146021
30
0
0
LINE
5
14F
100
AcDbEntity
8
PiedAlready
6
ByLayer
62
256
370
13
100
AcDbLine
10
48.49664
20
69.926912
11
13.85384651
21
-21.796718509
0
LINE
5
150
100
AcDbEntity
8
TopArc
6
ByLayer
62
256
370
13
100
AcDbLine
10
-285.339355469
20
-28.9916992188
11
-544.219105469
21
-29.2151492188
0
ARC
5
151
100
AcDbEntity
8
TopArc
6
ByLayer
62
256
370
13
100
AcDbCircle
10
-285.973546314
20
-223.532790392
40
194.474079323
100
AcDbArc
50
33.7106001595
51
90.3576562733
0
LINE
5
152
100
AcDbEntity
8
TopArc
6
ByLayer
62
256
370
13
100
AcDbLine
10
-277.709960938
20
-9.91821289064
11
-544.433593751
21
-9.76562500001
0
ARC
5
153
100
AcDbEntity
8
TopArc
6
ByLayer
62
256
370
13
100
AcDbCircle
10
136.643461002
20
-117.258190236
40
122.116054965
100
AcDbArc
50
270.534616138
51
51.2797717305
0
ARC
5
154
100
AcDbEntity
8
TopArc
6
ByLayer
62
256
370
13
100
AcDbCircle
10
138.163729203
20
100.670655105
40
340.034730287
100
AcDbArc
50
219.516958636
51
270.058800723
0
ARC
5
155
100
AcDbEntity
8
TopArc
6
ByLayer
62
256
370
-1
100
AcDbCircle
10
-289.438983549
20
-315.066752555
40
305.382760206
100
AcDbArc
50
47.5197808264
51
87.7987121552
0
ARC
5
156
100
AcDbEntity
8
TopArc
6
ByLayer
62
256
370
-1
100
AcDbCircle
10
82.1859812
20
-247.653882528
40
250.602604572
100
AcDbArc
50
79.569921585
51
109.026473203
0
ARC
5
157
100
AcDbEntity
8
TopArc
6
ByLayer
62
256
370
-1
100
AcDbCircle
10
95.3683770504
20
-109.828774077
40
113.294678131
100
AcDbArc
50
347.537752728
51
73.5059343811
0
ARC
5
158
100
AcDbEntity
8
TopArc
6
ByLayer
62
256
370
-1
100
AcDbCircle
10
113.896518717
20
-97.7713738562
40
99.0685008475
100
AcDbArc
50
270.31485221
51
338.37734259
0
ARC
5
159
100
AcDbEntity
8
TopArc
6
ByLayer
62
256
370
-1
100
AcDbCircle
10
124.046825277
20
59.9686456439
40
256.969899157
100
AcDbArc
50
211.773018655
51
267.856080329
0
LINE
5
15A
100
AcDbEntity
8
TopArc
6
ByLayer
62
256
370
-1
100
AcDbLine
10
-99.021545727
20
-76.31187439
11
-82.5214262973
21
-92.8656316914
0
ARC
5
15B
100
AcDbEntity
8
Construction2
6
ByLayer
62
256
370
-1
100
AcDbCircle
10
82.1859812
20
-247.653882528
40
251.602604572
100
AcDbArc
50
79.569921585
51
109.026473203
0
ARC
5
15C
100
AcDbEntity
8
Construction2
6
ByLayer
62
256
370
-1
100
AcDbCircle
10
82.1859812
20
-247.653882528
40
252.602604572
100
AcDbArc
50
79.569921585
51
109.026473203
0
ARC
5
15D
100
AcDbEntity
8
Construction2
6
ByLayer
62
256
370
-1
100
AcDbCircle
10
82.1859812
20
-247.653882528
40
253.602604572
100
AcDbArc
50
79.569921585
51
109.026473203
0
ARC
5
15E
100
AcDbEntity
8
Construction2
6
ByLayer
62
256
370
-1
100
AcDbCircle
10
82.1859812
20
-247.653882528
40
254.602604572
100
AcDbArc
50
79.569921585
51
109.026473203
0
ARC
5
15F
100
AcDbEntity
8
Construction2
6
ByLayer
62
256
370
-1
100
AcDbCircle
10
82.1859812
20
-247.653882528
40
254.602604572
100
AcDbArc
50
79.569921585
51
109.026473203
0
ARC
5
160
100
AcDbEntity
8
Construction2
6
ByLayer
62
256
370
-1
100
AcDbCircle
10
82.1859812
20
-247.653882528
40
255.602604572
100
AcDbArc
50
79.569921585
51
109.026473203
0
ARC
5
161
100
AcDbEntity
8
Construction2
6
ByLayer
62
256
370
-1
100
AcDbCircle
10
82.1859812
20
-247.653882528
40
256.602604572
100
AcDbArc
50
79.569921585
51
109.026473203
0
ARC
5
162
100
AcDbEntity
8
Construction2
6
ByLayer
62
256
370
-1
100
AcDbCircle
10
82.1859812
20
-247.653882528
40
256.602604572
100
AcDbArc
50
79.569921585
51
109.026473203
0
ARC
5
163
100
AcDbEntity
8
Construction2
6
ByLayer
62
256
370
-1
100
AcDbCircle
10
82.1859812
20
-247.653882528
40
257.602604572
100
AcDbArc
50
79.569921585
51
109.026473203
0
ARC
5
164
100
AcDbEntity
8
Construction2
6
ByLayer
62
256
370
-1
100
AcDbCircle
10
82.1859812
20
-247.653882528
40
258.602604572
100
AcDbArc
50
79.569921585
51
109.026473203
0
ARC
5
165
100
AcDbEntity
8
Construction2
6
ByLayer
62
256
370
-1
100
AcDbCircle
10
82.1859812
20
-247.653882528
40
259.602604572
100
AcDbArc
50
79.569921585
51
109.026473203
0
ARC
5
166
100
AcDbEntity
8
Construction2
6
ByLayer
62
256
370
-1
100
AcDbCircle
10
90.7978258636
20
-163.271719949
40
185.820501329
100
AcDbArc
50
49.1422405421
51
119.079085077
0
ARC
5
167
100
AcDbEntity
8
Construction2
6
ByLayer
62
256
370
-1
100
AcDbCircle
10
90.7978258636
20
-163.271719949
40
184.820501329
100
AcDbArc
50
49.1422405421
51
119.079085077
0
ARC
5
168
100
AcDbEntity
8
Construction2
6
ByLayer
62
256
370
-1
100
AcDbCircle
10
90.7978258636
20
-163.271719949
40
184.820501329
100
AcDbArc
50
49.1422405421
51
119.079085077
0
ARC
5
169
100
AcDbEntity
8
Construction2
6
ByLayer
62
256
370
-1
100
AcDbCircle
10
90.7978258636
20
-163.271719949
40
183.820501329
100
AcDbArc
50
49.1422405421
51
119.079085077
0
ARC
5
16A
100
AcDbEntity
8
Construction2
6
ByLayer
62
256
370
-1
100
AcDbCircle
10
82.1859812
20
-247.653882528
40
260.602604572
100
AcDbArc
50
79.569921585
51
109.026473203
0
ARC
5
16B
100
AcDbEntity
8
Construction2
6
ByLayer
62
256
370
-1
100
AcDbCircle
10
82.1859812
20
-247.653882528
40
260.602604572
100
AcDbArc
50
79.569921585
51
109.026473203
0
ARC
5
16C
100
AcDbEntity
8
Construction2
6
ByLayer
62
256
370
-1
100
AcDbCircle
10
82.1859812
20
-247.653882528
40
261.602604572
100
AcDbArc
50
79.569921585
51
109.026473203
0
ARC
5
16D
100
AcDbEntity
8
Construction2
6
ByLayer
62
256
370
-1
100
AcDbCircle
10
82.1859812
20
-247.653882528
40
260.602604572
100
AcDbArc
50
79.569921585
51
109.026473203
0
ARC
5
16E
100
AcDbEntity
8
Construction2
6
ByLayer
62
256
370
-1
100
AcDbCircle
10
90.7978258636
20
-163.271719949
40
182.820501329
100
AcDbArc
50
49.1422405421
51
119.079085077
0
ARC
5
16F
100
AcDbEntity
8
Construction2
6
ByLayer
62
256
370
-1
100
AcDbCircle
10
90.7978258636
20
-163.271719949
40
181.820501329
100
AcDbArc
50
49.1422405421
51
119.079085077
0
ARC
5
170
100
AcDbEntity
8
Construction2
6
ByLayer
62
256
370
-1
100
AcDbCircle
10
90.7978258636
20
-163.271719949
40
180.820501329
100
AcDbArc
50
49.1422405421
51
119.079085077
0
ARC
5
171
100
AcDbEntity
8
Construction2
6
ByLayer
62
256
370
-1
100
AcDbCircle
10
90.7978258636
20
-163.271719949
40
180.820501329
100
AcDbArc
50
49.1422405421
51
119.079085077
0
ARC
5
172
100
AcDbEntity
8
Construction2
6
ByLayer
62
256
370
-1
100
AcDbCircle
10
82.1859812
20
-247.653882528
40
262.602604572
100
AcDbArc
50
79.569921585
51
109.026473203
0
ARC
5
173
100
AcDbEntity
8
Construction2
6
ByLayer
62
256
370
-1
100
AcDbCircle
10
90.7978258636
20
-163.271719949
40
179.820501329
100
AcDbArc
50
49.1422405421
51
119.079085077
0
ARC
5
174
100
AcDbEntity
8
Construction2
6
ByLayer
62
256
370
-1
100
AcDbCircle
10
82.1859812
20
-247.653882528
40
261.602604572
100
AcDbArc
50
79.569921585
51
109.026473203
0
ARC
5
175
100
AcDbEntity
8
Construction2
6
ByLayer
62
256
370
-1
100
AcDbCircle
10
82.1859812
20
-247.653882528
40
261.602604572
100
AcDbArc
50
79.569921585
51
109.026473203
0
ARC
5
176
100
AcDbEntity
8
Construction2
6
ByLayer
62
256
370
-1
100
AcDbCircle
10
90.7978258636
20
-163.271719949
40
178.820501329
100
AcDbArc
50
49.1422405421
51
119.079085077
0
ARC
5
177
100
AcDbEntity
8
Construction2
6
ByLayer
62
256
370
-1
100
AcDbCircle
10
90.7978258636
20
-163.271719949
40
177.820501329
100
AcDbArc
50
49.1422405421
51
119.079085077
0
ARC
5
178
100
AcDbEntity
8
Construction2
6
ByLayer
62
256
370
-1
100
AcDbCircle
10
90.7978258636
20
-163.271719949
40
176.820501329
100
AcDbArc
50
49.1422405421
51
119.079085077
0
ARC
5
179
100
AcDbEntity
8
Construction2
6
ByLayer
62
256
370
-1
100
AcDbCircle
10
90.7978258636
20
-163.271719949
40
175.820501329
100
AcDbArc
50
49.1422405421
51
119.079085077
0
ARC
5
17A
100
AcDbEntity
8
Construction2
6
ByLayer
62
256
370
-1
100
AcDbCircle
10
90.7978258636
20
-163.271719949
40
174.820501329
100
AcDbArc
50
49.1422405421
51
119.079085077
0
ARC
5
17B
100
AcDbEntity
8
Construction2
6
ByLayer
62
256
370
-1
100
AcDbCircle
10
90.7978258636
20
-163.271719949
40
173.820501329
100
AcDbArc
50
49.1422405421
51
119.079085077
0
ARC
5
17C
100
AcDbEntity
8
Construction2
6
ByLayer
62
256
370
-1
100
AcDbCircle
10
90.7978258636
20
-163.271719949
40
173.820501329
100
AcDbArc
50
49.1422405421
51
119.079085077
0
ARC
5
17D
100
AcDbEntity
8
Construction2
6
ByLayer
62
256
370
-1
100
AcDbCircle
10
90.7978258636
20
-163.271719949
40
172.820501329
100
AcDbArc
50
49.1422405421
51
119.079085077
0
ARC
5
17E
100
AcDbEntity
8
Construction2
6
ByLayer
62
256
370
-1
100
AcDbCircle
10
90.7978258636
20
-163.271719949
40
171.820501329
100
AcDbArc
50
49.1422405421
51
119.079085077
0
ARC
5
17F
100
AcDbEntity
8
Construction2
6
ByLayer
62
256
370
-1
100
AcDbCircle
10
90.7978258636
20
-163.271719949
40
170.820501329
100
AcDbArc
50
49.1422405421
51
119.079085077
0
ARC
5
180
100
AcDbEntity
8
Construction2
6
ByLayer
62
256
370
-1
100
AcDbCircle
10
90.7978258636
20
-163.271719949
40
169.820501329
100
AcDbArc
50
49.1422405421
51
119.079085077
0
ARC
5
181
100
AcDbEntity
8
Construction2
6
ByLayer
62
256
370
-1
100
AcDbCircle
10
90.7978258636
20
-163.271719949
40
169.820501329
100
AcDbArc
50
49.1422405421
51
119.079085077
0
ARC
5
182
100
AcDbEntity
8
Construction2
6
ByLayer
62
256
370
-1
100
AcDbCircle
10
95.3683770504
20
-109.828774077
40
114.294678131
100
AcDbArc
50
347.537752728
51
73.5059343811
0
ARC
5
183
100
AcDbEntity
8
Construction2
6
ByLayer
62
256
370
-1
100
AcDbCircle
10
90.7978258636
20
-163.271719949
40
168.820501329
100
AcDbArc
50
49.1422405421
51
119.079085077
0
ARC
5
184
100
AcDbEntity
8
Construction2
6
ByLayer
62
256
370
-1
100
AcDbCircle
10
90.7978258636
20
-163.271719949
40
167.820501329
100
AcDbArc
50
49.1422405421
51
119.079085077
0
ARC
5
185
100
AcDbEntity
8
Construction2
6
ByLayer
62
256
370
-1
100
AcDbCircle
10
90.7978258636
20
-163.271719949
40
166.820501329
100
AcDbArc
50
49.1422405421
51
119.079085077
0
ARC
5
186
100
AcDbEntity
8
Construction2
6
ByLayer
62
256
370
-1
100
AcDbCircle
10
90.7978258636
20
-163.271719949
40
165.820501329
100
AcDbArc
50
49.1422405421
51
119.079085077
0
ARC
5
187
100
AcDbEntity
8
Construction2
6
ByLayer
62
256
370
-1
100
AcDbCircle
10
95.3683770504
20
-109.828774077
40
112.294678131
100
AcDbArc
50
347.537752728
51
73.5059343811
0
ARC
5
188
100
AcDbEntity
8
Construction2
6
ByLayer
62
256
370
-1
100
AcDbCircle
10
95.3683770504
20
-109.828774077
40
115.294678131
100
AcDbArc
50
347.537752728
51
73.5059343811
0
ARC
5
189
100
AcDbEntity
8
Construction2
6
ByLayer
62
256
370
-1
100
AcDbCircle
10
95.3683770504
20
-109.828774077
40
116.294678131
100
AcDbArc
50
347.537752728
51
73.5059343811
0
ARC
5
18A
100
AcDbEntity
8
Construction2
6
ByLayer
62
256
370
-1
100
AcDbCircle
10
95.3683770504
20
-109.828774077
40
117.294678131
100
AcDbArc
50
347.537752728
51
73.5059343811
0
ARC
5
18B
100
AcDbEntity
8
Construction2
6
ByLayer
62
256
370
-1
100
AcDbCircle
10
90.7978258636
20
-163.271719949
40
164.820501329
100
AcDbArc
50
49.1422405421
51
119.079085077
0
ARC
5
18C
100
AcDbEntity
8
Construction2
6
ByLayer
62
256
370
-1
100
AcDbCircle
10
90.7978258636
20
-163.271719949
40
163.820501329
100
AcDbArc
50
49.1422405421
51
119.079085077
0
ARC
5
18D
100
AcDbEntity
8
Construction2
6
ByLayer
62
256
370
-1
100
AcDbCircle
10
90.7978258636
20
-163.271719949
40
163.820501329
100
AcDbArc
50
49.1422405421
51
119.079085077
0
ARC
5
18E
100
AcDbEntity
8
Construction2
6
ByLayer
62
256
370
-1
100
AcDbCircle
10
95.3683770504
20
-109.828774077
40
118.294678131
100
AcDbArc
50
347.537752728
51
73.5059343811
0
ARC
5
18F
100
AcDbEntity
8
Construction2
6
ByLayer
62
256
370
-1
100
AcDbCircle
10
95.3683770504
20
-109.828774077
40
119.294678131
100
AcDbArc
50
347.537752728
51
73.5059343811
0
ARC
5
190
100
AcDbEntity
8
Construction2
6
ByLayer
62
256
370
-1
100
AcDbCircle
10
95.3683770504
20
-109.828774077
40
120.294678131
100
AcDbArc
50
347.537752728
51
73.5059343811
0
ARC
5
191
100
AcDbEntity
8
Construction2
6
ByLayer
62
256
370
-1
100
AcDbCircle
10
95.3683770504
20
-109.828774077
40
121.294678131
100
AcDbArc
50
347.537752728
51
73.5059343811
0
ARC
5
192
100
AcDbEntity
8
Construction2
6
ByLayer
62
256
370
-1
100
AcDbCircle
10
95.3683770504
20
-109.828774077
40
121.294678131
100
AcDbArc
50
347.537752728
51
73.5059343811
0
ARC
5
193
100
AcDbEntity
8
Construction2
6
ByLayer
62
256
370
-1
100
AcDbCircle
10
95.3683770504
20
-109.828774077
40
121.294678131
100
AcDbArc
50
347.537752728
51
73.5059343811
0
ARC
5
194
100
AcDbEntity
8
Construction2
6
ByLayer
62
256
370
-1
100
AcDbCircle
10
95.3683770504
20
-109.828774077
40
122.294678131
100
AcDbArc
50
347.537752728
51
73.5059343811
0
ARC
5
195
100
AcDbEntity
8
Construction2
6
ByLayer
62
256
370
-1
100
AcDbCircle
10
95.3683770504
20
-109.828774077
40
123.294678131
100
AcDbArc
50
347.537752728
51
73.5059343811
0
ARC
5
196
100
AcDbEntity
8
Construction2
6
ByLayer
62
256
370
-1
100
AcDbCircle
10
95.3683770504
20
-109.828774077
40
124.294678131
100
AcDbArc
50
347.537752728
51
73.5059343811
0
ARC
5
197
100
AcDbEntity
8
Construction2
6
ByLayer
62
256
370
-1
100
AcDbCircle
10
95.3683770504
20
-109.828774077
40
124.294678131
100
AcDbArc
50
347.537752728
51
73.5059343811
0
ARC
5
198
100
AcDbEntity
8
Construction2
6
ByLayer
62
256
370
-1
100
AcDbCircle
10
95.3683770504
20
-109.828774077
40
125.294678131
100
AcDbArc
50
347.537752728
51
73.5059343811
0
ARC
5
199
100
AcDbEntity
8
Construction2
6
ByLayer
62
256
370
-1
100
AcDbCircle
10
95.3683770504
20
-109.828774077
40
126.294678131
100
AcDbArc
50
347.537752728
51
73.5059343811
0
ARC
5
19A
100
AcDbEntity
8
Construction2
6
ByLayer
62
256
370
-1
100
AcDbCircle
10
95.3683770504
20
-109.828774077
40
127.294678131
100
AcDbArc
50
347.537752728
51
73.5059343811
0
ARC
5
19B
100
AcDbEntity
8
Construction2
6
ByLayer
62
256
370
-1
100
AcDbCircle
10
95.3683770504
20
-109.828774077
40
128.294678131
100
AcDbArc
50
347.537752728
51
73.5059343811
0
ARC
5
19C
100
AcDbEntity
8
Construction2
6
ByLayer
62
256
370
-1
100
AcDbCircle
10
95.3683770504
20
-109.828774077
40
129.294678131
100
AcDbArc
50
347.537752728
51
73.5059343811
0
ARC
5
19D
100
AcDbEntity
8
Construction2
6
ByLayer
62
256
370
-1
100
AcDbCircle
10
95.3683770504
20
-109.828774077
40
130.294678131
100
AcDbArc
50
347.537752728
51
73.5059343811
0
ARC
5
19E
100
AcDbEntity
8
Construction2
6
ByLayer
62
256
370
-1
100
AcDbCircle
10
95.3683770504
20
-109.828774077
40
131.294678131
100
AcDbArc
50
347.537752728
51
73.5059343811
0
ARC
5
19F
100
AcDbEntity
8
Construction2
6
ByLayer
62
256
370
-1
100
AcDbCircle
10
95.3683770504
20
-109.828774077
40
132.294678131
100
AcDbArc
50
347.537752728
51
73.5059343811
0
ARC
5
1A0
100
AcDbEntity
8
Construction2
6
ByLayer
62
256
370
-1
100
AcDbCircle
10
95.3683770504
20
-109.828774077
40
133.294678131
100
AcDbArc
50
347.537752728
51
73.5059343811
0
ARC
5
1A1
100
AcDbEntity
8
Construction2
6
ByLayer
62
256
370
-1
100
AcDbCircle
10
136.643461002
20
-117.258190236
40
121.116054965
100
AcDbArc
50
270.534616138
51
51.2797717305
0
ARC
5
1A2
100
AcDbEntity
8
Construction2
6
ByLayer
62
256
370
-1
100
AcDbCircle
10
136.643461002
20
-117.258190236
40
120.116054965
100
AcDbArc
50
270.534616138
51
51.2797717305
0
ARC
5
1A3
100
AcDbEntity
8
Construction2
6
ByLayer
62
256
370
-1
100
AcDbCircle
10
136.643461002
20
-117.258190236
40
119.116054965
100
AcDbArc
50
270.534616138
51
51.2797717305
0
ARC
5
1A4
100
AcDbEntity
8
Construction2
6
ByLayer
62
256
370
-1
100
AcDbCircle
10
136.643461002
20
-117.258190236
40
118.116054965
100
AcDbArc
50
270.534616138
51
51.2797717305
0
ARC
5
1A5
100
AcDbEntity
8
Construction2
6
ByLayer
62
256
370
-1
100
AcDbCircle
10
136.643461002
20
-117.258190236
40
117.116054965
100
AcDbArc
50
270.534616138
51
51.2797717305
0
ARC
5
1A6
100
AcDbEntity
8
Construction2
6
ByLayer
62
256
370
-1
100
AcDbCircle
10
136.643461002
20
-117.258190236
40
116.116054965
100
AcDbArc
50
270.534616138
51
51.2797717305
0
ARC
5
1A7
100
AcDbEntity
8
Construction2
6
ByLayer
62
256
370
-1
100
AcDbCircle
10
136.643461002
20
-117.258190236
40
115.116054965
100
AcDbArc
50
270.534616138
51
51.2797717305
0
ARC
5
1A8
100
AcDbEntity
8
Construction2
6
ByLayer
62
256
370
-1
100
AcDbCircle
10
136.643461002
20
-117.258190236
40
114.116054965
100
AcDbArc
50
270.534616138
51
51.2797717305
0
ARC
5
1A9
100
AcDbEntity
8
Construction2
6
ByLayer
62
256
370
-1
100
AcDbCircle
10
136.643461002
20
-117.258190236
40
114.116054965
100
AcDbArc
50
270.534616138
51
51.2797717305
0
ARC
5
1AA
100
AcDbEntity
8
Construction2
6
ByLayer
62
256
370
-1
100
AcDbCircle
10
136.643461002
20
-117.258190236
40
114.116054965
100
AcDbArc
50
270.534616138
51
51.2797717305
0
ARC
5
1AB
100
AcDbEntity
8
Construction2
6
ByLayer
62
256
370
-1
100
AcDbCircle
10
136.643461002
20
-117.258190236
40
113.116054965
100
AcDbArc
50
270.534616138
51
51.2797717305
0
ARC
5
1AC
100
AcDbEntity
8
Construction2
6
ByLayer
62
256
370
-1
100
AcDbCircle
10
136.643461002
20
-117.258190236
40
113.116054965
100
AcDbArc
50
270.534616138
51
51.2797717305
0
ARC
5
1AD
100
AcDbEntity
8
Construction2
6
ByLayer
62
256
370
-1
100
AcDbCircle
10
136.643461002
20
-117.258190236
40
112.116054965
100
AcDbArc
50
270.534616138
51
51.2797717305
0
ARC
5
1AE
100
AcDbEntity
8
Construction2
6
ByLayer
62
256
370
-1
100
AcDbCircle
10
136.643461002
20
-117.258190236
40
111.116054965
100
AcDbArc
50
270.534616138
51
51.2797717305
0
ARC
5
1AF
100
AcDbEntity
8
Construction2
6
ByLayer
62
256
370
-1
100
AcDbCircle
10
136.643461002
20
-117.258190236
40
110.116054965
100
AcDbArc
50
270.534616138
51
51.2797717305
0
ARC
5
1B0
100
AcDbEntity
8
Construction2
6
ByLayer
62
256
370
-1
100
AcDbCircle
10
136.643461002
20
-117.258190236
40
109.116054965
100
AcDbArc
50
270.534616138
51
51.2797717305
0
ARC
5
1B1
100
AcDbEntity
8
Construction2
6
ByLayer
62
256
370
-1
100
AcDbCircle
10
136.643461002
20
-117.258190236
40
108.116054965
100
AcDbArc
50
270.534616138
51
51.2797717305
0
ARC
5
1B2
100
AcDbEntity
8
Construction2
6
ByLayer
62
256
370
-1
100
AcDbCircle
10
136.643461002
20
-117.258190236
40
107.116054965
100
AcDbArc
50
270.534616138
51
51.2797717305
0
ARC
5
1B3
100
AcDbEntity
8
Construction2
6
ByLayer
62
256
370
-1
100
AcDbCircle
10
136.643461002
20
-117.258190236
40
106.116054965
100
AcDbArc
50
270.534616138
51
51.2797717305
0
ARC
5
1B4
100
AcDbEntity
8
Construction2
6
ByLayer
62
256
370
-1
100
AcDbCircle
10
95.3683770504
20
-109.828774077
40
134.294678131
100
AcDbArc
50
347.537752728
51
73.5059343811
0
ARC
5
1B5
100
AcDbEntity
8
Construction2
6
ByLayer
62
256
370
-1
100
AcDbCircle
10
95.3683770504
20
-109.828774077
40
135.294678131
100
AcDbArc
50
347.537752728
51
73.5059343811
0
ARC
5
1B6
100
AcDbEntity
8
Construction2
6
ByLayer
62
256
370
-1
100
AcDbCircle
10
95.3683770504
20
-109.828774077
40
134.294678131
100
AcDbArc
50
347.537752728
51
73.5059343811
0
ARC
5
1B7
100
AcDbEntity
8
Construction2
6
ByLayer
62
256
370
-1
100
AcDbCircle
10
136.643461002
20
-117.258190236
40
111.116054965
100
AcDbArc
50
270.534616138
51
51.2797717305
0
ARC
5
1B8
100
AcDbEntity
8
Construction2
6
ByLayer
62
256
370
-1
100
AcDbCircle
10
95.3683770504
20
-109.828774077
40
136.294678131
100
AcDbArc
50
347.537752728
51
73.5059343811
0
ARC
5
1B9
100
AcDbEntity
8
Construction2
6
ByLayer
62
256
370
-1
100
AcDbCircle
10
95.3683770504
20
-109.828774077
40
137.294678131
100
AcDbArc
50
347.537752728
51
73.5059343811
0
ARC
5
1BA
100
AcDbEntity
8
Construction2
6
ByLayer
62
256
370
-1
100
AcDbCircle
10
136.643461002
20
-117.258190236
40
105.116054965
100
AcDbArc
50
270.534616138
51
51.2797717305
0
ARC
5
1BB
100
AcDbEntity
8
Construction2
6
ByLayer
62
256
370
-1
100
AcDbCircle
10
136.643461002
20
-117.258190236
40
105.116054965
100
AcDbArc
50
270.534616138
51
51.2797717305
0
ARC
5
1BC
100
AcDbEntity
8
Construction2
6
ByLayer
62
256
370
-1
100
AcDbCircle
10
136.643461002
20
-117.258190236
40
106.116054965
100
AcDbArc
50
270.534616138
51
51.2797717305
0
ARC
5
1BD
100
AcDbEntity
8
Construction2
6
ByLayer
62
256
370
-1
100
AcDbCircle
10
136.643461002
20
-117.258190236
40
106.116054965
100
AcDbArc
50
270.534616138
51
51.2797717305
0
ARC
5
1BE
100
AcDbEntity
8
Construction2
6
ByLayer
62
256
370
-1
100
AcDbCircle
10
136.643461002
20
-117.258190236
40
104.116054965
100
AcDbArc
50
270.534616138
51
51.2797717305
0
ARC
5
1BF
100
AcDbEntity
8
Construction2
6
ByLayer
62
256
370
-1
100
AcDbCircle
10
95.3683770504
20
-109.828774077
40
138.294678131
100
AcDbArc
50
347.537752728
51
73.5059343811
0
ARC
5
1C0
100
AcDbEntity
8
Construction2
6
ByLayer
62
256
370
-1
100
AcDbCircle
10
95.3683770504
20
-109.828774077
40
139.294678131
100
AcDbArc
50
347.537752728
51
73.5059343811
0
ARC
5
1C1
100
AcDbEntity
8
Construction2
6
ByLayer
62
256
370
-1
100
AcDbCircle
10
95.3683770504
20
-109.828774077
40
140.294678131
100
AcDbArc
50
347.537752728
51
73.5059343811
0
ARC
5
1C2
100
AcDbEntity
8
Construction2
6
ByLayer
62
256
370
-1
100
AcDbCircle
10
136.643461002
20
-117.258190236
40
103.116054965
100
AcDbArc
50
270.534616138
51
51.2797717305
0
ARC
5
1C3
100
AcDbEntity
8
Construction2
6
ByLayer
62
256
370
-1
100
AcDbCircle
10
136.643461002
20
-117.258190236
40
103.116054965
100
AcDbArc
50
270.534616138
51
51.2797717305
0
ARC
5
1C4
100
AcDbEntity
8
Construction2
6
ByLayer
62
256
370
-1
100
AcDbCircle
10
136.643461002
20
-117.258190236
40
103.116054965
100
AcDbArc
50
270.534616138
51
51.2797717305
0
ARC
5
1C5
100
AcDbEntity
8
Construction2
6
ByLayer
62
256
370
-1
100
AcDbCircle
10
136.643461002
20
-117.258190236
40
102.116054965
100
AcDbArc
50
270.534616138
51
51.2797717305
0
ARC
5
1C6
100
AcDbEntity
8
Construction2
6
ByLayer
62
256
370
-1
100
AcDbCircle
10
95.3683770504
20
-109.828774077
40
137.294678131
100
AcDbArc
50
347.537752728
51
73.5059343811
0
ARC
5
1C7
100
AcDbEntity
8
Construction2
6
ByLayer
62
256
370
-1
100
AcDbCircle
10
95.3683770504
20
-109.828774077
40
137.294678131
100
AcDbArc
50
347.537752728
51
73.5059343811
0
ARC
5
1C8
100
AcDbEntity
8
Construction2
6
ByLayer
62
256
370
-1
100
AcDbCircle
10
136.643461002
20
-117.258190236
40
101.116054965
100
AcDbArc
50
270.534616138
51
51.2797717305
0
ARC
5
1C9
100
AcDbEntity
8
Construction2
6
ByLayer
62
256
370
-1
100
AcDbCircle
10
136.643461002
20
-117.258190236
40
100.116054965
100
AcDbArc
50
270.534616138
51
51.2797717305
0
ARC
5
1CA
100
AcDbEntity
8
Construction2
6
ByLayer
62
256
370
-1
100
AcDbCircle
10
136.643461002
20
-117.258190236
40
99.1160549649
100
AcDbArc
50
270.534616138
51
51.2797717305
0
ARC
5
1CB
100
AcDbEntity
8
Construction2
6
ByLayer
62
256
370
-1
100
AcDbCircle
10
136.643461002
20
-117.258190236
40
100.116054965
100
AcDbArc
50
270.534616138
51
51.2797717305
0
ARC
5
1CC
100
AcDbEntity
8
Construction2
6
ByLayer
62
256
370
-1
100
AcDbCircle
10
95.3683770504
20
-109.828774077
40
137.294678131
100
AcDbArc
50
347.537752728
51
73.5059343811
0
ARC
5
1CD
100
AcDbEntity
8
Construction2
6
ByLayer
62
256
370
-1
100
AcDbCircle
10
95.3683770504
20
-109.828774077
40
135.294678131
100
AcDbArc
50
347.537752728
51
73.5059343811
0
ARC
5
1CE
100
AcDbEntity
8
Construction2
6
ByLayer
62
256
370
-1
100
AcDbCircle
10
136.643461002
20
-117.258190236
40
98.1160549649
100
AcDbArc
50
270.534616138
51
51.2797717305
0
ARC
5
1CF
100
AcDbEntity
8
Construction2
6
ByLayer
62
256
370
-1
100
AcDbCircle
10
136.643461002
20
-117.258190236
40
97.1160549649
100
AcDbArc
50
270.534616138
51
51.2797717305
0
ARC
5
1D0
100
AcDbEntity
8
Construction2
6
ByLayer
62
256
370
-1
100
AcDbCircle
10
136.643461002
20
-117.258190236
40
96.1160549649
100
AcDbArc
50
270.534616138
51
51.2797717305
0
ARC
5
1D1
100
AcDbEntity
8
Construction2
6
ByLayer
62
256
370
-1
100
AcDbCircle
10
136.643461002
20
-117.258190236
40
95.1160549649
100
AcDbArc
50
270.534616138
51
51.2797717305
0
ARC
5
1D2
100
AcDbEntity
8
Construction2
6
ByLayer
62
256
370
-1
100
AcDbCircle
10
136.643461002
20
-117.258190236
40
94.1160549649
100
AcDbArc
50
270.534616138
51
51.2797717305
0
ARC
5
1D3
100
AcDbEntity
8
Construction2
6
ByLayer
62
256
370
-1
100
AcDbCircle
10
136.643461002
20
-117.258190236
40
93.1160549649
100
AcDbArc
50
270.534616138
51
51.2797717305
0
ARC
5
1D4
100
AcDbEntity
8
Construction2
6
ByLayer
62
256
370
-1
100
AcDbCircle
10
136.643461002
20
-117.258190236
40
92.1160549649
100
AcDbArc
50
270.534616138
51
51.2797717305
0
ARC
5
1D5
100
AcDbEntity
8
Construction2
6
ByLayer
62
256
370
-1
100
AcDbCircle
10
136.643461002
20
-117.258190236
40
91.1160549649
100
AcDbArc
50
270.534616138
51
51.2797717305
0
ARC
5
1D6
100
AcDbEntity
8
Construction2
6
ByLayer
62
256
370
-1
100
AcDbCircle
10
136.643461002
20
-117.258190236
40
90.1160549649
100
AcDbArc
50
270.534616138
51
51.2797717305
0
ARC
5
1D7
100
AcDbEntity
8
Construction2
6
ByLayer
62
256
370
-1
100
AcDbCircle
10
136.643461002
20
-117.258190236
40
89.1160549649
100
AcDbArc
50
270.534616138
51
51.2797717305
0
ARC
5
1D8
100
AcDbEntity
8
Construction2
6
ByLayer
62
256
370
-1
100
AcDbCircle
10
136.643461002
20
-117.258190236
40
88.1160549649
100
AcDbArc
50
270.534616138
51
51.2797717305
0
ARC
5
1D9
100
AcDbEntity
8
Construction2
6
ByLayer
62
256
370
-1
100
AcDbCircle
10
136.643461002
20
-117.258190236
40
87.1160549649
100
AcDbArc
50
270.534616138
51
51.2797717305
0
ARC
5
1DA
100
AcDbEntity
8
Construction2
6
ByLayer
62
256
370
-1
100
AcDbCircle
10
136.643461002
20
-117.258190236
40
86.1160549649
100
AcDbArc
50
270.534616138
51
51.2797717305
0
ARC
5
1DB
100
AcDbEntity
8
Construction2
6
ByLayer
62
256
370
-1
100
AcDbCircle
10
136.643461002
20
-117.258190236
40
86.1160549649
100
AcDbArc
50
270.534616138
51
51.2797717305
0
ARC
5
1DC
100
AcDbEntity
8
Construction2
6
ByLayer
62
256
370
-1
100
AcDbCircle
10
136.643461002
20
-117.258190236
40
85.1160549649
100
AcDbArc
50
270.534616138
51
51.2797717305
0
ARC
5
1DD
100
AcDbEntity
8
Construction2
6
ByLayer
62
256
370
-1
100
AcDbCircle
10
136.643461002
20
-117.258190236
40
84.1160549649
100
AcDbArc
50
270.534616138
51
51.2797717305
0
ARC
5
1DE
100
AcDbEntity
8
Construction2
6
ByLayer
62
256
370
-1
100
AcDbCircle
10
136.643461002
20
-117.258190236
40
83.1160549649
100
AcDbArc
50
270.534616138
51
51.2797717305
0
ARC
5
1DF
100
AcDbEntity
8
Construction2
6
ByLayer
62
256
370
-1
100
AcDbCircle
10
136.643461002
20
-117.258190236
40
83.1160549649
100
AcDbArc
50
270.534616138
51
51.2797717305
0
ARC
5
1E0
100
AcDbEntity
8
Construction2
6
ByLayer
62
256
370
-1
100
AcDbCircle
10
136.643461002
20
-117.258190236
40
82.1160549649
100
AcDbArc
50
270.534616138
51
51.2797717305
0
ARC
5
1E1
100
AcDbEntity
8
Construction2
6
ByLayer
62
256
370
-1
100
AcDbCircle
10
136.643461002
20
-117.258190236
40
81.1160549649
100
AcDbArc
50
270.534616138
51
51.2797717305
0
ARC
5
1E2
100
AcDbEntity
8
Construction2
6
ByLayer
62
256
370
-1
100
AcDbCircle
10
136.643461002
20
-117.258190236
40
81.1160549649
100
AcDbArc
50
270.534616138
51
51.2797717305
0
ARC
5
1E3
100
AcDbEntity
8
Construction2
6
ByLayer
62
256
370
-1
100
AcDbCircle
10
136.643461002
20
-117.258190236
40
80.1160549649
100
AcDbArc
50
270.534616138
51
51.2797717305
0
ARC
5
1E4
100
AcDbEntity
8
Construction2
6
ByLayer
62
256
370
-1
100
AcDbCircle
10
136.643461002
20
-117.258190236
40
80.1160549649
100
AcDbArc
50
270.534616138
51
51.2797717305
0
ARC
5
1E5
100
AcDbEntity
8
Construction2
6
ByLayer
62
256
370
-1
100
AcDbCircle
10
136.643461002
20
-117.258190236
40
80.1160549649
100
AcDbArc
50
270.534616138
51
51.2797717305
0
ARC
5
1E6
100
AcDbEntity
8
Construction2
6
ByLayer
62
256
370
-1
100
AcDbCircle
10
136.643461002
20
-117.258190236
40
79.1160549649
100
AcDbArc
50
270.534616138
51
51.2797717305
0
ARC
5
1E7
100
AcDbEntity
8
Construction2
6
ByLayer
62
256
370
-1
100
AcDbCircle
10
113.896518717
20
-97.7713738562
40
100.068500848
100
AcDbArc
50
270.31485221
51
338.37734259
0
ARC
5
1E8
100
AcDbEntity
8
Construction2
6
ByLayer
62
256
370
-1
100
AcDbCircle
10
113.896518717
20
-97.7713738562
40
101.068500848
100
AcDbArc
50
270.31485221
51
338.37734259
0
ARC
5
1E9
100
AcDbEntity
8
Construction2
6
ByLayer
62
256
370
-1
100
AcDbCircle
10
136.643461002
20
-117.258190236
40
78.1160549649
100
AcDbArc
50
270.534616138
51
51.2797717305
0
ARC
5
1EA
100
AcDbEntity
8
Construction2
6
ByLayer
62
256
370
-1
100
AcDbCircle
10
136.643461002
20
-117.258190236
40
78.1160549649
100
AcDbArc
50
270.534616138
51
51.2797717305
0
ARC
5
1EB
100
AcDbEntity
8
Construction2
6
ByLayer
62
256
370
-1
100
AcDbCircle
10
136.643461002
20
-117.258190236
40
77.1160549649
100
AcDbArc
50
270.534616138
51
51.2797717305
0
ARC
5
1EC
100
AcDbEntity
8
Construction2
6
ByLayer
62
256
370
-1
100
AcDbCircle
10
113.896518717
20
-97.7713738562
40
98.0685008475
100
AcDbArc
50
270.31485221
51
338.37734259
0
ARC
5
1ED
100
AcDbEntity
8
Construction2
6
ByLayer
62
256
370
-1
100
AcDbCircle
10
113.896518717
20
-97.7713738562
40
102.068500848
100
AcDbArc
50
270.31485221
51
338.37734259
0
ARC
5
1EE
100
AcDbEntity
8
Construction2
6
ByLayer
62
256
370
-1
100
AcDbCircle
10
113.896518717
20
-97.7713738562
40
103.068500848
100
AcDbArc
50
270.31485221
51
338.37734259
0
ARC
5
1EF
100
AcDbEntity
8
Construction2
6
ByLayer
62
256
370
-1
100
AcDbCircle
10
136.643461002
20
-117.258190236
40
76.1160549649
100
AcDbArc
50
270.534616138
51
51.2797717305
0
ARC
5
1F0
100
AcDbEntity
8
Construction2
6
ByLayer
62
256
370
-1
100
AcDbCircle
10
113.896518717
20
-97.7713738562
40
103.068500848
100
AcDbArc
50
270.31485221
51
338.37734259
0
ARC
5
1F1
100
AcDbEntity
8
Construction2
6
ByLayer
62
256
370
-1
100
AcDbCircle
10
113.896518717
20
-97.7713738562
40
104.068500848
100
AcDbArc
50
270.31485221
51
338.37734259
0
ARC
5
1F2
100
AcDbEntity
8
Construction2
6
ByLayer
62
256
370
-1
100
AcDbCircle
10
113.896518717
20
-97.7713738562
40
105.068500848
100
AcDbArc
50
270.31485221
51
338.37734259
0
ARC
5
1F3
100
AcDbEntity
8
Construction2
6
ByLayer
62
256
370
-1
100
AcDbCircle
10
136.643461002
20
-117.258190236
40
78.1160549649
100
AcDbArc
50
270.534616138
51
51.2797717305
0
ARC
5
1F4
100
AcDbEntity
8
Construction2
6
ByLayer
62
256
370
-1
100
AcDbCircle
10
136.643461002
20
-117.258190236
40
80.1160549649
100
AcDbArc
50
270.534616138
51
51.2797717305
0
ARC
5
1F5
100
AcDbEntity
8
Construction2
6
ByLayer
62
256
370
-1
100
AcDbCircle
10
136.643461002
20
-117.258190236
40
80.1160549649
100
AcDbArc
50
270.534616138
51
51.2797717305
0
ARC
5
1F6
100
AcDbEntity
8
Construction2
6
ByLayer
62
256
370
-1
100
AcDbCircle
10
136.643461002
20
-117.258190236
40
83.1160549649
100
AcDbArc
50
270.534616138
51
51.2797717305
0
ARC
5
1F7
100
AcDbEntity
8
Construction2
6
ByLayer
62
256
370
-1
100
AcDbCircle
10
136.643461002
20
-117.258190236
40
85.1160549649
100
AcDbArc
50
270.534616138
51
51.2797717305
0
ARC
5
1F8
100
AcDbEntity
8
Construction2
6
ByLayer
62
256
370
-1
100
AcDbCircle
10
136.643461002
20
-117.258190236
40
86.1160549649
100
AcDbArc
50
270.534616138
51
51.2797717305
0
ARC
5
1F9
100
AcDbEntity
8
Construction2
6
ByLayer
62
256
370
-1
100
AcDbCircle
10
136.643461002
20
-117.258190236
40
87.1160549649
100
AcDbArc
50
270.534616138
51
51.2797717305
0
ARC
5
1FA
100
AcDbEntity
8
Construction2
6
ByLayer
62
256
370
-1
100
AcDbCircle
10
136.643461002
20
-117.258190236
40
89.1160549649
100
AcDbArc
50
270.534616138
51
51.2797717305
0
ARC
5
1FB
100
AcDbEntity
8
Construction2
6
ByLayer
62
256
370
-1
100
AcDbCircle
10
136.643461002
20
-117.258190236
40
90.1160549649
100
AcDbArc
50
270.534616138
51
51.2797717305
0
ARC
5
1FC
100
AcDbEntity
8
Construction2
6
ByLayer
62
256
370
-1
100
AcDbCircle
10
136.643461002
20
-117.258190236
40
93.1160549649
100
AcDbArc
50
270.534616138
51
51.2797717305
0
ARC
5
1FD
100
AcDbEntity
8
Construction2
6
ByLayer
62
256
370
-1
100
AcDbCircle
10
136.643461002
20
-117.258190236
40
94.1160549649
100
AcDbArc
50
270.534616138
51
51.2797717305
0
ARC
5
1FE
100
AcDbEntity
8
Construction2
6
ByLayer
62
256
370
-1
100
AcDbCircle
10
136.643461002
20
-117.258190236
40
95.1160549649
100
AcDbArc
50
270.534616138
51
51.2797717305
0
ARC
5
1FF
100
AcDbEntity
8
Construction2
6
ByLayer
62
256
370
-1
100
AcDbCircle
10
136.643461002
20
-117.258190236
40
97.1160549649
100
AcDbArc
50
270.534616138
51
51.2797717305
0
ARC
5
200
100
AcDbEntity
8
Construction2
6
ByLayer
62
256
370
-1
100
AcDbCircle
10
136.643461002
20
-117.258190236
40
100.116054965
100
AcDbArc
50
270.534616138
51
51.2797717305
0
ARC
5
201
100
AcDbEntity
8
Construction2
6
ByLayer
62
256
370
-1
100
AcDbCircle
10
136.643461002
20
-117.258190236
40
103.116054965
100
AcDbArc
50
270.534616138
51
51.2797717305
0
ARC
5
202
100
AcDbEntity
8
Construction2
6
ByLayer
62
256
370
-1
100
AcDbCircle
10
136.643461002
20
-117.258190236
40
106.116054965
100
AcDbArc
50
270.534616138
51
51.2797717305
0
ARC
5
203
100
AcDbEntity
8
Construction2
6
ByLayer
62
256
370
-1
100
AcDbCircle
10
136.643461002
20
-117.258190236
40
110.116054965
100
AcDbArc
50
270.534616138
51
51.2797717305
0
ARC
5
204
100
AcDbEntity
8
Construction2
6
ByLayer
62
256
370
-1
100
AcDbCircle
10
136.643461002
20
-117.258190236
40
112.116054965
100
AcDbArc
50
270.534616138
51
51.2797717305
0
ARC
5
205
100
AcDbEntity
8
Construction2
6
ByLayer
62
256
370
-1
100
AcDbCircle
10
136.643461002
20
-117.258190236
40
116.116054965
100
AcDbArc
50
270.534616138
51
51.2797717305
0
ARC
5
206
100
AcDbEntity
8
Construction2
6
ByLayer
62
256
370
-1
100
AcDbCircle
10
136.643461002
20
-117.258190236
40
121.116054965
100
AcDbArc
50
270.534616138
51
51.2797717305
0
ARC
5
207
100
AcDbEntity
8
Construction2
6
ByLayer
62
256
370
-1
100
AcDbCircle
10
136.643461002
20
-117.258190236
40
123.116054965
100
AcDbArc
50
270.534616138
51
51.2797717305
0
ARC
5
208
100
AcDbEntity
8
Construction2
6
ByLayer
62
256
370
-1
100
AcDbCircle
10
138.163729203
20
100.670655105
40
339.034730287
100
AcDbArc
50
219.516958636
51
270.058800723
0
ARC
5
209
100
AcDbEntity
8
Construction2
6
ByLayer
62
256
370
-1
100
AcDbCircle
10
138.163729203
20
100.670655105
40
339.034730287
100
AcDbArc
50
219.516958636
51
270.058800723
0
ARC
5
20A
100
AcDbEntity
8
Construction2
6
ByLayer
62
256
370
-1
100
AcDbCircle
10
138.163729203
20
100.670655105
40
338.034730287
100
AcDbArc
50
219.516958636
51
270.058800723
0
ARC
5
20B
100
AcDbEntity
8
Construction2
6
ByLayer
62
256
370
-1
100
AcDbCircle
10
138.163729203
20
100.670655105
40
337.034730287
100
AcDbArc
50
219.516958636
51
270.058800723
0
ARC
5
20C
100
AcDbEntity
8
Construction2
6
ByLayer
62
256
370
-1
100
AcDbCircle
10
138.163729203
20
100.670655105
40
336.034730287
100
AcDbArc
50
219.516958636
51
270.058800723
0
ARC
5
20D
100
AcDbEntity
8
Construction2
6
ByLayer
62
256
370
-1
100
AcDbCircle
10
138.163729203
20
100.670655105
40
335.034730287
100
AcDbArc
50
219.516958636
51
270.058800723
0
ARC
5
20E
100
AcDbEntity
8
Construction2
6
ByLayer
62
256
370
-1
100
AcDbCircle
10
138.163729203
20
100.670655105
40
334.034730287
100
AcDbArc
50
219.516958636
51
270.058800723
0
ARC
5
20F
100
AcDbEntity
8
Construction2
6
ByLayer
62
256
370
-1
100
AcDbCircle
10
138.163729203
20
100.670655105
40
333.034730287
100
AcDbArc
50
219.516958636
51
270.058800723
0
ARC
5
210
100
AcDbEntity
8
Construction2
6
ByLayer
62
256
370
-1
100
AcDbCircle
10
138.163729203
20
100.670655105
40
332.034730287
100
AcDbArc
50
219.516958636
51
270.058800723
0
ARC
5
211
100
AcDbEntity
8
Construction2
6
ByLayer
62
256
370
-1
100
AcDbCircle
10
138.163729203
20
100.670655105
40
332.034730287
100
AcDbArc
50
219.516958636
51
270.058800723
0
ARC
5
212
100
AcDbEntity
8
Construction2
6
ByLayer
62
256
370
-1
100
AcDbCircle
10
138.163729203
20
100.670655105
40
331.034730287
100
AcDbArc
50
219.516958636
51
270.058800723
0
ARC
5
213
100
AcDbEntity
8
Construction2
6
ByLayer
62
256
370
-1
100
AcDbCircle
10
138.163729203
20
100.670655105
40
330.034730287
100
AcDbArc
50
219.516958636
51
270.058800723
0
ARC
5
214
100
AcDbEntity
8
Construction2
6
ByLayer
62
256
370
-1
100
AcDbCircle
10
138.163729203
20
100.670655105
40
329.034730287
100
AcDbArc
50
219.516958636
51
270.058800723
0
ARC
5
215
100
AcDbEntity
8
Construction2
6
ByLayer
62
256
370
-1
100
AcDbCircle
10
138.163729203
20
100.670655105
40
328.034730287
100
AcDbArc
50
219.516958636
51
270.058800723
0
ARC
5
216
100
AcDbEntity
8
Construction2
6
ByLayer
62
256
370
-1
100
AcDbCircle
10
138.163729203
20
100.670655105
40
327.034730287
100
AcDbArc
50
219.516958636
51
270.058800723
0
ARC
5
217
100
AcDbEntity
8
Construction2
6
ByLayer
62
256
370
-1
100
AcDbCircle
10
138.163729203
20
100.670655105
40
326.034730287
100
AcDbArc
50
219.516958636
51
270.058800723
0
ARC
5
218
100
AcDbEntity
8
Construction2
6
ByLayer
62
256
370
-1
100
AcDbCircle
10
124.046825277
20
59.9686456439
40
257.969899157
100
AcDbArc
50
211.773018655
51
267.856080329
0
ARC
5
219
100
AcDbEntity
8
Construction2
6
ByLayer
62
256
370
-1
100
AcDbCircle
10
124.046825277
20
59.9686456439
40
258.969899157
100
AcDbArc
50
211.773018655
51
267.856080329
0
ARC
5
21A
100
AcDbEntity
8
Construction2
6
ByLayer
62
256
370
-1
100
AcDbCircle
10
124.046825277
20
59.9686456439
40
259.969899157
100
AcDbArc
50
211.773018655
51
267.856080329
0
ARC
5
21B
100
AcDbEntity
8
Construction2
6
ByLayer
62
256
370
-1
100
AcDbCircle
10
124.046825277
20
59.9686456439
40
260.969899157
100
AcDbArc
50
211.773018655
51
267.856080329
0
ARC
5
21C
100
AcDbEntity
8
Construction2
6
ByLayer
62
256
370
-1
100
AcDbCircle
10
124.046825277
20
59.9686456439
40
261.969899157
100
AcDbArc
50
211.773018655
51
267.856080329
0
ARC
5
21D
100
AcDbEntity
8
Construction2
6
ByLayer
62
256
370
-1
100
AcDbCircle
10
124.046825277
20
59.9686456439
40
261.969899157
100
AcDbArc
50
211.773018655
51
267.856080329
0
ARC
5
21E
100
AcDbEntity
8
Construction2
6
ByLayer
62
256
370
-1
100
AcDbCircle
10
124.046825277
20
59.9686456439
40
262.969899157
100
AcDbArc
50
211.773018655
51
267.856080329
0
ARC
5
21F
100
AcDbEntity
8
Construction2
6
ByLayer
62
256
370
-1
100
AcDbCircle
10
124.046825277
20
59.9686456439
40
262.969899157
100
AcDbArc
50
211.773018655
51
267.856080329
0
ARC
5
220
100
AcDbEntity
8
Construction2
6
ByLayer
62
256
370
-1
100
AcDbCircle
10
124.046825277
20
59.9686456439
40
263.969899157
100
AcDbArc
50
211.773018655
51
267.856080329
0
ARC
5
221
100
AcDbEntity
8
Construction2
6
ByLayer
62
256
370
-1
100
AcDbCircle
10
124.046825277
20
59.9686456439
40
264.969899157
100
AcDbArc
50
211.773018655
51
267.856080329
0
ARC
5
222
100
AcDbEntity
8
Construction2
6
ByLayer
62
256
370
-1
100
AcDbCircle
10
124.046825277
20
59.9686456439
40
265.969899157
100
AcDbArc
50
211.773018655
51
267.856080329
0
ARC
5
223
100
AcDbEntity
8
Construction2
6
ByLayer
62
256
370
-1
100
AcDbCircle
10
124.046825277
20
59.9686456439
40
265.969899157
100
AcDbArc
50
211.773018655
51
267.856080329
0
ARC
5
224
100
AcDbEntity
8
Construction2
6
ByLayer
62
256
370
-1
100
AcDbCircle
10
124.046825277
20
59.9686456439
40
265.969899157
100
AcDbArc
50
211.773018655
51
267.856080329
0
ARC
5
225
100
AcDbEntity
8
Construction2
6
ByLayer
62
256
370
-1
100
AcDbCircle
10
124.046825277
20
59.9686456439
40
266.969899157
100
AcDbArc
50
211.773018655
51
267.856080329
0
ARC
5
226
100
AcDbEntity
8
Construction2
6
ByLayer
62
256
370
-1
100
AcDbCircle
10
124.046825277
20
59.9686456439
40
267.969899157
100
AcDbArc
50
211.773018655
51
267.856080329
0
ARC
5
227
100
AcDbEntity
8
Construction2
6
ByLayer
62
256
370
-1
100
AcDbCircle
10
124.046825277
20
59.9686456439
40
268.969899157
100
AcDbArc
50
211.773018655
51
267.856080329
0
ARC
5
228
100
AcDbEntity
8
Construction2
6
ByLayer
62
256
370
-1
100
AcDbCircle
10
124.046825277
20
59.9686456439
40
268.969899157
100
AcDbArc
50
211.773018655
51
267.856080329
0
ARC
5
229
100
AcDbEntity
8
Construction2
6
ByLayer
62
256
370
-1
100
AcDbCircle
10
124.046825277
20
59.9686456439
40
269.969899157
100
AcDbArc
50
211.773018655
51
267.856080329
0
ARC
5
22A
100
AcDbEntity
8
Construction2
6
ByLayer
62
256
370
-1
100
AcDbCircle
10
124.046825277
20
59.9686456439
40
270.969899157
100
AcDbArc
50
211.773018655
51
267.856080329
0
ARC
5
22B
100
AcDbEntity
8
Construction2
6
ByLayer
62
256
370
-1
100
AcDbCircle
10
138.163729203
20
100.670655105
40
325.034730287
100
AcDbArc
50
219.516958636
51
270.058800723
0
ARC
5
22C
100
AcDbEntity
8
Construction2
6
ByLayer
62
256
370
-1
100
AcDbCircle
10
138.163729203
20
100.670655105
40
325.034730287
100
AcDbArc
50
219.516958636
51
270.058800723
0
ARC
5
22D
100
AcDbEntity
8
Construction2
6
ByLayer
62
256
370
-1
100
AcDbCircle
10
138.163729203
20
100.670655105
40
324.034730287
100
AcDbArc
50
219.516958636
51
270.058800723
0
ARC
5
22E
100
AcDbEntity
8
Construction2
6
ByLayer
62
256
370
-1
100
AcDbCircle
10
124.046825277
20
59.9686456439
40
271.969899157
100
AcDbArc
50
211.773018655
51
267.856080329
0
ARC
5
22F
100
AcDbEntity
8
Construction2
6
ByLayer
62
256
370
-1
100
AcDbCircle
10
124.046825277
20
59.9686456439
40
271.969899157
100
AcDbArc
50
211.773018655
51
267.856080329
0
ARC
5
230
100
AcDbEntity
8
Construction2
6
ByLayer
62
256
370
-1
100
AcDbCircle
10
124.046825277
20
59.9686456439
40
271.969899157
100
AcDbArc
50
211.773018655
51
267.856080329
0
ARC
5
231
100
AcDbEntity
8
Construction2
6
ByLayer
62
256
370
-1
100
AcDbCircle
10
124.046825277
20
59.9686456439
40
272.969899157
100
AcDbArc
50
211.773018655
51
267.856080329
0
ARC
5
232
100
AcDbEntity
8
Construction2
6
ByLayer
62
256
370
-1
100
AcDbCircle
10
138.163729203
20
100.670655105
40
323.034730287
100
AcDbArc
50
219.516958636
51
270.058800723
0
ARC
5
233
100
AcDbEntity
8
Construction2
6
ByLayer
62
256
370
-1
100
AcDbCircle
10
138.163729203
20
100.670655105
40
322.034730287
100
AcDbArc
50
219.516958636
51
270.058800723
0
ARC
5
234
100
AcDbEntity
8
Construction2
6
ByLayer
62
256
370
-1
100
AcDbCircle
10
138.163729203
20
100.670655105
40
321.034730287
100
AcDbArc
50
219.516958636
51
270.058800723
0
ARC
5
235
100
AcDbEntity
8
Construction2
6
ByLayer
62
256
370
-1
100
AcDbCircle
10
138.163729203
20
100.670655105
40
320.034730287
100
AcDbArc
50
219.516958636
51
270.058800723
0
ARC
5
236
100
AcDbEntity
8
Construction2
6
ByLayer
62
256
370
-1
100
AcDbCircle
10
138.163729203
20
100.670655105
40
319.034730287
100
AcDbArc
50
219.516958636
51
270.058800723
0
ARC
5
237
100
AcDbEntity
8
Construction2
6
ByLayer
62
256
370
-1
100
AcDbCircle
10
138.163729203
20
100.670655105
40
319.034730287
100
AcDbArc
50
219.516958636
51
270.058800723
0
ARC
5
238
100
AcDbEntity
8
Construction2
6
ByLayer
62
256
370
-1
100
AcDbCircle
10
138.163729203
20
100.670655105
40
318.034730287
100
AcDbArc
50
219.516958636
51
270.058800723
0
ARC
5
239
100
AcDbEntity
8
Construction2
6
ByLayer
62
256
370
-1
100
AcDbCircle
10
138.163729203
20
100.670655105
40
317.034730287
100
AcDbArc
50
219.516958636
51
270.058800723
0
ARC
5
23A
100
AcDbEntity
8
Construction2
6
ByLayer
62
256
370
-1
100
AcDbCircle
10
138.163729203
20
100.670655105
40
316.034730287
100
AcDbArc
50
219.516958636
51
270.058800723
0
ARC
5
23B
100
AcDbEntity
8
Construction2
6
ByLayer
62
256
370
-1
100
AcDbCircle
10
138.163729203
20
100.670655105
40
315.034730287
100
AcDbArc
50
219.516958636
51
270.058800723
0
ARC
5
23C
100
AcDbEntity
8
Construction2
6
ByLayer
62
256
370
-1
100
AcDbCircle
10
124.046825277
20
59.9686456439
40
270.969899157
100
AcDbArc
50
211.773018655
51
267.856080329
0
ARC
5
23D
100
AcDbEntity
8
Construction2
6
ByLayer
62
256
370
-1
100
AcDbCircle
10
138.163729203
20
100.670655105
40
318.034730287
100
AcDbArc
50
219.516958636
51
270.058800723
0
ARC
5
23E
100
AcDbEntity
8
Construction2
6
ByLayer
62
256
370
-1
100
AcDbCircle
10
138.163729203
20
100.670655105
40
318.034730287
100
AcDbArc
50
219.516958636
51
270.058800723
0
ARC
5
23F
100
AcDbEntity
8
Construction2
6
ByLayer
62
256
370
-1
100
AcDbCircle
10
138.163729203
20
100.670655105
40
319.034730287
100
AcDbArc
50
219.516958636
51
270.058800723
0
ARC
5
240
100
AcDbEntity
8
Construction2
6
ByLayer
62
256
370
-1
100
AcDbCircle
10
138.163729203
20
100.670655105
40
322.034730287
100
AcDbArc
50
219.516958636
51
270.058800723
0
ARC
5
241
100
AcDbEntity
8
Construction2
6
ByLayer
62
256
370
-1
100
AcDbCircle
10
138.163729203
20
100.670655105
40
320.034730287
100
AcDbArc
50
219.516958636
51
270.058800723
0
ARC
5
242
100
AcDbEntity
8
Construction2
6
ByLayer
62
256
370
-1
100
AcDbCircle
10
124.046825277
20
59.9686456439
40
270.969899157
100
AcDbArc
50
211.773018655
51
267.856080329
0
ARC
5
243
100
AcDbEntity
8
Construction2
6
ByLayer
62
256
370
-1
100
AcDbCircle
10
124.046825277
20
59.9686456439
40
270.969899157
100
AcDbArc
50
211.773018655
51
267.856080329
0
ARC
5
244
100
AcDbEntity
8
Construction2
6
ByLayer
62
256
370
-1
100
AcDbCircle
10
124.046825277
20
59.9686456439
40
267.969899157
100
AcDbArc
50
211.773018655
51
267.856080329
0
ARC
5
245
100
AcDbEntity
8
Construction2
6
ByLayer
62
256
370
-1
100
AcDbCircle
10
138.163729203
20
100.670655105
40
316.034730287
100
AcDbArc
50
219.516958636
51
270.058800723
0
ARC
5
246
100
AcDbEntity
8
Construction2
6
ByLayer
62
256
370
-1
100
AcDbCircle
10
136.643461002
20
-117.258190236
40
97.1160549649
100
AcDbArc
50
270.534616138
51
51.2797717305
0
ARC
5
247
100
AcDbEntity
8
Construction2
6
ByLayer
62
256
370
-1
100
AcDbCircle
10
136.643461002
20
-117.258190236
40
95.1160549649
100
AcDbArc
50
270.534616138
51
51.2797717305
0
ARC
5
248
100
AcDbEntity
8
Construction2
6
ByLayer
62
256
370
-1
100
AcDbCircle
10
138.163729203
20
100.670655105
40
314.034730287
100
AcDbArc
50
219.516958636
51
270.058800723
0
ARC
5
249
100
AcDbEntity
8
Construction2
6
ByLayer
62
256
370
-1
100
AcDbCircle
10
138.163729203
20
100.670655105
40
313.034730287
100
AcDbArc
50
219.516958636
51
270.058800723
0
ARC
5
24A
100
AcDbEntity
8
Construction2
6
ByLayer
62
256
370
-1
100
AcDbCircle
10
138.163729203
20
100.670655105
40
312.034730287
100
AcDbArc
50
219.516958636
51
270.058800723
0
ARC
5
24B
100
AcDbEntity
8
Construction2
6
ByLayer
62
256
370
-1
100
AcDbCircle
10
138.163729203
20
100.670655105
40
312.034730287
100
AcDbArc
50
219.516958636
51
270.058800723
0
ARC
5
24C
100
AcDbEntity
8
Construction2
6
ByLayer
62
256
370
-1
100
AcDbCircle
10
138.163729203
20
100.670655105
40
311.034730287
100
AcDbArc
50
219.516958636
51
270.058800723
0
ARC
5
24D
100
AcDbEntity
8
Construction2
6
ByLayer
62
256
370
-1
100
AcDbCircle
10
113.896518717
20
-97.7713738562
40
106.068500848
100
AcDbArc
50
270.31485221
51
338.37734259
0
ARC
5
24E
100
AcDbEntity
8
Construction2
6
ByLayer
62
256
370
-1
100
AcDbCircle
10
113.896518717
20
-97.7713738562
40
106.068500848
100
AcDbArc
50
270.31485221
51
338.37734259
0
ARC
5
24F
100
AcDbEntity
8
Construction2
6
ByLayer
62
256
370
-1
100
AcDbCircle
10
113.896518717
20
-97.7713738562
40
107.068500848
100
AcDbArc
50
270.31485221
51
338.37734259
0
ARC
5
250
100
AcDbEntity
8
Construction2
6
ByLayer
62
256
370
-1
100
AcDbCircle
10
138.163729203
20
100.670655105
40
310.034730287
100
AcDbArc
50
219.516958636
51
270.058800723
0
ARC
5
251
100
AcDbEntity
8
Construction2
6
ByLayer
62
256
370
-1
100
AcDbCircle
10
138.163729203
20
100.670655105
40
312.034730287
100
AcDbArc
50
219.516958636
51
270.058800723
0
ARC
5
252
100
AcDbEntity
8
Construction2
6
ByLayer
62
256
370
-1
100
AcDbCircle
10
138.163729203
20
100.670655105
40
309.034730287
100
AcDbArc
50
219.516958636
51
270.058800723
0
ARC
5
253
100
AcDbEntity
8
Construction2
6
ByLayer
62
256
370
-1
100
AcDbCircle
10
138.163729203
20
100.670655105
40
308.034730287
100
AcDbArc
50
219.516958636
51
270.058800723
0
ARC
5
254
100
AcDbEntity
8
Construction2
6
ByLayer
62
256
370
-1
100
AcDbCircle
10
138.163729203
20
100.670655105
40
307.034730287
100
AcDbArc
50
219.516958636
51
270.058800723
0
ARC
5
255
100
AcDbEntity
8
Construction2
6
ByLayer
62
256
370
-1
100
AcDbCircle
10
138.163729203
20
100.670655105
40
306.034730287
100
AcDbArc
50
219.516958636
51
270.058800723
0
ARC
5
256
100
AcDbEntity
8
Construction2
6
ByLayer
62
256
370
-1
100
AcDbCircle
10
138.163729203
20
100.670655105
40
305.034730287
100
AcDbArc
50
219.516958636
51
270.058800723
0
ARC
5
257
100
AcDbEntity
8
Construction2
6
ByLayer
62
256
370
-1
100
AcDbCircle
10
138.163729203
20
100.670655105
40
306.034730287
100
AcDbArc
50
219.516958636
51
270.058800723
0
ARC
5
258
100
AcDbEntity
8
Construction2
6
ByLayer
62
256
370
-1
100
AcDbCircle
10
138.163729203
20
100.670655105
40
306.034730287
100
AcDbArc
50
219.516958636
51
270.058800723
0
ARC
5
259
100
AcDbEntity
8
Construction2
6
ByLayer
62
256
370
-1
100
AcDbCircle
10
138.163729203
20
100.670655105
40
306.034730287
100
AcDbArc
50
219.516958636
51
270.058800723
0
ARC
5
25A
100
AcDbEntity
8
Construction2
6
ByLayer
62
256
370
-1
100
AcDbCircle
10
138.163729203
20
100.670655105
40
304.034730287
100
AcDbArc
50
219.516958636
51
270.058800723
0
ARC
5
25B
100
AcDbEntity
8
Construction2
6
ByLayer
62
256
370
-1
100
AcDbCircle
10
138.163729203
20
100.670655105
40
306.034730287
100
AcDbArc
50
219.516958636
51
270.058800723
0
ARC
5
25C
100
AcDbEntity
8
Construction2
6
ByLayer
62
256
370
-1
100
AcDbCircle
10
113.896518717
20
-97.7713738562
40
105.068500848
100
AcDbArc
50
270.31485221
51
338.37734259
0
ARC
5
25D
100
AcDbEntity
8
Construction2
6
ByLayer
62
256
370
-1
100
AcDbCircle
10
113.896518717
20
-97.7713738562
40
102.068500848
100
AcDbArc
50
270.31485221
51
338.37734259
0
ARC
5
25E
100
AcDbEntity
8
Construction2
6
ByLayer
62
256
370
-1
100
AcDbCircle
10
113.896518717
20
-97.7713738562
40
103.068500848
100
AcDbArc
50
270.31485221
51
338.37734259
0
ARC
5
25F
100
AcDbEntity
8
Construction2
6
ByLayer
62
256
370
-1
100
AcDbCircle
10
138.163729203
20
100.670655105
40
305.034730287
100
AcDbArc
50
219.516958636
51
270.058800723
0
ARC
5
260
100
AcDbEntity
8
Construction2
6
ByLayer
62
256
370
-1
100
AcDbCircle
10
138.163729203
20
100.670655105
40
307.034730287
100
AcDbArc
50
219.516958636
51
270.058800723
0
ARC
5
261
100
AcDbEntity
8
Construction2
6
ByLayer
62
256
370
-1
100
AcDbCircle
10
138.163729203
20
100.670655105
40
310.034730287
100
AcDbArc
50
219.516958636
51
270.058800723
0
ARC
5
262
100
AcDbEntity
8
Construction2
6
ByLayer
62
256
370
-1
100
AcDbCircle
10
138.163729203
20
100.670655105
40
313.034730287
100
AcDbArc
50
219.516958636
51
270.058800723
0
ARC
5
263
100
AcDbEntity
8
Construction2
6
ByLayer
62
256
370
-1
100
AcDbCircle
10
138.163729203
20
100.670655105
40
321.034730287
100
AcDbArc
50
219.516958636
51
270.058800723
0
ARC
5
264
100
AcDbEntity
8
Construction2
6
ByLayer
62
256
370
-1
100
AcDbCircle
10
138.163729203
20
100.670655105
40
326.034730287
100
AcDbArc
50
219.516958636
51
270.058800723
0
ARC
5
265
100
AcDbEntity
8
Construction2
6
ByLayer
62
256
370
-1
100
AcDbCircle
10
138.163729203
20
100.670655105
40
330.034730287
100
AcDbArc
50
219.516958636
51
270.058800723
0
ARC
5
266
100
AcDbEntity
8
Construction2
6
ByLayer
62
256
370
-1
100
AcDbCircle
10
138.163729203
20
100.670655105
40
330.034730287
100
AcDbArc
50
219.516958636
51
270.058800723
0
ARC
5
267
100
AcDbEntity
8
Construction2
6
ByLayer
62
256
370
-1
100
AcDbCircle
10
138.163729203
20
100.670655105
40
319.034730287
100
AcDbArc
50
219.516958636
51
270.058800723
0
ARC
5
268
100
AcDbEntity
8
Construction2
6
ByLayer
62
256
370
-1
100
AcDbCircle
10
138.163729203
20
100.670655105
40
310.034730287
100
AcDbArc
50
219.516958636
51
270.058800723
0
ARC
5
269
100
AcDbEntity
8
Construction2
6
ByLayer
62
256
370
-1
100
AcDbCircle
10
138.163729203
20
100.670655105
40
310.034730287
100
AcDbArc
50
219.516958636
51
270.058800723
0
ARC
5
26A
100
AcDbEntity
8
Construction2
6
ByLayer
62
256
370
-1
100
AcDbCircle
10
138.163729203
20
100.670655105
40
311.034730287
100
AcDbArc
50
219.516958636
51
270.058800723
0
ARC
5
26B
100
AcDbEntity
8
Construction2
6
ByLayer
62
256
370
-1
100
AcDbCircle
10
124.046825277
20
59.9686456439
40
256.969899157
100
AcDbArc
50
211.773018655
51
267.856080329
0
ARC
5
26C
100
AcDbEntity
8
Construction2
6
ByLayer
62
256
370
-1
100
AcDbCircle
10
124.046825277
20
59.9686456439
40
261.969899157
100
AcDbArc
50
211.773018655
51
267.856080329
0
ARC
5
26D
100
AcDbEntity
8
Construction2
6
ByLayer
62
256
370
-1
100
AcDbCircle
10
138.163729203
20
100.670655105
40
309.034730287
100
AcDbArc
50
219.516958636
51
270.058800723
0
ARC
5
26E
100
AcDbEntity
8
Construction2
6
ByLayer
62
256
370
-1
100
AcDbCircle
10
138.163729203
20
100.670655105
40
315.034730287
100
AcDbArc
50
219.516958636
51
270.058800723
0
ARC
5
26F
100
AcDbEntity
8
Construction2
6
ByLayer
62
256
370
-1
100
AcDbCircle
10
138.163729203
20
100.670655105
40
317.034730287
100
AcDbArc
50
219.516958636
51
270.058800723
0
ARC
5
270
100
AcDbEntity
8
Construction2
6
ByLayer
62
256
370
-1
100
AcDbCircle
10
138.163729203
20
100.670655105
40
321.034730287
100
AcDbArc
50
219.516958636
51
270.058800723
0
ARC
5
271
100
AcDbEntity
8
Construction2
6
ByLayer
62
256
370
-1
100
AcDbCircle
10
138.163729203
20
100.670655105
40
324.034730287
100
AcDbArc
50
219.516958636
51
270.058800723
0
ARC
5
272
100
AcDbEntity
8
Construction2
6
ByLayer
62
256
370
-1
100
AcDbCircle
10
138.163729203
20
100.670655105
40
327.034730287
100
AcDbArc
50
219.516958636
51
270.058800723
0
ARC
5
273
100
AcDbEntity
8
Construction2
6
ByLayer
62
256
370
-1
100
AcDbCircle
10
138.163729203
20
100.670655105
40
329.034730287
100
AcDbArc
50
219.516958636
51
270.058800723
0
ARC
5
274
100
AcDbEntity
8
Construction2
6
ByLayer
62
256
370
-1
100
AcDbCircle
10
138.163729203
20
100.670655105
40
331.034730287
100
AcDbArc
50
219.516958636
51
270.058800723
0
ARC
5
275
100
AcDbEntity
8
Construction2
6
ByLayer
62
256
370
-1
100
AcDbCircle
10
138.163729203
20
100.670655105
40
329.034730287
100
AcDbArc
50
219.516958636
51
270.058800723
0
ARC
5
276
100
AcDbEntity
8
Construction2
6
ByLayer
62
256
370
-1
100
AcDbCircle
10
138.163729203
20
100.670655105
40
322.034730287
100
AcDbArc
50
219.516958636
51
270.058800723
0
ARC
5
277
100
AcDbEntity
8
Construction2
6
ByLayer
62
256
370
-1
100
AcDbCircle
10
138.163729203
20
100.670655105
40
318.034730287
100
AcDbArc
50
219.516958636
51
270.058800723
0
ARC
5
278
100
AcDbEntity
8
Construction2
6
ByLayer
62
256
370
-1
100
AcDbCircle
10
138.163729203
20
100.670655105
40
317.034730287
100
AcDbArc
50
219.516958636
51
270.058800723
0
ARC
5
279
100
AcDbEntity
8
Construction2
6
ByLayer
62
256
370
-1
100
AcDbCircle
10
-289.438983549
20
-315.066752555
40
304.382760206
100
AcDbArc
50
47.5197808264
51
87.7987121552
0
ARC
5
27A
100
AcDbEntity
8
Construction2
6
ByLayer
62
256
370
-1
100
AcDbCircle
10
-289.438983549
20
-315.066752555
40
303.382760206
100
AcDbArc
50
47.5197808264
51
87.7987121552
0
ARC
5
27B
100
AcDbEntity
8
Construction2
6
ByLayer
62
256
370
-1
100
AcDbCircle
10
-289.438983549
20
-315.066752555
40
302.382760206
100
AcDbArc
50
47.5197808264
51
87.7987121552
0
ARC
5
27C
100
AcDbEntity
8
Construction2
6
ByLayer
62
256
370
-1
100
AcDbCircle
10
-289.438983549
20
-315.066752555
40
301.382760206
100
AcDbArc
50
47.5197808264
51
87.7987121552
0
ARC
5
27D
100
AcDbEntity
8
Construction2
6
ByLayer
62
256
370
-1
100
AcDbCircle
10
124.046825277
20
59.9686456439
40
273.969899157
100
AcDbArc
50
211.773018655
51
267.856080329
0
ARC
5
27E
100
AcDbEntity
8
Construction2
6
ByLayer
62
256
370
-1
100
AcDbCircle
10
124.046825277
20
59.9686456439
40
272.969899157
100
AcDbArc
50
211.773018655
51
267.856080329
0
ARC
5
27F
100
AcDbEntity
8
Construction2
6
ByLayer
62
256
370
-1
100
AcDbCircle
10
-289.438983549
20
-315.066752555
40
300.382760206
100
AcDbArc
50
47.5197808264
51
87.7987121552
0
ARC
5
280
100
AcDbEntity
8
Construction2
6
ByLayer
62
256
370
-1
100
AcDbCircle
10
-289.438983549
20
-315.066752555
40
299.382760206
100
AcDbArc
50
47.5197808264
51
87.7987121552
0
ARC
5
281
100
AcDbEntity
8
Construction2
6
ByLayer
62
256
370
-1
100
AcDbCircle
10
-289.438983549
20
-315.066752555
40
298.382760206
100
AcDbArc
50
47.5197808264
51
87.7987121552
0
ARC
5
282
100
AcDbEntity
8
Construction2
6
ByLayer
62
256
370
-1
100
AcDbCircle
10
-289.438983549
20
-315.066752555
40
297.382760206
100
AcDbArc
50
47.5197808264
51
87.7987121552
0
ARC
5
283
100
AcDbEntity
8
Construction2
6
ByLayer
62
256
370
-1
100
AcDbCircle
10
-289.438983549
20
-315.066752555
40
297.382760206
100
AcDbArc
50
47.5197808264
51
87.7987121552
0
ARC
5
284
100
AcDbEntity
8
Construction2
6
ByLayer
62
256
370
-1
100
AcDbCircle
10
-289.438983549
20
-315.066752555
40
296.382760206
100
AcDbArc
50
47.5197808264
51
87.7987121552
0
ARC
5
285
100
AcDbEntity
8
Construction2
6
ByLayer
62
256
370
-1
100
AcDbCircle
10
-289.438983549
20
-315.066752555
40
295.382760206
100
AcDbArc
50
47.5197808264
51
87.7987121552
0
ARC
5
286
100
AcDbEntity
8
Construction2
6
ByLayer
62
256
370
-1
100
AcDbCircle
10
-289.438983549
20
-315.066752555
40
294.382760206
100
AcDbArc
50
47.5197808264
51
87.7987121552
0
ARC
5
287
100
AcDbEntity
8
Construction2
6
ByLayer
62
256
370
-1
100
AcDbCircle
10
-289.438983549
20
-315.066752555
40
293.382760206
100
AcDbArc
50
47.5197808264
51
87.7987121552
0
ARC
5
288
100
AcDbEntity
8
Construction2
6
ByLayer
62
256
370
-1
100
AcDbCircle
10
-289.438983549
20
-315.066752555
40
292.382760206
100
AcDbArc
50
47.5197808264
51
87.7987121552
0
ARC
5
289
100
AcDbEntity
8
Construction2
6
ByLayer
62
256
370
-1
100
AcDbCircle
10
-289.438983549
20
-315.066752555
40
291.382760206
100
AcDbArc
50
47.5197808264
51
87.7987121552
0
ARC
5
28A
100
AcDbEntity
8
Construction2
6
ByLayer
62
256
370
-1
100
AcDbCircle
10
-289.438983549
20
-315.066752555
40
290.382760206
100
AcDbArc
50
47.5197808264
51
87.7987121552
0
ARC
5
28B
100
AcDbEntity
8
Construction2
6
ByLayer
62
256
370
-1
100
AcDbCircle
10
-289.438983549
20
-315.066752555
40
289.382760206
100
AcDbArc
50
47.5197808264
51
87.7987121552
0
ARC
5
28C
100
AcDbEntity
8
Construction2
6
ByLayer
62
256
370
-1
100
AcDbCircle
10
-289.438983549
20
-315.066752555
40
288.382760206
100
AcDbArc
50
47.5197808264
51
87.7987121552
0
ARC
5
28D
100
AcDbEntity
8
Construction2
6
ByLayer
62
256
370
-1
100
AcDbCircle
10
-289.438983549
20
-315.066752555
40
287.382760206
100
AcDbArc
50
47.5197808264
51
87.7987121552
0
ARC
5
28E
100
AcDbEntity
8
Construction2
6
ByLayer
62
256
370
-1
100
AcDbCircle
10
-289.438983549
20
-315.066752555
40
287.382760206
100
AcDbArc
50
47.5197808264
51
87.7987121552
0
ARC
5
28F
100
AcDbEntity
8
Construction2
6
ByLayer
62
256
370
-1
100
AcDbCircle
10
-289.438983549
20
-315.066752555
40
286.382760206
100
AcDbArc
50
47.5197808264
51
87.7987121552
0
ARC
5
290
100
AcDbEntity
8
Construction2
6
ByLayer
62
256
370
-1
100
AcDbCircle
10
-289.438983549
20
-315.066752555
40
285.382760206
100
AcDbArc
50
47.5197808264
51
87.7987121552
0
ARC
5
291
100
AcDbEntity
8
Construction2
6
ByLayer
62
256
370
-1
100
AcDbCircle
10
-289.438983549
20
-315.066752555
40
284.382760206
100
AcDbArc
50
47.5197808264
51
87.7987121552
0
ARC
5
292
100
AcDbEntity
8
Construction2
6
ByLayer
62
256
370
-1
100
AcDbCircle
10
-289.438983549
20
-315.066752555
40
283.382760206
100
AcDbArc
50
47.5197808264
51
87.7987121552
0
ARC
5
293
100
AcDbEntity
8
Construction2
6
ByLayer
62
256
370
-1
100
AcDbCircle
10
-289.438983549
20
-315.066752555
40
282.382760206
100
AcDbArc
50
47.5197808264
51
87.7987121552
0
ARC
5
294
100
AcDbEntity
8
Construction2
6
ByLayer
62
256
370
-1
100
AcDbCircle
10
-289.438983549
20
-315.066752555
40
282.382760206
100
AcDbArc
50
47.5197808264
51
87.7987121552
0
ARC
5
295
100
AcDbEntity
8
Construction2
6
ByLayer
62
256
370
-1
100
AcDbCircle
10
-289.438983549
20
-315.066752555
40
282.382760206
100
AcDbArc
50
47.5197808264
51
87.7987121552
0
ARC
5
296
100
AcDbEntity
8
Construction2
6
ByLayer
62
256
370
-1
100
AcDbCircle
10
-289.438983549
20
-315.066752555
40
282.382760206
100
AcDbArc
50
47.5197808264
51
87.7987121552
0
ARC
5
297
100
AcDbEntity
8
Construction2
6
ByLayer
62
256
370
-1
100
AcDbCircle
10
-289.438983549
20
-315.066752555
40
281.382760206
100
AcDbArc
50
47.5197808264
51
87.7987121552
0
ARC
5
298
100
AcDbEntity
8
Construction2
6
ByLayer
62
256
370
-1
100
AcDbCircle
10
-289.438983549
20
-315.066752555
40
280.382760206
100
AcDbArc
50
47.5197808264
51
87.7987121552
0
ARC
5
299
100
AcDbEntity
8
Construction2
6
ByLayer
62
256
370
-1
100
AcDbCircle
10
-289.438983549
20
-315.066752555
40
279.382760206
100
AcDbArc
50
47.5197808264
51
87.7987121552
0
ARC
5
29A
100
AcDbEntity
8
Construction2
6
ByLayer
62
256
370
-1
100
AcDbCircle
10
-289.438983549
20
-315.066752555
40
278.382760206
100
AcDbArc
50
47.5197808264
51
87.7987121552
0
ARC
5
29B
100
AcDbEntity
8
Construction2
6
ByLayer
62
256
370
-1
100
AcDbCircle
10
-289.438983549
20
-315.066752555
40
277.382760206
100
AcDbArc
50
47.5197808264
51
87.7987121552
0
ARC
5
29C
100
AcDbEntity
8
Construction2
6
ByLayer
62
256
370
-1
100
AcDbCircle
10
-289.438983549
20
-315.066752555
40
276.382760206
100
AcDbArc
50
47.5197808264
51
87.7987121552
0
ARC
5
29D
100
AcDbEntity
8
Construction2
6
ByLayer
62
256
370
-1
100
AcDbCircle
10
-285.973546314
20
-223.532790392
40
195.474079323
100
AcDbArc
50
33.7106001595
51
90.3576562733
0
ARC
5
29E
100
AcDbEntity
8
Construction2
6
ByLayer
62
256
370
-1
100
AcDbCircle
10
-289.438983549
20
-315.066752555
40
275.382760206
100
AcDbArc
50
47.5197808264
51
87.7987121552
0
ARC
5
29F
100
AcDbEntity
8
Construction2
6
ByLayer
62
256
370
-1
100
AcDbCircle
10
-289.438983549
20
-315.066752555
40
274.382760206
100
AcDbArc
50
47.5197808264
51
87.7987121552
0
ARC
5
2A0
100
AcDbEntity
8
Construction2
6
ByLayer
62
256
370
-1
100
AcDbCircle
10
-289.438983549
20
-315.066752555
40
273.382760206
100
AcDbArc
50
47.5197808264
51
87.7987121552
0
ARC
5
2A1
100
AcDbEntity
8
Construction2
6
ByLayer
62
256
370
-1
100
AcDbCircle
10
-285.973546314
20
-223.532790392
40
196.474079323
100
AcDbArc
50
33.7106001595
51
90.3576562733
0
ARC
5
2A2
100
AcDbEntity
8
Construction2
6
ByLayer
62
256
370
-1
100
AcDbCircle
10
-285.973546314
20
-223.532790392
40
196.474079323
100
AcDbArc
50
33.7106001595
51
90.3576562733
0
ARC
5
2A3
100
AcDbEntity
8
Construction2
6
ByLayer
62
256
370
-1
100
AcDbCircle
10
-285.973546314
20
-223.532790392
40
197.474079323
100
AcDbArc
50
33.7106001595
51
90.3576562733
0
ARC
5
2A4
100
AcDbEntity
8
Construction2
6
ByLayer
62
256
370
-1
100
AcDbCircle
10
-285.973546314
20
-223.532790392
40
198.474079323
100
AcDbArc
50
33.7106001595
51
90.3576562733
0
ARC
5
2A5
100
AcDbEntity
8
Construction2
6
ByLayer
62
256
370
-1
100
AcDbCircle
10
-285.973546314
20
-223.532790392
40
199.474079323
100
AcDbArc
50
33.7106001595
51
90.3576562733
0
ARC
5
2A6
100
AcDbEntity
8
Construction2
6
ByLayer
62
256
370
-1
100
AcDbCircle
10
138.163729203
20
100.670655105
40
332.034730287
100
AcDbArc
50
219.516958636
51
270.058800723
0
ARC
5
2A7
100
AcDbEntity
8
Construction2
6
ByLayer
62
256
370
-1
100
AcDbCircle
10
138.163729203
20
100.670655105
40
331.034730287
100
AcDbArc
50
219.516958636
51
270.058800723
0
ARC
5
2A8
100
AcDbEntity
8
Construction2
6
ByLayer
62
256
370
-1
100
AcDbCircle
10
-289.438983549
20
-315.066752555
40
272.382760206
100
AcDbArc
50
47.5197808264
51
87.7987121552
0
ARC
5
2A9
100
AcDbEntity
8
Construction2
6
ByLayer
62
256
370
-1
100
AcDbCircle
10
-289.438983549
20
-315.066752555
40
271.382760206
100
AcDbArc
50
47.5197808264
51
87.7987121552
0
ARC
5
2AA
100
AcDbEntity
8
Construction2
6
ByLayer
62
256
370
-1
100
AcDbCircle
10
-285.973546314
20
-223.532790392
40
200.474079323
100
AcDbArc
50
33.7106001595
51
90.3576562733
0
ARC
5
2AB
100
AcDbEntity
8
Construction2
6
ByLayer
62
256
370
-1
100
AcDbCircle
10
-285.973546314
20
-223.532790392
40
200.474079323
100
AcDbArc
50
33.7106001595
51
90.3576562733
0
ARC
5
2AC
100
AcDbEntity
8
Construction2
6
ByLayer
62
256
370
-1
100
AcDbCircle
10
-285.973546314
20
-223.532790392
40
198.474079323
100
AcDbArc
50
33.7106001595
51
90.3576562733
0
ARC
5
2AD
100
AcDbEntity
8
Construction2
6
ByLayer
62
256
370
-1
100
AcDbCircle
10
-285.973546314
20
-223.532790392
40
198.474079323
100
AcDbArc
50
33.7106001595
51
90.3576562733
0
ARC
5
2AE
100
AcDbEntity
8
Construction2
6
ByLayer
62
256
370
-1
100
AcDbCircle
10
-285.973546314
20
-223.532790392
40
193.474079323
100
AcDbArc
50
33.7106001595
51
90.3576562733
0
ARC
5
2AF
100
AcDbEntity
8
Construction2
6
ByLayer
62
256
370
-1
100
AcDbCircle
10
-285.973546314
20
-223.532790392
40
193.474079323
100
AcDbArc
50
33.7106001595
51
90.3576562733
0
ARC
5
2B0
100
AcDbEntity
8
Construction2
6
ByLayer
62
256
370
-1
100
AcDbCircle
10
-285.973546314
20
-223.532790392
40
195.474079323
100
AcDbArc
50
33.7106001595
51
90.3576562733
0
ARC
5
2B1
100
AcDbEntity
8
Construction2
6
ByLayer
62
256
370
-1
100
AcDbCircle
10
-285.973546314
20
-223.532790392
40
196.474079323
100
AcDbArc
50
33.7106001595
51
90.3576562733
0
ARC
5
2B2
100
AcDbEntity
8
Construction2
6
ByLayer
62
256
370
-1
100
AcDbCircle
10
-289.438983549
20
-315.066752555
40
270.382760206
100
AcDbArc
50
47.5197808264
51
87.7987121552
0
ARC
5
2B3
100
AcDbEntity
8
Construction2
6
ByLayer
62
256
370
-1
100
AcDbCircle
10
-289.438983549
20
-315.066752555
40
271.382760206
100
AcDbArc
50
47.5197808264
51
87.7987121552
0
ARC
5
2B4
100
AcDbEntity
8
Construction2
6
ByLayer
62
256
370
-1
100
AcDbCircle
10
-285.973546314
20
-223.532790392
40
200.474079323
100
AcDbArc
50
33.7106001595
51
90.3576562733
0
ARC
5
2B5
100
AcDbEntity
8
Construction2
6
ByLayer
62
256
370
-1
100
AcDbCircle
10
-285.973546314
20
-223.532790392
40
200.474079323
100
AcDbArc
50
33.7106001595
51
90.3576562733
0
ARC
5
2B6
100
AcDbEntity
8
Construction2
6
ByLayer
62
256
370
-1
100
AcDbCircle
10
-289.438983549
20
-315.066752555
40
275.382760206
100
AcDbArc
50
47.5197808264
51
87.7987121552
0
ARC
5
2B7
100
AcDbEntity
8
Construction2
6
ByLayer
62
256
370
-1
100
AcDbCircle
10
-289.438983549
20
-315.066752555
40
275.382760206
100
AcDbArc
50
47.5197808264
51
87.7987121552
0
ARC
5
2B8
100
AcDbEntity
8
Construction2
6
ByLayer
62
256
370
-1
100
AcDbCircle
10
-289.438983549
20
-315.066752555
40
277.382760206
100
AcDbArc
50
47.5197808264
51
87.7987121552
0
ARC
5
2B9
100
AcDbEntity
8
Construction2
6
ByLayer
62
256
370
-1
100
AcDbCircle
10
-289.438983549
20
-315.066752555
40
277.382760206
100
AcDbArc
50
47.5197808264
51
87.7987121552
0
ARC
5
2BA
100
AcDbEntity
8
Construction2
6
ByLayer
62
256
370
-1
100
AcDbCircle
10
-289.438983549
20
-315.066752555
40
277.382760206
100
AcDbArc
50
47.5197808264
51
87.7987121552
0
ARC
5
2BB
100
AcDbEntity
8
Construction2
6
ByLayer
62
256
370
-1
100
AcDbCircle
10
-289.438983549
20
-315.066752555
40
276.382760206
100
AcDbArc
50
47.5197808264
51
87.7987121552
0
ARC
5
2BC
100
AcDbEntity
8
Construction2
6
ByLayer
62
256
370
-1
100
AcDbCircle
10
-285.973546314
20
-223.532790392
40
195.474079323
100
AcDbArc
50
33.7106001595
51
90.3576562733
0
ARC
5
2BD
100
AcDbEntity
8
Construction2
6
ByLayer
62
256
370
-1
100
AcDbCircle
10
-285.973546314
20
-223.532790392
40
196.474079323
100
AcDbArc
50
33.7106001595
51
90.3576562733
0
ARC
5
2BE
100
AcDbEntity
8
Construction2
6
ByLayer
62
256
370
-1
100
AcDbCircle
10
-289.438983549
20
-315.066752555
40
269.382760206
100
AcDbArc
50
47.5197808264
51
87.7987121552
0
ARC
5
2BF
100
AcDbEntity
8
Construction2
6
ByLayer
62
256
370
-1
100
AcDbCircle
10
-289.438983549
20
-315.066752555
40
269.382760206
100
AcDbArc
50
47.5197808264
51
87.7987121552
0
ARC
5
2C0
100
AcDbEntity
8
Construction2
6
ByLayer
62
256
370
-1
100
AcDbCircle
10
-289.438983549
20
-315.066752555
40
269.382760206
100
AcDbArc
50
47.5197808264
51
87.7987121552
0
ARC
5
2C1
100
AcDbEntity
8
Construction2
6
ByLayer
62
256
370
-1
100
AcDbCircle
10
-285.973546314
20
-223.532790392
40
201.474079323
100
AcDbArc
50
33.7106001595
51
90.3576562733
0
ARC
5
2C2
100
AcDbEntity
8
Construction2
6
ByLayer
62
256
370
-1
100
AcDbCircle
10
-289.438983549
20
-315.066752555
40
268.382760206
100
AcDbArc
50
47.5197808264
51
87.7987121552
0
ARC
5
2C3
100
AcDbEntity
8
Construction2
6
ByLayer
62
256
370
-1
100
AcDbCircle
10
-285.973546314
20
-223.532790392
40
202.474079323
100
AcDbArc
50
33.7106001595
51
90.3576562733
0
ARC
5
2C4
100
AcDbEntity
8
Construction2
6
ByLayer
62
256
370
-1
100
AcDbCircle
10
-285.973546314
20
-223.532790392
40
202.474079323
100
AcDbArc
50
33.7106001595
51
90.3576562733
0
ARC
5
2C5
100
AcDbEntity
8
Construction2
6
ByLayer
62
256
370
-1
100
AcDbCircle
10
-285.973546314
20
-223.532790392
40
201.474079323
100
AcDbArc
50
33.7106001595
51
90.3576562733
0
ARC
5
2C6
100
AcDbEntity
8
Construction2
6
ByLayer
62
256
370
-1
100
AcDbCircle
10
-285.973546314
20
-223.532790392
40
201.474079323
100
AcDbArc
50
33.7106001595
51
90.3576562733
0
ARC
5
2C7
100
AcDbEntity
8
Construction2
6
ByLayer
62
256
370
-1
100
AcDbCircle
10
-289.438983549
20
-315.066752555
40
273.382760206
100
AcDbArc
50
47.5197808264
51
87.7987121552
0
ARC
5
2C8
100
AcDbEntity
8
Construction2
6
ByLayer
62
256
370
-1
100
AcDbCircle
10
-289.438983549
20
-315.066752555
40
277.382760206
100
AcDbArc
50
47.5197808264
51
87.7987121552
0
ARC
5
2C9
100
AcDbEntity
8
Construction2
6
ByLayer
62
256
370
-1
100
AcDbCircle
10
-289.438983549
20
-315.066752555
40
285.382760206
100
AcDbArc
50
47.5197808264
51
87.7987121552
0
ARC
5
2CA
100
AcDbEntity
8
Construction2
6
ByLayer
62
256
370
-1
100
AcDbCircle
10
-289.438983549
20
-315.066752555
40
296.382760206
100
AcDbArc
50
47.5197808264
51
87.7987121552
0
ARC
5
2CB
100
AcDbEntity
8
Construction2
6
ByLayer
62
256
370
-1
100
AcDbCircle
10
-289.438983549
20
-315.066752555
40
304.382760206
100
AcDbArc
50
47.5197808264
51
87.7987121552
0
ARC
5
2CC
100
AcDbEntity
8
Construction2
6
ByLayer
62
256
370
-1
100
AcDbCircle
10
-289.438983549
20
-315.066752555
40
295.382760206
100
AcDbArc
50
47.5197808264
51
87.7987121552
0
ARC
5
2CD
100
AcDbEntity
8
Construction2
6
ByLayer
62
256
370
-1
100
AcDbCircle
10
-289.438983549
20
-315.066752555
40
288.382760206
100
AcDbArc
50
47.5197808264
51
87.7987121552
0
ARC
5
2CE
100
AcDbEntity
8
Construction2
6
ByLayer
62
256
370
-1
100
AcDbCircle
10
-289.438983549
20
-315.066752555
40
279.382760206
100
AcDbArc
50
47.5197808264
51
87.7987121552
0
ARC
5
2CF
100
AcDbEntity
8
Construction2
6
ByLayer
62
256
370
-1
100
AcDbCircle
10
-289.438983549
20
-315.066752555
40
275.382760206
100
AcDbArc
50
47.5197808264
51
87.7987121552
0
ARC
5
2D0
100
AcDbEntity
8
Construction2
6
ByLayer
62
256
370
-1
100
AcDbCircle
10
-285.973546314
20
-223.532790392
40
199.474079323
100
AcDbArc
50
33.7106001595
51
90.3576562733
0
ARC
5
2D1
100
AcDbEntity
8
Construction2
6
ByLayer
62
256
370
-1
100
AcDbCircle
10
-285.973546314
20
-223.532790392
40
194.474079323
100
AcDbArc
50
33.7106001595
51
90.3576562733
0
ARC
5
2D2
100
AcDbEntity
8
Construction2
6
ByLayer
62
256
370
-1
100
AcDbCircle
10
-285.973546314
20
-223.532790392
40
192.474079323
100
AcDbArc
50
33.7106001595
51
90.3576562733
0
LINE
5
2D3
100
AcDbEntity
8
Construction2
6
ByLayer
62
256
370
-1
100
AcDbLine
10
-285.340218611
20
-27.9916995913
11
-544.219968611
21
-28.2151495913
0
LINE
5
2D4
100
AcDbEntity
8
Construction2
6
ByLayer
62
256
370
-1
100
AcDbLine
10
-285.341081753
20
-26.9916999638
11
-544.220831753
21
-27.2151499638
0
LINE
5
2D5
100
AcDbEntity
8
Construction2
6
ByLayer
62
256
370
-1
100
AcDbLine
10
-285.341944894
20
-25.9917003363
11
-544.221694895
21
-26.2151503363
0
LINE
5
2D6
100
AcDbEntity
8
Construction2
6
ByLayer
62
256
370
-1
100
AcDbLine
10
-285.342808036
20
-24.9917007088
11
-544.222558036
21
-25.2151507088
0
LINE
5
2D7
100
AcDbEntity
8
Construction2
6
ByLayer
62
256
370
-1
100
AcDbLine
10
-285.343671178
20
-23.9917010813
11
-544.223421178
21
-24.2151510813
0
LINE
5
2D8
100
AcDbEntity
8
Construction2
6
ByLayer
62
256
370
-1
100
AcDbLine
10
-285.344534319
20
-22.9917014538
11
-544.22428432
21
-23.2151514538
0
LINE
5
2D9
100
AcDbEntity
8
Construction2
6
ByLayer
62
256
370
-1
100
AcDbLine
10
-277.71053302
20
-10.918212727
11
-544.434165833
21
-10.7656248364
0
LINE
5
2DA
100
AcDbEntity
8
Construction2
6
ByLayer
62
256
370
-1
100
AcDbLine
10
-277.711105102
20
-11.9182125634
11
-544.434737915
21
-11.7656246727
0
LINE
5
2DB
100
AcDbEntity
8
Construction2
6
ByLayer
62
256
370
-1
100
AcDbLine
10
-277.711105102
20
-11.9182125634
11
-544.434737915
21
-11.7656246727
0
LINE
5
2DC
100
AcDbEntity
8
Construction2
6
ByLayer
62
256
370
-1
100
AcDbLine
10
-277.711105102
20
-11.9182125634
11
-544.434737915
21
-11.7656246727
0
LINE
5
2DD
100
AcDbEntity
8
Construction2
6
ByLayer
62
256
370
-1
100
AcDbLine
10
-285.345397461
20
-21.9917018263
11
-544.225147462
21
-22.2151518263
0
LINE
5
2DE
100
AcDbEntity
8
Construction2
6
ByLayer
62
256
370
-1
100
AcDbLine
10
-285.346260603
20
-20.9917021988
11
-544.226010603
21
-21.2151521988
0
LINE
5
2DF
100
AcDbEntity
8
Construction2
6
ByLayer
62
256
370
-1
100
AcDbLine
10
-285.344534319
20
-22.9917014538
11
-544.22428432
21
-23.2151514538
0
LINE
5
2E0
100
AcDbEntity
8
Construction2
6
ByLayer
62
256
370
-1
100
AcDbLine
10
-285.344534319
20
-22.9917014538
11
-544.22428432
21
-23.2151514538
0
LINE
5
2E1
100
AcDbEntity
8
Construction2
6
ByLayer
62
256
370
-1
100
AcDbLine
10
-285.347123745
20
-19.9917025713
11
-544.226873745
21
-20.2151525713
0
LINE
5
2E2
100
AcDbEntity
8
Construction2
6
ByLayer
62
256
370
-1
100
AcDbLine
10
-285.347986886
20
-18.9917029439
11
-544.227736887
21
-19.2151529439
0
LINE
5
2E3
100
AcDbEntity
8
Construction2
6
ByLayer
62
256
370
-1
100
AcDbLine
10
-285.344534319
20
-22.9917014538
11
-544.22428432
21
-23.2151514538
0
LINE
5
2E4
100
AcDbEntity
8
Construction2
6
ByLayer
62
256
370
-1
100
AcDbLine
10
-285.345397461
20
-21.9917018263
11
-544.225147462
21
-22.2151518263
0
ARC
5
2E5
100
AcDbEntity
8
Construction2
6
ByLayer
62
256
370
-1
100
AcDbCircle
10
-285.973546314
20
-223.532790392
40
200.474079323
100
AcDbArc
50
33.7106001595
51
90.3576562733
0
ARC
5
2E6
100
AcDbEntity
8
Construction2
6
ByLayer
62
256
370
-1
100
AcDbCircle
10
-285.973546314
20
-223.532790392
40
201.474079323
100
AcDbArc
50
33.7106001595
51
90.3576562733
0
LINE
5
2E7
100
AcDbEntity
8
Construction2
6
ByLayer
62
256
370
-1
100
AcDbLine
10
-285.347986886
20
-18.9917029439
11
-544.227736887
21
-19.2151529439
0
LINE
5
2E8
100
AcDbEntity
8
Construction2
6
ByLayer
62
256
370
-1
100
AcDbLine
10
-285.347123745
20
-19.9917025713
11
-544.226873745
21
-20.2151525713
0
LINE
5
2E9
100
AcDbEntity
8
Construction2
6
ByLayer
62
256
370
-1
100
AcDbLine
10
-285.347123745
20
-19.9917025713
11
-544.226873745
21
-20.2151525713
0
LINE
5
2EA
100
AcDbEntity
8
Construction2
6
ByLayer
62
256
370
-1
100
AcDbLine
10
-285.348850028
20
-17.9917033164
11
-544.228600028
21
-18.2151533164
0
LINE
5
2EB
100
AcDbEntity
8
Construction2
6
ByLayer
62
256
370
-1
100
AcDbLine
10
-285.34971317
20
-16.9917036889
11
-544.22946317
21
-17.2151536889
0
LINE
5
2EC
100
AcDbEntity
8
Construction2
6
ByLayer
62
256
370
-1
100
AcDbLine
10
-277.711677185
20
-12.9182123997
11
-544.435309997
21
-12.7656245091
0
LINE
5
2ED
100
AcDbEntity
8
Construction2
6
ByLayer
62
256
370
-1
100
AcDbLine
10
-277.711677185
20
-12.9182123997
11
-544.435309997
21
-12.7656245091
0
LINE
5
2EE
100
AcDbEntity
8
Construction2
6
ByLayer
62
256
370
-1
100
AcDbLine
10
-277.711677185
20
-12.9182123997
11
-544.435309997
21
-12.7656245091
0
LINE
5
2EF
100
AcDbEntity
8
Construction2
6
ByLayer
62
256
370
-1
100
AcDbLine
10
-285.350576312
20
-15.9917040614
11
-544.230326312
21
-16.2151540614
0
LINE
5
2F0
100
AcDbEntity
8
Construction2
6
ByLayer
62
256
370
-1
100
AcDbLine
10
-285.350576312
20
-15.9917040614
11
-544.230326312
21
-16.2151540614
0
LINE
5
2F1
100
AcDbEntity
8
Construction2
6
ByLayer
62
256
370
-1
100
AcDbLine
10
-277.712249267
20
-13.9182122361
11
-544.43588208
21
-13.7656243455
0
LINE
5
2F2
100
AcDbEntity
8
Construction2
6
ByLayer
62
256
370
-1
100
AcDbLine
10
-285.34971317
20
-16.9917036889
11
-544.22946317
21
-17.2151536889
0
LINE
5
2F3
100
AcDbEntity
8
Construction2
6
ByLayer
62
256
370
-1
100
AcDbLine
10
-277.712821349
20
-14.9182120724
11
-544.436454162
21
-14.7656241818
0
ARC
5
2F4
100
AcDbEntity
8
Construction2
6
ByLayer
62
256
370
-1
100
AcDbCircle
10
-289.438983549
20
-315.066752555
40
295.382760206
100
AcDbArc
50
47.5197808264
51
87.7987121552
0
ARC
5
2F5
100
AcDbEntity
8
Construction2
6
ByLayer
62
256
370
-1
100
AcDbCircle
10
-289.438983549
20
-315.066752555
40
292.382760206
100
AcDbArc
50
47.5197808264
51
87.7987121552
0
ARC
5
2F6
100
AcDbEntity
8
Construction2
6
ByLayer
62
256
370
-1
100
AcDbCircle
10
-289.438983549
20
-315.066752555
40
297.382760206
100
AcDbArc
50
47.5197808264
51
87.7987121552
0
ARC
5
2F7
100
AcDbEntity
8
Construction2
6
ByLayer
62
256
370
-1
100
AcDbCircle
10
-289.438983549
20
-315.066752555
40
299.382760206
100
AcDbArc
50
47.5197808264
51
87.7987121552
0
ARC
5
2F8
100
AcDbEntity
8
Construction2
6
ByLayer
62
256
370
-1
100
AcDbCircle
10
-285.973546314
20
-223.532790392
40
203.474079323
100
AcDbArc
50
33.7106001595
51
90.3576562733
0
ARC
5
2F9
100
AcDbEntity
8
Construction2
6
ByLayer
62
256
370
-1
100
AcDbCircle
10
-285.973546314
20
-223.532790392
40
202.474079323
100
AcDbArc
50
33.7106001595
51
90.3576562733
0
LINE
5
2FA
100
AcDbEntity
8
Construction2
6
ByLayer
62
256
370
-1
100
AcDbLine
10
-277.713393432
20
-15.9182119088
11
-544.437026244
21
-15.7656240182
0
ARC
5
2FB
100
AcDbEntity
8
Construction2
6
ByLayer
62
256
370
-1
100
AcDbCircle
10
-285.973546314
20
-223.532790392
40
204.474079323
100
AcDbArc
50
33.7106001595
51
90.3576562733
0
ARC
5
2FC
100
AcDbEntity
8
Construction2
6
ByLayer
62
256
370
-1
100
AcDbCircle
10
-285.973546314
20
-223.532790392
40
205.474079323
100
AcDbArc
50
33.7106001595
51
90.3576562733
0
LINE
5
2FD
100
AcDbEntity
8
Construction2
6
ByLayer
62
256
370
-1
100
AcDbLine
10
-277.713965514
20
-16.9182117452
11
-544.437598327
21
-16.7656238545
0
ARC
5
2FE
100
AcDbEntity
8
Construction2
6
ByLayer
62
256
370
-1
100
AcDbCircle
10
-285.973546314
20
-223.532790392
40
204.474079323
100
AcDbArc
50
33.7106001595
51
90.3576562733
0
LINE
5
2FF
100
AcDbEntity
8
Construction2
6
ByLayer
62
256
370
-1
100
AcDbLine
10
-277.713393432
20
-15.9182119088
11
-544.437026244
21
-15.7656240182
0
ARC
5
300
100
AcDbEntity
8
Construction2
6
ByLayer
62
256
370
-1
100
AcDbCircle
10
-285.973546314
20
-223.532790392
40
206.474079323
100
AcDbArc
50
33.7106001595
51
90.3576562733
0
ARC
5
301
100
AcDbEntity
8
Construction2
6
ByLayer
62
256
370
-1
100
AcDbCircle
10
-285.973546314
20
-223.532790392
40
200.474079323
100
AcDbArc
50
33.7106001595
51
90.3576562733
0
ARC
5
302
100
AcDbEntity
8
Construction2
6
ByLayer
62
256
370
-1
100
AcDbCircle
10
-285.973546314
20
-223.532790392
40
200.474079323
100
AcDbArc
50
33.7106001595
51
90.3576562733
0
ARC
5
303
100
AcDbEntity
8
Construction2
6
ByLayer
62
256
370
-1
100
AcDbCircle
10
-285.973546314
20
-223.532790392
40
201.474079323
100
AcDbArc
50
33.7106001595
51
90.3576562733
0
ARC
5
304
100
AcDbEntity
8
Construction2
6
ByLayer
62
256
370
-1
100
AcDbCircle
10
-289.438983549
20
-315.066752555
40
288.382760206
100
AcDbArc
50
47.5197808264
51
87.7987121552
0
ARC
5
305
100
AcDbEntity
8
Construction2
6
ByLayer
62
256
370
-1
100
AcDbCircle
10
-285.973546314
20
-223.532790392
40
197.474079323
100
AcDbArc
50
33.7106001595
51
90.3576562733
0
ARC
5
306
100
AcDbEntity
8
Construction2
6
ByLayer
62
256
370
-1
100
AcDbCircle
10
-289.438983549
20
-315.066752555
40
285.382760206
100
AcDbArc
50
47.5197808264
51
87.7987121552
0
ARC
5
307
100
AcDbEntity
8
Construction2
6
ByLayer
62
256
370
-1
100
AcDbCircle
10
136.643461002
20
-117.258190236
40
106.116054965
100
AcDbArc
50
270.534616138
51
51.2797717305
0
ARC
5
308
100
AcDbEntity
8
Construction2
6
ByLayer
62
256
370
-1
100
AcDbCircle
10
136.643461002
20
-117.258190236
40
106.116054965
100
AcDbArc
50
270.534616138
51
51.2797717305
0
ARC
5
309
100
AcDbEntity
8
Construction2
6
ByLayer
62
256
370
-1
100
AcDbCircle
10
136.643461002
20
-117.258190236
40
78.1160549649
100
AcDbArc
50
270.534616138
51
51.2797717305
0
ARC
5
30A
100
AcDbEntity
8
Construction2
6
ByLayer
62
256
370
-1
100
AcDbCircle
10
136.643461002
20
-117.258190236
40
82.1160549649
100
AcDbArc
50
270.534616138
51
51.2797717305
0
ENDSEC
0
SECTION
2
OBJECTS
0
DICTIONARY
5
C
330
0
100
AcDbDictionary
281
1
3
ACAD_GROUP
350
D
0
DICTIONARY
5
D
330
C
100
AcDbDictionary
281
1
0
ENDSEC
0
EOF
