<?xml version="1.0" encoding="UTF-8" standalone="no"?>
<svg
   xmlns:dc="http://purl.org/dc/elements/1.1/"
   xmlns:cc="http://creativecommons.org/ns#"
   xmlns:rdf="http://www.w3.org/1999/02/22-rdf-syntax-ns#"
   xmlns:svg="http://www.w3.org/2000/svg"
   xmlns="http://www.w3.org/2000/svg"
   xmlns:sodipodi="http://sodipodi.sourceforge.net/DTD/sodipodi-0.dtd"
   xmlns:inkscape="http://www.inkscape.org/namespaces/inkscape"
   width="235.11839mm"
   height="80.638245mm"
   viewBox="0 0 235.11839 80.638244"
   version="1.1"
   id="svg2"
   inkscape:version="0.91 r13725"
   sodipodi:docname="176_dessus.svg">
  <metadata
     id="metadata494">
    <rdf:RDF>
      <cc:Work
         rdf:about="">
        <dc:format>image/svg+xml</dc:format>
        <dc:type
           rdf:resource="http://purl.org/dc/dcmitype/StillImage" />
        <dc:title></dc:title>
      </cc:Work>
    </rdf:RDF>
  </metadata>
  <defs
     id="defs492" />
  <sodipodi:namedview
     pagecolor="#ffffff"
     bordercolor="#666666"
     borderopacity="1"
     objecttolerance="10"
     gridtolerance="10"
     guidetolerance="10"
     inkscape:pageopacity="0"
     inkscape:pageshadow="2"
     inkscape:window-width="1024"
     inkscape:window-height="706"
     id="namedview490"
     showgrid="false"
     fit-margin-top="0"
     fit-margin-left="0"
     fit-margin-right="0"
     fit-margin-bottom="0"
     inkscape:zoom="0.62179155"
     inkscape:cx="432.53584"
     inkscape:cy="35.217625"
     inkscape:window-x="-8"
     inkscape:window-y="-8"
     inkscape:window-maximized="1"
     inkscape:current-layer="svg2" />
  <desc
     id="desc4">Output from Flights of Ideas SVG Sketchup Plugin</desc>
  <g
     id="g4630"
     transform="matrix(0,-1,1,0,-89.8254,81.133247)">
    <path
       inkscape:connector-curvature="0"
       d="m 69.545964,315.8092 5.27055,-6.4255 3.84227,-7.6219 0.03878,-79.8306 0.404644,-1.8795 0.199098,-4.025 0.4771,-6.323 0.31181,-2.927 0.300994,-3.3684 0.31891,-2.462 0.418127,-3.8186 0,-17.7503 -0.402877,-10.5894 -1.204055,-10.4691 -1.991551,-10.2298 -2.756416,-9.8743 -3.489961,-9.4065 -4.183849,-8.8319 -4.830196,-8.157 -5.421659,-7.3893 -5.951514,-6.5376 -2.700474,-2.3628 -2.381691,-1.7099 -2.719442,-1.5283 -2.808007,-1.1714 -2.872831,-0.8047 -2.913367,-0.431 -2.929272,-0.054 -2.92041,0.3239 -2.886858,0.6989 -2.828899,1.0679 -2.747022,1.4279 -2.64192,1.7759 -3.70617,4.8953 -3.317518,5.4163 -2.891868,5.877 -2.433964,6.272 -1.948916,6.5971 -1.442132,6.8488 -0.91926403,7.0238 -0.386144,7.121 0.151282,7.1381 0.246392,3.3699 0.34065603,3.3537 0.434394,3.3322 0.527461,3.3058 0.61971,3.2741 0.711001,3.2373 1.130969,7.6541 2.301621,7.2298 1.958896,7.3302 1.608184,7.3735 1.252983,7.3971 0.591778,4.9011 0.308867,2.558 0.547788,7.5184 0.195303,7.5709 -0.127504,5.9913 0,1.5803 -0.03363,0 0,46.6195 1.48243,8.5836 2.437181,8.336 4.045756,7.4847 5.441142,6.2391 6.549806,4.6648 7.313328,2.8446 7.691472,0.8745 7.664315,-1.1416 7.233286,-3.0976 6.421098,-4.8904 m -50.47146,-103.8619 28.847164,0 0,-2.2156 -21.455251,0 0,-70.0231 40,0 0,70 -15.391913,0 0,12.2836 3.140247,0 0.999004,-2.4118 1.589186,-2.0711 2.071068,-1.5892 2.411809,-0.999 2.588191,-0.3407 2.58819,0.3407 2.41181,0.999 2.071068,1.5892 1.589186,2.0711 0.999004,2.4118 0.340742,2.5882 -0.340742,2.5881 -0.999004,2.4119 -1.589186,2.071 -2.071068,1.5892 -2.41181,0.999 -2.58819,0.3408 -2.588191,-0.3408 -2.411809,-0.999 -2.071068,-1.5892 -1.589186,-2.071 -0.999004,-2.4119 -3.140247,0 -4e-6,27.5531 6.77644,-0.01 14.337465,-0.01 4.386099,0 0,45 -24,0 0,14 -26,0 0,-16 -4,0 0,-42.9693 0,-0.031 20.481089,0 0,-2.7517 -23.981089,0 0,-40"
       style="fill:none;stroke:#ff0000;stroke-width:0.01;stroke-linecap:round;stroke-linejoin:round;stroke-miterlimit:4;stroke-dasharray:none"
       id="face112-cut" />
    <path
       inkscape:connector-curvature="0"
       d="m 69.545964,315.8092 m 5.27055,-6.4255 m 3.84227,-7.6219 m 0.03878,-79.8306 m 0.404644,-1.8795 m 0.199098,-4.025 m 0.4771,-6.323 m 0.31181,-2.927 m 0.300994,-3.3684 m 0.31891,-2.462 m 0.418127,-3.8186 m 0,-17.7503 M 80.72537,168.788 m -1.204055,-10.4691 m -1.991551,-10.2298 m -2.756416,-9.8743 m -3.489961,-9.4065 m -4.183849,-8.8319 m -4.830196,-8.157 m -5.421659,-7.3893 m -5.951514,-6.5376 m -2.700474,-2.3628 m -2.381691,-1.7099 m -2.719442,-1.5283 m -2.808007,-1.1714 m -2.872831,-0.8047 m -2.913367,-0.431 m -2.929272,-0.054 m -2.92041,0.3239 m -2.886858,0.6989 m -2.828899,1.0679 m -2.747022,1.4279 m -2.64192,1.7759 m -3.70617,4.8953 m -3.317518,5.4163 m -2.891868,5.877 m -2.433964,6.272 m -1.948916,6.5971 m -1.442132,6.8488 m -0.91926403,7.0238 m -0.386144,7.121 m 0.151282,7.1381 m 0.246392,3.3699 M 1.23833,159.0379 m 0.434394,3.3322 m 0.527461,3.3058 m 0.61971,3.2741 m 0.711001,3.2373 m 1.130969,7.6541 m 2.301621,7.2298 m 1.958896,7.3302 m 1.608184,7.3735 m 1.252983,7.3971 m 0.591778,4.9011 m 0.308867,2.558 m 0.547788,7.5184 m 0.195303,7.5709 m -0.127504,5.9913 m 0,1.5803 m -0.03363,0 m 0,46.6195 m 1.48243,8.5836 m 2.437181,8.336 m 4.045756,7.4847 m 5.441142,6.2391 m 6.549806,4.6648 m 7.313328,2.8446 m 7.691472,0.8745 m 7.664315,-1.1416 m 7.233286,-3.0976 M 19.074504,211.9473 m 28.847164,0 m 0,-2.2156 m -21.455251,0 m 0,-70.0231 m 40,0 m 0,70 m -15.391913,0 m 0,12.2836 m 3.140247,0 m 0.999004,-2.4118 m 1.589186,-2.0711 m 2.071068,-1.5892 m 2.411809,-0.999 m 2.588191,-0.3407 m 2.58819,0.3407 m 2.41181,0.999 m 2.071068,1.5892 m 1.589186,2.0711 m 0.999004,2.4118 m 0.340742,2.5882 m -0.340742,2.5881 m -0.999004,2.4119 m -1.589186,2.071 m -2.071068,1.5892 m -2.41181,0.999 m -2.58819,0.3408 m -2.588191,-0.3408 m -2.411809,-0.999 m -2.071068,-1.5892 m -1.589186,-2.071 m -0.999004,-2.4119 m -3.140247,0 m -4e-6,27.5531 m 6.77644,-0.01 m 14.337465,-0.01 m 4.386099,0 m 0,45 m -24,0 m 0,14 m -26,0 m 0,-16 m -4,0 m 0,-42.9693 m 0,-0.031 m 20.481089,0 m 0,-2.7517 m -23.981089,0"
       style="fill:none;stroke:#ff0000;stroke-width:0.01;stroke-linecap:round;stroke-linejoin:round;stroke-miterlimit:4;stroke-dasharray:none"
       id="face112-interior" />
    <path
       inkscape:connector-curvature="0"
       d="m 69.545964,315.8092 m 5.27055,-6.4255 m 3.84227,-7.6219 m 0.03878,-79.8306 m 0.404644,-1.8795 m 0.199098,-4.025 m 0.4771,-6.323 m 0.31181,-2.927 m 0.300994,-3.3684 m 0.31891,-2.462 m 0.418127,-3.8186 m 0,-17.7503 M 80.72537,168.788 m -1.204055,-10.4691 m -1.991551,-10.2298 m -2.756416,-9.8743 m -3.489961,-9.4065 m -4.183849,-8.8319 m -4.830196,-8.157 m -5.421659,-7.3893 m -5.951514,-6.5376 m -2.700474,-2.3628 m -2.381691,-1.7099 m -2.719442,-1.5283 m -2.808007,-1.1714 m -2.872831,-0.8047 m -2.913367,-0.431 m -2.929272,-0.054 m -2.92041,0.3239 m -2.886858,0.6989 m -2.828899,1.0679 m -2.747022,1.4279 m -2.64192,1.7759 m -3.70617,4.8953 m -3.317518,5.4163 m -2.891868,5.877 m -2.433964,6.272 m -1.948916,6.5971 m -1.442132,6.8488 m -0.91926403,7.0238 m -0.386144,7.121 m 0.151282,7.1381 m 0.246392,3.3699 M 1.23833,159.0379 m 0.434394,3.3322 m 0.527461,3.3058 m 0.61971,3.2741 m 0.711001,3.2373 m 1.130969,7.6541 m 2.301621,7.2298 m 1.958896,7.3302 m 1.608184,7.3735 m 1.252983,7.3971 m 0.591778,4.9011 m 0.308867,2.558 m 0.547788,7.5184 m 0.195303,7.5709 m -0.127504,5.9913 m 0,1.5803 m -0.03363,0 m 0,46.6195 m 1.48243,8.5836 m 2.437181,8.336 m 4.045756,7.4847 m 5.441142,6.2391 m 6.549806,4.6648 m 7.313328,2.8446 m 7.691472,0.8745 m 7.664315,-1.1416 m 7.233286,-3.0976 M 19.074504,211.9473 m 28.847164,0 m 0,-2.2156 m -21.455251,0 m 0,-70.0231 m 40,0 m 0,70 m -15.391913,0 m 0,12.2836 m 3.140247,0 m 0.999004,-2.4118 m 1.589186,-2.0711 m 2.071068,-1.5892 m 2.411809,-0.999 m 2.588191,-0.3407 m 2.58819,0.3407 m 2.41181,0.999 m 2.071068,1.5892 m 1.589186,2.0711 m 0.999004,2.4118 m 0.340742,2.5882 m -0.340742,2.5881 m -0.999004,2.4119 m -1.589186,2.071 m -2.071068,1.5892 m -2.41181,0.999 m -2.58819,0.3408 m -2.588191,-0.3408 m -2.411809,-0.999 m -2.071068,-1.5892 m -1.589186,-2.071 m -0.999004,-2.4119 m -3.140247,0 m -4e-6,27.5531 m 6.77644,-0.01 m 14.337465,-0.01 m 4.386099,0 m 0,45 m -24,0 m 0,14 m -26,0 m 0,-16 m -4,0 m 0,-42.9693 m 0,-0.031 m 20.481089,0 m 0,-2.7517 m -23.981089,0"
       style="fill:none;stroke:#ff0000;stroke-width:0.01;stroke-linecap:round;stroke-linejoin:round;stroke-miterlimit:4;stroke-dasharray:none"
       id="path472" />
  </g>
</svg>
