<?xml version="1.0" encoding="UTF-8" standalone="no"?>
<!-- Created with Inkscape (http://www.inkscape.org/) -->

<svg
   xmlns:dc="http://purl.org/dc/elements/1.1/"
   xmlns:cc="http://creativecommons.org/ns#"
   xmlns:rdf="http://www.w3.org/1999/02/22-rdf-syntax-ns#"
   xmlns:svg="http://www.w3.org/2000/svg"
   xmlns="http://www.w3.org/2000/svg"
   xmlns:sodipodi="http://sodipodi.sourceforge.net/DTD/sodipodi-0.dtd"
   xmlns:inkscape="http://www.inkscape.org/namespaces/inkscape"
   id="svg4199"
   version="1.1"
   inkscape:version="0.91 r13725"
   xml:space="preserve"
   width="42.015835cm"
   height="29.703888cm"
   viewBox="0 0 1488.75 1052.5"
   sodipodi:docname="bloque_courroie.svg"><metadata
     id="metadata4205"><rdf:RDF><cc:Work
         rdf:about=""><dc:format>image/svg+xml</dc:format><dc:type
           rdf:resource="http://purl.org/dc/dcmitype/StillImage" /><dc:title></dc:title></cc:Work></rdf:RDF></metadata><defs
     id="defs4203"><clipPath
       clipPathUnits="userSpaceOnUse"
       id="clipPath4213"><path
         d="m 0,0 0,1262.88 1785.78,0 L 1785.78,0 0,0"
         id="path4215"
         inkscape:connector-curvature="0" /></clipPath></defs><sodipodi:namedview
     pagecolor="#ffffff"
     bordercolor="#666666"
     borderopacity="1"
     objecttolerance="10"
     gridtolerance="10"
     guidetolerance="10"
     inkscape:pageopacity="0"
     inkscape:pageshadow="2"
     inkscape:window-width="1280"
     inkscape:window-height="962"
     id="namedview4201"
     showgrid="false"
     inkscape:zoom="2.5368505"
     inkscape:cx="708.66508"
     inkscape:cy="668.3019"
     inkscape:window-x="-8"
     inkscape:window-y="-8"
     inkscape:window-maximized="1"
     inkscape:current-layer="g4207"
     units="cm" /><g
     id="g4207"
     inkscape:groupmode="layer"
     inkscape:label="bloque_courroie"
     transform="matrix(1.25,0,0,-1.25,0,1052.5)"><path
       d="m 664.91998,528.12 0,34.02001"
       style="fill:none;stroke:#0000ff;stroke-width:0.028;stroke-linecap:round;stroke-linejoin:round;stroke-miterlimit:10;stroke-dasharray:none;stroke-opacity:1"
       id="path4217"
       inkscape:connector-curvature="0" /><path
       d="m 659.34003,564.92999 c 0,3.13135 -2.53839,5.66986 -5.66974,5.66999 -3.13135,1.8e-4 -5.66998,-2.53809 -5.67029,-5.66944 -3.1e-4,-3.13135 2.53784,-5.6701 5.66919,-5.67053 3.13135,-4.9e-4 5.67023,2.53754 5.67084,5.66888"
       style="fill:none;stroke:#ff0000;stroke-width:0.028;stroke-linecap:round;stroke-linejoin:round;stroke-miterlimit:10;stroke-dasharray:none;stroke-opacity:1"
       id="path4219"
       inkscape:connector-curvature="0" /><path
       d="m 659.34003,525.33002 c 0,3.13134 -2.53839,5.66986 -5.66974,5.66998 -3.13135,1.2e-4 -5.66998,-2.53809 -5.67029,-5.66943 -3.1e-4,-3.13135 2.53784,-5.67011 5.66919,-5.6706 3.13135,-4.2e-4 5.67023,2.5376 5.67084,5.66895"
       style="fill:none;stroke:#ff0000;stroke-width:0.028;stroke-linecap:round;stroke-linejoin:round;stroke-miterlimit:10;stroke-dasharray:none;stroke-opacity:1"
       id="path4221"
       inkscape:connector-curvature="0" /><path
       d="m 664.91998,562.22998 c 0,6.21301 -5.03644,11.2497 -11.24945,11.25 -6.21301,3.1e-4 -11.24994,-5.03589 -11.25055,-11.2489"
       style="fill:none;stroke:#0000ff;stroke-width:0.028;stroke-linecap:round;stroke-linejoin:round;stroke-miterlimit:10;stroke-dasharray:none;stroke-opacity:1"
       id="path4223"
       inkscape:connector-curvature="0" /><g
       id="g4225"
       transform="matrix(-1,1e-4,-1e-4,-1,653.66998,528.21002)"
       style="fill:none;stroke:#0000ff;stroke-width:0.028;stroke-miterlimit:10;stroke-dasharray:none;stroke-opacity:1"><path
         d="M 11.25,0 C 11.25,6.21299 6.21353,11.2497 5.4e-4,11.25 -6.21245,11.2503 -11.2494,6.21407 -11.25,0.00108"
         style="fill:none;stroke:#0000ff;stroke-width:0.028;stroke-linecap:round;stroke-linejoin:round;stroke-miterlimit:10;stroke-dasharray:none;stroke-opacity:1"
         id="path4227"
         inkscape:connector-curvature="0" /></g><path
       d="m 642.23999,562.14001 0,-34.02001"
       style="fill:none;stroke:#0000ff;stroke-width:0.028;stroke-linecap:round;stroke-linejoin:round;stroke-miterlimit:10;stroke-dasharray:none;stroke-opacity:1"
       id="path4229"
       inkscape:connector-curvature="0" /></g></svg>