<?xml version="1.0" encoding="UTF-8" standalone="no"?>
<!-- Created with Inkscape (http://www.inkscape.org/) -->

<svg
   xmlns:dc="http://purl.org/dc/elements/1.1/"
   xmlns:cc="http://creativecommons.org/ns#"
   xmlns:rdf="http://www.w3.org/1999/02/22-rdf-syntax-ns#"
   xmlns:svg="http://www.w3.org/2000/svg"
   xmlns="http://www.w3.org/2000/svg"
   xmlns:sodipodi="http://sodipodi.sourceforge.net/DTD/sodipodi-0.dtd"
   xmlns:inkscape="http://www.inkscape.org/namespaces/inkscape"
   width="2161.4172"
   height="1077.1653"
   id="svg2"
   version="1.1"
   inkscape:version="0.91 r13725"
   sodipodi:docname="boite esame.svg">
  <sodipodi:namedview
     id="base"
     pagecolor="#ffffff"
     bordercolor="#666666"
     borderopacity="1.0"
     inkscape:pageopacity="0.0"
     inkscape:pageshadow="2"
     inkscape:zoom="1.4"
     inkscape:cx="428.1286"
     inkscape:cy="530.83543"
     inkscape:document-units="mm"
     inkscape:current-layer="layer1"
     showgrid="false"
     inkscape:window-width="1280"
     inkscape:window-height="962"
     inkscape:window-x="-8"
     inkscape:window-y="-8"
     inkscape:window-maximized="1"
     units="mm" />
  <defs
     id="defs4" />
  <metadata
     id="metadata7">
    <rdf:RDF>
      <cc:Work
         rdf:about="">
        <dc:format>image/svg+xml</dc:format>
        <dc:type
           rdf:resource="http://purl.org/dc/dcmitype/StillImage" />
        <dc:title></dc:title>
      </cc:Work>
    </rdf:RDF>
  </metadata>
  <g
     transform="translate(0,24.803143)"
     id="layer1"
     inkscape:groupmode="layer"
     inkscape:label="Calque 1">
    <path
       id="path3206"
       inkscape:label="part"
       style="stroke:#ff0000;fill:none;stroke-opacity:1;stroke-width:0.03543307;stroke-miterlimit:4;stroke-dasharray:none"
       d="M 209.055118109,651.968503934 L 265.588582673,651.968503934 L 265.588582673,641.338582675 L 322.600393703,641.338582675 L 322.600393703,651.968503934 L 378.974409444,651.968503934 L 378.974409444,641.338582675 L 435.986220474,641.338582675 L 435.986220474,651.968503934 L 492.519685037,651.968503934 " />
    <path
       id="path3208"
       inkscape:label="part"
       style="stroke:#ff0000;fill:none;stroke-opacity:1;stroke-width:0.03543307;stroke-miterlimit:4;stroke-dasharray:none"
       d="M 492.519685037,651.968503934 L 492.519685037,706.458661418 L 481.889763778,706.458661418 L 481.889763778,771.100393695 L 492.519685037,771.100393695 L 492.519685037,825.590551178 " />
    <path
       id="path3210"
       inkscape:label="part"
       style="stroke:#ff0000;fill:none;stroke-opacity:1;stroke-width:0.03543307;stroke-miterlimit:4;stroke-dasharray:none"
       d="M 492.519685037,825.590551178 L 435.986220474,825.590551178 L 435.986220474,836.220472438 L 378.974409444,836.220472438 L 378.974409444,825.590551178 L 322.600393703,825.590551178 L 322.600393703,836.220472438 L 265.588582673,836.220472438 L 265.588582673,825.590551178 L 209.055118109,825.590551178 " />
    <path
       id="path3212"
       inkscape:label="part"
       style="stroke:#ff0000;fill:none;stroke-opacity:1;stroke-width:0.03543307;stroke-miterlimit:4;stroke-dasharray:none"
       d="M 209.055118109,825.590551178 L 209.055118109,771.100393695 L 219.685039369,771.100393695 L 219.685039369,706.458661418 L 209.055118109,706.458661418 L 209.055118109,651.968503934 " />
    <g
       id="g3288"
       style="fill:none;stroke:#ff0000;stroke-opacity:1;stroke-width:0.03543307;stroke-miterlimit:4;stroke-dasharray:none">
      <path
         d="M 17.716535433,219.685039369 L 71.8877952723,219.685039369 L 71.8877952723,209.055118109 L 137.167322837,209.055118109 L 137.167322837,219.685039369 L 191.338582676,219.685039369 "
         style="stroke:#ff0000;fill:none;stroke-opacity:1;stroke-width:0.03543307;stroke-miterlimit:4;stroke-dasharray:none"
         inkscape:label="part"
         id="path3214" />
      <path
         d="M 191.338582676,219.685039369 L 191.338582676,269.638076486 L 201.968503936,269.638076486 L 201.968503936,330.699381329 L 191.338582676,330.699381329 L 191.338582676,391.122890884 L 201.968503936,391.122890884 L 201.968503936,452.184195727 L 191.338582676,452.184195727 L 191.338582676,512.607705282 L 201.968503936,512.607705282 L 201.968503936,573.669010124 L 191.338582676,573.669010124 L 191.338582676,623.622047242 "
         style="stroke:#ff0000;fill:none;stroke-opacity:1;stroke-width:0.03543307;stroke-miterlimit:4;stroke-dasharray:none"
         inkscape:label="part"
         id="path3216" />
      <path
         d="M 191.338582676,623.622047242 L 137.167322837,623.622047242 L 137.167322837,634.251968501 L 71.8877952723,634.251968501 L 71.8877952723,623.622047242 L 17.716535433,623.622047242 "
         style="stroke:#ff0000;fill:none;stroke-opacity:1;stroke-width:0.03543307;stroke-miterlimit:4;stroke-dasharray:none"
         inkscape:label="part"
         id="path3218" />
      <path
         d="M 17.716535433,623.622047242 L 17.716535433,573.669010124 L 7.0866141732,573.669010124 L 7.0866141732,512.607705282 L 17.716535433,512.607705282 L 17.716535433,452.184195727 L 7.0866141732,452.184195727 L 7.0866141732,391.122890884 L 17.716535433,391.122890884 L 17.716535433,330.699381329 L 7.0866141732,330.699381329 L 7.0866141732,269.638076486 L 17.716535433,269.638076486 L 17.716535433,219.685039369 "
         style="stroke:#ff0000;fill:none;stroke-opacity:1;stroke-width:0.03543307;stroke-miterlimit:4;stroke-dasharray:none"
         inkscape:label="part"
         id="path3220" />
    </g>
    <g
       id="g3312"
       style="fill:none;stroke:#ff0000;stroke-opacity:1;stroke-width:0.03543307;stroke-miterlimit:4;stroke-dasharray:none">
      <path
         d="M 209.055118109,209.055118109 L 265.907480317,209.055118109 L 265.907480317,219.685039369 L 322.281496059,219.685039369 L 322.281496059,209.055118109 L 379.293307088,209.055118109 L 379.293307088,219.685039369 L 435.66732283,219.685039369 L 435.66732283,209.055118109 L 492.519685037,209.055118109 "
         style="stroke:#ff0000;fill:none;stroke-opacity:1;stroke-width:0.03543307;stroke-miterlimit:4;stroke-dasharray:none"
         inkscape:label="part"
         id="path3222" />
      <path
         d="M 492.519685037,209.055118109 L 492.519685037,269.95697413 L 481.889763778,269.95697413 L 481.889763778,330.380483685 L 492.519685037,330.380483685 L 492.519685037,391.441788528 L 481.889763778,391.441788528 L 481.889763778,451.865298083 L 492.519685037,451.865298083 L 492.519685037,512.926602926 L 481.889763778,512.926602926 L 481.889763778,573.350112481 L 492.519685037,573.350112481 L 492.519685037,634.251968501 "
         style="stroke:#ff0000;fill:none;stroke-opacity:1;stroke-width:0.03543307;stroke-miterlimit:4;stroke-dasharray:none"
         inkscape:label="part"
         id="path3224" />
      <path
         d="M 492.519685037,634.251968501 L 435.66732283,634.251968501 L 435.66732283,623.622047242 L 379.293307088,623.622047242 L 379.293307088,634.251968501 L 322.281496059,634.251968501 L 322.281496059,623.622047242 L 265.907480317,623.622047242 L 265.907480317,634.251968501 L 209.055118109,634.251968501 "
         style="stroke:#ff0000;fill:none;stroke-opacity:1;stroke-width:0.03543307;stroke-miterlimit:4;stroke-dasharray:none"
         inkscape:label="part"
         id="path3226" />
      <path
         d="M 209.055118109,634.251968501 L 209.055118109,573.350112481 L 219.685039369,573.350112481 L 219.685039369,512.926602926 L 209.055118109,512.926602926 L 209.055118109,451.865298083 L 219.685039369,451.865298083 L 219.685039369,391.441788528 L 209.055118109,391.441788528 L 209.055118109,330.380483685 L 219.685039369,330.380483685 L 219.685039369,269.95697413 L 209.055118109,269.95697413 L 209.055118109,209.055118109 "
         style="stroke:#ff0000;fill:none;stroke-opacity:1;stroke-width:0.03543307;stroke-miterlimit:4;stroke-dasharray:none"
         inkscape:label="part"
         id="path3228" />
    </g>
    <path
       id="path3230"
       inkscape:label="part"
       style="stroke:#ff0000;fill:none;stroke-opacity:1;stroke-width:0.03543307;stroke-miterlimit:4;stroke-dasharray:none"
       d="M 510.23622047,219.685039369 L 564.40748031,219.685039369 L 564.40748031,209.055118109 L 629.687007875,209.055118109 L 629.687007875,219.685039369 L 683.858267714,219.685039369 " />
    <path
       id="path3232"
       inkscape:label="part"
       style="stroke:#ff0000;fill:none;stroke-opacity:1;stroke-width:0.03543307;stroke-miterlimit:4;stroke-dasharray:none"
       d="M 683.858267714,219.685039369 L 683.858267714,269.638076486 L 694.488188974,269.638076486 L 694.488188974,330.699381329 L 683.858267714,330.699381329 L 683.858267714,391.122890884 L 694.488188974,391.122890884 L 694.488188974,452.184195727 L 683.858267714,452.184195727 L 683.858267714,512.607705282 L 694.488188974,512.607705282 L 694.488188974,573.669010124 L 683.858267714,573.669010124 L 683.858267714,623.622047242 " />
    <path
       id="path3234"
       inkscape:label="part"
       style="stroke:#ff0000;fill:none;stroke-opacity:1;stroke-width:0.03543307;stroke-miterlimit:4;stroke-dasharray:none"
       d="M 683.858267714,623.622047242 L 629.687007875,623.622047242 L 629.687007875,634.251968501 L 564.40748031,634.251968501 L 564.40748031,623.622047242 L 510.23622047,623.622047242 " />
    <path
       id="path3236"
       inkscape:label="part"
       style="stroke:#ff0000;fill:none;stroke-opacity:1;stroke-width:0.03543307;stroke-miterlimit:4;stroke-dasharray:none"
       d="M 510.23622047,623.622047242 L 510.23622047,573.669010124 L 499.606299211,573.669010124 L 499.606299211,512.607705282 L 510.23622047,512.607705282 L 510.23622047,452.184195727 L 499.606299211,452.184195727 L 499.606299211,391.122890884 L 510.23622047,391.122890884 L 510.23622047,330.699381329 L 499.606299211,330.699381329 L 499.606299211,269.638076486 L 510.23622047,269.638076486 L 510.23622047,219.685039369 " />
    <g
       id="g3300"
       style="fill:none;stroke:#ff0000;stroke-opacity:1;stroke-width:0.03543307;stroke-miterlimit:4;stroke-dasharray:none">
      <path
         d="M 701.574803147,209.055118109 L 758.427165354,209.055118109 L 758.427165354,219.685039369 L 814.801181096,219.685039369 L 814.801181096,209.055118109 L 871.812992126,209.055118109 L 871.812992126,219.685039369 L 928.187007867,219.685039369 L 928.187007867,209.055118109 L 985.039370075,209.055118109 "
         style="stroke:#ff0000;fill:none;stroke-opacity:1;stroke-width:0.03543307;stroke-miterlimit:4;stroke-dasharray:none"
         inkscape:label="part"
         id="path3238" />
      <path
         d="M 985.039370075,209.055118109 L 985.039370075,269.95697413 L 974.409448815,269.95697413 L 974.409448815,330.380483685 L 985.039370075,330.380483685 L 985.039370075,391.441788528 L 974.409448815,391.441788528 L 974.409448815,451.865298083 L 985.039370075,451.865298083 L 985.039370075,512.926602926 L 974.409448815,512.926602926 L 974.409448815,573.350112481 L 985.039370075,573.350112481 L 985.039370075,634.251968501 "
         style="stroke:#ff0000;fill:none;stroke-opacity:1;stroke-width:0.03543307;stroke-miterlimit:4;stroke-dasharray:none"
         inkscape:label="part"
         id="path3240" />
      <path
         d="M 985.039370075,634.251968501 L 928.187007867,634.251968501 L 928.187007867,623.622047242 L 871.812992126,623.622047242 L 871.812992126,634.251968501 L 814.801181096,634.251968501 L 814.801181096,623.622047242 L 758.427165354,623.622047242 L 758.427165354,634.251968501 L 701.574803147,634.251968501 "
         style="stroke:#ff0000;fill:none;stroke-opacity:1;stroke-width:0.03543307;stroke-miterlimit:4;stroke-dasharray:none"
         inkscape:label="part"
         id="path3242" />
      <path
         d="M 701.574803147,634.251968501 L 701.574803147,573.350112481 L 712.204724407,573.350112481 L 712.204724407,512.926602926 L 701.574803147,512.926602926 L 701.574803147,451.865298083 L 712.204724407,451.865298083 L 712.204724407,391.441788528 L 701.574803147,391.441788528 L 701.574803147,330.380483685 L 712.204724407,330.380483685 L 712.204724407,269.95697413 L 701.574803147,269.95697413 L 701.574803147,209.055118109 "
         style="stroke:#ff0000;fill:none;stroke-opacity:1;stroke-width:0.03543307;stroke-miterlimit:4;stroke-dasharray:none"
         inkscape:label="part"
         id="path3244" />
    </g>
    <g
       id="g3294"
       style="fill:none;stroke:#ff0000;stroke-opacity:1;stroke-width:0.03543307;stroke-miterlimit:4;stroke-dasharray:none">
      <path
         d="M 209.055118109,17.716535433 L 265.588582673,17.716535433 L 265.588582673,7.0866141732 L 322.600393703,7.0866141732 L 322.600393703,17.716535433 L 378.974409444,17.716535433 L 378.974409444,7.0866141732 L 435.986220474,7.0866141732 L 435.986220474,17.716535433 L 492.519685037,17.716535433 "
         style="stroke:#ff0000;fill:none;stroke-opacity:1;stroke-width:0.03543307;stroke-miterlimit:4;stroke-dasharray:none"
         inkscape:label="part"
         id="path3246" />
      <path
         d="M 492.519685037,17.716535433 L 492.519685037,72.2066929161 L 481.889763778,72.2066929161 L 481.889763778,136.848425193 L 492.519685037,136.848425193 L 492.519685037,191.338582676 "
         style="stroke:#ff0000;fill:none;stroke-opacity:1;stroke-width:0.03543307;stroke-miterlimit:4;stroke-dasharray:none"
         inkscape:label="part"
         id="path3248" />
      <path
         d="M 492.519685037,191.338582676 L 435.986220474,191.338582676 L 435.986220474,201.968503936 L 378.974409444,201.968503936 L 378.974409444,191.338582676 L 322.600393703,191.338582676 L 322.600393703,201.968503936 L 265.588582673,201.968503936 L 265.588582673,191.338582676 L 209.055118109,191.338582676 "
         style="stroke:#ff0000;fill:none;stroke-opacity:1;stroke-width:0.03543307;stroke-miterlimit:4;stroke-dasharray:none"
         inkscape:label="part"
         id="path3250" />
      <path
         d="M 209.055118109,191.338582676 L 209.055118109,136.848425193 L 219.685039369,136.848425193 L 219.685039369,72.2066929161 L 209.055118109,72.2066929161 L 209.055118109,17.716535433 "
         style="stroke:#ff0000;fill:none;stroke-opacity:1;stroke-width:0.03543307;stroke-miterlimit:4;stroke-dasharray:none"
         inkscape:label="part"
         id="path3252" />
    </g>
    <path
       sodipodi:type="arc"
       style="fill:none;stroke:#ff0000;stroke-width:0.03543307;stroke-miterlimit:4;stroke-opacity:1;stroke-dasharray:none;stroke-dashoffset:0"
       id="path3306"
       sodipodi:cx="344.46201"
       sodipodi:cy="445.81995"
       sodipodi:rx="59.598999"
       sodipodi:ry="97.984795"
       d="m 404.061,445.81995 a 59.598999,97.984795 0 0 1 -59.59899,97.98479 59.598999,97.984795 0 0 1 -59.599,-97.98479 59.598999,97.984795 0 0 1 59.599,-97.9848 59.598999,97.984795 0 0 1 59.59899,97.9848 z"
       transform="translate(6.325396,-24.166403)" />
    <rect
       style="fill:none;stroke:#ff0000;stroke-width:0.03543307;stroke-miterlimit:4;stroke-opacity:1;stroke-dasharray:none;stroke-dashoffset:0"
       id="rect3310"
       width="35.327354"
       height="42.454178"
       x="539.39099"
       y="557.39227" />
    <path
       sodipodi:type="arc"
       style="fill:none;stroke:#ff0000;stroke-width:0.03543307;stroke-miterlimit:4;stroke-opacity:1;stroke-dasharray:none;stroke-dashoffset:0"
       id="path3318"
       sodipodi:cx="356.07877"
       sodipodi:cy="290.76154"
       sodipodi:rx="21.718279"
       sodipodi:ry="21.718279"
       d="m 377.79704,290.76154 a 21.718279,21.718279 0 0 1 -21.71827,21.71827 21.718279,21.718279 0 0 1 -21.71828,-21.71827 21.718279,21.718279 0 0 1 21.71828,-21.71828 21.718279,21.718279 0 0 1 21.71827,21.71828 z"
       transform="translate(-5.2913643,-24.803143)" />
    <text
       xml:space="preserve"
       style="font-style:normal;font-weight:normal;font-size:40px;line-height:125%;font-family:sans-serif;letter-spacing:0px;word-spacing:0px;fill:#000000;fill-opacity:1;stroke:none;stroke-width:1px;stroke-linecap:butt;stroke-linejoin:miter;stroke-opacity:1"
       x="260.82648"
       y="555.93353"
       id="text26277"
       sodipodi:linespacing="125%"><tspan
         sodipodi:role="line"
         id="tspan26279"
         x="260.82648"
         y="555.93353"
         style="font-size:17.5px">Wireless Pong Game</tspan><tspan
         sodipodi:role="line"
         x="260.82648"
         y="577.80853"
         style="font-size:17.5px"
         id="tspan26283" /><tspan
         sodipodi:role="line"
         x="260.82648"
         y="594.51331"
         style="font-size:12.5px"
         id="tspan26281">made @SoFAB</tspan></text>
  </g>
  <g
     id="g3038"
     inkscape:groupmode="layer"
     inkscape:label="newlayer" />
  <g
     inkscape:label="newlayer"
     inkscape:groupmode="layer"
     id="g3146" />
  <g
     id="g3256"
     inkscape:groupmode="layer"
     inkscape:label="newlayer" />
</svg>
