<?xml version="1.0" encoding="UTF-8" standalone="no"?>
<!-- Created with Inkscape (http://www.inkscape.org/) -->

<svg
   xmlns:dc="http://purl.org/dc/elements/1.1/"
   xmlns:cc="http://creativecommons.org/ns#"
   xmlns:rdf="http://www.w3.org/1999/02/22-rdf-syntax-ns#"
   xmlns:svg="http://www.w3.org/2000/svg"
   xmlns="http://www.w3.org/2000/svg"
   xmlns:sodipodi="http://sodipodi.sourceforge.net/DTD/sodipodi-0.dtd"
   xmlns:inkscape="http://www.inkscape.org/namespaces/inkscape"
   id="svg4136"
   version="1.1"
   inkscape:version="0.91 r13725"
   xml:space="preserve"
   width="420.15833mm"
   height="297.03888mm"
   viewBox="0 0 1488.75 1052.5"
   sodipodi:docname="calle.svg"><metadata
     id="metadata4142"><rdf:RDF><cc:Work
         rdf:about=""><dc:format>image/svg+xml</dc:format><dc:type
           rdf:resource="http://purl.org/dc/dcmitype/StillImage" /><dc:title></dc:title></cc:Work></rdf:RDF></metadata><defs
     id="defs4140"><clipPath
       clipPathUnits="userSpaceOnUse"
       id="clipPath4150"><path
         d="m 0,0 0,1262.88 1785.78,0 L 1785.78,0 0,0"
         id="path4152"
         inkscape:connector-curvature="0" /></clipPath></defs><sodipodi:namedview
     pagecolor="#ffffff"
     bordercolor="#666666"
     borderopacity="1"
     objecttolerance="10"
     gridtolerance="10"
     guidetolerance="10"
     inkscape:pageopacity="0"
     inkscape:pageshadow="2"
     inkscape:window-width="1920"
     inkscape:window-height="1018"
     id="namedview4138"
     showgrid="false"
     units="mm"
     inkscape:zoom="1.6133017"
     inkscape:cx="530.08813"
     inkscape:cy="765.39641"
     inkscape:window-x="-8"
     inkscape:window-y="-8"
     inkscape:window-maximized="1"
     inkscape:current-layer="g4144" /><g
     id="g4144"
     inkscape:groupmode="layer"
     inkscape:label="calle"
     transform="matrix(1.25,0,0,-1.25,0,1052.5)"><path
       d="m 260.83399,503.91 c 0,4.72187 -3.8277,8.54978 -8.54962,8.55002 -4.72186,1.9e-4 -8.54993,-3.82733 -8.55035,-8.54919 -4.9e-4,-4.7219 3.82684,-8.55014 8.54876,-8.55084 4.72187,-6.8e-4 8.5503,3.8265 8.55121,8.54837"
       style="fill:none;stroke:#ff0000;stroke-width:0.02834646;stroke-linecap:round;stroke-linejoin:round;stroke-miterlimit:10;stroke-dasharray:none;stroke-opacity:1"
       id="path4154"
       inkscape:connector-curvature="0" /><path
       d="m 260.83399,430.29001 c 0,4.72186 -3.8277,8.54977 -8.54962,8.54999 -4.72186,2.4e-4 -8.54993,-3.8273 -8.55035,-8.54917 -4.9e-4,-4.72189 3.82684,-8.55014 8.54876,-8.55084 4.72187,-6.7e-4 8.5503,3.82651 8.55121,8.54837"
       style="fill:none;stroke:#ff0000;stroke-width:0.02834646;stroke-linecap:round;stroke-linejoin:round;stroke-miterlimit:10;stroke-dasharray:none;stroke-opacity:1"
       id="path4156"
       inkscape:connector-curvature="0" /><path
       d="m 260.83399,577.53003 c 0,4.72186 -3.8277,8.54974 -8.54962,8.54999 -4.72186,1.8e-4 -8.54993,-3.82733 -8.55035,-8.5492 -4.9e-4,-4.72186 3.82684,-8.55017 8.54876,-8.55084 4.72187,-6.7e-4 8.5503,3.82648 8.55121,8.5484"
       style="fill:none;stroke:#ff0000;stroke-width:0.02834646;stroke-linecap:round;stroke-linejoin:round;stroke-miterlimit:10;stroke-dasharray:none;stroke-opacity:1"
       id="path4158"
       inkscape:connector-curvature="0" /><path
       d="m 246.61396,471.87 c 0,4.72189 -3.8277,8.54977 -8.54956,8.55001 -4.72186,2.2e-4 -8.54999,-3.82733 -8.55041,-8.54919 -4.3e-4,-4.72186 3.8269,-8.55014 8.54876,-8.55081 4.72187,-6.7e-4 8.55036,3.82647 8.55121,8.54834"
       style="fill:none;stroke:#ff0000;stroke-width:0.02834646;stroke-linecap:round;stroke-linejoin:round;stroke-miterlimit:10;stroke-dasharray:none;stroke-opacity:1"
       id="path4160"
       inkscape:connector-curvature="0" /><path
       d="m 274.87397,535.95001 c 0,4.72187 -3.8277,8.54975 -8.54956,8.54999 -4.72186,2.4e-4 -8.54999,-3.82733 -8.55042,-8.54919 -4.2e-4,-4.72187 3.82691,-8.55011 8.54877,-8.55079 4.72186,-7.3e-4 8.55029,3.82648 8.55121,8.54834"
       style="fill:none;stroke:#ff0000;stroke-width:0.02834646;stroke-linecap:round;stroke-linejoin:round;stroke-miterlimit:10;stroke-dasharray:none;stroke-opacity:1"
       id="path4162"
       inkscape:connector-curvature="0" /><path
       d="m 246.61396,535.95001 c 0,4.72187 -3.8277,8.54975 -8.54956,8.54999 -4.72186,2.4e-4 -8.54999,-3.82733 -8.55041,-8.54919 -4.3e-4,-4.72187 3.8269,-8.55011 8.54876,-8.55079 4.72187,-7.3e-4 8.55036,3.82648 8.55121,8.54834"
       style="fill:none;stroke:#ff0000;stroke-width:0.02834646;stroke-linecap:round;stroke-linejoin:round;stroke-miterlimit:10;stroke-dasharray:none;stroke-opacity:1"
       id="path4164"
       inkscape:connector-curvature="0" /><path
       d="m 274.87397,471.87 c 0,4.72189 -3.8277,8.54977 -8.54956,8.55001 -4.72186,2.2e-4 -8.54999,-3.82733 -8.55042,-8.54919 -4.2e-4,-4.72186 3.82691,-8.55014 8.54877,-8.55081 4.72186,-6.7e-4 8.55029,3.82647 8.55121,8.54834"
       style="fill:none;stroke:#ff0000;stroke-width:0.02834646;stroke-linecap:round;stroke-linejoin:round;stroke-miterlimit:10;stroke-dasharray:none;stroke-opacity:1"
       id="path4166"
       inkscape:connector-curvature="0" /><path
       d="m 223.93397,605.88 0,-203.94"
       style="fill:none;stroke:#0000ff;stroke-width:0.02834646;stroke-linecap:round;stroke-linejoin:round;stroke-miterlimit:10;stroke-dasharray:none;stroke-opacity:1"
       id="path4168"
       inkscape:connector-curvature="0" /><path
       d="m 280.63398,605.88 -56.70001,0"
       style="fill:none;stroke:#0000ff;stroke-width:0.02834646;stroke-linecap:round;stroke-linejoin:round;stroke-miterlimit:10;stroke-dasharray:none;stroke-opacity:1"
       id="path4170"
       inkscape:connector-curvature="0" /><path
       d="m 280.63398,401.94 0,203.94"
       style="fill:none;stroke:#0000ff;stroke-width:0.02834646;stroke-linecap:round;stroke-linejoin:round;stroke-miterlimit:10;stroke-dasharray:none;stroke-opacity:1"
       id="path4172"
       inkscape:connector-curvature="0" /><path
       d="m 223.93397,401.94 56.70001,0"
       style="fill:none;stroke:#0000ff;stroke-width:0.02834646;stroke-linecap:round;stroke-linejoin:round;stroke-miterlimit:10;stroke-dasharray:none;stroke-opacity:1"
       id="path4174"
       inkscape:connector-curvature="0" /></g></svg>