  0
SECTION
  2
HEADER
  9
$ACADVER
  1
AC1009
  9
$DWGCODEPAGE
  3
ansi_1252
  9
$INSBASE
 10
0.0
 20
0.0
 30
0.0
  9
$EXTMIN
 10
1.000000000000000E+20
 20
1.000000000000000E+20
 30
1.000000000000000E+20
  9
$EXTMAX
 10
-1.000000000000000E+20
 20
-1.000000000000000E+20
 30
-1.000000000000000E+20
  9
$LIMMIN
 10
0.0
 20
0.0
  9
$LIMMAX
 10
12.0
 20
9.0
  9
$ORTHOMODE
 70
     0
  9
$REGENMODE
 70
     1
  9
$FILLMODE
 70
     1
  9
$QTEXTMODE
 70
     0
  9
$MIRRTEXT
 70
     1
  9
$DRAGMODE
 70
     2
  9
$LTSCALE
 40
25.4
  9
$OSMODE
 70
    37
  9
$ATTMODE
 70
     1
  9
$TEXTSIZE
 40
0.2
  9
$TRACEWID
 40
0.05
  9
$TEXTSTYLE
  7
STANDARD
  9
$CLAYER
  8
0
  9
$CELTYPE
  6
BYLAYER
  9
$CECOLOR
 62
   256
  9
$DIMSCALE
 40
1.0
  9
$DIMASZ
 40
0.18
  9
$DIMEXO
 40
0.0625
  9
$DIMDLI
 40
0.38
  9
$DIMRND
 40
0.0
  9
$DIMDLE
 40
0.0
  9
$DIMEXE
 40
0.18
  9
$DIMTP
 40
0.0
  9
$DIMTM
 40
0.0
  9
$DIMTXT
 40
0.18
  9
$DIMCEN
 40
0.09
  9
$DIMTSZ
 40
0.0
  9
$DIMTOL
 70
     0
  9
$DIMLIM
 70
     0
  9
$DIMTIH
 70
     1
  9
$DIMTOH
 70
     1
  9
$DIMSE1
 70
     0
  9
$DIMSE2
 70
     0
  9
$DIMTAD
 70
     0
  9
$DIMZIN
 70
     0
  9
$DIMBLK
  1

  9
$DIMASO
 70
     1
  9
$DIMSHO
 70
     1
  9
$DIMPOST
  1

  9
$DIMAPOST
  1

  9
$DIMALT
 70
     0
  9
$DIMALTD
 70
     2
  9
$DIMALTF
 40
25.4
  9
$DIMLFAC
 40
1.0
  9
$DIMTOFL
 70
     0
  9
$DIMTVP
 40
0.0
  9
$DIMTIX
 70
     0
  9
$DIMSOXD
 70
     0
  9
$DIMSAH
 70
     0
  9
$DIMBLK1
  1

  9
$DIMBLK2
  1

  9
$DIMSTYLE
  2
STANDARD
  9
$DIMCLRD
 70
     0
  9
$DIMCLRE
 70
     0
  9
$DIMCLRT
 70
     0
  9
$DIMTFAC
 40
1.0
  9
$DIMGAP
 40
0.09
  9
$LUNITS
 70
     2
  9
$LUPREC
 70
     4
  9
$SKETCHINC
 40
0.1
  9
$FILLETRAD
 40
0.5
  9
$AUNITS
 70
     0
  9
$AUPREC
 70
     0
  9
$MENU
  1
.
  9
$ELEVATION
 40
0.0
  9
$PELEVATION
 40
0.0
  9
$THICKNESS
 40
0.0
  9
$LIMCHECK
 70
     0
  9
$CHAMFERA
 40
0.5
  9
$CHAMFERB
 40
0.5
  9
$SKPOLY
 70
     0
  9
$TDCREATE
 40
2457042.614702176
  9
$TDUPDATE
 40
2457042.614702187
  9
$TDINDWG
 40
0.0000000116
  9
$TDUSRTIMER
 40
0.0000000116
  9
$USRTIMER
 70
     1
  9
$ANGBASE
 50
0.0
  9
$ANGDIR
 70
     0
  9
$PDMODE
 70
     0
  9
$PDSIZE
 40
0.0
  9
$PLINEWID
 40
0.0
  9
$COORDS
 70
     1
  9
$SPLFRAME
 70
     0
  9
$SPLINETYPE
 70
     6
  9
$SPLINESEGS
 70
     8
  9
$ATTDIA
 70
     0
  9
$ATTREQ
 70
     1
  9
$HANDLING
 70
     1
  9
$HANDSEED
  5
BB
  9
$SURFTAB1
 70
     6
  9
$SURFTAB2
 70
     6
  9
$SURFTYPE
 70
     6
  9
$SURFU
 70
     6
  9
$SURFV
 70
     6
  9
$UCSNAME
  2

  9
$UCSORG
 10
0.0
 20
0.0
 30
0.0
  9
$UCSXDIR
 10
1.0
 20
0.0
 30
0.0
  9
$UCSYDIR
 10
0.0
 20
1.0
 30
0.0
  9
$PUCSNAME
  2

  9
$PUCSORG
 10
0.0
 20
0.0
 30
0.0
  9
$PUCSXDIR
 10
1.0
 20
0.0
 30
0.0
  9
$PUCSYDIR
 10
0.0
 20
1.0
 30
0.0
  9
$USERI1
 70
     0
  9
$USERI2
 70
     0
  9
$USERI3
 70
     0
  9
$USERI4
 70
     0
  9
$USERI5
 70
     0
  9
$USERR1
 40
0.0
  9
$USERR2
 40
0.0
  9
$USERR3
 40
0.0
  9
$USERR4
 40
0.0
  9
$USERR5
 40
0.0
  9
$WORLDVIEW
 70
     1
  9
$SHADEDGE
 70
     3
  9
$SHADEDIF
 70
    70
  9
$TILEMODE
 70
     1
  9
$MAXACTVP
 70
    64
  9
$PLIMCHECK
 70
     0
  9
$PEXTMIN
 10
1.000000000000000E+20
 20
1.000000000000000E+20
 30
1.000000000000000E+20
  9
$PEXTMAX
 10
-1.000000000000000E+20
 20
-1.000000000000000E+20
 30
-1.000000000000000E+20
  9
$PLIMMIN
 10
0.0
 20
0.0
  9
$PLIMMAX
 10
12.0
 20
9.0
  9
$UNITMODE
 70
     0
  9
$VISRETAIN
 70
     1
  9
$PLINEGEN
 70
     0
  9
$PSLTSCALE
 70
     1
  0
ENDSEC
  0
SECTION
  2
TABLES
  0
TABLE
  2
VPORT
 70
     1
  0
VPORT
  2
*ACTIVE
 70
     0
 10
0.0
 20
0.0
 11
1.0
 21
1.0
 12
10.42990654205607
 22
4.5
 13
0.0
 23
0.0
 14
0.5
 24
0.5
 15
0.5
 25
0.5
 16
0.0
 26
0.0
 36
1.0
 17
0.0
 27
0.0
 37
0.0
 40
9.0
 41
1.972972972850329
 42
50.0
 43
0.0
 44
0.0
 50
0.0
 51
0.0
 71
     0
 72
   100
 73
     1
 74
     3
 75
     0
 76
     0
 77
     0
 78
     0
  0
ENDTAB
  0
TABLE
  2
LTYPE
 70
    12
  0
LTYPE
  2
CONTINUOUS
 70
     0
  3
Solid line
 72
    65
 73
     0
 40
0.0
  0
LTYPE
  2
VOLUME
 70
     0
  3
__________________
 72
    65
 73
     0
 40
0.0
  0
LTYPE
  2
FRONTIERE
 70
     0
  3
__ __ . __ __ . __
 72
    65
 73
     6
 40
0.875
 49
0.25
 49
-0.125
 49
0.25
 49
-0.125
 49
0.0
 49
-0.125
  0
LTYPE
  2
CENTRE
 70
     0
  3
___ _ ___ _ ___ _ 
 72
    65
 73
     4
 40
1.125
 49
0.75
 49
-0.125
 49
0.125
 49
-0.125
  0
LTYPE
  2
TIRET
 70
     0
  3
_._._._._._._._._.
 72
    65
 73
     4
 40
0.5
 49
0.25
 49
-0.125
 49
0.0
 49
-0.125
  0
LTYPE
  2
POINTILLE
 70
     0
  3
_ _ _ _ _ _ _ _ _ 
 72
    65
 73
     2
 40
0.375
 49
0.25
 49
-0.125
  0
LTYPE
  2
DIVISE
 70
     0
  3
__..__..__..__..__
 72
    65
 73
     6
 40
0.625
 49
0.25
 49
-0.125
 49
0.0
 49
-0.125
 49
0.0
 49
-0.125
  0
LTYPE
  2
POINT
 70
     0
  3
..................
 72
    65
 73
     2
 40
0.125
 49
0.0
 49
-0.125
  0
LTYPE
  2
CACHE
 70
     0
  3
__ __ __ __ __ __ 
 72
    65
 73
     2
 40
0.1875
 49
0.125
 49
-0.0625
  0
LTYPE
  2
FANTOME
 70
     0
  3
___ _ _ ___ _ _ __
 72
    65
 73
     6
 40
1.25
 49
0.625
 49
-0.125
 49
0.125
 49
-0.125
 49
0.125
 49
-0.125
  0
LTYPE
  2
COUPE
 70
     0
  3
________ _ _ _____
 72
    65
 73
     6
 40
1.4675
 49
1.0
 49
-0.0725
 49
0.125
 49
-0.0725
 49
0.125
 49
-0.0725
  0
LTYPE
  2
PETIT_POINTILLE
 70
     0
  3
_ _ _ _ _ _ _ _ _ 
 72
    65
 73
     2
 40
0.145
 49
0.0725
 49
-0.0725
  0
ENDTAB
  0
TABLE
  2
LAYER
 70
     2
  0
LAYER
  2
0
 70
     0
 62
     7
  6
CONTINUOUS
  0
LAYER
  2
CALQUE1
 70
     0
 62
     7
  6
VOLUME
  0
ENDTAB
  0
TABLE
  2
STYLE
 70
     1
  0
STYLE
  2
STANDARD
 70
     0
 40
0.0
 41
1.0
 50
0.0
 71
     0
 42
0.2
  3
txt
  4

  0
ENDTAB
  0
TABLE
  2
VIEW
 70
     0
  0
ENDTAB
  0
TABLE
  2
UCS
 70
     0
  0
ENDTAB
  0
TABLE
  2
APPID
 70
     1
  0
APPID
  2
ACAD
 70
     0
  0
ENDTAB
  0
TABLE
  2
DIMSTYLE
 70
     1
  0
DIMSTYLE
  2
STANDARD
 70
     0
  3

  4

  5

  6

  7

 40
1.0
 41
0.18
 42
0.0625
 43
0.38
 44
0.18
 45
0.0
 46
0.0
 47
0.0
 48
0.0
140
0.18
141
0.09
142
0.0
143
25.4
144
1.0
145
0.0
146
1.0
147
0.09
 71
     0
 72
     0
 73
     1
 74
     1
 75
     0
 76
     0
 77
     0
 78
     0
170
     0
171
     2
172
     0
173
     0
174
     0
175
     0
176
     0
177
     0
178
     0
  0
ENDTAB
  0
ENDSEC
  0
SECTION
  2
BLOCKS
  0
BLOCK
  8
0
  2
$MODEL_SPACE
 70
     0
 10
0.0
 20
0.0
 30
0.0
  3
$MODEL_SPACE
  1

  0
ENDBLK
  5
21
  8
0
  0
BLOCK
 67
     1
  8
0
  2
$PAPER_SPACE
 70
     0
 10
0.0
 20
0.0
 30
0.0
  3
$PAPER_SPACE
  1

  0
ENDBLK
  5
1D
 67
     1
  8
0
  0
ENDSEC
  0
SECTION
  2
ENTITIES
  0
ARC
  5
47
  8
CALQUE1
  6
VOLUME
 62
     1
 10
-44.90466091691026
 20
-48.70195214597951
 30
0.0
 40
15.00000000000001
 50
0.0
 51
90.0
  0
ARC
  5
48
  8
CALQUE1
  6
VOLUME
 62
     1
 10
121.4667309642339
 20
-129.3391282744202
 30
0.0
 40
17.50000000000001
 50
90.0
 51
180.0
  0
ARC
  5
49
  8
CALQUE1
  6
VOLUME
 62
     1
 10
121.4667309642339
 20
-129.3391282744202
 30
0.0
 40
17.50000000000003
 50
0.0
 51
90.0
  0
LINE
  5
4A
  8
CALQUE1
  6
VOLUME
 62
     1
 10
96.59533908308428
 20
-15.70195214597947
 30
0.0
 11
102.5953390830842
 21
-15.70195214597947
 31
0.0
  0
LINE
  5
4B
  8
CALQUE1
  6
VOLUME
 62
     1
 10
56.59533908308428
 20
-15.70195214597947
 30
0.0
 11
62.59533908308417
 21
-15.70195214597947
 31
0.0
  0
LINE
  5
4C
  8
CALQUE1
  6
VOLUME
 62
     1
 10
16.59533908308427
 20
-15.70195214597947
 30
0.0
 11
22.59533908308417
 21
-15.70195214597947
 31
0.0
  0
LINE
  5
4D
  8
CALQUE1
  6
VOLUME
 62
     1
 10
-23.40466091691572
 20
-15.70195214597947
 30
0.0
 11
-17.40466091691582
 21
-15.70195214597947
 31
0.0
  0
LINE
  5
4E
  8
CALQUE1
  6
VOLUME
 62
     1
 10
-58.30466091691137
 20
-12.70195214597949
 30
0.0
 11
-58.30466091691132
 21
-15.7019521459795
 31
0.0
  0
LINE
  5
4F
  8
CALQUE1
  6
VOLUME
 62
     1
 10
-58.30466091691132
 20
-15.7019521459795
 30
0.0
 11
-52.30466091691142
 21
-15.7019521459795
 31
0.0
  0
LINE
  5
50
  8
CALQUE1
  6
VOLUME
 62
     1
 10
-2.033269035765154
 20
-169.8391282744209
 30
0.0
 11
103.9667309642339
 21
-169.8391282744209
 31
0.0
  0
LINE
  5
51
  8
CALQUE1
  6
VOLUME
 62
     1
 10
-17.40466091691582
 20
-15.70195214597947
 30
0.0
 11
-17.40466091691578
 21
-12.70195214597949
 31
0.0
  0
LINE
  5
52
  8
CALQUE1
  6
VOLUME
 62
     1
 10
-23.40466091691577
 20
-12.70195214597947
 30
0.0
 11
-23.40466091691572
 21
-15.70195214597947
 31
0.0
  0
LINE
  5
53
  8
CALQUE1
  6
VOLUME
 62
     1
 10
-52.30466091691142
 20
-15.7019521459795
 30
0.0
 11
-52.30466091691137
 21
-12.70195214597951
 31
0.0
  0
LINE
  5
54
  8
CALQUE1
  6
VOLUME
 62
     1
 10
16.59533908308423
 20
-12.70195214597947
 30
0.0
 11
16.59533908308427
 21
-15.70195214597947
 31
0.0
  0
LINE
  5
55
  8
CALQUE1
  6
VOLUME
 62
     1
 10
22.59533908308417
 20
-15.70195214597947
 30
0.0
 11
22.59533908308422
 21
-12.70195214597949
 31
0.0
  0
LINE
  5
56
  8
CALQUE1
  6
VOLUME
 62
     1
 10
56.59533908308423
 20
-12.70195214597947
 30
0.0
 11
56.59533908308428
 21
-15.70195214597947
 31
0.0
  0
LINE
  5
57
  8
CALQUE1
  6
VOLUME
 62
     1
 10
62.59533908308417
 20
-15.70195214597947
 30
0.0
 11
62.59533908308422
 21
-12.70195214597949
 31
0.0
  0
LINE
  5
58
  8
CALQUE1
  6
VOLUME
 62
     1
 10
96.59533908308424
 20
-12.70195214597947
 30
0.0
 11
96.59533908308428
 21
-15.70195214597947
 31
0.0
  0
LINE
  5
59
  8
CALQUE1
  6
VOLUME
 62
     1
 10
102.5953390830842
 20
-15.70195214597947
 30
0.0
 11
102.5953390830842
 21
-12.70195214597949
 31
0.0
  0
LINE
  5
5A
  8
CALQUE1
  6
VOLUME
 62
     1
 10
126.3338718548459
 20
-15.69053624025473
 30
0.0
 11
132.3110400433963
 21
-16.21347069674069
 31
0.0
  0
LINE
  5
5B
  8
CALQUE1
  6
VOLUME
 62
     1
 10
126.5953390830888
 20
-12.70195214597949
 30
0.0
 11
126.3338718548459
 21
-15.69053624025473
 31
0.0
  0
LINE
  5
5C
  8
CALQUE1
  6
VOLUME
 62
     1
 10
132.3110400433963
 20
-16.21347069674069
 30
0.0
 11
132.5725072716393
 21
-13.22488660246547
 31
0.0
  0
LINE
  5
5D
  8
CALQUE1
  6
VOLUME
 62
     1
 10
143.8079925466081
 20
-20.48311849315235
 30
0.0
 11
148.646660172213
 21
-24.0309763833338
 31
0.0
  0
LINE
  5
5E
  8
CALQUE1
  6
VOLUME
 62
     1
 10
145.5819214916986
 20
-18.06378468034988
 30
0.0
 11
143.8079925466081
 21
-20.48311849315235
 31
0.0
  0
LINE
  5
5F
  8
CALQUE1
  6
VOLUME
 62
     1
 10
148.646660172213
 20
-24.0309763833338
 30
0.0
 11
150.4205891173036
 21
-21.6116425705314
 31
0.0
  0
LINE
  5
60
  8
CALQUE1
  6
VOLUME
 62
     1
 10
156.2500021184499
 20
-33.65692702881899
 30
0.0
 11
158.5315825948491
 21
-39.20619639781827
 31
0.0
  0
LINE
  5
61
  8
CALQUE1
  6
VOLUME
 62
     1
 10
159.0246368029493
 20
-32.51613679061922
 30
0.0
 11
156.2500021184499
 21
-33.65692702881899
 31
0.0
  0
LINE
  5
62
  8
CALQUE1
  6
VOLUME
 62
     1
 10
158.5315825948491
 20
-39.20619639781827
 30
0.0
 11
161.3062172793486
 21
-38.06540615961864
 31
0.0
  0
LINE
  5
63
  8
CALQUE1
  6
VOLUME
 62
     1
 10
160.0062081730967
 20
-51.38384863397197
 30
0.0
 11
159.0624302168486
 21
-57.30915733220026
 31
0.0
  0
LINE
  5
64
  8
CALQUE1
  6
VOLUME
 62
     1
 10
162.9688625222108
 20
-51.8557376120958
 30
0.0
 11
160.0062081730967
 21
-51.38384863397197
 31
0.0
  0
LINE
  5
65
  8
CALQUE1
  6
VOLUME
 62
     1
 10
159.0624302168486
 20
-57.30915733220026
 30
0.0
 11
162.0250845659627
 21
-57.78104631032428
 31
0.0
  0
LINE
  5
66
  8
CALQUE1
  6
VOLUME
 62
     1
 10
126.5953390830888
 20
-12.70195214597949
 30
0.0
 11
132.5725072716393
 21
-13.22488660246547
 31
0.0
  0
LINE
  5
67
  8
CALQUE1
  6
VOLUME
 62
     1
 10
145.5819214916986
 20
-18.06378468034988
 30
0.0
 11
150.4205891173036
 21
-21.6116425705314
 31
0.0
  0
LINE
  5
68
  8
CALQUE1
  6
VOLUME
 62
     1
 10
159.0246368029493
 20
-32.51613679061922
 30
0.0
 11
161.3062172793486
 21
-38.06540615961864
 31
0.0
  0
LINE
  5
69
  8
CALQUE1
  6
VOLUME
 62
     1
 10
162.9688625222108
 20
-51.8557376120958
 30
0.0
 11
162.0250845659627
 21
-57.78104631032428
 31
0.0
  0
LINE
  5
6A
  8
CALQUE1
  6
VOLUME
 62
     1
 10
-71.9046609169113
 20
-11.70195214597949
 30
0.0
 11
126.5953390830888
 21
-11.70195214597949
 31
0.0
  0
ARC
  5
6B
  8
CALQUE1
  6
VOLUME
 62
     1
 10
126.5953390830888
 20
-49.20195214597949
 30
0.0
 40
37.50000000000001
 50
0.0
 51
90.0
  0
ARC
  5
6C
  8
CALQUE1
  6
VOLUME
 62
     1
 10
126.5953390830888
 20
-49.20195214597949
 30
0.0
 40
37.5
 50
283.2614755361573
 51
359.9999999999999
  0
LINE
  5
6D
  8
CALQUE1
  6
VOLUME
 62
     1
 10
96.59533908308424
 20
-12.70195214597947
 30
0.0
 11
102.5953390830842
 21
-12.70195214597949
 31
0.0
  0
LINE
  5
6E
  8
CALQUE1
  6
VOLUME
 62
     1
 10
56.59533908308423
 20
-12.70195214597947
 30
0.0
 11
62.5953390830842
 21
-12.70195214597938
 31
0.0
  0
LINE
  5
6F
  8
CALQUE1
  6
VOLUME
 62
     1
 10
-23.40466091691577
 20
-12.70195214597947
 30
0.0
 11
-17.40466091691578
 21
-12.70195214597949
 31
0.0
  0
LINE
  5
70
  8
CALQUE1
  6
VOLUME
 62
     1
 10
16.59533908308423
 20
-12.70195214597947
 30
0.0
 11
22.59533908308422
 21
-12.70195214597949
 31
0.0
  0
LINE
  5
71
  8
CALQUE1
  6
VOLUME
 62
     1
 10
-76.52495504528592
 20
-16.2883072388374
 30
0.0
 11
-81.85905789420032
 21
-19.0355507295391
 31
0.0
  0
LINE
  5
72
  8
CALQUE1
  6
VOLUME
 62
     1
 10
-77.89857679063657
 20
-13.62125581438024
 30
0.0
 11
-76.52495504528592
 21
-16.2883072388374
 31
0.0
  0
LINE
  5
73
  8
CALQUE1
  6
VOLUME
 62
     1
 10
-81.85905789420032
 20
-19.0355507295391
 30
0.0
 11
-83.23267963955111
 21
-16.36849930508195
 31
0.0
  0
LINE
  5
74
  8
CALQUE1
  6
VOLUME
 62
     1
 10
-91.31004804546168
 20
-27.86139945118404
 30
0.0
 11
-88.33469850507315
 21
-28.24518990508922
 31
0.0
  0
LINE
  5
75
  8
CALQUE1
  6
VOLUME
 62
     1
 10
-77.89857679063657
 20
-13.62125581438024
 30
0.0
 11
-83.23267963955111
 21
-16.36849930508195
 31
0.0
  0
LINE
  5
76
  8
CALQUE1
  6
VOLUME
 62
     1
 10
-58.30466091691137
 20
-12.70195214597949
 30
0.0
 11
-52.30466091691137
 21
-12.70195214597951
 31
0.0
  0
LINE
  5
77
  8
CALQUE1
  6
VOLUME
 62
     1
 10
-91.31004804546168
 20
-27.86139945118404
 30
0.0
 11
-92.06342116662404
 21
-33.7019521459795
 31
0.0
  0
LINE
  5
78
  8
CALQUE1
  6
VOLUME
 62
     1
 10
-89.10227941288306
 20
-34.19588898586666
 30
0.0
 11
-92.07762895327171
 21
-33.8120985319617
 31
0.0
  0
LINE
  5
79
  8
CALQUE1
  6
VOLUME
 62
     1
 10
-88.33469850507315
 20
-28.24518990508922
 30
0.0
 11
-89.10227941288306
 21
-34.19588898586666
 31
0.0
  0
ARC
  5
7A
  8
CALQUE1
  6
VOLUME
 62
     1
 10
-70.89215309462988
 20
-33.7019521459795
 30
0.0
 40
22.02328704099779
 50
92.63506898832871
 51
187.4627305154108
  0
LINE
  5
7B
  8
CALQUE1
  6
VOLUME
 62
     1
 10
-82.70722961776923
 20
-33.7019521459795
 30
0.0
 11
-44.90466091691027
 21
-33.7019521459795
 31
0.0
  0
LINE
  5
7C
  8
CALQUE1
  6
VOLUME
 62
     1
 10
-92.72889310882512
 20
-36.5623642915671
 30
0.0
 11
-87.26812026454493
 21
-36.5623642915671
 31
0.0
  0
LINE
  5
7D
  8
CALQUE1
  6
VOLUME
 62
     1
 10
-87.26812026454493
 20
-36.5623642915671
 30
0.0
 11
-82.70722961776923
 21
-33.7019521459795
 31
0.0
  0
LINE
  5
7E
  8
CALQUE1
  6
VOLUME
 62
     1
 10
97.46673695982378
 20
-99.83912396459247
 30
0.0
 11
103.4667369598237
 21
-99.83912396459247
 31
0.0
  0
LINE
  5
7F
  8
CALQUE1
  6
VOLUME
 62
     1
 10
57.46673695982378
 20
-99.83912396459247
 30
0.0
 11
63.46673695982368
 21
-99.83912396459247
 31
0.0
  0
LINE
  5
80
  8
CALQUE1
  6
VOLUME
 62
     1
 10
17.46673695982378
 20
-99.83912396459247
 30
0.0
 11
23.46673695982367
 21
-99.83912396459247
 31
0.0
  0
LINE
  5
81
  8
CALQUE1
  6
VOLUME
 62
     1
 10
-22.53326304017622
 20
-99.83912396459247
 30
0.0
 11
-16.53326304017632
 21
-99.83912396459247
 31
0.0
  0
LINE
  5
82
  8
CALQUE1
  6
VOLUME
 62
     1
 10
-57.43326304017187
 20
-96.83912396459249
 30
0.0
 11
-57.43326304017182
 21
-99.8391239645925
 31
0.0
  0
LINE
  5
83
  8
CALQUE1
  6
VOLUME
 62
     1
 10
-57.43326304017182
 20
-99.8391239645925
 30
0.0
 11
-51.43326304017192
 21
-99.8391239645925
 31
0.0
  0
LINE
  5
84
  8
CALQUE1
  6
VOLUME
 62
     1
 10
-16.53326304017632
 20
-99.83912396459247
 30
0.0
 11
-16.53326304017628
 21
-96.83912396459249
 31
0.0
  0
LINE
  5
85
  8
CALQUE1
  6
VOLUME
 62
     1
 10
-22.53326304017627
 20
-96.83912396459247
 30
0.0
 11
-22.53326304017622
 21
-99.83912396459247
 31
0.0
  0
LINE
  5
86
  8
CALQUE1
  6
VOLUME
 62
     1
 10
-51.43326304017192
 20
-99.8391239645925
 30
0.0
 11
-51.43326304017187
 21
-96.83912396459252
 31
0.0
  0
LINE
  5
87
  8
CALQUE1
  6
VOLUME
 62
     1
 10
17.46673695982373
 20
-96.83912396459247
 30
0.0
 11
17.46673695982378
 21
-99.83912396459247
 31
0.0
  0
LINE
  5
88
  8
CALQUE1
  6
VOLUME
 62
     1
 10
23.46673695982367
 20
-99.83912396459247
 30
0.0
 11
23.46673695982372
 21
-96.83912396459249
 31
0.0
  0
LINE
  5
89
  8
CALQUE1
  6
VOLUME
 62
     1
 10
57.46673695982373
 20
-96.83912396459247
 30
0.0
 11
57.46673695982378
 21
-99.83912396459247
 31
0.0
  0
LINE
  5
8A
  8
CALQUE1
  6
VOLUME
 62
     1
 10
63.46673695982368
 20
-99.83912396459247
 30
0.0
 11
63.46673695982372
 21
-96.83912396459249
 31
0.0
  0
LINE
  5
8B
  8
CALQUE1
  6
VOLUME
 62
     1
 10
97.46673695982373
 20
-96.83912396459247
 30
0.0
 11
97.46673695982378
 21
-99.83912396459247
 31
0.0
  0
LINE
  5
8C
  8
CALQUE1
  6
VOLUME
 62
     1
 10
103.4667369598237
 20
-99.83912396459247
 30
0.0
 11
103.4667369598237
 21
-96.83912396459249
 31
0.0
  0
LINE
  5
8D
  8
CALQUE1
  6
VOLUME
 62
     1
 10
127.2052697315854
 20
-99.82770805886774
 30
0.0
 11
133.1824379201358
 21
-100.3506425153537
 31
0.0
  0
LINE
  5
8E
  8
CALQUE1
  6
VOLUME
 62
     1
 10
127.4667369598283
 20
-96.83912396459249
 30
0.0
 11
127.2052697315854
 21
-99.82770805886774
 31
0.0
  0
LINE
  5
8F
  8
CALQUE1
  6
VOLUME
 62
     1
 10
133.1824379201358
 20
-100.3506425153537
 30
0.0
 11
133.4439051483788
 21
-97.36205842107847
 31
0.0
  0
LINE
  5
90
  8
CALQUE1
  6
VOLUME
 62
     1
 10
144.6793904233476
 20
-104.6202903117654
 30
0.0
 11
149.5180580489524
 21
-108.1681482019468
 31
0.0
  0
LINE
  5
91
  8
CALQUE1
  6
VOLUME
 62
     1
 10
146.4533193684381
 20
-102.2009564989629
 30
0.0
 11
144.6793904233476
 21
-104.6202903117654
 31
0.0
  0
LINE
  5
92
  8
CALQUE1
  6
VOLUME
 62
     1
 10
149.5180580489524
 20
-108.1681482019468
 30
0.0
 11
151.2919869940431
 21
-105.7488143891444
 31
0.0
  0
LINE
  5
93
  8
CALQUE1
  6
VOLUME
 62
     1
 10
157.1213999951893
 20
-117.794098847432
 30
0.0
 11
159.4029804715886
 21
-123.3433682164313
 31
0.0
  0
LINE
  5
94
  8
CALQUE1
  6
VOLUME
 62
     1
 10
159.8960346796888
 20
-116.6533086092322
 30
0.0
 11
157.1213999951893
 21
-117.794098847432
 31
0.0
  0
LINE
  5
95
  8
CALQUE1
  6
VOLUME
 62
     1
 10
159.4029804715886
 20
-123.3433682164313
 30
0.0
 11
162.1776151560881
 21
-122.2025779782316
 31
0.0
  0
LINE
  5
96
  8
CALQUE1
  6
VOLUME
 62
     1
 10
160.8776060498362
 20
-135.521020452585
 30
0.0
 11
159.9338280935881
 21
-141.4463291508133
 31
0.0
  0
LINE
  5
97
  8
CALQUE1
  6
VOLUME
 62
     1
 10
163.8402603989503
 20
-135.9929094307088
 30
0.0
 11
160.8776060498362
 21
-135.521020452585
 31
0.0
  0
LINE
  5
98
  8
CALQUE1
  6
VOLUME
 62
     1
 10
159.9338280935881
 20
-141.4463291508133
 30
0.0
 11
162.8964824427022
 21
-141.9182181289373
 31
0.0
  0
LINE
  5
99
  8
CALQUE1
  6
VOLUME
 62
     1
 10
127.4667369598283
 20
-96.83912396459249
 30
0.0
 11
133.4439051483788
 21
-97.36205842107847
 31
0.0
  0
LINE
  5
9A
  8
CALQUE1
  6
VOLUME
 62
     1
 10
146.4533193684381
 20
-102.2009564989629
 30
0.0
 11
151.2919869940431
 21
-105.7488143891444
 31
0.0
  0
LINE
  5
9B
  8
CALQUE1
  6
VOLUME
 62
     1
 10
159.8960346796888
 20
-116.6533086092322
 30
0.0
 11
162.1776151560881
 21
-122.2025779782316
 31
0.0
  0
LINE
  5
9C
  8
CALQUE1
  6
VOLUME
 62
     1
 10
163.8402603989503
 20
-135.9929094307088
 30
0.0
 11
162.8964824427022
 21
-141.9182181289373
 31
0.0
  0
LINE
  5
9D
  8
CALQUE1
  6
VOLUME
 62
     1
 10
-71.03326304017179
 20
-95.83912396459249
 30
0.0
 11
127.4667369598283
 21
-95.83912396459249
 31
0.0
  0
ARC
  5
9E
  8
CALQUE1
  6
VOLUME
 62
     1
 10
127.4667369598283
 20
-133.3391239645925
 30
0.0
 40
37.49999999999999
 50
0.0
 51
90.0
  0
LINE
  5
9F
  8
CALQUE1
  6
VOLUME
 62
     1
 10
97.46673695982373
 20
-96.83912396459247
 30
0.0
 11
103.4667369598237
 21
-96.83912396459249
 31
0.0
  0
LINE
  5
A0
  8
CALQUE1
  6
VOLUME
 62
     1
 10
57.46673695982373
 20
-96.83912396459247
 30
0.0
 11
63.4667369598237
 21
-96.83912396459237
 31
0.0
  0
LINE
  5
A1
  8
CALQUE1
  6
VOLUME
 62
     1
 10
-22.53326304017627
 20
-96.83912396459247
 30
0.0
 11
-16.53326304017628
 21
-96.83912396459249
 31
0.0
  0
LINE
  5
A2
  8
CALQUE1
  6
VOLUME
 62
     1
 10
17.46673695982373
 20
-96.83912396459247
 30
0.0
 11
23.46673695982372
 21
-96.83912396459249
 31
0.0
  0
LINE
  5
A3
  8
CALQUE1
  6
VOLUME
 62
     1
 10
-75.65355716854641
 20
-100.4254790574504
 30
0.0
 11
-80.98766001746081
 21
-103.1727225481521
 31
0.0
  0
LINE
  5
A4
  8
CALQUE1
  6
VOLUME
 62
     1
 10
-77.02717891389706
 20
-97.75842763299325
 30
0.0
 11
-75.65355716854641
 21
-100.4254790574504
 31
0.0
  0
LINE
  5
A5
  8
CALQUE1
  6
VOLUME
 62
     1
 10
-80.98766001746081
 20
-103.1727225481521
 30
0.0
 11
-82.3612817628116
 21
-100.505671123695
 31
0.0
  0
LINE
  5
A6
  8
CALQUE1
  6
VOLUME
 62
     1
 10
-90.43865016872218
 20
-111.998571269797
 30
0.0
 11
-87.46330062833364
 21
-112.3823617237022
 31
0.0
  0
LINE
  5
A7
  8
CALQUE1
  6
VOLUME
 62
     1
 10
-77.02717891389706
 20
-97.75842763299325
 30
0.0
 11
-82.3612817628116
 21
-100.505671123695
 31
0.0
  0
LINE
  5
A8
  8
CALQUE1
  6
VOLUME
 62
     1
 10
-57.43326304017187
 20
-96.83912396459249
 30
0.0
 11
-51.43326304017187
 21
-96.83912396459252
 31
0.0
  0
LINE
  5
A9
  8
CALQUE1
  6
VOLUME
 62
     1
 10
-90.43865016872218
 20
-111.998571269797
 30
0.0
 11
-91.19202328988455
 21
-117.8391239645925
 31
0.0
  0
LINE
  5
AA
  8
CALQUE1
  6
VOLUME
 62
     1
 10
-88.23088153614356
 20
-118.3330608044797
 30
0.0
 11
-91.20623107653222
 21
-117.9492703505747
 31
0.0
  0
LINE
  5
AB
  8
CALQUE1
  6
VOLUME
 62
     1
 10
-87.46330062833364
 20
-112.3823617237022
 30
0.0
 11
-88.23088153614356
 21
-118.3330608044797
 31
0.0
  0
ARC
  5
AC
  8
CALQUE1
  6
VOLUME
 62
     1
 10
-70.02075521789037
 20
-117.8391239645925
 30
0.0
 40
22.0232870409978
 50
92.63506898832871
 51
187.4627305154108
  0
LINE
  5
AD
  8
CALQUE1
  6
VOLUME
 62
     1
 10
-91.85749523208563
 20
-120.6995361101801
 30
0.0
 11
-86.39672238780543
 21
-120.6995361101801
 31
0.0
  0
LINE
  5
AE
  8
CALQUE1
  6
VOLUME
 62
     1
 10
138.9667309642339
 20
-129.3391282744202
 30
0.0
 11
138.9667309642339
 21
-169.0322624914668
 31
0.0
  0
ARC
  5
AF
  8
CALQUE1
  6
VOLUME
 62
     1
 10
127.4667369598283
 20
-133.3391239645925
 30
0.0
 40
37.50000000000001
 50
287.858453074085
 51
0.0
  0
LINE
  5
B0
  8
CALQUE1
  6
VOLUME
 62
     1
 10
103.9667309642339
 20
-169.8391282744209
 30
0.0
 11
103.9667309642339
 21
-129.3391282744202
 31
0.0
  0
LINE
  5
B1
  8
CALQUE1
  6
VOLUME
 62
     1
 10
-2.033269035765154
 20
-169.8391282744209
 30
0.0
 11
-2.033269035765154
 21
-137.8391282744209
 31
0.0
  0
LINE
  5
B2
  8
CALQUE1
  6
VOLUME
 62
     1
 10
103.9667309642339
 20
-169.8391239645925
 30
0.0
 11
-2.033269035765159
 21
-169.8391239645925
 31
0.0
  0
LINE
  5
B3
  8
CALQUE1
  6
VOLUME
 62
     1
 10
-86.39672238780543
 20
-120.6995361101801
 30
0.0
 11
-81.83583174102972
 21
-117.8391239645925
 31
0.0
  0
LINE
  5
B4
  8
CALQUE1
  6
VOLUME
 62
     1
 10
-81.83583174102972
 20
-117.8391239645925
 30
0.0
 11
-22.03326903576512
 21
-117.8391239645925
 31
0.0
  0
ARC
  5
B5
  8
CALQUE1
  6
VOLUME
 62
     1
 10
-22.03326903576513
 20
-137.8391282744209
 30
0.0
 40
19.99999999999999
 50
0.0
 51
90.0
  0
LINE
  5
B6
  8
CALQUE1
  6
VOLUME
 62
     1
 10
-29.90466091691026
 20
-70.70195214597949
 30
0.0
 11
-29.90466091691026
 21
-48.7019521459795
 31
0.0
  0
LINE
  5
B7
  8
CALQUE1
  6
VOLUME
 62
     1
 10
135.1976643501314
 20
-85.70195214597949
 30
0.0
 11
-14.90466091691026
 21
-85.70195214597949
 31
0.0
  0
LINE
  5
B8
  8
CALQUE1
  6
VOLUME
 62
     1
 10
-29.90466091691026
 20
-70.70195214597949
 30
0.0
 11
-14.90466091691025
 21
-85.70195214597949
 31
0.0
  0
ENDSEC
  0
EOF
