  0
SECTION
  2
HEADER
  9
$ACADVER
  1
AC1009
  9
$DWGCODEPAGE
  3
ansi_1252
  9
$INSBASE
 10
0.0
 20
0.0
 30
0.0
  9
$EXTMIN
 10
1.000000000000000E+20
 20
1.000000000000000E+20
 30
1.000000000000000E+20
  9
$EXTMAX
 10
-1.000000000000000E+20
 20
-1.000000000000000E+20
 30
-1.000000000000000E+20
  9
$LIMMIN
 10
0.0
 20
0.0
  9
$LIMMAX
 10
12.0
 20
9.0
  9
$ORTHOMODE
 70
     0
  9
$REGENMODE
 70
     1
  9
$FILLMODE
 70
     1
  9
$QTEXTMODE
 70
     0
  9
$MIRRTEXT
 70
     1
  9
$DRAGMODE
 70
     2
  9
$LTSCALE
 40
25.4
  9
$OSMODE
 70
    37
  9
$ATTMODE
 70
     1
  9
$TEXTSIZE
 40
0.2
  9
$TRACEWID
 40
0.05
  9
$TEXTSTYLE
  7
STANDARD
  9
$CLAYER
  8
0
  9
$CELTYPE
  6
BYLAYER
  9
$CECOLOR
 62
   256
  9
$DIMSCALE
 40
1.0
  9
$DIMASZ
 40
0.18
  9
$DIMEXO
 40
0.0625
  9
$DIMDLI
 40
0.38
  9
$DIMRND
 40
0.0
  9
$DIMDLE
 40
0.0
  9
$DIMEXE
 40
0.18
  9
$DIMTP
 40
0.0
  9
$DIMTM
 40
0.0
  9
$DIMTXT
 40
0.18
  9
$DIMCEN
 40
0.09
  9
$DIMTSZ
 40
0.0
  9
$DIMTOL
 70
     0
  9
$DIMLIM
 70
     0
  9
$DIMTIH
 70
     1
  9
$DIMTOH
 70
     1
  9
$DIMSE1
 70
     0
  9
$DIMSE2
 70
     0
  9
$DIMTAD
 70
     0
  9
$DIMZIN
 70
     0
  9
$DIMBLK
  1

  9
$DIMASO
 70
     1
  9
$DIMSHO
 70
     1
  9
$DIMPOST
  1

  9
$DIMAPOST
  1

  9
$DIMALT
 70
     0
  9
$DIMALTD
 70
     2
  9
$DIMALTF
 40
25.4
  9
$DIMLFAC
 40
1.0
  9
$DIMTOFL
 70
     0
  9
$DIMTVP
 40
0.0
  9
$DIMTIX
 70
     0
  9
$DIMSOXD
 70
     0
  9
$DIMSAH
 70
     0
  9
$DIMBLK1
  1

  9
$DIMBLK2
  1

  9
$DIMSTYLE
  2
STANDARD
  9
$DIMCLRD
 70
     0
  9
$DIMCLRE
 70
     0
  9
$DIMCLRT
 70
     0
  9
$DIMTFAC
 40
1.0
  9
$DIMGAP
 40
0.09
  9
$LUNITS
 70
     2
  9
$LUPREC
 70
     4
  9
$SKETCHINC
 40
0.1
  9
$FILLETRAD
 40
0.5
  9
$AUNITS
 70
     0
  9
$AUPREC
 70
     0
  9
$MENU
  1
.
  9
$ELEVATION
 40
0.0
  9
$PELEVATION
 40
0.0
  9
$THICKNESS
 40
0.0
  9
$LIMCHECK
 70
     0
  9
$CHAMFERA
 40
0.5
  9
$CHAMFERB
 40
0.5
  9
$SKPOLY
 70
     0
  9
$TDCREATE
 40
2457042.610647604
  9
$TDUPDATE
 40
2457042.610647616
  9
$TDINDWG
 40
0.0000000116
  9
$TDUSRTIMER
 40
0.0000000116
  9
$USRTIMER
 70
     1
  9
$ANGBASE
 50
0.0
  9
$ANGDIR
 70
     0
  9
$PDMODE
 70
     0
  9
$PDSIZE
 40
0.0
  9
$PLINEWID
 40
0.0
  9
$COORDS
 70
     1
  9
$SPLFRAME
 70
     0
  9
$SPLINETYPE
 70
     6
  9
$SPLINESEGS
 70
     8
  9
$ATTDIA
 70
     0
  9
$ATTREQ
 70
     1
  9
$HANDLING
 70
     1
  9
$HANDSEED
  5
1A5
  9
$SURFTAB1
 70
     6
  9
$SURFTAB2
 70
     6
  9
$SURFTYPE
 70
     6
  9
$SURFU
 70
     6
  9
$SURFV
 70
     6
  9
$UCSNAME
  2

  9
$UCSORG
 10
0.0
 20
0.0
 30
0.0
  9
$UCSXDIR
 10
1.0
 20
0.0
 30
0.0
  9
$UCSYDIR
 10
0.0
 20
1.0
 30
0.0
  9
$PUCSNAME
  2

  9
$PUCSORG
 10
0.0
 20
0.0
 30
0.0
  9
$PUCSXDIR
 10
1.0
 20
0.0
 30
0.0
  9
$PUCSYDIR
 10
0.0
 20
1.0
 30
0.0
  9
$USERI1
 70
     0
  9
$USERI2
 70
     0
  9
$USERI3
 70
     0
  9
$USERI4
 70
     0
  9
$USERI5
 70
     0
  9
$USERR1
 40
0.0
  9
$USERR2
 40
0.0
  9
$USERR3
 40
0.0
  9
$USERR4
 40
0.0
  9
$USERR5
 40
0.0
  9
$WORLDVIEW
 70
     1
  9
$SHADEDGE
 70
     3
  9
$SHADEDIF
 70
    70
  9
$TILEMODE
 70
     1
  9
$MAXACTVP
 70
    64
  9
$PLIMCHECK
 70
     0
  9
$PEXTMIN
 10
1.000000000000000E+20
 20
1.000000000000000E+20
 30
1.000000000000000E+20
  9
$PEXTMAX
 10
-1.000000000000000E+20
 20
-1.000000000000000E+20
 30
-1.000000000000000E+20
  9
$PLIMMIN
 10
0.0
 20
0.0
  9
$PLIMMAX
 10
12.0
 20
9.0
  9
$UNITMODE
 70
     0
  9
$VISRETAIN
 70
     1
  9
$PLINEGEN
 70
     0
  9
$PSLTSCALE
 70
     1
  0
ENDSEC
  0
SECTION
  2
TABLES
  0
TABLE
  2
VPORT
 70
     1
  0
VPORT
  2
*ACTIVE
 70
     0
 10
0.0
 20
0.0
 11
1.0
 21
1.0
 12
10.42990654205607
 22
4.5
 13
0.0
 23
0.0
 14
0.5
 24
0.5
 15
0.5
 25
0.5
 16
0.0
 26
0.0
 36
1.0
 17
0.0
 27
0.0
 37
0.0
 40
9.0
 41
1.972972972850329
 42
50.0
 43
0.0
 44
0.0
 50
0.0
 51
0.0
 71
     0
 72
   100
 73
     1
 74
     3
 75
     0
 76
     0
 77
     0
 78
     0
  0
ENDTAB
  0
TABLE
  2
LTYPE
 70
    12
  0
LTYPE
  2
CONTINUOUS
 70
     0
  3
Solid line
 72
    65
 73
     0
 40
0.0
  0
LTYPE
  2
VOLUME
 70
     0
  3
__________________
 72
    65
 73
     0
 40
0.0
  0
LTYPE
  2
FRONTIERE
 70
     0
  3
__ __ . __ __ . __
 72
    65
 73
     6
 40
0.875
 49
0.25
 49
-0.125
 49
0.25
 49
-0.125
 49
0.0
 49
-0.125
  0
LTYPE
  2
CENTRE
 70
     0
  3
___ _ ___ _ ___ _ 
 72
    65
 73
     4
 40
1.125
 49
0.75
 49
-0.125
 49
0.125
 49
-0.125
  0
LTYPE
  2
TIRET
 70
     0
  3
_._._._._._._._._.
 72
    65
 73
     4
 40
0.5
 49
0.25
 49
-0.125
 49
0.0
 49
-0.125
  0
LTYPE
  2
POINTILLE
 70
     0
  3
_ _ _ _ _ _ _ _ _ 
 72
    65
 73
     2
 40
0.375
 49
0.25
 49
-0.125
  0
LTYPE
  2
DIVISE
 70
     0
  3
__..__..__..__..__
 72
    65
 73
     6
 40
0.625
 49
0.25
 49
-0.125
 49
0.0
 49
-0.125
 49
0.0
 49
-0.125
  0
LTYPE
  2
POINT
 70
     0
  3
..................
 72
    65
 73
     2
 40
0.125
 49
0.0
 49
-0.125
  0
LTYPE
  2
CACHE
 70
     0
  3
__ __ __ __ __ __ 
 72
    65
 73
     2
 40
0.1875
 49
0.125
 49
-0.0625
  0
LTYPE
  2
FANTOME
 70
     0
  3
___ _ _ ___ _ _ __
 72
    65
 73
     6
 40
1.25
 49
0.625
 49
-0.125
 49
0.125
 49
-0.125
 49
0.125
 49
-0.125
  0
LTYPE
  2
COUPE
 70
     0
  3
________ _ _ _____
 72
    65
 73
     6
 40
1.4675
 49
1.0
 49
-0.0725
 49
0.125
 49
-0.0725
 49
0.125
 49
-0.0725
  0
LTYPE
  2
PETIT_POINTILLE
 70
     0
  3
_ _ _ _ _ _ _ _ _ 
 72
    65
 73
     2
 40
0.145
 49
0.0725
 49
-0.0725
  0
ENDTAB
  0
TABLE
  2
LAYER
 70
     2
  0
LAYER
  2
0
 70
     0
 62
     7
  6
CONTINUOUS
  0
LAYER
  2
CALQUE1
 70
     0
 62
     7
  6
VOLUME
  0
ENDTAB
  0
TABLE
  2
STYLE
 70
     1
  0
STYLE
  2
STANDARD
 70
     0
 40
0.0
 41
1.0
 50
0.0
 71
     0
 42
0.2
  3
txt
  4

  0
ENDTAB
  0
TABLE
  2
VIEW
 70
     0
  0
ENDTAB
  0
TABLE
  2
UCS
 70
     0
  0
ENDTAB
  0
TABLE
  2
APPID
 70
     1
  0
APPID
  2
ACAD
 70
     0
  0
ENDTAB
  0
TABLE
  2
DIMSTYLE
 70
     1
  0
DIMSTYLE
  2
STANDARD
 70
     0
  3

  4

  5

  6

  7

 40
1.0
 41
0.18
 42
0.0625
 43
0.38
 44
0.18
 45
0.0
 46
0.0
 47
0.0
 48
0.0
140
0.18
141
0.09
142
0.0
143
25.4
144
1.0
145
0.0
146
1.0
147
0.09
 71
     0
 72
     0
 73
     1
 74
     1
 75
     0
 76
     0
 77
     0
 78
     0
170
     0
171
     2
172
     0
173
     0
174
     0
175
     0
176
     0
177
     0
178
     0
  0
ENDTAB
  0
ENDSEC
  0
SECTION
  2
BLOCKS
  0
BLOCK
  8
0
  2
$MODEL_SPACE
 70
     0
 10
0.0
 20
0.0
 30
0.0
  3
$MODEL_SPACE
  1

  0
ENDBLK
  5
21
  8
0
  0
BLOCK
 67
     1
  8
0
  2
$PAPER_SPACE
 70
     0
 10
0.0
 20
0.0
 30
0.0
  3
$PAPER_SPACE
  1

  0
ENDBLK
  5
1D
 67
     1
  8
0
  0
ENDSEC
  0
SECTION
  2
ENTITIES
  0
LINE
  5
47
  8
CALQUE1
  6
VOLUME
 62
     1
 10
-103.3046609169113
 20
64.66283303434795
 30
0.0
 11
-103.3046609169113
 21
118.6628330343479
 31
0.0
  0
LINE
  5
48
  8
CALQUE1
  6
VOLUME
 62
     1
 10
-100.3046609169113
 20
96.66283303434695
 30
0.0
 11
-100.3046609169113
 21
83.66283303434695
 31
0.0
  0
LINE
  5
49
  8
CALQUE1
  6
VOLUME
 62
     1
 10
-101.8046609169113
 20
87.15405258074333
 30
0.0
 11
-101.8046609169113
 21
72.15405258074333
 31
0.0
  0
LINE
  5
4A
  8
CALQUE1
  6
VOLUME
 62
     1
 10
-101.8046609169113
 20
66.66283303434649
 30
0.0
 11
-101.8046609169113
 21
70.1540525807414
 31
0.0
  0
LINE
  5
4B
  8
CALQUE1
  6
VOLUME
 62
     1
 10
-100.3046609169113
 20
81.66283303434794
 30
0.0
 11
-100.3046609169113
 21
66.66283303434795
 31
0.0
  0
LINE
  5
4C
  8
CALQUE1
  6
VOLUME
 62
     1
 10
-97.30466091691129
 20
96.66283303434695
 30
0.0
 11
-97.30466091691129
 21
83.66283303434695
 31
0.0
  0
LINE
  5
4D
  8
CALQUE1
  6
VOLUME
 62
     1
 10
-98.80466091691129
 20
87.15405258074333
 30
0.0
 11
-98.80466091691129
 21
72.15405258074333
 31
0.0
  0
LINE
  5
4E
  8
CALQUE1
  6
VOLUME
 62
     1
 10
-98.80466091691129
 20
66.66283303434649
 30
0.0
 11
-98.80466091691129
 21
70.1540525807414
 31
0.0
  0
LINE
  5
4F
  8
CALQUE1
  6
VOLUME
 62
     1
 10
-97.30466091691127
 20
81.66283303434794
 30
0.0
 11
-97.30466091691127
 21
66.66283303434795
 31
0.0
  0
LINE
  5
50
  8
CALQUE1
  6
VOLUME
 62
     1
 10
-94.3046609169113
 20
96.66283303434695
 30
0.0
 11
-94.3046609169113
 21
83.66283303434695
 31
0.0
  0
LINE
  5
51
  8
CALQUE1
  6
VOLUME
 62
     1
 10
-95.80466091691129
 20
87.15405258074333
 30
0.0
 11
-95.80466091691129
 21
72.15405258074333
 31
0.0
  0
LINE
  5
52
  8
CALQUE1
  6
VOLUME
 62
     1
 10
-95.8046609169113
 20
66.66283303434649
 30
0.0
 11
-95.8046609169113
 21
70.1540525807414
 31
0.0
  0
LINE
  5
53
  8
CALQUE1
  6
VOLUME
 62
     1
 10
-94.30466091691126
 20
81.66283303434794
 30
0.0
 11
-94.30466091691126
 21
66.66283303434795
 31
0.0
  0
LINE
  5
54
  8
CALQUE1
  6
VOLUME
 62
     1
 10
-91.3046609169113
 20
96.66283303434695
 30
0.0
 11
-91.3046609169113
 21
83.66283303434695
 31
0.0
  0
LINE
  5
55
  8
CALQUE1
  6
VOLUME
 62
     1
 10
-92.80466091691127
 20
87.15405258074333
 30
0.0
 11
-92.80466091691127
 21
72.15405258074333
 31
0.0
  0
LINE
  5
56
  8
CALQUE1
  6
VOLUME
 62
     1
 10
-92.8046609169113
 20
66.66283303434649
 30
0.0
 11
-92.8046609169113
 21
70.1540525807414
 31
0.0
  0
LINE
  5
57
  8
CALQUE1
  6
VOLUME
 62
     1
 10
-91.30466091691126
 20
81.66283303434794
 30
0.0
 11
-91.30466091691126
 21
66.66283303434795
 31
0.0
  0
LINE
  5
58
  8
CALQUE1
  6
VOLUME
 62
     1
 10
-88.3046609169113
 20
96.66283303434695
 30
0.0
 11
-88.3046609169113
 21
83.66283303434695
 31
0.0
  0
LINE
  5
59
  8
CALQUE1
  6
VOLUME
 62
     1
 10
-89.80466091691129
 20
87.15405258074333
 30
0.0
 11
-89.80466091691129
 21
72.15405258074333
 31
0.0
  0
LINE
  5
5A
  8
CALQUE1
  6
VOLUME
 62
     1
 10
-89.8046609169113
 20
66.66283303434649
 30
0.0
 11
-89.8046609169113
 21
70.1540525807414
 31
0.0
  0
LINE
  5
5B
  8
CALQUE1
  6
VOLUME
 62
     1
 10
-88.30466091691126
 20
81.66283303434794
 30
0.0
 11
-88.30466091691126
 21
66.66283303434795
 31
0.0
  0
LINE
  5
5C
  8
CALQUE1
  6
VOLUME
 62
     1
 10
-85.30466091691129
 20
96.66283303434695
 30
0.0
 11
-85.30466091691129
 21
83.66283303434695
 31
0.0
  0
LINE
  5
5D
  8
CALQUE1
  6
VOLUME
 62
     1
 10
-86.80466091691129
 20
87.15405258074333
 30
0.0
 11
-86.80466091691129
 21
72.15405258074333
 31
0.0
  0
LINE
  5
5E
  8
CALQUE1
  6
VOLUME
 62
     1
 10
-86.80466091691129
 20
66.66283303434649
 30
0.0
 11
-86.80466091691129
 21
70.1540525807414
 31
0.0
  0
LINE
  5
5F
  8
CALQUE1
  6
VOLUME
 62
     1
 10
-85.30466091691127
 20
81.66283303434794
 30
0.0
 11
-85.30466091691127
 21
66.66283303434795
 31
0.0
  0
LINE
  5
60
  8
CALQUE1
  6
VOLUME
 62
     1
 10
-82.3046609169113
 20
96.66283303434695
 30
0.0
 11
-82.3046609169113
 21
83.66283303434695
 31
0.0
  0
LINE
  5
61
  8
CALQUE1
  6
VOLUME
 62
     1
 10
-83.80466091691129
 20
87.15405258074333
 30
0.0
 11
-83.80466091691129
 21
72.15405258074333
 31
0.0
  0
LINE
  5
62
  8
CALQUE1
  6
VOLUME
 62
     1
 10
-83.8046609169113
 20
66.66283303434649
 30
0.0
 11
-83.8046609169113
 21
70.1540525807414
 31
0.0
  0
LINE
  5
63
  8
CALQUE1
  6
VOLUME
 62
     1
 10
-82.30466091691126
 20
81.66283303434794
 30
0.0
 11
-82.30466091691126
 21
66.66283303434795
 31
0.0
  0
LINE
  5
64
  8
CALQUE1
  6
VOLUME
 62
     1
 10
-79.3046609169113
 20
96.66283303434695
 30
0.0
 11
-79.3046609169113
 21
83.66283303434695
 31
0.0
  0
LINE
  5
65
  8
CALQUE1
  6
VOLUME
 62
     1
 10
-80.80466091691127
 20
87.15405258074333
 30
0.0
 11
-80.80466091691127
 21
72.15405258074333
 31
0.0
  0
LINE
  5
66
  8
CALQUE1
  6
VOLUME
 62
     1
 10
-80.8046609169113
 20
66.66283303434649
 30
0.0
 11
-80.8046609169113
 21
70.1540525807414
 31
0.0
  0
LINE
  5
67
  8
CALQUE1
  6
VOLUME
 62
     1
 10
-79.30466091691126
 20
81.66283303434794
 30
0.0
 11
-79.30466091691126
 21
66.66283303434795
 31
0.0
  0
LINE
  5
68
  8
CALQUE1
  6
VOLUME
 62
     1
 10
-76.3046609169113
 20
96.66283303434695
 30
0.0
 11
-76.3046609169113
 21
83.66283303434695
 31
0.0
  0
LINE
  5
69
  8
CALQUE1
  6
VOLUME
 62
     1
 10
-77.80466091691129
 20
87.15405258074333
 30
0.0
 11
-77.80466091691129
 21
72.15405258074333
 31
0.0
  0
LINE
  5
6A
  8
CALQUE1
  6
VOLUME
 62
     1
 10
-77.80466091691129
 20
66.66283303434649
 30
0.0
 11
-77.80466091691129
 21
70.1540525807414
 31
0.0
  0
LINE
  5
6B
  8
CALQUE1
  6
VOLUME
 62
     1
 10
-76.30466091691126
 20
81.66283303434794
 30
0.0
 11
-76.30466091691126
 21
66.66283303434795
 31
0.0
  0
LINE
  5
6C
  8
CALQUE1
  6
VOLUME
 62
     1
 10
-73.30466091691129
 20
96.66283303434695
 30
0.0
 11
-73.30466091691129
 21
83.66283303434695
 31
0.0
  0
LINE
  5
6D
  8
CALQUE1
  6
VOLUME
 62
     1
 10
-74.80466091691129
 20
87.15405258074333
 30
0.0
 11
-74.80466091691129
 21
72.15405258074333
 31
0.0
  0
LINE
  5
6E
  8
CALQUE1
  6
VOLUME
 62
     1
 10
-74.80466091691129
 20
66.66283303434649
 30
0.0
 11
-74.80466091691129
 21
70.1540525807414
 31
0.0
  0
LINE
  5
6F
  8
CALQUE1
  6
VOLUME
 62
     1
 10
-73.30466091691127
 20
81.66283303434794
 30
0.0
 11
-73.30466091691127
 21
66.66283303434795
 31
0.0
  0
LINE
  5
70
  8
CALQUE1
  6
VOLUME
 62
     1
 10
192.5953390830826
 20
118.6628330343479
 30
0.0
 11
192.5953390830843
 21
64.66283303434795
 31
0.0
  0
LINE
  5
71
  8
CALQUE1
  6
VOLUME
 62
     1
 10
127.0953390830843
 20
121.662833034348
 30
0.0
 11
132.0953390830843
 21
121.662833034348
 31
0.0
  0
LINE
  5
72
  8
CALQUE1
  6
VOLUME
 62
     1
 10
127.0953390830842
 20
64.66283303434795
 30
0.0
 11
127.0953390830843
 21
61.66283303434795
 31
0.0
  0
LINE
  5
73
  8
CALQUE1
  6
VOLUME
 62
     1
 10
127.0953390830843
 20
61.66283303434795
 30
0.0
 11
132.0953390830842
 21
61.662833034348
 31
0.0
  0
LINE
  5
74
  8
CALQUE1
  6
VOLUME
 62
     1
 10
132.0953390830842
 20
61.662833034348
 30
0.0
 11
132.0953390830843
 21
64.66283303434798
 31
0.0
  0
LINE
  5
75
  8
CALQUE1
  6
VOLUME
 62
     1
 10
147.0953390830843
 20
121.662833034348
 30
0.0
 11
152.0953390830843
 21
121.662833034348
 31
0.0
  0
LINE
  5
76
  8
CALQUE1
  6
VOLUME
 62
     1
 10
147.0953390830842
 20
64.66283303434795
 30
0.0
 11
147.0953390830843
 21
61.66283303434795
 31
0.0
  0
LINE
  5
77
  8
CALQUE1
  6
VOLUME
 62
     1
 10
147.0953390830843
 20
61.66283303434795
 30
0.0
 11
152.0953390830842
 21
61.662833034348
 31
0.0
  0
LINE
  5
78
  8
CALQUE1
  6
VOLUME
 62
     1
 10
152.0953390830842
 20
61.662833034348
 30
0.0
 11
152.0953390830842
 21
64.66283303434798
 31
0.0
  0
LINE
  5
79
  8
CALQUE1
  6
VOLUME
 62
     1
 10
167.0953390830843
 20
121.662833034348
 30
0.0
 11
172.0953390830843
 21
121.662833034348
 31
0.0
  0
LINE
  5
7A
  8
CALQUE1
  6
VOLUME
 62
     1
 10
167.0953390830843
 20
64.66283303434795
 30
0.0
 11
167.0953390830843
 21
61.66283303434795
 31
0.0
  0
LINE
  5
7B
  8
CALQUE1
  6
VOLUME
 62
     1
 10
167.0953390830843
 20
61.66283303434795
 30
0.0
 11
172.0953390830842
 21
61.662833034348
 31
0.0
  0
LINE
  5
7C
  8
CALQUE1
  6
VOLUME
 62
     1
 10
172.0953390830842
 20
61.662833034348
 30
0.0
 11
172.0953390830842
 21
64.66283303434798
 31
0.0
  0
LINE
  5
7D
  8
CALQUE1
  6
VOLUME
 62
     1
 10
187.0953390830843
 20
121.662833034348
 30
0.0
 11
192.5953390830843
 21
121.6628330343479
 31
0.0
  0
LINE
  5
7E
  8
CALQUE1
  6
VOLUME
 62
     1
 10
192.5953390830843
 20
121.6628330343479
 30
0.0
 11
192.5953390830843
 21
118.6628330343479
 31
0.0
  0
LINE
  5
7F
  8
CALQUE1
  6
VOLUME
 62
     1
 10
187.0953390830842
 20
64.66283303434795
 30
0.0
 11
187.0953390830843
 21
61.66283303434795
 31
0.0
  0
LINE
  5
80
  8
CALQUE1
  6
VOLUME
 62
     1
 10
187.0953390830843
 20
61.66283303434795
 30
0.0
 11
192.5953390830842
 21
61.66283303434797
 31
0.0
  0
LINE
  5
81
  8
CALQUE1
  6
VOLUME
 62
     1
 10
192.5953390830842
 20
61.66283303434797
 30
0.0
 11
192.5953390830843
 21
64.66283303434795
 31
0.0
  0
LINE
  5
82
  8
CALQUE1
  6
VOLUME
 62
     1
 10
96.5953390830843
 20
121.662833034348
 30
0.0
 11
102.5953390830843
 21
121.6628330343479
 31
0.0
  0
LINE
  5
83
  8
CALQUE1
  6
VOLUME
 62
     1
 10
96.59533908308427
 20
64.66283303434798
 30
0.0
 11
96.59533908308431
 21
61.66283303434797
 31
0.0
  0
LINE
  5
84
  8
CALQUE1
  6
VOLUME
 62
     1
 10
96.59533908308431
 20
61.66283303434797
 30
0.0
 11
102.5953390830842
 21
61.66283303434797
 31
0.0
  0
LINE
  5
85
  8
CALQUE1
  6
VOLUME
 62
     1
 10
102.5953390830842
 20
61.66283303434797
 30
0.0
 11
102.5953390830842
 21
64.66283303434795
 31
0.0
  0
LINE
  5
86
  8
CALQUE1
  6
VOLUME
 62
     1
 10
56.59533908308428
 20
121.662833034348
 30
0.0
 11
62.59533908308428
 21
121.6628330343479
 31
0.0
  0
LINE
  5
87
  8
CALQUE1
  6
VOLUME
 62
     1
 10
56.59533908308426
 20
64.66283303434798
 30
0.0
 11
56.5953390830843
 21
61.66283303434797
 31
0.0
  0
LINE
  5
88
  8
CALQUE1
  6
VOLUME
 62
     1
 10
56.5953390830843
 20
61.66283303434797
 30
0.0
 11
62.59533908308421
 21
61.66283303434797
 31
0.0
  0
LINE
  5
89
  8
CALQUE1
  6
VOLUME
 62
     1
 10
62.59533908308421
 20
61.66283303434797
 30
0.0
 11
62.59533908308425
 21
64.66283303434795
 31
0.0
  0
LINE
  5
8A
  8
CALQUE1
  6
VOLUME
 62
     1
 10
16.59533908308428
 20
121.662833034348
 30
0.0
 11
22.59533908308427
 21
121.6628330343479
 31
0.0
  0
LINE
  5
8B
  8
CALQUE1
  6
VOLUME
 62
     1
 10
16.59533908308426
 20
64.66283303434798
 30
0.0
 11
16.59533908308431
 21
61.66283303434797
 31
0.0
  0
LINE
  5
8C
  8
CALQUE1
  6
VOLUME
 62
     1
 10
16.59533908308431
 20
61.66283303434797
 30
0.0
 11
22.59533908308421
 21
61.66283303434797
 31
0.0
  0
LINE
  5
8D
  8
CALQUE1
  6
VOLUME
 62
     1
 10
22.59533908308421
 20
61.66283303434797
 30
0.0
 11
22.59533908308425
 21
64.66283303434795
 31
0.0
  0
LINE
  5
8E
  8
CALQUE1
  6
VOLUME
 62
     1
 10
-23.40466091691571
 20
121.662833034348
 30
0.0
 11
-17.40466091691572
 21
121.6628330343479
 31
0.0
  0
LINE
  5
8F
  8
CALQUE1
  6
VOLUME
 62
     1
 10
-23.40466091691573
 20
64.66283303434798
 30
0.0
 11
-23.40466091691569
 21
61.66283303434797
 31
0.0
  0
LINE
  5
90
  8
CALQUE1
  6
VOLUME
 62
     1
 10
-23.40466091691569
 20
61.66283303434797
 30
0.0
 11
-17.40466091691579
 21
61.66283303434797
 31
0.0
  0
LINE
  5
91
  8
CALQUE1
  6
VOLUME
 62
     1
 10
-17.40466091691579
 20
61.66283303434797
 30
0.0
 11
-17.40466091691574
 21
64.66283303434795
 31
0.0
  0
LINE
  5
92
  8
CALQUE1
  6
VOLUME
 62
     1
 10
-58.30466091691131
 20
121.662833034348
 30
0.0
 11
-52.30466091691132
 21
121.6628330343479
 31
0.0
  0
LINE
  5
93
  8
CALQUE1
  6
VOLUME
 62
     1
 10
-58.30466091691133
 20
64.66283303434795
 30
0.0
 11
-58.30466091691129
 21
61.66283303434795
 31
0.0
  0
LINE
  5
94
  8
CALQUE1
  6
VOLUME
 62
     1
 10
-58.30466091691129
 20
61.66283303434795
 30
0.0
 11
-52.30466091691139
 21
61.66283303434795
 31
0.0
  0
LINE
  5
95
  8
CALQUE1
  6
VOLUME
 62
     1
 10
-52.30466091691139
 20
61.66283303434795
 30
0.0
 11
-52.30466091691135
 21
64.66283303434793
 31
0.0
  0
LINE
  5
96
  8
CALQUE1
  6
VOLUME
 62
     1
 10
-82.80466091691132
 20
121.662833034348
 30
0.0
 11
-77.80466091691133
 21
121.6628330343479
 31
0.0
  0
LINE
  5
97
  8
CALQUE1
  6
VOLUME
 62
     1
 10
-82.80466091691135
 20
64.66283303434797
 30
0.0
 11
-82.8046609169113
 21
61.66283303434796
 31
0.0
  0
LINE
  5
98
  8
CALQUE1
  6
VOLUME
 62
     1
 10
-82.8046609169113
 20
61.66283303434796
 30
0.0
 11
-77.8046609169114
 21
61.66283303434797
 31
0.0
  0
LINE
  5
99
  8
CALQUE1
  6
VOLUME
 62
     1
 10
-77.8046609169114
 20
61.66283303434797
 30
0.0
 11
-77.80466091691135
 21
64.66283303434795
 31
0.0
  0
LINE
  5
9A
  8
CALQUE1
  6
VOLUME
 62
     1
 10
-103.3046609169113
 20
121.662833034348
 30
0.0
 11
-97.80466091691132
 21
121.6628330343479
 31
0.0
  0
LINE
  5
9B
  8
CALQUE1
  6
VOLUME
 62
     1
 10
-103.3046609169113
 20
121.662833034348
 30
0.0
 11
-103.3046609169113
 21
118.6628330343479
 31
0.0
  0
LINE
  5
9C
  8
CALQUE1
  6
VOLUME
 62
     1
 10
-103.3046609169113
 20
64.66283303434795
 30
0.0
 11
-103.3046609169113
 21
61.66283303434795
 31
0.0
  0
LINE
  5
9D
  8
CALQUE1
  6
VOLUME
 62
     1
 10
-97.80466091691132
 20
121.6628330343479
 30
0.0
 11
-97.80466091691132
 21
118.6628330343479
 31
0.0
  0
LINE
  5
9E
  8
CALQUE1
  6
VOLUME
 62
     1
 10
187.0953390830843
 20
121.662833034348
 30
0.0
 11
187.0953390830843
 21
118.6628330343479
 31
0.0
  0
LINE
  5
9F
  8
CALQUE1
  6
VOLUME
 62
     1
 10
172.0953390830843
 20
121.662833034348
 30
0.0
 11
172.0953390830843
 21
118.662833034348
 31
0.0
  0
LINE
  5
A0
  8
CALQUE1
  6
VOLUME
 62
     1
 10
172.0953390830843
 20
118.6628330343479
 30
0.0
 11
187.0953390830843
 21
118.6628330343479
 31
0.0
  0
LINE
  5
A1
  8
CALQUE1
  6
VOLUME
 62
     1
 10
167.0953390830843
 20
121.662833034348
 30
0.0
 11
167.0953390830843
 21
118.6628330343479
 31
0.0
  0
LINE
  5
A2
  8
CALQUE1
  6
VOLUME
 62
     1
 10
152.0953390830843
 20
121.662833034348
 30
0.0
 11
152.0953390830843
 21
118.662833034348
 31
0.0
  0
LINE
  5
A3
  8
CALQUE1
  6
VOLUME
 62
     1
 10
152.0953390830843
 20
118.6628330343479
 30
0.0
 11
167.0953390830843
 21
118.6628330343479
 31
0.0
  0
LINE
  5
A4
  8
CALQUE1
  6
VOLUME
 62
     1
 10
147.0953390830843
 20
121.662833034348
 30
0.0
 11
147.0953390830843
 21
118.6628330343479
 31
0.0
  0
LINE
  5
A5
  8
CALQUE1
  6
VOLUME
 62
     1
 10
132.0953390830843
 20
118.6628330343479
 30
0.0
 11
147.0953390830843
 21
118.6628330343479
 31
0.0
  0
LINE
  5
A6
  8
CALQUE1
  6
VOLUME
 62
     1
 10
132.0953390830843
 20
121.662833034348
 30
0.0
 11
132.0953390830843
 21
118.662833034348
 31
0.0
  0
LINE
  5
A7
  8
CALQUE1
  6
VOLUME
 62
     1
 10
127.0953390830843
 20
121.662833034348
 30
0.0
 11
127.0953390830843
 21
118.6628330343479
 31
0.0
  0
LINE
  5
A8
  8
CALQUE1
  6
VOLUME
 62
     1
 10
102.5953390830843
 20
121.6628330343479
 30
0.0
 11
102.5953390830843
 21
118.6628330343479
 31
0.0
  0
LINE
  5
A9
  8
CALQUE1
  6
VOLUME
 62
     1
 10
102.5953390830843
 20
118.6628330343479
 30
0.0
 11
127.0953390830843
 21
118.6628330343479
 31
0.0
  0
LINE
  5
AA
  8
CALQUE1
  6
VOLUME
 62
     1
 10
96.5953390830843
 20
121.662833034348
 30
0.0
 11
96.5953390830843
 21
118.6628330343479
 31
0.0
  0
LINE
  5
AB
  8
CALQUE1
  6
VOLUME
 62
     1
 10
62.59533908308428
 20
121.6628330343479
 30
0.0
 11
62.59533908308428
 21
118.6628330343479
 31
0.0
  0
LINE
  5
AC
  8
CALQUE1
  6
VOLUME
 62
     1
 10
62.59533908308428
 20
118.6628330343479
 30
0.0
 11
96.5953390830843
 21
118.6628330343479
 31
0.0
  0
LINE
  5
AD
  8
CALQUE1
  6
VOLUME
 62
     1
 10
56.59533908308428
 20
121.662833034348
 30
0.0
 11
56.59533908308428
 21
118.6628330343479
 31
0.0
  0
LINE
  5
AE
  8
CALQUE1
  6
VOLUME
 62
     1
 10
22.59533908308427
 20
121.6628330343479
 30
0.0
 11
22.59533908308427
 21
118.6628330343479
 31
0.0
  0
LINE
  5
AF
  8
CALQUE1
  6
VOLUME
 62
     1
 10
22.59533908308427
 20
118.6628330343479
 30
0.0
 11
56.59533908308428
 21
118.6628330343479
 31
0.0
  0
LINE
  5
B0
  8
CALQUE1
  6
VOLUME
 62
     1
 10
16.59533908308428
 20
121.662833034348
 30
0.0
 11
16.59533908308428
 21
118.6628330343479
 31
0.0
  0
LINE
  5
B1
  8
CALQUE1
  6
VOLUME
 62
     1
 10
-17.40466091691572
 20
121.6628330343479
 30
0.0
 11
-17.40466091691572
 21
118.6628330343479
 31
0.0
  0
LINE
  5
B2
  8
CALQUE1
  6
VOLUME
 62
     1
 10
-17.40466091691572
 20
118.6628330343479
 30
0.0
 11
16.59533908308428
 21
118.6628330343479
 31
0.0
  0
LINE
  5
B3
  8
CALQUE1
  6
VOLUME
 62
     1
 10
-23.40466091691571
 20
121.662833034348
 30
0.0
 11
-23.40466091691571
 21
118.6628330343479
 31
0.0
  0
LINE
  5
B4
  8
CALQUE1
  6
VOLUME
 62
     1
 10
-97.80466091691132
 20
118.6628330343479
 30
0.0
 11
-82.80466091691132
 21
118.6628330343479
 31
0.0
  0
LINE
  5
B5
  8
CALQUE1
  6
VOLUME
 62
     1
 10
-82.80466091691132
 20
121.662833034348
 30
0.0
 11
-82.80466091691132
 21
118.6628330343479
 31
0.0
  0
LINE
  5
B6
  8
CALQUE1
  6
VOLUME
 62
     1
 10
-77.80466091691133
 20
121.6628330343479
 30
0.0
 11
-77.80466091691133
 21
118.6628330343479
 31
0.0
  0
LINE
  5
B7
  8
CALQUE1
  6
VOLUME
 62
     1
 10
-77.80466091691133
 20
118.6628330343479
 30
0.0
 11
-58.30466091691131
 21
118.6628330343479
 31
0.0
  0
LINE
  5
B8
  8
CALQUE1
  6
VOLUME
 62
     1
 10
-58.30466091691131
 20
121.662833034348
 30
0.0
 11
-58.30466091691131
 21
118.6628330343479
 31
0.0
  0
LINE
  5
B9
  8
CALQUE1
  6
VOLUME
 62
     1
 10
-52.30466091691132
 20
121.6628330343479
 30
0.0
 11
-52.30466091691132
 21
118.6628330343479
 31
0.0
  0
LINE
  5
BA
  8
CALQUE1
  6
VOLUME
 62
     1
 10
-52.30466091691132
 20
118.6628330343479
 30
0.0
 11
-23.4046609169157
 21
118.6628330343479
 31
0.0
  0
LINE
  5
BB
  8
CALQUE1
  6
VOLUME
 62
     1
 10
-103.3046609169113
 20
61.66283303434795
 30
0.0
 11
-97.80466091691139
 21
61.66283303434797
 31
0.0
  0
LINE
  5
BC
  8
CALQUE1
  6
VOLUME
 62
     1
 10
-97.80466091691139
 20
61.66283303434797
 30
0.0
 11
-97.80466091691133
 21
64.66283303434795
 31
0.0
  0
LINE
  5
BD
  8
CALQUE1
  6
VOLUME
 62
     1
 10
172.0953390830842
 20
64.66283303434798
 30
0.0
 11
187.0953390830842
 21
64.66283303434793
 31
0.0
  0
LINE
  5
BE
  8
CALQUE1
  6
VOLUME
 62
     1
 10
152.0953390830842
 20
64.66283303434798
 30
0.0
 11
167.0953390830843
 21
64.66283303434793
 31
0.0
  0
LINE
  5
BF
  8
CALQUE1
  6
VOLUME
 62
     1
 10
132.0953390830842
 20
64.66283303434798
 30
0.0
 11
147.0953390830842
 21
64.66283303434793
 31
0.0
  0
LINE
  5
C0
  8
CALQUE1
  6
VOLUME
 62
     1
 10
102.5953390830842
 20
64.66283303434795
 30
0.0
 11
127.0953390830842
 21
64.66283303434793
 31
0.0
  0
LINE
  5
C1
  8
CALQUE1
  6
VOLUME
 62
     1
 10
62.59533908308425
 20
64.66283303434795
 30
0.0
 11
96.59533908308427
 21
64.66283303434795
 31
0.0
  0
LINE
  5
C2
  8
CALQUE1
  6
VOLUME
 62
     1
 10
22.59533908308425
 20
64.66283303434795
 30
0.0
 11
56.59533908308426
 21
64.66283303434795
 31
0.0
  0
LINE
  5
C3
  8
CALQUE1
  6
VOLUME
 62
     1
 10
-17.40466091691574
 20
64.66283303434795
 30
0.0
 11
16.59533908308426
 21
64.66283303434795
 31
0.0
  0
LINE
  5
C4
  8
CALQUE1
  6
VOLUME
 62
     1
 10
-97.80466091691133
 20
64.66283303434798
 30
0.0
 11
-82.80466091691135
 21
64.66283303434797
 31
0.0
  0
LINE
  5
C5
  8
CALQUE1
  6
VOLUME
 62
     1
 10
-77.80466091691135
 20
64.66283303434798
 30
0.0
 11
-58.30466091691133
 21
64.66283303434795
 31
0.0
  0
LINE
  5
C6
  8
CALQUE1
  6
VOLUME
 62
     1
 10
-52.30466091691135
 20
64.66283303434795
 30
0.0
 11
-23.40466091691573
 21
64.66283303434795
 31
0.0
  0
LINE
  5
C7
  8
CALQUE1
  6
VOLUME
 62
     1
 10
-101.8046609169113
 20
104.6628330343484
 30
0.0
 11
-101.8046609169113
 21
89.66283303434841
 31
0.0
  0
LINE
  5
C8
  8
CALQUE1
  6
VOLUME
 62
     1
 10
-100.3046609169127
 20
112.171613487953
 30
0.0
 11
-100.3046609169127
 21
99.17161348795302
 31
0.0
  0
LINE
  5
C9
  8
CALQUE1
  6
VOLUME
 62
     1
 10
-101.8046609169113
 20
116.6628330343481
 30
0.0
 11
-101.8046609169113
 21
107.1628330343479
 31
0.0
  0
LINE
  5
CA
  8
CALQUE1
  6
VOLUME
 62
     1
 10
-100.3046609169127
 20
116.6628330343539
 30
0.0
 11
-100.3046609169127
 21
114.671613487953
 31
0.0
  0
LINE
  5
CB
  8
CALQUE1
  6
VOLUME
 62
     1
 10
-98.80466091691129
 20
104.6628330343484
 30
0.0
 11
-98.80466091691129
 21
89.66283303434841
 31
0.0
  0
LINE
  5
CC
  8
CALQUE1
  6
VOLUME
 62
     1
 10
-98.80466091691129
 20
116.6628330343481
 30
0.0
 11
-98.80466091691129
 21
107.1628330343479
 31
0.0
  0
LINE
  5
CD
  8
CALQUE1
  6
VOLUME
 62
     1
 10
-97.30466091691129
 20
112.171613487953
 30
0.0
 11
-97.30466091691129
 21
99.17161348795302
 31
0.0
  0
LINE
  5
CE
  8
CALQUE1
  6
VOLUME
 62
     1
 10
-97.30466091691129
 20
116.6628330343539
 30
0.0
 11
-97.30466091691129
 21
114.671613487953
 31
0.0
  0
LINE
  5
CF
  8
CALQUE1
  6
VOLUME
 62
     1
 10
-95.80466091691129
 20
104.662833034347
 30
0.0
 11
-95.80466091691129
 21
89.66283303434703
 31
0.0
  0
LINE
  5
D0
  8
CALQUE1
  6
VOLUME
 62
     1
 10
-94.3046609169127
 20
112.1716134879516
 30
0.0
 11
-94.3046609169127
 21
99.17161348795165
 31
0.0
  0
LINE
  5
D1
  8
CALQUE1
  6
VOLUME
 62
     1
 10
-95.80466091691129
 20
116.6628330343467
 30
0.0
 11
-95.80466091691129
 21
107.1628330343465
 31
0.0
  0
LINE
  5
D2
  8
CALQUE1
  6
VOLUME
 62
     1
 10
-94.3046609169127
 20
116.6628330343525
 30
0.0
 11
-94.3046609169127
 21
114.6716134879516
 31
0.0
  0
LINE
  5
D3
  8
CALQUE1
  6
VOLUME
 62
     1
 10
-92.80466091691127
 20
104.662833034347
 30
0.0
 11
-92.80466091691127
 21
89.66283303434703
 31
0.0
  0
LINE
  5
D4
  8
CALQUE1
  6
VOLUME
 62
     1
 10
-92.80466091691127
 20
116.6628330343467
 30
0.0
 11
-92.80466091691127
 21
107.1628330343465
 31
0.0
  0
LINE
  5
D5
  8
CALQUE1
  6
VOLUME
 62
     1
 10
-91.30466091691129
 20
112.1716134879516
 30
0.0
 11
-91.30466091691129
 21
99.17161348795165
 31
0.0
  0
LINE
  5
D6
  8
CALQUE1
  6
VOLUME
 62
     1
 10
-91.30466091691129
 20
116.6628330343525
 30
0.0
 11
-91.30466091691129
 21
114.6716134879516
 31
0.0
  0
LINE
  5
D7
  8
CALQUE1
  6
VOLUME
 62
     1
 10
-89.80466091691129
 20
104.662833034347
 30
0.0
 11
-89.80466091691129
 21
89.66283303434703
 31
0.0
  0
LINE
  5
D8
  8
CALQUE1
  6
VOLUME
 62
     1
 10
-88.3046609169127
 20
112.1716134879516
 30
0.0
 11
-88.3046609169127
 21
99.17161348795165
 31
0.0
  0
LINE
  5
D9
  8
CALQUE1
  6
VOLUME
 62
     1
 10
-89.80466091691129
 20
116.6628330343467
 30
0.0
 11
-89.80466091691129
 21
107.1628330343465
 31
0.0
  0
LINE
  5
DA
  8
CALQUE1
  6
VOLUME
 62
     1
 10
-88.3046609169127
 20
116.6628330343525
 30
0.0
 11
-88.3046609169127
 21
114.6716134879516
 31
0.0
  0
LINE
  5
DB
  8
CALQUE1
  6
VOLUME
 62
     1
 10
-86.80466091691127
 20
104.662833034347
 30
0.0
 11
-86.80466091691127
 21
89.66283303434703
 31
0.0
  0
LINE
  5
DC
  8
CALQUE1
  6
VOLUME
 62
     1
 10
-86.80466091691127
 20
116.6628330343467
 30
0.0
 11
-86.80466091691127
 21
107.1628330343465
 31
0.0
  0
LINE
  5
DD
  8
CALQUE1
  6
VOLUME
 62
     1
 10
-85.30466091691129
 20
112.1716134879516
 30
0.0
 11
-85.30466091691129
 21
99.17161348795165
 31
0.0
  0
LINE
  5
DE
  8
CALQUE1
  6
VOLUME
 62
     1
 10
-85.30466091691129
 20
116.6628330343525
 30
0.0
 11
-85.30466091691129
 21
114.6716134879516
 31
0.0
  0
LINE
  5
DF
  8
CALQUE1
  6
VOLUME
 62
     1
 10
-83.80466091691129
 20
104.662833034347
 30
0.0
 11
-83.80466091691129
 21
89.66283303434703
 31
0.0
  0
LINE
  5
E0
  8
CALQUE1
  6
VOLUME
 62
     1
 10
-82.3046609169127
 20
112.1716134879516
 30
0.0
 11
-82.3046609169127
 21
99.17161348795165
 31
0.0
  0
LINE
  5
E1
  8
CALQUE1
  6
VOLUME
 62
     1
 10
-83.80466091691129
 20
116.6628330343467
 30
0.0
 11
-83.80466091691129
 21
107.1628330343465
 31
0.0
  0
LINE
  5
E2
  8
CALQUE1
  6
VOLUME
 62
     1
 10
-82.3046609169127
 20
116.6628330343525
 30
0.0
 11
-82.3046609169127
 21
114.6716134879516
 31
0.0
  0
LINE
  5
E3
  8
CALQUE1
  6
VOLUME
 62
     1
 10
-80.80466091691127
 20
104.662833034347
 30
0.0
 11
-80.80466091691127
 21
89.66283303434703
 31
0.0
  0
LINE
  5
E4
  8
CALQUE1
  6
VOLUME
 62
     1
 10
-80.80466091691127
 20
116.6628330343467
 30
0.0
 11
-80.80466091691127
 21
107.1628330343465
 31
0.0
  0
LINE
  5
E5
  8
CALQUE1
  6
VOLUME
 62
     1
 10
-79.30466091691127
 20
112.1716134879516
 30
0.0
 11
-79.30466091691127
 21
99.17161348795165
 31
0.0
  0
LINE
  5
E6
  8
CALQUE1
  6
VOLUME
 62
     1
 10
-79.30466091691127
 20
116.6628330343525
 30
0.0
 11
-79.30466091691127
 21
114.6716134879516
 31
0.0
  0
LINE
  5
E7
  8
CALQUE1
  6
VOLUME
 62
     1
 10
-77.80466091691129
 20
104.662833034347
 30
0.0
 11
-77.80466091691129
 21
89.66283303434703
 31
0.0
  0
LINE
  5
E8
  8
CALQUE1
  6
VOLUME
 62
     1
 10
-76.3046609169127
 20
112.1716134879516
 30
0.0
 11
-76.3046609169127
 21
99.17161348795165
 31
0.0
  0
LINE
  5
E9
  8
CALQUE1
  6
VOLUME
 62
     1
 10
-77.80466091691129
 20
116.6628330343467
 30
0.0
 11
-77.80466091691129
 21
107.1628330343465
 31
0.0
  0
LINE
  5
EA
  8
CALQUE1
  6
VOLUME
 62
     1
 10
-76.3046609169127
 20
116.6628330343525
 30
0.0
 11
-76.3046609169127
 21
114.6716134879516
 31
0.0
  0
LINE
  5
EB
  8
CALQUE1
  6
VOLUME
 62
     1
 10
-74.80466091691127
 20
104.662833034347
 30
0.0
 11
-74.80466091691127
 21
89.66283303434703
 31
0.0
  0
LINE
  5
EC
  8
CALQUE1
  6
VOLUME
 62
     1
 10
-74.80466091691127
 20
116.6628330343467
 30
0.0
 11
-74.80466091691127
 21
107.1628330343465
 31
0.0
  0
LINE
  5
ED
  8
CALQUE1
  6
VOLUME
 62
     1
 10
-73.30466091691127
 20
112.1716134879516
 30
0.0
 11
-73.30466091691127
 21
99.17161348795165
 31
0.0
  0
LINE
  5
EE
  8
CALQUE1
  6
VOLUME
 62
     1
 10
-73.30466091691127
 20
116.6628330343525
 30
0.0
 11
-73.30466091691127
 21
114.6716134879516
 31
0.0
  0
LINE
  5
EF
  8
CALQUE1
  6
VOLUME
 62
     1
 10
126.5953390830906
 20
96.66283303434695
 30
0.0
 11
126.5953390830906
 21
83.66283303434695
 31
0.0
  0
LINE
  5
F0
  8
CALQUE1
  6
VOLUME
 62
     1
 10
125.0953390830906
 20
87.15405258074333
 30
0.0
 11
125.0953390830906
 21
72.15405258074333
 31
0.0
  0
LINE
  5
F1
  8
CALQUE1
  6
VOLUME
 62
     1
 10
125.0953390830906
 20
66.66283303434649
 30
0.0
 11
125.0953390830906
 21
70.1540525807414
 31
0.0
  0
LINE
  5
F2
  8
CALQUE1
  6
VOLUME
 62
     1
 10
126.5953390830906
 20
81.66283303434794
 30
0.0
 11
126.5953390830906
 21
66.66283303434795
 31
0.0
  0
LINE
  5
F3
  8
CALQUE1
  6
VOLUME
 62
     1
 10
129.5953390830906
 20
96.66283303434695
 30
0.0
 11
129.5953390830906
 21
83.66283303434695
 31
0.0
  0
LINE
  5
F4
  8
CALQUE1
  6
VOLUME
 62
     1
 10
128.0953390830906
 20
87.15405258074333
 30
0.0
 11
128.0953390830906
 21
72.15405258074333
 31
0.0
  0
LINE
  5
F5
  8
CALQUE1
  6
VOLUME
 62
     1
 10
128.0953390830906
 20
66.66283303434649
 30
0.0
 11
128.0953390830906
 21
70.1540525807414
 31
0.0
  0
LINE
  5
F6
  8
CALQUE1
  6
VOLUME
 62
     1
 10
129.5953390830906
 20
81.66283303434794
 30
0.0
 11
129.5953390830906
 21
66.66283303434795
 31
0.0
  0
LINE
  5
F7
  8
CALQUE1
  6
VOLUME
 62
     1
 10
132.5953390830906
 20
96.66283303434695
 30
0.0
 11
132.5953390830906
 21
83.66283303434695
 31
0.0
  0
LINE
  5
F8
  8
CALQUE1
  6
VOLUME
 62
     1
 10
131.0953390830906
 20
87.15405258074333
 30
0.0
 11
131.0953390830906
 21
72.15405258074333
 31
0.0
  0
LINE
  5
F9
  8
CALQUE1
  6
VOLUME
 62
     1
 10
131.0953390830906
 20
66.66283303434649
 30
0.0
 11
131.0953390830906
 21
70.1540525807414
 31
0.0
  0
LINE
  5
FA
  8
CALQUE1
  6
VOLUME
 62
     1
 10
132.5953390830906
 20
81.66283303434794
 30
0.0
 11
132.5953390830906
 21
66.66283303434795
 31
0.0
  0
LINE
  5
FB
  8
CALQUE1
  6
VOLUME
 62
     1
 10
135.5953390830906
 20
96.66283303434695
 30
0.0
 11
135.5953390830906
 21
83.66283303434695
 31
0.0
  0
LINE
  5
FC
  8
CALQUE1
  6
VOLUME
 62
     1
 10
134.0953390830906
 20
87.15405258074333
 30
0.0
 11
134.0953390830906
 21
72.15405258074333
 31
0.0
  0
LINE
  5
FD
  8
CALQUE1
  6
VOLUME
 62
     1
 10
134.0953390830906
 20
66.66283303434649
 30
0.0
 11
134.0953390830906
 21
70.1540525807414
 31
0.0
  0
LINE
  5
FE
  8
CALQUE1
  6
VOLUME
 62
     1
 10
135.5953390830906
 20
81.66283303434794
 30
0.0
 11
135.5953390830906
 21
66.66283303434795
 31
0.0
  0
LINE
  5
FF
  8
CALQUE1
  6
VOLUME
 62
     1
 10
138.5953390830906
 20
96.66283303434695
 30
0.0
 11
138.5953390830906
 21
83.66283303434695
 31
0.0
  0
LINE
  5
100
  8
CALQUE1
  6
VOLUME
 62
     1
 10
137.0953390830906
 20
87.15405258074333
 30
0.0
 11
137.0953390830906
 21
72.15405258074333
 31
0.0
  0
LINE
  5
101
  8
CALQUE1
  6
VOLUME
 62
     1
 10
137.0953390830906
 20
66.66283303434649
 30
0.0
 11
137.0953390830906
 21
70.1540525807414
 31
0.0
  0
LINE
  5
102
  8
CALQUE1
  6
VOLUME
 62
     1
 10
138.5953390830906
 20
81.66283303434794
 30
0.0
 11
138.5953390830906
 21
66.66283303434795
 31
0.0
  0
LINE
  5
103
  8
CALQUE1
  6
VOLUME
 62
     1
 10
141.5953390830906
 20
96.66283303434695
 30
0.0
 11
141.5953390830906
 21
83.66283303434695
 31
0.0
  0
LINE
  5
104
  8
CALQUE1
  6
VOLUME
 62
     1
 10
140.0953390830906
 20
87.15405258074333
 30
0.0
 11
140.0953390830906
 21
72.15405258074333
 31
0.0
  0
LINE
  5
105
  8
CALQUE1
  6
VOLUME
 62
     1
 10
140.0953390830906
 20
66.66283303434649
 30
0.0
 11
140.0953390830906
 21
70.1540525807414
 31
0.0
  0
LINE
  5
106
  8
CALQUE1
  6
VOLUME
 62
     1
 10
141.5953390830906
 20
81.66283303434794
 30
0.0
 11
141.5953390830906
 21
66.66283303434795
 31
0.0
  0
LINE
  5
107
  8
CALQUE1
  6
VOLUME
 62
     1
 10
144.5953390830906
 20
96.66283303434695
 30
0.0
 11
144.5953390830906
 21
83.66283303434695
 31
0.0
  0
LINE
  5
108
  8
CALQUE1
  6
VOLUME
 62
     1
 10
143.0953390830906
 20
87.15405258074333
 30
0.0
 11
143.0953390830906
 21
72.15405258074333
 31
0.0
  0
LINE
  5
109
  8
CALQUE1
  6
VOLUME
 62
     1
 10
143.0953390830906
 20
66.66283303434649
 30
0.0
 11
143.0953390830906
 21
70.1540525807414
 31
0.0
  0
LINE
  5
10A
  8
CALQUE1
  6
VOLUME
 62
     1
 10
144.5953390830906
 20
81.66283303434794
 30
0.0
 11
144.5953390830906
 21
66.66283303434795
 31
0.0
  0
LINE
  5
10B
  8
CALQUE1
  6
VOLUME
 62
     1
 10
147.5953390830906
 20
96.66283303434695
 30
0.0
 11
147.5953390830906
 21
83.66283303434695
 31
0.0
  0
LINE
  5
10C
  8
CALQUE1
  6
VOLUME
 62
     1
 10
146.0953390830906
 20
87.15405258074333
 30
0.0
 11
146.0953390830906
 21
72.15405258074333
 31
0.0
  0
LINE
  5
10D
  8
CALQUE1
  6
VOLUME
 62
     1
 10
146.0953390830906
 20
66.66283303434649
 30
0.0
 11
146.0953390830906
 21
70.1540525807414
 31
0.0
  0
LINE
  5
10E
  8
CALQUE1
  6
VOLUME
 62
     1
 10
147.5953390830906
 20
81.66283303434794
 30
0.0
 11
147.5953390830906
 21
66.66283303434795
 31
0.0
  0
LINE
  5
10F
  8
CALQUE1
  6
VOLUME
 62
     1
 10
150.5953390830906
 20
96.66283303434695
 30
0.0
 11
150.5953390830906
 21
83.66283303434695
 31
0.0
  0
LINE
  5
110
  8
CALQUE1
  6
VOLUME
 62
     1
 10
149.0953390830906
 20
87.15405258074333
 30
0.0
 11
149.0953390830906
 21
72.15405258074333
 31
0.0
  0
LINE
  5
111
  8
CALQUE1
  6
VOLUME
 62
     1
 10
149.0953390830906
 20
66.66283303434649
 30
0.0
 11
149.0953390830906
 21
70.1540525807414
 31
0.0
  0
LINE
  5
112
  8
CALQUE1
  6
VOLUME
 62
     1
 10
150.5953390830906
 20
81.66283303434794
 30
0.0
 11
150.5953390830906
 21
66.66283303434795
 31
0.0
  0
LINE
  5
113
  8
CALQUE1
  6
VOLUME
 62
     1
 10
153.5953390830906
 20
96.66283303434695
 30
0.0
 11
153.5953390830906
 21
83.66283303434695
 31
0.0
  0
LINE
  5
114
  8
CALQUE1
  6
VOLUME
 62
     1
 10
152.0953390830906
 20
87.15405258074333
 30
0.0
 11
152.0953390830906
 21
72.15405258074333
 31
0.0
  0
LINE
  5
115
  8
CALQUE1
  6
VOLUME
 62
     1
 10
152.0953390830906
 20
66.66283303434649
 30
0.0
 11
152.0953390830906
 21
70.1540525807414
 31
0.0
  0
LINE
  5
116
  8
CALQUE1
  6
VOLUME
 62
     1
 10
153.5953390830906
 20
81.66283303434794
 30
0.0
 11
153.5953390830906
 21
66.66283303434795
 31
0.0
  0
LINE
  5
117
  8
CALQUE1
  6
VOLUME
 62
     1
 10
125.0953390830906
 20
104.6628330343484
 30
0.0
 11
125.0953390830906
 21
89.66283303434841
 31
0.0
  0
LINE
  5
118
  8
CALQUE1
  6
VOLUME
 62
     1
 10
126.5953390830892
 20
112.171613487953
 30
0.0
 11
126.5953390830892
 21
99.17161348795302
 31
0.0
  0
LINE
  5
119
  8
CALQUE1
  6
VOLUME
 62
     1
 10
125.0953390830906
 20
116.6628330343481
 30
0.0
 11
125.0953390830906
 21
107.1628330343479
 31
0.0
  0
LINE
  5
11A
  8
CALQUE1
  6
VOLUME
 62
     1
 10
126.5953390830892
 20
116.6628330343539
 30
0.0
 11
126.5953390830892
 21
114.671613487953
 31
0.0
  0
LINE
  5
11B
  8
CALQUE1
  6
VOLUME
 62
     1
 10
128.0953390830906
 20
104.6628330343484
 30
0.0
 11
128.0953390830906
 21
89.66283303434841
 31
0.0
  0
LINE
  5
11C
  8
CALQUE1
  6
VOLUME
 62
     1
 10
128.0953390830906
 20
116.6628330343481
 30
0.0
 11
128.0953390830906
 21
107.1628330343479
 31
0.0
  0
LINE
  5
11D
  8
CALQUE1
  6
VOLUME
 62
     1
 10
129.5953390830906
 20
112.171613487953
 30
0.0
 11
129.5953390830906
 21
99.17161348795302
 31
0.0
  0
LINE
  5
11E
  8
CALQUE1
  6
VOLUME
 62
     1
 10
129.5953390830906
 20
116.6628330343539
 30
0.0
 11
129.5953390830906
 21
114.671613487953
 31
0.0
  0
LINE
  5
11F
  8
CALQUE1
  6
VOLUME
 62
     1
 10
131.0953390830906
 20
104.662833034347
 30
0.0
 11
131.0953390830906
 21
89.66283303434703
 31
0.0
  0
LINE
  5
120
  8
CALQUE1
  6
VOLUME
 62
     1
 10
132.5953390830892
 20
112.1716134879516
 30
0.0
 11
132.5953390830892
 21
99.17161348795165
 31
0.0
  0
LINE
  5
121
  8
CALQUE1
  6
VOLUME
 62
     1
 10
131.0953390830906
 20
116.6628330343467
 30
0.0
 11
131.0953390830906
 21
107.1628330343465
 31
0.0
  0
LINE
  5
122
  8
CALQUE1
  6
VOLUME
 62
     1
 10
132.5953390830892
 20
116.6628330343525
 30
0.0
 11
132.5953390830892
 21
114.6716134879516
 31
0.0
  0
LINE
  5
123
  8
CALQUE1
  6
VOLUME
 62
     1
 10
134.0953390830906
 20
104.662833034347
 30
0.0
 11
134.0953390830906
 21
89.66283303434703
 31
0.0
  0
LINE
  5
124
  8
CALQUE1
  6
VOLUME
 62
     1
 10
134.0953390830906
 20
116.6628330343467
 30
0.0
 11
134.0953390830906
 21
107.1628330343465
 31
0.0
  0
LINE
  5
125
  8
CALQUE1
  6
VOLUME
 62
     1
 10
135.5953390830906
 20
112.1716134879516
 30
0.0
 11
135.5953390830906
 21
99.17161348795165
 31
0.0
  0
LINE
  5
126
  8
CALQUE1
  6
VOLUME
 62
     1
 10
135.5953390830906
 20
116.6628330343525
 30
0.0
 11
135.5953390830906
 21
114.6716134879516
 31
0.0
  0
LINE
  5
127
  8
CALQUE1
  6
VOLUME
 62
     1
 10
137.0953390830906
 20
104.662833034347
 30
0.0
 11
137.0953390830906
 21
89.66283303434703
 31
0.0
  0
LINE
  5
128
  8
CALQUE1
  6
VOLUME
 62
     1
 10
138.5953390830892
 20
112.1716134879516
 30
0.0
 11
138.5953390830892
 21
99.17161348795165
 31
0.0
  0
LINE
  5
129
  8
CALQUE1
  6
VOLUME
 62
     1
 10
137.0953390830906
 20
116.6628330343467
 30
0.0
 11
137.0953390830906
 21
107.1628330343465
 31
0.0
  0
LINE
  5
12A
  8
CALQUE1
  6
VOLUME
 62
     1
 10
138.5953390830892
 20
116.6628330343525
 30
0.0
 11
138.5953390830892
 21
114.6716134879516
 31
0.0
  0
LINE
  5
12B
  8
CALQUE1
  6
VOLUME
 62
     1
 10
140.0953390830906
 20
104.662833034347
 30
0.0
 11
140.0953390830906
 21
89.66283303434703
 31
0.0
  0
LINE
  5
12C
  8
CALQUE1
  6
VOLUME
 62
     1
 10
140.0953390830906
 20
116.6628330343467
 30
0.0
 11
140.0953390830906
 21
107.1628330343465
 31
0.0
  0
LINE
  5
12D
  8
CALQUE1
  6
VOLUME
 62
     1
 10
141.5953390830906
 20
112.1716134879516
 30
0.0
 11
141.5953390830906
 21
99.17161348795165
 31
0.0
  0
LINE
  5
12E
  8
CALQUE1
  6
VOLUME
 62
     1
 10
141.5953390830906
 20
116.6628330343525
 30
0.0
 11
141.5953390830906
 21
114.6716134879516
 31
0.0
  0
LINE
  5
12F
  8
CALQUE1
  6
VOLUME
 62
     1
 10
143.0953390830906
 20
104.662833034347
 30
0.0
 11
143.0953390830906
 21
89.66283303434703
 31
0.0
  0
LINE
  5
130
  8
CALQUE1
  6
VOLUME
 62
     1
 10
144.5953390830892
 20
112.1716134879516
 30
0.0
 11
144.5953390830892
 21
99.17161348795165
 31
0.0
  0
LINE
  5
131
  8
CALQUE1
  6
VOLUME
 62
     1
 10
143.0953390830906
 20
116.6628330343467
 30
0.0
 11
143.0953390830906
 21
107.1628330343465
 31
0.0
  0
LINE
  5
132
  8
CALQUE1
  6
VOLUME
 62
     1
 10
144.5953390830892
 20
116.6628330343525
 30
0.0
 11
144.5953390830892
 21
114.6716134879516
 31
0.0
  0
LINE
  5
133
  8
CALQUE1
  6
VOLUME
 62
     1
 10
146.0953390830906
 20
104.662833034347
 30
0.0
 11
146.0953390830906
 21
89.66283303434703
 31
0.0
  0
LINE
  5
134
  8
CALQUE1
  6
VOLUME
 62
     1
 10
146.0953390830906
 20
116.6628330343467
 30
0.0
 11
146.0953390830906
 21
107.1628330343465
 31
0.0
  0
LINE
  5
135
  8
CALQUE1
  6
VOLUME
 62
     1
 10
147.5953390830906
 20
112.1716134879516
 30
0.0
 11
147.5953390830906
 21
99.17161348795165
 31
0.0
  0
LINE
  5
136
  8
CALQUE1
  6
VOLUME
 62
     1
 10
147.5953390830906
 20
116.6628330343525
 30
0.0
 11
147.5953390830906
 21
114.6716134879516
 31
0.0
  0
LINE
  5
137
  8
CALQUE1
  6
VOLUME
 62
     1
 10
149.0953390830906
 20
104.662833034347
 30
0.0
 11
149.0953390830906
 21
89.66283303434703
 31
0.0
  0
LINE
  5
138
  8
CALQUE1
  6
VOLUME
 62
     1
 10
150.5953390830892
 20
112.1716134879516
 30
0.0
 11
150.5953390830892
 21
99.17161348795165
 31
0.0
  0
LINE
  5
139
  8
CALQUE1
  6
VOLUME
 62
     1
 10
149.0953390830906
 20
116.6628330343467
 30
0.0
 11
149.0953390830906
 21
107.1628330343465
 31
0.0
  0
LINE
  5
13A
  8
CALQUE1
  6
VOLUME
 62
     1
 10
150.5953390830892
 20
116.6628330343525
 30
0.0
 11
150.5953390830892
 21
114.6716134879516
 31
0.0
  0
LINE
  5
13B
  8
CALQUE1
  6
VOLUME
 62
     1
 10
152.0953390830906
 20
104.662833034347
 30
0.0
 11
152.0953390830906
 21
89.66283303434703
 31
0.0
  0
LINE
  5
13C
  8
CALQUE1
  6
VOLUME
 62
     1
 10
152.0953390830906
 20
116.6628330343467
 30
0.0
 11
152.0953390830906
 21
107.1628330343465
 31
0.0
  0
LINE
  5
13D
  8
CALQUE1
  6
VOLUME
 62
     1
 10
153.5953390830906
 20
112.1716134879516
 30
0.0
 11
153.5953390830906
 21
99.17161348795165
 31
0.0
  0
LINE
  5
13E
  8
CALQUE1
  6
VOLUME
 62
     1
 10
153.5953390830906
 20
116.6628330343525
 30
0.0
 11
153.5953390830906
 21
114.6716134879516
 31
0.0
  0
LINE
  5
13F
  8
CALQUE1
  6
VOLUME
 62
     1
 10
156.5953390830909
 20
96.66283303434695
 30
0.0
 11
156.5953390830909
 21
83.66283303434695
 31
0.0
  0
LINE
  5
140
  8
CALQUE1
  6
VOLUME
 62
     1
 10
155.095339083091
 20
87.15405258074333
 30
0.0
 11
155.095339083091
 21
72.15405258074333
 31
0.0
  0
LINE
  5
141
  8
CALQUE1
  6
VOLUME
 62
     1
 10
155.095339083091
 20
66.66283303434649
 30
0.0
 11
155.095339083091
 21
70.1540525807414
 31
0.0
  0
LINE
  5
142
  8
CALQUE1
  6
VOLUME
 62
     1
 10
156.595339083091
 20
81.66283303434794
 30
0.0
 11
156.595339083091
 21
66.66283303434795
 31
0.0
  0
LINE
  5
143
  8
CALQUE1
  6
VOLUME
 62
     1
 10
159.595339083091
 20
96.66283303434695
 30
0.0
 11
159.595339083091
 21
83.66283303434695
 31
0.0
  0
LINE
  5
144
  8
CALQUE1
  6
VOLUME
 62
     1
 10
158.095339083091
 20
87.15405258074333
 30
0.0
 11
158.095339083091
 21
72.15405258074333
 31
0.0
  0
LINE
  5
145
  8
CALQUE1
  6
VOLUME
 62
     1
 10
158.095339083091
 20
66.66283303434649
 30
0.0
 11
158.095339083091
 21
70.1540525807414
 31
0.0
  0
LINE
  5
146
  8
CALQUE1
  6
VOLUME
 62
     1
 10
159.595339083091
 20
81.66283303434794
 30
0.0
 11
159.595339083091
 21
66.66283303434795
 31
0.0
  0
LINE
  5
147
  8
CALQUE1
  6
VOLUME
 62
     1
 10
162.595339083091
 20
96.66283303434695
 30
0.0
 11
162.595339083091
 21
83.66283303434695
 31
0.0
  0
LINE
  5
148
  8
CALQUE1
  6
VOLUME
 62
     1
 10
161.095339083091
 20
87.15405258074333
 30
0.0
 11
161.095339083091
 21
72.15405258074333
 31
0.0
  0
LINE
  5
149
  8
CALQUE1
  6
VOLUME
 62
     1
 10
161.095339083091
 20
66.66283303434649
 30
0.0
 11
161.095339083091
 21
70.1540525807414
 31
0.0
  0
LINE
  5
14A
  8
CALQUE1
  6
VOLUME
 62
     1
 10
162.595339083091
 20
81.66283303434794
 30
0.0
 11
162.595339083091
 21
66.66283303434795
 31
0.0
  0
LINE
  5
14B
  8
CALQUE1
  6
VOLUME
 62
     1
 10
165.595339083091
 20
96.66283303434695
 30
0.0
 11
165.595339083091
 21
83.66283303434695
 31
0.0
  0
LINE
  5
14C
  8
CALQUE1
  6
VOLUME
 62
     1
 10
164.095339083091
 20
87.15405258074333
 30
0.0
 11
164.095339083091
 21
72.15405258074333
 31
0.0
  0
LINE
  5
14D
  8
CALQUE1
  6
VOLUME
 62
     1
 10
164.095339083091
 20
66.66283303434649
 30
0.0
 11
164.095339083091
 21
70.1540525807414
 31
0.0
  0
LINE
  5
14E
  8
CALQUE1
  6
VOLUME
 62
     1
 10
165.595339083091
 20
81.66283303434794
 30
0.0
 11
165.595339083091
 21
66.66283303434795
 31
0.0
  0
LINE
  5
14F
  8
CALQUE1
  6
VOLUME
 62
     1
 10
168.595339083091
 20
96.66283303434695
 30
0.0
 11
168.595339083091
 21
83.66283303434695
 31
0.0
  0
LINE
  5
150
  8
CALQUE1
  6
VOLUME
 62
     1
 10
167.095339083091
 20
87.15405258074333
 30
0.0
 11
167.095339083091
 21
72.15405258074333
 31
0.0
  0
LINE
  5
151
  8
CALQUE1
  6
VOLUME
 62
     1
 10
167.095339083091
 20
66.66283303434649
 30
0.0
 11
167.095339083091
 21
70.1540525807414
 31
0.0
  0
LINE
  5
152
  8
CALQUE1
  6
VOLUME
 62
     1
 10
168.595339083091
 20
81.66283303434794
 30
0.0
 11
168.595339083091
 21
66.66283303434795
 31
0.0
  0
LINE
  5
153
  8
CALQUE1
  6
VOLUME
 62
     1
 10
171.595339083091
 20
96.66283303434695
 30
0.0
 11
171.595339083091
 21
83.66283303434695
 31
0.0
  0
LINE
  5
154
  8
CALQUE1
  6
VOLUME
 62
     1
 10
170.095339083091
 20
87.15405258074333
 30
0.0
 11
170.095339083091
 21
72.15405258074333
 31
0.0
  0
LINE
  5
155
  8
CALQUE1
  6
VOLUME
 62
     1
 10
170.095339083091
 20
66.66283303434649
 30
0.0
 11
170.095339083091
 21
70.1540525807414
 31
0.0
  0
LINE
  5
156
  8
CALQUE1
  6
VOLUME
 62
     1
 10
171.595339083091
 20
81.66283303434794
 30
0.0
 11
171.595339083091
 21
66.66283303434795
 31
0.0
  0
LINE
  5
157
  8
CALQUE1
  6
VOLUME
 62
     1
 10
174.595339083091
 20
96.66283303434695
 30
0.0
 11
174.595339083091
 21
83.66283303434695
 31
0.0
  0
LINE
  5
158
  8
CALQUE1
  6
VOLUME
 62
     1
 10
173.095339083091
 20
87.15405258074333
 30
0.0
 11
173.095339083091
 21
72.15405258074333
 31
0.0
  0
LINE
  5
159
  8
CALQUE1
  6
VOLUME
 62
     1
 10
173.095339083091
 20
66.66283303434649
 30
0.0
 11
173.095339083091
 21
70.1540525807414
 31
0.0
  0
LINE
  5
15A
  8
CALQUE1
  6
VOLUME
 62
     1
 10
174.595339083091
 20
81.66283303434794
 30
0.0
 11
174.595339083091
 21
66.66283303434795
 31
0.0
  0
LINE
  5
15B
  8
CALQUE1
  6
VOLUME
 62
     1
 10
177.595339083091
 20
96.66283303434695
 30
0.0
 11
177.595339083091
 21
83.66283303434695
 31
0.0
  0
LINE
  5
15C
  8
CALQUE1
  6
VOLUME
 62
     1
 10
176.095339083091
 20
87.15405258074333
 30
0.0
 11
176.095339083091
 21
72.15405258074333
 31
0.0
  0
LINE
  5
15D
  8
CALQUE1
  6
VOLUME
 62
     1
 10
176.095339083091
 20
66.66283303434649
 30
0.0
 11
176.095339083091
 21
70.1540525807414
 31
0.0
  0
LINE
  5
15E
  8
CALQUE1
  6
VOLUME
 62
     1
 10
177.595339083091
 20
81.66283303434794
 30
0.0
 11
177.595339083091
 21
66.66283303434795
 31
0.0
  0
LINE
  5
15F
  8
CALQUE1
  6
VOLUME
 62
     1
 10
180.5953390830909
 20
96.66283303434695
 30
0.0
 11
180.5953390830909
 21
83.66283303434695
 31
0.0
  0
LINE
  5
160
  8
CALQUE1
  6
VOLUME
 62
     1
 10
179.095339083091
 20
87.15405258074333
 30
0.0
 11
179.095339083091
 21
72.15405258074333
 31
0.0
  0
LINE
  5
161
  8
CALQUE1
  6
VOLUME
 62
     1
 10
179.095339083091
 20
66.66283303434649
 30
0.0
 11
179.095339083091
 21
70.1540525807414
 31
0.0
  0
LINE
  5
162
  8
CALQUE1
  6
VOLUME
 62
     1
 10
180.595339083091
 20
81.66283303434794
 30
0.0
 11
180.595339083091
 21
66.66283303434795
 31
0.0
  0
LINE
  5
163
  8
CALQUE1
  6
VOLUME
 62
     1
 10
183.595339083091
 20
96.66283303434695
 30
0.0
 11
183.595339083091
 21
83.66283303434695
 31
0.0
  0
LINE
  5
164
  8
CALQUE1
  6
VOLUME
 62
     1
 10
182.095339083091
 20
87.15405258074333
 30
0.0
 11
182.095339083091
 21
72.15405258074333
 31
0.0
  0
LINE
  5
165
  8
CALQUE1
  6
VOLUME
 62
     1
 10
182.095339083091
 20
66.66283303434649
 30
0.0
 11
182.095339083091
 21
70.1540525807414
 31
0.0
  0
LINE
  5
166
  8
CALQUE1
  6
VOLUME
 62
     1
 10
183.595339083091
 20
81.66283303434794
 30
0.0
 11
183.595339083091
 21
66.66283303434795
 31
0.0
  0
LINE
  5
167
  8
CALQUE1
  6
VOLUME
 62
     1
 10
155.095339083091
 20
104.6628330343484
 30
0.0
 11
155.095339083091
 21
89.66283303434841
 31
0.0
  0
LINE
  5
168
  8
CALQUE1
  6
VOLUME
 62
     1
 10
156.5953390830896
 20
112.171613487953
 30
0.0
 11
156.5953390830896
 21
99.17161348795302
 31
0.0
  0
LINE
  5
169
  8
CALQUE1
  6
VOLUME
 62
     1
 10
155.095339083091
 20
116.6628330343481
 30
0.0
 11
155.095339083091
 21
107.1628330343479
 31
0.0
  0
LINE
  5
16A
  8
CALQUE1
  6
VOLUME
 62
     1
 10
156.5953390830896
 20
116.6628330343539
 30
0.0
 11
156.5953390830896
 21
114.671613487953
 31
0.0
  0
LINE
  5
16B
  8
CALQUE1
  6
VOLUME
 62
     1
 10
158.095339083091
 20
104.6628330343484
 30
0.0
 11
158.095339083091
 21
89.66283303434841
 31
0.0
  0
LINE
  5
16C
  8
CALQUE1
  6
VOLUME
 62
     1
 10
158.095339083091
 20
116.6628330343481
 30
0.0
 11
158.095339083091
 21
107.1628330343479
 31
0.0
  0
LINE
  5
16D
  8
CALQUE1
  6
VOLUME
 62
     1
 10
159.595339083091
 20
112.171613487953
 30
0.0
 11
159.595339083091
 21
99.17161348795302
 31
0.0
  0
LINE
  5
16E
  8
CALQUE1
  6
VOLUME
 62
     1
 10
159.595339083091
 20
116.6628330343539
 30
0.0
 11
159.595339083091
 21
114.671613487953
 31
0.0
  0
LINE
  5
16F
  8
CALQUE1
  6
VOLUME
 62
     1
 10
161.095339083091
 20
104.662833034347
 30
0.0
 11
161.095339083091
 21
89.66283303434703
 31
0.0
  0
LINE
  5
170
  8
CALQUE1
  6
VOLUME
 62
     1
 10
162.5953390830896
 20
112.1716134879516
 30
0.0
 11
162.5953390830896
 21
99.17161348795165
 31
0.0
  0
LINE
  5
171
  8
CALQUE1
  6
VOLUME
 62
     1
 10
161.095339083091
 20
116.6628330343467
 30
0.0
 11
161.095339083091
 21
107.1628330343465
 31
0.0
  0
LINE
  5
172
  8
CALQUE1
  6
VOLUME
 62
     1
 10
162.5953390830896
 20
116.6628330343525
 30
0.0
 11
162.5953390830896
 21
114.6716134879516
 31
0.0
  0
LINE
  5
173
  8
CALQUE1
  6
VOLUME
 62
     1
 10
164.095339083091
 20
104.662833034347
 30
0.0
 11
164.095339083091
 21
89.66283303434703
 31
0.0
  0
LINE
  5
174
  8
CALQUE1
  6
VOLUME
 62
     1
 10
164.095339083091
 20
116.6628330343467
 30
0.0
 11
164.095339083091
 21
107.1628330343465
 31
0.0
  0
LINE
  5
175
  8
CALQUE1
  6
VOLUME
 62
     1
 10
165.595339083091
 20
112.1716134879516
 30
0.0
 11
165.595339083091
 21
99.17161348795165
 31
0.0
  0
LINE
  5
176
  8
CALQUE1
  6
VOLUME
 62
     1
 10
165.595339083091
 20
116.6628330343525
 30
0.0
 11
165.595339083091
 21
114.6716134879516
 31
0.0
  0
LINE
  5
177
  8
CALQUE1
  6
VOLUME
 62
     1
 10
167.095339083091
 20
104.662833034347
 30
0.0
 11
167.095339083091
 21
89.66283303434703
 31
0.0
  0
LINE
  5
178
  8
CALQUE1
  6
VOLUME
 62
     1
 10
168.5953390830896
 20
112.1716134879516
 30
0.0
 11
168.5953390830896
 21
99.17161348795165
 31
0.0
  0
LINE
  5
179
  8
CALQUE1
  6
VOLUME
 62
     1
 10
167.095339083091
 20
116.6628330343467
 30
0.0
 11
167.095339083091
 21
107.1628330343465
 31
0.0
  0
LINE
  5
17A
  8
CALQUE1
  6
VOLUME
 62
     1
 10
168.5953390830896
 20
116.6628330343525
 30
0.0
 11
168.5953390830896
 21
114.6716134879516
 31
0.0
  0
LINE
  5
17B
  8
CALQUE1
  6
VOLUME
 62
     1
 10
170.095339083091
 20
104.662833034347
 30
0.0
 11
170.095339083091
 21
89.66283303434703
 31
0.0
  0
LINE
  5
17C
  8
CALQUE1
  6
VOLUME
 62
     1
 10
170.095339083091
 20
116.6628330343467
 30
0.0
 11
170.095339083091
 21
107.1628330343465
 31
0.0
  0
LINE
  5
17D
  8
CALQUE1
  6
VOLUME
 62
     1
 10
171.595339083091
 20
112.1716134879516
 30
0.0
 11
171.595339083091
 21
99.17161348795165
 31
0.0
  0
LINE
  5
17E
  8
CALQUE1
  6
VOLUME
 62
     1
 10
171.595339083091
 20
116.6628330343525
 30
0.0
 11
171.595339083091
 21
114.6716134879516
 31
0.0
  0
LINE
  5
17F
  8
CALQUE1
  6
VOLUME
 62
     1
 10
173.095339083091
 20
104.662833034347
 30
0.0
 11
173.095339083091
 21
89.66283303434703
 31
0.0
  0
LINE
  5
180
  8
CALQUE1
  6
VOLUME
 62
     1
 10
174.5953390830896
 20
112.1716134879516
 30
0.0
 11
174.5953390830896
 21
99.17161348795165
 31
0.0
  0
LINE
  5
181
  8
CALQUE1
  6
VOLUME
 62
     1
 10
173.095339083091
 20
116.6628330343467
 30
0.0
 11
173.095339083091
 21
107.1628330343465
 31
0.0
  0
LINE
  5
182
  8
CALQUE1
  6
VOLUME
 62
     1
 10
174.5953390830896
 20
116.6628330343525
 30
0.0
 11
174.5953390830896
 21
114.6716134879516
 31
0.0
  0
LINE
  5
183
  8
CALQUE1
  6
VOLUME
 62
     1
 10
176.095339083091
 20
104.662833034347
 30
0.0
 11
176.095339083091
 21
89.66283303434703
 31
0.0
  0
LINE
  5
184
  8
CALQUE1
  6
VOLUME
 62
     1
 10
176.095339083091
 20
116.6628330343467
 30
0.0
 11
176.095339083091
 21
107.1628330343465
 31
0.0
  0
LINE
  5
185
  8
CALQUE1
  6
VOLUME
 62
     1
 10
177.595339083091
 20
112.1716134879516
 30
0.0
 11
177.595339083091
 21
99.17161348795165
 31
0.0
  0
LINE
  5
186
  8
CALQUE1
  6
VOLUME
 62
     1
 10
177.595339083091
 20
116.6628330343525
 30
0.0
 11
177.595339083091
 21
114.6716134879516
 31
0.0
  0
LINE
  5
187
  8
CALQUE1
  6
VOLUME
 62
     1
 10
179.095339083091
 20
104.662833034347
 30
0.0
 11
179.095339083091
 21
89.66283303434703
 31
0.0
  0
LINE
  5
188
  8
CALQUE1
  6
VOLUME
 62
     1
 10
180.5953390830896
 20
112.1716134879516
 30
0.0
 11
180.5953390830896
 21
99.17161348795165
 31
0.0
  0
LINE
  5
189
  8
CALQUE1
  6
VOLUME
 62
     1
 10
179.095339083091
 20
116.6628330343467
 30
0.0
 11
179.095339083091
 21
107.1628330343465
 31
0.0
  0
LINE
  5
18A
  8
CALQUE1
  6
VOLUME
 62
     1
 10
180.5953390830896
 20
116.6628330343525
 30
0.0
 11
180.5953390830896
 21
114.6716134879516
 31
0.0
  0
LINE
  5
18B
  8
CALQUE1
  6
VOLUME
 62
     1
 10
182.095339083091
 20
104.662833034347
 30
0.0
 11
182.095339083091
 21
89.66283303434703
 31
0.0
  0
LINE
  5
18C
  8
CALQUE1
  6
VOLUME
 62
     1
 10
182.095339083091
 20
116.6628330343467
 30
0.0
 11
182.095339083091
 21
107.1628330343465
 31
0.0
  0
LINE
  5
18D
  8
CALQUE1
  6
VOLUME
 62
     1
 10
183.595339083091
 20
112.1716134879516
 30
0.0
 11
183.595339083091
 21
99.17161348795165
 31
0.0
  0
LINE
  5
18E
  8
CALQUE1
  6
VOLUME
 62
     1
 10
183.595339083091
 20
116.6628330343525
 30
0.0
 11
183.595339083091
 21
114.6716134879516
 31
0.0
  0
LINE
  5
18F
  8
CALQUE1
  6
VOLUME
 62
     1
 10
186.5953390830913
 20
96.66283303434695
 30
0.0
 11
186.5953390830913
 21
83.66283303434695
 31
0.0
  0
LINE
  5
190
  8
CALQUE1
  6
VOLUME
 62
     1
 10
185.0953390830914
 20
87.15405258074333
 30
0.0
 11
185.0953390830914
 21
72.15405258074333
 31
0.0
  0
LINE
  5
191
  8
CALQUE1
  6
VOLUME
 62
     1
 10
185.0953390830914
 20
66.66283303434649
 30
0.0
 11
185.0953390830914
 21
70.1540525807414
 31
0.0
  0
LINE
  5
192
  8
CALQUE1
  6
VOLUME
 62
     1
 10
186.5953390830914
 20
81.66283303434794
 30
0.0
 11
186.5953390830914
 21
66.66283303434795
 31
0.0
  0
LINE
  5
193
  8
CALQUE1
  6
VOLUME
 62
     1
 10
189.5953390830914
 20
96.66283303434695
 30
0.0
 11
189.5953390830914
 21
83.66283303434695
 31
0.0
  0
LINE
  5
194
  8
CALQUE1
  6
VOLUME
 62
     1
 10
188.0953390830914
 20
87.15405258074333
 30
0.0
 11
188.0953390830914
 21
72.15405258074333
 31
0.0
  0
LINE
  5
195
  8
CALQUE1
  6
VOLUME
 62
     1
 10
188.0953390830914
 20
66.66283303434649
 30
0.0
 11
188.0953390830914
 21
70.1540525807414
 31
0.0
  0
LINE
  5
196
  8
CALQUE1
  6
VOLUME
 62
     1
 10
189.5953390830914
 20
81.66283303434794
 30
0.0
 11
189.5953390830914
 21
66.66283303434795
 31
0.0
  0
LINE
  5
197
  8
CALQUE1
  6
VOLUME
 62
     1
 10
191.0953390830914
 20
87.15405258074333
 30
0.0
 11
191.0953390830914
 21
72.15405258074333
 31
0.0
  0
LINE
  5
198
  8
CALQUE1
  6
VOLUME
 62
     1
 10
191.0953390830914
 20
66.66283303434649
 30
0.0
 11
191.0953390830914
 21
70.1540525807414
 31
0.0
  0
LINE
  5
199
  8
CALQUE1
  6
VOLUME
 62
     1
 10
185.0953390830914
 20
104.6628330343484
 30
0.0
 11
185.0953390830914
 21
89.66283303434841
 31
0.0
  0
LINE
  5
19A
  8
CALQUE1
  6
VOLUME
 62
     1
 10
186.59533908309
 20
112.171613487953
 30
0.0
 11
186.59533908309
 21
99.17161348795302
 31
0.0
  0
LINE
  5
19B
  8
CALQUE1
  6
VOLUME
 62
     1
 10
185.0953390830914
 20
116.6628330343481
 30
0.0
 11
185.0953390830914
 21
107.1628330343479
 31
0.0
  0
LINE
  5
19C
  8
CALQUE1
  6
VOLUME
 62
     1
 10
186.59533908309
 20
116.6628330343539
 30
0.0
 11
186.59533908309
 21
114.671613487953
 31
0.0
  0
LINE
  5
19D
  8
CALQUE1
  6
VOLUME
 62
     1
 10
188.0953390830914
 20
104.6628330343484
 30
0.0
 11
188.0953390830914
 21
89.66283303434841
 31
0.0
  0
LINE
  5
19E
  8
CALQUE1
  6
VOLUME
 62
     1
 10
188.0953390830914
 20
116.6628330343481
 30
0.0
 11
188.0953390830914
 21
107.1628330343479
 31
0.0
  0
LINE
  5
19F
  8
CALQUE1
  6
VOLUME
 62
     1
 10
189.5953390830914
 20
112.171613487953
 30
0.0
 11
189.5953390830914
 21
99.17161348795302
 31
0.0
  0
LINE
  5
1A0
  8
CALQUE1
  6
VOLUME
 62
     1
 10
189.5953390830914
 20
116.6628330343539
 30
0.0
 11
189.5953390830914
 21
114.671613487953
 31
0.0
  0
LINE
  5
1A1
  8
CALQUE1
  6
VOLUME
 62
     1
 10
191.0953390830914
 20
104.662833034347
 30
0.0
 11
191.0953390830914
 21
89.66283303434703
 31
0.0
  0
LINE
  5
1A2
  8
CALQUE1
  6
VOLUME
 62
     1
 10
191.0953390830914
 20
116.6628330343467
 30
0.0
 11
191.0953390830914
 21
107.1628330343465
 31
0.0
  0
ENDSEC
  0
EOF
