<?xml version="1.0" standalone="no"?>
<!DOCTYPE svg PUBLIC "-//W3C//DTD SVG 1.1//EN" "http://www.w3.org/Graphics/SVG/1.1/DTD/svg11.dtd">
<svg width="90mm" height="90mm" viewBox="-45 -45 90 90" xmlns="http://www.w3.org/2000/svg" version="1.1">
<title>OpenSCAD Model</title>
<path d="
M 45,-45 L -45,-45 L -45,45 L 45,45 z
M -0.927048,-37.1468 L -2.42705,-38.2366 L -3,-40 L -2.42705,-41.7634 L -0.927048,-42.8532 L 0.927048,-42.8532
 L 2.42705,-41.7634 L 3,-40 L 2.42705,-38.2366 L 0.927048,-37.1468 z
M 39.0729,2.85316 L 37.5729,1.76335 L 37,-0 L 37.5729,-1.76335 L 39.0729,-2.85316 L 40.927,-2.85316
 L 42.427,-1.76335 L 43,-0 L 42.427,1.76335 L 40.927,2.85316 z
M -40.927,2.85316 L -42.427,1.76335 L -43,-0 L -42.427,-1.76335 L -40.927,-2.85316 L -39.0729,-2.85316
 L -37.5729,-1.76335 L -37,-0 L -37.5729,1.76335 L -39.0729,2.85316 z
M -0.927048,42.8532 L -2.42705,41.7634 L -3,40 L -2.42705,38.2366 L -0.927048,37.1468 L 0.927048,37.1468
 L 2.42705,38.2366 L 3,40 L 2.42705,41.7634 L 0.927048,42.8532 z
" stroke="red" fill="white" stroke-width="0.01"/></svg>
