<?xml version="1.0" encoding="UTF-8" standalone="no"?>
<!-- Created with Inkscape (http://www.inkscape.org/) -->

<svg
   xmlns:dc="http://purl.org/dc/elements/1.1/"
   xmlns:cc="http://creativecommons.org/ns#"
   xmlns:rdf="http://www.w3.org/1999/02/22-rdf-syntax-ns#"
   xmlns:svg="http://www.w3.org/2000/svg"
   xmlns="http://www.w3.org/2000/svg"
   xmlns:sodipodi="http://sodipodi.sourceforge.net/DTD/sodipodi-0.dtd"
   xmlns:inkscape="http://www.inkscape.org/namespaces/inkscape"
   width="2161.4172"
   height="1077.1653"
   id="svg4435"
   version="1.1"
   inkscape:version="0.48.5 r10040"
   sodipodi:docname="Nouveau document 7">
  <defs
     id="defs4437" />
  <sodipodi:namedview
     id="base"
     pagecolor="#ffffff"
     bordercolor="#666666"
     borderopacity="1.0"
     inkscape:pageopacity="0.0"
     inkscape:pageshadow="2"
     inkscape:zoom="0.35"
     inkscape:cx="1055.9223"
     inkscape:cy="236.54348"
     inkscape:document-units="mm"
     inkscape:current-layer="layer1"
     showgrid="false"
     units="mm"
     inkscape:window-width="1280"
     inkscape:window-height="962"
     inkscape:window-x="-8"
     inkscape:window-y="-8"
     inkscape:window-maximized="1" />
  <metadata
     id="metadata4440">
    <rdf:RDF>
      <cc:Work
         rdf:about="">
        <dc:format>image/svg+xml</dc:format>
        <dc:type
           rdf:resource="http://purl.org/dc/dcmitype/StillImage" />
        <dc:title></dc:title>
      </cc:Work>
    </rdf:RDF>
  </metadata>
  <g
     inkscape:label="Calque 1"
     inkscape:groupmode="layer"
     id="layer1"
     transform="translate(0,24.803143)">
    <path
       transform="matrix(0.65303448,0,0,0.72410957,2.445184,15.310024)"
       style="fill:none;stroke:#ff0000;stroke-width:0.05152744;stroke-linecap:butt;stroke-miterlimit:4;stroke-opacity:1"
       d="m 560,547.16528 c 0,79.68681 -71.63444,144.28572 -160,144.28572 -88.36556,0 -160,-64.59891 -160,-144.28572 0,-79.6868 71.63444,-144.28572 160,-144.28572 88.36556,0 160,64.59892 160,144.28572 z"
       id="path4443" />
    <path
       transform="matrix(0.60864183,0,0,0.67492407,20.202244,42.222622)"
       style="fill:none;stroke:#ff0000;stroke-width:0.05528412;stroke-linecap:butt;stroke-miterlimit:4;stroke-opacity:1"
       d="m 560,547.16528 c 0,79.68681 -71.63444,144.28572 -160,144.28572 -88.36556,0 -160,-64.59891 -160,-144.28572 0,-79.6868 71.63444,-144.28572 160,-144.28572 88.36556,0 160,64.59892 160,144.28572 z"
       id="path4443-9" />
  </g>
</svg>
