<?xml version="1.0" encoding="UTF-8" standalone="no"?>
<!-- Created with Inkscape (http://www.inkscape.org/) -->

<svg
   xmlns:dc="http://purl.org/dc/elements/1.1/"
   xmlns:cc="http://creativecommons.org/ns#"
   xmlns:rdf="http://www.w3.org/1999/02/22-rdf-syntax-ns#"
   xmlns:svg="http://www.w3.org/2000/svg"
   xmlns="http://www.w3.org/2000/svg"
   xmlns:sodipodi="http://sodipodi.sourceforge.net/DTD/sodipodi-0.dtd"
   xmlns:inkscape="http://www.inkscape.org/namespaces/inkscape"
   width="2125.9841"
   height="1062.9921"
   id="svg2"
   version="1.1"
   inkscape:version="0.48.5 r10040"
   sodipodi:docname="chaies_3d.svg">
  <defs
     id="defs4" />
  <sodipodi:namedview
     id="base"
     pagecolor="#ffffff"
     bordercolor="#666666"
     borderopacity="1.0"
     inkscape:pageopacity="0.0"
     inkscape:pageshadow="2"
     inkscape:zoom="1.4"
     inkscape:cx="-128.71701"
     inkscape:cy="291.74783"
     inkscape:document-units="mm"
     inkscape:current-layer="layer1"
     showgrid="false"
     units="mm"
     inkscape:window-width="1680"
     inkscape:window-height="988"
     inkscape:window-x="-8"
     inkscape:window-y="-8"
     inkscape:window-maximized="1" />
  <metadata
     id="metadata7">
    <rdf:RDF>
      <cc:Work
         rdf:about="">
        <dc:format>image/svg+xml</dc:format>
        <dc:type
           rdf:resource="http://purl.org/dc/dcmitype/StillImage" />
        <dc:title />
      </cc:Work>
    </rdf:RDF>
  </metadata>
  <g
     inkscape:label="Layer 1"
     inkscape:groupmode="layer"
     id="layer1"
     transform="translate(0,10.629915)">
    <path
       style="fill:none;stroke:#0000ff;stroke-width:0.03543307;stroke-linejoin:bevel;stroke-miterlimit:4;stroke-opacity:1;stroke-dasharray:none"
       d="m 35.5,673.15625 0,354.34375 53.15625,0 0,-141.59375 141.65625,0 0,141.59375 53.1875,0 0,-194.875 -33.69685,0 0,10.625 -161.1469,0 c 0,-55.76978 0,-112.396 0,-170.09375 z"
       transform="translate(0,-10.629915)"
       id="rect2985"
       inkscape:connector-curvature="0"
       sodipodi:nodetypes="ccccccccccccc" />
    <rect
       style="fill:none;stroke:#ff0000;stroke-width:0.03543307;stroke-linejoin:bevel;stroke-miterlimit:4;stroke-opacity:1;stroke-dasharray:none"
       id="rect2997"
       width="14.049708"
       height="38.87431"
       x="54.983021"
       y="694.52771" />
    <rect
       style="fill:none;stroke:#ff0000;stroke-width:0.03543307;stroke-linejoin:bevel;stroke-miterlimit:4;stroke-opacity:1;stroke-dasharray:none"
       id="rect2997-1"
       width="14.049708"
       height="38.87431"
       x="54.983761"
       y="960.27576" />
    <rect
       style="fill:none;stroke:#ff0000;stroke-width:0.03543307;stroke-linejoin:bevel;stroke-miterlimit:4;stroke-opacity:1;stroke-dasharray:none"
       id="rect2997-1-7"
       width="14.049708"
       height="38.87431"
       x="53.212105"
       y="853.9765" />
    <rect
       style="fill:none;stroke:#ff0000;stroke-width:0.03543307;stroke-linejoin:bevel;stroke-miterlimit:4;stroke-opacity:1;stroke-dasharray:none"
       id="rect2997-1-4"
       width="14.037086"
       height="38.87431"
       x="249.87123"
       y="960.27576" />
    <rect
       style="fill:none;stroke:#ff0000;stroke-width:0.03543307;stroke-linejoin:bevel;stroke-miterlimit:4;stroke-opacity:1;stroke-dasharray:none"
       id="rect2997-1-7-0"
       width="14.037086"
       height="38.87431"
       x="249.87123"
       y="853.9765" />
    <path
       style="fill:none;stroke:#0000ff;stroke-width:0.03543307;stroke-linejoin:bevel;stroke-miterlimit:4;stroke-opacity:1;stroke-dasharray:none"
       d="m 554,662.52279 0,354.34381 -53.15625,0 0,-141.59381 -141.65625,0 0,141.59381 -53.1875,0 0,-194.87506 33.69685,0 0,10.625 161.1469,0 c 0,-55.76978 0,-112.396 0,-170.09375 z"
       id="rect2985-9"
       inkscape:connector-curvature="0"
       sodipodi:nodetypes="ccccccccccccc" />
    <rect
       style="fill:none;stroke:#ff0000;stroke-width:0.03543307;stroke-linejoin:bevel;stroke-miterlimit:4;stroke-opacity:1;stroke-dasharray:none"
       id="rect2997-4"
       width="14.049708"
       height="38.87431"
       x="-534.51697"
       y="694.52417"
       transform="scale(-1,1)" />
    <rect
       style="fill:none;stroke:#ff0000;stroke-width:0.03543307;stroke-linejoin:bevel;stroke-miterlimit:4;stroke-opacity:1;stroke-dasharray:none"
       id="rect2997-1-8"
       width="14.049708"
       height="38.87431"
       x="-534.51624"
       y="960.27228"
       transform="scale(-1,1)" />
    <path
       transform="scale(-1,1)"
       style="fill:none;stroke:#ff0000;stroke-width:0.03543307;stroke-linejoin:bevel;stroke-miterlimit:4;stroke-opacity:1;stroke-dasharray:none"
       d="m -536.2879,853.97296 14.04971,0 0,38.87431 -14.04971,0 z"
       id="rect2997-1-7-8" />
    <rect
       style="fill:none;stroke:#ff0000;stroke-width:0.03543307;stroke-linejoin:bevel;stroke-miterlimit:4;stroke-opacity:1;stroke-dasharray:none"
       id="rect2997-1-4-2"
       width="14.037086"
       height="38.87431"
       x="-339.62878"
       y="960.27228"
       transform="scale(-1,1)" />
    <rect
       style="fill:none;stroke:#ff0000;stroke-width:0.03543307;stroke-linejoin:bevel;stroke-miterlimit:4;stroke-opacity:1;stroke-dasharray:none"
       id="rect2997-1-7-0-4"
       width="14.037086"
       height="38.87431"
       x="-339.62878"
       y="853.97296"
       transform="scale(-1,1)" />
    <path
       style="fill:none;stroke:#0000ff;stroke-width:0.03543307;stroke-linejoin:bevel;stroke-miterlimit:4;stroke-opacity:1;stroke-dasharray:none"
       d="M 602.4375 831.78125 L 602.4375 885.875 L 581.09375 885.875 L 581.09375 921.21875 L 589.96875 921.21875 L 589.96875 903.46875 L 602.375 903.53125 C 602.4178 934.21939 602.4335 965.17341 602.4375 994.40625 L 581.09375 994.40625 L 581.09375 1027.5 L 589.96875 1027.5 L 589.96875 1009.8438 L 602.375 1009.8438 L 602.375 1027.5 C 672.14717 1027.421 746.00173 1027.5515 814.96875 1027.5625 L 814.96875 1009.8438 L 827.375 1009.8438 L 827.375 1027.5625 C 830.23805 1027.5623 833.37777 1027.5632 836.21875 1027.5625 L 836.21875 994.40625 L 814.90625 994.40625 C 814.82225 963.87659 814.97965 932.87438 814.96875 903.53125 L 827.375 903.53125 L 827.375 921.25 L 836.21875 921.25 L 836.21875 885.8125 L 814.90625 885.8125 L 814.90625 831.78125 L 775.96875 831.78125 L 775.96875 842.1875 L 637.78125 842.1875 L 637.78125 831.78125 L 602.4375 831.78125 z "
       transform="translate(0,-10.629915)"
       id="rect3100" />
    <path
       style="fill:none;stroke:#0000ff;stroke-width:0.03543307;stroke-linejoin:bevel;stroke-miterlimit:4;stroke-opacity:1;stroke-dasharray:none"
       d="m 603.06697,614.38813 0,43.46281 -21.34375,0 0,35.34375 8.875,0 0,-17.75 12.40625,0.0625 c 0.0428,30.68814 0.0585,61.64215 0.0625,90.87499 l -21.34375,0.002 0,33.09215 8.875,0 0,-17.6562 12.40625,0 0,17.6562 c 69.77217,-0.079 143.62673,0.051 212.59375,0.062 l 0,-17.7187 12.40625,0 0,17.7187 c 2.86305,-2e-4 6.00277,7e-4 8.84375,0 l 0,-33.15465 -21.3125,0 c -0.084,-30.52966 0.0734,-61.53343 0.0625,-90.87656 l 12.40625,0 0,17.71875 8.84375,0 0,-35.4375 -21.3125,0 0,-43.40024 z"
       id="rect3100-5"
       inkscape:connector-curvature="0"
       sodipodi:nodetypes="ccccccccccccccccccccccccccccc" />
    <path
       style="fill:none;stroke:#0000ff;stroke-width:0.03543307;stroke-linejoin:bevel;stroke-miterlimit:4;stroke-opacity:1;stroke-dasharray:none"
       d="m 117.15625,545.45491 0,53.15625 -17.718746,0 0,212.59008 248.031246,0 0,-212.62133 -17.71769,0 -10e-4,-53.125 z"
       id="rect3178"
       inkscape:connector-curvature="0"
       sodipodi:nodetypes="ccccccccc" />
    <path
       style="fill:none;stroke:#ff0000;stroke-width:0.03543307;stroke-linejoin:bevel;stroke-miterlimit:4;stroke-opacity:1;stroke-dasharray:none"
       d="m 104.03571,745.21069 0,35.43618 13.125,0 0,-21.84375 35.42854,-3.1e-4 0,-13.59212 c -16.24236,-0.90438 -32.64487,0.23371 -48.55354,0 z"
       id="rect3192"
       inkscape:connector-curvature="0"
       sodipodi:nodetypes="ccccccc" />
    <path
       style="fill:none;stroke:#ff0000;stroke-width:0.03543307;stroke-linejoin:bevel;stroke-miterlimit:4;stroke-opacity:1;stroke-dasharray:none"
       d="m 294.32154,745.21069 0,12.87368 35.43307,0 -1.5e-4,22.5625 12.40625,0 0,-35.43618 c -10.98386,-0.62052 -48.50183,-0.2876 -47.83917,0 z"
       id="rect3192-5"
       inkscape:connector-curvature="0"
       sodipodi:nodetypes="ccccccc" />
    <path
       style="fill:none;stroke:#0000ff;stroke-width:0.03543307;stroke-linejoin:bevel;stroke-miterlimit:4;stroke-opacity:1;stroke-dasharray:none"
       d="m 409.43235,550.58275 -35.40625,0.0169 0.004,8.9375 17.12372,-0.008 0.006,12.25033 -17.12372,0.008 0.10104,211.71838 17.12372,-0.008 0.006,12.31251 -17.12373,0.006 0.005,9.90801 35.40624,-0.0169 z"
       id="rect3224"
       inkscape:connector-curvature="0"
       sodipodi:nodetypes="ccccccccccccc" />
  </g>
</svg>
