<?xml version="1.0" encoding="UTF-8" standalone="no"?>
<!-- Created with Inkscape (http://www.inkscape.org/) -->

<svg
   xmlns:dc="http://purl.org/dc/elements/1.1/"
   xmlns:cc="http://creativecommons.org/ns#"
   xmlns:rdf="http://www.w3.org/1999/02/22-rdf-syntax-ns#"
   xmlns:svg="http://www.w3.org/2000/svg"
   xmlns="http://www.w3.org/2000/svg"
   xmlns:sodipodi="http://sodipodi.sourceforge.net/DTD/sodipodi-0.dtd"
   xmlns:inkscape="http://www.inkscape.org/namespaces/inkscape"
   id="svg5144"
   version="1.1"
   inkscape:version="0.91 r13725"
   xml:space="preserve"
   width="500mm"
   height="250mm"
   viewBox="0 0 1771.6535 885.82681"
   sodipodi:docname="Decoupe JONCTIONS.svg"><metadata
     id="metadata5150"><rdf:RDF><cc:Work
         rdf:about=""><dc:format>image/svg+xml</dc:format><dc:type
           rdf:resource="http://purl.org/dc/dcmitype/StillImage" /><dc:title></dc:title></cc:Work></rdf:RDF></metadata><defs
     id="defs5148"><clipPath
       clipPathUnits="userSpaceOnUse"
       id="clipPath5202"><path
         d="m 0,850.394 1700.788,0 L 1700.788,0 0,0 0,850.394 Z"
         id="path5204"
         inkscape:connector-curvature="0" /></clipPath></defs><sodipodi:namedview
     pagecolor="#ffffff"
     bordercolor="#666666"
     borderopacity="1"
     objecttolerance="10"
     gridtolerance="10"
     guidetolerance="10"
     inkscape:pageopacity="0"
     inkscape:pageshadow="2"
     inkscape:window-width="1280"
     inkscape:window-height="962"
     id="namedview5146"
     showgrid="false"
     inkscape:zoom="0.38570311"
     inkscape:cx="566.12939"
     inkscape:cy="463.33917"
     inkscape:window-x="-8"
     inkscape:window-y="-8"
     inkscape:window-maximized="1"
     inkscape:current-layer="g5152"
     inkscape:document-units="mm"
     units="mm" /><g
     id="g5152"
     inkscape:groupmode="layer"
     inkscape:label="Decoupe JONCTIONS"
     transform="matrix(1.25,0,0,-1.25,0,885.82671)"
     style="display:inline"><g
       id="g5154"
       transform="translate(781.23547,523.86196)"
       style="stroke:#000000;stroke-width:0.28346457;stroke-miterlimit:4;stroke-dasharray:none;stroke-opacity:1"><path
         d="M 0,0 73.711,0"
         style="fill:none;stroke:#000000;stroke-width:0.28346457;stroke-linecap:butt;stroke-linejoin:miter;stroke-miterlimit:4;stroke-dasharray:none;stroke-opacity:1"
         id="path5156"
         inkscape:connector-curvature="0" /></g><g
       id="g5158"
       transform="translate(903.40827,235.68856)"
       style="stroke:#000000;stroke-width:0.28346457;stroke-miterlimit:4;stroke-dasharray:none;stroke-opacity:1"><path
         d="M 0,0 0,-73.711"
         style="fill:none;stroke:#000000;stroke-width:0.28346457;stroke-linecap:butt;stroke-linejoin:miter;stroke-miterlimit:4;stroke-dasharray:none;stroke-opacity:1"
         id="path5160"
         inkscape:connector-curvature="0" /></g><g
       id="g5162"
       transform="translate(790.01477,149.56556)"
       style="stroke:#000000;stroke-width:0.28346457;stroke-miterlimit:4;stroke-dasharray:none;stroke-opacity:1"><path
         d="M 0,0 0,-73.711"
         style="fill:none;stroke:#000000;stroke-width:0.28346457;stroke-linecap:butt;stroke-linejoin:miter;stroke-miterlimit:4;stroke-dasharray:none;stroke-opacity:1"
         id="path5164"
         inkscape:connector-curvature="0" /></g><g
       id="g5166"
       transform="translate(887.23157,586.22516)"
       style="stroke:#000000;stroke-width:0.28346457;stroke-miterlimit:4;stroke-dasharray:none;stroke-opacity:1"><path
         d="M 0,0 0,73.711"
         style="fill:none;stroke:#000000;stroke-width:0.28346457;stroke-linecap:butt;stroke-linejoin:miter;stroke-miterlimit:4;stroke-dasharray:none;stroke-opacity:1"
         id="path5168"
         inkscape:connector-curvature="0" /></g><g
       id="g5170"
       transform="translate(965.76667,267.97376)"
       style="stroke:#000000;stroke-width:0.28346457;stroke-miterlimit:4;stroke-dasharray:none;stroke-opacity:1"><path
         d="M 0,0 73.711,0"
         style="fill:none;stroke:#000000;stroke-width:0.28346457;stroke-linecap:butt;stroke-linejoin:miter;stroke-miterlimit:4;stroke-dasharray:none;stroke-opacity:1"
         id="path5172"
         inkscape:connector-curvature="0" /></g><g
       id="g5174"
       transform="translate(313.47177,147.86536)"
       style="stroke:#000000;stroke-width:0.28346457;stroke-miterlimit:4;stroke-dasharray:none;stroke-opacity:1"><path
         d="M 0,0 73.711,0"
         style="fill:none;stroke:#000000;stroke-width:0.28346457;stroke-linecap:butt;stroke-linejoin:miter;stroke-miterlimit:4;stroke-dasharray:none;stroke-opacity:1"
         id="path5176"
         inkscape:connector-curvature="0" /></g><g
       id="g5178"
       transform="translate(424.31157,141.26866)"
       style="stroke:#000000;stroke-width:0.28346457;stroke-miterlimit:4;stroke-dasharray:none;stroke-opacity:1"><path
         d="M 0,0 49.316,-54.775"
         style="fill:none;stroke:#000000;stroke-width:0.28346457;stroke-linecap:butt;stroke-linejoin:miter;stroke-miterlimit:4;stroke-dasharray:none;stroke-opacity:1"
         id="path5180"
         inkscape:connector-curvature="0" /></g><g
       id="g5182"
       transform="translate(316.40147,531.09626)"
       style="stroke:#000000;stroke-width:0.28346457;stroke-miterlimit:4;stroke-dasharray:none;stroke-opacity:1"><path
         d="M 0,0 49.324,-54.776"
         style="fill:none;stroke:#000000;stroke-width:0.28346457;stroke-linecap:butt;stroke-linejoin:miter;stroke-miterlimit:4;stroke-dasharray:none;stroke-opacity:1"
         id="path5184"
         inkscape:connector-curvature="0" /></g><g
       id="g5186"
       transform="translate(212.37407,297.45516)"
       style="stroke:#000000;stroke-width:0.28346457;stroke-miterlimit:4;stroke-dasharray:none;stroke-opacity:1"><path
         d="M 0,0 73.715,0.001"
         style="fill:none;stroke:#000000;stroke-width:0.28346457;stroke-linecap:butt;stroke-linejoin:miter;stroke-miterlimit:4;stroke-dasharray:none;stroke-opacity:1"
         id="path5188"
         inkscape:connector-curvature="0" /></g><g
       id="g5190"
       transform="translate(313.46687,345.21596)"
       style="stroke:#000000;stroke-width:0.28346457;stroke-miterlimit:4;stroke-dasharray:none;stroke-opacity:1"><path
         d="M 0,0 73.711,0"
         style="fill:none;stroke:#000000;stroke-width:0.28346457;stroke-linecap:butt;stroke-linejoin:miter;stroke-miterlimit:4;stroke-dasharray:none;stroke-opacity:1"
         id="path5192"
         inkscape:connector-curvature="0" /></g><g
       id="g5194"
       transform="translate(557.19057,610.98496)"
       style="stroke:#000000;stroke-width:0.28346457;stroke-miterlimit:4;stroke-dasharray:none;stroke-opacity:1"><path
         d="M 0,0 -73.711,0"
         style="fill:none;stroke:#000000;stroke-width:0.28346457;stroke-linecap:butt;stroke-linejoin:miter;stroke-miterlimit:4;stroke-dasharray:none;stroke-opacity:1"
         id="path5196"
         inkscape:connector-curvature="0" /></g><g
       id="g5206"
       transform="translate(307.80767,6.1319696)"
       style="stroke:#0000ff;stroke-width:0.02834646;stroke-miterlimit:4;stroke-dasharray:none;stroke-opacity:1"><path
         d="m 0,0 5.664,0 73.711,0 5.664,0 84.58,76.146 -4.747,5.268 101.231,91.147 1.399,6.91 -41.798,46.429 -7.039,-0.682 -101.213,-91.135 -4.737,5.263 -4.102,-3.692 c 0,0 -5.791,-5.216 -11.933,-10.748 -6.143,-5.531 -11.641,-1.66 -11.641,4.59 0.001,6.25 0,12.237 0,12.237 l -7.081,-0.001 0,136.045 -4.23,5.69 -62.355,0 -4.291,-5.69 0,-136.045 L 0,141.733 0,0 Z"
         style="fill:none;stroke:#0000ff;stroke-width:0.02834646;stroke-linecap:butt;stroke-linejoin:miter;stroke-miterlimit:4;stroke-dasharray:none;stroke-opacity:1"
         id="path5208"
         inkscape:connector-curvature="0" /></g><path
       d="m 336.15397,69.91117 28.346,0 0,-42.520001 -28.346,0 0,42.520001 z"
       style="fill:none;stroke:#ff0000;stroke-width:0.02834646;stroke-linecap:butt;stroke-linejoin:miter;stroke-miterlimit:4;stroke-dasharray:none;stroke-opacity:1"
       id="path5210"
       inkscape:connector-curvature="0" /><g
       id="g5212"
       transform="translate(664.60267,398.89166)"
       style="stroke:#0000ff;stroke-width:0.02834646;stroke-miterlimit:4;stroke-dasharray:none;stroke-opacity:1"><path
         d="m 0,0 -5.664,0 -73.711,0 -5.664,0 -84.58,-76.147 4.747,-5.268 -101.231,-91.146 -1.399,-6.91 41.798,-46.43 7.039,0.682 101.213,91.135 4.737,-5.262 4.102,3.692 c 0,0 5.791,5.215 11.933,10.747 6.143,5.532 11.641,1.66 11.641,-4.59 -0.001,-6.25 0,-12.237 0,-12.237 l 7.081,0.001 0,-136.044 4.23,-5.69 62.355,0 4.291,5.689 0,136.045 L 0,-141.734 0,0 Z"
         style="fill:none;stroke:#0000ff;stroke-width:0.02834646;stroke-linecap:butt;stroke-linejoin:miter;stroke-miterlimit:4;stroke-dasharray:none;stroke-opacity:1"
         id="path5214"
         inkscape:connector-curvature="0" /></g><g
       id="g5216"
       transform="translate(697.84187,630.28036)"
       style="stroke:#0000ff;stroke-width:0.02834646;stroke-miterlimit:4;stroke-dasharray:none;stroke-opacity:1"><path
         d="m 0,0 3.789,-4.209 49.318,-54.782 3.789,-4.21 -10e-4,-113.807 -7.091,0.003 -0.008,-136.218 -4.199,-5.663 -62.474,-10e-4 -4.201,5.688 0.012,136.198 -7.081,-0.001 0,5.518 c 0,0 10e-4,7.794 0.002,16.06 0.002,8.266 -6.554,9.762 -11.2,5.581 -4.644,-4.183 -9.093,-8.188 -9.093,-8.188 l -4.738,5.263 -101.108,-91.024 -7.058,-0.663 -41.72,46.342 1.356,6.995 101.108,91.025 -4.738,5.262 L 0,0 Z"
         style="fill:none;stroke:#0000ff;stroke-width:0.02834646;stroke-linecap:butt;stroke-linejoin:miter;stroke-miterlimit:4;stroke-dasharray:none;stroke-opacity:1"
         id="path5218"
         inkscape:connector-curvature="0" /></g><path
       d="m 636.25597,335.11216 -28.346,0 0,42.519 28.346,0 0,-42.519 z"
       style="fill:none;stroke:#ff0000;stroke-width:0.02834646;stroke-linecap:butt;stroke-linejoin:miter;stroke-miterlimit:4;stroke-dasharray:none;stroke-opacity:1"
       id="path5220"
       inkscape:connector-curvature="0" /><g
       id="g5222"
       transform="translate(658.93857,257.15736)"
       style="stroke:#000000;stroke-width:0.28346457;stroke-miterlimit:4;stroke-dasharray:none;stroke-opacity:1"><path
         d="M 0,0 -73.711,0"
         style="fill:none;stroke:#000000;stroke-width:0.28346457;stroke-linecap:butt;stroke-linejoin:miter;stroke-miterlimit:4;stroke-dasharray:none;stroke-opacity:1"
         id="path5224"
         inkscape:connector-curvature="0" /></g><g
       id="g5226"
       transform="translate(548.09877,263.75496)"
       style="stroke:#000000;stroke-width:0.28346457;stroke-miterlimit:4;stroke-dasharray:none;stroke-opacity:1"><path
         d="M 0,0 -49.316,54.775"
         style="fill:none;stroke:#000000;stroke-width:0.28346457;stroke-linecap:butt;stroke-linejoin:miter;stroke-miterlimit:4;stroke-dasharray:none;stroke-opacity:1"
         id="path5228"
         inkscape:connector-curvature="0" /></g><path
       d="m 981.36198,213.00516 42.52002,0 0,-28.346 -42.52002,0 0,28.346 z"
       style="fill:none;stroke:#ff0000;stroke-width:0.02834646;stroke-linecap:butt;stroke-linejoin:miter;stroke-miterlimit:4;stroke-dasharray:none;stroke-opacity:1"
       id="path5230"
       inkscape:connector-curvature="0" /><g
       id="g5232"
       transform="translate(494.71297,91.37807)"
       style="stroke:#0000ff;stroke-width:0.02834646;stroke-miterlimit:4;stroke-dasharray:none;stroke-opacity:1"><path
         d="m 0,0 0,-62.249 5.767,-5.725 107.612,0 0,-5.669 28.34,0 0,5.669 0,15.596 47.894,0 2.877,2.772 0,36.977 -2.877,2.771 -47.894,0 0,15.595 0,5.659 -28.34,0 0,-5.659 -107.612,0 L 0,0 Z"
         style="fill:none;stroke:#0000ff;stroke-width:0.02834646;stroke-linecap:butt;stroke-linejoin:miter;stroke-miterlimit:4;stroke-dasharray:none;stroke-opacity:1"
         id="path5234"
         inkscape:connector-curvature="0" /></g><g
       id="g5236"
       transform="translate(1045.1417,161.97766)"
       style="stroke:#0000ff;stroke-width:0.02834646;stroke-miterlimit:4;stroke-dasharray:none;stroke-opacity:1"><path
         d="m 0,0 0,73.711 0,3.945 0.005,0 0,28.34 -7.086,0 0,107.694 -4.369,5.68 -62.25,0 -4.258,-5.68 0,-107.694 -7.076,0 0,-26.621 -56.699,0 0,-7.082 -135.968,0 -5.766,-4.354 0,-62.25 5.766,-4.272 135.968,0 0,-7.081 L 0,-5.664 0,0 Z"
         style="fill:none;stroke:#0000ff;stroke-width:0.02834646;stroke-linecap:butt;stroke-linejoin:miter;stroke-miterlimit:4;stroke-dasharray:none;stroke-opacity:1"
         id="path5238"
         inkscape:connector-curvature="0" /></g><g
       id="g5240"
       transform="translate(946.76567,426.72716)"
       style="stroke:#000000;stroke-width:0.28346457;stroke-miterlimit:4;stroke-dasharray:none;stroke-opacity:1"><path
         d="M 0,0 -73.711,0"
         style="fill:none;stroke:#000000;stroke-width:0.28346457;stroke-linecap:butt;stroke-linejoin:miter;stroke-miterlimit:4;stroke-dasharray:none;stroke-opacity:1"
         id="path5242"
         inkscape:connector-curvature="0" /></g><g
       id="g5244"
       transform="translate(979.05088,489.08556)"
       style="stroke:#000000;stroke-width:0.28346457;stroke-miterlimit:4;stroke-dasharray:none;stroke-opacity:1"><path
         d="M 0,0 0,73.711"
         style="fill:none;stroke:#000000;stroke-width:0.28346457;stroke-linecap:butt;stroke-linejoin:miter;stroke-miterlimit:4;stroke-dasharray:none;stroke-opacity:1"
         id="path5246"
         inkscape:connector-curvature="0" /></g><path
       d="m 895.73597,504.68116 28.346,0 0,42.52 -28.346,0 0,-42.52 z"
       style="fill:none;stroke:#ff0000;stroke-width:0.02834646;stroke-linecap:butt;stroke-linejoin:miter;stroke-miterlimit:4;stroke-dasharray:none;stroke-opacity:1"
       id="path5248"
       inkscape:connector-curvature="0" /><g
       id="g5250"
       transform="translate(873.05477,568.46056)"
       style="stroke:#0000ff;stroke-width:0.02834646;stroke-miterlimit:4;stroke-dasharray:none;stroke-opacity:1"><path
         d="m 0,0 73.711,0 3.945,0 0,0.005 28.34,0 0,-7.087 107.694,0 5.68,-4.368 0,-62.25 -5.68,-4.258 -107.694,0 0,-7.076 -26.621,0 0,-56.699 -7.081,0 0,-135.968 -4.354,-5.766 -62.25,0 -4.273,5.766 0,135.968 -7.081,0 L -5.664,0 0,0 Z"
         style="fill:none;stroke:#0000ff;stroke-width:0.02834646;stroke-linecap:butt;stroke-linejoin:miter;stroke-miterlimit:4;stroke-dasharray:none;stroke-opacity:1"
         id="path5252"
         inkscape:connector-curvature="0" /></g><g
       id="g5254"
       transform="translate(781.23547,665.60016)"
       style="stroke:#0000ff;stroke-width:0.02834646;stroke-miterlimit:4;stroke-dasharray:none;stroke-opacity:1"><path
         d="m 0,0 73.711,0 3.945,0 28.34,0 0,-7.082 107.756,0 5.623,-4.368 0,-62.25 -5.623,-4.258 -107.756,0 0,-7.081 -26.621,0 0,-56.699 -7.082,0 0,-135.963 -4.291,-5.766 -62.25,0 -4.335,5.766 0,135.963 -7.081,0 L -5.664,0 0,0 Z"
         style="fill:none;stroke:#0000ff;stroke-width:0.02834646;stroke-linecap:butt;stroke-linejoin:miter;stroke-miterlimit:4;stroke-dasharray:none;stroke-opacity:1"
         id="path5256"
         inkscape:connector-curvature="0" /></g><g
       id="g5258"
       transform="translate(489.15437,497.60606)"
       style="stroke:#0000ff;stroke-width:0.02834646;stroke-miterlimit:4;stroke-dasharray:none;stroke-opacity:1"><path
         d="m 0,0 62.25,0 4.369,5.702 0,107.677 7.086,0 0,28.34 -5.669,0 -73.711,0 -5.659,0 0,-28.34 7.077,0 0,-107.677 L 0,0 Z"
         style="fill:none;stroke:#0000ff;stroke-width:0.02834646;stroke-linecap:butt;stroke-linejoin:miter;stroke-miterlimit:4;stroke-dasharray:none;stroke-opacity:1"
         id="path5260"
         inkscape:connector-curvature="0" /></g><g
       id="g5262"
       transform="translate(50.266674,186.42586)"
       style="stroke:#000000;stroke-width:0.28346457;stroke-miterlimit:4;stroke-dasharray:none;stroke-opacity:1"><path
         d="M 0,0 0,-73.711"
         style="fill:none;stroke:#000000;stroke-width:0.28346457;stroke-linecap:butt;stroke-linejoin:miter;stroke-miterlimit:4;stroke-dasharray:none;stroke-opacity:1"
         id="path5264"
         inkscape:connector-curvature="0" /></g><g
       id="g5266"
       transform="translate(163.64557,118.38977)"
       style="stroke:#0000ff;stroke-width:0.02834646;stroke-miterlimit:4;stroke-dasharray:none;stroke-opacity:1"><path
         d="m 0,0 0,62.25 -5.702,4.369 -107.677,0 0,7.086 -28.34,0 0,-5.669 0,-73.711 0,-5.659 28.34,0 0,7.076 107.677,0 L 0,0 Z"
         style="fill:none;stroke:#0000ff;stroke-width:0.02834646;stroke-linecap:butt;stroke-linejoin:miter;stroke-miterlimit:4;stroke-dasharray:none;stroke-opacity:1"
         id="path5268"
         inkscape:connector-curvature="0" /></g><g
       id="g5270"
       transform="translate(50.266674,88.50697)"
       style="stroke:#000000;stroke-width:0.28346457;stroke-miterlimit:4;stroke-dasharray:none;stroke-opacity:1"><path
         d="M 0,0 0,-73.711"
         style="fill:none;stroke:#000000;stroke-width:0.28346457;stroke-linecap:butt;stroke-linejoin:miter;stroke-miterlimit:4;stroke-dasharray:none;stroke-opacity:1"
         id="path5272"
         inkscape:connector-curvature="0" /></g><g
       id="g5274"
       transform="translate(163.64557,20.471769)"
       style="stroke:#0000ff;stroke-width:0.02834646;stroke-miterlimit:4;stroke-dasharray:none;stroke-opacity:1"><path
         d="m 0,0 0,62.25 -5.702,4.368 -107.677,0 0,7.087 -28.34,0 0,-5.67 0,-73.711 0,-5.658 28.34,0 0,7.076 107.677,0 L 0,0 Z"
         style="fill:none;stroke:#0000ff;stroke-width:0.02834646;stroke-linecap:butt;stroke-linejoin:miter;stroke-miterlimit:4;stroke-dasharray:none;stroke-opacity:1"
         id="path5276"
         inkscape:connector-curvature="0" /></g><g
       id="g5278"
       transform="translate(682.74957,113.13387)"
       style="stroke:#0000ff;stroke-width:0.02834646;stroke-miterlimit:4;stroke-dasharray:none;stroke-opacity:1"><path
         d="m 0,0 62.25,0 4.312,5.768 0,107.611 7.086,0 0,28.34 -5.669,0 -15.595,0 0,47.894 -2.854,2.877 -36.815,0 -2.851,-2.877 0,-47.894 -15.595,0 -5.66,0 0,-28.34 7.077,0 0,-107.611 L 0,0 Z"
         style="fill:none;stroke:#0000ff;stroke-width:0.02834646;stroke-linecap:butt;stroke-linejoin:miter;stroke-miterlimit:4;stroke-dasharray:none;stroke-opacity:1"
         id="path5280"
         inkscape:connector-curvature="0" /></g><g
       id="g5282"
       transform="translate(903.39367,81.53527)"
       style="stroke:#0000ff;stroke-width:0.02834646;stroke-miterlimit:4;stroke-dasharray:none;stroke-opacity:1"><path
         d="m 0,0 0,62.25 -5.702,4.362 -107.677,0 0,7.087 -28.34,0 0,-5.669 0,-73.711 0,-5.659 28.34,0 0,7.077 107.677,0 L 0,0 Z"
         style="fill:none;stroke:#0000ff;stroke-width:0.02834646;stroke-linecap:butt;stroke-linejoin:miter;stroke-miterlimit:4;stroke-dasharray:none;stroke-opacity:1"
         id="path5284"
         inkscape:connector-curvature="0" /></g><g
       id="g5286"
       transform="translate(937.38777,143.90636)"
       style="stroke:#000000;stroke-width:0.28346457;stroke-miterlimit:4;stroke-dasharray:none;stroke-opacity:1"><path
         d="M 0,0 0,-73.711"
         style="fill:none;stroke:#000000;stroke-width:0.28346457;stroke-linecap:butt;stroke-linejoin:miter;stroke-miterlimit:4;stroke-dasharray:none;stroke-opacity:1"
         id="path5288"
         inkscape:connector-curvature="0" /></g><g
       id="g5290"
       transform="translate(1050.7667,75.87607)"
       style="stroke:#0000ff;stroke-width:0.02834646;stroke-miterlimit:4;stroke-dasharray:none;stroke-opacity:1"><path
         d="m 0,0 0,62.25 -5.702,4.363 -107.677,0 0,7.086 -28.34,0 0,-5.669 0,-73.711 0,-5.659 28.34,0 0,7.076 107.677,0 L 0,0 Z"
         style="fill:none;stroke:#0000ff;stroke-width:0.02834646;stroke-linecap:butt;stroke-linejoin:miter;stroke-miterlimit:4;stroke-dasharray:none;stroke-opacity:1"
         id="path5292"
         inkscape:connector-curvature="0" /></g><g
       id="g5294"
       transform="translate(319.16467,401.89516)"
       style="stroke:#0000ff;stroke-width:0.02834646;stroke-miterlimit:4;stroke-dasharray:none;stroke-opacity:1"><path
         d="m 0,0 62.34,0 4.256,-5.674 0,-51.005 7.086,0 0,-28.34 -5.669,0 -73.711,0 -5.659,0 0,28.34 7.077,0 0,51.005 L 0,0 Z"
         style="fill:none;stroke:#0000ff;stroke-width:0.02834646;stroke-linecap:butt;stroke-linejoin:miter;stroke-miterlimit:4;stroke-dasharray:none;stroke-opacity:1"
         id="path5296"
         inkscape:connector-curvature="0" /></g><g
       id="g5298"
       transform="translate(404.10947,345.21596)"
       style="stroke:#000000;stroke-width:0.28346457;stroke-miterlimit:4;stroke-dasharray:none;stroke-opacity:1"><path
         d="M 0,0 73.711,0"
         style="fill:none;stroke:#000000;stroke-width:0.28346457;stroke-linecap:butt;stroke-linejoin:miter;stroke-miterlimit:4;stroke-dasharray:none;stroke-opacity:1"
         id="path5300"
         inkscape:connector-curvature="0" /></g><g
       id="g5302"
       transform="translate(409.80727,401.89516)"
       style="stroke:#0000ff;stroke-width:0.02834646;stroke-miterlimit:4;stroke-dasharray:none;stroke-opacity:1"><path
         d="m 0,0 62.34,0 4.256,-5.674 0,-51.005 7.086,0 0,-28.34 -5.669,0 -73.711,0 -5.659,0 0,28.34 7.077,0 0,51.005 L 0,0 Z"
         style="fill:none;stroke:#0000ff;stroke-width:0.02834646;stroke-linecap:butt;stroke-linejoin:miter;stroke-miterlimit:4;stroke-dasharray:none;stroke-opacity:1"
         id="path5304"
         inkscape:connector-curvature="0" /></g><g
       id="g5306"
       transform="translate(404.10947,439.29646)"
       style="stroke:#000000;stroke-width:0.28346457;stroke-miterlimit:4;stroke-dasharray:none;stroke-opacity:1"><path
         d="M 0,0 73.711,0"
         style="fill:none;stroke:#000000;stroke-width:0.28346457;stroke-linecap:butt;stroke-linejoin:miter;stroke-miterlimit:4;stroke-dasharray:none;stroke-opacity:1"
         id="path5308"
         inkscape:connector-curvature="0" /></g><g
       id="g5310"
       transform="translate(409.80727,495.97616)"
       style="stroke:#0000ff;stroke-width:0.02834646;stroke-miterlimit:4;stroke-dasharray:none;stroke-opacity:1"><path
         d="m 0,0 62.34,0 4.256,-5.674 0,-51.006 7.086,0 0,-28.34 -5.669,0 -73.711,0 -5.659,0 0,28.34 7.077,0 0,51.006 L 0,0 Z"
         style="fill:none;stroke:#0000ff;stroke-width:0.02834646;stroke-linecap:butt;stroke-linejoin:miter;stroke-miterlimit:4;stroke-dasharray:none;stroke-opacity:1"
         id="path5312"
         inkscape:connector-curvature="0" /></g><g
       id="g5314"
       transform="translate(13.479687,638.75354)"
       style="stroke:#000000;stroke-width:0.28346457;stroke-miterlimit:4;stroke-dasharray:none;stroke-opacity:1"><path
         d="M 0,0 73.711,0"
         style="fill:none;stroke:#000000;stroke-width:0.28346457;stroke-linecap:butt;stroke-linejoin:miter;stroke-miterlimit:4;stroke-dasharray:none;stroke-opacity:1"
         id="path5316"
         inkscape:connector-curvature="0" /></g><g
       id="g5318"
       transform="translate(19.177487,695.43324)"
       style="stroke:#0000ff;stroke-width:0.02834646;stroke-miterlimit:4;stroke-dasharray:none;stroke-opacity:1"><path
         d="m 0,0 62.34,0 4.256,-5.674 0,-51.006 7.086,0 0,-28.34 -5.669,0 -73.711,0 -5.659,0 0,28.34 7.077,0 0,51.006 L 0,0 Z"
         style="fill:none;stroke:#0000ff;stroke-width:0.02834646;stroke-linecap:butt;stroke-linejoin:miter;stroke-miterlimit:4;stroke-dasharray:none;stroke-opacity:1"
         id="path5320"
         inkscape:connector-curvature="0" /></g><g
       id="g5322"
       transform="translate(212.37117,82.94547)"
       style="stroke:#000000;stroke-width:0.28346457;stroke-miterlimit:4;stroke-dasharray:none;stroke-opacity:1"><path
         d="M 0,0 73.711,0"
         style="fill:none;stroke:#000000;stroke-width:0.28346457;stroke-linecap:butt;stroke-linejoin:miter;stroke-miterlimit:4;stroke-dasharray:none;stroke-opacity:1"
         id="path5324"
         inkscape:connector-curvature="0" /></g><g
       id="g5326"
       transform="translate(218.06897,139.62506)"
       style="stroke:#0000ff;stroke-width:0.02834646;stroke-miterlimit:4;stroke-dasharray:none;stroke-opacity:1"><path
         d="m 0,0 62.34,0 4.256,-5.674 0,-51.006 7.086,0 0,-28.34 -5.669,0 -73.711,0 -5.659,0 0,28.34 7.077,0 0,51.006 L 0,0 Z"
         style="fill:none;stroke:#0000ff;stroke-width:0.02834646;stroke-linecap:butt;stroke-linejoin:miter;stroke-miterlimit:4;stroke-dasharray:none;stroke-opacity:1"
         id="path5328"
         inkscape:connector-curvature="0" /></g><g
       id="g5330"
       transform="translate(575.54697,628.12856)"
       style="stroke:#000000;stroke-width:0.28346457;stroke-miterlimit:4;stroke-dasharray:none;stroke-opacity:1"><path
         d="M 0,0 73.711,0"
         style="fill:none;stroke:#000000;stroke-width:0.28346457;stroke-linecap:butt;stroke-linejoin:miter;stroke-miterlimit:4;stroke-dasharray:none;stroke-opacity:1"
         id="path5332"
         inkscape:connector-curvature="0" /></g><g
       id="g5334"
       transform="translate(581.24477,684.80826)"
       style="stroke:#0000ff;stroke-width:0.02834646;stroke-miterlimit:4;stroke-dasharray:none;stroke-opacity:1"><path
         d="m 0,0 62.34,0 4.256,-5.674 0,-51.006 7.086,0 0,-28.34 -5.669,0 -73.711,0 -5.659,0 0,28.34 7.077,0 0,51.006 L 0,0 Z"
         style="fill:none;stroke:#0000ff;stroke-width:0.02834646;stroke-linecap:butt;stroke-linejoin:miter;stroke-miterlimit:4;stroke-dasharray:none;stroke-opacity:1"
         id="path5336"
         inkscape:connector-curvature="0" /></g><g
       id="g5338"
       transform="translate(965.76087,417.97866)"
       style="stroke:#000000;stroke-width:0.28346457;stroke-miterlimit:4;stroke-dasharray:none;stroke-opacity:1"><path
         d="M 0,0 73.711,0"
         style="fill:none;stroke:#000000;stroke-width:0.28346457;stroke-linecap:butt;stroke-linejoin:miter;stroke-miterlimit:4;stroke-dasharray:none;stroke-opacity:1"
         id="path5340"
         inkscape:connector-curvature="0" /></g><g
       id="g5342"
       transform="translate(971.45908,474.65826)"
       style="stroke:#0000ff;stroke-width:0.02834646;stroke-miterlimit:4;stroke-dasharray:none;stroke-opacity:1"><path
         d="m 0,0 62.341,0 4.255,-5.674 0,-51.006 7.087,0 0,-28.34 -5.67,0 -73.711,0 -5.658,0 0,28.34 7.075,0 0,51.006 L 0,0 Z"
         style="fill:none;stroke:#0000ff;stroke-width:0.02834646;stroke-linecap:butt;stroke-linejoin:miter;stroke-miterlimit:4;stroke-dasharray:none;stroke-opacity:1"
         id="path5344"
         inkscape:connector-curvature="0" /></g><g
       id="g5346"
       transform="translate(775.00987,305.92886)"
       style="stroke:#000000;stroke-width:0.28346457;stroke-miterlimit:4;stroke-dasharray:none;stroke-opacity:1"><path
         d="M 0,0 73.711,0"
         style="fill:none;stroke:#000000;stroke-width:0.28346457;stroke-linecap:butt;stroke-linejoin:miter;stroke-miterlimit:4;stroke-dasharray:none;stroke-opacity:1"
         id="path5348"
         inkscape:connector-curvature="0" /></g><g
       id="g5350"
       transform="translate(780.70757,362.60806)"
       style="stroke:#0000ff;stroke-width:0.02834646;stroke-miterlimit:4;stroke-dasharray:none;stroke-opacity:1"><path
         d="m 0,0 62.34,0 4.256,-5.674 0,-51.005 7.086,0 0,-28.34 -5.669,0 -73.711,0 -5.659,0 0,28.34 7.077,0 0,51.005 L 0,0 Z"
         style="fill:none;stroke:#0000ff;stroke-width:0.02834646;stroke-linecap:butt;stroke-linejoin:miter;stroke-miterlimit:4;stroke-dasharray:none;stroke-opacity:1"
         id="path5352"
         inkscape:connector-curvature="0" /></g><g
       id="g5354"
       transform="translate(596.29597,531.24086)"
       style="stroke:#000000;stroke-width:0.28346457;stroke-miterlimit:4;stroke-dasharray:none;stroke-opacity:1"><path
         d="M 0,0 49.318,-54.782"
         style="fill:none;stroke:#000000;stroke-width:0.28346457;stroke-linecap:butt;stroke-linejoin:miter;stroke-miterlimit:4;stroke-dasharray:none;stroke-opacity:1"
         id="path5356"
         inkscape:connector-curvature="0" /></g><g
       id="g5358"
       transform="translate(675.35897,453.27846)"
       style="stroke:#000000;stroke-width:0.28346457;stroke-miterlimit:4;stroke-dasharray:none;stroke-opacity:1"><path
         d="M 0,0 73.705,-0.003"
         style="fill:none;stroke:#000000;stroke-width:0.28346457;stroke-linecap:butt;stroke-linejoin:miter;stroke-miterlimit:4;stroke-dasharray:none;stroke-opacity:1"
         id="path5360"
         inkscape:connector-curvature="0" /></g><g
       id="g5362"
       transform="translate(284.68177,297.46596)"
       style="stroke:#0000ff;stroke-width:0.02834646;stroke-miterlimit:4;stroke-dasharray:none;stroke-opacity:1"><path
         d="m 0,0 0.006,-136.191 -4.367,-5.546 -62.285,-0.001 -4.229,5.547 -0.005,136.189 -7.081,0 -0.004,142.501 0.013,-0.001 105.891,95.351 4.739,-5.263 101.12,91.055 7.035,0.644 41.702,-46.311 -1.247,-6.946 -101.183,-91.111 4.739,-5.263 c 0,0 -69.505,-62.586 -72.52,-65.301 -3.015,-2.715 -5.246,-7.681 -5.247,-11.795 -0.001,-4.115 0,-97.561 0,-97.561 L 0,0 Z"
         style="fill:none;stroke:#0000ff;stroke-width:0.02834646;stroke-linecap:butt;stroke-linejoin:miter;stroke-miterlimit:4;stroke-dasharray:none;stroke-opacity:1"
         id="path5364"
         inkscape:connector-curvature="0" /></g><g
       id="g5366"
       transform="translate(218.56897,574.12366)"
       style="stroke:#000000;stroke-width:0.28346457;stroke-miterlimit:4;stroke-dasharray:none;stroke-opacity:1"><path
         d="M 0,0 49.324,-54.776"
         style="fill:none;stroke:#000000;stroke-width:0.28346457;stroke-linecap:butt;stroke-linejoin:miter;stroke-miterlimit:4;stroke-dasharray:none;stroke-opacity:1"
         id="path5368"
         inkscape:connector-curvature="0" /></g><g
       id="g5370"
       transform="translate(114.54157,340.48256)"
       style="stroke:#000000;stroke-width:0.28346457;stroke-miterlimit:4;stroke-dasharray:none;stroke-opacity:1"><path
         d="M 0,0 73.715,0.001"
         style="fill:none;stroke:#000000;stroke-width:0.28346457;stroke-linecap:butt;stroke-linejoin:miter;stroke-miterlimit:4;stroke-dasharray:none;stroke-opacity:1"
         id="path5372"
         inkscape:connector-curvature="0" /></g><g
       id="g5374"
       transform="translate(186.84917,340.49326)"
       style="stroke:#0000ff;stroke-width:0.02834646;stroke-miterlimit:4;stroke-dasharray:none;stroke-opacity:1"><path
         d="m 0,0 0.006,-136.191 -4.367,-5.546 -62.285,-0.001 -4.229,5.547 -0.005,136.189 -7.081,0 -0.004,142.501 0.013,-0.001 105.891,95.351 4.739,-5.263 101.12,91.055 7.035,0.644 41.702,-46.311 -1.247,-6.946 -101.183,-91.111 4.739,-5.263 c 0,0 -69.505,-62.586 -72.52,-65.301 -3.015,-2.715 -5.246,-7.681 -5.247,-11.795 -0.001,-4.115 0,-97.561 0,-97.561 L 0,0 Z"
         style="fill:none;stroke:#0000ff;stroke-width:0.02834646;stroke-linecap:butt;stroke-linejoin:miter;stroke-miterlimit:4;stroke-dasharray:none;stroke-opacity:1"
         id="path5376"
         inkscape:connector-curvature="0" /></g><g
       id="g5378"
       transform="translate(118.53642,612.75106)"
       style="stroke:#000000;stroke-width:0.28346457;stroke-miterlimit:4;stroke-dasharray:none;stroke-opacity:1"><path
         d="M 0,0 49.324,-54.776"
         style="fill:none;stroke:#000000;stroke-width:0.28346457;stroke-linecap:butt;stroke-linejoin:miter;stroke-miterlimit:4;stroke-dasharray:none;stroke-opacity:1"
         id="path5380"
         inkscape:connector-curvature="0" /></g><g
       id="g5382"
       transform="translate(14.509122,379.10996)"
       style="stroke:#000000;stroke-width:0.28346457;stroke-miterlimit:4;stroke-dasharray:none;stroke-opacity:1"><path
         d="M 0,0 73.715,0.001"
         style="fill:none;stroke:#000000;stroke-width:0.28346457;stroke-linecap:butt;stroke-linejoin:miter;stroke-miterlimit:4;stroke-dasharray:none;stroke-opacity:1"
         id="path5384"
         inkscape:connector-curvature="0" /></g><g
       id="g5386"
       transform="translate(86.816725,379.12026)"
       style="stroke:#0000ff;stroke-width:0.02834646;stroke-miterlimit:4;stroke-dasharray:none;stroke-opacity:1"><path
         d="m 0,0 0.006,-136.191 -4.367,-5.546 -62.285,-0.001 -4.229,5.547 -0.005,136.19 -7.081,-0.001 -0.004,142.501 0.013,-0.001 105.891,95.351 4.739,-5.263 101.12,91.056 7.035,0.644 41.702,-46.311 -1.247,-6.947 -101.183,-91.111 4.739,-5.262 c 0,0 -69.505,-62.586 -72.52,-65.301 -3.015,-2.716 -5.246,-7.681 -5.247,-11.795 -0.001,-4.115 0,-97.561 0,-97.561 L 0,0 Z"
         style="fill:none;stroke:#0000ff;stroke-width:0.02834646;stroke-linecap:butt;stroke-linejoin:miter;stroke-miterlimit:4;stroke-dasharray:none;stroke-opacity:1"
         id="path5388"
         inkscape:connector-curvature="0" /></g></g></svg>