<?xml version="1.0" encoding="UTF-8" standalone="no"?>
<!-- Created with Inkscape (http://www.inkscape.org/) -->

<svg
   xmlns:dc="http://purl.org/dc/elements/1.1/"
   xmlns:cc="http://creativecommons.org/ns#"
   xmlns:rdf="http://www.w3.org/1999/02/22-rdf-syntax-ns#"
   xmlns:svg="http://www.w3.org/2000/svg"
   xmlns="http://www.w3.org/2000/svg"
   xmlns:xlink="http://www.w3.org/1999/xlink"
   xmlns:sodipodi="http://sodipodi.sourceforge.net/DTD/sodipodi-0.dtd"
   xmlns:inkscape="http://www.inkscape.org/namespaces/inkscape"
   width="2118.4856"
   height="1046.0144"
   id="svg2"
   sodipodi:version="0.32"
   inkscape:version="0.48.5 r10040"
   sodipodi:docname="Dodecahedron_sofab.svg"
   version="1.0">
  <defs
     id="defs4">
    <linearGradient
       inkscape:collect="always"
       xlink:href="#linearGradient5197"
       id="linearGradient5203"
       x1="-19.935953"
       y1="580.76178"
       x2="-23.42857"
       y2="733.6189"
       gradientUnits="userSpaceOnUse"
       gradientTransform="matrix(0.93916445,0,0,1.0280764,179.33785,-381.33034)" />
    <linearGradient
       inkscape:collect="always"
       id="linearGradient5197">
      <stop
         style="stop-color:#f5b01b;stop-opacity:1;"
         offset="0"
         id="stop5199" />
      <stop
         style="stop-color:#ffde12;stop-opacity:1"
         offset="1"
         id="stop5201" />
    </linearGradient>
    <linearGradient
       inkscape:collect="always"
       xlink:href="#linearGradient5197-6"
       id="linearGradient5203-7"
       x1="-19.935953"
       y1="580.76178"
       x2="-23.42857"
       y2="733.6189"
       gradientUnits="userSpaceOnUse"
       gradientTransform="matrix(0.93916445,0,0,1.0280764,179.33785,-381.33034)" />
    <linearGradient
       inkscape:collect="always"
       id="linearGradient5197-6">
      <stop
         style="stop-color:#f5b01b;stop-opacity:1;"
         offset="0"
         id="stop5199-9" />
      <stop
         style="stop-color:#ffde12;stop-opacity:1"
         offset="1"
         id="stop5201-3" />
    </linearGradient>
  </defs>
  <sodipodi:namedview
     id="base"
     pagecolor="#ffffff"
     bordercolor="#666666"
     borderopacity="1.0"
     gridtolerance="10000"
     guidetolerance="10"
     objecttolerance="10"
     inkscape:pageopacity="0.0"
     inkscape:pageshadow="2"
     inkscape:zoom="0.25"
     inkscape:cx="1492.0091"
     inkscape:cy="1141.9202"
     inkscape:document-units="cm"
     inkscape:current-layer="layer1"
     inkscape:window-width="1280"
     inkscape:window-height="962"
     inkscape:window-x="-8"
     inkscape:window-y="-8"
     width="310px"
     height="160px"
     showgrid="false"
     fit-margin-top="0"
     fit-margin-left="0"
     fit-margin-right="0"
     fit-margin-bottom="0"
     units="cm"
     inkscape:window-maximized="1" />
  <metadata
     id="metadata7">
    <rdf:RDF>
      <cc:Work
         rdf:about="">
        <dc:format>image/svg+xml</dc:format>
        <dc:type
           rdf:resource="http://purl.org/dc/dcmitype/StillImage" />
        <dc:title />
      </cc:Work>
    </rdf:RDF>
  </metadata>
  <g
     inkscape:label="Layer 1"
     inkscape:groupmode="layer"
     id="layer1"
     transform="translate(207.3817,523.26948)">
    <g
       id="Flat dodecahedron"
       transform="matrix(6.7585102,0,0,6.7585102,-265.22492,-942.71021)"
       style="fill:none;stroke:#ff0000;stroke-width:0.01048547;stroke-miterlimit:4;stroke-opacity:1;stroke-dasharray:none" />
    <path
       style="fill:none;stroke:#ff0000;stroke-width:0.07086614;stroke-linecap:square;stroke-linejoin:miter;stroke-miterlimit:4;stroke-opacity:1;stroke-dasharray:none;stroke-dashoffset:0"
       d="m 780.7297,-114.93299 76.80096,236.36678 m 0,0 -201.06262,146.08238 -201.06448,-146.08284 76.79798,-236.36659 248.52816,2.7e-4"
       id="path2924"
       inkscape:connector-curvature="0"
       sodipodi:nodetypes="ccccccc" />
    <path
       inkscape:connector-curvature="0"
       style="fill:none;stroke:#ff0000;stroke-width:0.07086614;stroke-linecap:square;stroke-linejoin:miter;stroke-miterlimit:4;stroke-opacity:1;stroke-dasharray:none;stroke-dashoffset:0"
       d="m 1431.3849,-114.92869 76.8004,236.3641 -201.0655,146.08115 -201.0658,-146.08106 76.8001,-236.36416 z"
       id="path1878" />
    <path
       inkscape:connector-curvature="0"
       style="fill:none;stroke:#ff0000;stroke-width:0.07086614;stroke-linecap:square;stroke-linejoin:miter;stroke-miterlimit:4;stroke-opacity:1;stroke-dasharray:none;stroke-dashoffset:0"
       d="m 1431.3849,-114.92927 76.8004,-236.36411 -201.0655,-146.08115 -201.0658,146.08107 76.8001,236.36416 z"
       id="path2867" />
    <path
       style="fill:none;stroke:#ff0000;stroke-width:0.07086614;stroke-linecap:square;stroke-linejoin:miter;stroke-miterlimit:4;stroke-opacity:1;stroke-dasharray:none;stroke-dashoffset:0"
       d="m 1508.1822,121.43491 c 82.8428,4.6e-4 165.6856,9.1e-4 248.5284,9.6e-4 25.5996,-78.788779 51.1994,-157.577509 76.7991,-236.36626 -67.0214,-48.69459 -134.0426,-97.38917 -201.064,-146.08375 -67.0212,48.69387 -134.0423,97.38765 -201.0634,146.08154 25.6,78.789046 51.2,157.578074 76.7999,236.3671 z"
       id="path2877"
       inkscape:connector-curvature="0" />
    <path
       style="fill:none;stroke:#ff0000;stroke-width:0.07086614;stroke-linecap:square;stroke-linejoin:miter;stroke-miterlimit:4;stroke-opacity:1;stroke-dasharray:none;stroke-dashoffset:0"
       d="m 857.76852,121.43557 248.52818,-9.6e-4 76.7999,-236.36705 -201.06323,-146.08182 -201.06387,146.08349"
       id="path2887"
       inkscape:connector-curvature="0"
       sodipodi:nodetypes="ccccc" />
    <path
       inkscape:connector-curvature="0"
       style="fill:none;stroke:#ff0000;stroke-width:0.07086614;stroke-linecap:square;stroke-linejoin:miter;stroke-miterlimit:4;stroke-opacity:1;stroke-dasharray:none;stroke-dashoffset:0"
       d="m 1307.1184,267.51804 76.7978,236.36467 248.5297,-6e-4 76.8019,-236.3651 -201.0634,-146.08105 z"
       id="path2893" />
    <path
       inkscape:connector-curvature="0"
       style="fill:none;stroke:#ff0000;stroke-width:0.07086614;stroke-linecap:square;stroke-linejoin:miter;stroke-miterlimit:4;stroke-opacity:1;stroke-dasharray:none;stroke-dashoffset:0"
       d="m 1307.1216,267.51804 -76.7979,236.36467 -248.52967,-6e-4 -76.80197,-236.3651 201.06344,-146.08105 z"
       id="path2899" />
    <path
       inkscape:connector-curvature="0"
       style="fill:none;stroke:#ff0000;stroke-width:0.07086614;stroke-linecap:square;stroke-linejoin:miter;stroke-miterlimit:4;stroke-opacity:1;stroke-dasharray:none;stroke-dashoffset:0"
       d="m 130.07152,-114.92891 -201.064828,-146.08002 76.8005,-236.36578 248.530208,-0.002 76.79961,236.36451 z"
       id="path2948" />
    <path
       inkscape:connector-curvature="0"
       style="fill:none;stroke:#ff0000;stroke-width:0.07086614;stroke-linecap:square;stroke-linejoin:miter;stroke-miterlimit:4;stroke-opacity:1;stroke-dasharray:none;stroke-dashoffset:0"
       d="M 206.87272,121.43289 130.07289,357.79743 331.13901,503.87819 532.20457,357.79643 455.40379,121.43222 z"
       id="path2934" />
    <g
       transform="matrix(0.22877766,-0.16803212,0.16803212,0.22877766,1352.2616,339.98371)"
       id="g5272">
      <path
         style="fill:#7489c2"
         d="m -25.232156,401.43671 c -25.396622,-2.70405 -46.349,-16.87351 -57.007996,-38.55279 -4.920494,-10.00775 -8.553975,-23.14413 -8.596019,-31.07776 l -0.02097,-3.95694 13.517378,0.34083 13.51738,0.34082 1.556187,8.4269 c 4.490461,24.31628 21.982107,40.11901 45.787036,41.36606 20.7489132,1.08696 38.046507,-9.6722 47.243939,-29.38589 2.85836,-6.12657 3.337615,-8.70182 3.353895,-18.02168 0.01727,-9.88017 -0.344201,-11.61003 -3.956068,-18.93276 -4.727847,-9.58524 -13.815683,-18.24257 -24.8317169,-23.65538 -4.084508,-2.00696 -14.7358424,-5.62565 -23.6696341,-8.04154 -29.214824,-7.90035 -38.987394,-12.64952 -49.076717,-23.84983 -10.507108,-11.6641 -14.995411,-24.17282 -14.97359,-41.73083 0.02519,-20.2737 5.220546,-33.25636 18.612162,-46.50996 4.70046,-4.65201 11.358932,-9.9524 14.796606,-11.7787 9.071639,-4.81933 23.197386,-8.08931 34.944521,-8.08931 20.755737,0 35.681549,5.923 49.286696,19.55836 10.392431,10.41555 15.638143,20.19115 18.433124,34.35094 2.755719,13.96092 2.963633,13.74037 -12.567353,13.33113 l -12.99196,-0.34236 -0.818179,-5.42414 C 24.797435,193.16733 15.302274,180.5891 0.32265394,174.05631 -3.0814886,172.57172 -7.7178577,171.94322 -15.377177,171.92804 c -9.60716,-0.0191 -11.681039,0.38454 -17.862156,3.47581 -28.135308,14.07094 -32.015069,54.75096 -6.610615,69.31356 8.333599,4.77706 18.331643,8.49468 38.9649226,14.48849 22.6287584,6.57348 30.6376414,10.61673 40.3987824,20.39518 13.922839,13.94753 20.589024,30.24181 20.589024,50.32617 0,44.09387 -38.648033,76.48038 -85.334932,71.50946 z"
         id="path5020"
         inkscape:connector-curvature="0" />
      <path
         sodipodi:nodetypes="ccccccccccccc"
         style="fill:#4a6eb4"
         d="m 453.11614,148.39069 c 44.08029,0.2173 91.26605,-0.21729 135.34635,0 l 0,14.31836 0,11.3466 c -35.82783,0.42024 -66.91119,0.8405 -102.73901,1.26074 -0.61611,29.38456 -0.48301,56.34897 0,84.51425 28.9843,0.42025 55.16506,0.84049 84.14937,1.26073 0.2315,7.77453 -0.18398,19.82655 0.0475,27.60108 -23.83747,0.0647 -62.0086,-0.10374 -84.19688,-0.28815 -0.33924,10.44995 0,65.87878 0,113.53633 l -32.60734,0 c 1.22454,-84.0263 2.05131,-169.56551 0,-253.54994 z"
         id="path4898"
         inkscape:connector-curvature="0" />
      <path
         sodipodi:nodetypes="sccccccscccc"
         inkscape:connector-curvature="0"
         id="path4896"
         d="m 690.32486,148.32797 c -0.81628,0 0,3.78922 -114.23826,253.61266 l 27.713,0 31.95587,-72.46076 107.01652,0 30.83758,72.46076 28.52691,0 C 690.32486,148.32797 691.31299,148.32797 690.32486,148.32797 z m -0.4572,60.23676 41.52933,94.34619 -83.97804,0 z"
         style="fill:#4a6eb4" />
      <path
         sodipodi:nodetypes="cccsssssssscccsssscccccccssssssccccc"
         inkscape:connector-curvature="0"
         id="path4892"
         d="m 820.33793,148.32821 -0.0873,253.61242 41.44322,-0.01 c 23.08502,-0.005 45.50639,-0.59539 49.82385,-1.31115 36.97769,-6.13016 61.16026,-34.44934 60.60804,-70.97502 -0.36152,-23.91136 -10.68774,-43.59627 -29.5103,-56.24711 -3.81929,-2.56697 -6.94416,-5.12527 -6.94416,-5.68655 0,-0.56129 2.47089,-3.56831 5.49352,-6.67983 18.89989,-19.45584 22.83393,-47.30024 10.34548,-73.23722 -7.05653,-14.65556 -18.6964,-25.10883 -34.67361,-31.13942 -13.58629,-5.12815 -24.70761,-8.3262 -62.38654,-8.3262 l -34.1995,0 z m 56.81281,26.19784 c 18.3061,0.001 26.29376,1.35094 34.30801,5.31406 7.31083,3.61529 15.23881,12.15844 18.84168,20.30519 4.08284,9.23206 4.11817,23.01375 0.0826,32.13765 -5.8959,13.32978 -15.13912,20.93204 -29.29566,24.0896 -10.99542,2.4525 -54.57359,2.68053 -55.44475,0.29055 -0.32089,-0.88054 -0.43993,-19.61784 -0.26418,-41.63843 l 0.3208,-40.03675 22.94591,-0.38241 c 3.06645,-0.0512 5.89048,-0.0796 8.50563,-0.0795 z m 3.85185,108.1387 c 21.78684,0.12986 32.85173,1.98775 41.99987,6.69969 8.71159,4.48706 15.92514,12.38136 20.37487,22.2992 3.16149,7.04652 3.71114,9.76268 3.73627,18.43532 0.0254,8.76281 -0.48498,11.31489 -3.69145,18.43782 -6.47797,14.39026 -17.40967,23.53724 -33.01304,27.6232 -7.86841,2.06045 -61.43665,3.67985 -63.82067,1.92945 -1.19102,-0.87445 -1.45532,-11.39511 -1.20768,-48.07489 l 0.31844,-46.95746 25.28579,-0.34515 c 3.57568,-0.0487 6.90519,-0.0657 10.0176,-0.0472 z"
         style="fill:#4a6eb4" />
      <flowRoot
         xml:space="preserve"
         id="flowRoot4220"
         style="font-size:40px;font-style:normal;font-weight:normal;line-height:125%;letter-spacing:0px;word-spacing:0px;fill:#546687;fill-opacity:1;stroke:none;font-family:Sans"
         transform="matrix(1.3841814,0,0,1.3930584,-166.71556,66.990738)"><flowRegion
           id="flowRegion4222"><rect
             id="rect4224"
             width="412.14285"
             height="50"
             x="257.85715"
             y="246.42857"
             style="fill:#546687;fill-opacity:1" /></flowRegion><flowPara
           id="flowPara4226"
           style="font-style:normal;font-variant:normal;font-weight:bold;font-stretch:normal;fill:#546687;fill-opacity:1;font-family:Century Gothic;-inkscape-font-specification:Century Gothic Bold">By Telecom Valley</flowPara></flowRoot>      <g
         transform="matrix(1.2076793,0,0,1.2060459,18.86915,-82.16649)"
         id="g5266">
        <path
           inkscape:connector-curvature="0"
           id="path5087"
           d="m 117.21401,191.45177 -26.6875,50.25 c -14.67862,27.6375 -27.13517,51.1949 -27.68164,52.34961 -0.77311,1.63362 -0.62115,2.85402 0.6875,5.5 7.35113,14.86331 53.02102,99.67019 54.20508,100.65625 1.18723,0.9887 17.1025,1.49591 74.7871,1 l 71.31446,-0.61328 27.39258,-51.5 c 15.06572,-28.325 29.36314,-51.71477 29.36914,-52.41406 0.007,-0.69929 -0.98247,-2.94929 -2.19727,-5 -1.21478,-2.05071 -13.29372,-24.65352 -26.8418,-50.22852 -13.54809,-25.575 -25.26118,-47.2875 -26.02929,-48.25 -1.30828,-1.63936 -6.04061,-1.75 -74.85742,-1.75 l -73.46094,0 z m 51.33984,28.86328 c 10.79595,-0.0707 20.45388,2.73491 33.26172,9.46094 10.61531,5.57462 22.16889,18.34125 28.16602,31.125 5.71545,12.18332 7.98347,22.02639 8.01367,34.77344 0.0131,5.5 -0.39613,12.025 -0.91016,14.5 -5.71562,27.5198 -22.55579,48.25765 -46.80664,57.64258 -5.51919,2.13589 -8.70995,2.66214 -17.69531,2.92187 -6.0292,0.17428 -11.78419,0.11522 -12.78906,-0.13281 -1.00487,-0.24803 -4.08819,-0.94704 -6.85157,-1.55274 -9.83103,-2.15481 -22.78645,-9.64985 -31.19921,-18.04882 -5.11159,-5.1032 -10.92933,-13.58489 -14.66016,-21.375 -10.34744,-21.60588 -10.19269,-46.41939 0.42773,-68.89844 5.39291,-11.41459 18.3075,-25.57393 28.53125,-31.2793 9.75182,-5.44201 18.32782,-8.19737 27.80274,-8.93359 1.60124,-0.12442 3.1667,-0.19303 4.70898,-0.20313 z"
           style="fill:#9faed5" />
        <path
           inkscape:connector-curvature="0"
           id="path5024"
           d="m 114.97963,191.11583 -2.2539,3.77735 c -2.6138,4.38042 -49.83802,92.83356 -52.1543,97.6875 l -1.55273,3.25586 26.72461,50.13086 c 14.69838,27.5721 27.34588,50.92144 28.10546,51.88672 1.28073,1.62757 5.51657,1.7735 58.3125,2.02148 31.31237,0.14706 64.36812,0.37756 73.45704,0.51172 l 16.52539,0.24414 2.24609,-3.77734 c 6.50806,-10.94138 52.75391,-98.87336 52.75391,-100.30665 0,-1.51104 -1.77978,-1.68164 -17.54102,-1.68164 l -17.54102,0 -26.94921,-50.5332 c -14.82296,-27.7935 -27.50641,-51.13715 -28.1836,-51.875 -0.99781,-1.08721 -11.72572,-1.3418 -56.58984,-1.3418 l -55.35938,0 z m 53.15625,30.07422 c 10.79595,-0.0707 20.45388,2.73491 33.26172,9.46094 10.61531,5.57462 22.16889,18.34125 28.16602,31.125 5.71545,12.18332 7.98347,22.02639 8.01367,34.77344 0.0131,5.5 -0.39613,12.025 -0.91016,14.5 -5.71562,27.5198 -22.55579,48.25765 -46.80664,57.64258 -5.51919,2.13589 -8.70995,2.66409 -17.69531,2.92382 -6.0292,0.17428 -11.78419,0.11327 -12.78906,-0.13476 -1.00487,-0.24803 -4.08818,-0.94704 -6.85157,-1.55274 -9.83103,-2.15481 -22.78645,-9.6479 -31.19921,-18.04687 -5.11159,-5.1032 -10.92933,-13.58684 -14.66016,-21.37695 -10.34744,-21.60588 -10.19269,-46.41938 0.42773,-68.89844 5.39291,-11.41459 18.3075,-25.57197 28.53125,-31.27734 9.75182,-5.44201 18.32782,-8.19738 27.80274,-8.9336 1.60124,-0.12442 3.16671,-0.19498 4.70898,-0.20508 z"
           style="fill:#7489c2" />
        <path
           sodipodi:nodetypes="sscssss"
           inkscape:connector-curvature="0"
           id="path4900"
           d="m 227.69499,400.23227 c -0.52798,-0.90441 48.99464,-94.01084 54.428,-102.25824 l 1.87301,-2.84306 17.51097,0 c 9.63104,0 17.51098,0.27777 17.51098,0.61729 0,1.18381 -55.97084,103.2892 -57.03286,104.04276 -1.70005,1.2063 -33.57466,1.66677 -34.2901,0.44125 z"
           style="fill:#4a6eb4" />
        <path
           inkscape:connector-curvature="0"
           id="path5147"
           d="m 153.77917,370.58432 c -20.84379,-5.03146 -38.12524,-20.00019 -47.4589,-41.10765 -13.458015,-30.43444 -8.45619,-61.97811 13.72005,-86.52438 6.49299,-7.18692 8.99319,-9.14259 17.37454,-13.5905 19.67619,-10.44198 38.88304,-11.09529 58.39192,-1.98615 2.45356,1.14562 4.46103,2.39442 4.46103,2.77509 0,0.38069 -3.37466,1.23058 -7.49922,1.88865 -16.39095,2.61518 -27.46872,8.74245 -39.5363,21.86808 -14.08763,15.3228 -20.32968,32.78781 -19.41134,54.31223 0.79809,18.70598 6.48806,33.46367 18.29525,47.4511 3.21768,3.81185 8.39113,8.72264 11.49654,10.91286 3.10542,2.19024 5.6499,4.32922 5.65442,4.75331 0,0 -9.25193,0.75268 -15.48799,-0.75264 z"
           style="fill:url(#linearGradient5203-7);fill-opacity:1"
           sodipodi:nodetypes="ssssssssssscs" />
      </g>
    </g>
    <path
       inkscape:connector-curvature="0"
       style="fill:none;stroke:#ff0000;stroke-width:0.07086614;stroke-linecap:square;stroke-linejoin:miter;stroke-miterlimit:4;stroke-opacity:1;stroke-dasharray:none;stroke-dashoffset:0"
       d="m 1167.9701,-111.22143 -186.17633,-135.26579 -186.17693,135.26729 71.11275,218.86562 230.12701,-9.4e-4 z"
       id="path2887-4" />
    <path
       inkscape:connector-curvature="0"
       style="fill:none;stroke:#ff0000;stroke-width:0.07086614;stroke-linecap:square;stroke-linejoin:miter;stroke-miterlimit:4;stroke-opacity:1;stroke-dasharray:none;stroke-dashoffset:0"
       d="m 1422.183,-129.09365 71.1132,-218.8612 -186.1764,-135.26376 -186.1768,135.26368 71.113,218.86128 z"
       id="path2867-9" />
    <path
       inkscape:connector-curvature="0"
       style="fill:none;stroke:#ff0000;stroke-width:0.07086614;stroke-linecap:square;stroke-linejoin:miter;stroke-miterlimit:4;stroke-opacity:1;stroke-dasharray:none;stroke-dashoffset:0"
       d="M 517.31515,-111.59342 331.13878,-246.8592 144.96187,-111.59192 216.07461,107.2737 446.2016,107.27277 z"
       id="path2887-4-8" />
    <path
       inkscape:connector-curvature="0"
       style="fill:none;stroke:#ff0000;stroke-width:0.07086614;stroke-linecap:square;stroke-linejoin:miter;stroke-miterlimit:4;stroke-opacity:1;stroke-dasharray:none;stroke-dashoffset:0"
       d="m 532.18499,-114.92853 -201.06483,-146.08 76.80051,-236.36578 248.53019,-0.002 76.79961,236.36451 z"
       id="path2948-9" />
    <path
       inkscape:connector-curvature="0"
       style="fill:none;stroke:#ff0000;stroke-width:0.07086614;stroke-linecap:square;stroke-linejoin:miter;stroke-miterlimit:4;stroke-opacity:1;stroke-dasharray:none;stroke-dashoffset:0"
       d="m 455.40256,121.43498 -248.52839,0.002 -76.79936,-236.36621 201.06386,-146.08397 201.06362,146.08137 z"
       id="path2905" />
    <path
       style="fill:none;stroke:#ff0000;stroke-width:0.07086614;stroke-linecap:square;stroke-linejoin:miter;stroke-miterlimit:4;stroke-opacity:1;stroke-dasharray:none;stroke-dashoffset:0"
       d="m 130.08066,-114.92019 76.80095,236.36679 m 0,0 L 5.818974,267.52898 -195.24548,121.44615 l 76.79797,-236.3666 248.52817,2.6e-4"
       id="path2924-3"
       inkscape:connector-curvature="0"
       sodipodi:nodetypes="ccccccc" />
  </g>
</svg>
