  0
SECTION
  2
HEADER
  9
$ACADVER
  1
AC1015
  9
$ACADMAINTVER
 70
     6
  9
$DWGCODEPAGE
  3
ANSI_1252
  9
$INSBASE
 10
0.0
 20
0.0
 30
0.0
  9
$EXTMIN
 10
-43.8769558026
 20
-1.2281426066
 30
0.0
  9
$EXTMAX
 10
166.1230441974
 20
38.7718573934
 30
0.0
  9
$LIMMIN
 10
0.0
 20
0.0
  9
$LIMMAX
 10
420.0
 20
297.0
  9
$ORTHOMODE
 70
     0
  9
$REGENMODE
 70
     1
  9
$FILLMODE
 70
     1
  9
$QTEXTMODE
 70
     0
  9
$MIRRTEXT
 70
     1
  9
$LTSCALE
 40
1.0
  9
$ATTMODE
 70
     1
  9
$TEXTSIZE
 40
3.5
  9
$TRACEWID
 40
1.0
  9
$TEXTSTYLE
  7
Standard
  9
$CLAYER
  8
0
  9
$CELTYPE
  6
ByLayer
  9
$CECOLOR
 62
   256
  9
$CELTSCALE
 40
1.0
  9
$DISPSILH
 70
     0
  9
$DIMSCALE
 40
1.0
  9
$DIMASZ
 40
3.302
  9
$DIMEXO
 40
1.0
  9
$DIMDLI
 40
3.75
  9
$DIMRND
 40
0.0
  9
$DIMDLE
 40
0.0
  9
$DIMEXE
 40
1.0
  9
$DIMTP
 40
0.0
  9
$DIMTM
 40
0.0
  9
$DIMTXT
 40
3.5
  9
$DIMCEN
 40
2.5
  9
$DIMTSZ
 40
0.0
  9
$DIMTOL
 70
     0
  9
$DIMLIM
 70
     0
  9
$DIMTIH
 70
     1
  9
$DIMTOH
 70
     1
  9
$DIMSE1
 70
     0
  9
$DIMSE2
 70
     0
  9
$DIMTAD
 70
     1
  9
$DIMZIN
 70
     0
  9
$DIMBLK
  1

  9
$DIMASO
 70
     1
  9
$DIMSHO
 70
     1
  9
$DIMPOST
  1

  9
$DIMAPOST
  1

  9
$DIMALT
 70
     0
  9
$DIMALTD
 70
     3
  9
$DIMALTF
 40
0.0393700787
  9
$DIMLFAC
 40
1.0
  9
$DIMTOFL
 70
     1
  9
$DIMTVP
 40
0.0
  9
$DIMTIX
 70
     0
  9
$DIMSOXD
 70
     0
  9
$DIMSAH
 70
     0
  9
$DIMBLK1
  1

  9
$DIMBLK2
  1

  9
$DIMSTYLE
  2
ISO-25
  9
$DIMCLRD
 70
     0
  9
$DIMCLRE
 70
     0
  9
$DIMCLRT
 70
     0
  9
$DIMTFAC
 40
1.0
  9
$DIMGAP
 40
1.524
  9
$DIMJUST
 70
     0
  9
$DIMSD1
 70
     0
  9
$DIMSD2
 70
     0
  9
$DIMTOLJ
 70
     0
  9
$DIMTZIN
 70
     0
  9
$DIMALTZ
 70
     0
  9
$DIMALTTZ
 70
     0
  9
$DIMUPT
 70
     0
  9
$DIMDEC
 70
     2
  9
$DIMTDEC
 70
     2
  9
$DIMALTU
 70
     2
  9
$DIMALTTD
 70
     3
  9
$DIMTXSTY
  7
Standard
  9
$DIMAUNIT
 70
     0
  9
$DIMADEC
 70
     2
  9
$DIMALTRND
 40
0.0
  9
$DIMAZIN
 70
     0
  9
$DIMDSEP
 70
    44
  9
$DIMATFIT
 70
     3
  9
$DIMFRAC
 70
     0
  9
$DIMLDRBLK
  1

  9
$DIMLUNIT
 70
     2
  9
$DIMLWD
 70
    -2
  9
$DIMLWE
 70
    -2
  9
$DIMTMOVE
 70
     0
  9
$LUNITS
 70
     2
  9
$LUPREC
 70
     2
  9
$SKETCHINC
 40
1.0
  9
$FILLETRAD
 40
10.0
  9
$AUNITS
 70
     0
  9
$AUPREC
 70
     2
  9
$MENU
  1
.
  9
$ELEVATION
 40
0.0
  9
$PELEVATION
 40
0.0
  9
$THICKNESS
 40
0.0
  9
$LIMCHECK
 70
     0
  9
$CHAMFERA
 40
0.0
  9
$CHAMFERB
 40
0.0
  9
$CHAMFERC
 40
0.0
  9
$CHAMFERD
 40
0.0
  9
$SKPOLY
 70
     0
  9
$TDCREATE
 40
2457339.579204016
  9
$TDUCREATE
 40
2457339.537537349
  9
$TDUPDATE
 40
2457339.579229259
  9
$TDUUPDATE
 40
2457339.537562592
  9
$TDINDWG
 40
0.0000000116
  9
$TDUSRTIMER
 40
0.0000000116
  9
$USRTIMER
 70
     1
  9
$ANGBASE
 50
0.0
  9
$ANGDIR
 70
     0
  9
$PDMODE
 70
     0
  9
$PDSIZE
 40
-1.0
  9
$PLINEWID
 40
0.0
  9
$SPLFRAME
 70
     0
  9
$SPLINETYPE
 70
     6
  9
$SPLINESEGS
 70
     8
  9
$HANDSEED
  5
E7
  9
$SURFTAB1
 70
     6
  9
$SURFTAB2
 70
     6
  9
$SURFTYPE
 70
     6
  9
$SURFU
 70
     6
  9
$SURFV
 70
     6
  9
$UCSBASE
  2

  9
$UCSNAME
  2

  9
$UCSORG
 10
0.0
 20
0.0
 30
0.0
  9
$UCSXDIR
 10
1.0
 20
0.0
 30
0.0
  9
$UCSYDIR
 10
0.0
 20
1.0
 30
0.0
  9
$UCSORTHOREF
  2

  9
$UCSORTHOVIEW
 70
     0
  9
$UCSORGTOP
 10
0.0
 20
0.0
 30
0.0
  9
$UCSORGBOTTOM
 10
0.0
 20
0.0
 30
0.0
  9
$UCSORGLEFT
 10
0.0
 20
0.0
 30
0.0
  9
$UCSORGRIGHT
 10
0.0
 20
0.0
 30
0.0
  9
$UCSORGFRONT
 10
0.0
 20
0.0
 30
0.0
  9
$UCSORGBACK
 10
0.0
 20
0.0
 30
0.0
  9
$PUCSBASE
  2

  9
$PUCSNAME
  2

  9
$PUCSORG
 10
0.0
 20
0.0
 30
0.0
  9
$PUCSXDIR
 10
1.0
 20
0.0
 30
0.0
  9
$PUCSYDIR
 10
0.0
 20
1.0
 30
0.0
  9
$PUCSORTHOREF
  2

  9
$PUCSORTHOVIEW
 70
     0
  9
$PUCSORGTOP
 10
0.0
 20
0.0
 30
0.0
  9
$PUCSORGBOTTOM
 10
0.0
 20
0.0
 30
0.0
  9
$PUCSORGLEFT
 10
0.0
 20
0.0
 30
0.0
  9
$PUCSORGRIGHT
 10
0.0
 20
0.0
 30
0.0
  9
$PUCSORGFRONT
 10
0.0
 20
0.0
 30
0.0
  9
$PUCSORGBACK
 10
0.0
 20
0.0
 30
0.0
  9
$USERI1
 70
     0
  9
$USERI2
 70
     0
  9
$USERI3
 70
     0
  9
$USERI4
 70
     0
  9
$USERI5
 70
     0
  9
$USERR1
 40
0.0
  9
$USERR2
 40
0.0
  9
$USERR3
 40
0.0
  9
$USERR4
 40
0.0
  9
$USERR5
 40
0.0
  9
$WORLDVIEW
 70
     1
  9
$SHADEDGE
 70
     3
  9
$SHADEDIF
 70
    70
  9
$TILEMODE
 70
     1
  9
$MAXACTVP
 70
    64
  9
$PINSBASE
 10
0.0
 20
0.0
 30
0.0
  9
$PLIMCHECK
 70
     0
  9
$PEXTMIN
 10
1.0000000000E+20
 20
1.0000000000E+20
 30
1.0000000000E+20
  9
$PEXTMAX
 10
-1.0000000000E+20
 20
-1.0000000000E+20
 30
-1.0000000000E+20
  9
$PLIMMIN
 10
0.0
 20
0.0
  9
$PLIMMAX
 10
420.0
 20
297.0
  9
$UNITMODE
 70
     0
  9
$VISRETAIN
 70
     1
  9
$PLINEGEN
 70
     0
  9
$PSLTSCALE
 70
     1
  9
$TREEDEPTH
 70
  3020
  9
$CMLSTYLE
  2
Standard
  9
$CMLJUST
 70
     0
  9
$CMLSCALE
 40
20.0
  9
$PROXYGRAPHICS
 70
     1
  9
$MEASUREMENT
 70
     1
  9
$CELWEIGHT
370
    -1
  9
$ENDCAPS
280
     0
  9
$JOINSTYLE
280
     0
  9
$LWDISPLAY
290
     1
  9
$INSUNITS
 70
     4
  9
$HYPERLINKBASE
  1

  9
$STYLESHEET
  1

  9
$XEDIT
290
     1
  9
$CEPSNTYPE
380
     0
  9
$PSTYLEMODE
290
     1
  9
$FINGERPRINTGUID
  2
{A0DA7024-1604-465E-AD48-3E7E16E51A5D}
  9
$VERSIONGUID
  2
{FAEB1C32-E019-11D5-929B-00C0DF256EC4}
  9
$EXTNAMES
290
     1
  9
$PSVPSCALE
 40
0.0
  9
$OLESTARTUP
290
     0
  0
ENDSEC
  0
SECTION
  2
CLASSES
  0
CLASS
  1
ACDBDICTIONARYWDFLT
  2
AcDbDictionaryWithDefault
  3
ObjectDBX Classes
 90
        0
280
     0
281
     0
  0
CLASS
  1
VISUALSTYLE
  2
AcDbVisualStyle
  3
ObjectDBX Classes
 90
     4095
280
     0
281
     0
  0
CLASS
  1
MATERIAL
  2
AcDbMaterial
  3
ObjectDBX Classes
 90
     1153
280
     0
281
     0
  0
CLASS
  1
SCALE
  2
AcDbScale
  3
ObjectDBX Classes
 90
     1153
280
     0
281
     0
  0
CLASS
  1
SUN
  2
AcDbSun
  3
SCENEOE
 90
     1153
280
     0
281
     0
  0
CLASS
  1
ACDBPLACEHOLDER
  2
AcDbPlaceHolder
  3
ObjectDBX Classes
 90
        0
280
     0
281
     0
  0
CLASS
  1
LAYOUT
  2
AcDbLayout
  3
ObjectDBX Classes
 90
        0
280
     0
281
     0
  0
ENDSEC
  0
SECTION
  2
TABLES
  0
TABLE
  2
VPORT
  5
8
330
0
100
AcDbSymbolTable
 70
     1
  0
VPORT
  5
29
330
8
100
AcDbSymbolTableRecord
100
AcDbViewportTableRecord
  2
*Active
 70
     0
 10
0.0
 20
0.0
 11
1.0
 21
1.0
 12
61.1230441974
 22
18.7718573934
 13
0.0
 23
0.0
 14
10.0
 24
10.0
 15
10.0
 25
10.0
 16
0.0
 26
0.0
 36
1.0
 17
0.0
 27
0.0
 37
0.0
 40
40.8
 41
5.25
 42
50.0
 43
0.0
 44
0.0
 50
0.0
 51
0.0
 71
     0
 72
   100
 73
     1
 74
     3
 75
     0
 76
     0
 77
     0
 78
     0
281
     0
 65
     1
110
0.0
120
0.0
130
0.0
111
1.0
121
0.0
131
0.0
112
0.0
122
1.0
132
0.0
 79
     0
146
0.0
  0
ENDTAB
  0
TABLE
  2
LTYPE
  5
5
330
0
100
AcDbSymbolTable
 70
     6
  0
LTYPE
  5
14
330
5
100
AcDbSymbolTableRecord
100
AcDbLinetypeTableRecord
  2
ByBlock
 70
     0
  3

 72
    65
 73
     0
 40
0.0
  0
LTYPE
  5
15
330
5
100
AcDbSymbolTableRecord
100
AcDbLinetypeTableRecord
  2
ByLayer
 70
     0
  3

 72
    65
 73
     0
 40
0.0
  0
LTYPE
  5
16
330
5
100
AcDbSymbolTableRecord
100
AcDbLinetypeTableRecord
  2
Continuous
 70
     0
  3
Solid line
 72
    65
 73
     0
 40
0.0
  0
LTYPE
  5
6A
330
5
100
AcDbSymbolTableRecord
100
AcDbLinetypeTableRecord
  2
HIDDEN
 70
     0
  3
Hidden __ __ __ __ __ __ __ __ __ __ __ __ __ __
 72
    65
 73
     2
 40
1.905
 49
1.27
 74
     0
 49
-0.635
 74
     0
  0
LTYPE
  5
6B
330
5
100
AcDbSymbolTableRecord
100
AcDbLinetypeTableRecord
  2
PHANTOM
 70
     0
  3
Phantom ______  __  __  ______  __  __  ______
 72
    65
 73
     6
 40
12.7
 49
6.35
 74
     0
 49
-1.27
 74
     0
 49
1.27
 74
     0
 49
-1.27
 74
     0
 49
1.27
 74
     0
 49
-1.27
 74
     0
  0
LTYPE
  5
6C
330
5
100
AcDbSymbolTableRecord
100
AcDbLinetypeTableRecord
  2
CENTER
 70
     0
  3
Center ____ _ ____ _ ____ _ ____ _ ____ _ ____
 72
    65
 73
     4
 40
10.16
 49
6.35
 74
     0
 49
-1.27
 74
     0
 49
1.27
 74
     0
 49
-1.27
 74
     0
  0
LTYPE
  5
6D
330
5
100
AcDbSymbolTableRecord
100
AcDbLinetypeTableRecord
  2
CENTERX2
 70
     0
  3
Center (2x) ________  __  ________  __  _____
 72
    65
 73
     4
 40
20.32
 49
12.7
 74
     0
 49
-2.54
 74
     0
 49
2.54
 74
     0
 49
-2.54
 74
     0
  0
LTYPE
  5
6E
330
5
100
AcDbSymbolTableRecord
100
AcDbLinetypeTableRecord
  2
DOT2
 70
     0
  3
Dot (.5x) ........................................
 72
    65
 73
     2
 40
0.635
 49
0.0
 74
     0
 49
-0.635
 74
     0
  0
ENDTAB
  0
TABLE
  2
LAYER
  5
2
330
0
100
AcDbSymbolTable
 70
     1
  0
LAYER
  5
10
330
2
100
AcDbSymbolTableRecord
100
AcDbLayerTableRecord
  2
0
 70
     0
 62
     7
  6
Continuous
370
    -3
390
F
  0
ENDTAB
  0
TABLE
  2
STYLE
  5
3
330
0
100
AcDbSymbolTable
 70
     1
  0
STYLE
  5
11
330
3
100
AcDbSymbolTableRecord
100
AcDbTextStyleTableRecord
  2
Standard
 70
     0
 40
0.0
 41
1.0
 50
0.0
 71
     0
 42
3.5
  3
txt
  4

  0
ENDTAB
  0
TABLE
  2
VIEW
  5
6
330
0
100
AcDbSymbolTable
 70
     0
  0
ENDTAB
  0
TABLE
  2
UCS
  5
7
330
0
100
AcDbSymbolTable
 70
     0
  0
ENDTAB
  0
TABLE
  2
APPID
  5
9
330
0
100
AcDbSymbolTable
 70
     1
  0
APPID
  5
12
330
9
100
AcDbSymbolTableRecord
100
AcDbRegAppTableRecord
  2
ACAD
 70
     0
  0
ENDTAB
  0
TABLE
  2
DIMSTYLE
  5
A
330
0
100
AcDbSymbolTable
 70
     1
100
AcDbDimStyleTable
  0
DIMSTYLE
105
27
330
A
100
AcDbSymbolTableRecord
100
AcDbDimStyleTableRecord
  2
ISO-25
 70
     0
 41
2.5
 42
0.625
 43
3.75
 44
1.25
 73
     0
 74
     0
 77
     1
 78
     8
140
2.5
141
2.5
143
0.0393700787
147
0.625
171
     3
172
     1
178
     0
271
     2
272
     2
274
     3
278
    44
283
     0
284
     8
340
11
  0
ENDTAB
  0
TABLE
  2
BLOCK_RECORD
  5
1
330
0
100
AcDbSymbolTable
 70
     1
  0
BLOCK_RECORD
  5
1F
330
1
100
AcDbSymbolTableRecord
100
AcDbBlockTableRecord
  2
*Model_Space
340
22
  0
BLOCK_RECORD
  5
1B
330
1
100
AcDbSymbolTableRecord
100
AcDbBlockTableRecord
  2
*Paper_Space
340
1E
  0
BLOCK_RECORD
  5
23
330
1
100
AcDbSymbolTableRecord
100
AcDbBlockTableRecord
  2
*Paper_Space0
340
26
  0
ENDTAB
  0
ENDSEC
  0
SECTION
  2
BLOCKS
  0
BLOCK
  5
20
330
1F
100
AcDbEntity
  8
0
100
AcDbBlockBegin
  2
*Model_Space
 70
     0
 10
0.0
 20
0.0
 30
0.0
  3
*Model_Space
  1
*Model_Space
  0
ENDBLK
  5
21
330
1F
100
AcDbEntity
  8
0
100
AcDbBlockEnd
  0
BLOCK
  5
1C
330
1B
100
AcDbEntity
 67
     1
  8
0
100
AcDbBlockBegin
  2
*Paper_Space
 70
     0
 10
0.0
 20
0.0
 30
0.0
  3
*Paper_Space
  1
*Paper_Space
  0
ENDBLK
  5
1D
330
1B
100
AcDbEntity
 67
     1
  8
0
100
AcDbBlockEnd
  0
BLOCK
  5
24
330
23
100
AcDbEntity
  8
0
100
AcDbBlockBegin
  2
*Paper_Space0
 70
     0
 10
0.0
 20
0.0
 30
0.0
  3
*Paper_Space0
  1
*Paper_Space0
  0
ENDBLK
  5
25
330
23
100
AcDbEntity
  8
0
100
AcDbBlockEnd
  0
ENDSEC
  0
SECTION
  2
ENTITIES
  0
SPLINE
  5
6F
330
1F
100
AcDbEntity
  8
0
  6
Continuous
 62
     7
370
    15
100
AcDbSpline
210
0.0
220
0.0
230
1.0
 70
     8
 71
     2
 72
     6
 73
     3
 74
     0
 42
0.000000001
 43
0.00000001
 40
0.0
 40
0.0
 40
0.0
 40
1.0
 40
1.0
 40
1.0
 10
-7.338641236175336
 20
18.17185739339351
 30
0.0
 10
-15.47665859322456
 20
15.17185739339349
 30
0.0
 10
-23.61467595027344
 20
18.17185739339351
 30
0.0
  0
SPLINE
  5
70
330
1F
100
AcDbEntity
  8
0
  6
Continuous
 62
     7
370
    15
100
AcDbSpline
210
0.0
220
0.0
230
1.0
 70
     8
 71
     2
 72
     6
 73
     3
 74
     0
 42
0.000000001
 43
0.00000001
 40
0.0
 40
0.0
 40
0.0
 40
1.0
 40
1.0
 40
1.0
 10
8.937393477922772
 20
18.17185739339339
 30
0.0
 10
0.7993761208732186
 20
21.17185739339345
 30
0.0
 10
-7.338641236175336
 20
18.17185739339351
 30
0.0
  0
LINE
  5
71
330
1F
100
AcDbEntity
  8
0
  6
Continuous
 62
     7
370
    15
100
AcDbLine
 10
0.9725812016
 20
4.3763978581
 30
0.0
 11
8.9373934779
 21
18.1718573934
 31
0.0
  0
LINE
  5
72
330
1F
100
AcDbEntity
  8
0
  6
Continuous
 62
     7
370
    15
100
AcDbLine
 10
-15.649863674
 20
4.3763978581
 30
0.0
 11
0.9725812016
 21
4.3763978581
 31
0.0
  0
LINE
  5
73
330
1F
100
AcDbEntity
  8
0
  6
Continuous
 62
     7
370
    15
100
AcDbLine
 10
-23.6146759503
 20
18.1718573934
 30
0.0
 11
-15.649863674
 21
4.3763978581
 31
0.0
  0
LINE
  5
74
330
1F
100
AcDbEntity
  8
0
  6
Continuous
 62
     7
370
    15
100
AcDbLine
 10
129.5500049268
 20
6.2718573934
 30
0.0
 11
125.9315838741
 21
6.2718573934
 31
0.0
  0
LINE
  5
75
330
1F
100
AcDbEntity
  8
0
  6
Continuous
 62
     7
370
    15
100
AcDbLine
 10
125.9315838741
 20
6.2718573934
 30
0.0
 11
126.003541111
 21
22.8066024592
 31
0.0
  0
SPLINE
  5
76
330
1F
100
AcDbEntity
  8
0
  6
Continuous
 62
     7
370
    15
100
AcDbSpline
210
0.0
220
0.0
230
1.0
 70
     8
 71
     3
 72
    15
 73
    11
 74
     0
 42
0.000000001
 43
0.00000001
 40
0.0
 40
0.0
 40
0.0
 40
0.0
 40
0.1352285390563782
 40
0.2661826110423977
 40
0.391571298445152
 40
0.514840612753384
 40
0.6355362847583401
 40
0.7565466906310355
 40
0.8768626788974581
 40
1.0
 40
1.0
 40
1.0
 40
1.0
 10
126.0035411109754
 20
22.80660245918301
 30
0.0
 10
126.0097897144344
 20
23.1187806104439
 30
0.0
 10
126.0220894079436
 20
23.73326920872987
 30
0.0
 10
126.1384052758699
 20
24.63100560190503
 30
0.0
 10
126.3223086729544
 20
25.48853864650323
 30
0.0
 10
126.5847349445675
 20
26.30101102486532
 30
0.0
 10
126.9213684205482
 20
27.07452980131398
 30
0.0
 10
127.3319675894317
 20
27.80356291959997
 30
0.0
 10
127.8190609665895
 20
28.49180127596578
 30
0.0
 10
128.197166081448
 20
28.90784666292918
 30
0.0
 10
128.388409532028
 20
29.11828009076195
 30
0.0
  0
SPLINE
  5
77
330
1F
100
AcDbEntity
  8
0
  6
Continuous
 62
     7
370
    15
100
AcDbSpline
210
0.0
220
0.0
230
1.0
 70
     8
 71
     3
 72
    15
 73
    11
 74
     0
 42
0.000000001
 43
0.00000001
 40
0.0
 40
0.0
 40
0.0
 40
0.0
 40
0.1280062569368446
 40
0.2520348709731982
 40
0.3745626681129679
 40
0.4955957338800484
 40
0.6178695668815268
 40
0.7420113951862889
 40
0.8684151317141416
 40
1.0
 40
1.0
 40
1.0
 40
1.0
 10
128.388409532028
 20
29.11828009076195
 30
0.0
 10
128.592050952634
 20
29.3159747094452
 30
0.0
 10
128.9930058777713
 20
29.70522082056701
 30
0.0
 10
129.6522144110768
 20
30.21291593151543
 30
0.0
 10
130.3476081610911
 20
30.63944790531734
 30
0.0
 10
131.0783673826859
 20
30.99390884414026
 30
0.0
 10
131.8476087333042
 20
31.26560237827318
 30
0.0
 10
132.6514343249441
 20
31.46185928952551
 30
0.0
 10
133.4924096111026
 20
31.57568375923315
 30
0.0
 10
134.064122928484
 20
31.59231972871007
 30
0.0
 10
134.3557203872912
 20
31.60080476181458
 30
0.0
  0
SPLINE
  5
78
330
1F
100
AcDbEntity
  8
0
  6
Continuous
 62
     7
370
    15
100
AcDbSpline
210
0.0
220
0.0
230
1.0
 70
     8
 71
     3
 72
    15
 73
    11
 74
     0
 42
0.000000001
 43
0.00000001
 40
0.0
 40
0.0
 40
0.0
 40
0.0
 40
0.1361207445247549
 40
0.266479264034771
 40
0.3923414855678226
 40
0.5155122937737406
 40
0.635890716460978
 40
0.7561806197489452
 40
0.8770955745624716
 40
1.0
 40
1.0
 40
1.0
 40
1.0
 10
134.3557203872912
 20
31.60080476181458
 30
0.0
 10
134.6712642321267
 20
31.59226975365574
 30
0.0
 10
135.2889944086406
 20
31.57556103889929
 30
0.0
 10
136.1933653377635
 20
31.46342470089213
 30
0.0
 10
137.0517542129729
 20
31.26615868198257
 30
0.0
 10
137.865919507979
 20
30.99590886223346
 30
0.0
 10
138.6335279953468
 20
30.64225393089855
 30
0.0
 10
139.3554312628052
 20
30.21400983150543
 30
0.0
 10
140.035553235071
 20
29.71011089361336
 30
0.0
 10
140.4419715458538
 20
29.31662724917482
 30
0.0
 10
140.6468388083438
 20
29.11828009076195
 30
0.0
  0
SPLINE
  5
79
330
1F
100
AcDbEntity
  8
0
  6
Continuous
 62
     7
370
    15
100
AcDbSpline
210
0.0
220
0.0
230
1.0
 70
     8
 71
     3
 72
    15
 73
    11
 74
     0
 42
0.000000001
 43
0.00000001
 40
0.0
 40
0.0
 40
0.0
 40
0.0
 40
0.1131628250388898
 40
0.2267118285123534
 40
0.3423996109978439
 40
0.4620986888562453
 40
0.5868127069401589
 40
0.7177061754332033
 40
0.8551910244139087
 40
0.9999999999999999
 40
0.9999999999999999
 40
0.9999999999999999
 40
0.9999999999999999
 10
140.6468388083438
 20
29.11828009076195
 30
0.0
 10
140.8391268189062
 20
28.9016280851708
 30
0.0
 10
141.224359040359
 20
28.46758472931114
 30
0.0
 10
141.7053893908724
 20
27.73277622274756
 30
0.0
 10
142.1201265022246
 20
26.94155081727386
 30
0.0
 10
142.4597474487847
 20
26.0838227041763
 30
0.0
 10
142.7215957942011
 20
25.15894377324839
 30
0.0
 10
142.9020232373298
 20
24.16917303841195
 30
0.0
 10
143.0191516239445
 20
23.11780231641788
 30
0.0
 10
143.0308474133971
 20
22.39574699803577
 30
0.0
 10
143.036847032028
 20
22.025352459183
 30
0.0
  0
LINE
  5
7A
330
1F
100
AcDbEntity
  8
0
  6
Continuous
 62
     7
370
    15
100
AcDbLine
 10
143.036847032
 20
22.0253524592
 30
0.0
 11
143.036847032
 21
6.2718573934
 31
0.0
  0
LINE
  5
7B
330
1F
100
AcDbEntity
  8
0
  6
Continuous
 62
     7
370
    15
100
AcDbLine
 10
143.036847032
 20
6.2718573934
 30
0.0
 11
139.4184259794
 21
6.2718573934
 31
0.0
  0
LINE
  5
7C
330
1F
100
AcDbEntity
  8
0
  6
Continuous
 62
     7
370
    15
100
AcDbLine
 10
139.4184259794
 20
6.2718573934
 30
0.0
 11
139.4184259794
 21
17.4560679197
 31
0.0
  0
LINE
  5
7D
330
1F
100
AcDbEntity
  8
0
  6
Continuous
 62
     7
370
    15
100
AcDbLine
 10
139.4184259794
 20
17.4560679197
 30
0.0
 11
130.8709342031
 21
17.4560679197
 31
0.0
  0
LINE
  5
7E
330
1F
100
AcDbEntity
  8
0
  6
Continuous
 62
     7
370
    15
100
AcDbLine
 10
130.8709342031
 20
17.4560679197
 30
0.0
 11
130.8709342031
 21
20.7455416039
 31
0.0
  0
LINE
  5
7F
330
1F
100
AcDbEntity
  8
0
  6
Continuous
 62
     7
370
    15
100
AcDbLine
 10
130.8709342031
 20
20.7455416039
 30
0.0
 11
139.4184259794
 21
20.7455416039
 31
0.0
  0
SPLINE
  5
80
330
1F
100
AcDbEntity
  8
0
  6
Continuous
 62
     7
370
    15
100
AcDbSpline
210
0.0
220
0.0
230
1.0
 70
     8
 71
     3
 72
    23
 73
    19
 74
     0
 42
0.000000001
 43
0.00000001
 40
0.0
 40
0.0
 40
0.0
 40
0.0
 40
0.0898262950061511
 40
0.1742628314412885
 40
0.2529881489334749
 40
0.3268129819474118
 40
0.3955826155972157
 40
0.4598780654270643
 40
0.5201712704386048
 40
0.57686804299878
 40
0.6306527213768766
 40
0.6827571509391026
 40
0.7333421442870811
 40
0.7836141961374893
 40
0.8342268569875637
 40
0.8872417302287161
 40
0.9419018914766342
 40
1.0
 40
1.0
 40
1.0
 40
1.0
 10
139.4184259793964
 20
20.74554160391985
 30
0.0
 10
139.4143543233348
 20
21.05059555830708
 30
0.0
 10
139.4064553187737
 20
21.64239961557383
 30
0.0
 10
139.3493962397801
 20
22.5000447760571
 30
0.0
 10
139.2591790305955
 20
23.30001285622534
 30
0.0
 10
139.1286160575685
 20
24.0410387068389
 30
0.0
 10
138.9499662673626
 20
24.72081273219445
 30
0.0
 10
138.7521077377201
 20
25.34804699903315
 30
0.0
 10
138.49459184432
 20
25.90833396749067
 30
0.0
 10
138.216276770471
 20
26.41818556384201
 30
0.0
 10
137.8885086675843
 20
26.86449594154764
 30
0.0
 10
137.5235968739991
 20
27.25278068950064
 30
0.0
 10
137.1177316142744
 20
27.57935639065449
 30
0.0
 10
136.6785307810191
 20
27.85005998434153
 30
0.0
 10
136.1969778794063
 20
28.0576391488401
 30
0.0
 10
135.6787394379002
 20
28.20494147867729
 30
0.0
 10
135.1211533841818
 20
28.29382900548864
 30
0.0
 10
134.7381128916515
 20
28.30537966217963
 30
0.0
 10
134.540753282028
 20
28.31133107760406
 30
0.0
  0
SPLINE
  5
81
330
1F
100
AcDbEntity
  8
0
  6
Continuous
 62
     7
370
    15
100
AcDbSpline
210
0.0
220
0.0
230
1.0
 70
     8
 71
     3
 72
    15
 73
    11
 74
     0
 42
0.000000001
 43
0.00000001
 40
0.0
 40
0.0
 40
0.0
 40
0.0
 40
0.1372089107500975
 40
0.2661401312114078
 40
0.3907501732248891
 40
0.5105829457556176
 40
0.6301587357993991
 40
0.7499322536178203
 40
0.8722858348889865
 40
0.9999999999999999
 40
0.9999999999999999
 40
0.9999999999999999
 40
0.9999999999999999
 10
134.540753282028
 20
28.31133107760406
 30
0.0
 10
134.3244744196742
 20
28.30626224399654
 30
0.0
 10
133.9049646043829
 20
28.29643037495816
 30
0.0
 10
133.2957823821697
 20
28.19564393878338
 30
0.0
 10
132.7292683487739
 20
28.03274827046265
 30
0.0
 10
132.2020664831136
 20
27.80343884577135
 30
0.0
 10
131.7153353777666
 20
27.51090996699166
 30
0.0
 10
131.276884647243
 20
27.1447077623462
 30
0.0
 10
130.8737999746676
 20
26.72117833053034
 30
0.0
 10
130.6507584249289
 20
26.39585803045039
 30
0.0
 10
130.536847032028
 20
26.22971101181458
 30
0.0
  0
SPLINE
  5
82
330
1F
100
AcDbEntity
  8
0
  6
Continuous
 62
     7
370
    15
100
AcDbSpline
210
0.0
220
0.0
230
1.0
 70
     8
 71
     3
 72
    11
 73
     7
 74
     0
 42
0.000000001
 43
0.00000001
 40
0.0
 40
0.0
 40
0.0
 40
0.0
 40
0.244176549123443
 40
0.4887300550664605
 40
0.7390063888351568
 40
1.0
 40
1.0
 40
1.0
 40
1.0
 10
130.536847032028
 20
26.22971101181458
 30
0.0
 10
130.3841792350931
 20
25.96662160724483
 30
0.0
 10
130.0786079545147
 20
25.440036643847
 30
0.0
 10
129.7756306721138
 20
24.56782015641832
 30
0.0
 10
129.5829416360519
 20
23.64436356688775
 30
0.0
 10
129.5611361922879
 20
23.00806536256971
 30
0.0
 10
129.5500049267648
 20
22.68324719602511
 30
0.0
  0
LINE
  5
83
330
1F
100
AcDbEntity
  8
0
  6
Continuous
 62
     7
370
    15
100
AcDbLine
 10
129.5500049268
 20
22.683247196
 30
0.0
 11
129.5500049268
 21
6.2718573934
 31
0.0
  0
LINE
  5
84
330
1F
100
AcDbEntity
  8
0
  6
Continuous
 62
     7
370
    15
100
AcDbLine
 10
107.5105312426
 20
23.6803689066
 30
0.0
 11
107.5105312426
 21
31.2718573934
 31
0.0
  0
LINE
  5
85
330
1F
100
AcDbEntity
  8
0
  6
Continuous
 62
     7
370
    15
100
AcDbLine
 10
107.5105312426
 20
31.2718573934
 30
0.0
 11
111.1289522952
 21
31.2718573934
 31
0.0
  0
LINE
  5
86
330
1F
100
AcDbEntity
  8
0
  6
Continuous
 62
     7
370
    15
100
AcDbLine
 10
111.1289522952
 20
31.2718573934
 30
0.0
 11
111.1289522952
 21
23.3565613408
 31
0.0
  0
SPLINE
  5
87
330
1F
100
AcDbEntity
  8
0
  6
Continuous
 62
     7
370
    15
100
AcDbSpline
210
0.0
220
0.0
230
1.0
 70
     8
 71
     3
 72
    15
 73
    11
 74
     0
 42
0.000000001
 43
0.00000001
 40
0.0
 40
0.0
 40
0.0
 40
0.0
 40
0.1365522393538676
 40
0.2674189721066057
 40
0.3930711556152992
 40
0.5167685810520773
 40
0.6382635023157842
 40
0.7573990743015663
 40
0.8783342397656664
 40
1.0
 40
1.0
 40
1.0
 40
1.0
 10
111.1289522951859
 20
23.35656134076195
 30
0.0
 10
111.1311476198041
 20
23.2158635019007
 30
0.0
 10
111.1354468642223
 20
22.94032593749361
 30
0.0
 10
111.1915622925348
 20
22.5388712737392
 30
0.0
 10
111.2655642390875
 20
22.15423258947436
 30
0.0
 10
111.3782833449398
 20
21.78840126510743
 30
0.0
 10
111.5298284538971
 20
21.44472071485587
 30
0.0
 10
111.7049025766828
 20
21.11578599027413
 30
0.0
 10
111.9150501906142
 20
20.80703405661835
 30
0.0
 10
112.0795533454061
 20
20.61888694825805
 30
0.0
 10
112.1620526241333
 20
20.52453009076196
 30
0.0
  0
SPLINE
  5
88
330
1F
100
AcDbEntity
  8
0
  6
Continuous
 62
     7
370
    15
100
AcDbSpline
210
0.0
220
0.0
230
1.0
 70
     8
 71
     3
 72
    15
 73
    11
 74
     0
 42
0.000000001
 43
0.00000001
 40
0.0
 40
0.0
 40
0.0
 40
0.0
 40
0.1116025878901895
 40
0.2253605914106681
 40
0.3404259687382181
 40
0.4596445687629607
 40
0.5829890661014423
 40
0.714742079481496
 40
0.8533842552466406
 40
1.0
 40
1.0
 40
1.0
 40
1.0
 10
112.1620526241333
 20
20.52453009076195
 30
0.0
 10
112.2727165082718
 20
20.41723261524928
 30
0.0
 10
112.4961815627003
 20
20.20056539457336
 30
0.0
 10
112.8783108100863
 20
19.92479320650822
 30
0.0
 10
113.2984164415009
 20
19.68962608942615
 30
0.0
 10
113.7588601246092
 20
19.50955123374327
 30
0.0
 10
114.2525647511317
 20
19.35620888421859
 30
0.0
 10
114.7864017059938
 20
19.25050483451458
 30
0.0
 10
115.3592657638984
 20
19.18911795344175
 30
0.0
 10
115.7529055408972
 20
19.18170954562067
 30
0.0
 10
115.9552269662386
 20
19.17790180128827
 30
0.0
  0
SPLINE
  5
89
330
1F
100
AcDbEntity
  8
0
  6
Continuous
 62
     7
370
    15
100
AcDbSpline
210
0.0
220
0.0
230
1.0
 70
     8
 71
     3
 72
    15
 73
    11
 74
     0
 42
0.000000001
 43
0.00000001
 40
0.0
 40
0.0
 40
0.0
 40
0.0
 40
0.1435126865432599
 40
0.2781543229354944
 40
0.4053536208846391
 40
0.5279752353895177
 40
0.6456131543871308
 40
0.7625836092486552
 40
0.8799859897150147
 40
1.0
 40
1.0
 40
1.0
 40
1.0
 10
115.9552269662386
 20
19.17790180128827
 30
0.0
 10
116.1508032738161
 20
19.18251317008964
 30
0.0
 10
116.5298665937692
 20
19.19145086192474
 30
0.0
 10
117.0779420594289
 20
19.26942939612031
 30
0.0
 10
117.5865467802037
 20
19.39801327354087
 30
0.0
 10
118.056099211674
 20
19.57565391597029
 30
0.0
 10
118.4836901432938
 20
19.81126945183094
 30
0.0
 10
118.871501424392
 20
20.0951670189323
 30
0.0
 10
119.2214375549954
 20
20.43104892426246
 30
0.0
 10
119.4144184996449
 20
20.69115499666669
 30
0.0
 10
119.5119703872912
 20
20.82263864339353
 30
0.0
  0
SPLINE
  5
8A
330
1F
100
AcDbEntity
  8
0
  6
Continuous
 62
     7
370
    15
100
AcDbSpline
210
0.0
220
0.0
230
1.0
 70
     8
 71
     3
 72
    11
 73
     7
 74
     0
 42
0.000000001
 43
0.00000001
 40
0.0
 40
0.0
 40
0.0
 40
0.0
 40
0.2481922885719471
 40
0.4940863589192888
 40
0.7424895160837088
 40
1.0
 40
1.0
 40
1.0
 40
1.0
 10
119.5119703872912
 20
20.82263864339353
 30
0.0
 10
119.6384165781099
 20
21.02130616268425
 30
0.0
 10
119.8901380896052
 20
21.4168015739505
 30
0.0
 10
120.1519694054722
 20
22.07363099088005
 30
0.0
 10
120.3113856601815
 20
22.77151822651168
 30
0.0
 10
120.3300025817058
 20
23.25118513675375
 30
0.0
 10
120.3394786109754
 20
23.49533601181458
 30
0.0
  0
LINE
  5
8B
330
1F
100
AcDbEntity
  8
0
  6
Continuous
 62
     7
370
    15
100
AcDbLine
 10
120.339478611
 20
23.4953360118
 30
0.0
 11
120.339478611
 21
31.2718573934
 31
0.0
  0
LINE
  5
8C
330
1F
100
AcDbEntity
  8
0
  6
Continuous
 62
     7
370
    15
100
AcDbLine
 10
120.339478611
 20
31.2718573934
 30
0.0
 11
123.9578996636
 21
31.2718573934
 31
0.0
  0
LINE
  5
8D
330
1F
100
AcDbEntity
  8
0
  6
Continuous
 62
     7
370
    15
100
AcDbLine
 10
123.9578996636
 20
31.2718573934
 30
0.0
 11
123.9578996636
 21
23.3514215381
 31
0.0
  0
SPLINE
  5
8E
330
1F
100
AcDbEntity
  8
0
  6
Continuous
 62
     7
370
    15
100
AcDbSpline
210
0.0
220
0.0
230
1.0
 70
     8
 71
     3
 72
    15
 73
    11
 74
     0
 42
0.000000001
 43
0.00000001
 40
0.0
 40
0.0
 40
0.0
 40
0.0
 40
0.1295032531061922
 40
0.2547144568587252
 40
0.3775463052297557
 40
0.499144684925085
 40
0.620658748156077
 40
0.7439936879064181
 40
0.8698749934855983
 40
1.0
 40
1.0
 40
1.0
 40
1.0
 10
123.957899663607
 20
23.35142153813037
 30
0.0
 10
123.9531598819227
 20
23.1111437989442
 30
0.0
 10
123.9438374063214
 20
22.63855170288415
 30
0.0
 10
123.8347222275725
 20
21.94528964666
 30
0.0
 10
123.6707561856701
 20
21.27937962345626
 30
0.0
 10
123.4466669827544
 20
20.6374624056889
 30
0.0
 10
123.1440908714291
 20
20.02738522827125
 30
0.0
 10
122.7761145709066
 20
19.44603113065036
 30
0.0
 10
122.3496436002155
 20
18.88490204371572
 30
0.0
 10
122.0187632080853
 20
18.54415202633827
 30
0.0
 10
121.8505805846596
 20
18.37095278813037
 30
0.0
  0
SPLINE
  5
8F
330
1F
100
AcDbEntity
  8
0
  6
Continuous
 62
     7
370
    15
100
AcDbSpline
210
0.0
220
0.0
230
1.0
 70
     8
 71
     3
 72
    15
 73
    11
 74
     0
 42
0.000000001
 43
0.00000001
 40
0.0
 40
0.0
 40
0.0
 40
0.0
 40
0.1264568058775104
 40
0.2515187134261062
 40
0.3745846824350669
 40
0.4974149203955806
 40
0.6210250669183007
 40
0.7461357537345182
 40
0.8718060412683868
 40
1.0
 40
1.0
 40
1.0
 40
1.0
 10
121.8505805846596
 20
18.37095278813037
 30
0.0
 10
121.691284641916
 20
18.22673091350267
 30
0.0
 10
121.3744498911501
 20
17.93987802248945
 30
0.0
 10
120.8716381781669
 20
17.54838557876714
 30
0.0
 10
120.3429714687247
 20
17.20437767979332
 30
0.0
 10
119.7974346013693
 20
16.89290214404976
 30
0.0
 10
119.2250487201031
 20
16.62467255943996
 30
0.0
 10
118.6286704047561
 20
16.40280443538314
 30
0.0
 10
118.0150480164474
 20
16.20500934521526
 30
0.0
 10
117.5923847711129
 20
16.1176001021485
 30
0.0
 10
117.3789522951859
 20
16.07346101181458
 30
0.0
  0
LINE
  5
90
330
1F
100
AcDbEntity
  8
0
  6
Continuous
 62
     7
370
    15
100
AcDbLine
 10
117.3789522952
 20
16.0734610118
 30
0.0
 11
117.3789522952
 21
6.2718573934
 31
0.0
  0
LINE
  5
91
330
1F
100
AcDbEntity
  8
0
  6
Continuous
 62
     7
370
    15
100
AcDbLine
 10
117.3789522952
 20
6.2718573934
 30
0.0
 11
113.7605312426
 21
6.2718573934
 31
0.0
  0
LINE
  5
92
330
1F
100
AcDbEntity
  8
0
  6
Continuous
 62
     7
370
    15
100
AcDbLine
 10
113.7605312426
 20
6.2718573934
 30
0.0
 11
113.7605312426
 21
16.0734610118
 31
0.0
  0
SPLINE
  5
93
330
1F
100
AcDbEntity
  8
0
  6
Continuous
 62
     7
370
    15
100
AcDbSpline
210
0.0
220
0.0
230
1.0
 70
     8
 71
     3
 72
    11
 73
     7
 74
     0
 42
0.000000001
 43
0.00000001
 40
0.0
 40
0.0
 40
0.0
 40
0.0
 40
0.2654804168525841
 40
0.5190620694416872
 40
0.761721981313018
 40
1.0
 40
1.0
 40
1.0
 40
1.0
 10
113.7605312425544
 20
16.07346101181458
 30
0.0
 10
113.3767490100081
 20
16.18207230337825
 30
0.0
 10
112.626385566248
 20
16.39442695624544
 30
0.0
 10
111.5830699076245
 20
16.8676904273188
 30
0.0
 10
110.6223856467758
 20
17.41595721883692
 30
0.0
 10
110.0675124469655
 20
17.8792747593356
 30
0.0
 10
109.7926036109754
 20
18.10882285391985
 30
0.0
  0
SPLINE
  5
94
330
1F
100
AcDbEntity
  8
0
  6
Continuous
 62
     7
370
    15
100
AcDbSpline
210
0.0
220
0.0
230
1.0
 70
     8
 71
     3
 72
    15
 73
    11
 74
     0
 42
0.000000001
 43
0.00000001
 40
0.0
 40
0.0
 40
0.0
 40
0.0
 40
0.1236213792114568
 40
0.2446050492747362
 40
0.3648289446764396
 40
0.4849014515136857
 40
0.6077877450577898
 40
0.7335967960391602
 40
0.8640055049506903
 40
1.0
 40
1.0
 40
1.0
 40
1.0
 10
109.7926036109754
 20
18.10882285391985
 30
0.0
 10
109.6100200444572
 20
18.28815043407812
 30
0.0
 10
109.2487486966545
 20
18.64297928213605
 30
0.0
 10
108.7870572324928
 20
19.24214062142219
 30
0.0
 10
108.3857385625076
 20
19.87399733853982
 30
0.0
 10
108.0677237461688
 20
20.55623342474958
 30
0.0
 10
107.8123174967346
 20
21.2764359993433
 30
0.0
 10
107.6425116441186
 20
22.04313104895507
 30
0.0
 10
107.5295235376975
 20
22.84778515863418
 30
0.0
 10
107.5169498865828
 20
23.39898855407229
 30
0.0
 10
107.5105312425544
 20
23.68036890655143
 30
0.0
  0
LINE
  5
95
330
1F
100
AcDbEntity
  8
0
  6
Continuous
 62
     7
370
    15
100
AcDbLine
 10
95.339478611
 20
13.6526139723
 30
0.0
 11
95.339478611
 21
31.2718573934
 31
0.0
  0
LINE
  5
96
330
1F
100
AcDbEntity
  8
0
  6
Continuous
 62
     7
370
    15
100
AcDbLine
 10
95.339478611
 20
31.2718573934
 30
0.0
 11
98.6289522952
 21
31.2718573934
 31
0.0
  0
LINE
  5
97
330
1F
100
AcDbEntity
  8
0
  6
Continuous
 62
     7
370
    15
100
AcDbLine
 10
98.6289522952
 20
31.2718573934
 30
0.0
 11
98.6289522952
 21
15.0917587092
 31
0.0
  0
SPLINE
  5
98
330
1F
100
AcDbEntity
  8
0
  6
Continuous
 62
     7
370
    15
100
AcDbSpline
210
0.0
220
0.0
230
1.0
 70
     8
 71
     3
 72
    15
 73
    11
 74
     0
 42
0.000000001
 43
0.00000001
 40
0.0
 40
0.0
 40
0.0
 40
0.0
 40
0.1542041357470699
 40
0.2992317835763392
 40
0.4356683870534953
 40
0.5616004959483578
 40
0.6800783481867543
 40
0.79283515342058
 40
0.8990538020015012
 40
1.0
 40
1.0
 40
1.0
 40
1.0
 10
98.62895229518593
 20
15.09175870918301
 30
0.0
 10
98.63134408443413
 20
14.87235366828161
 30
0.0
 10
98.63598533065768
 20
14.44660009561318
 30
0.0
 10
98.68794001264298
 20
13.82847800583447
 30
0.0
 10
98.77362372564079
 20
13.25482146998706
 30
0.0
 10
98.89298038482347
 20
12.72606327232171
 30
0.0
 10
99.03819211429008
 20
12.23819569471263
 30
0.0
 10
99.23041153922883
 20
11.79753086526492
 30
0.0
 10
99.44820091174766
 20
11.39635840651727
 30
0.0
 10
99.62654707099871
 20
11.16128121629022
 30
0.0
 10
99.71345065044908
 20
11.04673403813037
 30
0.0
  0
SPLINE
  5
99
330
1F
100
AcDbEntity
  8
0
  6
Continuous
 62
     7
370
    15
100
AcDbSpline
210
0.0
220
0.0
230
1.0
 70
     8
 71
     3
 72
    15
 73
    11
 74
     0
 42
0.000000001
 43
0.00000001
 40
0.0
 40
0.0
 40
0.0
 40
0.0
 40
0.1088815842230589
 40
0.2186210960385774
 40
0.331768711079192
 40
0.4494093824702075
 40
0.5739107188563745
 40
0.7062518871558433
 40
0.8482618665717898
 40
1.0
 40
1.0
 40
1.0
 40
1.0
 10
99.71345065044908
 20
11.04673403813037
 30
0.0
 10
99.82114904599699
 20
10.92634656716489
 30
0.0
 10
100.0373944418029
 20
10.68462303751945
 30
0.0
 10
100.4328082847686
 20
10.38910709593125
 30
0.0
 10
100.8656149221692
 20
10.1297560116015
 30
0.0
 10
101.3483246652108
 20
9.916490069976454
 30
0.0
 10
101.8817777523527
 20
9.7623922538313
 30
0.0
 10
102.4602409674082
 20
9.640859058559547
 30
0.0
 10
103.08893571656
 20
9.57805382323188
 30
0.0
 10
103.523643594524
 20
9.567027051898647
 30
0.0
 10
103.7481957162386
 20
9.561331077604057
 30
0.0
  0
LINE
  5
9A
330
1F
100
AcDbEntity
  8
0
  6
Continuous
 62
     7
370
    15
100
AcDbLine
 10
103.7481957162
 20
9.5613310776
 30
0.0
 11
106.9194539399
 21
9.5613310776
 31
0.0
  0
LINE
  5
9B
330
1F
100
AcDbEntity
  8
0
  6
Continuous
 62
     7
370
    15
100
AcDbLine
 10
106.9194539399
 20
9.5613310776
 30
0.0
 11
106.9194539399
 21
6.2718573934
 31
0.0
  0
LINE
  5
9C
330
1F
100
AcDbEntity
  8
0
  6
Continuous
 62
     7
370
    15
100
AcDbLine
 10
106.9194539399
 20
6.2718573934
 30
0.0
 11
102.8898486768
 21
6.2718573934
 31
0.0
  0
SPLINE
  5
9D
330
1F
100
AcDbEntity
  8
0
  6
Continuous
 62
     7
370
    15
100
AcDbSpline
210
0.0
220
0.0
230
1.0
 70
     8
 71
     3
 72
    15
 73
    11
 74
     0
 42
0.000000001
 43
0.00000001
 40
0.0
 40
0.0
 40
0.0
 40
0.0
 40
0.1264160208196918
 40
0.2505085441761074
 40
0.373181685580367
 40
0.4960253537345522
 40
0.6191471792183344
 40
0.7443579156852751
 40
0.8710764882440022
 40
1.0
 40
1.0
 40
1.0
 40
1.0
 10
102.8898486767649
 20
6.271857393393532
 30
0.0
 10
102.6755131063255
 20
6.277204551751177
 30
0.0
 10
102.2507814040637
 20
6.287800588922472
 30
0.0
 10
101.6211685642421
 20
6.360079823772041
 30
0.0
 10
101.0067252685839
 20
6.485914703701494
 30
0.0
 10
100.4039524945517
 20
6.653592744885573
 30
0.0
 10
99.81467610827731
 20
6.876972034190725
 30
0.0
 10
99.24010119193137
 20
7.150477846534987
 30
0.0
 10
98.67694086518051
 20
7.468148806361521
 30
0.0
 10
98.3204525678933
 20
7.715004680393109
 30
0.0
 10
98.14067104518593
 20
7.839497196025111
 30
0.0
  0
SPLINE
  5
9E
330
1F
100
AcDbEntity
  8
0
  6
Continuous
 62
     7
370
    15
100
AcDbSpline
210
0.0
220
0.0
230
1.0
 70
     8
 71
     3
 72
    15
 73
    11
 74
     0
 42
0.000000001
 43
0.00000001
 40
0.0
 40
0.0
 40
0.0
 40
0.0
 40
0.1262005137157253
 40
0.2479736237178765
 40
0.3682639265961598
 40
0.4878536763040164
 40
0.6083506783278972
 40
0.7336501889646803
 40
0.8636198698440244
 40
1.0
 40
1.0
 40
1.0
 40
1.0
 10
98.14067104518593
 20
7.839497196025111
 30
0.0
 10
97.91632606866538
 20
8.011915852852525
 30
0.0
 10
97.47550665238306
 20
8.350704324239985
 30
0.0
 10
96.90765957633404
 20
8.95293688157851
 30
0.0
 10
96.4209962962821
 20
9.601932061502641
 30
0.0
 10
96.02090369979244
 20
10.30563175329521
 30
0.0
 10
95.71695403962464
 20
11.06746022018685
 30
0.0
 10
95.49529946514372
 20
11.8808694718209
 30
0.0
 10
95.36729353903812
 20
12.75083452167059
 30
0.0
 10
95.3488978349304
 20
13.34723613405402
 30
0.0
 10
95.33947861097539
 20
13.6526139723409
 30
0.0
  0
LINE
  5
9F
330
1F
100
AcDbEntity
  8
0
  6
Continuous
 62
     7
370
    15
100
AcDbLine
 10
78.2342154531
 20
6.2718573934
 30
0.0
 11
74.6157944004
 21
6.2718573934
 31
0.0
  0
LINE
  5
A0
330
1F
100
AcDbEntity
  8
0
  6
Continuous
 62
     7
370
    15
100
AcDbLine
 10
74.6157944004
 20
6.2718573934
 30
0.0
 11
74.6877516373
 21
22.8066024592
 31
0.0
  0
SPLINE
  5
A1
330
1F
100
AcDbEntity
  8
0
  6
Continuous
 62
     7
370
    15
100
AcDbSpline
210
0.0
220
0.0
230
1.0
 70
     8
 71
     3
 72
    15
 73
    11
 74
     0
 42
0.000000001
 43
0.00000001
 40
0.0
 40
0.0
 40
0.0
 40
0.0
 40
0.135228539056378
 40
0.2661826110423973
 40
0.3915712984451515
 40
0.5148406127533827
 40
0.6355362847583395
 40
0.7565466906310355
 40
0.8768626788974555
 40
1.0
 40
1.0
 40
1.0
 40
1.0
 10
74.68775163729119
 20
22.80660245918301
 30
0.0
 10
74.6940002407502
 20
23.1187806104439
 30
0.0
 10
74.70629993425936
 20
23.73326920872987
 30
0.0
 10
74.82261580218571
 20
24.63100560190502
 30
0.0
 10
75.00651919927022
 20
25.48853864650323
 30
0.0
 10
75.2689454708833
 20
26.30101102486534
 30
0.0
 10
75.60557894686404
 20
27.07452980131398
 30
0.0
 10
76.01617811574742
 20
27.80356291959993
 30
0.0
 10
76.50327149290531
 20
28.49180127596579
 30
0.0
 10
76.88137660776384
 20
28.90784666292919
 30
0.0
 10
77.07262005834384
 20
29.11828009076196
 30
0.0
  0
SPLINE
  5
A2
330
1F
100
AcDbEntity
  8
0
  6
Continuous
 62
     7
370
    15
100
AcDbSpline
210
0.0
220
0.0
230
1.0
 70
     8
 71
     3
 72
    15
 73
    11
 74
     0
 42
0.000000001
 43
0.00000001
 40
0.0
 40
0.0
 40
0.0
 40
0.0
 40
0.1280062569368448
 40
0.2520348709731952
 40
0.3745626681129651
 40
0.4955957338800495
 40
0.6178695668815262
 40
0.7420113951862906
 40
0.8684151317141414
 40
1.0
 40
1.0
 40
1.0
 40
1.0
 10
77.07262005834383
 20
29.11828009076195
 30
0.0
 10
77.27626147894978
 20
29.31597470944519
 30
0.0
 10
77.67721640408715
 20
29.70522082056699
 30
0.0
 10
78.3364249373925
 20
30.21291593151543
 30
0.0
 10
79.03181868740691
 20
30.63944790531735
 30
0.0
 10
79.76257790900169
 20
30.99390884414025
 30
0.0
 10
80.53181925961998
 20
31.26560237827318
 30
0.0
 10
81.33564485125984
 20
31.46185928952552
 30
0.0
 10
82.1766201374184
 20
31.57568375923314
 30
0.0
 10
82.74833345479978
 20
31.59231972871008
 30
0.0
 10
83.03993091360698
 20
31.60080476181458
 30
0.0
  0
SPLINE
  5
A3
330
1F
100
AcDbEntity
  8
0
  6
Continuous
 62
     7
370
    15
100
AcDbSpline
210
0.0
220
0.0
230
1.0
 70
     8
 71
     3
 72
    15
 73
    11
 74
     0
 42
0.000000001
 43
0.00000001
 40
0.0
 40
0.0
 40
0.0
 40
0.0
 40
0.1361207445247547
 40
0.2664792640347726
 40
0.3923414855678221
 40
0.5155122937737381
 40
0.6358907164609789
 40
0.7561806197489427
 40
0.8770955745624688
 40
1.0
 40
1.0
 40
1.0
 40
1.0
 10
83.03993091360698
 20
31.60080476181458
 30
0.0
 10
83.35547475844253
 20
31.59226975365574
 30
0.0
 10
83.97320493495644
 20
31.5755610388993
 30
0.0
 10
84.87757586407925
 20
31.46342470089213
 30
0.0
 10
85.73596473928868
 20
31.26615868198256
 30
0.0
 10
86.55013003429481
 20
30.99590886223344
 30
0.0
 10
87.31773852166252
 20
30.64225393089857
 30
0.0
 10
88.039641789121
 20
30.21400983150541
 30
0.0
 10
88.71976376138679
 20
29.71011089361337
 30
0.0
 10
89.12618207216956
 20
29.31662724917482
 30
0.0
 10
89.33104933465961
 20
29.11828009076195
 30
0.0
  0
SPLINE
  5
A4
330
1F
100
AcDbEntity
  8
0
  6
Continuous
 62
     7
370
    15
100
AcDbSpline
210
0.0
220
0.0
230
1.0
 70
     8
 71
     3
 72
    15
 73
    11
 74
     0
 42
0.000000001
 43
0.00000001
 40
0.0
 40
0.0
 40
0.0
 40
0.0
 40
0.1131628250388887
 40
0.2267118285123534
 40
0.3423996109978433
 40
0.4620986888562448
 40
0.5868127069401585
 40
0.7177061754332029
 40
0.8551910244139085
 40
0.9999999999999999
 40
0.9999999999999999
 40
0.9999999999999999
 40
0.9999999999999999
 10
89.33104933465961
 20
29.11828009076195
 30
0.0
 10
89.52333734522202
 20
28.9016280851708
 30
0.0
 10
89.90856956667483
 20
28.46758472931114
 30
0.0
 10
90.38959991718819
 20
27.73277622274757
 30
0.0
 10
90.80433702854036
 20
26.94155081727386
 30
0.0
 10
91.14395797510055
 20
26.08382270417631
 30
0.0
 10
91.40580632051692
 20
25.15894377324839
 30
0.0
 10
91.58623376364567
 20
24.16917303841196
 30
0.0
 10
91.7033621502603
 20
23.11780231641787
 30
0.0
 10
91.71505793971282
 20
22.39574699803577
 30
0.0
 10
91.72105755834383
 20
22.025352459183
 30
0.0
  0
LINE
  5
A5
330
1F
100
AcDbEntity
  8
0
  6
Continuous
 62
     7
370
    15
100
AcDbLine
 10
91.7210575583
 20
22.0253524592
 30
0.0
 11
91.7210575583
 21
6.2718573934
 31
0.0
  0
LINE
  5
A6
330
1F
100
AcDbEntity
  8
0
  6
Continuous
 62
     7
370
    15
100
AcDbLine
 10
91.7210575583
 20
6.2718573934
 30
0.0
 11
88.1026365057
 21
6.2718573934
 31
0.0
  0
LINE
  5
A7
330
1F
100
AcDbEntity
  8
0
  6
Continuous
 62
     7
370
    15
100
AcDbLine
 10
88.1026365057
 20
6.2718573934
 30
0.0
 11
88.1026365057
 21
17.4560679197
 31
0.0
  0
LINE
  5
A8
330
1F
100
AcDbEntity
  8
0
  6
Continuous
 62
     7
370
    15
100
AcDbLine
 10
88.1026365057
 20
17.4560679197
 30
0.0
 11
79.5551447294
 21
17.4560679197
 31
0.0
  0
LINE
  5
A9
330
1F
100
AcDbEntity
  8
0
  6
Continuous
 62
     7
370
    15
100
AcDbLine
 10
79.5551447294
 20
17.4560679197
 30
0.0
 11
79.5551447294
 21
20.7455416039
 31
0.0
  0
LINE
  5
AA
330
1F
100
AcDbEntity
  8
0
  6
Continuous
 62
     7
370
    15
100
AcDbLine
 10
79.5551447294
 20
20.7455416039
 30
0.0
 11
88.1026365057
 21
20.7455416039
 31
0.0
  0
SPLINE
  5
AB
330
1F
100
AcDbEntity
  8
0
  6
Continuous
 62
     7
370
    15
100
AcDbSpline
210
0.0
220
0.0
230
1.0
 70
     8
 71
     3
 72
    23
 73
    19
 74
     0
 42
0.000000001
 43
0.00000001
 40
0.0
 40
0.0
 40
0.0
 40
0.0
 40
0.0898262950061511
 40
0.1742628314412884
 40
0.2529881489334747
 40
0.3268129819474116
 40
0.3955826155972158
 40
0.4598780654270644
 40
0.5201712704386049
 40
0.5768680429987808
 40
0.6306527213768766
 40
0.6827571509391035
 40
0.7333421442870799
 40
0.7836141961374881
 40
0.8342268569875624
 40
0.8872417302287161
 40
0.9419018914766343
 40
1.0
 40
1.0
 40
1.0
 40
1.0
 10
88.10263650571225
 20
20.74554160391985
 30
0.0
 10
88.0985648496506
 20
21.05059555830708
 30
0.0
 10
88.09066584508952
 20
21.64239961557384
 30
0.0
 10
88.03360676609587
 20
22.50004477605709
 30
0.0
 10
87.94338955691131
 20
23.30001285622534
 30
0.0
 10
87.8128265838843
 20
24.0410387068389
 30
0.0
 10
87.6341767936784
 20
24.72081273219445
 30
0.0
 10
87.43631826403595
 20
25.34804699903315
 30
0.0
 10
87.17880237063581
 20
25.90833396749068
 30
0.0
 10
86.90048729678682
 20
26.41818556384199
 30
0.0
 10
86.57271919390016
 20
26.86449594154767
 30
0.0
 10
86.2078074003148
 20
27.25278068950061
 30
0.0
 10
85.80194214059014
 20
27.57935639065449
 30
0.0
 10
85.36274130733491
 20
27.85005998434152
 30
0.0
 10
84.88118840572213
 20
28.05763914884011
 30
0.0
 10
84.36294996421597
 20
28.20494147867729
 30
0.0
 10
83.80536391049768
 20
28.29382900548865
 30
0.0
 10
83.42232341796725
 20
28.30537966217963
 30
0.0
 10
83.22496380834382
 20
28.31133107760406
 30
0.0
  0
SPLINE
  5
AC
330
1F
100
AcDbEntity
  8
0
  6
Continuous
 62
     7
370
    15
100
AcDbSpline
210
0.0
220
0.0
230
1.0
 70
     8
 71
     3
 72
    15
 73
    11
 74
     0
 42
0.000000001
 43
0.00000001
 40
0.0
 40
0.0
 40
0.0
 40
0.0
 40
0.1372089107500946
 40
0.2661401312114078
 40
0.3907501732248891
 40
0.5105829457556204
 40
0.6301587357993969
 40
0.7499322536178205
 40
0.8722858348889866
 40
1.0
 40
1.0
 40
1.0
 40
1.0
 10
83.22496380834382
 20
28.31133107760406
 30
0.0
 10
83.00868494599
 20
28.30626224399654
 30
0.0
 10
82.58917513069864
 20
28.29643037495816
 30
0.0
 10
81.9799929084856
 20
28.19564393878338
 30
0.0
 10
81.41347887508964
 20
28.03274827046264
 30
0.0
 10
80.88627700942936
 20
27.80343884577135
 30
0.0
 10
80.39954590408239
 20
27.51090996699165
 30
0.0
 10
79.96109517355883
 20
27.1447077623462
 30
0.0
 10
79.5580105009834
 20
26.72117833053034
 30
0.0
 10
79.33496895124463
 20
26.39585803045039
 30
0.0
 10
79.22105755834383
 20
26.22971101181458
 30
0.0
  0
SPLINE
  5
AD
330
1F
100
AcDbEntity
  8
0
  6
Continuous
 62
     7
370
    15
100
AcDbSpline
210
0.0
220
0.0
230
1.0
 70
     8
 71
     3
 72
    11
 73
     7
 74
     0
 42
0.000000001
 43
0.00000001
 40
0.0
 40
0.0
 40
0.0
 40
0.0
 40
0.2441765491234414
 40
0.4887300550664603
 40
0.7390063888351568
 40
1.0
 40
1.0
 40
1.0
 40
1.0
 10
79.22105755834383
 20
26.22971101181458
 30
0.0
 10
79.06838976140892
 20
25.96662160724483
 30
0.0
 10
78.76281848083048
 20
25.44003664384699
 30
0.0
 10
78.45984119842961
 20
24.56782015641834
 30
0.0
 10
78.26715216236767
 20
23.64436356688774
 30
0.0
 10
78.24534671860373
 20
23.00806536256971
 30
0.0
 10
78.23421545308067
 20
22.68324719602511
 30
0.0
  0
LINE
  5
AE
330
1F
100
AcDbEntity
  8
0
  6
Continuous
 62
     7
370
    15
100
AcDbLine
 10
78.2342154531
 20
22.683247196
 30
0.0
 11
78.2342154531
 21
6.2718573934
 31
0.0
  0
LINE
  5
AF
330
1F
100
AcDbEntity
  8
0
  6
Continuous
 62
     7
370
    15
100
AcDbLine
 10
56.8526365057
 20
6.2718573934
 30
0.0
 11
53.2342154531
 21
6.2718573934
 31
0.0
  0
LINE
  5
B0
330
1F
100
AcDbEntity
  8
0
  6
Continuous
 62
     7
370
    15
100
AcDbLine
 10
53.2342154531
 20
6.2718573934
 30
0.0
 11
53.2342154531
 21
28.1828360118
 31
0.0
  0
SPLINE
  5
B1
330
1F
100
AcDbEntity
  8
0
  6
Continuous
 62
     7
370
    15
100
AcDbSpline
210
0.0
220
0.0
230
1.0
 70
     8
 71
     3
 72
    15
 73
    11
 74
     0
 42
0.000000001
 43
0.00000001
 40
0.0
 40
0.0
 40
0.0
 40
0.0
 40
0.1540784471033478
 40
0.2938168215438211
 40
0.4204632569669167
 40
0.542234151947875
 40
0.6590968886091187
 40
0.7710943096519425
 40
0.8826170736053134
 40
1.0
 40
1.0
 40
1.0
 40
1.0
 10
53.23421545308065
 20
28.18283601181458
 30
0.0
 10
53.24315742663489
 20
28.44063140366494
 30
0.0
 10
53.26020914475268
 20
28.93222918431566
 30
0.0
 10
53.41247923297771
 20
29.62315340814837
 30
0.0
 10
53.67265287468219
 20
30.22251058996415
 30
0.0
 10
54.03560334427289
 20
30.71955434629221
 30
0.0
 10
54.47486811209365
 20
31.11420057270935
 30
0.0
 10
54.97261690091157
 20
31.39787445803451
 30
0.0
 10
55.52238152769491
 20
31.56973916432646
 30
0.0
 10
55.90567320261006
 20
31.59027432400332
 30
0.0
 10
56.10222532150171
 20
31.60080476181458
 30
0.0
  0
SPLINE
  5
B2
330
1F
100
AcDbEntity
  8
0
  6
Continuous
 62
     7
370
    15
100
AcDbSpline
210
0.0
220
0.0
230
1.0
 70
     8
 71
     3
 72
    15
 73
    11
 74
     0
 42
0.000000001
 43
0.00000001
 40
0.0
 40
0.0
 40
0.0
 40
0.0
 40
0.1277232162118966
 40
0.2480895675165434
 40
0.3664541616386771
 40
0.4824438528216692
 40
0.6027384316906279
 40
0.7262292485905905
 40
0.8592519746572251
 40
0.9999999999999999
 40
0.9999999999999999
 40
0.9999999999999999
 40
0.9999999999999999
 10
56.10222532150171
 20
31.60080476181458
 30
0.0
 10
56.26035209012711
 20
31.59536486380486
 30
0.0
 10
56.56749751602977
 20
31.58479840623676
 30
0.0
 10
57.01272095137111
 20
31.48827568810567
 30
0.0
 10
57.42508643263938
 20
31.33464620621886
 30
0.0
 10
57.80952980125986
 20
31.11957536267608
 30
0.0
 10
58.15843919827952
 20
30.84034159754605
 30
0.0
 10
58.47643048916524
 20
30.49806805815734
 30
0.0
 10
58.76496282100342
 20
30.09819599897901
 30
0.0
 10
58.92090349264286
 20
29.79725596104735
 30
0.0
 10
59.00107400571223
 20
29.64253995918301
 30
0.0
  0
LINE
  5
B3
330
1F
100
AcDbEntity
  8
0
  6
Continuous
 62
     7
370
    15
100
AcDbLine
 10
59.0010740057
 20
29.6425399592
 30
0.0
 11
68.036847032
 21
11.0056156171
 31
0.0
  0
LINE
  5
B4
330
1F
100
AcDbEntity
  8
0
  6
Continuous
 62
     7
370
    15
100
AcDbLine
 10
68.036847032
 20
11.0056156171
 30
0.0
 11
68.036847032
 21
31.2718573934
 31
0.0
  0
LINE
  5
B5
330
1F
100
AcDbEntity
  8
0
  6
Continuous
 62
     7
370
    15
100
AcDbLine
 10
68.036847032
 20
31.2718573934
 30
0.0
 11
71.6552680847
 21
31.2718573934
 31
0.0
  0
LINE
  5
B6
330
1F
100
AcDbEntity
  8
0
  6
Continuous
 62
     7
370
    15
100
AcDbLine
 10
71.6552680847
 20
31.2718573934
 30
0.0
 11
71.6552680847
 21
8.5128113408
 31
0.0
  0
SPLINE
  5
B7
330
1F
100
AcDbEntity
  8
0
  6
Continuous
 62
     7
370
    15
100
AcDbSpline
210
0.0
220
0.0
230
1.0
 70
     8
 71
     3
 72
    11
 73
     7
 74
     0
 42
0.000000001
 43
0.00000001
 40
0.0
 40
0.0
 40
0.0
 40
0.0
 40
0.2735485129114936
 40
0.5217299334506105
 40
0.7591189659851346
 40
1.0
 40
1.0
 40
1.0
 40
1.0
 10
71.65526808465961
 20
8.512811340761951
 30
0.0
 10
71.64741850090122
 20
8.340380882778724
 30
0.0
 10
71.63244725222475
 20
8.011510034931877
 30
0.0
 10
71.49046694841635
 20
7.550526849133814
 30
0.0
 10
71.2502910421081
 20
7.153451021712241
 30
0.0
 10
71.02056072564183
 20
6.95682547799024
 30
0.0
 10
70.90485690044908
 20
6.857794893393533
 30
0.0
  0
SPLINE
  5
B8
330
1F
100
AcDbEntity
  8
0
  6
Continuous
 62
     7
370
    15
100
AcDbSpline
210
0.0
220
0.0
230
1.0
 70
     8
 71
     3
 72
    11
 73
     7
 74
     0
 42
0.000000001
 43
0.00000001
 40
0.0
 40
0.0
 40
0.0
 40
0.0
 40
0.2412354852042144
 40
0.4812431651011222
 40
0.7333108259747171
 40
1.0
 40
1.0
 40
1.0
 40
1.0
 10
70.90485690044906
 20
6.857794893393532
 30
0.0
 10
70.76904233868903
 20
6.766585451540148
 30
0.0
 10
70.49810446438383
 20
6.584630792392591
 30
0.0
 10
70.03140187511585
 20
6.408267707681889
 30
0.0
 10
69.53004650053543
 20
6.288937347501315
 30
0.0
 10
69.17864375779546
 20
6.277656695702846
 30
0.0
 10
68.99799012413328
 20
6.271857393393532
 30
0.0
  0
SPLINE
  5
B9
330
1F
100
AcDbEntity
  8
0
  6
Continuous
 62
     7
370
    15
100
AcDbSpline
210
0.0
220
0.0
230
1.0
 70
     8
 71
     3
 72
    11
 73
     7
 74
     0
 42
0.000000001
 43
0.00000001
 40
0.0
 40
0.0
 40
0.0
 40
0.0
 40
0.2542629773849285
 40
0.5006668551769893
 40
0.7482289522166712
 40
1.0
 40
1.0
 40
1.0
 40
1.0
 10
68.99799012413328
 20
6.271857393393532
 30
0.0
 10
68.81752036919367
 20
6.278726210213163
 30
0.0
 10
68.46215905946042
 20
6.29225153329103
 30
0.0
 10
67.94110856311654
 20
6.401538909832272
 30
0.0
 10
67.43644846589889
 20
6.566658610524531
 30
0.0
 10
67.12487032403153
 20
6.736287112493581
 30
0.0
 10
66.9677680846596
 20
6.82181627497248
 30
0.0
  0
SPLINE
  5
BA
330
1F
100
AcDbEntity
  8
0
  6
Continuous
 62
     7
370
    15
100
AcDbSpline
210
0.0
220
0.0
230
1.0
 70
     8
 71
     3
 72
    11
 73
     7
 74
     0
 42
0.000000001
 43
0.00000001
 40
0.0
 40
0.0
 40
0.0
 40
0.0
 40
0.2636274290920332
 40
0.5116943481961488
 40
0.7544132450320497
 40
1.0
 40
1.0
 40
1.0
 40
1.0
 10
66.9677680846596
 20
6.82181627497248
 30
0.0
 10
66.82985701288608
 20
6.903639463878944
 30
0.0
 10
66.56217501855326
 20
7.06245625869815
 30
0.0
 10
66.23877529707917
 20
7.389145453185955
 30
0.0
 10
65.96171283393154
 20
7.743335008159166
 30
0.0
 10
65.85138232771149
 20
8.019347960130531
 30
0.0
 10
65.79589308465961
 20
8.158164959183006
 30
0.0
  0
LINE
  5
BB
330
1F
100
AcDbEntity
  8
0
  6
Continuous
 62
     7
370
    15
100
AcDbLine
 10
65.7958930847
 20
8.1581649592
 30
0.0
 11
56.8526365057
 21
26.882465946
 31
0.0
  0
LINE
  5
BC
330
1F
100
AcDbEntity
  8
0
  6
Continuous
 62
     7
370
    15
100
AcDbLine
 10
56.8526365057
 20
26.882465946
 30
0.0
 11
56.8526365057
 21
6.2718573934
 31
0.0
  0
LINE
  5
BD
330
1F
100
AcDbEntity
  8
0
  6
Continuous
 62
     7
370
    15
100
AcDbLine
 10
34.4842154531
 20
23.6803689066
 30
0.0
 11
34.4842154531
 21
31.2718573934
 31
0.0
  0
LINE
  5
BE
330
1F
100
AcDbEntity
  8
0
  6
Continuous
 62
     7
370
    15
100
AcDbLine
 10
34.4842154531
 20
31.2718573934
 30
0.0
 11
38.1026365057
 21
31.2718573934
 31
0.0
  0
LINE
  5
BF
330
1F
100
AcDbEntity
  8
0
  6
Continuous
 62
     7
370
    15
100
AcDbLine
 10
38.1026365057
 20
31.2718573934
 30
0.0
 11
38.1026365057
 21
23.3565613408
 31
0.0
  0
SPLINE
  5
C0
330
1F
100
AcDbEntity
  8
0
  6
Continuous
 62
     7
370
    15
100
AcDbSpline
210
0.0
220
0.0
230
1.0
 70
     8
 71
     3
 72
    15
 73
    11
 74
     0
 42
0.000000001
 43
0.00000001
 40
0.0
 40
0.0
 40
0.0
 40
0.0
 40
0.1365522393538674
 40
0.2674189721066053
 40
0.3930711556152985
 40
0.5167685810520758
 40
0.6382635023157834
 40
0.7573990743015654
 40
0.8783342397656653
 40
1.0
 40
1.0
 40
1.0
 40
1.0
 10
38.10263650571223
 20
23.35656134076195
 30
0.0
 10
38.1048318303304
 20
23.21586350190069
 30
0.0
 10
38.1091310747486
 20
22.9403259374936
 30
0.0
 10
38.16524650306115
 20
22.53887127373921
 30
0.0
 10
38.23924844961378
 20
22.15423258947435
 30
0.0
 10
38.3519675554661
 20
21.78840126510744
 30
0.0
 10
38.50351266442341
 20
21.44472071485587
 30
0.0
 10
38.67858678720905
 20
21.11578599027414
 30
0.0
 10
38.88873440114051
 20
20.80703405661835
 30
0.0
 10
39.05323755593233
 20
20.61888694825805
 30
0.0
 10
39.1357368346596
 20
20.52453009076195
 30
0.0
  0
SPLINE
  5
C1
330
1F
100
AcDbEntity
  8
0
  6
Continuous
 62
     7
370
    15
100
AcDbSpline
210
0.0
220
0.0
230
1.0
 70
     8
 71
     3
 72
    15
 73
    11
 74
     0
 42
0.000000001
 43
0.00000001
 40
0.0
 40
0.0
 40
0.0
 40
0.0
 40
0.1116025878901886
 40
0.2253605914106675
 40
0.3404259687382194
 40
0.4596445687629608
 40
0.5829890661014429
 40
0.7147420794814987
 40
0.8533842552466403
 40
1.0
 40
1.0
 40
1.0
 40
1.0
 10
39.1357368346596
 20
20.52453009076196
 30
0.0
 10
39.24640071879807
 20
20.41723261524929
 30
0.0
 10
39.46986577322662
 20
20.20056539457337
 30
0.0
 10
39.85199502061258
 20
19.92479320650822
 30
0.0
 10
40.27210065202721
 20
19.68962608942615
 30
0.0
 10
40.73254433513547
 20
19.50955123374327
 30
0.0
 10
41.22624896165799
 20
19.35620888421859
 30
0.0
 10
41.76008591652015
 20
19.25050483451458
 30
0.0
 10
42.33294997442474
 20
19.18911795344175
 30
0.0
 10
42.72658975142349
 20
19.18170954562067
 30
0.0
 10
42.92891117676486
 20
19.17790180128827
 30
0.0
  0
SPLINE
  5
C2
330
1F
100
AcDbEntity
  8
0
  6
Continuous
 62
     7
370
    15
100
AcDbSpline
210
0.0
220
0.0
230
1.0
 70
     8
 71
     3
 72
    15
 73
    11
 74
     0
 42
0.000000001
 43
0.00000001
 40
0.0
 40
0.0
 40
0.0
 40
0.0
 40
0.1435126865432612
 40
0.2781543229354969
 40
0.4053536208846379
 40
0.527975235389518
 40
0.6456131543871307
 40
0.7625836092486546
 40
0.8799859897150151
 40
1.0
 40
1.0
 40
1.0
 40
1.0
 10
42.92891117676486
 20
19.17790180128827
 30
0.0
 10
43.12448748434244
 20
19.18251317008964
 30
0.0
 10
43.50355080429544
 20
19.19145086192474
 30
0.0
 10
44.05162626995522
 20
19.26942939612031
 30
0.0
 10
44.56023099073002
 20
19.39801327354087
 30
0.0
 10
45.0297834222003
 20
19.57565391597028
 30
0.0
 10
45.45737435382006
 20
19.81126945183095
 30
0.0
 10
45.84518563491825
 20
20.0951670189323
 30
0.0
 10
46.19512176552171
 20
20.43104892426246
 30
0.0
 10
46.38810271017118
 20
20.69115499666669
 30
0.0
 10
46.48565459781749
 20
20.82263864339353
 30
0.0
  0
SPLINE
  5
C3
330
1F
100
AcDbEntity
  8
0
  6
Continuous
 62
     7
370
    15
100
AcDbSpline
210
0.0
220
0.0
230
1.0
 70
     8
 71
     3
 72
    11
 73
     7
 74
     0
 42
0.000000001
 43
0.00000001
 40
0.0
 40
0.0
 40
0.0
 40
0.0
 40
0.248192288571945
 40
0.4940863589192888
 40
0.7424895160837086
 40
1.0
 40
1.0
 40
1.0
 40
1.0
 10
46.4856545978175
 20
20.82263864339354
 30
0.0
 10
46.61210078863618
 20
21.02130616268425
 30
0.0
 10
46.8638223001315
 20
21.41680157395052
 30
0.0
 10
47.12565361599854
 20
22.07363099088004
 30
0.0
 10
47.28506987070775
 20
22.77151822651169
 30
0.0
 10
47.3036867922321
 20
23.25118513675375
 30
0.0
 10
47.3131628215017
 20
23.49533601181458
 30
0.0
  0
LINE
  5
C4
330
1F
100
AcDbEntity
  8
0
  6
Continuous
 62
     7
370
    15
100
AcDbLine
 10
47.3131628215
 20
23.4953360118
 30
0.0
 11
47.3131628215
 21
31.2718573934
 31
0.0
  0
LINE
  5
C5
330
1F
100
AcDbEntity
  8
0
  6
Continuous
 62
     7
370
    15
100
AcDbLine
 10
47.3131628215
 20
31.2718573934
 30
0.0
 11
50.9315838741
 21
31.2718573934
 31
0.0
  0
LINE
  5
C6
330
1F
100
AcDbEntity
  8
0
  6
Continuous
 62
     7
370
    15
100
AcDbLine
 10
50.9315838741
 20
31.2718573934
 30
0.0
 11
50.9315838741
 21
23.3514215381
 31
0.0
  0
SPLINE
  5
C7
330
1F
100
AcDbEntity
  8
0
  6
Continuous
 62
     7
370
    15
100
AcDbSpline
210
0.0
220
0.0
230
1.0
 70
     8
 71
     3
 72
    15
 73
    11
 74
     0
 42
0.000000001
 43
0.00000001
 40
0.0
 40
0.0
 40
0.0
 40
0.0
 40
0.1295032531061924
 40
0.2547144568587253
 40
0.3775463052297563
 40
0.4991446849250848
 40
0.620658748156078
 40
0.7439936879064178
 40
0.8698749934855989
 40
1.0
 40
1.0
 40
1.0
 40
1.0
 10
50.93158387413328
 20
23.35142153813037
 30
0.0
 10
50.92684409244891
 20
23.11114379894419
 30
0.0
 10
50.91752161684767
 20
22.63855170288415
 30
0.0
 10
50.80840643809882
 20
21.94528964666001
 30
0.0
 10
50.64444039619634
 20
21.27937962345626
 30
0.0
 10
50.42035119328071
 20
20.63746240568889
 30
0.0
 10
50.1177750819554
 20
20.02738522827126
 30
0.0
 10
49.74979878143292
 20
19.44603113065036
 30
0.0
 10
49.32332781074174
 20
18.88490204371572
 30
0.0
 10
48.99244741861156
 20
18.54415202633827
 30
0.0
 10
48.82426479518591
 20
18.37095278813037
 30
0.0
  0
SPLINE
  5
C8
330
1F
100
AcDbEntity
  8
0
  6
Continuous
 62
     7
370
    15
100
AcDbSpline
210
0.0
220
0.0
230
1.0
 70
     8
 71
     3
 72
    15
 73
    11
 74
     0
 42
0.000000001
 43
0.00000001
 40
0.0
 40
0.0
 40
0.0
 40
0.0
 40
0.1264568058775111
 40
0.2515187134261076
 40
0.3745846824350669
 40
0.4974149203955814
 40
0.621025066918299
 40
0.7461357537345161
 40
0.8718060412683857
 40
1.0
 40
1.0
 40
1.0
 40
1.0
 10
48.82426479518591
 20
18.37095278813037
 30
0.0
 10
48.66496885244233
 20
18.22673091350266
 30
0.0
 10
48.34813410167637
 20
17.93987802248944
 30
0.0
 10
47.84532238869319
 20
17.54838557876714
 30
0.0
 10
47.31665567925099
 20
17.20437767979332
 30
0.0
 10
46.77111881189566
 20
16.89290214404977
 30
0.0
 10
46.19873293062936
 20
16.62467255943996
 30
0.0
 10
45.60235461528237
 20
16.40280443538313
 30
0.0
 10
44.98873222697367
 20
16.20500934521526
 30
0.0
 10
44.56606898163919
 20
16.1176001021485
 30
0.0
 10
44.35263650571223
 20
16.07346101181458
 30
0.0
  0
LINE
  5
C9
330
1F
100
AcDbEntity
  8
0
  6
Continuous
 62
     7
370
    15
100
AcDbLine
 10
44.3526365057
 20
16.0734610118
 30
0.0
 11
44.3526365057
 21
6.2718573934
 31
0.0
  0
LINE
  5
CA
330
1F
100
AcDbEntity
  8
0
  6
Continuous
 62
     7
370
    15
100
AcDbLine
 10
44.3526365057
 20
6.2718573934
 30
0.0
 11
40.7342154531
 21
6.2718573934
 31
0.0
  0
LINE
  5
CB
330
1F
100
AcDbEntity
  8
0
  6
Continuous
 62
     7
370
    15
100
AcDbLine
 10
40.7342154531
 20
6.2718573934
 30
0.0
 11
40.7342154531
 21
16.0734610118
 31
0.0
  0
SPLINE
  5
CC
330
1F
100
AcDbEntity
  8
0
  6
Continuous
 62
     7
370
    15
100
AcDbSpline
210
0.0
220
0.0
230
1.0
 70
     8
 71
     3
 72
    11
 73
     7
 74
     0
 42
0.000000001
 43
0.00000001
 40
0.0
 40
0.0
 40
0.0
 40
0.0
 40
0.2654804168525851
 40
0.519062069441688
 40
0.7617219813130198
 40
1.0
 40
1.0
 40
1.0
 40
1.0
 10
40.73421545308064
 20
16.07346101181458
 30
0.0
 10
40.35043322053443
 20
16.18207230337825
 30
0.0
 10
39.60006977677428
 20
16.39442695624544
 30
0.0
 10
38.55675411815085
 20
16.8676904273188
 30
0.0
 10
37.59606985730206
 20
17.4159572188369
 30
0.0
 10
37.04119665749182
 20
17.8792747593356
 30
0.0
 10
36.76628782150171
 20
18.10882285391985
 30
0.0
  0
SPLINE
  5
CD
330
1F
100
AcDbEntity
  8
0
  6
Continuous
 62
     7
370
    15
100
AcDbSpline
210
0.0
220
0.0
230
1.0
 70
     8
 71
     3
 72
    15
 73
    11
 74
     0
 42
0.000000001
 43
0.00000001
 40
0.0
 40
0.0
 40
0.0
 40
0.0
 40
0.1236213792114561
 40
0.2446050492747361
 40
0.3648289446764395
 40
0.4849014515136856
 40
0.6077877450577897
 40
0.73359679603916
 40
0.8640055049506903
 40
1.0
 40
1.0
 40
1.0
 40
1.0
 10
36.7662878215017
 20
18.10882285391985
 30
0.0
 10
36.58370425498349
 20
18.28815043407812
 30
0.0
 10
36.22243290718084
 20
18.64297928213606
 30
0.0
 10
35.76074144301907
 20
19.24214062142219
 30
0.0
 10
35.35942277303387
 20
19.87399733853982
 30
0.0
 10
35.04140795669515
 20
20.55623342474958
 30
0.0
 10
34.78600170726087
 20
21.2764359993433
 30
0.0
 10
34.6161958546449
 20
22.04313104895508
 30
0.0
 10
34.50320774822372
 20
22.84778515863417
 30
0.0
 10
34.49063409710909
 20
23.39898855407229
 30
0.0
 10
34.48421545308065
 20
23.68036890655143
 30
0.0
  0
LINE
  5
CE
330
1F
100
AcDbEntity
  8
0
  6
Continuous
 62
     7
370
    15
100
AcDbLine
 10
17.7078996636
 20
6.2718573934
 30
0.0
 11
14.4184259794
 21
6.2718573934
 31
0.0
  0
LINE
  5
CF
330
1F
100
AcDbEntity
  8
0
  6
Continuous
 62
     7
370
    15
100
AcDbLine
 10
14.4184259794
 20
6.2718573934
 30
0.0
 11
14.4184259794
 21
31.2718573934
 31
0.0
  0
LINE
  5
D0
330
1F
100
AcDbEntity
  8
0
  6
Continuous
 62
     7
370
    15
100
AcDbLine
 10
14.4184259794
 20
31.2718573934
 30
0.0
 11
20.9870937426
 21
31.2718573934
 31
0.0
  0
SPLINE
  5
D1
330
1F
100
AcDbEntity
  8
0
  6
Continuous
 62
     7
370
    15
100
AcDbSpline
210
0.0
220
0.0
230
1.0
 70
     8
 71
     3
 72
    15
 73
    11
 74
     0
 42
0.000000001
 43
0.00000001
 40
0.0
 40
0.0
 40
0.0
 40
0.0
 40
0.126843773347626
 40
0.2511262062354802
 40
0.3732290468852241
 40
0.4953391353277822
 40
0.6181559915012594
 40
0.7425195761160773
 40
0.8692600462403366
 40
1.0
 40
1.0
 40
1.0
 40
1.0
 10
20.98709374255434
 20
31.27185739339352
 30
0.0
 10
21.35250929817335
 20
31.26359685770186
 30
0.0
 10
22.07596161877362
 20
31.24724259028319
 30
0.0
 10
23.14261579695197
 20
31.09782566829336
 30
0.0
 10
24.17790764988339
 20
30.86055660862219
 30
0.0
 10
25.18433711072544
 20
30.53220263656939
 30
0.0
 10
26.15834843069636
 20
30.10156430837278
 30
0.0
 10
27.10282439075359
 20
29.58179393675997
 30
0.0
 10
28.01287433749249
 20
28.96102366676479
 30
0.0
 10
28.58237670900281
 20
28.4858108362212
 30
0.0
 10
28.87155097939645
 20
28.24451364339353
 30
0.0
  0
SPLINE
  5
D2
330
1F
100
AcDbEntity
  8
0
  6
Continuous
 62
     7
370
    15
100
AcDbSpline
210
0.0
220
0.0
230
1.0
 70
     8
 71
     3
 72
    15
 73
    11
 74
     0
 42
0.000000001
 43
0.00000001
 40
0.0
 40
0.0
 40
0.0
 40
0.0
 40
0.1251818690062925
 40
0.2471455941569515
 40
0.3674594326561047
 40
0.4881956181126877
 40
0.6104554021993774
 40
0.735567708541552
 40
0.8651304554028869
 40
1.0
 40
1.0
 40
1.0
 40
1.0
 10
28.87155097939645
 20
28.24451364339353
 30
0.0
 10
29.1885202967826
 20
27.94444589509113
 30
0.0
 10
29.81431036443998
 20
27.3520244643342
 30
0.0
 10
30.62533811160385
 20
26.35633218578375
 30
0.0
 10
31.3072659422596
 20
25.28864121828874
 30
0.0
 10
31.87350376903055
 20
24.15331267013845
 30
0.0
 10
32.30220670890317
 20
22.94173194467424
 30
0.0
 10
32.61864550090357
 20
21.66527128500833
 30
0.0
 10
32.805341836948
 20
20.31761054559801
 30
0.0
 10
32.82794845821533
 20
19.39606919212932
 30
0.0
 10
32.83947861097538
 20
18.9260514723409
 30
0.0
  0
SPLINE
  5
D3
330
1F
100
AcDbEntity
  8
0
  6
Continuous
 62
     7
370
    15
100
AcDbSpline
210
0.0
220
0.0
230
1.0
 70
     8
 71
     3
 72
    15
 73
    11
 74
     0
 42
0.000000001
 43
0.00000001
 40
0.0
 40
0.0
 40
0.0
 40
0.0
 40
0.1312697079434519
 40
0.2593393727158597
 40
0.3848665817218498
 40
0.5082021560646367
 40
0.6302429743239003
 40
0.752426425394936
 40
0.8753533598072156
 40
1.0
 40
1.0
 40
1.0
 40
1.0
 10
32.83947861097538
 20
18.9260514723409
 30
0.0
 10
32.83277080956636
 20
18.52986016851388
 30
0.0
 10
32.81951872698785
 20
17.74713576225375
 30
0.0
 10
32.67824324465218
 20
16.59296300363837
 30
0.0
 10
32.46653765992452
 20
15.47483893455056
 30
0.0
 10
32.1618368010397
 20
14.39666198225177
 30
0.0
 10
31.76995189502031
 20
13.3577736050407
 30
0.0
 10
31.28745225569237
 20
12.35982452661984
 30
0.0
 10
30.73201196138297
 20
11.39011272228547
 30
0.0
 10
30.28768957058508
 20
10.78909288455369
 30
0.0
 10
30.06398518992276
 20
10.48649555128827
 30
0.0
  0
SPLINE
  5
D4
330
1F
100
AcDbEntity
  8
0
  6
Continuous
 62
     7
370
    15
100
AcDbSpline
210
0.0
220
0.0
230
1.0
 70
     8
 71
     3
 72
    23
 73
    19
 74
     0
 42
0.000000001
 43
0.00000001
 40
0.0
 40
0.0
 40
0.0
 40
0.0
 40
0.0636237218178863
 40
0.1266020818815986
 40
0.1884575788947173
 40
0.2490231726107711
 40
0.3093075836534779
 40
0.3693427986819938
 40
0.4296106287133047
 40
0.4890750325944137
 40
0.5495250036084403
 40
0.6107226175192452
 40
0.6722459912079267
 40
0.734928083802364
 40
0.7988632515886506
 40
0.8643353376186927
 40
0.9315027987399052
 40
1.0
 40
1.0
 40
1.0
 40
1.0
 10
30.06398518992276
 20
10.48649555128827
 30
0.0
 10
29.92917961316321
 20
10.31498145721065
 30
0.0
 10
29.66093584842621
 20
9.973693007528047
 30
0.0
 10
29.2217449151182
 20
9.499264183711205
 30
0.0
 10
28.77094746357432
 20
9.051300043044767
 30
0.0
 10
28.30217123985804
 20
8.63502480997428
 30
0.0
 10
27.80495109605814
 20
8.264148854290996
 30
0.0
 10
27.29782306388369
 20
7.908608579256793
 30
0.0
 10
26.76392781192369
 20
7.599851363855585
 30
0.0
 10
26.21425129351407
 20
7.317672878422136
 30
0.0
 10
25.64340519461733
 20
7.072735982373432
 30
0.0
 10
25.05383276298745
 20
6.855864796049919
 30
0.0
 10
24.44368792161445
 20
6.676959288612533
 30
0.0
 10
23.81638327124831
 20
6.526059499813702
 30
0.0
 10
23.16702147595466
 20
6.414846504185094
 30
0.0
 10
22.49809584701023
 20
6.333243310094492
 30
0.0
 10
21.8103503565817
 20
6.279170468230291
 30
0.0
 10
21.34526898059708
 20
6.274310962096271
 30
0.0
 10
21.11044900571223
 20
6.271857393393532
 30
0.0
  0
LINE
  5
D5
330
1F
100
AcDbEntity
  8
0
  6
Continuous
 62
     7
370
    15
100
AcDbLine
 10
21.1104490057
 20
6.2718573934
 30
0.0
 11
19.0956463741
 21
6.2718573934
 31
0.0
  0
LINE
  5
D6
330
1F
100
AcDbEntity
  8
0
  6
Continuous
 62
     7
370
    15
100
AcDbLine
 10
19.0956463741
 20
6.2718573934
 30
0.0
 11
19.0956463741
 21
9.5613310776
 31
0.0
  0
LINE
  5
D7
330
1F
100
AcDbEntity
  8
0
  6
Continuous
 62
     7
370
    15
100
AcDbLine
 10
19.0956463741
 20
9.5613310776
 30
0.0
 11
21.3777187426
 21
9.5613310776
 31
0.0
  0
SPLINE
  5
D8
330
1F
100
AcDbEntity
  8
0
  6
Continuous
 62
     7
370
    15
100
AcDbSpline
210
0.0
220
0.0
230
1.0
 70
     8
 71
     3
 72
    15
 73
    11
 74
     0
 42
0.000000001
 43
0.00000001
 40
0.0
 40
0.0
 40
0.0
 40
0.0
 40
0.1244327473848959
 40
0.2446437478543696
 40
0.3632004852904138
 40
0.4833078982331843
 40
0.6040148814039701
 40
0.7298204682619263
 40
0.8613065873068049
 40
0.9999999999999999
 40
0.9999999999999999
 40
0.9999999999999999
 40
0.9999999999999999
 10
21.37771874255434
 20
9.56133107760406
 30
0.0
 10
21.66453586582268
 20
9.571108272903366
 30
0.0
 10
22.22843899791484
 20
9.59033094339643
 30
0.0
 10
23.05353901248635
 20
9.74550110009703
 30
0.0
 10
23.84507837492508
 20
9.9911811108357
 30
0.0
 10
24.5943027920823
 20
10.34932249427282
 30
0.0
 10
25.30908397104068
 20
10.80291116368369
 30
0.0
 10
25.98187276034788
 20
11.35819433950858
 30
0.0
 10
26.62655403283605
 20
12.0069276804528
 30
0.0
 10
27.00282245369568
 20
12.50341996986344
 30
0.0
 10
27.19597532150171
 20
12.75828831444616
 30
0.0
  0
SPLINE
  5
D9
330
1F
100
AcDbEntity
  8
0
  6
Continuous
 62
     7
370
    15
100
AcDbSpline
210
0.0
220
0.0
230
1.0
 70
     8
 71
     3
 72
    15
 73
    11
 74
     0
 42
0.000000001
 43
0.00000001
 40
0.0
 40
0.0
 40
0.0
 40
0.0
 40
0.1305915652787386
 40
0.2575995046606351
 40
0.3830710207339277
 40
0.5070440145547285
 40
0.6292944716615418
 40
0.751444472317595
 40
0.8753431789088235
 40
1.0
 40
1.0
 40
1.0
 40
1.0
 10
27.19597532150171
 20
12.75828831444616
 30
0.0
 10
27.35699585278117
 20
12.99426002890151
 30
0.0
 10
27.67461827356496
 20
13.45972804460279
 30
0.0
 10
28.08793027195378
 20
14.18962729390734
 30
0.0
 10
28.43773321100059
 20
14.93565915268912
 30
0.0
 10
28.72659086555273
 20
15.69626567463891
 30
0.0
 10
28.95047282162504
 20
16.47134843772024
 30
0.0
 10
29.10103892836744
 20
17.26317387023069
 30
0.0
 10
29.20514154104358
 20
18.06837168629957
 30
0.0
 10
29.21574144239106
 20
18.61219302990405
 30
0.0
 10
29.22105755834382
 20
18.88493305128827
 30
0.0
  0
SPLINE
  5
DA
330
1F
100
AcDbEntity
  8
0
  6
Continuous
 62
     7
370
    15
100
AcDbSpline
210
0.0
220
0.0
230
1.0
 70
     8
 71
     3
 72
    15
 73
    11
 74
     0
 42
0.000000001
 43
0.00000001
 40
0.0
 40
0.0
 40
0.0
 40
0.0
 40
0.1351212859040331
 40
0.2653931499270124
 40
0.3909486871085909
 40
0.513739332264534
 40
0.6349779102591582
 40
0.7555644500386239
 40
0.8768930678362228
 40
1.0
 40
1.0
 40
1.0
 40
1.0
 10
29.22105755834381
 20
18.88493305128827
 30
0.0
 10
29.21537827138665
 20
19.20230752282253
 30
0.0
 10
29.20422352367376
 20
19.82566608652597
 30
0.0
 10
29.08015512005918
 20
20.73677106805776
 30
0.0
 10
28.89268027065379
 20
21.60646396983403
 30
0.0
 10
28.62455271036845
 20
22.43336064016226
 30
0.0
 10
28.27737862145289
 20
23.21705857773012
 30
0.0
 10
27.86167263216945
 20
23.96288247133223
 30
0.0
 10
27.36007367670709
 20
24.6604394548194
 30
0.0
 10
26.97406153465366
 20
25.08538711735113
 30
0.0
 10
26.77965130834381
 20
25.2994067354988
 30
0.0
  0
SPLINE
  5
DB
330
1F
100
AcDbEntity
  8
0
  6
Continuous
 62
     7
370
    15
100
AcDbSpline
210
0.0
220
0.0
230
1.0
 70
     8
 71
     3
 72
    15
 73
    11
 74
     0
 42
0.000000001
 43
0.00000001
 40
0.0
 40
0.0
 40
0.0
 40
0.0
 40
0.1231345116243512
 40
0.2439781006001363
 40
0.3644015386851736
 40
0.4851654891952538
 40
0.6079966311436102
 40
0.7336456794853891
 40
0.8642486534088515
 40
1.0
 40
1.0
 40
1.0
 40
1.0
 10
26.77965130834381
 20
25.2994067354988
 30
0.0
 10
26.55780939460371
 20
25.51334224300739
 30
0.0
 10
26.11825294504446
 20
25.93723297911642
 30
0.0
 10
25.38593183931878
 20
26.48385592191572
 30
0.0
 10
24.60692175103334
 20
26.94794303063097
 30
0.0
 10
23.77956362461212
 20
27.33198335706363
 30
0.0
 10
22.90174807763231
 20
27.62536663962646
 30
0.0
 10
21.97427633865731
 20
27.8269908143026
 30
0.0
 10
21.00131524355163
 20
27.96177083164913
 30
0.0
 10
20.33480729004787
 20
27.97542477746119
 30
0.0
 10
19.9951118346596
 20
27.982383709183
 30
0.0
  0
LINE
  5
DC
330
1F
100
AcDbEntity
  8
0
  6
Continuous
 62
     7
370
    15
100
AcDbLine
 10
19.9951118347
 20
27.9823837092
 30
0.0
 11
17.7078996636
 21
27.9823837092
 31
0.0
  0
LINE
  5
DD
330
1F
100
AcDbEntity
  8
0
  6
Continuous
 62
     7
370
    15
100
AcDbLine
 10
17.7078996636
 20
27.9823837092
 30
0.0
 11
17.7078996636
 21
6.2718573934
 31
0.0
  0
ARC
  5
DE
330
1F
100
AcDbEntity
  8
0
  6
Continuous
 62
     7
370
    15
100
AcDbCircle
 10
-23.8769558026
 20
18.7718573934
 30
0.0
 40
20.0
100
AcDbArc
 50
90.0
 51
270.0
  0
LINE
  5
DF
330
1F
100
AcDbEntity
  8
0
  6
Continuous
 62
     7
370
    15
100
AcDbLine
 10
-23.8769558026
 20
-1.2281426066
 30
0.0
 11
146.1230441974
 21
-1.2281426066
 31
0.0
  0
ARC
  5
E0
330
1F
100
AcDbEntity
  8
0
  6
Continuous
 62
     7
370
    15
100
AcDbCircle
 10
146.1230441974
 20
18.7718573934
 30
0.0
 40
20.0
100
AcDbArc
 50
270.0
 51
90.0
  0
LINE
  5
E1
330
1F
100
AcDbEntity
  8
0
  6
Continuous
 62
     7
370
    15
100
AcDbLine
 10
146.1230441974
 20
38.7718573934
 30
0.0
 11
-23.8769558026
 21
38.7718573934
 31
0.0
  0
SPLINE
  5
E2
330
1F
100
AcDbEntity
  8
0
  6
Continuous
 62
     7
370
    15
100
AcDbSpline
210
0.0
220
0.0
230
1.0
 70
     8
 71
     2
 72
     6
 73
     3
 74
     0
 42
0.000000001
 43
0.00000001
 40
0.0
 40
0.0
 40
0.0
 40
1.0
 40
1.0
 40
1.0
 10
-7.338641236175336
 20
19.37185739339353
 30
0.0
 10
0.7993761208735517
 20
22.37185739339349
 30
0.0
 10
8.937393477922772
 20
19.37185739339342
 30
0.0
  0
SPLINE
  5
E3
330
1F
100
AcDbEntity
  8
0
  6
Continuous
 62
     7
370
    15
100
AcDbSpline
210
0.0
220
0.0
230
1.0
 70
     8
 71
     2
 72
     6
 73
     3
 74
     0
 42
0.000000001
 43
0.00000001
 40
0.0
 40
0.0
 40
0.0
 40
1.0
 40
1.0
 40
1.0
 10
-23.61467595027344
 20
19.37185739339377
 30
0.0
 10
-15.47665859322456
 20
16.37185739339365
 30
0.0
 10
-7.338641236175336
 20
19.37185739339353
 30
0.0
  0
LINE
  5
E4
330
1F
100
AcDbEntity
  8
0
  6
Continuous
 62
     7
370
    15
100
AcDbLine
 10
-15.649863674
 20
33.1673169287
 30
0.0
 11
-23.6146759503
 21
19.3718573934
 31
0.0
  0
LINE
  5
E5
330
1F
100
AcDbEntity
  8
0
  6
Continuous
 62
     7
370
    15
100
AcDbLine
 10
0.9725812016
 20
33.1673169287
 30
0.0
 11
-15.649863674
 21
33.1673169287
 31
0.0
  0
LINE
  5
E6
330
1F
100
AcDbEntity
  8
0
  6
Continuous
 62
     7
370
    15
100
AcDbLine
 10
8.9373934779
 20
19.3718573934
 30
0.0
 11
0.9725812016
 21
33.1673169287
 31
0.0
  0
ENDSEC
  0
SECTION
  2
OBJECTS
  0
DICTIONARY
  5
C
330
0
100
AcDbDictionary
281
     1
  3
ACAD_GROUP
350
D
  3
ACAD_LAYOUT
350
1A
  3
ACAD_MLINESTYLE
350
17
  3
ACAD_PLOTSETTINGS
350
19
  3
ACAD_PLOTSTYLENAME
350
E
  3
ACAD_SCALELIST
350
47
  0
DICTIONARY
  5
D
102
{ACAD_REACTORS
330
C
102
}
330
C
100
AcDbDictionary
281
     1
  0
DICTIONARY
  5
1A
102
{ACAD_REACTORS
330
C
102
}
330
C
100
AcDbDictionary
281
     1
  3
Layout1
350
1E
  3
Layout2
350
26
  3
Model
350
22
  0
DICTIONARY
  5
17
102
{ACAD_REACTORS
330
C
102
}
330
C
100
AcDbDictionary
281
     1
  3
Standard
350
18
  0
DICTIONARY
  5
19
102
{ACAD_REACTORS
330
C
102
}
330
C
100
AcDbDictionary
281
     1
  0
ACDBDICTIONARYWDFLT
  5
E
102
{ACAD_REACTORS
330
C
102
}
330
C
100
AcDbDictionary
281
     1
  3
Normal
350
F
100
AcDbDictionaryWithDefault
340
F
  0
DICTIONARY
  5
47
102
{ACAD_REACTORS
330
C
102
}
330
C
100
AcDbDictionary
281
     1
  3
A0
350
48
  3
A1
350
49
  3
A2
350
4A
  3
A3
350
4B
  3
A4
350
4C
  3
A5
350
4D
  3
A6
350
4E
  3
A7
350
4F
  3
A8
350
50
  3
A9
350
51
  3
B0
350
52
  3
B1
350
53
  3
B2
350
54
  3
B3
350
55
  3
B4
350
56
  3
B5
350
57
  3
B6
350
58
  3
B7
350
59
  3
B8
350
5A
  3
B9
350
5B
  3
C0
350
5C
  3
C1
350
5D
  3
C2
350
5E
  3
C3
350
5F
  3
C4
350
60
  3
C5
350
61
  3
C6
350
62
  3
C7
350
63
  3
C8
350
64
  3
C9
350
65
  3
D0
350
66
  3
D1
350
67
  3
D2
350
68
  0
LAYOUT
  5
1E
102
{ACAD_REACTORS
330
1A
102
}
330
1A
100
AcDbPlotSettings
  1

  2
none_device
  4

  6

 40
0.0
 41
0.0
 42
0.0
 43
0.0
 44
0.0
 45
0.0
 46
0.0
 47
0.0
 48
0.0
 49
0.0
140
0.0
141
0.0
142
1.0
143
1.0
 70
   688
 72
     1
 73
     0
 74
     5
  7

 75
    16
147
1.0
148
0.0
149
0.0
100
AcDbLayout
  1
Layout1
 70
     1
 71
     1
 10
0.0
 20
0.0
 11
420.0
 21
297.0
 12
0.0
 22
0.0
 32
0.0
 14
1.0000000000E+20
 24
1.0000000000E+20
 34
1.0000000000E+20
 15
-1.0000000000E+20
 25
-1.0000000000E+20
 35
-1.0000000000E+20
146
0.0
 13
0.0
 23
0.0
 33
0.0
 16
1.0
 26
0.0
 36
0.0
 17
0.0
 27
1.0
 37
0.0
 76
     0
330
1B
  0
LAYOUT
  5
26
102
{ACAD_REACTORS
330
1A
102
}
330
1A
100
AcDbPlotSettings
  1

  2
none_device
  4

  6

 40
0.0
 41
0.0
 42
0.0
 43
0.0
 44
0.0
 45
0.0
 46
0.0
 47
0.0
 48
0.0
 49
0.0
140
0.0
141
0.0
142
1.0
143
1.0
 70
   688
 72
     1
 73
     0
 74
     5
  7

 75
    16
147
1.0
148
0.0
149
0.0
100
AcDbLayout
  1
Layout2
 70
     1
 71
     2
 10
0.0
 20
0.0
 11
0.0
 21
0.0
 12
0.0
 22
0.0
 32
0.0
 14
0.0
 24
0.0
 34
0.0
 15
0.0
 25
0.0
 35
0.0
146
0.0
 13
0.0
 23
0.0
 33
0.0
 16
1.0
 26
0.0
 36
0.0
 17
0.0
 27
1.0
 37
0.0
 76
     0
330
23
  0
LAYOUT
  5
22
102
{ACAD_REACTORS
330
1A
102
}
330
1A
100
AcDbPlotSettings
  1

  2
none_device
  4
ANSI_A_(11.00_x_8.50_Inches)
  6

 40
6.35
 41
19.05
 42
6.35000508
 43
19.05000254
 44
279.4
 45
215.9
 46
52.8404700158
 47
64.1742445102
 48
0.0
 49
0.0
140
0.0
141
0.0
142
0.0518571429
143
1.0
 70
  1696
 72
     0
 73
     0
 74
     0
  7

 75
     0
147
0.0179189148
148
-1300.4909072572
149
0.0
100
AcDbLayout
  1
Model
 70
     1
 71
     0
 10
0.0
 20
0.0
 11
420.0
 21
297.0
 12
0.0
 22
0.0
 32
0.0
 14
-43.8769558026
 24
-1.2281426066
 34
0.0
 15
166.1230441974
 25
38.7718573934
 35
0.0
146
0.0
 13
0.0
 23
0.0
 33
0.0
 16
1.0
 26
0.0
 36
0.0
 17
0.0
 27
1.0
 37
0.0
 76
     0
330
1F
331
29
  0
MLINESTYLE
  5
18
102
{ACAD_REACTORS
330
17
102
}
330
17
100
AcDbMlineStyle
  2
Standard
 70
     0
  3

 62
   256
 51
90.0
 52
90.0
 71
     2
 49
0.5
 62
   256
  6
BYLAYER
 49
-0.5
 62
   256
  6
BYLAYER
  0
ACDBPLACEHOLDER
  5
F
102
{ACAD_REACTORS
330
E
102
}
330
E
  0
SCALE
  5
48
102
{ACAD_REACTORS
330
47
102
}
330
47
100
AcDbScale
 70
     0
300
1:1
140
1.0
141
1.0
290
     1
  0
SCALE
  5
49
102
{ACAD_REACTORS
330
47
102
}
330
47
100
AcDbScale
 70
     0
300
1:2
140
1.0
141
2.0
290
     0
  0
SCALE
  5
4A
102
{ACAD_REACTORS
330
47
102
}
330
47
100
AcDbScale
 70
     0
300
1:4
140
1.0
141
4.0
290
     0
  0
SCALE
  5
4B
102
{ACAD_REACTORS
330
47
102
}
330
47
100
AcDbScale
 70
     0
300
1:5
140
1.0
141
5.0
290
     0
  0
SCALE
  5
4C
102
{ACAD_REACTORS
330
47
102
}
330
47
100
AcDbScale
 70
     0
300
1:8
140
1.0
141
8.0
290
     0
  0
SCALE
  5
4D
102
{ACAD_REACTORS
330
47
102
}
330
47
100
AcDbScale
 70
     0
300
1:10
140
1.0
141
10.0
290
     0
  0
SCALE
  5
4E
102
{ACAD_REACTORS
330
47
102
}
330
47
100
AcDbScale
 70
     0
300
1:16
140
1.0
141
16.0
290
     0
  0
SCALE
  5
4F
102
{ACAD_REACTORS
330
47
102
}
330
47
100
AcDbScale
 70
     0
300
1:20
140
1.0
141
20.0
290
     0
  0
SCALE
  5
50
102
{ACAD_REACTORS
330
47
102
}
330
47
100
AcDbScale
 70
     0
300
1:30
140
1.0
141
30.0
290
     0
  0
SCALE
  5
51
102
{ACAD_REACTORS
330
47
102
}
330
47
100
AcDbScale
 70
     0
300
1:40
140
1.0
141
40.0
290
     0
  0
SCALE
  5
52
102
{ACAD_REACTORS
330
47
102
}
330
47
100
AcDbScale
 70
     0
300
1:50
140
1.0
141
50.0
290
     0
  0
SCALE
  5
53
102
{ACAD_REACTORS
330
47
102
}
330
47
100
AcDbScale
 70
     0
300
1:100
140
1.0
141
100.0
290
     0
  0
SCALE
  5
54
102
{ACAD_REACTORS
330
47
102
}
330
47
100
AcDbScale
 70
     0
300
2:1
140
2.0
141
1.0
290
     0
  0
SCALE
  5
55
102
{ACAD_REACTORS
330
47
102
}
330
47
100
AcDbScale
 70
     0
300
4:1
140
4.0
141
1.0
290
     0
  0
SCALE
  5
56
102
{ACAD_REACTORS
330
47
102
}
330
47
100
AcDbScale
 70
     0
300
8:1
140
8.0
141
1.0
290
     0
  0
SCALE
  5
57
102
{ACAD_REACTORS
330
47
102
}
330
47
100
AcDbScale
 70
     0
300
10:1
140
10.0
141
1.0
290
     0
  0
SCALE
  5
58
102
{ACAD_REACTORS
330
47
102
}
330
47
100
AcDbScale
 70
     0
300
100:1
140
100.0
141
1.0
290
     0
  0
SCALE
  5
59
102
{ACAD_REACTORS
330
47
102
}
330
47
100
AcDbScale
 70
     0
300
1/128" = 1'-0"
140
0.0078125
141
12.0
290
     0
  0
SCALE
  5
5A
102
{ACAD_REACTORS
330
47
102
}
330
47
100
AcDbScale
 70
     0
300
1/64" = 1'-0"
140
0.015625
141
12.0
290
     0
  0
SCALE
  5
5B
102
{ACAD_REACTORS
330
47
102
}
330
47
100
AcDbScale
 70
     0
300
1/32" = 1'-0"
140
0.03125
141
12.0
290
     0
  0
SCALE
  5
5C
102
{ACAD_REACTORS
330
47
102
}
330
47
100
AcDbScale
 70
     0
300
1/16" = 1'-0"
140
0.0625
141
12.0
290
     0
  0
SCALE
  5
5D
102
{ACAD_REACTORS
330
47
102
}
330
47
100
AcDbScale
 70
     0
300
3/32" = 1'-0"
140
0.09375
141
12.0
290
     0
  0
SCALE
  5
5E
102
{ACAD_REACTORS
330
47
102
}
330
47
100
AcDbScale
 70
     0
300
1/8" = 1'-0"
140
0.125
141
12.0
290
     0
  0
SCALE
  5
5F
102
{ACAD_REACTORS
330
47
102
}
330
47
100
AcDbScale
 70
     0
300
3/16" = 1'-0"
140
0.1875
141
12.0
290
     0
  0
SCALE
  5
60
102
{ACAD_REACTORS
330
47
102
}
330
47
100
AcDbScale
 70
     0
300
1/4" = 1'-0"
140
0.25
141
12.0
290
     0
  0
SCALE
  5
61
102
{ACAD_REACTORS
330
47
102
}
330
47
100
AcDbScale
 70
     0
300
3/8" = 1'-0"
140
0.375
141
12.0
290
     0
  0
SCALE
  5
62
102
{ACAD_REACTORS
330
47
102
}
330
47
100
AcDbScale
 70
     0
300
1/2" = 1'-0"
140
0.5
141
12.0
290
     0
  0
SCALE
  5
63
102
{ACAD_REACTORS
330
47
102
}
330
47
100
AcDbScale
 70
     0
300
3/4" = 1'-0"
140
0.75
141
12.0
290
     0
  0
SCALE
  5
64
102
{ACAD_REACTORS
330
47
102
}
330
47
100
AcDbScale
 70
     0
300
1" = 1'-0"
140
1.0
141
12.0
290
     0
  0
SCALE
  5
65
102
{ACAD_REACTORS
330
47
102
}
330
47
100
AcDbScale
 70
     0
300
1-1/2" = 1'-0"
140
1.5
141
12.0
290
     0
  0
SCALE
  5
66
102
{ACAD_REACTORS
330
47
102
}
330
47
100
AcDbScale
 70
     0
300
3" = 1'-0"
140
3.0
141
12.0
290
     0
  0
SCALE
  5
67
102
{ACAD_REACTORS
330
47
102
}
330
47
100
AcDbScale
 70
     0
300
6" = 1'-0"
140
6.0
141
12.0
290
     0
  0
SCALE
  5
68
102
{ACAD_REACTORS
330
47
102
}
330
47
100
AcDbScale
 70
     0
300
1'-0" = 1'-0"
140
12.0
141
12.0
290
     0
  0
ENDSEC
  0
EOF
