<?xml version="1.0" encoding="UTF-8" standalone="no"?>
<!-- Created with Inkscape (http://www.inkscape.org/) -->

<svg
   xmlns:dc="http://purl.org/dc/elements/1.1/"
   xmlns:cc="http://creativecommons.org/ns#"
   xmlns:rdf="http://www.w3.org/1999/02/22-rdf-syntax-ns#"
   xmlns:svg="http://www.w3.org/2000/svg"
   xmlns="http://www.w3.org/2000/svg"
   xmlns:sodipodi="http://sodipodi.sourceforge.net/DTD/sodipodi-0.dtd"
   xmlns:inkscape="http://www.inkscape.org/namespaces/inkscape"
   width="210mm"
   height="297mm"
   viewBox="0 0 744.09448819 1052.3622047"
   id="svg2"
   version="1.1"
   inkscape:version="0.91 r13725"
   sodipodi:docname="montre_ICC2015.svg">
  <defs
     id="defs4" />
  <sodipodi:namedview
     id="base"
     pagecolor="#ffffff"
     bordercolor="#666666"
     borderopacity="1.0"
     inkscape:pageopacity="0.0"
     inkscape:pageshadow="2"
     inkscape:zoom="5.9237048"
     inkscape:cx="372.04723"
     inkscape:cy="704.12301"
     inkscape:document-units="px"
     inkscape:current-layer="layer1"
     showgrid="false"
     inkscape:window-width="1280"
     inkscape:window-height="738"
     inkscape:window-x="-8"
     inkscape:window-y="-8"
     inkscape:window-maximized="1" />
  <metadata
     id="metadata7">
    <rdf:RDF>
      <cc:Work
         rdf:about="">
        <dc:format>image/svg+xml</dc:format>
        <dc:type
           rdf:resource="http://purl.org/dc/dcmitype/StillImage" />
        <dc:title></dc:title>
      </cc:Work>
    </rdf:RDF>
  </metadata>
  <g
     inkscape:label="Calque 1"
     inkscape:groupmode="layer"
     id="layer1">
    <rect
       style="fill:none;stroke:#ff0000;stroke-width:0.07086614;stroke-miterlimit:4;stroke-dasharray:none"
       id="rect3338"
       width="141.73228"
       height="70.866142"
       x="301.18109"
       y="312.80612"
       ry="17.716536"
       rx="17.716536" />
    <text
       xml:space="preserve"
       style="font-style:normal;font-weight:normal;font-size:40px;line-height:125%;font-family:sans-serif;letter-spacing:0px;word-spacing:0px;fill:#000000;fill-opacity:1;stroke:none;stroke-width:1px;stroke-linecap:butt;stroke-linejoin:miter;stroke-opacity:1"
       x="334.03568"
       y="328.41534"
       id="text3340"
       sodipodi:linespacing="125%"><tspan
         sodipodi:role="line"
         id="tspan3342"
         x="334.03568"
         y="328.41534"
         style="font-style:normal;font-variant:normal;font-weight:normal;font-stretch:normal;font-size:12.5px;font-family:Tahoma;-inkscape-font-specification:Tahoma">Innovative City</tspan></text>
    <g
       transform="translate(8.8204699,-16.893957)"
       id="g3390">
      <path
         style="fill:#5d5d5d"
         d="m 326.1196,395.90897 c -0.0229,-0.0601 -0.0318,-2.6467 -0.0198,-5.74809 l 0.022,-5.63891 0.7428,-0.0245 c 0.73174,-0.0242 0.74405,-0.0212 0.82676,0.19631 0.0462,0.12145 0.084,0.33281 0.084,0.46969 0,0.13688 0.0343,0.24887 0.0763,0.24887 0.0419,0 0.26934,-0.12993 0.5053,-0.28872 0.77781,-0.52343 1.4243,-0.68732 2.68305,-0.68018 0.95986,0.005 1.18198,0.0346 1.71848,0.22524 1.80085,0.64001 2.73701,1.93403 2.86913,3.96589 0.19249,2.96034 -1.59025,4.91787 -4.50281,4.94433 -1.16276,0.0106 -2.19712,-0.31671 -2.91793,-0.92323 -0.16517,-0.13899 -0.30273,-0.1984 -0.34996,-0.15117 -0.0428,0.0428 -0.0882,0.83991 -0.10088,1.77135 l -0.0231,1.69353 -0.78579,0.0244 c -0.58095,0.018 -0.79667,-0.004 -0.82752,-0.0848 z m 5.90449,-4.09734 c 1.16851,-0.41096 1.7717,-1.37714 1.7717,-2.83789 0,-1.49403 -0.61517,-2.43973 -1.84972,-2.84353 -0.60883,-0.19914 -1.92809,-0.13943 -2.49348,0.11285 -1.20405,0.53727 -1.83693,1.82964 -1.59963,3.26653 0.22748,1.37748 0.89027,2.09805 2.21183,2.40467 0.55065,0.12776 1.4361,0.0814 1.9593,-0.10263 z m 27.40629,3.25938 c -0.87714,-0.0782 -1.68975,-0.26789 -2.14692,-0.50112 -0.9386,-0.47884 -1.59078,-1.89318 -1.50522,-3.26427 0.0677,-1.08402 0.49196,-1.53285 1.3626,-1.44134 0.69309,0.0728 1.92873,0.4553 3.72776,1.15381 3.56817,1.38541 4.9037,1.87841 5.78546,2.13566 0.51301,0.14968 0.95183,0.31021 0.97515,0.35674 0.0644,0.12854 -0.98351,0.59929 -2.05431,0.92283 -1.14411,0.3457 -2.20121,0.53342 -3.62864,0.64438 -1.18799,0.0923 -1.41188,0.0917 -2.51588,-0.007 z m 9.76754,-1.3134 c -0.0933,-0.0212 -0.38899,-0.0812 -0.65716,-0.13334 -0.26817,-0.0521 -0.48757,-0.12309 -0.48757,-0.15774 0,-0.0346 0.16811,-0.20076 0.37359,-0.36913 1.09143,-0.89434 0.97118,-2.41109 -0.32316,-4.07609 -0.23948,-0.30806 -0.36107,-0.53402 -0.31315,-0.58194 0.16154,-0.16153 2.65205,1.37761 3.56287,2.20186 1.28614,1.16389 1.37422,2.33569 0.21874,2.91023 -0.36039,0.1792 -0.55718,0.2133 -1.31421,0.22775 -0.4897,0.009 -0.96667,-3.4e-4 -1.05995,-0.0216 z m -60.3384,-0.11293 c -1.27097,-0.17871 -2.46372,-0.77936 -3.02738,-1.52453 -0.45382,-0.59997 -0.41881,-0.64294 0.97839,-1.20086 0.15803,-0.0631 0.23183,-0.0315 0.42026,0.17998 0.47797,0.53644 1.14842,0.79544 2.31348,0.89371 1.90178,0.16042 3.44288,-0.69219 2.83077,-1.5661 -0.21683,-0.30957 -0.77136,-0.49455 -2.45836,-0.82007 -2.33626,-0.4508 -3.19186,-0.75212 -3.76601,-1.32627 -0.36265,-0.36264 -0.5071,-0.72641 -0.50652,-1.27557 6.8e-4,-0.66542 0.14186,-1.05809 0.53283,-1.48224 0.74971,-0.81334 2.02703,-1.18796 3.74851,-1.09938 1.68244,0.0866 2.84514,0.47986 3.57433,1.20906 0.53798,0.53798 0.50415,0.62811 -0.37007,0.98589 l -0.7391,0.30248 -0.37563,-0.33064 c -0.50534,-0.44482 -1.03997,-0.60079 -2.2186,-0.64726 -1.12055,-0.0442 -1.57785,0.0467 -1.96198,0.38993 -0.5184,0.4632 -0.25406,0.98873 0.64075,1.27381 0.62481,0.19907 0.66212,0.20743 2.14159,0.48031 2.38663,0.4402 3.21072,0.84122 3.64494,1.7737 0.70986,1.52443 -0.44391,3.16663 -2.55516,3.63681 -0.72322,0.16107 -2.20407,0.23765 -2.84704,0.14724 z m 69.57162,-0.006 c -0.74405,-0.10436 -1.18931,-0.23717 -1.7586,-0.52455 -0.55712,-0.28123 -1.27415,-0.90885 -1.46917,-1.28596 -0.16362,-0.31641 -0.10052,-0.37931 0.73189,-0.72963 l 0.63206,-0.26601 0.27945,0.30504 c 0.3729,0.40703 1.03205,0.69596 1.85263,0.81204 1.96305,0.27771 3.72408,-0.44923 3.33921,-1.37839 -0.16073,-0.38803 -0.78911,-0.62174 -2.68888,-1.00006 -1.84756,-0.36793 -2.5699,-0.57572 -3.12873,-0.90005 -1.37986,-0.80082 -1.3588,-2.71612 0.0396,-3.60512 0.76884,-0.48875 1.42646,-0.62935 2.90076,-0.62019 1.46693,0.009 2.19763,0.15338 3.11031,0.6141 0.46571,0.23509 1.21426,0.92058 1.21426,1.11197 0,0.0993 -0.26778,0.24454 -0.99653,0.54032 l -0.53015,0.21517 -0.30556,-0.28817 c -0.55169,-0.52031 -1.09154,-0.6684 -2.44993,-0.67205 -1.32159,-0.004 -1.74128,0.11535 -1.98871,0.56341 -0.34011,0.6159 0.31003,1.0416 2.1159,1.38545 2.72567,0.51898 3.33621,0.71138 3.93781,1.24093 0.55199,0.48589 0.7504,0.91108 0.74489,1.59631 -0.014,1.73834 -1.52616,2.78652 -4.20759,2.91658 -0.47118,0.0229 -1.08991,0.009 -1.37496,-0.0311 z m -59.68655,-0.12095 c -1.91899,-0.44233 -3.11109,-1.54817 -3.52681,-3.27161 -0.0619,-0.25651 -0.11169,-0.84795 -0.11071,-1.31433 0.002,-1.04845 0.22094,-1.83061 0.72162,-2.58039 1.27273,-1.90593 4.59302,-2.55009 7.00813,-1.35962 1.45944,0.7194 2.21858,1.86339 2.36132,3.55843 0.19345,2.29717 -0.96617,4.12695 -3.04062,4.79785 -0.57587,0.18625 -0.89427,0.23159 -1.80182,0.25658 -0.73861,0.0203 -1.27021,-0.008 -1.61111,-0.0869 z m 2.62866,-1.6976 c 1.3207,-0.3942 1.9927,-1.35804 1.9927,-2.85815 0,-1.59139 -0.88995,-2.60475 -2.53532,-2.8869 -1.58633,-0.27203 -3.14254,0.41193 -3.67869,1.6168 -0.41281,0.92768 -0.25238,2.4011 0.34703,3.18715 0.74436,0.97613 2.40523,1.37957 3.87428,0.9411 z m 15.35405,1.68456 c -0.11762,-0.11762 -0.13325,-0.63555 -0.13325,-4.41494 0,-2.78932 0.0306,-4.33886 0.0878,-4.44571 0.0759,-0.14185 0.1825,-0.16401 0.78859,-0.16401 0.43202,0 0.73985,0.039 0.80258,0.10175 0.056,0.056 0.10175,0.28266 0.10175,0.50377 0,0.22111 0.0349,0.4236 0.0776,0.44998 0.0427,0.0264 0.18578,-0.0426 0.31798,-0.15321 0.38635,-0.32335 1.10761,-0.65181 1.71318,-0.78017 0.74326,-0.15754 1.57087,-0.15899 1.70035,-0.003 0.0621,0.0748 0.0896,0.36691 0.074,0.78436 l -0.0249,0.6652 -0.59211,0.0585 c -1.23271,0.1218 -1.93116,0.42105 -2.52545,1.08204 -0.62808,0.69859 -0.65584,0.85527 -0.65584,3.70186 0,2.14176 -0.0182,2.49849 -0.13325,2.61355 -0.0985,0.0985 -0.30688,0.13325 -0.7995,0.13325 -0.49262,0 -0.70098,-0.0347 -0.7995,-0.13325 z m 9.23361,0.0448 c -1.52138,-0.19891 -2.8091,-1.06602 -3.40179,-2.29065 -0.36331,-0.75068 -0.48459,-1.33226 -0.48527,-2.32708 -0.002,-2.24991 1.21002,-3.81164 3.38947,-4.36905 1.40657,-0.35974 3.01555,-0.10122 3.98843,0.64083 0.15086,0.11506 0.30962,0.20921 0.35281,0.20921 0.0432,0 0.11252,-0.20033 0.15405,-0.44518 l 0.0755,-0.44518 0.76316,0 0.76316,0 0.022,4.48869 c 0.0173,3.53476 -7.6e-4,4.5031 -0.0848,4.55646 -0.13399,0.0851 -1.2605,0.0895 -1.38962,0.005 -0.0527,-0.0343 -0.12301,-0.26262 -0.15635,-0.50747 -0.0333,-0.24485 -0.0906,-0.44518 -0.12719,-0.44518 -0.0366,0 -0.28596,0.13212 -0.55412,0.2936 -0.59362,0.35745 -1.08391,0.52466 -1.86486,0.63598 -0.66146,0.0943 -0.7201,0.0943 -1.44457,-4.2e-4 z m 1.68738,-1.64895 c 1.27659,-0.27046 1.96281,-0.99987 2.19065,-2.32852 0.0802,-0.46749 0.0802,-0.72823 0,-1.19572 -0.13089,-0.76333 -0.32348,-1.13472 -0.83791,-1.61591 -0.59626,-0.55774 -1.06061,-0.71168 -2.14673,-0.71168 -0.78349,0 -0.9472,0.0267 -1.36406,0.22215 -0.60213,0.28238 -1.05686,0.7371 -1.33923,1.33924 -0.19328,0.41214 -0.22215,0.58391 -0.22215,1.32166 0,1.04 0.16076,1.51536 0.71167,2.10433 0.42996,0.45966 0.80945,0.68131 1.47187,0.85969 0.57363,0.15446 0.82565,0.15524 1.53589,0.005 z m 47.24571,1.64879 c -2.11177,-0.33175 -3.64519,-1.64933 -4.02191,-3.4558 -0.1302,-0.62436 -0.1149,-1.65484 0.034,-2.28618 0.37661,-1.59734 1.60996,-2.84201 3.26416,-3.29413 0.38081,-0.10408 0.85256,-0.15031 1.52632,-0.14959 0.83157,8.9e-4 1.06583,0.0333 1.59107,0.22021 0.80004,0.28466 1.35113,0.64436 1.9044,1.24301 0.76973,0.83286 1.20071,2.00527 1.15078,3.13052 -0.0229,0.51663 -0.0416,0.56553 -0.23689,0.61957 -0.11659,0.0323 -1.82536,0.0625 -3.79726,0.0671 -3.08127,0.007 -3.59204,0.0261 -3.63341,0.13391 -0.0845,0.22012 0.30525,0.8727 0.78069,1.30722 1.24259,1.13566 3.27237,1.2126 4.82108,0.18274 0.27663,-0.18395 0.54373,-0.31024 0.59357,-0.28064 0.28276,0.16797 1.0621,0.93229 1.06377,1.04327 0.005,0.31538 -1.40806,1.15039 -2.35729,1.39323 -0.66078,0.16905 -2.00553,0.23196 -2.68304,0.12553 z m 3.46365,-5.40705 c 0.0233,-0.0378 0,-0.23812 -0.0526,-0.44517 -0.0698,-0.27614 -0.22312,-0.50468 -0.57539,-0.85757 -0.40863,-0.40935 -0.57236,-0.50908 -1.09752,-0.66859 -0.64529,-0.19601 -1.36099,-0.19586 -2.03908,4.2e-4 -0.98469,0.28502 -2.03705,1.38244 -1.83374,1.91225 0.0421,0.10969 0.43122,0.12738 2.80239,0.12738 1.51443,0 2.77262,-0.0309 2.79598,-0.0687 z m 3.21021,5.42526 c -0.0841,-0.0534 -0.10208,-1.0217 -0.0848,-4.55646 l 0.022,-4.48869 0.70778,-0.0248 c 0.83166,-0.0291 0.94521,0.0336 0.94703,0.52272 0.002,0.57194 0.0898,0.62077 0.52217,0.29075 0.70016,-0.53444 1.67586,-0.82888 2.75198,-0.83046 0.57851,-8.6e-4 0.63822,0.0875 0.60766,0.89952 l -0.0249,0.66186 -0.82816,0.10376 c -1.33554,0.16735 -2.19306,0.67792 -2.67625,1.59346 l -0.2266,0.42936 -0.0242,2.62866 c -0.0215,2.32904 -0.0402,2.64074 -0.1646,2.73466 -0.15623,0.11798 -1.3553,0.14591 -1.52903,0.0356 z m 13.62926,-0.009 c -2.44096,-0.33162 -3.92235,-2.04558 -3.92552,-4.5418 -0.002,-1.44117 0.35559,-2.40046 1.21554,-3.26243 1.54833,-1.55196 4.499,-1.81579 6.15776,-0.55059 0.15086,0.11506 0.31208,0.20921 0.35827,0.20921 0.0462,0 0.11577,-0.20033 0.15462,-0.44518 l 0.0707,-0.44518 0.71858,-0.0249 c 0.60278,-0.0209 0.73592,-0.001 0.82618,0.1222 0.0836,0.11431 0.1076,1.10729 0.1076,4.44945 0,3.79813 -0.0156,4.31793 -0.13325,4.43556 -0.0967,0.0967 -0.30031,0.1329 -0.74196,0.13195 -0.33479,-6.7e-4 -0.65055,-0.0293 -0.70167,-0.0636 -0.0511,-0.0343 -0.11807,-0.25008 -0.14876,-0.47958 -0.0679,-0.50771 -0.0969,-0.54149 -0.33451,-0.38937 -1.13634,0.72755 -2.38668,1.02233 -3.62353,0.85429 z m 2.14807,-1.78702 c 0.64642,-0.24186 1.10507,-0.6694 1.43324,-1.33602 0.26243,-0.53305 0.27896,-0.61996 0.27751,-1.45916 -0.002,-1.10124 -0.18042,-1.56952 -0.83393,-2.18758 -0.61765,-0.58415 -1.07532,-0.73987 -2.17456,-0.73987 -0.78349,0 -0.94721,0.0267 -1.36406,0.22215 -0.60217,0.28239 -1.0569,0.73714 -1.33917,1.33924 -0.19577,0.41757 -0.22193,0.57921 -0.22087,1.36406 10e-4,0.74513 0.0328,0.95951 0.19477,1.31433 0.65293,1.43005 2.42458,2.08241 4.02707,1.48285 z m -29.7274,1.62167 c -0.61336,-0.2029 -1.01647,-0.50678 -1.28188,-0.96631 -0.37634,-0.65163 -0.40985,-0.91868 -0.46512,-3.70693 l -0.0529,-2.67106 -0.80556,-0.0424 -0.80556,-0.0424 -0.025,-0.671 c -0.0179,-0.47954 0.006,-0.69088 0.0848,-0.74067 0.0604,-0.0383 0.4437,-0.0702 0.85177,-0.071 l 0.74196,-0.001 0.001,-0.95395 c 8.4e-4,-0.52468 0.0325,-1.00317 0.0707,-1.06332 0.0505,-0.0797 0.28623,-0.10269 0.86786,-0.0848 l 0.79847,0.0246 0.0424,1.01754 0.0424,1.01755 1.28921,0.0424 c 0.76551,0.0252 1.32686,0.0802 1.3819,0.13541 0.0554,0.0555 0.0826,0.34588 0.0675,0.72076 l -0.0252,0.62775 -1.26608,0.0236 c -0.78952,0.0147 -1.30995,0.06 -1.38262,0.12027 -0.17626,0.14628 -0.11992,4.83497 0.0624,5.19513 0.28254,0.55806 1.1083,0.82319 2.03695,0.65401 0.31622,-0.0576 0.49835,-0.0566 0.57051,0.003 0.16268,0.13452 0.14201,1.28816 -0.0256,1.42724 -0.0873,0.0725 -0.4936,0.11904 -1.20833,0.13849 -0.88772,0.0242 -1.16273,8.7e-4 -1.56631,-0.13263 z m 20.66855,0.0572 c -0.023,-0.06 -0.0319,-2.0933 -0.0197,-4.51845 l 0.022,-4.40937 0.84796,0 0.84795,0 0,4.49417 0,4.49416 -0.82823,0.0243 c -0.615,0.018 -0.83898,-0.004 -0.87,-0.0848 z m -49.5839,-4.97855 c -2.35649,-1.3218 -3.69868,-2.59188 -3.7059,-3.50681 -0.004,-0.53674 0.36961,-1.04365 0.94792,-1.28528 0.64017,-0.26748 2.06185,-0.24777 3.14385,0.0436 l 0.32552,0.0876 -0.49645,0.48299 c -0.72372,0.7041 -0.85521,1.27848 -0.53214,2.32448 0.16063,0.52005 0.64123,1.3603 1.07235,1.87482 0.44155,0.52697 0.21087,0.52042 -0.75515,-0.0214 z m 10.53788,-1.23869 c -0.91832,-0.25835 -1.21669,-0.36686 -4.22592,-1.53689 -2.33021,-0.90601 -4.0652,-1.51582 -4.91628,-1.72795 -0.21652,-0.054 -0.35241,-0.13252 -0.3329,-0.19244 0.0498,-0.15293 0.67908,-0.4405 1.70714,-0.7801 1.67768,-0.5542 3.30267,-0.80507 5.21462,-0.80507 2.003,0 3.23899,0.27751 3.88399,0.87205 0.91034,0.83912 1.35348,2.6852 0.89394,3.72406 -0.30978,0.70031 -0.90054,0.81884 -2.22459,0.44634 z m 39.33025,-3.78552 c -0.43584,-0.25269 -0.61536,-0.61855 -0.5571,-1.13535 0.0376,-0.33401 0.10434,-0.46556 0.35039,-0.69104 0.37594,-0.34453 0.97792,-0.40501 1.39157,-0.13981 0.77504,0.49688 0.6525,1.66561 -0.21331,2.03453 -0.37477,0.15968 -0.60638,0.14339 -0.97155,-0.0683 z"
         id="path3394"
         inkscape:connector-curvature="0" />
    </g>
    <rect
       style="fill:none;stroke:#333333;stroke-width:0.35433071;stroke-miterlimit:4;stroke-dasharray:none"
       id="rect3338-4"
       width="137.34065"
       height="67.488609"
       x="303.37689"
       y="314.60538"
       ry="16.872152"
       rx="17.167582" />
  </g>
</svg>
