  0
SECTION
  2
HEADER
  9
$ACADVER
  1
AC1015
  9
$ACADMAINTVER
 70
     6
  9
$DWGCODEPAGE
  3
ANSI_1252
  9
$INSBASE
 10
0.0
 20
0.0
 30
0.0
  9
$EXTMIN
 10
-34.9143264774
 20
0.0
 30
0.0
  9
$EXTMAX
 10
185.7030171795
 20
208.5985494158
 30
0.0
  9
$LIMMIN
 10
0.0
 20
0.0
  9
$LIMMAX
 10
420.0
 20
297.0
  9
$ORTHOMODE
 70
     0
  9
$REGENMODE
 70
     1
  9
$FILLMODE
 70
     1
  9
$QTEXTMODE
 70
     0
  9
$MIRRTEXT
 70
     1
  9
$LTSCALE
 40
1.0
  9
$ATTMODE
 70
     1
  9
$TEXTSIZE
 40
3.5
  9
$TRACEWID
 40
1.0
  9
$TEXTSTYLE
  7
Standard
  9
$CLAYER
  8
0
  9
$CELTYPE
  6
ByLayer
  9
$CECOLOR
 62
   256
  9
$CELTSCALE
 40
1.0
  9
$DISPSILH
 70
     0
  9
$DIMSCALE
 40
1.0
  9
$DIMASZ
 40
3.302
  9
$DIMEXO
 40
1.0
  9
$DIMDLI
 40
3.75
  9
$DIMRND
 40
0.0
  9
$DIMDLE
 40
0.0
  9
$DIMEXE
 40
1.0
  9
$DIMTP
 40
0.0
  9
$DIMTM
 40
0.0
  9
$DIMTXT
 40
3.5
  9
$DIMCEN
 40
2.5
  9
$DIMTSZ
 40
0.0
  9
$DIMTOL
 70
     0
  9
$DIMLIM
 70
     0
  9
$DIMTIH
 70
     1
  9
$DIMTOH
 70
     1
  9
$DIMSE1
 70
     0
  9
$DIMSE2
 70
     0
  9
$DIMTAD
 70
     1
  9
$DIMZIN
 70
     0
  9
$DIMBLK
  1

  9
$DIMASO
 70
     1
  9
$DIMSHO
 70
     1
  9
$DIMPOST
  1

  9
$DIMAPOST
  1

  9
$DIMALT
 70
     0
  9
$DIMALTD
 70
     3
  9
$DIMALTF
 40
0.0393700787
  9
$DIMLFAC
 40
1.0
  9
$DIMTOFL
 70
     1
  9
$DIMTVP
 40
0.0
  9
$DIMTIX
 70
     0
  9
$DIMSOXD
 70
     0
  9
$DIMSAH
 70
     0
  9
$DIMBLK1
  1

  9
$DIMBLK2
  1

  9
$DIMSTYLE
  2
ISO-25
  9
$DIMCLRD
 70
     0
  9
$DIMCLRE
 70
     0
  9
$DIMCLRT
 70
     0
  9
$DIMTFAC
 40
1.0
  9
$DIMGAP
 40
1.524
  9
$DIMJUST
 70
     0
  9
$DIMSD1
 70
     0
  9
$DIMSD2
 70
     0
  9
$DIMTOLJ
 70
     0
  9
$DIMTZIN
 70
     0
  9
$DIMALTZ
 70
     0
  9
$DIMALTTZ
 70
     0
  9
$DIMUPT
 70
     0
  9
$DIMDEC
 70
     2
  9
$DIMTDEC
 70
     2
  9
$DIMALTU
 70
     2
  9
$DIMALTTD
 70
     3
  9
$DIMTXSTY
  7
Standard
  9
$DIMAUNIT
 70
     0
  9
$DIMADEC
 70
     2
  9
$DIMALTRND
 40
0.0
  9
$DIMAZIN
 70
     0
  9
$DIMDSEP
 70
    44
  9
$DIMATFIT
 70
     3
  9
$DIMFRAC
 70
     0
  9
$DIMLDRBLK
  1

  9
$DIMLUNIT
 70
     2
  9
$DIMLWD
 70
    -2
  9
$DIMLWE
 70
    -2
  9
$DIMTMOVE
 70
     0
  9
$LUNITS
 70
     2
  9
$LUPREC
 70
     2
  9
$SKETCHINC
 40
1.0
  9
$FILLETRAD
 40
10.0
  9
$AUNITS
 70
     0
  9
$AUPREC
 70
     2
  9
$MENU
  1
.
  9
$ELEVATION
 40
0.0
  9
$PELEVATION
 40
0.0
  9
$THICKNESS
 40
0.0
  9
$LIMCHECK
 70
     0
  9
$CHAMFERA
 40
0.0
  9
$CHAMFERB
 40
0.0
  9
$CHAMFERC
 40
0.0
  9
$CHAMFERD
 40
0.0
  9
$SKPOLY
 70
     0
  9
$TDCREATE
 40
2457344.545183102
  9
$TDUCREATE
 40
2457344.503516435
  9
$TDUPDATE
 40
2457344.545209097
  9
$TDUUPDATE
 40
2457344.503542431
  9
$TDINDWG
 40
0.0000000116
  9
$TDUSRTIMER
 40
0.0000000116
  9
$USRTIMER
 70
     1
  9
$ANGBASE
 50
0.0
  9
$ANGDIR
 70
     0
  9
$PDMODE
 70
     0
  9
$PDSIZE
 40
-1.0
  9
$PLINEWID
 40
0.0
  9
$SPLFRAME
 70
     0
  9
$SPLINETYPE
 70
     6
  9
$SPLINESEGS
 70
     8
  9
$HANDSEED
  5
10F
  9
$SURFTAB1
 70
     6
  9
$SURFTAB2
 70
     6
  9
$SURFTYPE
 70
     6
  9
$SURFU
 70
     6
  9
$SURFV
 70
     6
  9
$UCSBASE
  2

  9
$UCSNAME
  2

  9
$UCSORG
 10
0.0
 20
0.0
 30
0.0
  9
$UCSXDIR
 10
1.0
 20
0.0
 30
0.0
  9
$UCSYDIR
 10
0.0
 20
1.0
 30
0.0
  9
$UCSORTHOREF
  2

  9
$UCSORTHOVIEW
 70
     0
  9
$UCSORGTOP
 10
0.0
 20
0.0
 30
0.0
  9
$UCSORGBOTTOM
 10
0.0
 20
0.0
 30
0.0
  9
$UCSORGLEFT
 10
0.0
 20
0.0
 30
0.0
  9
$UCSORGRIGHT
 10
0.0
 20
0.0
 30
0.0
  9
$UCSORGFRONT
 10
0.0
 20
0.0
 30
0.0
  9
$UCSORGBACK
 10
0.0
 20
0.0
 30
0.0
  9
$PUCSBASE
  2

  9
$PUCSNAME
  2

  9
$PUCSORG
 10
0.0
 20
0.0
 30
0.0
  9
$PUCSXDIR
 10
1.0
 20
0.0
 30
0.0
  9
$PUCSYDIR
 10
0.0
 20
1.0
 30
0.0
  9
$PUCSORTHOREF
  2

  9
$PUCSORTHOVIEW
 70
     0
  9
$PUCSORGTOP
 10
0.0
 20
0.0
 30
0.0
  9
$PUCSORGBOTTOM
 10
0.0
 20
0.0
 30
0.0
  9
$PUCSORGLEFT
 10
0.0
 20
0.0
 30
0.0
  9
$PUCSORGRIGHT
 10
0.0
 20
0.0
 30
0.0
  9
$PUCSORGFRONT
 10
0.0
 20
0.0
 30
0.0
  9
$PUCSORGBACK
 10
0.0
 20
0.0
 30
0.0
  9
$USERI1
 70
     0
  9
$USERI2
 70
     0
  9
$USERI3
 70
     0
  9
$USERI4
 70
     0
  9
$USERI5
 70
     0
  9
$USERR1
 40
0.0
  9
$USERR2
 40
0.0
  9
$USERR3
 40
0.0
  9
$USERR4
 40
0.0
  9
$USERR5
 40
0.0
  9
$WORLDVIEW
 70
     1
  9
$SHADEDGE
 70
     3
  9
$SHADEDIF
 70
    70
  9
$TILEMODE
 70
     1
  9
$MAXACTVP
 70
    64
  9
$PINSBASE
 10
0.0
 20
0.0
 30
0.0
  9
$PLIMCHECK
 70
     0
  9
$PEXTMIN
 10
1.0000000000E+20
 20
1.0000000000E+20
 30
1.0000000000E+20
  9
$PEXTMAX
 10
-1.0000000000E+20
 20
-1.0000000000E+20
 30
-1.0000000000E+20
  9
$PLIMMIN
 10
0.0
 20
0.0
  9
$PLIMMAX
 10
420.0
 20
297.0
  9
$UNITMODE
 70
     0
  9
$VISRETAIN
 70
     1
  9
$PLINEGEN
 70
     0
  9
$PSLTSCALE
 70
     1
  9
$TREEDEPTH
 70
  3020
  9
$CMLSTYLE
  2
Standard
  9
$CMLJUST
 70
     0
  9
$CMLSCALE
 40
20.0
  9
$PROXYGRAPHICS
 70
     1
  9
$MEASUREMENT
 70
     1
  9
$CELWEIGHT
370
    -1
  9
$ENDCAPS
280
     0
  9
$JOINSTYLE
280
     0
  9
$LWDISPLAY
290
     1
  9
$INSUNITS
 70
     4
  9
$HYPERLINKBASE
  1

  9
$STYLESHEET
  1

  9
$XEDIT
290
     1
  9
$CEPSNTYPE
380
     0
  9
$PSTYLEMODE
290
     1
  9
$FINGERPRINTGUID
  2
{6976C42E-0117-47E7-9F7E-2948C5AE4430}
  9
$VERSIONGUID
  2
{FAEB1C32-E019-11D5-929B-00C0DF256EC4}
  9
$EXTNAMES
290
     1
  9
$PSVPSCALE
 40
0.0
  9
$OLESTARTUP
290
     0
  0
ENDSEC
  0
SECTION
  2
CLASSES
  0
CLASS
  1
ACDBDICTIONARYWDFLT
  2
AcDbDictionaryWithDefault
  3
ObjectDBX Classes
 90
        0
280
     0
281
     0
  0
CLASS
  1
VISUALSTYLE
  2
AcDbVisualStyle
  3
ObjectDBX Classes
 90
     4095
280
     0
281
     0
  0
CLASS
  1
MATERIAL
  2
AcDbMaterial
  3
ObjectDBX Classes
 90
     1153
280
     0
281
     0
  0
CLASS
  1
SCALE
  2
AcDbScale
  3
ObjectDBX Classes
 90
     1153
280
     0
281
     0
  0
CLASS
  1
SUN
  2
AcDbSun
  3
SCENEOE
 90
     1153
280
     0
281
     0
  0
CLASS
  1
ACDBPLACEHOLDER
  2
AcDbPlaceHolder
  3
ObjectDBX Classes
 90
        0
280
     0
281
     0
  0
CLASS
  1
LAYOUT
  2
AcDbLayout
  3
ObjectDBX Classes
 90
        0
280
     0
281
     0
  0
ENDSEC
  0
SECTION
  2
TABLES
  0
TABLE
  2
VPORT
  5
8
330
0
100
AcDbSymbolTable
 70
     1
  0
VPORT
  5
29
330
8
100
AcDbSymbolTableRecord
100
AcDbViewportTableRecord
  2
*Active
 70
     0
 10
0.0
 20
0.0
 11
1.0
 21
1.0
 12
75.394345351
 22
104.2992747079
 13
0.0
 23
0.0
 14
10.0
 24
10.0
 15
10.0
 25
10.0
 16
0.0
 26
0.0
 36
1.0
 17
0.0
 27
0.0
 37
0.0
 40
212.7705204042
 41
1.0576168639
 42
50.0
 43
0.0
 44
0.0
 50
0.0
 51
0.0
 71
     0
 72
   100
 73
     1
 74
     3
 75
     0
 76
     0
 77
     0
 78
     0
281
     0
 65
     1
110
0.0
120
0.0
130
0.0
111
1.0
121
0.0
131
0.0
112
0.0
122
1.0
132
0.0
 79
     0
146
0.0
  0
ENDTAB
  0
TABLE
  2
LTYPE
  5
5
330
0
100
AcDbSymbolTable
 70
     6
  0
LTYPE
  5
14
330
5
100
AcDbSymbolTableRecord
100
AcDbLinetypeTableRecord
  2
ByBlock
 70
     0
  3

 72
    65
 73
     0
 40
0.0
  0
LTYPE
  5
15
330
5
100
AcDbSymbolTableRecord
100
AcDbLinetypeTableRecord
  2
ByLayer
 70
     0
  3

 72
    65
 73
     0
 40
0.0
  0
LTYPE
  5
16
330
5
100
AcDbSymbolTableRecord
100
AcDbLinetypeTableRecord
  2
Continuous
 70
     0
  3
Solid line
 72
    65
 73
     0
 40
0.0
  0
LTYPE
  5
6A
330
5
100
AcDbSymbolTableRecord
100
AcDbLinetypeTableRecord
  2
HIDDEN
 70
     0
  3
Hidden __ __ __ __ __ __ __ __ __ __ __ __ __ __
 72
    65
 73
     2
 40
1.905
 49
1.27
 74
     0
 49
-0.635
 74
     0
  0
LTYPE
  5
6B
330
5
100
AcDbSymbolTableRecord
100
AcDbLinetypeTableRecord
  2
PHANTOM
 70
     0
  3
Phantom ______  __  __  ______  __  __  ______
 72
    65
 73
     6
 40
12.7
 49
6.35
 74
     0
 49
-1.27
 74
     0
 49
1.27
 74
     0
 49
-1.27
 74
     0
 49
1.27
 74
     0
 49
-1.27
 74
     0
  0
LTYPE
  5
6C
330
5
100
AcDbSymbolTableRecord
100
AcDbLinetypeTableRecord
  2
CENTER
 70
     0
  3
Center ____ _ ____ _ ____ _ ____ _ ____ _ ____
 72
    65
 73
     4
 40
10.16
 49
6.35
 74
     0
 49
-1.27
 74
     0
 49
1.27
 74
     0
 49
-1.27
 74
     0
  0
LTYPE
  5
6D
330
5
100
AcDbSymbolTableRecord
100
AcDbLinetypeTableRecord
  2
CENTERX2
 70
     0
  3
Center (2x) ________  __  ________  __  _____
 72
    65
 73
     4
 40
20.32
 49
12.7
 74
     0
 49
-2.54
 74
     0
 49
2.54
 74
     0
 49
-2.54
 74
     0
  0
LTYPE
  5
6E
330
5
100
AcDbSymbolTableRecord
100
AcDbLinetypeTableRecord
  2
DOT2
 70
     0
  3
Dot (.5x) ........................................
 72
    65
 73
     2
 40
0.635
 49
0.0
 74
     0
 49
-0.635
 74
     0
  0
ENDTAB
  0
TABLE
  2
LAYER
  5
2
330
0
100
AcDbSymbolTable
 70
     1
  0
LAYER
  5
10
330
2
100
AcDbSymbolTableRecord
100
AcDbLayerTableRecord
  2
0
 70
     0
 62
     7
  6
Continuous
370
    -3
390
F
  0
ENDTAB
  0
TABLE
  2
STYLE
  5
3
330
0
100
AcDbSymbolTable
 70
     1
  0
STYLE
  5
11
330
3
100
AcDbSymbolTableRecord
100
AcDbTextStyleTableRecord
  2
Standard
 70
     0
 40
0.0
 41
1.0
 50
0.0
 71
     0
 42
3.5
  3
txt
  4

  0
ENDTAB
  0
TABLE
  2
VIEW
  5
6
330
0
100
AcDbSymbolTable
 70
     0
  0
ENDTAB
  0
TABLE
  2
UCS
  5
7
330
0
100
AcDbSymbolTable
 70
     0
  0
ENDTAB
  0
TABLE
  2
APPID
  5
9
330
0
100
AcDbSymbolTable
 70
     1
  0
APPID
  5
12
330
9
100
AcDbSymbolTableRecord
100
AcDbRegAppTableRecord
  2
ACAD
 70
     0
  0
ENDTAB
  0
TABLE
  2
DIMSTYLE
  5
A
330
0
100
AcDbSymbolTable
 70
     1
100
AcDbDimStyleTable
  0
DIMSTYLE
105
27
330
A
100
AcDbSymbolTableRecord
100
AcDbDimStyleTableRecord
  2
ISO-25
 70
     0
 41
2.5
 42
0.625
 43
3.75
 44
1.25
 73
     0
 74
     0
 77
     1
 78
     8
140
2.5
141
2.5
143
0.0393700787
147
0.625
171
     3
172
     1
178
     0
271
     2
272
     2
274
     3
278
    44
283
     0
284
     8
340
11
  0
ENDTAB
  0
TABLE
  2
BLOCK_RECORD
  5
1
330
0
100
AcDbSymbolTable
 70
     1
  0
BLOCK_RECORD
  5
1F
330
1
100
AcDbSymbolTableRecord
100
AcDbBlockTableRecord
  2
*Model_Space
340
22
  0
BLOCK_RECORD
  5
1B
330
1
100
AcDbSymbolTableRecord
100
AcDbBlockTableRecord
  2
*Paper_Space
340
1E
  0
BLOCK_RECORD
  5
23
330
1
100
AcDbSymbolTableRecord
100
AcDbBlockTableRecord
  2
*Paper_Space0
340
26
  0
ENDTAB
  0
ENDSEC
  0
SECTION
  2
BLOCKS
  0
BLOCK
  5
20
330
1F
100
AcDbEntity
  8
0
100
AcDbBlockBegin
  2
*Model_Space
 70
     0
 10
0.0
 20
0.0
 30
0.0
  3
*Model_Space
  1
*Model_Space
  0
ENDBLK
  5
21
330
1F
100
AcDbEntity
  8
0
100
AcDbBlockEnd
  0
BLOCK
  5
1C
330
1B
100
AcDbEntity
 67
     1
  8
0
100
AcDbBlockBegin
  2
*Paper_Space
 70
     0
 10
0.0
 20
0.0
 30
0.0
  3
*Paper_Space
  1
*Paper_Space
  0
ENDBLK
  5
1D
330
1B
100
AcDbEntity
 67
     1
  8
0
100
AcDbBlockEnd
  0
BLOCK
  5
24
330
23
100
AcDbEntity
  8
0
100
AcDbBlockBegin
  2
*Paper_Space0
 70
     0
 10
0.0
 20
0.0
 30
0.0
  3
*Paper_Space0
  1
*Paper_Space0
  0
ENDBLK
  5
25
330
23
100
AcDbEntity
  8
0
100
AcDbBlockEnd
  0
ENDSEC
  0
SECTION
  2
ENTITIES
  0
SPLINE
  5
6F
330
1F
100
AcDbEntity
  8
0
  6
Continuous
 62
     7
370
    15
100
AcDbSpline
210
0.0
220
0.0
230
1.0
 70
     8
 71
     2
 72
     6
 73
     3
 74
     0
 42
0.000000001
 43
0.00000001
 40
0.0
 40
0.0
 40
0.0
 40
1.0
 40
1.0
 40
1.0
 10
24.98758213649477
 20
22.32809602937704
 30
0.0
 10
27.6872409039578
 20
21.29347804528978
 30
0.0
 10
30.41248315218004
 20
22.25869642588646
 30
0.0
  0
LINE
  5
70
330
1F
100
AcDbEntity
  8
0
  6
Continuous
 62
     7
370
    15
100
AcDbLine
 10
27.7011249868
 20
26.8922450335
 30
0.0
 11
24.9875821365
 21
22.3280960294
 31
0.0
  0
LINE
  5
71
330
1F
100
AcDbEntity
  8
0
  6
Continuous
 62
     7
370
    15
100
AcDbLine
 10
33.2414866088
 20
26.821368367
 30
0.0
 11
27.7011249868
 21
26.8922450335
 31
0.0
  0
LINE
  5
72
330
1F
100
AcDbEntity
  8
0
  6
Continuous
 62
     7
370
    15
100
AcDbLine
 10
35.8373841679
 20
22.1892968224
 30
0.0
 11
33.2414866088
 21
26.821368367
 31
0.0
  0
SPLINE
  5
73
330
1F
100
AcDbEntity
  8
0
  6
Continuous
 62
     7
370
    15
100
AcDbSpline
210
0.0
220
0.0
230
1.0
 70
     8
 71
     2
 72
     6
 73
     3
 74
     0
 42
0.000000001
 43
0.00000001
 40
0.0
 40
0.0
 40
0.0
 40
1.0
 40
1.0
 40
1.0
 10
30.41248315218004
 20
22.25869642588646
 30
0.0
 10
33.13772540040227
 20
23.22391480648316
 30
0.0
 10
35.8373841678653
 20
22.18929682239591
 30
0.0
  0
SPLINE
  5
74
330
1F
100
AcDbEntity
  8
0
  6
Continuous
 62
     7
370
    15
100
AcDbSpline
210
0.0
220
0.0
230
1.0
 70
     8
 71
     2
 72
     6
 73
     3
 74
     0
 42
0.000000001
 43
0.00000001
 40
0.0
 40
0.0
 40
0.0
 40
1.0
 40
1.0
 40
1.0
 10
35.83226747171342
 20
21.78932954945911
 30
0.0
 10
33.13260870425027
 20
22.82394753354636
 30
0.0
 10
30.40736645602815
 20
21.85872915294966
 30
0.0
  0
LINE
  5
75
330
1F
100
AcDbEntity
  8
0
  6
Continuous
 62
     7
370
    15
100
AcDbLine
 10
33.1187246214
 20
17.2251805454
 30
0.0
 11
35.8322674717
 21
21.7893295495
 31
0.0
  0
LINE
  5
76
330
1F
100
AcDbEntity
  8
0
  6
Continuous
 62
     7
370
    15
100
AcDbLine
 10
27.5783629994
 20
17.2960572118
 30
0.0
 11
33.1187246214
 21
17.2251805454
 31
0.0
  0
LINE
  5
77
330
1F
100
AcDbEntity
  8
0
  6
Continuous
 62
     7
370
    15
100
AcDbLine
 10
24.9824654403
 20
21.9281287564
 30
0.0
 11
27.5783629994
 21
17.2960572118
 31
0.0
  0
SPLINE
  5
78
330
1F
100
AcDbEntity
  8
0
  6
Continuous
 62
     7
370
    15
100
AcDbSpline
210
0.0
220
0.0
230
1.0
 70
     8
 71
     2
 72
     6
 73
     3
 74
     0
 42
0.000000001
 43
0.00000001
 40
0.0
 40
0.0
 40
0.0
 40
1.0
 40
1.0
 40
1.0
 10
30.40736645602815
 20
21.85872915294966
 30
0.0
 10
27.68212420780603
 20
20.89351077235295
 30
0.0
 10
24.98246544034288
 20
21.92812875644017
 30
0.0
  0
SPLINE
  5
79
330
1F
100
AcDbEntity
  8
0
  6
Continuous
 62
     7
370
    15
100
AcDbSpline
210
0.0
220
0.0
230
1.0
 70
     8
 71
     3
 72
    15
 73
    11
 74
     0
 42
0.000000001
 43
0.00000001
 40
0.0
 40
0.0
 40
0.0
 40
0.0
 40
0.123621379211457
 40
0.2446050492747363
 40
0.3648289446764398
 40
0.4849014515136864
 40
0.6077877450577879
 40
0.7335967960391598
 40
0.8640055049506896
 40
1.0
 40
1.0
 40
1.0
 40
1.0
 10
76.23178125862937
 20
21.89034387442613
 30
0.0
 10
76.15874783202207
 20
21.96207490648944
 30
0.0
 10
76.014239292901
 20
22.10400644571261
 30
0.0
 10
75.82956270723632
 20
22.34367098142707
 30
0.0
 10
75.66903523924225
 20
22.59641366827412
 30
0.0
 10
75.54182931270671
 20
22.86930810275801
 30
0.0
 10
75.43966681293304
 20
23.15738913259551
 30
0.0
 10
75.37174447188664
 20
23.46406715244022
 30
0.0
 10
75.32654922931818
 20
23.78592879631186
 30
0.0
 10
75.32151976887232
 20
24.00641015448711
 30
0.0
 10
75.31895231126094
 20
24.11896229547876
 30
0.0
  0
LINE
  5
7A
330
1F
100
AcDbEntity
  8
0
  6
Continuous
 62
     7
370
    15
100
AcDbLine
 10
75.3189523113
 20
24.1189622955
 30
0.0
 11
75.3189523113
 21
27.1555576902
 31
0.0
  0
LINE
  5
7B
330
1F
100
AcDbEntity
  8
0
  6
Continuous
 62
     7
370
    15
100
AcDbLine
 10
75.3189523113
 20
27.1555576902
 30
0.0
 11
76.7663207323
 21
27.1555576902
 31
0.0
  0
LINE
  5
7C
330
1F
100
AcDbEntity
  8
0
  6
Continuous
 62
     7
370
    15
100
AcDbLine
 10
76.7663207323
 20
27.1555576902
 30
0.0
 11
76.7663207323
 21
23.9894392692
 31
0.0
  0
SPLINE
  5
7D
330
1F
100
AcDbEntity
  8
0
  6
Continuous
 62
     7
370
    15
100
AcDbSpline
210
0.0
220
0.0
230
1.0
 70
     8
 71
     3
 72
    15
 73
    11
 74
     0
 42
0.000000001
 43
0.00000001
 40
0.0
 40
0.0
 40
0.0
 40
0.0
 40
0.1365522393538676
 40
0.2674189721066072
 40
0.3930711556152985
 40
0.5167685810520751
 40
0.6382635023157823
 40
0.7573990743015644
 40
0.8783342397656675
 40
1.0
 40
1.0
 40
1.0
 40
1.0
 10
76.76632073231357
 20
23.98943926916297
 30
0.0
 10
76.76719886216087
 20
23.93316013361847
 30
0.0
 10
76.76891855992815
 20
23.82294510785564
 30
0.0
 10
76.79136473125315
 20
23.66236324235387
 30
0.0
 10
76.8209655098742
 20
23.50850776864794
 30
0.0
 10
76.86605315221513
 20
23.36217523890117
 30
0.0
 10
76.92667119579804
 20
23.22470301880054
 30
0.0
 10
76.99670084491233
 20
23.09312912896785
 30
0.0
 10
77.08075989048491
 20
22.96962835550553
 30
0.0
 10
77.14656115240162
 20
22.89436951216142
 30
0.0
 10
77.17956086389252
 20
22.85662676916297
 30
0.0
  0
SPLINE
  5
7E
330
1F
100
AcDbEntity
  8
0
  6
Continuous
 62
     7
370
    15
100
AcDbSpline
210
0.0
220
0.0
230
1.0
 70
     8
 71
     3
 72
    15
 73
    11
 74
     0
 42
0.000000001
 43
0.00000001
 40
0.0
 40
0.0
 40
0.0
 40
0.0
 40
0.1116025878901854
 40
0.2253605914106696
 40
0.3404259687382136
 40
0.4596445687629596
 40
0.5829890661014436
 40
0.7147420794815005
 40
0.853384255246637
 40
1.0
 40
1.0
 40
1.0
 40
1.0
 10
77.17956086389252
 20
22.85662676916297
 30
0.0
 10
77.22382641754791
 20
22.8137077789579
 30
0.0
 10
77.31321243931933
 20
22.72704089068753
 30
0.0
 10
77.46606413827368
 20
22.61673201546148
 30
0.0
 10
77.63410639083956
 20
22.52266516862864
 30
0.0
 10
77.81828386408287
 20
22.4506352263555
 30
0.0
 10
78.01576571469188
 20
22.38929828654561
 30
0.0
 10
78.22930049663677
 20
22.34701666666403
 30
0.0
 10
78.45844611979858
 20
22.32246191423489
 30
0.0
 10
78.61590203059808
 20
22.31949855110645
 30
0.0
 10
78.69683060073463
 20
22.3179754533735
 30
0.0
  0
SPLINE
  5
7F
330
1F
100
AcDbEntity
  8
0
  6
Continuous
 62
     7
370
    15
100
AcDbSpline
210
0.0
220
0.0
230
1.0
 70
     8
 71
     3
 72
    15
 73
    11
 74
     0
 42
0.000000001
 43
0.00000001
 40
0.0
 40
0.0
 40
0.0
 40
0.0
 40
0.1435126865432669
 40
0.2781543229354947
 40
0.4053536208846408
 40
0.5279752353895247
 40
0.6456131543871335
 40
0.7625836092486533
 40
0.8799859897150181
 40
1.0
 40
1.0
 40
1.0
 40
1.0
 10
78.69683060073463
 20
22.3179754533735
 30
0.0
 10
78.77506112376565
 20
22.31982000089404
 30
0.0
 10
78.92668645174689
 20
22.32339507762809
 30
0.0
 10
79.14591663801077
 20
22.35458649130632
 30
0.0
 10
79.3493585263207
 20
22.40602004227453
 30
0.0
 10
79.53717949890881
 20
22.47707629924631
 30
0.0
 10
79.70821587155673
 20
22.57132251359057
 30
0.0
 10
79.86334038399598
 20
22.68488154043111
 30
0.0
 10
80.00331483623735
 20
22.81923430256316
 30
0.0
 10
80.08050721409714
 20
22.92327673152487
 30
0.0
 10
80.11952796915567
 20
22.9758701902156
 30
0.0
  0
SPLINE
  5
80
330
1F
100
AcDbEntity
  8
0
  6
Continuous
 62
     7
370
    15
100
AcDbSpline
210
0.0
220
0.0
230
1.0
 70
     8
 71
     3
 72
    11
 73
     7
 74
     0
 42
0.000000001
 43
0.00000001
 40
0.0
 40
0.0
 40
0.0
 40
0.0
 40
0.2481922885719503
 40
0.4940863589192911
 40
0.7424895160837083
 40
1.0
 40
1.0
 40
1.0
 40
1.0
 10
80.11952796915568
 20
22.97587019021561
 30
0.0
 10
80.17010644548314
 20
23.05533719793189
 30
0.0
 10
80.27079505008128
 20
23.21353536243839
 30
0.0
 10
80.37552757642808
 20
23.4762671292102
 30
0.0
 10
80.43929407831178
 20
23.75542202346287
 30
0.0
 10
80.44674084692153
 20
23.94728878755969
 30
0.0
 10
80.45053125862935
 20
24.04494913758402
 30
0.0
  0
LINE
  5
81
330
1F
100
AcDbEntity
  8
0
  6
Continuous
 62
     7
370
    15
100
AcDbLine
 10
80.4505312586
 20
24.0449491376
 30
0.0
 11
80.4505312586
 21
27.1555576902
 31
0.0
  0
LINE
  5
82
330
1F
100
AcDbEntity
  8
0
  6
Continuous
 62
     7
370
    15
100
AcDbLine
 10
80.4505312586
 20
27.1555576902
 30
0.0
 11
81.8978996797
 21
27.1555576902
 31
0.0
  0
LINE
  5
83
330
1F
100
AcDbEntity
  8
0
  6
Continuous
 62
     7
370
    15
100
AcDbLine
 10
81.8978996797
 20
27.1555576902
 30
0.0
 11
81.8978996797
 21
23.9873833481
 31
0.0
  0
SPLINE
  5
84
330
1F
100
AcDbEntity
  8
0
  6
Continuous
 62
     7
370
    15
100
AcDbSpline
210
0.0
220
0.0
230
1.0
 70
     8
 71
     3
 72
    15
 73
    11
 74
     0
 42
0.000000001
 43
0.00000001
 40
0.0
 40
0.0
 40
0.0
 40
0.0
 40
0.129503253106194
 40
0.2547144568587271
 40
0.3775463052297574
 40
0.4991446849250879
 40
0.6206587481560797
 40
0.7439936879064201
 40
0.8698749934856006
 40
1.0
 40
1.0
 40
1.0
 40
1.0
 10
81.897899679682
 20
23.98738334811034
 30
0.0
 10
81.89600376700825
 20
23.89127225243587
 30
0.0
 10
81.89227477676774
 20
23.70223541401185
 30
0.0
 10
81.84862870526823
 20
23.42493059152219
 30
0.0
 10
81.78304228850722
 20
23.15856658224069
 30
0.0
 10
81.69340660734096
 20
22.90179969513375
 30
0.0
 10
81.57237616281083
 20
22.65776882416669
 30
0.0
 10
81.42518564260185
 20
22.42522718511833
 30
0.0
 10
81.2545972543254
 20
22.20077555034448
 30
0.0
 10
81.12224509747331
 20
22.06447554339349
 30
0.0
 10
81.05497204810305
 20
21.99519584811034
 30
0.0
  0
SPLINE
  5
85
330
1F
100
AcDbEntity
  8
0
  6
Continuous
 62
     7
370
    15
100
AcDbSpline
210
0.0
220
0.0
230
1.0
 70
     8
 71
     3
 72
    15
 73
    11
 74
     0
 42
0.000000001
 43
0.00000001
 40
0.0
 40
0.0
 40
0.0
 40
0.0
 40
0.1264568058775094
 40
0.2515187134261082
 40
0.3745846824350693
 40
0.4974149203955834
 40
0.6210250669182971
 40
0.746135753734518
 40
0.8718060412683859
 40
1.0
 40
1.0
 40
1.0
 40
1.0
 10
81.05497204810305
 20
21.99519584811034
 30
0.0
 10
80.99125367100562
 20
21.93750709825926
 30
0.0
 10
80.86451977069923
 20
21.82276594185396
 30
0.0
 10
80.663395085506
 20
21.66616896436505
 30
0.0
 10
80.45192840172906
 20
21.52856580477551
 30
0.0
 10
80.23371365478701
 20
21.40397559047812
 30
0.0
 10
80.00475930228042
 20
21.29668375663416
 30
0.0
 10
79.76620797614167
 20
21.20793650701145
 30
0.0
 10
79.52075902081813
 20
21.1288184709443
 30
0.0
 10
79.35169372268436
 20
21.09385477371759
 30
0.0
 10
79.26632073231357
 20
21.07619913758402
 30
0.0
  0
LINE
  5
86
330
1F
100
AcDbEntity
  8
0
  6
Continuous
 62
     7
370
    15
100
AcDbLine
 10
79.2663207323
 20
21.0761991376
 30
0.0
 11
79.2663207323
 21
17.1555576902
 31
0.0
  0
LINE
  5
87
330
1F
100
AcDbEntity
  8
0
  6
Continuous
 62
     7
370
    15
100
AcDbLine
 10
79.2663207323
 20
17.1555576902
 30
0.0
 11
77.8189523113
 21
17.1555576902
 31
0.0
  0
LINE
  5
88
330
1F
100
AcDbEntity
  8
0
  6
Continuous
 62
     7
370
    15
100
AcDbLine
 10
77.8189523113
 20
17.1555576902
 30
0.0
 11
77.8189523113
 21
21.0761991376
 31
0.0
  0
SPLINE
  5
89
330
1F
100
AcDbEntity
  8
0
  6
Continuous
 62
     7
370
    15
100
AcDbSpline
210
0.0
220
0.0
230
1.0
 70
     8
 71
     3
 72
    11
 73
     7
 74
     0
 42
0.000000001
 43
0.00000001
 40
0.0
 40
0.0
 40
0.0
 40
0.0
 40
0.2654804168525766
 40
0.5190620694416898
 40
0.7617219813130177
 40
1.0
 40
1.0
 40
1.0
 40
1.0
 10
77.81895231126093
 20
21.07619913758402
 30
0.0
 10
77.66543941824244
 20
21.11964365420949
 30
0.0
 10
77.36529404073839
 20
21.20458551535637
 30
0.0
 10
76.94796777728901
 20
21.3938909037857
 30
0.0
 10
76.56369407294952
 20
21.61319762039296
 30
0.0
 10
76.34174479302543
 20
21.79852463659243
 30
0.0
 10
76.23178125862937
 20
21.89034387442613
 30
0.0
  0
LINE
  5
8A
330
1F
100
AcDbEntity
  8
0
  6
Continuous
 62
     7
370
    15
100
AcDbLine
 10
63.6084259955
 20
23.7201136113
 30
0.0
 11
63.6084259955
 21
17.1555576902
 31
0.0
  0
LINE
  5
8B
330
1F
100
AcDbEntity
  8
0
  6
Continuous
 62
     7
370
    15
100
AcDbLine
 10
63.6084259955
 20
17.1555576902
 30
0.0
 11
62.1610575744
 21
17.1555576902
 31
0.0
  0
LINE
  5
8C
330
1F
100
AcDbEntity
  8
0
  6
Continuous
 62
     7
370
    15
100
AcDbLine
 10
62.1610575744
 20
17.1555576902
 30
0.0
 11
62.1898404692
 21
23.7694557165
 31
0.0
  0
SPLINE
  5
8D
330
1F
100
AcDbEntity
  8
0
  6
Continuous
 62
     7
370
    15
100
AcDbSpline
210
0.0
220
0.0
230
1.0
 70
     8
 71
     3
 72
    15
 73
    11
 74
     0
 42
0.000000001
 43
0.00000001
 40
0.0
 40
0.0
 40
0.0
 40
0.0
 40
0.1352285390563773
 40
0.2661826110423978
 40
0.3915712984451509
 40
0.5148406127533822
 40
0.635536284758338
 40
0.7565466906310347
 40
0.8768626788974551
 40
1.0
 40
1.0
 40
1.0
 40
1.0
 10
62.18984046915568
 20
23.76945571653139
 30
0.0
 10
62.19233991053927
 20
23.89432697703575
 30
0.0
 10
62.19725978794294
 20
24.14012241635013
 30
0.0
 10
62.24378613511348
 20
24.4992169736202
 30
0.0
 10
62.31734749394731
 20
24.84223019145948
 30
0.0
 10
62.4223180025925
 20
25.16721914280432
 30
0.0
 10
62.55697139298481
 20
25.47662665338379
 30
0.0
 10
62.72121106053817
 20
25.76823990069816
 30
0.0
 10
62.91604841140133
 20
26.04353524324451
 30
0.0
 10
63.06729045734475
 20
26.20995339802986
 30
0.0
 10
63.14378783757674
 20
26.29412676916297
 30
0.0
  0
SPLINE
  5
8E
330
1F
100
AcDbEntity
  8
0
  6
Continuous
 62
     7
370
    15
100
AcDbSpline
210
0.0
220
0.0
230
1.0
 70
     8
 71
     3
 72
    15
 73
    11
 74
     0
 42
0.000000001
 43
0.00000001
 40
0.0
 40
0.0
 40
0.0
 40
0.0
 40
0.1280062569368439
 40
0.252034870973193
 40
0.3745626681129623
 40
0.4955957338800488
 40
0.6178695668815266
 40
0.7420113951862873
 40
0.8684151317141382
 40
1.0
 40
1.0
 40
1.0
 40
1.0
 10
63.14378783757674
 20
26.29412676916297
 30
0.0
 10
63.22524440581913
 20
26.37320461663627
 30
0.0
 10
63.38562637587405
 20
26.52890306108498
 30
0.0
 10
63.64930978919621
 20
26.73198110546436
 30
0.0
 10
63.92746728920194
 20
26.90259389498513
 30
0.0
 10
64.21977097783989
 20
27.04437827051429
 30
0.0
 10
64.5274675180872
 20
27.15305568416746
 30
0.0
 10
64.84899775474315
 20
27.2315584486684
 30
0.0
 10
65.18538786920655
 20
27.27708823655145
 30
0.0
 10
65.41407319615911
 20
27.28374262434222
 30
0.0
 10
65.530712179682
 20
27.28713663758402
 30
0.0
  0
SPLINE
  5
8F
330
1F
100
AcDbEntity
  8
0
  6
Continuous
 62
     7
370
    15
100
AcDbSpline
210
0.0
220
0.0
230
1.0
 70
     8
 71
     3
 72
    15
 73
    11
 74
     0
 42
0.000000001
 43
0.00000001
 40
0.0
 40
0.0
 40
0.0
 40
0.0
 40
0.1361207445247531
 40
0.2664792640347702
 40
0.3923414855678184
 40
0.5155122937737366
 40
0.6358907164609797
 40
0.7561806197489412
 40
0.8770955745624687
 40
1.0
 40
1.0
 40
1.0
 40
1.0
 10
65.530712179682
 20
27.28713663758402
 30
0.0
 10
65.65692971761621
 20
27.28372263432049
 30
0.0
 10
65.90402178822175
 20
27.27703914841791
 30
0.0
 10
66.2657701598709
 20
27.23218461321503
 30
0.0
 10
66.60912570995465
 20
27.15327820565122
 30
0.0
 10
66.93479182795713
 20
27.04517827775156
 30
0.0
 10
67.24183522290419
 20
26.90371630521761
 30
0.0
 10
67.53059652988762
 20
26.73241866546036
 30
0.0
 10
67.80264531879388
 20
26.53085909030352
 30
0.0
 10
67.96521264310701
 20
26.37346563252812
 30
0.0
 10
68.04715954810304
 20
26.29412676916297
 30
0.0
  0
SPLINE
  5
90
330
1F
100
AcDbEntity
  8
0
  6
Continuous
 62
     7
370
    15
100
AcDbSpline
210
0.0
220
0.0
230
1.0
 70
     8
 71
     3
 72
    15
 73
    11
 74
     0
 42
0.000000001
 43
0.00000001
 40
0.0
 40
0.0
 40
0.0
 40
0.0
 40
0.1131628250388905
 40
0.2267118285123535
 40
0.3423996109978424
 40
0.4620986888562449
 40
0.5868127069401597
 40
0.7177061754332031
 40
0.8551910244139088
 40
1.0
 40
1.0
 40
1.0
 40
1.0
 10
68.04715954810304
 20
26.29412676916297
 30
0.0
 10
68.12407475232801
 20
26.20746596692651
 30
0.0
 10
68.27816764090913
 20
26.03384862458265
 30
0.0
 10
68.47057978111448
 20
25.73992522195722
 30
0.0
 10
68.63647462565535
 20
25.42343505976774
 30
0.0
 10
68.77232300427943
 20
25.08034381452872
 30
0.0
 10
68.87706234244598
 20
24.71039224215754
 30
0.0
 10
68.94923331969744
 20
24.31448394822296
 30
0.0
 10
68.99608467434335
 20
23.89393565942535
 30
0.0
 10
69.00076299012433
 20
23.60511353207249
 30
0.0
 10
69.00316283757674
 20
23.45695571653139
 30
0.0
  0
LINE
  5
91
330
1F
100
AcDbEntity
  8
0
  6
Continuous
 62
     7
370
    15
100
AcDbLine
 10
69.0031628376
 20
23.4569557165
 30
0.0
 11
69.0031628376
 21
17.1555576902
 31
0.0
  0
LINE
  5
92
330
1F
100
AcDbEntity
  8
0
  6
Continuous
 62
     7
370
    15
100
AcDbLine
 10
69.0031628376
 20
17.1555576902
 30
0.0
 11
67.5557944165
 21
17.1555576902
 31
0.0
  0
LINE
  5
93
330
1F
100
AcDbEntity
  8
0
  6
Continuous
 62
     7
370
    15
100
AcDbLine
 10
67.5557944165
 20
17.1555576902
 30
0.0
 11
67.5557944165
 21
21.6292419007
 31
0.0
  0
LINE
  5
94
330
1F
100
AcDbEntity
  8
0
  6
Continuous
 62
     7
370
    15
100
AcDbLine
 10
67.5557944165
 20
21.6292419007
 30
0.0
 11
64.136797706
 21
21.6292419007
 31
0.0
  0
LINE
  5
95
330
1F
100
AcDbEntity
  8
0
  6
Continuous
 62
     7
370
    15
100
AcDbLine
 10
64.136797706
 20
21.6292419007
 30
0.0
 11
64.136797706
 21
22.9450313744
 31
0.0
  0
LINE
  5
96
330
1F
100
AcDbEntity
  8
0
  6
Continuous
 62
     7
370
    15
100
AcDbLine
 10
64.136797706
 20
22.9450313744
 30
0.0
 11
67.5557944165
 21
22.9450313744
 31
0.0
  0
SPLINE
  5
97
330
1F
100
AcDbEntity
  8
0
  6
Continuous
 62
     7
370
    15
100
AcDbSpline
210
0.0
220
0.0
230
1.0
 70
     8
 71
     3
 72
    23
 73
    19
 74
     0
 42
0.000000001
 43
0.00000001
 40
0.0
 40
0.0
 40
0.0
 40
0.0
 40
0.0898262950061515
 40
0.1742628314412887
 40
0.2529881489334751
 40
0.3268129819474118
 40
0.3955826155972174
 40
0.4598780654270651
 40
0.5201712704386058
 40
0.5768680429987812
 40
0.630652721376876
 40
0.6827571509391034
 40
0.7333421442870793
 40
0.7836141961374871
 40
0.834226856987564
 40
0.8872417302287167
 40
0.9419018914766343
 40
1.0
 40
1.0
 40
1.0
 40
1.0
 10
67.5557944165241
 20
22.94503137442613
 30
0.0
 10
67.55416575409944
 20
23.06705295618102
 30
0.0
 10
67.55100615227502
 20
23.30377457908773
 30
0.0
 10
67.52818252067756
 20
23.64683264328103
 30
0.0
 10
67.49209563700373
 20
23.96681987534832
 30
0.0
 10
67.43987044779294
 20
24.26323021559375
 30
0.0
 10
67.36841053171054
 20
24.53513982573597
 30
0.0
 10
67.2892671198536
 20
24.78603353247145
 30
0.0
 10
67.1862607624935
 20
25.01014831985446
 30
0.0
 10
67.07493473295392
 20
25.21408895839499
 30
0.0
 10
66.94382749179927
 20
25.39261310947726
 30
0.0
 10
66.7978627743651
 20
25.54792700865842
 30
0.0
 10
66.63551667047528
 20
25.67855728911998
 30
0.0
 10
66.45983633717316
 20
25.7868387265948
 30
0.0
 10
66.26721517652807
 20
25.86987039239423
 30
0.0
 10
66.05991979992557
 20
25.9287913243291
 30
0.0
 10
65.83688537843827
 20
25.96434633505365
 30
0.0
 10
65.68366918142611
 20
25.96896659773004
 30
0.0
 10
65.60472533757674
 20
25.97134716389981
 30
0.0
  0
SPLINE
  5
98
330
1F
100
AcDbEntity
  8
0
  6
Continuous
 62
     7
370
    15
100
AcDbSpline
210
0.0
220
0.0
230
1.0
 70
     8
 71
     3
 72
    15
 73
    11
 74
     0
 42
0.000000001
 43
0.00000001
 40
0.0
 40
0.0
 40
0.0
 40
0.0
 40
0.1372089107500941
 40
0.2661401312114054
 40
0.3907501732248951
 40
0.5105829457556236
 40
0.630158735799399
 40
0.7499322536178192
 40
0.8722858348889875
 40
1.0
 40
1.0
 40
1.0
 40
1.0
 10
65.60472533757674
 20
25.97134716389981
 30
0.0
 10
65.5182137926352
 20
25.9693196304568
 30
0.0
 10
65.35040986651866
 20
25.96538688284145
 30
0.0
 10
65.10673697763345
 20
25.92507230837155
 30
0.0
 10
64.88013136427506
 20
25.85991404104325
 30
0.0
 10
64.66925061801095
 20
25.76819027116673
 30
0.0
 10
64.47455817587215
 20
25.65117871965485
 30
0.0
 10
64.29917788366272
 20
25.50469783779667
 30
0.0
 10
64.13794401463257
 20
25.33528606507033
 30
0.0
 10
64.04872739473704
 20
25.20515794503835
 30
0.0
 10
64.00316283757674
 20
25.13869913758402
 30
0.0
  0
SPLINE
  5
99
330
1F
100
AcDbEntity
  8
0
  6
Continuous
 62
     7
370
    15
100
AcDbSpline
210
0.0
220
0.0
230
1.0
 70
     8
 71
     3
 72
    11
 73
     7
 74
     0
 42
0.000000001
 43
0.00000001
 40
0.0
 40
0.0
 40
0.0
 40
0.0
 40
0.2441765491234406
 40
0.4887300550664606
 40
0.7390063888351555
 40
1.0
 40
1.0
 40
1.0
 40
1.0
 10
64.00316283757674
 20
25.13869913758402
 30
0.0
 10
63.94209571880277
 20
25.03346337575612
 30
0.0
 10
63.81986720657139
 20
24.82282939039699
 30
0.0
 10
63.69867629361107
 20
24.47394279542553
 30
0.0
 10
63.62160067918625
 20
24.10456015961328
 30
0.0
 10
63.61287850168068
 20
23.85004087788607
 30
0.0
 10
63.60842599547146
 20
23.72011361126823
 30
0.0
  0
SPLINE
  5
9A
330
1F
100
AcDbEntity
  8
0
  6
Continuous
 62
     7
370
    15
100
AcDbSpline
210
0.0
220
0.0
230
1.0
 70
     8
 71
     3
 72
    15
 73
    11
 74
     0
 42
0.000000001
 43
0.00000001
 40
0.0
 40
0.0
 40
0.0
 40
0.0
 40
0.1236213792114572
 40
0.2446050492747366
 40
0.3648289446764389
 40
0.4849014515136844
 40
0.6077877450577879
 40
0.7335967960391587
 40
0.8640055049506894
 40
1.0
 40
1.0
 40
1.0
 40
1.0
 10
47.02125494283989
 20
21.89034387442613
 30
0.0
 10
46.9482215162326
 20
21.96207490648944
 30
0.0
 10
46.80371297711154
 20
22.10400644571261
 30
0.0
 10
46.61903639144682
 20
22.34367098142706
 30
0.0
 10
46.45850892345277
 20
22.59641366827413
 30
0.0
 10
46.33130299691724
 20
22.86930810275801
 30
0.0
 10
46.22914049714358
 20
23.15738913259552
 30
0.0
 10
46.16121815609716
 20
23.46406715244021
 30
0.0
 10
46.1160229135287
 20
23.78592879631186
 30
0.0
 10
46.11099345308285
 20
24.00641015448711
 30
0.0
 10
46.10842599547146
 20
24.11896229547876
 30
0.0
  0
LINE
  5
9B
330
1F
100
AcDbEntity
  8
0
  6
Continuous
 62
     7
370
    15
100
AcDbLine
 10
46.1084259955
 20
24.1189622955
 30
0.0
 11
46.1084259955
 21
27.1555576902
 31
0.0
  0
LINE
  5
9C
330
1F
100
AcDbEntity
  8
0
  6
Continuous
 62
     7
370
    15
100
AcDbLine
 10
46.1084259955
 20
27.1555576902
 30
0.0
 11
47.5557944165
 21
27.1555576902
 31
0.0
  0
LINE
  5
9D
330
1F
100
AcDbEntity
  8
0
  6
Continuous
 62
     7
370
    15
100
AcDbLine
 10
47.5557944165
 20
27.1555576902
 30
0.0
 11
47.5557944165
 21
23.9894392692
 31
0.0
  0
SPLINE
  5
9E
330
1F
100
AcDbEntity
  8
0
  6
Continuous
 62
     7
370
    15
100
AcDbSpline
210
0.0
220
0.0
230
1.0
 70
     8
 71
     3
 72
    15
 73
    11
 74
     0
 42
0.000000001
 43
0.00000001
 40
0.0
 40
0.0
 40
0.0
 40
0.0
 40
0.1365522393538676
 40
0.2674189721066074
 40
0.3930711556152989
 40
0.5167685810520775
 40
0.6382635023157849
 40
0.757399074301567
 40
0.8783342397656673
 40
1.0
 40
1.0
 40
1.0
 40
1.0
 10
47.5557944165241
 20
23.98943926916297
 30
0.0
 10
47.55667254637137
 20
23.93316013361846
 30
0.0
 10
47.55839224413867
 20
23.82294510785564
 30
0.0
 10
47.58083841546365
 20
23.66236324235387
 30
0.0
 10
47.61043919408473
 20
23.50850776864794
 30
0.0
 10
47.65552683642566
 20
23.36217523890117
 30
0.0
 10
47.71614488000859
 20
23.22470301880054
 30
0.0
 10
47.7861745291228
 20
23.09312912896784
 30
0.0
 10
47.87023357469543
 20
22.96962835550553
 30
0.0
 10
47.93603483661214
 20
22.89436951216141
 30
0.0
 10
47.96903454810305
 20
22.85662676916297
 30
0.0
  0
SPLINE
  5
9F
330
1F
100
AcDbEntity
  8
0
  6
Continuous
 62
     7
370
    15
100
AcDbSpline
210
0.0
220
0.0
230
1.0
 70
     8
 71
     3
 72
    15
 73
    11
 74
     0
 42
0.000000001
 43
0.00000001
 40
0.0
 40
0.0
 40
0.0
 40
0.0
 40
0.1116025878901913
 40
0.2253605914106684
 40
0.3404259687382194
 40
0.4596445687629612
 40
0.5829890661014449
 40
0.7147420794814972
 40
0.8533842552466416
 40
1.0
 40
1.0
 40
1.0
 40
1.0
 10
47.96903454810305
 20
22.85662676916298
 30
0.0
 10
48.01330010175845
 20
22.81370777895791
 30
0.0
 10
48.10268612352985
 20
22.72704089068754
 30
0.0
 10
48.25553782248426
 20
22.61673201546148
 30
0.0
 10
48.42358007505007
 20
22.52266516862864
 30
0.0
 10
48.60775754829343
 20
22.45063522635551
 30
0.0
 10
48.80523939890241
 20
22.38929828654562
 30
0.0
 10
49.01877418084727
 20
22.34701666666402
 30
0.0
 10
49.24791980400911
 20
22.32246191423489
 30
0.0
 10
49.4053757148086
 20
22.31949855110645
 30
0.0
 10
49.48630428494516
 20
22.3179754533735
 30
0.0
  0
SPLINE
  5
A0
330
1F
100
AcDbEntity
  8
0
  6
Continuous
 62
     7
370
    15
100
AcDbSpline
210
0.0
220
0.0
230
1.0
 70
     8
 71
     3
 72
    15
 73
    11
 74
     0
 42
0.000000001
 43
0.00000001
 40
0.0
 40
0.0
 40
0.0
 40
0.0
 40
0.1435126865432623
 40
0.2781543229354982
 40
0.4053536208846358
 40
0.5279752353895194
 40
0.6456131543871315
 40
0.7625836092486545
 40
0.8799859897150131
 40
1.0
 40
1.0
 40
1.0
 40
1.0
 10
49.48630428494516
 20
22.3179754533735
 30
0.0
 10
49.56453480797619
 20
22.31982000089405
 30
0.0
 10
49.71616013595739
 20
22.32339507762809
 30
0.0
 10
49.9353903222213
 20
22.35458649130631
 30
0.0
 10
50.13883221053122
 20
22.40602004227454
 30
0.0
 10
50.32665318311936
 20
22.47707629924631
 30
0.0
 10
50.49768955576726
 20
22.57132251359057
 30
0.0
 10
50.65281406820652
 20
22.68488154043111
 30
0.0
 10
50.7927885204479
 20
22.81923430256318
 30
0.0
 10
50.86998089830767
 20
22.92327673152487
 30
0.0
 10
50.9090016533662
 20
22.9758701902156
 30
0.0
  0
SPLINE
  5
A1
330
1F
100
AcDbEntity
  8
0
  6
Continuous
 62
     7
370
    15
100
AcDbSpline
210
0.0
220
0.0
230
1.0
 70
     8
 71
     3
 72
    11
 73
     7
 74
     0
 42
0.000000001
 43
0.00000001
 40
0.0
 40
0.0
 40
0.0
 40
0.0
 40
0.2481922885719451
 40
0.4940863589192868
 40
0.7424895160837077
 40
1.0
 40
1.0
 40
1.0
 40
1.0
 10
50.9090016533662
 20
22.9758701902156
 30
0.0
 10
50.95958012969368
 20
23.05533719793188
 30
0.0
 10
51.06026873429181
 20
23.21353536243839
 30
0.0
 10
51.1650012606386
 20
23.4762671292102
 30
0.0
 10
51.22876776252235
 20
23.75542202346288
 30
0.0
 10
51.23621453113206
 20
23.94728878755969
 30
0.0
 10
51.24000494283989
 20
24.04494913758402
 30
0.0
  0
LINE
  5
A2
330
1F
100
AcDbEntity
  8
0
  6
Continuous
 62
     7
370
    15
100
AcDbLine
 10
51.2400049428
 20
24.0449491376
 30
0.0
 11
51.2400049428
 21
27.1555576902
 31
0.0
  0
LINE
  5
A3
330
1F
100
AcDbEntity
  8
0
  6
Continuous
 62
     7
370
    15
100
AcDbLine
 10
51.2400049428
 20
27.1555576902
 30
0.0
 11
52.6873733639
 21
27.1555576902
 31
0.0
  0
LINE
  5
A4
330
1F
100
AcDbEntity
  8
0
  6
Continuous
 62
     7
370
    15
100
AcDbLine
 10
52.6873733639
 20
27.1555576902
 30
0.0
 11
52.6873733639
 21
23.9873833481
 31
0.0
  0
SPLINE
  5
A5
330
1F
100
AcDbEntity
  8
0
  6
Continuous
 62
     7
370
    15
100
AcDbSpline
210
0.0
220
0.0
230
1.0
 70
     8
 71
     3
 72
    15
 73
    11
 74
     0
 42
0.000000001
 43
0.00000001
 40
0.0
 40
0.0
 40
0.0
 40
0.0
 40
0.1295032531061936
 40
0.2547144568587265
 40
0.3775463052297564
 40
0.4991446849250856
 40
0.620658748156077
 40
0.7439936879064188
 40
0.8698749934856009
 40
1.0
 40
1.0
 40
1.0
 40
1.0
 10
52.68737336389253
 20
23.98738334811034
 30
0.0
 10
52.68547745121879
 20
23.89127225243587
 30
0.0
 10
52.68174846097828
 20
23.70223541401186
 30
0.0
 10
52.63810238947874
 20
23.42493059152219
 30
0.0
 10
52.57251597271772
 20
23.15856658224068
 30
0.0
 10
52.48288029155151
 20
22.90179969513375
 30
0.0
 10
52.36184984702135
 20
22.65776882416668
 30
0.0
 10
52.21465932681239
 20
22.42522718511834
 30
0.0
 10
52.04407093853591
 20
22.20077555034447
 30
0.0
 10
51.91171878168383
 20
22.0644755433935
 30
0.0
 10
51.84444573231357
 20
21.99519584811034
 30
0.0
  0
SPLINE
  5
A6
330
1F
100
AcDbEntity
  8
0
  6
Continuous
 62
     7
370
    15
100
AcDbSpline
210
0.0
220
0.0
230
1.0
 70
     8
 71
     3
 72
    15
 73
    11
 74
     0
 42
0.000000001
 43
0.00000001
 40
0.0
 40
0.0
 40
0.0
 40
0.0
 40
0.1264568058775124
 40
0.2515187134261088
 40
0.3745846824350675
 40
0.4974149203955822
 40
0.6210250669182992
 40
0.7461357537345173
 40
0.8718060412683889
 40
1.0
 40
1.0
 40
1.0
 40
1.0
 10
51.84444573231357
 20
21.99519584811034
 30
0.0
 10
51.78072735521614
 20
21.93750709825926
 30
0.0
 10
51.65399345490975
 20
21.82276594185396
 30
0.0
 10
51.45286876971647
 20
21.66616896436504
 30
0.0
 10
51.24140208593963
 20
21.52856580477552
 30
0.0
 10
51.02318733899746
 20
21.40397559047809
 30
0.0
 10
50.79423298649096
 20
21.29668375663418
 30
0.0
 10
50.55568166035216
 20
21.20793650701144
 30
0.0
 10
50.31023270502867
 20
21.1288184709443
 30
0.0
 10
50.14116740689489
 20
21.09385477371759
 30
0.0
 10
50.0557944165241
 20
21.07619913758402
 30
0.0
  0
LINE
  5
A7
330
1F
100
AcDbEntity
  8
0
  6
Continuous
 62
     7
370
    15
100
AcDbLine
 10
50.0557944165
 20
21.0761991376
 30
0.0
 11
50.0557944165
 21
17.1555576902
 31
0.0
  0
LINE
  5
A8
330
1F
100
AcDbEntity
  8
0
  6
Continuous
 62
     7
370
    15
100
AcDbLine
 10
50.0557944165
 20
17.1555576902
 30
0.0
 11
48.6084259955
 21
17.1555576902
 31
0.0
  0
LINE
  5
A9
330
1F
100
AcDbEntity
  8
0
  6
Continuous
 62
     7
370
    15
100
AcDbLine
 10
48.6084259955
 20
17.1555576902
 30
0.0
 11
48.6084259955
 21
21.0761991376
 31
0.0
  0
SPLINE
  5
AA
330
1F
100
AcDbEntity
  8
0
  6
Continuous
 62
     7
370
    15
100
AcDbSpline
210
0.0
220
0.0
230
1.0
 70
     8
 71
     3
 72
    11
 73
     7
 74
     0
 42
0.000000001
 43
0.00000001
 40
0.0
 40
0.0
 40
0.0
 40
0.0
 40
0.2654804168525821
 40
0.5190620694416864
 40
0.7617219813130193
 40
0.9999999999999999
 40
0.9999999999999999
 40
0.9999999999999999
 40
0.9999999999999999
 10
48.60842599547146
 20
21.07619913758402
 30
0.0
 10
48.45491310245298
 20
21.11964365420949
 30
0.0
 10
48.15476772494892
 20
21.20458551535636
 30
0.0
 10
47.73744146149955
 20
21.39389090378571
 30
0.0
 10
47.35316775716003
 20
21.61319762039295
 30
0.0
 10
47.13121847723594
 20
21.79852463659243
 30
0.0
 10
47.02125494283989
 20
21.89034387442613
 30
0.0
  0
LINE
  5
AB
330
1F
100
AcDbEntity
  8
0
  6
Continuous
 62
     7
370
    15
100
AcDbLine
 10
26.8633843409
 20
156.0632894342
 30
0.0
 11
137.4112998432
 21
120.14409431
 31
0.0
  0
ARC
  5
AC
330
1F
100
AcDbEntity
  8
0
  6
Continuous
 62
     7
370
    15
100
AcDbCircle
 10
135.2481808826
 20
113.486698696
 30
0.0
 40
7.000000000000063
100
AcDbArc
 50
8.0
 51
72.0
  0
LINE
  5
AD
330
1F
100
AcDbEntity
  8
0
  6
Continuous
 62
     7
370
    15
100
AcDbLine
 10
152.2840290613
 20
42.5674161102
 30
0.0
 11
142.1800573638
 21
114.4609104027
 31
0.0
  0
LINE
  5
AE
330
1F
100
AcDbEntity
  8
0
  6
Continuous
 62
     7
370
    15
100
AcDbLine
 10
152.2840290613
 20
42.5674161102
 30
0.0
 11
148.844500897
 21
42.084021951
 31
0.0
  0
LINE
  5
AF
330
1F
100
AcDbEntity
  8
0
  6
Continuous
 62
     7
370
    15
100
AcDbLine
 10
148.844500897
 20
42.084021951
 30
0.0
 11
160.2012643973
 21
20.6904053703
 31
0.0
  0
LINE
  5
B0
330
1F
100
AcDbEntity
  8
0
  6
Continuous
 62
     7
370
    15
100
AcDbLine
 10
141.7871045967
 20
20.6904053703
 30
0.0
 11
160.2012643973
 21
20.6904053703
 31
0.0
  0
ARC
  5
B1
330
1F
100
AcDbEntity
  8
0
  6
Continuous
 62
     7
370
    15
100
AcDbCircle
 10
141.7871045967
 20
27.6904053703
 30
0.0
 40
7.000000000000019
100
AcDbArc
 50
191.0505273049
 51
270.0
  0
ARC
  5
B2
330
1F
100
AcDbEntity
  8
0
  6
Continuous
 62
     7
370
    15
100
AcDbCircle
 10
0.0
 20
0.0
 30
0.0
 40
137.4657107395976
100
AcDbArc
 50
11.0505273049
 51
90.0
  0
LINE
  5
B3
330
1F
100
AcDbEntity
  8
0
  6
Continuous
 62
     7
370
    15
100
AcDbLine
 10
6.619505184
 20
151.7792255546
 30
0.0
 11
0.0
 21
137.4657107396
 31
0.0
  0
LINE
  5
B4
330
1F
100
AcDbEntity
  8
0
  6
Continuous
 62
     7
370
    15
100
AcDbLine
 10
6.619505184
 20
151.7792255546
 30
0.0
 11
20.7641511711
 21
142.187553999
 31
0.0
  0
LINE
  5
B5
330
1F
100
AcDbEntity
  8
0
  6
Continuous
 62
     7
370
    15
100
AcDbLine
 10
17.3300895605
 20
159.5609206039
 30
0.0
 11
20.7641511711
 21
142.187553999
 31
0.0
  0
LINE
  5
B6
330
1F
100
AcDbEntity
  8
0
  6
Continuous
 62
     7
370
    15
100
AcDbLine
 10
17.3300895605
 20
159.5609206039
 30
0.0
 11
28.1135111335
 21
159.9107840834
 31
0.0
  0
LINE
  5
B7
330
1F
100
AcDbEntity
  8
0
  6
Continuous
 62
     7
370
    15
100
AcDbLine
 10
26.8633843409
 20
156.0632894342
 30
0.0
 11
28.1135111335
 21
159.9107840834
 31
0.0
  0
LINE
  5
B8
330
1F
100
AcDbEntity
  8
0
  6
Continuous
 62
     7
370
    15
100
AcDbLine
 10
6.281099433
 20
5.0
 30
0.0
 11
6.281099433
 21
0.0
 31
0.0
  0
LINE
  5
B9
330
1F
100
AcDbEntity
  8
0
  6
Continuous
 62
     7
370
    15
100
AcDbLine
 10
11.281099433
 20
5.0
 30
0.0
 11
6.281099433
 21
5.0
 31
0.0
  0
LINE
  5
BA
330
1F
100
AcDbEntity
  8
0
  6
Continuous
 62
     7
370
    15
100
AcDbLine
 10
11.281099433
 20
0.0
 30
0.0
 11
11.281099433
 21
5.0
 31
0.0
  0
LINE
  5
BB
330
1F
100
AcDbEntity
  8
0
  6
Continuous
 62
     7
370
    15
100
AcDbLine
 10
11.281099433
 20
0.0
 30
0.0
 11
185.7030171795
 21
0.0
 31
0.0
  0
LINE
  5
BC
330
1F
100
AcDbEntity
  8
0
  6
Continuous
 62
     7
370
    15
100
AcDbLine
 10
185.7030171795
 20
13.6904053703
 30
0.0
 11
185.7030171795
 21
0.0
 31
0.0
  0
ARC
  5
BD
330
1F
100
AcDbEntity
  8
0
  6
Continuous
 62
     7
370
    15
100
AcDbCircle
 10
178.7030171795
 20
13.6904053703
 30
0.0
 40
7.000000000000028
100
AcDbArc
 50
0.0
 51
90.0
  0
LINE
  5
BE
330
1F
100
AcDbEntity
  8
0
  6
Continuous
 62
     7
370
    15
100
AcDbLine
 10
164.0866988828
 20
20.6904053703
 30
0.0
 11
178.7030171795
 21
20.6904053703
 31
0.0
  0
LINE
  5
BF
330
1F
100
AcDbEntity
  8
0
  6
Continuous
 62
     7
370
    15
100
AcDbLine
 10
169.587310188
 20
44.9992336828
 30
0.0
 11
164.0866988828
 21
20.6904053703
 31
0.0
  0
LINE
  5
C0
330
1F
100
AcDbEntity
  8
0
  6
Continuous
 62
     7
370
    15
100
AcDbLine
 10
166.1477820237
 20
44.5158395236
 30
0.0
 11
169.587310188
 21
44.9992336828
 31
0.0
  0
LINE
  5
C1
330
1F
100
AcDbEntity
  8
0
  6
Continuous
 62
     7
370
    15
100
AcDbLine
 10
166.1477820237
 20
44.5158395236
 30
0.0
 11
154.8263002505
 21
125.0723681448
 31
0.0
  0
ARC
  5
C2
330
1F
100
AcDbEntity
  8
0
  6
Continuous
 62
     7
370
    15
100
AcDbCircle
 10
147.8944237693
 20
124.098156438
 30
0.0
 40
7.000000000000049
100
AcDbArc
 50
8.0
 51
72.0
  0
LINE
  5
C3
330
1F
100
AcDbEntity
  8
0
  6
Continuous
 62
     7
370
    15
100
AcDbLine
 10
31.1896222621
 20
169.3780806623
 30
0.0
 11
150.05754273
 21
130.7555520521
 31
0.0
  0
LINE
  5
C4
330
1F
100
AcDbEntity
  8
0
  6
Continuous
 62
     7
370
    15
100
AcDbLine
 10
29.6218628506
 20
164.5530133313
 30
0.0
 11
31.1896222621
 21
169.3780806623
 31
0.0
  0
LINE
  5
C5
330
1F
100
AcDbEntity
  8
0
  6
Continuous
 62
     7
370
    15
100
AcDbLine
 10
21.421168753
 20
172.1519676837
 30
0.0
 11
29.6218628506
 21
164.5530133313
 31
0.0
  0
LINE
  5
C6
330
1F
100
AcDbEntity
  8
0
  6
Continuous
 62
     7
370
    15
100
AcDbLine
 10
21.421168753
 20
172.1519676837
 30
0.0
 11
34.9143264774
 21
182.6403359053
 31
0.0
  0
LINE
  5
C7
330
1F
100
AcDbEntity
  8
0
  6
Continuous
 62
     7
370
    15
100
AcDbLine
 10
17.3300895605
 20
184.7430147636
 30
0.0
 11
34.9143264774
 21
182.6403359053
 31
0.0
  0
LINE
  5
C8
330
1F
100
AcDbEntity
  8
0
  6
Continuous
 62
     7
370
    15
100
AcDbLine
 10
17.3300895605
 20
184.7430147636
 30
0.0
 11
22.0813753062
 21
201.1593620154
 31
0.0
  0
LINE
  5
C9
330
1F
100
AcDbEntity
  8
0
  6
Continuous
 62
     7
370
    15
100
AcDbLine
 10
6.619505184
 20
192.5247098129
 30
0.0
 11
22.0813753062
 21
201.1593620154
 31
0.0
  0
LINE
  5
CA
330
1F
100
AcDbEntity
  8
0
  6
Continuous
 62
     7
370
    15
100
AcDbLine
 10
6.619505184
 20
192.5247098129
 30
0.0
 11
0.8140892863
 21
208.5985494158
 31
0.0
  0
LINE
  5
CB
330
1F
100
AcDbEntity
  8
0
  6
Continuous
 62
     7
370
    15
100
AcDbLine
 10
-6.619505184
 20
192.5247098129
 30
0.0
 11
0.8140892863
 21
208.5985494158
 31
0.0
  0
LINE
  5
CC
330
1F
100
AcDbEntity
  8
0
  6
Continuous
 62
     7
370
    15
100
AcDbLine
 10
-6.619505184
 20
192.5247098129
 30
0.0
 11
-20.7641511711
 21
202.1163813684
 31
0.0
  0
LINE
  5
CD
330
1F
100
AcDbEntity
  8
0
  6
Continuous
 62
     7
370
    15
100
AcDbLine
 10
-17.3300895605
 20
184.7430147636
 30
0.0
 11
-20.7641511711
 21
202.1163813684
 31
0.0
  0
LINE
  5
CE
330
1F
100
AcDbEntity
  8
0
  6
Continuous
 62
     7
370
    15
100
AcDbLine
 10
-17.3300895605
 20
184.7430147636
 30
0.0
 11
-34.4111916286
 21
184.1888257464
 31
0.0
  0
LINE
  5
CF
330
1F
100
AcDbEntity
  8
0
  6
Continuous
 62
     7
370
    15
100
AcDbLine
 10
-21.421168753
 20
172.1519676837
 30
0.0
 11
-34.4111916286
 21
184.1888257464
 31
0.0
  0
LINE
  5
D0
330
1F
100
AcDbEntity
  8
0
  6
Continuous
 62
     7
370
    15
100
AcDbLine
 10
-21.421168753
 20
172.1519676837
 30
0.0
 11
-34.9143264774
 21
161.6635994622
 31
0.0
  0
LINE
  5
D1
330
1F
100
AcDbEntity
  8
0
  6
Continuous
 62
     7
370
    15
100
AcDbLine
 10
-17.3300895605
 20
159.5609206039
 30
0.0
 11
-34.9143264774
 21
161.6635994622
 31
0.0
  0
LINE
  5
D2
330
1F
100
AcDbEntity
  8
0
  6
Continuous
 62
     7
370
    15
100
AcDbLine
 10
-17.3300895605
 20
159.5609206039
 30
0.0
 11
-22.0813753062
 21
143.1445733521
 31
0.0
  0
LINE
  5
D3
330
1F
100
AcDbEntity
  8
0
  6
Continuous
 62
     7
370
    15
100
AcDbLine
 10
-6.619505184
 20
151.7792255546
 30
0.0
 11
-22.0813753062
 21
143.1445733521
 31
0.0
  0
LINE
  5
D4
330
1F
100
AcDbEntity
  8
0
  6
Continuous
 62
     7
370
    15
100
AcDbLine
 10
-6.619505184
 20
151.7792255546
 30
0.0
 11
0.0
 21
133.4513630115
 31
0.0
  0
LINE
  5
D5
330
1F
100
AcDbEntity
  8
0
  6
Continuous
 62
     7
370
    15
100
AcDbLine
 10
0.0
 20
133.4513630115
 30
0.0
 11
0.0
 21
0.0
 31
0.0
  0
LINE
  5
D6
330
1F
100
AcDbEntity
  8
0
  6
Continuous
 62
     7
370
    15
100
AcDbLine
 10
0.0
 20
0.0
 30
0.0
 11
6.281099433
 21
0.0
 31
0.0
  0
LINE
  5
D7
330
1F
100
AcDbEntity
  8
0
  6
Continuous
 62
     7
370
    15
100
AcDbLine
 10
39.3978996797
 20
25.8397682165
 30
0.0
 11
39.3978996797
 21
17.1555576902
 31
0.0
  0
LINE
  5
D8
330
1F
100
AcDbEntity
  8
0
  6
Continuous
 62
     7
370
    15
100
AcDbLine
 10
39.3978996797
 20
17.1555576902
 30
0.0
 11
38.082110206
 21
17.1555576902
 31
0.0
  0
LINE
  5
D9
330
1F
100
AcDbEntity
  8
0
  6
Continuous
 62
     7
370
    15
100
AcDbLine
 10
38.082110206
 20
17.1555576902
 30
0.0
 11
38.082110206
 21
27.1555576902
 31
0.0
  0
LINE
  5
DA
330
1F
100
AcDbEntity
  8
0
  6
Continuous
 62
     7
370
    15
100
AcDbLine
 10
38.082110206
 20
27.1555576902
 30
0.0
 11
40.7095773113
 21
27.1555576902
 31
0.0
  0
SPLINE
  5
DB
330
1F
100
AcDbEntity
  8
0
  6
Continuous
 62
     7
370
    15
100
AcDbSpline
210
0.0
220
0.0
230
1.0
 70
     8
 71
     3
 72
    15
 73
    11
 74
     0
 42
0.000000001
 43
0.00000001
 40
0.0
 40
0.0
 40
0.0
 40
0.0
 40
0.1268437733476248
 40
0.2511262062354788
 40
0.3732290468852242
 40
0.495339135327783
 40
0.6181559915012598
 40
0.7425195761160768
 40
0.8692600462403375
 40
1.0
 40
1.0
 40
1.0
 40
1.0
 10
40.70957731126094
 20
27.1555576902156
 30
0.0
 10
40.85574353350856
 20
27.15225347593893
 30
0.0
 10
41.14512446174867
 20
27.14571176897147
 30
0.0
 10
41.57178613301998
 20
27.08594500017552
 30
0.0
 10
41.98590287419255
 20
26.99103737630707
 30
0.0
 10
42.38847465852938
 20
26.85969578748594
 30
0.0
 10
42.77807918651776
 20
26.68744045620731
 30
0.0
 10
43.15586957054064
 20
26.47953230756217
 30
0.0
 10
43.5198895492362
 20
26.2312241995641
 30
0.0
 10
43.74769049784033
 20
26.04113906734667
 30
0.0
 10
43.86336020599779
 20
25.9446201902156
 30
0.0
  0
SPLINE
  5
DC
330
1F
100
AcDbEntity
  8
0
  6
Continuous
 62
     7
370
    15
100
AcDbSpline
210
0.0
220
0.0
230
1.0
 70
     8
 71
     3
 72
    15
 73
    11
 74
     0
 42
0.000000001
 43
0.00000001
 40
0.0
 40
0.0
 40
0.0
 40
0.0
 40
0.1251818690062923
 40
0.2471455941569511
 40
0.3674594326561044
 40
0.4881956181126876
 40
0.6104554021993774
 40
0.735567708541552
 40
0.8651304554028874
 40
1.0
 40
1.0
 40
1.0
 40
1.0
 10
43.86336020599779
 20
25.9446201902156
 30
0.0
 10
43.99014793295224
 20
25.82459309089464
 30
0.0
 10
44.24046396001518
 20
25.58762451859187
 30
0.0
 10
44.56487505888074
 20
25.18934760717169
 30
0.0
 10
44.83764619114305
 20
24.76227122017369
 30
0.0
 10
45.06414132185142
 20
24.30813980091357
 30
0.0
 10
45.23562249780048
 20
23.82350751072789
 30
0.0
 10
45.36219801460063
 20
23.31292324686152
 30
0.0
 10
45.4368765490184
 20
22.77385895109739
 30
0.0
 10
45.44591919752533
 20
22.40524240970992
 30
0.0
 10
45.45053125862936
 20
22.21723532179455
 30
0.0
  0
SPLINE
  5
DD
330
1F
100
AcDbEntity
  8
0
  6
Continuous
 62
     7
370
    15
100
AcDbSpline
210
0.0
220
0.0
230
1.0
 70
     8
 71
     3
 72
    15
 73
    11
 74
     0
 42
0.000000001
 43
0.00000001
 40
0.0
 40
0.0
 40
0.0
 40
0.0
 40
0.1312697079434524
 40
0.2593393727158598
 40
0.384866581721851
 40
0.5082021560646368
 40
0.6302429743239008
 40
0.752426425394936
 40
0.8753533598072156
 40
0.9999999999999999
 40
0.9999999999999999
 40
0.9999999999999999
 40
0.9999999999999999
 10
45.45053125862936
 20
22.21723532179455
 30
0.0
 10
45.44784813806574
 20
22.05875880026374
 30
0.0
 10
45.44254730503435
 20
21.74566903775969
 30
0.0
 10
45.38603711210005
 20
21.28399993431352
 30
0.0
 10
45.301354878209
 20
20.83675030667842
 30
0.0
 10
45.17947453465509
 20
20.40547952575889
 30
0.0
 10
45.02272057224732
 20
19.98992417487447
 30
0.0
 10
44.82972071651616
 20
19.59074454350613
 30
0.0
 10
44.60754459879238
 20
19.20285982177237
 30
0.0
 10
44.42981564247324
 20
18.96245188667966
 30
0.0
 10
44.34033389020831
 20
18.8414129533735
 30
0.0
  0
SPLINE
  5
DE
330
1F
100
AcDbEntity
  8
0
  6
Continuous
 62
     7
370
    15
100
AcDbSpline
210
0.0
220
0.0
230
1.0
 70
     8
 71
     3
 72
    23
 73
    19
 74
     0
 42
0.000000001
 43
0.00000001
 40
0.0
 40
0.0
 40
0.0
 40
0.0
 40
0.0636237218178861
 40
0.1266020818815993
 40
0.1884575788947179
 40
0.2490231726107715
 40
0.3093075836534772
 40
0.3693427986819933
 40
0.4296106287133044
 40
0.4890750325944136
 40
0.5495250036084396
 40
0.6107226175192447
 40
0.6722459912079263
 40
0.7349280838023642
 40
0.7988632515886506
 40
0.8643353376186915
 40
0.9315027987399043
 40
1.0
 40
1.0
 40
1.0
 40
1.0
 10
44.34033389020831
 20
18.8414129533735
 30
0.0
 10
44.28641165950448
 20
18.77280731574244
 30
0.0
 10
44.1791141536097
 20
18.63629193586941
 30
0.0
 10
44.00343778028649
 20
18.44652040634267
 30
0.0
 10
43.82311879966893
 20
18.2673347500761
 30
0.0
 10
43.63560831018243
 20
18.10082465684791
 30
0.0
 10
43.43672025266248
 20
17.95247427457459
 30
0.0
 10
43.23386903979269
 20
17.81025816456091
 30
0.0
 10
43.02031093900869
 20
17.68675527840043
 30
0.0
 10
42.80044033164481
 20
17.57388388422704
 30
0.0
 10
42.57210189208616
 20
17.47590912580757
 30
0.0
 10
42.33627291943417
 20
17.38916065127815
 30
0.0
 10
42.09221498288499
 20
17.31759844830321
 30
0.0
 10
41.84129312273853
 20
17.25723853278367
 30
0.0
 10
41.58154840462107
 20
17.21275333453222
 30
0.0
 10
41.31397815304331
 20
17.18011205689599
 30
0.0
 10
41.03887995687189
 20
17.15848292015031
 30
0.0
 10
40.85284740647805
 20
17.15653911769671
 30
0.0
 10
40.75891941652409
 20
17.1555576902156
 30
0.0
  0
LINE
  5
DF
330
1F
100
AcDbEntity
  8
0
  6
Continuous
 62
     7
370
    15
100
AcDbLine
 10
40.7589194165
 20
17.1555576902
 30
0.0
 11
39.9529983639
 21
17.1555576902
 31
0.0
  0
LINE
  5
E0
330
1F
100
AcDbEntity
  8
0
  6
Continuous
 62
     7
370
    15
100
AcDbLine
 10
39.9529983639
 20
17.1555576902
 30
0.0
 11
39.9529983639
 21
18.4713471639
 31
0.0
  0
LINE
  5
E1
330
1F
100
AcDbEntity
  8
0
  6
Continuous
 62
     7
370
    15
100
AcDbLine
 10
39.9529983639
 20
18.4713471639
 30
0.0
 11
40.8658273113
 21
18.4713471639
 31
0.0
  0
SPLINE
  5
E2
330
1F
100
AcDbEntity
  8
0
  6
Continuous
 62
     7
370
    15
100
AcDbSpline
210
0.0
220
0.0
230
1.0
 70
     8
 71
     3
 72
    15
 73
    11
 74
     0
 42
0.000000001
 43
0.00000001
 40
0.0
 40
0.0
 40
0.0
 40
0.0
 40
0.1244327473848969
 40
0.2446437478543692
 40
0.3632004852904132
 40
0.4833078982331854
 40
0.6040148814039704
 40
0.7298204682619276
 40
0.8613065873068045
 40
1.0
 40
1.0
 40
1.0
 40
1.0
 10
40.86582731126094
 20
18.47134716389981
 30
0.0
 10
40.98055416056827
 20
18.47525804201954
 30
0.0
 10
41.20611541340514
 20
18.48294711021676
 30
0.0
 10
41.53615541923374
 20
18.54501517289701
 30
0.0
 10
41.85277116420923
 20
18.64328717719246
 30
0.0
 10
42.15246093107213
 20
18.78654373056732
 30
0.0
 10
42.43837340265548
 20
18.96797919833166
 30
0.0
 10
42.70748891837836
 20
19.19009246866161
 30
0.0
 10
42.96536142737363
 20
19.44958580503932
 30
0.0
 10
43.11586879571747
 20
19.64818272080356
 30
0.0
 10
43.19312994283989
 20
19.75013005863666
 30
0.0
  0
SPLINE
  5
E3
330
1F
100
AcDbEntity
  8
0
  6
Continuous
 62
     7
370
    15
100
AcDbSpline
210
0.0
220
0.0
230
1.0
 70
     8
 71
     3
 72
    15
 73
    11
 74
     0
 42
0.000000001
 43
0.00000001
 40
0.0
 40
0.0
 40
0.0
 40
0.0
 40
0.1305915652787396
 40
0.2575995046606356
 40
0.3830710207339271
 40
0.507044014554729
 40
0.6292944716615417
 40
0.7514444723175946
 40
0.8753431789088226
 40
1.0
 40
1.0
 40
1.0
 40
1.0
 10
43.19312994283989
 20
19.75013005863666
 30
0.0
 10
43.25753815535167
 20
19.8445187444188
 30
0.0
 10
43.3845871236652
 20
20.03070595069931
 30
0.0
 10
43.54991192302071
 20
20.32266565042113
 30
0.0
 10
43.68983309863945
 20
20.62107839393384
 30
0.0
 10
43.80537616046028
 20
20.92532100271375
 30
0.0
 10
43.89492894288922
 20
21.23535410794628
 30
0.0
 10
43.95515538558617
 20
21.55208428095047
 30
0.0
 10
43.99679643065664
 20
21.87416340737802
 30
0.0
 10
44.00103639119563
 20
22.09169194481981
 30
0.0
 10
44.00316283757674
 20
22.2007879533735
 30
0.0
  0
SPLINE
  5
E4
330
1F
100
AcDbEntity
  8
0
  6
Continuous
 62
     7
370
    15
100
AcDbSpline
210
0.0
220
0.0
230
1.0
 70
     8
 71
     3
 72
    15
 73
    11
 74
     0
 42
0.000000001
 43
0.00000001
 40
0.0
 40
0.0
 40
0.0
 40
0.0
 40
0.1351212859040328
 40
0.2653931499270112
 40
0.3909486871085905
 40
0.5137393322645337
 40
0.6349779102591575
 40
0.7555644500386233
 40
0.8768930678362225
 40
1.0
 40
1.0
 40
1.0
 40
1.0
 10
44.00316283757673
 20
22.2007879533735
 30
0.0
 10
44.00089112279386
 20
22.3277377419872
 30
0.0
 10
43.99642922370871
 20
22.57708116746858
 30
0.0
 10
43.94680186226288
 20
22.94152316008129
 30
0.0
 10
43.87181192250072
 20
23.2894003207918
 30
0.0
 10
43.76456089838658
 20
23.62015898892309
 30
0.0
 10
43.62569126282037
 20
23.93363816395023
 30
0.0
 10
43.45940886710699
 20
24.23196772139108
 30
0.0
 10
43.25876928492205
 20
24.51099051478595
 30
0.0
 10
43.10436442810068
 20
24.68096957979864
 30
0.0
 10
43.02660033757674
 20
24.76657742705771
 30
0.0
  0
SPLINE
  5
E5
330
1F
100
AcDbEntity
  8
0
  6
Continuous
 62
     7
370
    15
100
AcDbSpline
210
0.0
220
0.0
230
1.0
 70
     8
 71
     3
 72
    15
 73
    11
 74
     0
 42
0.000000001
 43
0.00000001
 40
0.0
 40
0.0
 40
0.0
 40
0.0
 40
0.1231345116243508
 40
0.2439781006001362
 40
0.3644015386851733
 40
0.4851654891952543
 40
0.6079966311436106
 40
0.7336456794853894
 40
0.8642486534088515
 40
1.0
 40
1.0
 40
1.0
 40
1.0
 10
43.02660033757674
 20
24.76657742705771
 30
0.0
 10
42.93786357208069
 20
24.85215163006114
 30
0.0
 10
42.76204099225699
 20
25.02170792450476
 30
0.0
 10
42.46911254996672
 20
25.24035710162448
 30
0.0
 10
42.15750851465254
 20
25.42599194511058
 30
0.0
 10
41.82656526408407
 20
25.57960807568364
 30
0.0
 10
41.47543904529215
 20
25.69696138870878
 30
0.0
 10
41.10445034970212
 20
25.77761105857923
 30
0.0
 10
40.71526591165986
 20
25.83152306551784
 30
0.0
 10
40.44866273025836
 20
25.83698464384267
 30
0.0
 10
40.31278454810305
 20
25.83976821653139
 30
0.0
  0
LINE
  5
E6
330
1F
100
AcDbEntity
  8
0
  6
Continuous
 62
     7
370
    15
100
AcDbLine
 10
40.3127845481
 20
25.8397682165
 30
0.0
 11
39.3978996797
 21
25.8397682165
 31
0.0
  0
LINE
  5
E7
330
1F
100
AcDbEntity
  8
0
  6
Continuous
 62
     7
370
    15
100
AcDbLine
 10
55.0557944165
 20
25.3998011113
 30
0.0
 11
55.0557944165
 21
17.1555576902
 31
0.0
  0
LINE
  5
E8
330
1F
100
AcDbEntity
  8
0
  6
Continuous
 62
     7
370
    15
100
AcDbLine
 10
55.0557944165
 20
17.1555576902
 30
0.0
 11
53.6084259955
 21
17.1555576902
 31
0.0
  0
LINE
  5
E9
330
1F
100
AcDbEntity
  8
0
  6
Continuous
 62
     7
370
    15
100
AcDbLine
 10
53.6084259955
 20
17.1555576902
 30
0.0
 11
53.6084259955
 21
25.9199491376
 31
0.0
  0
SPLINE
  5
EA
330
1F
100
AcDbEntity
  8
0
  6
Continuous
 62
     7
370
    15
100
AcDbSpline
210
0.0
220
0.0
230
1.0
 70
     8
 71
     3
 72
    15
 73
    11
 74
     0
 42
0.000000001
 43
0.00000001
 40
0.0
 40
0.0
 40
0.0
 40
0.0
 40
0.154078447103345
 40
0.2938168215438198
 40
0.4204632569669173
 40
0.5422341519478749
 40
0.6590968886091182
 40
0.7710943096519431
 40
0.8826170736053123
 40
1.0
 40
1.0
 40
1.0
 40
1.0
 10
53.60842599547147
 20
25.91994913758403
 30
0.0
 10
53.61200278489316
 20
26.02306729432417
 30
0.0
 10
53.61882347214026
 20
26.21970640658446
 30
0.0
 10
53.6797315074303
 20
26.49607609611753
 30
0.0
 10
53.78380096411208
 20
26.73581896884386
 30
0.0
 10
53.92898115194836
 20
26.93463647137506
 30
0.0
 10
54.10468705907667
 20
27.09249496194193
 30
0.0
 10
54.30378657460381
 20
27.20596451607199
 30
0.0
 10
54.52369242531718
 20
27.27471039858878
 30
0.0
 10
54.67700909528323
 20
27.28292446245952
 30
0.0
 10
54.75562994283989
 20
27.28713663758402
 30
0.0
  0
SPLINE
  5
EB
330
1F
100
AcDbEntity
  8
0
  6
Continuous
 62
     7
370
    15
100
AcDbSpline
210
0.0
220
0.0
230
1.0
 70
     8
 71
     3
 72
    15
 73
    11
 74
     0
 42
0.000000001
 43
0.00000001
 40
0.0
 40
0.0
 40
0.0
 40
0.0
 40
0.1277232162118948
 40
0.2480895675165395
 40
0.3664541616386773
 40
0.4824438528216657
 40
0.6027384316906258
 40
0.7262292485905888
 40
0.859251974657223
 40
0.9999999999999999
 40
0.9999999999999999
 40
0.9999999999999999
 40
0.9999999999999999
 10
54.75562994283989
 20
27.28713663758402
 30
0.0
 10
54.81888065029005
 20
27.28496067838014
 30
0.0
 10
54.9417388206511
 20
27.28073409535289
 30
0.0
 10
55.11982819478763
 20
27.24212500810044
 30
0.0
 10
55.28477438729496
 20
27.18067321534575
 30
0.0
 10
55.43855173474315
 20
27.09464487792862
 30
0.0
 10
55.578115493551
 20
26.98295137187661
 30
0.0
 10
55.70531200990531
 20
26.84604195612113
 30
0.0
 10
55.82072494264056
 20
26.68609313244978
 30
0.0
 10
55.88310121129635
 20
26.56571711727712
 30
0.0
 10
55.9151694165241
 20
26.50383071653139
 30
0.0
  0
LINE
  5
EC
330
1F
100
AcDbEntity
  8
0
  6
Continuous
 62
     7
370
    15
100
AcDbLine
 10
55.9151694165
 20
26.5038307165
 30
0.0
 11
59.5294786271
 21
19.0490609797
 31
0.0
  0
LINE
  5
ED
330
1F
100
AcDbEntity
  8
0
  6
Continuous
 62
     7
370
    15
100
AcDbLine
 10
59.5294786271
 20
19.0490609797
 30
0.0
 11
59.5294786271
 21
27.1555576902
 31
0.0
  0
LINE
  5
EE
330
1F
100
AcDbEntity
  8
0
  6
Continuous
 62
     7
370
    15
100
AcDbLine
 10
59.5294786271
 20
27.1555576902
 30
0.0
 11
60.9768470481
 21
27.1555576902
 31
0.0
  0
LINE
  5
EF
330
1F
100
AcDbEntity
  8
0
  6
Continuous
 62
     7
370
    15
100
AcDbLine
 10
60.9768470481
 20
27.1555576902
 30
0.0
 11
60.9768470481
 21
18.0519392692
 31
0.0
  0
SPLINE
  5
F0
330
1F
100
AcDbEntity
  8
0
  6
Continuous
 62
     7
370
    15
100
AcDbSpline
210
0.0
220
0.0
230
1.0
 70
     8
 71
     3
 72
    11
 73
     7
 74
     0
 42
0.000000001
 43
0.00000001
 40
0.0
 40
0.0
 40
0.0
 40
0.0
 40
0.2735485129114928
 40
0.5217299334506095
 40
0.7591189659851396
 40
0.9999999999999999
 40
0.9999999999999999
 40
0.9999999999999999
 40
0.9999999999999999
 10
60.97684704810305
 20
18.05193926916297
 30
0.0
 10
60.9737072145997
 20
17.98296708596968
 30
0.0
 10
60.96771871512911
 20
17.85141874683094
 30
0.0
 10
60.91092659360576
 20
17.66702547251172
 30
0.0
 10
60.81485623108244
 20
17.50819514154309
 30
0.0
 10
60.72296410449595
 20
17.42954492405429
 30
0.0
 10
60.67668257441884
 20
17.3899326902156
 30
0.0
  0
SPLINE
  5
F1
330
1F
100
AcDbEntity
  8
0
  6
Continuous
 62
     7
370
    15
100
AcDbSpline
210
0.0
220
0.0
230
1.0
 70
     8
 71
     3
 72
    11
 73
     7
 74
     0
 42
0.000000001
 43
0.00000001
 40
0.0
 40
0.0
 40
0.0
 40
0.0
 40
0.2412354852042173
 40
0.4812431651011208
 40
0.7333108259747151
 40
1.0
 40
1.0
 40
1.0
 40
1.0
 10
60.67668257441884
 20
17.3899326902156
 30
0.0
 10
60.62235674971483
 20
17.35344891347425
 30
0.0
 10
60.51398159999274
 20
17.28066704981523
 30
0.0
 10
60.32730056428554
 20
17.21012181593094
 30
0.0
 10
60.1267584144534
 20
17.16238967185872
 30
0.0
 10
59.98619731735737
 20
17.15787741113933
 30
0.0
 10
59.91393586389253
 20
17.15555769021561
 30
0.0
  0
SPLINE
  5
F2
330
1F
100
AcDbEntity
  8
0
  6
Continuous
 62
     7
370
    15
100
AcDbSpline
210
0.0
220
0.0
230
1.0
 70
     8
 71
     3
 72
    11
 73
     7
 74
     0
 42
0.000000001
 43
0.00000001
 40
0.0
 40
0.0
 40
0.0
 40
0.0
 40
0.2542629773849305
 40
0.5006668551769896
 40
0.7482289522166773
 40
1.0
 40
1.0
 40
1.0
 40
1.0
 10
59.91393586389252
 20
17.1555576902156
 30
0.0
 10
59.84174796191668
 20
17.15830521694345
 30
0.0
 10
59.69960343802337
 20
17.1637153461746
 30
0.0
 10
59.49118323948581
 20
17.2074302967911
 30
0.0
 10
59.28931920059875
 20
17.27347817706799
 30
0.0
 10
59.16468794385182
 20
17.34132957785562
 30
0.0
 10
59.10184704810305
 20
17.37554124284718
 30
0.0
  0
SPLINE
  5
F3
330
1F
100
AcDbEntity
  8
0
  6
Continuous
 62
     7
370
    15
100
AcDbSpline
210
0.0
220
0.0
230
1.0
 70
     8
 71
     3
 72
    11
 73
     7
 74
     0
 42
0.000000001
 43
0.00000001
 40
0.0
 40
0.0
 40
0.0
 40
0.0
 40
0.263627429092035
 40
0.5116943481961473
 40
0.7544132450320503
 40
1.0
 40
1.0
 40
1.0
 40
1.0
 10
59.10184704810305
 20
17.37554124284718
 30
0.0
 10
59.04668261939364
 20
17.40827051840976
 30
0.0
 10
58.93960982166052
 20
17.47179723633745
 30
0.0
 10
58.81024993307086
 20
17.60247291413257
 30
0.0
 10
58.69942494781184
 20
17.74414873612186
 30
0.0
 10
58.65529274532382
 20
17.85455391691041
 30
0.0
 10
58.63309704810305
 20
17.91008071653139
 30
0.0
  0
LINE
  5
F4
330
1F
100
AcDbEntity
  8
0
  6
Continuous
 62
     7
370
    15
100
AcDbLine
 10
58.6330970481
 20
17.9100807165
 30
0.0
 11
55.0557944165
 21
25.3998011113
 31
0.0
  0
SPLINE
  5
F5
330
1F
100
AcDbEntity
  8
0
  6
Continuous
 62
     7
370
    15
100
AcDbSpline
210
0.0
220
0.0
230
1.0
 70
     8
 71
     3
 72
    15
 73
    11
 74
     0
 42
0.000000001
 43
0.00000001
 40
0.0
 40
0.0
 40
0.0
 40
0.0
 40
0.1262005137157284
 40
0.2479736237178755
 40
0.3682639265961607
 40
0.4878536763040174
 40
0.6083506783278972
 40
0.7336501889646805
 40
0.8636198698440252
 40
1.0
 40
1.0
 40
1.0
 40
1.0
 10
71.57100823231357
 20
17.78261361126823
 30
0.0
 10
71.48127024170536
 20
17.8515810739992
 30
0.0
 10
71.30494247519242
 20
17.98709646255418
 30
0.0
 10
71.07780364477283
 20
18.2279894854896
 30
0.0
 10
70.88313833275203
 20
18.48758755745924
 30
0.0
 10
70.72310129415618
 20
18.76906743417627
 30
0.0
 10
70.60152143008908
 20
19.07379882093293
 30
0.0
 10
70.5128596002967
 20
19.39916252158655
 30
0.0
 10
70.46165722985442
 20
19.74714854152642
 30
0.0
 10
70.45429894821137
 20
19.9857091864798
 30
0.0
 10
70.45053125862937
 20
20.10786032179455
 30
0.0
  0
LINE
  5
F6
330
1F
100
AcDbEntity
  8
0
  6
Continuous
 62
     7
370
    15
100
AcDbLine
 10
70.4505312586
 20
20.1078603218
 30
0.0
 11
70.4505312586
 21
27.1555576902
 31
0.0
  0
LINE
  5
F7
330
1F
100
AcDbEntity
  8
0
  6
Continuous
 62
     7
370
    15
100
AcDbLine
 10
70.4505312586
 20
27.1555576902
 30
0.0
 11
71.7663207323
 21
27.1555576902
 31
0.0
  0
LINE
  5
F8
330
1F
100
AcDbEntity
  8
0
  6
Continuous
 62
     7
370
    15
100
AcDbLine
 10
71.7663207323
 20
27.1555576902
 30
0.0
 11
71.7663207323
 21
20.6835182165
 31
0.0
  0
SPLINE
  5
F9
330
1F
100
AcDbEntity
  8
0
  6
Continuous
 62
     7
370
    15
100
AcDbSpline
210
0.0
220
0.0
230
1.0
 70
     8
 71
     3
 72
    15
 73
    11
 74
     0
 42
0.000000001
 43
0.00000001
 40
0.0
 40
0.0
 40
0.0
 40
0.0
 40
0.1542041357470705
 40
0.2992317835763381
 40
0.4356683870534935
 40
0.5616004959483565
 40
0.6800783481867518
 40
0.7928351534205755
 40
0.8990538020014981
 40
1.0
 40
1.0
 40
1.0
 40
1.0
 10
71.76632073231356
 20
20.68351821653139
 30
0.0
 10
71.76727744801286
 20
20.59575620017084
 30
0.0
 10
71.76913394650228
 20
20.42545477110346
 30
0.0
 10
71.7899158192964
 20
20.17820593519197
 30
0.0
 10
71.8241893044955
 20
19.94874332085301
 30
0.0
 10
71.8719319681686
 20
19.73724004178688
 30
0.0
 10
71.93001665995521
 20
19.54209301074324
 30
0.0
 10
72.00690442993073
 20
19.36582707896415
 30
0.0
 10
72.09402017893827
 20
19.20535809546509
 30
0.0
 10
72.16535864263871
 20
19.11132721937428
 30
0.0
 10
72.20012007441883
 20
19.06550834811034
 30
0.0
  0
SPLINE
  5
FA
330
1F
100
AcDbEntity
  8
0
  6
Continuous
 62
     7
370
    15
100
AcDbSpline
210
0.0
220
0.0
230
1.0
 70
     8
 71
     3
 72
    15
 73
    11
 74
     0
 42
0.000000001
 43
0.00000001
 40
0.0
 40
0.0
 40
0.0
 40
0.0
 40
0.1088815842230589
 40
0.2186210960385806
 40
0.33176871107919
 40
0.4494093824702086
 40
0.5739107188563748
 40
0.7062518871558484
 40
0.8482618665717877
 40
1.0
 40
1.0
 40
1.0
 40
1.0
 10
72.20012007441885
 20
19.06550834811034
 30
0.0
 10
72.24319943263804
 20
19.01735335972415
 30
0.0
 10
72.32969759096038
 20
18.92066394786596
 30
0.0
 10
72.48786312814667
 20
18.8024575712307
 30
0.0
 10
72.66098578310687
 20
18.69871713749879
 30
0.0
 10
72.85406968032356
 20
18.61341076084878
 30
0.0
 10
73.06745091518027
 20
18.5517716343907
 30
0.0
 10
73.2988362012025
 20
18.50315835628201
 30
0.0
 10
73.55031410086319
 20
18.47803626215094
 30
0.0
 10
73.72419725204881
 20
18.47362555361766
 30
0.0
 10
73.81401810073463
 20
18.47134716389981
 30
0.0
  0
LINE
  5
FB
330
1F
100
AcDbEntity
  8
0
  6
Continuous
 62
     7
370
    15
100
AcDbLine
 10
73.8140181007
 20
18.4713471639
 30
0.0
 11
75.0825213902
 21
18.4713471639
 31
0.0
  0
LINE
  5
FC
330
1F
100
AcDbEntity
  8
0
  6
Continuous
 62
     7
370
    15
100
AcDbLine
 10
75.0825213902
 20
18.4713471639
 30
0.0
 11
75.0825213902
 21
17.1555576902
 31
0.0
  0
LINE
  5
FD
330
1F
100
AcDbEntity
  8
0
  6
Continuous
 62
     7
370
    15
100
AcDbLine
 10
75.0825213902
 20
17.1555576902
 30
0.0
 11
73.4706792849
 21
17.1555576902
 31
0.0
  0
SPLINE
  5
FE
330
1F
100
AcDbEntity
  8
0
  6
Continuous
 62
     7
370
    15
100
AcDbSpline
210
0.0
220
0.0
230
1.0
 70
     8
 71
     3
 72
    15
 73
    11
 74
     0
 42
0.000000001
 43
0.00000001
 40
0.0
 40
0.0
 40
0.0
 40
0.0
 40
0.1264160208196882
 40
0.2505085441761042
 40
0.3731816855803645
 40
0.4960253537345488
 40
0.6191471792183304
 40
0.7443579156852747
 40
0.8710764882440061
 40
1.0
 40
1.0
 40
1.0
 40
1.0
 10
73.47067928494515
 20
17.1555576902156
 30
0.0
 10
73.38494505676941
 20
17.15769655355866
 30
0.0
 10
73.21505237586469
 20
17.16193496842718
 30
0.0
 10
72.96320723993604
 20
17.190846662367
 30
0.0
 10
72.71742992167276
 20
17.24118061433879
 30
0.0
 10
72.4763208120599
 20
17.30825183081242
 30
0.0
 10
72.24061025755014
 20
17.39760354653449
 30
0.0
 10
72.01078029101174
 20
17.50700587147218
 30
0.0
 10
71.7855161603114
 20
17.63407425540279
 30
0.0
 10
71.64292084139652
 20
17.73281660501543
 30
0.0
 10
71.57100823231359
 20
17.78261361126824
 30
0.0
  0
LINE
  5
FF
330
1F
100
AcDbEntity
  8
0
  6
Continuous
 62
     7
370
    15
100
AcDbLine
 10
84.1347417849
 20
23.7201136113
 30
0.0
 11
84.1347417849
 21
17.1555576902
 31
0.0
  0
LINE
  5
100
330
1F
100
AcDbEntity
  8
0
  6
Continuous
 62
     7
370
    15
100
AcDbLine
 10
84.1347417849
 20
17.1555576902
 30
0.0
 11
82.6873733639
 21
17.1555576902
 31
0.0
  0
LINE
  5
101
330
1F
100
AcDbEntity
  8
0
  6
Continuous
 62
     7
370
    15
100
AcDbLine
 10
82.6873733639
 20
17.1555576902
 30
0.0
 11
82.7161562586
 21
23.7694557165
 31
0.0
  0
SPLINE
  5
102
330
1F
100
AcDbEntity
  8
0
  6
Continuous
 62
     7
370
    15
100
AcDbSpline
210
0.0
220
0.0
230
1.0
 70
     8
 71
     3
 72
    15
 73
    11
 74
     0
 42
0.000000001
 43
0.00000001
 40
0.0
 40
0.0
 40
0.0
 40
0.0
 40
0.1352285390563777
 40
0.266182611042398
 40
0.3915712984451514
 40
0.5148406127533846
 40
0.6355362847583406
 40
0.7565466906310375
 40
0.8768626788974581
 40
1.0
 40
1.0
 40
1.0
 40
1.0
 10
82.71615625862935
 20
23.76945571653139
 30
0.0
 10
82.71865570001295
 20
23.89432697703575
 30
0.0
 10
82.72357557741663
 20
24.14012241635013
 30
0.0
 10
82.77010192458715
 20
24.4992169736202
 30
0.0
 10
82.84366328342098
 20
24.84223019145948
 30
0.0
 10
82.94863379206622
 20
25.16721914280432
 30
0.0
 10
83.08328718245848
 20
25.47662665338378
 30
0.0
 10
83.2475268500119
 20
25.76823990069817
 30
0.0
 10
83.44236420087502
 20
26.0435352432445
 30
0.0
 10
83.5936062468184
 20
26.20995339802986
 30
0.0
 10
83.67010362705041
 20
26.29412676916297
 30
0.0
  0
SPLINE
  5
103
330
1F
100
AcDbEntity
  8
0
  6
Continuous
 62
     7
370
    15
100
AcDbSpline
210
0.0
220
0.0
230
1.0
 70
     8
 71
     3
 72
    15
 73
    11
 74
     0
 42
0.000000001
 43
0.00000001
 40
0.0
 40
0.0
 40
0.0
 40
0.0
 40
0.1280062569368473
 40
0.2520348709731959
 40
0.3745626681129692
 40
0.4955957338800506
 40
0.6178695668815231
 40
0.7420113951862883
 40
0.868415131714144
 40
1.0
 40
1.0
 40
1.0
 40
1.0
 10
83.67010362705041
 20
26.29412676916297
 30
0.0
 10
83.7515601952928
 20
26.37320461663627
 30
0.0
 10
83.91194216534774
 20
26.52890306108498
 30
0.0
 10
84.1756255786699
 20
26.73198110546437
 30
0.0
 10
84.45378307867566
 20
26.90259389498513
 30
0.0
 10
84.74608676731354
 20
27.04437827051428
 30
0.0
 10
85.05378330756086
 20
27.15305568416746
 30
0.0
 10
85.37531354421685
 20
27.2315584486684
 30
0.0
 10
85.71170365868024
 20
27.27708823655145
 30
0.0
 10
85.9403889856328
 20
27.28374262434222
 30
0.0
 10
86.05702796915568
 20
27.28713663758402
 30
0.0
  0
SPLINE
  5
104
330
1F
100
AcDbEntity
  8
0
  6
Continuous
 62
     7
370
    15
100
AcDbSpline
210
0.0
220
0.0
230
1.0
 70
     8
 71
     3
 72
    15
 73
    11
 74
     0
 42
0.000000001
 43
0.00000001
 40
0.0
 40
0.0
 40
0.0
 40
0.0
 40
0.1361207445247529
 40
0.266479264034775
 40
0.3923414855678231
 40
0.5155122937737411
 40
0.6358907164609796
 40
0.7561806197489453
 40
0.8770955745624688
 40
1.0
 40
1.0
 40
1.0
 40
1.0
 10
86.05702796915568
 20
27.28713663758402
 30
0.0
 10
86.1832455070899
 20
27.28372263432048
 30
0.0
 10
86.43033757769545
 20
27.27703914841791
 30
0.0
 10
86.7920859493446
 20
27.23218461321504
 30
0.0
 10
87.13544149942835
 20
27.1532782056512
 30
0.0
 10
87.46110761743083
 20
27.04517827775158
 30
0.0
 10
87.7681510123779
 20
26.9037163052176
 30
0.0
 10
88.05691231936129
 20
26.73241866546036
 30
0.0
 10
88.32896110826765
 20
26.53085909030354
 30
0.0
 10
88.49152843258071
 20
26.37346563252812
 30
0.0
 10
88.57347533757672
 20
26.29412676916297
 30
0.0
  0
SPLINE
  5
105
330
1F
100
AcDbEntity
  8
0
  6
Continuous
 62
     7
370
    15
100
AcDbSpline
210
0.0
220
0.0
230
1.0
 70
     8
 71
     3
 72
    15
 73
    11
 74
     0
 42
0.000000001
 43
0.00000001
 40
0.0
 40
0.0
 40
0.0
 40
0.0
 40
0.1131628250388877
 40
0.2267118285123533
 40
0.3423996109978444
 40
0.4620986888562455
 40
0.5868127069401592
 40
0.7177061754332028
 40
0.8551910244139086
 40
1.0
 40
1.0
 40
1.0
 40
1.0
 10
88.57347533757672
 20
26.29412676916297
 30
0.0
 10
88.65039054180167
 20
26.2074659669265
 30
0.0
 10
88.80448343038279
 20
26.03384862458263
 30
0.0
 10
88.99689557058818
 20
25.73992522195722
 30
0.0
 10
89.16279041512905
 20
25.42343505976774
 30
0.0
 10
89.29863879375311
 20
25.08034381452871
 30
0.0
 10
89.40337813191962
 20
24.71039224215754
 30
0.0
 10
89.47554910917114
 20
24.31448394822297
 30
0.0
 10
89.52240046381701
 20
23.89393565942534
 30
0.0
 10
89.527078779598
 20
23.60511353207249
 30
0.0
 10
89.52947862705041
 20
23.45695571653139
 30
0.0
  0
LINE
  5
106
330
1F
100
AcDbEntity
  8
0
  6
Continuous
 62
     7
370
    15
100
AcDbLine
 10
89.5294786271
 20
23.4569557165
 30
0.0
 11
89.5294786271
 21
17.1555576902
 31
0.0
  0
LINE
  5
107
330
1F
100
AcDbEntity
  8
0
  6
Continuous
 62
     7
370
    15
100
AcDbLine
 10
89.5294786271
 20
17.1555576902
 30
0.0
 11
88.082110206
 21
17.1555576902
 31
0.0
  0
LINE
  5
108
330
1F
100
AcDbEntity
  8
0
  6
Continuous
 62
     7
370
    15
100
AcDbLine
 10
88.082110206
 20
17.1555576902
 30
0.0
 11
88.082110206
 21
21.6292419007
 31
0.0
  0
LINE
  5
109
330
1F
100
AcDbEntity
  8
0
  6
Continuous
 62
     7
370
    15
100
AcDbLine
 10
88.082110206
 20
21.6292419007
 30
0.0
 11
84.6631134955
 21
21.6292419007
 31
0.0
  0
LINE
  5
10A
330
1F
100
AcDbEntity
  8
0
  6
Continuous
 62
     7
370
    15
100
AcDbLine
 10
84.6631134955
 20
21.6292419007
 30
0.0
 11
84.6631134955
 21
22.9450313744
 31
0.0
  0
LINE
  5
10B
330
1F
100
AcDbEntity
  8
0
  6
Continuous
 62
     7
370
    15
100
AcDbLine
 10
84.6631134955
 20
22.9450313744
 30
0.0
 11
88.082110206
 21
22.9450313744
 31
0.0
  0
SPLINE
  5
10C
330
1F
100
AcDbEntity
  8
0
  6
Continuous
 62
     7
370
    15
100
AcDbSpline
210
0.0
220
0.0
230
1.0
 70
     8
 71
     3
 72
    23
 73
    19
 74
     0
 42
0.000000001
 43
0.00000001
 40
0.0
 40
0.0
 40
0.0
 40
0.0
 40
0.0898262950061515
 40
0.1742628314412886
 40
0.252988148933475
 40
0.3268129819474124
 40
0.3955826155972162
 40
0.4598780654270639
 40
0.5201712704386059
 40
0.5768680429987797
 40
0.6306527213768784
 40
0.6827571509391035
 40
0.7333421442870794
 40
0.7836141961374902
 40
0.8342268569875609
 40
0.8872417302287167
 40
0.9419018914766343
 40
1.0
 40
1.0
 40
1.0
 40
1.0
 10
88.08211020599778
 20
22.94503137442613
 30
0.0
 10
88.08048154357311
 20
23.06705295618102
 30
0.0
 10
88.07732194174869
 20
23.30377457908772
 30
0.0
 10
88.05449831015122
 20
23.64683264328103
 30
0.0
 10
88.0184114264774
 20
23.96681987534832
 30
0.0
 10
87.96618623726664
 20
24.26323021559376
 30
0.0
 10
87.89472632118424
 20
24.53513982573597
 30
0.0
 10
87.81558290932728
 20
24.78603353247145
 30
0.0
 10
87.71257655196717
 20
25.01014831985446
 30
0.0
 10
87.60125052242765
 20
25.214088958395
 30
0.0
 10
87.47014328127293
 20
25.39261310947725
 30
0.0
 10
87.32417856383883
 20
25.54792700865843
 30
0.0
 10
87.16183245994895
 20
25.67855728911999
 30
0.0
 10
86.98615212664687
 20
25.7868387265948
 30
0.0
 10
86.79353096600177
 20
25.86987039239425
 30
0.0
 10
86.58623558939925
 20
25.92879132432909
 30
0.0
 10
86.363201167912
 20
25.96434633505365
 30
0.0
 10
86.2099849708998
 20
25.96896659773004
 30
0.0
 10
86.13104112705042
 20
25.97134716389981
 30
0.0
  0
SPLINE
  5
10D
330
1F
100
AcDbEntity
  8
0
  6
Continuous
 62
     7
370
    15
100
AcDbSpline
210
0.0
220
0.0
230
1.0
 70
     8
 71
     3
 72
    15
 73
    11
 74
     0
 42
0.000000001
 43
0.00000001
 40
0.0
 40
0.0
 40
0.0
 40
0.0
 40
0.1372089107500942
 40
0.2661401312114128
 40
0.3907501732248885
 40
0.5105829457556171
 40
0.6301587357993987
 40
0.7499322536178191
 40
0.8722858348889875
 40
1.0
 40
1.0
 40
1.0
 40
1.0
 10
86.13104112705042
 20
25.97134716389981
 30
0.0
 10
86.04452958210888
 20
25.9693196304568
 30
0.0
 10
85.87672565599235
 20
25.96538688284145
 30
0.0
 10
85.63305276710713
 20
25.92507230837155
 30
0.0
 10
85.4064471537487
 20
25.85991404104323
 30
0.0
 10
85.19556640748468
 20
25.76819027116673
 30
0.0
 10
85.0008739653458
 20
25.65117871965485
 30
0.0
 10
84.82549367313642
 20
25.50469783779667
 30
0.0
 10
84.66425980410627
 20
25.33528606507033
 30
0.0
 10
84.57504318421074
 20
25.20515794503835
 30
0.0
 10
84.52947862705042
 20
25.13869913758402
 30
0.0
  0
SPLINE
  5
10E
330
1F
100
AcDbEntity
  8
0
  6
Continuous
 62
     7
370
    15
100
AcDbSpline
210
0.0
220
0.0
230
1.0
 70
     8
 71
     3
 72
    11
 73
     7
 74
     0
 42
0.000000001
 43
0.00000001
 40
0.0
 40
0.0
 40
0.0
 40
0.0
 40
0.2441765491234406
 40
0.4887300550664606
 40
0.7390063888351555
 40
1.0
 40
1.0
 40
1.0
 40
1.0
 10
84.52947862705042
 20
25.13869913758402
 30
0.0
 10
84.46841150827645
 20
25.03346337575612
 30
0.0
 10
84.34618299604504
 20
24.82282939039699
 30
0.0
 10
84.22499208308476
 20
24.47394279542553
 30
0.0
 10
84.14791646865991
 20
24.10456015961328
 30
0.0
 10
84.13919429115437
 20
23.85004087788607
 30
0.0
 10
84.13474178494515
 20
23.72011361126823
 30
0.0
  0
ENDSEC
  0
SECTION
  2
OBJECTS
  0
DICTIONARY
  5
C
330
0
100
AcDbDictionary
281
     1
  3
ACAD_GROUP
350
D
  3
ACAD_LAYOUT
350
1A
  3
ACAD_MLINESTYLE
350
17
  3
ACAD_PLOTSETTINGS
350
19
  3
ACAD_PLOTSTYLENAME
350
E
  3
ACAD_SCALELIST
350
47
  0
DICTIONARY
  5
D
102
{ACAD_REACTORS
330
C
102
}
330
C
100
AcDbDictionary
281
     1
  0
DICTIONARY
  5
1A
102
{ACAD_REACTORS
330
C
102
}
330
C
100
AcDbDictionary
281
     1
  3
Layout1
350
1E
  3
Layout2
350
26
  3
Model
350
22
  0
DICTIONARY
  5
17
102
{ACAD_REACTORS
330
C
102
}
330
C
100
AcDbDictionary
281
     1
  3
Standard
350
18
  0
DICTIONARY
  5
19
102
{ACAD_REACTORS
330
C
102
}
330
C
100
AcDbDictionary
281
     1
  0
ACDBDICTIONARYWDFLT
  5
E
102
{ACAD_REACTORS
330
C
102
}
330
C
100
AcDbDictionary
281
     1
  3
Normal
350
F
100
AcDbDictionaryWithDefault
340
F
  0
DICTIONARY
  5
47
102
{ACAD_REACTORS
330
C
102
}
330
C
100
AcDbDictionary
281
     1
  3
A0
350
48
  3
A1
350
49
  3
A2
350
4A
  3
A3
350
4B
  3
A4
350
4C
  3
A5
350
4D
  3
A6
350
4E
  3
A7
350
4F
  3
A8
350
50
  3
A9
350
51
  3
B0
350
52
  3
B1
350
53
  3
B2
350
54
  3
B3
350
55
  3
B4
350
56
  3
B5
350
57
  3
B6
350
58
  3
B7
350
59
  3
B8
350
5A
  3
B9
350
5B
  3
C0
350
5C
  3
C1
350
5D
  3
C2
350
5E
  3
C3
350
5F
  3
C4
350
60
  3
C5
350
61
  3
C6
350
62
  3
C7
350
63
  3
C8
350
64
  3
C9
350
65
  3
D0
350
66
  3
D1
350
67
  3
D2
350
68
  0
LAYOUT
  5
1E
102
{ACAD_REACTORS
330
1A
102
}
330
1A
100
AcDbPlotSettings
  1

  2
none_device
  4

  6

 40
0.0
 41
0.0
 42
0.0
 43
0.0
 44
0.0
 45
0.0
 46
0.0
 47
0.0
 48
0.0
 49
0.0
140
0.0
141
0.0
142
1.0
143
1.0
 70
   688
 72
     1
 73
     0
 74
     5
  7

 75
    16
147
1.0
148
0.0
149
0.0
100
AcDbLayout
  1
Layout1
 70
     1
 71
     1
 10
0.0
 20
0.0
 11
420.0
 21
297.0
 12
0.0
 22
0.0
 32
0.0
 14
1.0000000000E+20
 24
1.0000000000E+20
 34
1.0000000000E+20
 15
-1.0000000000E+20
 25
-1.0000000000E+20
 35
-1.0000000000E+20
146
0.0
 13
0.0
 23
0.0
 33
0.0
 16
1.0
 26
0.0
 36
0.0
 17
0.0
 27
1.0
 37
0.0
 76
     0
330
1B
  0
LAYOUT
  5
26
102
{ACAD_REACTORS
330
1A
102
}
330
1A
100
AcDbPlotSettings
  1

  2
none_device
  4

  6

 40
0.0
 41
0.0
 42
0.0
 43
0.0
 44
0.0
 45
0.0
 46
0.0
 47
0.0
 48
0.0
 49
0.0
140
0.0
141
0.0
142
1.0
143
1.0
 70
   688
 72
     1
 73
     0
 74
     5
  7

 75
    16
147
1.0
148
0.0
149
0.0
100
AcDbLayout
  1
Layout2
 70
     1
 71
     2
 10
0.0
 20
0.0
 11
0.0
 21
0.0
 12
0.0
 22
0.0
 32
0.0
 14
0.0
 24
0.0
 34
0.0
 15
0.0
 25
0.0
 35
0.0
146
0.0
 13
0.0
 23
0.0
 33
0.0
 16
1.0
 26
0.0
 36
0.0
 17
0.0
 27
1.0
 37
0.0
 76
     0
330
23
  0
LAYOUT
  5
22
102
{ACAD_REACTORS
330
1A
102
}
330
1A
100
AcDbPlotSettings
  1

  2
none_device
  4
ANSI_A_(11.00_x_8.50_Inches)
  6

 40
6.35
 41
19.05
 42
6.35000508
 43
19.05000254
 44
279.4
 45
215.9
 46
56.0970021022
 47
-17.97050127
 48
0.0
 49
0.0
140
0.0
141
0.0
142
0.0403406449
143
1.0
 70
  1696
 72
     0
 73
     0
 74
     0
  7

 75
     0
147
0.0179189148
148
-1300.4909072572
149
0.0
100
AcDbLayout
  1
Model
 70
     1
 71
     0
 10
0.0
 20
0.0
 11
420.0
 21
297.0
 12
0.0
 22
0.0
 32
0.0
 14
-34.9143264774
 24
0.0
 34
0.0
 15
185.7030171795
 25
208.5985494158
 35
0.0
146
0.0
 13
0.0
 23
0.0
 33
0.0
 16
1.0
 26
0.0
 36
0.0
 17
0.0
 27
1.0
 37
0.0
 76
     0
330
1F
331
29
  0
MLINESTYLE
  5
18
102
{ACAD_REACTORS
330
17
102
}
330
17
100
AcDbMlineStyle
  2
Standard
 70
     0
  3

 62
   256
 51
90.0
 52
90.0
 71
     2
 49
0.5
 62
   256
  6
BYLAYER
 49
-0.5
 62
   256
  6
BYLAYER
  0
ACDBPLACEHOLDER
  5
F
102
{ACAD_REACTORS
330
E
102
}
330
E
  0
SCALE
  5
48
102
{ACAD_REACTORS
330
47
102
}
330
47
100
AcDbScale
 70
     0
300
1:1
140
1.0
141
1.0
290
     1
  0
SCALE
  5
49
102
{ACAD_REACTORS
330
47
102
}
330
47
100
AcDbScale
 70
     0
300
1:2
140
1.0
141
2.0
290
     0
  0
SCALE
  5
4A
102
{ACAD_REACTORS
330
47
102
}
330
47
100
AcDbScale
 70
     0
300
1:4
140
1.0
141
4.0
290
     0
  0
SCALE
  5
4B
102
{ACAD_REACTORS
330
47
102
}
330
47
100
AcDbScale
 70
     0
300
1:5
140
1.0
141
5.0
290
     0
  0
SCALE
  5
4C
102
{ACAD_REACTORS
330
47
102
}
330
47
100
AcDbScale
 70
     0
300
1:8
140
1.0
141
8.0
290
     0
  0
SCALE
  5
4D
102
{ACAD_REACTORS
330
47
102
}
330
47
100
AcDbScale
 70
     0
300
1:10
140
1.0
141
10.0
290
     0
  0
SCALE
  5
4E
102
{ACAD_REACTORS
330
47
102
}
330
47
100
AcDbScale
 70
     0
300
1:16
140
1.0
141
16.0
290
     0
  0
SCALE
  5
4F
102
{ACAD_REACTORS
330
47
102
}
330
47
100
AcDbScale
 70
     0
300
1:20
140
1.0
141
20.0
290
     0
  0
SCALE
  5
50
102
{ACAD_REACTORS
330
47
102
}
330
47
100
AcDbScale
 70
     0
300
1:30
140
1.0
141
30.0
290
     0
  0
SCALE
  5
51
102
{ACAD_REACTORS
330
47
102
}
330
47
100
AcDbScale
 70
     0
300
1:40
140
1.0
141
40.0
290
     0
  0
SCALE
  5
52
102
{ACAD_REACTORS
330
47
102
}
330
47
100
AcDbScale
 70
     0
300
1:50
140
1.0
141
50.0
290
     0
  0
SCALE
  5
53
102
{ACAD_REACTORS
330
47
102
}
330
47
100
AcDbScale
 70
     0
300
1:100
140
1.0
141
100.0
290
     0
  0
SCALE
  5
54
102
{ACAD_REACTORS
330
47
102
}
330
47
100
AcDbScale
 70
     0
300
2:1
140
2.0
141
1.0
290
     0
  0
SCALE
  5
55
102
{ACAD_REACTORS
330
47
102
}
330
47
100
AcDbScale
 70
     0
300
4:1
140
4.0
141
1.0
290
     0
  0
SCALE
  5
56
102
{ACAD_REACTORS
330
47
102
}
330
47
100
AcDbScale
 70
     0
300
8:1
140
8.0
141
1.0
290
     0
  0
SCALE
  5
57
102
{ACAD_REACTORS
330
47
102
}
330
47
100
AcDbScale
 70
     0
300
10:1
140
10.0
141
1.0
290
     0
  0
SCALE
  5
58
102
{ACAD_REACTORS
330
47
102
}
330
47
100
AcDbScale
 70
     0
300
100:1
140
100.0
141
1.0
290
     0
  0
SCALE
  5
59
102
{ACAD_REACTORS
330
47
102
}
330
47
100
AcDbScale
 70
     0
300
1/128" = 1'-0"
140
0.0078125
141
12.0
290
     0
  0
SCALE
  5
5A
102
{ACAD_REACTORS
330
47
102
}
330
47
100
AcDbScale
 70
     0
300
1/64" = 1'-0"
140
0.015625
141
12.0
290
     0
  0
SCALE
  5
5B
102
{ACAD_REACTORS
330
47
102
}
330
47
100
AcDbScale
 70
     0
300
1/32" = 1'-0"
140
0.03125
141
12.0
290
     0
  0
SCALE
  5
5C
102
{ACAD_REACTORS
330
47
102
}
330
47
100
AcDbScale
 70
     0
300
1/16" = 1'-0"
140
0.0625
141
12.0
290
     0
  0
SCALE
  5
5D
102
{ACAD_REACTORS
330
47
102
}
330
47
100
AcDbScale
 70
     0
300
3/32" = 1'-0"
140
0.09375
141
12.0
290
     0
  0
SCALE
  5
5E
102
{ACAD_REACTORS
330
47
102
}
330
47
100
AcDbScale
 70
     0
300
1/8" = 1'-0"
140
0.125
141
12.0
290
     0
  0
SCALE
  5
5F
102
{ACAD_REACTORS
330
47
102
}
330
47
100
AcDbScale
 70
     0
300
3/16" = 1'-0"
140
0.1875
141
12.0
290
     0
  0
SCALE
  5
60
102
{ACAD_REACTORS
330
47
102
}
330
47
100
AcDbScale
 70
     0
300
1/4" = 1'-0"
140
0.25
141
12.0
290
     0
  0
SCALE
  5
61
102
{ACAD_REACTORS
330
47
102
}
330
47
100
AcDbScale
 70
     0
300
3/8" = 1'-0"
140
0.375
141
12.0
290
     0
  0
SCALE
  5
62
102
{ACAD_REACTORS
330
47
102
}
330
47
100
AcDbScale
 70
     0
300
1/2" = 1'-0"
140
0.5
141
12.0
290
     0
  0
SCALE
  5
63
102
{ACAD_REACTORS
330
47
102
}
330
47
100
AcDbScale
 70
     0
300
3/4" = 1'-0"
140
0.75
141
12.0
290
     0
  0
SCALE
  5
64
102
{ACAD_REACTORS
330
47
102
}
330
47
100
AcDbScale
 70
     0
300
1" = 1'-0"
140
1.0
141
12.0
290
     0
  0
SCALE
  5
65
102
{ACAD_REACTORS
330
47
102
}
330
47
100
AcDbScale
 70
     0
300
1-1/2" = 1'-0"
140
1.5
141
12.0
290
     0
  0
SCALE
  5
66
102
{ACAD_REACTORS
330
47
102
}
330
47
100
AcDbScale
 70
     0
300
3" = 1'-0"
140
3.0
141
12.0
290
     0
  0
SCALE
  5
67
102
{ACAD_REACTORS
330
47
102
}
330
47
100
AcDbScale
 70
     0
300
6" = 1'-0"
140
6.0
141
12.0
290
     0
  0
SCALE
  5
68
102
{ACAD_REACTORS
330
47
102
}
330
47
100
AcDbScale
 70
     0
300
1'-0" = 1'-0"
140
12.0
141
12.0
290
     0
  0
ENDSEC
  0
EOF
