<?xml version="1.0" encoding="UTF-8" standalone="no"?>
<!-- Created with Inkscape (http://www.inkscape.org/) -->

<svg
   xmlns:dc="http://purl.org/dc/elements/1.1/"
   xmlns:cc="http://creativecommons.org/ns#"
   xmlns:rdf="http://www.w3.org/1999/02/22-rdf-syntax-ns#"
   xmlns:svg="http://www.w3.org/2000/svg"
   xmlns="http://www.w3.org/2000/svg"
   xmlns:sodipodi="http://sodipodi.sourceforge.net/DTD/sodipodi-0.dtd"
   xmlns:inkscape="http://www.inkscape.org/namespaces/inkscape"
   width="500mm"
   height="500mm"
   viewBox="0 0 1771.6535 1771.6535"
   id="svg2"
   version="1.1"
   inkscape:version="0.91 r13725"
   sodipodi:docname="Pied luminiphore.svg">
  <defs
     id="defs4" />
  <sodipodi:namedview
     id="base"
     pagecolor="#ffffff"
     bordercolor="#666666"
     borderopacity="1.0"
     inkscape:pageopacity="0.0"
     inkscape:pageshadow="2"
     inkscape:zoom="0.42728444"
     inkscape:cx="885.82677"
     inkscape:cy="417.7545"
     inkscape:document-units="mm"
     inkscape:current-layer="layer1"
     showgrid="false"
     inkscape:window-width="1280"
     inkscape:window-height="962"
     inkscape:window-x="-8"
     inkscape:window-y="-8"
     inkscape:window-maximized="1" />
  <metadata
     id="metadata7">
    <rdf:RDF>
      <cc:Work
         rdf:about="">
        <dc:format>image/svg+xml</dc:format>
        <dc:type
           rdf:resource="http://purl.org/dc/dcmitype/StillImage" />
        <dc:title></dc:title>
      </cc:Work>
    </rdf:RDF>
  </metadata>
  <g
     inkscape:label="Layer 1"
     inkscape:groupmode="layer"
     id="layer1"
     transform="translate(0,719.29134)">
    <path
       inkscape:connector-curvature="0"
       id="rect4136"
       d="m 42.076206,799.48747 687.401594,0 c 5.88898,0 10.62992,4.7409 10.62992,10.6299 l 0,85.0394 c 0,5.889 -4.74094,10.6299 -10.62992,10.6299 l -687.401594,0 c -5.888976,0 -10.62992,-4.7409 -10.62992,-10.6299 l 0,-85.0394 c 0,-5.889 4.740944,-10.6299 10.62992,-10.6299 z"
       style="opacity:1;fill:none;fill-opacity:1;fill-rule:evenodd;stroke:#0000ff;stroke-width:0.03543307;stroke-miterlimit:4;stroke-dasharray:none;stroke-opacity:1" />
    <path
       inkscape:connector-curvature="0"
       id="path4138"
       d="m 279.44809,827.85137 a 7.0746527,7.0746522 0 0 1 -7.06548,7.0746 7.0746527,7.0746522 0 0 1 -7.0838,-7.0563 7.0746527,7.0746522 0 0 1 7.04713,-7.0929 7.0746527,7.0746522 0 0 1 7.10206,7.0379"
       style="opacity:1;fill:none;fill-opacity:1;fill-rule:evenodd;stroke:#ff0000;stroke-width:0.03543307;stroke-miterlimit:4;stroke-dasharray:none;stroke-opacity:1" />
    <path
       inkscape:connector-curvature="0"
       id="path4138-7"
       d="m 520.39296,827.85137 a 7.0746522,7.0746517 0 0 1 -7.06548,7.0746 7.0746522,7.0746517 0 0 1 -7.0838,-7.0563 7.0746522,7.0746517 0 0 1 7.04713,-7.0929 7.0746522,7.0746517 0 0 1 7.10206,7.0379"
       style="opacity:1;fill:none;fill-opacity:1;fill-rule:evenodd;stroke:#ff0000;stroke-width:0.03543307;stroke-miterlimit:4;stroke-dasharray:none;stroke-opacity:1" />
  </g>
</svg>
