<?xml version="1.0" encoding="UTF-8" standalone="no"?>
<!-- Created with Inkscape (http://www.inkscape.org/) -->

<svg
   xmlns:dc="http://purl.org/dc/elements/1.1/"
   xmlns:cc="http://creativecommons.org/ns#"
   xmlns:rdf="http://www.w3.org/1999/02/22-rdf-syntax-ns#"
   xmlns:svg="http://www.w3.org/2000/svg"
   xmlns="http://www.w3.org/2000/svg"
   xmlns:sodipodi="http://sodipodi.sourceforge.net/DTD/sodipodi-0.dtd"
   xmlns:inkscape="http://www.inkscape.org/namespaces/inkscape"
   width="610mm"
   height="304mm"
   id="svg2"
   version="1.1"
   inkscape:version="0.91 r13725"
   sodipodi:docname="popo.svg">
  <defs
     id="defs4" />
  <sodipodi:namedview
     id="base"
     pagecolor="#ffffff"
     bordercolor="#666666"
     borderopacity="1.0"
     inkscape:pageopacity="0.0"
     inkscape:pageshadow="2"
     inkscape:zoom="0.8126396"
     inkscape:cx="240.62644"
     inkscape:cy="922.52016"
     inkscape:document-units="mm"
     inkscape:current-layer="layer1"
     showgrid="true"
     units="mm"
     inkscape:window-width="1280"
     inkscape:window-height="962"
     inkscape:window-x="-8"
     inkscape:window-y="-8"
     inkscape:window-maximized="1"
     inkscape:snap-bbox="true"
     inkscape:bbox-nodes="true"
     inkscape:snap-global="false">
    <inkscape:grid
       type="xygrid"
       id="grid4142"
       empspacing="10" />
  </sodipodi:namedview>
  <metadata
     id="metadata7">
    <rdf:RDF>
      <cc:Work
         rdf:about="">
        <dc:format>image/svg+xml</dc:format>
        <dc:type
           rdf:resource="http://purl.org/dc/dcmitype/StillImage" />
        <dc:title></dc:title>
      </cc:Work>
    </rdf:RDF>
  </metadata>
  <g
     inkscape:label="Calque 1"
     inkscape:groupmode="layer"
     id="layer1"
     transform="translate(0,24.8031)">
    <path
       style="fill:none;fill-opacity:1;fill-rule:nonzero;stroke:#ff0000;stroke-width:0.03543307;stroke-miterlimit:4;stroke-dasharray:none;stroke-opacity:1"
       id="path4178"
       sodipodi:type="arc"
       sodipodi:cx="179.83853"
       sodipodi:cy="116.38535"
       sodipodi:rx="39.666752"
       sodipodi:ry="39.340446"
       sodipodi:start="6.2609953"
       sodipodi:end="6.2592219"
       sodipodi:open="true"
       d="m 219.49552,115.51246 a 39.666752,39.340446 0 0 1 -38.75927,40.20326 39.666752,39.340446 0 0 1 -40.55391,-38.4226 39.666752,39.340446 0 0 1 38.72331,-40.237332 39.666752,39.340446 0 0 1 40.58824,38.386922" />
    <path
       style="fill:none;fill-opacity:1;fill-rule:nonzero;stroke:#ff0000;stroke-width:0.03543307;stroke-miterlimit:4;stroke-dasharray:none;stroke-opacity:1"
       d="M 74.410156 3.5429688 L 74.410156 39.154297 L 3.7207031 39.154297 L 3.7207031 570.65039 L 358.05078 570.65039 L 358.05078 428.73242 L 389.75586 428.73242 L 389.75586 396.85938 L 358.05078 396.85938 L 358.05078 180.70898 L 389.76367 180.70898 L 389.76367 148.81836 L 358.05078 148.81836 L 358.05078 39.154297 L 322.44141 39.154297 L 322.44141 3.5429688 L 287.00781 3.5429688 L 287.00781 39.154297 L 109.8418 39.154297 L 109.8418 3.5429688 L 74.410156 3.5429688 z "
       transform="translate(0,-24.8031)"
       id="rect4158" />
    <rect
       style="fill:none;fill-opacity:1;fill-rule:nonzero;stroke:#ff0000;stroke-width:0.03543307;stroke-miterlimit:4;stroke-dasharray:none;stroke-opacity:1"
       id="rect4168"
       width="35.433071"
       height="35.433071"
       x="574.01575"
       y="85.039421" />
    <rect
       style="fill:none;fill-opacity:1;fill-rule:nonzero;stroke:#ff0000;stroke-width:0.03543307;stroke-miterlimit:4;stroke-dasharray:none;stroke-opacity:1"
       id="rect4170"
       width="35.433071"
       height="35.433071"
       x="467.71652"
       y="191.33864" />
    <rect
       style="fill:none;fill-opacity:1;fill-rule:nonzero;stroke:#ff0000;stroke-width:0.03543307;stroke-miterlimit:4;stroke-dasharray:none;stroke-opacity:1"
       id="rect4172"
       width="35.433071"
       height="35.433071"
       x="574.01575"
       y="333.07092" />
    <rect
       style="fill:none;fill-opacity:1;fill-rule:nonzero;stroke:#ff0000;stroke-width:0.03543307;stroke-miterlimit:4;stroke-dasharray:none;stroke-opacity:1"
       id="rect4174"
       width="35.433071"
       height="35.433071"
       x="467.71652"
       y="403.93704" />
    <rect
       style="fill:none;fill-opacity:1;fill-rule:nonzero;stroke:#ff0000;stroke-width:0.03543307;stroke-miterlimit:4;stroke-dasharray:none;stroke-opacity:1"
       id="rect4176"
       width="354.23602"
       height="531.40137"
       x="396.89774"
       y="-21.212454" />
    <path
       style="fill:none;fill-opacity:1;fill-rule:nonzero;stroke:#ff0000;stroke-width:0.03543307;stroke-miterlimit:4;stroke-dasharray:none;stroke-opacity:1"
       id="path4178-3"
       sodipodi:type="arc"
       sodipodi:cx="181.85838"
       sodipodi:cy="258.14584"
       sodipodi:rx="39.666752"
       sodipodi:ry="39.340446"
       sodipodi:start="6.2609953"
       sodipodi:end="6.2592219"
       sodipodi:open="true"
       d="m 221.51537,257.27295 a 39.666752,39.340446 0 0 1 -38.75927,40.20326 39.666752,39.340446 0 0 1 -40.55391,-38.4226 39.666752,39.340446 0 0 1 38.72331,-40.23733 39.666752,39.340446 0 0 1 40.58825,38.38692" />
    <path
       style="fill:none;fill-opacity:1;fill-rule:nonzero;stroke:#ff0000;stroke-width:0.03543307;stroke-miterlimit:4;stroke-dasharray:none;stroke-opacity:1"
       id="path4178-6"
       sodipodi:type="arc"
       sodipodi:cx="183.16359"
       sodipodi:cy="400.63058"
       sodipodi:rx="39.666752"
       sodipodi:ry="39.340446"
       sodipodi:start="6.2609953"
       sodipodi:end="6.2592219"
       sodipodi:open="true"
       d="m 222.82058,399.75769 a 39.666752,39.340446 0 0 1 -38.75928,40.20327 39.666752,39.340446 0 0 1 -40.5539,-38.42261 39.666752,39.340446 0 0 1 38.72331,-40.23733 39.666752,39.340446 0 0 1 40.58824,38.38692" />
  </g>
</svg>
