<?xml version="1.0" encoding="UTF-8" standalone="no"?>
<!-- Created with Inkscape (http://www.inkscape.org/) -->

<svg
   xmlns:dc="http://purl.org/dc/elements/1.1/"
   xmlns:cc="http://creativecommons.org/ns#"
   xmlns:rdf="http://www.w3.org/1999/02/22-rdf-syntax-ns#"
   xmlns:svg="http://www.w3.org/2000/svg"
   xmlns="http://www.w3.org/2000/svg"
   xmlns:xlink="http://www.w3.org/1999/xlink"
   xmlns:sodipodi="http://sodipodi.sourceforge.net/DTD/sodipodi-0.dtd"
   xmlns:inkscape="http://www.inkscape.org/namespaces/inkscape"
   width="2161.4172"
   height="1077.1653"
   id="svg2"
   version="1.1"
   inkscape:version="0.48.4 r9939"
   sodipodi:docname="Nouveau document 1">
  <sodipodi:namedview
     id="base"
     pagecolor="#ffffff"
     bordercolor="#666666"
     borderopacity="1.0"
     inkscape:pageopacity="0.0"
     inkscape:pageshadow="2"
     inkscape:zoom="0.49497475"
     inkscape:cx="1240.2254"
     inkscape:cy="841.98491"
     inkscape:document-units="mm"
     inkscape:current-layer="layer1"
     showgrid="false"
     units="mm"
     inkscape:showpageshadow="false"
     inkscape:window-width="1920"
     inkscape:window-height="1023"
     inkscape:window-x="0"
     inkscape:window-y="0"
     inkscape:window-maximized="1" />
  <defs
     id="defs4" />
  <metadata
     id="metadata7">
    <rdf:RDF>
      <cc:Work
         rdf:about="">
        <dc:format>image/svg+xml</dc:format>
        <dc:type
           rdf:resource="http://purl.org/dc/dcmitype/StillImage" />
        <dc:title></dc:title>
      </cc:Work>
    </rdf:RDF>
  </metadata>
  <g
     inkscape:label="Calque 1"
     inkscape:groupmode="layer"
     id="layer1"
     transform="translate(0,24.803143)">
    <g
       id="g4159"
       transform="translate(675.87071,-91.914318)"
       style="stroke-width:0.03543307;stroke-miterlimit:4;stroke-dasharray:none">
      <ellipse
         sodipodi:ry="17.702581"
         sodipodi:rx="17.702579"
         sodipodi:cy="468.36221"
         sodipodi:cx="105.01664"
         transform="translate(-547.42857,-104.5715)"
         style="fill:none;stroke:#ff0000;stroke-width:0.03543307;stroke-miterlimit:4;stroke-opacity:1;stroke-dasharray:none"
         id="path4136"
         cx="105.01664"
         cy="468.36221"
         rx="17.702579"
         ry="17.702581"
         inkscape:tile-cx="109.01664"
         inkscape:tile-cy="458.47238"
         inkscape:tile-w="35.433069"
         inkscape:tile-h="35.433073"
         inkscape:tile-x0="91.300105"
         inkscape:tile-y0="440.75585"
         d="m 122.71922,468.36221 c 0,9.77687 -7.92572,17.70258 -17.70258,17.70258 -9.776865,0 -17.70258,-7.92571 -17.70258,-17.70258 0,-9.77686 7.925715,-17.70258 17.70258,-17.70258 9.77686,0 17.70258,7.92572 17.70258,17.70258 z" />
      <use
         style="fill:none;stroke:#ff0000;stroke-width:0.04429134;stroke-miterlimit:4;stroke-opacity:1;stroke-dasharray:none"
         x="0"
         y="0"
         inkscape:tiled-clone-of="#path4136"
         xlink:href="#path4136"
         transform="matrix(0.80000003,0,0,0.80000003,-48.820951,76.301434)"
         id="use4181"
         width="744.09448"
         height="1052.3622" />
      <use
         style="fill:none;stroke:#ff0000;stroke-width:0.05905511;stroke-miterlimit:4;stroke-opacity:1;stroke-dasharray:none"
         x="0"
         y="0"
         inkscape:tiled-clone-of="#path4136"
         xlink:href="#path4136"
         transform="matrix(0.60000003,0,0,0.60000003,-105.64194,152.60288)"
         id="use4183"
         width="744.09448"
         height="1052.3622" />
      <use
         style="fill:none;stroke:#ff0000;stroke-width:0.06442376;stroke-miterlimit:4;stroke-opacity:1;stroke-dasharray:none"
         x="0"
         y="0"
         inkscape:tiled-clone-of="#path4136"
         xlink:href="#path4136"
         transform="matrix(0.55000002,0,0,0.55000002,-101.44363,171.67824)"
         id="use4185"
         width="744.09448"
         height="1052.3622" />
      <use
         style="fill:none;stroke:#ff0000;stroke-width:0.07086614;stroke-miterlimit:4;stroke-opacity:1;stroke-dasharray:none"
         x="0"
         y="0"
         inkscape:tiled-clone-of="#path4136"
         xlink:href="#path4136"
         transform="matrix(0.50000002,0,0,0.50000002,-99.245331,190.75358)"
         id="use4187"
         width="744.09448"
         height="1052.3622" />
      <use
         style="fill:none;stroke:#ff0000;stroke-width:0.07874015;stroke-miterlimit:4;stroke-opacity:1;stroke-dasharray:none"
         x="0"
         y="0"
         inkscape:tiled-clone-of="#path4136"
         xlink:href="#path4136"
         transform="matrix(0.45000002,0,0,0.45000002,-95.047031,209.82896)"
         id="use4189"
         width="744.09448"
         height="1052.3622" />
      <use
         style="fill:none;stroke:#ff0000;stroke-width:0.08858267;stroke-miterlimit:4;stroke-opacity:1;stroke-dasharray:none"
         x="0"
         y="0"
         inkscape:tiled-clone-of="#path4136"
         xlink:href="#path4136"
         transform="matrix(0.40000001,0,0,0.40000001,-88.848751,228.90433)"
         id="use4191"
         width="744.09448"
         height="1052.3622" />
      <use
         style="fill:none;stroke:#ff0000;stroke-width:0.10123734;stroke-miterlimit:4;stroke-opacity:1;stroke-dasharray:none"
         x="0"
         y="0"
         inkscape:tiled-clone-of="#path4136"
         xlink:href="#path4136"
         transform="matrix(0.35000001,0,0,0.35000001,-84.650431,247.97969)"
         id="use4193"
         width="744.09448"
         height="1052.3622" />
      <use
         style="fill:none;stroke:#ff0000;stroke-width:0.11811023;stroke-miterlimit:4;stroke-opacity:1;stroke-dasharray:none"
         x="0"
         y="0"
         inkscape:tiled-clone-of="#path4136"
         xlink:href="#path4136"
         transform="matrix(0.30000001,0,0,0.30000001,-82.452141,267.05505)"
         id="use4195"
         width="744.09448"
         height="1052.3622" />
      <use
         style="fill:none;stroke:#ff0000;stroke-width:0.14173228;stroke-miterlimit:4;stroke-opacity:1;stroke-dasharray:none"
         x="0"
         y="0"
         inkscape:tiled-clone-of="#path4136"
         xlink:href="#path4136"
         transform="matrix(0.25000001,0,0,0.25000001,-80.253841,286.13041)"
         id="use4197"
         width="744.09448"
         height="1052.3622" />
      <use
         style="fill:none;stroke:#ff0000;stroke-width:0.17716534;stroke-miterlimit:4;stroke-opacity:1;stroke-dasharray:none"
         x="0"
         y="0"
         inkscape:tiled-clone-of="#path4136"
         xlink:href="#path4136"
         transform="matrix(0.20000001,0,0,0.20000001,-82.055551,305.20578)"
         id="use4199"
         width="744.09448"
         height="1052.3622" />
      <use
         style="fill:none;stroke:#ff0000;stroke-width:0.23622045;stroke-miterlimit:4;stroke-opacity:1;stroke-dasharray:none"
         x="0"
         y="0"
         inkscape:tiled-clone-of="#path4136"
         xlink:href="#path4136"
         transform="matrix(0.15000001,0,0,0.15000001,-89.857241,324.28114)"
         id="use4201"
         width="744.09448"
         height="1052.3622" />
      <use
         style="fill:none;stroke:#ff0000;stroke-width:0.35433066;stroke-miterlimit:4;stroke-opacity:1;stroke-dasharray:none"
         x="0"
         y="0"
         inkscape:tiled-clone-of="#path4136"
         xlink:href="#path4136"
         transform="matrix(0.10000001,0,0,0.10000001,-99.658951,343.35651)"
         id="use4203"
         width="744.09448"
         height="1052.3622" />
    </g>
    <g
       id="g5190"
       transform="matrix(0,1,-1,0,1181.413,-195.19246)">
      <path
         d="m 212.59843,471.25984 35.27362,0 0,-10.62992 35.75197,0 0,10.62992 35.11417,0 0,-10.62992 35.75197,0 0,10.62992 35.11417,0 0,-10.62992 35.75197,0 0,10.62992 35.11417,0 0,-10.62992 35.75197,0 0,10.62992 35.11417,0 0,-10.62992 35.75197,0 0,10.62992 35.27362,0"
         style="fill:none;stroke:#0000ff;stroke-width:0.03543307;stroke-miterlimit:4;stroke-opacity:1;stroke-dasharray:none"
         inkscape:label="part"
         id="path4305"
         inkscape:connector-curvature="0" />
      <path
         d="m 602.3622,471.25984 0,42.67914 -10.62992,0 0,35.11417 10.62992,0 0,42.67913"
         style="fill:none;stroke:#0000ff;stroke-width:0.03543307;stroke-miterlimit:4;stroke-opacity:1;stroke-dasharray:none"
         inkscape:label="part"
         id="path4307"
         inkscape:connector-curvature="0" />
      <path
         d="m 602.3622,591.73228 -35.27362,0 0,10.62992 -35.75197,0 0,-10.62992 -35.11417,0 0,10.62992 -35.75197,0 0,-10.62992 -35.11417,0 0,10.62992 -35.75197,0 0,-10.62992 -35.11417,0 0,10.62992 -35.75197,0 0,-10.62992 -35.11417,0 0,10.62992 -35.75197,0 0,-10.62992 -35.27362,0"
         style="fill:none;stroke:#0000ff;stroke-width:0.03543307;stroke-miterlimit:4;stroke-opacity:1;stroke-dasharray:none"
         inkscape:label="part"
         id="path4309"
         inkscape:connector-curvature="0" />
      <path
         d="m 212.59843,591.73228 0,-42.67913 10.62992,0 0,-35.11417 -10.62992,0 0,-42.67914"
         style="fill:none;stroke:#0000ff;stroke-width:0.03543307;stroke-miterlimit:4;stroke-opacity:1;stroke-dasharray:none"
         inkscape:label="part"
         id="path4311"
         inkscape:connector-curvature="0" />
    </g>
    <g
       id="g5178"
       transform="translate(-10.101525,-202.03051)">
      <path
         d="m 46.062992,223.22835 42.360236,0 0,-10.62992 35.751972,0 0,10.62992 42.36023,0"
         style="fill:none;stroke:#0000ff;stroke-width:0.03543307;stroke-miterlimit:4;stroke-opacity:1;stroke-dasharray:none"
         inkscape:label="part"
         id="path4313"
         inkscape:connector-curvature="0" />
      <path
         d="m 166.53543,223.22835 0,36.45472 10.62992,0 0,35.75197 -10.62992,0 0,46.9252 10.62992,0 0,35.75196 -10.62992,0 0,36.45473"
         style="fill:none;stroke:#0000ff;stroke-width:0.03543307;stroke-miterlimit:4;stroke-opacity:1;stroke-dasharray:none"
         inkscape:label="part"
         id="path4315"
         inkscape:connector-curvature="0" />
      <path
         d="m 166.53543,414.56693 -42.36023,0 0,10.62992 -35.751972,0 0,-10.62992 -42.360236,0"
         style="fill:none;stroke:#0000ff;stroke-width:0.03543307;stroke-miterlimit:4;stroke-opacity:1;stroke-dasharray:none"
         inkscape:label="part"
         id="path4317"
         inkscape:connector-curvature="0" />
      <path
         d="m 46.062992,414.56693 0,-36.45473 -10.629921,0 0,-35.75196 10.629921,0 0,-46.9252 -10.629921,0 0,-35.75197 10.629921,0 0,-36.45472"
         style="fill:none;stroke:#0000ff;stroke-width:0.03543307;stroke-miterlimit:4;stroke-opacity:1;stroke-dasharray:none"
         inkscape:label="part"
         id="path4319"
         inkscape:connector-curvature="0" />
    </g>
    <g
       id="g4404"
       transform="translate(-32.763049,-47.016367)"
       style="fill:none;stroke:#0000ff;stroke-width:0.03543307;stroke-miterlimit:4;stroke-opacity:1;stroke-dasharray:none">
      <path
         d="m 212.59843,212.59843 35.59251,0 0,10.62992 35.11418,0 0,-10.62992 35.75197,0 0,10.62992 35.11417,0 0,-10.62992 35.75197,0 0,10.62992 35.11417,0 0,-10.62992 35.75197,0 0,10.62992 35.11417,0 0,-10.62992 35.75197,0 0,10.62992 35.11418,0 0,-10.62992 35.59251,0"
         style="fill:none;stroke:#0000ff;stroke-width:0.03543307;stroke-miterlimit:4;stroke-opacity:1;stroke-dasharray:none"
         inkscape:label="part"
         id="path4321"
         inkscape:connector-curvature="0" />
      <path
         d="m 602.3622,212.59843 0,47.40354 -10.62992,0 0,35.11417 10.62992,0 0,47.56299 -10.62992,0 0,35.11418 10.62992,0 0,47.40354"
         style="fill:none;stroke:#0000ff;stroke-width:0.03543307;stroke-miterlimit:4;stroke-opacity:1;stroke-dasharray:none"
         inkscape:label="part"
         id="path4323"
         inkscape:connector-curvature="0" />
      <path
         d="m 602.3622,425.19685 -35.59251,0 0,-10.62992 -35.11418,0 0,10.62992 -35.75197,0 0,-10.62992 -35.11417,0 0,10.62992 -35.75197,0 0,-10.62992 -35.11417,0 0,10.62992 -35.75197,0 0,-10.62992 -35.11417,0 0,10.62992 -35.75197,0 0,-10.62992 -35.11418,0 0,10.62992 -35.59251,0"
         style="fill:none;stroke:#0000ff;stroke-width:0.03543307;stroke-miterlimit:4;stroke-opacity:1;stroke-dasharray:none"
         inkscape:label="part"
         id="path4325"
         inkscape:connector-curvature="0" />
      <path
         d="m 212.59843,425.19685 0,-47.40354 10.62992,0 0,-35.11418 -10.62992,0 0,-47.56299 10.62992,0 0,-35.11417 -10.62992,0 0,-47.40354"
         style="fill:none;stroke:#0000ff;stroke-width:0.03543307;stroke-miterlimit:4;stroke-opacity:1;stroke-dasharray:none"
         inkscape:label="part"
         id="path4327"
         inkscape:connector-curvature="0" />
    </g>
    <g
       id="g5184"
       transform="translate(-610.13214,22.223356)">
      <path
         d="m 648.4252,223.22835 42.36023,0 0,-10.62992 35.75197,0 0,10.62992 42.36024,0"
         style="fill:none;stroke:#0000ff;stroke-width:0.03543307;stroke-miterlimit:4;stroke-opacity:1;stroke-dasharray:none"
         inkscape:label="part"
         id="path4329"
         inkscape:connector-curvature="0" />
      <path
         d="m 768.89764,223.22835 0,36.45472 10.62992,0 0,35.75197 -10.62992,0 0,46.9252 10.62992,0 0,35.75196 -10.62992,0 0,36.45473"
         style="fill:none;stroke:#0000ff;stroke-width:0.03543307;stroke-miterlimit:4;stroke-opacity:1;stroke-dasharray:none"
         inkscape:label="part"
         id="path4331"
         inkscape:connector-curvature="0" />
      <path
         d="m 768.89764,414.56693 -42.36024,0 0,10.62992 -35.75197,0 0,-10.62992 -42.36023,0"
         style="fill:none;stroke:#0000ff;stroke-width:0.03543307;stroke-miterlimit:4;stroke-opacity:1;stroke-dasharray:none"
         inkscape:label="part"
         id="path4333"
         inkscape:connector-curvature="0" />
      <path
         d="m 648.4252,414.56693 0,-36.45473 -10.62992,0 0,-35.75196 10.62992,0 0,-46.9252 -10.62992,0 0,-35.75197 10.62992,0 0,-36.45472"
         style="fill:none;stroke:#000000;stroke-width:0.03543307;stroke-miterlimit:4;stroke-dasharray:none"
         inkscape:label="part"
         id="path4335"
         inkscape:connector-curvature="0" />
    </g>
    <g
       id="g5196"
       transform="translate(-638.41641,175.76654)">
      <path
         d="m 814.96063,212.59843 35.59252,0 0,10.62992 35.11417,0 0,-10.62992 35.75197,0 0,10.62992 35.11417,0 0,-10.62992 35.75197,0 0,10.62992 35.11417,0 0,-10.62992 35.752,0 0,10.62992 35.1141,0 0,-10.62992 35.752,0 0,10.62992 35.1142,0 0,-10.62992 35.5925,0"
         style="fill:none;stroke:#0000ff;stroke-width:0.03543307;stroke-miterlimit:4;stroke-opacity:1;stroke-dasharray:none"
         inkscape:label="part"
         id="path4337"
         inkscape:connector-curvature="0" />
      <path
         d="m 1204.7244,212.59843 0,47.40354 -10.6299,0 0,35.11417 10.6299,0 0,47.56299 -10.6299,0 0,35.11418 10.6299,0 0,47.40354"
         style="fill:none;stroke:#0000ff;stroke-width:0.03543307;stroke-miterlimit:4;stroke-opacity:1;stroke-dasharray:none"
         inkscape:label="part"
         id="path4339"
         inkscape:connector-curvature="0" />
      <path
         d="m 1204.7244,425.19685 -35.5925,0 0,-10.62992 -35.1142,0 0,10.62992 -35.752,0 0,-10.62992 -35.1141,0 0,10.62992 -35.752,0 0,-10.62992 -35.11417,0 0,10.62992 -35.75197,0 0,-10.62992 -35.11417,0 0,10.62992 -35.75197,0 0,-10.62992 -35.11417,0 0,10.62992 -35.59252,0"
         style="fill:none;stroke:#0000ff;stroke-width:0.03543307;stroke-miterlimit:4;stroke-opacity:1;stroke-dasharray:none"
         inkscape:label="part"
         id="path4341"
         inkscape:connector-curvature="0" />
      <path
         d="m 814.96063,425.19685 0,-47.40354 10.62992,0 0,-35.11418 -10.62992,0 0,-47.56299 10.62992,0 0,-35.11417 -10.62992,0 0,-47.40354"
         style="fill:none;stroke:#0000ff;stroke-width:0.03543307;stroke-miterlimit:4;stroke-opacity:1;stroke-dasharray:none"
         inkscape:label="part"
         id="path4343"
         inkscape:connector-curvature="0" />
    </g>
    <g
       id="g5202"
       transform="translate(-32,-22)">
      <path
         d="m 212.59843,46.062992 35.27362,0 0,-10.629921 35.75197,0 0,10.629921 35.11417,0 0,-10.629921 35.75197,0 0,10.629921 35.11417,0 0,-10.629921 35.75197,0 0,10.629921 35.11417,0 0,-10.629921 35.75197,0 0,10.629921 35.11417,0 0,-10.629921 35.75197,0 0,10.629921 35.27362,0"
         style="fill:none;stroke:#0000ff;stroke-width:0.03543307;stroke-miterlimit:4;stroke-opacity:1;stroke-dasharray:none"
         inkscape:label="part"
         id="path4345"
         inkscape:connector-curvature="0" />
      <path
         d="m 602.3622,46.062992 0,42.679134 -10.62992,0 0,35.114174 10.62992,0 0,42.67913"
         style="fill:none;stroke:#0000ff;stroke-width:0.03543307;stroke-miterlimit:4;stroke-opacity:1;stroke-dasharray:none"
         inkscape:label="part"
         id="path4347"
         inkscape:connector-curvature="0" />
      <path
         d="m 602.3622,166.53543 -35.27362,0 0,10.62992 -35.75197,0 0,-10.62992 -35.11417,0 0,10.62992 -35.75197,0 0,-10.62992 -35.11417,0 0,10.62992 -35.75197,0 0,-10.62992 -35.11417,0 0,10.62992 -35.75197,0 0,-10.62992 -35.11417,0 0,10.62992 -35.75197,0 0,-10.62992 -35.27362,0"
         style="fill:none;stroke:#0000ff;stroke-width:0.03543307;stroke-miterlimit:4;stroke-opacity:1;stroke-dasharray:none"
         inkscape:label="part"
         id="path4349"
         inkscape:connector-curvature="0" />
      <path
         d="m 212.59843,166.53543 0,-42.67913 10.62992,0 0,-35.114174 -10.62992,0 0,-42.679134"
         style="fill:none;stroke:#0000ff;stroke-width:0.03543307;stroke-miterlimit:4;stroke-opacity:1;stroke-dasharray:none"
         inkscape:label="part"
         id="path4351"
         inkscape:connector-curvature="0" />
    </g>
  </g>
  <g
     inkscape:label="newlayer"
     inkscape:groupmode="layer"
     id="g3038" />
  <g
     id="g3122"
     inkscape:groupmode="layer"
     inkscape:label="newlayer" />
  <g
     inkscape:label="newlayer"
     inkscape:groupmode="layer"
     id="g3208" />
  <g
     id="g4356"
     inkscape:groupmode="layer"
     inkscape:label="newlayer" />
</svg>
