<?xml version="1.0" encoding="UTF-8" standalone="no"?>
<svg width="1066px" height="705px" viewBox="0 0 1066 705" version="1.1" xmlns="http://www.w3.org/2000/svg" xmlns:xlink="http://www.w3.org/1999/xlink" xmlns:sketch="http://www.bohemiancoding.com/sketch/ns">
    <title>RaspberryPi</title>
    <description>Created with Sketch (http://www.bohemiancoding.com/sketch)</description>
    <defs>
        <path id="path-1" d="M9.94818653,13.9242252 L9.94818653,219.720238"></path>
        <path id="path-2" d="M9.94818653,13.9242252 L9.94818653,219.720238"></path>
        <rect id="path-3" x="0" y="0" width="351.502591" height="55.746988"></rect>
        <circle id="path-4" cx="33.5" cy="28.5" r="7.5"></circle>
        <circle id="path-5" cx="59.5" cy="28.5" r="7.5"></circle>
        <circle id="path-6" cx="85.5" cy="28.5" r="7.5"></circle>
        <circle id="path-7" cx="111.5" cy="28.5" r="7.5"></circle>
        <circle id="path-8" cx="137.5" cy="28.5" r="7.5"></circle>
        <circle id="path-9" cx="163.5" cy="28.5" r="7.5"></circle>
        <circle id="path-10" cx="189.5" cy="28.5" r="7.5"></circle>
        <circle id="path-11" cx="215.5" cy="28.5" r="7.5"></circle>
        <circle id="path-12" cx="241.5" cy="28.5" r="7.5"></circle>
        <circle id="path-13" cx="267.5" cy="28.5" r="7.5"></circle>
        <circle id="path-14" cx="293.5" cy="28.5" r="7.5"></circle>
        <circle id="path-15" cx="322.5" cy="28.5" r="7.5"></circle>
        <circle id="path-16" cx="7.5" cy="28.5" r="7.5"></circle>
        <circle id="path-17" cx="33.5" cy="7.5" r="7.5"></circle>
        <circle id="path-18" cx="59.5" cy="7.5" r="7.5"></circle>
        <circle id="path-19" cx="85.5" cy="7.5" r="7.5"></circle>
        <circle id="path-20" cx="111.5" cy="7.5" r="7.5"></circle>
        <circle id="path-21" cx="137.5" cy="7.5" r="7.5"></circle>
        <circle id="path-22" cx="163.5" cy="7.5" r="7.5"></circle>
        <circle id="path-23" cx="189.5" cy="7.5" r="7.5"></circle>
        <circle id="path-24" cx="215.5" cy="7.5" r="7.5"></circle>
        <path d="M241.5,15 C245.642136,15 249,11.6421358 249,7.5 C249,3.35786417 245.642136,0 241.5,0 C237.357864,0 234,3.35786417 234,7.5 C234,11.6421358 237.357864,15 241.5,15 Z M7.5,15 C11.6421358,15 15,11.6421358 15,7.5 C15,3.35786417 11.6421358,0 7.5,0 C3.35786417,0 0,3.35786417 0,7.5 C0,11.6421358 3.35786417,15 7.5,15 Z M7.5,15" id="path-25"></path>
        <circle id="path-26" cx="267.5" cy="7.5" r="7.5"></circle>
        <circle id="path-27" cx="293.5" cy="7.5" r="7.5"></circle>
        <circle id="path-28" cx="322.5" cy="7.5" r="7.5"></circle>
    </defs>
    <g id="Page-1" stroke="none" stroke-width="1" fill="none" fill-rule="evenodd" sketch:type="MSPage">
        <g id="Raspberry-Pi-model-B" sketch:type="MSLayerGroup" transform="translate(20.000000, 20.000000)">
            <g id="BOARD" transform="translate(11.937824, 55.746988)">
                <path d="M0,0 L0,593.307229 L890.031088,593.307229 L890.031088,0 L0,0 Z M263.295337,431.375502 C277.58034,431.375502 289.160622,420.678884 289.160622,407.483936 C289.160622,394.288987 277.58034,383.592369 263.295337,383.592369 C249.010334,383.592369 237.430052,394.288987 237.430052,407.483936 C237.430052,420.678884 249.010334,431.375502 263.295337,431.375502 Z M832.331606,161.931727 C846.616609,161.931727 858.196891,151.235109 858.196891,138.040161 C858.196891,124.845212 846.616609,114.148594 832.331606,114.148594 C818.046603,114.148594 806.466321,124.845212 806.466321,138.040161 C806.466321,151.235109 818.046603,161.931727 832.331606,161.931727 Z M832.331606,161.931727" id="Base-Board" stroke="#DADB9D" fill="#6ECC6A" sketch:type="MSShapeGroup"></path>
                <g id="Chips" transform="translate(91.523316, 62.710843)" sketch:type="MSShapeGroup" fill="#85D27B">
                    <rect d="M538.528497,147.004016 L538.528497,237.261044 L630.051813,237.261044 L630.051813,147.004016 L538.528497,147.004016 Z M538.528497,147.004016" id="Chip" x="538.528497" y="147.004016" width="91.5233161" height="90.2570281"></rect>
                    <rect d="M99.4818653,400.52008 L99.4818653,472.194779 L159.170984,472.194779 L159.170984,400.52008 L99.4818653,400.52008 Z M99.4818653,400.52008" id="Chip" x="99.4818653" y="400.52008" width="59.6891192" height="71.6746988"></rect>
                    <rect d="M91.5233161,40.8192771 L91.5233161,72.6746988 L159.170984,72.6746988 L159.170984,40.8192771 L91.5233161,40.8192771 Z M91.5233161,40.8192771" id="Chip" x="91.5233161" y="40.8192771" width="67.6476684" height="31.8554217"></rect>
                    <ellipse d="M37.8031088,488.12249 C58.6811903,488.12249 75.6062176,472.077563 75.6062176,452.285141 C75.6062176,432.492718 58.6811903,416.447791 37.8031088,416.447791 C16.9250273,416.447791 0,432.492718 0,452.285141 C0,472.077563 16.9250273,488.12249 37.8031088,488.12249 Z M37.8031088,488.12249" id="Oval-12" cx="37.8031088" cy="452.285141" rx="37.8031088" ry="35.8373494"></ellipse>
                    <rect d="M664.53886,56.746988 L664.53886,88.6024096 L692.393782,88.6024096 L692.393782,56.746988 L664.53886,56.746988 Z M664.53886,56.746988" id="Rectangle-106" x="664.53886" y="56.746988" width="27.8549223" height="31.8554217"></rect>
                    <rect d="M229.471503,40.8192771 L229.471503,56.746988 L257.326425,56.746988 L257.326425,40.8192771 L229.471503,40.8192771 Z M229.471503,40.8192771" id="Rectangle-107" x="229.471503" y="40.8192771" width="27.8549223" height="15.9277108"></rect>
                    <rect d="M181.720207,28.873494 L181.720207,60.7289157 L209.57513,60.7289157 L209.57513,28.873494 L181.720207,28.873494 Z M181.720207,28.873494" id="Rectangle-108" x="181.720207" y="28.873494" width="27.8549223" height="31.8554217"></rect>
                    <rect d="M181.720207,408.483936 L181.720207,448.303213 L213.554404,448.303213 L213.554404,408.483936 L181.720207,408.483936 Z M181.720207,408.483936" id="Rectangle-109" x="181.720207" y="408.483936" width="31.8341969" height="39.8192771"></rect>
                    <rect d="M332.932642,107.184739 L332.932642,123.11245 L368.746114,123.11245 L368.746114,107.184739 L332.932642,107.184739 Z M332.932642,107.184739" id="Rectangle-110" x="332.932642" y="107.184739" width="35.8134715" height="15.9277108"></rect>
                    <rect d="M332.932642,131.076305 L332.932642,147.004016 L368.746114,147.004016 L368.746114,131.076305 L332.932642,131.076305 Z M332.932642,131.076305" id="Rectangle-111" x="332.932642" y="131.076305" width="35.8134715" height="15.9277108"></rect>
                    <rect d="M395.274611,380.610442 L395.274611,388.574297 L423.129534,388.574297 L423.129534,380.610442 L395.274611,380.610442 Z M395.274611,380.610442" id="Rectangle-112" x="395.274611" y="380.610442" width="27.8549223" height="7.96385542"></rect>
                    <rect d="M273.243523,24.8915663 L273.243523,64.7108434 L289.160622,64.7108434 L289.160622,24.8915663 L273.243523,24.8915663 Z M273.243523,24.8915663" id="Rectangle-114" x="273.243523" y="24.8915663" width="15.9170984" height="39.8192771"></rect>
                    <rect d="M470.880829,1 L470.880829,28.873494 L494.756477,28.873494 L494.756477,1 L470.880829,1 Z M470.880829,1" id="Rectangle-115" x="470.880829" y="1" width="23.8756477" height="27.873494"></rect>
                    <rect d="M359.46114,380.610442 L359.46114,388.574297 L387.316062,388.574297 L387.316062,380.610442 L359.46114,380.610442 Z M359.46114,380.610442" id="Rectangle-112" x="359.46114" y="380.610442" width="27.8549223" height="7.96385542"></rect>
                    <rect d="M261.305699,166.913655 L261.305699,296.98996 L387.316062,296.98996 L387.316062,166.913655 L261.305699,166.913655 Z M261.305699,166.913655" id="CPU" x="261.305699" y="166.913655" width="126.010363" height="130.076305"></rect>
                    <rect d="M241.409326,404.502008 L241.409326,416.447791 L269.264249,416.447791 L269.264249,404.502008 L241.409326,404.502008 Z M241.409326,404.502008" id="Rectangle-153" x="241.409326" y="404.502008" width="27.8549223" height="11.9457831"></rect>
                    <rect d="M249.367876,454.939759 L249.367876,462.903614 L265.284974,462.903614 L265.284974,454.939759 L249.367876,454.939759 Z M249.367876,454.939759" id="Rectangle-154" x="249.367876" y="454.939759" width="15.9170984" height="7.96385542"></rect>
                    <rect d="M213.554404,482.813253 L213.554404,498.740964 L241.409326,498.740964 L241.409326,482.813253 L213.554404,482.813253 Z M213.554404,482.813253" id="Rectangle-155" x="213.554404" y="482.813253" width="27.8549223" height="15.9277108"></rect>
                </g>
                <g id="Logo" transform="translate(153.865285, 181.841365)">
                    <g id="Raspberry_Pi_Logo" transform="translate(39.792746, 0.000000)" sketch:type="MSShapeGroup">
                        <path d="M27.6474693,0.00200683467 C26.9879097,0.0230448064 26.2775797,0.273466347 25.4719596,0.926819738 C23.4983651,0.144582548 21.5849079,-0.12715792 19.8737304,1.46533712 C17.2313371,1.11305599 16.3726503,1.83998234 15.7220749,2.68865622 C15.142024,2.67629416 11.3814427,2.07579792 9.65696215,4.71977948 C5.32325486,4.19270637 3.95358394,7.33978614 5.50548888,10.2744633 C4.62039646,11.6828012 3.70328551,13.0740944 5.77315421,15.7589082 C5.04093791,17.2542487 5.49480997,18.876394 7.21963677,20.8395259 C6.7644344,22.9416374 7.65920345,24.4247095 9.26412026,25.5805617 C8.96396261,28.4571747 11.8307042,30.129611 12.6866574,30.725612 C13.0153529,32.4017382 13.7004071,33.9833883 16.9748062,34.8579102 C17.5148021,37.3557947 19.4827108,37.7871555 21.388332,38.3114191 C15.0899597,42.074354 9.68872554,47.0253575 9.72535458,59.1733251 L8.80279484,60.8649039 C1.58086052,65.3789274 -4.91669355,79.8874859 5.24376438,91.6801381 C5.90744246,95.371523 7.0204732,98.0229967 8.01153471,100.957487 C9.4937898,112.782168 19.1675371,118.319058 21.7189957,118.973872 C25.4578911,121.901057 29.4398867,124.678586 34.8285468,126.624112 C39.9083201,132.008911 45.4116054,134.0612 50.9449592,134.057828 C51.0260807,134.057776 51.108702,134.058765 51.1898453,134.057828 C56.7231992,134.061368 62.2263022,132.009098 67.3062578,126.624112 C72.6947356,124.678586 76.6769135,121.901057 80.4158089,118.973872 C82.9672675,118.319076 92.6409783,112.782168 94.1232699,100.957487 C95.1142402,98.0229967 96.2273439,95.371523 96.8910402,91.6801381 C107.051316,79.8865494 100.553944,65.3770544 93.3318275,60.8630309 L92.407901,59.1716769 C92.4444699,47.0246457 87.0432958,42.0736423 80.7449236,38.3097708 C82.6505447,37.7856196 84.6184899,37.3542588 85.1584494,34.8562619 C88.4328303,33.9815902 89.1180302,32.3999588 89.4465981,30.7239637 C90.3026971,30.1280939 93.1692747,28.4555264 92.8691353,25.5789134 C94.4740157,24.4229488 95.3688394,22.9398018 94.9136188,20.8378777 C96.6384456,18.8747457 97.0924088,17.2526941 96.3601014,15.7572599 C98.4302799,13.07357 97.5118204,11.6822767 96.6279854,10.2739389 C98.1787969,7.33926169 96.8102194,4.19218192 92.474872,4.71925503 C90.7509382,2.07527347 86.9914503,2.67576971 86.4101237,2.68813177 C85.7595483,1.83945789 84.901226,1.11253153 82.2588327,1.46481267 C80.5476552,-0.127682371 78.634198,0.144058097 76.6606035,0.926314018 C74.317074,-0.974445748 72.7662625,0.549215118 70.9949478,1.12530566 C68.157564,0.172359713 67.5088109,1.47762426 66.1147206,2.0091552 C63.0203869,1.33709016 62.0800594,2.80032679 60.5966744,4.34464727 L58.8711369,4.3095278 C54.2039414,7.13650524 51.8853779,12.8929154 51.0635025,15.8521294 C50.2412443,12.8923535 47.9279839,7.13594333 43.2616995,4.3095278 L41.536162,4.34464727 C40.0509547,2.80032679 39.1106272,1.33710889 36.0162934,2.0091552 C34.6222032,1.47762426 33.9752724,0.172359713 31.1360663,1.12530566 C29.9734679,0.747232779 28.9042463,-0.0386755679 27.6451914,0.00148238381 C27.6451914,0.00148238381 28.9042463,-0.0386755679 27.6451914,0.00148238381 L27.6474693,0.00200683467 L27.6474693,0.00200683467 Z M27.6474693,0.00200683467" id="Shape" fill="#000000"></path>
                        <path d="M18.1911241,13.1738209 C30.4000809,19.8452226 37.4978352,25.2419907 41.3861296,29.8383277 C39.394906,38.297416 29.0068353,38.6834435 25.2083814,38.4461518 C25.9861121,38.0624667 26.6350297,37.6029092 26.865129,36.8967663 C25.9120118,36.1788351 22.5324838,36.8211244 20.1730941,35.4162259 C21.0794225,35.2172132 21.5033615,35.0233424 21.9273006,34.3144381 C19.6981796,33.5609131 17.2971039,32.9115603 15.8849918,31.6632839 C16.6470723,31.6732631 17.3585907,31.843976 18.3538072,31.11239 C16.3571932,29.9719804 14.2267169,29.068177 12.5714966,27.325054 C13.6037992,27.2982721 14.7167067,27.3142369 15.040312,26.9118884 C13.2129574,25.7119654 11.6711157,24.3774756 10.3948423,22.917922 C11.8394767,23.1027505 12.4494933,22.9435899 12.7987929,22.6768976 C11.4174422,21.1773129 9.66911125,19.9110968 8.83557163,18.0632303 C9.90819464,18.4550663 10.8895038,18.6050591 11.5969075,18.0287982 C11.1275091,16.9064236 9.11641285,16.2444254 7.95854922,13.6215709 C9.08773578,13.737623 10.2854167,13.8826871 10.5249313,13.6215709 C10.0008022,11.3583487 9.10149934,10.0860004 8.21944587,8.76775529 C10.6361538,8.72966673 14.2976909,8.77765831 14.1318454,8.56112485 L12.6375293,6.94287524 C14.9981768,6.26924097 17.4136269,7.05107722 19.1671327,7.63149736 C19.9544764,6.97300329 19.1531895,6.14033023 18.1925795,5.29019357 C20.1987166,5.57406761 22.0115171,6.06289619 23.6500271,6.73630193 C24.5255042,5.89848692 23.0815347,5.06065287 22.3830971,4.22283785 C25.4824127,4.84608096 26.7955206,5.721756 28.1005429,6.59861179 C29.0473534,5.63672329 28.1547454,4.81924757 27.5158074,3.98192771 C29.852737,4.89929068 31.0564192,6.08365446 32.3237085,7.25278281 C32.7533615,6.63820485 33.4152519,6.18775049 32.6160853,4.70484858 C34.2752945,5.71851848 35.5249391,6.91303285 36.4493973,8.25127441 C37.4759861,7.55846255 37.061013,6.61099057 37.0666191,5.73781033 C38.7909447,7.22450205 39.8852731,8.80660562 41.2247941,10.3514776 C41.4946209,10.1432475 41.7308833,9.43702842 41.9394749,8.32002426 C46.0532687,12.5501397 51.8661251,23.2046527 43.433791,27.4290549 C36.2573364,21.155869 27.6865581,16.596097 18.1886265,13.1755539 C18.1886265,13.1755539 27.6865581,16.596097 18.1886265,13.1755539 L18.1911241,13.1738209 L18.1911241,13.1738209 Z M18.1911241,13.1738209" id="Shape" fill="#75A928"></path>
                        <path d="M83.941563,13.1744915 C71.7337681,19.8462878 64.6362129,25.2413895 60.7478307,29.8385569 C62.7390992,38.2974211 73.1274045,38.6834385 76.9259442,38.446153 C76.1481959,38.0624781 75.4992637,37.6029327 75.2691592,36.8968086 C76.2222979,36.1788963 79.6019022,36.8211686 81.9613451,35.4163074 C81.0549963,35.2172999 80.6310477,35.0234343 80.207099,34.3145488 C82.4362704,33.5610437 84.8374003,32.9117081 86.2495443,31.6634648 C85.4874465,31.6734437 84.7759121,31.8441521 83.7806732,31.1125855 C85.7773322,29.9722061 87.9078566,29.0684266 89.5631143,27.3253498 C88.5307883,27.2985686 87.4178558,27.314533 87.0942432,26.9121951 C88.921639,25.712304 90.4635155,24.3778495 91.7398177,22.9183345 C90.2951507,23.1031582 89.6851204,22.9440017 89.3358128,22.6773165 C90.7171947,21.1777715 92.4655652,19.9115889 93.2991236,18.0637714 C92.2264764,18.4555971 91.245145,18.6055859 90.5377254,18.0293403 C91.0071344,16.9069953 93.018276,16.2450147 94.1761658,13.6222297 C93.0469538,13.7382787 91.8492458,13.8833389 91.6097258,13.6222297 C92.1348191,11.3581152 93.0341782,10.0858006 93.9161617,8.76759043 C91.4993992,8.7295543 87.8377795,8.77755985 88.0036287,8.56100355 L89.4979785,6.94279681 C87.1372777,6.26918038 84.721773,7.05099593 82.9682277,7.63140069 C82.1808662,6.97292406 82.9821712,6.14027306 83.9428029,5.29015892 C81.9366205,5.57402544 80.1237791,6.06284107 78.4852321,6.73622898 C77.6097352,5.89843616 79.0537373,5.06062429 79.7521907,4.22283147 C76.6528051,4.84605807 75.3396675,5.72170992 74.0346158,6.59854248 C73.087784,5.63667946 73.980412,4.81922539 74.6193645,3.98192771 C72.2823821,4.89926638 71.0786727,6.08359879 69.8113548,7.25269617 C69.3816922,6.63813449 68.7197868,6.18769206 69.5189715,4.70482943 C67.8597248,5.71847248 66.6100519,6.91295521 65.6855729,8.25116132 C64.658961,7.55836781 65.0739433,6.61092093 65.0683372,5.73776382 C63.3439727,7.22441616 62.2496195,8.80647782 60.9100682,10.3513089 C60.6402354,10.1430843 60.4039676,9.43688392 60.1953714,8.31990935 C56.0814846,12.5499128 50.2684971,23.2041435 58.7010216,27.4284338 C65.8738648,21.154081 74.4442975,16.5948107 83.9431622,13.1743582 C83.9431622,13.1743582 74.4442975,16.5948107 83.9431622,13.1743582 L83.941563,13.1744915 L83.941563,13.1744915 Z M83.941563,13.1744915" id="Shape" fill="#75A928"></path>
                        <path d="M66.3210399,97.5572289 C66.3486183,102.52758 63.5737377,107.131627 59.0481008,109.624398 C54.5224639,112.117169 48.938676,112.117169 44.4130391,109.624398 C39.8874022,107.131627 37.1125215,102.52758 37.1401,97.5572289 C37.1125215,92.5868778 39.8874022,87.9828308 44.4130391,85.49006 C48.938676,82.9972892 54.5224639,82.9972892 59.0481008,85.49006 C63.5737377,87.9828308 66.3486183,92.5868778 66.3210399,97.5572289 C66.3210399,97.5572289 66.3486183,92.5868778 66.3210399,97.5572289 L66.3210399,97.5572289 L66.3210399,97.5572289 Z M66.3210399,97.5572289" id="Shape" fill="#BC1142"></path>
                        <path d="M50.4041451,71.0110442 C50.4041452,75.9901643 47.3703634,80.591061 42.445596,83.0806211 C37.5208285,85.5701812 31.4532648,85.5701812 26.5284973,83.0806211 C21.6037299,80.591061 18.5699481,75.9901643 18.5699482,71.0110442 C18.569948,66.0319241 21.6037298,61.4310274 26.5284973,58.9414673 C31.4532647,56.4519072 37.5208285,56.4519072 42.445596,58.9414673 C47.3703635,61.4310274 50.4041452,66.0319241 50.4041451,71.0110442 C50.4041451,71.0110442 50.4041452,66.0319241 50.4041451,71.0110442 L50.4041451,71.0110442 L50.4041451,71.0110442 Z M50.4041451,71.0110442" id="Shape" fill="#BC1142" transform="translate(34.487047, 71.011044) rotate(-56.542503) translate(-34.487047, -71.011044) "></path>
                        <path d="M83.5647668,69.683735 C83.564767,74.6628551 80.5309852,79.2637518 75.6062177,81.7533119 C70.6814503,84.2428719 64.6138865,84.2428719 59.6891191,81.7533119 C54.7643516,79.2637518 51.7305698,74.6628551 51.7305699,69.683735 C51.7305698,64.7046149 54.7643516,60.1037181 59.689119,57.614158 C64.6138865,55.1245979 70.6814503,55.1245979 75.6062178,57.614158 C80.5309852,60.1037181 83.564767,64.7046149 83.5647668,69.683735 C83.5647668,69.683735 83.564767,64.7046149 83.5647668,69.683735 L83.5647668,69.683735 L83.5647668,69.683735 Z M83.5647668,69.683735" id="Shape" fill="#BC1142" transform="translate(67.647668, 69.683735) rotate(236.542503) translate(-67.647668, -69.683735) "></path>
                        <path d="M11.4462063,63.7928493 C17.6832023,61.9244063 13.5518134,92.6292809 8.47708103,90.1099459 C2.89496105,85.092334 1.09700692,70.3974891 11.4462063,63.7928493 C11.4462063,63.7928493 1.09700692,70.3974891 11.4462063,63.7928493 L11.4462063,63.7928493 L11.4462063,63.7928493 Z M11.4462063,63.7928493" id="Shape" fill="#BC1142"></path>
                        <path d="M88.0358723,63.7927891 C81.7983693,61.92507 85.9303253,92.6291213 91.0049128,90.1099622 C96.5868733,85.0921264 98.384776,70.3969677 88.0358723,63.7927891 C88.0358723,63.7927891 98.384776,70.3969677 88.0358723,63.7927891 L88.0358723,63.7927891 L88.0358723,63.7927891 Z M88.0358723,63.7927891" id="Shape" fill="#BC1142"></path>
                        <path d="M65.4871174,41.4768307 C77.0072485,39.5138708 86.5931489,46.4206776 86.2063028,59.0265435 C85.8273586,63.8591991 61.2428103,42.196336 65.4871174,41.4768307 C65.4871174,41.4768307 61.2428103,42.196336 65.4871174,41.4768307 L65.4871174,41.4768307 L65.4871174,41.4768307 Z M65.4871174,41.4768307" id="Shape" fill="#BC1142"></path>
                        <path d="M35.3211724,40.1494659 C23.8001254,38.1865344 14.2151423,45.0947213 14.6019884,57.6992948 C14.9809509,62.5316955 39.5654792,40.8691458 35.3211724,40.1494659 C35.3211724,40.1494659 39.5654792,40.8691458 35.3211724,40.1494659 L35.3211724,40.1494659 L35.3211724,40.1494659 Z M35.3211724,40.1494659" id="Shape" fill="#BC1142"></path>
                        <path d="M50.338297,37.169121 C43.6114104,36.9888602 37.1555508,42.3126186 37.1399457,45.4004912 C37.1211801,49.1525059 42.4584246,52.9941446 50.3840362,53.0915299 C58.4777168,53.1512565 63.6422968,50.0165928 63.6683054,46.1444634 C63.6978726,41.7575038 56.3071689,37.1013024 50.3381176,37.1689362 C50.3381176,37.1689362 56.3071689,37.1013024 50.3381176,37.1689362 L50.338297,37.169121 L50.338297,37.169121 Z M50.338297,37.169121" id="Shape" fill="#BC1142"></path>
                        <path d="M52.1968877,115.498076 C58.2210138,115.224321 66.3044009,117.518388 66.3202456,120.561516 C66.4202332,123.516596 58.9892985,130.193292 51.7972691,130.064193 C44.3489605,130.398719 37.045281,123.711683 37.1409021,121.393849 C37.0294253,117.995459 46.2103467,115.342121 52.1968877,115.498076 C52.1968877,115.498076 46.2103467,115.342121 52.1968877,115.498076 L52.1968877,115.498076 L52.1968877,115.498076 Z M52.1968877,115.498076" id="Shape" fill="#BC1142"></path>
                        <path d="M28.8254637,97.6728758 C32.9317358,102.82442 34.8036272,111.87498 31.3768241,114.54296 C28.1348818,116.579625 20.2618956,115.74086 14.6659775,107.369813 C10.8920313,100.345448 11.3783492,93.1974653 14.028155,91.0976133 C17.9906662,88.5841096 24.1131199,91.979103 28.8256577,97.6728758 C28.8256577,97.6728758 24.1131199,91.979103 28.8256577,97.6728758 L28.8254637,97.6728758 L28.8254637,97.6728758 Z M28.8254637,97.6728758" id="Shape" fill="#BC1142"></path>
                        <path d="M72.9561007,96.8725952 C68.380502,102.325159 65.832649,112.269962 69.1705635,115.472896 C72.3620558,117.961314 80.9295633,117.613483 87.2582302,108.679646 C91.8536304,102.67946 90.3138371,92.6590653 87.6889218,89.9980247 C83.7896622,86.9296405 78.1920157,90.8564959 72.9560643,96.8711167 C72.9560643,96.8711167 78.1920157,90.8564959 72.9560643,96.8711167 L72.9561007,96.8725952 L72.9561007,96.8725952 Z M72.9561007,96.8725952" id="Shape" fill="#BC1142"></path>
                    </g>
                    <text id="Raspberry-Pi" fill="#FFFFFF" sketch:type="MSTextLayer" font-family="Helvetica" font-size="22.2857143" font-weight="bold" sketch:alignment="middle">
                        <tspan x="20.1253491" y="151.076305">Raspberry Pi</tspan>
                    </text>
                    <text id="model-B---rev.-2" fill="#FFFFFF" sketch:type="MSTextLayer" font-family="Helvetica" font-size="18.3333333" font-weight="260" sketch:alignment="middle">
                        <tspan x="24.5112997" y="175.949799">model B - rev. 2</tspan>
                    </text>
                </g>
            </g>
            <g id="HDMI" transform="translate(403.233161, 538.887550)">
                <rect d="M0,0 L0,122.11245 L153.865285,122.11245 L153.865285,0 L0,0 Z M0,0" stroke="#9C9D9C" fill="#B4B4B4" sketch:type="MSShapeGroup" x="0" y="0" width="153.865285" height="122.11245"></rect>
                <text fill="#FFFFFF" sketch:type="MSTextLayer" font-family="Helvetica" font-size="14.5714286" font-weight="260" sketch:alignment="middle">
                    <tspan x="58.9808549" y="65.7650602">HDMI</tspan>
                </text>
            </g>
            <g id="POWER" transform="translate(0.000000, 530.923695)">
                <rect d="M0,0 L0,79.6385542 L67.6476684,79.6385542 L67.6476684,0 L0,0 Z M0,0" id="mini-USB" stroke="#979797" fill="#B4B4B4" sketch:type="MSShapeGroup" x="0" y="0" width="67.6476684" height="79.6385542"></rect>
                <text fill="#FFFFFF" sketch:type="MSTextLayer" transform="translate(41.823834, 40.873494) rotate(-90.000000) translate(-41.823834, -40.873494) " font-family="Helvetica" font-size="15.4285714" font-weight="260" sketch:alignment="middle">
                    <tspan x="14.3918342" y="36.873494">POWER</tspan>
                </text>
            </g>
            <g id="LAN" transform="translate(708.310881, 459.248996)">
                <rect d="M0,0 L0,169.895582 L225.492228,169.895582 L225.492228,0 L0,0 Z M0,0" id="RJ45" stroke="#9C9D9C" fill="#B4B4B4" sketch:type="MSShapeGroup" x="0" y="0" width="225.492228" height="169.895582"></rect>
                <text fill="#FFFFFF" sketch:type="MSTextLayer" transform="translate(112.746114, 92.656627) rotate(-90.000000) translate(-112.746114, -92.656627) " font-family="Helvetica" font-size="14.4" font-weight="260" sketch:alignment="middle">
                    <tspan x="98.742114" y="89.6566265">LAN</tspan>
                </text>
            </g>
            <g id="AUDIO" transform="translate(604.849741, 0.000000)">
                <path d="M96.2098446,23.8915663 L149.88601,23.8915663 L149.88601,161.931727 L0,161.931727 L0,23.8915663 L51.0233161,23.8915663 L51.0233161,0 L96.2098446,0 L96.2098446,23.8915663 Z M96.2098446,23.8915663" id="mini-Jack" stroke="#979797" fill="#CDD5DF" sketch:type="MSShapeGroup"></path>
                <text fill="#FFFFFF" sketch:type="MSTextLayer" font-family="Helvetica" font-size="14.5714286" font-weight="260" sketch:alignment="middle">
                    <tspan x="50.5427232" y="96.2931727">AUDIO</tspan>
                </text>
            </g>
            <g id="USB" transform="translate(818.404145, 245.552209)">
                <rect d="M0,-5.68434189e-14 L0,138.040161 L205.595855,138.040161 L205.595855,-5.68434189e-14 L0,-5.68434189e-14 Z M0,-5.68434189e-14" stroke="#969896" fill="#B4B4B4" sketch:type="MSShapeGroup" x="0" y="-5.68434189e-14" width="205.595855" height="138.040161"></rect>
                <text fill="#FFFFFF" sketch:type="MSTextLayer" transform="translate(66.056995, 70.746988) rotate(-90.000000) translate(-66.056995, -70.746988) " font-family="Helvetica" font-size="14.5714286" font-weight="260" sketch:alignment="middle">
                    <tspan x="51.4855662" y="67.746988">USB</tspan>
                </text>
            </g>
            <g id="RCA-VIDEO" transform="translate(443.025907, 11.945783)">
                <rect d="M23.8756477,0 L23.8756477,63.7108434 L86.2176166,63.7108434 L86.2176166,0 L23.8756477,0 Z M23.8756477,0" id="Rectangle-102" stroke="#979797" fill="#D8D8D8" sketch:type="MSShapeGroup" x="23.8756477" y="0" width="62.3419689" height="63.7108434"></rect>
                <rect d="M0,59.7289157 L0,165.913655 L110.093264,165.913655 L110.093264,59.7289157 L0,59.7289157 Z M0,59.7289157" id="Rectangle-101" stroke="#979797" fill="#E4EE96" sketch:type="MSShapeGroup" x="0" y="59.7289157" width="110.093264" height="106.184739"></rect>
                <text id="RCA" fill="#FFFFFF" sketch:type="MSTextLayer" font-family="Helvetica" font-size="15.3285714" font-weight="260" sketch:alignment="middle">
                    <tspan x="39.2888607" y="105.257028">RCA</tspan>
                    <tspan x="32.053775" y="124.257028">VIDEO</tspan>
                </text>
            </g>
            <g id="LEDS" transform="translate(778.611399, 82.620482)">
                <g id="ACT">
                    <rect d="M0.995685795,36.8373494 C0.445783715,36.8373494 0,37.2904659 0,37.8332489 L0,71.6787993 C0,72.2288194 0.442327074,72.6746988 0.995685795,72.6746988 L14.9214127,72.6746988 C15.4713147,72.6746988 15.9170984,72.2215823 15.9170984,71.6787993 L15.9170984,37.8332489 C15.9170984,37.2832288 15.4747714,36.8373494 14.9214127,36.8373494 L0.995685795,36.8373494 Z M0.995685795,36.8373494" id="Base" fill="#5BC752" sketch:type="MSShapeGroup" x="0" y="36.8373494" width="15.9170984" height="35.8373494" rx="1"></rect>
                    <rect d="M3.97927461,48.7831325 L3.97927461,60.7289157 L11.9378238,60.7289157 L11.9378238,48.7831325 L3.97927461,48.7831325 Z M3.97927461,48.7831325" id="LED" fill="#FAE309" sketch:type="MSShapeGroup" x="3.97927461" y="48.7831325" width="7.95854922" height="11.9457831"></rect>
                    <text fill="#FFFFFF" sketch:type="MSTextLayer" transform="translate(14.948187, 13.963855) rotate(-90.000000) translate(-14.948187, -13.963855) " font-family="Helvetica" font-size="11.4545455" font-weight="260">
                        <tspan x="1.02072539" y="10.9638554">ACT</tspan>
                    </text>
                </g>
                <g id="PWR" transform="translate(19.896373, 0.000000)">
                    <rect d="M0.995685795,36.8373494 C0.445783715,36.8373494 0,37.2904659 0,37.8332489 L0,71.6787993 C0,72.2288194 0.442327074,72.6746988 0.995685795,72.6746988 L14.9214127,72.6746988 C15.4713147,72.6746988 15.9170984,72.2215823 15.9170984,71.6787993 L15.9170984,37.8332489 C15.9170984,37.2832288 15.4747714,36.8373494 14.9214127,36.8373494 L0.995685795,36.8373494 Z M0.995685795,36.8373494" id="Base" fill="#5BC752" sketch:type="MSShapeGroup" x="0" y="36.8373494" width="15.9170984" height="35.8373494" rx="1"></rect>
                    <rect d="M3.97927461,48.7831325 L3.97927461,60.7289157 L11.9378238,60.7289157 L11.9378238,48.7831325 L3.97927461,48.7831325 Z M3.97927461,48.7831325" id="LED" fill="#FAE309" sketch:type="MSShapeGroup" x="3.97927461" y="48.7831325" width="7.95854922" height="11.9457831"></rect>
                    <text fill="#FFFFFF" sketch:type="MSTextLayer" transform="translate(7.948187, 13.963855) rotate(-90.000000) translate(-7.948187, -13.963855) " font-family="Helvetica" font-size="11.4545455" font-weight="260">
                        <tspan x="-5.97927461" y="17.9638554">PWR</tspan>
                    </text>
                </g>
                <g id="FDX" transform="translate(47.751295, 0.000000)">
                    <rect d="M0.995685795,36.8373494 C0.445783715,36.8373494 0,37.2904659 0,37.8332489 L0,71.6787993 C0,72.2288194 0.442327074,72.6746988 0.995685795,72.6746988 L14.9214127,72.6746988 C15.4713147,72.6746988 15.9170984,72.2215823 15.9170984,71.6787993 L15.9170984,37.8332489 C15.9170984,37.2832288 15.4747714,36.8373494 14.9214127,36.8373494 L0.995685795,36.8373494 Z M0.995685795,36.8373494" id="Base" fill="#5BC752" sketch:type="MSShapeGroup" x="0" y="36.8373494" width="15.9170984" height="35.8373494" rx="1"></rect>
                    <rect d="M3.97927461,48.7831325 L3.97927461,60.7289157 L11.9378238,60.7289157 L11.9378238,48.7831325 L3.97927461,48.7831325 Z M3.97927461,48.7831325" id="LED" fill="#FAE309" sketch:type="MSShapeGroup" x="3.97927461" y="48.7831325" width="7.95854922" height="11.9457831"></rect>
                    <text fill="#FFFFFF" sketch:type="MSTextLayer" transform="translate(14.948187, 13.963855) rotate(-90.000000) translate(-14.948187, -13.963855) " font-family="Helvetica" font-size="11.4545455" font-weight="260">
                        <tspan x="1.02072539" y="10.9638554">FDX</tspan>
                    </text>
                </g>
                <g id="LNK" transform="translate(66.321244, 0.000000)">
                    <rect d="M0.995685795,36.8373494 C0.445783715,36.8373494 0,37.2904659 0,37.8332489 L0,71.6787993 C0,72.2288194 0.442327074,72.6746988 0.995685795,72.6746988 L14.9214127,72.6746988 C15.4713147,72.6746988 15.9170984,72.2215823 15.9170984,71.6787993 L15.9170984,37.8332489 C15.9170984,37.2832288 15.4747714,36.8373494 14.9214127,36.8373494 L0.995685795,36.8373494 Z M0.995685795,36.8373494" id="Base" fill="#5BC752" sketch:type="MSShapeGroup" x="0" y="36.8373494" width="15.9170984" height="35.8373494" rx="1"></rect>
                    <rect d="M3.97927461,48.7831325 L3.97927461,60.7289157 L11.9378238,60.7289157 L11.9378238,48.7831325 L3.97927461,48.7831325 Z M3.97927461,48.7831325" id="LED" fill="#FAE309" sketch:type="MSShapeGroup" x="3.97927461" y="48.7831325" width="7.95854922" height="11.9457831"></rect>
                    <text fill="#FFFFFF" sketch:type="MSTextLayer" transform="translate(8.948187, 13.963855) rotate(-90.000000) translate(-8.948187, -13.963855) " font-family="Helvetica" font-size="11.4545455" font-weight="260">
                        <tspan x="-4.97927461" y="17.9638554">LNK</tspan>
                    </text>
                </g>
                <g id="100MB" transform="translate(86.217617, 1.000000)">
                    <rect d="M0.995685795,35.8373494 C0.445783715,35.8373494 0,36.2904659 0,36.8332489 L0,70.6787993 C0,71.2288194 0.442327074,71.6746988 0.995685795,71.6746988 L14.9214127,71.6746988 C15.4713147,71.6746988 15.9170984,71.2215823 15.9170984,70.6787993 L15.9170984,36.8332489 C15.9170984,36.2832288 15.4747714,35.8373494 14.9214127,35.8373494 L0.995685795,35.8373494 Z M0.995685795,35.8373494" id="Base" fill="#5BC752" sketch:type="MSShapeGroup" x="0" y="35.8373494" width="15.9170984" height="35.8373494" rx="1"></rect>
                    <rect d="M3.97927461,47.7831325 L3.97927461,59.7289157 L11.9378238,59.7289157 L11.9378238,47.7831325 L3.97927461,47.7831325 Z M3.97927461,47.7831325" id="LED" fill="#FAE309" sketch:type="MSShapeGroup" x="3.97927461" y="47.7831325" width="7.95854922" height="11.9457831"></rect>
                    <text id="100" fill="#FFFFFF" sketch:type="MSTextLayer" transform="translate(7.948187, 13.963855) rotate(-90.000000) translate(-7.948187, -13.963855) " font-family="Helvetica" font-size="11.4545455" font-weight="260">
                        <tspan x="-5.97927461" y="17.9638554">100</tspan>
                    </text>
                </g>
            </g>
            <g id="EXT-1" transform="translate(129.989637, 233.606426)">
                <rect d="M0,0 L0,233.606426 L19.8963731,233.606426 L19.8963731,0 L0,0 Z M0,0" id="Rectangle-156" stroke="#979797" fill="#B4B4B4" sketch:type="MSShapeGroup" x="0" y="0" width="19.8963731" height="233.606426"></rect>
                <g id="Line">
                    <use stroke="none" sketch:type="MSShapeGroup" xlink:href="#path-1"></use>
                    <use stroke="#70727E" stroke-width="1" stroke-linecap="square" xlink:href="#path-1"></use>
                </g>
            </g>
            <g id="EXT-2" transform="translate(620.766839, 403.502008)">
                <rect d="M0,0 L0,233.606426 L19.8963731,233.606426 L19.8963731,0 L0,0 Z M0,0" id="Rectangle-156" stroke="#979797" fill="#B4B4B4" sketch:type="MSShapeGroup" x="0" y="0" width="19.8963731" height="233.606426"></rect>
                <g id="Line">
                    <use stroke="none" sketch:type="MSShapeGroup" xlink:href="#path-2"></use>
                    <use stroke="#70727E" stroke-width="1" stroke-linecap="square" xlink:href="#path-2"></use>
                </g>
            </g>
            <g id="GPIO" transform="translate(19.896373, 63.710843)">
                <g id="Rectangle-126">
                    <use stroke="#979797" stroke-width="1" fill="#B4B4B4" fill-rule="evenodd" sketch:type="MSShapeGroup" xlink:href="#path-3"></use>
                    <use stroke="none" fill="none" xlink:href="#path-3"></use>
                </g>
                <g id="GPIO-PIN-COLOR" transform="translate(12.103627, 9.289157)">
                    <g id="Oval-4-copy">
                        <use stroke="#43D800" stroke-width="2" fill="#FFFFFF" fill-rule="evenodd" sketch:type="MSShapeGroup" xlink:href="#path-4"></use>
                        <use stroke="none" fill="none" xlink:href="#path-4"></use>
                    </g>
                    <g id="Oval-4-copy-2">
                        <use stroke="#43D800" stroke-width="2" fill="#FFFFFF" fill-rule="evenodd" sketch:type="MSShapeGroup" xlink:href="#path-5"></use>
                        <use stroke="none" fill="none" xlink:href="#path-5"></use>
                    </g>
                    <g id="Oval-4-copy-3">
                        <use stroke="#43D800" stroke-width="2" fill="#FFFFFF" fill-rule="evenodd" sketch:type="MSShapeGroup" xlink:href="#path-6"></use>
                        <use stroke="none" fill="none" xlink:href="#path-6"></use>
                    </g>
                    <g id="Oval-4-copy-4">
                        <use stroke="#000000" stroke-width="2" fill="#FFFFFF" fill-rule="evenodd" sketch:type="MSShapeGroup" xlink:href="#path-7"></use>
                        <use stroke="none" fill="none" xlink:href="#path-7"></use>
                    </g>
                    <g id="Oval-4-copy-5">
                        <use stroke="#43D800" stroke-width="2" fill="#FFFFFF" fill-rule="evenodd" sketch:type="MSShapeGroup" xlink:href="#path-8"></use>
                        <use stroke="none" fill="none" xlink:href="#path-8"></use>
                    </g>
                    <g id="Oval-4-copy-6">
                        <use stroke="#43D800" stroke-width="2" fill="#FFFFFF" fill-rule="evenodd" sketch:type="MSShapeGroup" xlink:href="#path-9"></use>
                        <use stroke="none" fill="none" xlink:href="#path-9"></use>
                    </g>
                    <g id="Oval-4-copy-7">
                        <use stroke="#43D800" stroke-width="2" fill="#FFFFFF" fill-rule="evenodd" sketch:type="MSShapeGroup" xlink:href="#path-10"></use>
                        <use stroke="none" fill="none" xlink:href="#path-10"></use>
                    </g>
                    <g id="Oval-4-copy-8">
                        <use stroke="#000000" stroke-width="2" fill="#FFFFFF" fill-rule="evenodd" sketch:type="MSShapeGroup" xlink:href="#path-11"></use>
                        <use stroke="none" fill="none" xlink:href="#path-11"></use>
                    </g>
                    <g id="Oval-4-copy-9">
                        <use stroke="#43D800" stroke-width="2" fill="#FFFFFF" fill-rule="evenodd" sketch:type="MSShapeGroup" xlink:href="#path-12"></use>
                        <use stroke="none" fill="none" xlink:href="#path-12"></use>
                    </g>
                    <g id="Oval-4-copy-10">
                        <use stroke="#43D800" stroke-width="2" fill="#FFFFFF" fill-rule="evenodd" sketch:type="MSShapeGroup" xlink:href="#path-13"></use>
                        <use stroke="none" fill="none" xlink:href="#path-13"></use>
                    </g>
                    <g id="Oval-4-copy-11">
                        <use stroke="#43D800" stroke-width="2" fill="#FFFFFF" fill-rule="evenodd" sketch:type="MSShapeGroup" xlink:href="#path-14"></use>
                        <use stroke="none" fill="none" xlink:href="#path-14"></use>
                    </g>
                    <g id="Oval-4-copy-12">
                        <use stroke="#000000" stroke-width="2" fill="#FFFFFF" fill-rule="evenodd" sketch:type="MSShapeGroup" xlink:href="#path-15"></use>
                        <use stroke="none" fill="none" xlink:href="#path-15"></use>
                    </g>
                    <g id="Oval-4">
                        <use stroke="#F89614" stroke-width="2" fill="#FFFFFF" fill-rule="evenodd" sketch:type="MSShapeGroup" xlink:href="#path-16"></use>
                        <use stroke="none" fill="none" xlink:href="#path-16"></use>
                    </g>
                    <g id="Oval-4-copy-2">
                        <use stroke="#CB0011" stroke-width="2" fill="#FFFFFF" fill-rule="evenodd" sketch:type="MSShapeGroup" xlink:href="#path-17"></use>
                        <use stroke="none" fill="none" xlink:href="#path-17"></use>
                    </g>
                    <g id="Oval-4-copy-3">
                        <use stroke="#000000" stroke-width="2" fill="#FFFFFF" fill-rule="evenodd" sketch:type="MSShapeGroup" xlink:href="#path-18"></use>
                        <use stroke="none" fill="none" xlink:href="#path-18"></use>
                    </g>
                    <g id="Oval-4-copy-4">
                        <use stroke="#43D800" stroke-width="2" fill="#FFFFFF" fill-rule="evenodd" sketch:type="MSShapeGroup" xlink:href="#path-19"></use>
                        <use stroke="none" fill="none" xlink:href="#path-19"></use>
                    </g>
                    <g id="Oval-4-copy-5">
                        <use stroke="#69CA14" stroke-width="2" fill="#FFFFFF" fill-rule="evenodd" sketch:type="MSShapeGroup" xlink:href="#path-20"></use>
                        <use stroke="none" fill="none" xlink:href="#path-20"></use>
                    </g>
                    <g id="Oval-4-copy-6">
                        <use stroke="#43D800" stroke-width="2" fill="#FFFFFF" fill-rule="evenodd" sketch:type="MSShapeGroup" xlink:href="#path-21"></use>
                        <use stroke="none" fill="none" xlink:href="#path-21"></use>
                    </g>
                    <g id="Oval-4-copy-7">
                        <use stroke="#000000" stroke-width="2" fill="#FFFFFF" fill-rule="evenodd" sketch:type="MSShapeGroup" xlink:href="#path-22"></use>
                        <use stroke="none" fill="none" xlink:href="#path-22"></use>
                    </g>
                    <g id="Oval-4-copy-8">
                        <use stroke="#43D800" stroke-width="2" fill="#FFFFFF" fill-rule="evenodd" sketch:type="MSShapeGroup" xlink:href="#path-23"></use>
                        <use stroke="none" fill="none" xlink:href="#path-23"></use>
                    </g>
                    <g id="Oval-4-copy-9">
                        <use stroke="#69CA14" stroke-width="2" fill="#FFFFFF" fill-rule="evenodd" sketch:type="MSShapeGroup" xlink:href="#path-24"></use>
                        <use stroke="none" fill="none" xlink:href="#path-24"></use>
                    </g>
                    <g id="Oval-4-copy-10">
                        <use stroke="#CB0011" stroke-width="2" fill="#FFFFFF" fill-rule="evenodd" sketch:type="MSShapeGroup" xlink:href="#path-25"></use>
                        <use stroke="none" fill="none" xlink:href="#path-25"></use>
                    </g>
                    <g id="Oval-4-copy-11">
                        <use stroke="#43D800" stroke-width="2" fill="#FFFFFF" fill-rule="evenodd" sketch:type="MSShapeGroup" xlink:href="#path-26"></use>
                        <use stroke="none" fill="none" xlink:href="#path-26"></use>
                    </g>
                    <g id="Oval-4-copy-12">
                        <use stroke="#43D800" stroke-width="2" fill="#FFFFFF" fill-rule="evenodd" sketch:type="MSShapeGroup" xlink:href="#path-27"></use>
                        <use stroke="none" fill="none" xlink:href="#path-27"></use>
                    </g>
                    <g id="Oval-4-copy-13">
                        <use stroke="#69CA14" stroke-width="2" fill="#FFFFFF" fill-rule="evenodd" sketch:type="MSShapeGroup" xlink:href="#path-28"></use>
                        <use stroke="none" fill="none" xlink:href="#path-28"></use>
                    </g>
                    <text id="1" fill="#000000" sketch:type="MSTextLayer" font-family="Helvetica" font-size="8" font-weight="normal" sketch:alignment="middle">
                        <tspan x="5.77539062" y="31">1</tspan>
                    </text>
                    <text id="3" fill="#000000" sketch:type="MSTextLayer" font-family="Helvetica" font-size="8" font-weight="normal" sketch:alignment="middle">
                        <tspan x="31.7753906" y="31">3</tspan>
                    </text>
                    <text id="5" fill="#000000" sketch:type="MSTextLayer" font-family="Helvetica" font-size="8" font-weight="normal" sketch:alignment="middle">
                        <tspan x="57.7753906" y="31">5</tspan>
                    </text>
                    <text id="7" fill="#000000" sketch:type="MSTextLayer" font-family="Helvetica" font-size="8" font-weight="normal" sketch:alignment="middle">
                        <tspan x="83.7753906" y="31">7</tspan>
                    </text>
                    <text id="9" fill="#000000" sketch:type="MSTextLayer" font-family="Helvetica" font-size="8" font-weight="normal" sketch:alignment="middle">
                        <tspan x="109.775391" y="31">9</tspan>
                    </text>
                    <text id="11" fill="#000000" sketch:type="MSTextLayer" font-family="Helvetica" font-size="8" font-weight="normal" sketch:alignment="middle">
                        <tspan x="133.845703" y="31">11</tspan>
                    </text>
                    <text id="13" fill="#000000" sketch:type="MSTextLayer" font-family="Helvetica" font-size="8" font-weight="normal" sketch:alignment="middle">
                        <tspan x="158.550781" y="31">13</tspan>
                    </text>
                    <text id="15" fill="#000000" sketch:type="MSTextLayer" font-family="Helvetica" font-size="8" font-weight="normal" sketch:alignment="middle">
                        <tspan x="184.550781" y="31">15</tspan>
                    </text>
                    <text id="17" fill="#000000" sketch:type="MSTextLayer" font-family="Helvetica" font-size="8" font-weight="normal" sketch:alignment="middle">
                        <tspan x="210.550781" y="31">17</tspan>
                    </text>
                    <text id="19" fill="#000000" sketch:type="MSTextLayer" font-family="Helvetica" font-size="8" font-weight="normal" sketch:alignment="middle">
                        <tspan x="236.550781" y="31">19</tspan>
                    </text>
                    <text id="21" fill="#000000" sketch:type="MSTextLayer" font-family="Helvetica" font-size="8" font-weight="normal" sketch:alignment="middle">
                        <tspan x="262.550781" y="31">21</tspan>
                    </text>
                    <text id="23" fill="#000000" sketch:type="MSTextLayer" font-family="Helvetica" font-size="8" font-weight="normal" sketch:alignment="middle">
                        <tspan x="288.550781" y="31">23</tspan>
                    </text>
                    <text id="25" fill="#000000" sketch:type="MSTextLayer" font-family="Helvetica" font-size="8" font-weight="normal" sketch:alignment="middle">
                        <tspan x="317.550781" y="31">25</tspan>
                    </text>
                    <text id="2" fill="#000000" sketch:type="MSTextLayer" font-family="Helvetica" font-size="8" font-weight="normal" sketch:alignment="middle">
                        <tspan x="5.77539062" y="10">2</tspan>
                    </text>
                    <text id="4" fill="#000000" sketch:type="MSTextLayer" font-family="Helvetica" font-size="8" font-weight="normal" sketch:alignment="middle">
                        <tspan x="31.7753906" y="10">4</tspan>
                    </text>
                    <text id="6" fill="#000000" sketch:type="MSTextLayer" font-family="Helvetica" font-size="8" font-weight="normal" sketch:alignment="middle">
                        <tspan x="57.7753906" y="10">6</tspan>
                    </text>
                    <text id="8" fill="#000000" sketch:type="MSTextLayer" font-family="Helvetica" font-size="8" font-weight="normal" sketch:alignment="middle">
                        <tspan x="83.7753906" y="10">8</tspan>
                    </text>
                    <text id="10" fill="#000000" sketch:type="MSTextLayer" font-family="Helvetica" font-size="8" font-weight="normal" sketch:alignment="middle">
                        <tspan x="107.550781" y="10">10</tspan>
                    </text>
                    <text id="12" fill="#000000" sketch:type="MSTextLayer" font-family="Helvetica" font-size="8" font-weight="normal" sketch:alignment="middle">
                        <tspan x="133.550781" y="10">12</tspan>
                    </text>
                    <text id="14" fill="#000000" sketch:type="MSTextLayer" font-family="Helvetica" font-size="8" font-weight="normal" sketch:alignment="middle">
                        <tspan x="158.550781" y="10">14</tspan>
                    </text>
                    <text id="16" fill="#000000" sketch:type="MSTextLayer" font-family="Helvetica" font-size="8" font-weight="normal" sketch:alignment="middle">
                        <tspan x="184.550781" y="10">16</tspan>
                    </text>
                    <text id="18" fill="#000000" sketch:type="MSTextLayer" font-family="Helvetica" font-size="8" font-weight="normal" sketch:alignment="middle">
                        <tspan x="210.550781" y="10">18</tspan>
                    </text>
                    <text id="20" fill="#000000" sketch:type="MSTextLayer" font-family="Helvetica" font-size="8" font-weight="normal" sketch:alignment="middle">
                        <tspan x="236.550781" y="10">20</tspan>
                    </text>
                    <text id="22" fill="#000000" sketch:type="MSTextLayer" font-family="Helvetica" font-size="8" font-weight="normal" sketch:alignment="middle">
                        <tspan x="262.550781" y="10">22</tspan>
                    </text>
                    <text id="24" fill="#000000" sketch:type="MSTextLayer" font-family="Helvetica" font-size="8" font-weight="normal" sketch:alignment="middle">
                        <tspan x="288.550781" y="10">24</tspan>
                    </text>
                    <text id="26-copy" fill="#000000" sketch:type="MSTextLayer" font-family="Helvetica" font-size="8" font-weight="normal" sketch:alignment="middle">
                        <tspan x="317.550781" y="10">26</tspan>
                    </text>
                </g>
                <text fill="#FFFFFF" sketch:type="MSTextLayer" font-family="Helvetica" font-size="15.4285714" font-weight="260" sketch:alignment="middle">
                    <tspan x="145.615255" y="74.7289157">GPIO</tspan>
                </text>
            </g>
        </g>
    </g>
</svg>