  0
SECTION
  2
HEADER
  9
$ACADVER
  1
AC1014
  9
$ACADMAINTVER
 70
     9
  9
$DWGCODEPAGE
  3
ANSI_1252
  9
$INSBASE
 10
0.0
 20
0.0
 30
0.0
  9
$EXTMIN
 10
-0.1574948346642004
 20
-0.1574948346642009
 30
0.0
  9
$EXTMAX
 10
12.15749483466419
 20
12.15749483466419
 30
0.0
  9
$LIMMIN
 10
0.0
 20
0.0
  9
$LIMMAX
 10
12.0
 20
9.0
  9
$ORTHOMODE
 70
     1
  9
$REGENMODE
 70
     1
  9
$FILLMODE
 70
     1
  9
$QTEXTMODE
 70
     0
  9
$MIRRTEXT
 70
     1
  9
$DRAGMODE
 70
     2
  9
$LTSCALE
 40
1.0
  9
$OSMODE
 70
    37
  9
$ATTMODE
 70
     1
  9
$TEXTSIZE
 40
0.2
  9
$TRACEWID
 40
0.05
  9
$TEXTSTYLE
  7
STANDARD
  9
$CLAYER
  8
0
  9
$CELTYPE
  6
BYLAYER
  9
$CECOLOR
 62
   256
  9
$CELTSCALE
 40
1.0
  9
$DELOBJ
 70
     1
  9
$DISPSILH
 70
     0
  9
$DIMSCALE
 40
1.0
  9
$DIMASZ
 40
0.18
  9
$DIMEXO
 40
0.0625
  9
$DIMDLI
 40
0.38
  9
$DIMRND
 40
0.0
  9
$DIMDLE
 40
0.0
  9
$DIMEXE
 40
0.18
  9
$DIMTP
 40
0.0
  9
$DIMTM
 40
0.0
  9
$DIMTXT
 40
0.18
  9
$DIMCEN
 40
0.09
  9
$DIMTSZ
 40
0.0
  9
$DIMTOL
 70
     0
  9
$DIMLIM
 70
     0
  9
$DIMTIH
 70
     1
  9
$DIMTOH
 70
     1
  9
$DIMSE1
 70
     0
  9
$DIMSE2
 70
     0
  9
$DIMTAD
 70
     0
  9
$DIMZIN
 70
     0
  9
$DIMBLK
  1

  9
$DIMASO
 70
     1
  9
$DIMSHO
 70
     1
  9
$DIMPOST
  1

  9
$DIMAPOST
  1

  9
$DIMALT
 70
     0
  9
$DIMALTD
 70
     2
  9
$DIMALTF
 40
25.4
  9
$DIMLFAC
 40
1.0
  9
$DIMTOFL
 70
     0
  9
$DIMTVP
 40
0.0
  9
$DIMTIX
 70
     0
  9
$DIMSOXD
 70
     0
  9
$DIMSAH
 70
     0
  9
$DIMBLK1
  1

  9
$DIMBLK2
  1

  9
$DIMSTYLE
  2
STANDARD
  9
$DIMCLRD
 70
     0
  9
$DIMCLRE
 70
     0
  9
$DIMCLRT
 70
     0
  9
$DIMTFAC
 40
1.0
  9
$DIMGAP
 40
0.09
  9
$DIMJUST
 70
     0
  9
$DIMSD1
 70
     0
  9
$DIMSD2
 70
     0
  9
$DIMTOLJ
 70
     1
  9
$DIMTZIN
 70
     0
  9
$DIMALTZ
 70
     0
  9
$DIMALTTZ
 70
     0
  9
$DIMFIT
 70
     3
  9
$DIMUPT
 70
     0
  9
$DIMUNIT
 70
     2
  9
$DIMDEC
 70
     4
  9
$DIMTDEC
 70
     4
  9
$DIMALTU
 70
     2
  9
$DIMALTTD
 70
     2
  9
$DIMTXSTY
  7
STANDARD
  9
$DIMAUNIT
 70
     0
  9
$LUNITS
 70
     2
  9
$LUPREC
 70
     4
  9
$SKETCHINC
 40
0.1
  9
$FILLETRAD
 40
0.5
  9
$AUNITS
 70
     0
  9
$AUPREC
 70
     0
  9
$MENU
  1
.
  9
$ELEVATION
 40
0.0
  9
$PELEVATION
 40
0.0
  9
$THICKNESS
 40
0.0
  9
$LIMCHECK
 70
     0
  9
$BLIPMODE
 70
     0
  9
$CHAMFERA
 40
0.5
  9
$CHAMFERB
 40
0.5
  9
$CHAMFERC
 40
1.0
  9
$CHAMFERD
 40
0.0
  9
$SKPOLY
 70
     0
  9
$TDCREATE
 40
2455685.379739919
  9
$TDUPDATE
 40
2455691.448493692
  9
$TDINDWG
 40
0.0336977431
  9
$TDUSRTIMER
 40
0.0336964699
  9
$USRTIMER
 70
     1
  9
$ANGBASE
 50
0.0
  9
$ANGDIR
 70
     0
  9
$PDMODE
 70
     0
  9
$PDSIZE
 40
0.0
  9
$PLINEWID
 40
0.0
  9
$COORDS
 70
     2
  9
$SPLFRAME
 70
     0
  9
$SPLINETYPE
 70
     6
  9
$SPLINESEGS
 70
     8
  9
$ATTDIA
 70
     0
  9
$ATTREQ
 70
     1
  9
$HANDLING
 70
 22529
  9
$HANDSEED
  5
13F
  9
$SURFTAB1
 70
     6
  9
$SURFTAB2
 70
     6
  9
$SURFTYPE
 70
     6
  9
$SURFU
 70
     6
  9
$SURFV
 70
     6
  9
$UCSNAME
  2

  9
$UCSORG
 10
0.0
 20
0.0
 30
0.0
  9
$UCSXDIR
 10
1.0
 20
0.0
 30
0.0
  9
$UCSYDIR
 10
0.0
 20
1.0
 30
0.0
  9
$PUCSNAME
  2

  9
$PUCSORG
 10
0.0
 20
0.0
 30
0.0
  9
$PUCSXDIR
 10
1.0
 20
0.0
 30
0.0
  9
$PUCSYDIR
 10
0.0
 20
1.0
 30
0.0
  9
$USERI1
 70
     0
  9
$USERI2
 70
     0
  9
$USERI3
 70
     0
  9
$USERI4
 70
     0
  9
$USERI5
 70
     0
  9
$USERR1
 40
0.0
  9
$USERR2
 40
0.0
  9
$USERR3
 40
0.0
  9
$USERR4
 40
0.0
  9
$USERR5
 40
0.0
  9
$WORLDVIEW
 70
     1
  9
$SHADEDGE
 70
     3
  9
$SHADEDIF
 70
    70
  9
$TILEMODE
 70
     1
  9
$MAXACTVP
 70
    64
  9
$PINSBASE
 10
0.0
 20
0.0
 30
0.0
  9
$PLIMCHECK
 70
     0
  9
$PEXTMIN
 10
0.0
 20
0.0
 30
0.0
  9
$PEXTMAX
 10
0.0
 20
0.0
 30
0.0
  9
$PLIMMIN
 10
0.0
 20
0.0
  9
$PLIMMAX
 10
12.0
 20
9.0
  9
$UNITMODE
 70
     0
  9
$VISRETAIN
 70
     1
  9
$PLINEGEN
 70
     0
  9
$PSLTSCALE
 70
     1
  9
$TREEDEPTH
 70
  3020
  9
$PICKSTYLE
 70
     1
  9
$CMLSTYLE
  2
STANDARD
  9
$CMLJUST
 70
     0
  9
$CMLSCALE
 40
1.0
  9
$PROXYGRAPHICS
 70
     1
  9
$MEASUREMENT
 70
     0
  0
ENDSEC
  0
SECTION
  2
CLASSES
  0
CLASS
  1
ACDBDICTIONARYWDFLT
  2
AcDbDictionaryWithDefault
  3
AutoCAD 2000
 90
        0
280
     0
281
     0
  0
CLASS
  1
ACDBPLACEHOLDER
  2
AcDbPlaceHolder
  3
AutoCAD 2000
 90
        0
280
     0
281
     0
  0
CLASS
  1
LAYOUT
  2
AcDbLayout
  3
AutoCAD 2000
 90
        0
280
     0
281
     0
  0
CLASS
  1
DICTIONARYVAR
  2
AcDbDictionaryVar
  3
AutoCAD 2000
 90
        0
280
     0
281
     0
  0
CLASS
  1
LONG_TRANSACTION
  2
AcDbLongTransaction
  3
AutoCAD 2000
 90
        0
280
     0
281
     0
  0
CLASS
  1
LWPOLYLINE
  2
AcDbPolyline
  3
AutoCAD 2000
 90
        0
280
     0
281
     1
  0
CLASS
  1
HATCH
  2
AcDbHatch
  3
AutoCAD 2000
 90
        0
280
     0
281
     1
  0
CLASS
  1
XRECORD
  2
AcDbXrecord
  3
AutoCAD 2000
 90
        0
280
     0
281
     0
  0
CLASS
  1
LONG_TRANSACTION
  2
AcDbLongTransaction
  3
AutoCAD 2000
 90
        0
280
     0
281
     0
  0
CLASS
  1
LWPOLYLINE
  2
AcDbPolyline
  3
AutoCAD 2000
 90
        0
280
     0
281
     1
  0
CLASS
  1
HATCH
  2
AcDbHatch
  3
AutoCAD 2000
 90
        0
280
     0
281
     1
  0
CLASS
  1
XRECORD
  2
AcDbXrecord
  3
AutoCAD 2000
 90
        0
280
     0
281
     0
  0
ENDSEC
  0
SECTION
  2
TABLES
  0
TABLE
  2
VPORT
  5
8
330
0
100
AcDbSymbolTable
 70
     2
  0
VPORT
  5
11C
330
8
100
AcDbSymbolTableRecord
100
AcDbViewportTableRecord
  2
*ACTIVE
 70
     0
 10
0.0
 20
0.0
 11
1.0
 21
1.0
 12
6.000000085290754
 22
5.999850708947105
 13
0.0
 23
0.0
 14
0.5
 24
0.5
 15
0.5
 25
0.5
 16
0.0
 26
0.0
 36
1.0
 17
0.0
 27
0.0
 37
0.0
 40
12.44962644205959
 41
1.540687160940325
 42
50.0
 43
0.0
 44
0.0
 50
0.0
 51
0.0
 71
     0
 72
   100
 73
     1
 74
     3
 75
     0
 76
     0
 77
     0
 78
     0
  0
ENDTAB
  0
TABLE
  2
LTYPE
  5
5
330
0
100
AcDbSymbolTable
 70
     1
  0
LTYPE
  5
14
330
5
100
AcDbSymbolTableRecord
100
AcDbLinetypeTableRecord
  2
BYBLOCK
 70
     0
  3

 72
    65
 73
     0
 40
0.0
  0
LTYPE
  5
15
330
5
100
AcDbSymbolTableRecord
100
AcDbLinetypeTableRecord
  2
BYLAYER
 70
     0
  3

 72
    65
 73
     0
 40
0.0
  0
LTYPE
  5
16
330
5
100
AcDbSymbolTableRecord
100
AcDbLinetypeTableRecord
  2
CONTINUOUS
 70
     0
  3
Solid line
 72
    65
 73
     0
 40
0.0
  0
ENDTAB
  0
TABLE
  2
LAYER
  5
2
330
0
100
AcDbSymbolTable
 70
     1
  0
LAYER
  5
10
330
2
100
AcDbSymbolTableRecord
100
AcDbLayerTableRecord
  2
0
 70
     0
 62
     7
  6
CONTINUOUS
  0
ENDTAB
  0
TABLE
  2
STYLE
  5
3
330
0
100
AcDbSymbolTable
 70
     1
  0
STYLE
  5
11
330
3
100
AcDbSymbolTableRecord
100
AcDbTextStyleTableRecord
  2
STANDARD
 70
     0
 40
0.0
 41
1.0
 50
0.0
 71
     0
 42
0.2
  3
txt
  4

  0
ENDTAB
  0
TABLE
  2
VIEW
  5
6
330
0
100
AcDbSymbolTable
 70
     0
  0
ENDTAB
  0
TABLE
  2
UCS
  5
7
330
0
100
AcDbSymbolTable
 70
     0
  0
ENDTAB
  0
TABLE
  2
APPID
  5
9
330
0
100
AcDbSymbolTable
 70
     1
  0
APPID
  5
12
330
9
100
AcDbSymbolTableRecord
100
AcDbRegAppTableRecord
  2
ACAD
 70
     0
  0
ENDTAB
  0
TABLE
  2
DIMSTYLE
  5
A
330
0
100
AcDbSymbolTable
 70
     1
  0
DIMSTYLE
105
27
330
A
100
AcDbSymbolTableRecord
100
AcDbDimStyleTableRecord
  2
STANDARD
 70
     0
  3

  4

  5

  6

  7

 40
1.0
 41
0.18
 42
0.0625
 43
0.38
 44
0.18
 45
0.0
 46
0.0
 47
0.0
 48
0.0
140
0.18
141
0.09
142
0.0
143
25.4
144
1.0
145
0.0
146
1.0
147
0.09
 71
     0
 72
     0
 73
     1
 74
     1
 75
     0
 76
     0
 77
     0
 78
     0
170
     0
171
     2
172
     0
173
     0
174
     0
175
     0
176
     0
177
     0
178
     0
270
     2
271
     4
272
     4
273
     2
274
     2
340
11
275
     0
280
     0
281
     0
282
     0
283
     1
284
     0
285
     0
286
     0
287
     3
288
     0
  0
ENDTAB
  0
TABLE
  2
BLOCK_RECORD
  5
1
330
0
100
AcDbSymbolTable
 70
     0
  0
BLOCK_RECORD
  5
1F
102
{ACAD_XDICTIONARY
360
110
102
}
330
1
100
AcDbSymbolTableRecord
100
AcDbBlockTableRecord
  2
*MODEL_SPACE
  0
BLOCK_RECORD
  5
58
102
{ACAD_XDICTIONARY
360
112
102
}
330
1
100
AcDbSymbolTableRecord
100
AcDbBlockTableRecord
  2
*PAPER_SPACE
  0
ENDTAB
  0
ENDSEC
  0
SECTION
  2
BLOCKS
  0
BLOCK
  5
20
330
1F
100
AcDbEntity
  8
0
100
AcDbBlockBegin
  2
*MODEL_SPACE
 70
     0
 10
0.0
 20
0.0
 30
0.0
  3
*MODEL_SPACE
  1

  0
ENDBLK
  5
21
330
1F
100
AcDbEntity
  8
0
100
AcDbBlockEnd
  0
BLOCK
  5
5A
330
58
100
AcDbEntity
 67
     1
  8
0
100
AcDbBlockBegin
  2
*PAPER_SPACE
 70
     0
 10
0.0
 20
0.0
 30
0.0
  3
*PAPER_SPACE
  1

  0
ENDBLK
  5
5B
330
58
100
AcDbEntity
 67
     1
  8
0
100
AcDbBlockEnd
  0
ENDSEC
  0
SECTION
  2
ENTITIES
  0
ARC
  5
78
330
1F
100
AcDbEntity
  8
0
100
AcDbCircle
 10
0.23622
 20
0.23622
 30
0.0
 40
0.094488
100
AcDbArc
 50
130.9031312619895
 51
49.09686873801041
  0
ARC
  5
8C
330
1F
100
AcDbEntity
  8
0
100
AcDbCircle
 10
0.23622
 20
0.23622
 30
0.0
 40
0.1927514769831778
100
AcDbArc
 50
107.9141169555188
 51
117.0858830444809
  0
ARC
  5
8D
330
1F
100
AcDbEntity
  8
0
100
AcDbCircle
 10
0.23622
 20
0.23622
 30
0.0
 40
0.2407928886469584
100
AcDbArc
 50
128.1183555751995
 51
141.8816444248001
  0
ARC
  5
9F
330
1F
100
AcDbEntity
  8
0
100
AcDbCircle
 10
0.23622
 20
0.23622
 30
0.0
 40
0.1927514769831778
100
AcDbArc
 50
152.9141169555188
 51
162.0858830444809
  0
ARC
  5
A0
330
1F
100
AcDbEntity
  8
0
100
AcDbCircle
 10
0.23622
 20
0.23622
 30
0.0
 40
0.1927514769831778
100
AcDbArc
 50
197.9141169555188
 51
207.085883044481
  0
ARC
  5
A1
330
1F
100
AcDbEntity
  8
0
100
AcDbCircle
 10
0.23622
 20
0.23622
 30
0.0
 40
0.1927514769831778
100
AcDbArc
 50
242.9141169555188
 51
252.085883044481
  0
ARC
  5
A2
330
1F
100
AcDbEntity
  8
0
100
AcDbCircle
 10
0.23622
 20
0.23622
 30
0.0
 40
0.1927514769831778
100
AcDbArc
 50
287.9141169555188
 51
297.085883044481
  0
ARC
  5
A3
330
1F
100
AcDbEntity
  8
0
100
AcDbCircle
 10
0.23622
 20
0.23622
 30
0.0
 40
0.1927514769831778
100
AcDbArc
 50
332.9141169555188
 51
342.085883044481
  0
ARC
  5
A4
330
1F
100
AcDbEntity
  8
0
100
AcDbCircle
 10
0.23622
 20
0.23622
 30
0.0
 40
0.1927514769831778
100
AcDbArc
 50
17.91411695551882
 51
27.08588304448101
  0
ARC
  5
A5
330
1F
100
AcDbEntity
  8
0
100
AcDbCircle
 10
0.23622
 20
0.23622
 30
0.0
 40
0.1927514769831778
100
AcDbArc
 50
62.91411695551886
 51
72.08588304448098
  0
ARC
  5
A6
330
1F
100
AcDbEntity
  8
0
100
AcDbCircle
 10
0.23622
 20
0.23622
 30
0.0
 40
0.2407928886469584
100
AcDbArc
 50
173.1183555751995
 51
186.8816444248001
  0
ARC
  5
A7
330
1F
100
AcDbEntity
  8
0
100
AcDbCircle
 10
0.23622
 20
0.23622
 30
0.0
 40
0.2407928886469584
100
AcDbArc
 50
218.1183555751996
 51
231.8816444248003
  0
ARC
  5
A8
330
1F
100
AcDbEntity
  8
0
100
AcDbCircle
 10
0.23622
 20
0.23622
 30
0.0
 40
0.2407928886469584
100
AcDbArc
 50
263.1183555751996
 51
276.8816444248002
  0
ARC
  5
A9
330
1F
100
AcDbEntity
  8
0
100
AcDbCircle
 10
0.23622
 20
0.23622
 30
0.0
 40
0.2407928886469584
100
AcDbArc
 50
308.1183555751996
 51
321.8816444248001
  0
ARC
  5
AA
330
1F
100
AcDbEntity
  8
0
100
AcDbCircle
 10
0.23622
 20
0.23622
 30
0.0
 40
0.2407928886469584
100
AcDbArc
 50
353.1183555751996
 51
6.881644424800233
  0
ARC
  5
AB
330
1F
100
AcDbEntity
  8
0
100
AcDbCircle
 10
0.23622
 20
0.23622
 30
0.0
 40
0.2407928886469584
100
AcDbArc
 50
38.11835557519961
 51
51.88164442480025
  0
ARC
  5
AC
330
1F
100
AcDbEntity
  8
0
100
AcDbCircle
 10
0.23622
 20
0.23622
 30
0.0
 40
0.2407928886469584
100
AcDbArc
 50
83.11835557519961
 51
96.88164442480029
  0
LINE
  5
B0
330
1F
100
AcDbEntity
  8
0
100
AcDbLine
 10
0.1900515545517427
 20
0.4551256206263489
 30
0.0
 11
0.190552003156544
 21
0.4389666268334204
 31
0.0
  0
LINE
  5
B1
330
1F
100
AcDbEntity
  8
0
100
AcDbLine
 10
0.1140763720685628
 20
0.4236556696380449
 30
0.0
 11
0.1251486355546034
 21
0.4118756649478235
 31
0.0
  0
LINE
  5
B3
330
1F
100
AcDbEntity
  8
0
100
AcDbLine
 10
0.017314379373651
 20
0.2823884454482574
 30
0.0
 11
0.0334733731665794
 21
0.2818879968434561
 31
0.0
  0
LINE
  5
B4
330
1F
100
AcDbEntity
  8
0
100
AcDbLine
 10
0.0487843303619549
 20
0.3583636279314373
 30
0.0
 11
0.0605643350521762
 21
0.3472913644453966
 31
0.0
  0
LINE
  5
B5
330
1F
100
AcDbEntity
  8
0
100
AcDbLine
 10
0.0487843303619547
 20
0.1140763720685629
 30
0.0
 11
0.0605643350521761
 21
0.1251486355546035
 31
0.0
  0
LINE
  5
B6
330
1F
100
AcDbEntity
  8
0
100
AcDbLine
 10
0.0173143793736509
 20
0.1900515545517428
 30
0.0
 11
0.0334733731665793
 21
0.1905520031565441
 31
0.0
  0
LINE
  5
B7
330
1F
100
AcDbEntity
  8
0
100
AcDbLine
 10
0.1900515545517425
 20
0.017314379373651
 30
0.0
 11
0.1905520031565437
 21
0.0334733731665794
 31
0.0
  0
LINE
  5
B8
330
1F
100
AcDbEntity
  8
0
100
AcDbLine
 10
0.1140763720685626
 20
0.0487843303619549
 30
0.0
 11
0.1251486355546033
 21
0.0605643350521762
 31
0.0
  0
LINE
  5
B9
330
1F
100
AcDbEntity
  8
0
100
AcDbLine
 10
0.358363627931437
 20
0.0487843303619547
 30
0.0
 11
0.3472913644453965
 21
0.0605643350521761
 31
0.0
  0
LINE
  5
BA
330
1F
100
AcDbEntity
  8
0
100
AcDbLine
 10
0.2823884454482571
 20
0.0173143793736509
 30
0.0
 11
0.2818879968434558
 21
0.0334733731665792
 31
0.0
  0
LINE
  5
BB
330
1F
100
AcDbEntity
  8
0
100
AcDbLine
 10
0.4551256206263489
 20
0.1900515545517425
 30
0.0
 11
0.4389666268334204
 21
0.1905520031565437
 31
0.0
  0
LINE
  5
BC
330
1F
100
AcDbEntity
  8
0
100
AcDbLine
 10
0.4236556696380449
 20
0.1140763720685626
 30
0.0
 11
0.4118756649478235
 21
0.1251486355546033
 31
0.0
  0
LINE
  5
BD
330
1F
100
AcDbEntity
  8
0
100
AcDbLine
 10
0.4236556696380453
 20
0.358363627931437
 30
0.0
 11
0.4118756649478238
 21
0.3472913644453963
 31
0.0
  0
LINE
  5
BE
330
1F
100
AcDbEntity
  8
0
100
AcDbLine
 10
0.4551256206263489
 20
0.282388445448257
 30
0.0
 11
0.4389666268334204
 21
0.2818879968434558
 31
0.0
  0
LINE
  5
BF
330
1F
100
AcDbEntity
  8
0
100
AcDbLine
 10
0.2823884454482577
 20
0.4551256206263489
 30
0.0
 11
0.2818879968434565
 21
0.4389666268334204
 31
0.0
  0
LINE
  5
C0
330
1F
100
AcDbEntity
  8
0
100
AcDbLine
 10
0.3583636279314375
 20
0.4236556696380449
 30
0.0
 11
0.3472913644453968
 21
0.4118756649478235
 31
0.0
  0
ARC
  5
C2
330
1F
100
AcDbEntity
  8
0
100
AcDbCircle
 10
0.2097271208209187
 20
0.4557349784746324
 30
0.0
 40
0.019685
100
AcDbArc
 50
96.88164442480031
 51
181.7738994798802
  0
ARC
  5
C3
330
1F
100
AcDbEntity
  8
0
100
AcDbCircle
 10
0.2627128791790817
 20
0.4557349784746324
 30
0.0
 40
0.019685
100
AcDbArc
 50
358.2261005201197
 51
83.11835557519961
  0
ARC
  5
C4
330
1F
100
AcDbEntity
  8
0
100
AcDbCircle
 10
0.3015635631126324
 20
0.438357268985137
 30
0.0
 40
0.019685
100
AcDbArc
 50
178.2261005201194
 51
252.085883044481
  0
ARC
  5
C5
330
1F
100
AcDbEntity
  8
0
100
AcDbCircle
 10
0.3329477570460866
 20
0.4253575102137527
 30
0.0
 40
0.019685
100
AcDbArc
 50
242.9141169555187
 51
316.7738994798806
  0
ARC
  5
C6
330
1F
100
AcDbEntity
  8
0
100
AcDbCircle
 10
0.3727072353307475
 20
0.4101738243721157
 30
0.0
 40
0.019685
100
AcDbArc
 50
51.88164442480032
 51
136.7738994798807
  0
ARC
  5
C7
330
1F
100
AcDbEntity
  8
0
100
AcDbCircle
 10
0.4101738243721161
 20
0.3727072353307471
 30
0.0
 40
0.019685
100
AcDbArc
 50
313.2261005201191
 51
38.11835557519968
  0
ARC
  5
C8
330
1F
100
AcDbEntity
  8
0
100
AcDbCircle
 10
0.425357510213753
 20
0.3329477570460861
 30
0.0
 40
0.019685
100
AcDbArc
 50
133.2261005201191
 51
207.0858830444811
  0
ARC
  5
C9
330
1F
100
AcDbEntity
  8
0
100
AcDbCircle
 10
0.438357268985137
 20
0.3015635631126318
 30
0.0
 40
0.019685
100
AcDbArc
 50
197.9141169555188
 51
271.7738994798804
  0
ARC
  5
CA
330
1F
100
AcDbEntity
  8
0
100
AcDbCircle
 10
0.4557349784746324
 20
0.2627128791790811
 30
0.0
 40
0.019685
100
AcDbArc
 50
6.881644424800247
 51
91.77389947988094
  0
ARC
  5
CB
330
1F
100
AcDbEntity
  8
0
100
AcDbCircle
 10
0.4557349784746324
 20
0.2097271208209184
 30
0.0
 40
0.019685
100
AcDbArc
 50
268.226100520119
 51
353.1183555751995
  0
ARC
  5
CC
330
1F
100
AcDbEntity
  8
0
100
AcDbCircle
 10
0.438357268985137
 20
0.1708764368873678
 30
0.0
 40
0.019685
100
AcDbArc
 50
88.22610052011929
 51
162.0858830444809
  0
ARC
  5
CD
330
1F
100
AcDbEntity
  8
0
100
AcDbCircle
 10
0.4253575102137527
 20
0.1394922429539133
 30
0.0
 40
0.019685
100
AcDbArc
 50
152.914116955519
 51
226.7738994798804
  0
ARC
  5
CE
330
1F
100
AcDbEntity
  8
0
100
AcDbCircle
 10
0.4101738243721157
 20
0.0997327646692526
 30
0.0
 40
0.019685
100
AcDbArc
 50
321.8816444247996
 51
46.77389947988081
  0
ARC
  5
CF
330
1F
100
AcDbEntity
  8
0
100
AcDbCircle
 10
0.3727072353307471
 20
0.0622661756278839
 30
0.0
 40
0.019685
100
AcDbArc
 50
223.2261005201191
 51
308.1183555751997
  0
ARC
  5
D0
330
1F
100
AcDbEntity
  8
0
100
AcDbCircle
 10
0.3329477570460863
 20
0.0470824897862469
 30
0.0
 40
0.019685
100
AcDbArc
 50
43.22610052011913
 51
117.085883044481
  0
ARC
  5
D1
330
1F
100
AcDbEntity
  8
0
100
AcDbCircle
 10
0.3015635631126318
 20
0.0340827310148627
 30
0.0
 40
0.019685
100
AcDbArc
 50
107.914116955519
 51
181.7738994798806
  0
ARC
  5
D2
330
1F
100
AcDbEntity
  8
0
100
AcDbCircle
 10
0.2627128791790811
 20
0.0167050215253675
 30
0.0
 40
0.019685
100
AcDbArc
 50
276.8816444248
 51
1.773899479880675
  0
ARC
  5
D3
330
1F
100
AcDbEntity
  8
0
100
AcDbCircle
 10
0.2097271208209184
 20
0.0167050215253676
 30
0.0
 40
0.019685
100
AcDbArc
 50
178.2261005201191
 51
263.1183555751995
  0
ARC
  5
D4
330
1F
100
AcDbEntity
  8
0
100
AcDbCircle
 10
0.1708764368873678
 20
0.0340827310148628
 30
0.0
 40
0.019685
100
AcDbArc
 50
358.226100520119
 51
72.08588304448088
  0
ARC
  5
D5
330
1F
100
AcDbEntity
  8
0
100
AcDbCircle
 10
0.1394922429539134
 20
0.0470824897862471
 30
0.0
 40
0.019685
100
AcDbArc
 50
62.91411695551895
 51
136.7738994798806
  0
ARC
  5
D6
330
1F
100
AcDbEntity
  8
0
100
AcDbCircle
 10
0.0997327646692526
 20
0.0622661756278841
 30
0.0
 40
0.019685
100
AcDbArc
 50
231.8816444248005
 51
316.7738994798804
  0
ARC
  5
D7
330
1F
100
AcDbEntity
  8
0
100
AcDbCircle
 10
0.0622661756278839
 20
0.0997327646692528
 30
0.0
 40
0.019685
100
AcDbArc
 50
133.2261005201192
 51
218.1183555751994
  0
ARC
  5
D8
330
1F
100
AcDbEntity
  8
0
100
AcDbCircle
 10
0.0470824897862469
 20
0.1394922429539137
 30
0.0
 40
0.019685
100
AcDbArc
 50
313.2261005201192
 51
27.08588304448105
  0
ARC
  5
D9
330
1F
100
AcDbEntity
  8
0
100
AcDbCircle
 10
0.0340827310148627
 20
0.1708764368873681
 30
0.0
 40
0.019685
100
AcDbArc
 50
17.91411695551879
 51
91.77389947988071
  0
ARC
  5
DA
330
1F
100
AcDbEntity
  8
0
100
AcDbCircle
 10
0.0167050215253675
 20
0.2097271208209187
 30
0.0
 40
0.019685
100
AcDbArc
 50
186.8816444248001
 51
271.7738994798807
  0
ARC
  5
DB
330
1F
100
AcDbEntity
  8
0
100
AcDbCircle
 10
0.0167050215253676
 20
0.2627128791790814
 30
0.0
 40
0.019685
100
AcDbArc
 50
88.22610052011929
 51
173.1183555751993
  0
ARC
  5
DC
330
1F
100
AcDbEntity
  8
0
100
AcDbCircle
 10
0.0340827310148628
 20
0.3015635631126321
 30
0.0
 40
0.019685
100
AcDbArc
 50
268.2261005201191
 51
342.085883044481
  0
ARC
  5
DD
330
1F
100
AcDbEntity
  8
0
100
AcDbCircle
 10
0.0470824897862471
 20
0.3329477570460866
 30
0.0
 40
0.019685
100
AcDbArc
 50
332.9141169555188
 51
46.77389947988074
  0
ARC
  5
DE
330
1F
100
AcDbEntity
  8
0
100
AcDbCircle
 10
0.0622661756278841
 20
0.3727072353307474
 30
0.0
 40
0.019685
100
AcDbArc
 50
141.8816444248001
 51
226.7738994798806
  0
ARC
  5
DF
330
1F
100
AcDbEntity
  8
0
100
AcDbCircle
 10
0.0997327646692527
 20
0.4101738243721161
 30
0.0
 40
0.019685
100
AcDbArc
 50
43.22610052011918
 51
128.1183555751997
  0
ARC
  5
E0
330
1F
100
AcDbEntity
  8
0
100
AcDbCircle
 10
0.1394922429539135
 20
0.425357510213753
 30
0.0
 40
0.019685
100
AcDbArc
 50
223.2261005201193
 51
297.0858830444811
  0
ARC
  5
E1
330
1F
100
AcDbEntity
  8
0
100
AcDbCircle
 10
0.1708764368873681
 20
0.438357268985137
 30
0.0
 40
0.019685
100
AcDbArc
 50
287.9141169555186
 51
1.773899479880733
  0
LINE
  5
EA
330
1F
100
AcDbEntity
  8
0
100
AcDbLine
 10
0.1743509469736187
 20
0.307635701506173
 30
0.0
 11
0.2980890530263813
 21
0.3076357015061731
 31
0.0
  0
ENDSEC
  0
SECTION
  2
OBJECTS
  0
DICTIONARY
  5
C
330
0
100
AcDbDictionary
  3
ACAD_GROUP
350
D
  3
ACAD_LAYOUT
350
1A
  3
ACAD_MLINESTYLE
350
17
  3
ACAD_PLOTSETTINGS
350
19
  3
ACAD_PLOTSTYLENAME
350
E
  3
ACDBHEADERROUNDTRIPXREC
350
11D
  3
ACDBVARIABLEDICTIONARY
350
66
  0
DICTIONARY
  5
110
330
1F
100
AcDbDictionary
280
     1
  3
ACAD_LAYOUTSELFREF
360
13D
  0
DICTIONARY
  5
112
330
58
100
AcDbDictionary
280
     1
  3
ACAD_LAYOUTSELFREF
360
13E
  0
DICTIONARY
  5
D
102
{ACAD_REACTORS
330
C
102
}
330
C
100
AcDbDictionary
  0
DICTIONARY
  5
1A
102
{ACAD_REACTORS
330
C
102
}
330
C
100
AcDbDictionary
  0
DICTIONARY
  5
17
102
{ACAD_REACTORS
330
C
102
}
330
C
100
AcDbDictionary
  3
STANDARD
350
18
  0
DICTIONARY
  5
19
102
{ACAD_REACTORS
330
C
102
}
330
C
100
AcDbDictionary
  0
ACDBDICTIONARYWDFLT
  5
E
102
{ACAD_REACTORS
330
C
102
}
330
C
100
AcDbDictionary
281
     1
  3
Normal
350
F
100
AcDbDictionaryWithDefault
340
F
  0
DICTIONARY
  5
11D
102
{ACAD_REACTORS
330
C
102
}
330
C
100
AcDbDictionary
  3
CEPSNTYPE
350
127
  3
FINGERPRINTGUID
350
128
  3
HYPERLINKBASE
350
120
  3
INSUNITS
350
126
  3
LAYOUTDICT
350
122
  3
LWETCUNION
350
125
  3
PLOTSETDICT
350
123
  3
PLOTSTYLNAMDICT
350
124
  3
PSVPSCALE
350
12A
  3
PUCSBASE
350
12D
  3
PUCSORGBACK
350
133
  3
PUCSORGBOTTOM
350
12F
  3
PUCSORGFRONT
350
132
  3
PUCSORGLEFT
350
130
  3
PUCSORGRIGHT
350
131
  3
PUCSORGTOP
350
12E
  3
PUCSORTHOREF
350
12B
  3
PUCSORTHOVIEW
350
12C
  3
STYLESHEET
350
121
  3
TSTACKALIGN
350
11E
  3
TSTACKSIZE
350
11F
  3
UCSBASE
350
136
  3
UCSORGBACK
350
13C
  3
UCSORGBOTTOM
350
138
  3
UCSORGFRONT
350
13B
  3
UCSORGLEFT
350
139
  3
UCSORGRIGHT
350
13A
  3
UCSORGTOP
350
137
  3
UCSORTHOREF
350
134
  3
UCSORTHOVIEW
350
135
  3
VERSIONGUID
350
129
  0
DICTIONARY
  5
66
102
{ACAD_REACTORS
330
C
102
}
330
C
100
AcDbDictionary
  3
DIMASSOC
350
67
  3
HIDETEXT
350
6B
  0
XRECORD
  5
13D
102
{ACAD_REACTORS
330
110
102
}
330
110
100
AcDbXrecord
340
1F
  0
XRECORD
  5
13E
102
{ACAD_REACTORS
330
112
102
}
330
112
100
AcDbXrecord
340
58
  0
MLINESTYLE
  5
18
102
{ACAD_REACTORS
330
17
102
}
330
17
100
AcDbMlineStyle
  2
STANDARD
 70
     0
  3

 62
   256
 51
90.0
 52
90.0
 71
     2
 49
0.5
 62
   256
  6
BYLAYER
 49
-0.5
 62
   256
  6
BYLAYER
  0
ACDBPLACEHOLDER
  5
F
102
{ACAD_REACTORS
330
E
102
}
330
E
100
AcDbPlaceHolder
280
     0
  0
XRECORD
  5
127
102
{ACAD_REACTORS
330
11D
102
}
330
11D
100
AcDbXrecord
 90
        0
  0
XRECORD
  5
128
102
{ACAD_REACTORS
330
11D
102
}
330
11D
100
AcDbXrecord
  1
{FDEAD576-A652-11D2-9A35-0060089B3A3F}
  0
XRECORD
  5
120
102
{ACAD_REACTORS
330
11D
102
}
330
11D
100
AcDbXrecord
  1

  0
XRECORD
  5
126
102
{ACAD_REACTORS
330
11D
102
}
330
11D
100
AcDbXrecord
 90
        1
  0
XRECORD
  5
122
102
{ACAD_REACTORS
330
11D
102
}
330
11D
100
AcDbXrecord
340
1A
  0
XRECORD
  5
125
102
{ACAD_REACTORS
330
11D
102
}
330
11D
100
AcDbXrecord
 90
    10781
  0
XRECORD
  5
123
102
{ACAD_REACTORS
330
11D
102
}
330
11D
100
AcDbXrecord
340
19
  0
XRECORD
  5
124
102
{ACAD_REACTORS
330
11D
102
}
330
11D
100
AcDbXrecord
340
E
  0
XRECORD
  5
12A
102
{ACAD_REACTORS
330
11D
102
}
330
11D
100
AcDbXrecord
 40
0.0
  0
XRECORD
  5
12D
102
{ACAD_REACTORS
330
11D
102
}
330
11D
100
AcDbXrecord
340
0
  0
XRECORD
  5
133
102
{ACAD_REACTORS
330
11D
102
}
330
11D
100
AcDbXrecord
 10
0.0
 20
0.0
 30
0.0
  0
XRECORD
  5
12F
102
{ACAD_REACTORS
330
11D
102
}
330
11D
100
AcDbXrecord
 10
0.0
 20
0.0
 30
0.0
  0
XRECORD
  5
132
102
{ACAD_REACTORS
330
11D
102
}
330
11D
100
AcDbXrecord
 10
0.0
 20
0.0
 30
0.0
  0
XRECORD
  5
130
102
{ACAD_REACTORS
330
11D
102
}
330
11D
100
AcDbXrecord
 10
0.0
 20
0.0
 30
0.0
  0
XRECORD
  5
131
102
{ACAD_REACTORS
330
11D
102
}
330
11D
100
AcDbXrecord
 10
0.0
 20
0.0
 30
0.0
  0
XRECORD
  5
12E
102
{ACAD_REACTORS
330
11D
102
}
330
11D
100
AcDbXrecord
 10
0.0
 20
0.0
 30
0.0
  0
XRECORD
  5
12B
102
{ACAD_REACTORS
330
11D
102
}
330
11D
100
AcDbXrecord
340
0
  0
XRECORD
  5
12C
102
{ACAD_REACTORS
330
11D
102
}
330
11D
100
AcDbXrecord
 70
     0
  0
XRECORD
  5
121
102
{ACAD_REACTORS
330
11D
102
}
330
11D
100
AcDbXrecord
  1

  0
XRECORD
  5
11E
102
{ACAD_REACTORS
330
11D
102
}
330
11D
100
AcDbXrecord
 90
        1
  0
XRECORD
  5
11F
102
{ACAD_REACTORS
330
11D
102
}
330
11D
100
AcDbXrecord
 90
       70
  0
XRECORD
  5
136
102
{ACAD_REACTORS
330
11D
102
}
330
11D
100
AcDbXrecord
340
0
  0
XRECORD
  5
13C
102
{ACAD_REACTORS
330
11D
102
}
330
11D
100
AcDbXrecord
 10
0.0
 20
0.0
 30
0.0
  0
XRECORD
  5
138
102
{ACAD_REACTORS
330
11D
102
}
330
11D
100
AcDbXrecord
 10
0.0
 20
0.0
 30
0.0
  0
XRECORD
  5
13B
102
{ACAD_REACTORS
330
11D
102
}
330
11D
100
AcDbXrecord
 10
0.0
 20
0.0
 30
0.0
  0
XRECORD
  5
139
102
{ACAD_REACTORS
330
11D
102
}
330
11D
100
AcDbXrecord
 10
0.0
 20
0.0
 30
0.0
  0
XRECORD
  5
13A
102
{ACAD_REACTORS
330
11D
102
}
330
11D
100
AcDbXrecord
 10
0.0
 20
0.0
 30
0.0
  0
XRECORD
  5
137
102
{ACAD_REACTORS
330
11D
102
}
330
11D
100
AcDbXrecord
 10
0.0
 20
0.0
 30
0.0
  0
XRECORD
  5
134
102
{ACAD_REACTORS
330
11D
102
}
330
11D
100
AcDbXrecord
340
0
  0
XRECORD
  5
135
102
{ACAD_REACTORS
330
11D
102
}
330
11D
100
AcDbXrecord
 70
     0
  0
XRECORD
  5
129
102
{ACAD_REACTORS
330
11D
102
}
330
11D
100
AcDbXrecord
  1
{69E48F13-153E-45AF-B85A-A86311ACA19D}
  0
DICTIONARYVAR
  5
67
102
{ACAD_REACTORS
330
66
102
}
330
66
100
DictionaryVariables
280
     0
  1
2
  0
DICTIONARYVAR
  5
6B
102
{ACAD_REACTORS
330
66
102
}
330
66
100
DictionaryVariables
280
     0
  1
1
  0
ENDSEC
  0
EOF
