999
Inkscape export via OpenSCAD DXF Export
  0
SECTION
  2
HEADER
  9
$ACADVER
  1
AC1014
  9
$HANDSEED
  5
FFFF
  9
$MEASUREMENT
 70
     1
  0
ENDSEC
  0
SECTION
  2
TABLES
  0
TABLE
  2
VPORT
  5
8
330
0
100
AcDbSymbolTable
 70
     4
  0
VPORT
  5
2E
330
8
100
AcDbSymbolTableRecord
100
AcDbViewportTableRecord
  2
*ACTIVE
 70
     0
 10
0.0
 20
0.0
 11
1.0
 21
1.0
 12
210.0
 22
148.5
 13
0.0
 23
0.0
 14
10.0
 24
10.0
 15
10.0
 25
10.0
 16
0.0
 26
0.0
 36
1.0
 17
0.0
 27
0.0
 37
0.0
 40
341.0
 41
1.24
 42
50.0
 43
0.0
 44
0.0
 50
0.0
 51
0.0
 71
     0
 72
   100
 73
     1
 74
     3
 75
     0
 76
     0
 77
     0
 78
     0
  0
ENDTAB
  0
TABLE
  2
LTYPE
  5
5
330
0
100
AcDbSymbolTable
 70
     1
  0
LTYPE
  5
14
330
5
100
AcDbSymbolTableRecord
100
AcDbLinetypeTableRecord
  2
BYBLOCK
 70
     0
  3

 72
    65
 73
     0
 40
0.0
  0
LTYPE
  5
15
330
5
100
AcDbSymbolTableRecord
100
AcDbLinetypeTableRecord
  2
BYLAYER
 70
     0
  3

 72
    65
 73
     0
 40
0.0
  0
LTYPE
  5
16
330
5
100
AcDbSymbolTableRecord
100
AcDbLinetypeTableRecord
  2
CONTINUOUS
 70
     0
  3
Solid line
 72
    65
 73
     0
 40
0.0
  0
ENDTAB
  0
TABLE
0
TABLE
2
LAYER
5
2
330
0
100
AcDbSymbolTable
70
2
0
LAYER
5
10
330
2
100
AcDbSymbolTableRecord
100
AcDbLayerTableRecord
2
Layer_1
70
0
62
7
6
CONTINUOUS
0
LAYER
5
10
330
2
100
AcDbSymbolTableRecord
100
AcDbLayerTableRecord
2
FEUILLE_DANS_LA_VUE_1_DRAW
70
0
62
7
6
CONTINUOUS
0
ENDTAB
0
ENDSEC
  0
ENDTAB
  0
TABLE
  2
STYLE
  5
3
330
0
100
AcDbSymbolTable
 70
     1
  0
STYLE
  5
11
330
3
100
AcDbSymbolTableRecord
100
AcDbTextStyleTableRecord
  2
STANDARD
 70
     0
 40
0.0
 41
1.0
 50
0.0
 71
     0
 42
2.5
  3
txt
  4

  0
ENDTAB
  0
TABLE
  2
VIEW
  5
6
330
0
100
AcDbSymbolTable
 70
     0
  0
ENDTAB
  0
TABLE
  2
UCS
  5
7
330
0
100
AcDbSymbolTable
 70
     0
  0
ENDTAB
  0
TABLE
  2
APPID
  5
9
330
0
100
AcDbSymbolTable
 70
     2
  0
APPID
  5
12
330
9
100
AcDbSymbolTableRecord
100
AcDbRegAppTableRecord
  2
ACAD
 70
     0
  0
ENDTAB
  0
TABLE
  2
DIMSTYLE
  5
A
330
0
100
AcDbSymbolTable
 70
     1
  0
DIMSTYLE
105
27
330
A
100
AcDbSymbolTableRecord
100
AcDbDimStyleTableRecord
  2
ISO-25
 70
     0
  3

  4

  5

  6

  7

 40
1.0
 41
2.5
 42
0.625
 43
3.75
 44
1.25
 45
0.0
 46
0.0
 47
0.0
 48
0.0
140
2.5
141
2.5
142
0.0
143
0.03937007874016
144
1.0
145
0.0
146
1.0
147
0.625
 71
     0
 72
     0
 73
     0
 74
     0
 75
     0
 76
     0
 77
     1
 78
     8
170
     0
171
     3
172
     1
173
     0
174
     0
175
     0
176
     0
177
     0
178
     0
270
     2
271
     2
272
     2
273
     2
274
     3
340
11
275
     0
280
     0
281
     0
282
     0
283
     0
284
     8
285
     0
286
     0
287
     3
288
     0
  0
ENDTAB
  0
TABLE
  2
BLOCK_RECORD
  5
1
330
0
100
AcDbSymbolTable
 70
     1
  0
BLOCK_RECORD
  5
1F
330
1
100
AcDbSymbolTableRecord
100
AcDbBlockTableRecord
  2
*MODEL_SPACE
  0
BLOCK_RECORD
  5
1B
330
1
100
AcDbSymbolTableRecord
100
AcDbBlockTableRecord
  2
*PAPER_SPACE
  0
ENDTAB
  0
ENDSEC
  0
SECTION
  2
BLOCKS
  0
BLOCK
  5
20
330
1F
100
AcDbEntity
  8
0
100
AcDbBlockBegin
  2
*MODEL_SPACE
 70
     0
 10
0.0
 20
0.0
 30
0.0
  3
*MODEL_SPACE
  1

  0
ENDBLK
  5
21
330
1F
100
AcDbEntity
  8
0
100
AcDbBlockEnd
  0
BLOCK
  5
1C
330
1B
100
AcDbEntity
 67
     1
  8
0
100
AcDbBlockBegin
  2
*PAPER_SPACE
  1

  0
ENDBLK
  5
1D
330
1B
100
AcDbEntity
 67
     1
  8
0
100
AcDbBlockEnd
  0
ENDSEC
  0
SECTION
  2
ENTITIES
0
DIMENSION
5
83
100
AcDbEntity
62
256
370
-1
6
ByLayer
1
total_width
3
Standard
70
0
71
5
72
1
41
1.0
100
AcDbAlignedDimension
13
-0.846667
23
0.000000
33
0.0
14
275.230525
24
0.000000
34
0.0
50
0.000000
100
AcDbRotatedDimension
0
DIMENSION
5
83
100
AcDbEntity
62
256
370
-1
6
ByLayer
1
total_minx
3
Standard
70
0
71
5
72
1
41
1.0
100
AcDbAlignedDimension
13
-0.846667
23
0.000000
33
0.0
14
0.000000
24
0.000000
34
0.0
50
0.000000
100
AcDbRotatedDimension
0
DIMENSION
5
83
100
AcDbEntity
62
256
370
-1
6
ByLayer
1
total_maxx
3
Standard
70
0
71
5
72
1
41
1.0
100
AcDbAlignedDimension
13
0.000000
23
0.000000
33
0.0
14
275.230525
24
0.000000
34
0.0
50
0.000000
100
AcDbRotatedDimension
0
DIMENSION
5
83
100
AcDbEntity
62
256
370
-1
6
ByLayer
1
total_height
3
Standard
70
0
71
5
72
1
41
1.0
100
AcDbAlignedDimension
13
0.000000
23
9.141093
33
0.0
14
0.000000
24
306.411094
34
0.0
50
90.000000
100
AcDbRotatedDimension
0
DIMENSION
5
83
100
AcDbEntity
62
256
370
-1
6
ByLayer
1
total_miny
3
Standard
70
0
71
5
72
1
41
1.0
100
AcDbAlignedDimension
13
9.141093
23
0.000000
33
0.0
14
0.000000
24
0.000000
34
0.0
50
0.000000
100
AcDbRotatedDimension
0
DIMENSION
5
83
100
AcDbEntity
62
256
370
-1
6
ByLayer
1
total_maxy
3
Standard
70
0
71
5
72
1
41
1.0
100
AcDbAlignedDimension
13
0.000000
23
0.000000
33
0.0
14
306.411094
24
0.000000
34
0.0
50
0.000000
100
AcDbRotatedDimension
0
DIMENSION
8
Layer_1
5
83
100
AcDbEntity
62
256
370
-1
6
ByLayer
1
Layer_1_width
3
Standard
70
0
71
5
72
1
41
1.0
100
AcDbAlignedDimension
13
-0.846667
23
0.000000
33
0.0
14
2.257778
24
0.000000
34
0.0
50
0.000000
100
AcDbRotatedDimension
0
DIMENSION
8
Layer_1
5
83
100
AcDbEntity
62
256
370
-1
6
ByLayer
1
Layer_1_minx
3
Standard
70
0
71
5
72
1
41
1.0
100
AcDbAlignedDimension
13
-0.846667
23
0.000000
33
0.0
14
0.000000
24
0.000000
34
0.0
50
0.000000
100
AcDbRotatedDimension
0
DIMENSION
8
Layer_1
5
83
100
AcDbEntity
62
256
370
-1
6
ByLayer
1
Layer_1_maxx
3
Standard
70
0
71
5
72
1
41
1.0
100
AcDbAlignedDimension
13
0.000000
23
0.000000
33
0.0
14
2.257778
24
0.000000
34
0.0
50
0.000000
100
AcDbRotatedDimension
0
DIMENSION
8
Layer_1
5
83
100
AcDbEntity
62
256
370
-1
6
ByLayer
1
Layer_1_height
3
Standard
70
0
71
5
72
1
41
1.0
100
AcDbAlignedDimension
13
0.000000
23
302.742205
33
0.0
14
0.000000
24
306.411094
34
0.0
50
90.000000
100
AcDbRotatedDimension
0
DIMENSION
8
Layer_1
5
83
100
AcDbEntity
62
256
370
-1
6
ByLayer
1
Layer_1_miny
3
Standard
70
0
71
5
72
1
41
1.0
100
AcDbAlignedDimension
13
302.742205
23
0.000000
33
0.0
14
0.000000
24
0.000000
34
0.0
50
0.000000
100
AcDbRotatedDimension
0
DIMENSION
8
Layer_1
5
83
100
AcDbEntity
62
256
370
-1
6
ByLayer
1
Layer_1_maxy
3
Standard
70
0
71
5
72
1
41
1.0
100
AcDbAlignedDimension
13
0.000000
23
0.000000
33
0.0
14
306.411094
24
0.000000
34
0.0
50
0.000000
100
AcDbRotatedDimension
0
DIMENSION
8
FEUILLE_DANS_LA_VUE_1_DRAW
5
83
100
AcDbEntity
62
256
370
-1
6
ByLayer
1
FEUILLE_DANS_LA_VUE_1_DRAW_width
3
Standard
70
0
71
5
72
1
41
1.0
100
AcDbAlignedDimension
13
1.141111
23
0.000000
33
0.0
14
275.230525
24
0.000000
34
0.0
50
0.000000
100
AcDbRotatedDimension
0
DIMENSION
8
FEUILLE_DANS_LA_VUE_1_DRAW
5
83
100
AcDbEntity
62
256
370
-1
6
ByLayer
1
FEUILLE_DANS_LA_VUE_1_DRAW_minx
3
Standard
70
0
71
5
72
1
41
1.0
100
AcDbAlignedDimension
13
1.141111
23
0.000000
33
0.0
14
0.000000
24
0.000000
34
0.0
50
0.000000
100
AcDbRotatedDimension
0
DIMENSION
8
FEUILLE_DANS_LA_VUE_1_DRAW
5
83
100
AcDbEntity
62
256
370
-1
6
ByLayer
1
FEUILLE_DANS_LA_VUE_1_DRAW_maxx
3
Standard
70
0
71
5
72
1
41
1.0
100
AcDbAlignedDimension
13
0.000000
23
0.000000
33
0.0
14
275.230525
24
0.000000
34
0.0
50
0.000000
100
AcDbRotatedDimension
0
DIMENSION
8
FEUILLE_DANS_LA_VUE_1_DRAW
5
83
100
AcDbEntity
62
256
370
-1
6
ByLayer
1
FEUILLE_DANS_LA_VUE_1_DRAW_height
3
Standard
70
0
71
5
72
1
41
1.0
100
AcDbAlignedDimension
13
0.000000
23
9.141093
33
0.0
14
0.000000
24
146.109241
34
0.0
50
90.000000
100
AcDbRotatedDimension
0
DIMENSION
8
FEUILLE_DANS_LA_VUE_1_DRAW
5
83
100
AcDbEntity
62
256
370
-1
6
ByLayer
1
FEUILLE_DANS_LA_VUE_1_DRAW_miny
3
Standard
70
0
71
5
72
1
41
1.0
100
AcDbAlignedDimension
13
9.141093
23
0.000000
33
0.0
14
0.000000
24
0.000000
34
0.0
50
0.000000
100
AcDbRotatedDimension
0
DIMENSION
8
FEUILLE_DANS_LA_VUE_1_DRAW
5
83
100
AcDbEntity
62
256
370
-1
6
ByLayer
1
FEUILLE_DANS_LA_VUE_1_DRAW_maxy
3
Standard
70
0
71
5
72
1
41
1.0
100
AcDbAlignedDimension
13
0.000000
23
0.000000
33
0.0
14
146.109241
24
0.000000
34
0.0
50
0.000000
100
AcDbRotatedDimension
62
0
0
LWPOLYLINE
100
AcDbPolyline
8
Layer_1
90
2
70
0
10
0.846667
20
305.846649
30
0.0
10
-0.846667
20
304.153316
30
0.0
62
0
0
LWPOLYLINE
100
AcDbPolyline
8
Layer_1
90
2
70
0
10
0.000000
20
306.411094
30
0.0
10
0.000000
20
303.588872
30
0.0
62
0
0
LWPOLYLINE
100
AcDbPolyline
8
Layer_1
90
2
70
0
10
2.257778
20
303.871094
30
0.0
10
1.128889
20
302.742205
30
0.0
62
0
0
LWPOLYLINE
100
AcDbPolyline
8
Layer_1
90
2
70
0
10
1.693333
20
304.435538
30
0.0
10
0.564444
20
303.306649
30
0.0
62
0
0
LWPOLYLINE
100
AcDbPolyline
8
Layer_1
90
2
70
0
10
1.128889
20
304.999983
30
0.0
10
0.000000
20
303.871094
30
0.0
62
255
0
LWPOLYLINE
100
AcDbPolyline
8
FEUILLE_DANS_LA_VUE_1_DRAW
90
2
70
0
10
55.230525
20
86.109243
30
0.0
10
65.230527
20
96.109242
30
0.0
62
255
0
LWPOLYLINE
100
AcDbPolyline
8
FEUILLE_DANS_LA_VUE_1_DRAW
90
2
70
0
10
35.230525
20
116.109242
30
0.0
10
45.230525
20
116.109242
30
0.0
62
255
0
LWPOLYLINE
100
AcDbPolyline
8
FEUILLE_DANS_LA_VUE_1_DRAW
90
2
70
0
10
45.230525
20
106.280472
30
0.0
10
35.230525
20
106.280472
30
0.0
62
255
0
LWPOLYLINE
100
AcDbPolyline
8
FEUILLE_DANS_LA_VUE_1_DRAW
90
2
70
0
10
275.230525
20
106.280472
30
0.0
10
265.230525
20
106.280472
30
0.0
62
255
0
LWPOLYLINE
100
AcDbPolyline
8
FEUILLE_DANS_LA_VUE_1_DRAW
90
2
70
0
10
45.230525
20
86.109243
30
0.0
10
55.230525
20
86.109243
30
0.0
62
255
0
LWPOLYLINE
100
AcDbPolyline
8
FEUILLE_DANS_LA_VUE_1_DRAW
90
2
70
0
10
265.230525
20
136.109242
30
0.0
10
275.230525
20
136.109242
30
0.0
62
255
0
LWPOLYLINE
100
AcDbPolyline
8
FEUILLE_DANS_LA_VUE_1_DRAW
90
2
70
0
10
65.230527
20
96.109242
30
0.0
10
245.230526
20
96.109242
30
0.0
62
255
0
LWPOLYLINE
100
AcDbPolyline
8
FEUILLE_DANS_LA_VUE_1_DRAW
90
2
70
0
10
265.230525
20
116.109242
30
0.0
10
275.230525
20
116.109242
30
0.0
62
255
0
LWPOLYLINE
100
AcDbPolyline
8
FEUILLE_DANS_LA_VUE_1_DRAW
90
2
70
0
10
35.230525
20
136.109242
30
0.0
10
45.230525
20
136.109242
30
0.0
62
255
0
LWPOLYLINE
100
AcDbPolyline
8
FEUILLE_DANS_LA_VUE_1_DRAW
90
2
70
0
10
35.230525
20
146.109241
30
0.0
10
35.230525
20
136.109242
30
0.0
62
255
0
LWPOLYLINE
100
AcDbPolyline
8
FEUILLE_DANS_LA_VUE_1_DRAW
90
2
70
0
10
45.230525
20
116.109242
30
0.0
10
45.230525
20
106.280472
30
0.0
62
255
0
LWPOLYLINE
100
AcDbPolyline
8
FEUILLE_DANS_LA_VUE_1_DRAW
90
2
70
0
10
275.230525
20
96.109242
30
0.0
10
275.230525
20
106.280472
30
0.0
62
255
0
LWPOLYLINE
100
AcDbPolyline
8
FEUILLE_DANS_LA_VUE_1_DRAW
90
2
70
0
10
45.230525
20
96.109242
30
0.0
10
45.230525
20
86.109243
30
0.0
62
255
0
LWPOLYLINE
100
AcDbPolyline
8
FEUILLE_DANS_LA_VUE_1_DRAW
90
2
70
0
10
245.230526
20
96.109242
30
0.0
10
255.230526
20
86.109243
30
0.0
62
255
0
LWPOLYLINE
100
AcDbPolyline
8
FEUILLE_DANS_LA_VUE_1_DRAW
90
2
70
0
10
275.230525
20
116.109242
30
0.0
10
275.230525
20
126.109242
30
0.0
62
255
0
LWPOLYLINE
100
AcDbPolyline
8
FEUILLE_DANS_LA_VUE_1_DRAW
90
2
70
0
10
45.230525
20
136.109242
30
0.0
10
45.230525
20
126.109242
30
0.0
62
255
0
LWPOLYLINE
100
AcDbPolyline
8
FEUILLE_DANS_LA_VUE_1_DRAW
90
2
70
0
10
275.230525
20
146.109241
30
0.0
10
35.230525
20
146.109241
30
0.0
62
255
0
LWPOLYLINE
100
AcDbPolyline
8
FEUILLE_DANS_LA_VUE_1_DRAW
90
2
70
0
10
265.230525
20
96.109242
30
0.0
10
275.230525
20
96.109242
30
0.0
62
255
0
LWPOLYLINE
100
AcDbPolyline
8
FEUILLE_DANS_LA_VUE_1_DRAW
90
2
70
0
10
35.230525
20
96.109242
30
0.0
10
45.230525
20
96.109242
30
0.0
62
255
0
LWPOLYLINE
100
AcDbPolyline
8
FEUILLE_DANS_LA_VUE_1_DRAW
90
2
70
0
10
255.230526
20
86.109243
30
0.0
10
265.230525
20
86.109243
30
0.0
62
255
0
LWPOLYLINE
100
AcDbPolyline
8
FEUILLE_DANS_LA_VUE_1_DRAW
90
2
70
0
10
275.230525
20
126.109242
30
0.0
10
265.230525
20
126.109242
30
0.0
62
255
0
LWPOLYLINE
100
AcDbPolyline
8
FEUILLE_DANS_LA_VUE_1_DRAW
90
2
70
0
10
35.230525
20
126.109242
30
0.0
10
35.230525
20
116.109242
30
0.0
62
255
0
LWPOLYLINE
100
AcDbPolyline
8
FEUILLE_DANS_LA_VUE_1_DRAW
90
2
70
0
10
265.230525
20
86.109243
30
0.0
10
265.230525
20
96.109242
30
0.0
62
255
0
LWPOLYLINE
100
AcDbPolyline
8
FEUILLE_DANS_LA_VUE_1_DRAW
90
2
70
0
10
35.230525
20
106.280472
30
0.0
10
35.230525
20
96.109242
30
0.0
62
255
0
LWPOLYLINE
100
AcDbPolyline
8
FEUILLE_DANS_LA_VUE_1_DRAW
90
2
70
0
10
265.230525
20
106.280472
30
0.0
10
265.230525
20
116.109242
30
0.0
62
255
0
LWPOLYLINE
100
AcDbPolyline
8
FEUILLE_DANS_LA_VUE_1_DRAW
90
2
70
0
10
275.230525
20
136.109242
30
0.0
10
275.230525
20
146.109241
30
0.0
62
255
0
LWPOLYLINE
100
AcDbPolyline
8
FEUILLE_DANS_LA_VUE_1_DRAW
90
2
70
0
10
45.230525
20
126.109242
30
0.0
10
35.230525
20
126.109242
30
0.0
62
255
0
LWPOLYLINE
100
AcDbPolyline
8
FEUILLE_DANS_LA_VUE_1_DRAW
90
2
70
0
10
265.230525
20
126.109242
30
0.0
10
265.230525
20
136.109242
30
0.0
62
255
0
LWPOLYLINE
100
AcDbPolyline
8
FEUILLE_DANS_LA_VUE_1_DRAW
90
9
70
0
10
153.141113
20
29.312811
30
0.0
10
153.377242
20
28.145493
30
0.0
10
154.020252
20
27.192332
30
0.0
10
154.973692
20
26.549735
30
0.0
10
156.141112
20
26.314112
30
0.0
10
157.308532
20
26.549735
30
0.0
10
158.261973
20
27.192332
30
0.0
10
158.904983
20
28.145493
30
0.0
10
159.141112
20
29.312811
30
0.0
62
255
0
LWPOLYLINE
100
AcDbPolyline
8
FEUILLE_DANS_LA_VUE_1_DRAW
90
9
70
0
10
159.141112
20
59.141117
30
0.0
10
158.904983
20
60.308435
30
0.0
10
158.261973
20
61.261596
30
0.0
10
157.308532
20
61.904193
30
0.0
10
156.141112
20
62.139816
30
0.0
10
154.973692
20
61.904193
30
0.0
10
154.020252
20
61.261596
30
0.0
10
153.377242
20
60.308435
30
0.0
10
153.141113
20
59.141117
30
0.0
62
255
0
LWPOLYLINE
100
AcDbPolyline
8
FEUILLE_DANS_LA_VUE_1_DRAW
90
2
70
0
10
1.141111
20
39.141115
30
0.0
10
1.141111
20
29.312348
30
0.0
62
255
0
LWPOLYLINE
100
AcDbPolyline
8
FEUILLE_DANS_LA_VUE_1_DRAW
90
2
70
0
10
11.141111
20
59.141117
30
0.0
10
1.141111
20
59.141117
30
0.0
62
255
0
LWPOLYLINE
100
AcDbPolyline
8
FEUILLE_DANS_LA_VUE_1_DRAW
90
2
70
0
10
11.141111
20
39.141115
30
0.0
10
1.141111
20
39.141115
30
0.0
62
255
0
LWPOLYLINE
100
AcDbPolyline
8
FEUILLE_DANS_LA_VUE_1_DRAW
90
2
70
0
10
271.141114
20
19.141101
30
0.0
10
261.141114
20
19.141101
30
0.0
62
255
0
LWPOLYLINE
100
AcDbPolyline
8
FEUILLE_DANS_LA_VUE_1_DRAW
90
13
70
0
10
99.141116
20
59.141117
30
0.0
10
99.037270
20
59.923871
30
0.0
10
98.739192
20
60.641118
30
0.0
10
98.267077
20
61.257884
30
0.0
10
97.641116
20
61.739194
30
0.0
10
96.911308
20
62.040637
30
0.0
10
96.141115
20
62.141118
30
0.0
10
95.370922
20
62.040637
30
0.0
10
94.641115
20
61.739194
30
0.0
10
94.015154
20
61.257884
30
0.0
10
93.543038
20
60.641118
30
0.0
10
93.244961
20
59.923871
30
0.0
10
93.141114
20
59.141117
30
0.0
62
255
0
LWPOLYLINE
100
AcDbPolyline
8
FEUILLE_DANS_LA_VUE_1_DRAW
90
2
70
0
10
133.141113
20
59.141117
30
0.0
10
133.141113
20
29.312811
30
0.0
62
255
0
LWPOLYLINE
100
AcDbPolyline
8
FEUILLE_DANS_LA_VUE_1_DRAW
90
2
70
0
10
93.141114
20
59.141117
30
0.0
10
93.141114
20
29.312811
30
0.0
62
255
0
LWPOLYLINE
100
AcDbPolyline
8
FEUILLE_DANS_LA_VUE_1_DRAW
90
9
70
0
10
133.141113
20
29.312811
30
0.0
10
133.377243
20
28.145493
30
0.0
10
134.020253
20
27.192332
30
0.0
10
134.973693
20
26.549735
30
0.0
10
136.141113
20
26.314112
30
0.0
10
137.308533
20
26.549735
30
0.0
10
138.261973
20
27.192332
30
0.0
10
138.904983
20
28.145493
30
0.0
10
139.141113
20
29.312811
30
0.0
62
255
0
LWPOLYLINE
100
AcDbPolyline
8
FEUILLE_DANS_LA_VUE_1_DRAW
90
2
70
0
10
173.141112
20
59.141117
30
0.0
10
173.141112
20
29.312811
30
0.0
62
255
0
LWPOLYLINE
100
AcDbPolyline
8
FEUILLE_DANS_LA_VUE_1_DRAW
90
2
70
0
10
261.141114
20
59.141117
30
0.0
10
261.141114
20
69.141117
30
0.0
62
255
0
LWPOLYLINE
100
AcDbPolyline
8
FEUILLE_DANS_LA_VUE_1_DRAW
90
2
70
0
10
1.141111
20
19.141101
30
0.0
10
1.141111
20
9.141093
30
0.0
62
255
0
LWPOLYLINE
100
AcDbPolyline
8
FEUILLE_DANS_LA_VUE_1_DRAW
90
2
70
0
10
271.141114
20
19.141101
30
0.0
10
271.141114
20
9.141093
30
0.0
62
255
0
LWPOLYLINE
100
AcDbPolyline
8
FEUILLE_DANS_LA_VUE_1_DRAW
90
2
70
0
10
271.141114
20
59.141117
30
0.0
10
271.141114
20
49.141118
30
0.0
62
255
0
LWPOLYLINE
100
AcDbPolyline
8
FEUILLE_DANS_LA_VUE_1_DRAW
90
2
70
0
10
11.141111
20
29.312348
30
0.0
10
11.141111
20
19.141101
30
0.0
62
255
0
LWPOLYLINE
100
AcDbPolyline
8
FEUILLE_DANS_LA_VUE_1_DRAW
90
2
70
0
10
1.141111
20
59.141117
30
0.0
10
1.141111
20
49.141118
30
0.0
62
255
0
LWPOLYLINE
100
AcDbPolyline
8
FEUILLE_DANS_LA_VUE_1_DRAW
90
2
70
0
10
11.141111
20
49.141118
30
0.0
10
11.141111
20
39.141115
30
0.0
62
255
0
LWPOLYLINE
100
AcDbPolyline
8
FEUILLE_DANS_LA_VUE_1_DRAW
90
2
70
0
10
1.141111
20
29.312348
30
0.0
10
11.141111
20
29.312348
30
0.0
62
255
0
LWPOLYLINE
100
AcDbPolyline
8
FEUILLE_DANS_LA_VUE_1_DRAW
90
13
70
0
10
119.141113
20
59.141117
30
0.0
10
119.037897
20
59.924451
30
0.0
10
118.740160
20
60.642347
30
0.0
10
118.268110
20
61.259754
30
0.0
10
117.641954
20
61.741619
30
0.0
10
116.911764
20
62.043426
30
0.0
10
116.141113
20
62.144028
30
0.0
10
115.370463
20
62.043426
30
0.0
10
114.640273
20
61.741619
30
0.0
10
114.014117
20
61.259754
30
0.0
10
113.542067
20
60.642347
30
0.0
10
113.244330
20
59.924451
30
0.0
10
113.141114
20
59.141117
30
0.0
62
255
0
LWPOLYLINE
100
AcDbPolyline
8
FEUILLE_DANS_LA_VUE_1_DRAW
90
2
70
0
10
271.141114
20
9.141093
30
0.0
10
251.141114
20
9.141093
30
0.0
62
255
0
LWPOLYLINE
100
AcDbPolyline
8
FEUILLE_DANS_LA_VUE_1_DRAW
90
2
70
0
10
11.141111
20
69.141117
30
0.0
10
11.141111
20
59.141117
30
0.0
62
255
0
LWPOLYLINE
100
AcDbPolyline
8
FEUILLE_DANS_LA_VUE_1_DRAW
90
13
70
0
10
179.141114
20
59.141117
30
0.0
10
179.037268
20
59.923871
30
0.0
10
178.739190
20
60.641118
30
0.0
10
178.267075
20
61.257884
30
0.0
10
177.641114
20
61.739194
30
0.0
10
176.911306
20
62.040637
30
0.0
10
176.141113
20
62.141118
30
0.0
10
175.370920
20
62.040637
30
0.0
10
174.641113
20
61.739194
30
0.0
10
174.015152
20
61.257884
30
0.0
10
173.543036
20
60.641118
30
0.0
10
173.244959
20
59.923871
30
0.0
10
173.141112
20
59.141117
30
0.0
62
255
0
LWPOLYLINE
100
AcDbPolyline
8
FEUILLE_DANS_LA_VUE_1_DRAW
90
2
70
0
10
261.141114
20
69.141117
30
0.0
10
11.141111
20
69.141117
30
0.0
62
255
0
LWPOLYLINE
100
AcDbPolyline
8
FEUILLE_DANS_LA_VUE_1_DRAW
90
2
70
0
10
261.141114
20
49.141118
30
0.0
10
271.141114
20
49.141118
30
0.0
62
255
0
LWPOLYLINE
100
AcDbPolyline
8
FEUILLE_DANS_LA_VUE_1_DRAW
90
2
70
0
10
1.141111
20
49.141118
30
0.0
10
11.141111
20
49.141118
30
0.0
62
255
0
LWPOLYLINE
100
AcDbPolyline
8
FEUILLE_DANS_LA_VUE_1_DRAW
90
2
70
0
10
261.141114
20
39.141115
30
0.0
10
261.141114
20
49.141118
30
0.0
62
255
0
LWPOLYLINE
100
AcDbPolyline
8
FEUILLE_DANS_LA_VUE_1_DRAW
90
9
70
0
10
93.141114
20
29.312811
30
0.0
10
93.376869
20
28.145075
30
0.0
10
94.019794
20
27.191490
30
0.0
10
94.973380
20
26.548565
30
0.0
10
96.141115
20
26.312810
30
0.0
10
97.308851
20
26.548565
30
0.0
10
98.262436
20
27.191490
30
0.0
10
98.905361
20
28.145075
30
0.0
10
99.141116
20
29.312811
30
0.0
62
255
0
LWPOLYLINE
100
AcDbPolyline
8
FEUILLE_DANS_LA_VUE_1_DRAW
90
2
70
0
10
113.141114
20
59.141117
30
0.0
10
113.141114
20
29.312811
30
0.0
62
255
0
LWPOLYLINE
100
AcDbPolyline
8
FEUILLE_DANS_LA_VUE_1_DRAW
90
9
70
0
10
139.141113
20
59.141117
30
0.0
10
138.904983
20
60.308435
30
0.0
10
138.261973
20
61.261596
30
0.0
10
137.308533
20
61.904193
30
0.0
10
136.141113
20
62.139816
30
0.0
10
134.973693
20
61.904193
30
0.0
10
134.020253
20
61.261596
30
0.0
10
133.377243
20
60.308435
30
0.0
10
133.141113
20
59.141117
30
0.0
62
255
0
LWPOLYLINE
100
AcDbPolyline
8
FEUILLE_DANS_LA_VUE_1_DRAW
90
2
70
0
10
251.141114
20
9.141093
30
0.0
10
241.141112
20
19.141101
30
0.0
62
255
0
LWPOLYLINE
100
AcDbPolyline
8
FEUILLE_DANS_LA_VUE_1_DRAW
90
2
70
0
10
261.141114
20
19.141101
30
0.0
10
261.141114
20
29.312348
30
0.0
62
255
0
LWPOLYLINE
100
AcDbPolyline
8
FEUILLE_DANS_LA_VUE_1_DRAW
90
2
70
0
10
139.141113
20
59.141117
30
0.0
10
139.141113
20
29.312811
30
0.0
62
255
0
LWPOLYLINE
100
AcDbPolyline
8
FEUILLE_DANS_LA_VUE_1_DRAW
90
2
70
0
10
99.141116
20
59.141117
30
0.0
10
99.141116
20
29.312811
30
0.0
62
255
0
LWPOLYLINE
100
AcDbPolyline
8
FEUILLE_DANS_LA_VUE_1_DRAW
90
2
70
0
10
159.141112
20
59.141117
30
0.0
10
159.141112
20
29.312811
30
0.0
62
255
0
LWPOLYLINE
100
AcDbPolyline
8
FEUILLE_DANS_LA_VUE_1_DRAW
90
2
70
0
10
179.141114
20
59.141117
30
0.0
10
179.141114
20
29.312811
30
0.0
62
255
0
LWPOLYLINE
100
AcDbPolyline
8
FEUILLE_DANS_LA_VUE_1_DRAW
90
13
70
0
10
173.141112
20
29.312811
30
0.0
10
173.244959
20
28.530057
30
0.0
10
173.543036
20
27.812810
30
0.0
10
174.015152
20
27.196044
30
0.0
10
174.641113
20
26.714734
30
0.0
10
175.370920
20
26.413291
30
0.0
10
176.141113
20
26.312810
30
0.0
10
176.911306
20
26.413291
30
0.0
10
177.641114
20
26.714734
30
0.0
10
178.267075
20
27.196044
30
0.0
10
178.739190
20
27.812810
30
0.0
10
179.037268
20
28.530057
30
0.0
10
179.141114
20
29.312811
30
0.0
62
255
0
LWPOLYLINE
100
AcDbPolyline
8
FEUILLE_DANS_LA_VUE_1_DRAW
90
2
70
0
10
21.141113
20
9.141093
30
0.0
10
31.141114
20
19.141101
30
0.0
62
255
0
LWPOLYLINE
100
AcDbPolyline
8
FEUILLE_DANS_LA_VUE_1_DRAW
90
2
70
0
10
271.141114
20
39.141115
30
0.0
10
271.141114
20
29.312348
30
0.0
62
255
0
LWPOLYLINE
100
AcDbPolyline
8
FEUILLE_DANS_LA_VUE_1_DRAW
90
9
70
0
10
113.141114
20
29.312811
30
0.0
10
113.377706
20
28.146009
30
0.0
10
114.020821
20
27.193371
30
0.0
10
114.974083
20
26.551180
30
0.0
10
116.141113
20
26.315719
30
0.0
10
117.308144
20
26.551180
30
0.0
10
118.261405
20
27.193371
30
0.0
10
118.904521
20
28.146009
30
0.0
10
119.141113
20
29.312811
30
0.0
62
255
0
LWPOLYLINE
100
AcDbPolyline
8
FEUILLE_DANS_LA_VUE_1_DRAW
90
2
70
0
10
11.141111
20
19.141101
30
0.0
10
1.141111
20
19.141101
30
0.0
62
255
0
LWPOLYLINE
100
AcDbPolyline
8
FEUILLE_DANS_LA_VUE_1_DRAW
90
2
70
0
10
271.141114
20
59.141117
30
0.0
10
261.141114
20
59.141117
30
0.0
62
255
0
LWPOLYLINE
100
AcDbPolyline
8
FEUILLE_DANS_LA_VUE_1_DRAW
90
2
70
0
10
271.141114
20
39.141115
30
0.0
10
261.141114
20
39.141115
30
0.0
62
255
0
LWPOLYLINE
100
AcDbPolyline
8
FEUILLE_DANS_LA_VUE_1_DRAW
90
2
70
0
10
153.141113
20
59.141117
30
0.0
10
153.141113
20
29.312811
30
0.0
62
255
0
LWPOLYLINE
100
AcDbPolyline
8
FEUILLE_DANS_LA_VUE_1_DRAW
90
2
70
0
10
119.141113
20
59.141117
30
0.0
10
119.141113
20
29.312811
30
0.0
62
255
0
LWPOLYLINE
100
AcDbPolyline
8
FEUILLE_DANS_LA_VUE_1_DRAW
90
2
70
0
10
31.141114
20
19.141101
30
0.0
10
241.141112
20
19.141101
30
0.0
62
255
0
LWPOLYLINE
100
AcDbPolyline
8
FEUILLE_DANS_LA_VUE_1_DRAW
90
2
70
0
10
1.141111
20
9.141093
30
0.0
10
21.141113
20
9.141093
30
0.0
62
255
0
LWPOLYLINE
100
AcDbPolyline
8
FEUILLE_DANS_LA_VUE_1_DRAW
90
2
70
0
10
261.141114
20
29.312348
30
0.0
10
271.141114
20
29.312348
30
0.0
  0
ENDSEC
  0
SECTION
  2
OBJECTS
  0
DICTIONARY
  5
C
330
0
100
AcDbDictionary
  3
ACAD_GROUP
350
D
  3
ACAD_MLINESTYLE
350
17
  0
DICTIONARY
  5
D
330
C
100
AcDbDictionary
  0
DICTIONARY
  5
1A
330
C
100
AcDbDictionary
  0
DICTIONARY
  5
17
330
C
100
AcDbDictionary
  3
STANDARD
350
18
  0
DICTIONARY
  5
19
330
C
100
AcDbDictionary
  0
ENDSEC
  0
EOF
