<?xml version="1.0" encoding="UTF-8" standalone="no"?>
<!-- Created with Inkscape (http://www.inkscape.org/) -->

<svg
   xmlns:dc="http://purl.org/dc/elements/1.1/"
   xmlns:cc="http://creativecommons.org/ns#"
   xmlns:rdf="http://www.w3.org/1999/02/22-rdf-syntax-ns#"
   xmlns:svg="http://www.w3.org/2000/svg"
   xmlns="http://www.w3.org/2000/svg"
   xmlns:sodipodi="http://sodipodi.sourceforge.net/DTD/sodipodi-0.dtd"
   xmlns:inkscape="http://www.inkscape.org/namespaces/inkscape"
   width="1417.3228"
   height="1062.9921"
   id="svg3054"
   version="1.1"
   inkscape:version="0.48.2 r9819"
   sodipodi:docname="stand6.svg">
  <defs
     id="defs3056" />
  <sodipodi:namedview
     inkscape:document-units="mm"
     pagecolor="#ffffff"
     bordercolor="#666666"
     borderopacity="1.0"
     inkscape:pageopacity="0.0"
     inkscape:pageshadow="2"
     inkscape:zoom="0.30699632"
     inkscape:cx="10.4089"
     inkscape:cy="591.84875"
     inkscape:current-layer="layer1"
     id="namedview3058"
     showgrid="false"
     units="mm"
     inkscape:window-width="961"
     inkscape:window-height="578"
     inkscape:window-x="-8"
     inkscape:window-y="-8"
     inkscape:window-maximized="1" />
  <metadata
     id="metadata3060">
    <rdf:RDF>
      <cc:Work
         rdf:about="">
        <dc:format>image/svg+xml</dc:format>
        <dc:type
           rdf:resource="http://purl.org/dc/dcmitype/StillImage" />
        <dc:title></dc:title>
      </cc:Work>
    </rdf:RDF>
  </metadata>
  <g
     inkscape:label="Layer 1"
     inkscape:groupmode="layer"
     id="layer1"
     transform="translate(0,318.89761)">
    <path
       style="fill:none;stroke:#000000;stroke-width:0.03543307;stroke-linecap:butt;stroke-linejoin:miter;stroke-miterlimit:4;stroke-opacity:1;stroke-dasharray:none"
       d="m 20.465966,326.26333 c 0,0 25.71764,2.5347 35.785732,-4 9.86477,-6.4028 17.85714,-30.4286 17.85714,-30.4286 L 41.073096,285.04903 162.19825,42.798745 278.91351,-190.63176 l 40.15356,26.51651 c 0,0 24.62337,-50.69333 11.35636,-70.42721 -5.05696,-7.52192 -26.49289,-6.12337 -26.49289,-6.12337 l -283.464574,0 0,38.12598 106.299214,0 0,14.17323 -106.299214,0 z"
       id="path3009"
       inkscape:connector-curvature="0"
       sodipodi:nodetypes="cacccccaccccccc" />
    <path
       style="fill:none;stroke:#000000;stroke-width:0.03543307;stroke-linecap:butt;stroke-linejoin:miter;stroke-miterlimit:4;stroke-opacity:1;stroke-dasharray:none"
       d="m 356.19608,403.10824 106.29924,-13 106.2992,-13 0,-16.2335 0,-4.2335 c -10.83858,-1.25561 -23.17485,-1.0393 -35.4331,0 l -35.4331,0 -35.433,0 0,-7.0867 0,-7.0866 53.1496,0 53.1496,0 0,-269.291339 0,-189.291321 -106.2992,0 0,-14.17322 70.8661,0 c 13.46251,1.49422 21.77942,1.45287 35.4331,0 l 0,-22.61166 0,-2.61165 -212.59844,-20 0,103.580998 100.00004,17.142863 0,336.000009 -100.00004,11.42862 z"
       id="path3817"
       inkscape:connector-curvature="0"
       sodipodi:nodetypes="cccccccccccccccccccccccccc" />
    <rect
       style="fill:none;stroke:#000000;stroke-width:0.03543307;stroke-miterlimit:4;stroke-opacity:1;stroke-dasharray:none"
       id="rect3039"
       width="35.433079"
       height="14.19643"
       x="197.6313"
       y="-202.576" />
    <path
       style="fill:none;stroke:#000000;stroke-width:0.03543307;stroke-linecap:butt;stroke-linejoin:miter;stroke-miterlimit:4;stroke-opacity:1;stroke-dasharray:none"
       d="m 323.24214,-62.75289 c 0,0 -25.71764,-2.5347 -35.78573,4 -9.86477,6.4028 -17.85714,30.4286 -17.85714,30.4286 l 33.03574,6.7857 L 181.50986,220.71169 64.794598,454.1422 24.641035,427.62569 c 0,0 -24.62337043,50.69333 -11.35636,70.42721 5.05696,7.52192 26.49289,6.12337 26.49289,6.12337 l 283.464575,0 0,-38.12598 -106.29921,0 0,-14.17323 106.29921,0 z"
       id="path3009-9"
       inkscape:connector-curvature="0"
       sodipodi:nodetypes="cacccccaccccccc" />
    <rect
       style="fill:none;stroke:#000000;stroke-width:0.03543307;stroke-miterlimit:4;stroke-opacity:1;stroke-dasharray:none"
       id="rect3039-4"
       width="35.433079"
       height="14.19643"
       x="-146.07681"
       y="-466.08649"
       transform="scale(-1,-1)" />
  </g>
</svg>
