<?xml version="1.0" encoding="UTF-8" standalone="no"?>
<!-- Created with Inkscape (http://www.inkscape.org/) -->

<svg
   xmlns:dc="http://purl.org/dc/elements/1.1/"
   xmlns:cc="http://creativecommons.org/ns#"
   xmlns:rdf="http://www.w3.org/1999/02/22-rdf-syntax-ns#"
   xmlns:svg="http://www.w3.org/2000/svg"
   xmlns="http://www.w3.org/2000/svg"
   xmlns:sodipodi="http://sodipodi.sourceforge.net/DTD/sodipodi-0.dtd"
   xmlns:inkscape="http://www.inkscape.org/namespaces/inkscape"
   width="220mm"
   height="220mm"
   viewBox="0 0 779.52756 779.52756"
   id="svg2"
   version="1.1"
   inkscape:version="0.91 r13725"
   sodipodi:docname="tangram - Emilie.svg">
  <defs
     id="defs4" />
  <sodipodi:namedview
     id="base"
     pagecolor="#ffffff"
     bordercolor="#666666"
     borderopacity="1.0"
     inkscape:pageopacity="0.0"
     inkscape:pageshadow="2"
     inkscape:zoom="0.70710678"
     inkscape:cx="521.51659"
     inkscape:cy="476.31597"
     inkscape:document-units="mm"
     inkscape:current-layer="layer1"
     showgrid="true"
     inkscape:window-width="1280"
     inkscape:window-height="962"
     inkscape:window-x="-8"
     inkscape:window-y="-8"
     inkscape:window-maximized="1"
     objecttolerance="10000"
     gridtolerance="10000"
     guidetolerance="10000"
     inkscape:snap-page="false"
     inkscape:snap-grids="false"
     inkscape:snap-to-guides="false"
     showguides="true"
     inkscape:guide-bbox="true"
     inkscape:snap-object-midpoints="false"
     inkscape:snap-others="true">
    <inkscape:grid
       type="xygrid"
       id="grid3336"
       originx="106.29921"
       originy="106.29921"
       spacingx="141.73228"
       spacingy="141.73228"
       snapvisiblegridlinesonly="false"
       units="mm" />
    <sodipodi:guide
       position="53.149604,643.46714"
       orientation="1,0"
       id="guide4951"
       inkscape:label=""
       inkscape:color="rgb(0,0,255)" />
    <sodipodi:guide
       position="726.37793,721.03634"
       orientation="1,0"
       id="guide4976"
       inkscape:label=""
       inkscape:color="rgb(0,0,255)" />
  </sodipodi:namedview>
  <metadata
     id="metadata7">
    <rdf:RDF>
      <cc:Work
         rdf:about="">
        <dc:format>image/svg+xml</dc:format>
        <dc:type
           rdf:resource="http://purl.org/dc/dcmitype/StillImage" />
        <dc:title></dc:title>
      </cc:Work>
    </rdf:RDF>
  </metadata>
  <g
     inkscape:label="Calque 1"
     inkscape:groupmode="layer"
     id="layer1"
     transform="translate(0,-272.83465)">
    <g
       transform="matrix(1.1693574,0,0,1.1693574,-331.96095,-471.21131)"
       style="font-style:normal;font-weight:normal;font-size:30px;line-height:125%;font-family:sans-serif;letter-spacing:0px;word-spacing:0px;fill:none;fill-opacity:1;stroke:#ff0000;stroke-width:0.03030132;stroke-linecap:butt;stroke-linejoin:miter;stroke-miterlimit:4;stroke-dasharray:none;stroke-opacity:1"
       id="flowRoot4171">
      <path
         style="font-style:normal;font-variant:normal;font-weight:normal;font-stretch:normal;font-size:30px;font-family:'stencil pencil';-inkscape-font-specification:'stencil pencil';fill:none;stroke:#ff0000;stroke-width:0.03030132;stroke-miterlimit:4;stroke-dasharray:none;stroke-opacity:1"
         d="m 414.92383,733.64348 c -2.22108,7.59307 5.2266,36.60746 4.75793,16.11301 -2.03423,-3.29429 1.86436,-17.29097 -4.75793,-16.11301 z m 6.15234,19.6875 c 4.08782,8.28091 29.59273,-3.89377 10.00364,-2.0195 -3.32633,0.68499 -6.93766,0.30589 -10.00364,2.0195 z"
         id="path3350"
         inkscape:connector-curvature="0" />
      <path
         style="font-style:normal;font-variant:normal;font-weight:normal;font-stretch:normal;font-size:30px;font-family:'stencil pencil';-inkscape-font-specification:'stencil pencil';fill:none;stroke:#ff0000;stroke-width:0.03030132;stroke-miterlimit:4;stroke-dasharray:none;stroke-opacity:1"
         d="m 441.70117,743.79485 c -7.85408,16.53521 29.74795,13.63909 9.9147,9.42995 -15.19856,-7.10162 1.36482,-15.35735 7.66182,-11.19997 -3.45314,-8.76614 -15.72839,-7.26584 -17.57652,1.77002 z m 4.61426,2.15332 c 5.8774,7.52357 19.71843,-2.24091 4.95798,-1.21245 7.06984,0.11182 -4.82089,-0.67496 -4.95798,1.21245 z"
         id="path3352"
         inkscape:connector-curvature="0" />
      <path
         style="font-style:normal;font-variant:normal;font-weight:normal;font-stretch:normal;font-size:30px;font-family:'stencil pencil';-inkscape-font-specification:'stencil pencil';fill:none;stroke:#ff0000;stroke-width:0.03030132;stroke-miterlimit:4;stroke-dasharray:none;stroke-opacity:1"
         d="m 470.34862,736.10442 c 6.03398,2.8674 36.46024,-15.64699 14.22486,-9.03545 -4.67408,2.60196 -11.22639,4.33632 -14.22486,9.03545 z m 9.53613,-0.30762 c -1.85277,8.08113 2.52285,31.4426 3.74813,11.93433 -1.35666,-2.60285 2.33765,-16.44188 -3.74813,-11.93433 z"
         id="path3354"
         inkscape:connector-curvature="0" />
      <path
         style="font-style:normal;font-variant:normal;font-weight:normal;font-stretch:normal;font-size:30px;font-family:'stencil pencil';-inkscape-font-specification:'stencil pencil';fill:none;stroke:#ff0000;stroke-width:0.03030132;stroke-miterlimit:4;stroke-dasharray:none;stroke-opacity:1"
         d="m 489.73825,747.79387 c -0.94965,12.71352 27.83839,11.69334 19.03927,-0.82398 -5.65916,-16.50369 1.51915,15.18539 -12.85087,5.63985 -10.7148,-9.4583 20.18596,-13.24959 0.74452,-13.89416 -3.55678,1.71079 -5.96026,5.33978 -6.93292,9.07829 z"
         id="path3356"
         inkscape:connector-curvature="0" />
      <path
         style="font-style:normal;font-variant:normal;font-weight:normal;font-stretch:normal;font-size:30px;font-family:'stencil pencil';-inkscape-font-specification:'stencil pencil';fill:none;stroke:#ff0000;stroke-width:0.03030132;stroke-miterlimit:4;stroke-dasharray:none;stroke-opacity:1"
         d="m 514.67234,742.25676 c -2.01434,10.03837 6.20612,20.63111 3.99903,3.99902 0.34026,-0.80746 -1.60534,-7.5262 -3.99903,-3.99902 z m 4.61426,0 c 10.95864,-0.11211 2.48367,12.58023 9.87696,15.51667 3.4183,-6.14398 -0.17176,-25.56078 -9.87696,-15.51667 z"
         id="path3358"
         inkscape:connector-curvature="0" />
      <path
         style="font-style:normal;font-variant:normal;font-weight:normal;font-stretch:normal;font-size:30px;font-family:'stencil pencil';-inkscape-font-specification:'stencil pencil';fill:none;stroke:#ff0000;stroke-width:0.03030132;stroke-miterlimit:4;stroke-dasharray:none;stroke-opacity:1"
         d="m 534.68456,746.25578 c -5.16413,18.23583 30.62068,4.65407 7.9697,6.45091 -12.81565,-6.04797 6.91758,-10.58446 6.0721,-12.67245 -5.05444,-5.16221 -13.08697,0.35118 -14.0418,6.22154 z m 0.61523,16.61133 c 13.33686,16.07144 29.40049,-14.83387 17.06297,-21.87211 0.23257,14.82207 1.27217,24.17783 -17.06297,21.87211 z"
         id="path3360"
         inkscape:connector-curvature="0" />
      <path
         style="font-style:normal;font-variant:normal;font-weight:normal;font-stretch:normal;font-size:30px;font-family:'stencil pencil';-inkscape-font-specification:'stencil pencil';fill:none;stroke:#ff0000;stroke-width:0.03030132;stroke-miterlimit:4;stroke-dasharray:none;stroke-opacity:1"
         d="m 560.55615,741.64153 c -1.5917,7.63598 5.79134,25.14367 4.7445,7.85666 -1.03318,-8.06582 17.94814,-3.0571 4.12091,-10.43308 -3.74871,2.77781 -4.30561,3.16847 -8.86541,2.57642 z"
         id="path3362"
         inkscape:connector-curvature="0" />
      <path
         style="font-style:normal;font-variant:normal;font-weight:normal;font-stretch:normal;font-size:30px;font-family:'stencil pencil';-inkscape-font-specification:'stencil pencil';fill:none;stroke:#ff0000;stroke-width:0.03030132;stroke-miterlimit:4;stroke-dasharray:none;stroke-opacity:1"
         d="m 576.55224,747.79387 c -0.94965,12.71352 27.83838,11.69334 19.03926,-0.82398 -5.65914,-16.5037 1.51913,15.1854 -12.85088,5.63985 -10.71479,-9.4583 20.18597,-13.24959 0.74453,-13.89416 -3.55678,1.71079 -5.96028,5.3398 -6.93291,9.07829 z"
         id="path3364"
         inkscape:connector-curvature="0" />
      <path
         style="font-style:normal;font-variant:normal;font-weight:normal;font-stretch:normal;font-size:30px;font-family:'stencil pencil';-inkscape-font-specification:'stencil pencil';fill:none;stroke:#ff0000;stroke-width:0.03030132;stroke-miterlimit:4;stroke-dasharray:none;stroke-opacity:1"
         d="m 601.48633,741.94914 c -1.72184,8.31774 3.50899,22.26176 3.7088,5.98241 0.1053,-1.05311 -0.5831,-9.96872 -3.7088,-5.98241 z m 3.6914,0.92286 c 10.28813,-1.33306 4.26829,13.58797 10.01329,14.28928 3.20033,-6.08985 -0.92614,-24.7842 -10.01329,-14.28928 z m 11.07422,0 c 8.51645,-0.27055 3.58809,13.42095 9.22852,14.76562 3.77322,-5.71081 -0.70302,-23.5642 -9.22852,-14.76562 z"
         id="path3366"
         inkscape:connector-curvature="0" />
      <path
         style="font-style:normal;font-variant:normal;font-weight:normal;font-stretch:normal;font-size:30px;font-family:'stencil pencil';-inkscape-font-specification:'stencil pencil';fill:none;stroke:#ff0000;stroke-width:0.03030132;stroke-miterlimit:4;stroke-dasharray:none;stroke-opacity:1"
         d="m 639.0559,747.79387 c 0.21524,11.65618 27.10211,12.00551 19.16863,-2.48444 0.7644,-9.67239 -4.17818,-15.70183 -4.94816,-3.35987 -3.97808,-4.91769 -14.68599,-0.62082 -14.22047,5.84431 z m 11.38183,-4.30664 c 16.22952,7.2935 -14.95042,14.40854 -5.22949,0.92285 l 2.53689,-0.86079 2.6926,-0.0621 0,0 z"
         id="path3368"
         inkscape:connector-curvature="0" />
      <path
         style="font-style:normal;font-variant:normal;font-weight:normal;font-stretch:normal;font-size:30px;font-family:'stencil pencil';-inkscape-font-specification:'stencil pencil';fill:none;stroke:#ff0000;stroke-width:0.03030132;stroke-miterlimit:4;stroke-dasharray:none;stroke-opacity:1"
         d="m 671.39357,743.79485 c -7.85409,16.53522 29.74795,13.63909 9.9147,9.42995 -15.19859,-7.10162 1.36483,-15.35733 7.66181,-11.19998 -3.45314,-8.76613 -15.72838,-7.26583 -17.57651,1.77003 z m 7.50046,2.92297 c 5.8774,7.52357 16.83223,-3.01056 2.07177,-1.9821 7.06985,0.11183 -1.93468,0.0947 -2.07177,1.9821 z"
         id="path3370"
         inkscape:connector-curvature="0"
         sodipodi:nodetypes="ccccccc" />
    </g>
    <g
       transform="matrix(0.9,0,0,0.89999997,326.56966,349.50347)"
       style="font-style:normal;font-weight:normal;font-size:25px;line-height:125%;font-family:sans-serif;letter-spacing:0px;word-spacing:0px;fill:none;fill-opacity:1;stroke:#ff0000;stroke-width:0.03937008;stroke-linecap:butt;stroke-linejoin:miter;stroke-miterlimit:4;stroke-dasharray:none;stroke-opacity:1"
       id="flowRoot4179">
      <path
         style="font-style:normal;font-variant:normal;font-weight:normal;font-stretch:normal;font-size:25px;font-family:'stencil pencil';-inkscape-font-specification:'stencil pencil';fill:none;stroke:#ff0000;stroke-width:0.03937008;stroke-miterlimit:4;stroke-dasharray:none;stroke-opacity:1"
         d="m 253.77734,734.56813 c 1.74648,4.35566 -0.45274,12.15191 2.83104,14.52532 4.28549,-3.8646 -0.53851,-10.19109 0.94221,-15.07925 -0.14873,-5.16727 -3.85506,-4.20067 -3.77325,0.55393 z m 5.12696,-0.51269 c 3.08012,6.01386 8.24312,10.52454 12.96946,15.2095 5.16355,-3.53923 -4.22162,-7.12155 -5.74574,-10.57359 -1.62798,-1.89738 -4.13891,-6.97389 -7.22372,-4.63591 z m 12.04834,-3.33252 c 1.22511,4.1689 -1.88144,11.11704 3.14852,13.21558 1.235,-4.17596 1.25689,-12.4572 -2.31613,-14.10231 l -0.46873,0.40643 -0.36366,0.4803 z"
         id="path3399"
         inkscape:connector-curvature="0" />
      <path
         style="font-style:normal;font-variant:normal;font-weight:normal;font-stretch:normal;font-size:25px;font-family:'stencil pencil';-inkscape-font-specification:'stencil pencil';fill:none;stroke:#ff0000;stroke-width:0.03937008;stroke-miterlimit:4;stroke-dasharray:none;stroke-opacity:1"
         d="m 278.0918,742.77126 c -1.49266,6.37741 8.8972,10.68439 12.17027,4.86441 -0.1796,-5.66239 -9.74114,3.40604 -8.51401,-4.05212 0.47614,-5.6553 5.97601,-1.04724 7.53695,-0.15427 4.09368,-4.83686 -6.86319,-9.20366 -9.64919,-4.12687 -0.85577,0.95942 -1.41836,2.18593 -1.54402,3.46885 z"
         id="path3401"
         inkscape:connector-curvature="0" />
      <path
         style="font-style:normal;font-variant:normal;font-weight:normal;font-stretch:normal;font-size:25px;font-family:'stencil pencil';-inkscape-font-specification:'stencil pencil';fill:none;stroke:#ff0000;stroke-width:0.03937008;stroke-miterlimit:4;stroke-dasharray:none;stroke-opacity:1"
         d="m 297.95898,739.95143 c -1.65563,5.75567 4.03425,12.25474 9.98477,11.05006 4.14151,2.4801 4.30825,-5.68359 -0.03,-2.99073 -6.55271,1.7996 -9.8033,-10.81953 -2.65206,-11.17574 2.18783,0.58324 8.36168,5.35193 6.33714,-0.11761 -3.50312,-5.4898 -12.83438,-3.12494 -13.63985,3.23402 z m 5.72022,2.29444 c 1.36917,3.35836 10.07738,2.85648 6.70041,-1.38354 -2.8612,-0.95306 -3.89648,0.88192 -6.70041,1.38354 z"
         id="path3403"
         inkscape:connector-curvature="0"
         sodipodi:nodetypes="ccccccccc" />
      <path
         style="font-style:normal;font-variant:normal;font-weight:normal;font-stretch:normal;font-size:25px;font-family:'stencil pencil';-inkscape-font-specification:'stencil pencil';fill:none;stroke:#ff0000;stroke-width:0.03937008;stroke-miterlimit:4;stroke-dasharray:none;stroke-opacity:1"
         d="m 316.12109,730.21022 c 0.82344,6.67251 -1.30983,13.50932 0.62338,20.07786 6.24148,-1.57717 0.28948,-9.84874 2.334,-14.30812 0.0652,-2.00308 0.43109,-6.78108 -2.95738,-5.76974 z"
         id="path3405"
         inkscape:connector-curvature="0" />
      <path
         style="color:#000000;font-style:normal;font-variant:normal;font-weight:normal;font-stretch:normal;font-size:25px;line-height:125%;font-family:'stencil pencil';-inkscape-font-specification:'stencil pencil';text-indent:0;text-align:start;text-decoration:none;text-decoration-line:none;text-decoration-style:solid;text-decoration-color:#000000;letter-spacing:0px;word-spacing:0px;text-transform:none;direction:ltr;block-progression:tb;writing-mode:lr-tb;baseline-shift:baseline;text-anchor:start;white-space:normal;clip-rule:nonzero;display:inline;overflow:visible;visibility:visible;opacity:1;isolation:auto;mix-blend-mode:normal;color-interpolation:sRGB;color-interpolation-filters:linearRGB;solid-color:#000000;solid-opacity:1;fill:none;fill-opacity:1;fill-rule:nonzero;stroke:#ff0000;stroke-width:0.03937008;stroke-linecap:butt;stroke-linejoin:miter;stroke-miterlimit:4;stroke-dasharray:none;stroke-dashoffset:0;stroke-opacity:1;color-rendering:auto;image-rendering:auto;shape-rendering:auto;text-rendering:auto;enable-background:accumulate"
         d="m 335.0332,725.06641 c -3.01672,-0.0542 -9.84499,5.53191 -5.35644,7.5317 1.97246,-4.68953 11.19457,-5.09814 8.16592,1.48137 -1.51193,3.28613 -7.5783,6.60276 -4.01262,10.51682 8.1649,-6.47676 18.85908,-21.85384 1.20314,-19.52989 z m 12.56259,18.71284 c -4.65348,0.92762 -11.1356,0.36865 -14.56419,2.77953 1.30036,4.87583 7.66584,0.13546 11.17109,1.07258 2.95962,1.36059 8.26588,-3.61872 3.3931,-3.8521 z"
         id="path3407"
         inkscape:connector-curvature="0"
         sodipodi:nodetypes="cccccccccc" />
      <path
         style="font-style:normal;font-variant:normal;font-weight:normal;font-stretch:normal;font-size:25px;font-family:'stencil pencil';-inkscape-font-specification:'stencil pencil';fill:none;stroke:#ff0000;stroke-width:0.03937008;stroke-miterlimit:4;stroke-dasharray:none;stroke-opacity:1"
         d="m 351.42969,735.33718 c -1.38225,4.32126 2.7784,13.62292 7.50406,9.45686 -3.15748,-2.815 -6.47672,-7.08879 -3.3994,-11.5481 1.12024,-2.3282 7.63985,-5.44672 2.03097,-5.98081 -3.60978,0.62374 -6.02892,4.61142 -6.13563,8.07205 z m 10.7666,7.69043 c 5.22281,4.81101 9.04576,-6.0439 6.57324,-10.15118 0.11473,-2.79847 -5.65794,-7.13423 -5.63929,-2.98002 3.4568,4.27751 4.3681,9.82662 -0.93395,13.1312 z"
         id="path3409"
         inkscape:connector-curvature="0" />
      <path
         style="font-style:normal;font-variant:normal;font-weight:normal;font-stretch:normal;font-size:25px;font-family:'stencil pencil';-inkscape-font-specification:'stencil pencil';fill:none;stroke:#ff0000;stroke-width:0.03937008;stroke-miterlimit:4;stroke-dasharray:none;stroke-opacity:1"
         d="m 372.42383,728.67214 c 1.02233,5.50088 -1.06122,11.89766 2.72643,16.61902 3.80677,-4.35757 -0.6324,-10.45152 0.30108,-15.58899 -0.16863,-1.70134 -1.86323,-2.12286 -3.02751,-1.03003 z"
         id="path3411"
         inkscape:connector-curvature="0" />
      <path
         style="font-style:normal;font-variant:normal;font-weight:normal;font-stretch:normal;font-size:25px;font-family:'stencil pencil';-inkscape-font-specification:'stencil pencil';fill:none;stroke:#ff0000;stroke-width:0.03937008;stroke-miterlimit:4;stroke-dasharray:none;stroke-opacity:1"
         d="m 380.08789,734.56813 c -1.96378,6.08873 5.47811,6.20382 9.13599,4.91132 5.51453,2.15531 0.10388,7.59941 -3.98796,5.44662 -3.19516,-0.40405 -4.71531,3.21682 -0.63893,3.38763 4.7634,1.09104 12.42232,-1.87213 10.43385,-7.85257 -1.05483,-6.54777 -11.03567,-1.43885 -11.57846,-6.3161 -0.0164,-5.13628 -3.21107,-3.26792 -3.36449,0.4231 z m 0.5127,-6.40869 c 2.5493,3.68295 12.14742,3.30255 12.43708,-1.06933 -3.41114,-0.77064 -7.52054,0.33315 -11.16215,-0.17705 -0.57056,0.21901 -1.04624,0.67733 -1.27493,1.24638 z"
         id="path3413"
         inkscape:connector-curvature="0" />
    </g>
    <ellipse
       style="fill:none;stroke:#ff0000;stroke-width:0.03543307;stroke-miterlimit:4;stroke-dasharray:none;stroke-opacity:1"
       id="path4955"
       cx="47.832874"
       cy="701.5766"
       rx="7.9673967"
       ry="7.9673972" />
    <ellipse
       style="fill:none;stroke:#ff0000;stroke-width:0.03543307;stroke-miterlimit:4;stroke-dasharray:none;stroke-opacity:1"
       id="path4955-4"
       cx="653.73834"
       cy="701.5766"
       rx="7.9673967"
       ry="7.9673972" />
    <rect
       style="fill:none;fill-opacity:1;stroke:#0000ff;stroke-width:0.03543307;stroke-miterlimit:4;stroke-dasharray:none;stroke-opacity:1"
       id="rect4179"
       width="701.57483"
       height="701.57483"
       x="-0.0017716534"
       y="350.78918"
       rx="44.645672"
       ry="44.645668" />
    <path
       style="fill:none;fill-rule:evenodd;stroke:#0000ff;stroke-width:0.03543307;stroke-linecap:butt;stroke-linejoin:miter;stroke-miterlimit:4;stroke-dasharray:none;stroke-opacity:1"
       d="m 95.349322,446.14027 0,510.23623 510.236228,-510.23623 -510.236228,0"
       id="path4183"
       inkscape:connector-curvature="0" />
    <path
       style="fill:none;fill-rule:evenodd;stroke:#ff0000;stroke-width:0.03543307;stroke-linecap:butt;stroke-linejoin:miter;stroke-miterlimit:4;stroke-dasharray:none;stroke-opacity:1"
       d="M 95.667518,446.45846 350.78563,701.57658"
       id="path4185"
       inkscape:connector-curvature="0" />
    <path
       style="fill:none;fill-rule:evenodd;stroke:#ff0000;stroke-width:0.03543307;stroke-linecap:butt;stroke-linejoin:miter;stroke-miterlimit:4;stroke-dasharray:none;stroke-opacity:1"
       d="M 478.34469,574.01752 605.90375,701.57658"
       id="path4187"
       inkscape:connector-curvature="0" />
    <path
       style="fill:none;fill-rule:evenodd;stroke:#ff0000;stroke-width:0.03543307;stroke-linecap:butt;stroke-linejoin:miter;stroke-miterlimit:4;stroke-dasharray:none;stroke-opacity:1"
       d="M 350.78563,956.6947 605.90375,701.57658"
       id="path4189"
       inkscape:connector-curvature="0" />
    <path
       style="fill:none;fill-rule:evenodd;stroke:#ff0000;stroke-width:0.03543307;stroke-linecap:butt;stroke-linejoin:miter;stroke-miterlimit:4;stroke-dasharray:none;stroke-opacity:1"
       d="m 223.22658,829.13564 255.11811,0"
       id="path4191"
       inkscape:connector-curvature="0" />
    <path
       style="fill:none;fill-rule:evenodd;stroke:#0000ff;stroke-width:0.03543307;stroke-linecap:butt;stroke-linejoin:miter;stroke-miterlimit:4;stroke-dasharray:none;stroke-opacity:1"
       d="m 95.667518,956.6947 510.236232,0 0,-510.23624"
       id="path4193"
       inkscape:connector-curvature="0" />
    <path
       style="fill:none;fill-rule:evenodd;stroke:#ff0000;stroke-width:0.03543307;stroke-linecap:butt;stroke-linejoin:miter;stroke-miterlimit:4;stroke-dasharray:none;stroke-opacity:1"
       d="M 350.78563,701.57658 478.34469,829.13564"
       id="path4195"
       inkscape:connector-curvature="0" />
    <g
       transform="matrix(0.9,0,0,0.89999997,-177.15344,431.4494)"
       style="font-style:normal;font-weight:normal;font-size:40px;line-height:125%;font-family:sans-serif;letter-spacing:0px;word-spacing:0px;fill:none;fill-opacity:1;stroke:#ff0000;stroke-width:0.03937008;stroke-linecap:butt;stroke-linejoin:miter;stroke-miterlimit:4;stroke-dasharray:none;stroke-opacity:1"
       id="flowRoot3395">
      <path
         style="font-style:normal;font-variant:normal;font-weight:normal;font-stretch:normal;font-size:35px;font-family:'stencil pencil';-inkscape-font-specification:'stencil pencil';fill:none;stroke:#ff0000;stroke-width:0.03937008;stroke-miterlimit:4;stroke-dasharray:none;stroke-opacity:1"
         d="m 783.41016,-21.753831 c 4.4256,4.846904 6.15746,-4.960221 4.59683,-8.009047 3.68949,-4.626391 -5.28792,-10.682456 -4.4078,-2.804577 -0.007,3.600823 0.75977,7.267005 -0.18903,10.813624 z m 0.35888,-22.250977 c -1.49481,5.342478 6.89248,0.855813 2.21996,-0.703627 -0.78703,0.05728 -1.50663,0.400294 -2.21996,0.703627 z"
         id="path3425"
         inkscape:connector-curvature="0" />
      <path
         style="font-style:normal;font-variant:normal;font-weight:normal;font-stretch:normal;font-size:35px;font-family:'stencil pencil';-inkscape-font-specification:'stencil pencil';fill:none;stroke:#ff0000;stroke-width:0.03937008;stroke-miterlimit:4;stroke-dasharray:none;stroke-opacity:1"
         d="m 793.9043,-34.879319 c 0.47159,4.139671 -0.80951,9.319211 3.2573,12.081212 4.09385,3.085566 11.21487,5.622361 15.47827,2.362261 2.56286,-5.641766 -5.30735,-2.39951 -8.1067,-3.57894 -4.48301,-1.094581 -7.79401,-5.975485 -6.08331,-10.493676 1.39601,-5.692174 8.68743,-4.89126 12.21971,-1.755375 5.89314,3.438288 2.36811,-5.525274 -0.98312,-6.238475 -4.88845,-3.00779 -11.6873,-0.956563 -14.34,4.088903 -0.66363,1.091682 -1.15743,2.288046 -1.44215,3.53409 z m 7.15107,3.219314 c 3.35301,3.299267 10.15987,4.549573 12.30732,-0.452787 -2.1947,-2.904369 -7.17074,-0.944937 -9.88192,-1.683858 2.18643,-0.107551 6.51174,0.04211 1.5684,0.220294 -2.22673,-0.111793 -2.25907,0.482616 -3.9938,1.916351 z"
         id="path3427"
         inkscape:connector-curvature="0"
         sodipodi:nodetypes="cccccccccccccc" />
      <path
         style="font-style:normal;font-variant:normal;font-weight:normal;font-stretch:normal;font-size:35px;line-height:125%;font-family:'stencil pencil';-inkscape-font-specification:'stencil pencil';letter-spacing:0px;word-spacing:0px;fill:none;fill-opacity:1;stroke:#ff0000;stroke-width:0.03937008;stroke-linecap:butt;stroke-linejoin:miter;stroke-miterlimit:4;stroke-dasharray:none;stroke-opacity:1"
         d="m 725.64628,-36.859682 c 0.11963,5.383301 0.23926,10.766602 0.35889,16.149903 6.42495,0.896794 3.81349,-7.843968 3.68521,-11.675199 -0.10129,-2.148809 -0.74918,-7.97631 -4.0441,-4.474704 z m 4.30664,1.07666 c 2.68628,3.216862 11.06468,1.515208 8.21726,8.124222 -0.75145,2.617612 0.0941,11.560369 3.82416,7.55133 1.39372,-4.644169 0.66211,-9.892489 -0.57458,-14.500719 -1.52852,-5.645062 -8.88602,-6.391887 -11.46684,-1.174833 z m 12.91992,0 c 2.04054,3.699929 10.55408,2.974298 6.99456,9.265183 -1.867,3.721655 2.72668,11.634104 4.84998,5.173093 0.64305,-5.79048 0.75869,-13.131778 -4.66806,-16.773785 -2.45371,-1.352329 -6.09584,-0.345474 -7.17648,2.335509 z"
         id="path3423-6"
         inkscape:connector-curvature="0" />
      <path
         style="font-style:normal;font-variant:normal;font-weight:normal;font-stretch:normal;font-size:35px;line-height:125%;font-family:'stencil pencil';-inkscape-font-specification:'stencil pencil';letter-spacing:0px;word-spacing:0px;fill:none;fill-opacity:1;stroke:#ff0000;stroke-width:0.03937008;stroke-linecap:butt;stroke-linejoin:miter;stroke-miterlimit:4;stroke-dasharray:none;stroke-opacity:1"
         d="m 760.59071,-22.278821 c 4.4256,4.846904 6.15746,-4.960221 4.59683,-8.009047 3.68949,-4.626391 -5.28792,-10.682456 -4.4078,-2.804577 -0.007,3.600823 0.75977,7.267005 -0.18903,10.813624 z m 0.35888,-22.250977 c -1.49481,5.342478 6.89248,0.855813 2.21996,-0.703627 -0.78703,0.05728 -1.50663,0.400294 -2.21996,0.703627 z"
         id="path3425-0"
         inkscape:connector-curvature="0" />
      <path
         style="font-style:normal;font-variant:normal;font-weight:normal;font-stretch:normal;font-size:25px;line-height:125%;font-family:'stencil pencil';-inkscape-font-specification:'stencil pencil';letter-spacing:0px;word-spacing:0px;fill:none;fill-opacity:1;stroke:#ff0000;stroke-width:0.03937008;stroke-linecap:butt;stroke-linejoin:miter;stroke-miterlimit:4;stroke-dasharray:none;stroke-opacity:1"
         d="m 772.25704,-47.000726 c 1.16899,9.472548 -1.85948,19.178343 0.88498,28.503291 8.86064,-2.23901 0.41095,-13.981644 3.31343,-20.312349 0.0926,-2.843648 0.61199,-9.626678 -4.19841,-8.190942 z"
         id="path3405-1"
         inkscape:connector-curvature="0" />
      <path
         style="font-style:normal;font-variant:normal;font-weight:normal;font-stretch:normal;font-size:25px;line-height:125%;font-family:'stencil pencil';-inkscape-font-specification:'stencil pencil';letter-spacing:0px;word-spacing:0px;fill:none;fill-opacity:1;stroke:#ff0000;stroke-width:0.03937008;stroke-linecap:butt;stroke-linejoin:miter;stroke-miterlimit:4;stroke-dasharray:none;stroke-opacity:1"
         d="m 696.19815,-54.651322 c -1.3878,5.421266 -5.8912,9.607141 -6.0954,15.460132 6.98991,1.678043 3.60611,-7.309902 7.21947,-9.73989 0.73992,-1.483831 2.72279,-4.926458 -1.12407,-5.720242 z"
         id="path3405-1-8"
         inkscape:connector-curvature="0" />
    </g>
  </g>
</svg>
