<?xml version="1.0" encoding="UTF-8" standalone="no"?>
<!-- Created with Inkscape (http://www.inkscape.org/) -->

<svg
   xmlns:dc="http://purl.org/dc/elements/1.1/"
   xmlns:cc="http://creativecommons.org/ns#"
   xmlns:rdf="http://www.w3.org/1999/02/22-rdf-syntax-ns#"
   xmlns:svg="http://www.w3.org/2000/svg"
   xmlns="http://www.w3.org/2000/svg"
   xmlns:sodipodi="http://sodipodi.sourceforge.net/DTD/sodipodi-0.dtd"
   xmlns:inkscape="http://www.inkscape.org/namespaces/inkscape"
   width="290mm"
   height="210mm"
   viewBox="0 0 1027.5591 744.09449"
   id="svg4277"
   version="1.1"
   inkscape:version="0.91 r13725"
   sodipodi:docname="tom-elio-fond.svg">
  <defs
     id="defs4279" />
  <sodipodi:namedview
     id="base"
     pagecolor="#ffffff"
     bordercolor="#666666"
     borderopacity="1.0"
     inkscape:pageopacity="0.0"
     inkscape:pageshadow="2"
     inkscape:zoom="0.7"
     inkscape:cx="566.99147"
     inkscape:cy="346.02791"
     inkscape:document-units="mm"
     inkscape:current-layer="text4285"
     showgrid="false"
     inkscape:window-width="1366"
     inkscape:window-height="705"
     inkscape:window-x="-8"
     inkscape:window-y="-8"
     inkscape:window-maximized="1"
     inkscape:snap-page="true" />
  <metadata
     id="metadata4282">
    <rdf:RDF>
      <cc:Work
         rdf:about="">
        <dc:format>image/svg+xml</dc:format>
        <dc:type
           rdf:resource="http://purl.org/dc/dcmitype/StillImage" />
        <dc:title></dc:title>
      </cc:Work>
    </rdf:RDF>
  </metadata>
  <g
     inkscape:label="Calque 1"
     inkscape:groupmode="layer"
     id="layer1"
     transform="translate(0,-308.26771)">
    <g
       style="font-style:normal;font-weight:normal;font-size:100px;line-height:125%;font-family:sans-serif;letter-spacing:0px;word-spacing:0px;fill:#000000;fill-opacity:1;stroke:none;stroke-width:1px;stroke-linecap:butt;stroke-linejoin:miter;stroke-opacity:1"
       id="text4285"
       transform="translate(76.771593,-260.61936)">
      <rect
         style="fill:none;stroke:#0000ff;stroke-width:0.03543307;stroke-miterlimit:4;stroke-dasharray:none;stroke-opacity:1"
         id="rect4392"
         width="1027.5591"
         height="744.09448"
         x="-76.771591"
         y="568.88708"
         ry="90.806931" />
      <g
         transform="matrix(-1,0,0,1,-501.42857,1.4285714)"
         style="font-style:normal;font-weight:normal;font-size:40px;line-height:125%;font-family:sans-serif;letter-spacing:0px;word-spacing:0px;fill:none;fill-opacity:1;stroke:#ff0000;stroke-width:0.03543307;stroke-linecap:butt;stroke-linejoin:miter;stroke-miterlimit:4;stroke-dasharray:none;stroke-opacity:1"
         id="text4184">
        <path
           d="m -886.78815,1229.9637 0.23072,5.9986 0,-1.615 0.23071,2.9993 0.23071,0.2307 0.23071,3.23 0.23072,0.2307 0.23071,3.4607 0.23071,0.2307 0.23072,0.9228 0.23071,0 0,0 0,0.2307 0.23071,0 1.61499,0 0.23072,-0.2307 0.23071,-0.6921 0,-0.4614 -0.23071,-1.3843 -0.23072,-2.0764 -0.23071,-1.8457 -0.23071,-1.8457 -0.23072,-1.3843 -0.23071,-1.615 -0.23071,-2.0764 0,-0.6922 1.38428,-0.2307 0.92285,-0.2307 1.38427,-0.2307 3.69141,-0.2307 0.46143,-0.2307 0.23071,-0.2307 0,-1.3843 -0.23071,-0.4614 -0.46143,-0.2308 -0.46143,0 -5.76782,0.2308 0.92285,0 -1.8457,0.2307 -0.46143,0.2307 -1.8457,0.2307 0.23071,0 -0.46142,0.2307 -0.46143,0.6921 0,0 0,0 z m 4.84497,7.1521 0.23072,1.615 0,-0.2307 0.46142,0.2307 0.69214,0.2307 3.92212,0 2.30713,-0.2307 0.23071,-0.2307 0.46143,-0.4614 -0.46143,-1.615 0.23071,0 -0.46142,-0.2307 -0.69214,-0.2307 -0.92285,0 -2.76856,0.2307 -2.30712,0.2307 -0.46143,0.2307 -0.46143,0.4614 0,0 0,0 z"
           style="font-style:normal;font-variant:normal;font-weight:normal;font-stretch:normal;font-size:22.5px;font-family:'stencil pencil';-inkscape-font-specification:'stencil pencil';fill:none;stroke:#ff0000;stroke-width:0.03543307;stroke-miterlimit:4;stroke-dasharray:none;stroke-opacity:1"
           id="path4193"
           inkscape:connector-curvature="0" />
        <path
           d="m -872.46198,1240.8073 0.23072,3.4606 0,-0.4614 0.23071,1.1536 0.46143,0.2307 0,0.4614 0.46142,0.2307 0.23072,0.4615 0.69213,0.2307 0.46143,0.2307 0.46143,0.2307 0.69213,0.2307 1.15357,0.2307 3.22998,0 1.38428,-0.2307 0.46142,-0.2307 0.46143,-0.2307 0.46142,-0.2307 0.23072,-0.2307 0.46142,-0.4615 0.23072,-0.2307 0.23071,-0.9228 0.23071,1.3842 0.23071,0.6922 0.23072,0.4614 0.46142,0.2307 0.46143,0.2307 0.69214,0 0.46142,-0.2307 0,-0.2307 0.23072,-0.6921 0,-0.9229 -0.23072,-1.3843 -0.23071,-1.3842 -0.23071,-1.615 -0.23072,-1.615 -0.23071,-1.3843 -0.23071,-1.1536 -0.23071,-0.6921 -0.23072,-0.4614 -0.23071,-0.4614 -0.46143,-0.2308 -0.46142,0 -0.46143,0.4615 -0.23071,0.2307 0.23071,4.3835 0.23072,0.2307 0,4.1529 0.23071,-1.8457 -0.46143,1.8457 -0.46142,-0.2307 0.46142,0 -0.46142,0 -0.69214,0.2307 0,0 -1.84571,-0.2307 1.38428,0 -0.46142,0 -3.4607,0.2307 0,0 -2.07641,-0.4615 0.23071,0.2308 -0.46143,-0.4615 -0.46142,-0.2307 -0.46143,-0.4614 0,-2.5378 0.23072,-0.6922 0.23071,-0.4614 0.23071,-0.4614 0.46143,-0.4615 0.23071,-0.4614 0.46143,-0.4614 0.23071,-0.2307 0.46142,-0.4615 0.23072,-0.2307 0.46142,-0.4614 0.46143,-0.2307 1.38428,0 0.46142,0.2307 0.69214,0.2307 1.8457,0 -0.46142,-1.3843 0.23071,0 -0.46143,-0.2307 -0.23071,-0.4614 -0.46142,-0.2307 -0.69214,-0.4614 -0.69214,-0.2307 -2.30713,0 -0.69214,0.2307 -0.46142,0.2307 -0.46143,0.2307 -0.46143,0.4614 -0.23071,0.2307 -0.46142,0.2307 -0.46143,0.4615 -0.23071,0.2307 -0.23072,0.4614 -0.23071,0.2307 -0.46142,0.6922 -0.23072,0.2307 -0.46142,0.6921 -0.23072,0.4614 -0.23071,0.4615 -0.23071,0.6921 -0.23072,0.9229 0,0 0,0 z"
           style="font-style:normal;font-variant:normal;font-weight:normal;font-stretch:normal;font-size:22.5px;font-family:'stencil pencil';-inkscape-font-specification:'stencil pencil';fill:none;stroke:#ff0000;stroke-width:0.03543307;stroke-miterlimit:4;stroke-dasharray:none;stroke-opacity:1"
           id="path4195"
           inkscape:connector-curvature="0" />
        <path
           d="m -856.07037,1244.9601 0.23071,0.9228 0.46143,0.2307 0.46142,0.2308 0.92285,0 0.46143,-0.2308 0.23071,-0.2307 0.23071,-0.9228 0,-9.4592 -0.23071,-0.4615 -0.23071,-0.2307 -1.38428,0 -0.46142,0.4614 -0.23072,0.2308 -0.23071,0.6921 0,0.2307 0,6.46 0,0 0,0.2307 -0.23071,1.8457 0,0 z m 0.23071,-14.3042 0.23071,1.615 0.23072,0 0,0 0,0.2307 0.46142,0 0.46143,0 0.69214,-0.2307 0.23071,-0.2307 0,-1.1536 -0.23071,-0.4614 -0.23072,-0.2307 -1.38427,0 -0.46143,0.4614 0,0 0,0 z"
           style="font-style:normal;font-variant:normal;font-weight:normal;font-stretch:normal;font-size:22.5px;font-family:'stencil pencil';-inkscape-font-specification:'stencil pencil';fill:none;stroke:#ff0000;stroke-width:0.03543307;stroke-miterlimit:4;stroke-dasharray:none;stroke-opacity:1"
           id="path4197"
           inkscape:connector-curvature="0" />
        <path
           d="m -851.89557,1235.9623 0.23071,2.0764 0,0 -0.23071,3.6914 0,-1.8457 0,0.2307 0.23071,2.7686 0,-0.9229 0.23072,1.3843 0,-0.2307 0.23071,0.6921 0.23071,0.4614 0.46143,0.2308 0.23071,0.4614 0.46143,0.2307 0.23071,0.4614 0.92285,0.2307 2.07642,0 0.69214,-0.2307 0.46142,-0.2307 0.46143,-0.2307 0,-0.2307 0.23071,-0.4614 0,-0.6922 -0.23071,-0.4614 -0.46143,-0.4614 -1.38428,0 -0.69213,0.2307 -0.69214,-0.4614 -0.23072,0 0,0 0,-0.2308 -0.23071,0 -0.23071,-0.6921 0,-2.3071 0.23071,-0.4615 -0.23071,-3.6914 0,1.615 0.23071,-3.4607 0.23071,-0.4614 0.23072,-2.0764 0.23071,-0.4614 -0.46143,-2.5379 0,0 0,-0.2307 -0.23071,0 -0.69214,-0.2307 0,0 -0.92285,0.2307 0,0 -0.23071,0.2307 0,0 0,0.2307 -0.23071,1.3843 0,0 -0.46143,1.3843 -0.23071,1.1536 -0.23072,1.3842 -0.23071,2.5379 0,0 0,0 z m 3.46069,-0.6922 0.23072,1.3843 0.23071,0 0,0 0,0.2307 0.46143,0 1.15356,0.2307 0.92285,0.2308 1.15357,0 0.23071,-0.2308 0.46143,-0.4614 0,-0.9228 0.23071,0.2307 -0.46143,-0.6922 -0.23071,-0.4614 -0.46143,-0.2307 -1.61499,-0.2307 -0.69214,0 -0.92285,0.2307 -0.46142,0.2307 -0.23072,0.4614 0,0 0,0 z"
           style="font-style:normal;font-variant:normal;font-weight:normal;font-stretch:normal;font-size:22.5px;font-family:'stencil pencil';-inkscape-font-specification:'stencil pencil';fill:none;stroke:#ff0000;stroke-width:0.03543307;stroke-miterlimit:4;stroke-dasharray:none;stroke-opacity:1"
           id="path4199"
           inkscape:connector-curvature="0" />
        <path
           d="m -830.62604,1237.1158 0.23072,5.0757 0.23071,0.2307 0.23071,5.7679 0.23071,0.2307 0.23072,7.1521 0.23071,0 0,0 0,0.2307 0.23071,0 1.38428,0 0.46143,-0.2307 0,-0.2307 0.23071,-0.4615 0,-5.9985 -0.23071,-3.6914 -0.23072,-2.7686 -0.23071,-2.5378 0,-2.3071 0.23071,0.4614 0.46143,0.2307 0.46142,0.2307 0.69214,0 3.22998,0 0.92286,0.2307 0.23071,0.6922 0.23071,0.4614 0,2.3071 -0.23071,0.4615 -0.23071,0.4614 -0.23072,0.2307 -0.46142,0.4614 -0.69214,0.2307 0,0 -0.69214,0 -0.46143,-0.2307 -0.46142,-0.4614 -1.15357,0 -0.46142,0.2307 -0.46143,0.6921 0,1.1536 0.23071,0.4614 0.69214,0.2307 0.23072,0.4615 0.69213,0.2307 0.69214,0.2307 0.69214,0 1.15357,-0.2307 0.92285,-0.2307 0.46142,-0.2307 0.46143,-0.2308 0.23071,-0.2307 0.46143,-0.4614 0.23071,-0.2307 0.46143,-0.4614 0,-0.2307 0.46142,-0.4615 0,-0.2307 0.23072,-0.4614 0.23071,-0.6921 0,-2.9993 -0.23071,-0.6922 -0.23072,-0.6921 -0.23071,-0.4614 -0.23071,-0.4614 -0.23072,-0.4615 -0.46142,-0.2307 -0.23071,-0.4614 -0.46143,-0.2307 -0.92285,-0.2307 -1.38428,-0.2307 -2.07642,0 -1.15356,0.2307 -0.69214,0.2307 -0.46142,0.2307 -0.46143,0.9228 -0.23071,0 -0.46143,-1.1535 0.23071,0 -0.46142,-0.2307 -1.38428,0 -0.46142,0.4614 -0.23072,0.9228 0,0 0,0 z"
           style="font-style:normal;font-variant:normal;font-weight:normal;font-stretch:normal;font-size:22.5px;font-family:'stencil pencil';-inkscape-font-specification:'stencil pencil';fill:none;stroke:#ff0000;stroke-width:0.03543307;stroke-miterlimit:4;stroke-dasharray:none;stroke-opacity:1"
           id="path4201"
           inkscape:connector-curvature="0" />
        <path
           d="m -817.00299,1240.8073 0.23071,3.4606 0,-0.4614 0.23072,1.1536 0.46142,0.2307 0,0.4614 0.46143,0.2307 0.23071,0.4615 0.69214,0.2307 0.46142,0.2307 0.46143,0.2307 0.69214,0.2307 1.15356,0.2307 3.22998,0 1.38428,-0.2307 0.46143,-0.2307 0.46142,-0.2307 0.46143,-0.2307 0.23071,-0.2307 0.46143,-0.4615 0.23071,-0.2307 0.23071,-0.9228 0.23072,1.3842 0.23071,0.6922 0.23071,0.4614 0.46143,0.2307 0.46142,0.2307 0.69214,0 0.46143,-0.2307 0,-0.2307 0.23071,-0.6921 0,-0.9229 -0.23071,-1.3843 -0.23072,-1.3842 -0.23071,-1.615 -0.23071,-1.615 -0.23071,-1.3843 -0.23072,-1.1536 -0.23071,-0.6921 -0.23071,-0.4614 -0.23072,-0.4614 -0.46142,-0.2308 -0.46143,0 -0.46142,0.4615 -0.23072,0.2307 0.23072,4.3835 0.23071,0.2307 0,4.1529 0.23071,-1.8457 -0.46142,1.8457 -0.46143,-0.2307 0.46143,0 -0.46143,0 -0.69214,0.2307 0,0 -1.8457,-0.2307 1.38428,0 -0.46143,0 -3.46069,0.2307 0,0 -2.07642,-0.4615 0.23071,0.2308 -0.46142,-0.4615 -0.46143,-0.2307 -0.46142,-0.4614 0,-2.5378 0.23071,-0.6922 0.23071,-0.4614 0.23072,-0.4614 0.46142,-0.4615 0.23071,-0.4614 0.46143,-0.4614 0.23071,-0.2307 0.46143,-0.4615 0.23071,-0.2307 0.46143,-0.4614 0.46142,-0.2307 1.38428,0 0.46143,0.2307 0.69213,0.2307 1.84571,0 -0.46143,-1.3843 0.23072,0 -0.46143,-0.2307 -0.23071,-0.4614 -0.46143,-0.2307 -0.69214,-0.4614 -0.69214,-0.2307 -2.30713,0 -0.69213,0.2307 -0.46143,0.2307 -0.46143,0.2307 -0.46142,0.4614 -0.23071,0.2307 -0.46143,0.2307 -0.46143,0.4615 -0.23071,0.2307 -0.23071,0.4614 -0.23071,0.2307 -0.46143,0.6922 -0.23071,0.2307 -0.46143,0.6921 -0.23071,0.4614 -0.23071,0.4615 -0.23072,0.6921 -0.23071,0.9229 0,0 0,0 z"
           style="font-style:normal;font-variant:normal;font-weight:normal;font-stretch:normal;font-size:22.5px;font-family:'stencil pencil';-inkscape-font-specification:'stencil pencil';fill:none;stroke:#ff0000;stroke-width:0.03543307;stroke-miterlimit:4;stroke-dasharray:none;stroke-opacity:1"
           id="path4203"
           inkscape:connector-curvature="0" />
        <path
           d="m -800.61139,1236.193 0.23071,3.6914 0,-1.1536 0.23072,2.5379 0.23071,0.2307 0.23071,2.7685 0.23072,0.2308 0.23071,3.6914 0.23071,0 0,0 0,0.2307 0.23071,0 1.38428,0 0.46143,-0.2307 0,-0.2307 0.23071,-0.6922 0,-2.7685 -0.23071,-1.615 -0.23072,-1.3843 -0.23071,-1.615 0,-0.4614 0.92285,0.2307 0.46143,-0.2307 0.23071,-0.2307 0.46143,-0.4615 0.23071,-0.2307 0.46143,-0.4614 0.23071,-0.2307 0.46142,-0.4614 0.23072,0 0,0 0.23071,0.2307 0.46143,0.2307 0.23071,0.4614 0.46142,0.2307 0.23072,0.4614 0.69214,0.2308 1.38427,-0.2308 0.23072,-0.4614 0,-1.3843 -0.23072,-0.4614 -0.46142,-0.2307 -0.23071,-0.4614 -0.46143,-0.2307 -0.23071,-0.4615 -0.46143,-0.2307 -0.69214,-0.4614 -0.46142,0 -2.53785,0.2307 0.23072,0 -0.46143,0.2307 -0.46142,0.4615 -0.23072,0.2307 -0.46142,0.4614 -0.23072,0.2307 -0.23071,0.4614 -0.23071,0.4615 -0.23071,0.4614 -0.23072,-0.6922 -0.23071,-1.1535 -0.23071,-0.4614 -0.46143,-0.2308 -0.92285,0 -0.46143,0.4615 -0.23071,0.4614 0,0 0,0 z"
           style="font-style:normal;font-variant:normal;font-weight:normal;font-stretch:normal;font-size:22.5px;font-family:'stencil pencil';-inkscape-font-specification:'stencil pencil';fill:none;stroke:#ff0000;stroke-width:0.03543307;stroke-miterlimit:4;stroke-dasharray:none;stroke-opacity:1"
           id="path4205"
           inkscape:connector-curvature="0" />
        <path
           d="m -777.0567,1235.9623 0.23071,2.0764 0,0 -0.23071,3.6914 0,-1.8457 0,0.2307 0.23071,2.7686 0,-0.9229 0.23071,1.3843 0,-0.2307 0.23072,0.6921 0.23071,0.4614 0.46143,0.2308 0.23071,0.4614 0.46142,0.2307 0.23072,0.4614 0.92285,0.2307 2.07641,0 0.69214,-0.2307 0.46143,-0.2307 0.46143,-0.2307 0,-0.2307 0.23071,-0.4614 0,-0.6922 -0.23071,-0.4614 -0.46143,-0.4614 -1.38428,0 -0.69214,0.2307 -0.69214,-0.4614 -0.23071,0 0,0 0,-0.2308 -0.23071,0 -0.23071,-0.6921 0,-2.3071 0.23071,-0.4615 -0.23071,-3.6914 0,1.615 0.23071,-3.4607 0.23071,-0.4614 0.23071,-2.0764 0.23072,-0.4614 -0.46143,-2.5379 0,0 0,-0.2307 -0.23071,0 -0.69214,-0.2307 0,0 -0.92285,0.2307 0,0 -0.23071,0.2307 0,0 0,0.2307 -0.23072,1.3843 0,0 -0.46142,1.3843 -0.23072,1.1536 -0.23071,1.3842 -0.23071,2.5379 0,0 0,0 z m 3.46069,-0.6922 0.23071,1.3843 0.23072,0 0,0 0,0.2307 0.46142,0 1.15357,0.2307 0.92285,0.2308 1.15356,0 0.23072,-0.2308 0.46142,-0.4614 0,-0.9228 0.23072,0.2307 -0.46143,-0.6922 -0.23071,-0.4614 -0.46143,-0.2307 -1.61499,-0.2307 -0.69214,0 -0.92285,0.2307 -0.46143,0.2307 -0.23071,0.4614 0,0 0,0 z"
           style="font-style:normal;font-variant:normal;font-weight:normal;font-stretch:normal;font-size:22.5px;font-family:'stencil pencil';-inkscape-font-specification:'stencil pencil';fill:none;stroke:#ff0000;stroke-width:0.03543307;stroke-miterlimit:4;stroke-dasharray:none;stroke-opacity:1"
           id="path4207"
           inkscape:connector-curvature="0" />
        <path
           d="m -767.34479,1240.3458 0.23072,1.3843 0,-0.2307 0.23071,0.4614 0.46142,0.2307 -0.23071,0.4615 -0.23071,0.4614 0,0.6921 0.23071,0.4614 0.23071,0.4615 0.46143,0.2307 0.23071,0.4614 0.46143,0 0.23071,0.4614 0.69214,0.2307 0.23071,0.4615 0.92285,0.2307 0.69214,0.2307 1.15357,0.2307 0.92285,0 1.15356,-0.2307 0.46143,-0.2307 0.46143,-0.2307 0.23071,-0.2307 0.69214,-0.4615 0.23071,-0.2307 0.46143,-0.4614 0,-0.2307 0.46142,-0.4614 0,-0.2308 0,-1.3842 -0.23071,-0.4615 -0.46143,-0.2307 -1.15356,0 -0.46143,0.2307 -0.46142,0.6922 -0.23072,0.2307 -0.46142,0.4614 -0.23072,0.2307 -0.46142,0.2307 -1.15357,0 -0.46142,-0.2307 -0.46143,-0.2307 -0.46142,-0.2307 -0.46143,-0.2307 -0.23071,-0.4614 -0.46143,-0.2307 -0.23071,-0.2308 -0.46143,-0.4614 0.23072,-0.4614 0.23071,-0.9229 0.23071,-0.6921 0.23072,-0.4614 0.46142,-0.4615 0.23071,-0.2307 0.69214,-0.2307 0.23072,-0.2307 0,0 0,0 0,0 2.07641,0.2307 0.23071,0.2307 0.46143,0.2307 0.23071,0.6922 0.23072,0.4614 0.23071,0.9229 0.46143,0.2307 0.46142,0.2307 1.15357,0 0.23071,-0.2307 0.46142,-0.4614 0,-0.4615 0,-0.2307 -0.23071,-0.9228 -0.23071,-0.6922 -0.23071,-0.4614 -0.23072,-0.4614 -0.23071,-0.4615 -0.46143,-0.4614 -0.46142,-0.4614 -0.46143,-0.2307 -0.69214,-0.2307 -0.69214,-0.2307 -3.46069,0 -0.69214,0.2307 -0.46142,0.2307 -0.46143,0.2307 -0.46142,0.4614 -0.23072,0.2307 -0.23071,0.4615 -0.23071,0.2307 -0.23072,0.4614 -0.23071,0.4614 -0.23071,0.4614 -0.23071,0.6922 -0.23072,0.6921 0,0 0,0 z"
           style="font-style:normal;font-variant:normal;font-weight:normal;font-stretch:normal;font-size:22.5px;font-family:'stencil pencil';-inkscape-font-specification:'stencil pencil';fill:none;stroke:#ff0000;stroke-width:0.03543307;stroke-miterlimit:4;stroke-dasharray:none;stroke-opacity:1"
           id="path4209"
           inkscape:connector-curvature="0" />
        <path
           d="m -754.86432,1236.6544 0.23071,5.5371 0,0 0.23072,4.3836 0,-1.615 0.23071,2.0764 0,-0.2307 0.23071,0.6921 1.38428,0.2307 0.46143,-0.2307 0.23071,-0.2307 0.46142,-0.4614 -0.46142,-3.6914 0.23071,1.3843 -0.23071,-4.845 -0.23071,-0.9229 -0.23072,-0.9228 -0.23071,-0.6922 -0.23071,-0.4614 -0.23072,-0.4614 -0.23071,-0.2307 -1.15356,0.2307 0,0 -0.23072,0.2307 0,0 -0.23071,0.2307 0,0 0,0 0,0 z m 3.46069,0 0.23072,1.615 0.23071,0 0,0 0,0.2307 1.15356,-0.2307 0.46143,-0.2307 0.23071,-0.2307 0.46143,-0.2307 0.69214,0 0.69214,0.2307 0.46142,0.2307 0.23072,0.6921 0.23071,1.615 0,6.6907 0,0.9229 0.23071,0.4614 0.46143,0.2307 1.61499,0 0.46142,-0.2307 0,-0.2307 0.23072,-0.6922 0,-6.4599 -0.23072,-2.3072 -0.23071,-0.9228 -0.23071,-0.6922 -0.23072,-0.4614 -0.23071,-0.4614 -0.46142,-0.2307 -0.23072,-0.4614 -0.46142,-0.2308 -0.69214,-0.2307 -0.46143,-0.2307 -2.76855,0 -0.46143,0.2307 -0.46142,0.4615 -0.23072,0.2307 -0.46142,0.4614 -0.23072,0.4614 0,0 0,0 z"
           style="font-style:normal;font-variant:normal;font-weight:normal;font-stretch:normal;font-size:22.5px;font-family:'stencil pencil';-inkscape-font-specification:'stencil pencil';fill:none;stroke:#ff0000;stroke-width:0.03543307;stroke-miterlimit:4;stroke-dasharray:none;stroke-opacity:1"
           id="path4211"
           inkscape:connector-curvature="0" />
        <path
           d="m -742.16412,1235.9623 0.23071,2.0764 0,0 -0.23071,3.6914 0,-1.8457 0,0.2307 0.23071,2.7686 0,-0.9229 0.23071,1.3843 0,-0.2307 0.23072,0.6921 0.23071,0.4614 0.46142,0.2308 0.23072,0.4614 0.46142,0.2307 0.23072,0.4614 0.92285,0.2307 2.07641,0 0.69214,-0.2307 0.46143,-0.2307 0.46142,-0.2307 0,-0.2307 0.23072,-0.4614 0,-0.6922 -0.23072,-0.4614 -0.46142,-0.4614 -1.38428,0 -0.69214,0.2307 -0.69214,-0.4614 -0.23071,0 0,0 0,-0.2308 -0.23071,0 -0.23072,-0.6921 0,-2.3071 0.23072,-0.4615 -0.23072,-3.6914 0,1.615 0.23072,-3.4607 0.23071,-0.4614 0.23071,-2.0764 0.23072,-0.4614 -0.46143,-2.5379 0,0 0,-0.2307 -0.23071,0 -0.69214,-0.2307 0,0 -0.92285,0.2307 0,0 -0.23072,0.2307 0,0 0,0.2307 -0.23071,1.3843 0,0 -0.46142,1.3843 -0.23072,1.1536 -0.23071,1.3842 -0.23071,2.5379 0,0 0,0 z m 3.46069,-0.6922 0.23071,1.3843 0.23072,0 0,0 0,0.2307 0.46142,0 1.15357,0.2307 0.92285,0.2308 1.15356,0 0.23071,-0.2308 0.46143,-0.4614 0,-0.9228 0.23071,0.2307 -0.46142,-0.6922 -0.23072,-0.4614 -0.46142,-0.2307 -1.61499,-0.2307 -0.69214,0 -0.92285,0.2307 -0.46143,0.2307 -0.23071,0.4614 0,0 0,0 z"
           style="font-style:normal;font-variant:normal;font-weight:normal;font-stretch:normal;font-size:22.5px;font-family:'stencil pencil';-inkscape-font-specification:'stencil pencil';fill:none;stroke:#ff0000;stroke-width:0.03543307;stroke-miterlimit:4;stroke-dasharray:none;stroke-opacity:1"
           id="path4213"
           inkscape:connector-curvature="0" />
        <path
           d="m -732.45221,1240.3458 0.23071,1.3843 0,-0.2307 0.23072,0.4614 0.46142,0.2307 -0.23071,0.4615 -0.23071,0.4614 0,0.6921 0.23071,0.4614 0.23071,0.4615 0.46143,0.2307 0.23071,0.4614 0.46143,0 0.23071,0.4614 0.69214,0.2307 0.23071,0.4615 0.92285,0.2307 0.69214,0.2307 1.15357,0.2307 0.92285,0 1.15356,-0.2307 0.46143,-0.2307 0.46142,-0.2307 0.23072,-0.2307 0.69213,-0.4615 0.23072,-0.2307 0.46142,-0.4614 0,-0.2307 0.46143,-0.4614 0,-0.2308 0,-1.3842 -0.23071,-0.4615 -0.46143,-0.2307 -1.15356,0 -0.46143,0.2307 -0.46143,0.6922 -0.23071,0.2307 -0.46142,0.4614 -0.23072,0.2307 -0.46142,0.2307 -1.15357,0 -0.46142,-0.2307 -0.46143,-0.2307 -0.46142,-0.2307 -0.46143,-0.2307 -0.23071,-0.4614 -0.46143,-0.2307 -0.23071,-0.2308 -0.46143,-0.4614 0.23072,-0.4614 0.23071,-0.9229 0.23071,-0.6921 0.23071,-0.4614 0.46143,-0.4615 0.23071,-0.2307 0.69214,-0.2307 0.23071,-0.2307 0,0 0,0 0,0 2.07642,0.2307 0.23071,0.2307 0.46143,0.2307 0.23071,0.6922 0.23071,0.4614 0.23072,0.9229 0.46142,0.2307 0.46143,0.2307 1.15356,0 0.23072,-0.2307 0.46142,-0.4614 0,-0.4615 0,-0.2307 -0.23071,-0.9228 -0.23071,-0.6922 -0.23072,-0.4614 -0.23071,-0.4614 -0.23071,-0.4615 -0.46143,-0.4614 -0.46142,-0.4614 -0.46143,-0.2307 -0.69214,-0.2307 -0.69214,-0.2307 -3.46069,0 -0.69214,0.2307 -0.46142,0.2307 -0.46143,0.2307 -0.46143,0.4614 -0.23071,0.2307 -0.23071,0.4615 -0.23072,0.2307 -0.23071,0.4614 -0.23071,0.4614 -0.23071,0.4614 -0.23072,0.6922 -0.23071,0.6921 0,0 0,0 z"
           style="font-style:normal;font-variant:normal;font-weight:normal;font-stretch:normal;font-size:22.5px;font-family:'stencil pencil';-inkscape-font-specification:'stencil pencil';fill:none;stroke:#ff0000;stroke-width:0.03543307;stroke-miterlimit:4;stroke-dasharray:none;stroke-opacity:1"
           id="path4215"
           inkscape:connector-curvature="0" />
        <path
           d="m -719.97174,1236.6544 0.23071,5.5371 0,0 0.23072,4.3836 0,-1.615 0.23071,2.0764 0,-0.2307 0.23071,0.6921 1.38428,0.2307 0.46142,-0.2307 0.23072,-0.2307 0.46142,-0.4614 -0.46142,-3.6914 0.23071,1.3843 -0.23071,-4.845 -0.23072,-0.9229 -0.23071,-0.9228 -0.23071,-0.6922 -0.23071,-0.4614 -0.23072,-0.4614 -0.23071,-0.2307 -1.15356,0.2307 0,0 -0.23072,0.2307 0,0 -0.23071,0.2307 0,0 0,0 0,0 z m 3.46069,0 0.23072,1.615 0.23071,0 0,0 0,0.2307 1.15356,-0.2307 0.46143,-0.2307 0.23071,-0.2307 0.46143,-0.2307 0.69214,0 0.69213,0.2307 0.46143,0.2307 0.23071,0.6921 0.23072,1.615 0,6.6907 0,0.9229 0.23071,0.4614 0.46142,0.2307 1.615,0 0.46142,-0.2307 0,-0.2307 0.23071,-0.6922 0,-6.4599 -0.23071,-2.3072 -0.23071,-0.9228 -0.23071,-0.6922 -0.23072,-0.4614 -0.23071,-0.4614 -0.46143,-0.2307 -0.23071,-0.4614 -0.46143,-0.2308 -0.69213,-0.2307 -0.46143,-0.2307 -2.76855,0 -0.46143,0.2307 -0.46143,0.4615 -0.23071,0.2307 -0.46142,0.4614 -0.23072,0.4614 0,0 0,0 z"
           style="font-style:normal;font-variant:normal;font-weight:normal;font-stretch:normal;font-size:22.5px;font-family:'stencil pencil';-inkscape-font-specification:'stencil pencil';fill:none;stroke:#ff0000;stroke-width:0.03543307;stroke-miterlimit:4;stroke-dasharray:none;stroke-opacity:1"
           id="path4217"
           inkscape:connector-curvature="0" />
        <path
           d="m -695.71393,1232.963 0.23071,3.23 0,-0.2307 0.23072,0.6921 0.23071,0.4614 0.23071,1.8457 0.23072,2.9993 0,0.2307 0,0.2307 -0.23072,3.4607 0.23072,0.2307 0.23071,0.6922 0.46142,0 1.15357,0 0.23071,-0.2307 0.23072,-0.4615 0.23071,-1.1535 0.23071,-1.3843 0,-4.3835 -0.23071,-1.8457 -0.23071,-1.1536 -0.23072,-0.6921 -0.23071,-0.4615 0,-1.8457 0.23071,-1.1535 0,-2.0765 -0.23071,-0.4614 -0.23071,-0.4614 -0.69214,-0.2307 -0.46143,0 -0.46142,0.2307 -0.46143,0.4614 -0.23071,0.4614 -0.23072,2.0765 -0.23071,0.9228 0,0 0,0 z m 4.61426,-0.4614 0.23071,0.6921 0.23072,0.4615 0.23071,0.4614 0.46142,0.2307 0,0.4614 0.46143,0.2307 0,0.4615 0.46143,0.2307 0,0.4614 0.46142,0.2307 0.23071,0.4614 0.23072,0.4615 0.46142,0.2307 0.23072,0.4614 0.46142,0.2307 0,0.4614 0.46143,0.2307 0.23071,0.4615 0.46143,0.2307 0.23071,0.4614 0.46142,0.2307 0.23072,0.4615 0.46142,0.2307 0.23072,0.4614 0.46142,0.2307 0.23071,0.4614 0.23072,0.4615 0.46142,0.2307 0.23072,0.4614 0.46142,0.2307 0.23072,0.4614 0.46142,0.2307 0.23071,0.4615 0.46143,0.2307 0.23071,0.4614 0.46143,0.2307 0.23071,0.4614 0.69214,0.2308 0.23071,0 0,0 0,0 0,0.2307 0.23072,-0.2307 0.69213,-0.2308 0.23072,-0.2307 0.46142,-0.4614 -0.23071,-0.9228 -0.23071,-0.6922 -0.23072,-0.4614 -0.46142,-0.2307 -0.23071,-0.2307 -0.46143,-0.2307 -0.23071,-0.4615 -0.46143,-0.2307 -0.23071,-0.4614 -0.46143,-0.2307 -0.23071,-0.4614 -0.23071,-0.4615 -0.46143,-0.2307 -0.23071,-0.4614 -0.46143,-0.2307 -0.23071,-0.4615 -0.46143,-0.2307 -0.23071,-0.4614 -0.46143,-0.2307 -0.23071,-0.4614 -0.46142,-0.2307 -0.23072,-0.4615 -0.46142,-0.4614 -0.23072,-0.4614 -0.46142,-0.2307 -0.23071,-0.4615 -0.46143,-0.4614 -0.23071,-0.4614 -0.46143,-0.4614 -0.23071,-0.4615 -0.46143,-0.4614 -0.23071,-0.4614 -0.46143,-0.2307 -0.23071,-0.4615 -0.46142,-0.2307 -1.61499,0 -0.46143,0.9229 0,0 0,0 z m 10.84351,-2.9993 0.23071,6.2293 0,-0.9229 0.23071,2.3071 0.23071,1.8457 0.23072,2.5379 0.23071,0.4614 0.69214,0.2307 0.92285,0 0.23071,-0.2307 0.46143,-0.4614 0,-0.4614 0,-3.6914 -0.23071,-1.615 -0.23072,-1.1536 -0.23071,-4.845 -0.23071,-0.6921 -0.46143,-0.4614 -1.38428,0 -0.46142,0.4614 -0.23071,0.4614 0,0 0,0 z"
           style="font-style:normal;font-variant:normal;font-weight:normal;font-stretch:normal;font-size:22.5px;font-family:'stencil pencil';-inkscape-font-specification:'stencil pencil';fill:none;stroke:#ff0000;stroke-width:0.03543307;stroke-miterlimit:4;stroke-dasharray:none;stroke-opacity:1"
           id="path4219"
           inkscape:connector-curvature="0" />
        <path
           d="m -675.63092,1244.9601 0.23071,0.9228 0.46143,0.2307 0.46142,0.2308 0.92286,0 0.46142,-0.2308 0.23071,-0.2307 0.23072,-0.9228 0,-9.4592 -0.23072,-0.4615 -0.23071,-0.2307 -1.38428,0 -0.46142,0.4614 -0.23071,0.2308 -0.23072,0.6921 0,0.2307 0,6.46 0,0 0,0.2307 -0.23071,1.8457 0,0 z m 0.23071,-14.3042 0.23072,1.615 0.23071,0 0,0 0,0.2307 0.46142,0 0.46143,0 0.69214,-0.2307 0.23071,-0.2307 0,-1.1536 -0.23071,-0.4614 -0.23071,-0.2307 -1.38428,0 -0.46143,0.4614 0,0 0,0 z"
           style="font-style:normal;font-variant:normal;font-weight:normal;font-stretch:normal;font-size:22.5px;font-family:'stencil pencil';-inkscape-font-specification:'stencil pencil';fill:none;stroke:#ff0000;stroke-width:0.03543307;stroke-miterlimit:4;stroke-dasharray:none;stroke-opacity:1"
           id="path4221"
           inkscape:connector-curvature="0" />
        <path
           d="m -671.45612,1240.1151 0.23072,3.9221 0,-0.9228 0.23071,1.615 0.23071,0.4614 0.46143,0.2307 0,0.4614 0.46142,0.2307 0.23072,0.4615 0.46142,0.2307 0.46143,0.2307 0.46142,0.2307 0.46143,0.2307 0.69214,0.2307 1.38428,0.2308 2.07641,0 1.61499,-0.2308 0.69214,-0.2307 0.69214,-0.2307 0.46143,-0.2307 0.46142,-0.2307 0.23071,-0.2307 0.46143,-0.4615 -0.23071,-0.4614 -0.23072,-0.4614 -6.45996,-0.2307 -0.92285,-0.2307 -0.46142,-0.2307 -0.46143,-0.2308 -0.23071,-0.4614 -0.46143,-0.4614 -0.23071,-0.6921 0,-0.4615 0.23071,-2.9992 0,0.2307 0.23071,-0.6922 0.23072,-0.4614 0.23071,-0.4614 0.46143,-0.4614 0.23071,-0.2308 0.69214,-0.4614 0.23071,-0.2307 1.15357,-0.4614 0.23071,0 2.76855,0.2307 -0.46142,0 1.15356,0.2307 0.92285,0 0.23072,-0.2307 -0.46143,-1.1536 0.23071,0 -0.46142,-0.2307 -0.23072,-0.4614 -0.46142,-0.2307 -0.46143,-0.2307 -0.69214,-0.2307 -3.22998,0 -0.69214,0.2307 -0.46142,0.2307 -0.46143,0.2307 -0.46142,0.2307 -0.46143,0.4614 -0.23071,0.2307 -0.46143,0.2308 -0.46142,0.4614 -0.23072,0.4614 -0.23071,0.2307 -0.23071,0.4614 -0.23071,0.2308 -0.23072,0.6921 -0.23071,0.4614 -0.23071,0.6922 -0.23072,0.9228 0,0 0,0 z"
           style="font-style:normal;font-variant:normal;font-weight:normal;font-stretch:normal;font-size:22.5px;font-family:'stencil pencil';-inkscape-font-specification:'stencil pencil';fill:none;stroke:#ff0000;stroke-width:0.03543307;stroke-miterlimit:4;stroke-dasharray:none;stroke-opacity:1"
           id="path4223"
           inkscape:connector-curvature="0" />
        <path
           d="m -657.83307,1240.3458 0.23071,1.3843 0,-0.2307 0.23072,0.4614 0.46142,0.2307 -0.23071,0.4615 -0.23071,0.4614 0,0.6921 0.23071,0.4614 0.23071,0.4615 0.46143,0.2307 0.23071,0.4614 0.46143,0 0.23071,0.4614 0.69214,0.2307 0.23071,0.4615 0.92285,0.2307 0.69214,0.2307 1.15357,0.2307 0.92285,0 1.15356,-0.2307 0.46143,-0.2307 0.46142,-0.2307 0.23072,-0.2307 0.69214,-0.4615 0.23071,-0.2307 0.46142,-0.4614 0,-0.2307 0.46143,-0.4614 0,-0.2308 0,-1.3842 -0.23071,-0.4615 -0.46143,-0.2307 -1.15356,0 -0.46143,0.2307 -0.46142,0.6922 -0.23072,0.2307 -0.46142,0.4614 -0.23072,0.2307 -0.46142,0.2307 -1.15357,0 -0.46142,-0.2307 -0.46143,-0.2307 -0.46142,-0.2307 -0.46143,-0.2307 -0.23071,-0.4614 -0.46143,-0.2307 -0.23071,-0.2308 -0.46143,-0.4614 0.23072,-0.4614 0.23071,-0.9229 0.23071,-0.6921 0.23071,-0.4614 0.46143,-0.4615 0.23071,-0.2307 0.69214,-0.2307 0.23071,-0.2307 0,0 0,0 0,0 2.07642,0.2307 0.23071,0.2307 0.46143,0.2307 0.23071,0.6922 0.23072,0.4614 0.23071,0.9229 0.46142,0.2307 0.46143,0.2307 1.15356,0 0.23072,-0.2307 0.46142,-0.4614 0,-0.4615 0,-0.2307 -0.23071,-0.9228 -0.23071,-0.6922 -0.23072,-0.4614 -0.23071,-0.4614 -0.23071,-0.4615 -0.46143,-0.4614 -0.46142,-0.4614 -0.46143,-0.2307 -0.69214,-0.2307 -0.69214,-0.2307 -3.46069,0 -0.69214,0.2307 -0.46142,0.2307 -0.46143,0.2307 -0.46143,0.4614 -0.23071,0.2307 -0.23071,0.4615 -0.23071,0.2307 -0.23072,0.4614 -0.23071,0.4614 -0.23071,0.4614 -0.23072,0.6922 -0.23071,0.6921 0,0 0,0 z"
           style="font-style:normal;font-variant:normal;font-weight:normal;font-stretch:normal;font-size:22.5px;font-family:'stencil pencil';-inkscape-font-specification:'stencil pencil';fill:none;stroke:#ff0000;stroke-width:0.03543307;stroke-miterlimit:4;stroke-dasharray:none;stroke-opacity:1"
           id="path4225"
           inkscape:connector-curvature="0" />
        <path
           d="m -645.3526,1229.0409 0.23071,18.2263 0,-0.6921 0.23072,0.9228 0.23071,0 0,0 0,0.2307 0.23071,0 1.61499,0 0.23071,-0.2307 0.23072,-0.6921 0,-0.4614 -0.23072,-4.845 -0.23071,-9.4592 -0.23071,-2.0765 -0.23071,-1.1535 -0.23072,-0.4614 -1.15356,0 -0.46143,0.2307 -0.23071,0.4614 0,0 0,0 z"
           style="font-style:normal;font-variant:normal;font-weight:normal;font-stretch:normal;font-size:22.5px;font-family:'stencil pencil';-inkscape-font-specification:'stencil pencil';fill:none;stroke:#ff0000;stroke-width:0.03543307;stroke-miterlimit:4;stroke-dasharray:none;stroke-opacity:1"
           id="path4227"
           inkscape:connector-curvature="0" />
        <path
           d="m -641.1778,1240.8073 0.23072,3.4606 0,-0.4614 0.23071,1.1536 0.46143,0.2307 0,0.4614 0.46142,0.2307 0.23071,0.4615 0.69214,0.2307 0.46143,0.2307 0.46143,0.2307 0.69213,0.2307 1.15357,0.2307 3.22998,0 1.38428,-0.2307 0.46142,-0.2307 0.46143,-0.2307 0.46142,-0.2307 0.23072,-0.2307 0.46142,-0.4615 0.23071,-0.2307 0.23072,-0.9228 0.23071,1.3842 0.23071,0.6922 0.23072,0.4614 0.46142,0.2307 0.46143,0.2307 0.69214,0 0.46142,-0.2307 0,-0.2307 0.23072,-0.6921 0,-0.9229 -0.23072,-1.3843 -0.23071,-1.3842 -0.23071,-1.615 -0.23072,-1.615 -0.23071,-1.3843 -0.23071,-1.1536 -0.23071,-0.6921 -0.23072,-0.4614 -0.23071,-0.4614 -0.46143,-0.2308 -0.46142,0 -0.46143,0.4615 -0.23071,0.2307 0.23071,4.3835 0.23071,0.2307 0,4.1529 0.23072,-1.8457 -0.46143,1.8457 -0.46142,-0.2307 0.46142,0 -0.46142,0 -0.69214,0.2307 0,0 -1.84571,-0.2307 1.38428,0 -0.46142,0 -3.4607,0.2307 0,0 -2.07641,-0.4615 0.23071,0.2308 -0.46143,-0.4615 -0.46142,-0.2307 -0.46143,-0.4614 0,-2.5378 0.23072,-0.6922 0.23071,-0.4614 0.23071,-0.4614 0.46143,-0.4615 0.23071,-0.4614 0.46143,-0.4614 0.23071,-0.2307 0.46142,-0.4615 0.23072,-0.2307 0.46142,-0.4614 0.46143,-0.2307 1.38428,0 0.46142,0.2307 0.69214,0.2307 1.8457,0 -0.46142,-1.3843 0.23071,0 -0.46143,-0.2307 -0.23071,-0.4614 -0.46142,-0.2307 -0.69214,-0.4614 -0.69214,-0.2307 -2.30713,0 -0.69214,0.2307 -0.46142,0.2307 -0.46143,0.2307 -0.46143,0.4614 -0.23071,0.2307 -0.46142,0.2307 -0.46143,0.4615 -0.23071,0.2307 -0.23072,0.4614 -0.23071,0.2307 -0.46143,0.6922 -0.23071,0.2307 -0.46142,0.6921 -0.23072,0.4614 -0.23071,0.4615 -0.23071,0.6921 -0.23072,0.9229 0,0 0,0 z"
           style="font-style:normal;font-variant:normal;font-weight:normal;font-stretch:normal;font-size:22.5px;font-family:'stencil pencil';-inkscape-font-specification:'stencil pencil';fill:none;stroke:#ff0000;stroke-width:0.03543307;stroke-miterlimit:4;stroke-dasharray:none;stroke-opacity:1"
           id="path4229"
           inkscape:connector-curvature="0" />
        <path
           d="m -624.78619,1234.1166 0.23071,3.4607 0,-0.2307 0.23071,0.6921 0.23071,0.4614 0.46143,0.2307 0.23071,0.4615 0.69214,0.2307 0.46143,0.2307 0.23071,0.4614 1.15357,0.2307 0.23071,0.2307 1.38428,0 -0.69214,0.2308 1.38427,-0.4615 0.23072,-0.2307 0.23071,-0.4614 0,-0.9229 -0.23071,-0.4614 -0.46143,-0.4614 -0.92285,-0.2307 -0.46143,-0.2307 -0.69213,-0.2308 -0.46143,-0.2307 -0.46143,-0.2307 -0.23071,-0.6921 0,-0.6922 0.23071,-0.9228 0.23072,-0.4614 0.23071,-0.4615 0.23071,-0.4614 0.46143,-0.2307 0.92285,-0.2307 0.69214,-0.2307 0.69214,-0.2307 1.15356,0 0.69214,0.2307 0.46143,0.2307 0.23071,0.4614 0.46142,0.2307 0.23072,0.4615 0.46142,0.2307 0.23072,0.4614 0.46142,0.2307 0.92285,0 0.46143,-0.2307 0.23071,-0.2307 0,-1.615 -0.23071,-0.4614 -0.23071,-0.4615 -0.46143,-0.4614 -0.23071,-0.4614 -0.46143,-0.2307 -0.23071,-0.2307 -0.46143,-0.2308 -0.23071,-0.2307 -0.69214,-0.2307 -0.46142,-0.2307 -3.22998,0 -0.69214,0.2307 -0.92285,0.2307 -0.69214,0.2307 -0.69214,0.2308 -0.46143,0.2307 -0.46142,0.4614 -0.23072,0.2307 -0.46142,0.6921 -0.23072,0.4615 -0.23071,0.4614 -0.23071,0.4614 -0.23071,0.9229 0,0 0,0 z m 0.46142,9.9206 0.23071,1.615 0.23072,0 0,0 0,0.2307 0.23071,0.2307 0.69214,0.2308 0.46143,0.2307 0.46142,0.2307 0.69214,0.2307 0.46143,0.2307 0.69213,0.2307 2.76856,0 0.69214,-0.2307 0.69214,-0.2307 0.46142,-0.2307 0.46143,-0.2307 0.23071,-0.2307 0.69214,-0.4615 0.23071,-0.2307 0.23071,-0.4614 0.46143,-0.4614 0,-0.2307 0.23071,-0.9229 0,-1.8457 -0.23071,-0.9228 -0.23071,-0.4615 -0.46143,-0.4614 -0.23071,-0.4614 -0.46143,-0.2307 -0.23071,-0.4615 -0.46143,-0.2307 -0.46142,-0.2307 -0.92285,0 -0.46143,0.2307 -0.46142,0.6922 0,1.1535 0.46142,0.2307 0.23071,0.4615 0.46143,0.2307 0.23071,0.4614 0.46143,0.2307 -0.46143,1.615 0,0 0,0 -0.23071,0.2307 0,0 -0.23071,0.2307 0,0 -0.23072,0.2307 -0.23071,0 -0.46142,0.2308 -0.69214,0.2307 -0.92285,0 -0.69214,-0.2307 -0.46143,-0.2308 -0.46142,-0.2307 -0.46143,-0.2307 -0.69214,-0.2307 -1.15356,0 -0.69214,0.2307 -0.46143,0.2307 0,0 z"
           style="font-style:normal;font-variant:normal;font-weight:normal;font-stretch:normal;font-size:22.5px;font-family:'stencil pencil';-inkscape-font-specification:'stencil pencil';fill:none;stroke:#ff0000;stroke-width:0.03543307;stroke-miterlimit:4;stroke-dasharray:none;stroke-opacity:1"
           id="path4231"
           inkscape:connector-curvature="0" />
        <path
           d="m -599.60553,1232.963 0.23071,3.23 0,-0.2307 0.23072,0.6921 0.23071,0.4614 0.23071,1.8457 0.23071,2.9993 0,0.2307 0,0.2307 -0.23071,3.4607 0.23071,0.2307 0.23072,0.6922 0.46142,0 1.15357,0 0.23071,-0.2307 0.23071,-0.4615 0.23072,-1.1535 0.23071,-1.3843 0,-4.3835 -0.23071,-1.8457 -0.23072,-1.1536 -0.23071,-0.6921 -0.23071,-0.4615 0,-1.8457 0.23071,-1.1535 0,-2.0765 -0.23071,-0.4614 -0.23072,-0.4614 -0.69213,-0.2307 -0.46143,0 -0.46143,0.2307 -0.46142,0.4614 -0.23071,0.4614 -0.23072,2.0765 -0.23071,0.9228 0,0 0,0 z m 4.61426,-0.4614 0.23071,0.6921 0.23071,0.4615 0.23072,0.4614 0.46142,0.2307 0,0.4614 0.46143,0.2307 0,0.4615 0.46142,0.2307 0,0.4614 0.46143,0.2307 0.23071,0.4614 0.23072,0.4615 0.46142,0.2307 0.23071,0.4614 0.46143,0.2307 0,0.4614 0.46143,0.2307 0.23071,0.4615 0.46142,0.2307 0.23072,0.4614 0.46142,0.2307 0.23072,0.4615 0.46142,0.2307 0.23071,0.4614 0.46143,0.2307 0.23071,0.4614 0.23072,0.4615 0.46142,0.2307 0.23071,0.4614 0.46143,0.2307 0.23071,0.4614 0.46143,0.2307 0.23071,0.4615 0.46143,0.2307 0.23071,0.4614 0.46143,0.2307 0.23071,0.4614 0.69214,0.2308 0.23071,0 0,0 0,0 0,0.2307 0.23071,-0.2307 0.69214,-0.2308 0.23072,-0.2307 0.46142,-0.4614 -0.23071,-0.9228 -0.23071,-0.6922 -0.23072,-0.4614 -0.46142,-0.2307 -0.23072,-0.2307 -0.46142,-0.2307 -0.23071,-0.4615 -0.46143,-0.2307 -0.23071,-0.4614 -0.46143,-0.2307 -0.23071,-0.4614 -0.23071,-0.4615 -0.46143,-0.2307 -0.23071,-0.4614 -0.46143,-0.2307 -0.23071,-0.4615 -0.46143,-0.2307 -0.23071,-0.4614 -0.46143,-0.2307 -0.23071,-0.4614 -0.46143,-0.2307 -0.23071,-0.4615 -0.46142,-0.4614 -0.23072,-0.4614 -0.46142,-0.2307 -0.23072,-0.4615 -0.46142,-0.4614 -0.23071,-0.4614 -0.46143,-0.4614 -0.23071,-0.4615 -0.46143,-0.4614 -0.23071,-0.4614 -0.46143,-0.2307 -0.23071,-0.4615 -0.46143,-0.2307 -1.61499,0 -0.46142,0.9229 0,0 0,0 z m 10.8435,-2.9993 0.23072,6.2293 0,-0.9229 0.23071,2.3071 0.23071,1.8457 0.23072,2.5379 0.23071,0.4614 0.69214,0.2307 0.92285,0 0.23071,-0.2307 0.46143,-0.4614 0,-0.4614 0,-3.6914 -0.23072,-1.615 -0.23071,-1.1536 -0.23071,-4.845 -0.23071,-0.6921 -0.46143,-0.4614 -1.38428,0 -0.46142,0.4614 -0.23072,0.4614 0,0 0,0 z"
           style="font-style:normal;font-variant:normal;font-weight:normal;font-stretch:normal;font-size:22.5px;font-family:'stencil pencil';-inkscape-font-specification:'stencil pencil';fill:none;stroke:#ff0000;stroke-width:0.03543307;stroke-miterlimit:4;stroke-dasharray:none;stroke-opacity:1"
           id="path4233"
           inkscape:connector-curvature="0" />
        <path
           d="m -579.52252,1240.3458 0.23071,1.3843 0,-0.2307 0.23071,0.4614 0.46143,0.2307 -0.23071,0.4615 -0.23072,0.4614 0,0.6921 0.23072,0.4614 0.23071,0.4615 0.46143,0.2307 0.23071,0.4614 0.46142,0 0.23072,0.4614 0.69214,0.2307 0.23071,0.4615 0.92285,0.2307 0.69214,0.2307 1.15356,0.2307 0.92285,0 1.15357,-0.2307 0.46142,-0.2307 0.46143,-0.2307 0.23071,-0.2307 0.69214,-0.4615 0.23072,-0.2307 0.46142,-0.4614 0,-0.2307 0.46143,-0.4614 0,-0.2308 0,-1.3842 -0.23072,-0.4615 -0.46142,-0.2307 -1.15357,0 -0.46142,0.2307 -0.46143,0.6922 -0.23071,0.2307 -0.46143,0.4614 -0.23071,0.2307 -0.46143,0.2307 -1.15356,0 -0.46143,-0.2307 -0.46142,-0.2307 -0.46143,-0.2307 -0.46142,-0.2307 -0.23072,-0.4614 -0.46142,-0.2307 -0.23071,-0.2308 -0.46143,-0.4614 0.23071,-0.4614 0.23072,-0.9229 0.23071,-0.6921 0.23071,-0.4614 0.46143,-0.4615 0.23071,-0.2307 0.69214,-0.2307 0.23071,-0.2307 0,0 0,0 0,0 2.07642,0.2307 0.23071,0.2307 0.46143,0.2307 0.23071,0.6922 0.23071,0.4614 0.23071,0.9229 0.46143,0.2307 0.46143,0.2307 1.15356,0 0.23071,-0.2307 0.46143,-0.4614 0,-0.4615 0,-0.2307 -0.23071,-0.9228 -0.23072,-0.6922 -0.23071,-0.4614 -0.23071,-0.4614 -0.23071,-0.4615 -0.46143,-0.4614 -0.46143,-0.4614 -0.46142,-0.2307 -0.69214,-0.2307 -0.69214,-0.2307 -3.46069,0 -0.69214,0.2307 -0.46143,0.2307 -0.46142,0.2307 -0.46143,0.4614 -0.23071,0.2307 -0.23071,0.4615 -0.23072,0.2307 -0.23071,0.4614 -0.23071,0.4614 -0.23072,0.4614 -0.23071,0.6922 -0.23071,0.6921 0,0 0,0 z"
           style="font-style:normal;font-variant:normal;font-weight:normal;font-stretch:normal;font-size:22.5px;font-family:'stencil pencil';-inkscape-font-specification:'stencil pencil';fill:none;stroke:#ff0000;stroke-width:0.03543307;stroke-miterlimit:4;stroke-dasharray:none;stroke-opacity:1"
           id="path4235"
           inkscape:connector-curvature="0" />
        <path
           d="m -567.04205,1237.808 0.23071,5.0757 0,-0.9229 0.23071,1.615 0.23072,0.4614 0.23071,0.4615 0.46142,0.2307 0.23072,0.6921 0.46142,0.2307 0.46143,0.2307 0.23071,0.4615 0.69214,0.2307 0.46143,0.2307 0.46142,0.2307 0.69214,0.2307 0.92285,0.2307 1.15357,0.2307 4.61425,0 0.69214,-0.2307 0.23072,-0.2307 0.23071,-0.4614 0,-1.1536 -0.23071,-0.4614 -0.23072,-0.2307 -0.46142,0 -3.4607,0 1.38428,0.2307 -2.76855,-0.4614 -0.46143,0 -1.15356,-0.4615 -0.46143,-0.2307 -0.46143,-0.2307 -0.46142,-0.2307 -0.23071,-0.4614 -0.46143,-0.2307 -0.23071,-0.4615 -0.23072,-0.6921 -0.23071,-2.3071 0,-0.2307 0.23071,-1.3843 0.23072,-0.4614 0.46142,-0.4615 0.23072,-0.4614 0.46142,-0.4614 0.23071,-0.2307 0.69214,-0.4615 0.46143,-0.2307 2.07642,0 0.46142,0.2307 0.46143,0.2308 0.23071,0.4614 0.46143,0 0.23071,0.4614 0.46142,0.2307 0.23072,0.4614 0.46142,0.2308 0.23072,0.4614 0.46142,0 0.46143,0.2307 1.15356,0 0.23071,-0.2307 -0.46142,-1.8457 0.23071,0 -0.46142,-0.2307 -0.23072,-0.4615 -0.23071,-0.4614 -0.46143,-0.2307 -0.23071,-0.4614 -0.46142,-0.2307 -0.23072,-0.4615 -0.46142,-0.2307 -0.46143,-0.4614 -0.46142,-0.2307 -0.69214,-0.2307 -1.15357,-0.2307 -1.8457,0 -0.92285,0.2307 -0.69214,0.2307 -0.46143,0.4614 -0.46142,0.2307 -0.46143,0.2307 -0.46142,0.4615 -0.23072,0.2307 -0.46142,0.4614 -0.23072,0.2307 -0.23071,0.4614 -0.23071,0.2308 -0.23071,0.4614 -0.23072,0.4614 -0.23071,0.4614 -0.23071,0.9229 0,0 0,0 z m 3.46069,1.615 0.23071,0.9228 0.46143,0.2307 0.69214,0.2308 1.38427,0.2307 2.76856,0.2307 3.22998,0 0.46143,-0.2307 0.23071,-0.4615 0,-1.1535 -0.23071,-0.4615 -0.46143,-0.2307 -6.69067,-0.2307 4.15283,0 -5.53711,0.2307 0.92285,0 -1.15356,0.2307 0,0 -0.23072,0.2308 0,0 -0.23071,0.2307 0,0 0,0 0,0 z"
           style="font-style:normal;font-variant:normal;font-weight:normal;font-stretch:normal;font-size:22.5px;font-family:'stencil pencil';-inkscape-font-specification:'stencil pencil';fill:none;stroke:#ff0000;stroke-width:0.03543307;stroke-miterlimit:4;stroke-dasharray:none;stroke-opacity:1"
           id="path4237"
           inkscape:connector-curvature="0" />
        <path
           d="m -552.49615,1229.0409 0.23071,18.2263 0,-0.6921 0.23071,0.9228 0.23071,0 0,0 0,0.2307 0.23072,0 1.61499,0 0.23071,-0.2307 0.23071,-0.6921 0,-0.4614 -0.23071,-4.845 -0.23071,-9.4592 -0.23072,-2.0765 -0.23071,-1.1535 -0.23071,-0.4614 -1.15357,0 -0.46142,0.2307 -0.23071,0.4614 0,0 0,0 z"
           style="font-style:normal;font-variant:normal;font-weight:normal;font-stretch:normal;font-size:22.5px;font-family:'stencil pencil';-inkscape-font-specification:'stencil pencil';fill:none;stroke:#ff0000;stroke-width:0.03543307;stroke-miterlimit:4;stroke-dasharray:none;stroke-opacity:1"
           id="path4239"
           inkscape:connector-curvature="0" />
        <path
           d="m -536.76373,1230.1945 0.23071,1.1535 0.46143,0.2307 0.92285,0 0.46142,-0.2307 0.23072,-0.2307 0.46142,-0.4614 0.23071,-0.2307 0.46143,-0.4615 0.23071,-0.2307 0.46143,-0.4614 0.23071,-0.2307 0.46143,-0.4614 0.23071,-0.2307 0.69214,-0.4615 0.46143,-0.2307 0.46142,-0.2307 1.38428,0 0.46142,0.2307 0.23072,0.4614 0.46142,0.2308 0.23072,0.6921 0.23071,0.4614 0,1.3843 -0.23071,0.6921 -0.23072,0.4615 -0.23071,0.4614 -0.23071,0.4614 -0.23072,0.4614 -0.23071,0.4615 -0.23071,0.4614 -0.23071,0.2307 -0.46143,0.6921 -0.23071,0.2308 -0.46143,0.4614 -0.23071,0.2307 -0.46143,0.6921 -0.23071,0.2307 -0.46143,0.6922 -0.23071,0.2307 -0.46143,0.9228 -0.23071,0.6922 -0.23071,0.4614 0,1.1536 0.46142,0.2307 0.23072,0.4614 0.92285,0 0.69214,-0.2307 0.23071,-0.2307 0.23071,-0.4614 0.23072,-0.4615 0.23071,-0.4614 0.23071,-0.4614 0.23072,-0.4614 0.46142,-0.4615 0.23071,-0.2307 0.23072,-0.4614 0.46142,-0.4614 0.23072,-0.2307 0.46142,-0.4615 0.23071,-0.4614 0.46143,-0.4614 0,-0.2307 0.23071,-0.4615 0.46143,-0.4614 0,-0.2307 0.23071,-0.4614 0.23071,-0.4614 0.23072,-0.4615 0.23071,-0.6921 0.23071,-0.6922 0.23072,-0.9228 0,-1.3843 -0.23072,-1.1535 -0.23071,-0.4615 -0.23071,-0.4614 -0.23072,-0.4614 -0.23071,-0.4614 -0.46142,-0.2308 -0.23072,-0.4614 -0.46142,-0.2307 -0.46143,-0.4614 -0.46142,-0.2307 -0.46143,-0.2308 -0.69214,-0.2307 -1.61499,0 -0.92285,0.2307 -0.69214,0.2308 -0.46143,0.2307 -0.46142,0.2307 -0.46143,0.4614 -0.46142,0.2307 -0.46143,0.4615 -0.46142,0.2307 -0.46143,0.6921 -0.23071,0.2307 -0.46143,0.4614 -0.23071,0.2308 -0.46143,0.6921 -0.23071,0.4614 -0.23071,0.6922 0,0 0,0 z m 4.38354,13.1506 0.23071,1.615 0.23072,0 0,0 0,0.2307 0.23071,0 0.46143,0.2307 0.69214,0.2307 2.53784,0 0.92285,-0.2307 0.69214,-0.2307 1.15356,-0.2307 1.61499,-0.2307 1.38428,-0.2307 3.46069,-0.2308 1.61499,-0.2307 0.23072,-0.2307 0.46142,-0.4614 0,-0.2307 0,-0.6922 -0.23071,-0.4614 -0.23071,-0.4614 -0.69214,-0.2307 -1.15357,0 -1.15356,0.2307 -3.69141,0.2307 -1.61499,0.2307 -1.15356,0.2307 -0.92285,0.2307 -0.92286,0.2308 -3.46069,0.2307 -0.46143,0.2307 -0.23071,0.2307 0,0 z"
           style="font-style:normal;font-variant:normal;font-weight:normal;font-stretch:normal;font-size:22.5px;font-family:'stencil pencil';-inkscape-font-specification:'stencil pencil';fill:none;stroke:#ff0000;stroke-width:0.03543307;stroke-miterlimit:4;stroke-dasharray:none;stroke-opacity:1"
           id="path4241"
           inkscape:connector-curvature="0" />
        <path
           d="m -515.31842,1233.6552 0.23071,4.8449 0,-1.3843 0.23072,2.3072 0,-0.6922 0.23071,1.3843 0.23071,0.4614 0.46143,0.2308 0.23071,0.6921 0.46143,0.2307 0.23071,0.4614 0.46142,0.2307 0.23072,0.4615 0.69214,0.2307 0.46142,0.2307 2.07642,0 0.23071,-0.2307 0.46143,-0.2307 0.23071,-1.3843 -0.23071,-0.4614 -0.69214,-0.2307 0,0 -0.69214,-0.2308 -0.23071,0 -0.23072,0 -0.46142,-0.4614 -0.46143,-0.2307 -0.23071,-0.4614 -0.46143,-0.4615 -0.23071,-0.4614 -0.23071,-1.3843 0,-3.6914 0.23071,-0.9228 0.23071,-0.6922 0.23072,-0.4614 0.23071,-0.4614 0.46142,-0.4614 0.23072,-0.4615 0.46142,-0.2307 0.23072,-0.2307 0.69213,-0.4614 0.92286,-0.2307 0.69213,-0.2307 0.23072,-0.2307 0.46142,-0.4615 -0.23071,-0.6921 -0.23071,-0.4614 -0.46143,-0.2307 -1.61499,-0.2308 0,0 -0.46142,0.2308 -1.15357,0.2307 -0.46142,0.2307 -0.46143,0.4614 -0.46143,0.2307 -0.46142,0.4614 -0.23071,0.2308 -0.23072,0.4614 -0.23071,0.2307 -0.23071,0.4614 -0.23072,0.2307 -0.23071,0.4615 -0.23071,0.6921 -0.23071,0.6921 -0.23072,0.6922 -0.23071,1.3843 0,0 0,0 z m 9.68994,6.9213 0.23071,1.3843 0,-0.2307 0.23072,0.4614 0.69214,0.2307 1.15356,-0.2307 0.23071,-0.2307 0.46143,-0.2307 0.23071,-0.2307 0.46143,-0.4614 0.46142,-0.2307 0.23072,-0.2308 0.46142,-0.4614 0.23071,-0.2307 0.23072,-0.4614 0.46142,-0.4615 0.23072,-0.9228 0.23071,-1.3843 0,-2.9992 -0.23071,-1.3843 -0.23072,-0.9229 -0.23071,-0.6921 -0.23071,-0.4614 -0.23072,-0.4615 -0.23071,-0.4614 -0.23071,-0.4614 -0.46143,-0.4614 -0.23071,-0.4615 -0.46143,-0.2307 -0.46142,-0.4614 -0.46143,-0.2307 -1.38427,0 -0.46143,0.2307 -0.46143,0.6921 0,1.3843 0.69214,0.2307 0.69214,0.2307 0.23071,0.4615 0.46143,0.2307 0,0.4614 0.46143,0.2307 0,0.6921 0.23071,0.6922 0.23071,1.1536 0,2.9992 -0.23071,0.9229 -0.23071,0.4614 -0.23072,0.2307 -0.46142,0.4614 -0.23072,0 -0.46142,0.4615 -0.23071,0.2307 -0.46143,0.2307 -0.46143,0.4614 -0.23071,0.4614 0,0 0,0 z"
           style="font-style:normal;font-variant:normal;font-weight:normal;font-stretch:normal;font-size:22.5px;font-family:'stencil pencil';-inkscape-font-specification:'stencil pencil';fill:none;stroke:#ff0000;stroke-width:0.03543307;stroke-miterlimit:4;stroke-dasharray:none;stroke-opacity:1"
           id="path4243"
           inkscape:connector-curvature="0" />
        <path
           d="m -498.22369,1227.6566 0.23071,6.2293 0.23071,0.2307 0.23071,5.3064 0.23072,0.2307 0.23071,2.3071 0,-0.4614 0.23071,0.9228 0.46143,0.2308 0.23071,0.4614 1.38428,-0.4614 0,0 0.23071,-0.2308 0,-0.2307 0,-0.2307 0,0 0,0 0.23072,-0.2307 -0.46143,-4.845 0,-0.4614 -0.46143,-4.845 0,-0.4614 -0.46142,-3.23 0.23071,0.9229 -0.46142,-1.3843 0.23071,0 -0.46143,-0.2307 -0.69214,-0.2307 0,0 -0.92285,0.2307 0,0 -0.23071,0.2307 0,0 -0.23071,0.2307 0,0 0,0 0,0 z"
           style="font-style:normal;font-variant:normal;font-weight:normal;font-stretch:normal;font-size:22.5px;font-family:'stencil pencil';-inkscape-font-specification:'stencil pencil';fill:none;stroke:#ff0000;stroke-width:0.03543307;stroke-miterlimit:4;stroke-dasharray:none;stroke-opacity:1"
           id="path4245"
           inkscape:connector-curvature="0" />
        <path
           d="m -493.12604,1232.963 0.23072,4.6143 0.23071,0 0,0 0,0.2307 0.23071,0 0.46143,0.2307 1.15356,0 1.38428,-0.2307 1.38428,-0.2307 3.46069,0 0.92285,0.2307 0.23071,0.4614 0.69214,0.2307 0.23072,0.4614 0.23071,0.6922 0,0.6921 -0.23071,0.6922 -0.23072,0.2307 -0.46142,0.2307 -0.46143,0.2307 -0.46142,0.2307 -0.69214,0.2307 -1.38428,0.2307 -1.8457,0 -0.46143,0 -2.99927,0.2308 0,0 -0.23071,0.2307 -0.23071,0.9228 0.23071,0.4614 0.46143,0.2308 0.46142,0.2307 0.23071,0.4614 2.76856,0.2307 2.99927,-0.2307 1.15356,-0.2307 0.69214,-0.2307 0.46143,-0.2307 0.46142,-0.2308 0.46143,-0.2307 0.23071,-0.2307 0.69214,-0.4614 0.23071,-0.2307 0.46143,-0.4614 0,-0.2308 0.23071,-0.4614 0.23071,-0.4614 0,-2.9993 -0.23071,-0.4614 -0.23071,-0.4614 -0.23072,-0.4615 -0.23071,-0.4614 -0.46142,-0.2307 -0.23072,-0.4614 -0.46142,-0.2307 -0.23072,-0.2307 -0.46142,-0.2308 -0.46143,-0.2307 -0.69214,-0.2307 -1.15356,-0.2307 -2.99927,0 -1.8457,0.2307 -0.69214,0 0,-2.9993 0,-1.6149 -0.23071,-0.4615 -0.46143,-0.2307 -0.92285,0 -0.46143,0.4614 -0.23071,0.2308 -0.46142,1.3842 -0.23072,1.3843 0,0 0,0 z m 0.46143,-5.7678 0.23071,0.6921 0.23071,0.6922 1.38428,0.2307 0.46143,0 0.69214,0.2307 1.15356,0.2307 2.07642,0 1.38427,-0.2307 0.92286,-0.2307 0.92285,-0.2307 0.92285,-0.2307 0.69214,-0.2308 0.46142,-0.2307 0.23072,-0.4614 0,-1.1536 -0.23072,-0.4614 -1.38427,-0.2307 -0.23072,0 -0.46142,0.2307 -2.07642,0.2307 0.46143,0 -1.38428,0.2307 -2.30713,0 -0.92285,-0.2307 -0.92285,-0.2307 -0.92285,0 -0.46143,0.2307 -0.46143,0.2307 -0.46142,0.9229 0,0 0,0 z"
           style="font-style:normal;font-variant:normal;font-weight:normal;font-stretch:normal;font-size:22.5px;font-family:'stencil pencil';-inkscape-font-specification:'stencil pencil';fill:none;stroke:#ff0000;stroke-width:0.03543307;stroke-miterlimit:4;stroke-dasharray:none;stroke-opacity:1"
           id="path4247"
           inkscape:connector-curvature="0" />
      </g>
    </g>
  </g>
</svg>
