<?xml version="1.0" encoding="UTF-8" standalone="no"?>
<!-- Created with Inkscape (http://www.inkscape.org/) -->

<svg
   xmlns:dc="http://purl.org/dc/elements/1.1/"
   xmlns:cc="http://creativecommons.org/ns#"
   xmlns:rdf="http://www.w3.org/1999/02/22-rdf-syntax-ns#"
   xmlns:svg="http://www.w3.org/2000/svg"
   xmlns="http://www.w3.org/2000/svg"
   xmlns:sodipodi="http://sodipodi.sourceforge.net/DTD/sodipodi-0.dtd"
   xmlns:inkscape="http://www.inkscape.org/namespaces/inkscape"
   width="60mm"
   height="93.203415mm"
   viewBox="0 0 212.59842 330.2483"
   id="svg4453"
   version="1.1"
   inkscape:version="0.91 r13725"
   sodipodi:docname="plaque_dessous.svg">
  <defs
     id="defs4455">
    <inkscape:path-effect
       fuse_tolerance="0"
       vertical_pattern="false"
       prop_units="false"
       tang_offset="0"
       normal_offset="0"
       spacing="0"
       scale_y_rel="false"
       prop_scale="1"
       copytype="single_stretched"
       pattern="M 0,0 1,0"
       is_visible="true"
       id="path-effect4229"
       effect="skeletal" />
    <clipPath
       id="clipPath3009"
       clipPathUnits="userSpaceOnUse">
      <path
         inkscape:connector-curvature="0"
         id="path3011"
         d="m 250.5,399.32 109.26,0 0,260.94 -109.26,0 0,-260.94 z" />
    </clipPath>
    <clipPath
       id="clipPath3063"
       clipPathUnits="userSpaceOnUse">
      <path
         inkscape:connector-curvature="0"
         id="path3065"
         d="m 92.16,363.74 -5.04,0 0,-16.14 5.04,0 0,16.14 z m -5.04,0 z m 70.8,0 -5.04,0 0,-16.14 5.04,0 0,16.14 z"
         style="clip-rule:evenodd" />
    </clipPath>
    <clipPath
       id="clipPath3069"
       clipPathUnits="userSpaceOnUse">
      <path
         inkscape:connector-curvature="0"
         id="path3071"
         d="m 0,841.98 595.2,0 L 595.2,0 0,0 0,841.98 Z" />
    </clipPath>
    <clipPath
       id="clipPath3085"
       clipPathUnits="userSpaceOnUse">
      <path
         inkscape:connector-curvature="0"
         id="path3087"
         d="m 163.38,363.74 -5.04,0 0,-16.14 5.04,0 0,16.14 z m -5.04,0 z m 73.98,0 -5.04,0 0,-16.14 5.04,0 0,16.14 z"
         style="clip-rule:evenodd" />
    </clipPath>
    <clipPath
       id="clipPath3091"
       clipPathUnits="userSpaceOnUse">
      <path
         inkscape:connector-curvature="0"
         id="path3093"
         d="m 0,841.98 595.2,0 L 595.2,0 0,0 0,841.98 Z" />
    </clipPath>
    <clipPath
       id="clipPath3107"
       clipPathUnits="userSpaceOnUse">
      <path
         inkscape:connector-curvature="0"
         id="path3109"
         d="m 237.78,363.74 -5.04,0 0,-16.14 5.04,0 0,16.14 z m -5.04,0 z m 62.7,0 -5.04,0 0,-16.14 5.04,0 0,16.14 z"
         style="clip-rule:evenodd" />
    </clipPath>
    <clipPath
       id="clipPath3113"
       clipPathUnits="userSpaceOnUse">
      <path
         inkscape:connector-curvature="0"
         id="path3115"
         d="m 0,841.98 595.2,0 L 595.2,0 0,0 0,841.98 Z" />
    </clipPath>
    <clipPath
       id="clipPath3129"
       clipPathUnits="userSpaceOnUse">
      <path
         inkscape:connector-curvature="0"
         id="path3131"
         d="m 300.9,363.74 -4.92,0 0,-16.14 4.92,0 0,16.14 z m -4.92,0 z m 212.04,0 -5.04,0 0,-16.14 5.04,0 0,16.14 z"
         style="clip-rule:evenodd" />
    </clipPath>
    <clipPath
       id="clipPath3135"
       clipPathUnits="userSpaceOnUse">
      <path
         inkscape:connector-curvature="0"
         id="path3137"
         d="m 0,841.98 595.2,0 L 595.2,0 0,0 0,841.98 Z" />
    </clipPath>
  </defs>
  <sodipodi:namedview
     id="base"
     pagecolor="#ffffff"
     bordercolor="#666666"
     borderopacity="1.0"
     inkscape:pageopacity="0"
     inkscape:pageshadow="2"
     inkscape:zoom="1"
     inkscape:cx="411.64278"
     inkscape:cy="211.48592"
     inkscape:document-units="mm"
     inkscape:current-layer="layer1"
     showgrid="false"
     fit-margin-top="0"
     fit-margin-left="0"
     fit-margin-right="0"
     fit-margin-bottom="0"
     inkscape:window-width="1440"
     inkscape:window-height="838"
     inkscape:window-x="-8"
     inkscape:window-y="-8"
     inkscape:window-maximized="1" />
  <metadata
     id="metadata4458">
    <rdf:RDF>
      <cc:Work
         rdf:about="">
        <dc:format>image/svg+xml</dc:format>
        <dc:type
           rdf:resource="http://purl.org/dc/dcmitype/StillImage" />
        <dc:title></dc:title>
      </cc:Work>
    </rdf:RDF>
  </metadata>
  <g
     inkscape:label="Calque 1"
     inkscape:groupmode="layer"
     id="layer1"
     transform="translate(-176.23951,-290.70829)" />
</svg>
