999
dxfrw 0.6.3
  0
SECTION
  2
HEADER
  9
$ACADVER
  1
AC1021
  9
$DWGCODEPAGE
  3
ANSI_1252
  9
$INSBASE
 10
0
 20
0
 30
0
  9
$EXTMIN
 10
0
 20
0
 30
0
  9
$EXTMAX
 10
604.8507200986134
 20
300.8124247957104
 30
0
  9
$LIMMIN
 10
0
 20
0
  9
$LIMMAX
 10
420
 20
297
  9
$ORTHOMODE
 70
    0
  9
$REGENMODE
 70
    1
  9
$FILLMODE
 70
    1
  9
$QTEXTMODE
 70
    0
  9
$MIRRTEXT
 70
    0
  9
$LTSCALE
 40
1
  9
$ATTMODE
 70
    0
  9
$TEXTSIZE
 40
2.5
  9
$TRACEWID
 40
15.68
  9
$TEXTSTYLE
  7
STANDARD
  9
$CLAYER
  8
Front Panel
  9
$CELTYPE
  6
BYLAYER
  9
$CECOLOR
 62
  256
  9
$CELTSCALE
 40
1
  9
$DISPSILH
 70
    0
  9
$DIMSCALE
 40
1
  9
$DIMASZ
 40
2.5
  9
$DIMEXO
 40
0.625
  9
$DIMDLI
 40
3.75
  9
$DIMRND
 40
0
  9
$DIMDLE
 40
0
  9
$DIMEXE
 40
1.25
  9
$DIMTP
 40
0
  9
$DIMTM
 40
0
  9
$DIMTXT
 40
2.5
  9
$DIMCEN
 40
2.5
  9
$DIMTSZ
 40
0
  9
$DIMTOL
 70
    0
  9
$DIMLIM
 70
    0
  9
$DIMTIH
 70
    0
  9
$DIMTOH
 70
    0
  9
$DIMSE1
 70
    0
  9
$DIMSE2
 70
    0
  9
$DIMTAD
 70
    1
  9
$DIMZIN
 70
    8
  9
$DIMBLK
  1

  9
$DIMASO
 70
    1
  9
$DIMSHO
 70
    1
  9
$DIMPOST
  1

  9
$DIMAPOST
  1

  9
$DIMALT
 70
    0
  9
$DIMALTD
 70
    3
  9
$DIMALTF
 40
0.03937
  9
$DIMLFAC
 40
1
  9
$DIMTOFL
 70
    1
  9
$DIMTVP
 40
0
  9
$DIMTIX
 70
    0
  9
$DIMSOXD
 70
    0
  9
$DIMSAH
 70
    0
  9
$DIMBLK1
  1

  9
$DIMBLK2
  1

  9
$DIMSTYLE
  2
STANDARD
  9
$DIMCLRD
 70
    0
  9
$DIMCLRE
 70
    0
  9
$DIMCLRT
 70
    0
  9
$DIMTFAC
 40
1
  9
$DIMGAP
 40
0.625
  9
$DIMJUST
 70
    0
  9
$DIMSD1
 70
    0
  9
$DIMSD2
 70
    0
  9
$DIMTOLJ
 70
    0
  9
$DIMTZIN
 70
    8
  9
$DIMALTZ
 70
    0
  9
$DIMALTTZ
 70
    0
  9
$DIMUPT
 70
    0
  9
$DIMDEC
 70
    2
  9
$DIMTDEC
 70
    2
  9
$DIMALTU
 70
    2
  9
$DIMALTTD
 70
    3
  9
$DIMTXSTY
  7
standard
  9
$DIMAUNIT
 70
    0
  9
$DIMADEC
 70
    0
  9
$DIMALTRND
 40
0
  9
$DIMAZIN
 70
    0
  9
$DIMDSEP
 70
   44
  9
$DIMATFIT
 70
    3
  9
$DIMFRAC
 70
    0
  9
$DIMLDRBLK
  1
STANDARD
  9
$DIMLUNIT
 70
    2
  9
$DIMLWD
 70
   -2
  9
$DIMLWE
 70
   -2
  9
$DIMTMOVE
 70
    0
  9
$DIMFXL
 40
1
  9
$DIMFXLON
 70
    0
  9
$DIMJOGANG
 40
0.7854
  9
$DIMTFILL
 70
    0
  9
$DIMTFILLCLR
 70
    0
  9
$DIMARCSYM
 70
    0
  9
$DIMLTYPE
  6

  9
$DIMLTEX1
  6

  9
$DIMLTEX2
  6

  9
$LUNITS
 70
    2
  9
$LUPREC
 70
    4
  9
$SKETCHINC
 40
1
  9
$FILLETRAD
 40
0
  9
$AUNITS
 70
    0
  9
$AUPREC
 70
    2
  9
$MENU
  1
.
  9
$ELEVATION
 40
0
  9
$PELEVATION
 40
0
  9
$THICKNESS
 40
0
  9
$LIMCHECK
 70
    0
  9
$CHAMFERA
 40
0
  9
$CHAMFERB
 40
0
  9
$CHAMFERC
 40
0
  9
$CHAMFERD
 40
0
  9
$SKPOLY
 70
    0
  9
$USRTIMER
 70
    1
  9
$ANGBASE
 50
0
  9
$ANGDIR
 70
    0
  9
$PDMODE
 70
   34
  9
$PDSIZE
 40
0
  9
$PLINEWID
 40
0
  9
$SPLFRAME
 70
    0
  9
$SPLINETYPE
 70
    2
  9
$SPLINESEGS
 70
    8
  9
$HANDSEED
  5
20000
  9
$SURFTAB1
 70
    6
  9
$SURFTAB2
 70
    6
  9
$SURFTYPE
 70
    6
  9
$SURFU
 70
    6
  9
$SURFV
 70
    6
  9
$UCSBASE
  2

  9
$UCSNAME
  2

  9
$UCSORG
 10
0
 20
0
 30
0
  9
$UCSXDIR
 10
1
 20
0
 30
0
  9
$UCSYDIR
 10
0
 20
1
 30
0
  9
$UCSORTHOREF
  2

  9
$UCSORTHOVIEW
 70
    0
  9
$UCSORGTOP
 10
0
 20
0
 30
0
  9
$UCSORGBOTTOM
 10
0
 20
0
 30
0
  9
$UCSORGLEFT
 10
0
 20
0
 30
0
  9
$UCSORGRIGHT
 10
0
 20
0
 30
0
  9
$UCSORGFRONT
 10
0
 20
0
 30
0
  9
$UCSORGBACK
 10
0
 20
0
 30
0
  9
$PUCSBASE
  2

  9
$PUCSNAME
  2

  9
$PUCSORG
 10
0
 20
0
 30
0
  9
$PUCSXDIR
 10
1
 20
0
 30
0
  9
$PUCSYDIR
 10
0
 20
1
 30
0
  9
$PUCSORTHOREF
  2

  9
$PUCSORTHOVIEW
 70
    0
  9
$PUCSORGTOP
 10
0
 20
0
 30
0
  9
$PUCSORGBOTTOM
 10
0
 20
0
 30
0
  9
$PUCSORGLEFT
 10
0
 20
0
 30
0
  9
$PUCSORGRIGHT
 10
0
 20
0
 30
0
  9
$PUCSORGFRONT
 10
0
 20
0
 30
0
  9
$PUCSORGBACK
 10
0
 20
0
 30
0
  9
$USERI1
 70
    0
  9
$USERI2
 70
    0
  9
$USERI3
 70
    0
  9
$USERI4
 70
    0
  9
$USERI5
 70
    0
  9
$USERR1
 40
0
  9
$USERR2
 40
0
  9
$USERR3
 40
0
  9
$USERR4
 40
0
  9
$USERR5
 40
0
  9
$WORLDVIEW
 70
    1
  9
$SHADEDGE
 70
    3
  9
$SHADEDIF
 70
   70
  9
$TILEMODE
 70
    1
  9
$MAXACTVP
 70
   64
  9
$PINSBASE
 10
0
 20
0
 30
0
  9
$PLIMCHECK
 70
    0
  9
$PEXTMIN
 10
0
 20
0
 30
0
  9
$PEXTMAX
 10
0
 20
0
 30
0
  9
$GRIDMODE
 70
    1
  9
$SNAPSTYLE
 70
    0
  9
$GRIDUNIT
 10
0
 20
0
  9
$PLIMMIN
 10
0
 20
0
  9
$PLIMMAX
 10
610
 20
300
  9
$UNITMODE
 70
    0
  9
$VISRETAIN
 70
    1
  9
$PLINEGEN
 70
    0
  9
$PSLTSCALE
 70
    1
  9
$TREEDEPTH
 70
 3020
  9
$CMLSTYLE
  2
Standard
  9
$CMLJUST
 70
    0
  9
$CMLSCALE
 40
20
  9
$PROXYGRAPHICS
 70
    1
  9
$MEASUREMENT
 70
    1
  9
$CELWEIGHT
370
   -1
  9
$ENDCAPS
280
    0
  9
$JOINSTYLE
280
    0
  9
$LWDISPLAY
290
    0
  9
$INSUNITS
 70
    0
  9
$HYPERLINKBASE
  1

  9
$STYLESHEET
  1

  9
$XEDIT
290
    1
  9
$CEPSNTYPE
380
    0
  9
$PSTYLEMODE
290
    1
  9
$EXTNAMES
290
    1
  9
$PSVPSCALE
 40
1
  9
$OLESTARTUP
290
    0
  9
$SORTENTS
280
  127
  9
$INDEXCTL
280
    0
  9
$HIDETEXT
280
    1
  9
$XCLIPFRAME
290
    0
  9
$HALOGAP
280
    0
  9
$OBSCOLOR
 70
  257
  9
$OBSLTYPE
280
    0
  9
$INTERSECTIONDISPLAY
280
    0
  9
$INTERSECTIONCOLOR
 70
  257
  9
$DIMASSOC
280
    1
  9
$PROJECTNAME
  1

  9
$CAMERADISPLAY
290
    0
  9
$LENSLENGTH
 40
50
  9
$CAMERAHEIGHT
 40
0
  9
$STEPSPERSEC
 40
2
  9
$STEPSIZE
 40
50
  9
$3DDWFPREC
 40
2
  9
$PSOLWIDTH
 40
5
  9
$PSOLHEIGHT
 40
80
  9
$LOFTANG1
 40
1.570796326794897
  9
$LOFTANG2
 40
1.570796326794897
  9
$LOFTMAG1
 40
0
  9
$LOFTMAG2
 40
0
  9
$LOFTPARAM
 70
    7
  9
$LOFTNORMALS
280
    1
  9
$LATITUDE
 40
1
  9
$LONGITUDE
 40
1
  9
$NORTHDIRECTION
 40
0
  9
$TIMEZONE
 70
-8000
  9
$LIGHTGLYPHDISPLAY
280
    1
  9
$TILEMODELIGHTSYNCH
280
    1
  9
$SOLIDHIST
280
    1
  9
$SHOWHIST
280
    1
  9
$DWFFRAME
280
    2
  9
$DGNFRAME
280
    0
  9
$REALWORLDSCALE
290
    1
  9
$INTERFERECOLOR
 62
    1
  9
$CSHADOW
280
    0
  9
$SHADOWPLANELOCATION
 40
0
  0
ENDSEC
  0
SECTION
  2
CLASSES
  0
ENDSEC
  0
SECTION
  2
TABLES
  0
TABLE
  2
VPORT
  5
8
330
0
100
AcDbSymbolTable
 70
    1
  0
VPORT
  5
31
330
2
100
AcDbSymbolTableRecord
100
AcDbViewportTableRecord
  2
*ACTIVE
 70
    0
 10
0
 20
0
 11
1
 21
1
 12
343.0687137322663
 22
94.85310769663941
 13
0
 23
0
 14
10
 24
10
 15
10
 25
10
 16
0
 26
0
 36
1
 17
0
 27
0
 37
0
 40
174.5297181618165
 41
2.716247139588101
 42
50
 43
0
 44
0
 50
0
 51
0
 71
    0
 72
  100
 73
    1
 74
    3
 75
    0
 76
    1
 77
    0
 78
    0
281
    0
 65
    1
110
0
120
0
130
0
111
1
121
0
131
0
112
0
122
1
132
0
 79
    0
146
0
348
10020
 60
    7
 61
    5
292
1
282
    1
141
0
142
0
 63
  250
421
3358443
  0
ENDTAB
  0
TABLE
  2
LTYPE
  5
5
330
0
100
AcDbSymbolTable
 70
    4
  0
LTYPE
  5
14
330
5
100
AcDbSymbolTableRecord
100
AcDbLinetypeTableRecord
  2
ByBlock
 70
    0
  3

 72
   65
 73
    0
 40
0
  0
LTYPE
  5
15
330
5
100
AcDbSymbolTableRecord
100
AcDbLinetypeTableRecord
  2
ByLayer
 70
    0
  3

 72
   65
 73
    0
 40
0
  0
LTYPE
  5
16
330
5
100
AcDbSymbolTableRecord
100
AcDbLinetypeTableRecord
  2
Continuous
 70
    0
  3
Solid line
 72
   65
 73
    0
 40
0
  0
LTYPE
  5
32
330
5
100
AcDbSymbolTableRecord
100
AcDbLinetypeTableRecord
  2
DOT
 70
    0
  3
Dot . . . . . . . . . . . . . . . . . . . . . .
 72
   65
 73
    2
 40
6.35
 49
0
 74
    0
 49
-6.35
 74
    0
  0
LTYPE
  5
33
330
5
100
AcDbSymbolTableRecord
100
AcDbLinetypeTableRecord
  2
DOTTINY
 70
    0
  3
Dot (.15x) .....................................
 72
   65
 73
    2
 40
0.9525
 49
0
 74
    0
 49
-0.9525
 74
    0
  0
LTYPE
  5
34
330
5
100
AcDbSymbolTableRecord
100
AcDbLinetypeTableRecord
  2
DOT2
 70
    0
  3
Dot (.5x) .....................................
 72
   65
 73
    2
 40
3.175
 49
0
 74
    0
 49
-3.175
 74
    0
  0
LTYPE
  5
35
330
5
100
AcDbSymbolTableRecord
100
AcDbLinetypeTableRecord
  2
DOTX2
 70
    0
  3
Dot (2x) .  .  .  .  .  .  .  .  .  .  .  .  .
 72
   65
 73
    2
 40
12.7
 49
0
 74
    0
 49
-12.7
 74
    0
  0
LTYPE
  5
36
330
5
100
AcDbSymbolTableRecord
100
AcDbLinetypeTableRecord
  2
DASHED
 70
    0
  3
Dashed _ _ _ _ _ _ _ _ _ _ _ _ _ _ _ _ _
 72
   65
 73
    2
 40
19.05
 49
12.7
 74
    0
 49
-6.35
 74
    0
  0
LTYPE
  5
37
330
5
100
AcDbSymbolTableRecord
100
AcDbLinetypeTableRecord
  2
DASHEDTINY
 70
    0
  3
Dashed (.15x) _ _ _ _ _ _ _ _ _ _ _ _ _ _ _ _ _
 72
   65
 73
    2
 40
2.8575
 49
1.905
 74
    0
 49
-0.9525
 74
    0
  0
LTYPE
  5
38
330
5
100
AcDbSymbolTableRecord
100
AcDbLinetypeTableRecord
  2
DASHED2
 70
    0
  3
Dashed (.5x) _ _ _ _ _ _ _ _ _ _ _ _ _ _ _ _ _
 72
   65
 73
    2
 40
9.524999999999999
 49
6.35
 74
    0
 49
-3.175
 74
    0
  0
LTYPE
  5
39
330
5
100
AcDbSymbolTableRecord
100
AcDbLinetypeTableRecord
  2
DASHEDX2
 70
    0
  3
Dashed (2x) ____  ____  ____  ____  ____  ___
 72
   65
 73
    2
 40
38.09999999999999
 49
25.4
 74
    0
 49
-12.7
 74
    0
  0
LTYPE
  5
3A
330
5
100
AcDbSymbolTableRecord
100
AcDbLinetypeTableRecord
  2
DASHDOT
 70
    0
  3
Dash dot __ . __ . __ . __ . __ . __ . __ . __
 72
   65
 73
    4
 40
25.4
 49
12.7
 74
    0
 49
-6.35
 74
    0
 49
0
 74
    0
 49
-6.35
 74
    0
  0
LTYPE
  5
3B
330
5
100
AcDbSymbolTableRecord
100
AcDbLinetypeTableRecord
  2
DASHDOTTINY
 70
    0
  3
Dash dot (.15x) _._._._._._._._._._._._._._._.
 72
   65
 73
    4
 40
3.81
 49
1.905
 74
    0
 49
-0.9525
 74
    0
 49
0
 74
    0
 49
-0.9525
 74
    0
  0
LTYPE
  5
3C
330
5
100
AcDbSymbolTableRecord
100
AcDbLinetypeTableRecord
  2
DASHDOT2
 70
    0
  3
Dash dot (.5x) _._._._._._._._._._._._._._._.
 72
   65
 73
    4
 40
12.7
 49
6.35
 74
    0
 49
-3.175
 74
    0
 49
0
 74
    0
 49
-3.175
 74
    0
  0
LTYPE
  5
3D
330
5
100
AcDbSymbolTableRecord
100
AcDbLinetypeTableRecord
  2
DASHDOTX2
 70
    0
  3
Dash dot (2x) ____  .  ____  .  ____  .  ___
 72
   65
 73
    4
 40
50.8
 49
25.4
 74
    0
 49
-12.7
 74
    0
 49
0
 74
    0
 49
-12.7
 74
    0
  0
LTYPE
  5
3E
330
5
100
AcDbSymbolTableRecord
100
AcDbLinetypeTableRecord
  2
DIVIDE
 70
    0
  3
Divide ____ . . ____ . . ____ . . ____ . . ____
 72
   65
 73
    6
 40
31.75
 49
12.7
 74
    0
 49
-6.35
 74
    0
 49
0
 74
    0
 49
-6.35
 74
    0
 49
0
 74
    0
 49
-6.35
 74
    0
  0
LTYPE
  5
3F
330
5
100
AcDbSymbolTableRecord
100
AcDbLinetypeTableRecord
  2
DIVIDETINY
 70
    0
  3
Divide (.15x) __..__..__..__..__..__..__..__.._
 72
   65
 73
    6
 40
4.7625
 49
1.905
 74
    0
 49
-0.9525
 74
    0
 49
0
 74
    0
 49
-0.9525
 74
    0
 49
0
 74
    0
 49
-0.9525
 74
    0
  0
LTYPE
  5
40
330
5
100
AcDbSymbolTableRecord
100
AcDbLinetypeTableRecord
  2
DIVIDE2
 70
    0
  3
Divide (.5x) __..__..__..__..__..__..__..__.._
 72
   65
 73
    6
 40
15.875
 49
6.35
 74
    0
 49
-3.175
 74
    0
 49
0
 74
    0
 49
-3.175
 74
    0
 49
0
 74
    0
 49
-3.175
 74
    0
  0
LTYPE
  5
41
330
5
100
AcDbSymbolTableRecord
100
AcDbLinetypeTableRecord
  2
DIVIDEX2
 70
    0
  3
Divide (2x) ________  .  .  ________  .  .  _
 72
   65
 73
    6
 40
63.5
 49
25.4
 74
    0
 49
-12.7
 74
    0
 49
0
 74
    0
 49
-12.7
 74
    0
 49
0
 74
    0
 49
-12.7
 74
    0
  0
LTYPE
  5
42
330
5
100
AcDbSymbolTableRecord
100
AcDbLinetypeTableRecord
  2
BORDER
 70
    0
  3
Border __ __ . __ __ . __ __ . __ __ . __ __ .
 72
   65
 73
    6
 40
44.45
 49
12.7
 74
    0
 49
-6.35
 74
    0
 49
12.7
 74
    0
 49
-6.35
 74
    0
 49
0
 74
    0
 49
-6.35
 74
    0
  0
LTYPE
  5
43
330
5
100
AcDbSymbolTableRecord
100
AcDbLinetypeTableRecord
  2
BORDERTINY
 70
    0
  3
Border (.15x) __.__.__.__.__.__.__.__.__.__.__.
 72
   65
 73
    6
 40
6.6675
 49
1.905
 74
    0
 49
-0.9525
 74
    0
 49
1.905
 74
    0
 49
-0.9525
 74
    0
 49
0
 74
    0
 49
-0.9525
 74
    0
  0
LTYPE
  5
44
330
5
100
AcDbSymbolTableRecord
100
AcDbLinetypeTableRecord
  2
BORDER2
 70
    0
  3
Border (.5x) __.__.__.__.__.__.__.__.__.__.__.
 72
   65
 73
    6
 40
22.225
 49
6.35
 74
    0
 49
-3.175
 74
    0
 49
6.35
 74
    0
 49
-3.175
 74
    0
 49
0
 74
    0
 49
-3.175
 74
    0
  0
LTYPE
  5
45
330
5
100
AcDbSymbolTableRecord
100
AcDbLinetypeTableRecord
  2
BORDERX2
 70
    0
  3
Border (2x) ____  ____  .  ____  ____  .  ___
 72
   65
 73
    6
 40
88.89999999999999
 49
25.4
 74
    0
 49
-12.7
 74
    0
 49
25.4
 74
    0
 49
-12.7
 74
    0
 49
0
 74
    0
 49
-12.7
 74
    0
  0
LTYPE
  5
46
330
5
100
AcDbSymbolTableRecord
100
AcDbLinetypeTableRecord
  2
CENTER
 70
    0
  3
Center ____ _ ____ _ ____ _ ____ _ ____ _ ____
 72
   65
 73
    4
 40
50.8
 49
31.75
 74
    0
 49
-6.35
 74
    0
 49
6.35
 74
    0
 49
-6.35
 74
    0
  0
LTYPE
  5
47
330
5
100
AcDbSymbolTableRecord
100
AcDbLinetypeTableRecord
  2
CENTERTINY
 70
    0
  3
Center (.15x) ___ _ ___ _ ___ _ ___ _ ___ _ ___
 72
   65
 73
    4
 40
7.619999999999999
 49
4.7625
 74
    0
 49
-0.9525
 74
    0
 49
0.9525
 74
    0
 49
-0.9525
 74
    0
  0
LTYPE
  5
48
330
5
100
AcDbSymbolTableRecord
100
AcDbLinetypeTableRecord
  2
CENTER2
 70
    0
  3
Center (.5x) ___ _ ___ _ ___ _ ___ _ ___ _ ___
 72
   65
 73
    4
 40
28.575
 49
19.05
 74
    0
 49
-3.175
 74
    0
 49
3.175
 74
    0
 49
-3.175
 74
    0
  0
LTYPE
  5
49
330
5
100
AcDbSymbolTableRecord
100
AcDbLinetypeTableRecord
  2
CENTERX2
 70
    0
  3
Center (2x) ________  __  ________  __  _____
 72
   65
 73
    4
 40
101.6
 49
63.5
 74
    0
 49
-12.7
 74
    0
 49
12.7
 74
    0
 49
-12.7
 74
    0
  0
ENDTAB
  0
TABLE
  2
LAYER
  5
2
330
0
100
AcDbSymbolTable
 70
    1
  0
LAYER
  5
10
330
2
100
AcDbSymbolTableRecord
100
AcDbLayerTableRecord
  2
0
 70
    5
 62
    3
  6
DASHDOT
370
    5
390
F
  0
LAYER
  5
4A
330
2
100
AcDbSymbolTableRecord
100
AcDbLayerTableRecord
  2
Back Panel
 70
    5
 62
    7
  6
CONTINUOUS
370
    0
390
F
  0
LAYER
  5
4B
330
2
100
AcDbSymbolTableRecord
100
AcDbLayerTableRecord
  2
Base Panel
 70
    5
 62
    7
  6
CONTINUOUS
370
    0
390
F
  0
LAYER
  5
4C
330
2
100
AcDbSymbolTableRecord
100
AcDbLayerTableRecord
  2
Frame
 70
    4
 62
  216
420
8388736
  6
DASHDOTX2
370
   30
390
F
  0
LAYER
  5
4D
330
2
100
AcDbSymbolTableRecord
100
AcDbLayerTableRecord
  2
Front Panel
 70
    0
 62
    7
  6
CONTINUOUS
370
    0
390
F
  0
LAYER
  5
4E
330
2
100
AcDbSymbolTableRecord
100
AcDbLayerTableRecord
  2
Right Panel
 70
    1
 62
    7
  6
CONTINUOUS
370
    0
390
F
  0
LAYER
  5
4F
330
2
100
AcDbSymbolTableRecord
100
AcDbLayerTableRecord
  2
left panel
 70
    5
 62
    7
  6
CONTINUOUS
370
    0
390
F
  0
LAYER
  5
50
330
2
100
AcDbSymbolTableRecord
100
AcDbLayerTableRecord
  2
top panel
 70
    0
 62
    7
  6
CONTINUOUS
370
    0
390
F
  0
ENDTAB
  0
TABLE
  2
STYLE
  5
3
330
0
100
AcDbSymbolTable
 70
    3
  0
STYLE
  5
51
330
2
100
AcDbSymbolTableRecord
100
AcDbTextStyleTableRecord
  2
Standard
 70
    0
 40
0
 41
1
 50
0
 71
    0
 42
1
  3
txt
  4

  0
ENDTAB
  0
TABLE
  2
VIEW
  5
6
330
0
100
AcDbSymbolTable
 70
    0
  0
ENDTAB
  0
TABLE
  2
UCS
  5
7
330
0
100
AcDbSymbolTable
 70
    0
  0
ENDTAB
  0
TABLE
  2
APPID
  5
9
330
0
100
AcDbSymbolTable
 70
    1
  0
APPID
  5
12
330
9
100
AcDbSymbolTableRecord
100
AcDbRegAppTableRecord
  2
ACAD
 70
    0
  0
APPID
  5
52
330
9
100
AcDbSymbolTableRecord
100
AcDbRegAppTableRecord
  2
LibreCad
 70
    0
  0
ENDTAB
  0
TABLE
  2
DIMSTYLE
  5
A
330
0
100
AcDbSymbolTable
 70
    1
100
AcDbDimStyleTable
 71
    1
  0
DIMSTYLE
105
53
330
A
100
AcDbSymbolTableRecord
100
AcDbDimStyleTableRecord
  2
Standard
 70
    0
 40
1
 41
2.5
 42
0.625
 43
0.38
 44
1.25
 45
0
 46
0
 47
0
 48
0
 49
1
140
2.5
141
0.09
142
0
143
25.4
144
1
145
0
146
1
147
0.625
148
0
 71
    0
 72
    0
 73
    0
 74
    1
 75
    0
 76
    0
 77
    0
 78
    8
 79
    0
170
    0
171
    2
172
    0
173
    0
174
    0
175
    0
176
    0
177
    0
178
    0
179
    0
271
    2
272
    4
273
    2
274
    2
275
    0
276
    0
277
    2
278
   44
279
    0
280
    0
281
    0
282
    0
283
    1
284
    0
285
    0
286
    0
288
    0
289
    3
340
standard
341

371
   -2
372
   -2
  0
ENDTAB
  0
TABLE
  2
BLOCK_RECORD
  5
1
330
0
100
AcDbSymbolTable
 70
    2
  0
BLOCK_RECORD
  5
1F
330
1
100
AcDbSymbolTableRecord
100
AcDbBlockTableRecord
  2
*Model_Space
 70
    0
280
    1
281
    0
  0
BLOCK_RECORD
  5
1E
330
1
100
AcDbSymbolTableRecord
100
AcDbBlockTableRecord
  2
*Paper_Space
 70
    0
280
    1
281
    0
  0
BLOCK_RECORD
  5
54
330
1
100
AcDbSymbolTableRecord
100
AcDbBlockTableRecord
  2
*D3
 70
    0
280
    1
281
    0
  0
BLOCK_RECORD
  5
57
330
1
100
AcDbSymbolTableRecord
100
AcDbBlockTableRecord
  2
*D1
 70
    0
280
    1
281
    0
  0
BLOCK_RECORD
  5
5A
330
1
100
AcDbSymbolTableRecord
100
AcDbBlockTableRecord
  2
*D2
 70
    0
280
    1
281
    0
  0
BLOCK_RECORD
  5
5D
330
1
100
AcDbSymbolTableRecord
100
AcDbBlockTableRecord
  2
outer 1
 70
    0
280
    1
281
    0
  0
BLOCK_RECORD
  5
60
330
1
100
AcDbSymbolTableRecord
100
AcDbBlockTableRecord
  2
top
 70
    0
280
    1
281
    0
  0
BLOCK_RECORD
  5
63
330
1
100
AcDbSymbolTableRecord
100
AcDbBlockTableRecord
  2
front inner 2
 70
    0
280
    1
281
    0
  0
ENDTAB
  0
ENDSEC
  0
SECTION
  2
BLOCKS
  0
BLOCK
  5
20
330
1F
100
AcDbEntity
  8
0
100
AcDbBlockBegin
  2
*Model_Space
 70
    0
 10
0
 20
0
 30
0
  3
*Model_Space
  1

  0
ENDBLK
  5
21
330
1F
100
AcDbEntity
  8
0
100
AcDbBlockEnd
  0
BLOCK
  5
1C
330
1B
100
AcDbEntity
  8
0
100
AcDbBlockBegin
  2
*Paper_Space
 70
    0
 10
0
 20
0
 30
0
  3
*Paper_Space
  1

  0
ENDBLK
  5
1D
330
1F
100
AcDbEntity
  8
0
100
AcDbBlockEnd
  0
BLOCK
  5
55
330
54
100
AcDbEntity
  8
0
100
AcDbBlockBegin
  2
*D3
 70
    1
 10
0
 20
0
  3
*D3
  1

  0
LINE
  5
66
100
AcDbEntity
  8
0
  6
ByBlock
 62
    0
370
   -2
100
AcDbLine
 10
273.0422920866346
 20
323.0307086893785
 11
341.6422920866346
 21
323.0307086893785
  0
SOLID
  5
67
100
AcDbEntity
  8
0
  6
ByBlock
 62
    0
370
   -2
100
AcDbTrace
 10
273.0422920866346
 20
323.0307086893785
 30
0
 11
275.5422920866346
 21
323.4469933471514
 31
0
 12
275.5422920866346
 22
322.6144240316057
 32
0
 13
275.5422920866346
 23
322.6144240316057
 33
0
  0
SOLID
  5
68
100
AcDbEntity
  8
0
  6
ByBlock
 62
    0
370
   -2
100
AcDbTrace
 10
341.6422920866346
 20
323.0307086893785
 30
0
 11
339.1422920866346
 21
322.6144240316057
 31
0
 12
339.1422920866346
 22
323.4469933471514
 32
0
 13
339.1422920866346
 23
323.4469933471514
 33
0
  0
MTEXT
  5
69
100
AcDbEntity
  8
0
  6
CONTINUOUS
 62
    0
370
   -2
100
AcDbMText
 10
307.3422920866346
 20
324.9057086893785
 30
0
 40
2.5
 41
5.972222222222532
 71
    5
 72
    1
  1
68,6
  7
standard
210
0
220
0
230
1
 50
0
 73
    2
 44
1
  0
LINE
  5
6A
100
AcDbEntity
  8
0
  6
ByBlock
 62
    0
370
   -2
100
AcDbLine
 10
273.0422920866346
 20
228.4131647715501
 11
273.0422920866346
 21
324.2807086893785
  0
LINE
  5
6B
100
AcDbEntity
  8
0
  6
ByBlock
 62
    0
370
   -2
100
AcDbLine
 10
341.6422920866346
 20
228.4131647715501
 11
341.6422920866346
 21
324.2807086893785
  0
ENDBLK
  5
56
330
54
100
AcDbEntity
  8
0
100
AcDbBlockEnd
  0
BLOCK
  5
58
330
57
100
AcDbEntity
  8
0
100
AcDbBlockBegin
  2
*D1
 70
    1
 10
0
 20
0
  3
*D1
  1

  0
LINE
  5
6C
100
AcDbEntity
  8
0
  6
ByBlock
 62
    0
370
   -2
100
AcDbLine
 10
107.7581423068955
 20
323.2394275525775
 11
186.1581423068955
 21
323.2394275525775
  0
SOLID
  5
6D
100
AcDbEntity
  8
0
  6
ByBlock
 62
    0
370
   -2
100
AcDbTrace
 10
107.7581423068955
 20
323.2394275525775
 30
0
 11
110.2581423068955
 21
323.6557122103504
 31
0
 12
110.2581423068955
 22
322.8231428948047
 32
0
 13
110.2581423068955
 23
322.8231428948047
 33
0
  0
SOLID
  5
6E
100
AcDbEntity
  8
0
  6
ByBlock
 62
    0
370
   -2
100
AcDbTrace
 10
186.1581423068955
 20
323.2394275525775
 30
0
 11
183.6581423068955
 21
322.8231428948047
 31
0
 12
183.6581423068955
 22
323.6557122103504
 32
0
 13
183.6581423068955
 23
323.6557122103504
 33
0
  0
MTEXT
  5
6F
100
AcDbEntity
  8
0
  6
CONTINUOUS
 62
    0
370
   -2
100
AcDbMText
 10
146.9581423068955
 20
325.1144275525775
 30
0
 40
2.5
 41
6.25
 71
    5
 72
    1
  1
78,4
  7
standard
210
0
220
0
230
1
 50
0
 73
    2
 44
1
  0
LINE
  5
70
100
AcDbEntity
  8
0
  6
ByBlock
 62
    0
370
   -2
100
AcDbLine
 10
107.7581423068955
 20
298.7966778605575
 11
107.7581423068955
 21
324.4894275525775
  0
LINE
  5
71
100
AcDbEntity
  8
0
  6
ByBlock
 62
    0
370
   -2
100
AcDbLine
 10
186.1581423068955
 20
298.7966778605575
 11
186.1581423068955
 21
324.4894275525775
  0
ENDBLK
  5
59
330
57
100
AcDbEntity
  8
0
100
AcDbBlockEnd
  0
BLOCK
  5
5B
330
5A
100
AcDbEntity
  8
0
100
AcDbBlockBegin
  2
*D2
 70
    1
 10
0
 20
0
  3
*D2
  1

  0
LINE
  5
72
100
AcDbEntity
  8
0
  6
ByBlock
 62
    0
370
   -2
100
AcDbLine
 10
190.3830935950405
 20
323.2394275525775
 11
268.7830935950405
 21
323.2394275525775
  0
SOLID
  5
73
100
AcDbEntity
  8
0
  6
ByBlock
 62
    0
370
   -2
100
AcDbTrace
 10
190.3830935950405
 20
323.2394275525775
 30
0
 11
192.8830935950405
 21
323.6557122103504
 31
0
 12
192.8830935950405
 22
322.8231428948047
 32
0
 13
192.8830935950405
 23
322.8231428948047
 33
0
  0
SOLID
  5
74
100
AcDbEntity
  8
0
  6
ByBlock
 62
    0
370
   -2
100
AcDbTrace
 10
268.7830935950405
 20
323.2394275525775
 30
0
 11
266.2830935950405
 21
322.8231428948047
 31
0
 12
266.2830935950405
 22
323.6557122103504
 32
0
 13
266.2830935950405
 23
323.6557122103504
 33
0
  0
MTEXT
  5
75
100
AcDbEntity
  8
0
  6
CONTINUOUS
 62
    0
370
   -2
100
AcDbMText
 10
229.5830935950405
 20
325.1144275525775
 30
0
 40
2.5
 41
6.25
 71
    5
 72
    1
  1
78,4
  7
standard
210
0
220
0
230
1
 50
0
 73
    2
 44
1
  0
LINE
  5
76
100
AcDbEntity
  8
0
  6
ByBlock
 62
    0
370
   -2
100
AcDbLine
 10
190.3830935950405
 20
298.8271198191788
 11
190.3830935950405
 21
324.4894275525775
  0
LINE
  5
77
100
AcDbEntity
  8
0
  6
ByBlock
 62
    0
370
   -2
100
AcDbLine
 10
268.7830935950405
 20
298.8271198191788
 11
268.7830935950405
 21
324.4894275525775
  0
ENDBLK
  5
5C
330
5A
100
AcDbEntity
  8
0
100
AcDbBlockEnd
  0
BLOCK
  5
5E
330
5D
100
AcDbEntity
  8
0
100
AcDbBlockBegin
  2
outer 1
 70
    0
 10
0
 20
0
  3
outer 1
  1

  0
LWPOLYLINE
  5
78
100
AcDbEntity
  8
top panel
  6
ByLayer
 62
  256
370
   -1
100
AcDbPolyline
 90
    4
 70
    1
 43
0
 10
11.67265624999676
 20
51.84375000000086
 10
65.57265624999675
 20
51.84375000000086
 10
65.57265624999675
 20
71.44375000000086
 10
11.67265624999676
 20
71.44375000000086
  0
LWPOLYLINE
  5
79
100
AcDbEntity
  8
top panel
  6
ByLayer
 62
  256
370
   -1
100
AcDbPolyline
 90
    4
 70
    1
 43
0
 10
-3.02734375000324
 20
27.34375000000086
 10
-3.02734375000324
 20
105.7437500000009
 10
75.37265624999677
 20
105.7437500000009
 10
75.37265624999677
 20
27.34375000000086
  0
ENDBLK
  5
5F
330
5D
100
AcDbEntity
  8
0
100
AcDbBlockEnd
  0
BLOCK
  5
61
330
60
100
AcDbEntity
  8
0
100
AcDbBlockBegin
  2
top
 70
    0
 10
0
 20
0
  3
top
  1

  0
LWPOLYLINE
  5
7A
100
AcDbEntity
  8
top panel
  6
ByLayer
 62
  256
370
   -1
100
AcDbPolyline
 90
    4
 70
    1
 43
0
 10
-58.59375000000184
 20
-78.12500000000246
 10
39.40624999999816
 20
-78.12500000000246
 10
39.40624999999816
 20
19.87499999999754
 10
-58.59375000000184
 20
19.87499999999754
  0
LINE
  5
7B
100
AcDbEntity
  8
top panel
  6
ByLayer
 62
  256
370
   -1
100
AcDbLine
 10
-38.99375000000184
 20
-58.52500000000246
 11
19.80624999999817
 21
-58.52500000000246
  0
LINE
  5
7C
100
AcDbEntity
  8
top panel
  6
ByLayer
 62
  256
370
   -1
100
AcDbLine
 10
19.80624999999817
 20
0.2749999999975472
 11
-38.99375000000184
 21
0.2749999999975472
  0
LINE
  5
7D
100
AcDbEntity
  8
top panel
  6
ByLayer
 62
  256
370
   -1
100
AcDbLine
 10
-43.89375000000184
 20
-43.82500000000246
 11
-38.99375000000184
 21
-43.82500000000246
  0
LINE
  5
7E
100
AcDbEntity
  8
top panel
  6
ByLayer
 62
  256
370
   -1
100
AcDbLine
 10
-38.99375000000184
 20
-24.22500000000246
 11
-43.89375000000184
 21
-24.22500000000246
  0
LINE
  5
7F
100
AcDbEntity
  8
top panel
  6
ByLayer
 62
  256
370
   -1
100
AcDbLine
 10
24.70624999999816
 20
-43.82500000000246
 11
24.70624999999816
 21
-24.22500000000246
  0
LINE
  5
80
100
AcDbEntity
  8
top panel
  6
ByLayer
 62
  256
370
   -1
100
AcDbLine
 10
24.70624999999816
 20
-24.22500000000246
 11
19.80624999999817
 21
-24.22500000000246
  0
LINE
  5
81
100
AcDbEntity
  8
top panel
  6
ByLayer
 62
  256
370
   -1
100
AcDbLine
 10
-38.99375000000184
 20
-58.52500000000246
 11
-38.99375000000184
 21
-43.82500000000246
  0
LINE
  5
82
100
AcDbEntity
  8
top panel
  6
ByLayer
 62
  256
370
   -1
100
AcDbLine
 10
-38.99375000000184
 20
-24.22500000000246
 11
-38.99375000000184
 21
0.2749999999975472
  0
LINE
  5
83
100
AcDbEntity
  8
top panel
  6
ByLayer
 62
  256
370
   -1
100
AcDbLine
 10
19.80624999999817
 20
-58.52500000000246
 11
19.80624999999817
 21
-43.82500000000246
  0
LINE
  5
84
100
AcDbEntity
  8
top panel
  6
ByLayer
 62
  256
370
   -1
100
AcDbLine
 10
19.80624999999817
 20
-24.22500000000246
 11
19.80624999999817
 21
0.2749999999975472
  0
LINE
  5
85
100
AcDbEntity
  8
top panel
  6
ByLayer
 62
  256
370
   -1
100
AcDbLine
 10
-43.89375000000185
 20
-24.22500000000245
 11
-43.89375000000185
 21
-43.82500000000246
  0
LINE
  5
86
100
AcDbEntity
  8
top panel
  6
ByLayer
 62
  256
370
   -1
100
AcDbLine
 10
19.80624999999817
 20
-43.82500000000246
 11
24.70624999999816
 21
-43.82500000000246
  0
ENDBLK
  5
62
330
60
100
AcDbEntity
  8
0
100
AcDbBlockEnd
  0
BLOCK
  5
64
330
63
100
AcDbEntity
  8
0
100
AcDbBlockBegin
  2
front inner 2
 70
    0
 10
0
 20
0
  3
front inner 2
  1

  0
ENDBLK
  5
65
330
63
100
AcDbEntity
  8
0
100
AcDbBlockEnd
  0
ENDSEC
  0
SECTION
  2
ENTITIES
  0
LWPOLYLINE
  5
87
100
AcDbEntity
  8
top panel
  6
ByLayer
 62
  256
370
   -1
100
AcDbPolyline
 90
    4
 70
    1
 43
0
 10
107.7581423068955
 20
219.7716778605576
 10
107.7581423068955
 20
298.1716778605575
 10
186.1581423068955
 20
298.1716778605575
 10
186.1581423068955
 20
219.7716778605576
  0
LWPOLYLINE
  5
88
100
AcDbEntity
  8
Base Panel
  6
ByLayer
 62
  256
370
   -1
100
AcDbPolyline
 90
    4
 70
    1
 43
0
 10
107.1154381760758
 20
135.9222022280159
 10
185.5154381760758
 20
135.9222022280159
 10
185.5154381760758
 20
214.3222022280159
 10
107.1154381760758
 20
214.3222022280159
  0
LWPOLYLINE
  5
89
100
AcDbEntity
  8
Base Panel
  6
ByLayer
 62
  256
370
   -1
100
AcDbPolyline
 90
    4
 70
    1
 43
0
 10
116.9154381760758
 20
160.4222022280159
 10
165.9154381760758
 20
160.4222022280159
 10
165.9154381760758
 20
180.0222022280159
 10
116.9154381760758
 20
180.0222022280159
  0
LWPOLYLINE
  5
8A
100
AcDbEntity
  8
top panel
  6
ByLayer
 62
  256
370
   -1
100
AcDbPolyline
 90
    4
 70
    1
 43
0
 10
190.3830935950405
 20
219.8021198191789
 10
268.7830935950405
 20
219.8021198191789
 10
268.7830935950405
 20
298.2021198191788
 10
190.3830935950405
 20
298.2021198191788
  0
LWPOLYLINE
  5
8B
100
AcDbEntity
  8
Base Panel
  6
ByLayer
 62
  256
370
   -1
100
AcDbPolyline
 90
    4
 70
    1
 43
0
 10
106.533617962499
 20
111.4241048504297
 10
165.3336179624991
 20
111.4241048504297
 10
165.3336179624991
 20
131.0241048504298
 10
106.533617962499
 20
131.0241048504298
  0
LWPOLYLINE
  5
8C
100
AcDbEntity
  8
top panel
  6
ByLayer
 62
  256
370
   -1
100
AcDbPolyline
 90
    4
 70
    1
 43
0
 10
184.3997057237043
 20
7.736074322632533
 10
243.1997057237043
 20
7.736074322632533
 10
243.1997057237043
 20
22.43607432263252
 10
184.3997057237043
 20
22.43607432263252
  0
LWPOLYLINE
  5
8D
100
AcDbEntity
  8
top panel
  6
ByLayer
 62
  256
370
   -1
100
AcDbPolyline
 90
    4
 70
    1
 43
0
 10
184.3997057237043
 20
27.73607432263253
 10
243.1997057237043
 20
27.73607432263253
 10
243.1997057237043
 20
47.33607432263244
 10
184.3997057237043
 20
47.33607432263244
  0
LWPOLYLINE
  5
8E
100
AcDbEntity
  8
Back Panel
  6
ByLayer
 62
  256
370
   -1
100
AcDbPolyline
 90
    4
 70
    1
 43
0
 10
417.6999789592853
 20
232.2124247957104
 10
486.2999789592852
 20
232.2124247957104
 10
486.2999789592852
 20
300.8124247957104
 10
417.6999789592853
 20
300.8124247957104
  0
LINE
  5
8F
100
AcDbEntity
  8
Back Panel
  6
ByLayer
 62
  256
370
   -1
100
AcDbLine
 10
415.2193818396796
 20
228.2805901060339
 11
488.7193818396796
 21
228.2805901060339
  0
LINE
  5
90
100
AcDbEntity
  8
Back Panel
  6
ByLayer
 62
  256
370
   -1
100
AcDbLine
 10
488.7193818396796
 20
228.2805901060339
 11
488.7193818396796
 21
159.6805901060339
  0
LINE
  5
91
100
AcDbEntity
  8
Back Panel
  6
ByLayer
 62
  256
370
   -1
100
AcDbLine
 10
415.2193818396796
 20
159.6805901060339
 11
449.5193818396796
 21
159.6805901060339
  0
LINE
  5
92
100
AcDbEntity
  8
Back Panel
  6
ByLayer
 62
  256
370
   -1
100
AcDbLine
 10
449.5193818396796
 20
159.6805901060339
 11
449.5193818396796
 21
154.7805901060339
  0
LINE
  5
93
100
AcDbEntity
  8
Back Panel
  6
ByLayer
 62
  256
370
   -1
100
AcDbLine
 10
449.5193818396796
 20
154.7805901060339
 11
459.3193818396795
 21
154.7805901060339
  0
LINE
  5
94
100
AcDbEntity
  8
Back Panel
  6
ByLayer
 62
  256
370
   -1
100
AcDbLine
 10
459.3193818396795
 20
154.7805901060339
 11
459.3193818396795
 21
159.6805901060339
  0
LINE
  5
95
100
AcDbEntity
  8
Back Panel
  6
ByLayer
 62
  256
370
   -1
100
AcDbLine
 10
459.3193818396795
 20
159.6805901060339
 11
488.7193818396796
 21
159.6805901060339
  0
LINE
  5
96
100
AcDbEntity
  8
Back Panel
  6
ByLayer
 62
  256
370
   -1
100
AcDbLine
 10
415.2193818396796
 20
228.2805901060339
 11
415.2193818396796
 21
159.6805901060339
  0
LWPOLYLINE
  5
97
100
AcDbEntity
  8
Front Panel
  6
ByLayer
 62
  256
370
   -1
100
AcDbPolyline
 90
    4
 70
    1
 43
0
 10
6.050804980300882
 20
217.2250433232707
 10
84.45080498030086
 20
217.2250433232707
 10
84.45080498030086
 20
295.6250433232707
 10
6.050804980300882
 20
295.6250433232707
  0
LWPOLYLINE
  5
98
100
AcDbEntity
  8
Front Panel
  6
ByLayer
 62
  256
370
   -1
100
AcDbPolyline
 90
    4
 70
    1
 43
0
 10
6.311269724212138
 20
132.2533088551474
 10
84.71126972421212
 20
132.2533088551474
 10
84.71126972421212
 20
210.6533088551474
 10
6.311269724212138
 20
210.6533088551474
  0
LWPOLYLINE
  5
99
100
AcDbEntity
  8
Front Panel
  6
ByLayer
 62
  256
370
   -1
100
AcDbPolyline
 90
    4
 70
    1
 43
0
 10
35.71126972421212
 20
151.8533088551474
 10
55.31126972421214
 20
151.8533088551474
 10
55.31126972421214
 20
200.8533088551474
 10
35.71126972421212
 20
200.8533088551474
  0
LWPOLYLINE
  5
9A
100
AcDbEntity
  8
Front Panel
  6
ByLayer
 62
  256
370
   -1
100
AcDbPolyline
 90
    4
 70
    1
 43
0
 10
182.1332732815698
 20
295.6561707531724
 10
89.03327328156979
 20
295.6561707531724
 10
89.03327328156979
 20
207.4561707531724
 10
182.1332732815698
 20
207.4561707531724
  0
LINE
  5
9B
100
AcDbEntity
  8
Front Panel
  6
ByLayer
 62
  256
370
   -1
100
AcDbLine
 10
108.6332732815698
 20
222.1561707531724
 11
108.6332732815698
 21
280.9561707531724
  0
LINE
  5
9C
100
AcDbEntity
  8
Front Panel
  6
ByLayer
 62
  256
370
   -1
100
AcDbLine
 10
108.6332732815698
 20
280.9561707531724
 11
128.2332732815698
 21
280.9561707531724
  0
LINE
  5
9D
100
AcDbEntity
  8
Front Panel
  6
ByLayer
 62
  256
370
   -1
100
AcDbLine
 10
128.2332732815698
 20
280.9561707531724
 11
128.2332732815698
 21
285.8561707531724
  0
LINE
  5
9E
100
AcDbEntity
  8
Front Panel
  6
ByLayer
 62
  256
370
   -1
100
AcDbLine
 10
128.2332732815698
 20
285.8561707531724
 11
147.8332732815697
 21
285.8561707531724
  0
LINE
  5
9F
100
AcDbEntity
  8
Front Panel
  6
ByLayer
 62
  256
370
   -1
100
AcDbLine
 10
147.8332732815697
 20
285.8561707531724
 11
147.8332732815697
 21
280.9561707531724
  0
LINE
  5
A0
100
AcDbEntity
  8
Front Panel
  6
ByLayer
 62
  256
370
   -1
100
AcDbLine
 10
147.8332732815697
 20
280.9561707531724
 11
167.4332732815698
 21
280.9561707531724
  0
LINE
  5
A1
100
AcDbEntity
  8
Front Panel
  6
ByLayer
 62
  256
370
   -1
100
AcDbLine
 10
167.4332732815698
 20
280.9561707531724
 11
167.4332732815698
 21
222.1561707531724
  0
LINE
  5
A2
100
AcDbEntity
  8
Front Panel
  6
ByLayer
 62
  256
370
   -1
100
AcDbLine
 10
167.4332732815698
 20
222.1561707531724
 11
147.8332732815697
 21
222.1561707531724
  0
LINE
  5
A3
100
AcDbEntity
  8
Front Panel
  6
ByLayer
 62
  256
370
   -1
100
AcDbLine
 10
147.8332732815697
 20
222.1561707531724
 11
147.8332732815697
 21
217.2561707531724
  0
LINE
  5
A4
100
AcDbEntity
  8
Front Panel
  6
ByLayer
 62
  256
370
   -1
100
AcDbLine
 10
147.8332732815697
 20
217.2561707531724
 11
128.2332732815698
 21
217.2561707531724
  0
LINE
  5
A5
100
AcDbEntity
  8
Front Panel
  6
ByLayer
 62
  256
370
   -1
100
AcDbLine
 10
128.2332732815698
 20
217.2561707531724
 11
128.2332732815698
 21
222.1561707531724
  0
LINE
  5
A6
100
AcDbEntity
  8
Front Panel
  6
ByLayer
 62
  256
370
   -1
100
AcDbLine
 10
128.2332732815698
 20
222.1561707531724
 11
108.6332732815698
 21
222.1561707531724
  0
LINE
  5
A7
100
AcDbEntity
  8
Front Panel
  6
ByLayer
 62
  256
370
   -1
100
AcDbLine
 10
90.76207470451293
 20
128.7957060092612
 11
169.1620747045129
 21
128.7957060092612
  0
LINE
  5
A8
100
AcDbEntity
  8
Front Panel
  6
ByLayer
 62
  256
370
   -1
100
AcDbLine
 10
169.1620747045129
 20
128.7957060092612
 11
169.1620747045129
 21
202.2957060092612
  0
LINE
  5
A9
100
AcDbEntity
  8
Front Panel
  6
ByLayer
 62
  256
370
   -1
100
AcDbLine
 10
169.1620747045129
 20
202.2957060092612
 11
90.76207470451293
 21
202.2957060092612
  0
LINE
  5
AA
100
AcDbEntity
  8
Front Panel
  6
ByLayer
 62
  256
370
   -1
100
AcDbLine
 10
90.76207470451293
 20
128.7957060092612
 11
90.76207470451293
 21
158.1957060092612
  0
LINE
  5
AB
100
AcDbEntity
  8
Front Panel
  6
ByLayer
 62
  256
370
   -1
100
AcDbLine
 10
90.76207470451293
 20
158.1957060092612
 11
95.6620747045129
 21
158.1957060092612
  0
LINE
  5
AC
100
AcDbEntity
  8
Front Panel
  6
ByLayer
 62
  256
370
   -1
100
AcDbLine
 10
95.6620747045129
 20
158.1957060092612
 11
95.6620747045129
 21
177.7957060092612
  0
LINE
  5
AD
100
AcDbEntity
  8
Front Panel
  6
ByLayer
 62
  256
370
   -1
100
AcDbLine
 10
95.6620747045129
 20
177.7957060092612
 11
90.76207470451293
 21
177.7957060092612
  0
LINE
  5
AE
100
AcDbEntity
  8
Front Panel
  6
ByLayer
 62
  256
370
   -1
100
AcDbLine
 10
90.76207470451293
 20
177.7957060092612
 11
90.76207470451293
 21
202.2957060092612
  0
LWPOLYLINE
  5
AF
100
AcDbEntity
  8
Right Panel
  6
ByLayer
 62
  256
370
   -1
100
AcDbPolyline
 90
    4
 70
    1
 43
0
 10
3.457602845886186
 20
6.311269724212025
 10
86.75760284588614
 20
6.311269724212025
 10
86.75760284588614
 20
84.71126972421206
 10
3.457602845886186
 20
84.71126972421206
  0
LWPOLYLINE
  5
B0
100
AcDbEntity
  8
Right Panel
  6
ByLayer
 62
  256
370
   -1
100
AcDbPolyline
 90
    5
 70
    1
 43
0
 10
186.7105536778552
 20
94.25080498030087
 10
93.61055367785514
 20
94.25080498030087
 10
93.61055367785514
 20
6.05080498030086
 10
186.7105536778552
 20
6.05080498030086
 10
186.7105536778552
 20
6.05080498030086
  0
LINE
  5
B1
100
AcDbEntity
  8
Right Panel
  6
ByLayer
 62
  256
370
   -1
100
AcDbLine
 10
113.2105536778552
 20
79.55080498030088
 11
132.8105536778552
 21
79.55080498030088
  0
LINE
  5
B2
100
AcDbEntity
  8
Right Panel
  6
ByLayer
 62
  256
370
   -1
100
AcDbLine
 10
132.8105536778552
 20
84.45080498030086
 11
152.4105536778552
 21
84.45080498030086
  0
LINE
  5
B3
100
AcDbEntity
  8
Right Panel
  6
ByLayer
 62
  256
370
   -1
100
AcDbLine
 10
152.4105536778552
 20
79.55080498030088
 11
172.0105536778551
 21
79.55080498030088
  0
LINE
  5
B4
100
AcDbEntity
  8
Right Panel
  6
ByLayer
 62
  256
370
   -1
100
AcDbLine
 10
172.0105536778551
 20
79.55080498030088
 11
172.0105536778551
 21
20.75080498030085
  0
LINE
  5
B5
100
AcDbEntity
  8
Right Panel
  6
ByLayer
 62
  256
370
   -1
100
AcDbLine
 10
152.4105536778552
 20
84.45080498030086
 11
152.4105536778552
 21
79.55080498030088
  0
LINE
  5
B6
100
AcDbEntity
  8
Right Panel
  6
ByLayer
 62
  256
370
   -1
100
AcDbLine
 10
132.8105536778552
 20
79.55080498030088
 11
132.8105536778552
 21
84.45080498030086
  0
LINE
  5
B7
100
AcDbEntity
  8
Right Panel
  6
ByLayer
 62
  256
370
   -1
100
AcDbLine
 10
113.2105536778552
 20
20.75080498030085
 11
113.2105536778552
 21
79.55080498030088
  0
LINE
  5
B8
100
AcDbEntity
  8
Right Panel
  6
ByLayer
 62
  256
370
   -1
100
AcDbLine
 10
132.8105536778552
 20
20.75080498030085
 11
113.2105536778552
 21
20.75080498030085
  0
LINE
  5
B9
100
AcDbEntity
  8
Right Panel
  6
ByLayer
 62
  256
370
   -1
100
AcDbLine
 10
132.8105536778552
 20
15.85080498030087
 11
132.8105536778552
 21
20.75080498030085
  0
LINE
  5
BA
100
AcDbEntity
  8
Right Panel
  6
ByLayer
 62
  256
370
   -1
100
AcDbLine
 10
152.4105536778552
 20
15.85080498030087
 11
132.8105536778552
 21
15.85080498030087
  0
LINE
  5
BB
100
AcDbEntity
  8
Right Panel
  6
ByLayer
 62
  256
370
   -1
100
AcDbLine
 10
152.4105536778552
 20
20.75080498030085
 11
152.4105536778552
 21
15.85080498030087
  0
LINE
  5
BC
100
AcDbEntity
  8
Right Panel
  6
ByLayer
 62
  256
370
   -1
100
AcDbLine
 10
172.0105536778551
 20
20.75080498030085
 11
152.4105536778552
 21
20.75080498030085
  0
LWPOLYLINE
  5
BD
100
AcDbEntity
  8
Right Panel
  6
ByLayer
 62
  256
370
   -1
100
AcDbPolyline
 90
    5
 70
    1
 43
0
 10
174.8694084611647
 20
123.6093017404319
 10
253.2694084611646
 20
123.6093017404319
 10
253.2694084611646
 20
202.0093017404319
 10
174.8694084611647
 20
202.0093017404319
 10
174.8694084611647
 20
202.0093017404319
  0
LWPOLYLINE
  5
BE
100
AcDbEntity
  8
Right Panel
  6
ByLayer
 62
  256
370
   -1
100
AcDbPolyline
 90
    5
 70
    1
 43
0
 10
204.2694084611646
 20
143.2093017404319
 10
223.8694084611647
 20
143.2093017404319
 10
223.8694084611647
 20
192.2093017404319
 10
204.2694084611646
 20
192.2093017404319
 10
204.2694084611646
 20
192.2093017404319
  0
DIMENSION
  5
BF
100
AcDbEntity
  8
0
  6
ByLayer
 62
  256
370
   -1
100
AcDbDimension
  2
*D1
 10
186.1581423068955
 20
323.2394275525775
 30
0
 11
146.9581423068955
 21
325.1144275525775
 31
0
 70
   32
 71
    5
 72
    0
  3
Standard
 53
0
210
0
220
0
230
1
100
AcDbAlignedDimension
 13
107.7581423068955
 23
298.1716778605575
 33
0
 14
186.1581423068955
 24
298.1716778605575
 34
0
100
AcDbRotatedDimension
  0
DIMENSION
  5
C0
100
AcDbEntity
  8
0
  6
ByLayer
 62
  256
370
   -1
100
AcDbDimension
  2
*D2
 10
268.7830935950405
 20
323.2394275525775
 30
0
 11
229.5830935950405
 21
325.1144275525775
 31
0
 70
   32
 71
    5
 72
    0
  3
Standard
 53
0
210
0
220
0
230
1
100
AcDbAlignedDimension
 13
190.3830935950405
 23
298.2021198191788
 33
0
 14
268.7830935950405
 24
298.2021198191788
 34
0
100
AcDbRotatedDimension
  0
DIMENSION
  5
C1
100
AcDbEntity
  8
0
  6
ByLayer
 62
  256
370
   -1
100
AcDbDimension
  2
*D3
 10
341.6422920866346
 20
323.0307086893785
 30
0
 11
307.3422920866346
 21
324.9057086893785
 31
0
 70
   32
 71
    5
 72
    0
  3
Standard
 53
0
210
0
220
0
230
1
100
AcDbAlignedDimension
 13
273.0422920866346
 23
227.7881647715501
 33
0
 14
341.6422920866346
 24
227.7881647715501
 34
0
100
AcDbRotatedDimension
  0
LWPOLYLINE
  5
C2
100
AcDbEntity
  8
top panel
  6
ByLayer
 62
  256
370
   -1
100
AcDbPolyline
 90
    4
 70
    1
 43
0
 10
189.4421175277119
 20
146.1998950485603
 10
258.0421175277119
 20
146.1998950485603
 10
258.0421175277119
 20
214.7998950485602
 10
189.4421175277119
 20
214.7998950485602
  0
LWPOLYLINE
  5
C3
100
AcDbEntity
  8
top panel
  6
ByLayer
 62
  256
370
   -1
100
AcDbPolyline
 90
    4
 70
    1
 43
0
 10
262.88525729389
 20
179.8327347545671
 10
306.9852572938902
 20
179.8327347545671
 10
306.9852572938902
 20
199.4327347545671
 10
262.88525729389
 20
199.4327347545671
  0
LWPOLYLINE
  5
C4
100
AcDbEntity
  8
top panel
  6
ByLayer
 62
  256
370
   -1
100
AcDbPolyline
 90
    4
 70
    1
 43
0
 10
276.1658163944286
 20
212.2034753074652
 10
334.9658163944286
 20
212.2034753074652
 10
334.9658163944286
 20
226.9034753074652
 10
276.1658163944286
 20
226.9034753074652
  0
LWPOLYLINE
  5
C5
100
AcDbEntity
  8
left panel
  6
ByLayer
 62
  256
370
   -1
100
AcDbPolyline
 90
    4
 70
    1
 43
0
 10
415.2275177251815
 20
96.6629808431739
 10
469.1275177251814
 20
96.6629808431739
 10
469.1275177251814
 20
111.3629808431739
 10
415.2275177251815
 20
111.3629808431739
  0
LWPOLYLINE
  5
C6
100
AcDbEntity
  8
left panel
  6
ByLayer
 62
  256
370
   -1
100
AcDbPolyline
 90
    4
 70
    1
 43
0
 10
414.9439800513051
 20
112.8246282541328
 10
468.8439800513052
 20
112.8246282541328
 10
468.8439800513052
 20
132.4246282541328
 10
414.9439800513051
 20
132.4246282541328
  0
LWPOLYLINE
  5
C7
100
AcDbEntity
  8
left panel
  6
ByLayer
 62
  256
370
   -1
100
AcDbPolyline
 90
    4
 70
    1
 43
0
 10
414.9439800513051
 20
133.5228784471151
 10
468.8439800513052
 20
133.5228784471151
 10
468.8439800513052
 20
148.2228784471151
 10
414.9439800513051
 20
148.2228784471151
  0
LWPOLYLINE
  5
C8
100
AcDbEntity
  8
Base Panel
  6
ByLayer
 62
  256
370
   -1
100
AcDbPolyline
 90
    4
 70
    1
 43
0
 10
3.717368329198166
 20
3.507495459627521
 10
101.7173683291982
 20
3.507495459627521
 10
101.7173683291982
 20
101.5074954596275
 10
3.717368329198166
 20
101.5074954596275
  0
LINE
  5
C9
100
AcDbEntity
  8
Base Panel
  6
ByLayer
 62
  256
370
   -1
100
AcDbLine
 10
23.31736832919816
 20
23.10749545962751
 11
23.31736832919816
 21
37.80749545962752
  0
LINE
  5
CA
100
AcDbEntity
  8
Base Panel
  6
ByLayer
 62
  256
370
   -1
100
AcDbLine
 10
23.31736832919816
 20
37.80749545962752
 11
18.41736832919816
 21
37.80749545962752
  0
LINE
  5
CB
100
AcDbEntity
  8
Base Panel
  6
ByLayer
 62
  256
370
   -1
100
AcDbLine
 10
18.41736832919816
 20
37.80749545962752
 11
18.41736832919816
 21
57.40749545962751
  0
LINE
  5
CC
100
AcDbEntity
  8
Base Panel
  6
ByLayer
 62
  256
370
   -1
100
AcDbLine
 10
18.41736832919816
 20
57.40749545962751
 11
23.31736832919816
 21
57.40749545962751
  0
LINE
  5
CD
100
AcDbEntity
  8
Base Panel
  6
ByLayer
 62
  256
370
   -1
100
AcDbLine
 10
23.31736832919816
 20
57.40749545962751
 11
23.31736832919816
 21
81.90749545962751
  0
LINE
  5
CE
100
AcDbEntity
  8
Base Panel
  6
ByLayer
 62
  256
370
   -1
100
AcDbLine
 10
23.31736832919816
 20
81.90749545962751
 11
18.41736832919816
 21
81.90749545962751
  0
LINE
  5
CF
100
AcDbEntity
  8
Base Panel
  6
ByLayer
 62
  256
370
   -1
100
AcDbLine
 10
18.41736832919816
 20
81.90749545962751
 11
18.41736832919816
 21
91.70749545962752
  0
LINE
  5
D0
100
AcDbEntity
  8
Base Panel
  6
ByLayer
 62
  256
370
   -1
100
AcDbLine
 10
18.41736832919816
 20
91.70749545962752
 11
87.01736832919816
 21
91.70749545962752
  0
LINE
  5
D1
100
AcDbEntity
  8
Base Panel
  6
ByLayer
 62
  256
370
   -1
100
AcDbLine
 10
87.01736832919816
 20
91.70749545962752
 11
87.01736832919816
 21
81.90749545962751
  0
LINE
  5
D2
100
AcDbEntity
  8
Base Panel
  6
ByLayer
 62
  256
370
   -1
100
AcDbLine
 10
87.01736832919816
 20
81.90749545962751
 11
82.11736832919817
 21
81.90749545962751
  0
LINE
  5
D3
100
AcDbEntity
  8
Base Panel
  6
ByLayer
 62
  256
370
   -1
100
AcDbLine
 10
82.11736832919817
 20
81.90749545962751
 11
82.11736832919817
 21
57.40749545962751
  0
LINE
  5
D4
100
AcDbEntity
  8
Base Panel
  6
ByLayer
 62
  256
370
   -1
100
AcDbLine
 10
82.11736832919817
 20
57.40749545962751
 11
87.01736832919816
 21
57.40749545962751
  0
LINE
  5
D5
100
AcDbEntity
  8
Base Panel
  6
ByLayer
 62
  256
370
   -1
100
AcDbLine
 10
87.01736832919816
 20
57.40749545962751
 11
87.01736832919816
 21
37.80749545962752
  0
LINE
  5
D6
100
AcDbEntity
  8
Base Panel
  6
ByLayer
 62
  256
370
   -1
100
AcDbLine
 10
87.01736832919816
 20
37.80749545962752
 11
82.11736832919817
 21
37.80749545962752
  0
LINE
  5
D7
100
AcDbEntity
  8
Base Panel
  6
ByLayer
 62
  256
370
   -1
100
AcDbLine
 10
82.11736832919817
 20
37.80749545962752
 11
82.11736832919817
 21
23.10749545962751
  0
LINE
  5
D8
100
AcDbEntity
  8
Base Panel
  6
ByLayer
 62
  256
370
   -1
100
AcDbLine
 10
82.11736832919817
 20
23.10749545962751
 11
23.31736832919816
 21
23.10749545962751
  0
LWPOLYLINE
  5
D9
100
AcDbEntity
  8
Base Panel
  6
ByLayer
 62
  256
370
   -1
100
AcDbPolyline
 90
    4
 70
    1
 43
0
 10
30.94990919255044
 20
29.81371140683396
 10
70.14990919255048
 20
29.81371140683396
 10
70.14990919255048
 20
49.41371140683398
 10
30.94990919255044
 20
49.41371140683398
  0
LWPOLYLINE
  5
DA
100
AcDbEntity
  8
Base Panel
  6
ByLayer
 62
  256
370
   -1
100
AcDbPolyline
 90
    4
 70
    1
 43
0
 10
4.180530787271152
 20
108.1672775217487
 10
72.78053078727112
 20
108.1672775217487
 10
72.78053078727112
 20
171.8672775217487
 10
4.180530787271152
 20
171.8672775217487
  0
LWPOLYLINE
  5
DB
100
AcDbEntity
  8
Base Panel
  6
ByLayer
 62
  256
370
   -1
100
AcDbPolyline
 90
    4
 70
    1
 43
0
 10
107.6516468462832
 20
5.573035327643623
 10
176.2516468462831
 20
5.573035327643623
 10
176.2516468462831
 20
69.27303532764361
 10
107.6516468462832
 20
69.27303532764361
  0
LINE
  5
DC
100
AcDbEntity
  8
Base Panel
  6
ByLayer
 62
  256
370
   -1
100
AcDbLine
 10
278.8458890403882
 20
233.2484480652304
 11
337.6458890403882
 21
233.2484480652304
  0
LINE
  5
DD
100
AcDbEntity
  8
Base Panel
  6
ByLayer
 62
  256
370
   -1
100
AcDbLine
 10
337.6458890403882
 20
233.2484480652304
 11
337.6458890403882
 21
287.1484480652304
  0
LINE
  5
DE
100
AcDbEntity
  8
Base Panel
  6
ByLayer
 62
  256
370
   -1
100
AcDbLine
 10
278.8458890403882
 20
287.1484480652304
 11
278.8458890403882
 21
233.2484480652304
  0
LINE
  5
DF
100
AcDbEntity
  8
Base Panel
  6
ByLayer
 62
  256
370
   -1
100
AcDbLine
 10
278.8458890403882
 20
287.1484480652304
 11
273.9458890403882
 21
287.1484480652304
  0
LINE
  5
E0
100
AcDbEntity
  8
Base Panel
  6
ByLayer
 62
  256
370
   -1
100
AcDbLine
 10
273.9458890403882
 20
287.1484480652304
 11
273.9458890403882
 21
296.9484480652304
  0
LINE
  5
E1
100
AcDbEntity
  8
Base Panel
  6
ByLayer
 62
  256
370
   -1
100
AcDbLine
 10
273.9458890403882
 20
296.9484480652304
 11
303.3458890403882
 21
296.9484480652304
  0
LINE
  5
E2
100
AcDbEntity
  8
Base Panel
  6
ByLayer
 62
  256
370
   -1
100
AcDbLine
 10
303.3458890403882
 20
296.9484480652304
 11
303.3458890403882
 21
292.0484480652303
  0
LINE
  5
E3
100
AcDbEntity
  8
Base Panel
  6
ByLayer
 62
  256
370
   -1
100
AcDbLine
 10
303.3458890403882
 20
292.0484480652303
 11
313.1458890403882
 21
292.0484480652303
  0
LINE
  5
E4
100
AcDbEntity
  8
Base Panel
  6
ByLayer
 62
  256
370
   -1
100
AcDbLine
 10
313.1458890403882
 20
292.0484480652303
 11
313.1458890403882
 21
296.9484480652304
  0
LINE
  5
E5
100
AcDbEntity
  8
Base Panel
  6
ByLayer
 62
  256
370
   -1
100
AcDbLine
 10
313.1458890403882
 20
296.9484480652304
 11
342.5458890403881
 21
296.9484480652304
  0
LINE
  5
E6
100
AcDbEntity
  8
Base Panel
  6
ByLayer
 62
  256
370
   -1
100
AcDbLine
 10
342.5458890403881
 20
296.9484480652304
 11
342.5458890403881
 21
287.1484480652304
  0
LINE
  5
E7
100
AcDbEntity
  8
Base Panel
  6
ByLayer
 62
  256
370
   -1
100
AcDbLine
 10
342.5458890403881
 20
287.1484480652304
 11
337.6458890403882
 21
287.1484480652304
  0
LINE
  5
E8
100
AcDbEntity
  8
left panel
  6
ByLayer
 62
  256
370
   -1
100
AcDbLine
 10
333.2120686646148
 20
93.82550354503627
 11
401.8120686646148
 21
93.82550354503627
  0
LINE
  5
E9
100
AcDbEntity
  8
left panel
  6
ByLayer
 62
  256
370
   -1
100
AcDbLine
 10
401.8120686646148
 20
172.2255035450363
 11
333.2120686646148
 21
172.2255035450363
  0
LINE
  5
EA
100
AcDbEntity
  8
left panel
  6
ByLayer
 62
  256
370
   -1
100
AcDbLine
 10
333.2120686646148
 20
93.82550354503627
 11
333.2120686646148
 21
123.2255035450363
  0
LINE
  5
EB
100
AcDbEntity
  8
left panel
  6
ByLayer
 62
  256
370
   -1
100
AcDbLine
 10
333.2120686646148
 20
123.2255035450363
 11
328.3120686646148
 21
123.2255035450363
  0
LINE
  5
EC
100
AcDbEntity
  8
left panel
  6
ByLayer
 62
  256
370
   -1
100
AcDbLine
 10
328.3120686646148
 20
123.2255035450363
 11
328.3120686646148
 21
142.8255035450363
  0
LINE
  5
ED
100
AcDbEntity
  8
left panel
  6
ByLayer
 62
  256
370
   -1
100
AcDbLine
 10
328.3120686646148
 20
142.8255035450363
 11
333.2120686646148
 21
142.8255035450363
  0
LINE
  5
EE
100
AcDbEntity
  8
left panel
  6
ByLayer
 62
  256
370
   -1
100
AcDbLine
 10
333.2120686646148
 20
142.8255035450363
 11
333.2120686646148
 21
172.2255035450363
  0
LINE
  5
EF
100
AcDbEntity
  8
left panel
  6
ByLayer
 62
  256
370
   -1
100
AcDbLine
 10
401.8120686646148
 20
93.82550354503627
 11
401.8120686646148
 21
123.2255035450363
  0
LINE
  5
F0
100
AcDbEntity
  8
left panel
  6
ByLayer
 62
  256
370
   -1
100
AcDbLine
 10
401.8120686646148
 20
123.2255035450363
 11
406.7120686646148
 21
123.2255035450363
  0
LINE
  5
F1
100
AcDbEntity
  8
left panel
  6
ByLayer
 62
  256
370
   -1
100
AcDbLine
 10
406.7120686646148
 20
123.2255035450363
 11
406.7120686646148
 21
142.8255035450363
  0
LINE
  5
F2
100
AcDbEntity
  8
left panel
  6
ByLayer
 62
  256
370
   -1
100
AcDbLine
 10
406.7120686646148
 20
142.8255035450363
 11
401.8120686646148
 21
142.8255035450363
  0
LINE
  5
F3
100
AcDbEntity
  8
left panel
  6
ByLayer
 62
  256
370
   -1
100
AcDbLine
 10
401.8120686646148
 20
142.8255035450363
 11
401.8120686646148
 21
172.2255035450363
  0
LWPOLYLINE
  5
F4
100
AcDbEntity
  8
left panel
  6
ByLayer
 62
  256
370
   -1
100
AcDbPolyline
 90
    4
 70
    1
 43
0
 10
343.1577081466203
 20
175.3345320363445
 10
411.7577081466203
 20
175.3345320363445
 10
411.7577081466203
 20
243.9345320363445
 10
343.1577081466203
 20
243.9345320363445
  0
LWPOLYLINE
  5
F5
100
AcDbEntity
  8
Right Panel
  6
ByLayer
 62
  256
370
   -1
100
AcDbPolyline
 90
    4
 70
    1
 43
0
 10
6.294935862975422
 20
111.4504204926698
 10
65.09493586297532
 20
111.4504204926698
 10
65.09493586297532
 20
126.1504204926698
 10
6.294935862975422
 20
126.1504204926698
  0
LWPOLYLINE
  5
F6
100
AcDbEntity
  8
Right Panel
  6
ByLayer
 62
  256
370
   -1
100
AcDbPolyline
 90
    4
 70
    1
 43
0
 10
64.10864895596052
 20
107.3795347243152
 10
5.308648955960564
 20
107.3795347243152
 10
5.308648955960564
 20
87.7795347243152
 10
64.10864895596052
 20
87.7795347243152
  0
LWPOLYLINE
  5
F7
100
AcDbEntity
  8
Right Panel
  6
ByLayer
 62
  256
370
   -1
100
AcDbPolyline
 90
    4
 70
    1
 43
0
 10
149.9156098662462
 20
121.3132895628176
 10
91.11560986624605
 20
121.3132895628176
 10
91.11560986624605
 20
101.7132895628176
 10
149.9156098662462
 20
101.7132895628176
  0
LWPOLYLINE
  5
F8
100
AcDbEntity
  8
Right Panel
  6
ByLayer
 62
  256
370
   -1
100
AcDbPolyline
 90
    4
 70
    1
 43
0
 10
192.766030358916
 20
4.93143453507389
 10
261.366030358916
 20
4.93143453507389
 10
261.366030358916
 20
73.53143453507377
 10
192.766030358916
 20
73.53143453507377
  0
LWPOLYLINE
  5
F9
100
AcDbEntity
  8
Front Panel
  6
ByLayer
 62
  256
370
   -1
100
AcDbPolyline
 90
    4
 70
    1
 43
0
 10
193.6894481957831
 20
80.01497760849253
 10
252.489448195783
 20
80.01497760849253
 10
252.489448195783
 20
99.61497760849252
 10
193.6894481957831
 20
99.61497760849252
  0
LWPOLYLINE
  5
FA
100
AcDbEntity
  8
Front Panel
  6
ByLayer
 62
  256
370
   -1
100
AcDbPolyline
 90
    4
 70
    1
 43
0
 10
157.1968326362363
 20
104.640715748788
 10
215.9968326362363
 20
104.640715748788
 10
215.9968326362363
 20
119.3407157487881
 10
157.1968326362363
 20
119.3407157487881
  0
LWPOLYLINE
  5
FB
100
AcDbEntity
  8
Front Panel
  6
ByLayer
 62
  256
370
   -1
100
AcDbPolyline
 90
    4
 70
    1
 43
0
 10
116.6333313083348
 20
254.4620220098126
 10
155.8333313083348
 20
254.4620220098126
 10
155.8333313083348
 20
274.0620220098126
 10
116.6333313083348
 20
274.0620220098126
  0
LWPOLYLINE
  5
FC
100
AcDbEntity
  8
Right Panel
  6
ByLayer
 62
  256
370
   -1
100
AcDbPolyline
 90
    4
 70
    1
 43
0
 10
117.6196182153496
 20
228.8185624274284
 10
156.8196182153496
 20
228.8185624274284
 10
156.8196182153496
 20
248.4185624274284
 10
117.6196182153496
 20
248.4185624274284
  0
LWPOLYLINE
  5
FD
100
AcDbEntity
  8
Front Panel
  6
ByLayer
 62
  256
370
   -1
100
AcDbPolyline
 90
    4
 70
    1
 43
0
 10
187.8345958238421
 20
205.1476766590737
 10
256.4345958238421
 20
205.1476766590737
 10
256.4345958238421
 20
273.7476766590737
 10
187.8345958238421
 20
273.7476766590737
  0
LWPOLYLINE
  5
FE
100
AcDbEntity
  8
Front Panel
  6
ByLayer
 62
  256
370
   -1
100
AcDbPolyline
 90
    4
 70
    1
 43
0
 10
188.7580136607091
 20
278.2586459184629
 10
247.5580136607092
 20
278.2586459184629
 10
247.5580136607092
 20
297.8586459184628
 10
188.7580136607091
 20
297.8586459184628
  0
LWPOLYLINE
  5
FF
100
AcDbEntity
  8
Frame
  6
ByLayer
 62
  256
370
   -1
100
AcDbPolyline
 90
    4
 70
    1
 43
0
 10
0
 20
0
 10
500
 20
0
 10
500
 20
300
 10
0
 20
300
  0
LWPOLYLINE
  5
100
100
AcDbEntity
  8
left panel
  6
ByLayer
 62
  256
370
   -1
100
AcDbPolyline
 90
    4
 70
    1
 43
0
 10
395.4320289602469
 20
3.507495459627521
 10
488.5320289602469
 20
3.507495459627521
 10
488.5320289602469
 20
91.70749545962752
 10
395.4320289602469
 20
91.70749545962752
  0
LINE
  5
101
100
AcDbEntity
  8
left panel
  6
ByLayer
 62
  256
370
   -1
100
AcDbLine
 10
415.0320289602469
 20
18.20749545962752
 11
415.0320289602469
 21
32.90749545962751
  0
LINE
  5
102
100
AcDbEntity
  8
left panel
  6
ByLayer
 62
  256
370
   -1
100
AcDbLine
 10
415.0320289602469
 20
32.90749545962751
 11
410.1320289602469
 21
32.90749545962751
  0
LINE
  5
103
100
AcDbEntity
  8
left panel
  6
ByLayer
 62
  256
370
   -1
100
AcDbLine
 10
410.1320289602469
 20
32.90749545962751
 11
410.1320289602469
 21
52.50749545962752
  0
LINE
  5
104
100
AcDbEntity
  8
left panel
  6
ByLayer
 62
  256
370
   -1
100
AcDbLine
 10
410.1320289602469
 20
52.50749545962752
 11
415.0320289602469
 21
52.50749545962752
  0
LINE
  5
105
100
AcDbEntity
  8
left panel
  6
ByLayer
 62
  256
370
   -1
100
AcDbLine
 10
415.0320289602469
 20
52.50749545962752
 11
415.0320289602469
 21
77.00749545962752
  0
LINE
  5
106
100
AcDbEntity
  8
left panel
  6
ByLayer
 62
  256
370
   -1
100
AcDbLine
 10
415.0320289602469
 20
77.00749545962752
 11
468.9320289602469
 21
77.00749545962752
  0
LINE
  5
107
100
AcDbEntity
  8
left panel
  6
ByLayer
 62
  256
370
   -1
100
AcDbLine
 10
468.9320289602469
 20
77.00749545962752
 11
468.9320289602469
 21
52.50749545962752
  0
LINE
  5
108
100
AcDbEntity
  8
left panel
  6
ByLayer
 62
  256
370
   -1
100
AcDbLine
 10
468.9320289602469
 20
52.50749545962752
 11
473.8320289602469
 21
52.50749545962752
  0
LINE
  5
109
100
AcDbEntity
  8
left panel
  6
ByLayer
 62
  256
370
   -1
100
AcDbLine
 10
473.8320289602469
 20
52.50749545962752
 11
473.8320289602469
 21
32.90749545962751
  0
LINE
  5
10A
100
AcDbEntity
  8
left panel
  6
ByLayer
 62
  256
370
   -1
100
AcDbLine
 10
473.8320289602469
 20
32.90749545962751
 11
468.9320289602469
 21
32.90749545962751
  0
LINE
  5
10B
100
AcDbEntity
  8
left panel
  6
ByLayer
 62
  256
370
   -1
100
AcDbLine
 10
468.9320289602469
 20
32.90749545962751
 11
468.9320289602469
 21
18.20749545962752
  0
LINE
  5
10C
100
AcDbEntity
  8
left panel
  6
ByLayer
 62
  256
370
   -1
100
AcDbLine
 10
468.9320289602469
 20
18.20749545962752
 11
415.0320289602469
 21
18.20749545962752
  0
LWPOLYLINE
  5
10D
100
AcDbEntity
  8
left panel
  6
ByLayer
 62
  256
370
   -1
100
AcDbPolyline
 90
    4
 70
    1
 43
0
 10
311.9221560906763
 20
8.768738649068808
 10
390.3221560906762
 20
8.768738649068808
 10
390.3221560906762
 20
87.16873864906881
 10
311.9221560906763
 20
87.16873864906881
  0
LWPOLYLINE
  5
10E
100
AcDbEntity
  8
left panel
  6
ByLayer
 62
  256
370
   -1
100
AcDbPolyline
 90
    4
 70
    1
 43
0
 10
321.7221560906763
 20
33.26873864906881
 10
370.7221560906763
 20
33.26873864906881
 10
370.7221560906763
 20
52.86873864906881
 10
321.7221560906763
 20
52.86873864906881
  0
LWPOLYLINE
  5
10F
100
AcDbEntity
  8
left panel
  6
ByLayer
 62
  256
370
   -1
100
AcDbPolyline
 90
    4
 70
    1
 43
0
 10
423.0258130130404
 20
33.32120686646148
 10
462.2258130130405
 20
33.32120686646148
 10
462.2258130130405
 20
52.92120686646149
 10
423.0258130130404
 20
52.92120686646149
  0
LWPOLYLINE
  5
110
100
AcDbEntity
  8
Back Panel
  6
ByLayer
 62
  256
370
   -1
100
AcDbPolyline
 90
    4
 70
    1
 43
0
 10
304.3880385757953
 20
7.838202896581521
 10
304.3880385757953
 20
66.63820289658163
 10
284.7880385757953
 20
66.63820289658163
 10
284.7880385757953
 20
7.838202896581521
  0
LWPOLYLINE
  5
111
100
AcDbEntity
  8
Back Panel
  6
ByLayer
 62
  256
370
   -1
100
AcDbPolyline
 90
    4
 70
    1
 43
0
 10
261.9153815644004
 20
153.711375157747
 10
310.9153815644004
 20
153.711375157747
 10
310.9153815644004
 20
173.311375157747
 10
261.9153815644004
 20
173.311375157747
  0
LWPOLYLINE
  5
112
100
AcDbEntity
  8
Back Panel
  6
ByLayer
 62
  256
370
   -1
100
AcDbPolyline
 90
    4
 70
    1
 43
0
 10
109.2859065600258
 20
74.02747180104772
 10
168.085906560026
 20
74.02747180104772
 10
168.085906560026
 20
88.72747180104771
 10
109.2859065600258
 20
88.72747180104771
  0
LWPOLYLINE
  5
113
100
AcDbEntity
  8
Back Panel
  6
ByLayer
 62
  256
370
   -1
100
AcDbPolyline
 90
    4
 70
    1
 43
0
 10
304.8190015337259
 20
83.15856357142098
 10
304.8190015337259
 20
141.9585635714209
 10
285.2190015337259
 20
141.9585635714209
 10
285.2190015337259
 20
83.15856357142098
  0
LINE
  5
114
100
AcDbEntity
  8
top panel
  6
ByLayer
 62
  256
370
   -1
100
AcDbLine
 10
205.1475026646501
 20
76.94649906012992
 11
259.0475026646501
 21
76.94649906012992
  0
LINE
  5
115
100
AcDbEntity
  8
top panel
  6
ByLayer
 62
  256
370
   -1
100
AcDbLine
 10
259.0475026646501
 20
76.94649906012992
 11
259.0475026646501
 21
96.54649906012993
  0
LINE
  5
116
100
AcDbEntity
  8
top panel
  6
ByLayer
 62
  256
370
   -1
100
AcDbLine
 10
259.0475026646501
 20
96.54649906012993
 11
205.1475026646501
 21
96.54649906012993
  0
LINE
  5
117
100
AcDbEntity
  8
top panel
  6
ByLayer
 62
  256
370
   -1
100
AcDbLine
 10
205.1475026646501
 20
96.54649906012993
 11
205.1475026646501
 21
76.94649906012992
  0
LINE
  5
118
100
AcDbEntity
  8
top panel
  6
ByLayer
 62
  256
370
   -1
100
AcDbLine
 10
190.4475026646501
 20
52.44649906012993
 11
190.4475026646501
 21
130.84649906013
  0
LINE
  5
119
100
AcDbEntity
  8
top panel
  6
ByLayer
 62
  256
370
   -1
100
AcDbLine
 10
190.4475026646501
 20
130.84649906013
 11
268.8475026646501
 21
130.84649906013
  0
LINE
  5
11A
100
AcDbEntity
  8
top panel
  6
ByLayer
 62
  256
370
   -1
100
AcDbLine
 10
268.8475026646501
 20
130.84649906013
 11
268.8475026646501
 21
52.44649906012993
  0
LINE
  5
11B
100
AcDbEntity
  8
top panel
  6
ByLayer
 62
  256
370
   -1
100
AcDbLine
 10
268.8475026646501
 20
52.44649906012993
 11
190.4475026646501
 21
52.44649906012993
  0
LWPOLYLINE
  5
11C
100
AcDbEntity
  8
Base Panel
  6
ByLayer
 62
  256
370
   -1
100
AcDbPolyline
 90
    4
 70
    1
 43
0
 10
24.45314036276585
 20
231.74764696928
 10
83.25314036276592
 20
231.74764696928
 10
83.25314036276592
 20
246.44764696928
 10
24.45314036276585
 20
246.44764696928
  0
LWPOLYLINE
  5
11D
100
AcDbEntity
  8
top panel
  6
ByLayer
 62
  256
370
   -1
100
AcDbPolyline
 90
    4
 70
    1
 43
0
 10
5.656431555651572
 20
194.6442125065616
 10
103.6564315556516
 20
194.6442125065616
 10
103.6564315556516
 20
292.6442125065616
 10
5.656431555651572
 20
292.6442125065616
  0
LINE
  5
11E
100
AcDbEntity
  8
top panel
  6
ByLayer
 62
  256
370
   -1
100
AcDbLine
 10
25.25643155565157
 20
214.2442125065616
 11
84.05643155565159
 21
214.2442125065616
  0
LINE
  5
11F
100
AcDbEntity
  8
top panel
  6
ByLayer
 62
  256
370
   -1
100
AcDbLine
 10
84.05643155565159
 20
273.0442125065616
 11
25.25643155565157
 21
273.0442125065616
  0
LINE
  5
120
100
AcDbEntity
  8
top panel
  6
ByLayer
 62
  256
370
   -1
100
AcDbLine
 10
20.35643155565158
 20
228.9442125065616
 11
25.25643155565157
 21
228.9442125065616
  0
LINE
  5
121
100
AcDbEntity
  8
top panel
  6
ByLayer
 62
  256
370
   -1
100
AcDbLine
 10
25.25643155565157
 20
248.5442125065616
 11
20.35643155565158
 21
248.5442125065616
  0
LINE
  5
122
100
AcDbEntity
  8
top panel
  6
ByLayer
 62
  256
370
   -1
100
AcDbLine
 10
88.95643155565156
 20
228.9442125065616
 11
88.95643155565156
 21
248.5442125065616
  0
LINE
  5
123
100
AcDbEntity
  8
top panel
  6
ByLayer
 62
  256
370
   -1
100
AcDbLine
 10
88.95643155565156
 20
248.5442125065616
 11
84.05643155565159
 21
248.5442125065616
  0
LINE
  5
124
100
AcDbEntity
  8
top panel
  6
ByLayer
 62
  256
370
   -1
100
AcDbLine
 10
25.25643155565157
 20
214.2442125065616
 11
25.25643155565157
 21
228.9442125065616
  0
LINE
  5
125
100
AcDbEntity
  8
top panel
  6
ByLayer
 62
  256
370
   -1
100
AcDbLine
 10
25.25643155565157
 20
248.5442125065616
 11
25.25643155565157
 21
273.0442125065616
  0
LINE
  5
126
100
AcDbEntity
  8
top panel
  6
ByLayer
 62
  256
370
   -1
100
AcDbLine
 10
84.05643155565159
 20
214.2442125065616
 11
84.05643155565159
 21
228.9442125065616
  0
LINE
  5
127
100
AcDbEntity
  8
top panel
  6
ByLayer
 62
  256
370
   -1
100
AcDbLine
 10
84.05643155565159
 20
248.5442125065616
 11
84.05643155565159
 21
273.0442125065616
  0
LINE
  5
128
100
AcDbEntity
  8
top panel
  6
ByLayer
 62
  256
370
   -1
100
AcDbLine
 10
20.35643155565156
 20
248.5442125065616
 11
20.35643155565156
 21
228.9442125065616
  0
LINE
  5
129
100
AcDbEntity
  8
top panel
  6
ByLayer
 62
  256
370
   -1
100
AcDbLine
 10
84.05643155565159
 20
228.9442125065616
 11
88.95643155565156
 21
228.9442125065616
  0
LWPOLYLINE
  5
12A
100
AcDbEntity
  8
Base Panel
  6
ByLayer
 62
  256
370
   -1
100
AcDbPolyline
 90
    4
 70
    1
 43
0
 10
349.7150791807156
 20
252.0484302699677
 10
408.5150791807156
 20
252.0484302699677
 10
408.5150791807156
 20
271.6484302699677
 10
349.7150791807156
 20
271.6484302699677
  0
LWPOLYLINE
  5
12B
100
AcDbEntity
  8
Front Panel
  6
ByLayer
 62
  256
370
   -1
100
AcDbPolyline
 90
    4
 70
    1
 43
0
 10
266.480927449587
 20
4.011117532861732
 10
359.580927449587
 20
4.011117532861732
 10
359.580927449587
 20
92.21111753286178
 10
266.480927449587
 20
92.21111753286178
  0
LINE
  5
12C
100
AcDbEntity
  8
Front Panel
  6
ByLayer
 62
  256
370
   -1
100
AcDbLine
 10
344.880927449587
 20
18.71111753286172
 11
344.880927449587
 21
77.51111753286173
  0
LINE
  5
12D
100
AcDbEntity
  8
Front Panel
  6
ByLayer
 62
  256
370
   -1
100
AcDbLine
 10
344.880927449587
 20
77.51111753286173
 11
286.0809274495871
 21
77.51111753286173
  0
LINE
  5
12E
100
AcDbEntity
  8
Front Panel
  6
ByLayer
 62
  256
370
   -1
100
AcDbLine
 10
286.0809274495871
 20
77.51111753286173
 11
286.0809274495871
 21
18.71111753286172
  0
LINE
  5
12F
100
AcDbEntity
  8
Front Panel
  6
ByLayer
 62
  256
370
   -1
100
AcDbLine
 10
286.0809274495871
 20
18.71111753286172
 11
305.680927449587
 21
18.71111753286172
  0
LINE
  5
130
100
AcDbEntity
  8
Front Panel
  6
ByLayer
 62
  256
370
   -1
100
AcDbLine
 10
305.680927449587
 20
18.71111753286172
 11
305.680927449587
 21
13.81111753286175
  0
LINE
  5
131
100
AcDbEntity
  8
Front Panel
  6
ByLayer
 62
  256
370
   -1
100
AcDbLine
 10
305.680927449587
 20
13.81111753286175
 11
325.280927449587
 21
13.81111753286175
  0
LINE
  5
132
100
AcDbEntity
  8
Front Panel
  6
ByLayer
 62
  256
370
   -1
100
AcDbLine
 10
325.280927449587
 20
13.81111753286175
 11
325.280927449587
 21
18.71111753286172
  0
LINE
  5
133
100
AcDbEntity
  8
Front Panel
  6
ByLayer
 62
  256
370
   -1
100
AcDbLine
 10
325.280927449587
 20
18.71111753286172
 11
344.880927449587
 21
18.71111753286172
  0
LINE
  5
134
100
AcDbEntity
  8
Front Panel
  6
ByLayer
 62
  256
370
   -1
100
AcDbLine
 10
273.9398208426893
 20
98.33542749201928
 11
357.2398208426894
 21
98.33542749201928
  0
LINE
  5
135
100
AcDbEntity
  8
Front Panel
  6
ByLayer
 62
  256
370
   -1
100
AcDbLine
 10
357.2398208426894
 20
98.33542749201928
 11
357.2398208426894
 21
171.8354274920192
  0
LINE
  5
136
100
AcDbEntity
  8
Front Panel
  6
ByLayer
 62
  256
370
   -1
100
AcDbLine
 10
273.9398208426893
 20
98.33542749201928
 11
273.9398208426893
 21
127.7354274920193
  0
LINE
  5
137
100
AcDbEntity
  8
Front Panel
  6
ByLayer
 62
  256
370
   -1
100
AcDbLine
 10
273.9398208426893
 20
127.7354274920193
 11
278.8398208426893
 21
127.7354274920193
  0
LINE
  5
138
100
AcDbEntity
  8
Front Panel
  6
ByLayer
 62
  256
370
   -1
100
AcDbLine
 10
278.8398208426893
 20
127.7354274920193
 11
278.8398208426893
 21
147.3354274920192
  0
LINE
  5
139
100
AcDbEntity
  8
Front Panel
  6
ByLayer
 62
  256
370
   -1
100
AcDbLine
 10
278.8398208426893
 20
147.3354274920192
 11
273.9398208426893
 21
147.3354274920192
  0
LINE
  5
13A
100
AcDbEntity
  8
Front Panel
  6
ByLayer
 62
  256
370
   -1
100
AcDbLine
 10
273.9398208426893
 20
147.3354274920192
 11
273.9398208426893
 21
171.8354274920192
  0
LINE
  5
13B
100
AcDbEntity
  8
Front Panel
  6
ByLayer
 62
  256
370
   -1
100
AcDbLine
 10
273.9398208426893
 20
171.8354274920192
 11
308.2398208426894
 21
171.8354274920192
  0
LINE
  5
13C
100
AcDbEntity
  8
Front Panel
  6
ByLayer
 62
  256
370
   -1
100
AcDbLine
 10
308.2398208426894
 20
171.8354274920192
 11
308.2398208426894
 21
176.7354274920193
  0
LINE
  5
13D
100
AcDbEntity
  8
Front Panel
  6
ByLayer
 62
  256
370
   -1
100
AcDbLine
 10
308.2398208426894
 20
176.7354274920193
 11
318.0398208426894
 21
176.7354274920193
  0
LINE
  5
13E
100
AcDbEntity
  8
Front Panel
  6
ByLayer
 62
  256
370
   -1
100
AcDbLine
 10
318.0398208426894
 20
176.7354274920193
 11
318.0398208426894
 21
171.8354274920192
  0
LINE
  5
13F
100
AcDbEntity
  8
Front Panel
  6
ByLayer
 62
  256
370
   -1
100
AcDbLine
 10
318.0398208426894
 20
171.8354274920192
 11
357.2398208426894
 21
171.8354274920192
  0
LWPOLYLINE
  5
140
100
AcDbEntity
  8
Front Panel
  6
ByLayer
 62
  256
370
   -1
100
AcDbPolyline
 90
    5
 70
    1
 43
0
 10
280.5317531002852
 20
208.5575748326886
 10
358.9317531002854
 20
208.5575748326886
 10
358.9317531002854
 20
286.9575748326887
 10
280.5317531002852
 20
286.9575748326887
 10
280.5317531002852
 20
286.9575748326887
  0
LWPOLYLINE
  5
141
100
AcDbEntity
  8
Front Panel
  6
ByLayer
 62
  256
370
   -1
100
AcDbPolyline
 90
    5
 70
    1
 43
0
 10
309.9317531002854
 20
228.1575748326886
 10
329.5317531002853
 20
228.1575748326886
 10
329.5317531002853
 20
277.1575748326886
 10
309.9317531002854
 20
277.1575748326886
 10
309.9317531002854
 20
277.1575748326886
  0
ENDSEC
  0
SECTION
  2
OBJECTS
  0
DICTIONARY
  5
C
330
0
100
AcDbDictionary
281
    1
  3
ACAD_GROUP
350
D
  0
DICTIONARY
  5
D
330
C
100
AcDbDictionary
281
    1
  0
ENDSEC
  0
EOF
