  0
SECTION
  2
HEADER
  9
$ACADVER
  1
AC1006
  9
$DWGCODEPAGE
  3
ansi_1252
  9
$INSBASE
 10
0.0
 20
0.0
 30
0.0
  9
$EXTMIN
 10
-8.924594488188976
 20
-1.426783464566929
  9
$EXTMAX
 10
-2.488106299212598
 20
5.924248031496063
  9
$LIMMIN
 10
0.0
 20
0.0
  9
$LIMMAX
 10
12.0
 20
9.0
  9
$ORTHOMODE
 70
     0
  9
$REGENMODE
 70
     1
  9
$FILLMODE
 70
     1
  9
$QTEXTMODE
 70
     0
  9
$MIRRTEXT
 70
     1
  9
$DRAGMODE
 70
     2
  9
$LTSCALE
 40
1.0
  9
$OSMODE
 70
    37
  9
$ATTMODE
 70
     1
  9
$TEXTSIZE
 40
0.2
  9
$TRACEWID
 40
0.05
  9
$TEXTSTYLE
  7
STANDARD
  9
$CLAYER
  8
0
  9
$CELTYPE
  6
BYLAYER
  9
$CECOLOR
 62
   256
  9
$DIMSCALE
 40
1.0
  9
$DIMASZ
 40
0.18
  9
$DIMEXO
 40
0.0625
  9
$DIMDLI
 40
0.38
  9
$DIMRND
 40
0.0
  9
$DIMDLE
 40
0.0
  9
$DIMEXE
 40
0.18
  9
$DIMTP
 40
0.0
  9
$DIMTM
 40
0.0
  9
$DIMTXT
 40
0.18
  9
$DIMCEN
 40
0.09
  9
$DIMTSZ
 40
0.0
  9
$DIMTOL
 70
     0
  9
$DIMLIM
 70
     0
  9
$DIMTIH
 70
     1
  9
$DIMTOH
 70
     1
  9
$DIMSE1
 70
     0
  9
$DIMSE2
 70
     0
  9
$DIMTAD
 70
     0
  9
$DIMZIN
 70
     0
  9
$DIMBLK
  1

  9
$DIMASO
 70
     1
  9
$DIMSHO
 70
     1
  9
$DIMPOST
  1

  9
$DIMAPOST
  1

  9
$DIMALT
 70
     0
  9
$DIMALTD
 70
     2
  9
$DIMALTF
 40
25.4
  9
$DIMLFAC
 40
1.0
  9
$DIMTOFL
 70
     0
  9
$DIMTVP
 40
0.0
  9
$DIMTIX
 70
     0
  9
$DIMSOXD
 70
     0
  9
$DIMSAH
 70
     0
  9
$DIMBLK1
  1

  9
$DIMBLK2
  1

  9
$LUNITS
 70
     2
  9
$LUPREC
 70
     4
  9
$SKETCHINC
 40
0.1
  9
$FILLETRAD
 40
0.5
  9
$AUNITS
 70
     0
  9
$AUPREC
 70
     0
  9
$MENU
  1
.
  9
$ELEVATION
 40
0.0
  9
$THICKNESS
 40
0.0
  9
$LIMCHECK
 70
     0
  9
$CHAMFERA
 40
0.5
  9
$CHAMFERB
 40
0.5
  9
$SKPOLY
 70
     0
  9
$TDCREATE
 40
2456888.684844282
  9
$TDUPDATE
 40
2456888.684844294
  9
$TDINDWG
 40
0.0000000116
  9
$TDUSRTIMER
 40
0.0000000116
  9
$USRTIMER
 70
     1
  9
$ANGBASE
 50
0.0
  9
$ANGDIR
 70
     0
  9
$PDMODE
 70
     0
  9
$PDSIZE
 40
0.0
  9
$PLINEWID
 40
0.0
  9
$COORDS
 70
     1
  9
$SPLFRAME
 70
     0
  9
$SPLINETYPE
 70
     6
  9
$SPLINESEGS
 70
     8
  9
$ATTDIA
 70
     0
  9
$ATTREQ
 70
     1
  9
$HANDLING
 70
     1
  9
$HANDSEED
  5
645
  9
$SURFTAB1
 70
     6
  9
$SURFTAB2
 70
     6
  9
$SURFTYPE
 70
     6
  9
$SURFU
 70
     6
  9
$SURFV
 70
     6
  9
$UCSNAME
  2

  9
$UCSORG
 10
0.0
 20
0.0
 30
0.0
  9
$UCSXDIR
 10
1.0
 20
0.0
 30
0.0
  9
$UCSYDIR
 10
0.0
 20
1.0
 30
0.0
  9
$USERI1
 70
     0
  9
$USERI2
 70
     0
  9
$USERI3
 70
     0
  9
$USERI4
 70
     0
  9
$USERI5
 70
     0
  9
$USERR1
 40
0.0
  9
$USERR2
 40
0.0
  9
$USERR3
 40
0.0
  9
$USERR4
 40
0.0
  9
$USERR5
 40
0.0
  9
$WORLDVIEW
 70
     1
  0
ENDSEC
  0
SECTION
  2
TABLES
  0
TABLE
  2
VPORT
 70
     1
  0
VPORT
  2
*ACTIVE
 70
     0
 10
0.0
 20
0.0
 11
1.0
 21
1.0
 12
10.42990654205607
 22
4.5
 13
0.0
 23
0.0
 14
0.5
 24
0.5
 15
0.5
 25
0.5
 16
0.0
 26
0.0
 36
1.0
 17
0.0
 27
0.0
 37
0.0
 40
9.0
 41
1.972972972850329
 42
50.0
 43
0.0
 44
0.0
 50
0.0
 51
0.0
 71
     0
 72
   100
 73
     1
 74
     3
 75
     0
 76
     0
 77
     0
 78
     0
  0
ENDTAB
  0
TABLE
  2
LTYPE
 70
     1
  0
LTYPE
  2
CONTINUOUS
 70
     0
  3
Solid line
 72
    65
 73
     0
 40
0.0
  0
ENDTAB
  0
TABLE
  2
LAYER
 70
     2
  0
LAYER
  2
0
 70
     0
 62
     7
  6
CONTINUOUS
  0
LAYER
  2
LAYER_1
 70
     0
 62
     7
  6
CONTINUOUS
  0
ENDTAB
  0
TABLE
  2
STYLE
 70
     1
  0
STYLE
  2
STANDARD
 70
     0
 40
0.0
 41
1.0
 50
0.0
 71
     0
 42
0.2
  3
txt
  4

  0
ENDTAB
  0
TABLE
  2
VIEW
 70
     0
  0
ENDTAB
  0
TABLE
  2
UCS
 70
     0
  0
ENDTAB
  0
ENDSEC
  0
SECTION
  2
BLOCKS
  0
ENDSEC
  0
SECTION
  2
ENTITIES
  0
POLYLINE
  5
41
  8
LAYER_1
 66
     1
 10
0.0
 20
0.0
 30
0.0
 70
     1
  0
VERTEX
  5
D2
  8
LAYER_1
 10
-2.843917322834645
 20
-0.228992125984252
 30
0.0
  0
VERTEX
  5
D3
  8
LAYER_1
 10
-2.725807086614173
 20
-0.228992125984252
 30
0.0
  0
VERTEX
  5
D4
  8
LAYER_1
 10
-2.725807086614173
 20
0.2710078740157481
 30
0.0
  0
VERTEX
  5
D5
  8
LAYER_1
 10
-2.843917322834645
 20
0.2710078740157481
 30
0.0
  0
VERTEX
  5
D6
  8
LAYER_1
 10
-2.843917322834645
 20
-0.228992125984252
 30
0.0
  0
SEQEND
  5
D7
  8
LAYER_1
  0
POLYLINE
  5
42
  8
LAYER_1
 66
     1
 10
0.0
 20
0.0
 30
0.0
 70
     1
  0
VERTEX
  5
D8
  8
LAYER_1
 10
-2.843917322834645
 20
1.570220472440945
 30
0.0
  0
VERTEX
  5
D9
  8
LAYER_1
 10
-2.725807086614173
 20
1.570220472440945
 30
0.0
  0
VERTEX
  5
DA
  8
LAYER_1
 10
-2.725807086614173
 20
2.070220472440945
 30
0.0
  0
VERTEX
  5
DB
  8
LAYER_1
 10
-2.843917322834645
 20
2.070220472440945
 30
0.0
  0
VERTEX
  5
DC
  8
LAYER_1
 10
-2.843917322834645
 20
1.570220472440945
 30
0.0
  0
SEQEND
  5
DD
  8
LAYER_1
  0
POLYLINE
  5
43
  8
LAYER_1
 66
     1
 10
0.0
 20
0.0
 30
0.0
 70
     1
  0
VERTEX
  5
DE
  8
LAYER_1
 10
-2.607716535433071
 20
-0.1565157480314961
 30
0.0
  0
VERTEX
  5
DF
  8
LAYER_1
 10
-2.607716535433071
 20
1.997779527559055
 30
0.0
  0
VERTEX
  5
E0
  8
LAYER_1
 10
-2.606523622047244
 20
2.009645669291339
 30
0.0
  0
VERTEX
  5
E1
  8
LAYER_1
 10
-2.603102362204724
 20
2.020700787401575
 30
0.0
  0
VERTEX
  5
E2
  8
LAYER_1
 10
-2.597681102362205
 20
2.030708661417323
 30
0.0
  0
VERTEX
  5
E3
  8
LAYER_1
 10
-2.5905
 20
2.039437007874016
 30
0.0
  0
VERTEX
  5
E4
  8
LAYER_1
 10
-2.581787401574803
 20
2.046645669291339
 30
0.0
  0
VERTEX
  5
E5
  8
LAYER_1
 10
-2.571779527559055
 20
2.052106299212598
 30
0.0
  0
VERTEX
  5
E6
  8
LAYER_1
 10
-2.560712598425197
 20
2.05557874015748
 30
0.0
  0
VERTEX
  5
E7
  8
LAYER_1
 10
-2.548814960629921
 20
2.056830708661417
 30
0.0
  0
VERTEX
  5
E8
  8
LAYER_1
 10
-2.53690157480315
 20
2.058035433070866
 30
0.0
  0
VERTEX
  5
E9
  8
LAYER_1
 10
-2.525795275590551
 20
2.061492125984252
 30
0.0
  0
VERTEX
  5
EA
  8
LAYER_1
 10
-2.515740157480315
 20
2.066952755905512
 30
0.0
  0
VERTEX
  5
EB
  8
LAYER_1
 10
-2.506972440944882
 20
2.074181102362205
 30
0.0
  0
VERTEX
  5
EC
  8
LAYER_1
 10
-2.499736220472441
 20
2.082929133858268
 30
0.0
  0
VERTEX
  5
ED
  8
LAYER_1
 10
-2.494267716535433
 20
2.092956692913386
 30
0.0
  0
VERTEX
  5
EE
  8
LAYER_1
 10
-2.490811023622047
 20
2.104023622047244
 30
0.0
  0
VERTEX
  5
EF
  8
LAYER_1
 10
-2.489606299212598
 20
2.115885826771653
 30
0.0
  0
VERTEX
  5
F0
  8
LAYER_1
 10
-2.489606299212598
 20
2.497775590551181
 30
0.0
  0
VERTEX
  5
F1
  8
LAYER_1
 10
-2.490811023622047
 20
2.50963779527559
 30
0.0
  0
VERTEX
  5
F2
  8
LAYER_1
 10
-2.494267716535433
 20
2.520704724409449
 30
0.0
  0
VERTEX
  5
F3
  8
LAYER_1
 10
-2.499728346456693
 20
2.530736220472441
 30
0.0
  0
VERTEX
  5
F4
  8
LAYER_1
 10
-2.506952755905512
 20
2.539484251968504
 30
0.0
  0
VERTEX
  5
F5
  8
LAYER_1
 10
-2.515700787401575
 20
2.546708661417323
 30
0.0
  0
VERTEX
  5
F6
  8
LAYER_1
 10
-2.525732283464567
 20
2.552169291338583
 30
0.0
  0
VERTEX
  5
F7
  8
LAYER_1
 10
-2.536799212598425
 20
2.555625984251968
 30
0.0
  0
VERTEX
  5
F8
  8
LAYER_1
 10
-2.548661417322835
 20
2.556830708661417
 30
0.0
  0
VERTEX
  5
F9
  8
LAYER_1
 10
-2.607716535433071
 20
2.556830708661417
 30
0.0
  0
VERTEX
  5
FA
  8
LAYER_1
 10
-3.635271653543307
 20
2.556830708661417
 30
0.0
  0
VERTEX
  5
FB
  8
LAYER_1
 10
-3.659
 20
2.55442125984252
 30
0.0
  0
VERTEX
  5
FC
  8
LAYER_1
 10
-3.681133858267716
 20
2.547511811023622
 30
0.0
  0
VERTEX
  5
FD
  8
LAYER_1
 10
-3.701192913385827
 20
2.536586614173229
 30
0.0
  0
VERTEX
  5
FE
  8
LAYER_1
 10
-3.718692913385827
 20
2.522137795275591
 30
0.0
  0
VERTEX
  5
FF
  8
LAYER_1
 10
-3.733145669291339
 20
2.50463779527559
 30
0.0
  0
VERTEX
  5
100
  8
LAYER_1
 10
-3.744066929133858
 20
2.48457874015748
 30
0.0
  0
VERTEX
  5
101
  8
LAYER_1
 10
-3.750976377952756
 20
2.462444881889764
 30
0.0
  0
VERTEX
  5
102
  8
LAYER_1
 10
-3.753385826771654
 20
2.438720472440945
 30
0.0
  0
VERTEX
  5
103
  8
LAYER_1
 10
-3.753385826771654
 20
-0.5974566929133859
 30
0.0
  0
VERTEX
  5
104
  8
LAYER_1
 10
-3.750976377952756
 20
-0.6211811023622047
 30
0.0
  0
VERTEX
  5
105
  8
LAYER_1
 10
-3.744066929133858
 20
-0.6433149606299212
 30
0.0
  0
VERTEX
  5
106
  8
LAYER_1
 10
-3.733145669291339
 20
-0.6633740157480315
 30
0.0
  0
VERTEX
  5
107
  8
LAYER_1
 10
-3.718692913385827
 20
-0.6808740157480315
 30
0.0
  0
VERTEX
  5
108
  8
LAYER_1
 10
-3.701192913385827
 20
-0.6953228346456692
 30
0.0
  0
VERTEX
  5
109
  8
LAYER_1
 10
-3.681133858267716
 20
-0.706248031496063
 30
0.0
  0
VERTEX
  5
10A
  8
LAYER_1
 10
-3.659
 20
-0.7131574803149606
 30
0.0
  0
VERTEX
  5
10B
  8
LAYER_1
 10
-3.635271653543307
 20
-0.7155669291338582
 30
0.0
  0
VERTEX
  5
10C
  8
LAYER_1
 10
-2.607716535433071
 20
-0.7155669291338582
 30
0.0
  0
VERTEX
  5
10D
  8
LAYER_1
 10
-2.548661417322835
 20
-0.7155669291338582
 30
0.0
  0
VERTEX
  5
10E
  8
LAYER_1
 10
-2.536799212598425
 20
-0.7143622047244095
 30
0.0
  0
VERTEX
  5
10F
  8
LAYER_1
 10
-2.525732283464567
 20
-0.7109055118110236
 30
0.0
  0
VERTEX
  5
110
  8
LAYER_1
 10
-2.515700787401575
 20
-0.7054448818897637
 30
0.0
  0
VERTEX
  5
111
  8
LAYER_1
 10
-2.506952755905512
 20
-0.6982204724409449
 30
0.0
  0
VERTEX
  5
112
  8
LAYER_1
 10
-2.499728346456693
 20
-0.6894724409448819
 30
0.0
  0
VERTEX
  5
113
  8
LAYER_1
 10
-2.494267716535433
 20
-0.6794409448818898
 30
0.0
  0
VERTEX
  5
114
  8
LAYER_1
 10
-2.490811023622047
 20
-0.6683740157480315
 30
0.0
  0
VERTEX
  5
115
  8
LAYER_1
 10
-2.489606299212598
 20
-0.656511811023622
 30
0.0
  0
VERTEX
  5
116
  8
LAYER_1
 10
-2.489606299212598
 20
-0.2746220472440945
 30
0.0
  0
VERTEX
  5
117
  8
LAYER_1
 10
-2.490811023622047
 20
-0.262759842519685
 30
0.0
  0
VERTEX
  5
118
  8
LAYER_1
 10
-2.494267716535433
 20
-0.2516929133858268
 30
0.0
  0
VERTEX
  5
119
  8
LAYER_1
 10
-2.499736220472441
 20
-0.2416653543307087
 30
0.0
  0
VERTEX
  5
11A
  8
LAYER_1
 10
-2.506972440944882
 20
-0.2329173228346457
 30
0.0
  0
VERTEX
  5
11B
  8
LAYER_1
 10
-2.515740157480315
 20
-0.2256889763779528
 30
0.0
  0
VERTEX
  5
11C
  8
LAYER_1
 10
-2.525795275590551
 20
-0.2202283464566929
 30
0.0
  0
VERTEX
  5
11D
  8
LAYER_1
 10
-2.53690157480315
 20
-0.2167755905511811
 30
0.0
  0
VERTEX
  5
11E
  8
LAYER_1
 10
-2.548814960629921
 20
-0.2155708661417323
 30
0.0
  0
VERTEX
  5
11F
  8
LAYER_1
 10
-2.560712598425197
 20
-0.2143188976377953
 30
0.0
  0
VERTEX
  5
120
  8
LAYER_1
 10
-2.571779527559055
 20
-0.2108425196850394
 30
0.0
  0
VERTEX
  5
121
  8
LAYER_1
 10
-2.581787401574803
 20
-0.2053818897637795
 30
0.0
  0
VERTEX
  5
122
  8
LAYER_1
 10
-2.5905
 20
-0.1981732283464567
 30
0.0
  0
VERTEX
  5
123
  8
LAYER_1
 10
-2.597681102362205
 20
-0.1894448818897638
 30
0.0
  0
VERTEX
  5
124
  8
LAYER_1
 10
-2.603102362204724
 20
-0.1794370078740158
 30
0.0
  0
VERTEX
  5
125
  8
LAYER_1
 10
-2.606523622047244
 20
-0.1683818897637795
 30
0.0
  0
VERTEX
  5
126
  8
LAYER_1
 10
-2.607716535433071
 20
-0.1565157480314961
 30
0.0
  0
SEQEND
  5
127
  8
LAYER_1
  0
POLYLINE
  5
44
  8
LAYER_1
 66
     1
 10
0.0
 20
0.0
 30
0.0
 70
     1
  0
VERTEX
  5
128
  8
LAYER_1
 10
-3.638011811023622
 20
-0.228992125984252
 30
0.0
  0
VERTEX
  5
129
  8
LAYER_1
 10
-3.519901574803149
 20
-0.228992125984252
 30
0.0
  0
VERTEX
  5
12A
  8
LAYER_1
 10
-3.519901574803149
 20
0.2710078740157481
 30
0.0
  0
VERTEX
  5
12B
  8
LAYER_1
 10
-3.638011811023622
 20
0.2710078740157481
 30
0.0
  0
VERTEX
  5
12C
  8
LAYER_1
 10
-3.638011811023622
 20
-0.228992125984252
 30
0.0
  0
SEQEND
  5
12D
  8
LAYER_1
  0
POLYLINE
  5
45
  8
LAYER_1
 66
     1
 10
0.0
 20
0.0
 30
0.0
 70
     1
  0
VERTEX
  5
12E
  8
LAYER_1
 10
-3.638011811023622
 20
1.570220472440945
 30
0.0
  0
VERTEX
  5
12F
  8
LAYER_1
 10
-3.519901574803149
 20
1.570220472440945
 30
0.0
  0
VERTEX
  5
130
  8
LAYER_1
 10
-3.519901574803149
 20
2.070220472440945
 30
0.0
  0
VERTEX
  5
131
  8
LAYER_1
 10
-3.638011811023622
 20
2.070220472440945
 30
0.0
  0
VERTEX
  5
132
  8
LAYER_1
 10
-3.638011811023622
 20
1.570220472440945
 30
0.0
  0
SEQEND
  5
133
  8
LAYER_1
  0
POLYLINE
  5
46
  8
LAYER_1
 66
     1
 10
0.0
 20
0.0
 30
0.0
 70
     1
  0
VERTEX
  5
134
  8
LAYER_1
 10
-3.114586614173228
 20
-0.3904015748031496
 30
0.0
  0
VERTEX
  5
135
  8
LAYER_1
 10
-3.114586614173228
 20
-0.5085118110236221
 30
0.0
  0
VERTEX
  5
136
  8
LAYER_1
 10
-3.177090551181102
 20
-0.5085118110236221
 30
0.0
  0
VERTEX
  5
137
  8
LAYER_1
 10
-3.177090551181102
 20
-0.5974527559055118
 30
0.0
  0
VERTEX
  5
138
  8
LAYER_1
 10
-3.302090551181102
 20
-0.5974527559055118
 30
0.0
  0
VERTEX
  5
139
  8
LAYER_1
 10
-3.302090551181102
 20
-0.5085118110236221
 30
0.0
  0
VERTEX
  5
13A
  8
LAYER_1
 10
-3.364586614173228
 20
-0.5085118110236221
 30
0.0
  0
VERTEX
  5
13B
  8
LAYER_1
 10
-3.364586614173228
 20
-0.3904015748031496
 30
0.0
  0
VERTEX
  5
13C
  8
LAYER_1
 10
-3.302090551181102
 20
-0.3904015748031496
 30
0.0
  0
VERTEX
  5
13D
  8
LAYER_1
 10
-3.302090551181102
 20
-0.3014527559055118
 30
0.0
  0
VERTEX
  5
13E
  8
LAYER_1
 10
-3.177090551181102
 20
-0.3014527559055118
 30
0.0
  0
VERTEX
  5
13F
  8
LAYER_1
 10
-3.177090551181102
 20
-0.3904015748031496
 30
0.0
  0
VERTEX
  5
140
  8
LAYER_1
 10
-3.114586614173228
 20
-0.3904015748031496
 30
0.0
  0
SEQEND
  5
141
  8
LAYER_1
  0
POLYLINE
  5
47
  8
LAYER_1
 66
     1
 10
0.0
 20
0.0
 30
0.0
 70
     1
  0
VERTEX
  5
142
  8
LAYER_1
 10
-2.858700787401575
 20
2.349755905511811
 30
0.0
  0
VERTEX
  5
143
  8
LAYER_1
 10
-2.858700787401575
 20
2.231645669291339
 30
0.0
  0
VERTEX
  5
144
  8
LAYER_1
 10
-2.921204724409449
 20
2.231645669291339
 30
0.0
  0
VERTEX
  5
145
  8
LAYER_1
 10
-2.921204724409449
 20
2.142704724409449
 30
0.0
  0
VERTEX
  5
146
  8
LAYER_1
 10
-3.046204724409449
 20
2.142704724409449
 30
0.0
  0
VERTEX
  5
147
  8
LAYER_1
 10
-3.046204724409449
 20
2.231645669291339
 30
0.0
  0
VERTEX
  5
148
  8
LAYER_1
 10
-3.108700787401575
 20
2.231645669291339
 30
0.0
  0
VERTEX
  5
149
  8
LAYER_1
 10
-3.108700787401575
 20
2.349755905511811
 30
0.0
  0
VERTEX
  5
14A
  8
LAYER_1
 10
-3.046204724409449
 20
2.349755905511811
 30
0.0
  0
VERTEX
  5
14B
  8
LAYER_1
 10
-3.046204724409449
 20
2.438704724409449
 30
0.0
  0
VERTEX
  5
14C
  8
LAYER_1
 10
-2.921204724409449
 20
2.438704724409449
 30
0.0
  0
VERTEX
  5
14D
  8
LAYER_1
 10
-2.921204724409449
 20
2.349755905511811
 30
0.0
  0
VERTEX
  5
14E
  8
LAYER_1
 10
-2.858700787401575
 20
2.349755905511811
 30
0.0
  0
SEQEND
  5
14F
  8
LAYER_1
  0
POLYLINE
  5
48
  8
LAYER_1
 66
     1
 10
0.0
 20
0.0
 30
0.0
 70
     1
  0
VERTEX
  5
150
  8
LAYER_1
 10
-3.463984251968504
 20
1.001322834645669
 30
0.0
  0
VERTEX
  5
151
  8
LAYER_1
 10
-3.188393700787401
 20
1.001322834645669
 30
0.0
  0
VERTEX
  5
152
  8
LAYER_1
 10
-3.180484251968504
 20
1.002125984251969
 30
0.0
  0
VERTEX
  5
153
  8
LAYER_1
 10
-3.173106299212598
 20
1.004429133858268
 30
0.0
  0
VERTEX
  5
154
  8
LAYER_1
 10
-3.16642125984252
 20
1.008070866141732
 30
0.0
  0
VERTEX
  5
155
  8
LAYER_1
 10
-3.160590551181103
 20
1.012889763779528
 30
0.0
  0
VERTEX
  5
156
  8
LAYER_1
 10
-3.155771653543307
 20
1.018720472440945
 30
0.0
  0
VERTEX
  5
157
  8
LAYER_1
 10
-3.152129921259843
 20
1.025409448818898
 30
0.0
  0
VERTEX
  5
158
  8
LAYER_1
 10
-3.149826771653543
 20
1.032787401574803
 30
0.0
  0
VERTEX
  5
159
  8
LAYER_1
 10
-3.149023622047244
 20
1.040696850393701
 30
0.0
  0
VERTEX
  5
15A
  8
LAYER_1
 10
-3.149023622047244
 20
1.572188976377953
 30
0.0
  0
VERTEX
  5
15B
  8
LAYER_1
 10
-3.149826771653543
 20
1.58009842519685
 30
0.0
  0
VERTEX
  5
15C
  8
LAYER_1
 10
-3.152129921259843
 20
1.587476377952756
 30
0.0
  0
VERTEX
  5
15D
  8
LAYER_1
 10
-3.155771653543307
 20
1.594161417322835
 30
0.0
  0
VERTEX
  5
15E
  8
LAYER_1
 10
-3.160590551181103
 20
1.599996062992126
 30
0.0
  0
VERTEX
  5
15F
  8
LAYER_1
 10
-3.16642125984252
 20
1.604811023622047
 30
0.0
  0
VERTEX
  5
160
  8
LAYER_1
 10
-3.173106299212598
 20
1.608452755905512
 30
0.0
  0
VERTEX
  5
161
  8
LAYER_1
 10
-3.180484251968504
 20
1.610755905511811
 30
0.0
  0
VERTEX
  5
162
  8
LAYER_1
 10
-3.188393700787401
 20
1.61155905511811
 30
0.0
  0
VERTEX
  5
163
  8
LAYER_1
 10
-3.463984251968504
 20
1.61155905511811
 30
0.0
  0
VERTEX
  5
164
  8
LAYER_1
 10
-3.471893700787402
 20
1.610755905511811
 30
0.0
  0
VERTEX
  5
165
  8
LAYER_1
 10
-3.479271653543307
 20
1.608452755905512
 30
0.0
  0
VERTEX
  5
166
  8
LAYER_1
 10
-3.485956692913386
 20
1.604811023622047
 30
0.0
  0
VERTEX
  5
167
  8
LAYER_1
 10
-3.491791338582677
 20
1.599996062992126
 30
0.0
  0
VERTEX
  5
168
  8
LAYER_1
 10
-3.496606299212599
 20
1.594161417322835
 30
0.0
  0
VERTEX
  5
169
  8
LAYER_1
 10
-3.500248031496063
 20
1.587476377952756
 30
0.0
  0
VERTEX
  5
16A
  8
LAYER_1
 10
-3.502551181102362
 20
1.58009842519685
 30
0.0
  0
VERTEX
  5
16B
  8
LAYER_1
 10
-3.503354330708661
 20
1.572188976377953
 30
0.0
  0
VERTEX
  5
16C
  8
LAYER_1
 10
-3.503354330708661
 20
1.040696850393701
 30
0.0
  0
VERTEX
  5
16D
  8
LAYER_1
 10
-3.502551181102362
 20
1.032787401574803
 30
0.0
  0
VERTEX
  5
16E
  8
LAYER_1
 10
-3.500248031496063
 20
1.025409448818898
 30
0.0
  0
VERTEX
  5
16F
  8
LAYER_1
 10
-3.496606299212599
 20
1.018720472440945
 30
0.0
  0
VERTEX
  5
170
  8
LAYER_1
 10
-3.491791338582677
 20
1.012889763779528
 30
0.0
  0
VERTEX
  5
171
  8
LAYER_1
 10
-3.485956692913386
 20
1.008070866141732
 30
0.0
  0
VERTEX
  5
172
  8
LAYER_1
 10
-3.479271653543307
 20
1.004429133858268
 30
0.0
  0
VERTEX
  5
173
  8
LAYER_1
 10
-3.471893700787402
 20
1.002125984251969
 30
0.0
  0
VERTEX
  5
174
  8
LAYER_1
 10
-3.463984251968504
 20
1.001322834645669
 30
0.0
  0
SEQEND
  5
175
  8
LAYER_1
  0
POLYLINE
  5
49
  8
LAYER_1
 66
     1
 10
0.0
 20
0.0
 30
0.0
 70
     1
  0
VERTEX
  5
176
  8
LAYER_1
 10
-3.327374015748032
 20
1.794629921259842
 30
0.0
  0
VERTEX
  5
177
  8
LAYER_1
 10
-3.130515748031496
 20
1.794629921259842
 30
0.0
  0
VERTEX
  5
178
  8
LAYER_1
 10
-3.122610236220472
 20
1.795433070866142
 30
0.0
  0
VERTEX
  5
179
  8
LAYER_1
 10
-3.115232283464567
 20
1.797736220472441
 30
0.0
  0
VERTEX
  5
17A
  8
LAYER_1
 10
-3.108547244094488
 20
1.801377952755906
 30
0.0
  0
VERTEX
  5
17B
  8
LAYER_1
 10
-3.102712598425197
 20
1.806196850393701
 30
0.0
  0
VERTEX
  5
17C
  8
LAYER_1
 10
-3.097897637795275
 20
1.812027559055118
 30
0.0
  0
VERTEX
  5
17D
  8
LAYER_1
 10
-3.094255905511811
 20
1.818712598425197
 30
0.0
  0
VERTEX
  5
17E
  8
LAYER_1
 10
-3.091952755905512
 20
1.826090551181102
 30
0.0
  0
VERTEX
  5
17F
  8
LAYER_1
 10
-3.091149606299213
 20
1.834
 30
0.0
  0
VERTEX
  5
180
  8
LAYER_1
 10
-3.091149606299213
 20
2.109590551181102
 30
0.0
  0
VERTEX
  5
181
  8
LAYER_1
 10
-3.091952755905512
 20
2.1175
 30
0.0
  0
VERTEX
  5
182
  8
LAYER_1
 10
-3.094255905511811
 20
2.124877952755905
 30
0.0
  0
VERTEX
  5
183
  8
LAYER_1
 10
-3.097897637795275
 20
2.131562992125984
 30
0.0
  0
VERTEX
  5
184
  8
LAYER_1
 10
-3.102712598425197
 20
2.137397637795276
 30
0.0
  0
VERTEX
  5
185
  8
LAYER_1
 10
-3.108547244094488
 20
2.142212598425197
 30
0.0
  0
VERTEX
  5
186
  8
LAYER_1
 10
-3.115232283464567
 20
2.145854330708661
 30
0.0
  0
VERTEX
  5
187
  8
LAYER_1
 10
-3.122610236220472
 20
2.148157480314961
 30
0.0
  0
VERTEX
  5
188
  8
LAYER_1
 10
-3.130515748031496
 20
2.14896062992126
 30
0.0
  0
VERTEX
  5
189
  8
LAYER_1
 10
-3.327374015748032
 20
2.14896062992126
 30
0.0
  0
VERTEX
  5
18A
  8
LAYER_1
 10
-3.335279527559055
 20
2.148157480314961
 30
0.0
  0
VERTEX
  5
18B
  8
LAYER_1
 10
-3.342657480314961
 20
2.145854330708661
 30
0.0
  0
VERTEX
  5
18C
  8
LAYER_1
 10
-3.349342519685039
 20
2.142212598425197
 30
0.0
  0
VERTEX
  5
18D
  8
LAYER_1
 10
-3.355177165354331
 20
2.137397637795276
 30
0.0
  0
VERTEX
  5
18E
  8
LAYER_1
 10
-3.359992125984252
 20
2.131562992125984
 30
0.0
  0
VERTEX
  5
18F
  8
LAYER_1
 10
-3.363633858267717
 20
2.124877952755905
 30
0.0
  0
VERTEX
  5
190
  8
LAYER_1
 10
-3.365937007874016
 20
2.1175
 30
0.0
  0
VERTEX
  5
191
  8
LAYER_1
 10
-3.366740157480315
 20
2.109590551181102
 30
0.0
  0
VERTEX
  5
192
  8
LAYER_1
 10
-3.366740157480315
 20
1.834
 30
0.0
  0
VERTEX
  5
193
  8
LAYER_1
 10
-3.365937007874016
 20
1.826090551181102
 30
0.0
  0
VERTEX
  5
194
  8
LAYER_1
 10
-3.363633858267717
 20
1.818712598425197
 30
0.0
  0
VERTEX
  5
195
  8
LAYER_1
 10
-3.359992125984252
 20
1.812027559055118
 30
0.0
  0
VERTEX
  5
196
  8
LAYER_1
 10
-3.355177165354331
 20
1.806196850393701
 30
0.0
  0
VERTEX
  5
197
  8
LAYER_1
 10
-3.349342519685039
 20
1.801377952755906
 30
0.0
  0
VERTEX
  5
198
  8
LAYER_1
 10
-3.342657480314961
 20
1.797736220472441
 30
0.0
  0
VERTEX
  5
199
  8
LAYER_1
 10
-3.335279527559055
 20
1.795433070866142
 30
0.0
  0
VERTEX
  5
19A
  8
LAYER_1
 10
-3.327374015748032
 20
1.794629921259842
 30
0.0
  0
SEQEND
  5
19B
  8
LAYER_1
  0
POLYLINE
  5
4A
  8
LAYER_1
 66
     1
 10
0.0
 20
0.0
 30
0.0
 70
     1
  0
VERTEX
  5
19C
  8
LAYER_1
 10
-2.843917322834645
 20
4.936173228346457
 30
0.0
  0
VERTEX
  5
19D
  8
LAYER_1
 10
-2.725807086614173
 20
4.936173228346457
 30
0.0
  0
VERTEX
  5
19E
  8
LAYER_1
 10
-2.725807086614173
 20
5.436173228346457
 30
0.0
  0
VERTEX
  5
19F
  8
LAYER_1
 10
-2.843917322834645
 20
5.436173228346457
 30
0.0
  0
VERTEX
  5
1A0
  8
LAYER_1
 10
-2.843917322834645
 20
4.936173228346457
 30
0.0
  0
SEQEND
  5
1A1
  8
LAYER_1
  0
POLYLINE
  5
4B
  8
LAYER_1
 66
     1
 10
0.0
 20
0.0
 30
0.0
 70
     1
  0
VERTEX
  5
1A2
  8
LAYER_1
 10
-2.843917322834645
 20
3.13696062992126
 30
0.0
  0
VERTEX
  5
1A3
  8
LAYER_1
 10
-2.725807086614173
 20
3.13696062992126
 30
0.0
  0
VERTEX
  5
1A4
  8
LAYER_1
 10
-2.725807086614173
 20
3.63696062992126
 30
0.0
  0
VERTEX
  5
1A5
  8
LAYER_1
 10
-2.843917322834645
 20
3.63696062992126
 30
0.0
  0
VERTEX
  5
1A6
  8
LAYER_1
 10
-2.843917322834645
 20
3.13696062992126
 30
0.0
  0
SEQEND
  5
1A7
  8
LAYER_1
  0
POLYLINE
  5
4C
  8
LAYER_1
 66
     1
 10
0.0
 20
0.0
 30
0.0
 70
     1
  0
VERTEX
  5
1A8
  8
LAYER_1
 10
-2.607716535433071
 20
5.3636968503937
 30
0.0
  0
VERTEX
  5
1A9
  8
LAYER_1
 10
-2.607716535433071
 20
3.20940157480315
 30
0.0
  0
VERTEX
  5
1AA
  8
LAYER_1
 10
-2.606523622047244
 20
3.197535433070866
 30
0.0
  0
VERTEX
  5
1AB
  8
LAYER_1
 10
-2.603102362204724
 20
3.18648031496063
 30
0.0
  0
VERTEX
  5
1AC
  8
LAYER_1
 10
-2.597681102362205
 20
3.176472440944882
 30
0.0
  0
VERTEX
  5
1AD
  8
LAYER_1
 10
-2.5905
 20
3.167748031496063
 30
0.0
  0
VERTEX
  5
1AE
  8
LAYER_1
 10
-2.581787401574803
 20
3.160535433070866
 30
0.0
  0
VERTEX
  5
1AF
  8
LAYER_1
 10
-2.571779527559055
 20
3.155074803149606
 30
0.0
  0
VERTEX
  5
1B0
  8
LAYER_1
 10
-2.560712598425197
 20
3.151602362204724
 30
0.0
  0
VERTEX
  5
1B1
  8
LAYER_1
 10
-2.548814960629921
 20
3.150350393700788
 30
0.0
  0
VERTEX
  5
1B2
  8
LAYER_1
 10
-2.53690157480315
 20
3.149145669291339
 30
0.0
  0
VERTEX
  5
1B3
  8
LAYER_1
 10
-2.525795275590551
 20
3.145688976377953
 30
0.0
  0
VERTEX
  5
1B4
  8
LAYER_1
 10
-2.515740157480315
 20
3.140228346456693
 30
0.0
  0
VERTEX
  5
1B5
  8
LAYER_1
 10
-2.506972440944882
 20
3.133
 30
0.0
  0
VERTEX
  5
1B6
  8
LAYER_1
 10
-2.499736220472441
 20
3.124251968503937
 30
0.0
  0
VERTEX
  5
1B7
  8
LAYER_1
 10
-2.494267716535433
 20
3.114224409448819
 30
0.0
  0
VERTEX
  5
1B8
  8
LAYER_1
 10
-2.490811023622047
 20
3.103157480314961
 30
0.0
  0
VERTEX
  5
1B9
  8
LAYER_1
 10
-2.489606299212598
 20
3.091295275590551
 30
0.0
  0
VERTEX
  5
1BA
  8
LAYER_1
 10
-2.489606299212598
 20
2.709405511811024
 30
0.0
  0
VERTEX
  5
1BB
  8
LAYER_1
 10
-2.490811023622047
 20
2.697543307086614
 30
0.0
  0
VERTEX
  5
1BC
  8
LAYER_1
 10
-2.494267716535433
 20
2.686476377952756
 30
0.0
  0
VERTEX
  5
1BD
  8
LAYER_1
 10
-2.499728346456693
 20
2.676444881889764
 30
0.0
  0
VERTEX
  5
1BE
  8
LAYER_1
 10
-2.506952755905512
 20
2.667696850393701
 30
0.0
  0
VERTEX
  5
1BF
  8
LAYER_1
 10
-2.515700787401575
 20
2.660472440944882
 30
0.0
  0
VERTEX
  5
1C0
  8
LAYER_1
 10
-2.525732283464567
 20
2.655011811023622
 30
0.0
  0
VERTEX
  5
1C1
  8
LAYER_1
 10
-2.536799212598425
 20
2.651555118110236
 30
0.0
  0
VERTEX
  5
1C2
  8
LAYER_1
 10
-2.548661417322835
 20
2.650350393700788
 30
0.0
  0
VERTEX
  5
1C3
  8
LAYER_1
 10
-2.607716535433071
 20
2.650350393700788
 30
0.0
  0
VERTEX
  5
1C4
  8
LAYER_1
 10
-3.635271653543307
 20
2.650350393700788
 30
0.0
  0
VERTEX
  5
1C5
  8
LAYER_1
 10
-3.659
 20
2.652759842519685
 30
0.0
  0
VERTEX
  5
1C6
  8
LAYER_1
 10
-3.681133858267716
 20
2.659669291338583
 30
0.0
  0
VERTEX
  5
1C7
  8
LAYER_1
 10
-3.701192913385827
 20
2.670594488188976
 30
0.0
  0
VERTEX
  5
1C8
  8
LAYER_1
 10
-3.718692913385827
 20
2.685047244094488
 30
0.0
  0
VERTEX
  5
1C9
  8
LAYER_1
 10
-3.733145669291339
 20
2.702543307086614
 30
0.0
  0
VERTEX
  5
1CA
  8
LAYER_1
 10
-3.744066929133858
 20
2.722602362204725
 30
0.0
  0
VERTEX
  5
1CB
  8
LAYER_1
 10
-3.750976377952756
 20
2.744736220472441
 30
0.0
  0
VERTEX
  5
1CC
  8
LAYER_1
 10
-3.753385826771654
 20
2.76846062992126
 30
0.0
  0
VERTEX
  5
1CD
  8
LAYER_1
 10
-3.753385826771654
 20
5.804637795275591
 30
0.0
  0
VERTEX
  5
1CE
  8
LAYER_1
 10
-3.750976377952756
 20
5.828362204724409
 30
0.0
  0
VERTEX
  5
1CF
  8
LAYER_1
 10
-3.744066929133858
 20
5.850496062992126
 30
0.0
  0
VERTEX
  5
1D0
  8
LAYER_1
 10
-3.733145669291339
 20
5.870555118110236
 30
0.0
  0
VERTEX
  5
1D1
  8
LAYER_1
 10
-3.718692913385827
 20
5.888055118110236
 30
0.0
  0
VERTEX
  5
1D2
  8
LAYER_1
 10
-3.701192913385827
 20
5.902503937007874
 30
0.0
  0
VERTEX
  5
1D3
  8
LAYER_1
 10
-3.681133858267716
 20
5.913429133858267
 30
0.0
  0
VERTEX
  5
1D4
  8
LAYER_1
 10
-3.659
 20
5.920338582677165
 30
0.0
  0
VERTEX
  5
1D5
  8
LAYER_1
 10
-3.635271653543307
 20
5.922748031496063
 30
0.0
  0
VERTEX
  5
1D6
  8
LAYER_1
 10
-2.607716535433071
 20
5.922748031496063
 30
0.0
  0
VERTEX
  5
1D7
  8
LAYER_1
 10
-2.548661417322835
 20
5.922748031496063
 30
0.0
  0
VERTEX
  5
1D8
  8
LAYER_1
 10
-2.536799212598425
 20
5.921543307086615
 30
0.0
  0
VERTEX
  5
1D9
  8
LAYER_1
 10
-2.525732283464567
 20
5.918086614173228
 30
0.0
  0
VERTEX
  5
1DA
  8
LAYER_1
 10
-2.515700787401575
 20
5.912625984251968
 30
0.0
  0
VERTEX
  5
1DB
  8
LAYER_1
 10
-2.506952755905512
 20
5.905401574803149
 30
0.0
  0
VERTEX
  5
1DC
  8
LAYER_1
 10
-2.499728346456693
 20
5.896653543307087
 30
0.0
  0
VERTEX
  5
1DD
  8
LAYER_1
 10
-2.494267716535433
 20
5.886622047244095
 30
0.0
  0
VERTEX
  5
1DE
  8
LAYER_1
 10
-2.490811023622047
 20
5.875555118110237
 30
0.0
  0
VERTEX
  5
1DF
  8
LAYER_1
 10
-2.489606299212598
 20
5.863692913385827
 30
0.0
  0
VERTEX
  5
1E0
  8
LAYER_1
 10
-2.489606299212598
 20
5.481803149606299
 30
0.0
  0
VERTEX
  5
1E1
  8
LAYER_1
 10
-2.490811023622047
 20
5.469940944881889
 30
0.0
  0
VERTEX
  5
1E2
  8
LAYER_1
 10
-2.494267716535433
 20
5.458874015748031
 30
0.0
  0
VERTEX
  5
1E3
  8
LAYER_1
 10
-2.499736220472441
 20
5.448846456692913
 30
0.0
  0
VERTEX
  5
1E4
  8
LAYER_1
 10
-2.506972440944882
 20
5.44009842519685
 30
0.0
  0
VERTEX
  5
1E5
  8
LAYER_1
 10
-2.515740157480315
 20
5.432870078740158
 30
0.0
  0
VERTEX
  5
1E6
  8
LAYER_1
 10
-2.525795275590551
 20
5.427409448818898
 30
0.0
  0
VERTEX
  5
1E7
  8
LAYER_1
 10
-2.53690157480315
 20
5.423956692913386
 30
0.0
  0
VERTEX
  5
1E8
  8
LAYER_1
 10
-2.548814960629921
 20
5.422751968503937
 30
0.0
  0
VERTEX
  5
1E9
  8
LAYER_1
 10
-2.560712598425197
 20
5.4215
 30
0.0
  0
VERTEX
  5
1EA
  8
LAYER_1
 10
-2.571779527559055
 20
5.418023622047244
 30
0.0
  0
VERTEX
  5
1EB
  8
LAYER_1
 10
-2.581787401574803
 20
5.412562992125984
 30
0.0
  0
VERTEX
  5
1EC
  8
LAYER_1
 10
-2.5905
 20
5.405354330708661
 30
0.0
  0
VERTEX
  5
1ED
  8
LAYER_1
 10
-2.597681102362205
 20
5.396625984251968
 30
0.0
  0
VERTEX
  5
1EE
  8
LAYER_1
 10
-2.603102362204724
 20
5.386618110236221
 30
0.0
  0
VERTEX
  5
1EF
  8
LAYER_1
 10
-2.606523622047244
 20
5.375562992125984
 30
0.0
  0
VERTEX
  5
1F0
  8
LAYER_1
 10
-2.607716535433071
 20
5.3636968503937
 30
0.0
  0
SEQEND
  5
1F1
  8
LAYER_1
  0
POLYLINE
  5
4D
  8
LAYER_1
 66
     1
 10
0.0
 20
0.0
 30
0.0
 70
     1
  0
VERTEX
  5
1F2
  8
LAYER_1
 10
-3.638011811023622
 20
4.936173228346457
 30
0.0
  0
VERTEX
  5
1F3
  8
LAYER_1
 10
-3.519901574803149
 20
4.936173228346457
 30
0.0
  0
VERTEX
  5
1F4
  8
LAYER_1
 10
-3.519901574803149
 20
5.436173228346457
 30
0.0
  0
VERTEX
  5
1F5
  8
LAYER_1
 10
-3.638011811023622
 20
5.436173228346457
 30
0.0
  0
VERTEX
  5
1F6
  8
LAYER_1
 10
-3.638011811023622
 20
4.936173228346457
 30
0.0
  0
SEQEND
  5
1F7
  8
LAYER_1
  0
POLYLINE
  5
4E
  8
LAYER_1
 66
     1
 10
0.0
 20
0.0
 30
0.0
 70
     1
  0
VERTEX
  5
1F8
  8
LAYER_1
 10
-3.638011811023622
 20
3.13696062992126
 30
0.0
  0
VERTEX
  5
1F9
  8
LAYER_1
 10
-3.519901574803149
 20
3.13696062992126
 30
0.0
  0
VERTEX
  5
1FA
  8
LAYER_1
 10
-3.519901574803149
 20
3.63696062992126
 30
0.0
  0
VERTEX
  5
1FB
  8
LAYER_1
 10
-3.638011811023622
 20
3.63696062992126
 30
0.0
  0
VERTEX
  5
1FC
  8
LAYER_1
 10
-3.638011811023622
 20
3.13696062992126
 30
0.0
  0
SEQEND
  5
1FD
  8
LAYER_1
  0
POLYLINE
  5
4F
  8
LAYER_1
 66
     1
 10
0.0
 20
0.0
 30
0.0
 70
     1
  0
VERTEX
  5
1FE
  8
LAYER_1
 10
-3.114586614173228
 20
5.597582677165354
 30
0.0
  0
VERTEX
  5
1FF
  8
LAYER_1
 10
-3.114586614173228
 20
5.715692913385827
 30
0.0
  0
VERTEX
  5
200
  8
LAYER_1
 10
-3.177090551181102
 20
5.715692913385827
 30
0.0
  0
VERTEX
  5
201
  8
LAYER_1
 10
-3.177090551181102
 20
5.804633858267716
 30
0.0
  0
VERTEX
  5
202
  8
LAYER_1
 10
-3.302090551181102
 20
5.804633858267716
 30
0.0
  0
VERTEX
  5
203
  8
LAYER_1
 10
-3.302090551181102
 20
5.715692913385827
 30
0.0
  0
VERTEX
  5
204
  8
LAYER_1
 10
-3.364586614173228
 20
5.715692913385827
 30
0.0
  0
VERTEX
  5
205
  8
LAYER_1
 10
-3.364586614173228
 20
5.597582677165354
 30
0.0
  0
VERTEX
  5
206
  8
LAYER_1
 10
-3.302090551181102
 20
5.597582677165354
 30
0.0
  0
VERTEX
  5
207
  8
LAYER_1
 10
-3.302090551181102
 20
5.508633858267716
 30
0.0
  0
VERTEX
  5
208
  8
LAYER_1
 10
-3.177090551181102
 20
5.508633858267716
 30
0.0
  0
VERTEX
  5
209
  8
LAYER_1
 10
-3.177090551181102
 20
5.597582677165354
 30
0.0
  0
VERTEX
  5
20A
  8
LAYER_1
 10
-3.114586614173228
 20
5.597582677165354
 30
0.0
  0
SEQEND
  5
20B
  8
LAYER_1
  0
POLYLINE
  5
50
  8
LAYER_1
 66
     1
 10
0.0
 20
0.0
 30
0.0
 70
     1
  0
VERTEX
  5
20C
  8
LAYER_1
 10
-3.114586614173228
 20
2.857425196850394
 30
0.0
  0
VERTEX
  5
20D
  8
LAYER_1
 10
-3.114586614173228
 20
2.975535433070866
 30
0.0
  0
VERTEX
  5
20E
  8
LAYER_1
 10
-3.177090551181102
 20
2.975535433070866
 30
0.0
  0
VERTEX
  5
20F
  8
LAYER_1
 10
-3.177090551181102
 20
3.064476377952756
 30
0.0
  0
VERTEX
  5
210
  8
LAYER_1
 10
-3.302090551181102
 20
3.064476377952756
 30
0.0
  0
VERTEX
  5
211
  8
LAYER_1
 10
-3.302090551181102
 20
2.975535433070866
 30
0.0
  0
VERTEX
  5
212
  8
LAYER_1
 10
-3.364586614173228
 20
2.975535433070866
 30
0.0
  0
VERTEX
  5
213
  8
LAYER_1
 10
-3.364586614173228
 20
2.857425196850394
 30
0.0
  0
VERTEX
  5
214
  8
LAYER_1
 10
-3.302090551181102
 20
2.857425196850394
 30
0.0
  0
VERTEX
  5
215
  8
LAYER_1
 10
-3.302090551181102
 20
2.768476377952756
 30
0.0
  0
VERTEX
  5
216
  8
LAYER_1
 10
-3.177090551181102
 20
2.768476377952756
 30
0.0
  0
VERTEX
  5
217
  8
LAYER_1
 10
-3.177090551181102
 20
2.857425196850394
 30
0.0
  0
VERTEX
  5
218
  8
LAYER_1
 10
-3.114586614173228
 20
2.857425196850394
 30
0.0
  0
SEQEND
  5
219
  8
LAYER_1
  0
POLYLINE
  5
51
  8
LAYER_1
 66
     1
 10
0.0
 20
0.0
 30
0.0
 70
     1
  0
VERTEX
  5
21A
  8
LAYER_1
 10
-3.433736220472441
 20
3.397787401574803
 30
0.0
  0
VERTEX
  5
21B
  8
LAYER_1
 10
-3.433736220472441
 20
4.031645669291339
 30
0.0
  0
VERTEX
  5
21C
  8
LAYER_1
 10
-3.260208661417323
 20
4.031645669291339
 30
0.0
  0
VERTEX
  5
21D
  8
LAYER_1
 10
-3.177830708661417
 20
3.949267716535433
 30
0.0
  0
VERTEX
  5
21E
  8
LAYER_1
 10
-3.177830708661417
 20
3.481141732283465
 30
0.0
  0
VERTEX
  5
21F
  8
LAYER_1
 10
-3.261185039370079
 20
3.397787401574803
 30
0.0
  0
VERTEX
  5
220
  8
LAYER_1
 10
-3.433736220472441
 20
3.397787401574803
 30
0.0
  0
SEQEND
  5
221
  8
LAYER_1
  0
POLYLINE
  5
52
  8
LAYER_1
 66
     1
 10
0.0
 20
0.0
 30
0.0
 70
     1
  0
VERTEX
  5
222
  8
LAYER_1
 10
-3.15101968503937
 20
4.532629921259843
 30
0.0
  0
VERTEX
  5
223
  8
LAYER_1
 10
-2.954161417322835
 20
4.532629921259843
 30
0.0
  0
VERTEX
  5
224
  8
LAYER_1
 10
-2.946255905511811
 20
4.531826771653543
 30
0.0
  0
VERTEX
  5
225
  8
LAYER_1
 10
-2.938877952755905
 20
4.529523622047244
 30
0.0
  0
VERTEX
  5
226
  8
LAYER_1
 10
-2.932192913385827
 20
4.525881889763779
 30
0.0
  0
VERTEX
  5
227
  8
LAYER_1
 10
-2.926358267716536
 20
4.521066929133858
 30
0.0
  0
VERTEX
  5
228
  8
LAYER_1
 10
-2.921543307086614
 20
4.515232283464567
 30
0.0
  0
VERTEX
  5
229
  8
LAYER_1
 10
-2.91790157480315
 20
4.508547244094488
 30
0.0
  0
VERTEX
  5
22A
  8
LAYER_1
 10
-2.91559842519685
 20
4.501169291338583
 30
0.0
  0
VERTEX
  5
22B
  8
LAYER_1
 10
-2.914795275590551
 20
4.493259842519685
 30
0.0
  0
VERTEX
  5
22C
  8
LAYER_1
 10
-2.914795275590551
 20
4.217669291338582
 30
0.0
  0
VERTEX
  5
22D
  8
LAYER_1
 10
-2.91559842519685
 20
4.209759842519685
 30
0.0
  0
VERTEX
  5
22E
  8
LAYER_1
 10
-2.91790157480315
 20
4.20238188976378
 30
0.0
  0
VERTEX
  5
22F
  8
LAYER_1
 10
-2.921543307086614
 20
4.195696850393701
 30
0.0
  0
VERTEX
  5
230
  8
LAYER_1
 10
-2.926358267716536
 20
4.189866141732283
 30
0.0
  0
VERTEX
  5
231
  8
LAYER_1
 10
-2.932192913385827
 20
4.185047244094489
 30
0.0
  0
VERTEX
  5
232
  8
LAYER_1
 10
-2.938877952755905
 20
4.181405511811024
 30
0.0
  0
VERTEX
  5
233
  8
LAYER_1
 10
-2.946255905511811
 20
4.179102362204724
 30
0.0
  0
VERTEX
  5
234
  8
LAYER_1
 10
-2.954161417322835
 20
4.178299212598425
 30
0.0
  0
VERTEX
  5
235
  8
LAYER_1
 10
-3.15101968503937
 20
4.178299212598425
 30
0.0
  0
VERTEX
  5
236
  8
LAYER_1
 10
-3.158925196850394
 20
4.179102362204724
 30
0.0
  0
VERTEX
  5
237
  8
LAYER_1
 10
-3.166303149606299
 20
4.181405511811024
 30
0.0
  0
VERTEX
  5
238
  8
LAYER_1
 10
-3.172988188976378
 20
4.185047244094489
 30
0.0
  0
VERTEX
  5
239
  8
LAYER_1
 10
-3.178822834645669
 20
4.189866141732283
 30
0.0
  0
VERTEX
  5
23A
  8
LAYER_1
 10
-3.183637795275591
 20
4.195696850393701
 30
0.0
  0
VERTEX
  5
23B
  8
LAYER_1
 10
-3.187279527559055
 20
4.20238188976378
 30
0.0
  0
VERTEX
  5
23C
  8
LAYER_1
 10
-3.189582677165354
 20
4.209759842519685
 30
0.0
  0
VERTEX
  5
23D
  8
LAYER_1
 10
-3.190385826771653
 20
4.217669291338582
 30
0.0
  0
VERTEX
  5
23E
  8
LAYER_1
 10
-3.190385826771653
 20
4.493259842519685
 30
0.0
  0
VERTEX
  5
23F
  8
LAYER_1
 10
-3.189582677165354
 20
4.501169291338583
 30
0.0
  0
VERTEX
  5
240
  8
LAYER_1
 10
-3.187279527559055
 20
4.508547244094488
 30
0.0
  0
VERTEX
  5
241
  8
LAYER_1
 10
-3.183637795275591
 20
4.515232283464567
 30
0.0
  0
VERTEX
  5
242
  8
LAYER_1
 10
-3.178822834645669
 20
4.521066929133858
 30
0.0
  0
VERTEX
  5
243
  8
LAYER_1
 10
-3.172988188976378
 20
4.525881889763779
 30
0.0
  0
VERTEX
  5
244
  8
LAYER_1
 10
-3.166303149606299
 20
4.529523622047244
 30
0.0
  0
VERTEX
  5
245
  8
LAYER_1
 10
-3.158925196850394
 20
4.531826771653543
 30
0.0
  0
VERTEX
  5
246
  8
LAYER_1
 10
-3.15101968503937
 20
4.532629921259843
 30
0.0
  0
SEQEND
  5
247
  8
LAYER_1
  0
POLYLINE
  5
53
  8
LAYER_1
 66
     1
 10
0.0
 20
0.0
 30
0.0
 70
     1
  0
VERTEX
  5
248
  8
LAYER_1
 10
-3.514417322834646
 20
4.644834645669292
 30
0.0
  0
VERTEX
  5
249
  8
LAYER_1
 10
-3.056543307086614
 20
4.644834645669292
 30
0.0
  0
VERTEX
  5
24A
  8
LAYER_1
 10
-3.056543307086614
 20
5.213732283464567
 30
0.0
  0
VERTEX
  5
24B
  8
LAYER_1
 10
-3.514417322834646
 20
5.213732283464567
 30
0.0
  0
VERTEX
  5
24C
  8
LAYER_1
 10
-3.514417322834646
 20
4.644834645669292
 30
0.0
  0
SEQEND
  5
24D
  8
LAYER_1
  0
POLYLINE
  5
54
  8
LAYER_1
 66
     1
 10
0.0
 20
0.0
 30
0.0
 70
     1
  0
VERTEX
  5
24E
  8
LAYER_1
 10
-3.042748031496063
 20
3.36707874015748
 30
0.0
  0
VERTEX
  5
24F
  8
LAYER_1
 10
-3.074431007020336
 20
3.363958239435564
 30
0.0
  0
VERTEX
  5
250
  8
LAYER_1
 10
-3.104896423563228
 20
3.354716656362561
 30
0.0
  0
VERTEX
  5
251
  8
LAYER_1
 10
-3.132973512252199
 20
3.339709139793229
 30
0.0
  0
VERTEX
  5
252
  8
LAYER_1
 10
-3.157583286314745
 20
3.319512420173012
 30
0.0
  0
VERTEX
  5
253
  8
LAYER_1
 10
-3.177780005934961
 20
3.294902646110467
 30
0.0
  0
VERTEX
  5
254
  8
LAYER_1
 10
-3.192787522504294
 20
3.266825557421496
 30
0.0
  0
VERTEX
  5
255
  8
LAYER_1
 10
-3.202029105577296
 20
3.236360140878604
 30
0.0
  0
VERTEX
  5
256
  8
LAYER_1
 10
-3.205149606299213
 20
3.204677165354331
 30
0.0
  0
VERTEX
  5
257
  8
LAYER_1
 10
-3.202029105577296
 20
3.172994189830058
 30
0.0
  0
VERTEX
  5
258
  8
LAYER_1
 10
-3.192787522504294
 20
3.142528773287166
 30
0.0
  0
VERTEX
  5
259
  8
LAYER_1
 10
-3.177780005934961
 20
3.114451684598195
 30
0.0
  0
VERTEX
  5
25A
  8
LAYER_1
 10
-3.157583286314745
 20
3.089841910535649
 30
0.0
  0
VERTEX
  5
25B
  8
LAYER_1
 10
-3.132973512252199
 20
3.069645190915433
 30
0.0
  0
VERTEX
  5
25C
  8
LAYER_1
 10
-3.104896423563228
 20
3.0546376743461
 30
0.0
  0
VERTEX
  5
25D
  8
LAYER_1
 10
-3.074431007020336
 20
3.045396091273098
 30
0.0
  0
VERTEX
  5
25E
  8
LAYER_1
 10
-3.042748031496063
 20
3.042275590551181
 30
0.0
  0
VERTEX
  5
25F
  8
LAYER_1
 10
-3.01106505597179
 20
3.045396091273098
 30
0.0
  0
VERTEX
  5
260
  8
LAYER_1
 10
-2.980599639428898
 20
3.0546376743461
 30
0.0
  0
VERTEX
  5
261
  8
LAYER_1
 10
-2.952522550739927
 20
3.069645190915433
 30
0.0
  0
VERTEX
  5
262
  8
LAYER_1
 10
-2.927912776677382
 20
3.08984191053565
 30
0.0
  0
VERTEX
  5
263
  8
LAYER_1
 10
-2.907716057057165
 20
3.114451684598195
 30
0.0
  0
VERTEX
  5
264
  8
LAYER_1
 10
-2.892708540487833
 20
3.142528773287166
 30
0.0
  0
VERTEX
  5
265
  8
LAYER_1
 10
-2.88346695741483
 20
3.172994189830058
 30
0.0
  0
VERTEX
  5
266
  8
LAYER_1
 10
-2.880346456692914
 20
3.204677165354331
 30
0.0
  0
VERTEX
  5
267
  8
LAYER_1
 10
-2.88346695741483
 20
3.236360140878604
 30
0.0
  0
VERTEX
  5
268
  8
LAYER_1
 10
-2.892708540487833
 20
3.266825557421496
 30
0.0
  0
VERTEX
  5
269
  8
LAYER_1
 10
-2.907716057057166
 20
3.294902646110467
 30
0.0
  0
VERTEX
  5
26A
  8
LAYER_1
 10
-2.927912776677382
 20
3.319512420173013
 30
0.0
  0
VERTEX
  5
26B
  8
LAYER_1
 10
-2.952522550739928
 20
3.339709139793229
 30
0.0
  0
VERTEX
  5
26C
  8
LAYER_1
 10
-2.980599639428898
 20
3.354716656362562
 30
0.0
  0
VERTEX
  5
26D
  8
LAYER_1
 10
-3.011065055971791
 20
3.363958239435564
 30
0.0
  0
SEQEND
  5
26E
  8
LAYER_1
  0
POLYLINE
  5
55
  8
LAYER_1
 66
     1
 10
0.0
 20
0.0
 30
0.0
 70
     1
  0
VERTEX
  5
26F
  8
LAYER_1
 10
-7.501377952755906
 20
5.515511811023622
 30
0.0
  0
VERTEX
  5
270
  8
LAYER_1
 10
-7.570972440944882
 20
5.585106299212598
 30
0.0
  0
VERTEX
  5
271
  8
LAYER_1
 10
-7.746358267716535
 20
5.409724409448819
 30
0.0
  0
VERTEX
  5
272
  8
LAYER_1
 10
-7.676763779527559
 20
5.340125984251968
 30
0.0
  0
VERTEX
  5
273
  8
LAYER_1
 10
-7.501377952755906
 20
5.515511811023622
 30
0.0
  0
SEQEND
  5
274
  8
LAYER_1
  0
POLYLINE
  5
56
  8
LAYER_1
 66
     1
 10
0.0
 20
0.0
 30
0.0
 70
     1
  0
VERTEX
  5
275
  8
LAYER_1
 10
-7.790909448818898
 20
3.507783464566929
 30
0.0
  0
VERTEX
  5
276
  8
LAYER_1
 10
-7.790909448818898
 20
3.606208661417323
 30
0.0
  0
VERTEX
  5
277
  8
LAYER_1
 10
-7.542877952755905
 20
3.606208661417323
 30
0.0
  0
VERTEX
  5
278
  8
LAYER_1
 10
-7.542877952755905
 20
3.507783464566929
 30
0.0
  0
VERTEX
  5
279
  8
LAYER_1
 10
-7.790909448818898
 20
3.507783464566929
 30
0.0
  0
SEQEND
  5
27A
  8
LAYER_1
  0
POLYLINE
  5
57
  8
LAYER_1
 66
     1
 10
0.0
 20
0.0
 30
0.0
 70
     1
  0
VERTEX
  5
27B
  8
LAYER_1
 10
-5.665204724409449
 20
4.738208661417323
 30
0.0
  0
VERTEX
  5
27C
  8
LAYER_1
 10
-5.566779527559055
 20
4.738208661417323
 30
0.0
  0
VERTEX
  5
27D
  8
LAYER_1
 10
-5.566779527559055
 20
4.986240157480315
 30
0.0
  0
VERTEX
  5
27E
  8
LAYER_1
 10
-5.665204724409449
 20
4.986240157480315
 30
0.0
  0
VERTEX
  5
27F
  8
LAYER_1
 10
-5.665204724409449
 20
4.738208661417323
 30
0.0
  0
SEQEND
  5
280
  8
LAYER_1
  0
POLYLINE
  5
58
  8
LAYER_1
 66
     1
 10
0.0
 20
0.0
 30
0.0
 70
     1
  0
VERTEX
  5
281
  8
LAYER_1
 10
-5.665204724409449
 20
3.635842519685039
 30
0.0
  0
VERTEX
  5
282
  8
LAYER_1
 10
-5.566779527559055
 20
3.635842519685039
 30
0.0
  0
VERTEX
  5
283
  8
LAYER_1
 10
-5.566779527559055
 20
3.883874015748031
 30
0.0
  0
VERTEX
  5
284
  8
LAYER_1
 10
-5.665204724409449
 20
3.883874015748031
 30
0.0
  0
VERTEX
  5
285
  8
LAYER_1
 10
-5.665204724409449
 20
3.635842519685039
 30
0.0
  0
SEQEND
  5
286
  8
LAYER_1
  0
POLYLINE
  5
59
  8
LAYER_1
 66
     1
 10
0.0
 20
0.0
 30
0.0
 70
     1
  0
VERTEX
  5
287
  8
LAYER_1
 10
-8.804984251968504
 20
5.899641732283465
 30
0.0
  0
VERTEX
  5
288
  8
LAYER_1
 10
-3.99396062992126
 20
5.899641732283465
 30
0.0
  0
VERTEX
  5
289
  8
LAYER_1
 10
-3.99396062992126
 20
5.620122047244094
 30
0.0
  0
VERTEX
  5
28A
  8
LAYER_1
 10
-3.875850393700787
 20
5.620122047244094
 30
0.0
  0
VERTEX
  5
28B
  8
LAYER_1
 10
-3.875850393700787
 20
5.120122047244094
 30
0.0
  0
VERTEX
  5
28C
  8
LAYER_1
 10
-3.99396062992126
 20
5.120122047244094
 30
0.0
  0
VERTEX
  5
28D
  8
LAYER_1
 10
-3.99396062992126
 20
3.820909448818897
 30
0.0
  0
VERTEX
  5
28E
  8
LAYER_1
 10
-3.875850393700787
 20
3.820909448818897
 30
0.0
  0
VERTEX
  5
28F
  8
LAYER_1
 10
-3.875850393700787
 20
3.320909448818897
 30
0.0
  0
VERTEX
  5
290
  8
LAYER_1
 10
-3.99396062992126
 20
3.320909448818897
 30
0.0
  0
VERTEX
  5
291
  8
LAYER_1
 10
-3.99396062992126
 20
3.041374015748032
 30
0.0
  0
VERTEX
  5
292
  8
LAYER_1
 10
-8.804984251968504
 20
3.041374015748032
 30
0.0
  0
VERTEX
  5
293
  8
LAYER_1
 10
-8.804984251968504
 20
3.320909448818897
 30
0.0
  0
VERTEX
  5
294
  8
LAYER_1
 10
-8.923094488188976
 20
3.320909448818897
 30
0.0
  0
VERTEX
  5
295
  8
LAYER_1
 10
-8.923094488188976
 20
3.820909448818897
 30
0.0
  0
VERTEX
  5
296
  8
LAYER_1
 10
-8.804984251968504
 20
3.820909448818897
 30
0.0
  0
VERTEX
  5
297
  8
LAYER_1
 10
-8.804984251968504
 20
5.120122047244094
 30
0.0
  0
VERTEX
  5
298
  8
LAYER_1
 10
-8.923094488188976
 20
5.120122047244094
 30
0.0
  0
VERTEX
  5
299
  8
LAYER_1
 10
-8.923094488188976
 20
5.620122047244094
 30
0.0
  0
VERTEX
  5
29A
  8
LAYER_1
 10
-8.804984251968504
 20
5.620122047244094
 30
0.0
  0
VERTEX
  5
29B
  8
LAYER_1
 10
-8.804984251968504
 20
5.899641732283465
 30
0.0
  0
SEQEND
  5
29C
  8
LAYER_1
  0
POLYLINE
  5
5A
  8
LAYER_1
 66
     1
 10
0.0
 20
0.0
 30
0.0
 70
     1
  0
VERTEX
  5
29D
  8
LAYER_1
 10
-8.804984251968504
 20
-1.154614173228346
 30
0.0
  0
VERTEX
  5
29E
  8
LAYER_1
 10
-8.804984251968504
 20
-1.425283464566929
 30
0.0
  0
VERTEX
  5
29F
  8
LAYER_1
 10
-3.99396062992126
 20
-1.425283464566929
 30
0.0
  0
VERTEX
  5
2A0
  8
LAYER_1
 10
-3.99396062992126
 20
-1.154614173228346
 30
0.0
  0
VERTEX
  5
2A1
  8
LAYER_1
 10
-3.879968503937008
 20
-1.154614173228346
 30
0.0
  0
VERTEX
  5
2A2
  8
LAYER_1
 10
-3.875850393700787
 20
-1.154614173228346
 30
0.0
  0
VERTEX
  5
2A3
  8
LAYER_1
 10
-3.875850393700787
 20
-0.9046141732283465
 30
0.0
  0
VERTEX
  5
2A4
  8
LAYER_1
 10
-3.879968503937008
 20
-0.9046141732283465
 30
0.0
  0
VERTEX
  5
2A5
  8
LAYER_1
 10
-3.99396062992126
 20
-0.9046141732283465
 30
0.0
  0
VERTEX
  5
2A6
  8
LAYER_1
 10
-3.99396062992126
 20
-0.6339448818897638
 30
0.0
  0
VERTEX
  5
2A7
  8
LAYER_1
 10
-8.804984251968504
 20
-0.6339448818897638
 30
0.0
  0
VERTEX
  5
2A8
  8
LAYER_1
 10
-8.804984251968504
 20
-0.9046141732283465
 30
0.0
  0
VERTEX
  5
2A9
  8
LAYER_1
 10
-8.918976377952756
 20
-0.9046141732283465
 30
0.0
  0
VERTEX
  5
2AA
  8
LAYER_1
 10
-8.923094488188976
 20
-0.9046141732283465
 30
0.0
  0
VERTEX
  5
2AB
  8
LAYER_1
 10
-8.923094488188976
 20
-1.154614173228346
 30
0.0
  0
VERTEX
  5
2AC
  8
LAYER_1
 10
-8.918976377952756
 20
-1.154614173228346
 30
0.0
  0
VERTEX
  5
2AD
  8
LAYER_1
 10
-8.804984251968504
 20
-1.154614173228346
 30
0.0
  0
SEQEND
  5
2AE
  8
LAYER_1
  0
POLYLINE
  5
5B
  8
LAYER_1
 66
     1
 10
0.0
 20
0.0
 30
0.0
 70
     1
  0
VERTEX
  5
2AF
  8
LAYER_1
 10
-4.171850393700788
 20
-0.9671141732283465
 30
0.0
  0
VERTEX
  5
2B0
  8
LAYER_1
 10
-4.111850393700787
 20
-0.9671141732283465
 30
0.0
  0
VERTEX
  5
2B1
  8
LAYER_1
 10
-4.111850393700787
 20
-1.092114173228346
 30
0.0
  0
VERTEX
  5
2B2
  8
LAYER_1
 10
-4.171850393700788
 20
-1.092114173228346
 30
0.0
  0
VERTEX
  5
2B3
  8
LAYER_1
 10
-4.171850393700788
 20
-0.9671141732283465
 30
0.0
  0
SEQEND
  5
2B4
  8
LAYER_1
  0
POLYLINE
  5
5C
  8
LAYER_1
 66
     1
 10
0.0
 20
0.0
 30
0.0
 70
     1
  0
VERTEX
  5
2B5
  8
LAYER_1
 10
-8.627094488188977
 20
-0.9671141732283465
 30
0.0
  0
VERTEX
  5
2B6
  8
LAYER_1
 10
-8.687094488188976
 20
-0.9671141732283465
 30
0.0
  0
VERTEX
  5
2B7
  8
LAYER_1
 10
-8.687094488188976
 20
-1.092114173228346
 30
0.0
  0
VERTEX
  5
2B8
  8
LAYER_1
 10
-8.627094488188977
 20
-1.092114173228346
 30
0.0
  0
VERTEX
  5
2B9
  8
LAYER_1
 10
-8.627094488188977
 20
-0.9671141732283465
 30
0.0
  0
SEQEND
  5
2BA
  8
LAYER_1
  0
POLYLINE
  5
5D
  8
LAYER_1
 66
     1
 10
0.0
 20
0.0
 30
0.0
 70
     1
  0
VERTEX
  5
2BB
  8
LAYER_1
 10
-8.804984251968504
 20
-0.2814527559055118
 30
0.0
  0
VERTEX
  5
2BC
  8
LAYER_1
 10
-8.804984251968504
 20
0.2451023622047244
 30
0.0
  0
VERTEX
  5
2BD
  8
LAYER_1
 10
-3.99396062992126
 20
0.2451023622047244
 30
0.0
  0
VERTEX
  5
2BE
  8
LAYER_1
 10
-3.99396062992126
 20
-0.0255669291338583
 30
0.0
  0
VERTEX
  5
2BF
  8
LAYER_1
 10
-3.879968503937008
 20
-0.0255669291338583
 30
0.0
  0
VERTEX
  5
2C0
  8
LAYER_1
 10
-3.875850393700787
 20
-0.0255669291338583
 30
0.0
  0
VERTEX
  5
2C1
  8
LAYER_1
 10
-3.875850393700787
 20
-0.2755669291338583
 30
0.0
  0
VERTEX
  5
2C2
  8
LAYER_1
 10
-3.879968503937008
 20
-0.2755669291338583
 30
0.0
  0
VERTEX
  5
2C3
  8
LAYER_1
 10
-3.99396062992126
 20
-0.2755669291338583
 30
0.0
  0
VERTEX
  5
2C4
  8
LAYER_1
 10
-3.99396062992126
 20
-0.5462362204724409
 30
0.0
  0
VERTEX
  5
2C5
  8
LAYER_1
 10
-8.804984251968504
 20
-0.5462362204724409
 30
0.0
  0
VERTEX
  5
2C6
  8
LAYER_1
 10
-8.804984251968504
 20
-0.5314527559055118
 30
0.0
  0
VERTEX
  5
2C7
  8
LAYER_1
 10
-8.918976377952756
 20
-0.5314527559055118
 30
0.0
  0
VERTEX
  5
2C8
  8
LAYER_1
 10
-8.923094488188976
 20
-0.5314527559055118
 30
0.0
  0
VERTEX
  5
2C9
  8
LAYER_1
 10
-8.923094488188976
 20
-0.2814527559055118
 30
0.0
  0
VERTEX
  5
2CA
  8
LAYER_1
 10
-8.918976377952756
 20
-0.2814527559055118
 30
0.0
  0
VERTEX
  5
2CB
  8
LAYER_1
 10
-8.804984251968504
 20
-0.2814527559055118
 30
0.0
  0
SEQEND
  5
2CC
  8
LAYER_1
  0
POLYLINE
  5
5E
  8
LAYER_1
 66
     1
 10
0.0
 20
0.0
 30
0.0
 70
     1
  0
VERTEX
  5
2CD
  8
LAYER_1
 10
-4.901047244094488
 20
-0.0393661417322835
 30
0.0
  0
VERTEX
  5
2CE
  8
LAYER_1
 10
-4.842106299212598
 20
-0.0427755905511811
 30
0.0
  0
VERTEX
  5
2CF
  8
LAYER_1
 10
-4.787204724409449
 20
-0.052251968503937
 30
0.0
  0
VERTEX
  5
2D0
  8
LAYER_1
 10
-4.73751968503937
 20
-0.0666771653543307
 30
0.0
  0
VERTEX
  5
2D1
  8
LAYER_1
 10
-4.694228346456693
 20
-0.0849291338582677
 30
0.0
  0
VERTEX
  5
2D2
  8
LAYER_1
 10
-4.658507874015748
 20
-0.1058779527559055
 30
0.0
  0
VERTEX
  5
2D3
  8
LAYER_1
 10
-4.631535433070866
 20
-0.1284015748031496
 30
0.0
  0
VERTEX
  5
2D4
  8
LAYER_1
 10
-4.614492125984252
 20
-0.1513858267716535
 30
0.0
  0
VERTEX
  5
2D5
  8
LAYER_1
 10
-4.608547244094488
 20
-0.1736968503937008
 30
0.0
  0
VERTEX
  5
2D6
  8
LAYER_1
 10
-4.608547244094488
 20
-0.3809291338582677
 30
0.0
  0
VERTEX
  5
2D7
  8
LAYER_1
 10
-5.193547244094488
 20
-0.3809291338582677
 30
0.0
  0
VERTEX
  5
2D8
  8
LAYER_1
 10
-5.193547244094488
 20
-0.1736968503937008
 30
0.0
  0
VERTEX
  5
2D9
  8
LAYER_1
 10
-5.187602362204724
 20
-0.1513858267716535
 30
0.0
  0
VERTEX
  5
2DA
  8
LAYER_1
 10
-5.17055905511811
 20
-0.1284015748031496
 30
0.0
  0
VERTEX
  5
2DB
  8
LAYER_1
 10
-5.143586614173229
 20
-0.1058779527559055
 30
0.0
  0
VERTEX
  5
2DC
  8
LAYER_1
 10
-5.107866141732283
 20
-0.0849291338582677
 30
0.0
  0
VERTEX
  5
2DD
  8
LAYER_1
 10
-5.064574803149607
 20
-0.0666771653543307
 30
0.0
  0
VERTEX
  5
2DE
  8
LAYER_1
 10
-5.014889763779528
 20
-0.052251968503937
 30
0.0
  0
VERTEX
  5
2DF
  8
LAYER_1
 10
-4.959988188976378
 20
-0.0427755905511811
 30
0.0
  0
VERTEX
  5
2E0
  8
LAYER_1
 10
-4.901047244094488
 20
-0.0393661417322835
 30
0.0
  0
SEQEND
  5
2E1
  8
LAYER_1
  0
POLYLINE
  5
5F
  8
LAYER_1
 62
     1
 66
     1
 10
0.0
 20
0.0
 30
0.0
  0
VERTEX
  5
2E2
  8
LAYER_1
 62
     1
 10
-5.10596062992126
 20
0.0325590551181102
 30
0.0
  0
VERTEX
  5
2E3
  8
LAYER_1
 62
     1
 10
-5.082444881889764
 20
0.0205708661417323
 30
0.0
  0
SEQEND
  5
2E4
  8
LAYER_1
 62
     1
  0
POLYLINE
  5
60
  8
LAYER_1
 62
     1
 66
     1
 10
0.0
 20
0.0
 30
0.0
  0
VERTEX
  5
2E5
  8
LAYER_1
 62
     1
 10
-5.073330708661417
 20
0.0581338582677165
 30
0.0
  0
VERTEX
  5
2E6
  8
LAYER_1
 62
     1
 10
-5.079295275590551
 20
0.0607362204724409
 30
0.0
  0
VERTEX
  5
2E7
  8
LAYER_1
 62
     1
 10
-5.085503937007874
 20
0.0626102362204724
 30
0.0
  0
VERTEX
  5
2E8
  8
LAYER_1
 62
     1
 10
-5.091885826771653
 20
0.063748031496063
 30
0.0
  0
VERTEX
  5
2E9
  8
LAYER_1
 62
     1
 10
-5.09838188976378
 20
0.0641299212598425
 30
0.0
  0
SEQEND
  5
2EA
  8
LAYER_1
 62
     1
  0
POLYLINE
  5
61
  8
LAYER_1
 62
     1
 66
     1
 10
0.0
 20
0.0
 30
0.0
  0
VERTEX
  5
2EB
  8
LAYER_1
 62
     1
 10
-5.09838188976378
 20
0.0641299212598425
 30
0.0
  0
VERTEX
  5
2EC
  8
LAYER_1
 62
     1
 10
-5.101220472440945
 20
0.0638897637795276
 30
0.0
  0
VERTEX
  5
2ED
  8
LAYER_1
 62
     1
 10
-5.103917322834645
 20
0.0631850393700787
 30
0.0
  0
VERTEX
  5
2EE
  8
LAYER_1
 62
     1
 10
-5.106429133858268
 20
0.0620590551181102
 30
0.0
  0
VERTEX
  5
2EF
  8
LAYER_1
 62
     1
 10
-5.108708661417323
 20
0.0605472440944882
 30
0.0
  0
VERTEX
  5
2F0
  8
LAYER_1
 62
     1
 10
-5.110712598425197
 20
0.0586811023622047
 30
0.0
  0
VERTEX
  5
2F1
  8
LAYER_1
 62
     1
 10
-5.112393700787401
 20
0.0565
 30
0.0
  0
VERTEX
  5
2F2
  8
LAYER_1
 62
     1
 10
-5.113708661417323
 20
0.0540393700787402
 30
0.0
  0
VERTEX
  5
2F3
  8
LAYER_1
 62
     1
 10
-5.114606299212598
 20
0.0513346456692913
 30
0.0
  0
VERTEX
  5
2F4
  8
LAYER_1
 62
     1
 10
-5.115035433070866
 20
0.0485157480314961
 30
0.0
  0
VERTEX
  5
2F5
  8
LAYER_1
 62
     1
 10
-5.114984251968504
 20
0.0457283464566929
 30
0.0
  0
VERTEX
  5
2F6
  8
LAYER_1
 62
     1
 10
-5.114476377952756
 20
0.0430236220472441
 30
0.0
  0
VERTEX
  5
2F7
  8
LAYER_1
 62
     1
 10
-5.11353937007874
 20
0.0404488188976378
 30
0.0
  0
VERTEX
  5
2F8
  8
LAYER_1
 62
     1
 10
-5.112192913385827
 20
0.0380629921259843
 30
0.0
  0
VERTEX
  5
2F9
  8
LAYER_1
 62
     1
 10
-5.110464566929134
 20
0.0359173228346457
 30
0.0
  0
VERTEX
  5
2FA
  8
LAYER_1
 62
     1
 10
-5.108377952755905
 20
0.0340669291338583
 30
0.0
  0
VERTEX
  5
2FB
  8
LAYER_1
 62
     1
 10
-5.10596062992126
 20
0.0325590551181102
 30
0.0
  0
SEQEND
  5
2FC
  8
LAYER_1
 62
     1
  0
POLYLINE
  5
62
  8
LAYER_1
 62
     1
 66
     1
 10
0.0
 20
0.0
 30
0.0
  0
VERTEX
  5
2FD
  8
LAYER_1
 62
     1
 10
-5.090027559055118
 20
-0.011
 30
0.0
  0
VERTEX
  5
2FE
  8
LAYER_1
 62
     1
 10
-5.087188976377953
 20
-0.010759842519685
 30
0.0
  0
VERTEX
  5
2FF
  8
LAYER_1
 62
     1
 10
-5.084488188976378
 20
-0.0100551181102362
 30
0.0
  0
VERTEX
  5
300
  8
LAYER_1
 62
     1
 10
-5.081976377952756
 20
-0.0089291338582677
 30
0.0
  0
VERTEX
  5
301
  8
LAYER_1
 62
     1
 10
-5.079696850393701
 20
-0.0074173228346457
 30
0.0
  0
VERTEX
  5
302
  8
LAYER_1
 62
     1
 10
-5.077692913385826
 20
-0.0055511811023622
 30
0.0
  0
VERTEX
  5
303
  8
LAYER_1
 62
     1
 10
-5.076011811023622
 20
-0.0033700787401575
 30
0.0
  0
VERTEX
  5
304
  8
LAYER_1
 62
     1
 10
-5.074696850393701
 20
-0.0009094488188976
 30
0.0
  0
VERTEX
  5
305
  8
LAYER_1
 62
     1
 10
-5.073799212598425
 20
0.0017952755905512
 30
0.0
  0
VERTEX
  5
306
  8
LAYER_1
 62
     1
 10
-5.073370078740157
 20
0.0046141732283465
 30
0.0
  0
VERTEX
  5
307
  8
LAYER_1
 62
     1
 10
-5.07342125984252
 20
0.0074015748031496
 30
0.0
  0
VERTEX
  5
308
  8
LAYER_1
 62
     1
 10
-5.073929133858268
 20
0.0101102362204724
 30
0.0
  0
VERTEX
  5
309
  8
LAYER_1
 62
     1
 10
-5.074870078740157
 20
0.0126811023622047
 30
0.0
  0
VERTEX
  5
30A
  8
LAYER_1
 62
     1
 10
-5.076212598425196
 20
0.0150669291338583
 30
0.0
  0
VERTEX
  5
30B
  8
LAYER_1
 62
     1
 10
-5.07794094488189
 20
0.0172125984251968
 30
0.0
  0
VERTEX
  5
30C
  8
LAYER_1
 62
     1
 10
-5.080027559055118
 20
0.0190629921259843
 30
0.0
  0
VERTEX
  5
30D
  8
LAYER_1
 62
     1
 10
-5.082444881889764
 20
0.0205708661417323
 30
0.0
  0
SEQEND
  5
30E
  8
LAYER_1
 62
     1
  0
POLYLINE
  5
63
  8
LAYER_1
 62
     1
 66
     1
 10
0.0
 20
0.0
 30
0.0
  0
VERTEX
  5
30F
  8
LAYER_1
 62
     1
 10
-5.115074803149606
 20
-0.005003937007874
 30
0.0
  0
VERTEX
  5
310
  8
LAYER_1
 62
     1
 10
-5.109110236220473
 20
-0.0076062992125984
 30
0.0
  0
VERTEX
  5
311
  8
LAYER_1
 62
     1
 10
-5.102905511811024
 20
-0.0094803149606299
 30
0.0
  0
VERTEX
  5
312
  8
LAYER_1
 62
     1
 10
-5.096523622047244
 20
-0.0106181102362205
 30
0.0
  0
VERTEX
  5
313
  8
LAYER_1
 62
     1
 10
-5.090027559055118
 20
-0.011
 30
0.0
  0
SEQEND
  5
314
  8
LAYER_1
 62
     1
  0
POLYLINE
  5
64
  8
LAYER_1
 62
     1
 66
     1
 10
0.0
 20
0.0
 30
0.0
 70
     1
  0
VERTEX
  5
315
  8
LAYER_1
 62
     1
 10
-5.048291338582677
 20
-0.011
 30
0.0
  0
VERTEX
  5
316
  8
LAYER_1
 62
     1
 10
-5.048291338582677
 20
-0.011
 30
0.0
  0
VERTEX
  5
317
  8
LAYER_1
 62
     1
 10
-5.048291338582677
 20
-0.011
 30
0.0
  0
SEQEND
  5
318
  8
LAYER_1
 62
     1
  0
POLYLINE
  5
65
  8
LAYER_1
 62
     1
 66
     1
 10
0.0
 20
0.0
 30
0.0
  0
VERTEX
  5
319
  8
LAYER_1
 62
     1
 10
-5.048291338582677
 20
-0.011
 30
0.0
  0
VERTEX
  5
31A
  8
LAYER_1
 62
     1
 10
-5.023251968503937
 20
-0.011
 30
0.0
  0
SEQEND
  5
31B
  8
LAYER_1
 62
     1
  0
POLYLINE
  5
66
  8
LAYER_1
 62
     1
 66
     1
 10
0.0
 20
0.0
 30
0.0
 70
     1
  0
VERTEX
  5
31C
  8
LAYER_1
 62
     1
 10
-5.006551181102362
 20
0.0056968503937008
 30
0.0
  0
VERTEX
  5
31D
  8
LAYER_1
 62
     1
 10
-5.006551181102362
 20
0.0056968503937008
 30
0.0
  0
VERTEX
  5
31E
  8
LAYER_1
 62
     1
 10
-5.006551181102362
 20
0.0056968503937008
 30
0.0
  0
SEQEND
  5
31F
  8
LAYER_1
 62
     1
  0
POLYLINE
  5
67
  8
LAYER_1
 62
     1
 66
     1
 10
0.0
 20
0.0
 30
0.0
  0
VERTEX
  5
320
  8
LAYER_1
 62
     1
 10
-5.006551181102362
 20
0.0056968503937008
 30
0.0
  0
VERTEX
  5
321
  8
LAYER_1
 62
     1
 10
-5.006551181102362
 20
0.0474409448818898
 30
0.0
  0
SEQEND
  5
322
  8
LAYER_1
 62
     1
  0
POLYLINE
  5
68
  8
LAYER_1
 62
     1
 66
     1
 10
0.0
 20
0.0
 30
0.0
 70
     1
  0
VERTEX
  5
323
  8
LAYER_1
 62
     1
 10
-5.048291338582677
 20
0.0641299212598425
 30
0.0
  0
VERTEX
  5
324
  8
LAYER_1
 62
     1
 10
-5.048291338582677
 20
0.0641299212598425
 30
0.0
  0
VERTEX
  5
325
  8
LAYER_1
 62
     1
 10
-5.048291338582677
 20
0.0641299212598425
 30
0.0
  0
SEQEND
  5
326
  8
LAYER_1
 62
     1
  0
POLYLINE
  5
69
  8
LAYER_1
 62
     1
 66
     1
 10
0.0
 20
0.0
 30
0.0
  0
VERTEX
  5
327
  8
LAYER_1
 62
     1
 10
-5.023251968503937
 20
0.0641299212598425
 30
0.0
  0
VERTEX
  5
328
  8
LAYER_1
 62
     1
 10
-5.048291338582677
 20
0.0641299212598425
 30
0.0
  0
SEQEND
  5
329
  8
LAYER_1
 62
     1
  0
POLYLINE
  5
6A
  8
LAYER_1
 62
     1
 66
     1
 10
0.0
 20
0.0
 30
0.0
 70
     1
  0
VERTEX
  5
32A
  8
LAYER_1
 62
     1
 10
-5.048291338582677
 20
-0.011
 30
0.0
  0
VERTEX
  5
32B
  8
LAYER_1
 62
     1
 10
-5.048291338582677
 20
-0.011
 30
0.0
  0
VERTEX
  5
32C
  8
LAYER_1
 62
     1
 10
-5.048291338582677
 20
-0.011
 30
0.0
  0
SEQEND
  5
32D
  8
LAYER_1
 62
     1
  0
POLYLINE
  5
6B
  8
LAYER_1
 62
     1
 66
     1
 10
0.0
 20
0.0
 30
0.0
  0
VERTEX
  5
32E
  8
LAYER_1
 62
     1
 10
-5.048291338582677
 20
0.0641299212598425
 30
0.0
  0
VERTEX
  5
32F
  8
LAYER_1
 62
     1
 10
-5.048291338582677
 20
-0.011
 30
0.0
  0
SEQEND
  5
330
  8
LAYER_1
 62
     1
  0
POLYLINE
  5
6C
  8
LAYER_1
 62
     1
 66
     1
 10
0.0
 20
0.0
 30
0.0
  0
VERTEX
  5
331
  8
LAYER_1
 62
     1
 10
-5.023251968503937
 20
-0.011
 30
0.0
  0
VERTEX
  5
332
  8
LAYER_1
 62
     1
 10
-5.019976377952756
 20
-0.0106771653543307
 30
0.0
  0
VERTEX
  5
333
  8
LAYER_1
 62
     1
 10
-5.016858267716535
 20
-0.0097283464566929
 30
0.0
  0
VERTEX
  5
334
  8
LAYER_1
 62
     1
 10
-5.013984251968504
 20
-0.0081929133858268
 30
0.0
  0
VERTEX
  5
335
  8
LAYER_1
 62
     1
 10
-5.01144094488189
 20
-0.0061062992125984
 30
0.0
  0
VERTEX
  5
336
  8
LAYER_1
 62
     1
 10
-5.009358267716536
 20
-0.0035629921259843
 30
0.0
  0
VERTEX
  5
337
  8
LAYER_1
 62
     1
 10
-5.007822834645669
 20
-0.0006889763779528
 30
0.0
  0
VERTEX
  5
338
  8
LAYER_1
 62
     1
 10
-5.006874015748031
 20
0.0024251968503937
 30
0.0
  0
VERTEX
  5
339
  8
LAYER_1
 62
     1
 10
-5.006551181102362
 20
0.0056968503937008
 30
0.0
  0
SEQEND
  5
33A
  8
LAYER_1
 62
     1
  0
POLYLINE
  5
6D
  8
LAYER_1
 62
     1
 66
     1
 10
0.0
 20
0.0
 30
0.0
  0
VERTEX
  5
33B
  8
LAYER_1
 62
     1
 10
-5.006551181102362
 20
0.0474409448818898
 30
0.0
  0
VERTEX
  5
33C
  8
LAYER_1
 62
     1
 10
-5.006874015748031
 20
0.0507086614173228
 30
0.0
  0
VERTEX
  5
33D
  8
LAYER_1
 62
     1
 10
-5.007822834645669
 20
0.0538228346456693
 30
0.0
  0
VERTEX
  5
33E
  8
LAYER_1
 62
     1
 10
-5.009358267716536
 20
0.0566968503937008
 30
0.0
  0
VERTEX
  5
33F
  8
LAYER_1
 62
     1
 10
-5.01144094488189
 20
0.059240157480315
 30
0.0
  0
VERTEX
  5
340
  8
LAYER_1
 62
     1
 10
-5.013984251968504
 20
0.0613228346456693
 30
0.0
  0
VERTEX
  5
341
  8
LAYER_1
 62
     1
 10
-5.016858267716535
 20
0.0628582677165354
 30
0.0
  0
VERTEX
  5
342
  8
LAYER_1
 62
     1
 10
-5.019976377952756
 20
0.0638070866141732
 30
0.0
  0
VERTEX
  5
343
  8
LAYER_1
 62
     1
 10
-5.023251968503937
 20
0.0641299212598425
 30
0.0
  0
SEQEND
  5
344
  8
LAYER_1
 62
     1
  0
POLYLINE
  5
6E
  8
LAYER_1
 62
     1
 66
     1
 10
0.0
 20
0.0
 30
0.0
 70
     1
  0
VERTEX
  5
345
  8
LAYER_1
 62
     1
 10
-4.908472440944882
 20
0.0641299212598425
 30
0.0
  0
VERTEX
  5
346
  8
LAYER_1
 62
     1
 10
-4.908472440944882
 20
0.0641299212598425
 30
0.0
  0
VERTEX
  5
347
  8
LAYER_1
 62
     1
 10
-4.908472440944882
 20
0.0641299212598425
 30
0.0
  0
SEQEND
  5
348
  8
LAYER_1
 62
     1
  0
POLYLINE
  5
6F
  8
LAYER_1
 62
     1
 66
     1
 10
0.0
 20
0.0
 30
0.0
  0
VERTEX
  5
349
  8
LAYER_1
 62
     1
 10
-4.891779527559055
 20
0.0641299212598425
 30
0.0
  0
VERTEX
  5
34A
  8
LAYER_1
 62
     1
 10
-4.908472440944882
 20
0.0641299212598425
 30
0.0
  0
SEQEND
  5
34B
  8
LAYER_1
 62
     1
  0
POLYLINE
  5
70
  8
LAYER_1
 62
     1
 66
     1
 10
0.0
 20
0.0
 30
0.0
 70
     1
  0
VERTEX
  5
34C
  8
LAYER_1
 62
     1
 10
-4.925165354330709
 20
0.0056968503937008
 30
0.0
  0
VERTEX
  5
34D
  8
LAYER_1
 62
     1
 10
-4.925165354330709
 20
0.0056968503937008
 30
0.0
  0
VERTEX
  5
34E
  8
LAYER_1
 62
     1
 10
-4.925165354330709
 20
0.0056968503937008
 30
0.0
  0
SEQEND
  5
34F
  8
LAYER_1
 62
     1
  0
POLYLINE
  5
71
  8
LAYER_1
 62
     1
 66
     1
 10
0.0
 20
0.0
 30
0.0
  0
VERTEX
  5
350
  8
LAYER_1
 62
     1
 10
-4.925165354330709
 20
0.0474409448818898
 30
0.0
  0
VERTEX
  5
351
  8
LAYER_1
 62
     1
 10
-4.925165354330709
 20
0.0056968503937008
 30
0.0
  0
SEQEND
  5
352
  8
LAYER_1
 62
     1
  0
POLYLINE
  5
72
  8
LAYER_1
 62
     1
 66
     1
 10
0.0
 20
0.0
 30
0.0
 70
     1
  0
VERTEX
  5
353
  8
LAYER_1
 62
     1
 10
-4.908472440944882
 20
-0.011
 30
0.0
  0
VERTEX
  5
354
  8
LAYER_1
 62
     1
 10
-4.908472440944882
 20
-0.011
 30
0.0
  0
VERTEX
  5
355
  8
LAYER_1
 62
     1
 10
-4.908472440944882
 20
-0.011
 30
0.0
  0
SEQEND
  5
356
  8
LAYER_1
 62
     1
  0
POLYLINE
  5
73
  8
LAYER_1
 62
     1
 66
     1
 10
0.0
 20
0.0
 30
0.0
  0
VERTEX
  5
357
  8
LAYER_1
 62
     1
 10
-4.908472440944882
 20
-0.011
 30
0.0
  0
VERTEX
  5
358
  8
LAYER_1
 62
     1
 10
-4.891779527559055
 20
-0.011
 30
0.0
  0
SEQEND
  5
359
  8
LAYER_1
 62
     1
  0
POLYLINE
  5
74
  8
LAYER_1
 62
     1
 66
     1
 10
0.0
 20
0.0
 30
0.0
  0
VERTEX
  5
35A
  8
LAYER_1
 62
     1
 10
-4.908472440944882
 20
0.0641299212598425
 30
0.0
  0
VERTEX
  5
35B
  8
LAYER_1
 62
     1
 10
-4.911744094488189
 20
0.0638070866141732
 30
0.0
  0
VERTEX
  5
35C
  8
LAYER_1
 62
     1
 10
-4.914862204724409
 20
0.0628582677165354
 30
0.0
  0
VERTEX
  5
35D
  8
LAYER_1
 62
     1
 10
-4.917736220472441
 20
0.0613228346456693
 30
0.0
  0
VERTEX
  5
35E
  8
LAYER_1
 62
     1
 10
-4.920275590551181
 20
0.059240157480315
 30
0.0
  0
VERTEX
  5
35F
  8
LAYER_1
 62
     1
 10
-4.922358267716535
 20
0.0566968503937008
 30
0.0
  0
VERTEX
  5
360
  8
LAYER_1
 62
     1
 10
-4.923893700787402
 20
0.0538228346456693
 30
0.0
  0
VERTEX
  5
361
  8
LAYER_1
 62
     1
 10
-4.924842519685039
 20
0.0507086614173228
 30
0.0
  0
VERTEX
  5
362
  8
LAYER_1
 62
     1
 10
-4.925165354330709
 20
0.0474409448818898
 30
0.0
  0
SEQEND
  5
363
  8
LAYER_1
 62
     1
  0
POLYLINE
  5
75
  8
LAYER_1
 62
     1
 66
     1
 10
0.0
 20
0.0
 30
0.0
  0
VERTEX
  5
364
  8
LAYER_1
 62
     1
 10
-4.925165354330709
 20
0.0056968503937008
 30
0.0
  0
VERTEX
  5
365
  8
LAYER_1
 62
     1
 10
-4.924826771653543
 20
0.0023307086614173
 30
0.0
  0
VERTEX
  5
366
  8
LAYER_1
 62
     1
 10
-4.923854330708662
 20
-0.0008031496062992
 30
0.0
  0
VERTEX
  5
367
  8
LAYER_1
 62
     1
 10
-4.922314960629921
 20
-0.0036377952755906
 30
0.0
  0
VERTEX
  5
368
  8
LAYER_1
 62
     1
 10
-4.920275590551181
 20
-0.0061102362204724
 30
0.0
  0
VERTEX
  5
369
  8
LAYER_1
 62
     1
 10
-4.917803149606299
 20
-0.0081496062992126
 30
0.0
  0
VERTEX
  5
36A
  8
LAYER_1
 62
     1
 10
-4.914968503937008
 20
-0.0096889763779528
 30
0.0
  0
VERTEX
  5
36B
  8
LAYER_1
 62
     1
 10
-4.911834645669291
 20
-0.0106614173228346
 30
0.0
  0
VERTEX
  5
36C
  8
LAYER_1
 62
     1
 10
-4.908472440944882
 20
-0.011
 30
0.0
  0
SEQEND
  5
36D
  8
LAYER_1
 62
     1
  0
POLYLINE
  5
76
  8
LAYER_1
 62
     1
 66
     1
 10
0.0
 20
0.0
 30
0.0
 70
     1
  0
VERTEX
  5
36E
  8
LAYER_1
 62
     1
 10
-4.866740157480315
 20
-0.011
 30
0.0
  0
VERTEX
  5
36F
  8
LAYER_1
 62
     1
 10
-4.866740157480315
 20
-0.011
 30
0.0
  0
VERTEX
  5
370
  8
LAYER_1
 62
     1
 10
-4.866740157480315
 20
-0.011
 30
0.0
  0
SEQEND
  5
371
  8
LAYER_1
 62
     1
  0
POLYLINE
  5
77
  8
LAYER_1
 62
     1
 66
     1
 10
0.0
 20
0.0
 30
0.0
  0
VERTEX
  5
372
  8
LAYER_1
 62
     1
 10
-4.866740157480315
 20
-0.011
 30
0.0
  0
VERTEX
  5
373
  8
LAYER_1
 62
     1
 10
-4.841688976377953
 20
0.0641299212598425
 30
0.0
  0
SEQEND
  5
374
  8
LAYER_1
 62
     1
  0
POLYLINE
  5
78
  8
LAYER_1
 62
     1
 66
     1
 10
0.0
 20
0.0
 30
0.0
  0
VERTEX
  5
375
  8
LAYER_1
 62
     1
 10
-4.841688976377953
 20
0.0641299212598425
 30
0.0
  0
VERTEX
  5
376
  8
LAYER_1
 62
     1
 10
-4.816649606299213
 20
-0.011
 30
0.0
  0
SEQEND
  5
377
  8
LAYER_1
 62
     1
  0
POLYLINE
  5
79
  8
LAYER_1
 62
     1
 66
     1
 10
0.0
 20
0.0
 30
0.0
 70
     1
  0
VERTEX
  5
378
  8
LAYER_1
 62
     1
 10
-4.859779527559055
 20
0.0098700787401575
 30
0.0
  0
VERTEX
  5
379
  8
LAYER_1
 62
     1
 10
-4.859779527559055
 20
0.0098700787401575
 30
0.0
  0
VERTEX
  5
37A
  8
LAYER_1
 62
     1
 10
-4.859779527559055
 20
0.0098700787401575
 30
0.0
  0
SEQEND
  5
37B
  8
LAYER_1
 62
     1
  0
POLYLINE
  5
7A
  8
LAYER_1
 62
     1
 66
     1
 10
0.0
 20
0.0
 30
0.0
  0
VERTEX
  5
37C
  8
LAYER_1
 62
     1
 10
-4.859779527559055
 20
0.0098700787401575
 30
0.0
  0
VERTEX
  5
37D
  8
LAYER_1
 62
     1
 10
-4.823606299212599
 20
0.0098700787401575
 30
0.0
  0
SEQEND
  5
37E
  8
LAYER_1
 62
     1
  0
POLYLINE
  5
7B
  8
LAYER_1
 62
     1
 66
     1
 10
0.0
 20
0.0
 30
0.0
 70
     1
  0
VERTEX
  5
37F
  8
LAYER_1
 62
     1
 10
-4.791602362204724
 20
-0.011
 30
0.0
  0
VERTEX
  5
380
  8
LAYER_1
 62
     1
 10
-4.791602362204724
 20
-0.011
 30
0.0
  0
VERTEX
  5
381
  8
LAYER_1
 62
     1
 10
-4.791602362204724
 20
-0.011
 30
0.0
  0
SEQEND
  5
382
  8
LAYER_1
 62
     1
  0
POLYLINE
  5
7C
  8
LAYER_1
 62
     1
 66
     1
 10
0.0
 20
0.0
 30
0.0
  0
VERTEX
  5
383
  8
LAYER_1
 62
     1
 10
-4.791602362204724
 20
-0.011
 30
0.0
  0
VERTEX
  5
384
  8
LAYER_1
 62
     1
 10
-4.791602362204724
 20
0.0641299212598425
 30
0.0
  0
SEQEND
  5
385
  8
LAYER_1
 62
     1
  0
POLYLINE
  5
7D
  8
LAYER_1
 62
     1
 66
     1
 10
0.0
 20
0.0
 30
0.0
 70
     1
  0
VERTEX
  5
386
  8
LAYER_1
 62
     1
 10
-4.791602362204724
 20
0.0641299212598425
 30
0.0
  0
VERTEX
  5
387
  8
LAYER_1
 62
     1
 10
-4.791602362204724
 20
0.0641299212598425
 30
0.0
  0
VERTEX
  5
388
  8
LAYER_1
 62
     1
 10
-4.791602362204724
 20
0.0641299212598425
 30
0.0
  0
SEQEND
  5
389
  8
LAYER_1
 62
     1
  0
POLYLINE
  5
7E
  8
LAYER_1
 62
     1
 66
     1
 10
0.0
 20
0.0
 30
0.0
  0
VERTEX
  5
38A
  8
LAYER_1
 62
     1
 10
-4.791602362204724
 20
0.0641299212598425
 30
0.0
  0
VERTEX
  5
38B
  8
LAYER_1
 62
     1
 10
-4.766562992125984
 20
0.0641299212598425
 30
0.0
  0
SEQEND
  5
38C
  8
LAYER_1
 62
     1
  0
POLYLINE
  5
7F
  8
LAYER_1
 62
     1
 66
     1
 10
0.0
 20
0.0
 30
0.0
 70
     1
  0
VERTEX
  5
38D
  8
LAYER_1
 62
     1
 10
-4.749870078740157
 20
0.0390905511811024
 30
0.0
  0
VERTEX
  5
38E
  8
LAYER_1
 62
     1
 10
-4.749870078740157
 20
0.0390905511811024
 30
0.0
  0
VERTEX
  5
38F
  8
LAYER_1
 62
     1
 10
-4.749870078740157
 20
0.0390905511811024
 30
0.0
  0
SEQEND
  5
390
  8
LAYER_1
 62
     1
  0
POLYLINE
  5
80
  8
LAYER_1
 62
     1
 66
     1
 10
0.0
 20
0.0
 30
0.0
  0
VERTEX
  5
391
  8
LAYER_1
 62
     1
 10
-4.749870078740157
 20
0.0474409448818898
 30
0.0
  0
VERTEX
  5
392
  8
LAYER_1
 62
     1
 10
-4.749870078740157
 20
0.0390905511811024
 30
0.0
  0
SEQEND
  5
393
  8
LAYER_1
 62
     1
  0
POLYLINE
  5
81
  8
LAYER_1
 62
     1
 66
     1
 10
0.0
 20
0.0
 30
0.0
 70
     1
  0
VERTEX
  5
394
  8
LAYER_1
 62
     1
 10
-4.791602362204724
 20
0.0223897637795276
 30
0.0
  0
VERTEX
  5
395
  8
LAYER_1
 62
     1
 10
-4.791602362204724
 20
0.0223897637795276
 30
0.0
  0
VERTEX
  5
396
  8
LAYER_1
 62
     1
 10
-4.791602362204724
 20
0.0223897637795276
 30
0.0
  0
SEQEND
  5
397
  8
LAYER_1
 62
     1
  0
POLYLINE
  5
82
  8
LAYER_1
 62
     1
 66
     1
 10
0.0
 20
0.0
 30
0.0
  0
VERTEX
  5
398
  8
LAYER_1
 62
     1
 10
-4.766562992125984
 20
0.0223897637795276
 30
0.0
  0
VERTEX
  5
399
  8
LAYER_1
 62
     1
 10
-4.791602362204724
 20
0.0223897637795276
 30
0.0
  0
SEQEND
  5
39A
  8
LAYER_1
 62
     1
  0
POLYLINE
  5
83
  8
LAYER_1
 62
     1
 66
     1
 10
0.0
 20
0.0
 30
0.0
  0
VERTEX
  5
39B
  8
LAYER_1
 62
     1
 10
-4.766562992125984
 20
0.0223897637795276
 30
0.0
  0
VERTEX
  5
39C
  8
LAYER_1
 62
     1
 10
-4.749870078740157
 20
-0.011
 30
0.0
  0
SEQEND
  5
39D
  8
LAYER_1
 62
     1
  0
POLYLINE
  5
84
  8
LAYER_1
 62
     1
 66
     1
 10
0.0
 20
0.0
 30
0.0
  0
VERTEX
  5
39E
  8
LAYER_1
 62
     1
 10
-4.749870078740157
 20
0.0474409448818898
 30
0.0
  0
VERTEX
  5
39F
  8
LAYER_1
 62
     1
 10
-4.750192913385827
 20
0.0507086614173228
 30
0.0
  0
VERTEX
  5
3A0
  8
LAYER_1
 62
     1
 10
-4.751141732283465
 20
0.0538228346456693
 30
0.0
  0
VERTEX
  5
3A1
  8
LAYER_1
 62
     1
 10
-4.752673228346457
 20
0.0566968503937008
 30
0.0
  0
VERTEX
  5
3A2
  8
LAYER_1
 62
     1
 10
-4.754759842519685
 20
0.059240157480315
 30
0.0
  0
VERTEX
  5
3A3
  8
LAYER_1
 62
     1
 10
-4.757299212598425
 20
0.0613228346456693
 30
0.0
  0
VERTEX
  5
3A4
  8
LAYER_1
 62
     1
 10
-4.760173228346456
 20
0.0628582677165354
 30
0.0
  0
VERTEX
  5
3A5
  8
LAYER_1
 62
     1
 10
-4.763291338582677
 20
0.0638070866141732
 30
0.0
  0
VERTEX
  5
3A6
  8
LAYER_1
 62
     1
 10
-4.766562992125984
 20
0.0641299212598425
 30
0.0
  0
SEQEND
  5
3A7
  8
LAYER_1
 62
     1
  0
POLYLINE
  5
85
  8
LAYER_1
 62
     1
 66
     1
 10
0.0
 20
0.0
 30
0.0
  0
VERTEX
  5
3A8
  8
LAYER_1
 62
     1
 10
-4.766562992125984
 20
0.0223897637795276
 30
0.0
  0
VERTEX
  5
3A9
  8
LAYER_1
 62
     1
 10
-4.763291338582677
 20
0.0227125984251969
 30
0.0
  0
VERTEX
  5
3AA
  8
LAYER_1
 62
     1
 10
-4.760173228346456
 20
0.0236614173228346
 30
0.0
  0
VERTEX
  5
3AB
  8
LAYER_1
 62
     1
 10
-4.757299212598425
 20
0.0251929133858268
 30
0.0
  0
VERTEX
  5
3AC
  8
LAYER_1
 62
     1
 10
-4.754759842519685
 20
0.0272795275590551
 30
0.0
  0
VERTEX
  5
3AD
  8
LAYER_1
 62
     1
 10
-4.752673228346457
 20
0.0298228346456693
 30
0.0
  0
VERTEX
  5
3AE
  8
LAYER_1
 62
     1
 10
-4.751141732283465
 20
0.0326968503937008
 30
0.0
  0
VERTEX
  5
3AF
  8
LAYER_1
 62
     1
 10
-4.750192913385827
 20
0.0358149606299213
 30
0.0
  0
VERTEX
  5
3B0
  8
LAYER_1
 62
     1
 10
-4.749870078740157
 20
0.0390905511811024
 30
0.0
  0
SEQEND
  5
3B1
  8
LAYER_1
 62
     1
  0
POLYLINE
  5
86
  8
LAYER_1
 62
     1
 66
     1
 10
0.0
 20
0.0
 30
0.0
 70
     1
  0
VERTEX
  5
3B2
  8
LAYER_1
 62
     1
 10
-4.724830708661417
 20
-0.011
 30
0.0
  0
VERTEX
  5
3B3
  8
LAYER_1
 62
     1
 10
-4.724830708661417
 20
-0.011
 30
0.0
  0
VERTEX
  5
3B4
  8
LAYER_1
 62
     1
 10
-4.724830708661417
 20
-0.011
 30
0.0
  0
SEQEND
  5
3B5
  8
LAYER_1
 62
     1
  0
POLYLINE
  5
87
  8
LAYER_1
 62
     1
 66
     1
 10
0.0
 20
0.0
 30
0.0
  0
VERTEX
  5
3B6
  8
LAYER_1
 62
     1
 10
-4.724830708661417
 20
-0.011
 30
0.0
  0
VERTEX
  5
3B7
  8
LAYER_1
 62
     1
 10
-4.699779527559055
 20
-0.011
 30
0.0
  0
SEQEND
  5
3B8
  8
LAYER_1
 62
     1
  0
POLYLINE
  5
88
  8
LAYER_1
 62
     1
 66
     1
 10
0.0
 20
0.0
 30
0.0
 70
     1
  0
VERTEX
  5
3B9
  8
LAYER_1
 62
     1
 10
-4.683086614173228
 20
0.0056968503937008
 30
0.0
  0
VERTEX
  5
3BA
  8
LAYER_1
 62
     1
 10
-4.683086614173228
 20
0.0056968503937008
 30
0.0
  0
VERTEX
  5
3BB
  8
LAYER_1
 62
     1
 10
-4.683086614173228
 20
0.0056968503937008
 30
0.0
  0
SEQEND
  5
3BC
  8
LAYER_1
 62
     1
  0
POLYLINE
  5
89
  8
LAYER_1
 62
     1
 66
     1
 10
0.0
 20
0.0
 30
0.0
  0
VERTEX
  5
3BD
  8
LAYER_1
 62
     1
 10
-4.683086614173228
 20
0.0056968503937008
 30
0.0
  0
VERTEX
  5
3BE
  8
LAYER_1
 62
     1
 10
-4.683086614173228
 20
0.0474409448818898
 30
0.0
  0
SEQEND
  5
3BF
  8
LAYER_1
 62
     1
  0
POLYLINE
  5
8A
  8
LAYER_1
 62
     1
 66
     1
 10
0.0
 20
0.0
 30
0.0
 70
     1
  0
VERTEX
  5
3C0
  8
LAYER_1
 62
     1
 10
-4.724830708661417
 20
0.0641299212598425
 30
0.0
  0
VERTEX
  5
3C1
  8
LAYER_1
 62
     1
 10
-4.724830708661417
 20
0.0641299212598425
 30
0.0
  0
VERTEX
  5
3C2
  8
LAYER_1
 62
     1
 10
-4.724830708661417
 20
0.0641299212598425
 30
0.0
  0
SEQEND
  5
3C3
  8
LAYER_1
 62
     1
  0
POLYLINE
  5
8B
  8
LAYER_1
 62
     1
 66
     1
 10
0.0
 20
0.0
 30
0.0
  0
VERTEX
  5
3C4
  8
LAYER_1
 62
     1
 10
-4.699779527559055
 20
0.0641299212598425
 30
0.0
  0
VERTEX
  5
3C5
  8
LAYER_1
 62
     1
 10
-4.724830708661417
 20
0.0641299212598425
 30
0.0
  0
SEQEND
  5
3C6
  8
LAYER_1
 62
     1
  0
POLYLINE
  5
8C
  8
LAYER_1
 62
     1
 66
     1
 10
0.0
 20
0.0
 30
0.0
 70
     1
  0
VERTEX
  5
3C7
  8
LAYER_1
 62
     1
 10
-4.724830708661417
 20
-0.011
 30
0.0
  0
VERTEX
  5
3C8
  8
LAYER_1
 62
     1
 10
-4.724830708661417
 20
-0.011
 30
0.0
  0
VERTEX
  5
3C9
  8
LAYER_1
 62
     1
 10
-4.724830708661417
 20
-0.011
 30
0.0
  0
SEQEND
  5
3CA
  8
LAYER_1
 62
     1
  0
POLYLINE
  5
8D
  8
LAYER_1
 62
     1
 66
     1
 10
0.0
 20
0.0
 30
0.0
  0
VERTEX
  5
3CB
  8
LAYER_1
 62
     1
 10
-4.724830708661417
 20
0.0641299212598425
 30
0.0
  0
VERTEX
  5
3CC
  8
LAYER_1
 62
     1
 10
-4.724830708661417
 20
-0.011
 30
0.0
  0
SEQEND
  5
3CD
  8
LAYER_1
 62
     1
  0
POLYLINE
  5
8E
  8
LAYER_1
 62
     1
 66
     1
 10
0.0
 20
0.0
 30
0.0
  0
VERTEX
  5
3CE
  8
LAYER_1
 62
     1
 10
-4.699779527559055
 20
-0.011
 30
0.0
  0
VERTEX
  5
3CF
  8
LAYER_1
 62
     1
 10
-4.696511811023622
 20
-0.0106771653543307
 30
0.0
  0
VERTEX
  5
3D0
  8
LAYER_1
 62
     1
 10
-4.693397637795275
 20
-0.0097283464566929
 30
0.0
  0
VERTEX
  5
3D1
  8
LAYER_1
 62
     1
 10
-4.690523622047244
 20
-0.0081929133858268
 30
0.0
  0
VERTEX
  5
3D2
  8
LAYER_1
 62
     1
 10
-4.68798031496063
 20
-0.0061062992125984
 30
0.0
  0
VERTEX
  5
3D3
  8
LAYER_1
 62
     1
 10
-4.685893700787402
 20
-0.0035629921259843
 30
0.0
  0
VERTEX
  5
3D4
  8
LAYER_1
 62
     1
 10
-4.684358267716536
 20
-0.0006889763779528
 30
0.0
  0
VERTEX
  5
3D5
  8
LAYER_1
 62
     1
 10
-4.683409448818898
 20
0.0024251968503937
 30
0.0
  0
VERTEX
  5
3D6
  8
LAYER_1
 62
     1
 10
-4.683086614173228
 20
0.0056968503937008
 30
0.0
  0
SEQEND
  5
3D7
  8
LAYER_1
 62
     1
  0
POLYLINE
  5
8F
  8
LAYER_1
 62
     1
 66
     1
 10
0.0
 20
0.0
 30
0.0
  0
VERTEX
  5
3D8
  8
LAYER_1
 62
     1
 10
-4.683086614173228
 20
0.0474409448818898
 30
0.0
  0
VERTEX
  5
3D9
  8
LAYER_1
 62
     1
 10
-4.683409448818898
 20
0.0507086614173228
 30
0.0
  0
VERTEX
  5
3DA
  8
LAYER_1
 62
     1
 10
-4.684358267716536
 20
0.0538228346456693
 30
0.0
  0
VERTEX
  5
3DB
  8
LAYER_1
 62
     1
 10
-4.685893700787402
 20
0.0566968503937008
 30
0.0
  0
VERTEX
  5
3DC
  8
LAYER_1
 62
     1
 10
-4.68798031496063
 20
0.059240157480315
 30
0.0
  0
VERTEX
  5
3DD
  8
LAYER_1
 62
     1
 10
-4.690523622047244
 20
0.0613228346456693
 30
0.0
  0
VERTEX
  5
3DE
  8
LAYER_1
 62
     1
 10
-4.693397637795275
 20
0.0628582677165354
 30
0.0
  0
VERTEX
  5
3DF
  8
LAYER_1
 62
     1
 10
-4.696511811023622
 20
0.0638070866141732
 30
0.0
  0
VERTEX
  5
3E0
  8
LAYER_1
 62
     1
 10
-4.699779527559055
 20
0.0641299212598425
 30
0.0
  0
SEQEND
  5
3E1
  8
LAYER_1
 62
     1
  0
POLYLINE
  5
90
  8
LAYER_1
 66
     1
 10
0.0
 20
0.0
 30
0.0
 70
     1
  0
VERTEX
  5
3E2
  8
LAYER_1
 10
-7.768570866141732
 20
-0.0765590551181102
 30
0.0
  0
VERTEX
  5
3E3
  8
LAYER_1
 10
-7.05990157480315
 20
-0.0765590551181102
 30
0.0
  0
VERTEX
  5
3E4
  8
LAYER_1
 10
-7.040129921259843
 20
-0.0785669291338583
 30
0.0
  0
VERTEX
  5
3E5
  8
LAYER_1
 10
-7.021685039370078
 20
-0.0843267716535433
 30
0.0
  0
VERTEX
  5
3E6
  8
LAYER_1
 10
-7.004972440944882
 20
-0.0934291338582677
 30
0.0
  0
VERTEX
  5
3E7
  8
LAYER_1
 10
-6.990389763779527
 20
-0.1054724409448819
 30
0.0
  0
VERTEX
  5
3E8
  8
LAYER_1
 10
-6.978346456692913
 20
-0.1200511811023622
 30
0.0
  0
VERTEX
  5
3E9
  8
LAYER_1
 10
-6.969248031496063
 20
-0.1367677165354331
 30
0.0
  0
VERTEX
  5
3EA
  8
LAYER_1
 10
-6.963488188976378
 20
-0.1552125984251969
 30
0.0
  0
VERTEX
  5
3EB
  8
LAYER_1
 10
-6.96148031496063
 20
-0.1749842519685039
 30
0.0
  0
VERTEX
  5
3EC
  8
LAYER_1
 10
-6.96148031496063
 20
-0.1749842519685039
 30
0.0
  0
VERTEX
  5
3ED
  8
LAYER_1
 10
-6.963488188976378
 20
-0.194755905511811
 30
0.0
  0
VERTEX
  5
3EE
  8
LAYER_1
 10
-6.969248031496063
 20
-0.2132007874015748
 30
0.0
  0
VERTEX
  5
3EF
  8
LAYER_1
 10
-6.978346456692913
 20
-0.2299173228346457
 30
0.0
  0
VERTEX
  5
3F0
  8
LAYER_1
 10
-6.990389763779527
 20
-0.244496062992126
 30
0.0
  0
VERTEX
  5
3F1
  8
LAYER_1
 10
-7.004972440944882
 20
-0.2565393700787402
 30
0.0
  0
VERTEX
  5
3F2
  8
LAYER_1
 10
-7.021685039370078
 20
-0.2656417322834645
 30
0.0
  0
VERTEX
  5
3F3
  8
LAYER_1
 10
-7.040129921259843
 20
-0.2714015748031496
 30
0.0
  0
VERTEX
  5
3F4
  8
LAYER_1
 10
-7.05990157480315
 20
-0.2734094488188976
 30
0.0
  0
VERTEX
  5
3F5
  8
LAYER_1
 10
-7.768570866141732
 20
-0.2734094488188976
 30
0.0
  0
VERTEX
  5
3F6
  8
LAYER_1
 10
-7.788342519685039
 20
-0.2714015748031496
 30
0.0
  0
VERTEX
  5
3F7
  8
LAYER_1
 10
-7.806787401574804
 20
-0.2656417322834645
 30
0.0
  0
VERTEX
  5
3F8
  8
LAYER_1
 10
-7.8235
 20
-0.2565393700787402
 30
0.0
  0
VERTEX
  5
3F9
  8
LAYER_1
 10
-7.838082677165354
 20
-0.244496062992126
 30
0.0
  0
VERTEX
  5
3FA
  8
LAYER_1
 10
-7.850125984251968
 20
-0.2299173228346457
 30
0.0
  0
VERTEX
  5
3FB
  8
LAYER_1
 10
-7.859228346456693
 20
-0.2132007874015748
 30
0.0
  0
VERTEX
  5
3FC
  8
LAYER_1
 10
-7.864984251968504
 20
-0.194755905511811
 30
0.0
  0
VERTEX
  5
3FD
  8
LAYER_1
 10
-7.866992125984252
 20
-0.1749842519685039
 30
0.0
  0
VERTEX
  5
3FE
  8
LAYER_1
 10
-7.866992125984252
 20
-0.1749842519685039
 30
0.0
  0
VERTEX
  5
3FF
  8
LAYER_1
 10
-7.864984251968504
 20
-0.1552125984251969
 30
0.0
  0
VERTEX
  5
400
  8
LAYER_1
 10
-7.859228346456693
 20
-0.1367677165354331
 30
0.0
  0
VERTEX
  5
401
  8
LAYER_1
 10
-7.850125984251968
 20
-0.1200511811023622
 30
0.0
  0
VERTEX
  5
402
  8
LAYER_1
 10
-7.838082677165354
 20
-0.1054724409448819
 30
0.0
  0
VERTEX
  5
403
  8
LAYER_1
 10
-7.8235
 20
-0.0934291338582677
 30
0.0
  0
VERTEX
  5
404
  8
LAYER_1
 10
-7.806787401574804
 20
-0.0843267716535433
 30
0.0
  0
VERTEX
  5
405
  8
LAYER_1
 10
-7.788342519685039
 20
-0.0785669291338583
 30
0.0
  0
VERTEX
  5
406
  8
LAYER_1
 10
-7.768570866141732
 20
-0.0765590551181102
 30
0.0
  0
SEQEND
  5
407
  8
LAYER_1
  0
POLYLINE
  5
91
  8
LAYER_1
 66
     1
 10
0.0
 20
0.0
 30
0.0
 70
     1
  0
VERTEX
  5
408
  8
LAYER_1
 10
-4.171850393700788
 20
-0.0880669291338583
 30
0.0
  0
VERTEX
  5
409
  8
LAYER_1
 10
-4.111850393700787
 20
-0.0880669291338583
 30
0.0
  0
VERTEX
  5
40A
  8
LAYER_1
 10
-4.111850393700787
 20
-0.2130669291338583
 30
0.0
  0
VERTEX
  5
40B
  8
LAYER_1
 10
-4.171850393700788
 20
-0.2130669291338583
 30
0.0
  0
VERTEX
  5
40C
  8
LAYER_1
 10
-4.171850393700788
 20
-0.0880669291338583
 30
0.0
  0
SEQEND
  5
40D
  8
LAYER_1
  0
POLYLINE
  5
92
  8
LAYER_1
 66
     1
 10
0.0
 20
0.0
 30
0.0
 70
     1
  0
VERTEX
  5
40E
  8
LAYER_1
 10
-8.627094488188977
 20
-0.3439488188976378
 30
0.0
  0
VERTEX
  5
40F
  8
LAYER_1
 10
-8.687094488188976
 20
-0.3439488188976378
 30
0.0
  0
VERTEX
  5
410
  8
LAYER_1
 10
-8.687094488188976
 20
-0.4689488188976378
 30
0.0
  0
VERTEX
  5
411
  8
LAYER_1
 10
-8.627094488188977
 20
-0.4689488188976378
 30
0.0
  0
VERTEX
  5
412
  8
LAYER_1
 10
-8.627094488188977
 20
-0.3439488188976378
 30
0.0
  0
SEQEND
  5
413
  8
LAYER_1
  0
POLYLINE
  5
93
  8
LAYER_1
 66
     1
 10
0.0
 20
0.0
 30
0.0
 70
     1
  0
VERTEX
  5
414
  8
LAYER_1
 10
-7.045141732283464
 20
2.948606299212599
 30
0.0
  0
VERTEX
  5
415
  8
LAYER_1
 10
-7.045141732283464
 20
2.649385826771653
 30
0.0
  0
VERTEX
  5
416
  8
LAYER_1
 10
-5.607255905511811
 20
2.649385826771653
 30
0.0
  0
VERTEX
  5
417
  8
LAYER_1
 10
-5.607255905511811
 20
2.485035433070866
 30
0.0
  0
VERTEX
  5
418
  8
LAYER_1
 10
-7.175562992125984
 20
2.485035433070866
 30
0.0
  0
VERTEX
  5
419
  8
LAYER_1
 10
-7.175562992125984
 20
2.649385826771653
 30
0.0
  0
VERTEX
  5
41A
  8
LAYER_1
 10
-7.387661417322835
 20
2.649385826771653
 30
0.0
  0
VERTEX
  5
41B
  8
LAYER_1
 10
-7.387661417322835
 20
2.224192913385827
 30
0.0
  0
VERTEX
  5
41C
  8
LAYER_1
 10
-7.682937007874016
 20
2.224192913385827
 30
0.0
  0
VERTEX
  5
41D
  8
LAYER_1
 10
-7.682937007874016
 20
2.948606299212599
 30
0.0
  0
VERTEX
  5
41E
  8
LAYER_1
 10
-8.804984251968504
 20
2.948606299212599
 30
0.0
  0
VERTEX
  5
41F
  8
LAYER_1
 10
-8.804984251968504
 20
2.787196850393701
 30
0.0
  0
VERTEX
  5
420
  8
LAYER_1
 10
-8.923094488188976
 20
2.787196850393701
 30
0.0
  0
VERTEX
  5
421
  8
LAYER_1
 10
-8.923094488188976
 20
2.287196850393701
 30
0.0
  0
VERTEX
  5
422
  8
LAYER_1
 10
-8.804984251968504
 20
2.287196850393701
 30
0.0
  0
VERTEX
  5
423
  8
LAYER_1
 10
-8.804984251968504
 20
0.9879842519685039
 30
0.0
  0
VERTEX
  5
424
  8
LAYER_1
 10
-8.923094488188976
 20
0.9879842519685039
 30
0.0
  0
VERTEX
  5
425
  8
LAYER_1
 10
-8.923094488188976
 20
0.4879842519685039
 30
0.0
  0
VERTEX
  5
426
  8
LAYER_1
 10
-8.804984251968504
 20
0.4879842519685039
 30
0.0
  0
VERTEX
  5
427
  8
LAYER_1
 10
-8.804984251968504
 20
0.3265590551181102
 30
0.0
  0
VERTEX
  5
428
  8
LAYER_1
 10
-3.99396062992126
 20
0.3265590551181102
 30
0.0
  0
VERTEX
  5
429
  8
LAYER_1
 10
-3.99396062992126
 20
0.4879842519685039
 30
0.0
  0
VERTEX
  5
42A
  8
LAYER_1
 10
-3.875850393700787
 20
0.4879842519685039
 30
0.0
  0
VERTEX
  5
42B
  8
LAYER_1
 10
-3.875850393700787
 20
0.9879842519685039
 30
0.0
  0
VERTEX
  5
42C
  8
LAYER_1
 10
-3.99396062992126
 20
0.9879842519685039
 30
0.0
  0
VERTEX
  5
42D
  8
LAYER_1
 10
-3.99396062992126
 20
2.287196850393701
 30
0.0
  0
VERTEX
  5
42E
  8
LAYER_1
 10
-3.875850393700787
 20
2.287196850393701
 30
0.0
  0
VERTEX
  5
42F
  8
LAYER_1
 10
-3.875850393700787
 20
2.787196850393701
 30
0.0
  0
VERTEX
  5
430
  8
LAYER_1
 10
-3.99396062992126
 20
2.787196850393701
 30
0.0
  0
VERTEX
  5
431
  8
LAYER_1
 10
-3.99396062992126
 20
2.948606299212599
 30
0.0
  0
VERTEX
  5
432
  8
LAYER_1
 10
-7.045141732283464
 20
2.948606299212599
 30
0.0
  0
SEQEND
  5
433
  8
LAYER_1
  0
POLYLINE
  5
94
  8
LAYER_1
 66
     1
 10
0.0
 20
0.0
 30
0.0
 70
     1
  0
VERTEX
  5
434
  8
LAYER_1
 10
-5.195181102362205
 20
0.3789685039370079
 30
0.0
  0
VERTEX
  5
435
  8
LAYER_1
 10
-5.523114173228347
 20
0.3789685039370079
 30
0.0
  0
VERTEX
  5
436
  8
LAYER_1
 10
-5.523114173228347
 20
0.4989685039370079
 30
0.0
  0
VERTEX
  5
437
  8
LAYER_1
 10
-5.195181102362205
 20
0.4989685039370079
 30
0.0
  0
VERTEX
  5
438
  8
LAYER_1
 10
-5.195181102362205
 20
0.3789685039370079
 30
0.0
  0
SEQEND
  5
439
  8
LAYER_1
  0
POLYLINE
  5
95
  8
LAYER_1
 66
     1
 10
0.0
 20
0.0
 30
0.0
 70
     1
  0
VERTEX
  5
43A
  8
LAYER_1
 10
-7.029625984251968
 20
1.40338188976378
 30
0.0
  0
VERTEX
  5
43B
  8
LAYER_1
 10
-7.249625984251969
 20
1.40338188976378
 30
0.0
  0
VERTEX
  5
43C
  8
LAYER_1
 10
-7.249625984251969
 20
1.71338188976378
 30
0.0
  0
VERTEX
  5
43D
  8
LAYER_1
 10
-7.029625984251968
 20
1.71338188976378
 30
0.0
  0
VERTEX
  5
43E
  8
LAYER_1
 10
-7.029625984251968
 20
1.40338188976378
 30
0.0
  0
SEQEND
  5
43F
  8
LAYER_1
  0
POLYLINE
  5
96
  8
LAYER_1
 66
     1
 10
0.0
 20
0.0
 30
0.0
 70
     1
  0
VERTEX
  5
440
  8
LAYER_1
 10
-5.161082677165354
 20
0.9348622047244094
 30
0.0
  0
VERTEX
  5
441
  8
LAYER_1
 10
-5.161082677165354
 20
0.7348622047244094
 30
0.0
  0
VERTEX
  5
442
  8
LAYER_1
 10
-5.251381889763779
 20
0.7348582677165354
 30
0.0
  0
VERTEX
  5
443
  8
LAYER_1
 10
-5.251381889763779
 20
0.5642086614173228
 30
0.0
  0
VERTEX
  5
444
  8
LAYER_1
 10
-7.163562992125985
 20
0.5646456692913386
 30
0.0
  0
VERTEX
  5
445
  8
LAYER_1
 10
-7.163562992125985
 20
0.7352952755905512
 30
0.0
  0
VERTEX
  5
446
  8
LAYER_1
 10
-5.481082677165355
 20
0.7348700787401575
 30
0.0
  0
VERTEX
  5
447
  8
LAYER_1
 10
-5.481082677165355
 20
0.9348622047244094
 30
0.0
  0
VERTEX
  5
448
  8
LAYER_1
 10
-5.481082677165355
 20
1.146862204724409
 30
0.0
  0
VERTEX
  5
449
  8
LAYER_1
 10
-5.271082677165355
 20
1.146862204724409
 30
0.0
  0
VERTEX
  5
44A
  8
LAYER_1
 10
-5.271082677165355
 20
0.9348622047244094
 30
0.0
  0
VERTEX
  5
44B
  8
LAYER_1
 10
-5.161082677165354
 20
0.9348622047244094
 30
0.0
  0
SEQEND
  5
44C
  8
LAYER_1
  0
POLYLINE
  5
97
  8
LAYER_1
 66
     1
 10
0.0
 20
0.0
 30
0.0
 70
     1
  0
VERTEX
  5
44D
  8
LAYER_1
 10
-5.023275590551181
 20
0.8922165354330709
 30
0.0
  0
VERTEX
  5
44E
  8
LAYER_1
 10
-5.023275590551181
 20
1.010216535433071
 30
0.0
  0
VERTEX
  5
44F
  8
LAYER_1
 10
-4.905275590551181
 20
1.010216535433071
 30
0.0
  0
VERTEX
  5
450
  8
LAYER_1
 10
-4.905275590551181
 20
0.8922165354330709
 30
0.0
  0
VERTEX
  5
451
  8
LAYER_1
 10
-5.023275590551181
 20
0.8922165354330709
 30
0.0
  0
SEQEND
  5
452
  8
LAYER_1
  0
POLYLINE
  5
98
  8
LAYER_1
 66
     1
 10
0.0
 20
0.0
 30
0.0
 70
     1
  0
VERTEX
  5
453
  8
LAYER_1
 10
-5.023275590551181
 20
0.6802244094488189
 30
0.0
  0
VERTEX
  5
454
  8
LAYER_1
 10
-5.023275590551181
 20
0.7982244094488189
 30
0.0
  0
VERTEX
  5
455
  8
LAYER_1
 10
-4.905275590551181
 20
0.7982244094488189
 30
0.0
  0
VERTEX
  5
456
  8
LAYER_1
 10
-4.905275590551181
 20
0.6802244094488189
 30
0.0
  0
VERTEX
  5
457
  8
LAYER_1
 10
-5.023275590551181
 20
0.6802244094488189
 30
0.0
  0
SEQEND
  5
458
  8
LAYER_1
  0
POLYLINE
  5
99
  8
LAYER_1
 66
     1
 10
0.0
 20
0.0
 30
0.0
 70
     1
  0
VERTEX
  5
459
  8
LAYER_1
 10
-5.023275590551181
 20
0.4682874015748031
 30
0.0
  0
VERTEX
  5
45A
  8
LAYER_1
 10
-5.023275590551181
 20
0.5862874015748032
 30
0.0
  0
VERTEX
  5
45B
  8
LAYER_1
 10
-4.905275590551181
 20
0.5862874015748032
 30
0.0
  0
VERTEX
  5
45C
  8
LAYER_1
 10
-4.905275590551181
 20
0.4682874015748031
 30
0.0
  0
VERTEX
  5
45D
  8
LAYER_1
 10
-5.023275590551181
 20
0.4682874015748031
 30
0.0
  0
SEQEND
  5
45E
  8
LAYER_1
  0
POLYLINE
  5
9A
  8
LAYER_1
 62
     1
 66
     1
 10
0.0
 20
0.0
 30
0.0
  0
VERTEX
  5
45F
  8
LAYER_1
 62
     1
 10
-4.800271653543307
 20
0.4899133858267716
 30
0.0
  0
VERTEX
  5
460
  8
LAYER_1
 62
     1
 10
-4.800271653543307
 20
0.5646653543307086
 30
0.0
  0
VERTEX
  5
461
  8
LAYER_1
 62
     1
 10
-4.775354330708661
 20
0.5231377952755906
 30
0.0
  0
VERTEX
  5
462
  8
LAYER_1
 62
     1
 10
-4.750440944881889
 20
0.5646653543307086
 30
0.0
  0
VERTEX
  5
463
  8
LAYER_1
 62
     1
 10
-4.750440944881889
 20
0.4899133858267716
 30
0.0
  0
SEQEND
  5
464
  8
LAYER_1
 62
     1
  0
POLYLINE
  5
9B
  8
LAYER_1
 62
     1
 66
     1
 10
0.0
 20
0.0
 30
0.0
  0
VERTEX
  5
465
  8
LAYER_1
 62
     1
 10
-4.600937007874016
 20
0.5646653543307086
 30
0.0
  0
VERTEX
  5
466
  8
LAYER_1
 62
     1
 10
-4.600937007874016
 20
0.5106771653543307
 30
0.0
  0
VERTEX
  5
467
  8
LAYER_1
 62
     1
 10
-4.600515748031496
 20
0.506492125984252
 30
0.0
  0
VERTEX
  5
468
  8
LAYER_1
 62
     1
 10
-4.599303149606299
 20
0.5025944881889763
 30
0.0
  0
VERTEX
  5
469
  8
LAYER_1
 62
     1
 10
-4.597389763779527
 20
0.4990669291338583
 30
0.0
  0
VERTEX
  5
46A
  8
LAYER_1
 62
     1
 10
-4.594854330708661
 20
0.495996062992126
 30
0.0
  0
VERTEX
  5
46B
  8
LAYER_1
 62
     1
 10
-4.591779527559055
 20
0.4934606299212598
 30
0.0
  0
VERTEX
  5
46C
  8
LAYER_1
 62
     1
 10
-4.588255905511811
 20
0.4915472440944882
 30
0.0
  0
VERTEX
  5
46D
  8
LAYER_1
 62
     1
 10
-4.584358267716535
 20
0.4903385826771653
 30
0.0
  0
VERTEX
  5
46E
  8
LAYER_1
 62
     1
 10
-4.580173228346457
 20
0.4899173228346457
 30
0.0
  0
VERTEX
  5
46F
  8
LAYER_1
 62
     1
 10
-4.575988188976378
 20
0.4903385826771653
 30
0.0
  0
VERTEX
  5
470
  8
LAYER_1
 62
     1
 10
-4.572090551181103
 20
0.4915472440944882
 30
0.0
  0
VERTEX
  5
471
  8
LAYER_1
 62
     1
 10
-4.568562992125984
 20
0.4934606299212598
 30
0.0
  0
VERTEX
  5
472
  8
LAYER_1
 62
     1
 10
-4.565492125984252
 20
0.495996062992126
 30
0.0
  0
VERTEX
  5
473
  8
LAYER_1
 62
     1
 10
-4.562956692913386
 20
0.4990669291338583
 30
0.0
  0
VERTEX
  5
474
  8
LAYER_1
 62
     1
 10
-4.56103937007874
 20
0.5025944881889763
 30
0.0
  0
VERTEX
  5
475
  8
LAYER_1
 62
     1
 10
-4.559830708661417
 20
0.506492125984252
 30
0.0
  0
VERTEX
  5
476
  8
LAYER_1
 62
     1
 10
-4.559409448818897
 20
0.5106771653543307
 30
0.0
  0
VERTEX
  5
477
  8
LAYER_1
 62
     1
 10
-4.559409448818897
 20
0.5646653543307086
 30
0.0
  0
SEQEND
  5
478
  8
LAYER_1
 62
     1
  0
POLYLINE
  5
9C
  8
LAYER_1
 62
     1
 66
     1
 10
0.0
 20
0.0
 30
0.0
  0
VERTEX
  5
479
  8
LAYER_1
 62
     1
 10
-4.66738188976378
 20
0.4899133858267716
 30
0.0
  0
VERTEX
  5
47A
  8
LAYER_1
 62
     1
 10
-4.66738188976378
 20
0.5646653543307086
 30
0.0
  0
VERTEX
  5
47B
  8
LAYER_1
 62
     1
 10
-4.625854330708662
 20
0.4899133858267716
 30
0.0
  0
VERTEX
  5
47C
  8
LAYER_1
 62
     1
 10
-4.625854330708662
 20
0.5646653543307086
 30
0.0
  0
SEQEND
  5
47D
  8
LAYER_1
 62
     1
  0
POLYLINE
  5
9D
  8
LAYER_1
 62
     1
 66
     1
 10
0.0
 20
0.0
 30
0.0
  0
VERTEX
  5
47E
  8
LAYER_1
 62
     1
 10
-4.692299212598425
 20
0.5646653543307086
 30
0.0
  0
VERTEX
  5
47F
  8
LAYER_1
 62
     1
 10
-4.72551968503937
 20
0.5646653543307086
 30
0.0
  0
VERTEX
  5
480
  8
LAYER_1
 62
     1
 10
-4.72551968503937
 20
0.4899133858267716
 30
0.0
  0
VERTEX
  5
481
  8
LAYER_1
 62
     1
 10
-4.692299212598425
 20
0.4899133858267716
 30
0.0
  0
SEQEND
  5
482
  8
LAYER_1
 62
     1
  0
POLYLINE
  5
9E
  8
LAYER_1
 62
     1
 66
     1
 10
0.0
 20
0.0
 30
0.0
  0
VERTEX
  5
483
  8
LAYER_1
 62
     1
 10
-4.72551968503937
 20
0.5314409448818898
 30
0.0
  0
VERTEX
  5
484
  8
LAYER_1
 62
     1
 10
-4.700602362204725
 20
0.5314409448818898
 30
0.0
  0
SEQEND
  5
485
  8
LAYER_1
 62
     1
  0
POLYLINE
  5
9F
  8
LAYER_1
 62
     1
 66
     1
 10
0.0
 20
0.0
 30
0.0
  0
VERTEX
  5
486
  8
LAYER_1
 62
     1
 10
-4.800271653543307
 20
0.7433779527559055
 30
0.0
  0
VERTEX
  5
487
  8
LAYER_1
 62
     1
 10
-4.758744094488189
 20
0.7433779527559055
 30
0.0
  0
SEQEND
  5
488
  8
LAYER_1
 62
     1
  0
POLYLINE
  5
A0
  8
LAYER_1
 62
     1
 66
     1
 10
0.0
 20
0.0
 30
0.0
  0
VERTEX
  5
489
  8
LAYER_1
 62
     1
 10
-4.559409448818897
 20
0.7765984251968504
 30
0.0
  0
VERTEX
  5
48A
  8
LAYER_1
 62
     1
 10
-4.592629921259842
 20
0.7765984251968504
 30
0.0
  0
VERTEX
  5
48B
  8
LAYER_1
 62
     1
 10
-4.592629921259842
 20
0.7018503937007874
 30
0.0
  0
VERTEX
  5
48C
  8
LAYER_1
 62
     1
 10
-4.559409448818897
 20
0.7018503937007874
 30
0.0
  0
SEQEND
  5
48D
  8
LAYER_1
 62
     1
  0
POLYLINE
  5
A1
  8
LAYER_1
 62
     1
 66
     1
 10
0.0
 20
0.0
 30
0.0
  0
VERTEX
  5
48E
  8
LAYER_1
 62
     1
 10
-4.592629921259842
 20
0.7433779527559055
 30
0.0
  0
VERTEX
  5
48F
  8
LAYER_1
 62
     1
 10
-4.567712598425197
 20
0.7433779527559055
 30
0.0
  0
SEQEND
  5
490
  8
LAYER_1
 62
     1
  0
POLYLINE
  5
A2
  8
LAYER_1
 62
     1
 66
     1
 10
0.0
 20
0.0
 30
0.0
  0
VERTEX
  5
491
  8
LAYER_1
 62
     1
 10
-4.66738188976378
 20
0.7018503937007874
 30
0.0
  0
VERTEX
  5
492
  8
LAYER_1
 62
     1
 10
-4.66738188976378
 20
0.7765984251968504
 30
0.0
  0
VERTEX
  5
493
  8
LAYER_1
 62
     1
 10
-4.642464566929134
 20
0.7350748031496063
 30
0.0
  0
VERTEX
  5
494
  8
LAYER_1
 62
     1
 10
-4.617547244094488
 20
0.7765984251968504
 30
0.0
  0
VERTEX
  5
495
  8
LAYER_1
 62
     1
 10
-4.617547244094488
 20
0.7018503937007874
 30
0.0
  0
SEQEND
  5
496
  8
LAYER_1
 62
     1
  0
POLYLINE
  5
A3
  8
LAYER_1
 62
     1
 66
     1
 10
0.0
 20
0.0
 30
0.0
  0
VERTEX
  5
497
  8
LAYER_1
 62
     1
 10
-4.758744094488189
 20
0.7018503937007874
 30
0.0
  0
VERTEX
  5
498
  8
LAYER_1
 62
     1
 10
-4.758744094488189
 20
0.7765984251968504
 30
0.0
  0
SEQEND
  5
499
  8
LAYER_1
 62
     1
  0
POLYLINE
  5
A4
  8
LAYER_1
 62
     1
 66
     1
 10
0.0
 20
0.0
 30
0.0
  0
VERTEX
  5
49A
  8
LAYER_1
 62
     1
 10
-4.800271653543307
 20
0.7765984251968504
 30
0.0
  0
VERTEX
  5
49B
  8
LAYER_1
 62
     1
 10
-4.800271653543307
 20
0.7018503937007874
 30
0.0
  0
SEQEND
  5
49C
  8
LAYER_1
 62
     1
  0
POLYLINE
  5
A5
  8
LAYER_1
 62
     1
 66
     1
 10
0.0
 20
0.0
 30
0.0
 70
     1
  0
VERTEX
  5
49D
  8
LAYER_1
 62
     1
 10
-4.717216535433071
 20
0.7018503937007874
 30
0.0
  0
VERTEX
  5
49E
  8
LAYER_1
 62
     1
 10
-4.720472440944881
 20
0.7021732283464567
 30
0.0
  0
VERTEX
  5
49F
  8
LAYER_1
 62
     1
 10
-4.723574803149607
 20
0.7031141732283465
 30
0.0
  0
VERTEX
  5
4A0
  8
LAYER_1
 62
     1
 10
-4.726433070866142
 20
0.7046417322834646
 30
0.0
  0
VERTEX
  5
4A1
  8
LAYER_1
 62
     1
 10
-4.72896062992126
 20
0.7067165354330709
 30
0.0
  0
VERTEX
  5
4A2
  8
LAYER_1
 62
     1
 10
-4.731035433070866
 20
0.7092440944881889
 30
0.0
  0
VERTEX
  5
4A3
  8
LAYER_1
 62
     1
 10
-4.732562992125985
 20
0.7121062992125984
 30
0.0
  0
VERTEX
  5
4A4
  8
LAYER_1
 62
     1
 10
-4.733503937007874
 20
0.7152047244094488
 30
0.0
  0
VERTEX
  5
4A5
  8
LAYER_1
 62
     1
 10
-4.733826771653543
 20
0.7184606299212598
 30
0.0
  0
VERTEX
  5
4A6
  8
LAYER_1
 62
     1
 10
-4.733826771653543
 20
0.759988188976378
 30
0.0
  0
VERTEX
  5
4A7
  8
LAYER_1
 62
     1
 10
-4.733503937007874
 20
0.763244094488189
 30
0.0
  0
VERTEX
  5
4A8
  8
LAYER_1
 62
     1
 10
-4.732562992125985
 20
0.7663464566929133
 30
0.0
  0
VERTEX
  5
4A9
  8
LAYER_1
 62
     1
 10
-4.731035433070866
 20
0.7692047244094489
 30
0.0
  0
VERTEX
  5
4AA
  8
LAYER_1
 62
     1
 10
-4.72896062992126
 20
0.771736220472441
 30
0.0
  0
VERTEX
  5
4AB
  8
LAYER_1
 62
     1
 10
-4.726433070866142
 20
0.7738110236220472
 30
0.0
  0
VERTEX
  5
4AC
  8
LAYER_1
 62
     1
 10
-4.723574803149607
 20
0.7753346456692913
 30
0.0
  0
VERTEX
  5
4AD
  8
LAYER_1
 62
     1
 10
-4.720472440944881
 20
0.7762755905511811
 30
0.0
  0
VERTEX
  5
4AE
  8
LAYER_1
 62
     1
 10
-4.717216535433071
 20
0.7765984251968504
 30
0.0
  0
VERTEX
  5
4AF
  8
LAYER_1
 62
     1
 10
-4.708909448818898
 20
0.7765984251968504
 30
0.0
  0
VERTEX
  5
4B0
  8
LAYER_1
 62
     1
 10
-4.705653543307086
 20
0.7762755905511811
 30
0.0
  0
VERTEX
  5
4B1
  8
LAYER_1
 62
     1
 10
-4.702555118110237
 20
0.7753346456692913
 30
0.0
  0
VERTEX
  5
4B2
  8
LAYER_1
 62
     1
 10
-4.699692913385827
 20
0.7738110236220472
 30
0.0
  0
VERTEX
  5
4B3
  8
LAYER_1
 62
     1
 10
-4.697165354330709
 20
0.771736220472441
 30
0.0
  0
VERTEX
  5
4B4
  8
LAYER_1
 62
     1
 10
-4.695090551181102
 20
0.7692047244094489
 30
0.0
  0
VERTEX
  5
4B5
  8
LAYER_1
 62
     1
 10
-4.693562992125984
 20
0.7663464566929133
 30
0.0
  0
VERTEX
  5
4B6
  8
LAYER_1
 62
     1
 10
-4.692622047244095
 20
0.763244094488189
 30
0.0
  0
VERTEX
  5
4B7
  8
LAYER_1
 62
     1
 10
-4.692299212598425
 20
0.759988188976378
 30
0.0
  0
VERTEX
  5
4B8
  8
LAYER_1
 62
     1
 10
-4.692299212598425
 20
0.7184606299212598
 30
0.0
  0
VERTEX
  5
4B9
  8
LAYER_1
 62
     1
 10
-4.692637795275591
 20
0.7151141732283465
 30
0.0
  0
VERTEX
  5
4BA
  8
LAYER_1
 62
     1
 10
-4.693606299212599
 20
0.711996062992126
 30
0.0
  0
VERTEX
  5
4BB
  8
LAYER_1
 62
     1
 10
-4.69513779527559
 20
0.7091732283464567
 30
0.0
  0
VERTEX
  5
4BC
  8
LAYER_1
 62
     1
 10
-4.697165354330709
 20
0.7067165354330709
 30
0.0
  0
VERTEX
  5
4BD
  8
LAYER_1
 62
     1
 10
-4.699622047244095
 20
0.7046889763779528
 30
0.0
  0
VERTEX
  5
4BE
  8
LAYER_1
 62
     1
 10
-4.702444881889764
 20
0.7031574803149606
 30
0.0
  0
VERTEX
  5
4BF
  8
LAYER_1
 62
     1
 10
-4.705562992125985
 20
0.7021889763779527
 30
0.0
  0
VERTEX
  5
4C0
  8
LAYER_1
 62
     1
 10
-4.708909448818898
 20
0.7018503937007874
 30
0.0
  0
VERTEX
  5
4C1
  8
LAYER_1
 62
     1
 10
-4.717216535433071
 20
0.7018503937007874
 30
0.0
  0
VERTEX
  5
4C2
  8
LAYER_1
 62
     1
 10
-4.717216535433071
 20
0.7018503937007874
 30
0.0
  0
SEQEND
  5
4C3
  8
LAYER_1
 62
     1
  0
POLYLINE
  5
A6
  8
LAYER_1
 62
     1
 66
     1
 10
0.0
 20
0.0
 30
0.0
  0
VERTEX
  5
4C4
  8
LAYER_1
 62
     1
 10
-4.779507874015748
 20
0.9553700787401574
 30
0.0
  0
VERTEX
  5
4C5
  8
LAYER_1
 62
     1
 10
-4.776161417322835
 20
0.9557086614173228
 30
0.0
  0
VERTEX
  5
4C6
  8
LAYER_1
 62
     1
 10
-4.773043307086614
 20
0.9566771653543307
 30
0.0
  0
VERTEX
  5
4C7
  8
LAYER_1
 62
     1
 10
-4.770220472440945
 20
0.9582086614173229
 30
0.0
  0
VERTEX
  5
4C8
  8
LAYER_1
 62
     1
 10
-4.767763779527559
 20
0.960236220472441
 30
0.0
  0
VERTEX
  5
4C9
  8
LAYER_1
 62
     1
 10
-4.765736220472441
 20
0.9626968503937008
 30
0.0
  0
VERTEX
  5
4CA
  8
LAYER_1
 62
     1
 10
-4.764204724409449
 20
0.96551968503937
 30
0.0
  0
VERTEX
  5
4CB
  8
LAYER_1
 62
     1
 10
-4.763236220472441
 20
0.9686377952755906
 30
0.0
  0
VERTEX
  5
4CC
  8
LAYER_1
 62
     1
 10
-4.762897637795276
 20
0.9719842519685039
 30
0.0
  0
VERTEX
  5
4CD
  8
LAYER_1
 62
     1
 10
-4.763236220472441
 20
0.9753307086614174
 30
0.0
  0
VERTEX
  5
4CE
  8
LAYER_1
 62
     1
 10
-4.764204724409449
 20
0.9784488188976378
 30
0.0
  0
VERTEX
  5
4CF
  8
LAYER_1
 62
     1
 10
-4.765736220472441
 20
0.981271653543307
 30
0.0
  0
VERTEX
  5
4D0
  8
LAYER_1
 62
     1
 10
-4.767763779527559
 20
0.9837283464566929
 30
0.0
  0
VERTEX
  5
4D1
  8
LAYER_1
 62
     1
 10
-4.770220472440945
 20
0.985755905511811
 30
0.0
  0
VERTEX
  5
4D2
  8
LAYER_1
 62
     1
 10
-4.773043307086614
 20
0.9872874015748031
 30
0.0
  0
VERTEX
  5
4D3
  8
LAYER_1
 62
     1
 10
-4.776161417322835
 20
0.988255905511811
 30
0.0
  0
VERTEX
  5
4D4
  8
LAYER_1
 62
     1
 10
-4.779507874015748
 20
0.9885944881889763
 30
0.0
  0
VERTEX
  5
4D5
  8
LAYER_1
 62
     1
 10
-4.800271653543307
 20
0.9885944881889763
 30
0.0
  0
VERTEX
  5
4D6
  8
LAYER_1
 62
     1
 10
-4.800271653543307
 20
0.9138464566929134
 30
0.0
  0
VERTEX
  5
4D7
  8
LAYER_1
 62
     1
 10
-4.77867716535433
 20
0.9138464566929134
 30
0.0
  0
VERTEX
  5
4D8
  8
LAYER_1
 62
     1
 10
-4.774661417322835
 20
0.914251968503937
 30
0.0
  0
VERTEX
  5
4D9
  8
LAYER_1
 62
     1
 10
-4.770917322834646
 20
0.9154133858267717
 30
0.0
  0
VERTEX
  5
4DA
  8
LAYER_1
 62
     1
 10
-4.767531496062992
 20
0.917251968503937
 30
0.0
  0
VERTEX
  5
4DB
  8
LAYER_1
 62
     1
 10
-4.764582677165355
 20
0.9196850393700787
 30
0.0
  0
VERTEX
  5
4DC
  8
LAYER_1
 62
     1
 10
-4.762149606299213
 20
0.9226338582677165
 30
0.0
  0
VERTEX
  5
4DD
  8
LAYER_1
 62
     1
 10
-4.760311023622047
 20
0.92601968503937
 30
0.0
  0
VERTEX
  5
4DE
  8
LAYER_1
 62
     1
 10
-4.759149606299212
 20
0.9297637795275591
 30
0.0
  0
VERTEX
  5
4DF
  8
LAYER_1
 62
     1
 10
-4.758744094488189
 20
0.9337795275590551
 30
0.0
  0
VERTEX
  5
4E0
  8
LAYER_1
 62
     1
 10
-4.758744094488189
 20
0.9354409448818898
 30
0.0
  0
VERTEX
  5
4E1
  8
LAYER_1
 62
     1
 10
-4.759129921259842
 20
0.9393464566929134
 30
0.0
  0
VERTEX
  5
4E2
  8
LAYER_1
 62
     1
 10
-4.760259842519685
 20
0.9430669291338583
 30
0.0
  0
VERTEX
  5
4E3
  8
LAYER_1
 62
     1
 10
-4.762094488188977
 20
0.9465
 30
0.0
  0
VERTEX
  5
4E4
  8
LAYER_1
 62
     1
 10
-4.764582677165355
 20
0.9495354330708662
 30
0.0
  0
VERTEX
  5
4E5
  8
LAYER_1
 62
     1
 10
-4.767618110236221
 20
0.9520236220472441
 30
0.0
  0
VERTEX
  5
4E6
  8
LAYER_1
 62
     1
 10
-4.771047244094488
 20
0.9538543307086614
 30
0.0
  0
VERTEX
  5
4E7
  8
LAYER_1
 62
     1
 10
-4.774771653543307
 20
0.9549842519685039
 30
0.0
  0
VERTEX
  5
4E8
  8
LAYER_1
 62
     1
 10
-4.77867716535433
 20
0.9553700787401574
 30
0.0
  0
VERTEX
  5
4E9
  8
LAYER_1
 62
     1
 10
-4.800271653543307
 20
0.9553700787401574
 30
0.0
  0
SEQEND
  5
4EA
  8
LAYER_1
 62
     1
  0
POLYLINE
  5
A7
  8
LAYER_1
 62
     1
 66
     1
 10
0.0
 20
0.0
 30
0.0
  0
VERTEX
  5
4EB
  8
LAYER_1
 62
     1
 10
-4.600937007874016
 20
0.9885944881889763
 30
0.0
  0
VERTEX
  5
4EC
  8
LAYER_1
 62
     1
 10
-4.600937007874016
 20
0.9138464566929134
 30
0.0
  0
SEQEND
  5
4ED
  8
LAYER_1
 62
     1
  0
POLYLINE
  5
A8
  8
LAYER_1
 62
     1
 66
     1
 10
0.0
 20
0.0
 30
0.0
  0
VERTEX
  5
4EE
  8
LAYER_1
 62
     1
 10
-4.587055118110237
 20
0.9581850393700787
 30
0.0
  0
VERTEX
  5
4EF
  8
LAYER_1
 62
     1
 10
-4.559405511811024
 20
0.9138464566929134
 30
0.0
  0
SEQEND
  5
4F0
  8
LAYER_1
 62
     1
  0
POLYLINE
  5
A9
  8
LAYER_1
 62
     1
 66
     1
 10
0.0
 20
0.0
 30
0.0
  0
VERTEX
  5
4F1
  8
LAYER_1
 62
     1
 10
-4.600937007874016
 20
0.9429133858267716
 30
0.0
  0
VERTEX
  5
4F2
  8
LAYER_1
 62
     1
 10
-4.559405511811024
 20
0.9885944881889763
 30
0.0
  0
SEQEND
  5
4F3
  8
LAYER_1
 62
     1
  0
POLYLINE
  5
AA
  8
LAYER_1
 62
     1
 66
     1
 10
0.0
 20
0.0
 30
0.0
  0
VERTEX
  5
4F4
  8
LAYER_1
 62
     1
 10
-4.625850393700787
 20
0.9885944881889763
 30
0.0
  0
VERTEX
  5
4F5
  8
LAYER_1
 62
     1
 10
-4.642464566929134
 20
0.9885944881889763
 30
0.0
  0
VERTEX
  5
4F6
  8
LAYER_1
 62
     1
 10
-4.645720472440945
 20
0.988271653543307
 30
0.0
  0
VERTEX
  5
4F7
  8
LAYER_1
 62
     1
 10
-4.648822834645669
 20
0.9873307086614174
 30
0.0
  0
VERTEX
  5
4F8
  8
LAYER_1
 62
     1
 10
-4.651681102362205
 20
0.9858031496062992
 30
0.0
  0
VERTEX
  5
4F9
  8
LAYER_1
 62
     1
 10
-4.654208661417323
 20
0.9837283464566929
 30
0.0
  0
VERTEX
  5
4FA
  8
LAYER_1
 62
     1
 10
-4.656283464566929
 20
0.9812007874015748
 30
0.0
  0
VERTEX
  5
4FB
  8
LAYER_1
 62
     1
 10
-4.657811023622047
 20
0.9783425196850394
 30
0.0
  0
VERTEX
  5
4FC
  8
LAYER_1
 62
     1
 10
-4.658751968503937
 20
0.975240157480315
 30
0.0
  0
VERTEX
  5
4FD
  8
LAYER_1
 62
     1
 10
-4.659074803149606
 20
0.9719842519685039
 30
0.0
  0
VERTEX
  5
4FE
  8
LAYER_1
 62
     1
 10
-4.659074803149606
 20
0.9304566929133858
 30
0.0
  0
VERTEX
  5
4FF
  8
LAYER_1
 62
     1
 10
-4.658751968503937
 20
0.9272007874015749
 30
0.0
  0
VERTEX
  5
500
  8
LAYER_1
 62
     1
 10
-4.657811023622047
 20
0.9241023622047244
 30
0.0
  0
VERTEX
  5
501
  8
LAYER_1
 62
     1
 10
-4.656283464566929
 20
0.921240157480315
 30
0.0
  0
VERTEX
  5
502
  8
LAYER_1
 62
     1
 10
-4.654208661417323
 20
0.9187125984251968
 30
0.0
  0
VERTEX
  5
503
  8
LAYER_1
 62
     1
 10
-4.651681102362205
 20
0.9166377952755905
 30
0.0
  0
VERTEX
  5
504
  8
LAYER_1
 62
     1
 10
-4.648822834645669
 20
0.9151102362204725
 30
0.0
  0
VERTEX
  5
505
  8
LAYER_1
 62
     1
 10
-4.645720472440945
 20
0.9141692913385827
 30
0.0
  0
VERTEX
  5
506
  8
LAYER_1
 62
     1
 10
-4.642464566929134
 20
0.9138464566929134
 30
0.0
  0
VERTEX
  5
507
  8
LAYER_1
 62
     1
 10
-4.625850393700787
 20
0.9138464566929134
 30
0.0
  0
SEQEND
  5
508
  8
LAYER_1
 62
     1
  0
POLYLINE
  5
AB
  8
LAYER_1
 62
     1
 66
     1
 10
0.0
 20
0.0
 30
0.0
  0
VERTEX
  5
509
  8
LAYER_1
 62
     1
 10
-4.733826771653543
 20
0.9138464566929134
 30
0.0
  0
VERTEX
  5
50A
  8
LAYER_1
 62
     1
 10
-4.708909448818898
 20
0.9885944881889763
 30
0.0
  0
VERTEX
  5
50B
  8
LAYER_1
 62
     1
 10
-4.683992125984252
 20
0.9138464566929134
 30
0.0
  0
SEQEND
  5
50C
  8
LAYER_1
 62
     1
  0
POLYLINE
  5
AC
  8
LAYER_1
 62
     1
 66
     1
 10
0.0
 20
0.0
 30
0.0
  0
VERTEX
  5
50D
  8
LAYER_1
 62
     1
 10
-4.726905511811023
 20
0.9346102362204725
 30
0.0
  0
VERTEX
  5
50E
  8
LAYER_1
 62
     1
 10
-4.690913385826772
 20
0.9346102362204725
 30
0.0
  0
SEQEND
  5
50F
  8
LAYER_1
 62
     1
  0
POLYLINE
  5
AD
  8
LAYER_1
 66
     1
 10
0.0
 20
0.0
 30
0.0
 70
     1
  0
VERTEX
  5
510
  8
LAYER_1
 10
-8.308925196850394
 20
1.495744094488189
 30
0.0
  0
VERTEX
  5
511
  8
LAYER_1
 10
-8.190925196850394
 20
1.495744094488189
 30
0.0
  0
VERTEX
  5
512
  8
LAYER_1
 10
-8.190925196850394
 20
1.377744094488189
 30
0.0
  0
VERTEX
  5
513
  8
LAYER_1
 10
-8.308925196850394
 20
1.377744094488189
 30
0.0
  0
VERTEX
  5
514
  8
LAYER_1
 10
-8.308925196850394
 20
1.495744094488189
 30
0.0
  0
SEQEND
  5
515
  8
LAYER_1
  0
POLYLINE
  5
AE
  8
LAYER_1
 62
     1
 66
     1
 10
0.0
 20
0.0
 30
0.0
  0
VERTEX
  5
516
  8
LAYER_1
 62
     1
 10
-8.39111811023622
 20
1.240948818897638
 30
0.0
  0
VERTEX
  5
517
  8
LAYER_1
 62
     1
 10
-8.39111811023622
 20
1.315700787401575
 30
0.0
  0
SEQEND
  5
518
  8
LAYER_1
 62
     1
  0
POLYLINE
  5
AF
  8
LAYER_1
 62
     1
 66
     1
 10
0.0
 20
0.0
 30
0.0
  0
VERTEX
  5
519
  8
LAYER_1
 62
     1
 10
-8.141948818897637
 20
1.315700787401575
 30
0.0
  0
VERTEX
  5
51A
  8
LAYER_1
 62
     1
 10
-8.092114173228346
 20
1.315700787401575
 30
0.0
  0
SEQEND
  5
51B
  8
LAYER_1
 62
     1
  0
POLYLINE
  5
B0
  8
LAYER_1
 62
     1
 66
     1
 10
0.0
 20
0.0
 30
0.0
  0
VERTEX
  5
51C
  8
LAYER_1
 62
     1
 10
-8.117031496062992
 20
1.315700787401575
 30
0.0
  0
VERTEX
  5
51D
  8
LAYER_1
 62
     1
 10
-8.117031496062992
 20
1.240948818897638
 30
0.0
  0
SEQEND
  5
51E
  8
LAYER_1
 62
     1
  0
POLYLINE
  5
B1
  8
LAYER_1
 62
     1
 66
     1
 10
0.0
 20
0.0
 30
0.0
  0
VERTEX
  5
51F
  8
LAYER_1
 62
     1
 10
-8.166866141732283
 20
1.315700787401575
 30
0.0
  0
VERTEX
  5
520
  8
LAYER_1
 62
     1
 10
-8.200086614173228
 20
1.315700787401575
 30
0.0
  0
VERTEX
  5
521
  8
LAYER_1
 62
     1
 10
-8.200086614173228
 20
1.240948818897638
 30
0.0
  0
VERTEX
  5
522
  8
LAYER_1
 62
     1
 10
-8.166866141732283
 20
1.240948818897638
 30
0.0
  0
SEQEND
  5
523
  8
LAYER_1
 62
     1
  0
POLYLINE
  5
B2
  8
LAYER_1
 62
     1
 66
     1
 10
0.0
 20
0.0
 30
0.0
  0
VERTEX
  5
524
  8
LAYER_1
 62
     1
 10
-8.200086614173228
 20
1.282476377952756
 30
0.0
  0
VERTEX
  5
525
  8
LAYER_1
 62
     1
 10
-8.175169291338582
 20
1.282476377952756
 30
0.0
  0
SEQEND
  5
526
  8
LAYER_1
 62
     1
  0
POLYLINE
  5
B3
  8
LAYER_1
 62
     1
 66
     1
 10
0.0
 20
0.0
 30
0.0
  0
VERTEX
  5
527
  8
LAYER_1
 62
     1
 10
-8.225003937007873
 20
1.309736220472441
 30
0.0
  0
VERTEX
  5
528
  8
LAYER_1
 62
     1
 10
-8.230937007874015
 20
1.312322834645669
 30
0.0
  0
VERTEX
  5
529
  8
LAYER_1
 62
     1
 10
-8.237110236220472
 20
1.314188976377953
 30
0.0
  0
VERTEX
  5
52A
  8
LAYER_1
 62
     1
 10
-8.24346062992126
 20
1.315318897637795
 30
0.0
  0
VERTEX
  5
52B
  8
LAYER_1
 62
     1
 10
-8.24992125984252
 20
1.315700787401575
 30
0.0
  0
VERTEX
  5
52C
  8
LAYER_1
 62
     1
 10
-8.252748031496063
 20
1.31546062992126
 30
0.0
  0
VERTEX
  5
52D
  8
LAYER_1
 62
     1
 10
-8.255433070866141
 20
1.314759842519685
 30
0.0
  0
VERTEX
  5
52E
  8
LAYER_1
 62
     1
 10
-8.257933070866141
 20
1.313641732283465
 30
0.0
  0
VERTEX
  5
52F
  8
LAYER_1
 62
     1
 10
-8.26020472440945
 20
1.312137795275591
 30
0.0
  0
VERTEX
  5
530
  8
LAYER_1
 62
     1
 10
-8.262200787401575
 20
1.310279527559055
 30
0.0
  0
VERTEX
  5
531
  8
LAYER_1
 62
     1
 10
-8.263870078740158
 20
1.308110236220472
 30
0.0
  0
VERTEX
  5
532
  8
LAYER_1
 62
     1
 10
-8.26517716535433
 20
1.305661417322835
 30
0.0
  0
VERTEX
  5
533
  8
LAYER_1
 62
     1
 10
-8.266070866141732
 20
1.302972440944882
 30
0.0
  0
VERTEX
  5
534
  8
LAYER_1
 62
     1
 10
-8.266496062992125
 20
1.300169291338583
 30
0.0
  0
VERTEX
  5
535
  8
LAYER_1
 62
     1
 10
-8.266444881889763
 20
1.297393700787402
 30
0.0
  0
VERTEX
  5
536
  8
LAYER_1
 62
     1
 10
-8.26594094488189
 20
1.294700787401575
 30
0.0
  0
VERTEX
  5
537
  8
LAYER_1
 62
     1
 10
-8.265007874015748
 20
1.292137795275591
 30
0.0
  0
VERTEX
  5
538
  8
LAYER_1
 62
     1
 10
-8.263669291338582
 20
1.289767716535433
 30
0.0
  0
VERTEX
  5
539
  8
LAYER_1
 62
     1
 10
-8.261948818897638
 20
1.287629921259843
 30
0.0
  0
VERTEX
  5
53A
  8
LAYER_1
 62
     1
 10
-8.259874015748032
 20
1.285787401574803
 30
0.0
  0
VERTEX
  5
53B
  8
LAYER_1
 62
     1
 10
-8.257468503937007
 20
1.284291338582677
 30
0.0
  0
VERTEX
  5
53C
  8
LAYER_1
 62
     1
 10
-8.234066929133858
 20
1.272358267716535
 30
0.0
  0
VERTEX
  5
53D
  8
LAYER_1
 62
     1
 10
-8.231661417322835
 20
1.270862204724409
 30
0.0
  0
VERTEX
  5
53E
  8
LAYER_1
 62
     1
 10
-8.229586614173229
 20
1.26901968503937
 30
0.0
  0
VERTEX
  5
53F
  8
LAYER_1
 62
     1
 10
-8.227866141732283
 20
1.266885826771654
 30
0.0
  0
VERTEX
  5
540
  8
LAYER_1
 62
     1
 10
-8.226527559055118
 20
1.264511811023622
 30
0.0
  0
VERTEX
  5
541
  8
LAYER_1
 62
     1
 10
-8.225594488188976
 20
1.261952755905512
 30
0.0
  0
VERTEX
  5
542
  8
LAYER_1
 62
     1
 10
-8.225090551181102
 20
1.259259842519685
 30
0.0
  0
VERTEX
  5
543
  8
LAYER_1
 62
     1
 10
-8.22503937007874
 20
1.256484251968504
 30
0.0
  0
VERTEX
  5
544
  8
LAYER_1
 62
     1
 10
-8.225464566929134
 20
1.253681102362205
 30
0.0
  0
VERTEX
  5
545
  8
LAYER_1
 62
     1
 10
-8.226358267716535
 20
1.250988188976378
 30
0.0
  0
VERTEX
  5
546
  8
LAYER_1
 62
     1
 10
-8.227665354330709
 20
1.248543307086614
 30
0.0
  0
VERTEX
  5
547
  8
LAYER_1
 62
     1
 10
-8.229338582677165
 20
1.246370078740157
 30
0.0
  0
VERTEX
  5
548
  8
LAYER_1
 62
     1
 10
-8.231330708661417
 20
1.244515748031496
 30
0.0
  0
VERTEX
  5
549
  8
LAYER_1
 62
     1
 10
-8.233602362204724
 20
1.243011811023622
 30
0.0
  0
VERTEX
  5
54A
  8
LAYER_1
 62
     1
 10
-8.236102362204724
 20
1.241889763779528
 30
0.0
  0
VERTEX
  5
54B
  8
LAYER_1
 62
     1
 10
-8.238791338582677
 20
1.241192913385827
 30
0.0
  0
VERTEX
  5
54C
  8
LAYER_1
 62
     1
 10
-8.241614173228346
 20
1.240952755905512
 30
0.0
  0
VERTEX
  5
54D
  8
LAYER_1
 62
     1
 10
-8.248074803149606
 20
1.241334645669291
 30
0.0
  0
VERTEX
  5
54E
  8
LAYER_1
 62
     1
 10
-8.254425196850393
 20
1.242464566929134
 30
0.0
  0
VERTEX
  5
54F
  8
LAYER_1
 62
     1
 10
-8.26059842519685
 20
1.244330708661417
 30
0.0
  0
VERTEX
  5
550
  8
LAYER_1
 62
     1
 10
-8.266531496062992
 20
1.246913385826772
 30
0.0
  0
SEQEND
  5
551
  8
LAYER_1
 62
     1
  0
POLYLINE
  5
B4
  8
LAYER_1
 62
     1
 66
     1
 10
0.0
 20
0.0
 30
0.0
  0
VERTEX
  5
552
  8
LAYER_1
 62
     1
 10
-8.291448818897639
 20
1.315700787401575
 30
0.0
  0
VERTEX
  5
553
  8
LAYER_1
 62
     1
 10
-8.324673228346457
 20
1.315700787401575
 30
0.0
  0
VERTEX
  5
554
  8
LAYER_1
 62
     1
 10
-8.324673228346457
 20
1.240948818897638
 30
0.0
  0
VERTEX
  5
555
  8
LAYER_1
 62
     1
 10
-8.291448818897639
 20
1.240948818897638
 30
0.0
  0
SEQEND
  5
556
  8
LAYER_1
 62
     1
  0
POLYLINE
  5
B5
  8
LAYER_1
 62
     1
 66
     1
 10
0.0
 20
0.0
 30
0.0
  0
VERTEX
  5
557
  8
LAYER_1
 62
     1
 10
-8.324673228346457
 20
1.282476377952756
 30
0.0
  0
VERTEX
  5
558
  8
LAYER_1
 62
     1
 10
-8.29975590551181
 20
1.282476377952756
 30
0.0
  0
SEQEND
  5
559
  8
LAYER_1
 62
     1
  0
POLYLINE
  5
B6
  8
LAYER_1
 62
     1
 66
     1
 10
0.0
 20
0.0
 30
0.0
  0
VERTEX
  5
55A
  8
LAYER_1
 62
     1
 10
-8.366200787401574
 20
1.274173228346457
 30
0.0
  0
VERTEX
  5
55B
  8
LAYER_1
 62
     1
 10
-8.349590551181102
 20
1.240948818897638
 30
0.0
  0
SEQEND
  5
55C
  8
LAYER_1
 62
     1
  0
POLYLINE
  5
B7
  8
LAYER_1
 62
     1
 66
     1
 10
0.0
 20
0.0
 30
0.0
  0
VERTEX
  5
55D
  8
LAYER_1
 62
     1
 10
-8.366200787401574
 20
1.274173228346457
 30
0.0
  0
VERTEX
  5
55E
  8
LAYER_1
 62
     1
 10
-8.39111811023622
 20
1.274173228346457
 30
0.0
  0
SEQEND
  5
55F
  8
LAYER_1
 62
     1
  0
POLYLINE
  5
B8
  8
LAYER_1
 62
     1
 66
     1
 10
0.0
 20
0.0
 30
0.0
  0
VERTEX
  5
560
  8
LAYER_1
 62
     1
 10
-8.366200787401574
 20
1.274173228346457
 30
0.0
  0
VERTEX
  5
561
  8
LAYER_1
 62
     1
 10
-8.362854330708661
 20
1.274511811023622
 30
0.0
  0
VERTEX
  5
562
  8
LAYER_1
 62
     1
 10
-8.35973622047244
 20
1.27548031496063
 30
0.0
  0
VERTEX
  5
563
  8
LAYER_1
 62
     1
 10
-8.356913385826772
 20
1.277011811023622
 30
0.0
  0
VERTEX
  5
564
  8
LAYER_1
 62
     1
 10
-8.354456692913386
 20
1.27903937007874
 30
0.0
  0
VERTEX
  5
565
  8
LAYER_1
 62
     1
 10
-8.352429133858267
 20
1.281496062992126
 30
0.0
  0
VERTEX
  5
566
  8
LAYER_1
 62
     1
 10
-8.350897637795276
 20
1.284318897637795
 30
0.0
  0
VERTEX
  5
567
  8
LAYER_1
 62
     1
 10
-8.349929133858268
 20
1.287437007874016
 30
0.0
  0
VERTEX
  5
568
  8
LAYER_1
 62
     1
 10
-8.349590551181102
 20
1.290783464566929
 30
0.0
  0
SEQEND
  5
569
  8
LAYER_1
 62
     1
  0
POLYLINE
  5
B9
  8
LAYER_1
 62
     1
 66
     1
 10
0.0
 20
0.0
 30
0.0
  0
VERTEX
  5
56A
  8
LAYER_1
 62
     1
 10
-8.349590551181102
 20
1.299090551181102
 30
0.0
  0
VERTEX
  5
56B
  8
LAYER_1
 62
     1
 10
-8.349590551181102
 20
1.290783464566929
 30
0.0
  0
SEQEND
  5
56C
  8
LAYER_1
 62
     1
  0
POLYLINE
  5
BA
  8
LAYER_1
 62
     1
 66
     1
 10
0.0
 20
0.0
 30
0.0
  0
VERTEX
  5
56D
  8
LAYER_1
 62
     1
 10
-8.349590551181102
 20
1.299090551181102
 30
0.0
  0
VERTEX
  5
56E
  8
LAYER_1
 62
     1
 10
-8.349913385826772
 20
1.302346456692913
 30
0.0
  0
VERTEX
  5
56F
  8
LAYER_1
 62
     1
 10
-8.350854330708662
 20
1.305448818897638
 30
0.0
  0
VERTEX
  5
570
  8
LAYER_1
 62
     1
 10
-8.35238188976378
 20
1.308307086614173
 30
0.0
  0
VERTEX
  5
571
  8
LAYER_1
 62
     1
 10
-8.354456692913386
 20
1.310834645669291
 30
0.0
  0
VERTEX
  5
572
  8
LAYER_1
 62
     1
 10
-8.356984251968504
 20
1.312909448818898
 30
0.0
  0
VERTEX
  5
573
  8
LAYER_1
 62
     1
 10
-8.359846456692914
 20
1.314437007874016
 30
0.0
  0
VERTEX
  5
574
  8
LAYER_1
 62
     1
 10
-8.362944881889764
 20
1.315377952755906
 30
0.0
  0
VERTEX
  5
575
  8
LAYER_1
 62
     1
 10
-8.366200787401574
 20
1.315700787401575
 30
0.0
  0
SEQEND
  5
576
  8
LAYER_1
 62
     1
  0
POLYLINE
  5
BB
  8
LAYER_1
 62
     1
 66
     1
 10
0.0
 20
0.0
 30
0.0
  0
VERTEX
  5
577
  8
LAYER_1
 62
     1
 10
-8.39111811023622
 20
1.315700787401575
 30
0.0
  0
VERTEX
  5
578
  8
LAYER_1
 62
     1
 10
-8.366200787401574
 20
1.315700787401575
 30
0.0
  0
SEQEND
  5
579
  8
LAYER_1
 62
     1
  0
POLYLINE
  5
BC
  8
LAYER_1
 66
     1
 10
0.0
 20
0.0
 30
0.0
 70
     1
  0
VERTEX
  5
57A
  8
LAYER_1
 10
-6.592393700787402
 20
2.850181102362205
 30
0.0
  0
VERTEX
  5
57B
  8
LAYER_1
 10
-6.474393700787402
 20
2.850181102362205
 30
0.0
  0
VERTEX
  5
57C
  8
LAYER_1
 10
-6.474393700787402
 20
2.732181102362205
 30
0.0
  0
VERTEX
  5
57D
  8
LAYER_1
 10
-6.592393700787402
 20
2.732181102362205
 30
0.0
  0
VERTEX
  5
57E
  8
LAYER_1
 10
-6.592393700787402
 20
2.850181102362205
 30
0.0
  0
SEQEND
  5
57F
  8
LAYER_1
  0
POLYLINE
  5
BD
  8
LAYER_1
 62
     1
 66
     1
 10
0.0
 20
0.0
 30
0.0
  0
VERTEX
  5
580
  8
LAYER_1
 62
     1
 10
-6.414889763779527
 20
2.82855905511811
 30
0.0
  0
VERTEX
  5
581
  8
LAYER_1
 62
     1
 10
-6.414889763779527
 20
2.774570866141732
 30
0.0
  0
VERTEX
  5
582
  8
LAYER_1
 62
     1
 10
-6.414468503937008
 20
2.770385826771653
 30
0.0
  0
VERTEX
  5
583
  8
LAYER_1
 62
     1
 10
-6.413259842519685
 20
2.766488188976378
 30
0.0
  0
VERTEX
  5
584
  8
LAYER_1
 62
     1
 10
-6.411342519685039
 20
2.76296062992126
 30
0.0
  0
VERTEX
  5
585
  8
LAYER_1
 62
     1
 10
-6.408807086614173
 20
2.759889763779527
 30
0.0
  0
VERTEX
  5
586
  8
LAYER_1
 62
     1
 10
-6.405736220472441
 20
2.757354330708661
 30
0.0
  0
VERTEX
  5
587
  8
LAYER_1
 62
     1
 10
-6.402208661417323
 20
2.755437007874016
 30
0.0
  0
VERTEX
  5
588
  8
LAYER_1
 62
     1
 10
-6.398311023622047
 20
2.754228346456693
 30
0.0
  0
VERTEX
  5
589
  8
LAYER_1
 62
     1
 10
-6.394125984251969
 20
2.753807086614173
 30
0.0
  0
VERTEX
  5
58A
  8
LAYER_1
 62
     1
 10
-6.389940944881889
 20
2.754228346456693
 30
0.0
  0
VERTEX
  5
58B
  8
LAYER_1
 62
     1
 10
-6.386043307086614
 20
2.755437007874016
 30
0.0
  0
VERTEX
  5
58C
  8
LAYER_1
 62
     1
 10
-6.382515748031496
 20
2.757354330708661
 30
0.0
  0
VERTEX
  5
58D
  8
LAYER_1
 62
     1
 10
-6.379444881889764
 20
2.759889763779527
 30
0.0
  0
VERTEX
  5
58E
  8
LAYER_1
 62
     1
 10
-6.376909448818898
 20
2.76296062992126
 30
0.0
  0
VERTEX
  5
58F
  8
LAYER_1
 62
     1
 10
-6.374992125984252
 20
2.766488188976378
 30
0.0
  0
VERTEX
  5
590
  8
LAYER_1
 62
     1
 10
-6.373783464566929
 20
2.770385826771653
 30
0.0
  0
VERTEX
  5
591
  8
LAYER_1
 62
     1
 10
-6.373362204724409
 20
2.774570866141732
 30
0.0
  0
VERTEX
  5
592
  8
LAYER_1
 62
     1
 10
-6.373362204724409
 20
2.82855905511811
 30
0.0
  0
SEQEND
  5
593
  8
LAYER_1
 62
     1
  0
POLYLINE
  5
BE
  8
LAYER_1
 62
     1
 66
     1
 10
0.0
 20
0.0
 30
0.0
  0
VERTEX
  5
594
  8
LAYER_1
 62
     1
 10
-5.974692913385827
 20
2.753807086614173
 30
0.0
  0
VERTEX
  5
595
  8
LAYER_1
 62
     1
 10
-6.007913385826772
 20
2.753807086614173
 30
0.0
  0
VERTEX
  5
596
  8
LAYER_1
 62
     1
 10
-6.007913385826772
 20
2.82855905511811
 30
0.0
  0
VERTEX
  5
597
  8
LAYER_1
 62
     1
 10
-5.974692913385827
 20
2.82855905511811
 30
0.0
  0
SEQEND
  5
598
  8
LAYER_1
 62
     1
  0
POLYLINE
  5
BF
  8
LAYER_1
 62
     1
 66
     1
 10
0.0
 20
0.0
 30
0.0
  0
VERTEX
  5
599
  8
LAYER_1
 62
     1
 10
-5.982996062992126
 20
2.795334645669291
 30
0.0
  0
VERTEX
  5
59A
  8
LAYER_1
 62
     1
 10
-6.007913385826772
 20
2.795334645669291
 30
0.0
  0
SEQEND
  5
59B
  8
LAYER_1
 62
     1
  0
POLYLINE
  5
C0
  8
LAYER_1
 62
     1
 66
     1
 10
0.0
 20
0.0
 30
0.0
  0
VERTEX
  5
59C
  8
LAYER_1
 62
     1
 10
-6.149110236220473
 20
2.753807086614173
 30
0.0
  0
VERTEX
  5
59D
  8
LAYER_1
 62
     1
 10
-6.124192913385826
 20
2.82855905511811
 30
0.0
  0
VERTEX
  5
59E
  8
LAYER_1
 62
     1
 10
-6.099275590551181
 20
2.753807086614173
 30
0.0
  0
SEQEND
  5
59F
  8
LAYER_1
 62
     1
  0
POLYLINE
  5
C1
  8
LAYER_1
 62
     1
 66
     1
 10
0.0
 20
0.0
 30
0.0
  0
VERTEX
  5
5A0
  8
LAYER_1
 62
     1
 10
-6.142188976377953
 20
2.774570866141732
 30
0.0
  0
VERTEX
  5
5A1
  8
LAYER_1
 62
     1
 10
-6.106196850393701
 20
2.774570866141732
 30
0.0
  0
SEQEND
  5
5A2
  8
LAYER_1
 62
     1
  0
POLYLINE
  5
C2
  8
LAYER_1
 62
     1
 66
     1
 10
0.0
 20
0.0
 30
0.0
  0
VERTEX
  5
5A3
  8
LAYER_1
 62
     1
 10
-6.174027559055118
 20
2.753807086614173
 30
0.0
  0
VERTEX
  5
5A4
  8
LAYER_1
 62
     1
 10
-6.190637795275591
 20
2.787027559055118
 30
0.0
  0
VERTEX
  5
5A5
  8
LAYER_1
 62
     1
 10
-6.187291338582678
 20
2.787366141732283
 30
0.0
  0
VERTEX
  5
5A6
  8
LAYER_1
 62
     1
 10
-6.184173228346457
 20
2.788334645669291
 30
0.0
  0
VERTEX
  5
5A7
  8
LAYER_1
 62
     1
 10
-6.181350393700788
 20
2.789866141732284
 30
0.0
  0
VERTEX
  5
5A8
  8
LAYER_1
 62
     1
 10
-6.178893700787402
 20
2.791893700787401
 30
0.0
  0
VERTEX
  5
5A9
  8
LAYER_1
 62
     1
 10
-6.176866141732283
 20
2.794350393700787
 30
0.0
  0
VERTEX
  5
5AA
  8
LAYER_1
 62
     1
 10
-6.175334645669292
 20
2.797173228346457
 30
0.0
  0
VERTEX
  5
5AB
  8
LAYER_1
 62
     1
 10
-6.174366141732284
 20
2.800291338582677
 30
0.0
  0
VERTEX
  5
5AC
  8
LAYER_1
 62
     1
 10
-6.174027559055118
 20
2.803641732283464
 30
0.0
  0
VERTEX
  5
5AD
  8
LAYER_1
 62
     1
 10
-6.174027559055118
 20
2.811944881889764
 30
0.0
  0
VERTEX
  5
5AE
  8
LAYER_1
 62
     1
 10
-6.174350393700787
 20
2.815200787401575
 30
0.0
  0
VERTEX
  5
5AF
  8
LAYER_1
 62
     1
 10
-6.175291338582677
 20
2.818303149606299
 30
0.0
  0
VERTEX
  5
5B0
  8
LAYER_1
 62
     1
 10
-6.176818897637795
 20
2.821161417322835
 30
0.0
  0
VERTEX
  5
5B1
  8
LAYER_1
 62
     1
 10
-6.178893700787402
 20
2.823692913385827
 30
0.0
  0
VERTEX
  5
5B2
  8
LAYER_1
 62
     1
 10
-6.181421259842519
 20
2.825767716535433
 30
0.0
  0
VERTEX
  5
5B3
  8
LAYER_1
 62
     1
 10
-6.18428346456693
 20
2.827291338582677
 30
0.0
  0
VERTEX
  5
5B4
  8
LAYER_1
 62
     1
 10
-6.187381889763779
 20
2.828232283464567
 30
0.0
  0
VERTEX
  5
5B5
  8
LAYER_1
 62
     1
 10
-6.190637795275591
 20
2.828555118110236
 30
0.0
  0
VERTEX
  5
5B6
  8
LAYER_1
 62
     1
 10
-6.215555118110236
 20
2.82855905511811
 30
0.0
  0
VERTEX
  5
5B7
  8
LAYER_1
 62
     1
 10
-6.215555118110236
 20
2.753807086614173
 30
0.0
  0
SEQEND
  5
5B8
  8
LAYER_1
 62
     1
  0
POLYLINE
  5
C3
  8
LAYER_1
 62
     1
 66
     1
 10
0.0
 20
0.0
 30
0.0
  0
VERTEX
  5
5B9
  8
LAYER_1
 62
     1
 10
-6.190637795275591
 20
2.787027559055118
 30
0.0
  0
VERTEX
  5
5BA
  8
LAYER_1
 62
     1
 10
-6.215555118110236
 20
2.787027559055118
 30
0.0
  0
SEQEND
  5
5BB
  8
LAYER_1
 62
     1
  0
POLYLINE
  5
C4
  8
LAYER_1
 62
     1
 66
     1
 10
0.0
 20
0.0
 30
0.0
  0
VERTEX
  5
5BC
  8
LAYER_1
 62
     1
 10
-6.240472440944882
 20
2.82855905511811
 30
0.0
  0
VERTEX
  5
5BD
  8
LAYER_1
 62
     1
 10
-6.265389763779527
 20
2.828555118110236
 30
0.0
  0
VERTEX
  5
5BE
  8
LAYER_1
 62
     1
 10
-6.268645669291338
 20
2.828232283464567
 30
0.0
  0
VERTEX
  5
5BF
  8
LAYER_1
 62
     1
 10
-6.271748031496063
 20
2.827291338582677
 30
0.0
  0
VERTEX
  5
5C0
  8
LAYER_1
 62
     1
 10
-6.274606299212598
 20
2.825767716535433
 30
0.0
  0
VERTEX
  5
5C1
  8
LAYER_1
 62
     1
 10
-6.277133858267717
 20
2.823692913385827
 30
0.0
  0
VERTEX
  5
5C2
  8
LAYER_1
 62
     1
 10
-6.279208661417323
 20
2.821161417322835
 30
0.0
  0
VERTEX
  5
5C3
  8
LAYER_1
 62
     1
 10
-6.280736220472441
 20
2.818303149606299
 30
0.0
  0
VERTEX
  5
5C4
  8
LAYER_1
 62
     1
 10
-6.28167716535433
 20
2.815200787401575
 30
0.0
  0
VERTEX
  5
5C5
  8
LAYER_1
 62
     1
 10
-6.282
 20
2.811944881889764
 30
0.0
  0
VERTEX
  5
5C6
  8
LAYER_1
 62
     1
 10
-6.282
 20
2.770417322834646
 30
0.0
  0
VERTEX
  5
5C7
  8
LAYER_1
 62
     1
 10
-6.28167716535433
 20
2.767161417322835
 30
0.0
  0
VERTEX
  5
5C8
  8
LAYER_1
 62
     1
 10
-6.280736220472441
 20
2.764062992125984
 30
0.0
  0
VERTEX
  5
5C9
  8
LAYER_1
 62
     1
 10
-6.279208661417323
 20
2.761200787401575
 30
0.0
  0
VERTEX
  5
5CA
  8
LAYER_1
 62
     1
 10
-6.277133858267717
 20
2.758673228346457
 30
0.0
  0
VERTEX
  5
5CB
  8
LAYER_1
 62
     1
 10
-6.274606299212598
 20
2.75659842519685
 30
0.0
  0
VERTEX
  5
5CC
  8
LAYER_1
 62
     1
 10
-6.271748031496063
 20
2.755070866141732
 30
0.0
  0
VERTEX
  5
5CD
  8
LAYER_1
 62
     1
 10
-6.268645669291338
 20
2.754129921259842
 30
0.0
  0
VERTEX
  5
5CE
  8
LAYER_1
 62
     1
 10
-6.265389763779527
 20
2.753807086614173
 30
0.0
  0
VERTEX
  5
5CF
  8
LAYER_1
 62
     1
 10
-6.240472440944882
 20
2.753807086614173
 30
0.0
  0
VERTEX
  5
5D0
  8
LAYER_1
 62
     1
 10
-6.240472440944882
 20
2.795334645669291
 30
0.0
  0
VERTEX
  5
5D1
  8
LAYER_1
 62
     1
 10
-6.252929133858268
 20
2.795334645669291
 30
0.0
  0
SEQEND
  5
5D2
  8
LAYER_1
 62
     1
  0
POLYLINE
  5
C5
  8
LAYER_1
 62
     1
 66
     1
 10
0.0
 20
0.0
 30
0.0
  0
VERTEX
  5
5D3
  8
LAYER_1
 62
     1
 10
-6.348444881889764
 20
2.787027559055118
 30
0.0
  0
VERTEX
  5
5D4
  8
LAYER_1
 62
     1
 10
-6.323527559055118
 20
2.787027559055118
 30
0.0
  0
VERTEX
  5
5D5
  8
LAYER_1
 62
     1
 10
-6.320181102362205
 20
2.787366141732283
 30
0.0
  0
VERTEX
  5
5D6
  8
LAYER_1
 62
     1
 10
-6.317062992125984
 20
2.788334645669291
 30
0.0
  0
VERTEX
  5
5D7
  8
LAYER_1
 62
     1
 10
-6.314240157480315
 20
2.789866141732284
 30
0.0
  0
VERTEX
  5
5D8
  8
LAYER_1
 62
     1
 10
-6.311783464566929
 20
2.791893700787401
 30
0.0
  0
VERTEX
  5
5D9
  8
LAYER_1
 62
     1
 10
-6.309755905511811
 20
2.794350393700787
 30
0.0
  0
VERTEX
  5
5DA
  8
LAYER_1
 62
     1
 10
-6.308224409448819
 20
2.797173228346457
 30
0.0
  0
VERTEX
  5
5DB
  8
LAYER_1
 62
     1
 10
-6.307255905511811
 20
2.800291338582677
 30
0.0
  0
VERTEX
  5
5DC
  8
LAYER_1
 62
     1
 10
-6.306917322834646
 20
2.803641732283464
 30
0.0
  0
VERTEX
  5
5DD
  8
LAYER_1
 62
     1
 10
-6.306917322834646
 20
2.811944881889764
 30
0.0
  0
VERTEX
  5
5DE
  8
LAYER_1
 62
     1
 10
-6.307240157480315
 20
2.815200787401575
 30
0.0
  0
VERTEX
  5
5DF
  8
LAYER_1
 62
     1
 10
-6.308181102362204
 20
2.818303149606299
 30
0.0
  0
VERTEX
  5
5E0
  8
LAYER_1
 62
     1
 10
-6.309704724409449
 20
2.821161417322835
 30
0.0
  0
VERTEX
  5
5E1
  8
LAYER_1
 62
     1
 10
-6.311779527559055
 20
2.823692913385827
 30
0.0
  0
VERTEX
  5
5E2
  8
LAYER_1
 62
     1
 10
-6.314311023622047
 20
2.825767716535433
 30
0.0
  0
VERTEX
  5
5E3
  8
LAYER_1
 62
     1
 10
-6.317169291338582
 20
2.827291338582677
 30
0.0
  0
VERTEX
  5
5E4
  8
LAYER_1
 62
     1
 10
-6.320271653543307
 20
2.828232283464567
 30
0.0
  0
VERTEX
  5
5E5
  8
LAYER_1
 62
     1
 10
-6.323527559055118
 20
2.828555118110236
 30
0.0
  0
VERTEX
  5
5E6
  8
LAYER_1
 62
     1
 10
-6.348444881889764
 20
2.82855905511811
 30
0.0
  0
VERTEX
  5
5E7
  8
LAYER_1
 62
     1
 10
-6.348444881889764
 20
2.753807086614173
 30
0.0
  0
SEQEND
  5
5E8
  8
LAYER_1
 62
     1
  0
POLYLINE
  5
C6
  8
LAYER_1
 62
     1
 66
     1
 10
0.0
 20
0.0
 30
0.0
 70
     1
  0
VERTEX
  5
5E9
  8
LAYER_1
 62
     1
 10
-6.032830708661417
 20
2.770417322834646
 30
0.0
  0
VERTEX
  5
5EA
  8
LAYER_1
 62
     1
 10
-6.032830708661417
 20
2.811944881889764
 30
0.0
  0
VERTEX
  5
5EB
  8
LAYER_1
 62
     1
 10
-6.033169291338583
 20
2.815291338582677
 30
0.0
  0
VERTEX
  5
5EC
  8
LAYER_1
 62
     1
 10
-6.034137795275591
 20
2.818409448818898
 30
0.0
  0
VERTEX
  5
5ED
  8
LAYER_1
 62
     1
 10
-6.035669291338583
 20
2.821228346456693
 30
0.0
  0
VERTEX
  5
5EE
  8
LAYER_1
 62
     1
 10
-6.037700787401575
 20
2.823688976377953
 30
0.0
  0
VERTEX
  5
5EF
  8
LAYER_1
 62
     1
 10
-6.040157480314961
 20
2.825716535433071
 30
0.0
  0
VERTEX
  5
5F0
  8
LAYER_1
 62
     1
 10
-6.04298031496063
 20
2.827248031496063
 30
0.0
  0
VERTEX
  5
5F1
  8
LAYER_1
 62
     1
 10
-6.046094488188976
 20
2.828216535433071
 30
0.0
  0
VERTEX
  5
5F2
  8
LAYER_1
 62
     1
 10
-6.04944094488189
 20
2.828555118110236
 30
0.0
  0
VERTEX
  5
5F3
  8
LAYER_1
 62
     1
 10
-6.074358267716535
 20
2.828555118110236
 30
0.0
  0
VERTEX
  5
5F4
  8
LAYER_1
 62
     1
 10
-6.074358267716535
 20
2.753807086614173
 30
0.0
  0
VERTEX
  5
5F5
  8
LAYER_1
 62
     1
 10
-6.04944094488189
 20
2.753807086614173
 30
0.0
  0
VERTEX
  5
5F6
  8
LAYER_1
 62
     1
 10
-6.046094488188976
 20
2.754145669291339
 30
0.0
  0
VERTEX
  5
5F7
  8
LAYER_1
 62
     1
 10
-6.042976377952756
 20
2.755114173228347
 30
0.0
  0
VERTEX
  5
5F8
  8
LAYER_1
 62
     1
 10
-6.040153543307087
 20
2.756645669291339
 30
0.0
  0
VERTEX
  5
5F9
  8
LAYER_1
 62
     1
 10
-6.037696850393701
 20
2.758673228346457
 30
0.0
  0
VERTEX
  5
5FA
  8
LAYER_1
 62
     1
 10
-6.035669291338583
 20
2.761129921259843
 30
0.0
  0
VERTEX
  5
5FB
  8
LAYER_1
 62
     1
 10
-6.034137795275591
 20
2.763952755905512
 30
0.0
  0
VERTEX
  5
5FC
  8
LAYER_1
 62
     1
 10
-6.033169291338583
 20
2.767070866141732
 30
0.0
  0
VERTEX
  5
5FD
  8
LAYER_1
 62
     1
 10
-6.032830708661417
 20
2.770417322834646
 30
0.0
  0
SEQEND
  5
5FE
  8
LAYER_1
 62
     1
  0
POLYLINE
  5
C7
  8
LAYER_1
 66
     1
 10
0.0
 20
0.0
 30
0.0
 70
     1
  0
VERTEX
  5
5FF
  8
LAYER_1
 10
-3.335704724409449
 20
-0.9314448818897638
 30
0.0
  0
VERTEX
  5
600
  8
LAYER_1
 10
-3.296279527559055
 20
-0.9314448818897638
 30
0.0
  0
VERTEX
  5
601
  8
LAYER_1
 10
-3.296279527559055
 20
-0.7621535433070866
 30
0.0
  0
VERTEX
  5
602
  8
LAYER_1
 10
-3.178287401574803
 20
-0.7621535433070866
 30
0.0
  0
VERTEX
  5
603
  8
LAYER_1
 10
-3.178287401574803
 20
-0.9314448818897638
 30
0.0
  0
VERTEX
  5
604
  8
LAYER_1
 10
-3.138862204724409
 20
-0.9314448818897638
 30
0.0
  0
VERTEX
  5
605
  8
LAYER_1
 10
-3.138862204724409
 20
-1.210972440944882
 30
0.0
  0
VERTEX
  5
606
  8
LAYER_1
 10
-3.335704724409449
 20
-1.210972440944882
 30
0.0
  0
VERTEX
  5
607
  8
LAYER_1
 10
-3.335704724409449
 20
-0.9314448818897638
 30
0.0
  0
SEQEND
  5
608
  8
LAYER_1
  0
POLYLINE
  5
C8
  8
LAYER_1
 66
     1
 10
0.0
 20
0.0
 30
0.0
 70
     1
  0
VERTEX
  5
609
  8
LAYER_1
 10
-3.103574803149606
 20
-0.9314448818897638
 30
0.0
  0
VERTEX
  5
60A
  8
LAYER_1
 10
-3.064149606299213
 20
-0.9314448818897638
 30
0.0
  0
VERTEX
  5
60B
  8
LAYER_1
 10
-3.064149606299213
 20
-0.7621535433070866
 30
0.0
  0
VERTEX
  5
60C
  8
LAYER_1
 10
-2.946157480314961
 20
-0.7621535433070866
 30
0.0
  0
VERTEX
  5
60D
  8
LAYER_1
 10
-2.946157480314961
 20
-0.9314448818897638
 30
0.0
  0
VERTEX
  5
60E
  8
LAYER_1
 10
-2.906732283464567
 20
-0.9314448818897638
 30
0.0
  0
VERTEX
  5
60F
  8
LAYER_1
 10
-2.906732283464567
 20
-1.210972440944882
 30
0.0
  0
VERTEX
  5
610
  8
LAYER_1
 10
-3.103574803149606
 20
-1.210972440944882
 30
0.0
  0
VERTEX
  5
611
  8
LAYER_1
 10
-3.103574803149606
 20
-0.9314448818897638
 30
0.0
  0
SEQEND
  5
612
  8
LAYER_1
  0
POLYLINE
  5
C9
  8
LAYER_1
 66
     1
 10
0.0
 20
0.0
 30
0.0
 70
     1
  0
VERTEX
  5
613
  8
LAYER_1
 10
-3.80803937007874
 20
-0.9314448818897638
 30
0.0
  0
VERTEX
  5
614
  8
LAYER_1
 10
-3.768614173228346
 20
-0.9314448818897638
 30
0.0
  0
VERTEX
  5
615
  8
LAYER_1
 10
-3.768614173228346
 20
-0.7621535433070866
 30
0.0
  0
VERTEX
  5
616
  8
LAYER_1
 10
-3.650622047244095
 20
-0.7621535433070866
 30
0.0
  0
VERTEX
  5
617
  8
LAYER_1
 10
-3.650622047244095
 20
-0.9314448818897638
 30
0.0
  0
VERTEX
  5
618
  8
LAYER_1
 10
-3.611196850393701
 20
-0.9314448818897638
 30
0.0
  0
VERTEX
  5
619
  8
LAYER_1
 10
-3.611196850393701
 20
-1.210972440944882
 30
0.0
  0
VERTEX
  5
61A
  8
LAYER_1
 10
-3.80803937007874
 20
-1.210972440944882
 30
0.0
  0
VERTEX
  5
61B
  8
LAYER_1
 10
-3.80803937007874
 20
-0.9314448818897638
 30
0.0
  0
SEQEND
  5
61C
  8
LAYER_1
  0
POLYLINE
  5
CA
  8
LAYER_1
 66
     1
 10
0.0
 20
0.0
 30
0.0
 70
     1
  0
VERTEX
  5
61D
  8
LAYER_1
 10
-3.575909448818898
 20
-0.9314448818897638
 30
0.0
  0
VERTEX
  5
61E
  8
LAYER_1
 10
-3.536484251968504
 20
-0.9314448818897638
 30
0.0
  0
VERTEX
  5
61F
  8
LAYER_1
 10
-3.536484251968504
 20
-0.7621535433070866
 30
0.0
  0
VERTEX
  5
620
  8
LAYER_1
 10
-3.418492125984252
 20
-0.7621535433070866
 30
0.0
  0
VERTEX
  5
621
  8
LAYER_1
 10
-3.418492125984252
 20
-0.9314448818897638
 30
0.0
  0
VERTEX
  5
622
  8
LAYER_1
 10
-3.379066929133858
 20
-0.9314448818897638
 30
0.0
  0
VERTEX
  5
623
  8
LAYER_1
 10
-3.379066929133858
 20
-1.210972440944882
 30
0.0
  0
VERTEX
  5
624
  8
LAYER_1
 10
-3.575909448818898
 20
-1.210972440944882
 30
0.0
  0
VERTEX
  5
625
  8
LAYER_1
 10
-3.575909448818898
 20
-0.9314448818897638
 30
0.0
  0
SEQEND
  5
626
  8
LAYER_1
  0
POLYLINE
  5
CB
  8
LAYER_1
 66
     1
 10
0.0
 20
0.0
 30
0.0
 70
     1
  0
VERTEX
  5
627
  8
LAYER_1
 10
-2.875133858267716
 20
-0.974751968503937
 30
0.0
  0
VERTEX
  5
628
  8
LAYER_1
 10
-2.835708661417323
 20
-0.974751968503937
 30
0.0
  0
VERTEX
  5
629
  8
LAYER_1
 10
-2.835708661417323
 20
-0.7621535433070866
 30
0.0
  0
VERTEX
  5
62A
  8
LAYER_1
 10
-2.717716535433071
 20
-0.7621535433070866
 30
0.0
  0
VERTEX
  5
62B
  8
LAYER_1
 10
-2.717716535433071
 20
-0.974751968503937
 30
0.0
  0
VERTEX
  5
62C
  8
LAYER_1
 10
-2.678291338582677
 20
-0.974751968503937
 30
0.0
  0
VERTEX
  5
62D
  8
LAYER_1
 10
-2.678291338582677
 20
-1.210972440944882
 30
0.0
  0
VERTEX
  5
62E
  8
LAYER_1
 10
-2.875133858267716
 20
-1.210972440944882
 30
0.0
  0
VERTEX
  5
62F
  8
LAYER_1
 10
-2.875133858267716
 20
-0.974751968503937
 30
0.0
  0
SEQEND
  5
630
  8
LAYER_1
  0
POLYLINE
  5
CC
  8
LAYER_1
 62
     1
 66
     1
 10
0.0
 20
0.0
 30
0.0
  0
VERTEX
  5
631
  8
LAYER_1
 62
     1
 10
-2.827728346456693
 20
-1.010685039370079
 30
0.0
  0
VERTEX
  5
632
  8
LAYER_1
 62
     1
 10
-2.827728346456693
 20
-1.105677165354331
 30
0.0
  0
VERTEX
  5
633
  8
LAYER_1
 62
     1
 10
-2.827775590551181
 20
-1.107877952755906
 30
0.0
  0
VERTEX
  5
634
  8
LAYER_1
 62
     1
 10
-2.827444881889764
 20
-1.11355905511811
 30
0.0
  0
VERTEX
  5
635
  8
LAYER_1
 62
     1
 10
-2.82603937007874
 20
-1.121551181102362
 30
0.0
  0
VERTEX
  5
636
  8
LAYER_1
 62
     1
 10
-2.822858267716535
 20
-1.130681102362205
 30
0.0
  0
VERTEX
  5
637
  8
LAYER_1
 62
     1
 10
-2.817192913385827
 20
-1.139775590551181
 30
0.0
  0
VERTEX
  5
638
  8
LAYER_1
 62
     1
 10
-2.808346456692913
 20
-1.147661417322835
 30
0.0
  0
VERTEX
  5
639
  8
LAYER_1
 62
     1
 10
-2.795614173228346
 20
-1.153165354330709
 30
0.0
  0
VERTEX
  5
63A
  8
LAYER_1
 62
     1
 10
-2.778295275590551
 20
-1.155114173228347
 30
0.0
  0
VERTEX
  5
63B
  8
LAYER_1
 62
     1
 10
-2.760976377952756
 20
-1.153165354330709
 30
0.0
  0
VERTEX
  5
63C
  8
LAYER_1
 62
     1
 10
-2.748244094488189
 20
-1.147661417322835
 30
0.0
  0
VERTEX
  5
63D
  8
LAYER_1
 62
     1
 10
-2.739393700787402
 20
-1.139775590551181
 30
0.0
  0
VERTEX
  5
63E
  8
LAYER_1
 62
     1
 10
-2.733728346456693
 20
-1.130681102362205
 30
0.0
  0
VERTEX
  5
63F
  8
LAYER_1
 62
     1
 10
-2.730547244094488
 20
-1.121551181102362
 30
0.0
  0
VERTEX
  5
640
  8
LAYER_1
 62
     1
 10
-2.729141732283464
 20
-1.11355905511811
 30
0.0
  0
VERTEX
  5
641
  8
LAYER_1
 62
     1
 10
-2.728811023622047
 20
-1.107877952755906
 30
0.0
  0
VERTEX
  5
642
  8
LAYER_1
 62
     1
 10
-2.728858267716535
 20
-1.105677165354331
 30
0.0
  0
VERTEX
  5
643
  8
LAYER_1
 62
     1
 10
-2.728858267716535
 20
-1.010685039370079
 30
0.0
  0
SEQEND
  5
644
  8
LAYER_1
 62
     1
  0
ENDSEC
  0
EOF
