solid OpenSCAD_Model
  facet normal 0 1 0
    outer loop
      vertex -10 0 18.5
      vertex -9 0 5.5
      vertex -10 0 5.5
    endloop
  endfacet
  facet normal 0 1 0
    outer loop
      vertex -9 0 18.5
      vertex -9 0 5.5
      vertex -10 0 18.5
    endloop
  endfacet
  facet normal 0 1 0
    outer loop
      vertex -9 0 2.5
      vertex -9 0 5.5
      vertex -7.73849 0 24
    endloop
  endfacet
  facet normal 0 1 0
    outer loop
      vertex -9 0 5.5
      vertex -9 0 18.5
      vertex -7.73849 0 24
    endloop
  endfacet
  facet normal 0 1 0
    outer loop
      vertex -10 0 24
      vertex -9 0 21.5
      vertex -10 0 21.5
    endloop
  endfacet
  facet normal 0 1 0
    outer loop
      vertex -7.73849 0 24
      vertex -9 0 21.5
      vertex -10 0 24
    endloop
  endfacet
  facet normal 0 1 0
    outer loop
      vertex -9 0 18.5
      vertex -9 0 21.5
      vertex -7.73849 0 24
    endloop
  endfacet
  facet normal 0 1 0
    outer loop
      vertex -9 0 2.5
      vertex -7.73849 0 24
      vertex -7.73849 0 0
    endloop
  endfacet
  facet normal 0 1 0
    outer loop
      vertex -9 0 2.5
      vertex -7.73849 0 0
      vertex -10 0 2.5
    endloop
  endfacet
  facet normal 0 1 0
    outer loop
      vertex -7.73849 0 0
      vertex -10 0 0
      vertex -10 0 2.5
    endloop
  endfacet
  facet normal -0.994522 -0.104528 0
    outer loop
      vertex -10 0 0
      vertex -9.78148 -2.07912 0
      vertex -10 0 2.5
    endloop
  endfacet
  facet normal -0.994522 -0.104528 0
    outer loop
      vertex -10 0 2.5
      vertex -9.78148 -2.07912 0
      vertex -9.78148 -2.07912 2.5
    endloop
  endfacet
  facet normal 0 0 -1
    outer loop
      vertex -10 0 0
      vertex -7.73849 0 0
      vertex -9.78148 -2.07912 0
    endloop
  endfacet
  facet normal 0 0 -1
    outer loop
      vertex -9.78148 -2.07912 0
      vertex -7.73849 0 0
      vertex -7.73849 -0.977599 0
    endloop
  endfacet
  facet normal 0 0 -1
    outer loop
      vertex -9.78148 -2.07912 0
      vertex -7.73849 -0.977599 0
      vertex -7.25226 -2.87137 0
    endloop
  endfacet
  facet normal 0 0 -1
    outer loop
      vertex -7.25226 -2.87137 0
      vertex -6.31033 -4.58472 0
      vertex -9.78148 -2.07912 0
    endloop
  endfacet
  facet normal 0 0 -1
    outer loop
      vertex -6.31033 -4.58472 0
      vertex -4.97191 -6.01 0
      vertex -9.78148 -2.07912 0
    endloop
  endfacet
  facet normal 0 0 -1
    outer loop
      vertex 7.55495 -1.93978 0
      vertex 7.8 0 0
      vertex 28 0 0
    endloop
  endfacet
  facet normal 0 0 -1
    outer loop
      vertex 9.13546 -4.06737 0
      vertex 6.83519 -3.75768 0
      vertex 9.64472 -2.5 0
    endloop
  endfacet
  facet normal 0 0 -1
    outer loop
      vertex 7.55495 -1.93978 0
      vertex 28 0 0
      vertex 9.64472 -2.5 0
    endloop
  endfacet
  facet normal 0 0 -1
    outer loop
      vertex 7.55495 -1.93978 0
      vertex 9.64472 -2.5 0
      vertex 6.83519 -3.75768 0
    endloop
  endfacet
  facet normal 0 0 -1
    outer loop
      vertex 6.83519 -3.75768 0
      vertex 9.13546 -4.06737 0
      vertex 5.68595 -5.33947 0
    endloop
  endfacet
  facet normal 0 0 -1
    outer loop
      vertex 2.41033 -7.41824 0
      vertex 6.69131 -7.43145 0
      vertex 0.489766 -7.78461 0
    endloop
  endfacet
  facet normal 0 0 -1
    outer loop
      vertex 0.489766 -7.78461 0
      vertex 6.69131 -7.43145 0
      vertex 5 -8.66025 0
    endloop
  endfacet
  facet normal 0 0 -1
    outer loop
      vertex 0.489766 -7.78461 0
      vertex 5 -8.66025 0
      vertex -1.46157 -7.66184 0
    endloop
  endfacet
  facet normal 0 0 -1
    outer loop
      vertex -1.46157 -7.66184 0
      vertex 5 -8.66025 0
      vertex 3.09017 -9.51056 0
    endloop
  endfacet
  facet normal 0 0 -1
    outer loop
      vertex -1.46157 -7.66184 0
      vertex 3.09017 -9.51056 0
      vertex -3.32108 -7.05765 0
    endloop
  endfacet
  facet normal 0 0 -1
    outer loop
      vertex -3.32108 -7.05765 0
      vertex 3.09017 -9.51056 0
      vertex 1.04529 -9.94522 0
    endloop
  endfacet
  facet normal 0 0 -1
    outer loop
      vertex -3.32108 -7.05765 0
      vertex 1.04529 -9.94522 0
      vertex -4.97191 -6.01 0
    endloop
  endfacet
  facet normal 0 0 -1
    outer loop
      vertex -4.97191 -6.01 0
      vertex 1.04529 -9.94522 0
      vertex -1.04529 -9.94522 0
    endloop
  endfacet
  facet normal 0 0 -1
    outer loop
      vertex -4.97191 -6.01 0
      vertex -1.04529 -9.94522 0
      vertex -9.78148 -2.07912 0
    endloop
  endfacet
  facet normal 0 0 -1
    outer loop
      vertex -9.78148 -2.07912 0
      vertex -1.04529 -9.94522 0
      vertex -3.09017 -9.51056 0
    endloop
  endfacet
  facet normal 0 0 -1
    outer loop
      vertex -9.78148 -2.07912 0
      vertex -3.09017 -9.51056 0
      vertex -5 -8.66025 0
    endloop
  endfacet
  facet normal 0 0 -1
    outer loop
      vertex -9.78148 -2.07912 0
      vertex -5 -8.66025 0
      vertex -6.69131 -7.43145 0
    endloop
  endfacet
  facet normal 0 0 -1
    outer loop
      vertex -9.78148 -2.07912 0
      vertex -6.69131 -7.43145 0
      vertex -8.09017 -5.87785 0
    endloop
  endfacet
  facet normal 0 0 -1
    outer loop
      vertex -9.78148 -2.07912 0
      vertex -8.09017 -5.87785 0
      vertex -9.13546 -4.06737 0
    endloop
  endfacet
  facet normal 0 0 -1
    outer loop
      vertex 9.64472 -2.5 0
      vertex 28 0 0
      vertex 28 -2.5 0
    endloop
  endfacet
  facet normal 0 0 -1
    outer loop
      vertex 8.09017 -5.87785 0
      vertex 2.41033 -7.41824 0
      vertex 4.17945 -6.58576 0
    endloop
  endfacet
  facet normal 0 0 -1
    outer loop
      vertex 8.09017 -5.87785 0
      vertex 4.17945 -6.58576 0
      vertex 5.68595 -5.33947 0
    endloop
  endfacet
  facet normal 0 0 -1
    outer loop
      vertex 6.69131 -7.43145 0
      vertex 2.41033 -7.41824 0
      vertex 8.09017 -5.87785 0
    endloop
  endfacet
  facet normal 0 0 -1
    outer loop
      vertex 8.09017 -5.87785 0
      vertex 5.68595 -5.33947 0
      vertex 9.13546 -4.06737 0
    endloop
  endfacet
  facet normal 0 0 1
    outer loop
      vertex -9.78148 -2.07912 2.5
      vertex -9.13546 -4.06737 2.5
      vertex -9 -4.30198 2.5
    endloop
  endfacet
  facet normal 0 0 1
    outer loop
      vertex -10 0 2.5
      vertex -9.78148 -2.07912 2.5
      vertex -9 0 2.5
    endloop
  endfacet
  facet normal 0 0 1
    outer loop
      vertex -9 0 2.5
      vertex -9.78148 -2.07912 2.5
      vertex -9 -4.30198 2.5
    endloop
  endfacet
  facet normal 1 0 0
    outer loop
      vertex -7.73849 0 0
      vertex -7.73849 0 24
      vertex -7.73849 -0.977599 24
    endloop
  endfacet
  facet normal 1 0 0
    outer loop
      vertex -7.73849 -0.977599 0
      vertex -7.73849 0 0
      vertex -7.73849 -0.977599 24
    endloop
  endfacet
  facet normal 0 0 1
    outer loop
      vertex -7.73849 0 24
      vertex -10 0 24
      vertex -9.78148 -2.07912 24
    endloop
  endfacet
  facet normal 0 0 1
    outer loop
      vertex -8.09017 -5.87785 24
      vertex -7.73849 0 24
      vertex -9.13546 -4.06737 24
    endloop
  endfacet
  facet normal 0 0 1
    outer loop
      vertex -9.13546 -4.06737 24
      vertex -7.73849 0 24
      vertex -9.78148 -2.07912 24
    endloop
  endfacet
  facet normal 0 0 1
    outer loop
      vertex -7.73849 -0.977599 24
      vertex -7.73849 0 24
      vertex -8.09017 -5.87785 24
    endloop
  endfacet
  facet normal 0 0 1
    outer loop
      vertex -7.25226 -2.87137 24
      vertex -7.73849 -0.977599 24
      vertex -6.69131 -7.43145 24
    endloop
  endfacet
  facet normal 0 0 1
    outer loop
      vertex -4.97191 -6.01 24
      vertex -6.31033 -4.58472 24
      vertex -5 -8.66025 24
    endloop
  endfacet
  facet normal 0 0 1
    outer loop
      vertex -3.32108 -7.05765 24
      vertex -4.97191 -6.01 24
      vertex -3.09017 -9.51056 24
    endloop
  endfacet
  facet normal 0 0 1
    outer loop
      vertex -1.46157 -7.66184 24
      vertex -3.32108 -7.05765 24
      vertex -1.04529 -9.94522 24
    endloop
  endfacet
  facet normal 0 0 1
    outer loop
      vertex 0.489766 -7.78461 24
      vertex -1.46157 -7.66184 24
      vertex 1.04529 -9.94522 24
    endloop
  endfacet
  facet normal 0 0 1
    outer loop
      vertex 2.41033 -7.41824 24
      vertex 0.489766 -7.78461 24
      vertex 3.09017 -9.51056 24
    endloop
  endfacet
  facet normal 0 0 1
    outer loop
      vertex 4.17945 -6.58576 24
      vertex 2.41033 -7.41824 24
      vertex 5 -8.66025 24
    endloop
  endfacet
  facet normal 0 0 1
    outer loop
      vertex 5.68595 -5.33947 24
      vertex 4.17945 -6.58576 24
      vertex 6.69131 -7.43145 24
    endloop
  endfacet
  facet normal 0 0 1
    outer loop
      vertex 6.83519 -3.75768 24
      vertex 5.68595 -5.33947 24
      vertex 8.09017 -5.87785 24
    endloop
  endfacet
  facet normal 0 0 1
    outer loop
      vertex 7.55495 -1.93978 24
      vertex 9.13546 -4.06737 24
      vertex 9.64472 -2.5 24
    endloop
  endfacet
  facet normal 0 0 1
    outer loop
      vertex 28 0 24
      vertex 7.8 0 24
      vertex 28 -2.5 24
    endloop
  endfacet
  facet normal 0 0 1
    outer loop
      vertex 28 -2.5 24
      vertex 7.55495 -1.93978 24
      vertex 9.64472 -2.5 24
    endloop
  endfacet
  facet normal 0 0 1
    outer loop
      vertex 9.13546 -4.06737 24
      vertex 6.83519 -3.75768 24
      vertex 8.09017 -5.87785 24
    endloop
  endfacet
  facet normal 0 0 1
    outer loop
      vertex 8.09017 -5.87785 24
      vertex 5.68595 -5.33947 24
      vertex 6.69131 -7.43145 24
    endloop
  endfacet
  facet normal 0 0 1
    outer loop
      vertex 6.69131 -7.43145 24
      vertex 4.17945 -6.58576 24
      vertex 5 -8.66025 24
    endloop
  endfacet
  facet normal 0 0 1
    outer loop
      vertex 5 -8.66025 24
      vertex 2.41033 -7.41824 24
      vertex 3.09017 -9.51056 24
    endloop
  endfacet
  facet normal 0 0 1
    outer loop
      vertex 3.09017 -9.51056 24
      vertex 0.489766 -7.78461 24
      vertex 1.04529 -9.94522 24
    endloop
  endfacet
  facet normal 0 0 1
    outer loop
      vertex 1.04529 -9.94522 24
      vertex -1.46157 -7.66184 24
      vertex -1.04529 -9.94522 24
    endloop
  endfacet
  facet normal 0 0 1
    outer loop
      vertex -1.04529 -9.94522 24
      vertex -3.32108 -7.05765 24
      vertex -3.09017 -9.51056 24
    endloop
  endfacet
  facet normal 0 0 1
    outer loop
      vertex -3.09017 -9.51056 24
      vertex -4.97191 -6.01 24
      vertex -5 -8.66025 24
    endloop
  endfacet
  facet normal 0 0 1
    outer loop
      vertex -5 -8.66025 24
      vertex -6.31033 -4.58472 24
      vertex -6.69131 -7.43145 24
    endloop
  endfacet
  facet normal 0 0 1
    outer loop
      vertex -6.31033 -4.58472 24
      vertex -7.25226 -2.87137 24
      vertex -6.69131 -7.43145 24
    endloop
  endfacet
  facet normal 0 0 1
    outer loop
      vertex -6.69131 -7.43145 24
      vertex -7.73849 -0.977599 24
      vertex -8.09017 -5.87785 24
    endloop
  endfacet
  facet normal 0 0 1
    outer loop
      vertex 7.8 0 24
      vertex 7.55495 -1.93978 24
      vertex 28 -2.5 24
    endloop
  endfacet
  facet normal 0 0 1
    outer loop
      vertex 7.55495 -1.93978 24
      vertex 6.83519 -3.75768 24
      vertex 9.13546 -4.06737 24
    endloop
  endfacet
  facet normal -0.994522 -0.104528 0
    outer loop
      vertex -10 0 21.5
      vertex -9.78148 -2.07912 21.5
      vertex -10 0 24
    endloop
  endfacet
  facet normal -0.994522 -0.104528 0
    outer loop
      vertex -10 0 24
      vertex -9.78148 -2.07912 21.5
      vertex -9.78148 -2.07912 24
    endloop
  endfacet
  facet normal 0 0 -1
    outer loop
      vertex -9 -4.30198 21.5
      vertex -9.13546 -4.06737 21.5
      vertex -9 0 21.5
    endloop
  endfacet
  facet normal 0 0 -1
    outer loop
      vertex -9 0 21.5
      vertex -9.13546 -4.06737 21.5
      vertex -9.78148 -2.07912 21.5
    endloop
  endfacet
  facet normal 0 0 -1
    outer loop
      vertex -9 0 21.5
      vertex -9.78148 -2.07912 21.5
      vertex -10 0 21.5
    endloop
  endfacet
  facet normal -1 0 0
    outer loop
      vertex -9 0 21.5
      vertex -9 0 18.5
      vertex -9 -4.30198 21.5
    endloop
  endfacet
  facet normal -1 0 0
    outer loop
      vertex -9 -4.30198 21.5
      vertex -9 0 18.5
      vertex -9 -4.30198 18.5
    endloop
  endfacet
  facet normal 0 0 1
    outer loop
      vertex -9.78148 -2.07912 18.5
      vertex -9.13546 -4.06737 18.5
      vertex -9 -4.30198 18.5
    endloop
  endfacet
  facet normal 0 0 1
    outer loop
      vertex -10 0 18.5
      vertex -9.78148 -2.07912 18.5
      vertex -9 0 18.5
    endloop
  endfacet
  facet normal 0 0 1
    outer loop
      vertex -9 0 18.5
      vertex -9.78148 -2.07912 18.5
      vertex -9 -4.30198 18.5
    endloop
  endfacet
  facet normal -0.994522 -0.104528 0
    outer loop
      vertex -10 0 5.5
      vertex -9.78148 -2.07912 5.5
      vertex -10 0 18.5
    endloop
  endfacet
  facet normal -0.994522 -0.104528 0
    outer loop
      vertex -10 0 18.5
      vertex -9.78148 -2.07912 5.5
      vertex -9.78148 -2.07912 18.5
    endloop
  endfacet
  facet normal 0 0 -1
    outer loop
      vertex -9 -4.30198 5.5
      vertex -9.13546 -4.06737 5.5
      vertex -9 0 5.5
    endloop
  endfacet
  facet normal 0 0 -1
    outer loop
      vertex -9 0 5.5
      vertex -9.13546 -4.06737 5.5
      vertex -9.78148 -2.07912 5.5
    endloop
  endfacet
  facet normal 0 0 -1
    outer loop
      vertex -9 0 5.5
      vertex -9.78148 -2.07912 5.5
      vertex -10 0 5.5
    endloop
  endfacet
  facet normal -1 0 0
    outer loop
      vertex -9 0 5.5
      vertex -9 0 2.5
      vertex -9 -4.30198 5.5
    endloop
  endfacet
  facet normal -1 0 0
    outer loop
      vertex -9 -4.30198 5.5
      vertex -9 0 2.5
      vertex -9 -4.30198 2.5
    endloop
  endfacet
  facet normal -0.951057 -0.309017 0
    outer loop
      vertex -9.78148 -2.07912 0
      vertex -9.13546 -4.06737 0
      vertex -9.78148 -2.07912 2.5
    endloop
  endfacet
  facet normal -0.951057 -0.309017 0
    outer loop
      vertex -9.78148 -2.07912 2.5
      vertex -9.13546 -4.06737 0
      vertex -9.13546 -4.06737 2.5
    endloop
  endfacet
  facet normal -0.866025 -0.5 0
    outer loop
      vertex -9.13546 -4.06737 0
      vertex -8.09017 -5.87785 0
      vertex -9.13546 -4.06737 2.5
    endloop
  endfacet
  facet normal -0.866025 -0.5 0
    outer loop
      vertex -9 -4.30198 2.5
      vertex -8.09017 -5.87785 0
      vertex -8.09017 -5.87785 24
    endloop
  endfacet
  facet normal -0.866025 -0.5 0
    outer loop
      vertex -9.13546 -4.06737 21.5
      vertex -8.09017 -5.87785 24
      vertex -9.13546 -4.06737 24
    endloop
  endfacet
  facet normal -0.866025 -0.5 0
    outer loop
      vertex -9 -4.30198 21.5
      vertex -8.09017 -5.87785 24
      vertex -9.13546 -4.06737 21.5
    endloop
  endfacet
  facet normal -0.866025 -0.5 0
    outer loop
      vertex -9 -4.30198 18.5
      vertex -8.09017 -5.87785 24
      vertex -9 -4.30198 21.5
    endloop
  endfacet
  facet normal -0.866025 -0.5 0
    outer loop
      vertex -9 -4.30198 5.5
      vertex -8.09017 -5.87785 24
      vertex -9 -4.30198 18.5
    endloop
  endfacet
  facet normal -0.866025 -0.5 0
    outer loop
      vertex -9 -4.30198 5.5
      vertex -9 -4.30198 18.5
      vertex -9.13546 -4.06737 5.5
    endloop
  endfacet
  facet normal -0.866025 -0.5 0
    outer loop
      vertex -9 -4.30198 2.5
      vertex -8.09017 -5.87785 24
      vertex -9 -4.30198 5.5
    endloop
  endfacet
  facet normal -0.866025 -0.5 0
    outer loop
      vertex -9.13546 -4.06737 2.5
      vertex -8.09017 -5.87785 0
      vertex -9 -4.30198 2.5
    endloop
  endfacet
  facet normal -0.866025 -0.5 0
    outer loop
      vertex -9.13546 -4.06737 18.5
      vertex -9.13546 -4.06737 5.5
      vertex -9 -4.30198 18.5
    endloop
  endfacet
  facet normal -0.743145 -0.669131 0
    outer loop
      vertex -8.09017 -5.87785 0
      vertex -6.69131 -7.43145 0
      vertex -8.09017 -5.87785 24
    endloop
  endfacet
  facet normal -0.743145 -0.669131 0
    outer loop
      vertex -8.09017 -5.87785 24
      vertex -6.69131 -7.43145 0
      vertex -6.69131 -7.43145 24
    endloop
  endfacet
  facet normal -0.587785 -0.809017 0
    outer loop
      vertex -6.69131 -7.43145 24
      vertex -6.69131 -7.43145 0
      vertex -5 -8.66025 0
    endloop
  endfacet
  facet normal -0.587785 -0.809017 0
    outer loop
      vertex -5 -8.66025 24
      vertex -6.69131 -7.43145 24
      vertex -5 -8.66025 0
    endloop
  endfacet
  facet normal -0.406737 -0.913545 0
    outer loop
      vertex -5 -8.66025 24
      vertex -5 -8.66025 0
      vertex -3.09017 -9.51056 0
    endloop
  endfacet
  facet normal -0.406737 -0.913545 0
    outer loop
      vertex -3.09017 -9.51056 24
      vertex -5 -8.66025 24
      vertex -3.09017 -9.51056 0
    endloop
  endfacet
  facet normal -0.207912 -0.978148 0
    outer loop
      vertex -3.09017 -9.51056 24
      vertex -3.09017 -9.51056 0
      vertex -1.04529 -9.94522 0
    endloop
  endfacet
  facet normal -0.207912 -0.978148 0
    outer loop
      vertex -1.04529 -9.94522 24
      vertex -3.09017 -9.51056 24
      vertex -1.04529 -9.94522 0
    endloop
  endfacet
  facet normal 0 -1 0
    outer loop
      vertex -1.04529 -9.94522 24
      vertex -1.04529 -9.94522 0
      vertex 1.04529 -9.94522 0
    endloop
  endfacet
  facet normal 0 -1 0
    outer loop
      vertex 1.04529 -9.94522 24
      vertex -1.04529 -9.94522 24
      vertex 1.04529 -9.94522 0
    endloop
  endfacet
  facet normal 0.207912 -0.978148 0
    outer loop
      vertex 1.04529 -9.94522 24
      vertex 1.04529 -9.94522 0
      vertex 3.09017 -9.51056 0
    endloop
  endfacet
  facet normal 0.207912 -0.978148 0
    outer loop
      vertex 3.09017 -9.51056 24
      vertex 1.04529 -9.94522 24
      vertex 3.09017 -9.51056 0
    endloop
  endfacet
  facet normal 0.406737 -0.913545 0
    outer loop
      vertex 3.09017 -9.51056 24
      vertex 3.09017 -9.51056 0
      vertex 5 -8.66025 0
    endloop
  endfacet
  facet normal 0.406737 -0.913545 0
    outer loop
      vertex 5 -8.66025 24
      vertex 3.09017 -9.51056 24
      vertex 5 -8.66025 0
    endloop
  endfacet
  facet normal 0.587785 -0.809017 0
    outer loop
      vertex 5 -8.66025 24
      vertex 5 -8.66025 0
      vertex 6.69131 -7.43145 0
    endloop
  endfacet
  facet normal 0.587785 -0.809017 0
    outer loop
      vertex 6.69131 -7.43145 24
      vertex 5 -8.66025 24
      vertex 6.69131 -7.43145 0
    endloop
  endfacet
  facet normal 0.743145 -0.669131 0
    outer loop
      vertex 6.69131 -7.43145 24
      vertex 6.69131 -7.43145 0
      vertex 8.09017 -5.87785 0
    endloop
  endfacet
  facet normal 0.743145 -0.669131 0
    outer loop
      vertex 8.09017 -5.87785 24
      vertex 6.69131 -7.43145 24
      vertex 8.09017 -5.87785 0
    endloop
  endfacet
  facet normal 0.866025 -0.5 0
    outer loop
      vertex 8.09017 -5.87785 24
      vertex 8.09017 -5.87785 0
      vertex 9.13546 -4.06737 0
    endloop
  endfacet
  facet normal 0.866025 -0.5 0
    outer loop
      vertex 9.13546 -4.06737 24
      vertex 8.09017 -5.87785 24
      vertex 9.13546 -4.06737 0
    endloop
  endfacet
  facet normal 0.951057 -0.309017 0
    outer loop
      vertex 9.13546 -4.06737 24
      vertex 9.13546 -4.06737 0
      vertex 9.64472 -2.5 0
    endloop
  endfacet
  facet normal 0.951057 -0.309017 0
    outer loop
      vertex 9.64472 -2.5 24
      vertex 9.13546 -4.06737 24
      vertex 9.64472 -2.5 0
    endloop
  endfacet
  facet normal 0 -1 0
    outer loop
      vertex 10 -2.5 2.5
      vertex 9.64472 -2.5 0
      vertex 28 -2.5 0
    endloop
  endfacet
  facet normal 0 -1 0
    outer loop
      vertex 12 -2.5 2.5
      vertex 10 -2.5 2.5
      vertex 28 -2.5 0
    endloop
  endfacet
  facet normal 0 -1 0
    outer loop
      vertex 9.64472 -2.5 24
      vertex 9.64472 -2.5 0
      vertex 10 -2.5 2.5
    endloop
  endfacet
  facet normal 0 -1 0
    outer loop
      vertex 9.64472 -2.5 24
      vertex 10 -2.5 2.5
      vertex 10 -2.5 5.5
    endloop
  endfacet
  facet normal 0 -1 0
    outer loop
      vertex 12 -2.5 18.5
      vertex 12 -2.5 5.5
      vertex 28 -2.5 0
    endloop
  endfacet
  facet normal 0 -1 0
    outer loop
      vertex 10 -2.5 18.5
      vertex 10 -2.5 5.5
      vertex 12 -2.5 5.5
    endloop
  endfacet
  facet normal 0 -1 0
    outer loop
      vertex 10 -2.5 18.5
      vertex 10 -2.5 21.5
      vertex 9.64472 -2.5 24
    endloop
  endfacet
  facet normal 0 -1 0
    outer loop
      vertex 9.64472 -2.5 24
      vertex 10 -2.5 5.5
      vertex 10 -2.5 18.5
    endloop
  endfacet
  facet normal 0 -1 0
    outer loop
      vertex 12 -2.5 21.5
      vertex 12 -2.5 18.5
      vertex 28 -2.5 0
    endloop
  endfacet
  facet normal 0 -1 0
    outer loop
      vertex 10 -2.5 21.5
      vertex 12 -2.5 21.5
      vertex 9.64472 -2.5 24
    endloop
  endfacet
  facet normal 0 -1 0
    outer loop
      vertex 22.2322 -2.5 18.2322
      vertex 12 -2.5 21.5
      vertex 28 -2.5 0
    endloop
  endfacet
  facet normal 0 -1 0
    outer loop
      vertex 28 -2.5 24
      vertex 9.64472 -2.5 24
      vertex 12 -2.5 21.5
    endloop
  endfacet
  facet normal 0 -1 0
    outer loop
      vertex 24 -2.5 22.5
      vertex 25.7678 -2.5 21.7678
      vertex 28 -2.5 24
    endloop
  endfacet
  facet normal 0 -1 0
    outer loop
      vertex 24 -2.5 17.5
      vertex 22.2322 -2.5 18.2322
      vertex 28 -2.5 0
    endloop
  endfacet
  facet normal 0 -1 0
    outer loop
      vertex 21.5 -2.5 20
      vertex 12 -2.5 21.5
      vertex 22.2322 -2.5 18.2322
    endloop
  endfacet
  facet normal 0 -1 0
    outer loop
      vertex 22.2322 -2.5 21.7678
      vertex 12 -2.5 21.5
      vertex 21.5 -2.5 20
    endloop
  endfacet
  facet normal 0 -1 0
    outer loop
      vertex 25.7678 -2.5 21.7678
      vertex 26.5 -2.5 20
      vertex 28 -2.5 24
    endloop
  endfacet
  facet normal 0 -1 0
    outer loop
      vertex 24 -2.5 22.5
      vertex 12 -2.5 21.5
      vertex 22.2322 -2.5 21.7678
    endloop
  endfacet
  facet normal 0 -1 0
    outer loop
      vertex 28 -2.5 24
      vertex 12 -2.5 21.5
      vertex 24 -2.5 22.5
    endloop
  endfacet
  facet normal 0 -1 0
    outer loop
      vertex 28 -2.5 24
      vertex 26.5 -2.5 20
      vertex 28 -2.5 0
    endloop
  endfacet
  facet normal 0 -1 0
    outer loop
      vertex 26.5 -2.5 20
      vertex 25.7678 -2.5 18.2322
      vertex 28 -2.5 0
    endloop
  endfacet
  facet normal 0 -1 0
    outer loop
      vertex 25.7678 -2.5 18.2322
      vertex 24 -2.5 17.5
      vertex 28 -2.5 0
    endloop
  endfacet
  facet normal 0 -1 0
    outer loop
      vertex 12 -2.5 5.5
      vertex 12 -2.5 2.5
      vertex 28 -2.5 0
    endloop
  endfacet
  facet normal 0 -1 0
    outer loop
      vertex 12 -2.5 18.5
      vertex 10 -2.5 18.5
      vertex 12 -2.5 5.5
    endloop
  endfacet
  facet normal 1 0 0
    outer loop
      vertex 28 -2.5 24
      vertex 28 -2.5 0
      vertex 28 0 0
    endloop
  endfacet
  facet normal 1 0 0
    outer loop
      vertex 28 0 24
      vertex 28 -2.5 24
      vertex 28 0 0
    endloop
  endfacet
  facet normal 0 1 0
    outer loop
      vertex 10 0 2.5
      vertex 28 0 0
      vertex 7.8 0 0
    endloop
  endfacet
  facet normal 0 1 0
    outer loop
      vertex 12 0 2.5
      vertex 28 0 0
      vertex 10 0 2.5
    endloop
  endfacet
  facet normal 0 1 0
    outer loop
      vertex 7.8 0 24
      vertex 10 0 2.5
      vertex 7.8 0 0
    endloop
  endfacet
  facet normal 0 1 0
    outer loop
      vertex 12 0 5.5
      vertex 28 0 0
      vertex 12 0 2.5
    endloop
  endfacet
  facet normal 0 1 0
    outer loop
      vertex 10 0 18.5
      vertex 28 0 0
      vertex 12 0 5.5
    endloop
  endfacet
  facet normal 0 1 0
    outer loop
      vertex 10 0 18.5
      vertex 7.8 0 24
      vertex 10 0 21.5
    endloop
  endfacet
  facet normal 0 1 0
    outer loop
      vertex 7.8 0 24
      vertex 10 0 5.5
      vertex 10 0 2.5
    endloop
  endfacet
  facet normal 0 1 0
    outer loop
      vertex 12 0 18.5
      vertex 28 0 0
      vertex 10 0 18.5
    endloop
  endfacet
  facet normal 0 1 0
    outer loop
      vertex 7.8 0 24
      vertex 10 0 18.5
      vertex 12 0 5.5
    endloop
  endfacet
  facet normal 0 1 0
    outer loop
      vertex 12 0 21.5
      vertex 28 0 0
      vertex 12 0 18.5
    endloop
  endfacet
  facet normal 0 1 0
    outer loop
      vertex 22.2322 0 18.2322
      vertex 28 0 0
      vertex 12 0 21.5
    endloop
  endfacet
  facet normal 0 1 0
    outer loop
      vertex 28 0 24
      vertex 12 0 21.5
      vertex 7.8 0 24
    endloop
  endfacet
  facet normal 0 1 0
    outer loop
      vertex 25.7678 0 21.7678
      vertex 28 0 24
      vertex 26.5 0 20
    endloop
  endfacet
  facet normal 0 1 0
    outer loop
      vertex 12 0 21.5
      vertex 10 0 21.5
      vertex 7.8 0 24
    endloop
  endfacet
  facet normal 0 1 0
    outer loop
      vertex 24 0 17.5
      vertex 28 0 0
      vertex 22.2322 0 18.2322
    endloop
  endfacet
  facet normal 0 1 0
    outer loop
      vertex 21.5 0 20
      vertex 22.2322 0 18.2322
      vertex 12 0 21.5
    endloop
  endfacet
  facet normal 0 1 0
    outer loop
      vertex 25.7678 0 18.2322
      vertex 28 0 0
      vertex 24 0 17.5
    endloop
  endfacet
  facet normal 0 1 0
    outer loop
      vertex 26.5 0 20
      vertex 28 0 0
      vertex 25.7678 0 18.2322
    endloop
  endfacet
  facet normal 0 1 0
    outer loop
      vertex 28 0 24
      vertex 28 0 0
      vertex 26.5 0 20
    endloop
  endfacet
  facet normal 0 1 0
    outer loop
      vertex 21.5 0 20
      vertex 12 0 21.5
      vertex 22.2322 0 21.7678
    endloop
  endfacet
  facet normal 0 1 0
    outer loop
      vertex 28 0 24
      vertex 25.7678 0 21.7678
      vertex 24 0 22.5
    endloop
  endfacet
  facet normal 0 1 0
    outer loop
      vertex 28 0 24
      vertex 24 0 22.5
      vertex 12 0 21.5
    endloop
  endfacet
  facet normal 0 1 0
    outer loop
      vertex 24 0 22.5
      vertex 22.2322 0 21.7678
      vertex 12 0 21.5
    endloop
  endfacet
  facet normal 0 1 0
    outer loop
      vertex 10 0 5.5
      vertex 7.8 0 24
      vertex 12 0 5.5
    endloop
  endfacet
  facet normal -0.992115 0.125333 0
    outer loop
      vertex 7.8 0 24
      vertex 7.8 0 0
      vertex 7.55495 -1.93978 24
    endloop
  endfacet
  facet normal -0.992115 0.125333 0
    outer loop
      vertex 7.55495 -1.93978 24
      vertex 7.8 0 0
      vertex 7.55495 -1.93978 0
    endloop
  endfacet
  facet normal -0.929776 0.368125 0
    outer loop
      vertex 7.55495 -1.93978 24
      vertex 7.55495 -1.93978 0
      vertex 6.83519 -3.75768 24
    endloop
  endfacet
  facet normal -0.929776 0.368125 0
    outer loop
      vertex 6.83519 -3.75768 24
      vertex 7.55495 -1.93978 0
      vertex 6.83519 -3.75768 0
    endloop
  endfacet
  facet normal -0.809017 0.587786 0
    outer loop
      vertex 6.83519 -3.75768 24
      vertex 6.83519 -3.75768 0
      vertex 5.68595 -5.33947 24
    endloop
  endfacet
  facet normal -0.809017 0.587786 0
    outer loop
      vertex 5.68595 -5.33947 24
      vertex 6.83519 -3.75768 0
      vertex 5.68595 -5.33947 0
    endloop
  endfacet
  facet normal -0.637424 0.770513 0
    outer loop
      vertex 5.68595 -5.33947 24
      vertex 5.68595 -5.33947 0
      vertex 4.17945 -6.58576 24
    endloop
  endfacet
  facet normal -0.637424 0.770513 0
    outer loop
      vertex 4.17945 -6.58576 24
      vertex 5.68595 -5.33947 0
      vertex 4.17945 -6.58576 0
    endloop
  endfacet
  facet normal -0.425779 0.904827 0
    outer loop
      vertex 4.17945 -6.58576 24
      vertex 4.17945 -6.58576 0
      vertex 2.41033 -7.41824 24
    endloop
  endfacet
  facet normal -0.425779 0.904827 0
    outer loop
      vertex 2.41033 -7.41824 24
      vertex 4.17945 -6.58576 0
      vertex 2.41033 -7.41824 0
    endloop
  endfacet
  facet normal -0.187381 0.982287 0
    outer loop
      vertex 2.41033 -7.41824 24
      vertex 2.41033 -7.41824 0
      vertex 0.489766 -7.78461 24
    endloop
  endfacet
  facet normal -0.187381 0.982287 0
    outer loop
      vertex 0.489766 -7.78461 24
      vertex 2.41033 -7.41824 0
      vertex 0.489766 -7.78461 0
    endloop
  endfacet
  facet normal 0.0627901 0.998027 0
    outer loop
      vertex 0.489766 -7.78461 24
      vertex 0.489766 -7.78461 0
      vertex -1.46157 -7.66184 24
    endloop
  endfacet
  facet normal 0.0627901 0.998027 0
    outer loop
      vertex -1.46157 -7.66184 24
      vertex 0.489766 -7.78461 0
      vertex -1.46157 -7.66184 0
    endloop
  endfacet
  facet normal 0.309017 0.951056 0
    outer loop
      vertex -1.46157 -7.66184 24
      vertex -1.46157 -7.66184 0
      vertex -3.32108 -7.05765 24
    endloop
  endfacet
  facet normal 0.309017 0.951056 0
    outer loop
      vertex -3.32108 -7.05765 24
      vertex -1.46157 -7.66184 0
      vertex -3.32108 -7.05765 0
    endloop
  endfacet
  facet normal 0.535827 0.844328 0
    outer loop
      vertex -3.32108 -7.05765 24
      vertex -3.32108 -7.05765 0
      vertex -4.97191 -6.01 24
    endloop
  endfacet
  facet normal 0.535827 0.844328 0
    outer loop
      vertex -4.97191 -6.01 24
      vertex -3.32108 -7.05765 0
      vertex -4.97191 -6.01 0
    endloop
  endfacet
  facet normal 0.728968 0.684547 0
    outer loop
      vertex -6.31033 -4.58472 24
      vertex -4.97191 -6.01 24
      vertex -4.97191 -6.01 0
    endloop
  endfacet
  facet normal 0.728968 0.684547 0
    outer loop
      vertex -6.31033 -4.58472 0
      vertex -6.31033 -4.58472 24
      vertex -4.97191 -6.01 0
    endloop
  endfacet
  facet normal 0.876307 0.481754 0
    outer loop
      vertex -7.25226 -2.87137 24
      vertex -6.31033 -4.58472 24
      vertex -6.31033 -4.58472 0
    endloop
  endfacet
  facet normal 0.876307 0.481754 0
    outer loop
      vertex -7.25226 -2.87137 0
      vertex -7.25226 -2.87137 24
      vertex -6.31033 -4.58472 0
    endloop
  endfacet
  facet normal 0.968583 0.24869 0
    outer loop
      vertex -7.73849 -0.977599 24
      vertex -7.25226 -2.87137 24
      vertex -7.25226 -2.87137 0
    endloop
  endfacet
  facet normal 0.968583 0.24869 0
    outer loop
      vertex -7.73849 -0.977599 0
      vertex -7.73849 -0.977599 24
      vertex -7.25226 -2.87137 0
    endloop
  endfacet
  facet normal -0.951057 -0.309017 0
    outer loop
      vertex -9.78148 -2.07912 21.5
      vertex -9.13546 -4.06737 21.5
      vertex -9.78148 -2.07912 24
    endloop
  endfacet
  facet normal -0.951057 -0.309017 0
    outer loop
      vertex -9.78148 -2.07912 24
      vertex -9.13546 -4.06737 21.5
      vertex -9.13546 -4.06737 24
    endloop
  endfacet
  facet normal -0.951057 -0.309017 0
    outer loop
      vertex -9.78148 -2.07912 5.5
      vertex -9.13546 -4.06737 5.5
      vertex -9.78148 -2.07912 18.5
    endloop
  endfacet
  facet normal -0.951057 -0.309017 0
    outer loop
      vertex -9.78148 -2.07912 18.5
      vertex -9.13546 -4.06737 5.5
      vertex -9.13546 -4.06737 18.5
    endloop
  endfacet
  facet normal 1 0 0
    outer loop
      vertex 10 0 2.5
      vertex 10 0 5.5
      vertex 10 -2.5 5.5
    endloop
  endfacet
  facet normal 1 0 0
    outer loop
      vertex 10 -2.5 2.5
      vertex 10 0 2.5
      vertex 10 -2.5 5.5
    endloop
  endfacet
  facet normal 0 0 1
    outer loop
      vertex 12 -2.5 2.5
      vertex 12 0 2.5
      vertex 10 0 2.5
    endloop
  endfacet
  facet normal 0 0 1
    outer loop
      vertex 10 -2.5 2.5
      vertex 12 -2.5 2.5
      vertex 10 0 2.5
    endloop
  endfacet
  facet normal -1 0 0
    outer loop
      vertex 12 0 5.5
      vertex 12 0 2.5
      vertex 12 -2.5 5.5
    endloop
  endfacet
  facet normal -1 0 0
    outer loop
      vertex 12 -2.5 5.5
      vertex 12 0 2.5
      vertex 12 -2.5 2.5
    endloop
  endfacet
  facet normal 0 0 -1
    outer loop
      vertex 12 0 5.5
      vertex 12 -2.5 5.5
      vertex 10 0 5.5
    endloop
  endfacet
  facet normal 0 0 -1
    outer loop
      vertex 10 0 5.5
      vertex 12 -2.5 5.5
      vertex 10 -2.5 5.5
    endloop
  endfacet
  facet normal 1 0 0
    outer loop
      vertex 10 0 18.5
      vertex 10 0 21.5
      vertex 10 -2.5 21.5
    endloop
  endfacet
  facet normal 1 0 0
    outer loop
      vertex 10 -2.5 18.5
      vertex 10 0 18.5
      vertex 10 -2.5 21.5
    endloop
  endfacet
  facet normal 0 0 1
    outer loop
      vertex 12 -2.5 18.5
      vertex 12 0 18.5
      vertex 10 0 18.5
    endloop
  endfacet
  facet normal 0 0 1
    outer loop
      vertex 10 -2.5 18.5
      vertex 12 -2.5 18.5
      vertex 10 0 18.5
    endloop
  endfacet
  facet normal -1 0 0
    outer loop
      vertex 12 0 21.5
      vertex 12 0 18.5
      vertex 12 -2.5 21.5
    endloop
  endfacet
  facet normal -1 0 0
    outer loop
      vertex 12 -2.5 21.5
      vertex 12 0 18.5
      vertex 12 -2.5 18.5
    endloop
  endfacet
  facet normal 0 0 -1
    outer loop
      vertex 12 0 21.5
      vertex 12 -2.5 21.5
      vertex 10 0 21.5
    endloop
  endfacet
  facet normal 0 0 -1
    outer loop
      vertex 10 0 21.5
      vertex 12 -2.5 21.5
      vertex 10 -2.5 21.5
    endloop
  endfacet
  facet normal 0.92388 8.49728e-17 0.382683
    outer loop
      vertex 22.2322 -2.5 18.2322
      vertex 22.2322 0 18.2322
      vertex 21.5 0 20
    endloop
  endfacet
  facet normal 0.92388 8.49728e-17 0.382683
    outer loop
      vertex 21.5 -2.5 20
      vertex 22.2322 -2.5 18.2322
      vertex 21.5 0 20
    endloop
  endfacet
  facet normal 0.382683 2.05142e-16 0.92388
    outer loop
      vertex 24 -2.5 17.5
      vertex 24 0 17.5
      vertex 22.2322 0 18.2322
    endloop
  endfacet
  facet normal 0.382683 2.05142e-16 0.92388
    outer loop
      vertex 22.2322 -2.5 18.2322
      vertex 24 -2.5 17.5
      vertex 22.2322 0 18.2322
    endloop
  endfacet
  facet normal -0.382683 2.05142e-16 0.92388
    outer loop
      vertex 25.7678 -2.5 18.2322
      vertex 25.7678 0 18.2322
      vertex 24 0 17.5
    endloop
  endfacet
  facet normal -0.382683 2.05142e-16 0.92388
    outer loop
      vertex 24 -2.5 17.5
      vertex 25.7678 -2.5 18.2322
      vertex 24 0 17.5
    endloop
  endfacet
  facet normal -0.92388 8.49728e-17 0.382683
    outer loop
      vertex 26.5 0 20
      vertex 25.7678 0 18.2322
      vertex 26.5 -2.5 20
    endloop
  endfacet
  facet normal -0.92388 8.49728e-17 0.382683
    outer loop
      vertex 26.5 -2.5 20
      vertex 25.7678 0 18.2322
      vertex 25.7678 -2.5 18.2322
    endloop
  endfacet
  facet normal -0.92388 -8.49728e-17 -0.382683
    outer loop
      vertex 26.5 0 20
      vertex 26.5 -2.5 20
      vertex 25.7678 0 21.7678
    endloop
  endfacet
  facet normal -0.92388 -8.49728e-17 -0.382683
    outer loop
      vertex 25.7678 0 21.7678
      vertex 26.5 -2.5 20
      vertex 25.7678 -2.5 21.7678
    endloop
  endfacet
  facet normal -0.382683 -2.05142e-16 -0.92388
    outer loop
      vertex 25.7678 0 21.7678
      vertex 25.7678 -2.5 21.7678
      vertex 24 0 22.5
    endloop
  endfacet
  facet normal -0.382683 -2.05142e-16 -0.92388
    outer loop
      vertex 24 0 22.5
      vertex 25.7678 -2.5 21.7678
      vertex 24 -2.5 22.5
    endloop
  endfacet
  facet normal 0.382683 -2.05142e-16 -0.92388
    outer loop
      vertex 24 0 22.5
      vertex 24 -2.5 22.5
      vertex 22.2322 0 21.7678
    endloop
  endfacet
  facet normal 0.382683 -2.05142e-16 -0.92388
    outer loop
      vertex 22.2322 0 21.7678
      vertex 24 -2.5 22.5
      vertex 22.2322 -2.5 21.7678
    endloop
  endfacet
  facet normal 0.92388 -8.49728e-17 -0.382683
    outer loop
      vertex 21.5 0 20
      vertex 22.2322 0 21.7678
      vertex 22.2322 -2.5 21.7678
    endloop
  endfacet
  facet normal 0.92388 -8.49728e-17 -0.382683
    outer loop
      vertex 21.5 -2.5 20
      vertex 21.5 0 20
      vertex 22.2322 -2.5 21.7678
    endloop
  endfacet
endsolid OpenSCAD_Model
