solid OpenSCAD_Model
  facet normal 0 1 0
    outer loop
      vertex -7.63928 0 24
      vertex -7.63928 0 0
      vertex -9.8 0 24
    endloop
  endfacet
  facet normal 0 1 0
    outer loop
      vertex -9.8 0 24
      vertex -7.63928 0 0
      vertex -9.8 0 0
    endloop
  endfacet
  facet normal -0.994522 -0.104529 0
    outer loop
      vertex -9.8 0 0
      vertex -9.58585 -2.03754 0
      vertex -9.8 0 24
    endloop
  endfacet
  facet normal -0.994522 -0.104529 0
    outer loop
      vertex -9.8 0 24
      vertex -9.58585 -2.03754 0
      vertex -9.58585 -2.03754 24
    endloop
  endfacet
  facet normal 0 0 -1
    outer loop
      vertex -9.8 0 0
      vertex -7.63928 0 0
      vertex -9.58585 -2.03754 0
    endloop
  endfacet
  facet normal 0 0 -1
    outer loop
      vertex -9.58585 -2.03754 0
      vertex -7.63928 0 0
      vertex -7.63928 -0.965066 0
    endloop
  endfacet
  facet normal 0 0 -1
    outer loop
      vertex -9.58585 -2.03754 0
      vertex -7.63928 -0.965066 0
      vertex -7.15928 -2.83456 0
    endloop
  endfacet
  facet normal 0 0 -1
    outer loop
      vertex -7.15928 -2.83456 0
      vertex -6.22943 -4.52595 0
      vertex -9.58585 -2.03754 0
    endloop
  endfacet
  facet normal 0 0 -1
    outer loop
      vertex -6.22943 -4.52595 0
      vertex -4.90816 -5.93295 0
      vertex -9.58585 -2.03754 0
    endloop
  endfacet
  facet normal 0 0 -1
    outer loop
      vertex 7.45809 -1.91491 0
      vertex 7.7 0 0
      vertex 28 0 0
    endloop
  endfacet
  facet normal 0 0 -1
    outer loop
      vertex 8.95275 -3.98602 0
      vertex 6.74756 -3.7095 0
      vertex 9.43558 -2.5 0
    endloop
  endfacet
  facet normal 0 0 -1
    outer loop
      vertex 7.45809 -1.91491 0
      vertex 28 0 0
      vertex 9.43558 -2.5 0
    endloop
  endfacet
  facet normal 0 0 -1
    outer loop
      vertex 7.45809 -1.91491 0
      vertex 9.43558 -2.5 0
      vertex 6.74756 -3.7095 0
    endloop
  endfacet
  facet normal 0 0 -1
    outer loop
      vertex 6.74756 -3.7095 0
      vertex 8.95275 -3.98602 0
      vertex 5.61306 -5.27101 0
    endloop
  endfacet
  facet normal 0 0 -1
    outer loop
      vertex 0.483487 -7.68481 0
      vertex 6.55748 -7.28282 0
      vertex 4.9 -8.48705 0
    endloop
  endfacet
  facet normal 0 0 -1
    outer loop
      vertex 0.483487 -7.68481 0
      vertex 4.9 -8.48705 0
      vertex -1.44284 -7.56361 0
    endloop
  endfacet
  facet normal 0 0 -1
    outer loop
      vertex -1.44284 -7.56361 0
      vertex 4.9 -8.48705 0
      vertex 3.02837 -9.32035 0
    endloop
  endfacet
  facet normal 0 0 -1
    outer loop
      vertex -1.44284 -7.56361 0
      vertex 3.02837 -9.32035 0
      vertex -3.2785 -6.96717 0
    endloop
  endfacet
  facet normal 0 0 -1
    outer loop
      vertex -3.2785 -6.96717 0
      vertex 3.02837 -9.32035 0
      vertex 1.02438 -9.74631 0
    endloop
  endfacet
  facet normal 0 0 -1
    outer loop
      vertex -3.2785 -6.96717 0
      vertex 1.02438 -9.74631 0
      vertex -4.90816 -5.93295 0
    endloop
  endfacet
  facet normal 0 0 -1
    outer loop
      vertex -4.90816 -5.93295 0
      vertex 1.02438 -9.74631 0
      vertex -1.02438 -9.74631 0
    endloop
  endfacet
  facet normal 0 0 -1
    outer loop
      vertex -4.90816 -5.93295 0
      vertex -1.02438 -9.74631 0
      vertex -9.58585 -2.03754 0
    endloop
  endfacet
  facet normal 0 0 -1
    outer loop
      vertex -9.58585 -2.03754 0
      vertex -1.02438 -9.74631 0
      vertex -3.02837 -9.32035 0
    endloop
  endfacet
  facet normal 0 0 -1
    outer loop
      vertex -9.58585 -2.03754 0
      vertex -3.02837 -9.32035 0
      vertex -4.9 -8.48705 0
    endloop
  endfacet
  facet normal 0 0 -1
    outer loop
      vertex -9.58585 -2.03754 0
      vertex -4.9 -8.48705 0
      vertex -6.55748 -7.28282 0
    endloop
  endfacet
  facet normal 0 0 -1
    outer loop
      vertex -9.58585 -2.03754 0
      vertex -6.55748 -7.28282 0
      vertex -7.92837 -5.7603 0
    endloop
  endfacet
  facet normal 0 0 -1
    outer loop
      vertex -9.58585 -2.03754 0
      vertex -7.92837 -5.7603 0
      vertex -8.95275 -3.98602 0
    endloop
  endfacet
  facet normal 0 0 -1
    outer loop
      vertex 9.43558 -2.5 0
      vertex 28 0 0
      vertex 28 -2.5 0
    endloop
  endfacet
  facet normal 0 0 -1
    outer loop
      vertex 7.92837 -5.7603 0
      vertex 2.37943 -7.32313 0
      vertex 4.12587 -6.50132 0
    endloop
  endfacet
  facet normal 0 0 -1
    outer loop
      vertex 7.92837 -5.7603 0
      vertex 4.12587 -6.50132 0
      vertex 5.61306 -5.27101 0
    endloop
  endfacet
  facet normal 0 0 -1
    outer loop
      vertex 6.55748 -7.28282 0
      vertex 0.483487 -7.68481 0
      vertex 2.37943 -7.32313 0
    endloop
  endfacet
  facet normal 0 0 -1
    outer loop
      vertex 6.55748 -7.28282 0
      vertex 2.37943 -7.32313 0
      vertex 7.92837 -5.7603 0
    endloop
  endfacet
  facet normal 0 0 -1
    outer loop
      vertex 7.92837 -5.7603 0
      vertex 5.61306 -5.27101 0
      vertex 8.95275 -3.98602 0
    endloop
  endfacet
  facet normal 0 0 1
    outer loop
      vertex -7.63928 0 24
      vertex -9.8 0 24
      vertex -9.58585 -2.03754 24
    endloop
  endfacet
  facet normal 0 0 1
    outer loop
      vertex -7.92837 -5.7603 24
      vertex -7.63928 0 24
      vertex -8.95275 -3.98602 24
    endloop
  endfacet
  facet normal 0 0 1
    outer loop
      vertex -8.95275 -3.98602 24
      vertex -7.63928 0 24
      vertex -9.58585 -2.03754 24
    endloop
  endfacet
  facet normal 0 0 1
    outer loop
      vertex -7.63928 -0.965066 24
      vertex -7.63928 0 24
      vertex -7.92837 -5.7603 24
    endloop
  endfacet
  facet normal 0 0 1
    outer loop
      vertex -7.15928 -2.83456 24
      vertex -7.63928 -0.965066 24
      vertex -6.55748 -7.28282 24
    endloop
  endfacet
  facet normal 0 0 1
    outer loop
      vertex -4.90816 -5.93295 24
      vertex -6.22943 -4.52595 24
      vertex -4.9 -8.48705 24
    endloop
  endfacet
  facet normal 0 0 1
    outer loop
      vertex -3.2785 -6.96717 24
      vertex -4.90816 -5.93295 24
      vertex -3.02837 -9.32035 24
    endloop
  endfacet
  facet normal 0 0 1
    outer loop
      vertex -1.44284 -7.56361 24
      vertex -3.2785 -6.96717 24
      vertex -1.02438 -9.74631 24
    endloop
  endfacet
  facet normal 0 0 1
    outer loop
      vertex 0.483487 -7.68481 24
      vertex -1.44284 -7.56361 24
      vertex 1.02438 -9.74631 24
    endloop
  endfacet
  facet normal 0 0 1
    outer loop
      vertex 2.37943 -7.32313 24
      vertex 0.483487 -7.68481 24
      vertex 3.02837 -9.32035 24
    endloop
  endfacet
  facet normal 0 0 1
    outer loop
      vertex 4.12587 -6.50132 24
      vertex 2.37943 -7.32313 24
      vertex 4.9 -8.48705 24
    endloop
  endfacet
  facet normal 0 0 1
    outer loop
      vertex 5.61306 -5.27101 24
      vertex 4.12587 -6.50132 24
      vertex 6.55748 -7.28282 24
    endloop
  endfacet
  facet normal 0 0 1
    outer loop
      vertex 6.74756 -3.7095 24
      vertex 5.61306 -5.27101 24
      vertex 7.92837 -5.7603 24
    endloop
  endfacet
  facet normal 0 0 1
    outer loop
      vertex 7.45809 -1.91491 24
      vertex 8.95275 -3.98602 24
      vertex 9.43558 -2.5 24
    endloop
  endfacet
  facet normal 0 0 1
    outer loop
      vertex 28 0 24
      vertex 7.7 0 24
      vertex 28 -2.5 24
    endloop
  endfacet
  facet normal 0 0 1
    outer loop
      vertex 28 -2.5 24
      vertex 7.45809 -1.91491 24
      vertex 9.43558 -2.5 24
    endloop
  endfacet
  facet normal 0 0 1
    outer loop
      vertex 8.95275 -3.98602 24
      vertex 6.74756 -3.7095 24
      vertex 7.92837 -5.7603 24
    endloop
  endfacet
  facet normal 0 0 1
    outer loop
      vertex 7.92837 -5.7603 24
      vertex 5.61306 -5.27101 24
      vertex 6.55748 -7.28282 24
    endloop
  endfacet
  facet normal 0 0 1
    outer loop
      vertex 6.55748 -7.28282 24
      vertex 4.12587 -6.50132 24
      vertex 4.9 -8.48705 24
    endloop
  endfacet
  facet normal 0 0 1
    outer loop
      vertex 4.9 -8.48705 24
      vertex 2.37943 -7.32313 24
      vertex 3.02837 -9.32035 24
    endloop
  endfacet
  facet normal 0 0 1
    outer loop
      vertex 3.02837 -9.32035 24
      vertex 0.483487 -7.68481 24
      vertex 1.02438 -9.74631 24
    endloop
  endfacet
  facet normal 0 0 1
    outer loop
      vertex 1.02438 -9.74631 24
      vertex -1.44284 -7.56361 24
      vertex -1.02438 -9.74631 24
    endloop
  endfacet
  facet normal 0 0 1
    outer loop
      vertex -1.02438 -9.74631 24
      vertex -3.2785 -6.96717 24
      vertex -3.02837 -9.32035 24
    endloop
  endfacet
  facet normal 0 0 1
    outer loop
      vertex -3.02837 -9.32035 24
      vertex -4.90816 -5.93295 24
      vertex -4.9 -8.48705 24
    endloop
  endfacet
  facet normal 0 0 1
    outer loop
      vertex -4.9 -8.48705 24
      vertex -6.22943 -4.52595 24
      vertex -6.55748 -7.28282 24
    endloop
  endfacet
  facet normal 0 0 1
    outer loop
      vertex -6.22943 -4.52595 24
      vertex -7.15928 -2.83456 24
      vertex -6.55748 -7.28282 24
    endloop
  endfacet
  facet normal 0 0 1
    outer loop
      vertex -6.55748 -7.28282 24
      vertex -7.63928 -0.965066 24
      vertex -7.92837 -5.7603 24
    endloop
  endfacet
  facet normal 0 0 1
    outer loop
      vertex 7.7 0 24
      vertex 7.45809 -1.91491 24
      vertex 28 -2.5 24
    endloop
  endfacet
  facet normal 0 0 1
    outer loop
      vertex 7.45809 -1.91491 24
      vertex 6.74756 -3.7095 24
      vertex 8.95275 -3.98602 24
    endloop
  endfacet
  facet normal 1 0 0
    outer loop
      vertex -7.63928 0 0
      vertex -7.63928 0 24
      vertex -7.63928 -0.965066 24
    endloop
  endfacet
  facet normal 1 0 0
    outer loop
      vertex -7.63928 -0.965066 0
      vertex -7.63928 0 0
      vertex -7.63928 -0.965066 24
    endloop
  endfacet
  facet normal -0.951056 -0.309017 0
    outer loop
      vertex -9.58585 -2.03754 0
      vertex -8.95275 -3.98602 0
      vertex -9.58585 -2.03754 24
    endloop
  endfacet
  facet normal -0.951056 -0.309017 0
    outer loop
      vertex -9.58585 -2.03754 24
      vertex -8.95275 -3.98602 0
      vertex -8.95275 -3.98602 24
    endloop
  endfacet
  facet normal -0.866026 -0.5 0
    outer loop
      vertex -8.95275 -3.98602 0
      vertex -7.92837 -5.7603 0
      vertex -8.95275 -3.98602 24
    endloop
  endfacet
  facet normal -0.866026 -0.5 0
    outer loop
      vertex -8.95275 -3.98602 24
      vertex -7.92837 -5.7603 0
      vertex -7.92837 -5.7603 24
    endloop
  endfacet
  facet normal -0.743145 -0.669131 0
    outer loop
      vertex -7.92837 -5.7603 0
      vertex -6.55748 -7.28282 0
      vertex -7.92837 -5.7603 24
    endloop
  endfacet
  facet normal -0.743145 -0.669131 0
    outer loop
      vertex -7.92837 -5.7603 24
      vertex -6.55748 -7.28282 0
      vertex -6.55748 -7.28282 24
    endloop
  endfacet
  facet normal -0.587785 -0.809017 0
    outer loop
      vertex -6.55748 -7.28282 24
      vertex -6.55748 -7.28282 0
      vertex -4.9 -8.48705 0
    endloop
  endfacet
  facet normal -0.587785 -0.809017 0
    outer loop
      vertex -4.9 -8.48705 24
      vertex -6.55748 -7.28282 24
      vertex -4.9 -8.48705 0
    endloop
  endfacet
  facet normal -0.406737 -0.913545 0
    outer loop
      vertex -4.9 -8.48705 24
      vertex -4.9 -8.48705 0
      vertex -3.02837 -9.32035 0
    endloop
  endfacet
  facet normal -0.406737 -0.913545 0
    outer loop
      vertex -3.02837 -9.32035 24
      vertex -4.9 -8.48705 24
      vertex -3.02837 -9.32035 0
    endloop
  endfacet
  facet normal -0.207912 -0.978148 0
    outer loop
      vertex -3.02837 -9.32035 24
      vertex -3.02837 -9.32035 0
      vertex -1.02438 -9.74631 0
    endloop
  endfacet
  facet normal -0.207912 -0.978148 0
    outer loop
      vertex -1.02438 -9.74631 24
      vertex -3.02837 -9.32035 24
      vertex -1.02438 -9.74631 0
    endloop
  endfacet
  facet normal 0 -1 0
    outer loop
      vertex -1.02438 -9.74631 24
      vertex -1.02438 -9.74631 0
      vertex 1.02438 -9.74631 0
    endloop
  endfacet
  facet normal 0 -1 0
    outer loop
      vertex 1.02438 -9.74631 24
      vertex -1.02438 -9.74631 24
      vertex 1.02438 -9.74631 0
    endloop
  endfacet
  facet normal 0.207912 -0.978148 0
    outer loop
      vertex 1.02438 -9.74631 24
      vertex 1.02438 -9.74631 0
      vertex 3.02837 -9.32035 0
    endloop
  endfacet
  facet normal 0.207912 -0.978148 0
    outer loop
      vertex 3.02837 -9.32035 24
      vertex 1.02438 -9.74631 24
      vertex 3.02837 -9.32035 0
    endloop
  endfacet
  facet normal 0.406737 -0.913545 0
    outer loop
      vertex 3.02837 -9.32035 24
      vertex 3.02837 -9.32035 0
      vertex 4.9 -8.48705 0
    endloop
  endfacet
  facet normal 0.406737 -0.913545 0
    outer loop
      vertex 4.9 -8.48705 24
      vertex 3.02837 -9.32035 24
      vertex 4.9 -8.48705 0
    endloop
  endfacet
  facet normal 0.587785 -0.809017 0
    outer loop
      vertex 4.9 -8.48705 24
      vertex 4.9 -8.48705 0
      vertex 6.55748 -7.28282 0
    endloop
  endfacet
  facet normal 0.587785 -0.809017 0
    outer loop
      vertex 6.55748 -7.28282 24
      vertex 4.9 -8.48705 24
      vertex 6.55748 -7.28282 0
    endloop
  endfacet
  facet normal 0.743145 -0.669131 0
    outer loop
      vertex 6.55748 -7.28282 24
      vertex 6.55748 -7.28282 0
      vertex 7.92837 -5.7603 0
    endloop
  endfacet
  facet normal 0.743145 -0.669131 0
    outer loop
      vertex 7.92837 -5.7603 24
      vertex 6.55748 -7.28282 24
      vertex 7.92837 -5.7603 0
    endloop
  endfacet
  facet normal 0.866026 -0.5 0
    outer loop
      vertex 7.92837 -5.7603 24
      vertex 7.92837 -5.7603 0
      vertex 8.95275 -3.98602 0
    endloop
  endfacet
  facet normal 0.866026 -0.5 0
    outer loop
      vertex 8.95275 -3.98602 24
      vertex 7.92837 -5.7603 24
      vertex 8.95275 -3.98602 0
    endloop
  endfacet
  facet normal 0.951056 -0.309017 0
    outer loop
      vertex 8.95275 -3.98602 24
      vertex 8.95275 -3.98602 0
      vertex 9.43558 -2.5 0
    endloop
  endfacet
  facet normal 0.951056 -0.309017 0
    outer loop
      vertex 9.43558 -2.5 24
      vertex 8.95275 -3.98602 24
      vertex 9.43558 -2.5 0
    endloop
  endfacet
  facet normal 0 -1 0
    outer loop
      vertex 10 -2.5 3.5
      vertex 9.43558 -2.5 0
      vertex 28 -2.5 0
    endloop
  endfacet
  facet normal 0 -1 0
    outer loop
      vertex 22.1981 -2.5 19.1322
      vertex 9.43558 -2.5 24
      vertex 28 -2.5 0
    endloop
  endfacet
  facet normal 0 -1 0
    outer loop
      vertex 11 -2.5 3.5
      vertex 10 -2.5 3.5
      vertex 28 -2.5 0
    endloop
  endfacet
  facet normal 0 -1 0
    outer loop
      vertex 9.43558 -2.5 24
      vertex 9.43558 -2.5 0
      vertex 10 -2.5 3.5
    endloop
  endfacet
  facet normal 0 -1 0
    outer loop
      vertex 9.43558 -2.5 24
      vertex 10 -2.5 3.5
      vertex 10 -2.5 6.5
    endloop
  endfacet
  facet normal 0 -1 0
    outer loop
      vertex 11 -2.5 17.5
      vertex 11 -2.5 6.5
      vertex 28 -2.5 0
    endloop
  endfacet
  facet normal 0 -1 0
    outer loop
      vertex 10 -2.5 17.5
      vertex 10 -2.5 6.5
      vertex 11 -2.5 6.5
    endloop
  endfacet
  facet normal 0 -1 0
    outer loop
      vertex 10 -2.5 17.5
      vertex 10 -2.5 20.5
      vertex 9.43558 -2.5 24
    endloop
  endfacet
  facet normal 0 -1 0
    outer loop
      vertex 9.43558 -2.5 24
      vertex 10 -2.5 6.5
      vertex 10 -2.5 17.5
    endloop
  endfacet
  facet normal 0 -1 0
    outer loop
      vertex 11 -2.5 20.5
      vertex 11 -2.5 17.5
      vertex 28 -2.5 0
    endloop
  endfacet
  facet normal 0 -1 0
    outer loop
      vertex 9.43558 -2.5 24
      vertex 11 -2.5 20.5
      vertex 28 -2.5 0
    endloop
  endfacet
  facet normal 0 -1 0
    outer loop
      vertex 9.43558 -2.5 24
      vertex 10 -2.5 20.5
      vertex 11 -2.5 20.5
    endloop
  endfacet
  facet normal 0 -1 0
    outer loop
      vertex 23.555 -2.5 21.9499
      vertex 25.247 -2.5 21.5637
      vertex 28 -2.5 24
    endloop
  endfacet
  facet normal 0 -1 0
    outer loop
      vertex 23.555 -2.5 18.0501
      vertex 22.1981 -2.5 19.1322
      vertex 28 -2.5 0
    endloop
  endfacet
  facet normal 0 -1 0
    outer loop
      vertex 22.1981 -2.5 20.8678
      vertex 9.43558 -2.5 24
      vertex 22.1981 -2.5 19.1322
    endloop
  endfacet
  facet normal 0 -1 0
    outer loop
      vertex 26 -2.5 20
      vertex 25.247 -2.5 18.4363
      vertex 28 -2.5 0
    endloop
  endfacet
  facet normal 0 -1 0
    outer loop
      vertex 23.555 -2.5 21.9499
      vertex 9.43558 -2.5 24
      vertex 22.1981 -2.5 20.8678
    endloop
  endfacet
  facet normal 0 -1 0
    outer loop
      vertex 28 -2.5 24
      vertex 9.43558 -2.5 24
      vertex 23.555 -2.5 21.9499
    endloop
  endfacet
  facet normal 0 -1 0
    outer loop
      vertex 28 -2.5 24
      vertex 26 -2.5 20
      vertex 28 -2.5 0
    endloop
  endfacet
  facet normal 0 -1 0
    outer loop
      vertex 28 -2.5 24
      vertex 25.247 -2.5 21.5637
      vertex 26 -2.5 20
    endloop
  endfacet
  facet normal 0 -1 0
    outer loop
      vertex 25.247 -2.5 18.4363
      vertex 23.555 -2.5 18.0501
      vertex 28 -2.5 0
    endloop
  endfacet
  facet normal 0 -1 0
    outer loop
      vertex 11 -2.5 6.5
      vertex 11 -2.5 3.5
      vertex 28 -2.5 0
    endloop
  endfacet
  facet normal 0 -1 0
    outer loop
      vertex 11 -2.5 17.5
      vertex 10 -2.5 17.5
      vertex 11 -2.5 6.5
    endloop
  endfacet
  facet normal 1 0 0
    outer loop
      vertex 28 -2.5 24
      vertex 28 -2.5 0
      vertex 28 0 0
    endloop
  endfacet
  facet normal 1 0 0
    outer loop
      vertex 28 0 24
      vertex 28 -2.5 24
      vertex 28 0 0
    endloop
  endfacet
  facet normal 0 1 0
    outer loop
      vertex 25.247 0 21.5637
      vertex 28 0 24
      vertex 26 0 20
    endloop
  endfacet
  facet normal 0 1 0
    outer loop
      vertex 10 0 3.5
      vertex 28 0 0
      vertex 7.7 0 0
    endloop
  endfacet
  facet normal 0 1 0
    outer loop
      vertex 11 0 3.5
      vertex 28 0 0
      vertex 10 0 3.5
    endloop
  endfacet
  facet normal 0 1 0
    outer loop
      vertex 7.7 0 24
      vertex 10 0 3.5
      vertex 7.7 0 0
    endloop
  endfacet
  facet normal 0 1 0
    outer loop
      vertex 11 0 6.5
      vertex 28 0 0
      vertex 11 0 3.5
    endloop
  endfacet
  facet normal 0 1 0
    outer loop
      vertex 10 0 17.5
      vertex 28 0 0
      vertex 11 0 6.5
    endloop
  endfacet
  facet normal 0 1 0
    outer loop
      vertex 10 0 17.5
      vertex 7.7 0 24
      vertex 10 0 20.5
    endloop
  endfacet
  facet normal 0 1 0
    outer loop
      vertex 7.7 0 24
      vertex 10 0 6.5
      vertex 10 0 3.5
    endloop
  endfacet
  facet normal 0 1 0
    outer loop
      vertex 11 0 17.5
      vertex 28 0 0
      vertex 10 0 17.5
    endloop
  endfacet
  facet normal 0 1 0
    outer loop
      vertex 7.7 0 24
      vertex 10 0 17.5
      vertex 11 0 6.5
    endloop
  endfacet
  facet normal 0 1 0
    outer loop
      vertex 11 0 20.5
      vertex 28 0 0
      vertex 11 0 17.5
    endloop
  endfacet
  facet normal 0 1 0
    outer loop
      vertex 22.1981 0 19.1322
      vertex 28 0 0
      vertex 11 0 20.5
    endloop
  endfacet
  facet normal 0 1 0
    outer loop
      vertex 28 0 24
      vertex 11 0 20.5
      vertex 7.7 0 24
    endloop
  endfacet
  facet normal 0 1 0
    outer loop
      vertex 10 0 20.5
      vertex 7.7 0 24
      vertex 11 0 20.5
    endloop
  endfacet
  facet normal 0 1 0
    outer loop
      vertex 23.555 0 18.0501
      vertex 28 0 0
      vertex 22.1981 0 19.1322
    endloop
  endfacet
  facet normal 0 1 0
    outer loop
      vertex 22.1981 0 20.8678
      vertex 22.1981 0 19.1322
      vertex 11 0 20.5
    endloop
  endfacet
  facet normal 0 1 0
    outer loop
      vertex 25.247 0 18.4363
      vertex 28 0 0
      vertex 23.555 0 18.0501
    endloop
  endfacet
  facet normal 0 1 0
    outer loop
      vertex 28 0 24
      vertex 28 0 0
      vertex 25.247 0 18.4363
    endloop
  endfacet
  facet normal 0 1 0
    outer loop
      vertex 28 0 24
      vertex 25.247 0 18.4363
      vertex 26 0 20
    endloop
  endfacet
  facet normal 0 1 0
    outer loop
      vertex 23.555 0 21.9499
      vertex 28 0 24
      vertex 25.247 0 21.5637
    endloop
  endfacet
  facet normal 0 1 0
    outer loop
      vertex 28 0 24
      vertex 23.555 0 21.9499
      vertex 11 0 20.5
    endloop
  endfacet
  facet normal 0 1 0
    outer loop
      vertex 23.555 0 21.9499
      vertex 22.1981 0 20.8678
      vertex 11 0 20.5
    endloop
  endfacet
  facet normal 0 1 0
    outer loop
      vertex 10 0 6.5
      vertex 7.7 0 24
      vertex 11 0 6.5
    endloop
  endfacet
  facet normal -0.992115 0.125333 0
    outer loop
      vertex 7.7 0 24
      vertex 7.7 0 0
      vertex 7.45809 -1.91491 24
    endloop
  endfacet
  facet normal -0.992115 0.125333 0
    outer loop
      vertex 7.45809 -1.91491 24
      vertex 7.7 0 0
      vertex 7.45809 -1.91491 0
    endloop
  endfacet
  facet normal -0.929776 0.368125 0
    outer loop
      vertex 7.45809 -1.91491 24
      vertex 7.45809 -1.91491 0
      vertex 6.74756 -3.7095 24
    endloop
  endfacet
  facet normal -0.929776 0.368125 0
    outer loop
      vertex 6.74756 -3.7095 24
      vertex 7.45809 -1.91491 0
      vertex 6.74756 -3.7095 0
    endloop
  endfacet
  facet normal -0.809017 0.587785 0
    outer loop
      vertex 6.74756 -3.7095 24
      vertex 6.74756 -3.7095 0
      vertex 5.61306 -5.27101 24
    endloop
  endfacet
  facet normal -0.809017 0.587785 0
    outer loop
      vertex 5.61306 -5.27101 24
      vertex 6.74756 -3.7095 0
      vertex 5.61306 -5.27101 0
    endloop
  endfacet
  facet normal -0.637424 0.770513 0
    outer loop
      vertex 5.61306 -5.27101 24
      vertex 5.61306 -5.27101 0
      vertex 4.12587 -6.50132 24
    endloop
  endfacet
  facet normal -0.637424 0.770513 0
    outer loop
      vertex 4.12587 -6.50132 24
      vertex 5.61306 -5.27101 0
      vertex 4.12587 -6.50132 0
    endloop
  endfacet
  facet normal -0.425779 0.904827 0
    outer loop
      vertex 4.12587 -6.50132 24
      vertex 4.12587 -6.50132 0
      vertex 2.37943 -7.32313 24
    endloop
  endfacet
  facet normal -0.425779 0.904827 0
    outer loop
      vertex 2.37943 -7.32313 24
      vertex 4.12587 -6.50132 0
      vertex 2.37943 -7.32313 0
    endloop
  endfacet
  facet normal -0.187381 0.982287 0
    outer loop
      vertex 2.37943 -7.32313 24
      vertex 2.37943 -7.32313 0
      vertex 0.483487 -7.68481 24
    endloop
  endfacet
  facet normal -0.187381 0.982287 0
    outer loop
      vertex 0.483487 -7.68481 24
      vertex 2.37943 -7.32313 0
      vertex 0.483487 -7.68481 0
    endloop
  endfacet
  facet normal 0.0627905 0.998027 0
    outer loop
      vertex 0.483487 -7.68481 24
      vertex 0.483487 -7.68481 0
      vertex -1.44284 -7.56361 24
    endloop
  endfacet
  facet normal 0.0627905 0.998027 0
    outer loop
      vertex -1.44284 -7.56361 24
      vertex 0.483487 -7.68481 0
      vertex -1.44284 -7.56361 0
    endloop
  endfacet
  facet normal 0.309017 0.951056 0
    outer loop
      vertex -1.44284 -7.56361 24
      vertex -1.44284 -7.56361 0
      vertex -3.2785 -6.96717 24
    endloop
  endfacet
  facet normal 0.309017 0.951056 0
    outer loop
      vertex -3.2785 -6.96717 24
      vertex -1.44284 -7.56361 0
      vertex -3.2785 -6.96717 0
    endloop
  endfacet
  facet normal 0.535827 0.844328 0
    outer loop
      vertex -3.2785 -6.96717 24
      vertex -3.2785 -6.96717 0
      vertex -4.90816 -5.93295 24
    endloop
  endfacet
  facet normal 0.535827 0.844328 0
    outer loop
      vertex -4.90816 -5.93295 24
      vertex -3.2785 -6.96717 0
      vertex -4.90816 -5.93295 0
    endloop
  endfacet
  facet normal 0.728969 0.684547 0
    outer loop
      vertex -6.22943 -4.52595 24
      vertex -4.90816 -5.93295 24
      vertex -4.90816 -5.93295 0
    endloop
  endfacet
  facet normal 0.728969 0.684547 0
    outer loop
      vertex -6.22943 -4.52595 0
      vertex -6.22943 -4.52595 24
      vertex -4.90816 -5.93295 0
    endloop
  endfacet
  facet normal 0.876307 0.481754 0
    outer loop
      vertex -7.15928 -2.83456 24
      vertex -6.22943 -4.52595 24
      vertex -6.22943 -4.52595 0
    endloop
  endfacet
  facet normal 0.876307 0.481754 0
    outer loop
      vertex -7.15928 -2.83456 0
      vertex -7.15928 -2.83456 24
      vertex -6.22943 -4.52595 0
    endloop
  endfacet
  facet normal 0.968583 0.24869 0
    outer loop
      vertex -7.63928 -0.965066 24
      vertex -7.15928 -2.83456 24
      vertex -7.15928 -2.83456 0
    endloop
  endfacet
  facet normal 0.968583 0.24869 0
    outer loop
      vertex -7.63928 -0.965066 0
      vertex -7.63928 -0.965066 24
      vertex -7.15928 -2.83456 0
    endloop
  endfacet
  facet normal 1 0 0
    outer loop
      vertex 10 0 3.5
      vertex 10 0 6.5
      vertex 10 -2.5 6.5
    endloop
  endfacet
  facet normal 1 0 0
    outer loop
      vertex 10 -2.5 3.5
      vertex 10 0 3.5
      vertex 10 -2.5 6.5
    endloop
  endfacet
  facet normal 0 0 1
    outer loop
      vertex 11 -2.5 3.5
      vertex 11 0 3.5
      vertex 10 0 3.5
    endloop
  endfacet
  facet normal 0 0 1
    outer loop
      vertex 10 -2.5 3.5
      vertex 11 -2.5 3.5
      vertex 10 0 3.5
    endloop
  endfacet
  facet normal -1 0 0
    outer loop
      vertex 11 0 6.5
      vertex 11 0 3.5
      vertex 11 -2.5 6.5
    endloop
  endfacet
  facet normal -1 0 0
    outer loop
      vertex 11 -2.5 6.5
      vertex 11 0 3.5
      vertex 11 -2.5 3.5
    endloop
  endfacet
  facet normal 0 0 -1
    outer loop
      vertex 11 0 6.5
      vertex 11 -2.5 6.5
      vertex 10 0 6.5
    endloop
  endfacet
  facet normal 0 0 -1
    outer loop
      vertex 10 0 6.5
      vertex 11 -2.5 6.5
      vertex 10 -2.5 6.5
    endloop
  endfacet
  facet normal 1 0 0
    outer loop
      vertex 10 0 17.5
      vertex 10 0 20.5
      vertex 10 -2.5 20.5
    endloop
  endfacet
  facet normal 1 0 0
    outer loop
      vertex 10 -2.5 17.5
      vertex 10 0 17.5
      vertex 10 -2.5 20.5
    endloop
  endfacet
  facet normal 0 0 1
    outer loop
      vertex 11 -2.5 17.5
      vertex 11 0 17.5
      vertex 10 0 17.5
    endloop
  endfacet
  facet normal 0 0 1
    outer loop
      vertex 10 -2.5 17.5
      vertex 11 -2.5 17.5
      vertex 10 0 17.5
    endloop
  endfacet
  facet normal -1 0 0
    outer loop
      vertex 11 0 20.5
      vertex 11 0 17.5
      vertex 11 -2.5 20.5
    endloop
  endfacet
  facet normal -1 0 0
    outer loop
      vertex 11 -2.5 20.5
      vertex 11 0 17.5
      vertex 11 -2.5 17.5
    endloop
  endfacet
  facet normal 0 0 -1
    outer loop
      vertex 11 0 20.5
      vertex 11 -2.5 20.5
      vertex 10 0 20.5
    endloop
  endfacet
  facet normal 0 0 -1
    outer loop
      vertex 10 0 20.5
      vertex 11 -2.5 20.5
      vertex 10 -2.5 20.5
    endloop
  endfacet
  facet normal 0.62349 1.73601e-16 0.781831
    outer loop
      vertex 23.555 -2.5 18.0501
      vertex 23.555 0 18.0501
      vertex 22.1981 0 19.1322
    endloop
  endfacet
  facet normal 0.62349 1.73601e-16 0.781831
    outer loop
      vertex 22.1981 -2.5 19.1322
      vertex 23.555 -2.5 18.0501
      vertex 22.1981 0 19.1322
    endloop
  endfacet
  facet normal 1 0 0
    outer loop
      vertex 22.1981 0 19.1322
      vertex 22.1981 0 20.8678
      vertex 22.1981 -2.5 20.8678
    endloop
  endfacet
  facet normal 1 0 0
    outer loop
      vertex 22.1981 -2.5 19.1322
      vertex 22.1981 0 19.1322
      vertex 22.1981 -2.5 20.8678
    endloop
  endfacet
  facet normal -0.222521 2.16477e-16 0.974928
    outer loop
      vertex 25.247 -2.5 18.4363
      vertex 25.247 0 18.4363
      vertex 23.555 0 18.0501
    endloop
  endfacet
  facet normal -0.222521 2.16477e-16 0.974928
    outer loop
      vertex 23.555 -2.5 18.0501
      vertex 25.247 -2.5 18.4363
      vertex 23.555 0 18.0501
    endloop
  endfacet
  facet normal -0.900969 9.63415e-17 0.433884
    outer loop
      vertex 26 0 20
      vertex 25.247 0 18.4363
      vertex 26 -2.5 20
    endloop
  endfacet
  facet normal -0.900969 9.63415e-17 0.433884
    outer loop
      vertex 26 -2.5 20
      vertex 25.247 0 18.4363
      vertex 25.247 -2.5 18.4363
    endloop
  endfacet
  facet normal -0.900969 -9.63415e-17 -0.433884
    outer loop
      vertex 26 0 20
      vertex 26 -2.5 20
      vertex 25.247 0 21.5637
    endloop
  endfacet
  facet normal -0.900969 -9.63415e-17 -0.433884
    outer loop
      vertex 25.247 0 21.5637
      vertex 26 -2.5 20
      vertex 25.247 -2.5 21.5637
    endloop
  endfacet
  facet normal -0.222521 -2.16477e-16 -0.974928
    outer loop
      vertex 25.247 0 21.5637
      vertex 25.247 -2.5 21.5637
      vertex 23.555 0 21.9499
    endloop
  endfacet
  facet normal -0.222521 -2.16477e-16 -0.974928
    outer loop
      vertex 23.555 0 21.9499
      vertex 25.247 -2.5 21.5637
      vertex 23.555 -2.5 21.9499
    endloop
  endfacet
  facet normal 0.62349 -1.73601e-16 -0.781831
    outer loop
      vertex 23.555 0 21.9499
      vertex 23.555 -2.5 21.9499
      vertex 22.1981 0 20.8678
    endloop
  endfacet
  facet normal 0.62349 -1.73601e-16 -0.781831
    outer loop
      vertex 22.1981 0 20.8678
      vertex 23.555 -2.5 21.9499
      vertex 22.1981 -2.5 20.8678
    endloop
  endfacet
endsolid OpenSCAD_Model
