solid OpenSCAD_Model
  facet normal 0 0 -1
    outer loop
      vertex -26 0 -20
      vertex -25.4318 5.4057 -20
      vertex -25.4318 -5.4057 -20
    endloop
  endfacet
  facet normal 0 0 -1
    outer loop
      vertex -25.4318 -5.4057 -20
      vertex -25.4318 5.4057 -20
      vertex -23.7522 10.5752 -20
    endloop
  endfacet
  facet normal 0 0 -1
    outer loop
      vertex -25.4318 -5.4057 -20
      vertex -23.7522 10.5752 -20
      vertex -21.0344 15.2824 -20
    endloop
  endfacet
  facet normal 0 0 -1
    outer loop
      vertex -25.4318 -5.4057 -20
      vertex -21.0344 15.2824 -20
      vertex -17.3974 19.3218 -20
    endloop
  endfacet
  facet normal 0 0 -1
    outer loop
      vertex -25.4318 -5.4057 -20
      vertex -17.3974 19.3218 -20
      vertex -13 22.5167 -20
    endloop
  endfacet
  facet normal 0 0 -1
    outer loop
      vertex -25.4318 -5.4057 -20
      vertex -13 22.5167 -20
      vertex -8.03444 24.7275 -20
    endloop
  endfacet
  facet normal 0 0 -1
    outer loop
      vertex -12.7135 14.1198 -20
      vertex -8.03444 24.7275 -20
      vertex -2.71774 25.8576 -20
    endloop
  endfacet
  facet normal 0 0 -1
    outer loop
      vertex -5.87132 18.0701 -20
      vertex -2.71774 25.8576 -20
      vertex 2.71774 25.8576 -20
    endloop
  endfacet
  facet normal 0 0 -1
    outer loop
      vertex -1.98604 18.8959 -20
      vertex 2.71774 25.8576 -20
      vertex 8.03444 24.7275 -20
    endloop
  endfacet
  facet normal 0 0 -1
    outer loop
      vertex 5.87132 18.0701 -20
      vertex 8.03444 24.7275 -20
      vertex 13 22.5167 -20
    endloop
  endfacet
  facet normal 0 0 -1
    outer loop
      vertex 9.5 16.4545 -20
      vertex 13 22.5167 -20
      vertex 17.3974 19.3218 -20
    endloop
  endfacet
  facet normal 0 0 -1
    outer loop
      vertex 12.7135 14.1198 -20
      vertex 17.3974 19.3218 -20
      vertex 21.0344 15.2824 -20
    endloop
  endfacet
  facet normal 0 0 -1
    outer loop
      vertex 15.3713 11.1679 -20
      vertex 21.0344 15.2824 -20
      vertex 23.7522 10.5752 -20
    endloop
  endfacet
  facet normal 0 0 -1
    outer loop
      vertex 17.3574 7.728 -20
      vertex 23.7522 10.5752 -20
      vertex 25.4318 5.4057 -20
    endloop
  endfacet
  facet normal 0 0 -1
    outer loop
      vertex 19 0 -20
      vertex 25.4318 5.4057 -20
      vertex 26 0 -20
    endloop
  endfacet
  facet normal 0 0 -1
    outer loop
      vertex 18.5848 -3.95032 -20
      vertex 26 0 -20
      vertex 25.4318 -5.4057 -20
    endloop
  endfacet
  facet normal 0 0 -1
    outer loop
      vertex 17.3574 -7.728 -20
      vertex 25.4318 -5.4057 -20
      vertex 23.7522 -10.5752 -20
    endloop
  endfacet
  facet normal 0 0 -1
    outer loop
      vertex 15.3713 -11.1679 -20
      vertex 23.7522 -10.5752 -20
      vertex 21.0344 -15.2824 -20
    endloop
  endfacet
  facet normal 0 0 -1
    outer loop
      vertex 9.5 -16.4545 -20
      vertex 21.0344 -15.2824 -20
      vertex 17.3974 -19.3218 -20
    endloop
  endfacet
  facet normal 0 0 -1
    outer loop
      vertex 5.87132 -18.0701 -20
      vertex 17.3974 -19.3218 -20
      vertex 13 -22.5167 -20
    endloop
  endfacet
  facet normal 0 0 -1
    outer loop
      vertex 3.84285 -20.4968 -20
      vertex 13 -22.5167 -20
      vertex 10 -23.8523 -20
    endloop
  endfacet
  facet normal 0 0 -1
    outer loop
      vertex 3 -28.1397 -20
      vertex 10 -23.8523 -20
      vertex 10 -35 -20
    endloop
  endfacet
  facet normal 0 0 -1
    outer loop
      vertex 3.84285 -27.5032 -20
      vertex 10 -23.8523 -20
      vertex 3 -28.1397 -20
    endloop
  endfacet
  facet normal 0 0 -1
    outer loop
      vertex 3.84285 -20.4968 -20
      vertex 10 -23.8523 -20
      vertex 4.84886 -22.1215 -20
    endloop
  endfacet
  facet normal 0 0 -1
    outer loop
      vertex 4.84886 -25.8785 -20
      vertex 10 -23.8523 -20
      vertex 3.84285 -27.5032 -20
    endloop
  endfacet
  facet normal 0 0 -1
    outer loop
      vertex -3 -35 -20
      vertex -10 -23.8523 -20
      vertex -4.42113 -26.7374 -20
    endloop
  endfacet
  facet normal 0 0 -1
    outer loop
      vertex 5.2 -24 -20
      vertex 10 -23.8523 -20
      vertex 4.84886 -25.8785 -20
    endloop
  endfacet
  facet normal 0 0 -1
    outer loop
      vertex 4.84886 -22.1215 -20
      vertex 10 -23.8523 -20
      vertex 5.2 -24 -20
    endloop
  endfacet
  facet normal 0 0 -1
    outer loop
      vertex 3 -19.8603 -20
      vertex 13 -22.5167 -20
      vertex 3.84285 -20.4968 -20
    endloop
  endfacet
  facet normal 0 0 -1
    outer loop
      vertex 5.87132 -18.0701 -20
      vertex 13 -22.5167 -20
      vertex 3 -18.6804 -20
    endloop
  endfacet
  facet normal 0 0 -1
    outer loop
      vertex 3 -18.6804 -20
      vertex 13 -22.5167 -20
      vertex 3 -19.8603 -20
    endloop
  endfacet
  facet normal 0 0 -1
    outer loop
      vertex -4.42113 -21.2626 -20
      vertex -9.5 -16.4545 -20
      vertex -5.87132 -18.0701 -20
    endloop
  endfacet
  facet normal 0 0 -1
    outer loop
      vertex 9.5 -16.4545 -20
      vertex 17.3974 -19.3218 -20
      vertex 5.87132 -18.0701 -20
    endloop
  endfacet
  facet normal 0 0 -1
    outer loop
      vertex 12.7135 -14.1198 -20
      vertex 21.0344 -15.2824 -20
      vertex 9.5 -16.4545 -20
    endloop
  endfacet
  facet normal 0 0 -1
    outer loop
      vertex 15.3713 -11.1679 -20
      vertex 21.0344 -15.2824 -20
      vertex 12.7135 -14.1198 -20
    endloop
  endfacet
  facet normal 0 0 -1
    outer loop
      vertex 17.3574 -7.728 -20
      vertex 23.7522 -10.5752 -20
      vertex 15.3713 -11.1679 -20
    endloop
  endfacet
  facet normal 0 0 -1
    outer loop
      vertex 18.5848 -3.95032 -20
      vertex 25.4318 -5.4057 -20
      vertex 17.3574 -7.728 -20
    endloop
  endfacet
  facet normal 0 0 -1
    outer loop
      vertex 19 0 -20
      vertex 26 0 -20
      vertex 18.5848 -3.95032 -20
    endloop
  endfacet
  facet normal 0 0 -1
    outer loop
      vertex 18.5848 3.95032 -20
      vertex 25.4318 5.4057 -20
      vertex 19 0 -20
    endloop
  endfacet
  facet normal 0 0 -1
    outer loop
      vertex 17.3574 7.728 -20
      vertex 25.4318 5.4057 -20
      vertex 18.5848 3.95032 -20
    endloop
  endfacet
  facet normal 0 0 -1
    outer loop
      vertex 15.3713 11.1679 -20
      vertex 23.7522 10.5752 -20
      vertex 17.3574 7.728 -20
    endloop
  endfacet
  facet normal 0 0 -1
    outer loop
      vertex 12.7135 14.1198 -20
      vertex 21.0344 15.2824 -20
      vertex 15.3713 11.1679 -20
    endloop
  endfacet
  facet normal 0 0 -1
    outer loop
      vertex 9.5 16.4545 -20
      vertex 17.3974 19.3218 -20
      vertex 12.7135 14.1198 -20
    endloop
  endfacet
  facet normal 0 0 -1
    outer loop
      vertex 5.87132 18.0701 -20
      vertex 13 22.5167 -20
      vertex 9.5 16.4545 -20
    endloop
  endfacet
  facet normal 0 0 -1
    outer loop
      vertex 1.98604 18.8959 -20
      vertex 8.03444 24.7275 -20
      vertex 5.87132 18.0701 -20
    endloop
  endfacet
  facet normal 0 0 -1
    outer loop
      vertex -1.98604 18.8959 -20
      vertex 8.03444 24.7275 -20
      vertex 1.98604 18.8959 -20
    endloop
  endfacet
  facet normal 0 0 -1
    outer loop
      vertex -5.87132 18.0701 -20
      vertex 2.71774 25.8576 -20
      vertex -1.98604 18.8959 -20
    endloop
  endfacet
  facet normal 0 0 -1
    outer loop
      vertex -9.5 16.4545 -20
      vertex -2.71774 25.8576 -20
      vertex -5.87132 18.0701 -20
    endloop
  endfacet
  facet normal 0 0 -1
    outer loop
      vertex -12.7135 14.1198 -20
      vertex -2.71774 25.8576 -20
      vertex -9.5 16.4545 -20
    endloop
  endfacet
  facet normal 0 0 -1
    outer loop
      vertex -15.3713 11.1679 -20
      vertex -8.03444 24.7275 -20
      vertex -12.7135 14.1198 -20
    endloop
  endfacet
  facet normal 0 0 -1
    outer loop
      vertex -18.5848 3.95032 -20
      vertex -25.4318 -5.4057 -20
      vertex -17.3574 7.728 -20
    endloop
  endfacet
  facet normal 0 0 -1
    outer loop
      vertex -25.4318 -5.4057 -20
      vertex -8.03444 24.7275 -20
      vertex -15.3713 11.1679 -20
    endloop
  endfacet
  facet normal 0 0 -1
    outer loop
      vertex -25.4318 -5.4057 -20
      vertex -15.3713 11.1679 -20
      vertex -17.3574 7.728 -20
    endloop
  endfacet
  facet normal 0 0 -1
    outer loop
      vertex -19 0 -20
      vertex -25.4318 -5.4057 -20
      vertex -18.5848 3.95032 -20
    endloop
  endfacet
  facet normal 0 0 -1
    outer loop
      vertex -18.5848 -3.95032 -20
      vertex -25.4318 -5.4057 -20
      vertex -19 0 -20
    endloop
  endfacet
  facet normal 0 0 -1
    outer loop
      vertex -17.3574 -7.728 -20
      vertex -25.4318 -5.4057 -20
      vertex -18.5848 -3.95032 -20
    endloop
  endfacet
  facet normal 0 0 -1
    outer loop
      vertex -15.3713 -11.1679 -20
      vertex -25.4318 -5.4057 -20
      vertex -17.3574 -7.728 -20
    endloop
  endfacet
  facet normal 0 0 -1
    outer loop
      vertex -12.7135 -14.1198 -20
      vertex -25.4318 -5.4057 -20
      vertex -15.3713 -11.1679 -20
    endloop
  endfacet
  facet normal 0 0 -1
    outer loop
      vertex -3 -35 -20
      vertex -3.1337 -28.1497 -20
      vertex -3 -28.2163 -20
    endloop
  endfacet
  facet normal 0 0 -1
    outer loop
      vertex -5.11146 -23.0445 -20
      vertex -25.4318 -5.4057 -20
      vertex -4.42113 -21.2626 -20
    endloop
  endfacet
  facet normal 0 0 -1
    outer loop
      vertex -4.42113 -21.2626 -20
      vertex -5.87132 -18.0701 -20
      vertex -3.1337 -19.8503 -20
    endloop
  endfacet
  facet normal 0 0 -1
    outer loop
      vertex -3 -19.7837 -20
      vertex -5.87132 -18.0701 -20
      vertex -3 -18.6804 -20
    endloop
  endfacet
  facet normal 0 0 -1
    outer loop
      vertex -4.42113 -21.2626 -20
      vertex -12.7135 -14.1198 -20
      vertex -9.5 -16.4545 -20
    endloop
  endfacet
  facet normal 0 0 -1
    outer loop
      vertex -5.87132 -18.0701 -20
      vertex -3 -19.7837 -20
      vertex -3.1337 -19.8503 -20
    endloop
  endfacet
  facet normal 0 0 -1
    outer loop
      vertex -25.4318 -5.4057 -20
      vertex -12.7135 -14.1198 -20
      vertex -4.42113 -21.2626 -20
    endloop
  endfacet
  facet normal 0 0 -1
    outer loop
      vertex -3 -35 -20
      vertex -4.42113 -26.7374 -20
      vertex -3.1337 -28.1497 -20
    endloop
  endfacet
  facet normal 0 0 -1
    outer loop
      vertex -25.4318 -5.4057 -20
      vertex -5.11146 -23.0445 -20
      vertex -5.11146 -24.9555 -20
    endloop
  endfacet
  facet normal 0 0 -1
    outer loop
      vertex -25.4318 -5.4057 -20
      vertex -5.11146 -24.9555 -20
      vertex -4.42113 -26.7374 -20
    endloop
  endfacet
  facet normal 0 0 -1
    outer loop
      vertex -10 -23.8523 -20
      vertex -3 -35 -20
      vertex -10 -35 -20
    endloop
  endfacet
  facet normal 0 0 -1
    outer loop
      vertex -13 -22.5167 -20
      vertex -25.4318 -5.4057 -20
      vertex -10 -23.8523 -20
    endloop
  endfacet
  facet normal 0 0 -1
    outer loop
      vertex -21.0344 -15.2824 -20
      vertex -25.4318 -5.4057 -20
      vertex -17.3974 -19.3218 -20
    endloop
  endfacet
  facet normal 0 0 -1
    outer loop
      vertex -25.4318 -5.4057 -20
      vertex -13 -22.5167 -20
      vertex -17.3974 -19.3218 -20
    endloop
  endfacet
  facet normal 0 0 -1
    outer loop
      vertex -25.4318 -5.4057 -20
      vertex -21.0344 -15.2824 -20
      vertex -23.7522 -10.5752 -20
    endloop
  endfacet
  facet normal 0 0 -1
    outer loop
      vertex 3 -28.1397 -20
      vertex 10 -35 -20
      vertex 3 -35 -20
    endloop
  endfacet
  facet normal 0 0 -1
    outer loop
      vertex -10 -23.8523 -20
      vertex -25.4318 -5.4057 -20
      vertex -4.42113 -26.7374 -20
    endloop
  endfacet
  facet normal -0.994522 0.104528 0
    outer loop
      vertex -26 0 -20
      vertex -26 0 20
      vertex -25.4318 5.4057 -20
    endloop
  endfacet
  facet normal -0.994522 0.104528 0
    outer loop
      vertex -25.4318 5.4057 -20
      vertex -26 0 20
      vertex -25.4318 5.4057 20
    endloop
  endfacet
  facet normal -0.994522 -0.104528 0
    outer loop
      vertex -26 0 -20
      vertex -25.4318 -5.4057 -20
      vertex -26 0 20
    endloop
  endfacet
  facet normal -0.994522 -0.104528 0
    outer loop
      vertex -26 0 20
      vertex -25.4318 -5.4057 -20
      vertex -25.4318 -5.4057 20
    endloop
  endfacet
  facet normal -0.951057 -0.309017 0
    outer loop
      vertex -25.4318 -5.4057 -20
      vertex -23.7522 -10.5752 -20
      vertex -25.4318 -5.4057 20
    endloop
  endfacet
  facet normal -0.951057 -0.309017 0
    outer loop
      vertex -25.4318 -5.4057 20
      vertex -23.7522 -10.5752 -20
      vertex -23.7522 -10.5752 20
    endloop
  endfacet
  facet normal -0.866025 -0.5 0
    outer loop
      vertex -23.7522 -10.5752 -20
      vertex -21.0344 -15.2824 -20
      vertex -23.7522 -10.5752 20
    endloop
  endfacet
  facet normal -0.866025 -0.5 0
    outer loop
      vertex -23.7522 -10.5752 20
      vertex -21.0344 -15.2824 -20
      vertex -21.0344 -15.2824 20
    endloop
  endfacet
  facet normal -0.743145 -0.669131 0
    outer loop
      vertex -21.0344 -15.2824 -20
      vertex -17.3974 -19.3218 -20
      vertex -21.0344 -15.2824 20
    endloop
  endfacet
  facet normal -0.743145 -0.669131 0
    outer loop
      vertex -21.0344 -15.2824 20
      vertex -17.3974 -19.3218 -20
      vertex -17.3974 -19.3218 20
    endloop
  endfacet
  facet normal -0.587785 -0.809017 0
    outer loop
      vertex -17.3974 -19.3218 20
      vertex -17.3974 -19.3218 -20
      vertex -13 -22.5167 -20
    endloop
  endfacet
  facet normal -0.587785 -0.809017 0
    outer loop
      vertex -13 -22.5167 20
      vertex -17.3974 -19.3218 20
      vertex -13 -22.5167 -20
    endloop
  endfacet
  facet normal -0.406737 -0.913545 0
    outer loop
      vertex -13 -22.5167 20
      vertex -13 -22.5167 -20
      vertex -10 -23.8523 -20
    endloop
  endfacet
  facet normal -0.406737 -0.913545 0
    outer loop
      vertex -10 -23.8523 20
      vertex -13 -22.5167 20
      vertex -10 -23.8523 -20
    endloop
  endfacet
  facet normal -1 0 0
    outer loop
      vertex -10 -28.6144 -11.2
      vertex -10 -35 20
      vertex -10 -23.8523 -20
    endloop
  endfacet
  facet normal -1 0 0
    outer loop
      vertex -10 -31.3856 12.8
      vertex -10 -35 20
      vertex -10 -23.8523 20
    endloop
  endfacet
  facet normal -1 0 0
    outer loop
      vertex -10 -35 -20
      vertex -10 -35 20
      vertex -10 -31.3856 -11.2
    endloop
  endfacet
  facet normal -1 0 0
    outer loop
      vertex -10 -35 -20
      vertex -10 -31.3856 -11.2
      vertex -10 -31.3856 -12.8
    endloop
  endfacet
  facet normal -1 0 0
    outer loop
      vertex -10 -35 -20
      vertex -10 -31.3856 -12.8
      vertex -10 -23.8523 -20
    endloop
  endfacet
  facet normal -1 0 0
    outer loop
      vertex -10 -31.3856 -12.8
      vertex -10 -30 -13.6
      vertex -10 -23.8523 -20
    endloop
  endfacet
  facet normal -1 0 0
    outer loop
      vertex -10 -30 10.4
      vertex -10 -23.8523 -20
      vertex -10 -31.3856 11.2
    endloop
  endfacet
  facet normal -1 0 0
    outer loop
      vertex -10 -30 -10.4
      vertex -10 -35 20
      vertex -10 -28.6144 -11.2
    endloop
  endfacet
  facet normal -1 0 0
    outer loop
      vertex -10 -28.6144 -12.8
      vertex -10 -28.6144 -11.2
      vertex -10 -23.8523 -20
    endloop
  endfacet
  facet normal -1 0 0
    outer loop
      vertex -10 -31.3856 -11.2
      vertex -10 -35 20
      vertex -10 -30 -10.4
    endloop
  endfacet
  facet normal -1 0 0
    outer loop
      vertex -10 -31.3856 11.2
      vertex -10 -35 20
      vertex -10 -31.3856 12.8
    endloop
  endfacet
  facet normal -1 0 0
    outer loop
      vertex -10 -30 13.6
      vertex -10 -31.3856 12.8
      vertex -10 -23.8523 20
    endloop
  endfacet
  facet normal -1 0 0
    outer loop
      vertex -10 -23.8523 -20
      vertex -10 -35 20
      vertex -10 -31.3856 11.2
    endloop
  endfacet
  facet normal -1 0 0
    outer loop
      vertex -10 -28.6144 12.8
      vertex -10 -23.8523 20
      vertex -10 -28.6144 11.2
    endloop
  endfacet
  facet normal -1 0 0
    outer loop
      vertex -10 -23.8523 -20
      vertex -10 -30 10.4
      vertex -10 -28.6144 11.2
    endloop
  endfacet
  facet normal -1 0 0
    outer loop
      vertex -10 -23.8523 -20
      vertex -10 -28.6144 11.2
      vertex -10 -23.8523 20
    endloop
  endfacet
  facet normal -1 0 0
    outer loop
      vertex -10 -28.6144 12.8
      vertex -10 -30 13.6
      vertex -10 -23.8523 20
    endloop
  endfacet
  facet normal -1 0 0
    outer loop
      vertex -10 -28.6144 -12.8
      vertex -10 -23.8523 -20
      vertex -10 -30 -13.6
    endloop
  endfacet
  facet normal 0 -1 0
    outer loop
      vertex -10 -35 20
      vertex -10 -35 -20
      vertex -3 -35 -20
    endloop
  endfacet
  facet normal 0 -1 0
    outer loop
      vertex -3 -35 20
      vertex -10 -35 20
      vertex -3 -35 -20
    endloop
  endfacet
  facet normal 1 0 0
    outer loop
      vertex -3 -31.3856 12.8
      vertex -3 -28.2163 20
      vertex -3 -35 20
    endloop
  endfacet
  facet normal 1 0 0
    outer loop
      vertex -3 -35 -20
      vertex -3 -31.3856 -11.2
      vertex -3 -35 20
    endloop
  endfacet
  facet normal 1 0 0
    outer loop
      vertex -3 -31.3856 -11.2
      vertex -3 -30 -10.4
      vertex -3 -35 20
    endloop
  endfacet
  facet normal 1 0 0
    outer loop
      vertex -3 -28.2163 -20
      vertex -3 -28.2163 20
      vertex -3 -28.6144 -11.2
    endloop
  endfacet
  facet normal 1 0 0
    outer loop
      vertex -3 -28.6144 -12.8
      vertex -3 -30 -13.6
      vertex -3 -28.2163 -20
    endloop
  endfacet
  facet normal 1 0 0
    outer loop
      vertex -3 -28.2163 -20
      vertex -3 -28.6144 -11.2
      vertex -3 -28.6144 -12.8
    endloop
  endfacet
  facet normal 1 0 0
    outer loop
      vertex -3 -28.6144 11.2
      vertex -3 -30 10.4
      vertex -3 -28.6144 -11.2
    endloop
  endfacet
  facet normal 1 0 0
    outer loop
      vertex -3 -35 -20
      vertex -3 -31.3856 -12.8
      vertex -3 -31.3856 -11.2
    endloop
  endfacet
  facet normal 1 0 0
    outer loop
      vertex -3 -35 -20
      vertex -3 -28.2163 -20
      vertex -3 -31.3856 -12.8
    endloop
  endfacet
  facet normal 1 0 0
    outer loop
      vertex -3 -31.3856 11.2
      vertex -3 -31.3856 12.8
      vertex -3 -35 20
    endloop
  endfacet
  facet normal 1 0 0
    outer loop
      vertex -3 -30 13.6
      vertex -3 -28.2163 20
      vertex -3 -31.3856 12.8
    endloop
  endfacet
  facet normal 1 0 0
    outer loop
      vertex -3 -28.6144 12.8
      vertex -3 -28.2163 20
      vertex -3 -30 13.6
    endloop
  endfacet
  facet normal 1 0 0
    outer loop
      vertex -3 -30 10.4
      vertex -3 -31.3856 11.2
      vertex -3 -28.6144 -11.2
    endloop
  endfacet
  facet normal 1 0 0
    outer loop
      vertex -3 -28.6144 11.2
      vertex -3 -28.2163 20
      vertex -3 -28.6144 12.8
    endloop
  endfacet
  facet normal 1 0 0
    outer loop
      vertex -3 -28.6144 -11.2
      vertex -3 -28.2163 20
      vertex -3 -28.6144 11.2
    endloop
  endfacet
  facet normal 1 0 0
    outer loop
      vertex -3 -28.6144 -11.2
      vertex -3 -31.3856 11.2
      vertex -3 -35 20
    endloop
  endfacet
  facet normal 1 0 0
    outer loop
      vertex -3 -30 -13.6
      vertex -3 -31.3856 -12.8
      vertex -3 -28.2163 -20
    endloop
  endfacet
  facet normal 1 0 0
    outer loop
      vertex -3 -30 -10.4
      vertex -3 -28.6144 -11.2
      vertex -3 -35 20
    endloop
  endfacet
  facet normal 0.445738 0.895163 0
    outer loop
      vertex -3 -28.2163 20
      vertex -3 -28.2163 -20
      vertex -3.1337 -28.1497 20
    endloop
  endfacet
  facet normal 0.445738 0.895163 0
    outer loop
      vertex -3.1337 -28.1497 20
      vertex -3 -28.2163 -20
      vertex -3.1337 -28.1497 -20
    endloop
  endfacet
  facet normal 0.739009 0.673695 0
    outer loop
      vertex -4.42113 -26.7374 20
      vertex -3.1337 -28.1497 20
      vertex -3.1337 -28.1497 -20
    endloop
  endfacet
  facet normal 0.739009 0.673695 0
    outer loop
      vertex -4.42113 -26.7374 -20
      vertex -4.42113 -26.7374 20
      vertex -3.1337 -28.1497 -20
    endloop
  endfacet
  facet normal 0.932472 0.361242 0
    outer loop
      vertex -5.11146 -24.9555 20
      vertex -4.42113 -26.7374 20
      vertex -4.42113 -26.7374 -20
    endloop
  endfacet
  facet normal 0.932472 0.361242 0
    outer loop
      vertex -5.11146 -24.9555 -20
      vertex -5.11146 -24.9555 20
      vertex -4.42113 -26.7374 -20
    endloop
  endfacet
  facet normal 1 0 0
    outer loop
      vertex -5.11146 -23.0445 -20
      vertex -5.11146 -23.0445 20
      vertex -5.11146 -24.9555 20
    endloop
  endfacet
  facet normal 1 0 0
    outer loop
      vertex -5.11146 -24.9555 -20
      vertex -5.11146 -23.0445 -20
      vertex -5.11146 -24.9555 20
    endloop
  endfacet
  facet normal 0.932472 -0.361242 0
    outer loop
      vertex -4.42113 -21.2626 -20
      vertex -4.42113 -21.2626 20
      vertex -5.11146 -23.0445 20
    endloop
  endfacet
  facet normal 0.932472 -0.361242 0
    outer loop
      vertex -5.11146 -23.0445 -20
      vertex -4.42113 -21.2626 -20
      vertex -5.11146 -23.0445 20
    endloop
  endfacet
  facet normal 0.739009 -0.673695 0
    outer loop
      vertex -3.1337 -19.8503 -20
      vertex -3.1337 -19.8503 20
      vertex -4.42113 -21.2626 20
    endloop
  endfacet
  facet normal 0.739009 -0.673695 0
    outer loop
      vertex -4.42113 -21.2626 -20
      vertex -3.1337 -19.8503 -20
      vertex -4.42113 -21.2626 20
    endloop
  endfacet
  facet normal 0.445738 -0.895163 0
    outer loop
      vertex -3 -19.7837 -20
      vertex -3 -19.7837 20
      vertex -3.1337 -19.8503 20
    endloop
  endfacet
  facet normal 0.445738 -0.895163 0
    outer loop
      vertex -3.1337 -19.8503 -20
      vertex -3 -19.7837 -20
      vertex -3.1337 -19.8503 20
    endloop
  endfacet
  facet normal 1 0 0
    outer loop
      vertex -3 -18.6804 -20
      vertex -3 -18.6804 20
      vertex -3 -19.7837 20
    endloop
  endfacet
  facet normal 1 0 0
    outer loop
      vertex -3 -19.7837 -20
      vertex -3 -18.6804 -20
      vertex -3 -19.7837 20
    endloop
  endfacet
  facet normal 0.207912 0.978148 0
    outer loop
      vertex -3 -18.6804 20
      vertex -3 -18.6804 -20
      vertex -5.87132 -18.0701 20
    endloop
  endfacet
  facet normal 0.207912 0.978148 0
    outer loop
      vertex -5.87132 -18.0701 20
      vertex -3 -18.6804 -20
      vertex -5.87132 -18.0701 -20
    endloop
  endfacet
  facet normal 0.406737 0.913545 0
    outer loop
      vertex -5.87132 -18.0701 20
      vertex -5.87132 -18.0701 -20
      vertex -9.5 -16.4545 20
    endloop
  endfacet
  facet normal 0.406737 0.913545 0
    outer loop
      vertex -9.5 -16.4545 20
      vertex -5.87132 -18.0701 -20
      vertex -9.5 -16.4545 -20
    endloop
  endfacet
  facet normal 0.587785 0.809017 0
    outer loop
      vertex -9.5 -16.4545 20
      vertex -9.5 -16.4545 -20
      vertex -12.7135 -14.1198 20
    endloop
  endfacet
  facet normal 0.587785 0.809017 0
    outer loop
      vertex -12.7135 -14.1198 20
      vertex -9.5 -16.4545 -20
      vertex -12.7135 -14.1198 -20
    endloop
  endfacet
  facet normal 0.743145 0.669131 0
    outer loop
      vertex -15.3713 -11.1679 20
      vertex -12.7135 -14.1198 20
      vertex -12.7135 -14.1198 -20
    endloop
  endfacet
  facet normal 0.743145 0.669131 0
    outer loop
      vertex -15.3713 -11.1679 -20
      vertex -15.3713 -11.1679 20
      vertex -12.7135 -14.1198 -20
    endloop
  endfacet
  facet normal 0.866025 0.5 0
    outer loop
      vertex -17.3574 -7.728 20
      vertex -15.3713 -11.1679 20
      vertex -15.3713 -11.1679 -20
    endloop
  endfacet
  facet normal 0.866025 0.5 0
    outer loop
      vertex -17.3574 -7.728 -20
      vertex -17.3574 -7.728 20
      vertex -15.3713 -11.1679 -20
    endloop
  endfacet
  facet normal 0.951057 0.309017 0
    outer loop
      vertex -18.5848 -3.95032 20
      vertex -17.3574 -7.728 20
      vertex -17.3574 -7.728 -20
    endloop
  endfacet
  facet normal 0.951057 0.309017 0
    outer loop
      vertex -18.5848 -3.95032 -20
      vertex -18.5848 -3.95032 20
      vertex -17.3574 -7.728 -20
    endloop
  endfacet
  facet normal 0.994522 0.104529 0
    outer loop
      vertex -19 0 20
      vertex -18.5848 -3.95032 20
      vertex -18.5848 -3.95032 -20
    endloop
  endfacet
  facet normal 0.994522 0.104529 0
    outer loop
      vertex -19 0 -20
      vertex -19 0 20
      vertex -18.5848 -3.95032 -20
    endloop
  endfacet
  facet normal 0.994522 -0.104529 0
    outer loop
      vertex -18.5848 3.95032 -20
      vertex -18.5848 3.95032 20
      vertex -19 0 20
    endloop
  endfacet
  facet normal 0.994522 -0.104529 0
    outer loop
      vertex -19 0 -20
      vertex -18.5848 3.95032 -20
      vertex -19 0 20
    endloop
  endfacet
  facet normal 0.951057 -0.309017 0
    outer loop
      vertex -17.3574 7.728 -20
      vertex -17.3574 7.728 20
      vertex -18.5848 3.95032 20
    endloop
  endfacet
  facet normal 0.951057 -0.309017 0
    outer loop
      vertex -18.5848 3.95032 -20
      vertex -17.3574 7.728 -20
      vertex -18.5848 3.95032 20
    endloop
  endfacet
  facet normal 0.866025 -0.5 0
    outer loop
      vertex -15.3713 11.1679 -20
      vertex -15.3713 11.1679 20
      vertex -17.3574 7.728 20
    endloop
  endfacet
  facet normal 0.866025 -0.5 0
    outer loop
      vertex -17.3574 7.728 -20
      vertex -15.3713 11.1679 -20
      vertex -17.3574 7.728 20
    endloop
  endfacet
  facet normal 0.743145 -0.669131 0
    outer loop
      vertex -12.7135 14.1198 -20
      vertex -12.7135 14.1198 20
      vertex -15.3713 11.1679 20
    endloop
  endfacet
  facet normal 0.743145 -0.669131 0
    outer loop
      vertex -15.3713 11.1679 -20
      vertex -12.7135 14.1198 -20
      vertex -15.3713 11.1679 20
    endloop
  endfacet
  facet normal 0.587785 -0.809017 0
    outer loop
      vertex -9.5 16.4545 -20
      vertex -9.5 16.4545 20
      vertex -12.7135 14.1198 20
    endloop
  endfacet
  facet normal 0.587785 -0.809017 0
    outer loop
      vertex -12.7135 14.1198 -20
      vertex -9.5 16.4545 -20
      vertex -12.7135 14.1198 20
    endloop
  endfacet
  facet normal 0.406737 -0.913545 0
    outer loop
      vertex -5.87132 18.0701 -20
      vertex -5.87132 18.0701 20
      vertex -9.5 16.4545 20
    endloop
  endfacet
  facet normal 0.406737 -0.913545 0
    outer loop
      vertex -9.5 16.4545 -20
      vertex -5.87132 18.0701 -20
      vertex -9.5 16.4545 20
    endloop
  endfacet
  facet normal 0.207912 -0.978148 0
    outer loop
      vertex -1.98604 18.8959 -20
      vertex -1.98604 18.8959 20
      vertex -5.87132 18.0701 20
    endloop
  endfacet
  facet normal 0.207912 -0.978148 0
    outer loop
      vertex -5.87132 18.0701 -20
      vertex -1.98604 18.8959 -20
      vertex -5.87132 18.0701 20
    endloop
  endfacet
  facet normal 0 -1 0
    outer loop
      vertex 1.98604 18.8959 -20
      vertex 1.98604 18.8959 20
      vertex -1.98604 18.8959 20
    endloop
  endfacet
  facet normal 0 -1 0
    outer loop
      vertex -1.98604 18.8959 -20
      vertex 1.98604 18.8959 -20
      vertex -1.98604 18.8959 20
    endloop
  endfacet
  facet normal -0.207912 -0.978148 0
    outer loop
      vertex 5.87132 18.0701 -20
      vertex 5.87132 18.0701 20
      vertex 1.98604 18.8959 20
    endloop
  endfacet
  facet normal -0.207912 -0.978148 0
    outer loop
      vertex 1.98604 18.8959 -20
      vertex 5.87132 18.0701 -20
      vertex 1.98604 18.8959 20
    endloop
  endfacet
  facet normal -0.406737 -0.913545 0
    outer loop
      vertex 9.5 16.4545 -20
      vertex 9.5 16.4545 20
      vertex 5.87132 18.0701 20
    endloop
  endfacet
  facet normal -0.406737 -0.913545 0
    outer loop
      vertex 5.87132 18.0701 -20
      vertex 9.5 16.4545 -20
      vertex 5.87132 18.0701 20
    endloop
  endfacet
  facet normal -0.587785 -0.809017 0
    outer loop
      vertex 12.7135 14.1198 -20
      vertex 12.7135 14.1198 20
      vertex 9.5 16.4545 20
    endloop
  endfacet
  facet normal -0.587785 -0.809017 0
    outer loop
      vertex 9.5 16.4545 -20
      vertex 12.7135 14.1198 -20
      vertex 9.5 16.4545 20
    endloop
  endfacet
  facet normal -0.743145 -0.669131 0
    outer loop
      vertex 15.3713 11.1679 20
      vertex 12.7135 14.1198 20
      vertex 15.3713 11.1679 -20
    endloop
  endfacet
  facet normal -0.743145 -0.669131 0
    outer loop
      vertex 15.3713 11.1679 -20
      vertex 12.7135 14.1198 20
      vertex 12.7135 14.1198 -20
    endloop
  endfacet
  facet normal -0.866025 -0.5 0
    outer loop
      vertex 17.3574 7.728 20
      vertex 15.3713 11.1679 20
      vertex 17.3574 7.728 -20
    endloop
  endfacet
  facet normal -0.866025 -0.5 0
    outer loop
      vertex 17.3574 7.728 -20
      vertex 15.3713 11.1679 20
      vertex 15.3713 11.1679 -20
    endloop
  endfacet
  facet normal -0.951057 -0.309017 0
    outer loop
      vertex 18.5848 3.95032 20
      vertex 17.3574 7.728 20
      vertex 18.5848 3.95032 -20
    endloop
  endfacet
  facet normal -0.951057 -0.309017 0
    outer loop
      vertex 18.5848 3.95032 -20
      vertex 17.3574 7.728 20
      vertex 17.3574 7.728 -20
    endloop
  endfacet
  facet normal -0.994522 -0.104529 0
    outer loop
      vertex 19 0 20
      vertex 18.5848 3.95032 20
      vertex 19 0 -20
    endloop
  endfacet
  facet normal -0.994522 -0.104529 0
    outer loop
      vertex 19 0 -20
      vertex 18.5848 3.95032 20
      vertex 18.5848 3.95032 -20
    endloop
  endfacet
  facet normal -0.994522 0.104529 0
    outer loop
      vertex 19 0 20
      vertex 19 0 -20
      vertex 18.5848 -3.95032 20
    endloop
  endfacet
  facet normal -0.994522 0.104529 0
    outer loop
      vertex 18.5848 -3.95032 20
      vertex 19 0 -20
      vertex 18.5848 -3.95032 -20
    endloop
  endfacet
  facet normal -0.951057 0.309017 0
    outer loop
      vertex 18.5848 -3.95032 20
      vertex 18.5848 -3.95032 -20
      vertex 17.3574 -7.728 20
    endloop
  endfacet
  facet normal -0.951057 0.309017 0
    outer loop
      vertex 17.3574 -7.728 20
      vertex 18.5848 -3.95032 -20
      vertex 17.3574 -7.728 -20
    endloop
  endfacet
  facet normal -0.866025 0.5 0
    outer loop
      vertex 17.3574 -7.728 20
      vertex 17.3574 -7.728 -20
      vertex 15.3713 -11.1679 20
    endloop
  endfacet
  facet normal -0.866025 0.5 0
    outer loop
      vertex 15.3713 -11.1679 20
      vertex 17.3574 -7.728 -20
      vertex 15.3713 -11.1679 -20
    endloop
  endfacet
  facet normal -0.743145 0.669131 0
    outer loop
      vertex 15.3713 -11.1679 20
      vertex 15.3713 -11.1679 -20
      vertex 12.7135 -14.1198 20
    endloop
  endfacet
  facet normal -0.743145 0.669131 0
    outer loop
      vertex 12.7135 -14.1198 20
      vertex 15.3713 -11.1679 -20
      vertex 12.7135 -14.1198 -20
    endloop
  endfacet
  facet normal -0.587785 0.809017 0
    outer loop
      vertex 12.7135 -14.1198 20
      vertex 12.7135 -14.1198 -20
      vertex 9.5 -16.4545 20
    endloop
  endfacet
  facet normal -0.587785 0.809017 0
    outer loop
      vertex 9.5 -16.4545 20
      vertex 12.7135 -14.1198 -20
      vertex 9.5 -16.4545 -20
    endloop
  endfacet
  facet normal -0.406737 0.913545 0
    outer loop
      vertex 9.5 -16.4545 20
      vertex 9.5 -16.4545 -20
      vertex 5.87132 -18.0701 20
    endloop
  endfacet
  facet normal -0.406737 0.913545 0
    outer loop
      vertex 5.87132 -18.0701 20
      vertex 9.5 -16.4545 -20
      vertex 5.87132 -18.0701 -20
    endloop
  endfacet
  facet normal -0.207912 0.978148 0
    outer loop
      vertex 5.87132 -18.0701 20
      vertex 5.87132 -18.0701 -20
      vertex 3 -18.6804 20
    endloop
  endfacet
  facet normal -0.207912 0.978148 0
    outer loop
      vertex 3 -18.6804 20
      vertex 5.87132 -18.0701 -20
      vertex 3 -18.6804 -20
    endloop
  endfacet
  facet normal -1 0 0
    outer loop
      vertex 3 -18.6804 20
      vertex 3 -18.6804 -20
      vertex 3 -19.8603 20
    endloop
  endfacet
  facet normal -1 0 0
    outer loop
      vertex 3 -19.8603 20
      vertex 3 -18.6804 -20
      vertex 3 -19.8603 -20
    endloop
  endfacet
  facet normal -0.602635 -0.798017 0
    outer loop
      vertex 3.84285 -20.4968 -20
      vertex 3.84285 -20.4968 20
      vertex 3 -19.8603 20
    endloop
  endfacet
  facet normal -0.602635 -0.798017 0
    outer loop
      vertex 3 -19.8603 -20
      vertex 3.84285 -20.4968 -20
      vertex 3 -19.8603 20
    endloop
  endfacet
  facet normal -0.850217 -0.526433 0
    outer loop
      vertex 4.84886 -22.1215 20
      vertex 3.84285 -20.4968 20
      vertex 4.84886 -22.1215 -20
    endloop
  endfacet
  facet normal -0.850217 -0.526433 0
    outer loop
      vertex 4.84886 -22.1215 -20
      vertex 3.84285 -20.4968 20
      vertex 3.84285 -20.4968 -20
    endloop
  endfacet
  facet normal -0.982973 -0.183749 0
    outer loop
      vertex 5.2 -24 20
      vertex 4.84886 -22.1215 20
      vertex 5.2 -24 -20
    endloop
  endfacet
  facet normal -0.982973 -0.183749 0
    outer loop
      vertex 5.2 -24 -20
      vertex 4.84886 -22.1215 20
      vertex 4.84886 -22.1215 -20
    endloop
  endfacet
  facet normal -0.982973 0.183749 0
    outer loop
      vertex 5.2 -24 20
      vertex 5.2 -24 -20
      vertex 4.84886 -25.8785 20
    endloop
  endfacet
  facet normal -0.982973 0.183749 0
    outer loop
      vertex 4.84886 -25.8785 20
      vertex 5.2 -24 -20
      vertex 4.84886 -25.8785 -20
    endloop
  endfacet
  facet normal -0.850217 0.526433 0
    outer loop
      vertex 4.84886 -25.8785 20
      vertex 4.84886 -25.8785 -20
      vertex 3.84285 -27.5032 20
    endloop
  endfacet
  facet normal -0.850217 0.526433 0
    outer loop
      vertex 3.84285 -27.5032 20
      vertex 4.84886 -25.8785 -20
      vertex 3.84285 -27.5032 -20
    endloop
  endfacet
  facet normal -0.602635 0.798017 0
    outer loop
      vertex 3.84285 -27.5032 20
      vertex 3.84285 -27.5032 -20
      vertex 3 -28.1397 20
    endloop
  endfacet
  facet normal -0.602635 0.798017 0
    outer loop
      vertex 3 -28.1397 20
      vertex 3.84285 -27.5032 -20
      vertex 3 -28.1397 -20
    endloop
  endfacet
  facet normal -1 0 0
    outer loop
      vertex 3 -30 -10.4
      vertex 3 -35 20
      vertex 3 -28.6144 -11.2
    endloop
  endfacet
  facet normal -1 0 0
    outer loop
      vertex 3 -31.3856 -12.8
      vertex 3 -28.1397 -20
      vertex 3 -35 -20
    endloop
  endfacet
  facet normal -1 0 0
    outer loop
      vertex 3 -30 -13.6
      vertex 3 -28.1397 -20
      vertex 3 -31.3856 -12.8
    endloop
  endfacet
  facet normal -1 0 0
    outer loop
      vertex 3 -35 20
      vertex 3 -31.3856 -12.8
      vertex 3 -35 -20
    endloop
  endfacet
  facet normal -1 0 0
    outer loop
      vertex 3 -28.1397 20
      vertex 3 -28.1397 -20
      vertex 3 -28.6144 -12.8
    endloop
  endfacet
  facet normal -1 0 0
    outer loop
      vertex 3 -28.1397 20
      vertex 3 -28.6144 -12.8
      vertex 3 -28.6144 -11.2
    endloop
  endfacet
  facet normal -1 0 0
    outer loop
      vertex 3 -31.3856 11.2
      vertex 3 -28.6144 -11.2
      vertex 3 -35 20
    endloop
  endfacet
  facet normal -1 0 0
    outer loop
      vertex 3 -30 13.6
      vertex 3 -28.1397 20
      vertex 3 -28.6144 12.8
    endloop
  endfacet
  facet normal -1 0 0
    outer loop
      vertex 3 -35 20
      vertex 3 -31.3856 -11.2
      vertex 3 -31.3856 -12.8
    endloop
  endfacet
  facet normal -1 0 0
    outer loop
      vertex 3 -30 10.4
      vertex 3 -28.6144 -11.2
      vertex 3 -31.3856 11.2
    endloop
  endfacet
  facet normal -1 0 0
    outer loop
      vertex 3 -31.3856 12.8
      vertex 3 -31.3856 11.2
      vertex 3 -35 20
    endloop
  endfacet
  facet normal -1 0 0
    outer loop
      vertex 3 -28.6144 11.2
      vertex 3 -28.6144 -11.2
      vertex 3 -30 10.4
    endloop
  endfacet
  facet normal -1 0 0
    outer loop
      vertex 3 -28.1397 20
      vertex 3 -28.6144 -11.2
      vertex 3 -28.6144 11.2
    endloop
  endfacet
  facet normal -1 0 0
    outer loop
      vertex 3 -28.1397 20
      vertex 3 -28.6144 11.2
      vertex 3 -28.6144 12.8
    endloop
  endfacet
  facet normal -1 0 0
    outer loop
      vertex 3 -31.3856 12.8
      vertex 3 -28.1397 20
      vertex 3 -30 13.6
    endloop
  endfacet
  facet normal -1 0 0
    outer loop
      vertex 3 -28.1397 20
      vertex 3 -31.3856 12.8
      vertex 3 -35 20
    endloop
  endfacet
  facet normal -1 0 0
    outer loop
      vertex 3 -28.6144 -12.8
      vertex 3 -28.1397 -20
      vertex 3 -30 -13.6
    endloop
  endfacet
  facet normal -1 0 0
    outer loop
      vertex 3 -31.3856 -11.2
      vertex 3 -35 20
      vertex 3 -30 -10.4
    endloop
  endfacet
  facet normal 0 -1 0
    outer loop
      vertex 3 -35 20
      vertex 3 -35 -20
      vertex 10 -35 -20
    endloop
  endfacet
  facet normal 0 -1 0
    outer loop
      vertex 10 -35 20
      vertex 3 -35 20
      vertex 10 -35 -20
    endloop
  endfacet
  facet normal 1 0 0
    outer loop
      vertex 10 -31.3856 -12.8
      vertex 10 -35 -20
      vertex 10 -23.8523 -20
    endloop
  endfacet
  facet normal 1 0 0
    outer loop
      vertex 10 -31.3856 11.2
      vertex 10 -35 20
      vertex 10 -23.8523 -20
    endloop
  endfacet
  facet normal 1 0 0
    outer loop
      vertex 10 -30 -13.6
      vertex 10 -31.3856 -12.8
      vertex 10 -23.8523 -20
    endloop
  endfacet
  facet normal 1 0 0
    outer loop
      vertex 10 -35 20
      vertex 10 -35 -20
      vertex 10 -31.3856 -12.8
    endloop
  endfacet
  facet normal 1 0 0
    outer loop
      vertex 10 -30 13.6
      vertex 10 -28.6144 12.8
      vertex 10 -23.8523 20
    endloop
  endfacet
  facet normal 1 0 0
    outer loop
      vertex 10 -35 20
      vertex 10 -31.3856 -12.8
      vertex 10 -31.3856 -11.2
    endloop
  endfacet
  facet normal 1 0 0
    outer loop
      vertex 10 -28.6144 -12.8
      vertex 10 -30 -13.6
      vertex 10 -23.8523 -20
    endloop
  endfacet
  facet normal 1 0 0
    outer loop
      vertex 10 -35 20
      vertex 10 -31.3856 -11.2
      vertex 10 -30 -10.4
    endloop
  endfacet
  facet normal 1 0 0
    outer loop
      vertex 10 -35 20
      vertex 10 -28.6144 -11.2
      vertex 10 -23.8523 -20
    endloop
  endfacet
  facet normal 1 0 0
    outer loop
      vertex 10 -35 20
      vertex 10 -30 -10.4
      vertex 10 -28.6144 -11.2
    endloop
  endfacet
  facet normal 1 0 0
    outer loop
      vertex 10 -30 10.4
      vertex 10 -31.3856 11.2
      vertex 10 -23.8523 -20
    endloop
  endfacet
  facet normal 1 0 0
    outer loop
      vertex 10 -31.3856 12.8
      vertex 10 -35 20
      vertex 10 -31.3856 11.2
    endloop
  endfacet
  facet normal 1 0 0
    outer loop
      vertex 10 -23.8523 20
      vertex 10 -35 20
      vertex 10 -31.3856 12.8
    endloop
  endfacet
  facet normal 1 0 0
    outer loop
      vertex 10 -23.8523 20
      vertex 10 -31.3856 12.8
      vertex 10 -30 13.6
    endloop
  endfacet
  facet normal 1 0 0
    outer loop
      vertex 10 -23.8523 20
      vertex 10 -28.6144 12.8
      vertex 10 -23.8523 -20
    endloop
  endfacet
  facet normal 1 0 0
    outer loop
      vertex 10 -28.6144 12.8
      vertex 10 -28.6144 11.2
      vertex 10 -23.8523 -20
    endloop
  endfacet
  facet normal 1 0 0
    outer loop
      vertex 10 -28.6144 11.2
      vertex 10 -30 10.4
      vertex 10 -23.8523 -20
    endloop
  endfacet
  facet normal 1 0 0
    outer loop
      vertex 10 -28.6144 -11.2
      vertex 10 -28.6144 -12.8
      vertex 10 -23.8523 -20
    endloop
  endfacet
  facet normal 0.406737 -0.913545 0
    outer loop
      vertex 10 -23.8523 20
      vertex 10 -23.8523 -20
      vertex 13 -22.5167 -20
    endloop
  endfacet
  facet normal 0.406737 -0.913545 0
    outer loop
      vertex 13 -22.5167 20
      vertex 10 -23.8523 20
      vertex 13 -22.5167 -20
    endloop
  endfacet
  facet normal 0.587785 -0.809017 0
    outer loop
      vertex 13 -22.5167 20
      vertex 13 -22.5167 -20
      vertex 17.3974 -19.3218 -20
    endloop
  endfacet
  facet normal 0.587785 -0.809017 0
    outer loop
      vertex 17.3974 -19.3218 20
      vertex 13 -22.5167 20
      vertex 17.3974 -19.3218 -20
    endloop
  endfacet
  facet normal 0.743145 -0.669131 0
    outer loop
      vertex 17.3974 -19.3218 20
      vertex 17.3974 -19.3218 -20
      vertex 21.0344 -15.2824 -20
    endloop
  endfacet
  facet normal 0.743145 -0.669131 0
    outer loop
      vertex 21.0344 -15.2824 20
      vertex 17.3974 -19.3218 20
      vertex 21.0344 -15.2824 -20
    endloop
  endfacet
  facet normal 0.866025 -0.5 0
    outer loop
      vertex 21.0344 -15.2824 20
      vertex 21.0344 -15.2824 -20
      vertex 23.7522 -10.5752 -20
    endloop
  endfacet
  facet normal 0.866025 -0.5 0
    outer loop
      vertex 23.7522 -10.5752 20
      vertex 21.0344 -15.2824 20
      vertex 23.7522 -10.5752 -20
    endloop
  endfacet
  facet normal 0.951057 -0.309017 0
    outer loop
      vertex 23.7522 -10.5752 20
      vertex 23.7522 -10.5752 -20
      vertex 25.4318 -5.4057 -20
    endloop
  endfacet
  facet normal 0.951057 -0.309017 0
    outer loop
      vertex 25.4318 -5.4057 20
      vertex 23.7522 -10.5752 20
      vertex 25.4318 -5.4057 -20
    endloop
  endfacet
  facet normal 0.994522 -0.104528 0
    outer loop
      vertex 25.4318 -5.4057 20
      vertex 25.4318 -5.4057 -20
      vertex 26 0 -20
    endloop
  endfacet
  facet normal 0.994522 -0.104528 0
    outer loop
      vertex 26 0 20
      vertex 25.4318 -5.4057 20
      vertex 26 0 -20
    endloop
  endfacet
  facet normal 0.994522 0.104528 0
    outer loop
      vertex 26 0 -20
      vertex 25.4318 5.4057 -20
      vertex 25.4318 5.4057 20
    endloop
  endfacet
  facet normal 0.994522 0.104528 0
    outer loop
      vertex 26 0 20
      vertex 26 0 -20
      vertex 25.4318 5.4057 20
    endloop
  endfacet
  facet normal 0.951057 0.309017 0
    outer loop
      vertex 25.4318 5.4057 -20
      vertex 23.7522 10.5752 -20
      vertex 23.7522 10.5752 20
    endloop
  endfacet
  facet normal 0.951057 0.309017 0
    outer loop
      vertex 25.4318 5.4057 20
      vertex 25.4318 5.4057 -20
      vertex 23.7522 10.5752 20
    endloop
  endfacet
  facet normal 0.866025 0.5 0
    outer loop
      vertex 23.7522 10.5752 -20
      vertex 21.0344 15.2824 -20
      vertex 21.0344 15.2824 20
    endloop
  endfacet
  facet normal 0.866025 0.5 0
    outer loop
      vertex 23.7522 10.5752 20
      vertex 23.7522 10.5752 -20
      vertex 21.0344 15.2824 20
    endloop
  endfacet
  facet normal 0.743145 0.669131 0
    outer loop
      vertex 21.0344 15.2824 -20
      vertex 17.3974 19.3218 -20
      vertex 17.3974 19.3218 20
    endloop
  endfacet
  facet normal 0.743145 0.669131 0
    outer loop
      vertex 21.0344 15.2824 20
      vertex 21.0344 15.2824 -20
      vertex 17.3974 19.3218 20
    endloop
  endfacet
  facet normal 0.587785 0.809017 0
    outer loop
      vertex 13 22.5167 -20
      vertex 13 22.5167 20
      vertex 17.3974 19.3218 -20
    endloop
  endfacet
  facet normal 0.587785 0.809017 0
    outer loop
      vertex 17.3974 19.3218 -20
      vertex 13 22.5167 20
      vertex 17.3974 19.3218 20
    endloop
  endfacet
  facet normal 0.406737 0.913545 0
    outer loop
      vertex 8.03444 24.7275 -20
      vertex 8.03444 24.7275 20
      vertex 13 22.5167 -20
    endloop
  endfacet
  facet normal 0.406737 0.913545 0
    outer loop
      vertex 13 22.5167 -20
      vertex 8.03444 24.7275 20
      vertex 13 22.5167 20
    endloop
  endfacet
  facet normal 0.207912 0.978148 0
    outer loop
      vertex 2.71774 25.8576 -20
      vertex 2.71774 25.8576 20
      vertex 8.03444 24.7275 -20
    endloop
  endfacet
  facet normal 0.207912 0.978148 0
    outer loop
      vertex 8.03444 24.7275 -20
      vertex 2.71774 25.8576 20
      vertex 8.03444 24.7275 20
    endloop
  endfacet
  facet normal 0 1 0
    outer loop
      vertex -2.71774 25.8576 -20
      vertex -2.71774 25.8576 20
      vertex 2.71774 25.8576 -20
    endloop
  endfacet
  facet normal 0 1 0
    outer loop
      vertex 2.71774 25.8576 -20
      vertex -2.71774 25.8576 20
      vertex 2.71774 25.8576 20
    endloop
  endfacet
  facet normal -0.207912 0.978148 0
    outer loop
      vertex -8.03444 24.7275 -20
      vertex -8.03444 24.7275 20
      vertex -2.71774 25.8576 -20
    endloop
  endfacet
  facet normal -0.207912 0.978148 0
    outer loop
      vertex -2.71774 25.8576 -20
      vertex -8.03444 24.7275 20
      vertex -2.71774 25.8576 20
    endloop
  endfacet
  facet normal -0.406737 0.913545 0
    outer loop
      vertex -13 22.5167 -20
      vertex -13 22.5167 20
      vertex -8.03444 24.7275 -20
    endloop
  endfacet
  facet normal -0.406737 0.913545 0
    outer loop
      vertex -8.03444 24.7275 -20
      vertex -13 22.5167 20
      vertex -8.03444 24.7275 20
    endloop
  endfacet
  facet normal -0.587785 0.809017 0
    outer loop
      vertex -17.3974 19.3218 -20
      vertex -17.3974 19.3218 20
      vertex -13 22.5167 -20
    endloop
  endfacet
  facet normal -0.587785 0.809017 0
    outer loop
      vertex -13 22.5167 -20
      vertex -17.3974 19.3218 20
      vertex -13 22.5167 20
    endloop
  endfacet
  facet normal -0.743145 0.669131 0
    outer loop
      vertex -21.0344 15.2824 -20
      vertex -21.0344 15.2824 20
      vertex -17.3974 19.3218 -20
    endloop
  endfacet
  facet normal -0.743145 0.669131 0
    outer loop
      vertex -17.3974 19.3218 -20
      vertex -21.0344 15.2824 20
      vertex -17.3974 19.3218 20
    endloop
  endfacet
  facet normal -0.866025 0.5 0
    outer loop
      vertex -23.7522 10.5752 -20
      vertex -23.7522 10.5752 20
      vertex -21.0344 15.2824 -20
    endloop
  endfacet
  facet normal -0.866025 0.5 0
    outer loop
      vertex -21.0344 15.2824 -20
      vertex -23.7522 10.5752 20
      vertex -21.0344 15.2824 20
    endloop
  endfacet
  facet normal -0.951057 0.309017 0
    outer loop
      vertex -25.4318 5.4057 -20
      vertex -25.4318 5.4057 20
      vertex -23.7522 10.5752 -20
    endloop
  endfacet
  facet normal -0.951057 0.309017 0
    outer loop
      vertex -23.7522 10.5752 -20
      vertex -25.4318 5.4057 20
      vertex -23.7522 10.5752 20
    endloop
  endfacet
  facet normal 0 0 1
    outer loop
      vertex -25.4318 5.4057 20
      vertex -26 0 20
      vertex -25.4318 -5.4057 20
    endloop
  endfacet
  facet normal 0 0 1
    outer loop
      vertex -21.0344 -15.2824 20
      vertex -25.4318 5.4057 20
      vertex -23.7522 -10.5752 20
    endloop
  endfacet
  facet normal 0 0 1
    outer loop
      vertex -23.7522 -10.5752 20
      vertex -25.4318 5.4057 20
      vertex -25.4318 -5.4057 20
    endloop
  endfacet
  facet normal 0 0 1
    outer loop
      vertex -17.3974 -19.3218 20
      vertex -25.4318 5.4057 20
      vertex -21.0344 -15.2824 20
    endloop
  endfacet
  facet normal 0 0 1
    outer loop
      vertex -13 -22.5167 20
      vertex -25.4318 5.4057 20
      vertex -17.3974 -19.3218 20
    endloop
  endfacet
  facet normal 0 0 1
    outer loop
      vertex -10 -23.8523 20
      vertex -25.4318 5.4057 20
      vertex -13 -22.5167 20
    endloop
  endfacet
  facet normal 0 0 1
    outer loop
      vertex -3 -35 20
      vertex -25.4318 5.4057 20
      vertex -10 -23.8523 20
    endloop
  endfacet
  facet normal 0 0 1
    outer loop
      vertex -10 -35 20
      vertex -3 -35 20
      vertex -10 -23.8523 20
    endloop
  endfacet
  facet normal 0 0 1
    outer loop
      vertex -15.3713 -11.1679 20
      vertex -25.4318 5.4057 20
      vertex -3 -35 20
    endloop
  endfacet
  facet normal 0 0 1
    outer loop
      vertex -3 -28.2163 20
      vertex -3.1337 -28.1497 20
      vertex -3 -35 20
    endloop
  endfacet
  facet normal 0 0 1
    outer loop
      vertex -3 -18.6804 20
      vertex -3.1337 -19.8503 20
      vertex -3 -19.7837 20
    endloop
  endfacet
  facet normal 0 0 1
    outer loop
      vertex -3.1337 -28.1497 20
      vertex -4.42113 -26.7374 20
      vertex -3 -35 20
    endloop
  endfacet
  facet normal 0 0 1
    outer loop
      vertex -3 -18.6804 20
      vertex -5.87132 -18.0701 20
      vertex -3.1337 -19.8503 20
    endloop
  endfacet
  facet normal 0 0 1
    outer loop
      vertex -17.3574 -7.728 20
      vertex -18.5848 -3.95032 20
      vertex -25.4318 5.4057 20
    endloop
  endfacet
  facet normal 0 0 1
    outer loop
      vertex -9.5 -16.4545 20
      vertex -4.42113 -26.7374 20
      vertex -5.11146 -24.9555 20
    endloop
  endfacet
  facet normal 0 0 1
    outer loop
      vertex -5.87132 -18.0701 20
      vertex -9.5 -16.4545 20
      vertex -4.42113 -21.2626 20
    endloop
  endfacet
  facet normal 0 0 1
    outer loop
      vertex -3.1337 -19.8503 20
      vertex -5.87132 -18.0701 20
      vertex -4.42113 -21.2626 20
    endloop
  endfacet
  facet normal 0 0 1
    outer loop
      vertex 13 -22.5167 20
      vertex 17.3974 -19.3218 20
      vertex 18.5848 -3.95032 20
    endloop
  endfacet
  facet normal 0 0 1
    outer loop
      vertex -4.42113 -21.2626 20
      vertex -9.5 -16.4545 20
      vertex -5.11146 -23.0445 20
    endloop
  endfacet
  facet normal 0 0 1
    outer loop
      vertex -4.42113 -26.7374 20
      vertex -12.7135 -14.1198 20
      vertex -3 -35 20
    endloop
  endfacet
  facet normal 0 0 1
    outer loop
      vertex -12.7135 -14.1198 20
      vertex -15.3713 -11.1679 20
      vertex -3 -35 20
    endloop
  endfacet
  facet normal 0 0 1
    outer loop
      vertex -17.3574 -7.728 20
      vertex -25.4318 5.4057 20
      vertex -15.3713 -11.1679 20
    endloop
  endfacet
  facet normal 0 0 1
    outer loop
      vertex -18.5848 -3.95032 20
      vertex -19 0 20
      vertex -25.4318 5.4057 20
    endloop
  endfacet
  facet normal 0 0 1
    outer loop
      vertex -9.5 -16.4545 20
      vertex -5.11146 -24.9555 20
      vertex -5.11146 -23.0445 20
    endloop
  endfacet
  facet normal 0 0 1
    outer loop
      vertex -18.5848 3.95032 20
      vertex -25.4318 5.4057 20
      vertex -19 0 20
    endloop
  endfacet
  facet normal 0 0 1
    outer loop
      vertex -17.3574 7.728 20
      vertex -25.4318 5.4057 20
      vertex -18.5848 3.95032 20
    endloop
  endfacet
  facet normal 0 0 1
    outer loop
      vertex -15.3713 11.1679 20
      vertex -25.4318 5.4057 20
      vertex -17.3574 7.728 20
    endloop
  endfacet
  facet normal 0 0 1
    outer loop
      vertex -12.7135 14.1198 20
      vertex -25.4318 5.4057 20
      vertex -15.3713 11.1679 20
    endloop
  endfacet
  facet normal 0 0 1
    outer loop
      vertex -9.5 16.4545 20
      vertex -25.4318 5.4057 20
      vertex -12.7135 14.1198 20
    endloop
  endfacet
  facet normal 0 0 1
    outer loop
      vertex 2.71774 25.8576 20
      vertex -25.4318 5.4057 20
      vertex -9.5 16.4545 20
    endloop
  endfacet
  facet normal 0 0 1
    outer loop
      vertex 8.03444 24.7275 20
      vertex -9.5 16.4545 20
      vertex -5.87132 18.0701 20
    endloop
  endfacet
  facet normal 0 0 1
    outer loop
      vertex 13 22.5167 20
      vertex -5.87132 18.0701 20
      vertex -1.98604 18.8959 20
    endloop
  endfacet
  facet normal 0 0 1
    outer loop
      vertex 17.3974 19.3218 20
      vertex -1.98604 18.8959 20
      vertex 1.98604 18.8959 20
    endloop
  endfacet
  facet normal 0 0 1
    outer loop
      vertex 21.0344 15.2824 20
      vertex 1.98604 18.8959 20
      vertex 5.87132 18.0701 20
    endloop
  endfacet
  facet normal 0 0 1
    outer loop
      vertex 23.7522 10.5752 20
      vertex 5.87132 18.0701 20
      vertex 9.5 16.4545 20
    endloop
  endfacet
  facet normal 0 0 1
    outer loop
      vertex 25.4318 5.4057 20
      vertex 9.5 16.4545 20
      vertex 12.7135 14.1198 20
    endloop
  endfacet
  facet normal 0 0 1
    outer loop
      vertex 5.2 -24 20
      vertex 4.84886 -25.8785 20
      vertex 15.3713 -11.1679 20
    endloop
  endfacet
  facet normal 0 0 1
    outer loop
      vertex 26 0 20
      vertex 12.7135 14.1198 20
      vertex 15.3713 11.1679 20
    endloop
  endfacet
  facet normal 0 0 1
    outer loop
      vertex 25.4318 -5.4057 20
      vertex 15.3713 11.1679 20
      vertex 17.3574 7.728 20
    endloop
  endfacet
  facet normal 0 0 1
    outer loop
      vertex 23.7522 -10.5752 20
      vertex 17.3574 7.728 20
      vertex 18.5848 3.95032 20
    endloop
  endfacet
  facet normal 0 0 1
    outer loop
      vertex 5.87132 -18.0701 20
      vertex 3 -19.8603 20
      vertex 3.84285 -20.4968 20
    endloop
  endfacet
  facet normal 0 0 1
    outer loop
      vertex 21.0344 -15.2824 20
      vertex 18.5848 3.95032 20
      vertex 19 0 20
    endloop
  endfacet
  facet normal 0 0 1
    outer loop
      vertex 17.3974 -19.3218 20
      vertex 19 0 20
      vertex 18.5848 -3.95032 20
    endloop
  endfacet
  facet normal 0 0 1
    outer loop
      vertex 9.5 -16.4545 20
      vertex 5.87132 -18.0701 20
      vertex 4.84886 -22.1215 20
    endloop
  endfacet
  facet normal 0 0 1
    outer loop
      vertex 3 -35 20
      vertex 17.3574 -7.728 20
      vertex 15.3713 -11.1679 20
    endloop
  endfacet
  facet normal 0 0 1
    outer loop
      vertex 3 -28.1397 20
      vertex 3 -35 20
      vertex 3.84285 -27.5032 20
    endloop
  endfacet
  facet normal 0 0 1
    outer loop
      vertex 3.84285 -20.4968 20
      vertex 4.84886 -22.1215 20
      vertex 5.87132 -18.0701 20
    endloop
  endfacet
  facet normal 0 0 1
    outer loop
      vertex 4.84886 -22.1215 20
      vertex 5.2 -24 20
      vertex 9.5 -16.4545 20
    endloop
  endfacet
  facet normal 0 0 1
    outer loop
      vertex 5.2 -24 20
      vertex 15.3713 -11.1679 20
      vertex 12.7135 -14.1198 20
    endloop
  endfacet
  facet normal 0 0 1
    outer loop
      vertex 3.84285 -27.5032 20
      vertex 15.3713 -11.1679 20
      vertex 4.84886 -25.8785 20
    endloop
  endfacet
  facet normal 0 0 1
    outer loop
      vertex 3 -35 20
      vertex 15.3713 -11.1679 20
      vertex 3.84285 -27.5032 20
    endloop
  endfacet
  facet normal 0 0 1
    outer loop
      vertex 13 -22.5167 20
      vertex 18.5848 -3.95032 20
      vertex 17.3574 -7.728 20
    endloop
  endfacet
  facet normal 0 0 1
    outer loop
      vertex 10 -23.8523 20
      vertex 17.3574 -7.728 20
      vertex 3 -35 20
    endloop
  endfacet
  facet normal 0 0 1
    outer loop
      vertex 10 -35 20
      vertex 10 -23.8523 20
      vertex 3 -35 20
    endloop
  endfacet
  facet normal 0 0 1
    outer loop
      vertex 13 -22.5167 20
      vertex 17.3574 -7.728 20
      vertex 10 -23.8523 20
    endloop
  endfacet
  facet normal 0 0 1
    outer loop
      vertex 21.0344 -15.2824 20
      vertex 19 0 20
      vertex 17.3974 -19.3218 20
    endloop
  endfacet
  facet normal 0 0 1
    outer loop
      vertex 23.7522 -10.5752 20
      vertex 18.5848 3.95032 20
      vertex 21.0344 -15.2824 20
    endloop
  endfacet
  facet normal 0 0 1
    outer loop
      vertex 25.4318 -5.4057 20
      vertex 17.3574 7.728 20
      vertex 23.7522 -10.5752 20
    endloop
  endfacet
  facet normal 0 0 1
    outer loop
      vertex 26 0 20
      vertex 15.3713 11.1679 20
      vertex 25.4318 -5.4057 20
    endloop
  endfacet
  facet normal 0 0 1
    outer loop
      vertex 25.4318 5.4057 20
      vertex 12.7135 14.1198 20
      vertex 26 0 20
    endloop
  endfacet
  facet normal 0 0 1
    outer loop
      vertex 23.7522 10.5752 20
      vertex 9.5 16.4545 20
      vertex 25.4318 5.4057 20
    endloop
  endfacet
  facet normal 0 0 1
    outer loop
      vertex 21.0344 15.2824 20
      vertex 5.87132 18.0701 20
      vertex 23.7522 10.5752 20
    endloop
  endfacet
  facet normal 0 0 1
    outer loop
      vertex 17.3974 19.3218 20
      vertex 1.98604 18.8959 20
      vertex 21.0344 15.2824 20
    endloop
  endfacet
  facet normal 0 0 1
    outer loop
      vertex 13 22.5167 20
      vertex -1.98604 18.8959 20
      vertex 17.3974 19.3218 20
    endloop
  endfacet
  facet normal 0 0 1
    outer loop
      vertex 8.03444 24.7275 20
      vertex -5.87132 18.0701 20
      vertex 13 22.5167 20
    endloop
  endfacet
  facet normal 0 0 1
    outer loop
      vertex 2.71774 25.8576 20
      vertex -9.5 16.4545 20
      vertex 8.03444 24.7275 20
    endloop
  endfacet
  facet normal 0 0 1
    outer loop
      vertex -2.71774 25.8576 20
      vertex -25.4318 5.4057 20
      vertex 2.71774 25.8576 20
    endloop
  endfacet
  facet normal 0 0 1
    outer loop
      vertex -8.03444 24.7275 20
      vertex -25.4318 5.4057 20
      vertex -2.71774 25.8576 20
    endloop
  endfacet
  facet normal 0 0 1
    outer loop
      vertex -13 22.5167 20
      vertex -25.4318 5.4057 20
      vertex -8.03444 24.7275 20
    endloop
  endfacet
  facet normal 0 0 1
    outer loop
      vertex -17.3974 19.3218 20
      vertex -25.4318 5.4057 20
      vertex -13 22.5167 20
    endloop
  endfacet
  facet normal 0 0 1
    outer loop
      vertex -21.0344 15.2824 20
      vertex -25.4318 5.4057 20
      vertex -17.3974 19.3218 20
    endloop
  endfacet
  facet normal 0 0 1
    outer loop
      vertex -23.7522 10.5752 20
      vertex -25.4318 5.4057 20
      vertex -21.0344 15.2824 20
    endloop
  endfacet
  facet normal 0 0 1
    outer loop
      vertex -9.5 -16.4545 20
      vertex -12.7135 -14.1198 20
      vertex -4.42113 -26.7374 20
    endloop
  endfacet
  facet normal 0 0 1
    outer loop
      vertex 12.7135 -14.1198 20
      vertex 9.5 -16.4545 20
      vertex 5.2 -24 20
    endloop
  endfacet
  facet normal 0 0 1
    outer loop
      vertex 5.87132 -18.0701 20
      vertex 3 -18.6804 20
      vertex 3 -19.8603 20
    endloop
  endfacet
  facet normal 1.92296e-16 0.5 -0.866025
    outer loop
      vertex -3 -30 -10.4
      vertex -3 -31.3856 -11.2
      vertex -10 -30 -10.4
    endloop
  endfacet
  facet normal 1.92296e-16 0.5 -0.866025
    outer loop
      vertex -10 -30 -10.4
      vertex -3 -31.3856 -11.2
      vertex -10 -31.3856 -11.2
    endloop
  endfacet
  facet normal 0 1 0
    outer loop
      vertex -3 -31.3856 -11.2
      vertex -3 -31.3856 -12.8
      vertex -10 -31.3856 -11.2
    endloop
  endfacet
  facet normal 0 1 0
    outer loop
      vertex -10 -31.3856 -11.2
      vertex -3 -31.3856 -12.8
      vertex -10 -31.3856 -12.8
    endloop
  endfacet
  facet normal 1.92296e-16 -0.5 -0.866025
    outer loop
      vertex -3 -28.6144 -11.2
      vertex -3 -30 -10.4
      vertex -10 -28.6144 -11.2
    endloop
  endfacet
  facet normal 1.92296e-16 -0.5 -0.866025
    outer loop
      vertex -10 -28.6144 -11.2
      vertex -3 -30 -10.4
      vertex -10 -30 -10.4
    endloop
  endfacet
  facet normal 0 -1 0
    outer loop
      vertex -3 -28.6144 -12.8
      vertex -3 -28.6144 -11.2
      vertex -10 -28.6144 -11.2
    endloop
  endfacet
  facet normal 0 -1 0
    outer loop
      vertex -10 -28.6144 -12.8
      vertex -3 -28.6144 -12.8
      vertex -10 -28.6144 -11.2
    endloop
  endfacet
  facet normal -1.92296e-16 -0.5 0.866025
    outer loop
      vertex -3 -30 -13.6
      vertex -3 -28.6144 -12.8
      vertex -10 -28.6144 -12.8
    endloop
  endfacet
  facet normal -1.92296e-16 -0.5 0.866025
    outer loop
      vertex -10 -30 -13.6
      vertex -3 -30 -13.6
      vertex -10 -28.6144 -12.8
    endloop
  endfacet
  facet normal -1.92296e-16 0.5 0.866025
    outer loop
      vertex -3 -31.3856 -12.8
      vertex -3 -30 -13.6
      vertex -10 -30 -13.6
    endloop
  endfacet
  facet normal -1.92296e-16 0.5 0.866025
    outer loop
      vertex -10 -31.3856 -12.8
      vertex -3 -31.3856 -12.8
      vertex -10 -30 -13.6
    endloop
  endfacet
  facet normal 1.92296e-16 0.5 -0.866025
    outer loop
      vertex -3 -30 13.6
      vertex -3 -31.3856 12.8
      vertex -10 -30 13.6
    endloop
  endfacet
  facet normal 1.92296e-16 0.5 -0.866025
    outer loop
      vertex -10 -30 13.6
      vertex -3 -31.3856 12.8
      vertex -10 -31.3856 12.8
    endloop
  endfacet
  facet normal 0 1 0
    outer loop
      vertex -3 -31.3856 12.8
      vertex -3 -31.3856 11.2
      vertex -10 -31.3856 12.8
    endloop
  endfacet
  facet normal 0 1 0
    outer loop
      vertex -10 -31.3856 12.8
      vertex -3 -31.3856 11.2
      vertex -10 -31.3856 11.2
    endloop
  endfacet
  facet normal 1.92296e-16 -0.5 -0.866025
    outer loop
      vertex -3 -28.6144 12.8
      vertex -3 -30 13.6
      vertex -10 -28.6144 12.8
    endloop
  endfacet
  facet normal 1.92296e-16 -0.5 -0.866025
    outer loop
      vertex -10 -28.6144 12.8
      vertex -3 -30 13.6
      vertex -10 -30 13.6
    endloop
  endfacet
  facet normal 0 -1 0
    outer loop
      vertex -3 -28.6144 11.2
      vertex -3 -28.6144 12.8
      vertex -10 -28.6144 12.8
    endloop
  endfacet
  facet normal 0 -1 0
    outer loop
      vertex -10 -28.6144 11.2
      vertex -3 -28.6144 11.2
      vertex -10 -28.6144 12.8
    endloop
  endfacet
  facet normal -1.92296e-16 -0.5 0.866025
    outer loop
      vertex -3 -30 10.4
      vertex -3 -28.6144 11.2
      vertex -10 -28.6144 11.2
    endloop
  endfacet
  facet normal -1.92296e-16 -0.5 0.866025
    outer loop
      vertex -10 -30 10.4
      vertex -3 -30 10.4
      vertex -10 -28.6144 11.2
    endloop
  endfacet
  facet normal -1.92296e-16 0.5 0.866025
    outer loop
      vertex -3 -31.3856 11.2
      vertex -3 -30 10.4
      vertex -10 -30 10.4
    endloop
  endfacet
  facet normal -1.92296e-16 0.5 0.866025
    outer loop
      vertex -10 -31.3856 11.2
      vertex -3 -31.3856 11.2
      vertex -10 -30 10.4
    endloop
  endfacet
  facet normal 0 1 0
    outer loop
      vertex 10 -31.3856 -11.2
      vertex 10 -31.3856 -12.8
      vertex 3 -31.3856 -11.2
    endloop
  endfacet
  facet normal 0 1 0
    outer loop
      vertex 3 -31.3856 -11.2
      vertex 10 -31.3856 -12.8
      vertex 3 -31.3856 -12.8
    endloop
  endfacet
  facet normal -1.92296e-16 0.5 0.866025
    outer loop
      vertex 10 -31.3856 -12.8
      vertex 10 -30 -13.6
      vertex 3 -30 -13.6
    endloop
  endfacet
  facet normal -1.92296e-16 0.5 0.866025
    outer loop
      vertex 3 -31.3856 -12.8
      vertex 10 -31.3856 -12.8
      vertex 3 -30 -13.6
    endloop
  endfacet
  facet normal 1.92296e-16 0.5 -0.866025
    outer loop
      vertex 10 -30 -10.4
      vertex 10 -31.3856 -11.2
      vertex 3 -30 -10.4
    endloop
  endfacet
  facet normal 1.92296e-16 0.5 -0.866025
    outer loop
      vertex 3 -30 -10.4
      vertex 10 -31.3856 -11.2
      vertex 3 -31.3856 -11.2
    endloop
  endfacet
  facet normal 1.92296e-16 -0.5 -0.866025
    outer loop
      vertex 10 -28.6144 -11.2
      vertex 10 -30 -10.4
      vertex 3 -28.6144 -11.2
    endloop
  endfacet
  facet normal 1.92296e-16 -0.5 -0.866025
    outer loop
      vertex 3 -28.6144 -11.2
      vertex 10 -30 -10.4
      vertex 3 -30 -10.4
    endloop
  endfacet
  facet normal 0 -1 0
    outer loop
      vertex 10 -28.6144 -12.8
      vertex 10 -28.6144 -11.2
      vertex 3 -28.6144 -11.2
    endloop
  endfacet
  facet normal 0 -1 0
    outer loop
      vertex 3 -28.6144 -12.8
      vertex 10 -28.6144 -12.8
      vertex 3 -28.6144 -11.2
    endloop
  endfacet
  facet normal -1.92296e-16 -0.5 0.866025
    outer loop
      vertex 10 -30 -13.6
      vertex 10 -28.6144 -12.8
      vertex 3 -28.6144 -12.8
    endloop
  endfacet
  facet normal -1.92296e-16 -0.5 0.866025
    outer loop
      vertex 3 -30 -13.6
      vertex 10 -30 -13.6
      vertex 3 -28.6144 -12.8
    endloop
  endfacet
  facet normal 0 1 0
    outer loop
      vertex 10 -31.3856 12.8
      vertex 10 -31.3856 11.2
      vertex 3 -31.3856 12.8
    endloop
  endfacet
  facet normal 0 1 0
    outer loop
      vertex 3 -31.3856 12.8
      vertex 10 -31.3856 11.2
      vertex 3 -31.3856 11.2
    endloop
  endfacet
  facet normal -1.92296e-16 0.5 0.866025
    outer loop
      vertex 10 -31.3856 11.2
      vertex 10 -30 10.4
      vertex 3 -30 10.4
    endloop
  endfacet
  facet normal -1.92296e-16 0.5 0.866025
    outer loop
      vertex 3 -31.3856 11.2
      vertex 10 -31.3856 11.2
      vertex 3 -30 10.4
    endloop
  endfacet
  facet normal 1.92296e-16 0.5 -0.866025
    outer loop
      vertex 10 -30 13.6
      vertex 10 -31.3856 12.8
      vertex 3 -30 13.6
    endloop
  endfacet
  facet normal 1.92296e-16 0.5 -0.866025
    outer loop
      vertex 3 -30 13.6
      vertex 10 -31.3856 12.8
      vertex 3 -31.3856 12.8
    endloop
  endfacet
  facet normal 1.92296e-16 -0.5 -0.866025
    outer loop
      vertex 10 -28.6144 12.8
      vertex 10 -30 13.6
      vertex 3 -28.6144 12.8
    endloop
  endfacet
  facet normal 1.92296e-16 -0.5 -0.866025
    outer loop
      vertex 3 -28.6144 12.8
      vertex 10 -30 13.6
      vertex 3 -30 13.6
    endloop
  endfacet
  facet normal 0 -1 0
    outer loop
      vertex 10 -28.6144 11.2
      vertex 10 -28.6144 12.8
      vertex 3 -28.6144 12.8
    endloop
  endfacet
  facet normal 0 -1 0
    outer loop
      vertex 3 -28.6144 11.2
      vertex 10 -28.6144 11.2
      vertex 3 -28.6144 12.8
    endloop
  endfacet
  facet normal -1.92296e-16 -0.5 0.866025
    outer loop
      vertex 10 -30 10.4
      vertex 10 -28.6144 11.2
      vertex 3 -28.6144 11.2
    endloop
  endfacet
  facet normal -1.92296e-16 -0.5 0.866025
    outer loop
      vertex 3 -30 10.4
      vertex 10 -30 10.4
      vertex 3 -28.6144 11.2
    endloop
  endfacet
endsolid OpenSCAD_Model
