<?xml version="1.0" encoding="UTF-8" standalone="no"?>
<!-- Created with Inkscape (http://www.inkscape.org/) -->

<svg
   xmlns:dc="http://purl.org/dc/elements/1.1/"
   xmlns:cc="http://creativecommons.org/ns#"
   xmlns:rdf="http://www.w3.org/1999/02/22-rdf-syntax-ns#"
   xmlns:svg="http://www.w3.org/2000/svg"
   xmlns="http://www.w3.org/2000/svg"
   xmlns:sodipodi="http://sodipodi.sourceforge.net/DTD/sodipodi-0.dtd"
   xmlns:inkscape="http://www.inkscape.org/namespaces/inkscape"
   width="210mm"
   height="297mm"
   viewBox="0 0 744.09448819 1052.3622047"
   id="svg2"
   version="1.1"
   inkscape:version="0.91 r13725"
   sodipodi:docname="compartiments_1.svg">
  <defs
     id="defs4" />
  <sodipodi:namedview
     id="base"
     pagecolor="#ffffff"
     bordercolor="#666666"
     borderopacity="1.0"
     inkscape:pageopacity="0.0"
     inkscape:pageshadow="2"
     inkscape:zoom="0.98994949"
     inkscape:cx="253.60458"
     inkscape:cy="612.09809"
     inkscape:document-units="mm"
     inkscape:current-layer="layer1"
     showgrid="false"
     inkscape:window-width="1280"
     inkscape:window-height="738"
     inkscape:window-x="-8"
     inkscape:window-y="-8"
     inkscape:window-maximized="1" />
  <metadata
     id="metadata7">
    <rdf:RDF>
      <cc:Work
         rdf:about="">
        <dc:format>image/svg+xml</dc:format>
        <dc:type
           rdf:resource="http://purl.org/dc/dcmitype/StillImage" />
        <dc:title></dc:title>
      </cc:Work>
    </rdf:RDF>
  </metadata>
  <g
     inkscape:label="Calque 1"
     inkscape:groupmode="layer"
     id="layer1">
    <rect
       style="fill:none;fill-opacity:1;stroke:#ff0000;stroke-width:0.03543307;stroke-linejoin:miter;stroke-miterlimit:4;stroke-dasharray:none;stroke-dashoffset:0;stroke-opacity:1"
       id="rect4136"
       width="329.25641"
       height="212.32729"
       x="19.958405"
       y="28.647963" />
    <text
       xml:space="preserve"
       style="font-style:normal;font-weight:normal;font-size:40px;line-height:125%;font-family:sans-serif;letter-spacing:0px;word-spacing:0px;fill:#000000;fill-opacity:1;stroke:none;stroke-width:1px;stroke-linecap:butt;stroke-linejoin:miter;stroke-opacity:1"
       x="130.82452"
       y="68.89846"
       id="text4138"
       sodipodi:linespacing="125%"><tspan
         sodipodi:role="line"
         id="tspan4140"
         x="130.82452"
         y="68.89846">colle</tspan></text>
    <path
       style="fill:none;fill-rule:evenodd;stroke:#0000ff;stroke-width:0.03543307;stroke-linecap:butt;stroke-linejoin:miter;stroke-opacity:1;stroke-miterlimit:4;stroke-dasharray:none"
       d="m 35.920017,153.4413 0,-47.49608 c -0.0369,-6.195814 0.69679,-11.082144 4.28039,-15.121144 3.59749,-3.64378 5.42326,-4.89967 10.09917,-4.92307 l 200.823403,-0.3268 c 1.83763,0.0395 4.17595,2.42843 4.81962,5.27951 0.78236,2.43953 0.94851,5.03309 0.84505,7.35705 l 5.11999,0.10897 5.33786,-5.33786 35.29527,0.43575 30.50206,17.429764 -0.3813,35.18631 -29.63055,15.68676 -36.6025,-0.43573 -4.25398,-3.47161 -1.63951,0.0241 0.22882,20.87718 c 0.10896,2.16057 -0.87149,4.86581 -2.61446,6.97191 -1.47063,2.16057 -3.26808,4.26665 -5.22892,4.35744 l -32.24505,0.43574 c -6.62417,0.39301 -11.28406,2.57173 -16.12252,6.53616 -8.61263,6.18291 -12.20082,23.09442 -12.20082,23.09442 -3.46458,3.93111 -7.82202,7.50508 -13.07232,6.9719 L 53.785517,186.5578 c -7.66184,-3.15915 -14.2343,-8.06126 -17.42976,-13.07232 -0.79886,-6.79033 -0.29051,-13.36282 -0.43574,-20.04422 z"
       id="path4164"
       inkscape:connector-curvature="0"
       sodipodi:nodetypes="ccccccccccccccccccccccccccc" />
    <path
       style="fill:none;fill-rule:evenodd;stroke:#0000ff;stroke-width:0.03543307;stroke-linecap:butt;stroke-linejoin:miter;stroke-miterlimit:4;stroke-dasharray:none;stroke-opacity:1"
       d="m 239.48726,406.28317 160.83559,-1.81733 c 0,0 41.79905,-0.90867 52.70316,5.45206 10.90412,6.36072 12.72146,11.81279 29.07764,8.17806 16.35613,-3.63467 16.58328,-8.74599 16.58328,-8.74599 0,0 -0.22694,-4.20261 -1.81733,-4.88413 -1.59019,-0.68151 -16.24256,-2.95321 -16.24256,-2.95321 l 0,0 c 0,0 -4.99774,-0.45441 -4.99774,-4.42976 0,-3.97546 -0.56789,-12.72147 2.9532,-14.5388 3.52115,-1.81738 22.60333,4.65692 22.60333,4.65692 0,0 3.52111,1.70381 4.65692,-1.36298 1.13588,-3.06678 -1.2494,-8.06449 -5.56563,-11.0177 -4.31619,-2.9532 -15.33389,-10.44976 -24.98856,-11.58562 -9.65466,-1.13583 -11.69921,6.13357 -16.46975,8.74599 -4.77055,2.61248 -6.36073,3.97546 -17.71916,4.42982 -11.35843,0.45441 -283.60035,1.93081 -283.60035,1.93081 0,0 -12.85061,-0.96377 -23.13107,-8.35291 -10.28052,-7.38907 -16.70582,-10.923 -21.52482,-10.28046 -4.81899,0.64253 -20.239684,2.57014 -26.343744,7.06783 -6.10407,4.4977 -6.7064,6.06387 -6.66625,7.2285 0.0407,1.16456 0.60239,3.21261 3.65437,3.53391 3.05203,0.32109 21.645254,4.65834 21.645254,4.65834 0,0 3.13233,0.92363 3.77486,3.33313 0.64254,2.40949 0.2982,8.37285 -0.15622,10.41734 -0.45441,2.04455 -1.49014,5.52544 -4.34137,7.61364 -2.85124,2.08826 -18.673524,-3.29292 -22.327934,-3.77486 -3.65443,-0.48189 -6.26467,0.88348 -6.58596,1.52602 -0.32109,0.64253 -2.0079,3.45362 3.29298,8.51355 5.30087,5.05993 17.18404,14.12026 25.362114,14.46099 8.17805,0.34093 10.84732,-0.0569 18.57109,-5.62243 7.7237,-5.56564 22.48971,-12.4943 26.0108,-12.4943 3.52115,0 90.75396,0.11345 90.75396,0.11345 z"
       id="path4216-7"
       inkscape:connector-curvature="0" />
    <rect
       style="fill:none;fill-opacity:1;stroke:#ff0000;stroke-width:0.03543307;stroke-linejoin:miter;stroke-miterlimit:4;stroke-dasharray:none;stroke-dashoffset:0;stroke-opacity:1"
       id="rect4136-5"
       width="551.77142"
       height="212.22304"
       x="23.995352"
       y="289.10782" />
    <text
       xml:space="preserve"
       style="font-style:normal;font-weight:normal;font-size:40px;line-height:125%;font-family:sans-serif;letter-spacing:0px;word-spacing:0px;fill:#000000;fill-opacity:1;stroke:none;stroke-width:1px;stroke-linecap:butt;stroke-linejoin:miter;stroke-opacity:1"
       x="195.01591"
       y="342.97543"
       id="text4138-3"
       sodipodi:linespacing="125%"><tspan
         sodipodi:role="line"
         id="tspan4140-8"
         x="195.01591"
         y="342.97543">clés plates</tspan></text>
    <path
       style="fill:none;fill-rule:evenodd;stroke:#0000ff;stroke-width:0.03543307;stroke-linecap:butt;stroke-linejoin:miter;stroke-miterlimit:4;stroke-dasharray:none;stroke-opacity:1"
       d="m 139.19319,477.60719 91.11151,-1.05575 c 0,0 23.67869,-0.55819 29.8554,3.57601 6.17682,4.13344 7.20596,7.67063 16.47172,5.3259 9.2658,-2.34467 9.39466,-5.65933 9.39466,-5.65933 0,0 -0.12267,-2.72595 -1.02935,-3.16888 -0.90069,-0.44353 -9.20092,-1.92775 -9.20092,-1.92775 l 0,0 c 0,0 -2.83124,-0.29856 -2.83109,-2.87661 4.1e-4,-2.57809 -0.32137,-8.2507 1.6737,-9.42659 1.99472,-1.17594 12.80431,3.03744 12.80431,3.03744 0,0 1.99457,1.10761 2.63812,-0.88042 0.64359,-1.98792 -0.70732,-5.23101 -3.15241,-7.14949 -2.44488,-1.91853 -8.68602,-6.78868 -14.15517,-7.5327 -5.4692,-0.74396 -6.62775,3.96891 -9.33034,5.65949 -2.70248,1.69058 -3.60343,2.57333 -10.03785,2.85932 -6.43447,0.28588 -159.376648,0.99715 -159.376648,0.99715 0,0 -6.86745,-2.88846 -12.69082,-7.68841 -5.82346,-4.7999 -8.98347,-7.11112 -11.71322,-6.69816 -2.72996,0.41363 -12.7811,-0.35127 -16.93948,1.42269 -7.73839,3.30098 -4.86589,5.72057 -4.84329,6.47589 0.0152,0.75542 3.68986,1.66285 5.41912,1.87351 1.729,0.20986 9.63984,1.03558 9.63984,1.03558 0,0 3.02989,-0.23672 3.39364,1.32623 0.36445,1.5631 -0.25345,7.36396 -0.51085,8.68953 -0.25699,1.32567 -1.08713,6.15091 -2.70249,7.50304 -1.61535,1.35208 -12.14859,-1.14202 -14.21873,-1.45736 -2.1112,-1.67365 -8.10437,-1.85552 -8.2864,-1.43937 -3.01716,1.94307 1.24766,4.31678 4.32682,7.53072 2.58453,2.69758 13.22584,7.26557 18.37002,9.43719 4.19143,1.52098 5.39818,1.7539 9.77387,-1.84873 4.37563,-3.60359 12.74069,-8.08582 14.73536,-8.08313 1.99481,0.005 51.410968,0.14294 51.410968,0.14294 z"
       id="path4216-3"
       inkscape:connector-curvature="0"
       sodipodi:nodetypes="cccscccccccccscccscsccccccccsccccc" />
    <path
       style="fill:none;fill-rule:evenodd;stroke:#0000ff;stroke-width:0.03543307;stroke-linecap:butt;stroke-linejoin:miter;stroke-miterlimit:4;stroke-dasharray:none;stroke-opacity:1"
       d="m 408.66731,479.4042 91.11151,-1.05575 c 0,0 23.67869,-0.55819 29.8554,3.57601 6.17682,4.13344 7.20596,7.67063 16.47172,5.3259 9.2658,-2.34467 9.39466,-5.65933 9.39466,-5.65933 0,0 -0.12267,-2.72595 -1.02935,-3.16888 -0.90069,-0.44353 -9.20092,-1.92775 -9.20092,-1.92775 l 0,0 c 0,0 -2.83124,-0.29856 -2.83109,-2.87661 4.1e-4,-2.57809 -0.32137,-8.2507 1.6737,-9.42659 1.99472,-1.17594 12.80431,3.03744 12.80431,3.03744 0,0 1.99457,1.10761 2.63812,-0.88042 0.64359,-1.98792 -0.70732,-5.23101 -3.15241,-7.14949 -2.44488,-1.91853 -8.68602,-6.78868 -14.15517,-7.5327 -5.4692,-0.74396 -6.62775,3.96891 -9.33034,5.65949 -2.70248,1.69058 -3.60343,2.57333 -10.03785,2.85932 -6.43447,0.28588 -159.37665,0.99715 -159.37665,0.99715 0,0 -6.86745,-2.88846 -12.69082,-7.68841 -5.82346,-4.7999 -8.98347,-7.11112 -11.71322,-6.69816 -2.72996,0.41363 -12.7811,-0.35127 -16.93948,1.42269 -7.73839,3.30098 -4.86589,5.72057 -4.84329,6.47589 0.0152,0.75542 3.68986,1.66285 5.41912,1.87351 1.729,0.20986 9.63984,1.03558 9.63984,1.03558 0,0 3.02989,-0.23672 3.39364,1.32623 0.36445,1.5631 -0.25345,7.36396 -0.51085,8.68953 -0.25699,1.32567 -1.08713,6.15091 -2.70249,7.50304 -1.61535,1.35208 -12.14859,-1.14202 -14.21873,-1.45736 -2.1112,-1.67365 -8.10437,-1.85552 -8.2864,-1.43937 -3.01716,1.94307 1.24766,4.31678 4.32682,7.53072 2.58453,2.69758 13.22584,7.26557 18.37002,9.43719 4.19143,1.52098 5.39818,1.7539 9.77387,-1.84873 4.37563,-3.60359 12.74069,-8.08582 14.73536,-8.08313 1.99481,0.005 51.41097,0.14294 51.41097,0.14294 z"
       id="path4216-3-4"
       inkscape:connector-curvature="0"
       sodipodi:nodetypes="cccscccccccccscccscsccccccccsccccc" />
    <path
       style="fill:none;fill-rule:evenodd;stroke:#000000;stroke-width:1px;stroke-linecap:butt;stroke-linejoin:miter;stroke-opacity:1"
       d="m 90.787791,633.52527 7.3236,0.50507 0.50508,-12.37437 63.892149,0.25254 0.50507,-7.3236 -66.670059,1.51523 -3.03046,3.28299 -1.76777,7.57614 z"
       id="path4296"
       inkscape:connector-curvature="0" />
    <path
       style="fill:none;fill-rule:evenodd;stroke:#000000;stroke-width:1.0402863px;stroke-linecap:butt;stroke-linejoin:miter;stroke-opacity:1"
       d="m 149.15642,650.26153 7.54963,0.53022 0.52066,-12.99058 65.86397,0.26511 0.52065,-7.68829 -68.7276,1.59068 -3.12399,3.44648 -1.82232,7.95341 z"
       id="path4296-8"
       inkscape:connector-curvature="0" />
    <path
       style="fill:none;fill-rule:evenodd;stroke:#000000;stroke-width:0.95070493px;stroke-linecap:butt;stroke-linejoin:miter;stroke-opacity:1"
       d="m 159.71336,601.11441 6.96258,0.48017 0.48018,-11.76437 60.74258,0.24009 0.48017,-6.96258 -63.38355,1.44053 -2.88107,3.12116 -1.68063,7.20267 z"
       id="path4296-8-1"
       inkscape:connector-curvature="0" />
    <path
       style="fill:none;fill-rule:evenodd;stroke:#000000;stroke-width:0.95070493px;stroke-linecap:butt;stroke-linejoin:miter;stroke-opacity:1"
       d="m 137.27684,581.1639 6.96258,0.48017 0.48018,-11.76437 60.74258,0.24009 0.48017,-6.96258 -63.38355,1.44053 -2.88107,3.12116 -1.68063,7.20267 z"
       id="path4296-8-1-0"
       inkscape:connector-curvature="0" />
    <path
       style="fill:none;fill-rule:evenodd;stroke:#000000;stroke-width:0.95070493px;stroke-linecap:butt;stroke-linejoin:miter;stroke-opacity:1"
       d="m 105.70957,562.47608 6.96258,0.48017 0.48018,-11.76437 60.74258,0.24009 0.48017,-6.96258 -63.38355,1.44053 -2.88107,3.12116 -1.68063,7.20267 z"
       id="path4296-8-1-0-0"
       inkscape:connector-curvature="0" />
  </g>
</svg>
