  0
SECTION
  2
HEADER
  9
$ACADVER
  1
AC1006
  9
$DWGCODEPAGE
  3
ansi_1252
  9
$INSBASE
 10
0.0
 20
0.0
 30
0.0
  9
$EXTMIN
 10
-0.939
 20
-0.2374212598425197
  9
$EXTMAX
 10
0.9393267716535433
 20
1.02346062992126
  9
$LIMMIN
 10
0.0
 20
0.0
  9
$LIMMAX
 10
12.0
 20
9.0
  9
$ORTHOMODE
 70
     0
  9
$REGENMODE
 70
     1
  9
$FILLMODE
 70
     1
  9
$QTEXTMODE
 70
     0
  9
$MIRRTEXT
 70
     1
  9
$DRAGMODE
 70
     2
  9
$LTSCALE
 40
1.0
  9
$OSMODE
 70
    37
  9
$ATTMODE
 70
     1
  9
$TEXTSIZE
 40
0.2
  9
$TRACEWID
 40
0.05
  9
$TEXTSTYLE
  7
STANDARD
  9
$CLAYER
  8
0
  9
$CELTYPE
  6
BYLAYER
  9
$CECOLOR
 62
   256
  9
$DIMSCALE
 40
1.0
  9
$DIMASZ
 40
0.18
  9
$DIMEXO
 40
0.0625
  9
$DIMDLI
 40
0.38
  9
$DIMRND
 40
0.0
  9
$DIMDLE
 40
0.0
  9
$DIMEXE
 40
0.18
  9
$DIMTP
 40
0.0
  9
$DIMTM
 40
0.0
  9
$DIMTXT
 40
0.18
  9
$DIMCEN
 40
0.09
  9
$DIMTSZ
 40
0.0
  9
$DIMTOL
 70
     0
  9
$DIMLIM
 70
     0
  9
$DIMTIH
 70
     1
  9
$DIMTOH
 70
     1
  9
$DIMSE1
 70
     0
  9
$DIMSE2
 70
     0
  9
$DIMTAD
 70
     0
  9
$DIMZIN
 70
     0
  9
$DIMBLK
  1

  9
$DIMASO
 70
     1
  9
$DIMSHO
 70
     1
  9
$DIMPOST
  1

  9
$DIMAPOST
  1

  9
$DIMALT
 70
     0
  9
$DIMALTD
 70
     2
  9
$DIMALTF
 40
25.4
  9
$DIMLFAC
 40
1.0
  9
$DIMTOFL
 70
     0
  9
$DIMTVP
 40
0.0
  9
$DIMTIX
 70
     0
  9
$DIMSOXD
 70
     0
  9
$DIMSAH
 70
     0
  9
$DIMBLK1
  1

  9
$DIMBLK2
  1

  9
$LUNITS
 70
     2
  9
$LUPREC
 70
     4
  9
$SKETCHINC
 40
0.1
  9
$FILLETRAD
 40
0.5
  9
$AUNITS
 70
     0
  9
$AUPREC
 70
     0
  9
$MENU
  1
.
  9
$ELEVATION
 40
0.0
  9
$THICKNESS
 40
0.0
  9
$LIMCHECK
 70
     0
  9
$CHAMFERA
 40
0.5
  9
$CHAMFERB
 40
0.5
  9
$SKPOLY
 70
     0
  9
$TDCREATE
 40
2456888.69617831
  9
$TDUPDATE
 40
2456888.696178322
  9
$TDINDWG
 40
0.0000000116
  9
$TDUSRTIMER
 40
0.0000000116
  9
$USRTIMER
 70
     1
  9
$ANGBASE
 50
0.0
  9
$ANGDIR
 70
     0
  9
$PDMODE
 70
     0
  9
$PDSIZE
 40
0.0
  9
$PLINEWID
 40
0.0
  9
$COORDS
 70
     1
  9
$SPLFRAME
 70
     0
  9
$SPLINETYPE
 70
     6
  9
$SPLINESEGS
 70
     8
  9
$ATTDIA
 70
     0
  9
$ATTREQ
 70
     1
  9
$HANDLING
 70
     1
  9
$HANDSEED
  5
2CA
  9
$SURFTAB1
 70
     6
  9
$SURFTAB2
 70
     6
  9
$SURFTYPE
 70
     6
  9
$SURFU
 70
     6
  9
$SURFV
 70
     6
  9
$UCSNAME
  2

  9
$UCSORG
 10
0.0
 20
0.0
 30
0.0
  9
$UCSXDIR
 10
1.0
 20
0.0
 30
0.0
  9
$UCSYDIR
 10
0.0
 20
1.0
 30
0.0
  9
$USERI1
 70
     0
  9
$USERI2
 70
     0
  9
$USERI3
 70
     0
  9
$USERI4
 70
     0
  9
$USERI5
 70
     0
  9
$USERR1
 40
0.0
  9
$USERR2
 40
0.0
  9
$USERR3
 40
0.0
  9
$USERR4
 40
0.0
  9
$USERR5
 40
0.0
  9
$WORLDVIEW
 70
     1
  0
ENDSEC
  0
SECTION
  2
TABLES
  0
TABLE
  2
VPORT
 70
     1
  0
VPORT
  2
*ACTIVE
 70
     0
 10
0.0
 20
0.0
 11
1.0
 21
1.0
 12
10.42990654205607
 22
4.5
 13
0.0
 23
0.0
 14
0.5
 24
0.5
 15
0.5
 25
0.5
 16
0.0
 26
0.0
 36
1.0
 17
0.0
 27
0.0
 37
0.0
 40
9.0
 41
1.972972972850329
 42
50.0
 43
0.0
 44
0.0
 50
0.0
 51
0.0
 71
     0
 72
   100
 73
     1
 74
     3
 75
     0
 76
     0
 77
     0
 78
     0
  0
ENDTAB
  0
TABLE
  2
LTYPE
 70
     1
  0
LTYPE
  2
CONTINUOUS
 70
     0
  3
Solid line
 72
    65
 73
     0
 40
0.0
  0
ENDTAB
  0
TABLE
  2
LAYER
 70
     2
  0
LAYER
  2
0
 70
     0
 62
     7
  6
CONTINUOUS
  0
LAYER
  2
LAYER_1
 70
     0
 62
     7
  6
CONTINUOUS
  0
ENDTAB
  0
TABLE
  2
STYLE
 70
     1
  0
STYLE
  2
STANDARD
 70
     0
 40
0.0
 41
1.0
 50
0.0
 71
     0
 42
0.2
  3
txt
  4

  0
ENDTAB
  0
TABLE
  2
VIEW
 70
     0
  0
ENDTAB
  0
TABLE
  2
UCS
 70
     0
  0
ENDTAB
  0
ENDSEC
  0
SECTION
  2
BLOCKS
  0
ENDSEC
  0
SECTION
  2
ENTITIES
  0
POLYLINE
  5
41
  8
LAYER_1
 66
     1
 10
0.0
 20
0.0
 30
0.0
  0
VERTEX
  5
5A
  8
LAYER_1
 10
-0.875
 20
0.7079055118110236
 30
0.0
  0
VERTEX
  5
5B
  8
LAYER_1
 10
-0.875
 20
0.4459055118110236
 30
0.0
  0
VERTEX
  5
5C
  8
LAYER_1
 10
-0.9122874015748031
 20
0.4455236220472441
 30
0.0
  0
VERTEX
  5
5D
  8
LAYER_1
 10
-0.865
 20
0.3422992125984252
 30
0.0
  0
VERTEX
  5
5E
  8
LAYER_1
 10
-0.802263779527559
 20
0.3422992125984252
 30
0.0
  0
VERTEX
  5
5F
  8
LAYER_1
 10
-0.802263779527559
 20
0.7079055118110236
 30
0.0
  0
VERTEX
  5
60
  8
LAYER_1
 10
-0.6998464566929133
 20
0.7079055118110236
 30
0.0
  0
VERTEX
  5
61
  8
LAYER_1
 10
-0.6998464566929133
 20
0.3422992125984252
 30
0.0
  0
VERTEX
  5
62
  8
LAYER_1
 10
-0.635
 20
0.3422992125984252
 30
0.0
  0
VERTEX
  5
63
  8
LAYER_1
 10
-0.5877086614173228
 20
0.4455236220472441
 30
0.0
  0
VERTEX
  5
64
  8
LAYER_1
 10
-0.625
 20
0.4459055118110236
 30
0.0
  0
VERTEX
  5
65
  8
LAYER_1
 10
-0.625
 20
0.7079055118110236
 30
0.0
  0
SEQEND
  5
66
  8
LAYER_1
  0
POLYLINE
  5
42
  8
LAYER_1
 66
     1
 10
0.0
 20
0.0
 30
0.0
  0
VERTEX
  5
67
  8
LAYER_1
 10
-0.625
 20
0.5580944881889763
 30
0.0
  0
VERTEX
  5
68
  8
LAYER_1
 10
-0.5625
 20
0.5580944881889763
 30
0.0
  0
VERTEX
  5
69
  8
LAYER_1
 10
-0.5625
 20
0.8219015748031496
 30
0.0
  0
VERTEX
  5
6A
  8
LAYER_1
 10
-0.7123425196850394
 20
0.8219015748031496
 30
0.0
  0
VERTEX
  5
6B
  8
LAYER_1
 10
-0.712484251968504
 20
0.8504055118110236
 30
0.0
  0
VERTEX
  5
6C
  8
LAYER_1
 10
-0.7024409448818898
 20
0.8642637795275591
 30
0.0
  0
VERTEX
  5
6D
  8
LAYER_1
 10
-0.6922244094488189
 20
0.8811023622047244
 30
0.0
  0
VERTEX
  5
6E
  8
LAYER_1
 10
-0.6878188976377952
 20
0.8910433070866142
 30
0.0
  0
VERTEX
  5
6F
  8
LAYER_1
 10
-0.6842913385826772
 20
0.9022086614173228
 30
0.0
  0
VERTEX
  5
70
  8
LAYER_1
 10
-0.6819527559055119
 20
0.9147677165354331
 30
0.0
  0
VERTEX
  5
71
  8
LAYER_1
 10
-0.6811023622047244
 20
0.9288740157480315
 30
0.0
  0
VERTEX
  5
72
  8
LAYER_1
 10
-0.682759842519685
 20
0.9443070866141732
 30
0.0
  0
VERTEX
  5
73
  8
LAYER_1
 10
-0.6874015748031496
 20
0.9602204724409449
 30
0.0
  0
VERTEX
  5
74
  8
LAYER_1
 10
-0.6945275590551181
 20
0.9758307086614173
 30
0.0
  0
VERTEX
  5
75
  8
LAYER_1
 10
-0.7036417322834646
 20
0.9903543307086614
 30
0.0
  0
VERTEX
  5
76
  8
LAYER_1
 10
-0.7142440944881889
 20
1.003007874015748
 30
0.0
  0
VERTEX
  5
77
  8
LAYER_1
 10
-0.7258346456692913
 20
1.013015748031496
 30
0.0
  0
VERTEX
  5
78
  8
LAYER_1
 10
-0.7379173228346456
 20
1.019594488188976
 30
0.0
  0
VERTEX
  5
79
  8
LAYER_1
 10
-0.749996062992126
 20
1.02196062992126
 30
0.0
  0
VERTEX
  5
7A
  8
LAYER_1
 10
-0.7620748031496063
 20
1.019594488188976
 30
0.0
  0
VERTEX
  5
7B
  8
LAYER_1
 10
-0.7741574803149607
 20
1.013015748031496
 30
0.0
  0
VERTEX
  5
7C
  8
LAYER_1
 10
-0.785748031496063
 20
1.003007874015748
 30
0.0
  0
VERTEX
  5
7D
  8
LAYER_1
 10
-0.7963503937007874
 20
0.9903543307086614
 30
0.0
  0
VERTEX
  5
7E
  8
LAYER_1
 10
-0.8054645669291338
 20
0.9758307086614173
 30
0.0
  0
VERTEX
  5
7F
  8
LAYER_1
 10
-0.8125905511811023
 20
0.9602204724409449
 30
0.0
  0
VERTEX
  5
80
  8
LAYER_1
 10
-0.8172322834645669
 20
0.9443070866141732
 30
0.0
  0
VERTEX
  5
81
  8
LAYER_1
 10
-0.8188897637795276
 20
0.9288740157480315
 30
0.0
  0
VERTEX
  5
82
  8
LAYER_1
 10
-0.8180393700787402
 20
0.9147677165354331
 30
0.0
  0
VERTEX
  5
83
  8
LAYER_1
 10
-0.8157007874015748
 20
0.9022086614173228
 30
0.0
  0
VERTEX
  5
84
  8
LAYER_1
 10
-0.8121732283464567
 20
0.8910433070866142
 30
0.0
  0
VERTEX
  5
85
  8
LAYER_1
 10
-0.8077677165354331
 20
0.8811023622047244
 30
0.0
  0
VERTEX
  5
86
  8
LAYER_1
 10
-0.7975511811023622
 20
0.8642637795275591
 30
0.0
  0
VERTEX
  5
87
  8
LAYER_1
 10
-0.7875078740157481
 20
0.8504055118110236
 30
0.0
  0
VERTEX
  5
88
  8
LAYER_1
 10
-0.7876496062992125
 20
0.8219015748031496
 30
0.0
  0
VERTEX
  5
89
  8
LAYER_1
 10
-0.9375
 20
0.8219724409448819
 30
0.0
  0
VERTEX
  5
8A
  8
LAYER_1
 10
-0.9375
 20
0.5579173228346457
 30
0.0
  0
VERTEX
  5
8B
  8
LAYER_1
 10
-0.875
 20
0.5579055118110237
 30
0.0
  0
SEQEND
  5
8C
  8
LAYER_1
  0
POLYLINE
  5
43
  8
LAYER_1
 66
     1
 10
0.0
 20
0.0
 30
0.0
 70
     1
  0
VERTEX
  5
8D
  8
LAYER_1
 10
-0.749996062992126
 20
0.8663188976377952
 30
0.0
  0
VERTEX
  5
8E
  8
LAYER_1
 10
-0.7429291338582678
 20
0.8675905511811024
 30
0.0
  0
VERTEX
  5
8F
  8
LAYER_1
 10
-0.735767716535433
 20
0.871236220472441
 30
0.0
  0
VERTEX
  5
90
  8
LAYER_1
 10
-0.7288346456692913
 20
0.877003937007874
 30
0.0
  0
VERTEX
  5
91
  8
LAYER_1
 10
-0.7224448818897637
 20
0.8846417322834645
 30
0.0
  0
VERTEX
  5
92
  8
LAYER_1
 10
-0.7169212598425196
 20
0.8938976377952756
 30
0.0
  0
VERTEX
  5
93
  8
LAYER_1
 10
-0.7125787401574804
 20
0.9045236220472441
 30
0.0
  0
VERTEX
  5
94
  8
LAYER_1
 10
-0.7097401574803149
 20
0.916267716535433
 30
0.0
  0
VERTEX
  5
95
  8
LAYER_1
 10
-0.7087244094488189
 20
0.9288740157480315
 30
0.0
  0
VERTEX
  5
96
  8
LAYER_1
 10
-0.7097401574803149
 20
0.9416496062992126
 30
0.0
  0
VERTEX
  5
97
  8
LAYER_1
 10
-0.7125787401574804
 20
0.9538385826771654
 30
0.0
  0
VERTEX
  5
98
  8
LAYER_1
 10
-0.7169212598425196
 20
0.9650944881889764
 30
0.0
  0
VERTEX
  5
99
  8
LAYER_1
 10
-0.7224448818897637
 20
0.9750748031496063
 30
0.0
  0
VERTEX
  5
9A
  8
LAYER_1
 10
-0.7288346456692913
 20
0.9834370078740158
 30
0.0
  0
VERTEX
  5
9B
  8
LAYER_1
 10
-0.735767716535433
 20
0.9898346456692914
 30
0.0
  0
VERTEX
  5
9C
  8
LAYER_1
 10
-0.7429291338582678
 20
0.9939251968503937
 30
0.0
  0
VERTEX
  5
9D
  8
LAYER_1
 10
-0.749996062992126
 20
0.9953661417322834
 30
0.0
  0
VERTEX
  5
9E
  8
LAYER_1
 10
-0.7570629921259843
 20
0.9939251968503937
 30
0.0
  0
VERTEX
  5
9F
  8
LAYER_1
 10
-0.7642244094488189
 20
0.9898346456692914
 30
0.0
  0
VERTEX
  5
A0
  8
LAYER_1
 10
-0.7711574803149607
 20
0.9834370078740158
 30
0.0
  0
VERTEX
  5
A1
  8
LAYER_1
 10
-0.7775472440944882
 20
0.9750748031496063
 30
0.0
  0
VERTEX
  5
A2
  8
LAYER_1
 10
-0.7830708661417323
 20
0.9650944881889764
 30
0.0
  0
VERTEX
  5
A3
  8
LAYER_1
 10
-0.7874133858267717
 20
0.9538385826771654
 30
0.0
  0
VERTEX
  5
A4
  8
LAYER_1
 10
-0.790251968503937
 20
0.9416496062992126
 30
0.0
  0
VERTEX
  5
A5
  8
LAYER_1
 10
-0.791267716535433
 20
0.9288740157480315
 30
0.0
  0
VERTEX
  5
A6
  8
LAYER_1
 10
-0.790251968503937
 20
0.916267716535433
 30
0.0
  0
VERTEX
  5
A7
  8
LAYER_1
 10
-0.7874133858267717
 20
0.9045236220472441
 30
0.0
  0
VERTEX
  5
A8
  8
LAYER_1
 10
-0.7830708661417323
 20
0.8938976377952756
 30
0.0
  0
VERTEX
  5
A9
  8
LAYER_1
 10
-0.7775472440944882
 20
0.8846417322834645
 30
0.0
  0
VERTEX
  5
AA
  8
LAYER_1
 10
-0.7711574803149607
 20
0.877003937007874
 30
0.0
  0
VERTEX
  5
AB
  8
LAYER_1
 10
-0.7642244094488189
 20
0.871236220472441
 30
0.0
  0
VERTEX
  5
AC
  8
LAYER_1
 10
-0.7570629921259843
 20
0.8675905511811024
 30
0.0
  0
VERTEX
  5
AD
  8
LAYER_1
 10
-0.749996062992126
 20
0.8663188976377952
 30
0.0
  0
SEQEND
  5
AE
  8
LAYER_1
  0
POLYLINE
  5
44
  8
LAYER_1
 66
     1
 10
0.0
 20
0.0
 30
0.0
 70
     1
  0
VERTEX
  5
AF
  8
LAYER_1
 10
-0.0685984251968504
 20
0.1469724409448819
 30
0.0
  0
VERTEX
  5
B0
  8
LAYER_1
 10
-0.0685984251968504
 20
0.0590748031496063
 30
0.0
  0
VERTEX
  5
B1
  8
LAYER_1
 10
-0.1317322834645669
 20
0.0590748031496063
 30
0.0
  0
VERTEX
  5
B2
  8
LAYER_1
 10
-0.1317322834645669
 20
-0.2359173228346457
 30
0.0
  0
VERTEX
  5
B3
  8
LAYER_1
 10
-0.1903228346456693
 20
-0.2359173228346457
 30
0.0
  0
VERTEX
  5
B4
  8
LAYER_1
 10
-0.1907007874015748
 20
-0.2359212598425197
 30
0.0
  0
VERTEX
  5
B5
  8
LAYER_1
 10
-0.1966456692913386
 20
-0.2353228346456693
 30
0.0
  0
VERTEX
  5
B6
  8
LAYER_1
 10
-0.2021850393700787
 20
-0.2336023622047244
 30
0.0
  0
VERTEX
  5
B7
  8
LAYER_1
 10
-0.2071929133858268
 20
-0.2308818897637795
 30
0.0
  0
VERTEX
  5
B8
  8
LAYER_1
 10
-0.2115590551181102
 20
-0.2272795275590551
 30
0.0
  0
VERTEX
  5
B9
  8
LAYER_1
 10
-0.2151614173228346
 20
-0.2229133858267716
 30
0.0
  0
VERTEX
  5
BA
  8
LAYER_1
 10
-0.2178818897637795
 20
-0.2179015748031496
 30
0.0
  0
VERTEX
  5
BB
  8
LAYER_1
 10
-0.2196023622047244
 20
-0.2123622047244094
 30
0.0
  0
VERTEX
  5
BC
  8
LAYER_1
 10
-0.2202007874015748
 20
-0.2064173228346457
 30
0.0
  0
VERTEX
  5
BD
  8
LAYER_1
 10
-0.2196023622047244
 20
-0.2004724409448819
 30
0.0
  0
VERTEX
  5
BE
  8
LAYER_1
 10
-0.2178818897637795
 20
-0.1949370078740157
 30
0.0
  0
VERTEX
  5
BF
  8
LAYER_1
 10
-0.2151614173228346
 20
-0.1899251968503937
 30
0.0
  0
VERTEX
  5
C0
  8
LAYER_1
 10
-0.2115590551181102
 20
-0.1855629921259843
 30
0.0
  0
VERTEX
  5
C1
  8
LAYER_1
 10
-0.2071929133858268
 20
-0.1819606299212598
 30
0.0
  0
VERTEX
  5
C2
  8
LAYER_1
 10
-0.2021850393700787
 20
-0.179240157480315
 30
0.0
  0
VERTEX
  5
C3
  8
LAYER_1
 10
-0.1966456692913386
 20
-0.1775196850393701
 30
0.0
  0
VERTEX
  5
C4
  8
LAYER_1
 10
-0.1907007874015748
 20
-0.1769212598425197
 30
0.0
  0
VERTEX
  5
C5
  8
LAYER_1
 10
-0.1906771653543307
 20
-0.1769212598425197
 30
0.0
  0
VERTEX
  5
C6
  8
LAYER_1
 10
-0.1906771653543307
 20
0.0590748031496063
 30
0.0
  0
VERTEX
  5
C7
  8
LAYER_1
 10
-0.3085866141732284
 20
0.0590748031496063
 30
0.0
  0
VERTEX
  5
C8
  8
LAYER_1
 10
-0.3085866141732284
 20
-0.1769212598425197
 30
0.0
  0
VERTEX
  5
C9
  8
LAYER_1
 10
-0.3026417322834646
 20
-0.1775196850393701
 30
0.0
  0
VERTEX
  5
CA
  8
LAYER_1
 10
-0.2971023622047244
 20
-0.179240157480315
 30
0.0
  0
VERTEX
  5
CB
  8
LAYER_1
 10
-0.2920905511811024
 20
-0.1819606299212598
 30
0.0
  0
VERTEX
  5
CC
  8
LAYER_1
 10
-0.2877244094488189
 20
-0.1855629921259843
 30
0.0
  0
VERTEX
  5
CD
  8
LAYER_1
 10
-0.2841220472440945
 20
-0.1899251968503937
 30
0.0
  0
VERTEX
  5
CE
  8
LAYER_1
 10
-0.2814015748031496
 20
-0.1949370078740157
 30
0.0
  0
VERTEX
  5
CF
  8
LAYER_1
 10
-0.2796811023622047
 20
-0.2004724409448819
 30
0.0
  0
VERTEX
  5
D0
  8
LAYER_1
 10
-0.2790826771653543
 20
-0.2064173228346457
 30
0.0
  0
VERTEX
  5
D1
  8
LAYER_1
 10
-0.2796811023622047
 20
-0.2123622047244094
 30
0.0
  0
VERTEX
  5
D2
  8
LAYER_1
 10
-0.2814015748031496
 20
-0.2179015748031496
 30
0.0
  0
VERTEX
  5
D3
  8
LAYER_1
 10
-0.2841220472440945
 20
-0.2229133858267716
 30
0.0
  0
VERTEX
  5
D4
  8
LAYER_1
 10
-0.2877244094488189
 20
-0.2272795275590551
 30
0.0
  0
VERTEX
  5
D5
  8
LAYER_1
 10
-0.2920905511811024
 20
-0.2308818897637795
 30
0.0
  0
VERTEX
  5
D6
  8
LAYER_1
 10
-0.2971023622047244
 20
-0.2336023622047244
 30
0.0
  0
VERTEX
  5
D7
  8
LAYER_1
 10
-0.3026417322834646
 20
-0.2353228346456693
 30
0.0
  0
VERTEX
  5
D8
  8
LAYER_1
 10
-0.3085866141732284
 20
-0.2359212598425197
 30
0.0
  0
VERTEX
  5
D9
  8
LAYER_1
 10
-0.3089685039370079
 20
-0.2359173228346457
 30
0.0
  0
VERTEX
  5
DA
  8
LAYER_1
 10
-0.3675354330708662
 20
-0.2359173228346457
 30
0.0
  0
VERTEX
  5
DB
  8
LAYER_1
 10
-0.3675354330708662
 20
0.0590748031496063
 30
0.0
  0
VERTEX
  5
DC
  8
LAYER_1
 10
-0.4306929133858268
 20
0.0590748031496063
 30
0.0
  0
VERTEX
  5
DD
  8
LAYER_1
 10
-0.4306929133858268
 20
0.1469724409448819
 30
0.0
  0
VERTEX
  5
DE
  8
LAYER_1
 10
-0.4270157480314961
 20
0.1601417322834646
 30
0.0
  0
VERTEX
  5
DF
  8
LAYER_1
 10
-0.4164645669291339
 20
0.1746023622047244
 30
0.0
  0
VERTEX
  5
E0
  8
LAYER_1
 10
-0.3997677165354331
 20
0.1894212598425197
 30
0.0
  0
VERTEX
  5
E1
  8
LAYER_1
 10
-0.3776574803149606
 20
0.2036535433070866
 30
0.0
  0
VERTEX
  5
E2
  8
LAYER_1
 10
-0.3508622047244094
 20
0.2163582677165354
 30
0.0
  0
VERTEX
  5
E3
  8
LAYER_1
 10
-0.3201102362204725
 20
0.2266023622047244
 30
0.0
  0
VERTEX
  5
E4
  8
LAYER_1
 10
-0.2861299212598425
 20
0.2334330708661417
 30
0.0
  0
VERTEX
  5
E5
  8
LAYER_1
 10
-0.2496456692913386
 20
0.2359212598425197
 30
0.0
  0
VERTEX
  5
E6
  8
LAYER_1
 10
-0.2131614173228346
 20
0.2334330708661417
 30
0.0
  0
VERTEX
  5
E7
  8
LAYER_1
 10
-0.1791811023622047
 20
0.2266023622047244
 30
0.0
  0
VERTEX
  5
E8
  8
LAYER_1
 10
-0.1484291338582677
 20
0.2163582677165354
 30
0.0
  0
VERTEX
  5
E9
  8
LAYER_1
 10
-0.1216338582677165
 20
0.2036535433070866
 30
0.0
  0
VERTEX
  5
EA
  8
LAYER_1
 10
-0.0995236220472441
 20
0.1894212598425197
 30
0.0
  0
VERTEX
  5
EB
  8
LAYER_1
 10
-0.0828267716535433
 20
0.1746023622047244
 30
0.0
  0
VERTEX
  5
EC
  8
LAYER_1
 10
-0.0722755905511811
 20
0.1601417322834646
 30
0.0
  0
VERTEX
  5
ED
  8
LAYER_1
 10
-0.0685984251968504
 20
0.1469724409448819
 30
0.0
  0
SEQEND
  5
EE
  8
LAYER_1
  0
POLYLINE
  5
45
  8
LAYER_1
 66
     1
 10
0.0
 20
0.0
 30
0.0
 70
     1
  0
VERTEX
  5
EF
  8
LAYER_1
 10
-0.3746456692913386
 20
0.1277755905511811
 30
0.0
  0
VERTEX
  5
F0
  8
LAYER_1
 10
-0.123992125984252
 20
0.1277755905511811
 30
0.0
  0
VERTEX
  5
F1
  8
LAYER_1
 10
-0.123992125984252
 20
0.1469724409448819
 30
0.0
  0
VERTEX
  5
F2
  8
LAYER_1
 10
-0.3746456692913386
 20
0.1469724409448819
 30
0.0
  0
VERTEX
  5
F3
  8
LAYER_1
 10
-0.3746456692913386
 20
0.1277755905511811
 30
0.0
  0
VERTEX
  5
F4
  8
LAYER_1
 10
-0.3746456692913386
 20
0.1277755905511811
 30
0.0
  0
SEQEND
  5
F5
  8
LAYER_1
  0
POLYLINE
  5
46
  8
LAYER_1
 66
     1
 10
0.0
 20
0.0
 30
0.0
 70
     1
  0
VERTEX
  5
F6
  8
LAYER_1
 10
0.9310472440944881
 20
0.1469724409448819
 30
0.0
  0
VERTEX
  5
F7
  8
LAYER_1
 10
0.9310472440944881
 20
0.0590748031496063
 30
0.0
  0
VERTEX
  5
F8
  8
LAYER_1
 10
0.8679094488188976
 20
0.0590748031496063
 30
0.0
  0
VERTEX
  5
F9
  8
LAYER_1
 10
0.8679094488188976
 20
-0.2359173228346457
 30
0.0
  0
VERTEX
  5
FA
  8
LAYER_1
 10
0.8093228346456693
 20
-0.2359173228346457
 30
0.0
  0
VERTEX
  5
FB
  8
LAYER_1
 10
0.8089409448818897
 20
-0.2359212598425197
 30
0.0
  0
VERTEX
  5
FC
  8
LAYER_1
 10
0.802996062992126
 20
-0.2353228346456693
 30
0.0
  0
VERTEX
  5
FD
  8
LAYER_1
 10
0.7974606299212599
 20
-0.2336023622047244
 30
0.0
  0
VERTEX
  5
FE
  8
LAYER_1
 10
0.7924488188976377
 20
-0.2308818897637795
 30
0.0
  0
VERTEX
  5
FF
  8
LAYER_1
 10
0.7880866141732283
 20
-0.2272795275590551
 30
0.0
  0
VERTEX
  5
100
  8
LAYER_1
 10
0.7844842519685039
 20
-0.2229133858267716
 30
0.0
  0
VERTEX
  5
101
  8
LAYER_1
 10
0.781763779527559
 20
-0.2179015748031496
 30
0.0
  0
VERTEX
  5
102
  8
LAYER_1
 10
0.7800433070866142
 20
-0.2123622047244094
 30
0.0
  0
VERTEX
  5
103
  8
LAYER_1
 10
0.7794448818897638
 20
-0.2064173228346457
 30
0.0
  0
VERTEX
  5
104
  8
LAYER_1
 10
0.7800433070866142
 20
-0.2004724409448819
 30
0.0
  0
VERTEX
  5
105
  8
LAYER_1
 10
0.781763779527559
 20
-0.1949370078740157
 30
0.0
  0
VERTEX
  5
106
  8
LAYER_1
 10
0.7844842519685039
 20
-0.1899251968503937
 30
0.0
  0
VERTEX
  5
107
  8
LAYER_1
 10
0.7880866141732283
 20
-0.1855629921259843
 30
0.0
  0
VERTEX
  5
108
  8
LAYER_1
 10
0.7924488188976377
 20
-0.1819606299212598
 30
0.0
  0
VERTEX
  5
109
  8
LAYER_1
 10
0.7974606299212599
 20
-0.179240157480315
 30
0.0
  0
VERTEX
  5
10A
  8
LAYER_1
 10
0.802996062992126
 20
-0.1775196850393701
 30
0.0
  0
VERTEX
  5
10B
  8
LAYER_1
 10
0.8089409448818897
 20
-0.1769212598425197
 30
0.0
  0
VERTEX
  5
10C
  8
LAYER_1
 10
0.8089645669291339
 20
-0.1769212598425197
 30
0.0
  0
VERTEX
  5
10D
  8
LAYER_1
 10
0.8089645669291339
 20
0.0590748031496063
 30
0.0
  0
VERTEX
  5
10E
  8
LAYER_1
 10
0.6910551181102362
 20
0.0590748031496063
 30
0.0
  0
VERTEX
  5
10F
  8
LAYER_1
 10
0.6910551181102362
 20
-0.1769212598425197
 30
0.0
  0
VERTEX
  5
110
  8
LAYER_1
 10
0.697
 20
-0.1775196850393701
 30
0.0
  0
VERTEX
  5
111
  8
LAYER_1
 10
0.7025393700787401
 20
-0.179240157480315
 30
0.0
  0
VERTEX
  5
112
  8
LAYER_1
 10
0.7075511811023623
 20
-0.1819606299212598
 30
0.0
  0
VERTEX
  5
113
  8
LAYER_1
 10
0.7119173228346457
 20
-0.1855629921259843
 30
0.0
  0
VERTEX
  5
114
  8
LAYER_1
 10
0.71551968503937
 20
-0.1899251968503937
 30
0.0
  0
VERTEX
  5
115
  8
LAYER_1
 10
0.718240157480315
 20
-0.1949370078740157
 30
0.0
  0
VERTEX
  5
116
  8
LAYER_1
 10
0.7199606299212599
 20
-0.2004724409448819
 30
0.0
  0
VERTEX
  5
117
  8
LAYER_1
 10
0.7205590551181102
 20
-0.2064173228346457
 30
0.0
  0
VERTEX
  5
118
  8
LAYER_1
 10
0.7199606299212599
 20
-0.2123622047244094
 30
0.0
  0
VERTEX
  5
119
  8
LAYER_1
 10
0.718240157480315
 20
-0.2179015748031496
 30
0.0
  0
VERTEX
  5
11A
  8
LAYER_1
 10
0.71551968503937
 20
-0.2229133858267716
 30
0.0
  0
VERTEX
  5
11B
  8
LAYER_1
 10
0.7119173228346457
 20
-0.2272795275590551
 30
0.0
  0
VERTEX
  5
11C
  8
LAYER_1
 10
0.7075511811023623
 20
-0.2308818897637795
 30
0.0
  0
VERTEX
  5
11D
  8
LAYER_1
 10
0.7025393700787401
 20
-0.2336023622047244
 30
0.0
  0
VERTEX
  5
11E
  8
LAYER_1
 10
0.697
 20
-0.2353228346456693
 30
0.0
  0
VERTEX
  5
11F
  8
LAYER_1
 10
0.6910551181102362
 20
-0.2359212598425197
 30
0.0
  0
VERTEX
  5
120
  8
LAYER_1
 10
0.6906771653543307
 20
-0.2359173228346457
 30
0.0
  0
VERTEX
  5
121
  8
LAYER_1
 10
0.6321102362204725
 20
-0.2359173228346457
 30
0.0
  0
VERTEX
  5
122
  8
LAYER_1
 10
0.6321102362204725
 20
0.0590748031496063
 30
0.0
  0
VERTEX
  5
123
  8
LAYER_1
 10
0.5689527559055119
 20
0.0590748031496063
 30
0.0
  0
VERTEX
  5
124
  8
LAYER_1
 10
0.5689527559055119
 20
0.1469724409448819
 30
0.0
  0
VERTEX
  5
125
  8
LAYER_1
 10
0.5726299212598425
 20
0.1601417322834646
 30
0.0
  0
VERTEX
  5
126
  8
LAYER_1
 10
0.5831811023622048
 20
0.1746023622047244
 30
0.0
  0
VERTEX
  5
127
  8
LAYER_1
 10
0.5998779527559055
 20
0.1894212598425197
 30
0.0
  0
VERTEX
  5
128
  8
LAYER_1
 10
0.621988188976378
 20
0.2036535433070866
 30
0.0
  0
VERTEX
  5
129
  8
LAYER_1
 10
0.6487834645669291
 20
0.2163582677165354
 30
0.0
  0
VERTEX
  5
12A
  8
LAYER_1
 10
0.6795354330708662
 20
0.2266023622047244
 30
0.0
  0
VERTEX
  5
12B
  8
LAYER_1
 10
0.7135157480314961
 20
0.2334330708661417
 30
0.0
  0
VERTEX
  5
12C
  8
LAYER_1
 10
0.75
 20
0.2359212598425197
 30
0.0
  0
VERTEX
  5
12D
  8
LAYER_1
 10
0.7864842519685039
 20
0.2334330708661417
 30
0.0
  0
VERTEX
  5
12E
  8
LAYER_1
 10
0.8204645669291338
 20
0.2266023622047244
 30
0.0
  0
VERTEX
  5
12F
  8
LAYER_1
 10
0.8512165354330709
 20
0.2163582677165354
 30
0.0
  0
VERTEX
  5
130
  8
LAYER_1
 10
0.878011811023622
 20
0.2036535433070866
 30
0.0
  0
VERTEX
  5
131
  8
LAYER_1
 10
0.9001220472440945
 20
0.1894212598425197
 30
0.0
  0
VERTEX
  5
132
  8
LAYER_1
 10
0.9168188976377952
 20
0.1746023622047244
 30
0.0
  0
VERTEX
  5
133
  8
LAYER_1
 10
0.9273700787401575
 20
0.1601417322834646
 30
0.0
  0
VERTEX
  5
134
  8
LAYER_1
 10
0.9310472440944881
 20
0.1469724409448819
 30
0.0
  0
SEQEND
  5
135
  8
LAYER_1
  0
POLYLINE
  5
47
  8
LAYER_1
 66
     1
 10
0.0
 20
0.0
 30
0.0
 70
     1
  0
VERTEX
  5
136
  8
LAYER_1
 10
0.625
 20
0.1277755905511811
 30
0.0
  0
VERTEX
  5
137
  8
LAYER_1
 10
0.8756535433070867
 20
0.1277755905511811
 30
0.0
  0
VERTEX
  5
138
  8
LAYER_1
 10
0.8756535433070867
 20
0.1469724409448819
 30
0.0
  0
VERTEX
  5
139
  8
LAYER_1
 10
0.625
 20
0.1469724409448819
 30
0.0
  0
VERTEX
  5
13A
  8
LAYER_1
 10
0.625
 20
0.1277755905511811
 30
0.0
  0
VERTEX
  5
13B
  8
LAYER_1
 10
0.625
 20
0.1277755905511811
 30
0.0
  0
SEQEND
  5
13C
  8
LAYER_1
  0
POLYLINE
  5
48
  8
LAYER_1
 66
     1
 10
0.0
 20
0.0
 30
0.0
 70
     1
  0
VERTEX
  5
13D
  8
LAYER_1
 10
0.4310472440944882
 20
0.1469724409448819
 30
0.0
  0
VERTEX
  5
13E
  8
LAYER_1
 10
0.4310472440944882
 20
0.0590748031496063
 30
0.0
  0
VERTEX
  5
13F
  8
LAYER_1
 10
0.3679055118110236
 20
0.0590748031496063
 30
0.0
  0
VERTEX
  5
140
  8
LAYER_1
 10
0.3679055118110236
 20
-0.2359173228346457
 30
0.0
  0
VERTEX
  5
141
  8
LAYER_1
 10
0.3093228346456693
 20
-0.2359173228346457
 30
0.0
  0
VERTEX
  5
142
  8
LAYER_1
 10
0.3089409448818898
 20
-0.2359212598425197
 30
0.0
  0
VERTEX
  5
143
  8
LAYER_1
 10
0.302996062992126
 20
-0.2353228346456693
 30
0.0
  0
VERTEX
  5
144
  8
LAYER_1
 10
0.2974606299212598
 20
-0.2336023622047244
 30
0.0
  0
VERTEX
  5
145
  8
LAYER_1
 10
0.2924488188976378
 20
-0.2308818897637795
 30
0.0
  0
VERTEX
  5
146
  8
LAYER_1
 10
0.2880866141732283
 20
-0.2272795275590551
 30
0.0
  0
VERTEX
  5
147
  8
LAYER_1
 10
0.2844842519685039
 20
-0.2229133858267716
 30
0.0
  0
VERTEX
  5
148
  8
LAYER_1
 10
0.281763779527559
 20
-0.2179015748031496
 30
0.0
  0
VERTEX
  5
149
  8
LAYER_1
 10
0.2800433070866142
 20
-0.2123622047244094
 30
0.0
  0
VERTEX
  5
14A
  8
LAYER_1
 10
0.2794448818897638
 20
-0.2064173228346457
 30
0.0
  0
VERTEX
  5
14B
  8
LAYER_1
 10
0.2800433070866142
 20
-0.2004724409448819
 30
0.0
  0
VERTEX
  5
14C
  8
LAYER_1
 10
0.281763779527559
 20
-0.1949370078740157
 30
0.0
  0
VERTEX
  5
14D
  8
LAYER_1
 10
0.2844842519685039
 20
-0.1899251968503937
 30
0.0
  0
VERTEX
  5
14E
  8
LAYER_1
 10
0.2880866141732283
 20
-0.1855629921259843
 30
0.0
  0
VERTEX
  5
14F
  8
LAYER_1
 10
0.2924488188976378
 20
-0.1819606299212598
 30
0.0
  0
VERTEX
  5
150
  8
LAYER_1
 10
0.2974606299212598
 20
-0.179240157480315
 30
0.0
  0
VERTEX
  5
151
  8
LAYER_1
 10
0.302996062992126
 20
-0.1775196850393701
 30
0.0
  0
VERTEX
  5
152
  8
LAYER_1
 10
0.3089409448818898
 20
-0.1769212598425197
 30
0.0
  0
VERTEX
  5
153
  8
LAYER_1
 10
0.3089645669291339
 20
-0.1769212598425197
 30
0.0
  0
VERTEX
  5
154
  8
LAYER_1
 10
0.3089645669291339
 20
0.0590748031496063
 30
0.0
  0
VERTEX
  5
155
  8
LAYER_1
 10
0.1910511811023622
 20
0.0590748031496063
 30
0.0
  0
VERTEX
  5
156
  8
LAYER_1
 10
0.1910511811023622
 20
-0.1769212598425197
 30
0.0
  0
VERTEX
  5
157
  8
LAYER_1
 10
0.197
 20
-0.1775196850393701
 30
0.0
  0
VERTEX
  5
158
  8
LAYER_1
 10
0.2025393700787401
 20
-0.179240157480315
 30
0.0
  0
VERTEX
  5
159
  8
LAYER_1
 10
0.2075472440944882
 20
-0.1819606299212598
 30
0.0
  0
VERTEX
  5
15A
  8
LAYER_1
 10
0.2119173228346457
 20
-0.1855629921259843
 30
0.0
  0
VERTEX
  5
15B
  8
LAYER_1
 10
0.2155157480314961
 20
-0.1899251968503937
 30
0.0
  0
VERTEX
  5
15C
  8
LAYER_1
 10
0.218236220472441
 20
-0.1949370078740157
 30
0.0
  0
VERTEX
  5
15D
  8
LAYER_1
 10
0.2199566929133858
 20
-0.2004724409448819
 30
0.0
  0
VERTEX
  5
15E
  8
LAYER_1
 10
0.2205551181102362
 20
-0.2064173228346457
 30
0.0
  0
VERTEX
  5
15F
  8
LAYER_1
 10
0.2199566929133858
 20
-0.2123622047244094
 30
0.0
  0
VERTEX
  5
160
  8
LAYER_1
 10
0.218236220472441
 20
-0.2179015748031496
 30
0.0
  0
VERTEX
  5
161
  8
LAYER_1
 10
0.2155157480314961
 20
-0.2229133858267716
 30
0.0
  0
VERTEX
  5
162
  8
LAYER_1
 10
0.2119173228346457
 20
-0.2272795275590551
 30
0.0
  0
VERTEX
  5
163
  8
LAYER_1
 10
0.2075472440944882
 20
-0.2308818897637795
 30
0.0
  0
VERTEX
  5
164
  8
LAYER_1
 10
0.2025393700787401
 20
-0.2336023622047244
 30
0.0
  0
VERTEX
  5
165
  8
LAYER_1
 10
0.197
 20
-0.2353228346456693
 30
0.0
  0
VERTEX
  5
166
  8
LAYER_1
 10
0.1910511811023622
 20
-0.2359212598425197
 30
0.0
  0
VERTEX
  5
167
  8
LAYER_1
 10
0.1906771653543307
 20
-0.2359173228346457
 30
0.0
  0
VERTEX
  5
168
  8
LAYER_1
 10
0.1321062992125984
 20
-0.2359173228346457
 30
0.0
  0
VERTEX
  5
169
  8
LAYER_1
 10
0.1321062992125984
 20
0.0590748031496063
 30
0.0
  0
VERTEX
  5
16A
  8
LAYER_1
 10
0.0689488188976378
 20
0.0590748031496063
 30
0.0
  0
VERTEX
  5
16B
  8
LAYER_1
 10
0.0689488188976378
 20
0.1469724409448819
 30
0.0
  0
VERTEX
  5
16C
  8
LAYER_1
 10
0.0726259842519685
 20
0.1601417322834646
 30
0.0
  0
VERTEX
  5
16D
  8
LAYER_1
 10
0.0831811023622047
 20
0.1746023622047244
 30
0.0
  0
VERTEX
  5
16E
  8
LAYER_1
 10
0.0998740157480315
 20
0.1894212598425197
 30
0.0
  0
VERTEX
  5
16F
  8
LAYER_1
 10
0.1219842519685039
 20
0.2036535433070866
 30
0.0
  0
VERTEX
  5
170
  8
LAYER_1
 10
0.1487795275590551
 20
0.2163582677165354
 30
0.0
  0
VERTEX
  5
171
  8
LAYER_1
 10
0.1795354330708661
 20
0.2266023622047244
 30
0.0
  0
VERTEX
  5
172
  8
LAYER_1
 10
0.2135157480314961
 20
0.2334330708661417
 30
0.0
  0
VERTEX
  5
173
  8
LAYER_1
 10
0.25
 20
0.2359212598425197
 30
0.0
  0
VERTEX
  5
174
  8
LAYER_1
 10
0.2864842519685039
 20
0.2334330708661417
 30
0.0
  0
VERTEX
  5
175
  8
LAYER_1
 10
0.3204645669291338
 20
0.2266023622047244
 30
0.0
  0
VERTEX
  5
176
  8
LAYER_1
 10
0.3512165354330709
 20
0.2163582677165354
 30
0.0
  0
VERTEX
  5
177
  8
LAYER_1
 10
0.378011811023622
 20
0.2036535433070866
 30
0.0
  0
VERTEX
  5
178
  8
LAYER_1
 10
0.4001220472440945
 20
0.1894212598425197
 30
0.0
  0
VERTEX
  5
179
  8
LAYER_1
 10
0.4168188976377953
 20
0.1746023622047244
 30
0.0
  0
VERTEX
  5
17A
  8
LAYER_1
 10
0.4273700787401575
 20
0.1601417322834646
 30
0.0
  0
VERTEX
  5
17B
  8
LAYER_1
 10
0.4310472440944882
 20
0.1469724409448819
 30
0.0
  0
SEQEND
  5
17C
  8
LAYER_1
  0
POLYLINE
  5
49
  8
LAYER_1
 66
     1
 10
0.0
 20
0.0
 30
0.0
 70
     1
  0
VERTEX
  5
17D
  8
LAYER_1
 10
0.125
 20
0.1277755905511811
 30
0.0
  0
VERTEX
  5
17E
  8
LAYER_1
 10
0.3756535433070866
 20
0.1277755905511811
 30
0.0
  0
VERTEX
  5
17F
  8
LAYER_1
 10
0.3756535433070866
 20
0.1469724409448819
 30
0.0
  0
VERTEX
  5
180
  8
LAYER_1
 10
0.125
 20
0.1469724409448819
 30
0.0
  0
VERTEX
  5
181
  8
LAYER_1
 10
0.125
 20
0.1277755905511811
 30
0.0
  0
VERTEX
  5
182
  8
LAYER_1
 10
0.125
 20
0.1277755905511811
 30
0.0
  0
SEQEND
  5
183
  8
LAYER_1
  0
POLYLINE
  5
4A
  8
LAYER_1
 66
     1
 10
0.0
 20
0.0
 30
0.0
 70
     1
  0
VERTEX
  5
184
  8
LAYER_1
 10
-0.5689527559055119
 20
0.1469724409448819
 30
0.0
  0
VERTEX
  5
185
  8
LAYER_1
 10
-0.5689527559055119
 20
0.0590748031496063
 30
0.0
  0
VERTEX
  5
186
  8
LAYER_1
 10
-0.6320905511811024
 20
0.0590748031496063
 30
0.0
  0
VERTEX
  5
187
  8
LAYER_1
 10
-0.6320905511811024
 20
-0.2359173228346457
 30
0.0
  0
VERTEX
  5
188
  8
LAYER_1
 10
-0.6906771653543307
 20
-0.2359173228346457
 30
0.0
  0
VERTEX
  5
189
  8
LAYER_1
 10
-0.6910590551181103
 20
-0.2359212598425197
 30
0.0
  0
VERTEX
  5
18A
  8
LAYER_1
 10
-0.697003937007874
 20
-0.2353228346456693
 30
0.0
  0
VERTEX
  5
18B
  8
LAYER_1
 10
-0.7025393700787401
 20
-0.2336023622047244
 30
0.0
  0
VERTEX
  5
18C
  8
LAYER_1
 10
-0.7075511811023623
 20
-0.2308818897637795
 30
0.0
  0
VERTEX
  5
18D
  8
LAYER_1
 10
-0.7119133858267717
 20
-0.2272795275590551
 30
0.0
  0
VERTEX
  5
18E
  8
LAYER_1
 10
-0.7155157480314961
 20
-0.2229133858267716
 30
0.0
  0
VERTEX
  5
18F
  8
LAYER_1
 10
-0.718236220472441
 20
-0.2179015748031496
 30
0.0
  0
VERTEX
  5
190
  8
LAYER_1
 10
-0.7199566929133858
 20
-0.2123622047244094
 30
0.0
  0
VERTEX
  5
191
  8
LAYER_1
 10
-0.7205551181102362
 20
-0.2064173228346457
 30
0.0
  0
VERTEX
  5
192
  8
LAYER_1
 10
-0.7199566929133858
 20
-0.2004724409448819
 30
0.0
  0
VERTEX
  5
193
  8
LAYER_1
 10
-0.718236220472441
 20
-0.1949370078740157
 30
0.0
  0
VERTEX
  5
194
  8
LAYER_1
 10
-0.7155157480314961
 20
-0.1899251968503937
 30
0.0
  0
VERTEX
  5
195
  8
LAYER_1
 10
-0.7119133858267717
 20
-0.1855629921259843
 30
0.0
  0
VERTEX
  5
196
  8
LAYER_1
 10
-0.7075511811023623
 20
-0.1819606299212598
 30
0.0
  0
VERTEX
  5
197
  8
LAYER_1
 10
-0.7025393700787401
 20
-0.179240157480315
 30
0.0
  0
VERTEX
  5
198
  8
LAYER_1
 10
-0.697003937007874
 20
-0.1775196850393701
 30
0.0
  0
VERTEX
  5
199
  8
LAYER_1
 10
-0.6910590551181103
 20
-0.1769212598425197
 30
0.0
  0
VERTEX
  5
19A
  8
LAYER_1
 10
-0.6910354330708661
 20
-0.1769212598425197
 30
0.0
  0
VERTEX
  5
19B
  8
LAYER_1
 10
-0.6910354330708661
 20
0.0590748031496063
 30
0.0
  0
VERTEX
  5
19C
  8
LAYER_1
 10
-0.8089448818897638
 20
0.0590748031496063
 30
0.0
  0
VERTEX
  5
19D
  8
LAYER_1
 10
-0.8089448818897638
 20
-0.1769212598425197
 30
0.0
  0
VERTEX
  5
19E
  8
LAYER_1
 10
-0.803
 20
-0.1775196850393701
 30
0.0
  0
VERTEX
  5
19F
  8
LAYER_1
 10
-0.7974606299212599
 20
-0.179240157480315
 30
0.0
  0
VERTEX
  5
1A0
  8
LAYER_1
 10
-0.7924488188976377
 20
-0.1819606299212598
 30
0.0
  0
VERTEX
  5
1A1
  8
LAYER_1
 10
-0.7880826771653543
 20
-0.1855629921259843
 30
0.0
  0
VERTEX
  5
1A2
  8
LAYER_1
 10
-0.78448031496063
 20
-0.1899251968503937
 30
0.0
  0
VERTEX
  5
1A3
  8
LAYER_1
 10
-0.781759842519685
 20
-0.1949370078740157
 30
0.0
  0
VERTEX
  5
1A4
  8
LAYER_1
 10
-0.7800393700787401
 20
-0.2004724409448819
 30
0.0
  0
VERTEX
  5
1A5
  8
LAYER_1
 10
-0.7794409448818898
 20
-0.2064173228346457
 30
0.0
  0
VERTEX
  5
1A6
  8
LAYER_1
 10
-0.7800393700787401
 20
-0.2123622047244094
 30
0.0
  0
VERTEX
  5
1A7
  8
LAYER_1
 10
-0.781759842519685
 20
-0.2179015748031496
 30
0.0
  0
VERTEX
  5
1A8
  8
LAYER_1
 10
-0.78448031496063
 20
-0.2229133858267716
 30
0.0
  0
VERTEX
  5
1A9
  8
LAYER_1
 10
-0.7880826771653543
 20
-0.2272795275590551
 30
0.0
  0
VERTEX
  5
1AA
  8
LAYER_1
 10
-0.7924488188976377
 20
-0.2308818897637795
 30
0.0
  0
VERTEX
  5
1AB
  8
LAYER_1
 10
-0.7974606299212599
 20
-0.2336023622047244
 30
0.0
  0
VERTEX
  5
1AC
  8
LAYER_1
 10
-0.803
 20
-0.2353228346456693
 30
0.0
  0
VERTEX
  5
1AD
  8
LAYER_1
 10
-0.8089448818897638
 20
-0.2359212598425197
 30
0.0
  0
VERTEX
  5
1AE
  8
LAYER_1
 10
-0.8093228346456693
 20
-0.2359173228346457
 30
0.0
  0
VERTEX
  5
1AF
  8
LAYER_1
 10
-0.8678897637795275
 20
-0.2359173228346457
 30
0.0
  0
VERTEX
  5
1B0
  8
LAYER_1
 10
-0.8678897637795275
 20
0.0590748031496063
 30
0.0
  0
VERTEX
  5
1B1
  8
LAYER_1
 10
-0.9310472440944881
 20
0.0590748031496063
 30
0.0
  0
VERTEX
  5
1B2
  8
LAYER_1
 10
-0.9310472440944881
 20
0.1469724409448819
 30
0.0
  0
VERTEX
  5
1B3
  8
LAYER_1
 10
-0.9273700787401575
 20
0.1601417322834646
 30
0.0
  0
VERTEX
  5
1B4
  8
LAYER_1
 10
-0.9168188976377952
 20
0.1746023622047244
 30
0.0
  0
VERTEX
  5
1B5
  8
LAYER_1
 10
-0.9001220472440945
 20
0.1894212598425197
 30
0.0
  0
VERTEX
  5
1B6
  8
LAYER_1
 10
-0.878011811023622
 20
0.2036535433070866
 30
0.0
  0
VERTEX
  5
1B7
  8
LAYER_1
 10
-0.8512165354330709
 20
0.2163582677165354
 30
0.0
  0
VERTEX
  5
1B8
  8
LAYER_1
 10
-0.8204645669291338
 20
0.2266023622047244
 30
0.0
  0
VERTEX
  5
1B9
  8
LAYER_1
 10
-0.7864842519685039
 20
0.2334330708661417
 30
0.0
  0
VERTEX
  5
1BA
  8
LAYER_1
 10
-0.75
 20
0.2359212598425197
 30
0.0
  0
VERTEX
  5
1BB
  8
LAYER_1
 10
-0.7135157480314961
 20
0.2334330708661417
 30
0.0
  0
VERTEX
  5
1BC
  8
LAYER_1
 10
-0.6795354330708662
 20
0.2266023622047244
 30
0.0
  0
VERTEX
  5
1BD
  8
LAYER_1
 10
-0.6487834645669291
 20
0.2163582677165354
 30
0.0
  0
VERTEX
  5
1BE
  8
LAYER_1
 10
-0.621988188976378
 20
0.2036535433070866
 30
0.0
  0
VERTEX
  5
1BF
  8
LAYER_1
 10
-0.5998779527559055
 20
0.1894212598425197
 30
0.0
  0
VERTEX
  5
1C0
  8
LAYER_1
 10
-0.5831811023622048
 20
0.1746023622047244
 30
0.0
  0
VERTEX
  5
1C1
  8
LAYER_1
 10
-0.5726299212598425
 20
0.1601417322834646
 30
0.0
  0
VERTEX
  5
1C2
  8
LAYER_1
 10
-0.5689527559055119
 20
0.1469724409448819
 30
0.0
  0
SEQEND
  5
1C3
  8
LAYER_1
  0
POLYLINE
  5
4B
  8
LAYER_1
 66
     1
 10
0.0
 20
0.0
 30
0.0
 70
     1
  0
VERTEX
  5
1C4
  8
LAYER_1
 10
-0.875
 20
0.1277755905511811
 30
0.0
  0
VERTEX
  5
1C5
  8
LAYER_1
 10
-0.6243464566929133
 20
0.1277755905511811
 30
0.0
  0
VERTEX
  5
1C6
  8
LAYER_1
 10
-0.6243464566929133
 20
0.1469724409448819
 30
0.0
  0
VERTEX
  5
1C7
  8
LAYER_1
 10
-0.875
 20
0.1469724409448819
 30
0.0
  0
VERTEX
  5
1C8
  8
LAYER_1
 10
-0.875
 20
0.1277755905511811
 30
0.0
  0
VERTEX
  5
1C9
  8
LAYER_1
 10
-0.875
 20
0.1277755905511811
 30
0.0
  0
SEQEND
  5
1CA
  8
LAYER_1
  0
POLYLINE
  5
4C
  8
LAYER_1
 66
     1
 10
0.0
 20
0.0
 30
0.0
  0
VERTEX
  5
1CB
  8
LAYER_1
 10
-0.3743188976377953
 20
0.7079055118110236
 30
0.0
  0
VERTEX
  5
1CC
  8
LAYER_1
 10
-0.3743188976377953
 20
0.4459055118110236
 30
0.0
  0
VERTEX
  5
1CD
  8
LAYER_1
 10
-0.4116062992125984
 20
0.4455236220472441
 30
0.0
  0
VERTEX
  5
1CE
  8
LAYER_1
 10
-0.3643188976377953
 20
0.3422992125984252
 30
0.0
  0
VERTEX
  5
1CF
  8
LAYER_1
 10
-0.3015826771653543
 20
0.3422992125984252
 30
0.0
  0
VERTEX
  5
1D0
  8
LAYER_1
 10
-0.3015826771653543
 20
0.7079055118110236
 30
0.0
  0
VERTEX
  5
1D1
  8
LAYER_1
 10
-0.1991653543307087
 20
0.7079055118110236
 30
0.0
  0
VERTEX
  5
1D2
  8
LAYER_1
 10
-0.1991653543307087
 20
0.3422992125984252
 30
0.0
  0
VERTEX
  5
1D3
  8
LAYER_1
 10
-0.1343188976377953
 20
0.3422992125984252
 30
0.0
  0
VERTEX
  5
1D4
  8
LAYER_1
 10
-0.0870275590551181
 20
0.4455236220472441
 30
0.0
  0
VERTEX
  5
1D5
  8
LAYER_1
 10
-0.1243188976377953
 20
0.4459055118110236
 30
0.0
  0
VERTEX
  5
1D6
  8
LAYER_1
 10
-0.1243188976377953
 20
0.7079055118110236
 30
0.0
  0
SEQEND
  5
1D7
  8
LAYER_1
  0
POLYLINE
  5
4D
  8
LAYER_1
 66
     1
 10
0.0
 20
0.0
 30
0.0
  0
VERTEX
  5
1D8
  8
LAYER_1
 10
-0.1243188976377953
 20
0.5580944881889763
 30
0.0
  0
VERTEX
  5
1D9
  8
LAYER_1
 10
-0.0618188976377953
 20
0.5580944881889763
 30
0.0
  0
VERTEX
  5
1DA
  8
LAYER_1
 10
-0.0618188976377953
 20
0.8219015748031496
 30
0.0
  0
VERTEX
  5
1DB
  8
LAYER_1
 10
-0.2116614173228346
 20
0.8219015748031496
 30
0.0
  0
VERTEX
  5
1DC
  8
LAYER_1
 10
-0.2118031496062992
 20
0.8504055118110236
 30
0.0
  0
VERTEX
  5
1DD
  8
LAYER_1
 10
-0.201759842519685
 20
0.8642637795275591
 30
0.0
  0
VERTEX
  5
1DE
  8
LAYER_1
 10
-0.1915433070866142
 20
0.8811023622047244
 30
0.0
  0
VERTEX
  5
1DF
  8
LAYER_1
 10
-0.1871377952755905
 20
0.8910433070866142
 30
0.0
  0
VERTEX
  5
1E0
  8
LAYER_1
 10
-0.1836102362204724
 20
0.9022086614173228
 30
0.0
  0
VERTEX
  5
1E1
  8
LAYER_1
 10
-0.1812716535433071
 20
0.9147677165354331
 30
0.0
  0
VERTEX
  5
1E2
  8
LAYER_1
 10
-0.1804212598425197
 20
0.9288740157480315
 30
0.0
  0
VERTEX
  5
1E3
  8
LAYER_1
 10
-0.1820787401574803
 20
0.9443070866141732
 30
0.0
  0
VERTEX
  5
1E4
  8
LAYER_1
 10
-0.1867204724409449
 20
0.9602204724409449
 30
0.0
  0
VERTEX
  5
1E5
  8
LAYER_1
 10
-0.1938464566929134
 20
0.9758307086614173
 30
0.0
  0
VERTEX
  5
1E6
  8
LAYER_1
 10
-0.2029606299212598
 20
0.9903543307086614
 30
0.0
  0
VERTEX
  5
1E7
  8
LAYER_1
 10
-0.2135629921259843
 20
1.003007874015748
 30
0.0
  0
VERTEX
  5
1E8
  8
LAYER_1
 10
-0.2251535433070866
 20
1.013015748031496
 30
0.0
  0
VERTEX
  5
1E9
  8
LAYER_1
 10
-0.2372362204724409
 20
1.019594488188976
 30
0.0
  0
VERTEX
  5
1EA
  8
LAYER_1
 10
-0.2493149606299213
 20
1.02196062992126
 30
0.0
  0
VERTEX
  5
1EB
  8
LAYER_1
 10
-0.2613937007874016
 20
1.019594488188976
 30
0.0
  0
VERTEX
  5
1EC
  8
LAYER_1
 10
-0.2734763779527559
 20
1.013015748031496
 30
0.0
  0
VERTEX
  5
1ED
  8
LAYER_1
 10
-0.2850669291338583
 20
1.003007874015748
 30
0.0
  0
VERTEX
  5
1EE
  8
LAYER_1
 10
-0.2956692913385827
 20
0.9903543307086614
 30
0.0
  0
VERTEX
  5
1EF
  8
LAYER_1
 10
-0.3047834645669291
 20
0.9758307086614173
 30
0.0
  0
VERTEX
  5
1F0
  8
LAYER_1
 10
-0.3119094488188976
 20
0.9602204724409449
 30
0.0
  0
VERTEX
  5
1F1
  8
LAYER_1
 10
-0.3165511811023622
 20
0.9443070866141732
 30
0.0
  0
VERTEX
  5
1F2
  8
LAYER_1
 10
-0.3182086614173228
 20
0.9288740157480315
 30
0.0
  0
VERTEX
  5
1F3
  8
LAYER_1
 10
-0.3173582677165354
 20
0.9147677165354331
 30
0.0
  0
VERTEX
  5
1F4
  8
LAYER_1
 10
-0.3150196850393701
 20
0.9022086614173228
 30
0.0
  0
VERTEX
  5
1F5
  8
LAYER_1
 10
-0.311492125984252
 20
0.8910433070866142
 30
0.0
  0
VERTEX
  5
1F6
  8
LAYER_1
 10
-0.3070866141732284
 20
0.8811023622047244
 30
0.0
  0
VERTEX
  5
1F7
  8
LAYER_1
 10
-0.2968700787401575
 20
0.8642637795275591
 30
0.0
  0
VERTEX
  5
1F8
  8
LAYER_1
 10
-0.2868267716535433
 20
0.8504055118110236
 30
0.0
  0
VERTEX
  5
1F9
  8
LAYER_1
 10
-0.2869685039370079
 20
0.8219015748031496
 30
0.0
  0
VERTEX
  5
1FA
  8
LAYER_1
 10
-0.4368188976377953
 20
0.8219724409448819
 30
0.0
  0
VERTEX
  5
1FB
  8
LAYER_1
 10
-0.4368188976377953
 20
0.5579173228346457
 30
0.0
  0
VERTEX
  5
1FC
  8
LAYER_1
 10
-0.3743188976377953
 20
0.5579055118110237
 30
0.0
  0
SEQEND
  5
1FD
  8
LAYER_1
  0
POLYLINE
  5
4E
  8
LAYER_1
 66
     1
 10
0.0
 20
0.0
 30
0.0
 70
     1
  0
VERTEX
  5
1FE
  8
LAYER_1
 10
-0.2493149606299213
 20
0.8663188976377952
 30
0.0
  0
VERTEX
  5
1FF
  8
LAYER_1
 10
-0.242248031496063
 20
0.8675905511811024
 30
0.0
  0
VERTEX
  5
200
  8
LAYER_1
 10
-0.2350866141732283
 20
0.871236220472441
 30
0.0
  0
VERTEX
  5
201
  8
LAYER_1
 10
-0.2281535433070866
 20
0.877003937007874
 30
0.0
  0
VERTEX
  5
202
  8
LAYER_1
 10
-0.221763779527559
 20
0.8846417322834645
 30
0.0
  0
VERTEX
  5
203
  8
LAYER_1
 10
-0.216240157480315
 20
0.8938976377952756
 30
0.0
  0
VERTEX
  5
204
  8
LAYER_1
 10
-0.2118976377952756
 20
0.9045236220472441
 30
0.0
  0
VERTEX
  5
205
  8
LAYER_1
 10
-0.2090590551181102
 20
0.916267716535433
 30
0.0
  0
VERTEX
  5
206
  8
LAYER_1
 10
-0.2080433070866142
 20
0.9288740157480315
 30
0.0
  0
VERTEX
  5
207
  8
LAYER_1
 10
-0.2090590551181102
 20
0.9416496062992126
 30
0.0
  0
VERTEX
  5
208
  8
LAYER_1
 10
-0.2118976377952756
 20
0.9538385826771654
 30
0.0
  0
VERTEX
  5
209
  8
LAYER_1
 10
-0.216240157480315
 20
0.9650944881889764
 30
0.0
  0
VERTEX
  5
20A
  8
LAYER_1
 10
-0.221763779527559
 20
0.9750748031496063
 30
0.0
  0
VERTEX
  5
20B
  8
LAYER_1
 10
-0.2281535433070866
 20
0.9834370078740158
 30
0.0
  0
VERTEX
  5
20C
  8
LAYER_1
 10
-0.2350866141732283
 20
0.9898346456692914
 30
0.0
  0
VERTEX
  5
20D
  8
LAYER_1
 10
-0.242248031496063
 20
0.9939251968503937
 30
0.0
  0
VERTEX
  5
20E
  8
LAYER_1
 10
-0.2493149606299213
 20
0.9953661417322834
 30
0.0
  0
VERTEX
  5
20F
  8
LAYER_1
 10
-0.2563818897637795
 20
0.9939251968503937
 30
0.0
  0
VERTEX
  5
210
  8
LAYER_1
 10
-0.2635433070866142
 20
0.9898346456692914
 30
0.0
  0
VERTEX
  5
211
  8
LAYER_1
 10
-0.2704763779527559
 20
0.9834370078740158
 30
0.0
  0
VERTEX
  5
212
  8
LAYER_1
 10
-0.2768661417322835
 20
0.9750748031496063
 30
0.0
  0
VERTEX
  5
213
  8
LAYER_1
 10
-0.2823897637795276
 20
0.9650944881889764
 30
0.0
  0
VERTEX
  5
214
  8
LAYER_1
 10
-0.2867322834645669
 20
0.9538385826771654
 30
0.0
  0
VERTEX
  5
215
  8
LAYER_1
 10
-0.2895708661417323
 20
0.9416496062992126
 30
0.0
  0
VERTEX
  5
216
  8
LAYER_1
 10
-0.2905866141732283
 20
0.9288740157480315
 30
0.0
  0
VERTEX
  5
217
  8
LAYER_1
 10
-0.2895708661417323
 20
0.916267716535433
 30
0.0
  0
VERTEX
  5
218
  8
LAYER_1
 10
-0.2867322834645669
 20
0.9045236220472441
 30
0.0
  0
VERTEX
  5
219
  8
LAYER_1
 10
-0.2823897637795276
 20
0.8938976377952756
 30
0.0
  0
VERTEX
  5
21A
  8
LAYER_1
 10
-0.2768661417322835
 20
0.8846417322834645
 30
0.0
  0
VERTEX
  5
21B
  8
LAYER_1
 10
-0.2704763779527559
 20
0.877003937007874
 30
0.0
  0
VERTEX
  5
21C
  8
LAYER_1
 10
-0.2635433070866142
 20
0.871236220472441
 30
0.0
  0
VERTEX
  5
21D
  8
LAYER_1
 10
-0.2563818897637795
 20
0.8675905511811024
 30
0.0
  0
VERTEX
  5
21E
  8
LAYER_1
 10
-0.2493149606299213
 20
0.8663188976377952
 30
0.0
  0
SEQEND
  5
21F
  8
LAYER_1
  0
POLYLINE
  5
4F
  8
LAYER_1
 66
     1
 10
0.0
 20
0.0
 30
0.0
  0
VERTEX
  5
220
  8
LAYER_1
 10
0.1253267716535433
 20
0.7079055118110236
 30
0.0
  0
VERTEX
  5
221
  8
LAYER_1
 10
0.1253267716535433
 20
0.4459055118110236
 30
0.0
  0
VERTEX
  5
222
  8
LAYER_1
 10
0.0880393700787402
 20
0.4455236220472441
 30
0.0
  0
VERTEX
  5
223
  8
LAYER_1
 10
0.1353267716535433
 20
0.3422992125984252
 30
0.0
  0
VERTEX
  5
224
  8
LAYER_1
 10
0.1980629921259842
 20
0.3422992125984252
 30
0.0
  0
VERTEX
  5
225
  8
LAYER_1
 10
0.1980629921259842
 20
0.7079055118110236
 30
0.0
  0
VERTEX
  5
226
  8
LAYER_1
 10
0.3004803149606299
 20
0.7079055118110236
 30
0.0
  0
VERTEX
  5
227
  8
LAYER_1
 10
0.3004803149606299
 20
0.3422992125984252
 30
0.0
  0
VERTEX
  5
228
  8
LAYER_1
 10
0.3653267716535433
 20
0.3422992125984252
 30
0.0
  0
VERTEX
  5
229
  8
LAYER_1
 10
0.4126181102362205
 20
0.4455236220472441
 30
0.0
  0
VERTEX
  5
22A
  8
LAYER_1
 10
0.3753267716535433
 20
0.4459055118110236
 30
0.0
  0
VERTEX
  5
22B
  8
LAYER_1
 10
0.3753267716535433
 20
0.7079055118110236
 30
0.0
  0
SEQEND
  5
22C
  8
LAYER_1
  0
POLYLINE
  5
50
  8
LAYER_1
 66
     1
 10
0.0
 20
0.0
 30
0.0
  0
VERTEX
  5
22D
  8
LAYER_1
 10
0.3753267716535433
 20
0.5580944881889763
 30
0.0
  0
VERTEX
  5
22E
  8
LAYER_1
 10
0.4378267716535433
 20
0.5580944881889763
 30
0.0
  0
VERTEX
  5
22F
  8
LAYER_1
 10
0.4378267716535433
 20
0.8219015748031496
 30
0.0
  0
VERTEX
  5
230
  8
LAYER_1
 10
0.2879842519685039
 20
0.8219015748031496
 30
0.0
  0
VERTEX
  5
231
  8
LAYER_1
 10
0.2878425196850394
 20
0.8504055118110236
 30
0.0
  0
VERTEX
  5
232
  8
LAYER_1
 10
0.2978858267716535
 20
0.8642637795275591
 30
0.0
  0
VERTEX
  5
233
  8
LAYER_1
 10
0.3081023622047244
 20
0.8811023622047244
 30
0.0
  0
VERTEX
  5
234
  8
LAYER_1
 10
0.312507874015748
 20
0.8910433070866142
 30
0.0
  0
VERTEX
  5
235
  8
LAYER_1
 10
0.3160354330708661
 20
0.9022086614173228
 30
0.0
  0
VERTEX
  5
236
  8
LAYER_1
 10
0.3183740157480315
 20
0.9147677165354331
 30
0.0
  0
VERTEX
  5
237
  8
LAYER_1
 10
0.3192244094488189
 20
0.9288740157480315
 30
0.0
  0
VERTEX
  5
238
  8
LAYER_1
 10
0.3175669291338583
 20
0.9443070866141732
 30
0.0
  0
VERTEX
  5
239
  8
LAYER_1
 10
0.3129251968503937
 20
0.9602204724409449
 30
0.0
  0
VERTEX
  5
23A
  8
LAYER_1
 10
0.3057992125984252
 20
0.9758307086614173
 30
0.0
  0
VERTEX
  5
23B
  8
LAYER_1
 10
0.2966850393700787
 20
0.9903543307086614
 30
0.0
  0
VERTEX
  5
23C
  8
LAYER_1
 10
0.2860826771653543
 20
1.003007874015748
 30
0.0
  0
VERTEX
  5
23D
  8
LAYER_1
 10
0.274492125984252
 20
1.013015748031496
 30
0.0
  0
VERTEX
  5
23E
  8
LAYER_1
 10
0.2624094488188977
 20
1.019594488188976
 30
0.0
  0
VERTEX
  5
23F
  8
LAYER_1
 10
0.2503307086614173
 20
1.02196062992126
 30
0.0
  0
VERTEX
  5
240
  8
LAYER_1
 10
0.238251968503937
 20
1.019594488188976
 30
0.0
  0
VERTEX
  5
241
  8
LAYER_1
 10
0.2261692913385827
 20
1.013015748031496
 30
0.0
  0
VERTEX
  5
242
  8
LAYER_1
 10
0.2145787401574803
 20
1.003007874015748
 30
0.0
  0
VERTEX
  5
243
  8
LAYER_1
 10
0.2039763779527559
 20
0.9903543307086614
 30
0.0
  0
VERTEX
  5
244
  8
LAYER_1
 10
0.1948622047244095
 20
0.9758307086614173
 30
0.0
  0
VERTEX
  5
245
  8
LAYER_1
 10
0.187736220472441
 20
0.9602204724409449
 30
0.0
  0
VERTEX
  5
246
  8
LAYER_1
 10
0.1830944881889764
 20
0.9443070866141732
 30
0.0
  0
VERTEX
  5
247
  8
LAYER_1
 10
0.1814370078740158
 20
0.9288740157480315
 30
0.0
  0
VERTEX
  5
248
  8
LAYER_1
 10
0.1822874015748031
 20
0.9147677165354331
 30
0.0
  0
VERTEX
  5
249
  8
LAYER_1
 10
0.1846259842519685
 20
0.9022086614173228
 30
0.0
  0
VERTEX
  5
24A
  8
LAYER_1
 10
0.1881535433070866
 20
0.8910433070866142
 30
0.0
  0
VERTEX
  5
24B
  8
LAYER_1
 10
0.1925590551181102
 20
0.8811023622047244
 30
0.0
  0
VERTEX
  5
24C
  8
LAYER_1
 10
0.2027755905511811
 20
0.8642637795275591
 30
0.0
  0
VERTEX
  5
24D
  8
LAYER_1
 10
0.2128188976377953
 20
0.8504055118110236
 30
0.0
  0
VERTEX
  5
24E
  8
LAYER_1
 10
0.2126771653543307
 20
0.8219015748031496
 30
0.0
  0
VERTEX
  5
24F
  8
LAYER_1
 10
0.0628267716535433
 20
0.8219724409448819
 30
0.0
  0
VERTEX
  5
250
  8
LAYER_1
 10
0.0628267716535433
 20
0.5579173228346457
 30
0.0
  0
VERTEX
  5
251
  8
LAYER_1
 10
0.1253267716535433
 20
0.5579055118110237
 30
0.0
  0
SEQEND
  5
252
  8
LAYER_1
  0
POLYLINE
  5
51
  8
LAYER_1
 66
     1
 10
0.0
 20
0.0
 30
0.0
 70
     1
  0
VERTEX
  5
253
  8
LAYER_1
 10
0.2503307086614173
 20
0.8663188976377952
 30
0.0
  0
VERTEX
  5
254
  8
LAYER_1
 10
0.2573976377952756
 20
0.8675905511811024
 30
0.0
  0
VERTEX
  5
255
  8
LAYER_1
 10
0.2645590551181102
 20
0.871236220472441
 30
0.0
  0
VERTEX
  5
256
  8
LAYER_1
 10
0.271492125984252
 20
0.877003937007874
 30
0.0
  0
VERTEX
  5
257
  8
LAYER_1
 10
0.2778818897637795
 20
0.8846417322834645
 30
0.0
  0
VERTEX
  5
258
  8
LAYER_1
 10
0.2834055118110236
 20
0.8938976377952756
 30
0.0
  0
VERTEX
  5
259
  8
LAYER_1
 10
0.287748031496063
 20
0.9045236220472441
 30
0.0
  0
VERTEX
  5
25A
  8
LAYER_1
 10
0.2905866141732283
 20
0.916267716535433
 30
0.0
  0
VERTEX
  5
25B
  8
LAYER_1
 10
0.2916023622047244
 20
0.9288740157480315
 30
0.0
  0
VERTEX
  5
25C
  8
LAYER_1
 10
0.2905866141732283
 20
0.9416496062992126
 30
0.0
  0
VERTEX
  5
25D
  8
LAYER_1
 10
0.287748031496063
 20
0.9538385826771654
 30
0.0
  0
VERTEX
  5
25E
  8
LAYER_1
 10
0.2834055118110236
 20
0.9650944881889764
 30
0.0
  0
VERTEX
  5
25F
  8
LAYER_1
 10
0.2778818897637795
 20
0.9750748031496063
 30
0.0
  0
VERTEX
  5
260
  8
LAYER_1
 10
0.271492125984252
 20
0.9834370078740158
 30
0.0
  0
VERTEX
  5
261
  8
LAYER_1
 10
0.2645590551181102
 20
0.9898346456692914
 30
0.0
  0
VERTEX
  5
262
  8
LAYER_1
 10
0.2573976377952756
 20
0.9939251968503937
 30
0.0
  0
VERTEX
  5
263
  8
LAYER_1
 10
0.2503307086614173
 20
0.9953661417322834
 30
0.0
  0
VERTEX
  5
264
  8
LAYER_1
 10
0.2432637795275591
 20
0.9939251968503937
 30
0.0
  0
VERTEX
  5
265
  8
LAYER_1
 10
0.2361023622047244
 20
0.9898346456692914
 30
0.0
  0
VERTEX
  5
266
  8
LAYER_1
 10
0.2291692913385827
 20
0.9834370078740158
 30
0.0
  0
VERTEX
  5
267
  8
LAYER_1
 10
0.2227795275590551
 20
0.9750748031496063
 30
0.0
  0
VERTEX
  5
268
  8
LAYER_1
 10
0.217255905511811
 20
0.9650944881889764
 30
0.0
  0
VERTEX
  5
269
  8
LAYER_1
 10
0.2129133858267717
 20
0.9538385826771654
 30
0.0
  0
VERTEX
  5
26A
  8
LAYER_1
 10
0.2100748031496063
 20
0.9416496062992126
 30
0.0
  0
VERTEX
  5
26B
  8
LAYER_1
 10
0.2090590551181102
 20
0.9288740157480315
 30
0.0
  0
VERTEX
  5
26C
  8
LAYER_1
 10
0.2100748031496063
 20
0.916267716535433
 30
0.0
  0
VERTEX
  5
26D
  8
LAYER_1
 10
0.2129133858267717
 20
0.9045236220472441
 30
0.0
  0
VERTEX
  5
26E
  8
LAYER_1
 10
0.217255905511811
 20
0.8938976377952756
 30
0.0
  0
VERTEX
  5
26F
  8
LAYER_1
 10
0.2227795275590551
 20
0.8846417322834645
 30
0.0
  0
VERTEX
  5
270
  8
LAYER_1
 10
0.2291692913385827
 20
0.877003937007874
 30
0.0
  0
VERTEX
  5
271
  8
LAYER_1
 10
0.2361023622047244
 20
0.871236220472441
 30
0.0
  0
VERTEX
  5
272
  8
LAYER_1
 10
0.2432637795275591
 20
0.8675905511811024
 30
0.0
  0
VERTEX
  5
273
  8
LAYER_1
 10
0.2503307086614173
 20
0.8663188976377952
 30
0.0
  0
SEQEND
  5
274
  8
LAYER_1
  0
POLYLINE
  5
52
  8
LAYER_1
 66
     1
 10
0.0
 20
0.0
 30
0.0
  0
VERTEX
  5
275
  8
LAYER_1
 10
0.6253267716535433
 20
0.7079055118110236
 30
0.0
  0
VERTEX
  5
276
  8
LAYER_1
 10
0.6253267716535433
 20
0.4459055118110236
 30
0.0
  0
VERTEX
  5
277
  8
LAYER_1
 10
0.5880393700787402
 20
0.4455236220472441
 30
0.0
  0
VERTEX
  5
278
  8
LAYER_1
 10
0.6353267716535433
 20
0.3422992125984252
 30
0.0
  0
VERTEX
  5
279
  8
LAYER_1
 10
0.6980629921259842
 20
0.3422992125984252
 30
0.0
  0
VERTEX
  5
27A
  8
LAYER_1
 10
0.6980629921259842
 20
0.7079055118110236
 30
0.0
  0
VERTEX
  5
27B
  8
LAYER_1
 10
0.8004803149606299
 20
0.7079055118110236
 30
0.0
  0
VERTEX
  5
27C
  8
LAYER_1
 10
0.8004803149606299
 20
0.3422992125984252
 30
0.0
  0
VERTEX
  5
27D
  8
LAYER_1
 10
0.8653267716535433
 20
0.3422992125984252
 30
0.0
  0
VERTEX
  5
27E
  8
LAYER_1
 10
0.9126181102362205
 20
0.4455236220472441
 30
0.0
  0
VERTEX
  5
27F
  8
LAYER_1
 10
0.8753267716535433
 20
0.4459055118110236
 30
0.0
  0
VERTEX
  5
280
  8
LAYER_1
 10
0.8753267716535433
 20
0.7079055118110236
 30
0.0
  0
SEQEND
  5
281
  8
LAYER_1
  0
POLYLINE
  5
53
  8
LAYER_1
 66
     1
 10
0.0
 20
0.0
 30
0.0
  0
VERTEX
  5
282
  8
LAYER_1
 10
0.8753267716535433
 20
0.5580944881889763
 30
0.0
  0
VERTEX
  5
283
  8
LAYER_1
 10
0.9378267716535433
 20
0.5580944881889763
 30
0.0
  0
VERTEX
  5
284
  8
LAYER_1
 10
0.9378267716535433
 20
0.8219015748031496
 30
0.0
  0
VERTEX
  5
285
  8
LAYER_1
 10
0.787984251968504
 20
0.8219015748031496
 30
0.0
  0
VERTEX
  5
286
  8
LAYER_1
 10
0.7878425196850394
 20
0.8504055118110236
 30
0.0
  0
VERTEX
  5
287
  8
LAYER_1
 10
0.7978858267716535
 20
0.8642637795275591
 30
0.0
  0
VERTEX
  5
288
  8
LAYER_1
 10
0.8081023622047244
 20
0.8811023622047244
 30
0.0
  0
VERTEX
  5
289
  8
LAYER_1
 10
0.812507874015748
 20
0.8910433070866142
 30
0.0
  0
VERTEX
  5
28A
  8
LAYER_1
 10
0.8160354330708661
 20
0.9022086614173228
 30
0.0
  0
VERTEX
  5
28B
  8
LAYER_1
 10
0.8183740157480315
 20
0.9147677165354331
 30
0.0
  0
VERTEX
  5
28C
  8
LAYER_1
 10
0.8192244094488189
 20
0.9288740157480315
 30
0.0
  0
VERTEX
  5
28D
  8
LAYER_1
 10
0.8175669291338583
 20
0.9443070866141732
 30
0.0
  0
VERTEX
  5
28E
  8
LAYER_1
 10
0.8129251968503937
 20
0.9602204724409449
 30
0.0
  0
VERTEX
  5
28F
  8
LAYER_1
 10
0.8057992125984252
 20
0.9758307086614173
 30
0.0
  0
VERTEX
  5
290
  8
LAYER_1
 10
0.7966850393700787
 20
0.9903543307086614
 30
0.0
  0
VERTEX
  5
291
  8
LAYER_1
 10
0.7860826771653543
 20
1.003007874015748
 30
0.0
  0
VERTEX
  5
292
  8
LAYER_1
 10
0.774492125984252
 20
1.013015748031496
 30
0.0
  0
VERTEX
  5
293
  8
LAYER_1
 10
0.7624094488188976
 20
1.019594488188976
 30
0.0
  0
VERTEX
  5
294
  8
LAYER_1
 10
0.7503307086614174
 20
1.02196062992126
 30
0.0
  0
VERTEX
  5
295
  8
LAYER_1
 10
0.738251968503937
 20
1.019594488188976
 30
0.0
  0
VERTEX
  5
296
  8
LAYER_1
 10
0.7261692913385827
 20
1.013015748031496
 30
0.0
  0
VERTEX
  5
297
  8
LAYER_1
 10
0.7145787401574804
 20
1.003007874015748
 30
0.0
  0
VERTEX
  5
298
  8
LAYER_1
 10
0.7039763779527559
 20
0.9903543307086614
 30
0.0
  0
VERTEX
  5
299
  8
LAYER_1
 10
0.6948622047244094
 20
0.9758307086614173
 30
0.0
  0
VERTEX
  5
29A
  8
LAYER_1
 10
0.687736220472441
 20
0.9602204724409449
 30
0.0
  0
VERTEX
  5
29B
  8
LAYER_1
 10
0.6830944881889763
 20
0.9443070866141732
 30
0.0
  0
VERTEX
  5
29C
  8
LAYER_1
 10
0.6814370078740157
 20
0.9288740157480315
 30
0.0
  0
VERTEX
  5
29D
  8
LAYER_1
 10
0.6822874015748032
 20
0.9147677165354331
 30
0.0
  0
VERTEX
  5
29E
  8
LAYER_1
 10
0.6846259842519685
 20
0.9022086614173228
 30
0.0
  0
VERTEX
  5
29F
  8
LAYER_1
 10
0.6881535433070867
 20
0.8910433070866142
 30
0.0
  0
VERTEX
  5
2A0
  8
LAYER_1
 10
0.6925590551181102
 20
0.8811023622047244
 30
0.0
  0
VERTEX
  5
2A1
  8
LAYER_1
 10
0.7027755905511811
 20
0.8642637795275591
 30
0.0
  0
VERTEX
  5
2A2
  8
LAYER_1
 10
0.7128188976377953
 20
0.8504055118110236
 30
0.0
  0
VERTEX
  5
2A3
  8
LAYER_1
 10
0.7126771653543307
 20
0.8219015748031496
 30
0.0
  0
VERTEX
  5
2A4
  8
LAYER_1
 10
0.5628267716535433
 20
0.8219724409448819
 30
0.0
  0
VERTEX
  5
2A5
  8
LAYER_1
 10
0.5628267716535433
 20
0.5579173228346457
 30
0.0
  0
VERTEX
  5
2A6
  8
LAYER_1
 10
0.6253267716535433
 20
0.5579055118110237
 30
0.0
  0
SEQEND
  5
2A7
  8
LAYER_1
  0
POLYLINE
  5
54
  8
LAYER_1
 66
     1
 10
0.0
 20
0.0
 30
0.0
 70
     1
  0
VERTEX
  5
2A8
  8
LAYER_1
 10
0.7503307086614174
 20
0.8663188976377952
 30
0.0
  0
VERTEX
  5
2A9
  8
LAYER_1
 10
0.7573976377952756
 20
0.8675905511811024
 30
0.0
  0
VERTEX
  5
2AA
  8
LAYER_1
 10
0.7645590551181103
 20
0.871236220472441
 30
0.0
  0
VERTEX
  5
2AB
  8
LAYER_1
 10
0.771492125984252
 20
0.877003937007874
 30
0.0
  0
VERTEX
  5
2AC
  8
LAYER_1
 10
0.7778818897637795
 20
0.8846417322834645
 30
0.0
  0
VERTEX
  5
2AD
  8
LAYER_1
 10
0.7834055118110236
 20
0.8938976377952756
 30
0.0
  0
VERTEX
  5
2AE
  8
LAYER_1
 10
0.787748031496063
 20
0.9045236220472441
 30
0.0
  0
VERTEX
  5
2AF
  8
LAYER_1
 10
0.7905866141732284
 20
0.916267716535433
 30
0.0
  0
VERTEX
  5
2B0
  8
LAYER_1
 10
0.7916023622047245
 20
0.9288740157480315
 30
0.0
  0
VERTEX
  5
2B1
  8
LAYER_1
 10
0.7905866141732284
 20
0.9416496062992126
 30
0.0
  0
VERTEX
  5
2B2
  8
LAYER_1
 10
0.787748031496063
 20
0.9538385826771654
 30
0.0
  0
VERTEX
  5
2B3
  8
LAYER_1
 10
0.7834055118110236
 20
0.9650944881889764
 30
0.0
  0
VERTEX
  5
2B4
  8
LAYER_1
 10
0.7778818897637795
 20
0.9750748031496063
 30
0.0
  0
VERTEX
  5
2B5
  8
LAYER_1
 10
0.771492125984252
 20
0.9834370078740158
 30
0.0
  0
VERTEX
  5
2B6
  8
LAYER_1
 10
0.7645590551181103
 20
0.9898346456692914
 30
0.0
  0
VERTEX
  5
2B7
  8
LAYER_1
 10
0.7573976377952756
 20
0.9939251968503937
 30
0.0
  0
VERTEX
  5
2B8
  8
LAYER_1
 10
0.7503307086614174
 20
0.9953661417322834
 30
0.0
  0
VERTEX
  5
2B9
  8
LAYER_1
 10
0.7432637795275591
 20
0.9939251968503937
 30
0.0
  0
VERTEX
  5
2BA
  8
LAYER_1
 10
0.7361023622047244
 20
0.9898346456692914
 30
0.0
  0
VERTEX
  5
2BB
  8
LAYER_1
 10
0.7291692913385827
 20
0.9834370078740158
 30
0.0
  0
VERTEX
  5
2BC
  8
LAYER_1
 10
0.7227795275590552
 20
0.9750748031496063
 30
0.0
  0
VERTEX
  5
2BD
  8
LAYER_1
 10
0.7172559055118111
 20
0.9650944881889764
 30
0.0
  0
VERTEX
  5
2BE
  8
LAYER_1
 10
0.7129133858267717
 20
0.9538385826771654
 30
0.0
  0
VERTEX
  5
2BF
  8
LAYER_1
 10
0.7100748031496062
 20
0.9416496062992126
 30
0.0
  0
VERTEX
  5
2C0
  8
LAYER_1
 10
0.7090590551181102
 20
0.9288740157480315
 30
0.0
  0
VERTEX
  5
2C1
  8
LAYER_1
 10
0.7100748031496062
 20
0.916267716535433
 30
0.0
  0
VERTEX
  5
2C2
  8
LAYER_1
 10
0.7129133858267717
 20
0.9045236220472441
 30
0.0
  0
VERTEX
  5
2C3
  8
LAYER_1
 10
0.7172559055118111
 20
0.8938976377952756
 30
0.0
  0
VERTEX
  5
2C4
  8
LAYER_1
 10
0.7227795275590552
 20
0.8846417322834645
 30
0.0
  0
VERTEX
  5
2C5
  8
LAYER_1
 10
0.7291692913385827
 20
0.877003937007874
 30
0.0
  0
VERTEX
  5
2C6
  8
LAYER_1
 10
0.7361023622047244
 20
0.871236220472441
 30
0.0
  0
VERTEX
  5
2C7
  8
LAYER_1
 10
0.7432637795275591
 20
0.8675905511811024
 30
0.0
  0
VERTEX
  5
2C8
  8
LAYER_1
 10
0.7503307086614174
 20
0.8663188976377952
 30
0.0
  0
SEQEND
  5
2C9
  8
LAYER_1
  0
ENDSEC
  0
EOF
