solid OpenSCAD_Model
  facet normal 0.951056 0.309017 0
    outer loop
      vertex 3 0 -7
      vertex 2.42705 1.76336 -11
      vertex 2.42705 1.76336 -7
    endloop
  endfacet
  facet normal 0.951056 0.309017 0
    outer loop
      vertex 2.42705 1.76336 -11
      vertex 3 0 -7
      vertex 3 0 -11
    endloop
  endfacet
  facet normal 0.951056 0.309018 0
    outer loop
      vertex 2.49004 1.56949 5
      vertex 2.42705 1.76336 4.85896
      vertex 2.42705 1.76336 5
    endloop
  endfacet
  facet normal 0.951056 0.309017 0
    outer loop
      vertex 3 0 0
      vertex 2.42705 1.76336 -5
      vertex 2.42705 1.76336 0
    endloop
  endfacet
  facet normal 0.951056 0.309017 0
    outer loop
      vertex 2.42705 1.76336 -5
      vertex 3 0 0
      vertex 3 0 -5
    endloop
  endfacet
  facet normal -0.951056 0.309017 0
    outer loop
      vertex -3 0 -11
      vertex -2.42705 1.76336 -7
      vertex -2.42705 1.76336 -11
    endloop
  endfacet
  facet normal -0.951056 0.309017 0
    outer loop
      vertex -2.42705 1.76336 -7
      vertex -3 0 -11
      vertex -3 0 -7
    endloop
  endfacet
  facet normal -0.951056 0.309018 0
    outer loop
      vertex -2.42705 1.76336 4.85896
      vertex -2.49004 1.56949 5
      vertex -2.42705 1.76336 5
    endloop
  endfacet
  facet normal -0.951056 0.309017 0
    outer loop
      vertex -3 0 -5
      vertex -2.42705 1.76336 0
      vertex -2.42705 1.76336 -5
    endloop
  endfacet
  facet normal -0.951056 0.309017 0
    outer loop
      vertex -2.42705 1.76336 0
      vertex -3 0 -5
      vertex -3 0 0
    endloop
  endfacet
  facet normal 0 -1 0
    outer loop
      vertex -0.927051 -2.85317 5
      vertex -0.927051 -2.85317 4.90607
      vertex -0.738164 -2.85317 5
    endloop
  endfacet
  facet normal 0 -1 0
    outer loop
      vertex -0.927051 -2.85317 -11
      vertex 0.927051 -2.85317 -7
      vertex -0.927051 -2.85317 -7
    endloop
  endfacet
  facet normal 0 -1 -0
    outer loop
      vertex 0.927051 -2.85317 -7
      vertex -0.927051 -2.85317 -11
      vertex 0.927051 -2.85317 -11
    endloop
  endfacet
  facet normal -0 -1 -0
    outer loop
      vertex 0.927051 -2.85317 5
      vertex 0.738164 -2.85317 5
      vertex 0.927051 -2.85317 4.90607
    endloop
  endfacet
  facet normal 0 -1 0
    outer loop
      vertex -0.927051 -2.85317 -5
      vertex 0.927051 -2.85317 0
      vertex -0.927051 -2.85317 0
    endloop
  endfacet
  facet normal 0 -1 -0
    outer loop
      vertex 0.927051 -2.85317 0
      vertex -0.927051 -2.85317 -5
      vertex 0.927051 -2.85317 -5
    endloop
  endfacet
  facet normal 0 1 -0
    outer loop
      vertex 0.927051 2.85317 -11
      vertex -0.927051 2.85317 -7
      vertex 0.927051 2.85317 -7
    endloop
  endfacet
  facet normal 0 1 0
    outer loop
      vertex -0.927051 2.85317 -7
      vertex 0.927051 2.85317 -11
      vertex -0.927051 2.85317 -11
    endloop
  endfacet
  facet normal 0 1 -0
    outer loop
      vertex 0.927051 2.85317 4.90607
      vertex 0.738164 2.85317 5
      vertex 0.927051 2.85317 5
    endloop
  endfacet
  facet normal 0 1 0
    outer loop
      vertex -0.738164 2.85317 5
      vertex -0.927051 2.85317 4.90607
      vertex -0.927051 2.85317 5
    endloop
  endfacet
  facet normal 0 1 -0
    outer loop
      vertex 0.927051 2.85317 -5
      vertex -0.927051 2.85317 0
      vertex 0.927051 2.85317 0
    endloop
  endfacet
  facet normal 0 1 0
    outer loop
      vertex -0.927051 2.85317 0
      vertex 0.927051 2.85317 -5
      vertex -0.927051 2.85317 -5
    endloop
  endfacet
  facet normal 0.587785 0.809017 -0
    outer loop
      vertex 2.42705 1.76336 -11
      vertex 0.927051 2.85317 -7
      vertex 2.42705 1.76336 -7
    endloop
  endfacet
  facet normal 0.587785 0.809017 0
    outer loop
      vertex 0.927051 2.85317 -7
      vertex 2.42705 1.76336 -11
      vertex 0.927051 2.85317 -11
    endloop
  endfacet
  facet normal 0.587785 0.809017 -0
    outer loop
      vertex 2.42705 1.76336 4.85896
      vertex 2.29772 1.85732 5
      vertex 2.42705 1.76336 5
    endloop
  endfacet
  facet normal 0.587785 0.809017 0
    outer loop
      vertex 0.99826 2.80143 5
      vertex 0.927051 2.85317 4.90607
      vertex 0.927051 2.85317 5
    endloop
  endfacet
  facet normal 0.587785 0.809017 -0
    outer loop
      vertex 2.42705 1.76336 -5
      vertex 0.927051 2.85317 0
      vertex 2.42705 1.76336 0
    endloop
  endfacet
  facet normal 0.587785 0.809017 0
    outer loop
      vertex 0.927051 2.85317 0
      vertex 2.42705 1.76336 -5
      vertex 0.927051 2.85317 -5
    endloop
  endfacet
  facet normal 0 0 1
    outer loop
      vertex 2.55 0 5
      vertex 3 0 5
      vertex 2.77164 1.14805 5
    endloop
  endfacet
  facet normal 0 0 1
    outer loop
      vertex 3 0 5
      vertex 2.55 0 5
      vertex 2.77164 -1.14805 5
    endloop
  endfacet
  facet normal 0 0 1
    outer loop
      vertex 1.95341 1.63911 5
      vertex 2.77164 1.14805 5
      vertex 2.49004 1.56949 5
    endloop
  endfacet
  facet normal -0 0 1
    outer loop
      vertex 1.95341 1.63911 5
      vertex 2.49004 1.56949 5
      vertex 2.42705 1.76336 5
    endloop
  endfacet
  facet normal 0 0 1
    outer loop
      vertex 1.95341 1.63911 5
      vertex 2.42705 1.76336 5
      vertex 2.29772 1.85732 5
    endloop
  endfacet
  facet normal 0 0 1
    outer loop
      vertex 1.95341 1.63911 5
      vertex 2.29772 1.85732 5
      vertex 2.12132 2.12132 5
    endloop
  endfacet
  facet normal 0 0 1
    outer loop
      vertex 2.77164 1.14805 5
      vertex 1.95341 1.63911 5
      vertex 2.55 0 5
    endloop
  endfacet
  facet normal 0 0 1
    outer loop
      vertex 1.14805 2.77164 5
      vertex 1.95341 1.63911 5
      vertex 2.12132 2.12132 5
    endloop
  endfacet
  facet normal 0 0 1
    outer loop
      vertex 0.442802 2.51126 5
      vertex 1.14805 2.77164 5
      vertex 0.99826 2.80143 5
    endloop
  endfacet
  facet normal -0 0 1
    outer loop
      vertex 0.738164 2.85317 5
      vertex 0.99826 2.80143 5
      vertex 0.927051 2.85317 5
    endloop
  endfacet
  facet normal 0 0 1
    outer loop
      vertex 0.99826 2.80143 5
      vertex 0.738164 2.85317 5
      vertex 0.442802 2.51126 5
    endloop
  endfacet
  facet normal 0 0 1
    outer loop
      vertex 1.14805 2.77164 5
      vertex 0.442802 2.51126 5
      vertex 1.95341 1.63911 5
    endloop
  endfacet
  facet normal 0 0 1
    outer loop
      vertex 0 3 5
      vertex 0.442802 2.51126 5
      vertex 0.738164 2.85317 5
    endloop
  endfacet
  facet normal -0 0 1
    outer loop
      vertex -0.738164 2.85317 5
      vertex 0.442802 2.51126 5
      vertex 0 3 5
    endloop
  endfacet
  facet normal 0 0 1
    outer loop
      vertex -0.99826 2.80143 5
      vertex -0.738164 2.85317 5
      vertex -0.927051 2.85317 5
    endloop
  endfacet
  facet normal 0 0 1
    outer loop
      vertex -0.738164 2.85317 5
      vertex -0.99826 2.80143 5
      vertex -1.275 2.20836 5
    endloop
  endfacet
  facet normal 0 0 1
    outer loop
      vertex -1.275 2.20836 5
      vertex -0.99826 2.80143 5
      vertex -1.14805 2.77164 5
    endloop
  endfacet
  facet normal 0 0 1
    outer loop
      vertex -0.738164 2.85317 5
      vertex -1.275 2.20836 5
      vertex 0.442802 2.51126 5
    endloop
  endfacet
  facet normal 0 0 1
    outer loop
      vertex -2.12132 2.12132 5
      vertex -1.275 2.20836 5
      vertex -1.14805 2.77164 5
    endloop
  endfacet
  facet normal 0 0 1
    outer loop
      vertex -2.29772 1.85732 5
      vertex -1.275 2.20836 5
      vertex -2.12132 2.12132 5
    endloop
  endfacet
  facet normal -0 0 1
    outer loop
      vertex -2.29772 1.85732 5
      vertex -2.39622 0.87215 5
      vertex -1.275 2.20836 5
    endloop
  endfacet
  facet normal 0 0 1
    outer loop
      vertex -2.29772 1.85732 5
      vertex -2.49004 1.56949 5
      vertex -2.39622 0.87215 5
    endloop
  endfacet
  facet normal 0 0 1
    outer loop
      vertex -2.49004 1.56949 5
      vertex -2.29772 1.85732 5
      vertex -2.42705 1.76336 5
    endloop
  endfacet
  facet normal 0 0 1
    outer loop
      vertex 1.95341 -1.63911 5
      vertex 2.77164 -1.14805 5
      vertex 2.55 0 5
    endloop
  endfacet
  facet normal 0 0 1
    outer loop
      vertex 2.77164 -1.14805 5
      vertex 1.95341 -1.63911 5
      vertex 2.49004 -1.56949 5
    endloop
  endfacet
  facet normal 0 0 1
    outer loop
      vertex 2.49004 -1.56949 5
      vertex 1.95341 -1.63911 5
      vertex 2.42705 -1.76336 5
    endloop
  endfacet
  facet normal 0 0 1
    outer loop
      vertex 2.42705 -1.76336 5
      vertex 1.95341 -1.63911 5
      vertex 2.29772 -1.85732 5
    endloop
  endfacet
  facet normal 0 0 1
    outer loop
      vertex 2.29772 -1.85732 5
      vertex 1.95341 -1.63911 5
      vertex 2.12132 -2.12132 5
    endloop
  endfacet
  facet normal 0 0 1
    outer loop
      vertex 1.95341 -1.63911 5
      vertex 1.14805 -2.77164 5
      vertex 2.12132 -2.12132 5
    endloop
  endfacet
  facet normal -0 0 1
    outer loop
      vertex 0.442802 -2.51126 5
      vertex 1.14805 -2.77164 5
      vertex 1.95341 -1.63911 5
    endloop
  endfacet
  facet normal 0 0 1
    outer loop
      vertex 1.14805 -2.77164 5
      vertex 0.442802 -2.51126 5
      vertex 0.99826 -2.80143 5
    endloop
  endfacet
  facet normal 0 -0 1
    outer loop
      vertex 0.738164 -2.85317 5
      vertex 0.99826 -2.80143 5
      vertex 0.442802 -2.51126 5
    endloop
  endfacet
  facet normal 0 0 1
    outer loop
      vertex 0.99826 -2.80143 5
      vertex 0.738164 -2.85317 5
      vertex 0.927051 -2.85317 5
    endloop
  endfacet
  facet normal 0 0 1
    outer loop
      vertex 0.442802 -2.51126 5
      vertex 0 -3 5
      vertex 0.738164 -2.85317 5
    endloop
  endfacet
  facet normal 0 0 1
    outer loop
      vertex 0.442802 -2.51126 5
      vertex -0.738164 -2.85317 5
      vertex 0 -3 5
    endloop
  endfacet
  facet normal 0 0 1
    outer loop
      vertex -1.275 -2.20836 5
      vertex -0.738164 -2.85317 5
      vertex 0.442802 -2.51126 5
    endloop
  endfacet
  facet normal -0 -0 1
    outer loop
      vertex -0.99826 -2.80143 5
      vertex -0.738164 -2.85317 5
      vertex -1.275 -2.20836 5
    endloop
  endfacet
  facet normal 0 0 1
    outer loop
      vertex -0.738164 -2.85317 5
      vertex -0.99826 -2.80143 5
      vertex -0.927051 -2.85317 5
    endloop
  endfacet
  facet normal 0 0 1
    outer loop
      vertex -0.99826 -2.80143 5
      vertex -1.275 -2.20836 5
      vertex -1.14805 -2.77164 5
    endloop
  endfacet
  facet normal 0 0 1
    outer loop
      vertex -1.275 -2.20836 5
      vertex -2.12132 -2.12132 5
      vertex -1.14805 -2.77164 5
    endloop
  endfacet
  facet normal 0 0 1
    outer loop
      vertex -1.275 -2.20836 5
      vertex -2.29772 -1.85732 5
      vertex -2.12132 -2.12132 5
    endloop
  endfacet
  facet normal 0 0 1
    outer loop
      vertex -2.39622 -0.87215 5
      vertex -2.29772 -1.85732 5
      vertex -1.275 -2.20836 5
    endloop
  endfacet
  facet normal -0 0 1
    outer loop
      vertex -2.49004 -1.56949 5
      vertex -2.29772 -1.85732 5
      vertex -2.39622 -0.87215 5
    endloop
  endfacet
  facet normal -0 0 1
    outer loop
      vertex -2.77164 1.14805 5
      vertex -2.39622 0.87215 5
      vertex -2.49004 1.56949 5
    endloop
  endfacet
  facet normal 0 0 1
    outer loop
      vertex -3 0 5
      vertex -2.39622 0.87215 5
      vertex -2.77164 1.14805 5
    endloop
  endfacet
  facet normal 0 0 1
    outer loop
      vertex -2.29772 -1.85732 5
      vertex -2.49004 -1.56949 5
      vertex -2.42705 -1.76336 5
    endloop
  endfacet
  facet normal 0 0 1
    outer loop
      vertex -2.39622 0.87215 5
      vertex -3 0 5
      vertex -2.39622 -0.87215 5
    endloop
  endfacet
  facet normal 0 -0 1
    outer loop
      vertex -2.77164 -1.14805 5
      vertex -2.39622 -0.87215 5
      vertex -3 0 5
    endloop
  endfacet
  facet normal 0 0 1
    outer loop
      vertex -2.39622 -0.87215 5
      vertex -2.77164 -1.14805 5
      vertex -2.49004 -1.56949 5
    endloop
  endfacet
  facet normal -0.587785 0.809017 0
    outer loop
      vertex -0.927051 2.85317 -11
      vertex -2.42705 1.76336 -7
      vertex -0.927051 2.85317 -7
    endloop
  endfacet
  facet normal -0.587785 0.809017 0
    outer loop
      vertex -2.42705 1.76336 -7
      vertex -0.927051 2.85317 -11
      vertex -2.42705 1.76336 -11
    endloop
  endfacet
  facet normal -0.587785 0.809017 0
    outer loop
      vertex -0.927051 2.85317 4.90607
      vertex -0.99826 2.80143 5
      vertex -0.927051 2.85317 5
    endloop
  endfacet
  facet normal -0.587785 0.809017 0
    outer loop
      vertex -2.29772 1.85732 5
      vertex -2.42705 1.76336 4.85896
      vertex -2.42705 1.76336 5
    endloop
  endfacet
  facet normal -0.587785 0.809017 0
    outer loop
      vertex -0.927051 2.85317 -5
      vertex -2.42705 1.76336 0
      vertex -0.927051 2.85317 0
    endloop
  endfacet
  facet normal -0.587785 0.809017 0
    outer loop
      vertex -2.42705 1.76336 0
      vertex -0.927051 2.85317 -5
      vertex -2.42705 1.76336 -5
    endloop
  endfacet
  facet normal 0.951056 -0.309017 0
    outer loop
      vertex 2.42705 -1.76336 -7
      vertex 3 0 -11
      vertex 3 0 -7
    endloop
  endfacet
  facet normal 0.951056 -0.309017 0
    outer loop
      vertex 3 0 -11
      vertex 2.42705 -1.76336 -7
      vertex 2.42705 -1.76336 -11
    endloop
  endfacet
  facet normal 0.951056 -0.309018 0
    outer loop
      vertex 2.42705 -1.76336 5
      vertex 2.42705 -1.76336 4.85896
      vertex 2.49004 -1.56949 5
    endloop
  endfacet
  facet normal 0.951056 -0.309017 0
    outer loop
      vertex 2.42705 -1.76336 0
      vertex 3 0 -5
      vertex 3 0 0
    endloop
  endfacet
  facet normal 0.951056 -0.309017 0
    outer loop
      vertex 3 0 -5
      vertex 2.42705 -1.76336 0
      vertex 2.42705 -1.76336 -5
    endloop
  endfacet
  facet normal 0 0 -1
    outer loop
      vertex 2.42705 -1.76336 -11
      vertex 2.55 0 -11
      vertex 3 0 -11
    endloop
  endfacet
  facet normal 0 0 -1
    outer loop
      vertex 2.42705 -1.76336 -11
      vertex 1.95341 -1.63911 -11
      vertex 2.55 0 -11
    endloop
  endfacet
  facet normal 0 0 -1
    outer loop
      vertex 0.927051 -2.85317 -11
      vertex 1.95341 -1.63911 -11
      vertex 2.42705 -1.76336 -11
    endloop
  endfacet
  facet normal 0 0 -1
    outer loop
      vertex 0.927051 -2.85317 -11
      vertex 0.442802 -2.51126 -11
      vertex 1.95341 -1.63911 -11
    endloop
  endfacet
  facet normal 0 0 -1
    outer loop
      vertex -0.927051 -2.85317 -11
      vertex 0.442802 -2.51126 -11
      vertex 0.927051 -2.85317 -11
    endloop
  endfacet
  facet normal 0 0 -1
    outer loop
      vertex -0.927051 -2.85317 -11
      vertex -1.275 -2.20836 -11
      vertex 0.442802 -2.51126 -11
    endloop
  endfacet
  facet normal 0 0 -1
    outer loop
      vertex -2.42705 -1.76336 -11
      vertex -1.275 -2.20836 -11
      vertex -0.927051 -2.85317 -11
    endloop
  endfacet
  facet normal 0 0 -1
    outer loop
      vertex -3 0 -11
      vertex -2.39622 -0.87215 -11
      vertex -2.42705 -1.76336 -11
    endloop
  endfacet
  facet normal 0 0 -1
    outer loop
      vertex -1.275 -2.20836 -11
      vertex -2.42705 -1.76336 -11
      vertex -2.39622 -0.87215 -11
    endloop
  endfacet
  facet normal 0 0 -1
    outer loop
      vertex 2.55 0 -11
      vertex 2.42705 1.76336 -11
      vertex 3 0 -11
    endloop
  endfacet
  facet normal 0 0 -1
    outer loop
      vertex 1.95341 1.63911 -11
      vertex 2.42705 1.76336 -11
      vertex 2.55 0 -11
    endloop
  endfacet
  facet normal 0 0 -1
    outer loop
      vertex 1.95341 1.63911 -11
      vertex 0.927051 2.85317 -11
      vertex 2.42705 1.76336 -11
    endloop
  endfacet
  facet normal 0 0 -1
    outer loop
      vertex 0.442802 2.51126 -11
      vertex 0.927051 2.85317 -11
      vertex 1.95341 1.63911 -11
    endloop
  endfacet
  facet normal 0 0 -1
    outer loop
      vertex 0.442802 2.51126 -11
      vertex -0.927051 2.85317 -11
      vertex 0.927051 2.85317 -11
    endloop
  endfacet
  facet normal 0 0 -1
    outer loop
      vertex -1.275 2.20836 -11
      vertex -0.927051 2.85317 -11
      vertex 0.442802 2.51126 -11
    endloop
  endfacet
  facet normal 0 0 -1
    outer loop
      vertex -2.42705 1.76336 -11
      vertex -1.275 2.20836 -11
      vertex -2.39622 0.87215 -11
    endloop
  endfacet
  facet normal -0 0 -1
    outer loop
      vertex -1.275 2.20836 -11
      vertex -2.42705 1.76336 -11
      vertex -0.927051 2.85317 -11
    endloop
  endfacet
  facet normal 0 0 -1
    outer loop
      vertex -2.39622 -0.87215 -11
      vertex -3 0 -11
      vertex -2.39622 0.87215 -11
    endloop
  endfacet
  facet normal -0 0 -1
    outer loop
      vertex -2.39622 0.87215 -11
      vertex -3 0 -11
      vertex -2.42705 1.76336 -11
    endloop
  endfacet
  facet normal 0.587785 -0.809017 0
    outer loop
      vertex 0.927051 -2.85317 -11
      vertex 2.42705 -1.76336 -7
      vertex 0.927051 -2.85317 -7
    endloop
  endfacet
  facet normal 0.587785 -0.809017 0
    outer loop
      vertex 2.42705 -1.76336 -7
      vertex 0.927051 -2.85317 -11
      vertex 2.42705 -1.76336 -11
    endloop
  endfacet
  facet normal 0.587785 -0.809017 0
    outer loop
      vertex 0.927051 -2.85317 5
      vertex 0.927051 -2.85317 4.90607
      vertex 0.99826 -2.80143 5
    endloop
  endfacet
  facet normal 0.587785 -0.809017 0
    outer loop
      vertex 2.42705 -1.76336 5
      vertex 2.29772 -1.85732 5
      vertex 2.42705 -1.76336 4.85896
    endloop
  endfacet
  facet normal 0.587785 -0.809017 0
    outer loop
      vertex 0.927051 -2.85317 -5
      vertex 2.42705 -1.76336 0
      vertex 0.927051 -2.85317 0
    endloop
  endfacet
  facet normal 0.587785 -0.809017 0
    outer loop
      vertex 2.42705 -1.76336 0
      vertex 0.927051 -2.85317 -5
      vertex 2.42705 -1.76336 -5
    endloop
  endfacet
  facet normal -0.587785 -0.809017 -0
    outer loop
      vertex -0.927051 -2.85317 5
      vertex -0.99826 -2.80143 5
      vertex -0.927051 -2.85317 4.90607
    endloop
  endfacet
  facet normal -0.587785 -0.809017 0
    outer loop
      vertex -2.42705 -1.76336 -11
      vertex -0.927051 -2.85317 -7
      vertex -2.42705 -1.76336 -7
    endloop
  endfacet
  facet normal -0.587785 -0.809017 -0
    outer loop
      vertex -0.927051 -2.85317 -7
      vertex -2.42705 -1.76336 -11
      vertex -0.927051 -2.85317 -11
    endloop
  endfacet
  facet normal -0.587785 -0.809017 -0
    outer loop
      vertex -2.42705 -1.76336 5
      vertex -2.42705 -1.76336 4.85896
      vertex -2.29772 -1.85732 5
    endloop
  endfacet
  facet normal -0.587785 -0.809017 0
    outer loop
      vertex -2.42705 -1.76336 -5
      vertex -0.927051 -2.85317 0
      vertex -2.42705 -1.76336 0
    endloop
  endfacet
  facet normal -0.587785 -0.809017 -0
    outer loop
      vertex -0.927051 -2.85317 0
      vertex -2.42705 -1.76336 -5
      vertex -0.927051 -2.85317 -5
    endloop
  endfacet
  facet normal -0.951056 -0.309017 0
    outer loop
      vertex -2.42705 -1.76336 -11
      vertex -3 0 -7
      vertex -3 0 -11
    endloop
  endfacet
  facet normal -0.951056 -0.309017 0
    outer loop
      vertex -3 0 -7
      vertex -2.42705 -1.76336 -11
      vertex -2.42705 -1.76336 -7
    endloop
  endfacet
  facet normal -0.951056 -0.309018 -0
    outer loop
      vertex -2.42705 -1.76336 5
      vertex -2.49004 -1.56949 5
      vertex -2.42705 -1.76336 4.85896
    endloop
  endfacet
  facet normal -0.951056 -0.309017 0
    outer loop
      vertex -2.42705 -1.76336 -5
      vertex -3 0 0
      vertex -3 0 -5
    endloop
  endfacet
  facet normal -0.951056 -0.309017 0
    outer loop
      vertex -3 0 0
      vertex -2.42705 -1.76336 -5
      vertex -2.42705 -1.76336 0
    endloop
  endfacet
  facet normal 0.913036 0.181614 0.365214
    outer loop
      vertex 4.6194 1.91342 0
      vertex 3 0 5
      vertex 5 0 0
    endloop
  endfacet
  facet normal -0.913036 0.181614 0.365214
    outer loop
      vertex -4.6194 1.91342 0
      vertex -5 0 0
      vertex -3 0 5
    endloop
  endfacet
  facet normal -0.181614 0.913036 0.365214
    outer loop
      vertex 0 5 0
      vertex -1.91342 4.6194 0
      vertex 0 3 5
    endloop
  endfacet
  facet normal 0.517193 0.774035 0.365215
    outer loop
      vertex 3.53553 3.53553 0
      vertex 1.14805 2.77164 5
      vertex 2.12132 2.12132 5
    endloop
  endfacet
  facet normal 0.774035 -0.517193 0.365214
    outer loop
      vertex 2.42705 -1.76336 4.85896
      vertex 2.77164 -1.14805 5
      vertex 2.49004 -1.56949 5
    endloop
  endfacet
  facet normal 0.774035 -0.517193 0.365215
    outer loop
      vertex 2.12132 -2.12132 5
      vertex 2.42705 -1.76336 4.85896
      vertex 2.29772 -1.85732 5
    endloop
  endfacet
  facet normal 0.774035 -0.517193 0.365215
    outer loop
      vertex 2.42705 -1.76336 4.85896
      vertex 3.53553 -3.53553 0
      vertex 2.77164 -1.14805 5
    endloop
  endfacet
  facet normal 0.774035 -0.517193 0.365215
    outer loop
      vertex 3.53553 -3.53553 0
      vertex 2.42705 -1.76336 4.85896
      vertex 2.12132 -2.12132 5
    endloop
  endfacet
  facet normal 0.181614 0.913036 0.365214
    outer loop
      vertex 0 5 0
      vertex 0 3 5
      vertex 1.91342 4.6194 0
    endloop
  endfacet
  facet normal -0.913036 -0.181614 0.365214
    outer loop
      vertex -3 0 5
      vertex -5 0 0
      vertex -4.6194 -1.91342 0
    endloop
  endfacet
  facet normal -0.517193 -0.774035 0.365215
    outer loop
      vertex -1.14805 -2.77164 5
      vertex -3.53553 -3.53553 0
      vertex -1.91342 -4.6194 0
    endloop
  endfacet
  facet normal 0.913036 -0.181614 0.365214
    outer loop
      vertex 5 0 0
      vertex 3 0 5
      vertex 4.6194 -1.91342 0
    endloop
  endfacet
  facet normal 0.913036 0.181615 0.365214
    outer loop
      vertex 4.6194 1.91342 0
      vertex 2.77164 1.14805 5
      vertex 3 0 5
    endloop
  endfacet
  facet normal 0.517193 0.774035 0.365215
    outer loop
      vertex 1.91342 4.6194 0
      vertex 1.14805 2.77164 5
      vertex 3.53553 3.53553 0
    endloop
  endfacet
  facet normal 0.181615 0.913036 0.365215
    outer loop
      vertex 1.14805 2.77164 5
      vertex 0.927051 2.85317 4.90607
      vertex 0.99826 2.80143 5
    endloop
  endfacet
  facet normal 0.181615 0.913036 0.365215
    outer loop
      vertex 0.927051 2.85317 4.90607
      vertex 1.14805 2.77164 5
      vertex 1.91342 4.6194 0
    endloop
  endfacet
  facet normal 0.181615 0.913036 0.365215
    outer loop
      vertex 0.927051 2.85317 4.90607
      vertex 0 3 5
      vertex 0.738164 2.85317 5
    endloop
  endfacet
  facet normal 0.181615 0.913036 0.365214
    outer loop
      vertex 0 3 5
      vertex 0.927051 2.85317 4.90607
      vertex 1.91342 4.6194 0
    endloop
  endfacet
  facet normal -0.913036 0.181615 0.365214
    outer loop
      vertex -2.77164 1.14805 5
      vertex -4.6194 1.91342 0
      vertex -3 0 5
    endloop
  endfacet
  facet normal 0 0 -1
    outer loop
      vertex 3 0 0
      vertex 5 0 0
      vertex 4.6194 -1.91342 0
    endloop
  endfacet
  facet normal 0 0 -1
    outer loop
      vertex 2.42705 -1.76336 0
      vertex 4.6194 -1.91342 0
      vertex 3.53553 -3.53553 0
    endloop
  endfacet
  facet normal 0 0 -1
    outer loop
      vertex 5 0 0
      vertex 3 0 0
      vertex 4.6194 1.91342 0
    endloop
  endfacet
  facet normal 0 0 -1
    outer loop
      vertex 2.42705 1.76336 0
      vertex 4.6194 1.91342 0
      vertex 3 0 0
    endloop
  endfacet
  facet normal 0 0 -1
    outer loop
      vertex 4.6194 -1.91342 0
      vertex 2.42705 -1.76336 0
      vertex 3 0 0
    endloop
  endfacet
  facet normal 0 0 -1
    outer loop
      vertex 0.927051 -2.85317 0
      vertex 3.53553 -3.53553 0
      vertex 1.91342 -4.6194 0
    endloop
  endfacet
  facet normal 0 0 -1
    outer loop
      vertex 3.53553 -3.53553 0
      vertex 0.927051 -2.85317 0
      vertex 2.42705 -1.76336 0
    endloop
  endfacet
  facet normal 0 0 -1
    outer loop
      vertex 0 -5 0
      vertex 0.927051 -2.85317 0
      vertex 1.91342 -4.6194 0
    endloop
  endfacet
  facet normal 0 0 -1
    outer loop
      vertex 0 -5 0
      vertex -0.927051 -2.85317 0
      vertex 0.927051 -2.85317 0
    endloop
  endfacet
  facet normal 0 0 -1
    outer loop
      vertex -1.91342 -4.6194 0
      vertex -0.927051 -2.85317 0
      vertex 0 -5 0
    endloop
  endfacet
  facet normal 0 0 -1
    outer loop
      vertex -3.53553 -3.53553 0
      vertex -0.927051 -2.85317 0
      vertex -1.91342 -4.6194 0
    endloop
  endfacet
  facet normal -0 0 -1
    outer loop
      vertex -0.927051 -2.85317 0
      vertex -3.53553 -3.53553 0
      vertex -2.42705 -1.76336 0
    endloop
  endfacet
  facet normal 0 0 -1
    outer loop
      vertex -4.6194 -1.91342 0
      vertex -2.42705 -1.76336 0
      vertex -3.53553 -3.53553 0
    endloop
  endfacet
  facet normal -0 0 -1
    outer loop
      vertex 4.6194 1.91342 0
      vertex 2.42705 1.76336 0
      vertex 3.53553 3.53553 0
    endloop
  endfacet
  facet normal 0 0 -1
    outer loop
      vertex 0.927051 2.85317 0
      vertex 3.53553 3.53553 0
      vertex 2.42705 1.76336 0
    endloop
  endfacet
  facet normal -0 0 -1
    outer loop
      vertex 3.53553 3.53553 0
      vertex 0.927051 2.85317 0
      vertex 1.91342 4.6194 0
    endloop
  endfacet
  facet normal 0 0 -1
    outer loop
      vertex 0.927051 2.85317 0
      vertex 0 5 0
      vertex 1.91342 4.6194 0
    endloop
  endfacet
  facet normal 0 0 -1
    outer loop
      vertex -0.927051 2.85317 0
      vertex 0 5 0
      vertex 0.927051 2.85317 0
    endloop
  endfacet
  facet normal 0 0 -1
    outer loop
      vertex -0.927051 2.85317 0
      vertex -1.91342 4.6194 0
      vertex 0 5 0
    endloop
  endfacet
  facet normal 0 0 -1
    outer loop
      vertex -3.53553 3.53553 0
      vertex -0.927051 2.85317 0
      vertex -2.42705 1.76336 0
    endloop
  endfacet
  facet normal 0 0 -1
    outer loop
      vertex -4.6194 1.91342 0
      vertex -2.42705 1.76336 0
      vertex -3 0 0
    endloop
  endfacet
  facet normal 0 0 -1
    outer loop
      vertex -0.927051 2.85317 0
      vertex -3.53553 3.53553 0
      vertex -1.91342 4.6194 0
    endloop
  endfacet
  facet normal -0 0 -1
    outer loop
      vertex -2.42705 -1.76336 0
      vertex -4.6194 -1.91342 0
      vertex -3 0 0
    endloop
  endfacet
  facet normal 0 0 -1
    outer loop
      vertex -5 0 0
      vertex -3 0 0
      vertex -4.6194 -1.91342 0
    endloop
  endfacet
  facet normal 0 0 -1
    outer loop
      vertex -2.42705 1.76336 0
      vertex -4.6194 1.91342 0
      vertex -3.53553 3.53553 0
    endloop
  endfacet
  facet normal 0 0 -1
    outer loop
      vertex -3 0 0
      vertex -5 0 0
      vertex -4.6194 1.91342 0
    endloop
  endfacet
  facet normal 0.517193 -0.774035 0.365215
    outer loop
      vertex 3.53553 -3.53553 0
      vertex 1.14805 -2.77164 5
      vertex 1.91342 -4.6194 0
    endloop
  endfacet
  facet normal 0.517193 -0.774035 0.365215
    outer loop
      vertex 2.12132 -2.12132 5
      vertex 1.14805 -2.77164 5
      vertex 3.53553 -3.53553 0
    endloop
  endfacet
  facet normal 0.774035 0.517193 0.365215
    outer loop
      vertex 3.53553 3.53553 0
      vertex 2.77164 1.14805 5
      vertex 4.6194 1.91342 0
    endloop
  endfacet
  facet normal 0.774035 0.517193 0.365215
    outer loop
      vertex 2.42705 1.76336 4.85896
      vertex 2.12132 2.12132 5
      vertex 2.29772 1.85732 5
    endloop
  endfacet
  facet normal 0.774035 0.517193 0.365215
    outer loop
      vertex 2.12132 2.12132 5
      vertex 2.42705 1.76336 4.85896
      vertex 3.53553 3.53553 0
    endloop
  endfacet
  facet normal 0.774035 0.517193 0.365214
    outer loop
      vertex 2.77164 1.14805 5
      vertex 2.42705 1.76336 4.85896
      vertex 2.49004 1.56949 5
    endloop
  endfacet
  facet normal 0.774035 0.517193 0.365215
    outer loop
      vertex 2.42705 1.76336 4.85896
      vertex 2.77164 1.14805 5
      vertex 3.53553 3.53553 0
    endloop
  endfacet
  facet normal -0.181615 0.913036 0.365215
    outer loop
      vertex 0 3 5
      vertex -0.927051 2.85317 4.90607
      vertex -0.738164 2.85317 5
    endloop
  endfacet
  facet normal -0.181615 0.913036 0.365214
    outer loop
      vertex -0.927051 2.85317 4.90607
      vertex 0 3 5
      vertex -1.91342 4.6194 0
    endloop
  endfacet
  facet normal -0.181615 0.913036 0.365215
    outer loop
      vertex -0.927051 2.85317 4.90607
      vertex -1.14805 2.77164 5
      vertex -0.99826 2.80143 5
    endloop
  endfacet
  facet normal -0.181615 0.913036 0.365215
    outer loop
      vertex -1.14805 2.77164 5
      vertex -0.927051 2.85317 4.90607
      vertex -1.91342 4.6194 0
    endloop
  endfacet
  facet normal -0.517193 0.774035 0.365215
    outer loop
      vertex -1.91342 4.6194 0
      vertex -3.53553 3.53553 0
      vertex -1.14805 2.77164 5
    endloop
  endfacet
  facet normal -0.774035 0.517193 0.365215
    outer loop
      vertex -2.42705 1.76336 4.85896
      vertex -2.12132 2.12132 5
      vertex -3.53553 3.53553 0
    endloop
  endfacet
  facet normal -0.774035 0.517193 0.365215
    outer loop
      vertex -2.12132 2.12132 5
      vertex -2.42705 1.76336 4.85896
      vertex -2.29772 1.85732 5
    endloop
  endfacet
  facet normal -0.774035 0.517193 0.365215
    outer loop
      vertex -2.77164 1.14805 5
      vertex -2.42705 1.76336 4.85896
      vertex -3.53553 3.53553 0
    endloop
  endfacet
  facet normal -0.774035 0.517193 0.365214
    outer loop
      vertex -2.42705 1.76336 4.85896
      vertex -2.77164 1.14805 5
      vertex -2.49004 1.56949 5
    endloop
  endfacet
  facet normal -0.774035 0.517193 0.365215
    outer loop
      vertex -3.53553 3.53553 0
      vertex -4.6194 1.91342 0
      vertex -2.77164 1.14805 5
    endloop
  endfacet
  facet normal -0.913036 -0.181615 0.365214
    outer loop
      vertex -3 0 5
      vertex -4.6194 -1.91342 0
      vertex -2.77164 -1.14805 5
    endloop
  endfacet
  facet normal -0.774035 -0.517193 0.365215
    outer loop
      vertex -2.77164 -1.14805 5
      vertex -4.6194 -1.91342 0
      vertex -3.53553 -3.53553 0
    endloop
  endfacet
  facet normal -0.181614 -0.913036 0.365214
    outer loop
      vertex 0 -3 5
      vertex -1.91342 -4.6194 0
      vertex 0 -5 0
    endloop
  endfacet
  facet normal -0.181615 -0.913036 0.365215
    outer loop
      vertex -1.14805 -2.77164 5
      vertex -0.927051 -2.85317 4.90607
      vertex -0.99826 -2.80143 5
    endloop
  endfacet
  facet normal -0.181615 -0.913036 0.365215
    outer loop
      vertex -0.927051 -2.85317 4.90607
      vertex -1.14805 -2.77164 5
      vertex -1.91342 -4.6194 0
    endloop
  endfacet
  facet normal -0.181615 -0.913036 0.365215
    outer loop
      vertex -0.927051 -2.85317 4.90607
      vertex 0 -3 5
      vertex -0.738164 -2.85317 5
    endloop
  endfacet
  facet normal -0.181615 -0.913036 0.365214
    outer loop
      vertex 0 -3 5
      vertex -0.927051 -2.85317 4.90607
      vertex -1.91342 -4.6194 0
    endloop
  endfacet
  facet normal 0.181614 -0.913036 0.365214
    outer loop
      vertex 0 -3 5
      vertex 0 -5 0
      vertex 1.91342 -4.6194 0
    endloop
  endfacet
  facet normal 0.181615 -0.913036 0.365215
    outer loop
      vertex 0 -3 5
      vertex 0.927051 -2.85317 4.90607
      vertex 0.738164 -2.85317 5
    endloop
  endfacet
  facet normal 0.181615 -0.913036 0.365214
    outer loop
      vertex 0.927051 -2.85317 4.90607
      vertex 0 -3 5
      vertex 1.91342 -4.6194 0
    endloop
  endfacet
  facet normal 0.181615 -0.913036 0.365215
    outer loop
      vertex 0.927051 -2.85317 4.90607
      vertex 1.14805 -2.77164 5
      vertex 0.99826 -2.80143 5
    endloop
  endfacet
  facet normal 0.181615 -0.913036 0.365215
    outer loop
      vertex 1.14805 -2.77164 5
      vertex 0.927051 -2.85317 4.90607
      vertex 1.91342 -4.6194 0
    endloop
  endfacet
  facet normal 0.774035 -0.517193 0.365215
    outer loop
      vertex 4.6194 -1.91342 0
      vertex 2.77164 -1.14805 5
      vertex 3.53553 -3.53553 0
    endloop
  endfacet
  facet normal -0.517193 0.774035 0.365215
    outer loop
      vertex -1.14805 2.77164 5
      vertex -3.53553 3.53553 0
      vertex -2.12132 2.12132 5
    endloop
  endfacet
  facet normal -0.774035 -0.517193 0.365214
    outer loop
      vertex -2.77164 -1.14805 5
      vertex -2.42705 -1.76336 4.85896
      vertex -2.49004 -1.56949 5
    endloop
  endfacet
  facet normal -0.774035 -0.517193 0.365215
    outer loop
      vertex -2.42705 -1.76336 4.85896
      vertex -2.12132 -2.12132 5
      vertex -2.29772 -1.85732 5
    endloop
  endfacet
  facet normal -0.774035 -0.517193 0.365215
    outer loop
      vertex -2.42705 -1.76336 4.85896
      vertex -3.53553 -3.53553 0
      vertex -2.12132 -2.12132 5
    endloop
  endfacet
  facet normal -0.774035 -0.517193 0.365215
    outer loop
      vertex -3.53553 -3.53553 0
      vertex -2.42705 -1.76336 4.85896
      vertex -2.77164 -1.14805 5
    endloop
  endfacet
  facet normal -0.517193 -0.774035 0.365215
    outer loop
      vertex -2.12132 -2.12132 5
      vertex -3.53553 -3.53553 0
      vertex -1.14805 -2.77164 5
    endloop
  endfacet
  facet normal 0.913036 -0.181615 0.365214
    outer loop
      vertex 3 0 5
      vertex 2.77164 -1.14805 5
      vertex 4.6194 -1.91342 0
    endloop
  endfacet
  facet normal 0.986361 0.164595 0
    outer loop
      vertex 6 0 -5
      vertex 5.6749 1.9482 -7
      vertex 5.6749 1.9482 -5
    endloop
  endfacet
  facet normal 0.986361 0.164595 0
    outer loop
      vertex 5.6749 1.9482 -7
      vertex 6 0 -5
      vertex 6 0 -7
    endloop
  endfacet
  facet normal -1 0 0
    outer loop
      vertex -5.91817 -0.987567 -7
      vertex -5.91817 0.987567 -5
      vertex -5.91817 0.987567 -7
    endloop
  endfacet
  facet normal -1 -0 0
    outer loop
      vertex -5.91817 0.987567 -5
      vertex -5.91817 -0.987567 -7
      vertex -5.91817 -0.987567 -5
    endloop
  endfacet
  facet normal 0.401695 0.915773 -0
    outer loop
      vertex 3.28169 5.023 -7
      vertex 1.47291 5.8164 -5
      vertex 3.28169 5.023 -5
    endloop
  endfacet
  facet normal 0.401695 0.915773 0
    outer loop
      vertex 1.47291 5.8164 -5
      vertex 3.28169 5.023 -7
      vertex 1.47291 5.8164 -7
    endloop
  endfacet
  facet normal 0.401695 -0.915773 0
    outer loop
      vertex 1.47291 -5.8164 -7
      vertex 3.28169 -5.023 -5
      vertex 1.47291 -5.8164 -5
    endloop
  endfacet
  facet normal 0.401695 -0.915773 0
    outer loop
      vertex 3.28169 -5.023 -5
      vertex 1.47291 -5.8164 -7
      vertex 3.28169 -5.023 -7
    endloop
  endfacet
  facet normal -0.245486 -0.9694 0
    outer loop
      vertex -2.41017 -5.49464 -7
      vertex -0.495476 -5.97951 -5
      vertex -2.41017 -5.49464 -5
    endloop
  endfacet
  facet normal -0.245486 -0.9694 -0
    outer loop
      vertex -0.495476 -5.97951 -5
      vertex -2.41017 -5.49464 -7
      vertex -0.495476 -5.97951 -7
    endloop
  endfacet
  facet normal 0.677282 0.735724 -0
    outer loop
      vertex 4.73484 3.68528 -7
      vertex 3.28169 5.023 -5
      vertex 4.73484 3.68528 -5
    endloop
  endfacet
  facet normal 0.677282 0.735724 0
    outer loop
      vertex 3.28169 5.023 -5
      vertex 4.73484 3.68528 -7
      vertex 3.28169 5.023 -7
    endloop
  endfacet
  facet normal 0.879474 0.475947 0
    outer loop
      vertex 5.6749 1.9482 -5
      vertex 4.73484 3.68528 -7
      vertex 4.73484 3.68528 -5
    endloop
  endfacet
  facet normal 0.879474 0.475947 0
    outer loop
      vertex 4.73484 3.68528 -7
      vertex 5.6749 1.9482 -5
      vertex 5.6749 1.9482 -7
    endloop
  endfacet
  facet normal 0.0825792 0.996585 -0
    outer loop
      vertex 1.47291 5.8164 -7
      vertex -0.495476 5.97951 -5
      vertex 1.47291 5.8164 -5
    endloop
  endfacet
  facet normal 0.0825792 0.996585 0
    outer loop
      vertex -0.495476 5.97951 -5
      vertex 1.47291 5.8164 -7
      vertex -0.495476 5.97951 -7
    endloop
  endfacet
  facet normal -0.245486 0.9694 0
    outer loop
      vertex -0.495476 5.97951 -7
      vertex -2.41017 5.49464 -5
      vertex -0.495476 5.97951 -5
    endloop
  endfacet
  facet normal -0.245486 0.9694 0
    outer loop
      vertex -2.41017 5.49464 -5
      vertex -0.495476 5.97951 -7
      vertex -2.41017 5.49464 -7
    endloop
  endfacet
  facet normal -0.945817 -0.324699 0
    outer loop
      vertex -5.27684 -2.85568 -7
      vertex -5.91817 -0.987567 -5
      vertex -5.91817 -0.987567 -7
    endloop
  endfacet
  facet normal -0.945817 -0.324699 0
    outer loop
      vertex -5.91817 -0.987567 -5
      vertex -5.27684 -2.85568 -7
      vertex -5.27684 -2.85568 -5
    endloop
  endfacet
  facet normal -0.546948 -0.837166 0
    outer loop
      vertex -4.06369 -4.41434 -7
      vertex -2.41017 -5.49464 -5
      vertex -4.06369 -4.41434 -5
    endloop
  endfacet
  facet normal -0.546948 -0.837166 -0
    outer loop
      vertex -2.41017 -5.49464 -5
      vertex -4.06369 -4.41434 -7
      vertex -2.41017 -5.49464 -7
    endloop
  endfacet
  facet normal 0 0 -1
    outer loop
      vertex 3 0 -7
      vertex 6 0 -7
      vertex 5.6749 -1.9482 -7
    endloop
  endfacet
  facet normal 0 0 -1
    outer loop
      vertex 2.42705 -1.76336 -7
      vertex 5.6749 -1.9482 -7
      vertex 4.73484 -3.68528 -7
    endloop
  endfacet
  facet normal 0 0 -1
    outer loop
      vertex 6 0 -7
      vertex 3 0 -7
      vertex 5.6749 1.9482 -7
    endloop
  endfacet
  facet normal 0 0 -1
    outer loop
      vertex 2.42705 -1.76336 -7
      vertex 4.73484 -3.68528 -7
      vertex 3.28169 -5.023 -7
    endloop
  endfacet
  facet normal 0 0 -1
    outer loop
      vertex 2.42705 1.76336 -7
      vertex 5.6749 1.9482 -7
      vertex 3 0 -7
    endloop
  endfacet
  facet normal -0 0 -1
    outer loop
      vertex 5.6749 1.9482 -7
      vertex 2.42705 1.76336 -7
      vertex 4.73484 3.68528 -7
    endloop
  endfacet
  facet normal 0 0 -1
    outer loop
      vertex 5.6749 -1.9482 -7
      vertex 2.42705 -1.76336 -7
      vertex 3 0 -7
    endloop
  endfacet
  facet normal 0 0 -1
    outer loop
      vertex 0.927051 -2.85317 -7
      vertex 3.28169 -5.023 -7
      vertex 1.47291 -5.8164 -7
    endloop
  endfacet
  facet normal 0 0 -1
    outer loop
      vertex 3.28169 -5.023 -7
      vertex 0.927051 -2.85317 -7
      vertex 2.42705 -1.76336 -7
    endloop
  endfacet
  facet normal 0 0 -1
    outer loop
      vertex -0.495476 -5.97951 -7
      vertex 0.927051 -2.85317 -7
      vertex 1.47291 -5.8164 -7
    endloop
  endfacet
  facet normal 0 0 -1
    outer loop
      vertex -0.495476 -5.97951 -7
      vertex -0.927051 -2.85317 -7
      vertex 0.927051 -2.85317 -7
    endloop
  endfacet
  facet normal 0 0 -1
    outer loop
      vertex -2.41017 -5.49464 -7
      vertex -0.927051 -2.85317 -7
      vertex -0.495476 -5.97951 -7
    endloop
  endfacet
  facet normal 0 0 -1
    outer loop
      vertex -4.06369 -4.41434 -7
      vertex -0.927051 -2.85317 -7
      vertex -2.41017 -5.49464 -7
    endloop
  endfacet
  facet normal -0 0 -1
    outer loop
      vertex -0.927051 -2.85317 -7
      vertex -4.06369 -4.41434 -7
      vertex -2.42705 -1.76336 -7
    endloop
  endfacet
  facet normal 0 0 -1
    outer loop
      vertex -5.27684 -2.85568 -7
      vertex -2.42705 -1.76336 -7
      vertex -4.06369 -4.41434 -7
    endloop
  endfacet
  facet normal -0 0 -1
    outer loop
      vertex 4.73484 3.68528 -7
      vertex 2.42705 1.76336 -7
      vertex 3.28169 5.023 -7
    endloop
  endfacet
  facet normal 0 0 -1
    outer loop
      vertex 0.927051 2.85317 -7
      vertex 3.28169 5.023 -7
      vertex 2.42705 1.76336 -7
    endloop
  endfacet
  facet normal -0 0 -1
    outer loop
      vertex 3.28169 5.023 -7
      vertex 0.927051 2.85317 -7
      vertex 1.47291 5.8164 -7
    endloop
  endfacet
  facet normal 0 0 -1
    outer loop
      vertex 0.927051 2.85317 -7
      vertex -0.495476 5.97951 -7
      vertex 1.47291 5.8164 -7
    endloop
  endfacet
  facet normal 0 0 -1
    outer loop
      vertex -0.927051 2.85317 -7
      vertex -0.495476 5.97951 -7
      vertex 0.927051 2.85317 -7
    endloop
  endfacet
  facet normal 0 0 -1
    outer loop
      vertex -0.927051 2.85317 -7
      vertex -2.41017 5.49464 -7
      vertex -0.495476 5.97951 -7
    endloop
  endfacet
  facet normal 0 0 -1
    outer loop
      vertex -4.06369 4.41434 -7
      vertex -0.927051 2.85317 -7
      vertex -2.42705 1.76336 -7
    endloop
  endfacet
  facet normal 0 0 -1
    outer loop
      vertex -5.91817 0.987567 -7
      vertex -2.42705 1.76336 -7
      vertex -3 0 -7
    endloop
  endfacet
  facet normal 0 0 -1
    outer loop
      vertex -5.91817 -0.987567 -7
      vertex -2.42705 -1.76336 -7
      vertex -5.27684 -2.85568 -7
    endloop
  endfacet
  facet normal 0 0 -1
    outer loop
      vertex -0.927051 2.85317 -7
      vertex -4.06369 4.41434 -7
      vertex -2.41017 5.49464 -7
    endloop
  endfacet
  facet normal 0 0 -1
    outer loop
      vertex -2.42705 -1.76336 -7
      vertex -5.91817 -0.987567 -7
      vertex -3 0 -7
    endloop
  endfacet
  facet normal 0 0 -1
    outer loop
      vertex -2.42705 1.76336 -7
      vertex -5.27684 2.85568 -7
      vertex -4.06369 4.41434 -7
    endloop
  endfacet
  facet normal 0 0 -1
    outer loop
      vertex -5.91817 0.987567 -7
      vertex -3 0 -7
      vertex -5.91817 -0.987567 -7
    endloop
  endfacet
  facet normal -0 0 -1
    outer loop
      vertex -2.42705 1.76336 -7
      vertex -5.91817 0.987567 -7
      vertex -5.27684 2.85568 -7
    endloop
  endfacet
  facet normal 0 0 1
    outer loop
      vertex 3 0 -5
      vertex 6 0 -5
      vertex 5.6749 1.9482 -5
    endloop
  endfacet
  facet normal 0 0 1
    outer loop
      vertex 2.42705 1.76336 -5
      vertex 5.6749 1.9482 -5
      vertex 4.73484 3.68528 -5
    endloop
  endfacet
  facet normal 0 0 1
    outer loop
      vertex 6 0 -5
      vertex 3 0 -5
      vertex 5.6749 -1.9482 -5
    endloop
  endfacet
  facet normal 0 0 1
    outer loop
      vertex 2.42705 1.76336 -5
      vertex 4.73484 3.68528 -5
      vertex 3.28169 5.023 -5
    endloop
  endfacet
  facet normal -0 0 1
    outer loop
      vertex 2.42705 -1.76336 -5
      vertex 5.6749 -1.9482 -5
      vertex 3 0 -5
    endloop
  endfacet
  facet normal 0 0 1
    outer loop
      vertex 5.6749 -1.9482 -5
      vertex 2.42705 -1.76336 -5
      vertex 4.73484 -3.68528 -5
    endloop
  endfacet
  facet normal 0 0 1
    outer loop
      vertex 5.6749 1.9482 -5
      vertex 2.42705 1.76336 -5
      vertex 3 0 -5
    endloop
  endfacet
  facet normal 0 0 1
    outer loop
      vertex 0.927051 2.85317 -5
      vertex 3.28169 5.023 -5
      vertex 1.47291 5.8164 -5
    endloop
  endfacet
  facet normal 0 0 1
    outer loop
      vertex 3.28169 5.023 -5
      vertex 0.927051 2.85317 -5
      vertex 2.42705 1.76336 -5
    endloop
  endfacet
  facet normal 0 0 1
    outer loop
      vertex -0.495476 5.97951 -5
      vertex 0.927051 2.85317 -5
      vertex 1.47291 5.8164 -5
    endloop
  endfacet
  facet normal 0 0 1
    outer loop
      vertex -0.495476 5.97951 -5
      vertex -0.927051 2.85317 -5
      vertex 0.927051 2.85317 -5
    endloop
  endfacet
  facet normal -0 0 1
    outer loop
      vertex -2.41017 5.49464 -5
      vertex -0.927051 2.85317 -5
      vertex -0.495476 5.97951 -5
    endloop
  endfacet
  facet normal -0 0 1
    outer loop
      vertex -4.06369 4.41434 -5
      vertex -0.927051 2.85317 -5
      vertex -2.41017 5.49464 -5
    endloop
  endfacet
  facet normal 0 0 1
    outer loop
      vertex -0.927051 2.85317 -5
      vertex -4.06369 4.41434 -5
      vertex -2.42705 1.76336 -5
    endloop
  endfacet
  facet normal -0 0 1
    outer loop
      vertex -5.27684 2.85568 -5
      vertex -2.42705 1.76336 -5
      vertex -4.06369 4.41434 -5
    endloop
  endfacet
  facet normal 0 0 1
    outer loop
      vertex 4.73484 -3.68528 -5
      vertex 2.42705 -1.76336 -5
      vertex 3.28169 -5.023 -5
    endloop
  endfacet
  facet normal -0 0 1
    outer loop
      vertex 0.927051 -2.85317 -5
      vertex 3.28169 -5.023 -5
      vertex 2.42705 -1.76336 -5
    endloop
  endfacet
  facet normal 0 0 1
    outer loop
      vertex 3.28169 -5.023 -5
      vertex 0.927051 -2.85317 -5
      vertex 1.47291 -5.8164 -5
    endloop
  endfacet
  facet normal 0 0 1
    outer loop
      vertex 0.927051 -2.85317 -5
      vertex -0.495476 -5.97951 -5
      vertex 1.47291 -5.8164 -5
    endloop
  endfacet
  facet normal -0 0 1
    outer loop
      vertex -0.927051 -2.85317 -5
      vertex -0.495476 -5.97951 -5
      vertex 0.927051 -2.85317 -5
    endloop
  endfacet
  facet normal 0 0 1
    outer loop
      vertex -0.927051 -2.85317 -5
      vertex -2.41017 -5.49464 -5
      vertex -0.495476 -5.97951 -5
    endloop
  endfacet
  facet normal 0 0 1
    outer loop
      vertex -4.06369 -4.41434 -5
      vertex -0.927051 -2.85317 -5
      vertex -2.42705 -1.76336 -5
    endloop
  endfacet
  facet normal -0 0 1
    outer loop
      vertex -5.91817 -0.987567 -5
      vertex -2.42705 -1.76336 -5
      vertex -3 0 -5
    endloop
  endfacet
  facet normal 0 0 1
    outer loop
      vertex -5.91817 0.987567 -5
      vertex -2.42705 1.76336 -5
      vertex -5.27684 2.85568 -5
    endloop
  endfacet
  facet normal 0 0 1
    outer loop
      vertex -0.927051 -2.85317 -5
      vertex -4.06369 -4.41434 -5
      vertex -2.41017 -5.49464 -5
    endloop
  endfacet
  facet normal 0 0 1
    outer loop
      vertex -2.42705 1.76336 -5
      vertex -5.91817 0.987567 -5
      vertex -3 0 -5
    endloop
  endfacet
  facet normal 0 0 1
    outer loop
      vertex -2.42705 -1.76336 -5
      vertex -5.27684 -2.85568 -5
      vertex -4.06369 -4.41434 -5
    endloop
  endfacet
  facet normal 0 0 1
    outer loop
      vertex -5.91817 -0.987567 -5
      vertex -3 0 -5
      vertex -5.91817 0.987567 -5
    endloop
  endfacet
  facet normal 0 0 1
    outer loop
      vertex -2.42705 -1.76336 -5
      vertex -5.91817 -0.987567 -5
      vertex -5.27684 -2.85568 -5
    endloop
  endfacet
  facet normal -0.945817 0.324699 0
    outer loop
      vertex -5.91817 0.987567 -7
      vertex -5.27684 2.85568 -5
      vertex -5.27684 2.85568 -7
    endloop
  endfacet
  facet normal -0.945817 0.324699 0
    outer loop
      vertex -5.27684 2.85568 -5
      vertex -5.91817 0.987567 -7
      vertex -5.91817 0.987567 -5
    endloop
  endfacet
  facet normal -0.546948 0.837166 0
    outer loop
      vertex -2.41017 5.49464 -7
      vertex -4.06369 4.41434 -5
      vertex -2.41017 5.49464 -5
    endloop
  endfacet
  facet normal -0.546948 0.837166 0
    outer loop
      vertex -4.06369 4.41434 -5
      vertex -2.41017 5.49464 -7
      vertex -4.06369 4.41434 -7
    endloop
  endfacet
  facet normal -0.78914 0.614213 0
    outer loop
      vertex -5.27684 2.85568 -7
      vertex -4.06369 4.41434 -5
      vertex -4.06369 4.41434 -7
    endloop
  endfacet
  facet normal -0.78914 0.614213 0
    outer loop
      vertex -4.06369 4.41434 -5
      vertex -5.27684 2.85568 -7
      vertex -5.27684 2.85568 -5
    endloop
  endfacet
  facet normal 0.677282 -0.735724 0
    outer loop
      vertex 3.28169 -5.023 -7
      vertex 4.73484 -3.68528 -5
      vertex 3.28169 -5.023 -5
    endloop
  endfacet
  facet normal 0.677282 -0.735724 0
    outer loop
      vertex 4.73484 -3.68528 -5
      vertex 3.28169 -5.023 -7
      vertex 4.73484 -3.68528 -7
    endloop
  endfacet
  facet normal 0.986361 -0.164595 0
    outer loop
      vertex 5.6749 -1.9482 -5
      vertex 6 0 -7
      vertex 6 0 -5
    endloop
  endfacet
  facet normal 0.986361 -0.164595 0
    outer loop
      vertex 6 0 -7
      vertex 5.6749 -1.9482 -5
      vertex 5.6749 -1.9482 -7
    endloop
  endfacet
  facet normal 0.0825792 -0.996585 0
    outer loop
      vertex -0.495476 -5.97951 -7
      vertex 1.47291 -5.8164 -5
      vertex -0.495476 -5.97951 -5
    endloop
  endfacet
  facet normal 0.0825792 -0.996585 0
    outer loop
      vertex 1.47291 -5.8164 -5
      vertex -0.495476 -5.97951 -7
      vertex 1.47291 -5.8164 -7
    endloop
  endfacet
  facet normal -0.78914 -0.614213 0
    outer loop
      vertex -4.06369 -4.41434 -7
      vertex -5.27684 -2.85568 -5
      vertex -5.27684 -2.85568 -7
    endloop
  endfacet
  facet normal -0.78914 -0.614213 0
    outer loop
      vertex -5.27684 -2.85568 -5
      vertex -4.06369 -4.41434 -7
      vertex -4.06369 -4.41434 -5
    endloop
  endfacet
  facet normal 0.879474 -0.475947 0
    outer loop
      vertex 4.73484 -3.68528 -5
      vertex 5.6749 -1.9482 -7
      vertex 5.6749 -1.9482 -5
    endloop
  endfacet
  facet normal 0.879474 -0.475947 0
    outer loop
      vertex 5.6749 -1.9482 -7
      vertex 4.73484 -3.68528 -5
      vertex 4.73484 -3.68528 -7
    endloop
  endfacet
  facet normal -0.939693 -0.34202 0
    outer loop
      vertex 2.55 0 -11
      vertex 1.95341 1.63911 5
      vertex 1.95341 1.63911 -11
    endloop
  endfacet
  facet normal -0.939693 -0.34202 0
    outer loop
      vertex 1.95341 1.63911 5
      vertex 2.55 0 -11
      vertex 2.55 0 5
    endloop
  endfacet
  facet normal 1 -0 0
    outer loop
      vertex -2.39622 -0.87215 5
      vertex -2.39622 0.87215 -11
      vertex -2.39622 0.87215 5
    endloop
  endfacet
  facet normal 1 0 0
    outer loop
      vertex -2.39622 0.87215 -11
      vertex -2.39622 -0.87215 5
      vertex -2.39622 -0.87215 -11
    endloop
  endfacet
  facet normal 0.173648 -0.984808 0
    outer loop
      vertex -1.275 2.20836 -11
      vertex 0.442802 2.51126 5
      vertex -1.275 2.20836 5
    endloop
  endfacet
  facet normal 0.173648 -0.984808 0
    outer loop
      vertex 0.442802 2.51126 5
      vertex -1.275 2.20836 -11
      vertex 0.442802 2.51126 -11
    endloop
  endfacet
  facet normal -0.5 -0.866025 0
    outer loop
      vertex 0.442802 2.51126 -11
      vertex 1.95341 1.63911 5
      vertex 0.442802 2.51126 5
    endloop
  endfacet
  facet normal -0.5 -0.866025 -0
    outer loop
      vertex 1.95341 1.63911 5
      vertex 0.442802 2.51126 -11
      vertex 1.95341 1.63911 -11
    endloop
  endfacet
  facet normal 0.766045 -0.642787 0
    outer loop
      vertex -2.39622 0.87215 5
      vertex -1.275 2.20836 -11
      vertex -1.275 2.20836 5
    endloop
  endfacet
  facet normal 0.766045 -0.642787 0
    outer loop
      vertex -1.275 2.20836 -11
      vertex -2.39622 0.87215 5
      vertex -2.39622 0.87215 -11
    endloop
  endfacet
  facet normal -0.5 0.866025 0
    outer loop
      vertex 1.95341 -1.63911 -11
      vertex 0.442802 -2.51126 5
      vertex 1.95341 -1.63911 5
    endloop
  endfacet
  facet normal -0.5 0.866025 0
    outer loop
      vertex 0.442802 -2.51126 5
      vertex 1.95341 -1.63911 -11
      vertex 0.442802 -2.51126 -11
    endloop
  endfacet
  facet normal 0.766045 0.642787 0
    outer loop
      vertex -1.275 -2.20836 5
      vertex -2.39622 -0.87215 -11
      vertex -2.39622 -0.87215 5
    endloop
  endfacet
  facet normal 0.766045 0.642787 0
    outer loop
      vertex -2.39622 -0.87215 -11
      vertex -1.275 -2.20836 5
      vertex -1.275 -2.20836 -11
    endloop
  endfacet
  facet normal -0.939693 0.34202 0
    outer loop
      vertex 1.95341 -1.63911 -11
      vertex 2.55 0 5
      vertex 2.55 0 -11
    endloop
  endfacet
  facet normal -0.939693 0.34202 0
    outer loop
      vertex 2.55 0 5
      vertex 1.95341 -1.63911 -11
      vertex 1.95341 -1.63911 5
    endloop
  endfacet
  facet normal 0.173648 0.984808 -0
    outer loop
      vertex 0.442802 -2.51126 -11
      vertex -1.275 -2.20836 5
      vertex 0.442802 -2.51126 5
    endloop
  endfacet
  facet normal 0.173648 0.984808 0
    outer loop
      vertex -1.275 -2.20836 5
      vertex 0.442802 -2.51126 -11
      vertex -1.275 -2.20836 -11
    endloop
  endfacet
endsolid OpenSCAD_Model
