<?xml version="1.0" encoding="UTF-8" standalone="no"?>
<!-- Created with Inkscape (http://www.inkscape.org/) -->

<svg
   xmlns:dc="http://purl.org/dc/elements/1.1/"
   xmlns:cc="http://creativecommons.org/ns#"
   xmlns:rdf="http://www.w3.org/1999/02/22-rdf-syntax-ns#"
   xmlns:svg="http://www.w3.org/2000/svg"
   xmlns="http://www.w3.org/2000/svg"
   xmlns:sodipodi="http://sodipodi.sourceforge.net/DTD/sodipodi-0.dtd"
   xmlns:inkscape="http://www.inkscape.org/namespaces/inkscape"
   width="2161.4172"
   height="1080.7086"
   id="svg2"
   version="1.1"
   inkscape:version="0.91 r13725"
   sodipodi:docname="Tapis pour bobine imp3D.svg">
  <sodipodi:namedview
     id="base"
     pagecolor="#ffffff"
     bordercolor="#666666"
     borderopacity="1.0"
     inkscape:pageopacity="0.0"
     inkscape:pageshadow="2"
     inkscape:zoom="1.4"
     inkscape:cx="487.06889"
     inkscape:cy="775.4395"
     inkscape:document-units="mm"
     inkscape:current-layer="layer1"
     showgrid="false"
     inkscape:window-width="1440"
     inkscape:window-height="838"
     inkscape:window-x="-8"
     inkscape:window-y="-8"
     inkscape:window-maximized="1"
     showguides="true"
     inkscape:guide-bbox="true"
     units="mm">
    <sodipodi:guide
       orientation="0,1"
       position="282.1875,245.71429"
       id="guide3090" />
  </sodipodi:namedview>
  <defs
     id="defs4" />
  <metadata
     id="metadata7">
    <rdf:RDF>
      <cc:Work
         rdf:about="">
        <dc:format>image/svg+xml</dc:format>
        <dc:type
           rdf:resource="http://purl.org/dc/dcmitype/StillImage" />
        <dc:title />
      </cc:Work>
    </rdf:RDF>
  </metadata>
  <g
     id="layer1"
     inkscape:groupmode="layer"
     inkscape:label="Calque 1"
     transform="translate(0,28.34645)">
    <path
       style="fill:none;stroke:#ff0000;stroke-width:0.03543307;stroke-miterlimit:4;stroke-dasharray:none;stroke-opacity:1"
       d="m 228.875,626.77855 0,47.875 -0.0625,0 0,16.8125 -37.46875,0 0,19.28125 549.21875,0 0,-19.28125 -37.5,0 0,-16.8125 -0.0625,0 0,-47.875 -233.875,0 0,24.5 122.375,0 c 2.94449,0 5.34375,2.36801 5.34375,5.3125 0,2.94449 -2.39926,5.34375 -5.34375,5.34375 l -251.125,0 c -2.94449,0 -5.34375,-2.39926 -5.34375,-5.34375 0,-2.94449 2.39926,-5.3125 5.34375,-5.3125 l 122.375,0 0,-24.5 z m 35.71875,54.05724 37.3125,0 0,10.63026 -37.3125,0 z m 73.0625,0 37.34375,0 0,10.63026 -37.34375,0 z m 73.09375,0 37.3125,0 0,10.63026 -37.3125,0 z m 73.0625,0 37.34375,0 0,10.63026 -37.34375,0 z m 73.09375,0 37.3125,0 0,10.63026 -37.3125,0 z m 73.0625,0 37.34375,0 0,10.63026 -37.34375,0 z"
       id="path2990"
       inkscape:connector-curvature="0"
       sodipodi:nodetypes="ccccccccccccccssssssccccccccccccccccccccccccccccccccc" />
    <path
       id="path3006"
       inkscape:label="part"
       style="fill:none;stroke:#ff0000;stroke-width:0.03543307;stroke-miterlimit:4;stroke-dasharray:none;stroke-opacity:1"
       d="m 191.33858,162.9744 37.80709,0 0,10.62989 35.11417,0 0,-10.62989 37.96654,0 0,10.62989 35.11417,0 0,-10.62989 37.96654,0 0,10.62989 35.11417,0 0,-10.62989 37.96654,0 0,10.62989 35.11417,0 0,-10.62989 37.96653,0 0,10.62989 35.11418,0 0,-10.62989 37.96653,0 0,10.62989 35.11418,0 0,-10.62989 37.96653,0 0,10.62989 35.11417,0 0,-10.62989 37.80709,0"
       inkscape:connector-curvature="0"
       sodipodi:nodetypes="cccccccccccccccccccccccccccccc" />
    <path
       id="path3008"
       inkscape:label="part"
       style="fill:none;stroke:#ff0000;stroke-width:0.03543307;stroke-miterlimit:4;stroke-dasharray:none;stroke-opacity:1"
       d="m 740.55118,162.99209 0,451.41732"
       inkscape:connector-curvature="0"
       sodipodi:nodetypes="cc" />
    <path
       id="path3010"
       inkscape:label="part"
       style="fill:none;stroke:#ff0000;stroke-width:0.03543307;stroke-miterlimit:4;stroke-dasharray:none;stroke-opacity:1"
       d="m 740.55118,614.40941 -37.80709,0 0,-10.62988 -35.11417,0 0,10.62988 -37.96653,0 0,-10.62988 -35.11418,0 0,10.62988 -37.96653,0 0,-10.62988 -35.11418,0 0,10.62988 -37.96653,0 0,-10.62988 -35.11417,0 0,10.62988 -37.96654,0 0,-10.62988 -35.11417,0 0,10.62988 -37.96654,0 0,-10.62988 -35.11417,0 0,10.62988 -37.96654,0 0,-10.62988 -35.11417,0 0,10.62988 -37.80709,0"
       inkscape:connector-curvature="0"
       sodipodi:nodetypes="cccccccccccccccccccccccccccccc" />
    <path
       id="path3012"
       inkscape:label="part"
       style="fill:none;stroke:#ff0000;stroke-width:0.03543307;stroke-miterlimit:4;stroke-dasharray:none;stroke-opacity:1"
       d="m 191.33858,614.40941 0,-451.41732"
       inkscape:connector-curvature="0"
       sodipodi:nodetypes="cc" />
    <g
       id="g4143"
       transform="matrix(0.99999882,0,0,1.0000004,-1.0618963e-4,-24.000073)">
      <path
         sodipodi:nodetypes="cccccccccccccccccccccccccccccc"
         inkscape:connector-curvature="0"
         d="m 740.55118,167.95276 -37.48819,0 0,10.62988 -35.75197,0 0,-10.62988 -37.32874,0 0,10.62988 -35.75197,0 0,-10.62988 -37.32874,0 0,10.62988 -35.75196,0 0,-10.62988 -37.32874,0 0,10.62988 -35.75197,0 0,-10.62988 -37.32874,0 0,10.62988 -35.75197,0 0,-10.62988 -37.32874,0 0,10.62988 -35.75197,0 0,-10.62988 -37.32874,0 0,10.62988 -35.75197,0 0,-10.62988 -37.48819,0"
         style="fill:none;stroke:#ff0000;stroke-width:0.03543307;stroke-miterlimit:4;stroke-dasharray:none;stroke-opacity:1"
         inkscape:label="part"
         id="path3034" />
      <path
         sodipodi:nodetypes="cccccccc"
         inkscape:connector-curvature="0"
         d="m 191.33858,167.95276 0,-19.29331 16.29921,0 0,-45.90358 516.61418,0 0,45.90358 16.29921,0 0,19.29331"
         style="fill:none;stroke:#ff0000;stroke-width:0.03543307;stroke-miterlimit:4;stroke-dasharray:none;stroke-opacity:1"
         inkscape:label="part"
         id="path3036" />
    </g>
    <g
       id="g3117"
       transform="translate(18.439938,0)"
       style="fill:none;stroke:#ff0000;stroke-opacity:1;stroke-width:0.03543307;stroke-miterlimit:4;stroke-dasharray:none" />
  </g>
  <g
     id="g3038"
     inkscape:groupmode="layer"
     inkscape:label="newlayer"
     transform="translate(0,28.34645)" />
</svg>
