<?xml version="1.0" encoding="UTF-8" standalone="no"?>
<!-- Created with Inkscape (http://www.inkscape.org/) -->

<svg
   xmlns:dc="http://purl.org/dc/elements/1.1/"
   xmlns:cc="http://creativecommons.org/ns#"
   xmlns:rdf="http://www.w3.org/1999/02/22-rdf-syntax-ns#"
   xmlns:svg="http://www.w3.org/2000/svg"
   xmlns="http://www.w3.org/2000/svg"
   xmlns:sodipodi="http://sodipodi.sourceforge.net/DTD/sodipodi-0.dtd"
   xmlns:inkscape="http://www.inkscape.org/namespaces/inkscape"
   width="300mm"
   height="500mm"
   viewBox="0 0 1062.9921 1771.6535"
   id="svg2"
   version="1.1"
   inkscape:version="0.91 r13725"
   sodipodi:docname="tux.svg">
  <defs
     id="defs4">
    <linearGradient
       id="al"
       x1="129.342"
       gradientUnits="userSpaceOnUse"
       x2="195.59801"
       gradientTransform="matrix(1,0,0,-1,8.3999,368.3)"
       y1="259.30499"
       y2="259.30499">
      <stop
         stop-color="#FAC700"
         offset="0"
         id="stop6540" />
      <stop
         stop-color="#F7C400"
         offset=".415"
         id="stop6542" />
      <stop
         stop-color="#F7C400"
         offset="1"
         id="stop6544" />
    </linearGradient>
    <linearGradient
       id="am"
       x1="129.293"
       gradientUnits="userSpaceOnUse"
       x2="195.554"
       gradientTransform="matrix(1,0,0,-1,8.3999,368.3)"
       y1="259.311"
       y2="259.311">
      <stop
         stop-color="#F6C200"
         offset="0"
         id="stop6549" />
      <stop
         stop-color="#EFBC00"
         offset=".415"
         id="stop6551" />
      <stop
         stop-color="#EFBC00"
         offset="1"
         id="stop6553" />
    </linearGradient>
    <linearGradient
       id="an"
       x1="129.245"
       gradientUnits="userSpaceOnUse"
       x2="195.50999"
       gradientTransform="matrix(1,0,0,-1,8.3999,368.3)"
       y1="259.31699"
       y2="259.31699">
      <stop
         stop-color="#F1BD00"
         offset="0"
         id="stop6558" />
      <stop
         stop-color="#E8B500"
         offset=".415"
         id="stop6560" />
      <stop
         stop-color="#E8B500"
         offset="1"
         id="stop6562" />
    </linearGradient>
    <linearGradient
       id="ao"
       x1="129.196"
       gradientUnits="userSpaceOnUse"
       x2="195.465"
       gradientTransform="matrix(1,0,0,-1,8.3999,368.3)"
       y1="259.32199"
       y2="259.32199">
      <stop
         stop-color="#EDB800"
         offset="0"
         id="stop6567" />
      <stop
         stop-color="#E0AD00"
         offset=".415"
         id="stop6569" />
      <stop
         stop-color="#E0AD00"
         offset="1"
         id="stop6571" />
    </linearGradient>
    <linearGradient
       id="ap"
       x1="129.14799"
       gradientUnits="userSpaceOnUse"
       x2="195.422"
       gradientTransform="matrix(1,0,0,-1,8.3999,368.3)"
       y1="259.327"
       y2="259.327">
      <stop
         stop-color="#E9B300"
         offset="0"
         id="stop6576" />
      <stop
         stop-color="#D8A500"
         offset=".415"
         id="stop6578" />
      <stop
         stop-color="#D8A500"
         offset="1"
         id="stop6580" />
    </linearGradient>
    <linearGradient
       id="aq"
       x1="129.099"
       gradientUnits="userSpaceOnUse"
       x2="195.379"
       gradientTransform="matrix(1,0,0,-1,8.3999,368.3)"
       y1="259.332"
       y2="259.332">
      <stop
         stop-color="#E4AE00"
         offset="0"
         id="stop6585" />
      <stop
         stop-color="#D19E00"
         offset=".415"
         id="stop6587" />
      <stop
         stop-color="#D19E00"
         offset="1"
         id="stop6589" />
    </linearGradient>
    <linearGradient
       id="ar"
       x1="129.05099"
       gradientUnits="userSpaceOnUse"
       x2="195.338"
       gradientTransform="matrix(1,0,0,-1,8.3999,368.3)"
       y1="259.336"
       y2="259.336">
      <stop
         stop-color="#E0A900"
         offset="0"
         id="stop6594" />
      <stop
         stop-color="#C99600"
         offset=".415"
         id="stop6596" />
      <stop
         stop-color="#C99600"
         offset="1"
         id="stop6598" />
    </linearGradient>
    <linearGradient
       id="w"
       x1="129.00301"
       gradientUnits="userSpaceOnUse"
       x2="195.29601"
       gradientTransform="matrix(1,0,0,-1,8.3999,368.3)"
       y1="259.34"
       y2="259.34">
      <stop
         stop-color="#DCA400"
         offset="0"
         id="stop6603" />
      <stop
         stop-color="#C18E00"
         offset=".415"
         id="stop6605" />
      <stop
         stop-color="#C18E00"
         offset="1"
         id="stop6607" />
    </linearGradient>
    <linearGradient
       id="x"
       x1="128.95399"
       gradientUnits="userSpaceOnUse"
       x2="195.255"
       gradientTransform="matrix(1,0,0,-1,8.3999,368.3)"
       y1="259.34299"
       y2="259.34299">
      <stop
         stop-color="#D79F00"
         offset="0"
         id="stop6612" />
      <stop
         stop-color="#BA8700"
         offset=".415"
         id="stop6614" />
      <stop
         stop-color="#BA8700"
         offset="1"
         id="stop6616" />
    </linearGradient>
    <linearGradient
       id="y"
       x1="128.90601"
       gradientUnits="userSpaceOnUse"
       x2="195.216"
       gradientTransform="matrix(1,0,0,-1,8.3999,368.3)"
       y1="259.34799"
       y2="259.34799">
      <stop
         stop-color="#D39B00"
         offset="0"
         id="stop6621" />
      <stop
         stop-color="#B27F00"
         offset=".415"
         id="stop6623" />
      <stop
         stop-color="#B27F00"
         offset="1"
         id="stop6625" />
    </linearGradient>
    <linearGradient
       id="z"
       x1="128.85699"
       gradientUnits="userSpaceOnUse"
       x2="195.17599"
       gradientTransform="matrix(1,0,0,-1,8.3999,368.3)"
       y1="259.35001"
       y2="259.35001">
      <stop
         stop-color="#CF9600"
         offset="0"
         id="stop6630" />
      <stop
         stop-color="#a70"
         offset=".415"
         id="stop6632" />
      <stop
         stop-color="#a70"
         offset="1"
         id="stop6634" />
    </linearGradient>
    <linearGradient
       id="aa"
       x1="128.80901"
       gradientUnits="userSpaceOnUse"
       x2="195.13699"
       gradientTransform="matrix(1,0,0,-1,8.3999,368.3)"
       y1="259.354"
       y2="259.354">
      <stop
         stop-color="#CA9100"
         offset="0"
         id="stop6639" />
      <stop
         stop-color="#A37000"
         offset=".415"
         id="stop6641" />
      <stop
         stop-color="#A37000"
         offset="1"
         id="stop6643" />
    </linearGradient>
    <linearGradient
       id="ab"
       x1="128.75999"
       gradientUnits="userSpaceOnUse"
       x2="195.099"
       gradientTransform="matrix(1,0,0,-1,8.3999,368.3)"
       y1="259.35599"
       y2="259.35599">
      <stop
         stop-color="#C68C00"
         offset="0"
         id="stop6648" />
      <stop
         stop-color="#9B6800"
         offset=".415"
         id="stop6650" />
      <stop
         stop-color="#9B6800"
         offset="1"
         id="stop6652" />
    </linearGradient>
    <linearGradient
       id="ac"
       x1="128.71201"
       gradientUnits="userSpaceOnUse"
       x2="195.062"
       gradientTransform="matrix(1,0,0,-1,8.3999,368.3)"
       y1="259.358"
       y2="259.358">
      <stop
         stop-color="#C28700"
         offset="0"
         id="stop6657" />
      <stop
         stop-color="#936000"
         offset=".415"
         id="stop6659" />
      <stop
         stop-color="#936000"
         offset="1"
         id="stop6661" />
    </linearGradient>
    <linearGradient
       id="ad"
       x1="128.66299"
       gradientUnits="userSpaceOnUse"
       x2="195.02499"
       gradientTransform="matrix(1,0,0,-1,8.3999,368.3)"
       y1="259.35999"
       y2="259.35999">
      <stop
         stop-color="#BD8200"
         offset="0"
         id="stop6666" />
      <stop
         stop-color="#8C5900"
         offset=".415"
         id="stop6668" />
      <stop
         stop-color="#8C5900"
         offset="1"
         id="stop6670" />
    </linearGradient>
    <linearGradient
       id="ae"
       x1="128.61501"
       gradientUnits="userSpaceOnUse"
       x2="194.989"
       gradientTransform="matrix(1,0,0,-1,8.3999,368.3)"
       y1="259.362"
       y2="259.362">
      <stop
         stop-color="#B97D00"
         offset="0"
         id="stop6675" />
      <stop
         stop-color="#845100"
         offset=".415"
         id="stop6677" />
      <stop
         stop-color="#845100"
         offset="1"
         id="stop6679" />
    </linearGradient>
    <linearGradient
       id="af"
       x1="128.567"
       gradientUnits="userSpaceOnUse"
       x2="194.95399"
       gradientTransform="matrix(1,0,0,-1,8.3999,368.3)"
       y1="259.36401"
       y2="259.36401">
      <stop
         stop-color="#B57800"
         offset="0"
         id="stop6684" />
      <stop
         stop-color="#7C4900"
         offset=".415"
         id="stop6686" />
      <stop
         stop-color="#7C4900"
         offset="1"
         id="stop6688" />
    </linearGradient>
    <linearGradient
       id="ah"
       x1="128.51801"
       gradientUnits="userSpaceOnUse"
       x2="194.918"
       gradientTransform="matrix(1,0,0,-1,8.3999,368.3)"
       y1="259.366"
       y2="259.366">
      <stop
         stop-color="#B07300"
         offset="0"
         id="stop6693" />
      <stop
         stop-color="#754200"
         offset=".415"
         id="stop6695" />
      <stop
         stop-color="#754200"
         offset="1"
         id="stop6697" />
    </linearGradient>
    <linearGradient
       id="ai"
       x1="128.47"
       gradientUnits="userSpaceOnUse"
       x2="194.886"
       gradientTransform="matrix(1,0,0,-1,8.3999,368.3)"
       y1="259.367"
       y2="259.367">
      <stop
         stop-color="#AC6E00"
         offset="0"
         id="stop6702" />
      <stop
         stop-color="#6D3A00"
         offset=".415"
         id="stop6704" />
      <stop
         stop-color="#6D3A00"
         offset="1"
         id="stop6706" />
    </linearGradient>
    <linearGradient
       id="aj"
       x1="128.42101"
       gradientUnits="userSpaceOnUse"
       x2="194.85001"
       gradientTransform="matrix(1,0,0,-1,8.3999,368.3)"
       y1="259.36899"
       y2="259.36899">
      <stop
         stop-color="#A86A00"
         offset="0"
         id="stop6711" />
      <stop
         stop-color="#663200"
         offset=".415"
         id="stop6713" />
      <stop
         stop-color="#663200"
         offset="1"
         id="stop6715" />
    </linearGradient>
    <filter
       style="color-interpolation-filters:sRGB"
       inkscape:label="Drop Shadow"
       id="filter22635">
      <feFlood
         flood-opacity="1"
         flood-color="rgb(214,214,214)"
         result="flood"
         id="feFlood22637" />
      <feComposite
         in="flood"
         in2="SourceGraphic"
         operator="in"
         result="composite1"
         id="feComposite22639" />
      <feGaussianBlur
         in="composite1"
         stdDeviation="3"
         result="blur"
         id="feGaussianBlur22641" />
      <feOffset
         dx="7"
         dy="7"
         result="offset"
         id="feOffset22643" />
      <feComposite
         in="SourceGraphic"
         in2="offset"
         operator="over"
         result="composite2"
         id="feComposite22645" />
    </filter>
  </defs>
  <sodipodi:namedview
     id="base"
     pagecolor="#ffffff"
     bordercolor="#666666"
     borderopacity="1.0"
     inkscape:pageopacity="0.0"
     inkscape:pageshadow="2"
     inkscape:zoom="0.49497475"
     inkscape:cx="130.87514"
     inkscape:cy="1047.6981"
     inkscape:document-units="mm"
     inkscape:current-layer="layer1"
     showgrid="false"
     inkscape:window-width="1680"
     inkscape:window-height="995"
     inkscape:window-x="-2"
     inkscape:window-y="-3"
     inkscape:window-maximized="1" />
  <metadata
     id="metadata7">
    <rdf:RDF>
      <cc:Work
         rdf:about="">
        <dc:format>image/svg+xml</dc:format>
        <dc:type
           rdf:resource="http://purl.org/dc/dcmitype/StillImage" />
        <dc:title></dc:title>
      </cc:Work>
    </rdf:RDF>
  </metadata>
  <g
     inkscape:label="Calque 1"
     inkscape:groupmode="layer"
     id="layer1"
     transform="translate(0,719.29134)">
    <path
       style="fill:none;stroke:#000000;stroke-width:0.2767899;stroke-opacity:1"
       d="m 54.490017,-18.870225 c -2.401469,0.01413 -5.166989,0.555505 -8.130165,2.093764 -7.652962,3.985775 -6.656426,12.5953674 -5.401186,29.833844 0.318863,4.643427 -4.124954,7.731996 -7.971223,13.810301 -3.846272,6.058377 -4.26448,11.001129 -7.174373,16.003 -2.813655,4.837175 -2.396534,4.517074 -1.357461,8.669144 0.859622,-0.834009 1.732359,-1.472654 3.130647,-1.438552 2.052674,0.06007 5.639796,5.201875 7.453323,8.031773 1.813526,2.869758 2.251959,3.666664 4.982217,7.991229 2.73026,4.324565 5.14138,5.440694 5.201166,9.187044 0.05078,3.199209 -0.396386,3.301154 -1.701828,4.307004 0.144155,-0.0095 0.28037,-0.04106 0.407079,-0.09839 4.204714,-1.89352 2.749691,-1.295416 9.465995,-1.693717 6.51744,-0.384526 8.466615,-0.689426 14.464437,0.863886 -0.274365,-0.916304 -0.439216,-2.035343 -0.396263,-3.34094 0.07972,-3.009259 1.036143,-5.760128 1.494231,-10.443413 0.199566,-2.012539 0.179487,-4.503556 0.179487,-6.715937 0,-2.790044 0.04005,-5.161678 0.637914,-5.520122 1.076437,-0.677581 1.315133,-0.717382 2.590581,-0.717382 1.275169,0 1.853659,0.07939 2.272165,0.497896 1.388425,2.015175 3.070238,2.28829 5.629402,2.491572 2.323146,0.212926 3.916978,-0.622178 6.806139,-1.833115 0.130711,0 0.743016,-0.195186 1.356919,-0.02594 0.588662,-1.390926 1.042471,-2.653106 1.295291,-3.695037 C 91.239107,43.249596 86.495996,32.62708 81.952772,26.189776 77.408987,19.75275 73.682314,15.767448 71.848857,7.6367451 69.995472,-0.51416454 72.307211,1.8373738 70.673042,-5.2772335 c -0.797155,-3.547338 -2.212018,-6.3573285 -3.7864,-8.2107145 -1.57438,-1.893243 -3.686966,-2.969442 -4.723268,-3.527449 -1.431764,-0.769131 -4.163513,-1.87542 -7.673351,-1.854817 z"
       id="path5077"
       inkscape:connector-curvature="0"
       sodipodi:nodetypes="ccccccccscccccccscscccccccccccc" />
    <path
       style="fill:none;stroke:#000000;stroke-width:0.2767899;stroke-opacity:1"
       d="m 45.415958,-4.2219835 c -0.274644,-0.00248 -0.532648,0.02395 -0.756847,0.063789 -0.518152,0.079717 -1.195072,0.7372024 -1.653713,1.7137169 -0.298934,0.6576533 -0.53824,1.49476582 -0.558446,2.37163569 -0.0598,2.35160711 0.139571,3.24843111 0.67738,4.84274031 0.264333,0.7762589 0.687134,1.3956178 1.172574,1.8256265 0.175897,-0.1450723 0.357656,-0.296109 0.54763,-0.4605949 0.85722,-0.757298 2.411552,-2.0125704 3.487988,-2.5705773 0.26067,-0.13029 0.496019,-0.2180152 0.721165,-0.2811167 0.242507,-0.5903846 0.399308,-1.2572969 0.388697,-2.33973927 0,-1.99288743 -0.618125,-2.67050443 -1.554781,-3.96588193 -0.6726,-0.9266921 -1.647712,-1.1921289 -2.471647,-1.1996022 z"
       id="path5081"
       inkscape:connector-curvature="0" />
    <path
       style="fill:none;stroke:#000000;stroke-width:0.2767899;stroke-opacity:1"
       d="m 45.356489,-0.94916174 c -0.637722,0 -1.096048,0.25884974 -1.454768,0.81685662 C 43.383571,0.62499279 43.5233,1.4819849 43.5233,2.0798504 c 0,0.956587 0.657641,2.112488 0.87686,2.3516338 0.494968,0.5104383 0.644546,0.8860296 1.002282,1.0298547 0.659479,-0.5491337 1.466025,-1.1749613 2.19756,-1.6445211 0.09647,-0.5230108 0.128113,-1.1115581 0.128113,-1.6769599 0,-0.8569425 -0.279266,-1.61460898 -0.657915,-2.15268848 -0.358442,-0.53807949 -1.115853,-0.93633116 -1.71372,-0.93633116 z"
       id="path5123"
       inkscape:connector-curvature="0" />
    <path
       style="fill:none;stroke:#000000;stroke-width:0.2767899;stroke-opacity:1"
       d="m 58.282903,-4.9355841 c -2.445494,0.022613 -3.637797,1.8211938 -4.21672,3.1290253 -0.657653,1.51459396 -0.518559,1.29532206 -0.478977,3.2084942 0.017,0.8479032 0.229142,1.4368592 0.520064,1.9299579 0.501156,0.1484145 0.946321,0.3395314 1.26015,0.5714217 0.85694,0.637724 1.454668,0.9762069 2.231617,1.2352839 1.393469,0.4573463 3.015064,0.7865454 4.204288,1.3493498 0.853539,-0.5923269 1.311323,-1.4419585 1.608841,-2.5549012 0.478569,-1.7935983 0.498918,-3.78635205 -0.836316,-6.1180318 -1.255518,-2.2317563 -1.973135,-2.5910928 -3.78694,-2.730596 -0.174369,-0.014897 -0.342973,-0.021505 -0.506007,-0.020015 z"
       id="path5171"
       inkscape:connector-curvature="0" />
    <path
       style="fill:none;stroke:#000000;stroke-width:0.2767899;stroke-opacity:1"
       d="m 58.589428,-1.0291692 c -0.637724,0 -1.394961,0.0992549 -1.813191,0.55790564 -0.558011,0.61779477 -0.876861,1.39502198 -0.876861,2.49110836 0,0.7073458 0.0543,1.6210032 0.249759,2.3073024 0.517843,0.3339603 0.976459,0.5605852 1.51964,0.7417097 0.384883,0.1263175 0.787934,0.2421347 1.194199,0.3562598 0.680482,-0.120588 1.413225,-0.5185513 1.859139,-1.1131051 0.478293,-0.6177948 0.657475,-1.5149415 0.537904,-2.2921668 -0.298934,-1.71388115 -1.175922,-3.049014 -2.670589,-3.049014 z"
       id="path5213"
       inkscape:connector-curvature="0" />
    <path
       style="fill:none;stroke:#000000;stroke-width:0.2767899;stroke-opacity:1"
       d="m 62.795336,11.431243 c -0.502243,0.999927 -1.346445,1.614498 -2.71546,2.04727 -1.873316,0.577936 -5.220715,3.826404 -7.811745,3.826404 -1.155874,0 -2.770273,0.05983 -3.706931,-0.278951 -0.896799,-0.318863 -2.152186,-1.833352 -3.626922,-3.049012 -0.749379,-0.607608 -1.472044,-1.236652 -2.007807,-1.927258 -0.03363,0.110466 -0.05458,0.251913 -0.06054,0.432482 -0.07972,2.550898 0.05947,2.51104 0.05947,4.982221 0,1.654095 -0.75747,1.773724 -2.39164,4.264833 -0.837011,1.315306 -1.494521,2.730485 -2.012671,4.165363 -0.318863,0.856943 -0.617711,1.753715 -0.856859,2.630583 -0.09966,0.438437 -0.278779,0.896862 -0.378423,1.335297 -0.817084,3.009261 -3.726729,6.715689 -4.40431,9.72495 -0.677582,2.989331 -1.474945,4.90265 -1.375301,8.908631 0.09966,4.005705 0.13963,2.849689 1.355298,3.846408 1.195731,0.996722 2.431058,1.932618 4.324299,3.606919 1.992888,1.733813 6.138748,4.762945 6.696478,5.699603 0.597868,0.956585 0.577667,3.10889 0.218947,3.806402 -0.358719,0.67758 -3.487374,1.056344 -3.467445,1.056344 -0.01965,0 2.730146,3.786495 3.268502,4.3243 0.51815,0.518427 2.750065,3.00952 11.837631,1.315293 5.121721,-0.95631 9.087893,-3.826079 11.957651,-6.596468 0.568711,-0.553382 0.993615,-1.040054 1.328265,-1.484503 0.125286,-1.841308 0.110275,-3.963882 0.110275,-5.87854 0,-2.790042 0.04005,-5.161678 0.637915,-5.520122 1.076436,-0.677581 1.315131,-0.717383 2.590579,-0.717383 0.539678,0 0.949423,0.01681 1.280152,0.06486 0.09009,-0.225204 0.221988,-0.47261 0.430324,-0.812531 0.577936,-0.87687 0.438431,-2.610793 0.438431,-4.204827 0,-4.14548 -0.47872,-8.370307 -1.435307,-11.479213 C 72.201322,32.610984 70.806208,30.578413 69.610752,27.9478 67.219009,22.706508 67.33883,20.35508 65.206441,17.00703 63.587094,14.432008 63.575526,12.433045 62.79534,11.431227 Z"
       id="path5305"
       inkscape:connector-curvature="0" />
    <path
       id="path5347"
       d="m 51.036449,2.9563975 c 1.454806,-0.1793541 3.447695,0.1793541 4.364699,0.8569406 0.856942,0.6377259 1.45481,0.9765144 2.231758,1.2355914 2.610959,0.8569406 6.038448,1.2555188 5.879018,3.6071259 -0.179354,2.8096946 -0.996446,4.0654906 -3.328122,4.8025816 -1.873315,0.577936 -5.221089,3.826343 -7.812119,3.826343 -1.155874,0 -2.770113,0.0598 -3.706771,-0.279005 -0.896799,-0.318861 -2.152318,-1.833455 -3.627053,-3.049117 -1.474737,-1.195733 -2.84983,-2.471181 -2.889411,-4.1452052 -0.06007,-1.7733921 1.096088,-2.3516071 2.729979,-3.7662796 0.857219,-0.7572979 2.411393,-2.0128167 3.487831,-2.5708255 0.996164,-0.4979459 1.63389,-0.3982994 2.670191,-0.5181502 z"
       inkscape:connector-curvature="0"
       style="fill:none;stroke:#000000;stroke-width:0.2767899;stroke-opacity:1" />
    <path
       style="fill:none;stroke:#000000;stroke-width:0.2767899;stroke-opacity:1"
       inkscape:connector-curvature="0"
       d="m 89.419787,53.794953 c 1.235595,1.793321 -0.04009,4.125276 0.856944,5.560431 1.474734,2.351608 4.44414,4.722867 5.580086,5.380519 0.81708,0.498222 1.972959,0.976239 1.932819,2.431045 -0.05976,1.654374 -0.876868,2.092811 -1.334953,2.551173 -0.917005,0.917005 -5.540506,3.20855 -8.60927,5.30108 -3.866207,2.650541 -5.201443,3.826344 -6.456962,5.081586 -1.953027,1.953306 -3.806413,2.610682 -6.775813,2.610682 -2.969402,0 -4.304638,-0.617519 -5.221087,-1.434878 -0.917006,-0.797155 -1.933102,-2.830176 -1.833457,-5.859089 0.07972,-3.009258 1.0363,-5.759721 1.494387,-10.443006 0.199567,-2.012539 0.179355,-4.50365 0.179355,-6.716029 0,-2.790044 0.03986,-5.16158 0.637724,-5.520021 1.076436,-0.677582 1.315304,-0.717439 2.590754,-0.717439 1.27517,0 1.853385,0.178284 2.271892,0.596796 1.444254,1.647775 2.670461,2.200167 5.679018,2.342869 3.009123,0.04805 3.831469,-0.546507 6.756599,-1.783516 0.199008,0 1.514595,-0.458362 2.251958,0.617797 z"
       id="path5833"
       sodipodi:nodetypes="cccccccscccscscccc" />
    <path
       style="fill:none;stroke:#000000;stroke-width:0.2767899;stroke-opacity:1"
       inkscape:connector-curvature="0"
       d="m 19.907607,56.864274 c -1.793323,1.295378 -6.337384,1.175804 -7.493256,2.690123 -1.135947,1.514871 0.04015,3.707047 0.01994,7.772258 0,1.73409 -0.298933,3.049396 -0.49822,4.105349 -0.279007,1.335234 -0.458367,2.272169 0.09966,3.228477 1.016371,1.694233 2.650263,2.112738 11.997181,4.06549 5.002146,1.036303 9.725288,3.726698 12.893978,3.985498 3.168691,0.239425 3.846274,-0.816807 5.779374,-2.530967 1.913172,-1.713883 2.530967,-1.175803 2.471181,-4.94236 -0.0598,-3.746352 -2.471181,-4.862368 -5.201435,-9.186933 -2.730268,-4.324567 -3.168705,-5.121722 -4.982231,-7.991479 -1.813525,-2.829899 -5.400722,-7.971548 -7.453397,-8.031613 -1.634168,-0.03986 -2.550896,0.837014 -3.567268,1.873593 -1.016373,1.036577 -2.271891,3.666912 -4.06549,4.962564 z"
       id="path6009" />
    <path
       style="fill:none;stroke:#000000;stroke-width:0.2767899;stroke-opacity:1"
       inkscape:connector-curvature="0"
       d="M 61.939704,8.7191321 C 60.73716,9.5193634 61.547323,8.9704876 60.73716,9.5193634 59.656019,10.288562 58.730432,10.94649 57.091284,11.876228 c -1.754294,0.917837 -4.45023,2.434092 -7.901799,2.229266 -1.81076,-0.265442 -1.817402,-0.283433 -2.935633,-0.854173 -0.664296,-0.479401 -2.186917,-1.275448 -2.737176,-1.874975"
       id="path6537"
       sodipodi:nodetypes="cccccc" />
    <path
       style="fill:none;stroke:#0000ff;stroke-width:0.0098075;stroke-miterlimit:4;stroke-dasharray:none;stroke-opacity:1"
       d="m 54.47542,-32.379852 a 9.2268006,9.2268006 0 0 0 -9.226511,9.22705 9.2268006,9.2268006 0 0 0 2.038623,5.772041 c -0.301356,0.138006 -0.604632,0.283494 -0.910378,0.442218 -7.652968,3.985775 -6.656431,12.5953661 -5.401189,29.833843 0.318863,4.643426 -4.124949,7.732536 -7.971223,13.810843 -3.846272,6.058375 -4.26502,11.000584 -7.174913,16.002454 -2.791161,4.798506 -2.401362,4.527739 -1.380707,8.575622 -0.152368,0.147192 -0.30487,0.298565 -0.458974,0.45573 -1.016373,1.03658 -2.271752,3.666563 -4.065351,4.962215 -1.793321,1.295378 -6.337452,1.175735 -7.493328,2.690052 -1.135945,1.514871 0.0402,3.70707 0.02002,7.772282 0,1.734091 -0.29915,3.049405 -0.498439,4.105358 -0.279002,1.335234 -0.457995,2.272188 0.100019,3.228496 0.979778,1.633232 2.603925,2.094486 11.087812,3.873976 l 0,31.304282 63.22865,0 0,-33.779174 c 0.455049,-0.322167 0.9425,-0.662619 1.49315,-1.040124 3.068773,-2.092536 7.692137,-4.38417 8.609142,-5.301175 0.458085,-0.458362 1.275504,-0.896742 1.33529,-2.551116 0.04016,-1.454808 -1.116121,-1.93288 -1.933201,-2.431101 C 94.73796,63.916267 91.768516,61.544882 90.293775,59.193274 89.396708,57.758117 90.67251,55.42647 89.436922,53.63315 89.154094,53.220382 88.786545,53.03381 88.429226,52.960096 89.025808,51.554052 89.486685,50.277044 89.741824,49.225594 91.256412,43.0875 86.513309,32.465525 81.970077,26.028222 77.426299,19.591197 73.699624,15.605352 71.866167,7.4746503 70.012783,-0.67625932 72.324518,1.675279 70.690351,-5.4393283 c -0.797155,-3.5473418 -2.212018,-6.3573287 -3.786396,-8.2107147 -1.574382,-1.893241 -3.68697,-2.96944 -4.72327,-3.527447 -0.142991,-0.07681 -0.308424,-0.158498 -0.476813,-0.24057 a 9.2268006,9.2268006 0 0 0 1.998617,-5.734742 9.2268006,9.2268006 0 0 0 -9.227052,-9.22705 z"
       id="path5077-5"
       inkscape:connector-curvature="0" />
    <path
       style="fill:none;fill-rule:evenodd;stroke:#000000;stroke-width:0.2767899px;stroke-linecap:butt;stroke-linejoin:miter;stroke-opacity:1"
       d="m 57.551069,27.734317 c 0,0 5.672658,-0.08527 7.828804,0.768902 2.722068,1.078351 5.801699,5.801699 5.801699,5.801699"
       id="path10337"
       inkscape:connector-curvature="0"
       sodipodi:nodetypes="csc" />
    <path
       style="fill:none;fill-rule:evenodd;stroke:#000000;stroke-width:0.2767899px;stroke-linecap:butt;stroke-linejoin:miter;stroke-opacity:1"
       d="m 47.34567,27.035317 c 0,0 1.914669,0.879211 1.99215,1.537804 0,0 1.572751,-1.537804 2.551351,-1.537804"
       id="path10339"
       inkscape:connector-curvature="0"
       sodipodi:nodetypes="csc" />
    <path
       style="fill:none;fill-rule:evenodd;stroke:#000000;stroke-width:0.23585394px;stroke-linecap:butt;stroke-linejoin:miter;stroke-opacity:1"
       d="m 47.16592,40.167782 c 0,0 -0.811102,5.948439 -0.760407,7.767964 0.05071,1.819524 0.760407,7.208108 0.760407,7.208108"
       id="path10341"
       inkscape:connector-curvature="0" />
    <path
       style="fill:none;fill-rule:evenodd;stroke:#000000;stroke-width:0.2767899px;stroke-linecap:butt;stroke-linejoin:miter;stroke-opacity:1"
       d="m 37.599112,29.018189 c 0,0 0.706221,-1.152855 1.645558,-1.412904 0.939339,-0.260049 2.37951,-0.372457 2.37951,-0.372457"
       id="path10569"
       inkscape:connector-curvature="0"
       sodipodi:nodetypes="czc" />
    <path
       style="font-style:normal;font-variant:normal;font-weight:500;font-stretch:normal;font-size:134.79359436px;line-height:125%;font-family:PWTinselLetters;-inkscape-font-specification:'PWTinselLetters, Medium';text-align:start;letter-spacing:0px;word-spacing:0px;writing-mode:lr-tb;text-anchor:start;fill:none;fill-opacity:1;stroke:#000000;stroke-width:0.18698029;stroke-linecap:butt;stroke-linejoin:miter;stroke-miterlimit:4;stroke-dasharray:none;stroke-opacity:1"
       d="m 34.717823,93.480697 c 0.04526,0.635827 0.05265,1.589378 0.0225,2.861033 -0.01509,1.252957 -0.05294,2.038479 -0.113273,2.356393 -0.135772,0.691939 -0.31678,1.337147 -0.543089,1.935577 -0.226312,0.57973 -0.445148,0.93483 -0.65637,1.06573 -0.120703,0.0749 -0.324322,0.094 -0.610979,0.0563 -0.271571,-0.0374 -0.47519,-0.1123 -0.610978,-0.22451 -0.512965,-0.37402 -0.920205,-1.27171 -1.221953,-2.692964 -0.211222,-0.991136 -0.31694,-2.01961 -0.31694,-3.085555 0,-0.673223 -0.218839,-1.01012 -0.65637,-1.01012 -0.211222,0 -0.384812,0.08441 -0.520599,0.25273 -0.105615,0.112299 -0.165679,0.22437 -0.180748,0.336573 -0.01509,0.112109 -0.01509,0.439572 0,0.981912 0,0.916327 0.09051,1.851257 0.271544,2.804998 0.181054,0.953746 0.407291,1.729756 0.678863,2.328186 0.13579,0.29922 0.339407,0.62656 0.61098,0.98189 0.271569,0.35531 0.497812,0.58915 0.67886,0.70136 0.890153,0.56101 1.765511,0.57964 2.625486,0.0562 0.452615,-0.26183 0.859855,-0.88841 1.221951,-1.87957 0.3621,-0.97245 0.603561,-2.075812 0.72426,-3.310053 0.06035,-0.61715 0.07517,-1.589321 0.04498,-2.917088 -0.03018,-1.346464 -0.09024,-2.58103 -0.180749,-3.703067 -0.105595,-1.178158 -0.181302,-2.11309 -0.22656,-2.805019 -0.03017,-0.561026 -0.07542,-0.925647 -0.135771,-1.093955 -0.506525,-2.282558 -1.084732,-1.946568 -1.221724,-0.691462 -0.187662,1.719399 0.19045,5.229243 0.316711,6.6945 z"
       id="path4280"
       inkscape:connector-curvature="0"
       sodipodi:nodetypes="ccccccccsscccssscccsccccsc" />
    <path
       style="font-style:normal;font-variant:normal;font-weight:500;font-stretch:normal;font-size:134.79359436px;line-height:125%;font-family:PWTinselLetters;-inkscape-font-specification:'PWTinselLetters, Medium';text-align:start;letter-spacing:0px;word-spacing:0px;writing-mode:lr-tb;text-anchor:start;fill:none;fill-opacity:1;stroke:#000000;stroke-width:0.20938443px;stroke-linecap:butt;stroke-linejoin:miter;stroke-opacity:1"
       d="m 46.181959,93.854454 c -0.03017,0.0191 -0.294262,-0.271007 -0.792143,-0.869421 -0.482797,-0.61713 -0.995749,-1.318637 -1.538893,-2.104073 -0.528057,-0.729332 -0.905264,-1.224734 -1.131575,-1.486548 -0.22631,-0.280513 -0.422524,-0.448956 -0.588486,-0.505058 -0.196138,-0.07481 -0.392351,-0.05619 -0.588485,0.05602 -0.181054,0.112204 -0.294172,0.290163 -0.339432,0.533276 -0.03017,0.149599 -0.0074,0.766685 0.06788,1.851329 0.06035,1.140754 0.113426,2.730018 0.158671,4.768421 0.07544,2.54331 0.128093,4.18925 0.158269,4.9373 0.03018,0.74804 0.08285,1.18755 0.158269,1.31845 0.120703,0.24312 0.301696,0.3644 0.543093,0.3644 0.256484,0.0191 0.452698,-0.0934 0.588487,-0.33657 0.06035,-0.11211 0.09079,-0.38331 0.09079,-0.81343 0,-0.41142 -0.02261,-1.729994 -0.06788,-3.95539 -0.07544,-3.02954 -0.128495,-4.74048 -0.158671,-5.133183 l -0.04498,-0.561095 0.271547,0.392589 c 0.875063,1.271674 1.523765,2.1321 1.946209,2.580915 l 0.39061,0.40189 c 0.680184,0.61438 0.850814,0.649292 1.329048,0.411477 0.211228,-0.112299 0.505751,-0.495453 0.882932,-1.149978 0.377186,-0.673242 1.018072,-1.916918 1.923311,-3.730898 l 1.018705,-2.047631 0.045,0.729166 c 0.04526,0.542323 0.06788,2.861228 0.06788,6.956712 l 0,6.199336 0.203655,0.28055 c 0.120703,0.18698 0.279478,0.28054 0.475616,0.28054 0.196134,0.0191 0.361909,-0.0653 0.497698,-0.25231 l 0.181168,-0.22454 0.0225,-5.890968 c 0.03018,-5.198844 -0.04511,-8.415023 -0.226151,-9.649279 -0.06035,-0.430118 -0.136038,-0.738864 -0.22656,-0.925871 -0.09053,-0.20571 -0.226269,-0.355118 -0.407323,-0.448622 -0.316829,-0.130902 -0.618352,-0.0096 -0.90501,0.364378 -0.271577,0.374016 -0.807152,1.36523 -1.606782,2.973504 -0.709103,1.439963 -1.199436,2.431183 -1.471005,2.973505 l -0.61139,1.178206 z"
       id="path4283"
       inkscape:connector-curvature="0"
       sodipodi:nodetypes="cccccccccscccscccccccccccscccccccccccccc" />
    <path
       style="font-style:normal;font-variant:normal;font-weight:500;font-stretch:normal;font-size:134.79359436px;line-height:125%;font-family:PWTinselLetters;-inkscape-font-specification:'PWTinselLetters, Medium';text-align:start;letter-spacing:0px;word-spacing:0px;writing-mode:lr-tb;text-anchor:start;fill:none;fill-opacity:1;stroke:#000000;stroke-width:0.20938443px;stroke-linecap:butt;stroke-linejoin:miter;stroke-opacity:1"
       d="m 60.050707,87.515105 c 0,0 -0.428485,0.149637 -0.715144,0.261847 -1.116463,0.411418 -1.961381,1.065746 -2.534699,1.963389 -0.241396,0.336614 -0.362331,0.635841 -0.362331,0.897651 0,0.542325 0.226651,0.813412 0.679269,0.813412 0.226312,0 0.399491,-0.09358 0.520192,-0.280542 0.55823,-0.84154 1.274804,-1.42096 2.149869,-1.738872 0.618582,-0.224411 1.282502,-0.364713 1.991606,-0.420816 0.694019,-0.0374 1.327908,0.03711 1.901226,0.224109 0.573318,0.168315 0.995777,0.430282 1.267349,0.785598 0.105615,0.130902 0.165679,0.243063 0.180748,0.33657 0.03018,0.07481 0.0454,0.243244 0.0454,0.505058 0,0.76674 -0.339365,1.579993 -1.018294,2.440228 -0.663843,0.841537 -1.621882,1.673831 -2.874129,2.496671 -0.422446,0.2805 -1.403106,0.888482 -2.942017,1.823526 -1.538904,0.916347 -2.331169,1.374482 -2.376429,1.374482 -0.105615,0 -0.241357,0.04679 -0.40732,0.140374 -0.165966,0.09339 -0.301706,0.186974 -0.407317,0.280538 -0.347009,0.392722 -0.444912,0.813212 -0.294037,1.262032 0.09053,0.26182 0.218456,0.43025 0.384416,0.50506 0.165967,0.0749 0.558391,0.12146 1.176969,0.14037 1.463471,0.0374 3.960378,0.56094 7.490812,1.5708 0.739276,0.20571 1.161731,0.30876 1.267346,0.30876 0.105615,0 0.233951,-0.0844 0.384824,-0.25275 0.150878,-0.14954 0.226155,-0.34578 0.226155,-0.5889 0,-0.35531 -0.09051,-0.59866 -0.271549,-0.72956 -0.165966,-0.11211 -0.641072,-0.28025 -1.425612,-0.50466 -1.961352,-0.5423 -3.651184,-0.95371 -5.069393,-1.234224 -0.528055,-0.112109 -0.792144,-0.177616 -0.792144,-0.196295 0,-0.03743 0.626076,-0.439686 1.878327,-1.206414 1.40312,-0.841519 2.459468,-1.533515 3.168575,-2.075856 0.724192,-0.561018 1.342453,-1.15947 1.855422,-1.795298 0.96559,-1.23426 1.455923,-2.496557 1.471009,-3.786909 0,-0.336619 -0.0149,-0.57956 -0.045,-0.729168 -0.01509,-0.149599 -0.07555,-0.355297 -0.181168,-0.617111 -0.347009,-0.878937 -1.048367,-1.505532 -2.104479,-1.879549 -0.663843,-0.243111 -1.410856,-0.364788 -2.24066,-0.364788 -0.704654,-0.03136 -1.441731,0.148644 -1.977814,0.271428 z"
       id="path4285"
       inkscape:connector-curvature="0"
       sodipodi:nodetypes="cccssccccccscccssccsccscscccsccccccccc" />
    <path
       style="font-style:normal;font-variant:normal;font-weight:500;font-stretch:normal;font-size:134.79359436px;line-height:125%;font-family:PWTinselLetters;-inkscape-font-specification:'PWTinselLetters, Medium';text-align:start;letter-spacing:0px;word-spacing:0px;writing-mode:lr-tb;text-anchor:start;fill:none;fill-opacity:1;stroke:#000000;stroke-width:0.20938443px;stroke-linecap:butt;stroke-linejoin:miter;stroke-opacity:1"
       d="m 74.621443,87.66449 c -0.08199,0.430062 -0.309603,2.150628 -1.018707,5.72249 -0.648754,3.216552 -1.13127,6.049892 -1.448103,8.4997 -0.181054,1.32776 -0.241518,2.08513 -0.181168,2.27215 0.09053,0.2805 0.27152,0.44854 0.543089,0.50466 0.286661,0.0561 0.595999,-0.0279 0.92792,-0.25233 0.256483,-0.16826 0.414852,-0.25233 0.475203,-0.25233 0.150879,0 1.252471,-0.40228 3.304348,-1.20642 1.146636,-0.43012 1.945894,-0.71982 2.398517,-0.86942 0.60349,-0.18697 0.96589,-0.32731 1.086589,-0.42082 0.09053,-0.0749 0.158403,-0.20559 0.203659,-0.3926 0.06037,-0.18698 0.08298,-0.35545 0.06788,-0.50505 -0.03014,-0.16825 -0.113274,-0.31774 -0.249054,-0.44862 -0.120703,-0.13082 -0.249039,-0.19671 -0.384826,-0.19671 -0.331917,0 -1.463547,0.37412 -3.394726,1.12215 -2.232921,0.86025 -3.371956,1.26254 -3.417219,1.20641 -0.04526,-0.0747 0.07569,-1.00061 0.362335,-2.777188 0.301745,-1.795279 0.64111,-3.627896 1.018292,-5.497984 0.769454,-3.85237 1.154071,-5.937442 1.154071,-6.255354 -0.10168,-1.012589 -1.199101,-0.960836 -1.448108,-0.252734 z"
       id="path4287"
       inkscape:connector-curvature="0"
       sodipodi:nodetypes="cccsccsccccccscccccc" />
    <circle
       style="fill:none;fill-opacity:1;stroke:#ff0000;stroke-width:0.0098075;stroke-linejoin:bevel;stroke-miterlimit:4;stroke-dasharray:none;stroke-opacity:1"
       id="path3658"
       cx="54.403931"
       cy="-23.096565"
       r="4.1024218" />
  </g>
</svg>
