<?xml version="1.0" encoding="UTF-8" standalone="no"?>
<!-- Created with Inkscape (http://www.inkscape.org/) -->

<svg
   xmlns:dc="http://purl.org/dc/elements/1.1/"
   xmlns:cc="http://creativecommons.org/ns#"
   xmlns:rdf="http://www.w3.org/1999/02/22-rdf-syntax-ns#"
   xmlns:svg="http://www.w3.org/2000/svg"
   xmlns="http://www.w3.org/2000/svg"
   xmlns:sodipodi="http://sodipodi.sourceforge.net/DTD/sodipodi-0.dtd"
   xmlns:inkscape="http://www.inkscape.org/namespaces/inkscape"
   width="30.000002mm"
   height="48.897022mm"
   viewBox="0 0 106.29922 173.25716"
   id="svg2"
   version="1.1"
   inkscape:version="0.91 r13725"
   sodipodi:docname="tux.svg">
  <defs
     id="defs4">
    <linearGradient
       id="al"
       x1="129.342"
       gradientUnits="userSpaceOnUse"
       x2="195.59801"
       gradientTransform="matrix(1,0,0,-1,8.3999,368.3)"
       y1="259.30499"
       y2="259.30499">
      <stop
         stop-color="#FAC700"
         offset="0"
         id="stop6540" />
      <stop
         stop-color="#F7C400"
         offset=".415"
         id="stop6542" />
      <stop
         stop-color="#F7C400"
         offset="1"
         id="stop6544" />
    </linearGradient>
    <linearGradient
       id="am"
       x1="129.293"
       gradientUnits="userSpaceOnUse"
       x2="195.554"
       gradientTransform="matrix(1,0,0,-1,8.3999,368.3)"
       y1="259.311"
       y2="259.311">
      <stop
         stop-color="#F6C200"
         offset="0"
         id="stop6549" />
      <stop
         stop-color="#EFBC00"
         offset=".415"
         id="stop6551" />
      <stop
         stop-color="#EFBC00"
         offset="1"
         id="stop6553" />
    </linearGradient>
    <linearGradient
       id="an"
       x1="129.245"
       gradientUnits="userSpaceOnUse"
       x2="195.50999"
       gradientTransform="matrix(1,0,0,-1,8.3999,368.3)"
       y1="259.31699"
       y2="259.31699">
      <stop
         stop-color="#F1BD00"
         offset="0"
         id="stop6558" />
      <stop
         stop-color="#E8B500"
         offset=".415"
         id="stop6560" />
      <stop
         stop-color="#E8B500"
         offset="1"
         id="stop6562" />
    </linearGradient>
    <linearGradient
       id="ao"
       x1="129.196"
       gradientUnits="userSpaceOnUse"
       x2="195.465"
       gradientTransform="matrix(1,0,0,-1,8.3999,368.3)"
       y1="259.32199"
       y2="259.32199">
      <stop
         stop-color="#EDB800"
         offset="0"
         id="stop6567" />
      <stop
         stop-color="#E0AD00"
         offset=".415"
         id="stop6569" />
      <stop
         stop-color="#E0AD00"
         offset="1"
         id="stop6571" />
    </linearGradient>
    <linearGradient
       id="ap"
       x1="129.14799"
       gradientUnits="userSpaceOnUse"
       x2="195.422"
       gradientTransform="matrix(1,0,0,-1,8.3999,368.3)"
       y1="259.327"
       y2="259.327">
      <stop
         stop-color="#E9B300"
         offset="0"
         id="stop6576" />
      <stop
         stop-color="#D8A500"
         offset=".415"
         id="stop6578" />
      <stop
         stop-color="#D8A500"
         offset="1"
         id="stop6580" />
    </linearGradient>
    <linearGradient
       id="aq"
       x1="129.099"
       gradientUnits="userSpaceOnUse"
       x2="195.379"
       gradientTransform="matrix(1,0,0,-1,8.3999,368.3)"
       y1="259.332"
       y2="259.332">
      <stop
         stop-color="#E4AE00"
         offset="0"
         id="stop6585" />
      <stop
         stop-color="#D19E00"
         offset=".415"
         id="stop6587" />
      <stop
         stop-color="#D19E00"
         offset="1"
         id="stop6589" />
    </linearGradient>
    <linearGradient
       id="ar"
       x1="129.05099"
       gradientUnits="userSpaceOnUse"
       x2="195.338"
       gradientTransform="matrix(1,0,0,-1,8.3999,368.3)"
       y1="259.336"
       y2="259.336">
      <stop
         stop-color="#E0A900"
         offset="0"
         id="stop6594" />
      <stop
         stop-color="#C99600"
         offset=".415"
         id="stop6596" />
      <stop
         stop-color="#C99600"
         offset="1"
         id="stop6598" />
    </linearGradient>
    <linearGradient
       id="w"
       x1="129.00301"
       gradientUnits="userSpaceOnUse"
       x2="195.29601"
       gradientTransform="matrix(1,0,0,-1,8.3999,368.3)"
       y1="259.34"
       y2="259.34">
      <stop
         stop-color="#DCA400"
         offset="0"
         id="stop6603" />
      <stop
         stop-color="#C18E00"
         offset=".415"
         id="stop6605" />
      <stop
         stop-color="#C18E00"
         offset="1"
         id="stop6607" />
    </linearGradient>
    <linearGradient
       id="x"
       x1="128.95399"
       gradientUnits="userSpaceOnUse"
       x2="195.255"
       gradientTransform="matrix(1,0,0,-1,8.3999,368.3)"
       y1="259.34299"
       y2="259.34299">
      <stop
         stop-color="#D79F00"
         offset="0"
         id="stop6612" />
      <stop
         stop-color="#BA8700"
         offset=".415"
         id="stop6614" />
      <stop
         stop-color="#BA8700"
         offset="1"
         id="stop6616" />
    </linearGradient>
    <linearGradient
       id="y"
       x1="128.90601"
       gradientUnits="userSpaceOnUse"
       x2="195.216"
       gradientTransform="matrix(1,0,0,-1,8.3999,368.3)"
       y1="259.34799"
       y2="259.34799">
      <stop
         stop-color="#D39B00"
         offset="0"
         id="stop6621" />
      <stop
         stop-color="#B27F00"
         offset=".415"
         id="stop6623" />
      <stop
         stop-color="#B27F00"
         offset="1"
         id="stop6625" />
    </linearGradient>
    <linearGradient
       id="z"
       x1="128.85699"
       gradientUnits="userSpaceOnUse"
       x2="195.17599"
       gradientTransform="matrix(1,0,0,-1,8.3999,368.3)"
       y1="259.35001"
       y2="259.35001">
      <stop
         stop-color="#CF9600"
         offset="0"
         id="stop6630" />
      <stop
         stop-color="#a70"
         offset=".415"
         id="stop6632" />
      <stop
         stop-color="#a70"
         offset="1"
         id="stop6634" />
    </linearGradient>
    <linearGradient
       id="aa"
       x1="128.80901"
       gradientUnits="userSpaceOnUse"
       x2="195.13699"
       gradientTransform="matrix(1,0,0,-1,8.3999,368.3)"
       y1="259.354"
       y2="259.354">
      <stop
         stop-color="#CA9100"
         offset="0"
         id="stop6639" />
      <stop
         stop-color="#A37000"
         offset=".415"
         id="stop6641" />
      <stop
         stop-color="#A37000"
         offset="1"
         id="stop6643" />
    </linearGradient>
    <linearGradient
       id="ab"
       x1="128.75999"
       gradientUnits="userSpaceOnUse"
       x2="195.099"
       gradientTransform="matrix(1,0,0,-1,8.3999,368.3)"
       y1="259.35599"
       y2="259.35599">
      <stop
         stop-color="#C68C00"
         offset="0"
         id="stop6648" />
      <stop
         stop-color="#9B6800"
         offset=".415"
         id="stop6650" />
      <stop
         stop-color="#9B6800"
         offset="1"
         id="stop6652" />
    </linearGradient>
    <linearGradient
       id="ac"
       x1="128.71201"
       gradientUnits="userSpaceOnUse"
       x2="195.062"
       gradientTransform="matrix(1,0,0,-1,8.3999,368.3)"
       y1="259.358"
       y2="259.358">
      <stop
         stop-color="#C28700"
         offset="0"
         id="stop6657" />
      <stop
         stop-color="#936000"
         offset=".415"
         id="stop6659" />
      <stop
         stop-color="#936000"
         offset="1"
         id="stop6661" />
    </linearGradient>
    <linearGradient
       id="ad"
       x1="128.66299"
       gradientUnits="userSpaceOnUse"
       x2="195.02499"
       gradientTransform="matrix(1,0,0,-1,8.3999,368.3)"
       y1="259.35999"
       y2="259.35999">
      <stop
         stop-color="#BD8200"
         offset="0"
         id="stop6666" />
      <stop
         stop-color="#8C5900"
         offset=".415"
         id="stop6668" />
      <stop
         stop-color="#8C5900"
         offset="1"
         id="stop6670" />
    </linearGradient>
    <linearGradient
       id="ae"
       x1="128.61501"
       gradientUnits="userSpaceOnUse"
       x2="194.989"
       gradientTransform="matrix(1,0,0,-1,8.3999,368.3)"
       y1="259.362"
       y2="259.362">
      <stop
         stop-color="#B97D00"
         offset="0"
         id="stop6675" />
      <stop
         stop-color="#845100"
         offset=".415"
         id="stop6677" />
      <stop
         stop-color="#845100"
         offset="1"
         id="stop6679" />
    </linearGradient>
    <linearGradient
       id="af"
       x1="128.567"
       gradientUnits="userSpaceOnUse"
       x2="194.95399"
       gradientTransform="matrix(1,0,0,-1,8.3999,368.3)"
       y1="259.36401"
       y2="259.36401">
      <stop
         stop-color="#B57800"
         offset="0"
         id="stop6684" />
      <stop
         stop-color="#7C4900"
         offset=".415"
         id="stop6686" />
      <stop
         stop-color="#7C4900"
         offset="1"
         id="stop6688" />
    </linearGradient>
    <linearGradient
       id="ah"
       x1="128.51801"
       gradientUnits="userSpaceOnUse"
       x2="194.918"
       gradientTransform="matrix(1,0,0,-1,8.3999,368.3)"
       y1="259.366"
       y2="259.366">
      <stop
         stop-color="#B07300"
         offset="0"
         id="stop6693" />
      <stop
         stop-color="#754200"
         offset=".415"
         id="stop6695" />
      <stop
         stop-color="#754200"
         offset="1"
         id="stop6697" />
    </linearGradient>
    <linearGradient
       id="ai"
       x1="128.47"
       gradientUnits="userSpaceOnUse"
       x2="194.886"
       gradientTransform="matrix(1,0,0,-1,8.3999,368.3)"
       y1="259.367"
       y2="259.367">
      <stop
         stop-color="#AC6E00"
         offset="0"
         id="stop6702" />
      <stop
         stop-color="#6D3A00"
         offset=".415"
         id="stop6704" />
      <stop
         stop-color="#6D3A00"
         offset="1"
         id="stop6706" />
    </linearGradient>
    <linearGradient
       id="aj"
       x1="128.42101"
       gradientUnits="userSpaceOnUse"
       x2="194.85001"
       gradientTransform="matrix(1,0,0,-1,8.3999,368.3)"
       y1="259.36899"
       y2="259.36899">
      <stop
         stop-color="#A86A00"
         offset="0"
         id="stop6711" />
      <stop
         stop-color="#663200"
         offset=".415"
         id="stop6713" />
      <stop
         stop-color="#663200"
         offset="1"
         id="stop6715" />
    </linearGradient>
    <filter
       style="color-interpolation-filters:sRGB"
       inkscape:label="Drop Shadow"
       id="filter22635">
      <feFlood
         flood-opacity="1"
         flood-color="rgb(214,214,214)"
         result="flood"
         id="feFlood22637" />
      <feComposite
         in="flood"
         in2="SourceGraphic"
         operator="in"
         result="composite1"
         id="feComposite22639" />
      <feGaussianBlur
         in="composite1"
         stdDeviation="3"
         result="blur"
         id="feGaussianBlur22641" />
      <feOffset
         dx="7"
         dy="7"
         result="offset"
         id="feOffset22643" />
      <feComposite
         in="SourceGraphic"
         in2="offset"
         operator="over"
         result="composite2"
         id="feComposite22645" />
    </filter>
  </defs>
  <sodipodi:namedview
     id="base"
     pagecolor="#67e7de"
     bordercolor="#666666"
     borderopacity="1.0"
     inkscape:pageopacity="0"
     inkscape:pageshadow="2"
     inkscape:zoom="3.959798"
     inkscape:cx="46.586473"
     inkscape:cy="88.549205"
     inkscape:document-units="mm"
     inkscape:current-layer="layer1"
     showgrid="true"
     inkscape:window-width="1280"
     inkscape:window-height="962"
     inkscape:window-x="-8"
     inkscape:window-y="-8"
     inkscape:window-maximized="1"
     fit-margin-top="0"
     fit-margin-left="0"
     fit-margin-right="0"
     fit-margin-bottom="0">
    <inkscape:grid
       type="xygrid"
       id="grid4281" />
  </sodipodi:namedview>
  <metadata
     id="metadata7">
    <rdf:RDF>
      <cc:Work
         rdf:about="">
        <dc:format>image/svg+xml</dc:format>
        <dc:type
           rdf:resource="http://purl.org/dc/dcmitype/StillImage" />
        <dc:title></dc:title>
      </cc:Work>
    </rdf:RDF>
  </metadata>
  <g
     inkscape:label="Calque 1"
     inkscape:groupmode="layer"
     id="layer1"
     transform="translate(-11.143777,63.562828)">
    <path
       style="fill:#ffffff;stroke:#000000;stroke-width:1.29614007;stroke-miterlimit:4;stroke-dasharray:none;stroke-opacity:1"
       d="m 63.997226,-47.068515 c -2.928187,0.01723 -6.300274,0.677344 -9.913368,2.552993 -9.3315,4.859982 -8.116392,15.357932 -6.585838,36.3773543 0.3888,5.6618782 -5.029688,9.4278686 -9.719566,16.8393392 -4.689882,7.3871715 -5.199816,13.4140265 -8.747941,19.5129665 -3.430779,5.898122 -2.92217,5.507812 -1.655195,10.570563 1.048164,-1.016933 2.11232,-1.795654 3.817297,-1.754072 2.502891,0.07325 6.876783,6.342812 9.088074,9.793396 2.21129,3.499187 2.745885,4.47088 6.074975,9.74396 3.329093,5.27308 6.269049,6.634011 6.341948,11.202055 0.06192,3.900897 -0.483326,4.025202 -2.075093,5.251667 0.175772,-0.01158 0.341864,-0.05007 0.496364,-0.11997 5.126941,-2.308829 3.352786,-1.579542 11.542189,-2.065203 7.946921,-0.468865 10.323613,-0.840639 17.636948,1.053363 -0.334542,-1.117278 -0.53555,-2.481758 -0.483176,-4.073714 0.09721,-3.669285 1.263402,-7.023507 1.821963,-12.733986 0.243337,-2.453952 0.218854,-5.491329 0.218854,-8.188955 0,-3.40199 0.04883,-6.293798 0.777829,-6.73086 1.312534,-0.826196 1.603583,-0.874727 3.158778,-0.874727 1.554854,0 2.260225,0.0968 2.770523,0.6071 1.692951,2.457167 3.743639,2.790185 6.864109,3.038053 2.832685,0.259628 4.7761,-0.758641 8.29894,-2.235175 0.15938,0 0.90598,-0.237997 1.65454,-0.03163 0.71777,-1.696 1.27111,-3.235016 1.57939,-4.505476 C 108.80656,28.676158 103.02313,15.723786 97.483437,7.8745767 91.943055,0.02570621 87.399004,-4.8336992 85.163412,-14.747724 c -2.259891,-9.938663 0.558886,-7.071358 -1.433709,-15.746425 -0.971996,-4.325382 -2.697183,-7.751692 -4.616878,-10.011585 -1.919691,-2.308491 -4.495634,-3.620735 -5.75923,-4.301131 -1.745796,-0.937826 -5.076704,-2.286759 -9.356361,-2.261637 z"
       id="path5077"
       inkscape:connector-curvature="0"
       sodipodi:nodetypes="ccccccccscccccccscscccccccccccc" />
    <path
       style="fill:#4d4d4d;stroke:#000000;stroke-width:1.29614007;stroke-miterlimit:4;stroke-dasharray:none;stroke-opacity:1"
       d="m 52.932938,-29.207449 c -0.334882,-0.003 -0.649475,0.0292 -0.922848,0.07778 -0.631799,0.0972 -1.457189,0.898895 -2.016425,2.08959 -0.364499,0.801897 -0.656293,1.822615 -0.680931,2.891811 -0.07292,2.867389 0.170184,3.960915 0.825951,5.904907 0.32231,0.946517 0.837845,1.701721 1.429757,2.226044 0.214477,-0.176891 0.436101,-0.361055 0.667743,-0.561618 1.045235,-0.923397 2.940482,-2.453991 4.253014,-3.134386 0.317844,-0.158867 0.604812,-0.265833 0.87934,-0.342775 0.295696,-0.719875 0.486889,-1.533062 0.47395,-2.852918 0,-2.429991 -0.753699,-3.256231 -1.895793,-4.835726 -0.820123,-1.129946 -2.009108,-1.453601 -3.013758,-1.462713 z"
       id="path5081"
       inkscape:connector-curvature="0" />
    <path
       style="fill:#ffffff;stroke:#000000;stroke-width:1.29614007;stroke-miterlimit:4;stroke-dasharray:none;stroke-opacity:1"
       d="m 52.860425,-25.216793 c -0.777594,0 -1.336446,0.315624 -1.773845,0.996019 -0.631796,0.923398 -0.46142,1.968355 -0.46142,2.697352 0,1.166397 0.801882,2.575824 1.069183,2.867422 0.60353,0.622393 0.785915,1.080364 1.222114,1.255734 0.804124,-0.669576 1.787571,-1.432667 2.679555,-2.005217 0.117629,-0.637723 0.156212,-1.355358 0.156212,-2.04477 0,-1.044897 -0.340518,-1.968744 -0.802216,-2.624842 -0.43706,-0.656097 -1.360595,-1.141698 -2.089594,-1.141698 z"
       id="path5123"
       inkscape:connector-curvature="0" />
    <path
       style="fill:#4d4d4d;stroke:#000000;stroke-width:1.29614007;stroke-miterlimit:4;stroke-dasharray:none;stroke-opacity:1"
       d="m 68.622013,-30.077565 c -2.981869,0.02757 -4.435682,2.22064 -5.141581,3.81532 -0.801897,1.846793 -0.632295,1.579428 -0.584032,3.912219 0.02073,1.033876 0.2794,1.752009 0.634131,2.353259 0.611075,0.180967 1.153879,0.414002 1.536541,0.696753 1.044894,0.777597 1.773723,1.19032 2.721081,1.506221 1.699101,0.557657 3.676364,0.95906 5.126422,1.645305 1.040748,-0.722243 1.598938,-1.758226 1.961711,-3.115272 0.583535,-2.186992 0.608347,-4.61682 -1.019746,-7.459911 -1.530893,-2.721251 -2.405907,-3.159402 -4.617537,-3.329502 -0.212613,-0.01816 -0.418198,-0.02622 -0.61699,-0.0244 z"
       id="path5171"
       inkscape:connector-curvature="0" />
    <path
       style="fill:#ffffff;stroke:#000000;stroke-width:1.29614007;stroke-miterlimit:4;stroke-dasharray:none;stroke-opacity:1"
       d="m 68.995769,-25.314349 c -0.777598,0 -1.700921,0.121025 -2.210882,0.680272 -0.6804,0.753297 -1.069184,1.700995 -1.069184,3.037488 0,0.862489 0.06621,1.976541 0.304539,2.813367 0.631422,0.407209 1.190627,0.68354 1.852945,0.90439 0.4693,0.154023 0.960753,0.295243 1.456125,0.434399 0.829733,-0.147036 1.72319,-0.632286 2.266907,-1.357244 0.583198,-0.753297 0.80168,-1.847216 0.655884,-2.794912 -0.3645,-2.08979 -1.433839,-3.71776 -3.256334,-3.71776 z"
       id="path5213"
       inkscape:connector-curvature="0" />
    <path
       style="fill:#999999;stroke:#000000;stroke-width:1.29614007;stroke-miterlimit:4;stroke-dasharray:none;stroke-opacity:1"
       d="m 74.124166,-10.120972 c -0.612401,1.2192429 -1.641763,1.9686089 -3.311047,2.4963015 -2.284194,0.7046958 -6.365784,4.6656561 -9.525109,4.6656561 -1.409394,0 -3.377882,0.072953 -4.519979,-0.3401338 -1.093495,-0.3887998 -2.624229,-2.2354644 -4.422421,-3.7177573 -0.913742,-0.7408758 -1.79491,-1.5078891 -2.448183,-2.349967 -0.04101,0.1346947 -0.06655,0.3071655 -0.07382,0.5273391 -0.0972,3.110391 0.07251,3.0617909 0.07251,6.0749805 0,2.0168906 -0.923607,2.16275805 -2.916202,5.2002465 -1.020594,1.6037944 -1.822317,3.3293672 -2.454114,5.0789595 -0.3888,1.0448979 -0.753195,2.1383605 -1.044796,3.2075539 -0.121518,0.5346 -0.339924,1.093572 -0.461423,1.62817 -0.996296,3.669287 -4.544119,8.188653 -5.370315,11.857941 -0.826197,3.644986 -1.798447,5.977957 -1.676948,10.862577 0.121518,4.884283 0.170255,3.474716 1.652558,4.690047 1.457993,1.215335 2.964266,2.356503 5.272755,4.398031 2.429992,2.114094 7.485171,5.807611 8.165229,6.949707 0.728999,1.166395 0.704367,3.790769 0.266969,4.641267 -0.437398,0.826195 -4.252266,1.288034 -4.227966,1.288034 -0.02396,0 3.328954,4.616994 3.985388,5.272757 0.631797,0.632134 3.353242,3.669603 14.434,1.603778 6.245077,-1.166059 11.081157,-4.665259 14.580344,-8.043283 0.693448,-0.674756 1.211547,-1.268171 1.619596,-1.810102 0.152765,-2.245165 0.134462,-4.833287 0.134462,-7.16789 0,-3.401987 0.04883,-6.293798 0.77783,-6.730861 1.312532,-0.826196 1.603581,-0.874728 3.158775,-0.874728 0.658047,0 1.157662,0.0205 1.56093,0.07909 0.10985,-0.274598 0.270677,-0.576268 0.524708,-0.990745 0.704696,-1.069195 0.534593,-3.183423 0.534593,-5.127079 0,-5.054715 -0.583719,-10.206181 -1.750116,-13.996969 C 85.593184,15.70416 83.892077,13.225781 82.434419,10.018191 79.518091,3.6273173 79.664193,0.76014634 77.064103,-3.3222375 75.089582,-6.4620437 75.075476,-8.8994429 74.124171,-10.120991 Z"
       id="path5305"
       inkscape:connector-curvature="0" />
    <path
       id="path5347"
       d="m 59.786181,-20.454621 c 1.773891,-0.218692 4.203884,0.218693 5.322016,1.044895 1.044897,0.7776 1.773897,1.190695 2.721254,1.506596 3.183625,1.044895 7.362872,1.530894 7.168474,4.398284 -0.218693,3.42595 -1.214999,4.9571816 -4.058085,5.8559401 -2.284193,0.7046957 -6.36624,4.6655817 -9.525566,4.6655817 -1.409394,0 -3.377686,0.072916 -4.519783,-0.3401997 -1.093496,-0.3887973 -2.62439,-2.23559 -4.422581,-3.7178853 -1.798194,-1.4579953 -3.474889,-3.0131898 -3.523151,-5.0543808 -0.07325,-2.162353 1.336495,-2.867389 3.32875,-4.592344 1.045234,-0.923398 2.940288,-2.454292 4.252823,-3.134689 1.214655,-0.607162 1.992254,-0.48566 3.255849,-0.631798 z"
       inkscape:connector-curvature="0"
       style="fill:#b3b3b3;stroke:#000000;stroke-width:1.29614007;stroke-miterlimit:4;stroke-dasharray:none;stroke-opacity:1" />
    <path
       style="fill:#4d4d4d;stroke:#000000;stroke-width:1.29614007;stroke-miterlimit:4;stroke-dasharray:none;stroke-opacity:1"
       inkscape:connector-curvature="0"
       d="m 106.58821,41.534447 c 1.5066,2.186653 -0.0489,5.03008 1.04489,6.78001 1.79819,2.867391 5.41889,5.758742 6.80398,6.560638 0.99629,0.607498 2.40569,1.190359 2.35675,2.964251 -0.0729,2.01723 -1.06919,2.551831 -1.62775,3.110726 -1.11814,1.118133 -6.75572,3.912287 -10.49756,6.463775 -4.714188,3.231889 -6.342283,4.665583 -7.873178,6.19614 -2.381388,2.381728 -4.64128,3.183287 -8.261964,3.183287 -3.620686,0 -5.248782,-0.75296 -6.366237,-1.749592 -1.118135,-0.971996 -2.357093,-3.450924 -2.235593,-7.144174 0.0972,-3.669284 1.263594,-7.023011 1.822154,-12.733489 0.243338,-2.453953 0.218693,-5.491443 0.218693,-8.189068 0,-3.401989 0.0486,-6.293678 0.777597,-6.730737 1.312533,-0.826197 1.603792,-0.874796 3.158989,-0.874796 1.554855,0 2.259891,0.217387 2.77019,0.727692 1.761025,2.009185 3.256178,2.682734 6.924607,2.856735 3.66912,0.05859 4.671832,-0.666373 8.238532,-2.174698 0.24266,0 1.8468,-0.558895 2.74589,0.7533 z"
       id="path5833"
       sodipodi:nodetypes="cccccccscccscscccc" />
    <path
       style="fill:#4d4d4d;stroke:#000000;stroke-width:1.29614007;stroke-miterlimit:4;stroke-dasharray:none;stroke-opacity:1"
       inkscape:connector-curvature="0"
       d="m 21.829794,45.276968 c -2.186656,1.579495 -7.727374,1.433695 -9.136765,3.280152 -1.385096,1.84713 0.04896,4.52012 0.02431,9.476961 0,2.114432 -0.364498,3.718226 -0.607495,5.005783 -0.340202,1.628093 -0.558902,2.770528 0.121518,3.936585 1.239294,2.065832 3.23155,2.576128 14.628545,4.957181 6.099275,1.263597 11.858353,4.544081 15.722037,4.859644 3.863686,0.291939 4.689884,-0.995958 7.046975,-3.086088 2.332791,-2.089792 3.086088,-1.433694 3.013189,-6.026377 -0.07292,-4.568046 -3.013189,-5.92884 -6.342275,-11.201919 -3.329102,-5.273083 -3.863703,-6.245079 -6.074993,-9.744265 -2.211288,-3.450586 -6.585272,-9.719962 -9.088164,-9.793201 -1.992593,-0.0486 -3.110388,1.020598 -4.349683,2.284531 -1.239296,1.263932 -2.770189,4.471183 -4.957181,6.051013 z"
       id="path6009" />
    <path
       style="fill:#b3b3b3;stroke:#000000;stroke-width:1.29614007;stroke-miterlimit:4;stroke-dasharray:none;stroke-opacity:1"
       inkscape:connector-curvature="0"
       d="m 73.080867,-13.427935 c -1.4663,0.975748 -0.478443,0.306486 -1.4663,0.975748 -1.31827,0.937908 -2.446868,1.74014 -4.445533,2.8737995 -2.139066,1.1191478 -5.426307,2.9679657 -9.634915,2.7182149 -2.207917,-0.3236619 -2.216016,-0.3455989 -3.57951,-1.0415203 -0.809998,-0.5845489 -2.666578,-1.5551943 -3.337526,-2.2862171"
       id="path6537"
       sodipodi:nodetypes="cccccc" />
    <path
       style="fill:none;stroke:#ff0000;stroke-width:0.03543307;stroke-miterlimit:4;stroke-dasharray:none;stroke-opacity:1"
       d="m 63.979428,-63.541233 a 11.250531,11.250531 0 0 0 -11.250178,11.250835 11.250531,11.250531 0 0 0 2.485757,7.038033 c -0.367453,0.168276 -0.737247,0.345674 -1.110052,0.539211 -9.331508,4.859982 -8.116398,15.35793 -6.585842,36.3773534 0.3888,5.6618769 -5.029681,9.428527 -9.719566,16.84 -4.689881,7.3871696 -5.200474,13.4133616 -8.748599,19.5123006 -3.403352,5.850971 -2.928057,5.520817 -1.68354,10.456529 -0.185787,0.179476 -0.371738,0.36405 -0.559642,0.555686 -1.239296,1.263935 -2.770019,4.470757 -4.957012,6.050587 -2.186653,1.579495 -7.727456,1.433611 -9.136853,3.280066 -1.385093,1.84713 0.04902,4.520148 0.02441,9.47699 0,2.114433 -0.364763,3.718237 -0.607762,5.005794 -0.340196,1.628093 -0.558448,2.770551 0.121956,3.936608 1.194675,1.991451 3.175049,2.553873 13.519722,4.723662 l 0,38.170308 77.096703,0 0,-41.188023 c 0.55486,-0.392828 1.14922,-0.807952 1.82065,-1.268256 3.74185,-2.551496 9.37926,-5.345758 10.4974,-6.463891 0.55856,-0.558896 1.55526,-1.093426 1.62816,-3.110657 0.049,-1.773894 -1.36092,-2.356822 -2.35721,-2.964319 -1.38511,-0.801897 -5.00584,-3.693402 -6.80404,-6.560793 -1.09383,-1.749932 0.4618,-4.592984 -1.04479,-6.779636 -0.34486,-0.503301 -0.79303,-0.730794 -1.22872,-0.820676 0.72743,-1.714434 1.2894,-3.27153 1.6005,-4.553597 C 108.82766,28.478509 103.04424,15.526797 97.504536,7.6775888 91.964163,-0.1712805 87.42011,-5.0313481 85.184518,-14.945371 c -2.25989,-9.938663 0.558882,-7.071358 -1.43371,-15.746425 -0.971997,-4.325387 -2.697184,-7.751693 -4.616873,-10.011586 -1.919694,-2.308488 -4.49564,-3.620732 -5.759234,-4.301128 -0.174353,-0.09366 -0.376071,-0.193261 -0.581393,-0.293334 a 11.250531,11.250531 0 0 0 2.436977,-6.992554 11.250531,11.250531 0 0 0 -11.250837,-11.250835 z"
       id="path5077-5"
       inkscape:connector-curvature="0" />
    <path
       style="fill:#ffffff;fill-rule:evenodd;stroke:#000000;stroke-width:1.29614007;stroke-linecap:butt;stroke-linejoin:miter;stroke-miterlimit:4;stroke-dasharray:none;stroke-opacity:1"
       d="m 67.729664,9.7578847 c 0,0 6.916853,-0.1039725 9.54591,0.9375463 3.319104,1.314868 7.074196,7.074196 7.074196,7.074196"
       id="path10337"
       inkscape:connector-curvature="0"
       sodipodi:nodetypes="csc" />
    <path
       style="fill:#ffffff;fill-rule:evenodd;stroke:#000000;stroke-width:1.29614007;stroke-linecap:butt;stroke-linejoin:miter;stroke-miterlimit:4;stroke-dasharray:none;stroke-opacity:1"
       d="m 55.285897,8.9055717 c 0,0 2.334617,1.07205 2.429092,1.8750933 0,0 1.917705,-1.8750933 3.110943,-1.8750933"
       id="path10339"
       inkscape:connector-curvature="0"
       sodipodi:nodetypes="csc" />
    <path
       style="fill:#ffffff;fill-rule:evenodd;stroke:#000000;stroke-width:1.29614007;stroke-linecap:butt;stroke-linejoin:miter;stroke-miterlimit:4;stroke-dasharray:none;stroke-opacity:1"
       d="m 55.066722,24.918404 c 0,0 -0.989002,7.253121 -0.927188,9.471725 0.06183,2.218604 0.927188,8.789076 0.927188,8.789076"
       id="path10341"
       inkscape:connector-curvature="0" />
    <path
       style="fill:#ffffff;fill-rule:evenodd;stroke:#000000;stroke-width:1.29614007;stroke-linecap:butt;stroke-linejoin:miter;stroke-miterlimit:4;stroke-dasharray:none;stroke-opacity:1"
       d="m 43.401609,11.323351 c 0,0 0.861118,-1.4057131 2.006481,-1.7227992 1.145366,-0.317086 2.901412,-0.4541486 2.901412,-0.4541486"
       id="path10569"
       inkscape:connector-curvature="0"
       sodipodi:nodetypes="czc" />
    <path
       style="font-style:normal;font-variant:normal;font-weight:500;font-stretch:normal;font-size:134.79359436px;line-height:125%;font-family:PWTinselLetters;-inkscape-font-specification:'PWTinselLetters, Medium';text-align:start;letter-spacing:0px;word-spacing:0px;writing-mode:lr-tb;text-anchor:start;fill:#000000;fill-opacity:1;stroke:#000000;stroke-width:1.29614007;stroke-linecap:butt;stroke-linejoin:miter;stroke-miterlimit:4;stroke-dasharray:none;stroke-opacity:1"
       d="m 39.888362,89.924537 c 0.05519,0.775284 0.0642,1.937979 0.02743,3.488548 -0.0184,1.52777 -0.06455,2.485582 -0.138117,2.873225 -0.165551,0.843703 -0.38626,1.630426 -0.662206,2.360111 -0.275949,0.706883 -0.542783,1.139868 -0.800332,1.299478 -0.147177,0.09133 -0.395457,0.114621 -0.744987,0.06865 -0.331135,-0.04561 -0.579414,-0.136935 -0.744984,-0.273756 -0.625475,-0.456054 -1.122036,-1.550636 -1.489967,-3.283616 -0.257549,-1.208524 -0.386455,-2.462575 -0.386455,-3.762316 0,-0.820882 -0.266837,-1.231671 -0.800332,-1.231671 -0.25755,0 -0.469214,0.102924 -0.634783,0.308162 -0.12878,0.136929 -0.202018,0.273581 -0.220392,0.410394 -0.0184,0.136698 -0.0184,0.535984 0,1.197276 0,1.117307 0.110362,2.257297 0.331102,3.420224 0.220765,1.162932 0.496623,2.109146 0.827759,2.838831 0.165573,0.364852 0.41385,0.763982 0.744988,1.197252 0.331132,0.43324 0.606998,0.71837 0.827755,0.85519 1.085392,0.68406 2.152744,0.70677 3.201339,0.0685 0.551888,-0.31926 1.048448,-1.08327 1.489964,-2.291825 0.44152,-1.185739 0.735941,-2.531104 0.883113,-4.036053 0.07359,-0.752511 0.09166,-1.93791 0.05485,-3.556898 -0.0368,-1.641786 -0.110032,-3.147132 -0.220393,-4.515267 -0.128755,-1.436566 -0.221067,-2.576558 -0.276251,-3.420249 -0.03679,-0.684077 -0.09196,-1.128671 -0.16555,-1.333894 -0.617622,-2.783196 -1.322649,-2.373513 -1.489687,-0.843122 -0.228823,2.096518 0.232221,6.376182 0.386176,8.162817 z"
       id="path4280"
       inkscape:connector-curvature="0"
       sodipodi:nodetypes="ccccccccsscccssscccsccccsc" />
    <path
       style="font-style:normal;font-variant:normal;font-weight:500;font-stretch:normal;font-size:134.79359436px;line-height:125%;font-family:PWTinselLetters;-inkscape-font-specification:'PWTinselLetters, Medium';text-align:start;letter-spacing:0px;word-spacing:0px;writing-mode:lr-tb;text-anchor:start;fill:#000000;fill-opacity:1;stroke:#000000;stroke-width:1.29614007;stroke-linecap:butt;stroke-linejoin:miter;stroke-miterlimit:4;stroke-dasharray:none;stroke-opacity:1"
       d="m 53.866947,90.38027 c -0.03679,0.02329 -0.358803,-0.330447 -0.965885,-1.060112 -0.58869,-0.752487 -1.214148,-1.607856 -1.876421,-2.565563 -0.643877,-0.889298 -1.103817,-1.493358 -1.379766,-1.812596 -0.275947,-0.342038 -0.515197,-0.547426 -0.717559,-0.615833 -0.239158,-0.09122 -0.478406,-0.06851 -0.717559,0.06831 -0.220765,0.136814 -0.358693,0.353805 -0.41388,0.65024 -0.03679,0.182411 -0.009,0.934844 0.08277,2.257385 0.07359,1.390957 0.138304,3.328797 0.193473,5.814287 0.09199,3.101139 0.156188,5.108086 0.192982,6.020207 0.0368,0.912105 0.101022,1.448015 0.192983,1.607625 0.147177,0.29644 0.367867,0.44432 0.66221,0.44432 0.312739,0.0233 0.551989,-0.11388 0.717561,-0.41039 0.07359,-0.1367 0.110703,-0.46738 0.110703,-0.991834 0,-0.501658 -0.02757,-2.109437 -0.08277,-4.822933 -0.09199,-3.694014 -0.156678,-5.780218 -0.193473,-6.259053 l -0.05485,-0.684161 0.331106,0.478696 c 1.066992,1.550593 1.857975,2.599737 2.373074,3.146992 l 0.476284,0.490037 c 0.82937,0.749133 1.037424,0.791702 1.62055,0.501727 0.257557,-0.13693 0.616678,-0.604122 1.076587,-1.402205 0.459915,-0.820905 1.241368,-2.337359 2.345154,-4.549202 l 1.24214,-2.496742 0.05487,0.889095 c 0.05519,0.661272 0.08277,3.488787 0.08277,8.482541 l 0,7.559042 0.248323,0.34209 c 0.147177,0.22799 0.340776,0.34207 0.579934,0.34207 0.239152,0.0233 0.441287,-0.0796 0.606859,-0.30765 l 0.220904,-0.27379 0.02743,-7.183043 c 0.0368,-6.339116 -0.05501,-10.260705 -0.275754,-11.765673 -0.07359,-0.524456 -0.165875,-0.90092 -0.276251,-1.128944 -0.110387,-0.250828 -0.275897,-0.433006 -0.496662,-0.547019 -0.38632,-0.159613 -0.753977,-0.0117 -1.103508,0.444298 -0.331142,0.45605 -0.984186,1.664668 -1.9592,3.625688 -0.864632,1.755793 -1.462511,2.964419 -1.793643,3.625689 l -0.745488,1.436624 z"
       id="path4283"
       inkscape:connector-curvature="0"
       sodipodi:nodetypes="cccccccccscccscccccccccccscccccccccccccc" />
    <path
       style="font-style:normal;font-variant:normal;font-weight:500;font-stretch:normal;font-size:134.79359436px;line-height:125%;font-family:PWTinselLetters;-inkscape-font-specification:'PWTinselLetters, Medium';text-align:start;letter-spacing:0px;word-spacing:0px;writing-mode:lr-tb;text-anchor:start;fill:#000000;fill-opacity:1;stroke:#000000;stroke-width:1.29614007;stroke-linecap:butt;stroke-linejoin:miter;stroke-miterlimit:4;stroke-dasharray:none;stroke-opacity:1"
       d="m 70.777553,82.650501 c 0,0 -0.522466,0.182457 -0.871998,0.319278 -1.361339,0.501655 -2.391574,1.299498 -3.090639,2.394023 -0.294342,0.410444 -0.441802,0.775301 -0.441802,1.094534 0,0.661274 0.276363,0.991819 0.828254,0.991819 0.27595,0 0.487112,-0.114105 0.634287,-0.342074 0.680667,-1.026116 1.554409,-1.732621 2.621404,-2.120262 0.754256,-0.273631 1.563795,-0.444706 2.428428,-0.513114 0.846239,-0.0456 1.61916,0.04525 2.318225,0.273263 0.699065,0.205232 1.214183,0.524657 1.545319,0.957905 0.12878,0.159613 0.202018,0.296374 0.220392,0.41039 0.0368,0.09122 0.05536,0.296596 0.05536,0.615834 0,0.93491 -0.413799,1.926535 -1.241639,2.975447 -0.809444,1.026113 -1.977612,2.040956 -3.504516,3.044271 -0.515102,0.342022 -1.710852,1.083354 -3.587295,2.223483 -1.876435,1.117331 -2.842469,1.675949 -2.897656,1.675949 -0.128779,0 -0.294294,0.05705 -0.496658,0.171163 -0.202368,0.113873 -0.36788,0.227983 -0.496655,0.342069 -0.423119,0.478858 -0.542495,0.991575 -0.358528,1.538836 0.110386,0.319245 0.26637,0.524617 0.46873,0.615835 0.202369,0.09133 0.680864,0.1481 1.435116,0.171158 1.784457,0.0456 4.829015,0.683972 9.133785,1.915322 0.901423,0.25083 1.416536,0.37649 1.545316,0.37649 0.128779,0 0.285264,-0.10292 0.469228,-0.30819 0.18397,-0.18234 0.275758,-0.42162 0.275758,-0.71807 0,-0.43324 -0.110362,-0.72996 -0.331108,-0.889571 -0.202368,-0.136699 -0.78168,-0.341718 -1.738295,-0.615348 -2.391538,-0.661244 -4.452004,-1.162889 -6.181272,-1.504929 -0.643874,-0.136698 -0.965886,-0.216573 -0.965886,-0.239348 0,-0.04564 0.763394,-0.536124 2.290304,-1.471019 1.710869,-1.026091 2.998907,-1.869864 3.863544,-2.531158 0.88303,-0.684067 1.636896,-1.413778 2.262375,-2.189064 1.177375,-1.504972 1.775253,-3.044131 1.793648,-4.617498 0,-0.41045 -0.01817,-0.706676 -0.05487,-0.889098 -0.0184,-0.182411 -0.09212,-0.433225 -0.220904,-0.752463 -0.423119,-1.071716 -1.278307,-1.835743 -2.566058,-2.291794 -0.809445,-0.296433 -1.720301,-0.444797 -2.732108,-0.444797 -0.859207,-0.03824 -1.757948,0.181246 -2.411611,0.33096 z"
       id="path4285"
       inkscape:connector-curvature="0"
       sodipodi:nodetypes="cccssccccccscccssccsccscscccsccccccccc" />
    <path
       style="font-style:normal;font-variant:normal;font-weight:500;font-stretch:normal;font-size:134.79359436px;line-height:125%;font-family:PWTinselLetters;-inkscape-font-specification:'PWTinselLetters, Medium';text-align:start;letter-spacing:0px;word-spacing:0px;writing-mode:lr-tb;text-anchor:start;fill:#000000;fill-opacity:1;stroke:#000000;stroke-width:1.29614007;stroke-linecap:butt;stroke-linejoin:miter;stroke-miterlimit:4;stroke-dasharray:none;stroke-opacity:1"
       d="m 88.544114,82.83265 c -0.09997,0.524389 -0.377508,2.622329 -1.242142,6.977614 -0.791046,3.922045 -1.379393,7.376826 -1.765718,10.363956 -0.220764,1.61898 -0.29449,2.54246 -0.220903,2.7705 0.110386,0.34203 0.331073,0.54692 0.662205,0.61535 0.349535,0.0684 0.726721,-0.034 1.131443,-0.30767 0.312737,-0.20517 0.505842,-0.30768 0.57943,-0.30768 0.183971,0 1.527177,-0.49051 4.029096,-1.47102 1.39813,-0.52446 2.372691,-0.8777 2.924588,-1.06011 0.735855,-0.22798 1.177741,-0.3991 1.324913,-0.513123 0.110386,-0.09133 0.193146,-0.250683 0.248328,-0.47871 0.07361,-0.227991 0.10118,-0.433411 0.08277,-0.615823 -0.03675,-0.205153 -0.138119,-0.387431 -0.303679,-0.547017 -0.147177,-0.159513 -0.303662,-0.239855 -0.469231,-0.239855 -0.404717,0 -1.784549,0.456177 -4.139297,1.368273 -2.722672,1.048935 -4.111534,1.539455 -4.166724,1.471015 -0.05519,-0.0911 0.09229,-1.220076 0.441806,-3.386314 0.367928,-2.189041 0.781726,-4.423609 1.241636,-6.703867 0.93822,-4.697317 1.407196,-7.239712 1.407196,-7.627352 -0.123982,-1.234682 -1.462102,-1.171578 -1.765724,-0.308167 z"
       id="path4287"
       inkscape:connector-curvature="0"
       sodipodi:nodetypes="cccsccsccccccscccccc" />
    <circle
       style="fill:none;fill-opacity:1;stroke:#ff0000;stroke-width:0.03543307;stroke-linejoin:bevel;stroke-miterlimit:4;stroke-dasharray:none;stroke-opacity:1"
       id="path3658"
       cx="63.892258"
       cy="-52.221825"
       r="5.0022135" />
  </g>
</svg>
