<?xml version="1.0" encoding="UTF-8" standalone="no"?>
<!-- Created with Inkscape (http://www.inkscape.org/) -->

<svg
   xmlns:dc="http://purl.org/dc/elements/1.1/"
   xmlns:cc="http://creativecommons.org/ns#"
   xmlns:rdf="http://www.w3.org/1999/02/22-rdf-syntax-ns#"
   xmlns:svg="http://www.w3.org/2000/svg"
   xmlns="http://www.w3.org/2000/svg"
   xmlns:sodipodi="http://sodipodi.sourceforge.net/DTD/sodipodi-0.dtd"
   xmlns:inkscape="http://www.inkscape.org/namespaces/inkscape"
   width="300mm"
   height="300mm"
   viewBox="0 0 1062.9921 1062.9921"
   id="svg2"
   version="1.1"
   inkscape:version="0.91 r13725"
   sodipodi:docname="volets-1.svg">
  <sodipodi:namedview
     id="base"
     pagecolor="#ffffff"
     bordercolor="#666666"
     borderopacity="1.0"
     inkscape:pageopacity="0.0"
     inkscape:pageshadow="2"
     inkscape:zoom="0.98994949"
     inkscape:cx="757.78609"
     inkscape:cy="776.65471"
     inkscape:document-units="mm"
     inkscape:current-layer="layer1"
     showgrid="false"
     width="300mm"
     inkscape:snap-center="true"
     inkscape:window-width="1366"
     inkscape:window-height="719"
     inkscape:window-x="0"
     inkscape:window-y="25"
     inkscape:window-maximized="1" />
  <defs
     id="defs4" />
  <metadata
     id="metadata7">
    <rdf:RDF>
      <cc:Work
         rdf:about="">
        <dc:format>image/svg+xml</dc:format>
        <dc:type
           rdf:resource="http://purl.org/dc/dcmitype/StillImage" />
        <dc:title></dc:title>
      </cc:Work>
    </rdf:RDF>
  </metadata>
  <g
     inkscape:label="Calque 1"
     inkscape:groupmode="layer"
     id="layer1"
     transform="translate(0,10.629918)">
    <g
       id="g3530"
       style="fill:none;fill-opacity:1;stroke:#ff0000;stroke-opacity:1;stroke-width:0.03543307;stroke-miterlimit:4;stroke-dasharray:none">
      <path
         id="path3419-2"
         transform="translate(0,-10.629918)"
         d="M 507.35742 125.48633 L 504.09766 129.50195 L 503.51758 131.07617 L 503.19922 133.9375 L 497.97852 133.96484 L 497.62891 131.10742 L 497.03125 129.53906 L 493.73047 125.55664 L 491.0293 126.29492 L 490.2168 131.4043 L 490.5 133.05859 L 491.65625 135.69531 L 487.14648 138.33008 L 485.41602 136.0293 L 484.11523 134.96875 L 479.26562 133.16992 L 477.29492 135.16016 L 479.14453 139.99219 L 479.16797 140.01953 A 354.28742 354.28359 0 0 0 146.57617 492.54102 A 354.28742 354.28359 0 0 0 146.5918 493.01367 L 182.02344 493.01367 A 318.85866 318.85523 0 0 1 182.00781 492.64258 A 318.85866 318.85523 0 0 1 478.23242 175.87305 L 477.51953 177.79688 L 479.50977 179.76758 L 484.33984 177.91797 L 485.63086 176.8457 L 486.66406 175.44141 A 318.85866 318.85523 0 0 1 488.75195 175.33398 L 491.87305 177.11328 L 490.74414 179.76172 L 490.47852 181.41992 L 491.3457 186.51953 L 494.05469 187.22852 L 497.3125 183.21289 L 497.89453 181.63867 L 498.21289 178.77734 L 503.43359 178.75 L 503.78125 181.60742 L 504.37891 183.17578 L 507.67969 187.1582 L 510.38086 186.41992 L 511.19531 181.31055 L 510.91016 179.65625 L 509.75586 177.01953 L 514.26367 174.38477 L 515.99414 176.68555 L 517.29688 177.74609 L 522.14648 179.54492 L 524.11523 177.55469 L 522.26758 172.72266 L 521.19336 171.43164 L 518.875 169.72656 L 521.46094 165.19141 L 524.11133 166.31836 L 525.76758 166.58594 L 530.86719 165.7168 L 531.57812 163.00977 L 527.56055 159.75 L 525.98633 159.16797 L 523.125 158.85156 L 523.09766 153.62891 L 525.95508 153.28125 L 527.52344 152.68359 L 531.50586 149.38281 L 530.76758 146.68164 L 525.66016 145.86719 L 524.00586 146.15234 L 521.36719 147.30664 L 518.73438 142.79883 L 521.03516 141.06836 L 522.09375 139.76758 L 523.89258 134.91602 L 521.90234 132.94727 L 517.07227 134.79688 L 515.78125 135.86914 L 514.07422 138.1875 L 509.53906 135.60156 L 510.66602 132.95312 L 510.93359 131.29492 L 510.06641 126.19531 L 507.35742 125.48633 z M 854.71875 480.07812 L 854.71875 503.7793 A 354.28742 354.28359 0 0 0 855.13672 496.66992 A 354.28742 354.28359 0 0 0 854.71875 480.07812 z M 488.66602 847.27734 A 354.28742 354.28359 0 0 0 498.79883 847.84375 A 354.28742 354.28359 0 0 0 500.45117 847.79688 L 500.45117 847.27734 L 488.66602 847.27734 z "
         style="fill:none;stroke:#ff0000;stroke-width:0.03543307;fill-opacity:1;stroke-opacity:1;stroke-miterlimit:4;stroke-dasharray:none" />
      <circle
         transform="matrix(0.55484443,0.83195412,-0.83195412,0.55484443,0,0)"
         r="5.3149605"
         cy="-335.70804"
         cx="399.05228"
         id="path3421-6"
         style="fill:none;stroke:#ff0000;stroke-width:0.03543307;fill-opacity:1;stroke-opacity:1;stroke-miterlimit:4;stroke-dasharray:none" />
    </g>
    <g
       id="g3537"
       transform="matrix(0,-1,1,0,84.456042,1148.8054)"
       style="fill:none;fill-opacity:1;stroke:#ff0000;stroke-opacity:1;stroke-width:0.03543307;stroke-miterlimit:4;stroke-dasharray:none">
      <path
         id="path3419-2-6"
         transform="translate(0,-10.629918)"
         d="m 613.49805,124.79883 -2.16602,4.69726 -0.17383,1.66993 0.39844,2.85156 -5.05273,1.3164 -1.04297,-2.68359 -0.9668,-1.37305 -4.18164,-3.04296 -2.43555,1.38281 0.47266,5.15039 0.68359,1.5332 1.77149,2.26953 -3.71875,3.66602 -2.24414,-1.80078 -1.52344,-0.70703 -5.14453,-0.54297 -1.41602,2.41406 2.98438,4.22461 1.35937,0.98633 2.66797,1.08007 -1.38672,5.03321 -2.8457,-0.4375 -1.67188,0.15039 -4.72656,2.09961 -0.0195,2.80078 4.69727,2.16601 1.66992,0.17383 2.85156,-0.39843 1.31641,5.05273 -2.6836,1.04297 -1.37304,0.9668 -3.04297,4.18164 1.38281,2.43554 5.15039,-0.47265 1.5332,-0.6836 2.26953,-1.77148 3.66602,3.71875 -1.80078,2.24414 -0.70703,1.52344 -0.54297,5.14453 2.41406,1.41601 4.22461,-2.98437 0.98633,-1.35938 1.08008,-2.66797 5.0332,1.38672 -0.4375,2.84571 0.15039,1.67187 2.09961,4.72656 2.80078,0.0195 2.16602,-4.69727 0.17383,-1.66992 -0.39844,-2.85156 5.05273,-1.31641 1.04297,2.68359 0.9668,1.37305 4.18164,3.04297 2.43555,-1.38281 -0.47266,-5.15039 -0.65234,-1.46094 a 318.85866,318.85523 0 0 1 303.12695,317.12305 318.85866,318.85523 0 0 1 -0.0156,0.37109 l 35.43164,0 a 354.28742,354.28359 0 0 0 0.0156,-0.47266 354.28742,354.28359 0 0 0 -326.375,-351.98242 l -1.11914,-1.96875 -5.15039,0.47266 -1.5332,0.68359 -0.26954,0.21094 a 354.28742,354.28359 0 0 0 -3.66015,-0.125 l -2.00586,-2.03321 1.80078,-2.24414 0.70703,-1.52343 0.54297,-5.14453 -2.41406,-1.41602 -4.22461,2.98438 -0.98633,1.35937 -1.08008,2.66797 -5.0332,-1.38672 0.4375,-2.8457 -0.15039,-1.67188 -2.09961,-4.72656 -2.80078,-0.0195 z M 260.76758,481.04492 a 354.28742,354.28359 0 0 0 -0.41797,16.5918 354.28742,354.28359 0 0 0 0.41797,7.10937 l 0,-23.70117 z m 354.26953,367.19922 0,0.51953 a 354.28742,354.28359 0 0 0 1.65234,0.0469 354.28742,354.28359 0 0 0 10.13282,-0.56641 l -11.78516,0 z"
         style="fill:none;stroke:#ff0000;stroke-width:0.03543307;fill-opacity:1;stroke-opacity:1;stroke-miterlimit:4;stroke-dasharray:none"
         inkscape:connector-curvature="0" />
      <circle
         transform="matrix(0.30901699,0.95105652,-0.95105652,0.30901699,0,0)"
         r="5.3149605"
         cy="-539.56104"
         cx="328.54092"
         id="path3421-6-3"
         style="fill:none;stroke:#ff0000;stroke-width:0.03543307;fill-opacity:1;stroke-opacity:1;stroke-miterlimit:4;stroke-dasharray:none" />
    </g>
    <path
       style="fill:none;fill-opacity:1;stroke:#ff0000;stroke-width:0.07191102;stroke-miterlimit:4;stroke-dasharray:none;stroke-opacity:1"
       d="m 999.5188,246.96818 c 0.8188,-37.3176 -22.11239,-72.16097 -60.13622,-91.3756 C 901.35876,136.37795 854.03441,135.719 815.276,153.8645 c -38.7584,18.14551 -63.04683,52.33138 -63.6956,89.65135 l 17.71099,0.57555 c 0.55609,-31.09936 21.37483,-59.58703 54.59645,-74.70799 33.22163,-15.12096 73.78552,-14.57184 106.3775,1.44004 32.59198,16.01188 52.24734,45.04744 51.54554,76.14483 z"
       id="path4382"
       inkscape:connector-curvature="0"
       sodipodi:nodetypes="cssccsscc" />
  </g>
</svg>
