<?xml version="1.0" encoding="UTF-8" standalone="no"?>
<!-- Created with Inkscape (http://www.inkscape.org/) -->

<svg
   xmlns:dc="http://purl.org/dc/elements/1.1/"
   xmlns:cc="http://creativecommons.org/ns#"
   xmlns:rdf="http://www.w3.org/1999/02/22-rdf-syntax-ns#"
   xmlns:svg="http://www.w3.org/2000/svg"
   xmlns="http://www.w3.org/2000/svg"
   xmlns:sodipodi="http://sodipodi.sourceforge.net/DTD/sodipodi-0.dtd"
   xmlns:inkscape="http://www.inkscape.org/namespaces/inkscape"
   width="2161.4172"
   height="1080.7086"
   id="svg2"
   version="1.1"
   inkscape:version="0.48.4 r9939"
   sodipodi:docname="Nouveau document 1">
  <defs
     id="defs4" />
  <sodipodi:namedview
     id="base"
     pagecolor="#ffffff"
     bordercolor="#666666"
     borderopacity="1.0"
     inkscape:pageopacity="0.0"
     inkscape:pageshadow="2"
     inkscape:zoom="1.979899"
     inkscape:cx="-3657.4699"
     inkscape:cy="434.08171"
     inkscape:document-units="mm"
     inkscape:current-layer="layer1"
     showgrid="false"
     units="mm"
     showguides="true"
     inkscape:guide-bbox="true"
     inkscape:window-width="1920"
     inkscape:window-height="1023"
     inkscape:window-x="0"
     inkscape:window-y="0"
     inkscape:window-maximized="1">
    <sodipodi:guide
       orientation="0,1"
       position="-3870.3995,331.33004"
       id="guide3849" />
  </sodipodi:namedview>
  <metadata
     id="metadata7">
    <rdf:RDF>
      <cc:Work
         rdf:about="">
        <dc:format>image/svg+xml</dc:format>
        <dc:type
           rdf:resource="http://purl.org/dc/dcmitype/StillImage" />
        <dc:title></dc:title>
      </cc:Work>
    </rdf:RDF>
  </metadata>
  <g
     inkscape:label="Calque 1"
     inkscape:groupmode="layer"
     id="layer1"
     transform="translate(0,28.34645)">
    <path
       style="fill:none;stroke:#ff0000;stroke-opacity:1;stroke-width:0.03543307;stroke-miterlimit:4;stroke-dasharray:none;fill-opacity:1"
       d="M -3178.2188 -326.65625 C -3179.9108 -326.63962 -3181.6739 -326.58034 -3183.5312 -326.5 C -3205.149 -325.56487 -3220.3239 -322.75379 -3230.2812 -317.78125 C -3237.6863 -314.08333 -3251.7342 -303.43955 -3260.3438 -295.03125 C -3268.882 -286.69257 -3282.2782 -269.15212 -3289.0938 -257.40625 C -3297.6921 -242.58787 -3436.6455 37.186514 -3488.25 143.59375 C -3514.6567 198.04375 -3568.8733 307.16875 -3608.75 386.09375 C -3731.9162 629.86755 -3718.7829 604.57455 -3728.9062 617.34375 C -3734.6585 624.59928 -3740.3527 630.54125 -3745 634.09375 C -3774.4894 656.63585 -3786.3009 661.08375 -3816.6875 661.09375 C -3841.8471 661.09944 -3867.2109 655.16526 -3900.4062 641.4375 C -3900.1417 639.50834 -3900 637.53308 -3900 635.53125 C -3900 611.76328 -3919.2633 592.5 -3943.0312 592.5 C -3966.7992 592.5 -3986.0625 611.76328 -3986.0625 635.53125 C -3986.0625 659.29922 -3966.7992 678.5625 -3943.0312 678.5625 C -3930.8359 678.5625 -3919.8309 673.49424 -3912 665.34375 C -3894.6024 670.44854 -3870.4474 676.00428 -3854.0312 678.4375 C -3844.4062 679.8641 -3835.4062 681.2234 -3834.0312 681.4375 C -3827.8467 682.4006 -3806.5712 681.91325 -3796.6562 680.59375 C -3776.8889 677.96315 -3756.1186 670.2912 -3737.0312 658.5625 C -3714.9745 645.0093 -3705.5204 636.3008 -3660.625 588.09375 C -3468.4332 381.72543 -3355.0194 275.53701 -3286.5312 237.84375 C -3269.1053 228.25314 -3258.3081 224.99792 -3233.0312 221.65625 C -3222.8562 220.31109 -3208.9062 218.66313 -3202.0312 218.03125 C -3151.2705 213.3658 -3096.3002 234.46672 -3035.0312 282.09375 C -2971.496 331.48239 -2900.918 412.0422 -2833.4688 512.09375 C -2802.3567 558.24403 -2787.0415 583.62995 -2766.5625 623.09375 C -2752.2789 650.61865 -2749.6654 655.09375 -2747.9062 655.09375 C -2745.6947 655.09375 -2719.1065 642.6921 -2718.625 641.4375 C -2718.0765 640.0079 -2728.0509 615.11769 -2734.5938 601.59375 C -2737.4292 595.7331 -3056.604 -208.18366 -3068.0938 -238.40625 C -3077.3226 -262.68178 -3082.3933 -271.29455 -3095.4688 -284.78125 C -3112.8348 -302.69348 -3131.325 -315.99897 -3145.7812 -321 C -3158.0712 -325.25157 -3166.3746 -326.77269 -3178.2188 -326.65625 z "
       transform="translate(0,-28.34645)"
       id="path3027-6" />
    <rect
       style="opacity:0.22607847000000000;fill:none;stroke:#ff0000;stroke-width:0.03543307;stroke-miterlimit:4;stroke-opacity:1;stroke-dasharray:none;stroke-dashoffset:0;fill-opacity:1"
       id="rect3822"
       width="48.57143"
       height="18.928572"
       x="-3345.6074"
       y="2197.1467"
       transform="matrix(0.90793632,0.41910814,-0.41910814,0.90793632,0,0)" />
    <rect
       style="opacity:0.22607847000000000;fill:none;stroke:#ff0000;stroke-width:0.03543307;stroke-miterlimit:4;stroke-opacity:1;stroke-dasharray:none;stroke-dashoffset:0;fill-opacity:1"
       id="rect3822-2"
       width="48.57143"
       height="18.928572"
       x="-2228.0208"
       y="-2967.7959"
       transform="matrix(0.48338645,-0.87540707,0.87540707,0.48338645,0,0)" />
    <rect
       style="opacity:0.22607847000000000;fill:none;stroke:#ff0000;stroke-width:0.03543307;stroke-miterlimit:4;stroke-opacity:1;stroke-dasharray:none;stroke-dashoffset:0;fill-opacity:1"
       id="rect3822-8"
       width="48.57143"
       height="18.928572"
       x="-674.55347"
       y="2721.1221"
       transform="matrix(0.43175801,0.90198948,-0.90198948,0.43175801,0,0)" />
  </g>
</svg>
