<?xml version="1.0" encoding="UTF-8" standalone="no"?>
<!-- Created with Inkscape (http://www.inkscape.org/) -->

<svg
   xmlns:dc="http://purl.org/dc/elements/1.1/"
   xmlns:cc="http://creativecommons.org/ns#"
   xmlns:rdf="http://www.w3.org/1999/02/22-rdf-syntax-ns#"
   xmlns:svg="http://www.w3.org/2000/svg"
   xmlns="http://www.w3.org/2000/svg"
   xmlns:sodipodi="http://sodipodi.sourceforge.net/DTD/sodipodi-0.dtd"
   xmlns:inkscape="http://www.inkscape.org/namespaces/inkscape"
   width="1417.4062"
   height="354.71875"
   id="svg2"
   version="1.1"
   inkscape:version="0.48.4 r9939"
   sodipodi:docname="PIED_TABLE-BASSE-5MM.svg">
  <defs
     id="defs4" />
  <sodipodi:namedview
     id="base"
     pagecolor="#ffffff"
     bordercolor="#666666"
     borderopacity="1.0"
     inkscape:pageopacity="0.0"
     inkscape:pageshadow="2"
     inkscape:zoom="0.35489309"
     inkscape:cx="1049.9661"
     inkscape:cy="72.587486"
     inkscape:document-units="mm"
     inkscape:current-layer="layer1"
     showgrid="true"
     units="mm"
     showguides="true"
     inkscape:guide-bbox="true"
     inkscape:window-width="1680"
     inkscape:window-height="993"
     inkscape:window-x="0"
     inkscape:window-y="0"
     inkscape:window-maximized="1"
     fit-margin-top="0"
     fit-margin-left="0"
     fit-margin-right="0"
     fit-margin-bottom="0">
    <inkscape:grid
       type="xygrid"
       id="grid2985"
       units="mm"
       empspacing="5"
       visible="true"
       enabled="true"
       snapvisiblegridlinesonly="true"
       spacingx="10mm"
       spacingy="10mm"
       originx="0mm"
       originy="0.021250158mm" />
    <sodipodi:guide
       orientation="0,1"
       position="212.59843,177.24065"
       id="guide3007" />
  </sodipodi:namedview>
  <metadata
     id="metadata7">
    <rdf:RDF>
      <cc:Work
         rdf:about="">
        <dc:format>image/svg+xml</dc:format>
        <dc:type
           rdf:resource="http://purl.org/dc/dcmitype/StillImage" />
        <dc:title></dc:title>
      </cc:Work>
    </rdf:RDF>
  </metadata>
  <g
     inkscape:label="Calque 1"
     inkscape:groupmode="layer"
     id="layer1"
     transform="translate(0,-697.71875)">
    <path
       style="fill:none;stroke:#00ffff;stroke-width:0.14167699;stroke-miterlimit:4;stroke-opacity:1;stroke-dashoffset:0"
       d="M 0.20250335,697.78162 177.16535,698.0315 1408.4049,838.74459 l 8.9179,9.01919 0,90.29921 -8.8829,8.76139 L 177.16535,1052.3622 0.20250335,1051.921 z"
       id="rect2987"
       inkscape:connector-curvature="0"
       sodipodi:nodetypes="ccccccccc" />
    <path
       style="fill:none;stroke:#000000;stroke-width:1px;stroke-linecap:butt;stroke-linejoin:miter;stroke-opacity:1"
       d="m 0,903.54327 177.16535,0"
       id="path3009"
       inkscape:connector-curvature="0"
       transform="translate(0,-28.346414)" />
    <path
       style="fill:none;stroke:#000000;stroke-width:1px;stroke-linecap:butt;stroke-linejoin:miter;stroke-opacity:1"
       d="m 177.16535,868.11019 177.16536,0"
       id="path3011"
       inkscape:connector-curvature="0"
       transform="translate(0,-28.346414)" />
    <path
       style="fill:none;stroke:#000000;stroke-width:1px;stroke-linecap:butt;stroke-linejoin:miter;stroke-opacity:1"
       d="m 354.33071,938.97633 177.16535,0"
       id="path3013"
       inkscape:connector-curvature="0"
       transform="translate(0,-28.346414)" />
    <path
       style="fill:none;stroke:#000000;stroke-width:1px;stroke-linecap:butt;stroke-linejoin:miter;stroke-opacity:1"
       d="m 531.49606,868.11019 177.16536,0"
       id="path3015"
       inkscape:connector-curvature="0"
       transform="translate(0,-28.346414)" />
    <path
       style="fill:none;stroke:#000000;stroke-width:1px;stroke-linecap:butt;stroke-linejoin:miter;stroke-opacity:1"
       d="m 708.66142,938.97633 177.16535,0"
       id="path3017"
       inkscape:connector-curvature="0"
       transform="translate(0,-28.346414)" />
    <path
       style="fill:none;stroke:#000000;stroke-width:1px;stroke-linecap:butt;stroke-linejoin:miter;stroke-opacity:1"
       d="m 885.82677,868.11019 177.16533,0"
       id="path3019"
       inkscape:connector-curvature="0"
       transform="translate(0,-28.346414)" />
    <path
       style="fill:none;stroke:#000000;stroke-width:1px;stroke-linecap:butt;stroke-linejoin:miter;stroke-opacity:1"
       d="m 1062.9921,938.97633 354.3307,0"
       id="path3021"
       inkscape:connector-curvature="0"
       transform="translate(0,-28.346414)" />
    <path
       style="fill:none;stroke:#000000;stroke-width:1px;stroke-linecap:butt;stroke-linejoin:miter;stroke-opacity:1"
       d="m 885.82677,868.11019 0,70.86614"
       id="path3023"
       inkscape:connector-curvature="0"
       transform="translate(0,-28.346414)" />
    <path
       style="fill:none;stroke:#000000;stroke-width:1px;stroke-linecap:butt;stroke-linejoin:miter;stroke-opacity:1"
       d="m 1062.9921,868.11019 0,70.86614"
       id="path3025"
       inkscape:connector-curvature="0"
       transform="translate(0,-28.346414)" />
    <path
       style="fill:none;stroke:#000000;stroke-width:1px;stroke-linecap:butt;stroke-linejoin:miter;stroke-opacity:1"
       d="m 708.66142,868.11019 0,70.86614"
       id="path3027"
       inkscape:connector-curvature="0"
       transform="translate(0,-28.346414)" />
    <path
       style="fill:none;stroke:#000000;stroke-width:1px;stroke-linecap:butt;stroke-linejoin:miter;stroke-opacity:1"
       d="m 531.49606,868.11019 0,70.86614"
       id="path3029"
       inkscape:connector-curvature="0"
       transform="translate(0,-28.346414)" />
    <path
       style="fill:none;stroke:#000000;stroke-width:1px;stroke-linecap:butt;stroke-linejoin:miter;stroke-opacity:1"
       d="m 354.33071,868.11019 0,70.86614"
       id="path3031"
       inkscape:connector-curvature="0"
       transform="translate(0,-28.346414)" />
    <path
       style="fill:none;stroke:#000000;stroke-width:1px;stroke-linecap:butt;stroke-linejoin:miter;stroke-opacity:1"
       d="m 177.16535,868.11019 0,70.86614 -177.16535,0"
       id="path3033"
       inkscape:connector-curvature="0"
       transform="translate(0,-28.346414)" />
    <path
       sodipodi:type="arc"
       style="fill:none;stroke:#00ffff;stroke-width:0.03543307;stroke-miterlimit:4;stroke-opacity:1;stroke-dasharray:none;stroke-dashoffset:0"
       id="path3036"
       sodipodi:cx="53.149605"
       sodipodi:cy="814.96057"
       sodipodi:rx="17.716536"
       sodipodi:ry="17.716536"
       d="m 70.86614,814.96057 c 0,9.78457 -7.931963,17.71654 -17.716535,17.71654 -9.784573,0 -17.716536,-7.93197 -17.716536,-17.71654 0,-9.78457 7.931963,-17.71653 17.716536,-17.71653 9.784572,0 17.716535,7.93196 17.716535,17.71653 z"
       transform="matrix(0.29894363,0,0,0.29881073,24.796794,546.59709)" />
    <path
       sodipodi:type="arc"
       style="fill:none;stroke:#00ffff;stroke-width:0.03543307;stroke-miterlimit:4;stroke-opacity:1;stroke-dasharray:none;stroke-dashoffset:0"
       id="path3036-6"
       sodipodi:cx="53.149605"
       sodipodi:cy="814.96057"
       sodipodi:rx="17.716536"
       sodipodi:ry="17.716536"
       d="m 70.86614,814.96057 c 0,9.78457 -7.931963,17.71654 -17.716535,17.71654 -9.784573,0 -17.716536,-7.93197 -17.716536,-17.71654 0,-9.78457 7.931963,-17.71653 17.716536,-17.71653 9.784572,0 17.716535,7.93196 17.716535,17.71653 z"
       transform="matrix(0.29894363,0,0,0.29881073,113.48576,546.59709)" />
    <path
       sodipodi:type="arc"
       style="fill:none;stroke:#00ffff;stroke-width:0.03543307;stroke-miterlimit:4;stroke-opacity:1;stroke-dasharray:none;stroke-dashoffset:0"
       id="path3036-2"
       sodipodi:cx="53.149605"
       sodipodi:cy="814.96057"
       sodipodi:rx="17.716536"
       sodipodi:ry="17.716536"
       d="m 70.86614,814.96057 c 0,9.78457 -7.931963,17.71654 -17.716535,17.71654 -9.784573,0 -17.716536,-7.93197 -17.716536,-17.71654 0,-9.78457 7.931963,-17.71653 17.716536,-17.71653 9.784572,0 17.716535,7.93196 17.716535,17.71653 z"
       transform="matrix(0.29895006,0,0,0.29881073,24.51452,723.76244)" />
    <path
       sodipodi:type="arc"
       style="fill:none;stroke:#00ffff;stroke-width:0.03543307;stroke-miterlimit:4;stroke-opacity:1;stroke-dasharray:none;stroke-dashoffset:0"
       id="path3036-6-5"
       sodipodi:cx="53.149605"
       sodipodi:cy="814.96057"
       sodipodi:rx="17.716536"
       sodipodi:ry="17.716536"
       d="m 70.86614,814.96057 c 0,9.78457 -7.931963,17.71654 -17.716535,17.71654 -9.784573,0 -17.716536,-7.93197 -17.716536,-17.71654 0,-9.78457 7.931963,-17.71653 17.716536,-17.71653 9.784572,0 17.716535,7.93196 17.716535,17.71653 z"
       transform="matrix(0.29895006,0,0,0.29881073,113.48553,723.76244)" />
  </g>
</svg>
