<?xml version="1.0" encoding="UTF-8" standalone="no"?>
<!-- Created with Inkscape (http://www.inkscape.org/) -->

<svg
   xmlns:dc="http://purl.org/dc/elements/1.1/"
   xmlns:cc="http://creativecommons.org/ns#"
   xmlns:rdf="http://www.w3.org/1999/02/22-rdf-syntax-ns#"
   xmlns:svg="http://www.w3.org/2000/svg"
   xmlns="http://www.w3.org/2000/svg"
   xmlns:sodipodi="http://sodipodi.sourceforge.net/DTD/sodipodi-0.dtd"
   xmlns:inkscape="http://www.inkscape.org/namespaces/inkscape"
   id="svg21544"
   version="1.1"
   inkscape:version="0.91 r13725"
   xml:space="preserve"
   width="561.39294mm"
   height="327.25006mm"
   viewBox="0 0 1989.1875 1159.5475"
   sodipodi:docname="banc.svg"><metadata
     id="metadata21550"><rdf:RDF><cc:Work
         rdf:about=""><dc:format>image/svg+xml</dc:format><dc:type
           rdf:resource="http://purl.org/dc/dcmitype/StillImage" /><dc:title></dc:title></cc:Work></rdf:RDF></metadata><defs
     id="defs21548"><clipPath
       clipPathUnits="userSpaceOnUse"
       id="clipPath21558"><path
         d="m 0,927.638 1591.35,0 L 1591.35,0 0,0 0,927.638 Z"
         id="path21560"
         inkscape:connector-curvature="0" /></clipPath><clipPath
       clipPathUnits="userSpaceOnUse"
       id="clipPath21638"><path
         d="m 0,927.638 1591.35,0 L 1591.35,0 0,0 0,927.638 Z"
         id="path21640"
         inkscape:connector-curvature="0" /></clipPath></defs><sodipodi:namedview
     pagecolor="#ffffff"
     bordercolor="#666666"
     borderopacity="1"
     objecttolerance="10"
     gridtolerance="10"
     guidetolerance="10"
     inkscape:pageopacity="0"
     inkscape:pageshadow="2"
     inkscape:window-width="1920"
     inkscape:window-height="1017"
     id="namedview21546"
     showgrid="false"
     inkscape:document-units="mm"
     units="mm"
     inkscape:zoom="0.65152229"
     inkscape:cx="962.51794"
     inkscape:cy="546.14994"
     inkscape:window-x="-4"
     inkscape:window-y="-4"
     inkscape:window-maximized="1"
     inkscape:current-layer="g21552" /><g
     id="g21552"
     inkscape:groupmode="layer"
     inkscape:label="banc"
     transform="matrix(1.25,0,0,-1.25,0,1159.5475)"><g
       id="g21562"
       transform="translate(168.1479,189.5684)"><path
         d="m 0,0 c 0,-44.326 35.933,-80.259 80.259,-80.259 l 219.274,0 c 20.825,0.109 37.681,16.964 37.79,37.79 l 0,345.087 c 0,26.067 -18.823,48.322 -44.528,52.649 l -90.701,15.457 c -20.174,3.438 -39.314,-10.129 -42.752,-30.303 -0.374,-2.196 -0.55,-4.422 -0.524,-6.65 l 0.862,-74.962 -20.783,-9.143 0,61.116 -2.834,0 0,8.504 2.834,0 0,62.361 -2.834,0 -76.494,12.876 0.47,2.795 -44.725,7.528 -0.47,-2.795 -8.386,1.411 0.47,2.796 -44.725,7.528 -0.471,-2.796 -8.386,1.412 0.471,2.795 -43.936,7.395 9.922,20.968 378.019,-63.627 c 18.45,-3.106 35.926,9.334 39.031,27.785 0.313,1.858 0.47,3.739 0.47,5.623 l 0,13.801 25.512,0 0,-532.913 -484.725,0 0,68.032 8.443,0 56.754,204.093 56.693,0 L 0,0 Z"
         style="fill:none;stroke:#0000ff;stroke-width:0.028;stroke-linecap:round;stroke-linejoin:round;stroke-miterlimit:10;stroke-dasharray:none;stroke-opacity:1"
         id="path21564"
         inkscape:connector-curvature="0" /></g><g
       id="g21566"
       transform="translate(267.3218,405.6436)"><path
         d="m 0,0 76.495,-12.875 -0.471,-2.795 44.725,-7.528 0.471,2.795 8.385,-1.411 -0.47,-2.795 44.725,-7.529 0.471,2.795 8.386,-1.411 -0.471,-2.795 43.936,-7.395 -9.921,-20.968 -378.02,63.628 c -18.45,3.105 -35.925,-9.335 -39.031,-27.785 -0.313,-1.859 -0.47,-3.74 -0.47,-5.623 l 0,-13.802 -25.511,0 0,532.913 362.834,0 0,-8.504 28.347,0 0,8.504 28.346,0 0,-8.504 28.347,0 0,8.504 28.346,0 0,-17.008 8.504,0 0,-34.015 -8.504,0 0,-17.229 -54.328,-195.37 -16.538,0 0,-8.504 -28.347,0 0,8.504 -14.173,0 0,157.851 c 0,44.326 -35.933,80.259 -80.259,80.259 l -219.274,0 c -20.825,-0.108 -37.681,-16.964 -37.79,-37.79 l 0,-345.087 c 0,-26.066 18.823,-48.322 44.528,-52.649 l 90.701,-15.457 c 20.174,-3.438 39.314,10.129 42.752,30.303 0.375,2.196 0.55,4.422 0.524,6.651 l -0.862,74.961 20.783,9.143 0,-61.115 2.834,0 0,-8.504 -2.834,0 L -2.834,0 0,0 Z"
         style="fill:none;stroke:#0000ff;stroke-width:0.028;stroke-linecap:round;stroke-linejoin:round;stroke-miterlimit:10;stroke-dasharray:none;stroke-opacity:1"
         id="path21568"
         inkscape:connector-curvature="0" /></g><g
       id="g21570"
       transform="translate(898.6489,189.5684)"><path
         d="m 0,0 c 0,-44.326 -35.934,-80.259 -80.259,-80.259 l -219.274,0 c -20.825,0.109 -37.681,16.964 -37.79,37.79 l 0,345.087 c 0,26.067 18.823,48.322 44.528,52.649 l 90.701,15.457 c 2.197,0.374 4.423,0.549 6.651,0.524 20.463,-0.235 36.86,-17.015 36.625,-37.477 l -0.862,-74.962 20.782,-9.143 0,61.116 2.835,0 0,8.504 -2.835,0 0,62.361 2.835,0 76.495,12.876 -0.471,2.795 44.725,7.528 0.47,-2.795 8.386,1.411 -0.47,2.796 44.725,7.528 0.471,-2.796 8.385,1.412 -0.469,2.795 43.935,7.395 -9.922,20.968 -378.019,-63.627 c -1.858,-0.313 -3.739,-0.47 -5.623,-0.47 -18.71,0 -33.878,15.167 -33.878,33.878 l 0,13.801 -25.512,0 0,-532.913 484.725,0 0,68.032 -8.443,0 L 56.692,166.354 0,166.354 0,0 Z"
         style="fill:none;stroke:#0000ff;stroke-width:0.028;stroke-linecap:round;stroke-linejoin:round;stroke-miterlimit:10;stroke-dasharray:none;stroke-opacity:1"
         id="path21572"
         inkscape:connector-curvature="0" /></g><g
       id="g21574"
       transform="translate(799.4751,405.6436)"><path
         d="m 0,0 -76.495,-12.875 0.471,-2.795 -44.725,-7.528 -0.471,2.795 -8.385,-1.411 0.47,-2.795 -44.725,-7.529 -0.471,2.795 -8.386,-1.411 0.471,-2.795 -43.936,-7.395 9.921,-20.968 378.02,63.628 c 1.858,0.312 3.739,0.47 5.623,0.47 18.71,0 33.878,-15.168 33.878,-33.878 l 0,-13.802 25.511,0 0,532.913 -362.834,0 0,-8.504 -28.347,0 0,8.504 -28.346,0 0,-8.504 -28.347,0 0,8.504 -28.346,0 0,-17.008 -8.504,0 0,-34.015 8.504,0 0,-17.229 54.328,-195.37 16.538,0 0,-8.504 28.347,0 0,8.504 14.173,0 0,157.851 c 0,44.326 35.933,80.259 80.259,80.259 l 219.274,0 c 20.825,-0.108 37.681,-16.964 37.79,-37.79 l 0,-345.087 c 0,-26.066 -18.823,-48.322 -44.529,-52.649 L 66.031,10.924 C 63.834,10.55 61.608,10.374 59.38,10.4 38.917,10.636 22.52,27.415 22.755,47.878 l 0.862,74.961 -20.782,9.143 0,-61.115 -2.835,0 0,-8.504 2.835,0 L 2.835,0 0,0 Z"
         style="fill:none;stroke:#0000ff;stroke-width:0.028;stroke-linecap:round;stroke-linejoin:round;stroke-miterlimit:10;stroke-dasharray:none;stroke-opacity:1"
         id="path21576"
         inkscape:connector-curvature="0" /></g><path
       d="m 1240.104,33.091 45.354,0 0,425.197 -45.354,0 0,-425.197 z"
       style="fill:none;stroke:#0000ff;stroke-width:0.028;stroke-linecap:round;stroke-linejoin:round;stroke-miterlimit:10;stroke-dasharray:none;stroke-opacity:1"
       id="path21578"
       inkscape:connector-curvature="0" /><path
       d="m 1520.692,467.866 45.354,0 0,425.197 -45.354,0 0,-425.197 z"
       style="fill:none;stroke:#0000ff;stroke-width:0.028;stroke-linecap:round;stroke-linejoin:round;stroke-miterlimit:10;stroke-dasharray:none;stroke-opacity:1"
       id="path21580"
       inkscape:connector-curvature="0" /><path
       d="m 1183.445,33.091 45.354,0 0,425.197 -45.354,0 0,-425.197 z"
       style="fill:none;stroke:#0000ff;stroke-width:0.028;stroke-linecap:round;stroke-linejoin:round;stroke-miterlimit:10;stroke-dasharray:none;stroke-opacity:1"
       id="path21582"
       inkscape:connector-curvature="0" /><path
       d="m 1172.668,458.288 -62.362,0 0,-425.197 62.362,0 0,425.197 z"
       style="fill:none;stroke:#0000ff;stroke-width:0.028;stroke-linecap:round;stroke-linejoin:round;stroke-miterlimit:10;stroke-dasharray:none;stroke-opacity:1"
       id="path21584"
       inkscape:connector-curvature="0" /><path
       d="m 1099.531,458.288 -62.362,0 0,-425.197 62.362,0 0,425.197 z"
       style="fill:none;stroke:#0000ff;stroke-width:0.028;stroke-linecap:round;stroke-linejoin:round;stroke-miterlimit:10;stroke-dasharray:none;stroke-opacity:1"
       id="path21586"
       inkscape:connector-curvature="0" /><path
       d="m 463.952,38.903 408.188,0 0,28.346 -408.188,0 0,-28.346 z"
       style="fill:none;stroke:#0000ff;stroke-width:0.028;stroke-linecap:round;stroke-linejoin:round;stroke-miterlimit:10;stroke-dasharray:none;stroke-opacity:1"
       id="path21588"
       inkscape:connector-curvature="0" /><path
       d="m 46.258,38.903 408.189,0 0,28.346 -408.189,0 0,-28.346 z"
       style="fill:none;stroke:#0000ff;stroke-width:0.028;stroke-linecap:round;stroke-linejoin:round;stroke-miterlimit:10;stroke-dasharray:none;stroke-opacity:1"
       id="path21590"
       inkscape:connector-curvature="0" /><g
       id="g21592"
       transform="translate(1489.9829,41.5947)"><path
         d="m 0,0 17.008,0 0,8.504 34.015,0 0,-8.504 17.008,0 0,408.189 -17.008,0 0,-8.503 -34.015,0 0,8.503 -17.008,0 0,-132.268 8.504,0 0,-143.652 -8.504,0 L 0,0 Z"
         style="fill:none;stroke:#0000ff;stroke-width:0.028;stroke-linecap:round;stroke-linejoin:round;stroke-miterlimit:10;stroke-dasharray:none;stroke-opacity:1"
         id="path21594"
         inkscape:connector-curvature="0" /></g><g
       id="g21596"
       transform="translate(1337.3364,449.7842)"><path
         d="m 0,0 14.173,0 0,-408.189 -14.173,0 0,8.503 -28.347,0 0,-8.503 -14.174,0 0,408.189 14.174,0 0,-8.504 L 0,-8.504 0,0 Z"
         style="fill:none;stroke:#0000ff;stroke-width:0.028;stroke-linecap:round;stroke-linejoin:round;stroke-miterlimit:10;stroke-dasharray:none;stroke-opacity:1"
         id="path21598"
         inkscape:connector-curvature="0" /></g><g
       id="g21600"
       transform="translate(1399.2397,41.5947)"><path
         d="m 0,0 28.347,0 0,8.504 28.346,0 0,-8.504 28.347,0 0,408.189 -28.347,0 0,-8.503 -28.346,0 0,8.503 -28.347,0 0,-8.503 -28.346,0 0,-123.765 -8.504,0 0,-143.652 8.504,0 0,-123.765 L 0,8.504 0,0 Z"
         style="fill:none;stroke:#0000ff;stroke-width:0.028;stroke-linecap:round;stroke-linejoin:round;stroke-miterlimit:10;stroke-dasharray:none;stroke-opacity:1"
         id="path21602"
         inkscape:connector-curvature="0" /></g><path
       d="m 1037.168,893.062 211.606,0 0,-425.197 -211.606,0 0,425.197 z"
       style="fill:none;stroke:#0000ff;stroke-width:0.028;stroke-linecap:round;stroke-linejoin:round;stroke-miterlimit:10;stroke-dasharray:none;stroke-opacity:1"
       id="path21604"
       inkscape:connector-curvature="0" /><g
       id="g21606"
       transform="translate(1278.2114,476.3696)"><path
         d="m 0,0 0,8.504 -21.26,0 0,391.181 21.26,0 0,8.504 42.52,0 0,-8.504 42.519,0 0,8.504 42.52,0 0,-8.504 42.52,0 0,8.504 42.52,0 0,-8.504 21.259,0 0,-391.181 -21.259,0 0,-8.504 -42.52,0 0,8.504 -42.52,0 0,-8.504 -42.52,0 0,8.504 -42.519,0 L 42.52,0 0,0 Z"
         style="fill:none;stroke:#0000ff;stroke-width:0.028;stroke-linecap:round;stroke-linejoin:round;stroke-miterlimit:10;stroke-dasharray:none;stroke-opacity:1"
         id="path21608"
         inkscape:connector-curvature="0" /></g><path
       d="m 414.724,650.701 -8.504,0 0,42.52 8.504,0 0,-42.52 z"
       style="fill:none;stroke:#ff0000;stroke-width:0.028;stroke-linecap:round;stroke-linejoin:round;stroke-miterlimit:10;stroke-dasharray:none;stroke-opacity:1"
       id="path21610"
       inkscape:connector-curvature="0" /><path
       d="m 414.724,735.74 -8.504,0 0,42.52 8.504,0 0,-42.52 z"
       style="fill:none;stroke:#ff0000;stroke-width:0.028;stroke-linecap:round;stroke-linejoin:round;stroke-miterlimit:10;stroke-dasharray:none;stroke-opacity:1"
       id="path21612"
       inkscape:connector-curvature="0" /><path
       d="m 406.22,863.299 8.504,0 0,-42.52 -8.504,0 0,42.52 z"
       style="fill:none;stroke:#ff0000;stroke-width:0.028;stroke-linecap:round;stroke-linejoin:round;stroke-miterlimit:10;stroke-dasharray:none;stroke-opacity:1"
       id="path21614"
       inkscape:connector-curvature="0" /><g
       id="g21616"
       transform="translate(119.8579,421.8828)"><path
         d="M 0,0 27.943,-4.762 26.532,-13.148 -1.412,-8.386 0,0 Z"
         style="fill:none;stroke:#ff0000;stroke-width:0.028;stroke-linecap:round;stroke-linejoin:round;stroke-miterlimit:10;stroke-dasharray:none;stroke-opacity:1"
         id="path21618"
         inkscape:connector-curvature="0" /></g><path
       d="m 148.267,876.055 -28.346,0 0,8.504 28.346,0 0,-8.504 z"
       style="fill:none;stroke:#ff0000;stroke-width:0.028;stroke-linecap:round;stroke-linejoin:round;stroke-miterlimit:10;stroke-dasharray:none;stroke-opacity:1"
       id="path21620"
       inkscape:connector-curvature="0" /><path
       d="m 652.073,650.701 8.504,0 0,42.52 -8.504,0 0,-42.52 z"
       style="fill:none;stroke:#ff0000;stroke-width:0.028;stroke-linecap:round;stroke-linejoin:round;stroke-miterlimit:10;stroke-dasharray:none;stroke-opacity:1"
       id="path21622"
       inkscape:connector-curvature="0" /><path
       d="m 652.073,735.74 8.504,0 0,42.52 -8.504,0 0,-42.52 z"
       style="fill:none;stroke:#ff0000;stroke-width:0.028;stroke-linecap:round;stroke-linejoin:round;stroke-miterlimit:10;stroke-dasharray:none;stroke-opacity:1"
       id="path21624"
       inkscape:connector-curvature="0" /><path
       d="m 660.577,863.299 -8.504,0 0,-42.52 8.504,0 0,42.52 z"
       style="fill:none;stroke:#ff0000;stroke-width:0.028;stroke-linecap:round;stroke-linejoin:round;stroke-miterlimit:10;stroke-dasharray:none;stroke-opacity:1"
       id="path21626"
       inkscape:connector-curvature="0" /><g
       id="g21628"
       transform="translate(946.939,421.8828)"><path
         d="m 0,0 -27.943,-4.762 1.411,-8.386 L 1.411,-8.386 0,0 Z"
         style="fill:none;stroke:#ff0000;stroke-width:0.028;stroke-linecap:round;stroke-linejoin:round;stroke-miterlimit:10;stroke-dasharray:none;stroke-opacity:1"
         id="path21630"
         inkscape:connector-curvature="0" /></g><path
       d="m 918.53,876.055 28.347,0 0,8.504 -28.347,0 0,-8.504 z"
       style="fill:none;stroke:#ff0000;stroke-width:0.028;stroke-linecap:round;stroke-linejoin:round;stroke-miterlimit:10;stroke-dasharray:none;stroke-opacity:1"
       id="path21632"
       inkscape:connector-curvature="0" /><g
       id="g21634"><g
         id="g21636"
         clip-path="url(#clipPath21638)"><g
           id="g21642"
           transform="translate(1542.4233,405.1123)"><path
             d="M 0,0 C 0,7.827 -6.345,14.173 -14.173,14.173 -22,14.173 -28.346,7.827 -28.346,0 c 0,-7.828 6.346,-14.174 14.173,-14.174 C -6.345,-14.174 0,-7.828 0,0 Z"
             style="fill:none;stroke:#ff0000;stroke-width:0.028;stroke-linecap:round;stroke-linejoin:round;stroke-miterlimit:10;stroke-dasharray:none;stroke-opacity:1"
             id="path21644"
             inkscape:connector-curvature="0" /></g></g></g><path
       d="m 0.354,0.354 1590.641,0 0,926.929 -1590.641,0 0,-926.929 z"
       style="fill:none;stroke:#7f3f00;stroke-width:0.028;stroke-linecap:round;stroke-linejoin:round;stroke-miterlimit:10;stroke-dasharray:none;stroke-opacity:1"
       id="path21646"
       inkscape:connector-curvature="0" /></g></svg>