<?xml version="1.0" encoding="UTF-8" standalone="no"?>
<!-- Created with Inkscape (http://www.inkscape.org/) -->

<svg
   xmlns:dc="http://purl.org/dc/elements/1.1/"
   xmlns:cc="http://creativecommons.org/ns#"
   xmlns:rdf="http://www.w3.org/1999/02/22-rdf-syntax-ns#"
   xmlns:svg="http://www.w3.org/2000/svg"
   xmlns="http://www.w3.org/2000/svg"
   xmlns:sodipodi="http://sodipodi.sourceforge.net/DTD/sodipodi-0.dtd"
   xmlns:inkscape="http://www.inkscape.org/namespaces/inkscape"
   width="210mm"
   height="297mm"
   id="svg5118"
   version="1.1"
   inkscape:version="0.91 r13725"
   sodipodi:docname="control panel decoupe laser 2.svg">
  <defs
     id="defs5120">
    <clipPath
       id="clipPath5156"
       clipPathUnits="userSpaceOnUse">
      <path
         id="path5158"
         d="m 0,881.18 3121.271,0 0,-881.18 L 0,0 0,881.18 z" />
    </clipPath>
    <clipPath
       id="clipPath6840"
       clipPathUnits="userSpaceOnUse">
      <path
         id="path6842"
         d="m 0,881.18 3121.271,0 0,-881.18 L 0,0 0,881.18 z" />
    </clipPath>
  </defs>
  <sodipodi:namedview
     id="base"
     pagecolor="#ffffff"
     bordercolor="#666666"
     borderopacity="1.0"
     inkscape:pageopacity="0.0"
     inkscape:pageshadow="2"
     inkscape:zoom="0.35868363"
     inkscape:cx="1094.7643"
     inkscape:cy="775.92821"
     inkscape:document-units="mm"
     inkscape:current-layer="layer1"
     showgrid="false"
     inkscape:window-width="1280"
     inkscape:window-height="962"
     inkscape:window-x="-8"
     inkscape:window-y="-8"
     inkscape:window-maximized="1" />
  <metadata
     id="metadata5123">
    <rdf:RDF>
      <cc:Work
         rdf:about="">
        <dc:format>image/svg+xml</dc:format>
        <dc:type
           rdf:resource="http://purl.org/dc/dcmitype/StillImage" />
        <dc:title></dc:title>
      </cc:Work>
    </rdf:RDF>
  </metadata>
  <g
     inkscape:label="Layer 1"
     inkscape:groupmode="layer"
     id="layer1">
    <g
       id="g6824"
       transform="matrix(1.25,0,0,-1.25,929.43257,291.57156)">
      <path
         inkscape:connector-curvature="0"
         d="m 0,0 -70.866,0 0,-14.173 -70.866,0 0,14.173 -70.867,0 0,-14.173 -70.866,0 0,14.173 -70.866,0 0,-14.173 -70.865,0 0,14.173 -70.866,0 0,-14.173 -70.867,0 0,14.173 -70.866,0 0,-14.173 -89.292,0 0,238.048 1525.04,0 0,-238.048 -89.292,0 0,14.173 -70.866,0 0,-14.173 -70.865,0 0,14.173 -70.867,0 0,-14.173 -70.866,0 0,14.173 -70.866,0 0,-14.173 -70.866,0 0,14.173 -70.866,0 0,-14.173 -70.867,0 0,14.173 -70.866,0 0,-14.173 L 0,-14.173 0,0 Z"
         style="fill:none;stroke:#7bd3dd;stroke-width:0.028;stroke-linecap:butt;stroke-linejoin:miter;stroke-miterlimit:10;stroke-dasharray:none;stroke-opacity:1"
         id="path6826" />
    </g>
    <path
       id="path6830"
       style="fill:none;stroke:#7bd3dd;stroke-width:0.035;stroke-linecap:butt;stroke-linejoin:miter;stroke-miterlimit:10;stroke-dasharray:none;stroke-opacity:1"
       d="m 929.42297,307.16881 88.58253,0 0,-15.59 88.5825,0 0,15.59 88.5837,0 0,-15.59 88.5813,0 0,15.59 88.5837,0 0,-15.59 88.5825,0 0,15.59 88.5825,0 0,-15.59 88.5825,0 0,15.59 88.5825,0 0,-15.59 88.5825,0 0,15.59 111.615,0 0,734.45119 -1906.299982,0 0,-732.32494 111.615002,0 0,-17.71625 88.5825,0 0,17.71625 88.5825,0 0,-17.71625 88.5825,0 0,15.59 88.5825,0 0,-15.59 88.5825,0 0,15.59 88.5825,0 0,-15.59 88.58375,0 0,15.59 88.5825,0 0,-15.59 88.5825,0 0,15.59 z"
       inkscape:connector-curvature="0" />
    <g
       id="g6848"
       transform="matrix(1.25,0,0,-1.25,160.53477,256.77656)"
       style="stroke-width:0.02834646;stroke-miterlimit:10;stroke-dasharray:none">
      <path
         inkscape:connector-curvature="0"
         d="m 0,0 c -23.482,0 -42.52,19.037 -42.52,42.521 l 0,83.163 c 0,23.482 19.038,42.519 42.52,42.519 l 368.504,0 c 23.483,0 42.519,-19.037 42.519,-42.519 l 0,-83.163 C 411.023,19.037 391.987,0 368.504,0 L 0,0 Z"
         style="fill:none;stroke:#3a629f;stroke-width:0.02834646;stroke-linecap:butt;stroke-linejoin:miter;stroke-miterlimit:10;stroke-dasharray:none;stroke-opacity:1"
         id="path6850" />
    </g>
    <g
       id="g6852"
       transform="matrix(1.25,0,0,-1.25,1786.913,256.77656)">
      <path
         inkscape:connector-curvature="0"
         d="m 0,0 c 23.482,0 42.52,19.037 42.52,42.521 l 0,83.163 c 0,23.482 -19.038,42.519 -42.52,42.519 l -368.504,0 c -23.483,0 -42.519,-19.037 -42.519,-42.519 l 0,-83.163 C -411.023,19.037 -391.987,0 -368.504,0 L 0,0 Z"
         style="fill:none;stroke:#3a629f;stroke-width:0.028;stroke-linecap:butt;stroke-linejoin:miter;stroke-miterlimit:10;stroke-dasharray:none;stroke-opacity:1"
         id="path6854" />
    </g>
    <g
       id="g6856"
       transform="matrix(1.25,0,0,-1.25,122.94285,431.48531)">
      <path
         inkscape:connector-curvature="0"
         d="m 0,0 0,-228.287 c 0.945,0.033 1.89,0.033 2.834,0 22.687,-0.783 40.444,-19.809 39.661,-42.495 l 1276.244,0 c -0.032,0.945 -0.032,1.89 0,2.834 0.783,22.687 19.808,40.444 42.495,39.661 l 0,228.287 c -0.944,-0.033 -1.89,-0.033 -2.835,0 -22.686,0.783 -40.443,19.809 -39.66,42.495 l -1276.244,0 c 0.033,-0.944 0.033,-1.89 0,-2.834 C 41.712,16.974 22.687,-0.783 0,0 Z"
         style="fill:none;stroke:#3a629f;stroke-width:0.028;stroke-linecap:butt;stroke-linejoin:miter;stroke-miterlimit:10;stroke-dasharray:none;stroke-opacity:1"
         id="path6858" />
    </g>
    <path
       inkscape:connector-curvature="0"
       d="m 863.88147,114.08691 70.865,0 0,-35.43375 -70.865,0 0,35.43375 z"
       style="fill:none;stroke:#ed1d24;stroke-width:0.035;stroke-linecap:round;stroke-linejoin:round;stroke-miterlimit:10;stroke-dasharray:none;stroke-opacity:1"
       id="path6884" />
    <g
       id="g6886"
       transform="matrix(1.25,0,0,-1.25,856.73477,96.37004)">
      <path
         inkscape:connector-curvature="0"
         d="m 0,0 c 0,3.104 -2.517,5.62 -5.621,5.62 -3.105,0 -5.621,-2.516 -5.621,-5.62 0,-3.104 2.516,-5.621 5.621,-5.621 C -2.517,-5.621 0,-3.104 0,0 Z"
         style="fill:none;stroke:#ed1d24;stroke-width:0.028;stroke-linecap:round;stroke-linejoin:round;stroke-miterlimit:10;stroke-dasharray:none;stroke-opacity:1"
         id="path6888" />
    </g>
    <g
       id="g6890"
       transform="matrix(1.25,0,0,-1.25,955.94747,96.37004)">
      <path
         inkscape:connector-curvature="0"
         d="m 0,0 c 0,3.104 -2.517,5.62 -5.621,5.62 -3.105,0 -5.621,-2.516 -5.621,-5.62 0,-3.104 2.516,-5.621 5.621,-5.621 C -2.517,-5.621 0,-3.104 0,0 Z"
         style="fill:none;stroke:#ed1d24;stroke-width:0.028;stroke-linecap:round;stroke-linejoin:round;stroke-miterlimit:10;stroke-dasharray:none;stroke-opacity:1"
         id="path6892" />
    </g>
    <g
       id="g6894"
       transform="matrix(1.25,0,0,-1.25,770.73377,96.37004)">
      <path
         inkscape:connector-curvature="0"
         d="m 0,0 c 0,7.376 -5.979,13.355 -13.355,13.355 -7.376,0 -13.356,-5.979 -13.356,-13.355 0,-7.376 5.98,-13.355 13.356,-13.355 C -5.979,-13.355 0,-7.376 0,0 Z"
         style="fill:none;stroke:#ed1d24;stroke-width:0.028;stroke-linecap:round;stroke-linejoin:round;stroke-miterlimit:10;stroke-dasharray:none;stroke-opacity:1"
         id="path6896" />
    </g>
    <g
       id="g6898"
       transform="matrix(1.25,0,0,-1.25,1005.5532,96.37004)">
      <path
         inkscape:connector-curvature="0"
         d="m 0,0 c 0,3.104 -2.517,5.62 -5.621,5.62 -3.104,0 -5.62,-2.516 -5.62,-5.62 0,-3.104 2.516,-5.621 5.62,-5.621 C -2.517,-5.621 0,-3.104 0,0 Z"
         style="fill:none;stroke:#ed1d24;stroke-width:0.028;stroke-linecap:round;stroke-linejoin:round;stroke-miterlimit:10;stroke-dasharray:none;stroke-opacity:1"
         id="path6900" />
    </g>
    <g
       id="g6902"
       transform="matrix(1.25,0,0,-1.25,1104.7658,96.37004)">
      <path
         inkscape:connector-curvature="0"
         d="m 0,0 c 0,3.104 -2.517,5.62 -5.621,5.62 -3.105,0 -5.62,-2.516 -5.62,-5.62 0,-3.104 2.515,-5.621 5.62,-5.621 C -2.517,-5.621 0,-3.104 0,0 Z"
         style="fill:none;stroke:#ed1d24;stroke-width:0.028;stroke-linecap:round;stroke-linejoin:round;stroke-miterlimit:10;stroke-dasharray:none;stroke-opacity:1"
         id="path6904" />
    </g>
    <path
       inkscape:connector-curvature="0"
       d="m 1012.7002,114.08691 70.8663,0 0,-35.43375 -70.8663,0 0,35.43375 z"
       style="fill:none;stroke:#ed1d24;stroke-width:0.035;stroke-linecap:round;stroke-linejoin:round;stroke-miterlimit:10;stroke-dasharray:none;stroke-opacity:1"
       id="path6906" />
    <g
       id="g6908"
       transform="matrix(1.25,0,0,-1.25,1210.104,96.37004)">
      <path
         inkscape:connector-curvature="0"
         d="m 0,0 c 0,7.376 -5.979,13.355 -13.355,13.355 -7.376,0 -13.356,-5.979 -13.356,-13.355 0,-7.376 5.98,-13.355 13.356,-13.355 C -5.979,-13.355 0,-7.376 0,0 Z"
         style="fill:none;stroke:#ed1d24;stroke-width:0.028;stroke-linecap:round;stroke-linejoin:round;stroke-miterlimit:10;stroke-dasharray:none;stroke-opacity:1"
         id="path6910" />
    </g>
    <g
       id="g6920"
       transform="matrix(1.25,0,0,-1.25,1909.1567,47.16104)">
      <path
         inkscape:connector-curvature="0"
         d="m 0,0 c 0,3.131 -2.538,5.67 -5.669,5.67 -3.131,0 -5.669,-2.539 -5.669,-5.67 0,-3.131 2.538,-5.669 5.669,-5.669 C -2.538,-5.669 0,-3.131 0,0 Z"
         style="fill:none;stroke:#ed1d24;stroke-width:0.028;stroke-linecap:round;stroke-linejoin:round;stroke-miterlimit:10;stroke-dasharray:none;stroke-opacity:1"
         id="path6922" />
    </g>
    <g
       id="g6924"
       transform="matrix(1.25,0,0,-1.25,52.464676,47.16104)">
      <path
         inkscape:connector-curvature="0"
         d="m 0,0 c 0,3.131 -2.539,5.67 -5.67,5.67 -3.131,0 -5.669,-2.539 -5.669,-5.67 0,-3.131 2.538,-5.669 5.669,-5.669 C -2.539,-5.669 0,-3.131 0,0 Z"
         style="fill:none;stroke:#ed1d24;stroke-width:0.028;stroke-linecap:round;stroke-linejoin:round;stroke-miterlimit:10;stroke-dasharray:none;stroke-opacity:1"
         id="path6926" />
    </g>
    <g
       id="g6928"
       transform="matrix(1.25,0,0,-1.25,770.73377,184.95279)">
      <path
         inkscape:connector-curvature="0"
         d="m 0,0 c 0,7.376 -5.979,13.355 -13.355,13.355 -7.376,0 -13.356,-5.979 -13.356,-13.355 0,-7.376 5.98,-13.355 13.356,-13.355 C -5.979,-13.355 0,-7.376 0,0 Z"
         style="fill:none;stroke:#ed1d24;stroke-width:0.028;stroke-linecap:round;stroke-linejoin:round;stroke-miterlimit:10;stroke-dasharray:none;stroke-opacity:1"
         id="path6930" />
    </g>
    <g
       id="g6932"
       transform="matrix(1.25,0,0,-1.25,1210.104,184.95279)">
      <path
         inkscape:connector-curvature="0"
         d="m 0,0 c 0,7.376 -5.979,13.355 -13.355,13.355 -7.376,0 -13.356,-5.979 -13.356,-13.355 0,-7.376 5.98,-13.355 13.356,-13.355 C -5.979,-13.355 0,-7.376 0,0 Z"
         style="fill:none;stroke:#ed1d24;stroke-width:0.028;stroke-linecap:round;stroke-linejoin:round;stroke-miterlimit:10;stroke-dasharray:none;stroke-opacity:1"
         id="path6934" />
    </g>
    <g
       id="g6944"
       transform="matrix(1.25,0,0,-1.25,253.35972,875.31343)">
      <path
         inkscape:connector-curvature="0"
         d="m 0,0 c 0,23.013 -18.656,41.669 -41.669,41.669 -23.014,0 -41.669,-18.656 -41.669,-41.669 0,-23.014 18.655,-41.67 41.669,-41.67 C -18.656,-41.67 0,-23.014 0,0 Z"
         style="fill:none;stroke:#ed1d24;stroke-width:0.028;stroke-linecap:round;stroke-linejoin:round;stroke-miterlimit:10;stroke-dasharray:none;stroke-opacity:1"
         id="path6946" />
    </g>
    <g
       id="g6948"
       transform="matrix(1.25,0,0,-1.25,381.98222,875.31343)">
      <path
         inkscape:connector-curvature="0"
         d="m 0,0 c 0,22.7 -18.402,41.102 -41.103,41.102 -22.7,0 -41.102,-18.402 -41.102,-41.102 0,-22.7 18.402,-41.103 41.102,-41.103 C -18.402,-41.103 0,-22.7 0,0 Z"
         style="fill:none;stroke:#ed1d24;stroke-width:0.028;stroke-linecap:round;stroke-linejoin:round;stroke-miterlimit:10;stroke-dasharray:none;stroke-opacity:1"
         id="path6950" />
    </g>
    <g
       id="g6952"
       transform="matrix(1.25,0,0,-1.25,1025.8011,875.31343)">
      <path
         inkscape:connector-curvature="0"
         d="m 0,0 c 0,23.013 -18.656,41.669 -41.669,41.669 -23.014,0 -41.67,-18.656 -41.67,-41.669 0,-23.014 18.656,-41.67 41.67,-41.67 C -18.656,-41.67 0,-23.014 0,0 Z"
         style="fill:none;stroke:#ed1d24;stroke-width:0.028;stroke-linecap:round;stroke-linejoin:round;stroke-miterlimit:10;stroke-dasharray:none;stroke-opacity:1"
         id="path6954" />
    </g>
    <g
       id="g6956"
       transform="matrix(1.25,0,0,-1.25,1389.4217,875.31343)">
      <path
         inkscape:connector-curvature="0"
         d="m 0,0 c 0,22.825 -18.504,41.33 -41.33,41.33 -22.825,0 -41.33,-18.505 -41.33,-41.33 0,-22.826 18.505,-41.33 41.33,-41.33 C -18.504,-41.33 0,-22.826 0,0 Z"
         style="fill:none;stroke:#ed1d24;stroke-width:0.028;stroke-linecap:round;stroke-linejoin:round;stroke-miterlimit:10;stroke-dasharray:none;stroke-opacity:1"
         id="path6958" />
    </g>
    <g
       id="g6960"
       transform="matrix(1.25,0,0,-1.25,1519.177,875.31343)">
      <path
         inkscape:connector-curvature="0"
         d="m 0,0 c 0,23.013 -18.656,41.669 -41.669,41.669 -23.014,0 -41.67,-18.656 -41.67,-41.669 0,-23.014 18.656,-41.67 41.67,-41.67 C -18.656,-41.67 0,-23.014 0,0 Z"
         style="fill:none;stroke:#ed1d24;stroke-width:0.028;stroke-linecap:round;stroke-linejoin:round;stroke-miterlimit:10;stroke-dasharray:none;stroke-opacity:1"
         id="path6962" />
    </g>
    <g
       id="g6964"
       transform="matrix(1.25,0,0,-1.25,1805.4765,875.31343)">
      <path
         inkscape:connector-curvature="0"
         d="m 0,0 c 0,23.013 -18.656,41.669 -41.669,41.669 -23.014,0 -41.67,-18.656 -41.67,-41.669 0,-23.014 18.656,-41.67 41.67,-41.67 C -18.656,-41.67 0,-23.014 0,0 Z"
         style="fill:none;stroke:#ed1d24;stroke-width:0.028;stroke-linecap:round;stroke-linejoin:round;stroke-miterlimit:10;stroke-dasharray:none;stroke-opacity:1"
         id="path6966" />
    </g>
    <g
       id="g6976"
       transform="matrix(1.25,0,0,-1.25,151.90472,399.39968)">
      <path
         inkscape:connector-curvature="0"
         d="M 0,0 C 0,3.914 -3.173,7.086 -7.086,7.086 -11,7.086 -14.173,3.914 -14.173,0 c 0,-3.914 3.173,-7.086 7.087,-7.086 C -3.173,-7.086 0,-3.914 0,0 Z"
         style="fill:none;stroke:#ed1d24;stroke-width:0.028;stroke-linecap:round;stroke-linejoin:round;stroke-miterlimit:10;stroke-dasharray:none;stroke-opacity:1"
         id="path6978" />
    </g>
    <g
       id="g6980"
       transform="matrix(1.25,0,0,-1.25,151.90472,748.92968)">
      <path
         inkscape:connector-curvature="0"
         d="M 0,0 C 0,3.914 -3.173,7.087 -7.086,7.087 -11,7.087 -14.173,3.914 -14.173,0 c 0,-3.914 3.173,-7.086 7.087,-7.086 C -3.173,-7.086 0,-3.914 0,0 Z"
         style="fill:none;stroke:#ed1d24;stroke-width:0.028;stroke-linecap:round;stroke-linejoin:round;stroke-miterlimit:10;stroke-dasharray:none;stroke-opacity:1"
         id="path6982" />
    </g>
    <g
       id="g6984"
       transform="matrix(1.25,0,0,-1.25,1813.2401,399.39968)">
      <path
         inkscape:connector-curvature="0"
         d="M 0,0 C 0,3.914 -3.173,7.086 -7.086,7.086 -11,7.086 -14.173,3.914 -14.173,0 c 0,-3.914 3.173,-7.086 7.087,-7.086 C -3.173,-7.086 0,-3.914 0,0 Z"
         style="fill:none;stroke:#ed1d24;stroke-width:0.028;stroke-linecap:round;stroke-linejoin:round;stroke-miterlimit:10;stroke-dasharray:none;stroke-opacity:1"
         id="path6986" />
    </g>
    <g
       id="g6988"
       transform="matrix(1.25,0,0,-1.25,1813.2401,748.92968)">
      <path
         inkscape:connector-curvature="0"
         d="M 0,0 C 0,3.914 -3.173,7.087 -7.086,7.087 -11,7.087 -14.173,3.914 -14.173,0 c 0,-3.914 3.173,-7.086 7.087,-7.086 C -3.173,-7.086 0,-3.914 0,0 Z"
         style="fill:none;stroke:#ed1d24;stroke-width:0.028;stroke-linecap:round;stroke-linejoin:round;stroke-miterlimit:10;stroke-dasharray:none;stroke-opacity:1"
         id="path6990" />
    </g>
    <g
       id="g7036"
       transform="matrix(1.25,0,0,-1.25,1898.5172,1006.1862)">
      <path
         inkscape:connector-curvature="0"
         d="m 0,0 c 0,3.131 -2.538,5.669 -5.669,5.669 -3.131,0 -5.669,-2.538 -5.669,-5.669 0,-3.132 2.538,-5.67 5.669,-5.67 C -2.538,-5.67 0,-3.132 0,0 Z"
         style="fill:none;stroke:#ed1d24;stroke-width:0.028;stroke-linecap:round;stroke-linejoin:round;stroke-miterlimit:10;stroke-dasharray:none;stroke-opacity:1"
         id="path7038" />
    </g>
    <g
       id="g7040"
       transform="matrix(1.25,0,0,-1.25,63.084472,1006.1862)">
      <path
         inkscape:connector-curvature="0"
         d="m 0,0 c 0,3.131 -2.539,5.669 -5.669,5.669 -3.131,0 -5.67,-2.538 -5.67,-5.669 0,-3.132 2.539,-5.67 5.67,-5.67 C -2.539,-5.67 0,-3.132 0,0 Z"
         style="fill:none;stroke:#ed1d24;stroke-width:0.028;stroke-linecap:round;stroke-linejoin:round;stroke-miterlimit:10;stroke-dasharray:none;stroke-opacity:1"
         id="path7042" />
    </g>
    <path
       inkscape:connector-curvature="0"
       d="m 552.28747,820.56243 248.03125,0 0,186.02377 -248.03125,0 0,-186.02377 z"
       style="fill:none;stroke:#ed1d24;stroke-width:0.035;stroke-linecap:round;stroke-linejoin:round;stroke-miterlimit:10;stroke-dasharray:none;stroke-opacity:1"
       id="path7060" />
    <g
       id="g7062"
       transform="matrix(1.25,0,0,-1.25,528.90172,910.61005)">
      <path
         inkscape:connector-curvature="0"
         d="m 0,0 0,49.69 c 0,15.656 -12.691,28.347 -28.347,28.347 -15.655,0 -28.346,-12.691 -28.346,-28.347 l 0,-49.69 c 0,-15.655 12.691,-28.347 28.346,-28.347 C -12.691,-28.347 0,-15.655 0,0 Z"
         style="fill:none;stroke:#ed1d24;stroke-width:0.028;stroke-linecap:round;stroke-linejoin:round;stroke-miterlimit:10;stroke-dasharray:none;stroke-opacity:1"
         id="path7064" />
    </g>
    <g
       id="g7066"
       transform="matrix(1.25,0,0,-1.25,1314.1188,81.35179)">
      <path
         inkscape:connector-curvature="0"
         d="m 0,0 c 0,3.131 -2.538,5.669 -5.669,5.669 -3.131,0 -5.669,-2.538 -5.669,-5.669 0,-3.131 2.538,-5.67 5.669,-5.67 C -2.538,-5.67 0,-3.131 0,0 Z"
         style="fill:none;stroke:#ed1d24;stroke-width:0.028;stroke-linecap:round;stroke-linejoin:round;stroke-miterlimit:10;stroke-dasharray:none;stroke-opacity:1"
         id="path7068" />
    </g>
    <g
       id="g7070"
       transform="matrix(1.25,0,0,-1.25,1314.1188,221.94747)">
      <path
         inkscape:connector-curvature="0"
         d="m 0,0 c 0,3.132 -2.538,5.67 -5.669,5.67 -3.131,0 -5.669,-2.538 -5.669,-5.67 0,-3.131 2.538,-5.669 5.669,-5.669 C -2.538,-5.669 0,-3.131 0,0 Z"
         style="fill:none;stroke:#ed1d24;stroke-width:0.028;stroke-linecap:round;stroke-linejoin:round;stroke-miterlimit:10;stroke-dasharray:none;stroke-opacity:1"
         id="path7072" />
    </g>
    <g
       id="g7074"
       transform="matrix(1.25,0,0,-1.25,1813.2497,81.35179)">
      <path
         inkscape:connector-curvature="0"
         d="m 0,0 c 0,3.131 -2.538,5.669 -5.669,5.669 -3.131,0 -5.67,-2.538 -5.67,-5.669 0,-3.131 2.539,-5.67 5.67,-5.67 C -2.538,-5.67 0,-3.131 0,0 Z"
         style="fill:none;stroke:#ed1d24;stroke-width:0.028;stroke-linecap:round;stroke-linejoin:round;stroke-miterlimit:10;stroke-dasharray:none;stroke-opacity:1"
         id="path7076" />
    </g>
    <g
       id="g7078"
       transform="matrix(1.25,0,0,-1.25,1813.2497,221.94747)">
      <path
         inkscape:connector-curvature="0"
         d="m 0,0 c 0,3.132 -2.538,5.67 -5.669,5.67 -3.131,0 -5.67,-2.538 -5.67,-5.67 0,-3.131 2.539,-5.669 5.67,-5.669 C -2.538,-5.669 0,-3.131 0,0 Z"
         style="fill:none;stroke:#ed1d24;stroke-width:0.028;stroke-linecap:round;stroke-linejoin:round;stroke-miterlimit:10;stroke-dasharray:none;stroke-opacity:1"
         id="path7080" />
    </g>
    <g
       id="g7082"
       transform="matrix(1.25,0,0,-1.25,1746.6457,165.16154)">
      <path
         inkscape:connector-curvature="0"
         d="m 0,0 c 0,12.417 -10.065,22.483 -22.482,22.483 -12.417,0 -22.484,-10.066 -22.484,-22.483 0,-12.417 10.067,-22.483 22.484,-22.483 C -10.065,-22.483 0,-12.417 0,0 Z"
         style="fill:none;stroke:#ed1d24;stroke-width:0.028;stroke-linecap:round;stroke-linejoin:round;stroke-miterlimit:10;stroke-dasharray:none;stroke-opacity:1"
         id="path7084" />
    </g>
    <g
       id="g7086"
       transform="matrix(1.25,0,0,-1.25,1576.907,165.16154)">
      <path
         inkscape:connector-curvature="0"
         d="M 0,0 C 0,12.417 -10.066,22.483 -22.483,22.483 -34.9,22.483 -44.967,12.417 -44.967,0 c 0,-12.417 10.067,-22.483 22.484,-22.483 C -10.066,-22.483 0,-12.417 0,0 Z"
         style="fill:none;stroke:#ed1d24;stroke-width:0.028;stroke-linecap:round;stroke-linejoin:round;stroke-miterlimit:10;stroke-dasharray:none;stroke-opacity:1"
         id="path7088" />
    </g>
    <g
       id="g7090"
       transform="matrix(1.25,0,0,-1.25,1407.167,165.16154)">
      <path
         inkscape:connector-curvature="0"
         d="M 0,0 C 0,12.417 -10.065,22.483 -22.482,22.483 -34.9,22.483 -44.966,12.417 -44.966,0 c 0,-12.417 10.066,-22.483 22.484,-22.483 C -10.065,-22.483 0,-12.417 0,0 Z"
         style="fill:none;stroke:#ed1d24;stroke-width:0.028;stroke-linecap:round;stroke-linejoin:round;stroke-miterlimit:10;stroke-dasharray:none;stroke-opacity:1"
         id="path7092" />
    </g>
    <g
       id="g7094"
       transform="matrix(1.25,0,0,-1.25,1436.111,120.51554)">
      <path
         inkscape:connector-curvature="0"
         d="m 0,0 c 0,5.479 -4.442,9.921 -9.922,9.921 -5.479,0 -9.921,-4.442 -9.921,-9.921 0,-5.479 4.442,-9.922 9.921,-9.922 C -4.442,-9.922 0,-5.479 0,0 Z"
         style="fill:none;stroke:#ed1d24;stroke-width:0.028;stroke-linecap:round;stroke-linejoin:round;stroke-miterlimit:10;stroke-dasharray:none;stroke-opacity:1"
         id="path7096" />
    </g>
    <g
       id="g7098"
       transform="matrix(1.25,0,0,-1.25,1605.8498,120.51554)">
      <path
         inkscape:connector-curvature="0"
         d="m 0,0 c 0,5.479 -4.441,9.921 -9.921,9.921 -5.479,0 -9.922,-4.442 -9.922,-9.921 0,-5.479 4.443,-9.922 9.922,-9.922 C -4.441,-9.922 0,-5.479 0,0 Z"
         style="fill:none;stroke:#ed1d24;stroke-width:0.028;stroke-linecap:round;stroke-linejoin:round;stroke-miterlimit:10;stroke-dasharray:none;stroke-opacity:1"
         id="path7100" />
    </g>
    <g
       id="g7102"
       transform="matrix(1.25,0,0,-1.25,1775.5897,120.51554)">
      <path
         inkscape:connector-curvature="0"
         d="m 0,0 c 0,5.479 -4.442,9.921 -9.922,9.921 -5.478,0 -9.921,-4.442 -9.921,-9.921 0,-5.479 4.443,-9.922 9.921,-9.922 C -4.442,-9.922 0,-5.479 0,0 Z"
         style="fill:none;stroke:#ed1d24;stroke-width:0.028;stroke-linecap:round;stroke-linejoin:round;stroke-miterlimit:10;stroke-dasharray:none;stroke-opacity:1"
         id="path7104" />
    </g>
    <g
       id="g7106"
       transform="matrix(1.25,0,0,-1.25,148.37167,81.35179)">
      <path
         inkscape:connector-curvature="0"
         d="m 0,0 c 0,3.131 -2.539,5.669 -5.67,5.669 -3.131,0 -5.669,-2.538 -5.669,-5.669 0,-3.131 2.538,-5.67 5.669,-5.67 C -2.539,-5.67 0,-3.131 0,0 Z"
         style="fill:none;stroke:#ed1d24;stroke-width:0.028;stroke-linecap:round;stroke-linejoin:round;stroke-miterlimit:10;stroke-dasharray:none;stroke-opacity:1"
         id="path7108" />
    </g>
    <g
       id="g7110"
       transform="matrix(1.25,0,0,-1.25,148.37167,221.94747)">
      <path
         inkscape:connector-curvature="0"
         d="m 0,0 c 0,3.132 -2.539,5.67 -5.67,5.67 -3.131,0 -5.669,-2.538 -5.669,-5.67 0,-3.131 2.538,-5.669 5.669,-5.669 C -2.539,-5.669 0,-3.131 0,0 Z"
         style="fill:none;stroke:#ed1d24;stroke-width:0.028;stroke-linecap:round;stroke-linejoin:round;stroke-miterlimit:10;stroke-dasharray:none;stroke-opacity:1"
         id="path7112" />
    </g>
    <g
       id="g7114"
       transform="matrix(1.25,0,0,-1.25,647.50127,81.35179)">
      <path
         inkscape:connector-curvature="0"
         d="m 0,0 c 0,3.131 -2.538,5.669 -5.669,5.669 -3.131,0 -5.669,-2.538 -5.669,-5.669 0,-3.131 2.538,-5.67 5.669,-5.67 C -2.538,-5.67 0,-3.131 0,0 Z"
         style="fill:none;stroke:#ed1d24;stroke-width:0.028;stroke-linecap:round;stroke-linejoin:round;stroke-miterlimit:10;stroke-dasharray:none;stroke-opacity:1"
         id="path7116" />
    </g>
    <g
       id="g7118"
       transform="matrix(1.25,0,0,-1.25,647.50127,221.94747)">
      <path
         inkscape:connector-curvature="0"
         d="m 0,0 c 0,3.132 -2.538,5.67 -5.669,5.67 -3.131,0 -5.669,-2.538 -5.669,-5.67 0,-3.131 2.538,-5.669 5.669,-5.669 C -2.538,-5.669 0,-3.131 0,0 Z"
         style="fill:none;stroke:#ed1d24;stroke-width:0.028;stroke-linecap:round;stroke-linejoin:round;stroke-miterlimit:10;stroke-dasharray:none;stroke-opacity:1"
         id="path7120" />
    </g>
    <g
       id="g7122"
       transform="matrix(1.25,0,0,-1.25,580.89857,165.16154)">
      <path
         inkscape:connector-curvature="0"
         d="M 0,0 C 0,12.417 -10.066,22.483 -22.483,22.483 -34.9,22.483 -44.967,12.417 -44.967,0 c 0,-12.417 10.067,-22.483 22.484,-22.483 C -10.066,-22.483 0,-12.417 0,0 Z"
         style="fill:none;stroke:#ed1d24;stroke-width:0.028;stroke-linecap:round;stroke-linejoin:round;stroke-miterlimit:10;stroke-dasharray:none;stroke-opacity:1"
         id="path7124" />
    </g>
    <g
       id="g7126"
       transform="matrix(1.25,0,0,-1.25,411.15857,165.16154)">
      <path
         inkscape:connector-curvature="0"
         d="M 0,0 C 0,12.417 -10.066,22.483 -22.483,22.483 -34.9,22.483 -44.966,12.417 -44.966,0 c 0,-12.417 10.066,-22.483 22.483,-22.483 C -10.066,-22.483 0,-12.417 0,0 Z"
         style="fill:none;stroke:#ed1d24;stroke-width:0.028;stroke-linecap:round;stroke-linejoin:round;stroke-miterlimit:10;stroke-dasharray:none;stroke-opacity:1"
         id="path7128" />
    </g>
    <g
       id="g7130"
       transform="matrix(1.25,0,0,-1.25,241.41977,165.16154)">
      <path
         inkscape:connector-curvature="0"
         d="M 0,0 C 0,12.417 -10.066,22.483 -22.483,22.483 -34.9,22.483 -44.967,12.417 -44.967,0 c 0,-12.417 10.067,-22.483 22.484,-22.483 C -10.066,-22.483 0,-12.417 0,0 Z"
         style="fill:none;stroke:#ed1d24;stroke-width:0.028;stroke-linecap:round;stroke-linejoin:round;stroke-miterlimit:10;stroke-dasharray:none;stroke-opacity:1"
         id="path7132" />
    </g>
    <g
       id="g7134"
       transform="matrix(1.25,0,0,-1.25,270.36267,120.51554)">
      <path
         inkscape:connector-curvature="0"
         d="m 0,0 c 0,5.479 -4.442,9.921 -9.922,9.921 -5.478,0 -9.921,-4.442 -9.921,-9.921 0,-5.479 4.443,-9.922 9.921,-9.922 C -4.442,-9.922 0,-5.479 0,0 Z"
         style="fill:none;stroke:#ed1d24;stroke-width:0.028;stroke-linecap:round;stroke-linejoin:round;stroke-miterlimit:10;stroke-dasharray:none;stroke-opacity:1"
         id="path7136" />
    </g>
    <g
       id="g7138"
       transform="matrix(1.25,0,0,-1.25,440.10147,120.51554)">
      <path
         inkscape:connector-curvature="0"
         d="m 0,0 c 0,5.479 -4.441,9.921 -9.921,9.921 -5.479,0 -9.921,-4.442 -9.921,-9.921 0,-5.479 4.442,-9.922 9.921,-9.922 C -4.441,-9.922 0,-5.479 0,0 Z"
         style="fill:none;stroke:#ed1d24;stroke-width:0.028;stroke-linecap:round;stroke-linejoin:round;stroke-miterlimit:10;stroke-dasharray:none;stroke-opacity:1"
         id="path7140" />
    </g>
    <g
       id="g7142"
       transform="matrix(1.25,0,0,-1.25,609.84147,120.51554)">
      <path
         inkscape:connector-curvature="0"
         d="m 0,0 c 0,5.479 -4.442,9.921 -9.921,9.921 -5.479,0 -9.922,-4.442 -9.922,-9.921 0,-5.479 4.443,-9.922 9.922,-9.922 C -4.442,-9.922 0,-5.479 0,0 Z"
         style="fill:none;stroke:#ed1d24;stroke-width:0.028;stroke-linecap:round;stroke-linejoin:round;stroke-miterlimit:10;stroke-dasharray:none;stroke-opacity:1"
         id="path7144" />
    </g>
    <g
       id="g7282"
       transform="matrix(1.25,0,0,-1.25,635.59735,615.84618)">
      <path
         inkscape:connector-curvature="0"
         d="m 0,0 c 0,22.826 -18.504,41.33 -41.33,41.33 -22.826,0 -41.33,-18.504 -41.33,-41.33 0,-22.826 18.505,-41.33 41.33,-41.33 C -18.504,-41.33 0,-22.826 0,0 Z"
         style="fill:none;stroke:#ed1d24;stroke-width:0.028;stroke-linecap:round;stroke-linejoin:round;stroke-miterlimit:10;stroke-dasharray:none;stroke-opacity:1"
         id="path7284" />
    </g>
    <g
       id="g7286"
       transform="matrix(1.25,0,0,-1.25,756.31022,657.6858)">
      <path
         inkscape:connector-curvature="0"
         d="m 0,0 c 0,23.013 -18.656,41.669 -41.669,41.669 -23.014,0 -41.669,-18.656 -41.669,-41.669 0,-23.014 18.655,-41.669 41.669,-41.669 C -18.656,-41.669 0,-23.014 0,0 Z"
         style="fill:none;stroke:#ed1d24;stroke-width:0.028;stroke-linecap:round;stroke-linejoin:round;stroke-miterlimit:10;stroke-dasharray:none;stroke-opacity:1"
         id="path7288" />
    </g>
    <g
       id="g7290"
       transform="matrix(1.25,0,0,-1.25,883.4721,638.85155)">
      <path
         inkscape:connector-curvature="0"
         d="m 0,0 c 0,23.013 -18.656,41.669 -41.669,41.669 -23.014,0 -41.67,-18.656 -41.67,-41.669 0,-23.013 18.656,-41.669 41.67,-41.669 C -18.656,-41.669 0,-23.013 0,0 Z"
         style="fill:none;stroke:#ed1d24;stroke-width:0.028;stroke-linecap:round;stroke-linejoin:round;stroke-miterlimit:10;stroke-dasharray:none;stroke-opacity:1"
         id="path7292" />
    </g>
    <g
       id="g7294"
       transform="matrix(1.25,0,0,-1.25,885.91222,513.35356)">
      <path
         inkscape:connector-curvature="0"
         d="m 0,0 c 0,23.014 -18.656,41.669 -41.669,41.669 -23.014,0 -41.67,-18.655 -41.67,-41.669 0,-23.013 18.656,-41.669 41.67,-41.669 C -18.656,-41.669 0,-23.013 0,0 Z"
         style="fill:none;stroke:#ed1d24;stroke-width:0.028;stroke-linecap:round;stroke-linejoin:round;stroke-miterlimit:10;stroke-dasharray:none;stroke-opacity:1"
         id="path7296" />
    </g>
    <g
       id="g7298"
       transform="matrix(1.25,0,0,-1.25,753.59772,530.77056)">
      <path
         inkscape:connector-curvature="0"
         d="m 0,0 c 0,23.013 -18.656,41.669 -41.669,41.669 -23.014,0 -41.67,-18.656 -41.67,-41.669 0,-23.013 18.656,-41.669 41.67,-41.669 C -18.656,-41.669 0,-23.013 0,0 Z"
         style="fill:none;stroke:#ed1d24;stroke-width:0.028;stroke-linecap:round;stroke-linejoin:round;stroke-miterlimit:10;stroke-dasharray:none;stroke-opacity:1"
         id="path7300" />
    </g>
    <g
       id="g7302"
       transform="matrix(1.25,0,0,-1.25,630.02597,489.87518)">
      <path
         inkscape:connector-curvature="0"
         d="m 0,0 c 0,23.013 -18.656,41.669 -41.669,41.669 -23.014,0 -41.669,-18.656 -41.669,-41.669 0,-23.014 18.655,-41.669 41.669,-41.669 C -18.656,-41.669 0,-23.014 0,0 Z"
         style="fill:none;stroke:#ed1d24;stroke-width:0.028;stroke-linecap:round;stroke-linejoin:round;stroke-miterlimit:10;stroke-dasharray:none;stroke-opacity:1"
         id="path7304" />
    </g>
    <g
       id="g7306"
       transform="matrix(1.25,0,0,-1.25,1507.6053,615.84618)">
      <path
         inkscape:connector-curvature="0"
         d="m 0,0 c 0,22.826 -18.504,41.33 -41.33,41.33 -22.826,0 -41.33,-18.504 -41.33,-41.33 0,-22.826 18.504,-41.33 41.33,-41.33 C -18.504,-41.33 0,-22.826 0,0 Z"
         style="fill:none;stroke:#ed1d24;stroke-width:0.028;stroke-linecap:round;stroke-linejoin:round;stroke-miterlimit:10;stroke-dasharray:none;stroke-opacity:1"
         id="path7308" />
    </g>
    <g
       id="g7310"
       transform="matrix(1.25,0,0,-1.25,1628.3182,657.6858)">
      <path
         inkscape:connector-curvature="0"
         d="m 0,0 c 0,23.013 -18.656,41.669 -41.669,41.669 -23.014,0 -41.669,-18.656 -41.669,-41.669 0,-23.014 18.655,-41.669 41.669,-41.669 C -18.656,-41.669 0,-23.014 0,0 Z"
         style="fill:none;stroke:#ed1d24;stroke-width:0.028;stroke-linecap:round;stroke-linejoin:round;stroke-miterlimit:10;stroke-dasharray:none;stroke-opacity:1"
         id="path7312" />
    </g>
    <g
       id="g7314"
       transform="matrix(1.25,0,0,-1.25,1755.4801,638.85155)">
      <path
         inkscape:connector-curvature="0"
         d="m 0,0 c 0,23.013 -18.656,41.669 -41.669,41.669 -23.014,0 -41.67,-18.656 -41.67,-41.669 0,-23.013 18.656,-41.669 41.67,-41.669 C -18.656,-41.669 0,-23.013 0,0 Z"
         style="fill:none;stroke:#ed1d24;stroke-width:0.028;stroke-linecap:round;stroke-linejoin:round;stroke-miterlimit:10;stroke-dasharray:none;stroke-opacity:1"
         id="path7316" />
    </g>
    <g
       id="g7318"
       transform="matrix(1.25,0,0,-1.25,1757.9203,513.35356)">
      <path
         inkscape:connector-curvature="0"
         d="m 0,0 c 0,23.014 -18.656,41.669 -41.669,41.669 -23.014,0 -41.67,-18.655 -41.67,-41.669 0,-23.013 18.656,-41.669 41.67,-41.669 C -18.656,-41.669 0,-23.013 0,0 Z"
         style="fill:none;stroke:#ed1d24;stroke-width:0.028;stroke-linecap:round;stroke-linejoin:round;stroke-miterlimit:10;stroke-dasharray:none;stroke-opacity:1"
         id="path7320" />
    </g>
    <g
       id="g7322"
       transform="matrix(1.25,0,0,-1.25,1625.6052,530.77056)">
      <path
         inkscape:connector-curvature="0"
         d="m 0,0 c 0,23.013 -18.656,41.669 -41.669,41.669 -23.013,0 -41.669,-18.656 -41.669,-41.669 0,-23.013 18.656,-41.669 41.669,-41.669 C -18.656,-41.669 0,-23.013 0,0 Z"
         style="fill:none;stroke:#ed1d24;stroke-width:0.028;stroke-linecap:round;stroke-linejoin:round;stroke-miterlimit:10;stroke-dasharray:none;stroke-opacity:1"
         id="path7324" />
    </g>
    <g
       id="g7326"
       transform="matrix(1.25,0,0,-1.25,1501.6098,489.87518)">
      <path
         inkscape:connector-curvature="0"
         d="m 0,0 c 0,22.826 -18.504,41.33 -41.33,41.33 -22.826,0 -41.33,-18.504 -41.33,-41.33 0,-22.826 18.504,-41.33 41.33,-41.33 C -18.504,-41.33 0,-22.826 0,0 Z"
         style="fill:none;stroke:#ed1d24;stroke-width:0.028;stroke-linecap:round;stroke-linejoin:round;stroke-miterlimit:10;stroke-dasharray:none;stroke-opacity:1"
         id="path7328" />
    </g>
    <g
       id="g7330"
       transform="matrix(1.25,0,0,-1.25,292.74447,708.98706)">
      <path
         inkscape:connector-curvature="0"
         d="m 0,0 0,-40.159 85.444,0 0,40.159 80.584,0 0,78.758 28.792,28.792 -28.792,28.792 0,75.923 -80.584,0 0,42.993 -85.444,0 0,-42.993 -80.584,0 0,-75.923 L -109.376,107.55 -80.584,78.758 -80.584,0 0,0 Z"
         style="fill:none;stroke:#ed1d24;stroke-width:0.028;stroke-linecap:round;stroke-linejoin:round;stroke-miterlimit:10;stroke-dasharray:none;stroke-opacity:1"
         id="path7332" />
    </g>
    <g
       id="g7334"
       transform="matrix(1.25,0,0,-1.25,271.73747,429.27456)">
      <path
         inkscape:connector-curvature="0"
         d="M 0,0 C 0,1.566 -1.269,2.835 -2.834,2.835 -4.4,2.835 -5.669,1.566 -5.669,0 c 0,-1.565 1.269,-2.834 2.835,-2.834 C -1.269,-2.834 0,-1.565 0,0 Z"
         style="fill:none;stroke:#ed1d24;stroke-width:0.028;stroke-linecap:round;stroke-linejoin:round;stroke-miterlimit:10;stroke-dasharray:none;stroke-opacity:1"
         id="path7336" />
    </g>
    <g
       id="g7338"
       transform="matrix(1.25,0,0,-1.25,427.64322,429.27456)">
      <path
         inkscape:connector-curvature="0"
         d="M 0,0 C 0,1.566 -1.269,2.835 -2.835,2.835 -4.4,2.835 -5.669,1.566 -5.669,0 c 0,-1.565 1.269,-2.834 2.834,-2.834 C -1.269,-2.834 0,-1.565 0,0 Z"
         style="fill:none;stroke:#ed1d24;stroke-width:0.028;stroke-linecap:round;stroke-linejoin:round;stroke-miterlimit:10;stroke-dasharray:none;stroke-opacity:1"
         id="path7340" />
    </g>
    <g
       id="g7342"
       transform="matrix(1.25,0,0,-1.25,427.64322,719.82568)">
      <path
         inkscape:connector-curvature="0"
         d="M 0,0 C 0,1.565 -1.269,2.835 -2.835,2.835 -4.4,2.835 -5.669,1.565 -5.669,0 c 0,-1.565 1.269,-2.834 2.834,-2.834 C -1.269,-2.834 0,-1.565 0,0 Z"
         style="fill:none;stroke:#ed1d24;stroke-width:0.028;stroke-linecap:round;stroke-linejoin:round;stroke-miterlimit:10;stroke-dasharray:none;stroke-opacity:1"
         id="path7344" />
    </g>
    <g
       id="g7346"
       transform="matrix(1.25,0,0,-1.25,271.73747,719.82568)">
      <path
         inkscape:connector-curvature="0"
         d="M 0,0 C 0,1.565 -1.269,2.835 -2.834,2.835 -4.4,2.835 -5.669,1.565 -5.669,0 c 0,-1.565 1.269,-2.834 2.835,-2.834 C -1.269,-2.834 0,-1.565 0,0 Z"
         style="fill:none;stroke:#ed1d24;stroke-width:0.028;stroke-linecap:round;stroke-linejoin:round;stroke-miterlimit:10;stroke-dasharray:none;stroke-opacity:1"
         id="path7348" />
    </g>
    <g
       id="g7350"
       transform="matrix(1.25,0,0,-1.25,1143.7455,719.82568)">
      <path
         inkscape:connector-curvature="0"
         d="M 0,0 C 0,1.565 -1.269,2.835 -2.834,2.835 -4.4,2.835 -5.669,1.565 -5.669,0 c 0,-1.565 1.269,-2.834 2.835,-2.834 C -1.269,-2.834 0,-1.565 0,0 Z"
         style="fill:none;stroke:#ed1d24;stroke-width:0.028;stroke-linecap:round;stroke-linejoin:round;stroke-miterlimit:10;stroke-dasharray:none;stroke-opacity:1"
         id="path7352" />
    </g>
    <g
       id="g7354"
       transform="matrix(1.25,0,0,-1.25,1299.6512,719.82568)">
      <path
         inkscape:connector-curvature="0"
         d="M 0,0 C 0,1.565 -1.27,2.835 -2.835,2.835 -4.4,2.835 -5.669,1.565 -5.669,0 c 0,-1.565 1.269,-2.834 2.834,-2.834 C -1.27,-2.834 0,-1.565 0,0 Z"
         style="fill:none;stroke:#ed1d24;stroke-width:0.028;stroke-linecap:round;stroke-linejoin:round;stroke-miterlimit:10;stroke-dasharray:none;stroke-opacity:1"
         id="path7356" />
    </g>
    <g
       id="g7358"
       transform="matrix(1.25,0,0,-1.25,1299.6512,429.27456)">
      <path
         inkscape:connector-curvature="0"
         d="M 0,0 C 0,1.566 -1.27,2.835 -2.835,2.835 -4.4,2.835 -5.669,1.566 -5.669,0 c 0,-1.565 1.269,-2.834 2.834,-2.834 C -1.27,-2.834 0,-1.565 0,0 Z"
         style="fill:none;stroke:#ed1d24;stroke-width:0.028;stroke-linecap:round;stroke-linejoin:round;stroke-miterlimit:10;stroke-dasharray:none;stroke-opacity:1"
         id="path7360" />
    </g>
    <g
       id="g7362"
       transform="matrix(1.25,0,0,-1.25,1143.7455,429.27456)">
      <path
         inkscape:connector-curvature="0"
         d="M 0,0 C 0,1.566 -1.269,2.835 -2.834,2.835 -4.4,2.835 -5.669,1.566 -5.669,0 c 0,-1.565 1.269,-2.834 2.835,-2.834 C -1.269,-2.834 0,-1.565 0,0 Z"
         style="fill:none;stroke:#ed1d24;stroke-width:0.028;stroke-linecap:round;stroke-linejoin:round;stroke-miterlimit:10;stroke-dasharray:none;stroke-opacity:1"
         id="path7364" />
    </g>
    <g
       id="g7366"
       transform="matrix(1.25,0,0,-1.25,1164.7526,708.98706)">
      <path
         inkscape:connector-curvature="0"
         d="m 0,0 0,-40.159 85.444,0 0,40.159 80.584,0 0,78.758 28.792,28.792 -28.792,28.792 0,75.923 -80.584,0 0,42.993 -85.444,0 0,-42.993 -80.584,0 0,-75.923 L -109.376,107.55 -80.584,78.758 -80.584,0 0,0 Z"
         style="fill:none;stroke:#ed1d24;stroke-width:0.028;stroke-linecap:round;stroke-linejoin:round;stroke-miterlimit:10;stroke-dasharray:none;stroke-opacity:1"
         id="path7368" />
    </g>
    <path
       id="path7372"
       style="fill:none;stroke:#3b4ba7;stroke-width:0.035;stroke-linecap:round;stroke-linejoin:round;stroke-miterlimit:10;stroke-dasharray:none;stroke-opacity:1"
       d="m 1326.2831,255.00406 c -28.375,0 -51.3787,-23.0025 -51.3787,-51.37875 l 0,-103.95375 c 0,-28.375 23.0037,-51.37625 51.3787,-51.37625 l 460.63,0 c 28.375,0 51.3775,23.00125 51.3775,51.37625 l 0,103.95375 c 0,28.37625 -23.0025,51.37875 -51.3775,51.37875 l -460.63,0 z"
       inkscape:connector-curvature="0" />
    <path
       id="path7376"
       style="fill:none;stroke:#3b4ba7;stroke-width:0.03543308;stroke-linecap:round;stroke-linejoin:round;stroke-miterlimit:10;stroke-dasharray:none;stroke-opacity:1"
       d="m 160.53477,255.00406 c -28.375,0 -51.37875,-23.0025 -51.37875,-51.37875 l 0,-103.95375 c 0,-28.375 23.00375,-51.37625 51.37875,-51.37625 l 460.63,0 c 28.375,0 51.3775,23.00125 51.3775,51.37625 l 0,103.95375 c 0,28.37625 -23.0025,51.37875 -51.3775,51.37875 l -460.63,0 z"
       inkscape:connector-curvature="0" />
    <g
       id="g7382"
       transform="matrix(1.25,0,0,-1.25,1822.714,433.28768)">
      <path
         inkscape:connector-curvature="0"
         d="m 0,0 0,-225.403 c -23.483,0 -42.52,-19.037 -42.52,-42.52 l -1273.36,0 c 0,23.483 -19.037,42.52 -42.519,42.52 l 0,225.403 c 23.482,0 42.519,19.037 42.519,42.52 l 1273.36,0 C -42.52,19.037 -23.483,0 0,0 Z"
         style="fill:none;stroke:#3b4ba7;stroke-width:0.028;stroke-linecap:round;stroke-linejoin:round;stroke-miterlimit:10;stroke-dasharray:none;stroke-opacity:1"
         id="path7384" />
    </g>
  </g>
</svg>
