<?xml version="1.0" encoding="UTF-8" standalone="no"?>
<!-- Created with Inkscape (http://www.inkscape.org/) -->

<svg
   xmlns:dc="http://purl.org/dc/elements/1.1/"
   xmlns:cc="http://creativecommons.org/ns#"
   xmlns:rdf="http://www.w3.org/1999/02/22-rdf-syntax-ns#"
   xmlns:svg="http://www.w3.org/2000/svg"
   xmlns="http://www.w3.org/2000/svg"
   xmlns:sodipodi="http://sodipodi.sourceforge.net/DTD/sodipodi-0.dtd"
   xmlns:inkscape="http://www.inkscape.org/namespaces/inkscape"
   id="svg2985"
   version="1.1"
   inkscape:version="0.48.4 r9939"
   width="1000"
   height="750"
   xml:space="preserve"
   sodipodi:docname="the-legend-of-zelda-triforce-seeklogo.com.svg"><metadata
     id="metadata2991"><rdf:RDF><cc:Work
         rdf:about=""><dc:format>image/svg+xml</dc:format><dc:type
           rdf:resource="http://purl.org/dc/dcmitype/StillImage" /><dc:title></dc:title></cc:Work></rdf:RDF></metadata><defs
     id="defs2989"><clipPath
       clipPathUnits="userSpaceOnUse"
       id="clipPath3023"><path
         d="M 0,600 800,600 800,0 0,0 0,600 z"
         id="path3025"
         inkscape:connector-curvature="0" /></clipPath><clipPath
       clipPathUnits="userSpaceOnUse"
       id="clipPath3899"><path
         inkscape:connector-curvature="0"
         d="M 0,792 612,792 612,0 0,0 0,792 z"
         id="path3901" /></clipPath><radialGradient
       fx="0"
       fy="0"
       cx="0"
       cy="0"
       r="1"
       gradientUnits="userSpaceOnUse"
       gradientTransform="matrix(101.83207,0,0,-101.83207,306.00391,395.99707)"
       spreadMethod="pad"
       id="radialGradient3885"><stop
         style="stop-opacity:1;stop-color:#130c0e"
         offset="0"
         id="stop3887" /><stop
         style="stop-opacity:1;stop-color:#130c0e"
         offset="0.797713"
         id="stop3889" /><stop
         style="stop-opacity:1;stop-color:#130c0e"
         offset="1"
         id="stop3891" /></radialGradient></defs><sodipodi:namedview
     pagecolor="#ffffff"
     bordercolor="#666666"
     borderopacity="1"
     objecttolerance="10"
     gridtolerance="10"
     guidetolerance="10"
     inkscape:pageopacity="0"
     inkscape:pageshadow="2"
     inkscape:window-width="1920"
     inkscape:window-height="1017"
     id="namedview2987"
     showgrid="false"
     inkscape:document-units="mm"
     units="mm"
     inkscape:zoom="2.2106667"
     inkscape:cx="402.97166"
     inkscape:cy="560.15031"
     inkscape:window-x="-4"
     inkscape:window-y="-4"
     inkscape:window-maximized="1"
     inkscape:current-layer="g2993" /><g
     id="g2993"
     inkscape:groupmode="layer"
     inkscape:label="the-legend-of-zelda-triforce-seeklogo.com"
     transform="matrix(1.25,0,0,-1.25,0,750.00008)"><g
       id="g2995"
       transform="matrix(0.54199656,0,0,0.54199656,256.89563,453.42399)"><path
         d="m 0,0 -23.616,-34.392 45.702,0 L 0,0 z"
         style="fill:#000000;fill-opacity:1;fill-rule:nonzero;stroke:none"
         id="path2997"
         inkscape:connector-curvature="0" /></g><g
       id="g2999"
       transform="matrix(0.54199656,0,0,0.54199656,256.83845,453.51396)"><path
         d="m 0,0 -24.327,37.881 -45.857,-72.439 46.003,0 L -48.209,0 0,0 z"
         style="fill:#000000;fill-opacity:1;fill-rule:nonzero;stroke:none"
         id="path3001"
         inkscape:connector-curvature="0" /></g><g
       id="g3003"
       transform="matrix(0.54199656,0,0,0.54199656,218.95745,435.26124)"><path
         d="M 0,0 43.678,0.273 21.639,33.493 0,0 z"
         style="fill:#000000;fill-opacity:1;fill-rule:nonzero;stroke:none"
         id="path3005"
         inkscape:connector-curvature="0" /></g><g
       id="g3007"
       transform="matrix(0.54199656,0,0,0.54199656,244.72185,435.03788)"><path
         d="M 0,0 43.678,-0.056 22.504,33.081 0,0 z"
         style="fill:#000000;fill-opacity:1;fill-rule:nonzero;stroke:none"
         id="path3009"
         inkscape:connector-curvature="0" /></g><g
       id="g3011"
       transform="matrix(0.54199656,0,0,0.54199656,243.65958,473.45877)"><path
         d="M 0,0 -23.658,-36.596 23.605,-36.532 0,0 z"
         style="fill:#000000;fill-opacity:1;fill-rule:nonzero;stroke:none"
         id="path3013"
         inkscape:connector-curvature="0" /></g><g
       id="g3015"
       transform="matrix(0.54199656,0,0,0.54199656,243.73254,434.78352)"><path
         d="M 0,0 0.338,-0.484 0.67,0 0,0 z"
         style="fill:#000000;fill-opacity:1;fill-rule:nonzero;stroke:none"
         id="path3017"
         inkscape:connector-curvature="0" /></g><g
       id="g3019"
       transform="matrix(0.54199656,0,0,0.54199656,26.948281,262.76293)"><g
         id="g3021"
         clip-path="url(#clipPath3023)"><g
           id="g3027"
           transform="translate(249.6997,377.2158)"><path
             d="m 0,0 c 0,0 89.252,-33.815 89.379,-33.863 2.948,-1.117 5.137,-0.493 6.95,2.35 1.43,2.243 2.123,4.771 3.714,6.944 1.602,2.187 3.422,4.236 5.496,5.988 0.686,0.58 1.394,1.138 2.131,1.651 0.459,0.321 2.021,0.925 2.25,1.386 0,0 -24.982,-50.519 13.323,-63.287 0,0 9.993,-1.109 9.993,-11.102 0,0 0.555,-9.439 -14.989,-9.439 l -6.105,-34.418 -20.542,2.774 15.545,38.863 -6.107,3.886 -31.643,-35.531 -19.432,13.881 44.968,32.197 -3.331,8.882 -57.734,-21.651 -15.546,28.313 71.059,6.107 0.555,9.437 L 9.438,-34.974 0,0 z"
             style="fill:#000000;fill-opacity:1;fill-rule:nonzero;stroke:none"
             id="path3029"
             inkscape:connector-curvature="0" /></g><g
           id="g3031"
           transform="translate(250.021,376.6353)"><path
             d="m 0,0 c 0,0 87.319,-33.088 87.498,-33.154 1.711,-0.632 3.002,-1.172 4.986,-0.997 3.234,0.285 4.063,3.073 5.36,5.609 1.162,2.275 2.64,4.617 4.237,6.605 0.655,0.816 1.808,2.077 2.493,2.868 0.693,0.8 3.241,2.617 4.363,3.115 0,0 -23.932,-48.36 12.595,-62.574 0,0 9.992,-1.109 9.992,-11.101 0,0 -3.297,-10.575 -13.86,-6.96 l -6.95,-35.583 -16.958,2.78 15.012,37.807 -8.479,5.663 -31.274,-35.409 -16.679,12.233 43.014,31.572 -3.864,9.722 -57.584,-21.064 -15.205,26.673 70.421,6.232 0.747,10.594 L 9.349,-33.777 0,0 z"
             style="fill:#000000;fill-opacity:1;fill-rule:nonzero;stroke:none"
             id="path3033"
             inkscape:connector-curvature="0" /></g><g
           id="g3035"
           transform="translate(550.2988,377.2173)"><path
             d="m 0,0 c 0,0 -87.497,-33.604 -88.17,-33.862 -5.255,-2.018 -7.043,3.176 -9.082,6.829 -1.138,2.04 -2.365,3.874 -3.947,5.614 -1.602,1.761 -6.346,4.054 -7.237,5.876 0,0 24.644,-50.52 -13.144,-63.288 0,0 -9.859,-1.109 -9.859,-11.099 0,0 -0.546,-9.44 14.787,-9.44 l 6.021,-34.422 20.268,2.778 -15.34,38.859 6.027,3.89 31.218,-35.534 19.169,13.882 -44.359,32.199 3.285,8.88 56.954,-21.653 15.337,28.315 -70.102,6.107 -0.546,9.437 79.411,11.658 L 0,0 z"
             style="fill:#000000;fill-opacity:1;fill-rule:nonzero;stroke:none"
             id="path3037"
             inkscape:connector-curvature="0" /></g><g
           id="g3039"
           transform="translate(401.0117,307.8594)"><path
             d="m 0,0 -22.058,-43.482 15.692,-10.683 0,-9.329 -3.119,-0.016 0.03,-11.008 10.082,-23.164 8.955,23.411 -0.146,10.774 -3.135,0 0,9.3 14.494,13.236 L 0,0 z"
             style="fill:#000000;fill-opacity:1;fill-rule:nonzero;stroke:none"
             id="path3041"
             inkscape:connector-curvature="0" /></g><g
           id="g3043"
           transform="translate(400.9595,307.585)"><path
             d="m 0,0 -21.437,-43.001 15.829,-10.844 0.989,-9.725 -3.418,-0.306 0.107,-9.971 8.374,-20.749 8.374,20.948 -0.195,9.682 -3.116,0.197 -0.389,10.475 14.215,13.833 L 0,0 z"
             style="fill:#000000;fill-opacity:1;fill-rule:nonzero;stroke:none"
             id="path3045"
             inkscape:connector-curvature="0" /></g><g
           id="g3047"
           transform="translate(434.0117,230.1387)"><path
             d="m 0,0 -8.884,17.766 c 0,0 -1.805,5.227 -7.218,3.331 0,0 -3.936,-2.296 -2.115,-6.597 L -9.16,0 l -5.829,0 -0.013,-6.106 10.559,-6.662 0,6.106 15.545,0 0,-3.885 L 6.662,-19.43 26.106,-4.613 26.09,0 0,0 z"
             style="fill:#000000;fill-opacity:1;fill-rule:nonzero;stroke:none"
             id="path3049"
             inkscape:connector-curvature="0" /></g><g
           id="g3051"
           transform="translate(366.6973,230.1387)"><path
             d="m 0,0 9.121,17.766 c 0,0 1.854,5.227 7.41,3.331 0,0 4.043,-2.296 2.172,-6.597 L 9.406,0 l 5.984,0 0.012,-6.106 -10.838,-6.662 0,6.106 -15.96,0 0,-3.885 4.559,-8.883 L -26.779,-4.432 -26.785,0 0,0 z"
             style="fill:#000000;fill-opacity:1;fill-rule:nonzero;stroke:none"
             id="path3053"
             inkscape:connector-curvature="0" /></g><g
           id="g3055"
           transform="translate(366.7734,229.7832)"><path
             d="m 0,0 9.676,18.018 c 0,0 1.419,4.671 6.591,3.169 0,0 3.706,-2.29 1.835,-6.589 L 8.842,0.084 15.099,0 l -0.084,-5.422 -10.26,-6.507 0,5.839 -16.516,0.167 -0.084,-4.255 4.421,-8.258 -19.431,14.36 -0.006,4.431 L 0,0 z"
             style="fill:#000000;fill-opacity:1;fill-rule:nonzero;stroke:none"
             id="path3057"
             inkscape:connector-curvature="0" /></g><g
           id="g3059"
           transform="translate(549.9043,376.7598)"><path
             d="m 0,0 c 0,0 -86.256,-33.593 -86.492,-33.685 -1.246,-0.485 -2.226,-1.218 -3.631,-1.371 -4.414,-0.482 -5.99,5.859 -7.719,8.882 0,0 -1.994,5.111 -9.222,9.722 0,0 23.058,-48.734 -12.877,-62.2 0,0 -9.871,-1.11 -9.871,-11.102 0,0 3.257,-10.574 13.691,-6.96 l 6.865,-35.583 16.749,2.78 -14.827,37.807 8.375,5.663 30.891,-35.408 16.474,12.232 -43.658,31.135 4.393,11.119 57.581,-22.646 15.081,27.545 -69.923,5.982 -0.747,10.22 L -9.1,-34.151 0,0 z"
             style="fill:#000000;fill-opacity:1;fill-rule:nonzero;stroke:none"
             id="path3061"
             inkscape:connector-curvature="0" /></g></g></g><path
       sodipodi:type="arc"
       style="fill:none;stroke:#0000ff;stroke-width:0.08510941;stroke-miterlimit:4;stroke-opacity:1;stroke-dasharray:none"
       id="path3063"
       sodipodi:cx="512.06274"
       sodipodi:cy="375.45236"
       sodipodi:rx="290.41013"
       sodipodi:ry="224.36671"
       d="m 802.47287,375.45236 a 290.41013,224.36671 0 1 1 -580.82025,0 290.41013,224.36671 0 1 1 580.82025,0 z"
       transform="matrix(0.29275962,0,0,-0.3789058,93.582317,597.08802)" /><path
       sodipodi:type="arc"
       style="fill:none;stroke:#ff00ff;stroke-width:0.03543307;stroke-miterlimit:4;stroke-opacity:1;stroke-dasharray:none"
       id="path3833"
       sodipodi:cx="298.55246"
       sodipodi:cy="87.756332"
       sodipodi:rx="9.0470448"
       sodipodi:ry="8.1423397"
       d="m 307.5995,87.756332 a 9.0470448,8.1423397 0 1 1 -18.09409,0 9.0470448,8.1423397 0 1 1 18.09409,0 z"
       transform="matrix(0.7778511,0,0,-0.86419798,10.030402,598.7697)" /><g
       id="g3839"
       transform="matrix(2.7632135,0,0,-2.7632135,187.36817,525.77467)"
       style="fill:#000000;fill-opacity:1"><text
         id="text3841"
         style="font-size:16.23701477px;font-style:normal;font-weight:bold;text-align:start;text-anchor:start;fill:#000000;fill-opacity:1;font-family:Calibri"
         y="16.553888"
         x="0"
         xml:space="preserve">Rémy </text>
<text
         id="text3843"
         style="font-size:18.73501778px;font-style:normal;font-weight:normal;text-align:start;text-anchor:start;fill:#000000;fill-opacity:1;font-family:Calibri"
         y="16.553888"
         x="42.466038"
         xml:space="preserve"> </text>
</g><g
       transform="matrix(0.81849028,0,0,0.84109489,163.37527,123.05212)"
       id="g3873"><g
         id="g3875"><g
           id="g3881"><g
             id="g3883"><path
               inkscape:connector-curvature="0"
               d="m 213.191,491.646 c -2.887,0 -5.035,-0.282 -6.925,-0.916 l 0,0 c -3.58,-1.209 -5.98,-3.368 -7.165,-6.415 l 0,0 c -1.473,-3.802 -0.775,-8.943 1.866,-13.762 l 0,0 92.606,-161.496 c 3.486,-6.103 7.201,-8.708 12.43,-8.708 l 0,0 c 5.233,0 8.948,2.605 12.434,8.708 l 0,0 92.6,161.496 c 2.641,4.819 3.346,9.96 1.868,13.762 l 0,0 c -1.18,3.047 -3.587,5.206 -7.167,6.415 l 0,0 c -1.885,0.634 -4.031,0.916 -6.926,0.916 l 0,0 -185.621,0 z"
               style="fill:url(#radialGradient3885);stroke:none"
               id="path3893" /></g></g></g></g><g
       transform="matrix(0.81849028,0,0,0.84109489,163.37527,123.05212)"
       id="g3895"><g
         id="g3897"
         clip-path="url(#clipPath3899)"><g
           id="g3903"
           transform="translate(389.8926,445.3428)"><path
             inkscape:connector-curvature="0"
             d="m 0,0 -7.295,-12.723 -40.85,0 31.432,-16.426 -4.789,-8.351 -26.643,14.683 0,-61.15 -12.734,-22.195 L -60.879,0 0,0 z"
             style="fill:#ffffff;fill-opacity:1;fill-rule:nonzero;stroke:none"
             id="path3905" /></g><g
           id="g3907"
           transform="translate(222.1118,445.3428)"><path
             inkscape:connector-curvature="0"
             d="m 0,0 7.294,-12.723 40.852,0 -31.421,-16.426 4.783,-8.351 26.638,14.683 0,-61.15 L 60.88,-106.162 60.88,0 0,0 z"
             style="fill:#ffffff;fill-opacity:1;fill-rule:nonzero;stroke:none"
             id="path3909" /></g><g
           id="g3911"
           transform="translate(325.8555,462.4258)"><path
             inkscape:connector-curvature="0"
             d="m 0,0 0,16.584 -2.939,0 c -1.098,0 -1.479,-0.539 -2.184,-1.525 l -4.549,-6.414 -5.029,7.939 -3.168,0 c -1.046,0 -1.21,-0.95 -1.21,-1.514 l 0,-15.07 3.628,0 0,10.928 4.906,-7.354 1.543,0 5.141,7.307 L -3.861,0 0,0 z"
             style="fill:#ffffff;fill-opacity:1;fill-rule:nonzero;stroke:none"
             id="path3913" /></g><g
           id="g3915"
           transform="translate(333.6016,470.3018)"><path
             inkscape:connector-curvature="0"
             d="m 0,0 0,5.962 1.502,0 c 2.777,0 3.193,-1.637 3.193,-2.617 0,-3.193 -3.709,-3.351 -4.455,-3.351 l -0.129,0 L 0,0 z m 0.246,-2.759 c 0.582,0 2.643,0.065 4.566,0.916 2.483,1.092 3.739,2.993 3.739,5.675 0,1.467 -0.586,4.882 -6.057,4.882 l -5.697,0 c -1.051,0 -1.203,-0.956 -1.203,-1.52 l 0,-15.07 4.406,0 0,5.117 0.117,0 0.129,0"
             style="fill:#ffffff;fill-opacity:1;fill-rule:nonzero;stroke:none"
             id="path3917" /></g><g
           id="g3919"
           transform="translate(303.438,479.0161)"><path
             inkscape:connector-curvature="0"
             d="m 0,0 -3.204,0 c -1.051,0 -1.203,-0.957 -1.203,-1.52 l 0,-8.938 c 0,-2.993 -1.62,-3.615 -2.97,-3.615 -1.361,0 -2.976,0.622 -2.976,3.615 l 0,10.458 -3.204,0 c -1.05,0 -1.209,-0.957 -1.209,-1.52 l 0,-9.272 c 0,-2.922 1.28,-6.403 7.389,-6.403 6.098,0 7.377,3.481 7.377,6.403 L 0,0 z"
             style="fill:#ffffff;fill-opacity:1;fill-rule:nonzero;stroke:none"
             id="path3921" /></g><g
           id="g3923"
           transform="translate(280.9204,462.4258)"><path
             inkscape:connector-curvature="0"
             d="m 0,0 4.413,0 0,16.59 -3.204,0 C 0.158,16.59 0,15.634 0,15.07 L 0,0 z"
             style="fill:#ffffff;fill-opacity:1;fill-rule:nonzero;stroke:none"
             id="path3925" /></g><g
           id="g3927"
           transform="translate(269.3179,470.29)"><path
             inkscape:connector-curvature="0"
             d="m 0,0 -0.135,0 -0.099,0.006 0,5.962 1.455,0 c 2.77,0 3.18,-1.631 3.18,-2.612 C 4.401,0.164 0.739,0 0,0 m 91.022,-7.864 0,16.584 -3.199,0 c -1.057,0 -1.209,-0.956 -1.209,-1.52 l 0,-2.769 L 86.52,4.413 C 84.483,4.025 82.43,3.239 80.235,2.013 l -0.164,-0.088 0,6.795 -3.205,0 c -1.051,0 -1.209,-0.956 -1.209,-1.52 l 0,-8.216 -0.047,-0.035 C 74.93,-1.562 74.295,-2.066 73.733,-2.512 L 73.598,-2.617 C 62.172,-11.585 50.792,-15.628 36.679,-15.722 l -0.435,0 c -6.502,-0.006 -12.734,1.074 -18.034,3.117 -6.174,2.381 -10.833,5.926 -13.856,10.55 l -0.07,0.118 0.123,0.047 c 2.559,1.079 3.856,3.011 3.856,5.728 0,1.473 -0.587,4.882 -6.056,4.882 l -5.692,0 c -1.051,0 -1.209,-0.956 -1.209,-1.52 l 0,-15.064 4.46,0 0,5.117 0.111,-0.006 0.258,0 0.058,0 0.036,-0.035 c 5.81,-6.966 16.848,-15.258 36.45,-15.258 14.683,0 26.642,4.102 38.796,13.292 l 0.182,0.135 0,-3.245 4.414,0 0,6.456 0.047,0.035 c 2.353,1.519 4.377,2.37 6.361,2.676 l 0.135,0.017 0,-9.184 4.408,0 z"
             style="fill:#ffffff;fill-opacity:1;fill-rule:nonzero;stroke:none"
             id="path3929" /></g><g
           id="g3931"
           transform="translate(262.6099,479.0161)"><path
             inkscape:connector-curvature="0"
             d="m 0,0 -13.791,0 c -0.98,0 -1.191,-0.833 -1.191,-1.52 l 0,-2.43 5.27,0 0,-12.634 4.431,0 0,12.634 4.066,0 C -0.152,-3.95 0,-2.993 0,-2.429 L 0,0 z"
             style="fill:#ffffff;fill-opacity:1;fill-rule:nonzero;stroke:none"
             id="path3933" /></g></g></g><g
       id="g4055"
       transform="matrix(0.89033713,0,0,0.89033713,330.81859,540.34983)"
       inkscape:transform-center-x="24.164765"
       inkscape:transform-center-y="78.938213"
       style="stroke:#0000ff;stroke-opacity:1;stroke-width:0.03183789;stroke-miterlimit:4;stroke-dasharray:none"><path
         d="m 0,0 c -2.888,0 -5.035,-0.281 -6.925,-0.915 -3.58,-1.209 -5.98,-3.368 -7.166,-6.415 -1.472,-3.803 -0.774,-8.943 1.867,-13.762 l 92.606,-161.496 c 3.486,-6.103 7.201,-8.709 12.43,-8.709 5.233,0 8.948,2.606 12.434,8.709 l 92.599,161.496 c 2.64,4.819 3.345,9.959 1.867,13.762 -1.18,3.047 -3.586,5.206 -7.166,6.415 C 190.661,-0.281 188.515,0 185.62,0 L 0,0 z"
         style="fill:none;stroke:#0000ff;stroke-width:0.03183789;stroke-linecap:butt;stroke-linejoin:miter;stroke-miterlimit:4;stroke-opacity:1;stroke-dasharray:none"
         id="path4057"
         inkscape:connector-curvature="0" /></g><path
       sodipodi:type="arc"
       style="fill:none;stroke:#ff00ff;stroke-width:0.03543307;stroke-miterlimit:4;stroke-opacity:1;stroke-dasharray:none"
       id="path3833-7"
       sodipodi:cx="298.55246"
       sodipodi:cy="87.756332"
       sodipodi:rx="9.0470448"
       sodipodi:ry="8.1423397"
       d="m 307.5995,87.756332 a 9.0470448,8.1423397 0 1 1 -18.09409,0 9.0470448,8.1423397 0 1 1 18.09409,0 z"
       transform="matrix(0.7778511,0,0,-0.864198,181.7634,466.30936)" /></g></svg>