<?xml version="1.0" encoding="UTF-8" standalone="no"?>
<!-- Created with Inkscape (http://www.inkscape.org/) -->

<svg
   xmlns:dc="http://purl.org/dc/elements/1.1/"
   xmlns:cc="http://creativecommons.org/ns#"
   xmlns:rdf="http://www.w3.org/1999/02/22-rdf-syntax-ns#"
   xmlns:svg="http://www.w3.org/2000/svg"
   xmlns="http://www.w3.org/2000/svg"
   xmlns:sodipodi="http://sodipodi.sourceforge.net/DTD/sodipodi-0.dtd"
   xmlns:inkscape="http://www.inkscape.org/namespaces/inkscape"
   width="90.010223mm"
   height="24.937609mm"
   id="svg2"
   version="1.1"
   inkscape:version="0.91 r13725"
   sodipodi:docname="Porte Telephone JH barres.svg">
  <defs
     id="defs4" />
  <sodipodi:namedview
     id="base"
     pagecolor="#ffffff"
     bordercolor="#666666"
     borderopacity="1.0"
     inkscape:pageopacity="0.0"
     inkscape:pageshadow="2"
     inkscape:zoom="1.3155753"
     inkscape:cx="180.1931"
     inkscape:cy="6.0797882"
     inkscape:document-units="mm"
     inkscape:current-layer="layer1"
     showgrid="true"
     units="mm"
     inkscape:window-width="1280"
     inkscape:window-height="962"
     inkscape:window-x="-8"
     inkscape:window-y="-8"
     inkscape:window-maximized="1"
     fit-margin-top="0"
     fit-margin-left="0"
     fit-margin-right="0"
     fit-margin-bottom="0">
    <inkscape:grid
       type="xygrid"
       id="grid4172"
       units="mm"
       spacingx="3.5433071"
       spacingy="3.5433071"
       originx="0"
       originy="0"
       empspacing="10"
       enabled="true"
       empcolor="#ff3f3f"
       empopacity="0.25098039"
       dotted="false" />
  </sodipodi:namedview>
  <metadata
     id="metadata7">
    <rdf:RDF>
      <cc:Work
         rdf:about="">
        <dc:format>image/svg+xml</dc:format>
        <dc:type
           rdf:resource="http://purl.org/dc/dcmitype/StillImage" />
        <dc:title />
      </cc:Work>
    </rdf:RDF>
  </metadata>
  <g
     inkscape:label="Calque 1"
     inkscape:groupmode="layer"
     id="layer1"
     transform="translate(-8.5324725,-544.55866)">
    <g
       id="g4153"
       transform="matrix(-1,0,0,1,335.99881,0)">
      <path
         inkscape:connector-curvature="0"
         id="rect4202"
         transform="translate(-9.184186,455.76778)"
         d="m 28.279297,88.808594 c -5.726797,0 -10.335938,4.768607 -10.335938,10.691406 l 0,33.01953 c -0.136076,0.68137 -0.208984,1.38683 -0.208984,2.10938 l 0,21.25976 c 0,5.88898 4.73993,10.62891 10.628906,10.62891 l 7.095703,0 0,7.07226 c 0,1.963 1.452056,3.54493 3.257813,3.54493 l 14.722656,0 c 1.805757,0 3.257813,-1.58193 3.257813,-3.54493 l 0,-7.07226 240.964844,0 0,7.07226 c 0,1.963 1.45401,3.54493 3.25977,3.54493 l 14.7207,0 c 1.80575,0 3.25976,-1.58193 3.25976,-3.54493 l 0,-7.07226 7.09961,0 c 5.88898,0 10.63086,-4.73993 10.63086,-10.62891 l 0,-21.25976 c 0,-5.88898 -4.74188,-10.63086 -10.63086,-10.63086 l -191.58203,0 0,-24.49805 c 0,-5.922799 -4.61109,-10.691406 -10.33789,-10.691406 l -95.802733,0 z"
         style="fill:none;fill-opacity:1;stroke:#0000ff;stroke-width:0.03543307;stroke-linejoin:miter;stroke-miterlimit:4;stroke-dasharray:none;stroke-dashoffset:0;stroke-opacity:1" />
      <rect
         transform="matrix(0.5,0.8660254,-0.8660254,0.5,0,0)"
         y="252.89757"
         x="494.80698"
         height="10.624608"
         width="21.25453"
         id="rect4210"
         style="fill:none;fill-opacity:1;stroke:#ff0000;stroke-width:0.03543307;stroke-linejoin:miter;stroke-miterlimit:4;stroke-dasharray:none;stroke-dashoffset:0;stroke-opacity:1" />
      <rect
         transform="matrix(0.5,-0.8660254,0.8660254,0.5,0,0)"
         y="369.50107"
         x="-449.9679"
         height="10.624608"
         width="21.25453"
         id="rect4210-9"
         style="fill:none;fill-opacity:1;stroke:#ff0000;stroke-width:0.03543307;stroke-linejoin:miter;stroke-miterlimit:4;stroke-dasharray:none;stroke-dashoffset:0;stroke-opacity:1" />
      <rect
         transform="matrix(0.36624137,0.93051989,-0.93051989,0.36624137,0,0)"
         y="-71.856926"
         x="661.11792"
         height="10.624608"
         width="21.25453"
         id="rect4210-3"
         style="fill:none;fill-opacity:1;stroke:#ff0000;stroke-width:0.03543307;stroke-linejoin:miter;stroke-miterlimit:4;stroke-dasharray:none;stroke-dashoffset:0;stroke-opacity:1" />
    </g>
  </g>
</svg>
