<?xml version="1.0" encoding="UTF-8" standalone="no"?>
<!-- Created with Inkscape (http://www.inkscape.org/) -->

<svg
   xmlns:dc="http://purl.org/dc/elements/1.1/"
   xmlns:cc="http://creativecommons.org/ns#"
   xmlns:rdf="http://www.w3.org/1999/02/22-rdf-syntax-ns#"
   xmlns:svg="http://www.w3.org/2000/svg"
   xmlns="http://www.w3.org/2000/svg"
   xmlns:sodipodi="http://sodipodi.sourceforge.net/DTD/sodipodi-0.dtd"
   xmlns:inkscape="http://www.inkscape.org/namespaces/inkscape"
   width="90.010223mm"
   height="24.937609mm"
   id="svg2"
   version="1.1"
   inkscape:version="0.91 r13725"
   sodipodi:docname="Porte Telephone JH barres.svg">
  <defs
     id="defs4" />
  <sodipodi:namedview
     id="base"
     pagecolor="#ffffff"
     bordercolor="#666666"
     borderopacity="1.0"
     inkscape:pageopacity="0.0"
     inkscape:pageshadow="2"
     inkscape:zoom="2"
     inkscape:cx="118.20066"
     inkscape:cy="138.73832"
     inkscape:document-units="mm"
     inkscape:current-layer="g4153"
     showgrid="true"
     units="mm"
     inkscape:window-width="1280"
     inkscape:window-height="962"
     inkscape:window-x="-8"
     inkscape:window-y="-8"
     inkscape:window-maximized="1"
     fit-margin-top="0"
     fit-margin-left="0"
     fit-margin-right="0"
     fit-margin-bottom="0">
    <inkscape:grid
       type="xygrid"
       id="grid4172"
       units="mm"
       spacingx="3.5433071"
       spacingy="3.5433071"
       originx="0"
       originy="0"
       empspacing="10"
       enabled="true"
       empcolor="#ff3f3f"
       empopacity="0.25098039"
       dotted="false" />
  </sodipodi:namedview>
  <metadata
     id="metadata7">
    <rdf:RDF>
      <cc:Work
         rdf:about="">
        <dc:format>image/svg+xml</dc:format>
        <dc:type
           rdf:resource="http://purl.org/dc/dcmitype/StillImage" />
        <dc:title />
      </cc:Work>
    </rdf:RDF>
  </metadata>
  <g
     inkscape:label="Calque 1"
     inkscape:groupmode="layer"
     id="layer1"
     transform="translate(-8.5324725,-544.55866)">
    <g
       id="g4153"
       transform="matrix(-1,0,0,1,335.99881,0)">
      <path
         style="fill:none;fill-opacity:1;stroke:#0000ff;stroke-width:0.03543307;stroke-linejoin:miter;stroke-miterlimit:4;stroke-dasharray:none;stroke-dashoffset:0;stroke-opacity:1"
         d="M 318.91615 45.83803 L 318.91615 67.09779 C 318.91615 72.98677 314.17622 77.7267 308.28724 77.7267 L 301.19154 77.7267 L 301.19154 84.79896 C 301.19154 86.76196 299.73948 88.34389 297.93373 88.34389 L 283.21107 88.34389 C 281.40531 88.34389 279.95326 86.76196 279.95326 84.79896 L 279.95326 77.7267 L 38.988417 77.7267 L 38.988417 84.79896 C 38.988417 86.76196 37.534407 88.34389 35.728647 88.34389 L 21.007947 88.34389 C 19.202197 88.34389 17.748187 86.76196 17.748187 84.79896 L 17.748187 77.7267 L 10.648577 77.7267 C 4.7595975 77.7267 0.0177175 72.98677 0.0177175 67.09779 L 0.0177175 45.83803 C 0.0177175 39.94905 4.7595975 35.20717 10.648577 35.20717 L 202.23061 35.20717 "
         id="path4168"
         transform="matrix(-1,0,0,1,327.46634,544.55866)" />
      <path
         style="fill:none;fill-opacity:1;stroke:#0000ff;stroke-width:0.03543307;stroke-linejoin:miter;stroke-miterlimit:4;stroke-dasharray:none;stroke-dashoffset:0;stroke-opacity:1"
         d="m 202.23061,35.20717 -0.25,-77.935233 c 0,-9.503397 4.86109,-10.584507 10.58789,-10.584507 l 95.80273,0 c 5.72679,0 10.30661,4.76868 10.33593,10.69141 l 0.034,6.87294 c 0.10202,40.20671 0.17497,80.8637 0.17497,81.58625"
         id="rect4202"
         transform="matrix(-1,0,0,1,327.46634,544.55866)"
         inkscape:connector-curvature="0"
         sodipodi:nodetypes="ccssscc" />
      <rect
         transform="matrix(0.5,0.8660254,-0.8660254,0.5,0,0)"
         y="226.32275"
         x="448.77805"
         height="10.624608"
         width="21.25453"
         id="rect4210"
         style="fill:none;fill-opacity:1;stroke:#ff0000;stroke-width:0.03543307;stroke-linejoin:miter;stroke-miterlimit:4;stroke-dasharray:none;stroke-dashoffset:0;stroke-opacity:1" />
      <rect
         transform="matrix(0.5,-0.8660254,0.8660254,0.5,0,0)"
         y="342.92627"
         x="-403.93896"
         height="10.624608"
         width="21.25453"
         id="rect4210-9"
         style="fill:none;fill-opacity:1;stroke:#ff0000;stroke-width:0.03543307;stroke-linejoin:miter;stroke-miterlimit:4;stroke-dasharray:none;stroke-dashoffset:0;stroke-opacity:1" />
      <rect
         transform="matrix(0.36624137,0.93051989,-0.93051989,0.36624137,0,0)"
         y="-71.856926"
         x="661.11792"
         height="10.624608"
         width="21.25453"
         id="rect4210-3"
         style="fill:none;fill-opacity:1;stroke:#ff0000;stroke-width:0.03543307;stroke-linejoin:miter;stroke-miterlimit:4;stroke-dasharray:none;stroke-dashoffset:0;stroke-opacity:1" />
    </g>
  </g>
</svg>
