<?xml version="1.0" encoding="UTF-8" standalone="no"?>
<!-- Created with Inkscape (http://www.inkscape.org/) -->

<svg
   xmlns:dc="http://purl.org/dc/elements/1.1/"
   xmlns:cc="http://creativecommons.org/ns#"
   xmlns:rdf="http://www.w3.org/1999/02/22-rdf-syntax-ns#"
   xmlns:svg="http://www.w3.org/2000/svg"
   xmlns="http://www.w3.org/2000/svg"
   xmlns:sodipodi="http://sodipodi.sourceforge.net/DTD/sodipodi-0.dtd"
   xmlns:inkscape="http://www.inkscape.org/namespaces/inkscape"
   width="305.23685"
   height="531.22125"
   id="svg2"
   version="1.1"
   inkscape:version="0.91 r13725"
   sodipodi:docname="Porte Telephone JH.svg">
  <defs
     id="defs4" />
  <sodipodi:namedview
     id="base"
     pagecolor="#ffffff"
     bordercolor="#666666"
     borderopacity="1.0"
     inkscape:pageopacity="0.0"
     inkscape:pageshadow="2"
     inkscape:zoom="0.9899495"
     inkscape:cx="215.05054"
     inkscape:cy="389.47978"
     inkscape:document-units="mm"
     inkscape:current-layer="layer1"
     showgrid="true"
     units="mm"
     inkscape:window-width="1280"
     inkscape:window-height="962"
     inkscape:window-x="-8"
     inkscape:window-y="-8"
     inkscape:window-maximized="1"
     fit-margin-top="0"
     fit-margin-left="0"
     fit-margin-right="0"
     fit-margin-bottom="0">
    <inkscape:grid
       type="xygrid"
       id="grid4172"
       units="cm"
       spacingx="35.433071"
       spacingy="35.433071"
       originx="0.17213561"
       originy="0.00093574313" />
  </sodipodi:namedview>
  <metadata
     id="metadata7">
    <rdf:RDF>
      <cc:Work
         rdf:about="">
        <dc:format>image/svg+xml</dc:format>
        <dc:type
           rdf:resource="http://purl.org/dc/dcmitype/StillImage" />
        <dc:title></dc:title>
      </cc:Work>
    </rdf:RDF>
  </metadata>
  <g
     inkscape:label="Calque 1"
     inkscape:groupmode="layer"
     id="layer1"
     transform="translate(-256.40942,-438.30933)">
    <path
       style="fill:none;stroke:#0000ff;stroke-width:0.37942746;stroke-miterlimit:4;stroke-dasharray:none;stroke-dashoffset:0;stroke-opacity:1"
       d="m 21.626953,177.63086 c -5.88897,0 -10.630859,4.74189 -10.630859,10.63086 l 0,3.05859 -7.4355471,0 c -1.9629921,0 -3.54296877,1.57998 -3.54296877,3.54297 l 0,14.17383 c 0,1.96299 1.57997667,3.54297 3.54296877,3.54297 l 7.4355471,0 0,365.18359 -7.2558596,0 c -1.9626457,0 -3.54296877,2.09643 -3.54296878,4.70117 l 0,11.44922 c 0,2.60475 1.58032308,4.70117 3.54296878,4.70117 l 7.2558596,0 0,78.36133 -7.2500002,0 c -1.9626458,0 -3.5429688,2.09643 -3.5429688,4.70117 l 0,11.44727 c 0,2.60475 1.580323,4.70312 3.5429688,4.70312 l 7.2500002,0 0,0.0137 c 0,5.88897 4.741883,10.63086 10.630859,10.63086 l 261.824217,0 c 5.88898,0 10.63086,-4.74189 10.63086,-10.63086 l 0,-0.0137 7.25,0 c 1.96265,0 3.54297,-2.09837 3.54297,-4.70312 l 0,-11.44727 c 0,-2.60474 -1.58032,-4.70117 -3.54297,-4.70117 l -7.25,0 0,-78.36133 7.24414,0 c 1.96265,0 3.54297,-2.09642 3.54297,-4.70117 l 0,-11.44922 c 0,-2.60474 -1.58032,-4.70117 -3.54297,-4.70117 l -7.24414,0 0,-365.18359 7.11719,0 c 1.96299,0 3.54297,-1.57998 3.54297,-3.54297 l 0,-14.17383 c 0,-1.96299 -1.57998,-3.54297 -3.54297,-3.54297 l -7.11719,0 0,-3.05859 c 0,-5.88897 -4.74188,-10.63086 -10.63086,-10.63086 l -261.824217,0 z"
       transform="translate(256.58156,260.86818)"
       id="path4757"
       inkscape:connector-curvature="0" />
    <path
       inkscape:connector-curvature="0"
       id="path588-4"
       style="fill:none;stroke:#ff0000;stroke-width:0.02668556;stroke-linecap:round;stroke-linejoin:round;stroke-miterlimit:4;stroke-dasharray:none;stroke-opacity:1"
       d="m 509.08834,675.72651 36.35208,0 m -84.82155,0 42.41078,0 m -90.8795,0 42.41075,0 m -90.8802,0 42.41075,0 m -90.87928,0 42.41053,0 m -48.46909,0 -36.35197,0 m 18.17608,-3.3707 -24.23495,0 m 66.6452,0 -36.35161,0 m 84.82109,0 -42.41079,0 m 90.87953,0 -42.41006,0 m 90.87881,0 -42.41008,0 m 84.82155,0 -36.3528,0 m 66.64549,0 -24.23472,0 m -18.17604,-64.04135 36.35208,0 m -84.82155,0 42.41078,0 m -90.8795,0 42.41075,0 m -90.8802,0 42.41075,0 m -90.87928,0 42.41053,0 m -48.46909,0 -36.35197,0 m 18.17608,-3.37062 -24.23495,0 m 66.6452,0 -36.35161,0 m 84.82109,0 -42.41079,0 m 90.87953,0 -42.41006,0 m 90.87881,0 -42.41008,0 m 84.82155,0 -36.3528,0 m 66.64549,0 -24.23472,0 m -236.28666,60.67067 -24.23495,0 m 66.6452,0 -36.35161,0 m 84.82109,0 -42.41079,0 m 90.87953,0 -42.41006,0 m 90.87881,0 -42.41008,0 m 84.82155,0 -36.3528,0 m 66.64549,0 -24.23472,0 m -18.17604,-3.3706 36.35208,0 m -84.82155,0 42.41078,0 m -90.8795,0 42.41075,0 m -90.8802,0 42.41075,0 m -90.87928,0 42.41053,0 m -48.46909,0 -36.35197,0 m 18.17608,-43.81752 -24.23495,0 m 66.6452,0 -36.35161,0 m 84.82109,0 -42.41079,0 m 90.87953,0 -42.41006,0 m 90.87881,0 -42.41008,0 m 84.82155,0 -36.3528,0 m 66.64549,0 -24.23472,0 m -18.17604,-3.37064 36.35208,0 m -84.82155,0 42.41078,0 m -90.8795,0 42.41075,0 m -90.8802,0 42.41075,0 m -90.87928,0 42.41053,0 m -48.46909,0 -36.35197,0 m 18.17608,-3.37064 -24.23495,0 m 66.6452,0 -36.35161,0 m 84.82109,0 -42.41079,0 m 90.87953,0 -42.41006,0 m 90.87881,0 -42.41008,0 m 84.82155,0 -36.3528,0 m 66.64549,0 -24.23472,0 m -18.17604,57.3001 36.35208,0 m -84.82155,0 42.41078,0 m -90.8795,0 42.41075,0 m -90.8802,0 42.41075,0 m -90.87928,0 42.41053,0 m -48.46909,0 -36.35197,0 m 18.17608,-23.59449 -24.23495,0 m 66.6452,0 -36.35161,0 m 84.82109,0 -42.41079,0 m 90.87953,0 -42.41006,0 m 90.87881,0 -42.41008,0 m 84.82155,0 -36.3528,0 m 66.64549,0 -24.23472,0 m -18.17604,-3.37064 36.35208,0 m -84.82155,0 42.41078,0 m -90.8795,0 42.41075,0 m -90.8802,0 42.41075,0 m -90.87928,0 42.41053,0 m -48.46909,0 -36.35197,0 m 18.17608,16.85323 -24.23495,0 m 66.6452,0 -36.35161,0 m 84.82109,0 -42.41079,0 m 90.87953,0 -42.41006,0 m 90.87881,0 -42.41008,0 m 84.82155,0 -36.3528,0 m 66.64549,0 -24.23472,0 m -18.17604,-3.37066 36.35208,0 m -84.82155,0 42.41078,0 m -90.8795,0 42.41075,0 m -90.8802,0 42.41075,0 m -90.87928,0 42.41053,0 m -48.46909,0 -36.35197,0 m 18.17608,-3.37064 -24.23495,0 m 66.6452,0 -36.35161,0 m 84.82109,0 -42.41079,0 m 90.87953,0 -42.41006,0 m 90.87881,0 -42.41008,0 m 84.82155,0 -36.3528,0 m 66.64549,0 -24.23472,0 m -18.17604,-3.37064 36.35208,0 m -84.82155,0 42.41078,0 m -90.8795,0 42.41075,0 m -90.8802,0 42.41075,0 m -90.87928,0 42.41053,0 m -48.46909,0 -36.35197,0 m 18.17608,-23.59449 -24.23495,0 m 66.6452,0 -36.35161,0 m 84.82109,0 -42.41079,0 m 90.87953,0 -42.41006,0 m 90.87881,0 -42.41008,0 m 84.82155,0 -36.3528,0 m 66.64549,0 -24.23472,0 m -18.17604,-3.36983 36.35208,0 m -84.82155,0 42.41078,0 m -90.8795,0 42.41075,0 m -90.8802,0 42.41075,0 m -90.87928,0 42.41053,0 m -48.46909,0 -36.35197,0 m 18.17608,16.85239 -24.23495,0 m 66.6452,0 -36.35161,0 m 84.82109,0 -42.41079,0 m 90.87953,0 -42.41006,0 m 90.87881,0 -42.41008,0 m 84.82155,0 -36.3528,0 m 66.64549,0 -24.23472,0 m -18.17604,-3.37064 36.35208,0 m -84.82155,0 42.41078,0 m -90.8795,0 42.41075,0 m -90.8802,0 42.41075,0 m -90.87928,0 42.41053,0 m -48.46909,0 -36.35197,0 m 18.17608,-3.37064 -24.23495,0 m 66.6452,0 -36.35161,0 m 84.82109,0 -42.41079,0 m 90.87953,0 -42.41006,0 m 90.87881,0 -42.41008,0 m 84.82155,0 -36.3528,0 m 66.64549,0 -24.23472,0 m -18.17604,-3.37064 36.35208,0 m -84.82155,0 42.41078,0 m -90.8795,0 42.41075,0 m -90.8802,0 42.41075,0 m -90.87928,0 42.41053,0 m -48.46909,0 -36.35197,0"
       sodipodi:nodetypes="cccccccccccccccccccccccccccccccccccccccccccccccccccccccccccccccccccccccccccccccccccccccccccccccccccccccccccccccccccccccccccccccccccccccccccccccccccccccccccccccccccccccccccccccccccccccccccccccccccccccccccccccccccccccccccccccccccccccccccccccccccccccccccccccccccccccccccccccccccccccccccccc" />
    <path
       inkscape:connector-curvature="0"
       id="path588-4-7"
       style="fill:none;stroke:#ff0000;stroke-width:0.02669627;stroke-linecap:round;stroke-linejoin:round;stroke-miterlimit:4;stroke-dasharray:none;stroke-opacity:1"
       d="m 509.08833,934.08319 36.35207,0 m -84.82154,0 42.41078,0 m -90.8795,0 42.41075,0 m -90.8802,0 42.41075,0 m -90.87928,0 42.41053,0 m -48.46909,0 -36.35196,0 m 18.17607,-3.3733 -24.23494,0 m 66.64519,0 -36.35161,0 m 84.82109,0 -42.41079,0 m 90.87953,0 -42.41006,0 m 90.87881,0 -42.41008,0 m 84.82155,0 -36.3528,0 m 66.64548,0 -24.23471,0 m -18.17604,-64.09281 36.35207,0 m -84.82154,0 42.41078,0 m -90.8795,0 42.41075,0 m -90.8802,0 42.41075,0 m -90.87928,0 42.41053,0 m -48.46909,0 -36.35196,0 m 18.17607,-3.37333 -24.23494,0 m 66.64519,0 -36.35161,0 m 84.82109,0 -42.41079,0 m 90.87953,0 -42.41006,0 m 90.87881,0 -42.41008,0 m 84.82155,0 -36.3528,0 m 66.64548,0 -24.23471,0 m -236.28666,60.71942 -24.23494,0 m 66.64519,0 -36.35161,0 m 84.82109,0 -42.41079,0 m 90.87953,0 -42.41006,0 m 90.87881,0 -42.41008,0 m 84.82155,0 -36.3528,0 m 66.64548,0 -24.23471,0 m -18.17604,-3.3733 36.35207,0 m -84.82154,0 42.41078,0 m -90.8795,0 42.41075,0 m -90.8802,0 42.41075,0 m -90.87928,0 42.41053,0 m -48.46909,0 -36.35196,0 m 18.17607,-43.85274 -24.23494,0 m 66.64519,0 -36.35161,0 m 84.82109,0 -42.41079,0 m 90.87953,0 -42.41006,0 m 90.87881,0 -42.41008,0 m 84.82155,0 -36.3528,0 m 66.64548,0 -24.23471,0 m -18.17604,-3.37335 36.35207,0 m -84.82154,0 42.41078,0 m -90.8795,0 42.41075,0 m -90.8802,0 42.41075,0 m -90.87928,0 42.41053,0 m -48.46909,0 -36.35196,0 m 18.17607,-3.37334 -24.23494,0 m 66.64519,0 -36.35161,0 m 84.82109,0 -42.41079,0 m 90.87953,0 -42.41006,0 m 90.87881,0 -42.41008,0 m 84.82155,0 -36.3528,0 m 66.64548,0 -24.23471,0 m -18.17604,57.34614 36.35207,0 m -84.82154,0 42.41078,0 m -90.8795,0 42.41075,0 m -90.8802,0 42.41075,0 m -90.87928,0 42.41053,0 m -48.46909,0 -36.35196,0 m 18.17607,-23.61345 -24.23494,0 m 66.64519,0 -36.35161,0 m 84.82109,0 -42.41079,0 m 90.87953,0 -42.41006,0 m 90.87881,0 -42.41008,0 m 84.82155,0 -36.3528,0 m 66.64548,0 -24.23471,0 m -18.17604,-3.3734 36.35207,0 m -84.82154,0 42.41078,0 m -90.8795,0 42.41075,0 m -90.8802,0 42.41075,0 m -90.87928,0 42.41053,0 m -48.46909,0 -36.35196,0 m 18.17607,16.86673 -24.23494,0 m 66.64519,0 -36.35161,0 m 84.82109,0 -42.41079,0 m 90.87953,0 -42.41006,0 m 90.87881,0 -42.41008,0 m 84.82155,0 -36.3528,0 m 66.64548,0 -24.23471,0 m -18.17604,-3.37331 36.35207,0 m -84.82154,0 42.41078,0 m -90.8795,0 42.41075,0 m -90.8802,0 42.41075,0 m -90.87928,0 42.41053,0 m -48.46909,0 -36.35196,0 m 18.17607,-3.3733 -24.23494,0 m 66.64519,0 -36.35161,0 m 84.82109,0 -42.41079,0 m 90.87953,0 -42.41006,0 m 90.87881,0 -42.41008,0 m 84.82155,0 -36.3528,0 m 66.64548,0 -24.23471,0 m -18.17604,-3.37341 36.35207,0 m -84.82154,0 42.41078,0 m -90.8795,0 42.41075,0 m -90.8802,0 42.41075,0 m -90.87928,0 42.41053,0 m -48.46909,0 -36.35196,0 m 18.17607,-23.61345 -24.23494,0 m 66.64519,0 -36.35161,0 m 84.82109,0 -42.41079,0 m 90.87953,0 -42.41006,0 m 90.87881,0 -42.41008,0 m 84.82155,0 -36.3528,0 m 66.64548,0 -24.23471,0 m -18.17604,-3.37249 36.35207,0 m -84.82154,0 42.41078,0 m -90.8795,0 42.41075,0 m -90.8802,0 42.41075,0 m -90.87928,0 42.41053,0 m -48.46909,0 -36.35196,0 m 18.17607,16.86592 -24.23494,0 m 66.64519,0 -36.35161,0 m 84.82109,0 -42.41079,0 m 90.87953,0 -42.41006,0 m 90.87881,0 -42.41008,0 m 84.82155,0 -36.3528,0 m 66.64548,0 -24.23471,0 m -18.17604,-3.37331 36.35207,0 m -84.82154,0 42.41078,0 m -90.8795,0 42.41075,0 m -90.8802,0 42.41075,0 m -90.87928,0 42.41053,0 m -48.46909,0 -36.35196,0 m 18.17607,-3.3734 -24.23494,0 m 66.64519,0 -36.35161,0 m 84.82109,0 -42.41079,0 m 90.87953,0 -42.41006,0 m 90.87881,0 -42.41008,0 m 84.82155,0 -36.3528,0 m 66.64548,0 -24.23471,0 m -18.17604,-3.37331 36.35207,0 m -84.82154,0 42.41078,0 m -90.8795,0 42.41075,0 m -90.8802,0 42.41075,0 m -90.87928,0 42.41053,0 m -48.46909,0 -36.35196,0"
       sodipodi:nodetypes="cccccccccccccccccccccccccccccccccccccccccccccccccccccccccccccccccccccccccccccccccccccccccccccccccccccccccccccccccccccccccccccccccccccccccccccccccccccccccccccccccccccccccccccccccccccccccccccccccccccccccccccccccccccccccccccccccccccccccccccccccccccccccccccccccccccccccccccccccccccccccccccc" />
  </g>
</svg>
